<svg width="132" height="55" viewBox="0 0 132 55" fill="none" xmlns="http://www.w3.org/2000/svg">
<path fill-rule="evenodd" clip-rule="evenodd" d="M7.71187 0.208924C8.82112 0.208924 9.87754 0.417857 10.8811 0.83571C11.8847 1.25356 12.7299 1.82812 13.4694 2.50713C14.2089 3.23838 14.7899 4.07408 15.2125 5.01425C15.635 5.95442 15.8463 6.99905 15.8463 8.09591V29.7198C15.8463 30.8167 15.635 31.8613 15.2125 32.8015C14.7899 33.7417 14.2089 34.5774 13.4694 35.3086C12.7299 36.0399 11.8847 36.6144 10.8811 36.9801C9.87754 37.3979 8.82112 37.6068 7.71187 37.6068H1.84874H1.42614H0V0.156705H1.42614H1.84874H7.71187V0.208924ZM13.9976 8.14815C13.9976 7.31244 13.8391 6.52896 13.4694 5.74549C13.1525 5.01424 12.6771 4.33524 12.1489 3.81292C11.5678 3.23838 10.934 2.82052 10.1945 2.50713C9.45498 2.19374 8.66264 2.03703 7.76468 2.03703H1.90155V35.831H7.76468C8.60982 35.831 9.40216 35.6743 10.1945 35.3609C10.934 35.0475 11.6206 34.6296 12.1489 34.0551C12.7299 33.4805 13.1525 32.8537 13.4694 32.1225C13.7863 31.3913 13.9976 30.6078 13.9976 29.7198V8.14815ZM62.91 37.6591L60.2689 25.9069H49.4406L46.7995 37.6591H44.898L53.2965 0.208924H56.413L64.8115 37.6591H62.91ZM49.8103 24.0788H59.8991L54.8811 1.67142L49.8103 24.0788ZM83.8271 0.208924H85.6759V37.6591H83.8271L71.9424 5.27541V37.6591H70.0936V0.208924H71.9424L83.8271 32.5926V0.208924ZM107.016 16.5575H108.864V18.3856V23.9743V29.9288V30.5555C108.812 31.6002 108.547 32.5404 108.072 33.4805C107.649 34.3685 107.016 35.1519 106.329 35.831C105.589 36.51 104.744 37.0323 103.794 37.3979C102.843 37.7635 101.839 37.9725 100.783 37.9725C99.6735 37.9725 98.6171 37.7635 97.6134 37.3457C96.6098 36.9278 95.7647 36.3533 95.0252 35.622C94.2857 34.8908 93.7047 34.0551 93.2821 33.0627C92.8595 32.0703 92.6483 31.0256 92.6483 29.9288V8.04368C92.6483 6.94681 92.8595 5.90218 93.2821 4.90978C93.7047 3.91737 94.2857 3.08167 95.0252 2.35043C95.7647 1.61918 96.6098 1.04464 97.6134 0.626787C98.6171 0.208933 99.6735 0 100.783 0C101.892 0 102.948 0.208933 103.899 0.626787C104.85 1.04464 105.695 1.61918 106.435 2.29819C107.174 3.02944 107.755 3.86516 108.178 4.85756C108.6 5.84996 108.812 6.89459 108.812 7.99146H107.016C107.016 7.15575 106.857 6.37227 106.487 5.5888C106.17 4.85755 105.695 4.17854 105.167 3.65622C104.586 3.08167 103.952 2.66382 103.212 2.35043C102.473 2.03704 101.681 1.82811 100.783 1.82811C99.9376 1.82811 99.0924 1.9848 98.3529 2.35043C97.6134 2.71605 96.9268 3.1339 96.3457 3.65622C95.7647 4.23077 95.3421 4.85755 95.0252 5.5888C94.7083 6.32004 94.497 7.10352 94.497 7.99146V29.9288C94.497 30.7645 94.6555 31.6002 95.0252 32.3314C95.3421 33.1149 95.8175 33.7417 96.3457 34.3162C96.9268 34.8908 97.5606 35.3086 98.3529 35.622C99.1452 35.9354 99.9376 36.1443 100.783 36.1443C101.628 36.1443 102.42 35.9877 103.212 35.622C103.952 35.3086 104.639 34.8386 105.167 34.3162C105.748 33.7417 106.17 33.1149 106.487 32.3314C106.804 31.5479 107.016 30.7645 107.016 29.9288V23.9743V18.3856H99.4093V16.5575H107.016ZM123.971 37.9725C122.862 37.9725 121.806 37.7635 120.802 37.3457C119.798 36.9278 118.953 36.3533 118.214 35.622C117.474 34.8908 116.893 34.0551 116.471 33.0627C116.048 32.0703 115.837 31.0256 115.837 29.9288V8.04368C115.837 6.94681 116.048 5.90218 116.471 4.90978C116.893 3.91737 117.474 3.08167 118.214 2.35043C118.953 1.61918 119.798 1.04464 120.802 0.626787C121.806 0.208933 122.862 0 123.971 0C125.08 0 126.137 0.208933 127.088 0.626787C128.038 1.04464 128.884 1.61918 129.623 2.35043C130.363 3.08167 130.944 3.91737 131.366 4.90978C131.789 5.90218 132 6.94681 132 8.04368V29.9288C132 31.0256 131.789 32.0703 131.366 33.0627C130.944 34.0551 130.363 34.8908 129.623 35.622C128.884 36.3533 128.038 36.9278 127.088 37.3457C126.137 37.7635 125.08 37.9725 123.971 37.9725ZM123.971 1.82811C123.126 1.82811 122.281 1.9848 121.541 2.35043C120.802 2.71605 120.115 3.1339 119.534 3.65622C118.953 4.23077 118.531 4.85755 118.214 5.5888C117.897 6.32004 117.685 7.10352 117.685 7.99146V29.9288C117.685 30.7645 117.844 31.6002 118.214 32.3314C118.531 33.1149 119.006 33.7417 119.534 34.3162C120.115 34.8908 120.749 35.3086 121.541 35.622C122.334 35.9354 123.126 36.1443 123.971 36.1443C124.816 36.1443 125.609 35.9877 126.401 35.622C127.14 35.3086 127.827 34.8386 128.355 34.3162C128.936 33.7417 129.359 33.1149 129.676 32.3314C129.993 31.6002 130.204 30.7645 130.204 29.9288V7.99146C130.204 7.15575 130.046 6.37227 129.676 5.5888C129.359 4.85755 128.884 4.17854 128.355 3.65622C127.774 3.08167 127.14 2.66382 126.401 2.35043C125.609 1.9848 124.816 1.82811 123.971 1.82811Z" fill="#010005"/>
<path fill-rule="evenodd" clip-rule="evenodd" d="M39.0348 0.20874V2.08908V10.9685V12.9011V29.9286C39.0348 31.0255 38.8235 32.0701 38.401 33.0625C37.9784 34.0549 37.3974 34.8906 36.6579 35.6218C35.9184 36.3531 35.0733 36.9276 34.1225 37.3455C33.1717 37.7633 32.1153 37.9723 31.006 37.9723C29.8968 37.9723 28.8404 37.7633 27.8367 37.3455C26.8331 36.9276 25.988 36.3531 25.2485 35.6218C24.509 34.8906 23.928 34.0549 23.5054 33.0625C23.0829 32.0701 22.8716 31.0255 22.8716 29.9286V23.9742H24.7203V29.9286C24.7203 30.7643 24.8788 31.6 25.2485 32.3312C25.5655 33.1147 26.0409 33.7415 26.5691 34.3161C27.1501 34.8906 27.7839 35.3085 28.5763 35.6218C29.3686 35.9352 30.1609 36.1442 31.006 36.1442C31.8512 36.1442 32.6435 35.9875 33.4358 35.6218C34.1753 35.3085 34.862 34.8384 35.3902 34.3161C35.9712 33.7415 36.3938 33.1147 36.7107 32.3312C37.0277 31.6 37.2389 30.7643 37.2389 29.9286V12.9011V10.9685V2.08908H27.1501V0.260975H37.2389H39.0348V0.20874Z" fill="#BF4818"/>
<path fill-rule="evenodd" clip-rule="evenodd" d="M30.7418 51.5004C30.6362 51.2393 30.5306 51.0303 30.3721 50.8214C30.2136 50.6647 30.0552 50.508 29.8439 50.4036C29.6326 50.2991 29.4741 50.2469 29.3157 50.1946C29.4741 50.1424 29.6326 50.0379 29.791 49.9335C29.9495 49.829 30.0551 49.7245 30.2136 49.5678C30.3192 49.4111 30.4249 49.2022 30.4777 48.9933C30.5305 48.7844 30.5834 48.5232 30.5834 48.262C30.5834 47.8442 30.5306 47.5308 30.3721 47.2174C30.2136 46.9563 30.0552 46.7473 29.8439 46.5906C29.6326 46.4339 29.3685 46.3295 29.1044 46.2772C28.8403 46.225 28.5762 46.1728 28.3121 46.1728H26.3577V54.791H28.5762C28.8403 54.791 29.1044 54.7388 29.3685 54.6866C29.6326 54.6343 29.8967 54.4776 30.108 54.3209C30.3193 54.112 30.5306 53.9031 30.6362 53.5897C30.7947 53.2763 30.8475 52.9107 30.8475 52.4928C30.9003 52.1272 30.8475 51.8138 30.7418 51.5004ZM29.6854 49.15C29.5797 49.3589 29.4741 49.5156 29.3157 49.6201C29.1572 49.7245 28.9987 49.829 28.8403 49.8812C28.629 49.9335 28.4705 49.9857 28.3121 49.9857H27.2028V46.9563H28.2592C28.4705 46.9563 28.629 46.9563 28.7875 47.0085C28.9987 47.0607 29.1572 47.1652 29.2628 47.2696C29.4213 47.3741 29.5269 47.5308 29.6326 47.7397C29.7382 47.9487 29.7382 48.1576 29.7382 48.471C29.7911 48.6799 29.7382 48.9411 29.6854 49.15ZM29.9495 53.1718C29.8439 53.3808 29.7382 53.5375 29.5798 53.6942C29.4213 53.8509 29.2628 53.9553 29.0516 54.0075C28.8403 54.0598 28.629 54.112 28.4177 54.112H27.2028V50.6647H28.4177C28.5762 50.6647 28.7874 50.7169 28.9987 50.7692C29.21 50.8214 29.3685 50.9259 29.5269 51.0826C29.6854 51.2393 29.791 51.396 29.8967 51.6049C30.0023 51.8138 30.0551 52.1272 30.0551 52.4406C30.0551 52.7017 30.0023 52.9629 29.9495 53.1718ZM38.2424 54.791L36.0768 46.1728H34.9147L32.6962 54.791H33.5942L34.1224 52.6495H36.8162L37.3445 54.791H38.2424ZM36.7106 51.9705H34.2808L35.4957 46.9563H35.5486L36.7106 51.9705ZM45.0564 54.791L43.3661 50.6647C43.5774 50.6647 43.7358 50.5602 43.9471 50.4558C44.1584 50.3513 44.3168 50.2469 44.4753 50.0379C44.6338 49.8812 44.7394 49.6201 44.8451 49.3589C44.9507 49.0978 45.0035 48.7844 45.0035 48.4188C45.0035 48.0009 44.9507 47.6353 44.8451 47.3219C44.6866 47.0085 44.5281 46.7996 44.3169 46.5906C44.1056 46.3817 43.8415 46.2772 43.5774 46.225C43.3133 46.1728 42.9963 46.1206 42.7322 46.1206H40.6194V54.7388H41.4645V50.7169H42.5738L44.1584 54.7388H45.0564V54.791ZM43.683 49.7245C43.4189 49.9857 43.0492 50.1424 42.5738 50.1424H41.4117V46.904H42.521C42.7322 46.904 42.8907 46.904 43.102 46.9563C43.3133 47.0085 43.4717 47.113 43.5774 47.2174C43.7358 47.3219 43.8415 47.4786 43.9471 47.6875C44.0527 47.8964 44.0527 48.1576 44.0527 48.471C44.1056 49.0455 43.9471 49.4112 43.683 49.7245ZM67.1356 54.791L64.0191 50.1424L66.9771 46.1728H65.9735L63.2268 50.0379V46.1728H62.3817V54.791H63.2268V50.3513L66.132 54.791H67.1356ZM70.3577 54.791V46.1728H69.5125V54.791H70.3577ZM76.8018 46.904V46.1728H72.5762V46.904H74.2664V54.791H75.1116V46.904H76.8018ZM83.6158 53.8508L83.0876 53.2763C82.9291 53.5375 82.7178 53.7986 82.4537 53.9553C82.1896 54.1642 81.9255 54.2165 81.6086 54.2165C81.2388 54.2165 80.9219 54.112 80.6578 53.9031C80.3937 53.6942 80.1824 53.433 79.9711 53.1196C79.7598 52.754 79.6542 52.3884 79.5486 51.9183C79.4429 51.4482 79.3901 50.9781 79.3901 50.4558C79.3901 49.9335 79.4429 49.4634 79.5486 48.9933C79.6542 48.5232 79.7598 48.1576 79.9183 47.792C80.0768 47.4263 80.2881 47.1652 80.605 47.0085C80.8691 46.7996 81.186 46.6951 81.5558 46.6951C81.8199 46.6951 82.084 46.7473 82.3481 46.904C82.6122 47.0607 82.8235 47.2696 82.9819 47.5308L83.5101 46.9563C83.2989 46.5906 82.9819 46.3295 82.6122 46.1728C82.2424 46.0161 81.8727 45.9116 81.4501 45.9116C80.9747 45.9116 80.5522 46.0161 80.1824 46.2772C79.8127 46.4862 79.4957 46.7996 79.2316 47.2174C78.9675 47.6353 78.7562 48.1054 78.6506 48.6799C78.4921 49.2022 78.4393 49.829 78.4393 50.508C78.4393 51.1348 78.4921 51.7616 78.6506 52.2839C78.8091 52.8062 78.9675 53.3285 79.2316 53.6942C79.4957 54.112 79.8127 54.4254 80.1824 54.6343C80.5522 54.8432 80.9747 54.9999 81.4501 54.9999C81.8727 54.9999 82.2953 54.8955 82.665 54.6866C83.0876 54.5299 83.3517 54.2165 83.6158 53.8508ZM91.1164 54.791V46.1728H90.2712V49.9335H86.9435V46.1728H86.0984V54.791H86.9435V50.7169H90.2712V54.791H91.1164ZM97.9831 54.791V54.0075H95.1836V50.7169H97.6662V49.9857H95.1836V46.9563H97.8775V46.225H94.3385V54.8432H97.9831V54.791ZM105.642 54.791V46.1728H104.85V53.3285H104.797L101.786 46.1728H100.73V54.791H101.522V47.6353H101.575L104.586 54.791H105.642Z" fill="#010005"/>
<path d="M53.6134 46.2251V54.7911" stroke="#BF4818" stroke-width="1.8422" stroke-miterlimit="22.9256"/>
<path d="M49.2292 50.5078H57.9447" stroke="#BF4818" stroke-width="1.8422" stroke-miterlimit="22.9256"/>
</svg>
