<?xml version="1.0" encoding="UTF-8" standalone="no"?>
<svg
   width="57"
   height="59"
   viewBox="0 0 57 59"
   fill="none"
   version="1.1"
   id="svg6"
   sodipodi:docname="logo.svg"
   inkscape:version="1.1 (c68e22c387, 2021-05-23)"
   xmlns:inkscape="http://www.inkscape.org/namespaces/inkscape"
   xmlns:sodipodi="http://sodipodi.sourceforge.net/DTD/sodipodi-0.dtd"
   xmlns="http://www.w3.org/2000/svg"
   xmlns:svg="http://www.w3.org/2000/svg">
  <defs
     id="defs10" />
  <sodipodi:namedview
     id="namedview8"
     pagecolor="#ffffff"
     bordercolor="#666666"
     borderopacity="1.0"
     inkscape:pageshadow="2"
     inkscape:pageopacity="0.0"
     inkscape:pagecheckerboard="0"
     showgrid="false"
     inkscape:zoom="14.79661"
     inkscape:cx="28.520046"
     inkscape:cy="29.5"
     inkscape:window-width="2560"
     inkscape:window-height="1411"
     inkscape:window-x="2391"
     inkscape:window-y="-9"
     inkscape:window-maximized="1"
     inkscape:current-layer="svg6" />
  <g
     id="g829"
     transform="translate(-0.23605,0.248291)">
    <path
       fill-rule="evenodd"
       clip-rule="evenodd"
       d="M 11.2155,33.0594 H 2.28844 v 9.9164 h 7.31652 v 1.2884 H 2.28844 V 57.977 H 1 V 31.7939 h 1.28844 8.90406 v 1.2655 z m 17.1639,-1.2655 h 1.3115 V 57.977 H 28.4024 V 35.4292 L 21.9372,53.2143 15.426,35.4292 V 57.977 H 14.1375 V 31.7939 h 1.3115 l 6.4652,17.6701 z m 6.5113,24.9176 h 8.2828 V 58 H 34.8907 33.6022 V 31.7939 h 1.2885 z M 54.8615,31.7939 h 1.4035 l -5.0847,13.0225 -0.0461,0.1151 V 57.977 H 49.8458 V 44.9315 L 49.7998,44.8164 44.715,31.7939 h 1.4035 l 4.3485,11.2279 z"
       fill="#010004"
       stroke="#010004"
       stroke-width="0.216"
       stroke-miterlimit="22.9256"
       id="path2" />
    <path
       fill-rule="evenodd"
       clip-rule="evenodd"
       d="M 12.527,0.618458 V 1.92991 8.11904 9.47651 21.3716 c 0,0.7823 -0.138,1.4955 -0.4371,2.1858 -0.2991,0.6902 -0.6903,1.2884 -1.1965,1.7716 -0.5061,0.5061 -1.08133,0.8973 -1.77157,1.1964 -0.66723,0.2991 -1.40348,0.4371 -2.16274,0.4371 -0.78227,0 -1.49552,-0.138 -2.18575,-0.4371 C 4.0831,26.2263 3.48489,25.8351 3.00173,25.329 2.49555,24.8228 2.10442,24.2246 1.80531,23.5574 1.50621,22.8671 1.36816,22.1539 1.36816,21.3716 v -4.1414 h 1.28845 v 4.1414 c 0,0.5982 0.11504,1.1504 0.34512,1.6796 0.23008,0.5292 0.55219,0.9893 0.92031,1.3805 0.39114,0.3911 0.8513,0.6902 1.38048,0.9203 0.52918,0.23 1.08137,0.3451 1.67958,0.3451 0.5982,0 1.15039,-0.1151 1.65657,-0.3451 0.50617,-0.2301 0.96633,-0.5522 1.35746,-0.9203 0.39117,-0.3912 0.69027,-0.8513 0.92027,-1.3805 0.2301,-0.5292 0.3452,-1.0814 0.3452,-1.6796 V 9.4535 8.09603 1.88389 H 4.29017 V 0.595448 h 6.97143 1.2654 z m 15.1162,0 v 11.158842 0.6672 8.9041 c 0,0.7823 -0.138,1.4955 -0.4371,2.1857 -0.2991,0.6903 -0.6903,1.2885 -1.1965,1.7717 -0.5061,0.5061 -1.0813,0.8973 -1.7716,1.1964 -0.6672,0.2991 -1.4035,0.4371 -2.1627,0.4371 -0.7593,0 -1.4955,-0.138 -2.1858,-0.4371 -0.6902,-0.2991 -1.2884,-0.6903 -1.7716,-1.1964 -0.5061,-0.5062 -0.8973,-1.1044 -1.1964,-1.7717 -0.2991,-0.6902 -0.4371,-1.4034 -0.4371,-2.1857 V 12.4445 11.7773 0.618458 h 1.2884 v 11.158842 0.6672 8.9041 c 0,0.5982 0.115,1.1504 0.3451,1.6796 0.2301,0.5292 0.5522,0.9893 0.9203,1.3804 0.3912,0.3912 0.8513,0.6903 1.3805,0.9204 0.5292,0.23 1.0814,0.3451 1.6796,0.3451 0.5982,0 1.1504,-0.1151 1.6566,-0.3451 0.5061,-0.2301 0.9663,-0.5522 1.3574,-0.9204 0.3912,-0.3911 0.6903,-0.8512 0.9203,-1.3804 0.2301,-0.5292 0.3452,-1.0814 0.3452,-1.6796 V 12.4445 11.7773 0.618458 Z M 37.4446,12.9737 c 0.6442,0.5062 1.2884,1.0584 1.9096,1.6106 0.6443,0.5522 1.1964,1.1734 1.7026,1.8176 0.5062,0.6672 0.9203,1.4035 1.2194,2.2087 0.2991,0.8053 0.4602,1.7256 0.4602,2.784 0,0.7823 -0.138,1.4955 -0.4372,2.1858 -0.2991,0.6902 -0.6902,1.2884 -1.1964,1.7946 -0.5061,0.5061 -1.0813,0.8973 -1.7716,1.1964 -0.6672,0.2991 -1.4035,0.4371 -2.1627,0.4371 -0.7823,0 -1.4955,-0.138 -2.1858,-0.4371 -0.6902,-0.2991 -1.2884,-0.6903 -1.7716,-1.1964 -0.5062,-0.5062 -0.8973,-1.1044 -1.1964,-1.7716 -0.2991,-0.6903 -0.4371,-1.4035 -0.4371,-2.1858 h 1.2884 c 0,0.5982 0.115,1.1504 0.3451,1.6796 0.2301,0.5292 0.5522,0.9893 0.9203,1.3805 0.3912,0.3911 0.8513,0.6902 1.3805,0.9203 0.5292,0.2301 1.0814,0.3451 1.6796,0.3451 0.5982,0 1.1504,-0.115 1.6566,-0.3451 0.5061,-0.2301 0.9663,-0.5522 1.3574,-0.9203 0.3912,-0.3912 0.6903,-0.8513 0.9203,-1.3805 0.2301,-0.5292 0.3452,-1.0814 0.3452,-1.6796 0,-0.8743 -0.1381,-1.6566 -0.4142,-2.3698 -0.2761,-0.6902 -0.6442,-1.3345 -1.0814,-1.9097 -0.4601,-0.5752 -0.9663,-1.1273 -1.5415,-1.6335 -0.5752,-0.5062 -1.1734,-1.0124 -1.7946,-1.4955 -0.6212,-0.4832 -1.2424,-0.9894 -1.8406,-1.5416 -0.5982,-0.5291 -1.1504,-1.1043 -1.6336,-1.7256 -0.4832,-0.6212 -0.8743,-1.31141 -1.1734,-2.04766 -0.2991,-0.75926 -0.4372,-1.61056 -0.4372,-2.5999 0,-0.78227 0.1381,-1.49551 0.4372,-2.18575 0.2991,-0.69024 0.6902,-1.28844 1.1964,-1.77161 0.5062,-0.50617 1.1044,-0.89731 1.7716,-1.196413 0.6903,-0.299103 1.4035,-0.437149 2.1858,-0.437149 0.7822,0 1.4955,0.138046 2.1627,0.437149 0.6672,0.299103 1.2655,0.690243 1.7716,1.173403 0.5062,0.50618 0.8973,1.08137 1.1964,1.77161 0.2991,0.69024 0.4372,1.40348 0.4372,2.18575 H 41.471 c 0,-0.5982 -0.1151,-1.15039 -0.3452,-1.65657 C 40.8958,3.90859 40.5737,3.44843 40.2055,3.0573 39.8144,2.66616 39.3772,2.36706 38.8481,2.13698 38.3419,1.9069 37.7667,1.79186 37.1915,1.79186 c -0.5982,0 -1.1504,0.11504 -1.6796,0.34512 -0.5292,0.23008 -0.9893,0.55219 -1.3805,0.92032 -0.3911,0.39113 -0.6902,0.85129 -0.9203,1.35746 -0.2301,0.50618 -0.3451,1.08138 -0.3451,1.65657 0,0.82829 0.138,1.56454 0.3911,2.18576 0.2531,0.64422 0.5982,1.21941 1.0354,1.77161 0.4371,0.5522 0.9203,1.0584 1.4725,1.5415 0.5062,0.4602 1.0814,0.9203 1.6796,1.4035 z M 56.4721,0.618458 V 1.9069 H 51.2493 V 26.8245 H 49.9609 V 1.9069 H 44.7381 V 0.618458 h 5.2228 1.2884 z"
       fill="#010004"
       stroke="#010004"
       stroke-width="0.216"
       stroke-miterlimit="22.9256"
       id="path4" />
  </g>
</svg>
