<svg width="82" height="85" viewBox="0 0 82 85" fill="none" xmlns="http://www.w3.org/2000/svg">
<path fill-rule="evenodd" clip-rule="evenodd" d="M15.7325 47.9509H2.85815V62.252H13.4098V64.1102H2.85815V83.8862H1V46.126H2.85815H15.6993V47.9509H15.7325ZM40.4856 46.126H42.377V83.8862H40.5188V51.3686L31.1949 77.0177L21.8046 51.3686V83.8862H19.9465V46.126H21.8378L31.1617 71.6091L40.4856 46.126ZM49.8759 82.0612H61.8211V83.9194H49.8759H48.0178V46.126H49.8759V82.0612ZM78.6772 46.126H80.7012L73.3682 64.9065L73.3018 65.0724V83.8862H71.4437V65.0724L71.3773 64.9065L64.0443 46.126H66.0683L72.3396 62.3184L78.6772 46.126Z" fill="#010004" stroke="#010004" stroke-width="0.216" stroke-miterlimit="22.9256"/>
<path fill-rule="evenodd" clip-rule="evenodd" d="M17.6239 1.16591V3.05723V11.983V13.9407V31.0954C17.6239 32.2235 17.4248 33.2521 16.9934 34.2476C16.5621 35.243 15.998 36.1057 15.268 36.8025C14.538 37.5325 13.7085 38.0966 12.7131 38.5279C11.7508 38.9593 10.689 39.1584 9.59404 39.1584C8.46588 39.1584 7.43726 38.9593 6.44182 38.5279C5.44639 38.0966 4.58368 37.5325 3.88687 36.8025C3.15689 36.0725 2.5928 35.2098 2.16145 34.2476C1.73009 33.2521 1.53101 32.2235 1.53101 31.0954V25.1227H3.38916V31.0954C3.38916 31.9581 3.55506 32.7544 3.88687 33.5176C4.21869 34.2808 4.68322 34.9444 5.21412 35.5085C5.7782 36.0725 6.44183 36.5039 7.20499 36.8357C7.96816 37.1675 8.76451 37.3334 9.62722 37.3334C10.4899 37.3334 11.2863 37.1675 12.0163 36.8357C12.7463 36.5039 13.4099 36.0394 13.974 35.5085C14.538 34.9444 14.9694 34.2808 15.3012 33.5176C15.633 32.7544 15.7989 31.9581 15.7989 31.0954V13.9075V11.9498V2.99087H5.74502V1.13272H15.7989H17.6239V1.16591ZM39.4239 1.16591V17.2588V18.221V31.0622C39.4239 32.1903 39.2249 33.219 38.7935 34.2144C38.3621 35.2098 37.7981 36.0725 37.0681 36.7693C36.3381 37.4993 35.5086 38.0634 34.5131 38.4948C33.5509 38.9261 32.4891 39.1252 31.3941 39.1252C30.2991 39.1252 29.2373 38.9261 28.2419 38.4948C27.2464 38.0634 26.3837 37.4993 25.6869 36.7693C24.9569 36.0394 24.3929 35.1766 23.9615 34.2144C23.5301 33.219 23.3311 32.1903 23.3311 31.0622V18.221V17.2588V1.16591H25.1892V17.2588V18.221V31.0622C25.1892 31.9249 25.3551 32.7212 25.6869 33.4844C26.0187 34.2476 26.4833 34.9112 27.0142 35.4753C27.5783 36.0394 28.2419 36.4707 29.005 36.8025C29.7682 37.1343 30.5646 37.3002 31.4273 37.3002C32.29 37.3002 33.0863 37.1343 33.8163 36.8025C34.5463 36.4707 35.2099 36.0062 35.774 35.4753C36.3381 34.9112 36.7694 34.2476 37.1013 33.4844C37.4331 32.7212 37.599 31.9249 37.599 31.0622V18.221V17.2588V1.16591H39.4239ZM53.5591 18.9842C54.4882 19.7142 55.4173 20.5105 56.3132 21.3069C57.2422 22.1032 58.0386 22.9991 58.7686 23.9282C59.4986 24.8905 60.0958 25.9523 60.5272 27.1136C60.9585 28.275 61.1908 29.6022 61.1908 31.1285C61.1908 32.2567 60.9917 33.2853 60.5604 34.2808C60.129 35.2762 59.5649 36.1389 58.8349 36.8689C58.105 37.5989 57.2754 38.163 56.28 38.5943C55.3177 39.0257 54.2559 39.2248 53.161 39.2248C52.0328 39.2248 51.0042 39.0257 50.0087 38.5943C49.0133 38.163 48.1506 37.5989 47.4538 36.8689C46.7238 36.1389 46.1597 35.2762 45.7284 34.3139C45.297 33.3185 45.0979 32.2899 45.0979 31.1617H46.9561C46.9561 32.0244 47.122 32.8208 47.4538 33.5839C47.7856 34.3471 48.2501 35.0107 48.781 35.5748C49.3451 36.1389 50.0087 36.5703 50.7719 36.9021C51.5351 37.2339 52.3314 37.3998 53.1941 37.3998C54.0568 37.3998 54.8532 37.2339 55.5832 36.9021C56.3132 36.5703 56.9768 36.1057 57.5409 35.5748C58.105 35.0107 58.5363 34.3471 58.8681 33.5839C59.1999 32.8208 59.3658 32.0244 59.3658 31.1617C59.3658 29.9008 59.1668 28.7727 58.7686 27.7441C58.3704 26.7486 57.8395 25.8195 57.2091 24.99C56.5454 24.1605 55.8155 23.3641 54.9859 22.6341C54.1564 21.9042 53.2937 21.1742 52.3978 20.4774C51.5019 19.7806 50.606 19.0506 49.7433 18.2542C48.8806 17.4911 48.0842 16.6615 47.3874 15.7656C46.6906 14.8697 46.1265 13.8743 45.6952 12.8125C45.2638 11.7175 45.0647 10.4898 45.0647 9.06303C45.0647 7.93487 45.2638 6.90625 45.6952 5.91082C46.1265 4.91538 46.6906 4.05267 47.4206 3.35587C48.1506 2.62588 49.0133 2.0618 49.9756 1.63044C50.971 1.19909 51.9996 1 53.1278 1C54.2559 1 55.2846 1.19909 56.2468 1.63044C57.2091 2.0618 58.0718 2.62588 58.8018 3.32268C59.5317 4.05267 60.0958 4.8822 60.5272 5.87764C60.9585 6.87307 61.1576 7.90169 61.1576 9.02985H59.3658C59.3658 8.16714 59.1999 7.37079 58.8681 6.64081C58.5363 5.91082 58.0718 5.24719 57.5409 4.68311C56.9768 4.11903 56.3464 3.68768 55.5832 3.35587C54.8532 3.02405 54.0237 2.85815 53.1941 2.85815C52.3314 2.85815 51.5351 3.02405 50.7719 3.35587C50.0087 3.68768 49.3451 4.15221 48.781 4.68311C48.217 5.24719 47.7856 5.91082 47.4538 6.64081C47.122 7.37079 46.9561 8.20032 46.9561 9.02985C46.9561 10.2244 47.1552 11.2862 47.5202 12.1821C47.8851 13.1111 48.3829 13.9407 49.0133 14.737C49.6438 15.5334 50.3406 16.2634 51.1369 16.9602C51.8669 17.6238 52.6964 18.2874 53.5591 18.9842ZM81 1.16591V3.02405H73.4679V38.9593H71.6097V3.02405H64.0776V1.16591H71.6097H73.4679H81Z" fill="#010004" stroke="#010004" stroke-width="0.216" stroke-miterlimit="22.9256"/>
</svg>
