<svg width="122" height="121" viewBox="0 0 122 121" fill="none" xmlns="http://www.w3.org/2000/svg">
<path d="M48.718 57.8852C53.7533 57.8852 58.1281 54.3047 60.282 49.0751V79.2933C60.282 79.6796 60.6075 80 61 80C61.3925 80 61.718 79.6796 61.718 79.2933V49.0751C63.8814 54.2952 68.2467 57.8852 73.282 57.8852C73.6745 57.8852 74 57.5649 74 57.1785C74 56.7922 73.6745 56.4719 73.282 56.4719C66.9065 56.4719 61.718 49.8478 61.718 41.7067C61.718 41.3204 61.4021 41 61 41C60.5979 41 60.282 41.3204 60.282 41.7067C60.282 49.8478 55.0935 56.4719 48.718 56.4719C48.3255 56.4719 48 56.7828 48 57.1785C48 57.5743 48.3255 57.8852 48.718 57.8852Z" fill="white"/>
<path d="M52.9653 120.929L52.1844 120.79L52.6421 118.236L49.0016 117.588L48.544 120.142L47.7631 120.003L48.7962 114.237L49.5771 114.376L49.1214 116.919L52.7619 117.567L53.2176 115.024L53.9985 115.163L52.9653 120.929Z" fill="#212121"/>
<path d="M39.363 117.487C38.6474 117.212 38.1683 116.82 37.9257 116.313C37.6804 115.813 37.6933 115.213 37.9644 114.514L39.2767 111.128L39.9854 111.4L39.6553 112.252C39.9321 112.032 40.2646 111.906 40.6529 111.872C41.0342 111.836 41.4472 111.903 41.8919 112.075C42.5033 112.31 42.9333 112.643 43.1819 113.073C43.4305 113.502 43.4622 113.956 43.277 114.434C43.0972 114.898 42.7855 115.208 42.342 115.363C41.8915 115.516 41.298 115.451 40.5615 115.167L38.8211 114.497L38.6923 114.83C38.5098 115.301 38.5036 115.708 38.6737 116.052C38.8411 116.403 39.1784 116.676 39.6856 116.871C40.033 117.005 40.3893 117.075 40.7545 117.08C41.1171 117.092 41.4519 117.042 41.759 116.929L41.8792 117.608C41.51 117.737 41.1067 117.788 40.6693 117.763C40.2292 117.745 39.7938 117.653 39.363 117.487ZM41.5518 112.612C41.135 112.452 40.7409 112.407 40.3697 112.479C39.9958 112.558 39.6661 112.75 39.3806 113.054L39.0344 113.947L40.7541 114.609C41.692 114.97 42.2872 114.825 42.5394 114.174C42.6629 113.856 42.6392 113.556 42.4685 113.275C42.2951 113.002 41.9896 112.781 41.5518 112.612Z" fill="#212121"/>
<path d="M29.2727 109.185C28.6931 108.609 28.6071 107.993 29.0148 107.336C29.2853 106.901 29.6546 106.666 30.1227 106.632C30.5907 106.597 31.1445 106.778 31.7842 107.172L34.0546 108.573L30.9614 113.553L28.7575 112.193C28.1875 111.842 27.8097 111.456 27.6239 111.036C27.4381 110.615 27.4726 110.2 27.7275 109.79C27.896 109.518 28.1171 109.332 28.3906 109.23C28.6539 109.13 28.9479 109.115 29.2727 109.185ZM31.682 110.933L30.1811 110.007C29.7947 109.769 29.4552 109.66 29.1623 109.68C28.8632 109.696 28.6274 109.843 28.4549 110.121C28.2824 110.399 28.2575 110.671 28.3802 110.939C28.4966 111.203 28.748 111.454 29.1343 111.692L30.6353 112.618L31.682 110.933ZM31.4834 107.72C31.0527 107.454 30.6866 107.325 30.385 107.331C30.0835 107.337 29.8405 107.488 29.6563 107.785C29.472 108.081 29.4349 108.36 29.545 108.619C29.6512 108.886 29.9164 109.15 30.3407 109.412L31.9937 110.431L33.0698 108.699L31.4834 107.72Z" fill="#212121"/>
<path d="M20.0421 101.321L23.6724 104.624C24.0512 104.145 24.2119 103.622 24.1545 103.057C24.0921 102.498 23.8216 102.001 23.3431 101.565C23.0736 101.32 22.7834 101.141 22.4725 101.029C22.1566 100.923 21.8307 100.888 21.495 100.924L21.5115 100.245C21.9149 100.19 22.3176 100.235 22.7197 100.38C23.1162 100.519 23.4877 100.747 23.8342 101.062C24.2797 101.468 24.5904 101.921 24.7662 102.423C24.9314 102.925 24.9571 103.431 24.8433 103.941C24.7294 104.45 24.4792 104.916 24.0925 105.338C23.7057 105.76 23.2685 106.056 22.7806 106.225C22.2872 106.389 21.7956 106.419 21.3059 106.315C20.8106 106.207 20.3622 105.969 19.9606 105.604C19.5591 105.239 19.2842 104.818 19.136 104.341C18.9877 103.864 18.976 103.376 19.1008 102.877C19.2206 102.382 19.4764 101.922 19.8681 101.494L20.0421 101.321ZM20.4202 105.102C20.8382 105.483 21.3133 105.669 21.8454 105.661C22.367 105.653 22.8429 105.452 23.2731 105.06L20.1956 102.259C19.8424 102.722 19.6883 103.215 19.7332 103.738C19.7677 104.262 19.9966 104.717 20.4202 105.102Z" fill="#212121"/>
<path d="M11.9 96.6785C11.5713 96.2376 11.3754 95.7631 11.3122 95.255C11.243 94.7514 11.3152 94.2633 11.5289 93.7907C11.7426 93.318 12.0827 92.9091 12.549 92.5638C13.0214 92.2141 13.5154 92.0055 14.0311 91.9381C14.5469 91.8707 15.0396 91.9404 15.5094 92.1475C15.9688 92.353 16.365 92.6792 16.6982 93.1261C16.9824 93.5075 17.1623 93.9106 17.2378 94.3356C17.3029 94.759 17.2563 95.1819 17.0979 95.6043L19.7257 93.6588L20.1988 94.2934L13.7414 99.0743L13.2884 98.4665L14.2211 97.7759C13.7681 97.8154 13.3424 97.7422 12.944 97.5563C12.5412 97.3644 12.1932 97.0718 11.9 96.6785ZM16.1665 93.5891C15.9222 93.2614 15.6253 93.0188 15.276 92.8613C14.9207 92.7082 14.547 92.6612 14.1549 92.7203C13.7584 92.7734 13.3808 92.9328 13.0221 93.1984C12.6633 93.464 12.4042 93.7761 12.2446 94.1347C12.0747 94.4917 12.0119 94.8618 12.0563 95.2451C12.1007 95.6283 12.2451 95.9838 12.4894 96.3116C12.7381 96.6452 13.0401 96.8886 13.3955 97.0417C13.7464 97.1888 14.1201 97.2358 14.5166 97.1826C14.9026 97.128 15.275 96.9678 15.6338 96.7022C15.9925 96.4366 16.2569 96.1253 16.4268 95.7683C16.5924 95.4053 16.6551 95.0352 16.6152 94.6579C16.5648 94.2791 16.4152 93.9228 16.1665 93.5891Z" fill="#212121"/>
<path d="M10.8161 83.2346L9.42331 85.9791L12.455 86.5882L12.8463 87.389L9.11678 86.6233L7.51407 89.8536L7.12269 89.0527L8.41887 86.4666L5.57676 85.8894L5.19517 85.1085L8.73519 85.8425L10.4198 82.4238L10.8161 83.2346Z" fill="#212121"/>
<path d="M1.12988 72.0857L1.01624 71.3033L3.59257 70.9316L3.06279 67.284L0.486461 67.6557L0.372822 66.8732L6.18891 66.0342L6.30255 66.8166L3.73728 67.1867L4.26706 70.8343L6.83233 70.4642L6.94597 71.2466L1.12988 72.0857Z" fill="#212121"/>
<path d="M0.122549 58.1351C0.159457 57.3714 0.381196 56.7949 0.787767 56.4057C1.1869 56.0161 1.76217 55.8393 2.51358 55.8754L6.15157 56.05L6.11502 56.8063L5.19994 56.7624C5.49637 56.955 5.72172 57.2296 5.87599 57.5863C6.03062 57.9356 6.09647 58.3475 6.07354 58.8221C6.042 59.4746 5.86069 59.9861 5.52959 60.3567C5.19849 60.7272 4.77627 60.9002 4.26293 60.8755C3.76447 60.8516 3.37133 60.6544 3.0835 60.2838C2.79604 59.9059 2.67129 59.3239 2.70928 58.538L2.79904 56.6806L2.44193 56.6634C1.93604 56.6392 1.54608 56.7617 1.27208 57.0309C0.990635 57.2998 0.836833 57.7049 0.810675 58.2462C0.792759 58.6169 0.838797 58.9758 0.948788 59.323C1.05134 59.6698 1.20458 59.9707 1.4085 60.2257L0.79985 60.5532C0.561235 60.2445 0.385003 59.8793 0.271155 59.4577C0.149868 59.0357 0.100332 58.5948 0.122549 58.1351ZM5.45452 58.6697C5.47602 58.2249 5.39403 57.8382 5.20857 57.5097C5.01567 57.1809 4.72955 56.9293 4.35021 56.7551L3.39049 56.709L3.30181 58.5441C3.25343 59.5451 3.57891 60.0624 4.27824 60.0959C4.62046 60.1124 4.89828 59.9956 5.11169 59.7458C5.31767 59.4955 5.43194 59.1369 5.45452 58.6697Z" fill="#212121"/>
<path d="M4.85041 45.9756C5.21621 45.2459 5.77588 44.9705 6.52942 45.1494C7.02937 45.2681 7.36938 45.5434 7.54945 45.9753C7.72953 46.4072 7.73242 46.9878 7.55812 47.7172L6.93945 50.306L1.22266 48.949L1.82321 46.436C1.97852 45.7861 2.22699 45.3071 2.56859 44.999C2.9102 44.6909 3.31649 44.5928 3.78746 44.7046C4.09902 44.7785 4.3464 44.9288 4.52959 45.1554C4.70727 45.3731 4.81421 45.6465 4.85041 45.9756ZM3.94448 48.8053L4.35348 47.0938C4.45875 46.6533 4.45567 46.2978 4.34424 46.0271C4.23454 45.7493 4.02029 45.5725 3.70148 45.4968C3.38267 45.4212 3.11509 45.4836 2.89874 45.684C2.68412 45.8773 2.52417 46.1941 2.4189 46.6346L2.0099 48.3461L3.94448 48.8053ZM6.94172 47.6052C7.05907 47.1142 7.06738 46.727 6.96665 46.4436C6.86593 46.1602 6.64529 45.9781 6.30474 45.8973C5.9642 45.8165 5.68748 45.8691 5.47458 46.0551C5.25443 46.2394 5.08654 46.5734 4.97092 47.0573L4.52051 48.942L6.50943 49.4141L6.94172 47.6052Z" fill="#212121"/>
<path d="M9.43149 34.7662L7.42918 39.2407C8.00519 39.448 8.55311 39.4355 9.07297 39.2033C9.58601 38.968 9.97451 38.5555 10.2384 37.9657C10.3871 37.6335 10.4658 37.3027 10.4745 36.9733C10.4765 36.6409 10.4073 36.3216 10.2671 36.0155L10.9184 35.8173C11.098 36.1816 11.1822 36.5766 11.171 37.0025C11.1629 37.4215 11.0633 37.8446 10.8722 38.2717C10.6264 38.8209 10.2924 39.2576 9.86995 39.5819C9.44377 39.8964 8.97012 40.0801 8.44899 40.1329C7.92785 40.1858 7.40539 40.0958 6.88161 39.863C6.35782 39.6302 5.93851 39.3097 5.62367 38.9015C5.31187 38.4866 5.12831 38.0311 5.07299 37.5351C5.0207 37.0323 5.10529 36.5334 5.32675 36.0385C5.54822 35.5436 5.86257 35.151 6.26982 34.8605C6.67706 34.5701 7.13821 34.4053 7.65328 34.366C8.16154 34.3237 8.68096 34.4204 9.21155 34.6563L9.43149 34.7662ZM5.94918 36.3152C5.71861 36.8304 5.69111 37.3384 5.86667 37.8391C6.03846 38.33 6.37904 38.7171 6.88839 39.0004L8.58579 35.2072C8.03397 35.0188 7.51592 35.0283 7.03164 35.2357C6.5436 35.4333 6.18278 35.7932 5.94918 36.3152Z" fill="#212121"/>
<path d="M11.2873 25.6025C11.6036 25.1527 11.9938 24.8179 12.4577 24.598C12.9154 24.3739 13.403 24.2885 13.9205 24.3418C14.4379 24.395 14.9344 24.5878 15.4101 24.9202C15.892 25.2568 16.2462 25.6584 16.4729 26.125C16.6996 26.5916 16.7883 27.0797 16.7392 27.5893C16.6882 28.0885 16.5024 28.5661 16.1817 29.022C15.9081 29.411 15.5809 29.7081 15.2 29.9134C14.8172 30.1084 14.3998 30.1975 13.9477 30.1808L16.6282 32.0535L16.1729 32.7009L9.58591 28.099L10.022 27.479L10.9734 28.1437C10.7931 27.7276 10.7287 27.3019 10.7803 26.8665C10.8361 26.425 11.0051 26.0037 11.2873 25.6025ZM15.5733 28.6649C15.8085 28.3306 15.946 27.9734 15.9859 27.5933C16.0197 27.209 15.9467 26.8407 15.767 26.4885C15.5915 26.1302 15.3208 25.8232 14.9548 25.5675C14.5889 25.3119 14.21 25.1651 13.8183 25.1271C13.4248 25.0788 13.0525 25.136 12.7016 25.2988C12.3506 25.4615 12.0575 25.7101 11.8224 26.0444C11.583 26.3848 11.4464 26.7471 11.4125 27.1314C11.383 27.5097 11.456 27.878 11.6315 28.2363C11.8051 28.5842 12.075 28.886 12.4409 29.1417C12.8068 29.3974 13.1866 29.5493 13.5801 29.5977C13.9779 29.6399 14.3502 29.5827 14.6969 29.426C15.0417 29.259 15.3339 29.0053 15.5733 28.6649Z" fill="#212121"/>
<path d="M23.7475 20.3428L20.6952 19.8899L21.0702 22.9494L20.4308 23.5719L19.9852 19.8029L16.4041 19.3045L17.0435 18.682L19.9145 19.0934L19.5689 16.2232L20.1923 15.6163L20.6086 19.196L24.3948 19.7125L23.7475 20.3428Z" fill="#212121"/>
<path d="M31.3135 7.66803L32.0228 7.31406L33.1883 9.63391L36.495 7.98373L35.3295 5.66389L36.0388 5.30992L38.67 10.547L37.9607 10.901L36.8001 8.59107L33.4934 10.2412L34.654 12.5511L33.9447 12.9051L31.3135 7.66803Z" fill="#212121"/>
<path d="M44.2816 2.32082C45.0205 2.11515 45.6393 2.14329 46.138 2.40525C46.6348 2.66006 46.9843 3.14852 47.1867 3.87063L48.1664 7.36679L47.4347 7.57047L47.1882 6.69106C47.0982 7.03212 46.9076 7.3318 46.6166 7.59009C46.3326 7.84638 45.9611 8.03842 45.502 8.16622C44.8707 8.34194 44.3265 8.33157 43.8693 8.13512C43.4121 7.93867 43.1144 7.59378 42.9762 7.10046C42.8419 6.62143 42.9059 6.18743 43.1681 5.79845C43.4375 5.40747 43.9524 5.10615 44.7128 4.89449L46.5098 4.39429L46.4136 4.05111C46.2774 3.56494 46.0379 3.23467 45.6952 3.06031C45.3505 2.87881 44.9162 2.86093 44.3926 3.0067C44.0339 3.10654 43.7066 3.26316 43.4106 3.47655C43.1127 3.6828 42.8744 3.92254 42.6958 4.19577L42.1922 3.72323C42.411 3.40027 42.7032 3.11853 43.0689 2.87802C43.4326 2.63035 43.8368 2.44462 44.2816 2.32082ZM45.4521 7.5327C45.8825 7.4129 46.2249 7.21354 46.4793 6.93464C46.7317 6.64859 46.8811 6.2987 46.9275 5.88499L46.6691 4.96269L44.8936 5.4569C43.9251 5.72646 43.5351 6.19728 43.7234 6.86935C43.8156 7.19823 44.0142 7.42425 44.3194 7.5474C44.6226 7.6634 45.0001 7.6585 45.4521 7.5327Z" fill="#212121"/>
<path d="M57.3503 2.96221C58.1604 3.07835 58.599 3.52098 58.666 4.2901C58.7105 4.80038 58.5554 5.20872 58.2008 5.51511C57.8463 5.8215 57.2942 6.00715 56.5448 6.07203L53.8846 6.30236L53.376 0.467407L55.9583 0.24383C56.6261 0.186009 57.1605 0.270134 57.5615 0.496206C57.9625 0.722279 58.184 1.07567 58.2259 1.55636C58.2536 1.87437 58.1884 2.1557 58.0303 2.40038C57.8789 2.63702 57.6523 2.82429 57.3503 2.96221ZM54.3702 2.99669L56.1289 2.84442C56.5815 2.80523 56.9191 2.69031 57.1418 2.49966C57.3718 2.30837 57.4727 2.05002 57.4443 1.72462C57.4159 1.39923 57.2722 1.16578 57.0132 1.02428C56.7615 0.882145 56.4094 0.83067 55.9568 0.86986L54.1981 1.02212L54.3702 2.99669ZM56.4572 5.45371C56.9618 5.41003 57.3332 5.29591 57.5713 5.11137C57.8094 4.92683 57.9133 4.66077 57.883 4.31318C57.8527 3.9656 57.7155 3.72042 57.4712 3.57764C57.2264 3.42746 56.8554 3.37389 56.3582 3.41694L54.4215 3.58462L54.5984 5.61465L56.4572 5.45371Z" fill="#212121"/>
<path d="M69.4674 3.76478L64.5756 3.28037C64.5597 3.89049 64.7442 4.40484 65.1291 4.82341C65.5147 5.23458 66.03 5.4721 66.6748 5.53595C67.038 5.57192 67.3778 5.54216 67.6942 5.44668C68.0113 5.3438 68.2936 5.1778 68.541 4.94867L68.9349 5.5024C68.6445 5.78696 68.2948 5.99104 67.8858 6.11465C67.4842 6.239 67.0499 6.27805 66.583 6.23181C65.9826 6.17236 65.4615 5.99394 65.0196 5.69655C64.5858 5.3925 64.2617 5.00233 64.0472 4.52605C63.8327 4.04976 63.7538 3.52722 63.8105 2.95844C63.8672 2.38965 64.0403 1.89207 64.3299 1.46569C64.6268 1.04004 65.0027 0.72293 65.4576 0.514347C65.92 0.306498 66.4217 0.229363 66.9627 0.282942C67.5038 0.336521 67.9767 0.510172 68.3816 0.803895C68.7864 1.09762 69.0887 1.48189 69.2883 1.95671C69.4887 2.42414 69.5602 2.94594 69.5028 3.52212L69.4674 3.76478ZM66.8953 0.95884C66.332 0.903059 65.8396 1.03706 65.4181 1.36085C65.0048 1.67799 64.7435 2.12208 64.6341 2.69311L68.781 3.10376C68.7866 2.52245 68.6143 2.03543 68.2643 1.64269C67.9224 1.24331 67.466 1.01535 66.8953 0.95884Z" fill="#212121"/>
<path d="M78.7789 2.63328C79.3069 2.79085 79.7487 3.05439 80.1042 3.42393C80.4618 3.78636 80.6967 4.22066 80.809 4.72684C80.9213 5.23303 80.8941 5.76346 80.7275 6.31814C80.5587 6.87994 80.2879 7.34153 79.9149 7.70293C79.542 8.06433 79.1052 8.30204 78.6044 8.41607C78.1129 8.52512 77.5996 8.4998 77.0645 8.34011C76.6078 8.20384 76.2217 7.9879 75.9062 7.69229C75.6 7.3917 75.3837 7.02493 75.2572 6.59199L74.3182 9.71741L73.5583 9.49065L75.8656 1.81043L76.5934 2.02761L76.2601 3.13697C76.5995 2.83532 76.9847 2.64029 77.4155 2.5519C77.8535 2.46563 78.308 2.49276 78.7789 2.63328ZM77.2128 7.65213C77.6053 7.76923 77.9888 7.7868 78.3633 7.70483C78.7399 7.61575 79.0676 7.43071 79.3464 7.14971C79.6323 6.87084 79.8394 6.51806 79.9676 6.09138C80.0958 5.6647 80.1162 5.26012 80.029 4.87764C79.951 4.49018 79.7793 4.1561 79.5137 3.87539C79.2482 3.59468 78.9192 3.39577 78.5267 3.27867C78.1272 3.15943 77.739 3.14435 77.3624 3.23343C76.9929 3.32464 76.6652 3.50968 76.3793 3.78856C76.1026 4.06245 75.9002 4.41273 75.772 4.83941C75.6438 5.26609 75.6187 5.67316 75.6967 6.06062C75.7818 6.45021 75.9535 6.7843 76.212 7.06288C76.4796 7.33647 76.8133 7.53289 77.2128 7.65213Z" fill="#212121"/>
<path d="M87.7129 12.7624L87.1826 9.73264L84.3872 11.0511L83.593 10.6424L87.0418 9.03361L86.3883 5.48932L87.1825 5.89798L87.6952 8.74324L90.3196 7.5122L91.0939 7.91065L87.8161 9.43206L88.517 13.1762L87.7129 12.7624Z" fill="#212121"/>
<path d="M102.166 15.9264L102.727 16.4858L100.885 18.3191L103.498 20.927L105.34 19.0937L105.9 19.6532L101.742 23.7917L101.181 23.2323L103.015 21.407L100.402 18.799L98.5682 20.6244L98.0077 20.065L102.166 15.9264Z" fill="#212121"/>
<path d="M111.344 26.508C111.772 27.1421 111.94 27.7363 111.848 28.2906C111.762 28.8408 111.407 29.3253 110.783 29.7441L107.762 31.7722L107.338 31.1442L108.098 30.6341C107.744 30.6564 107.399 30.5706 107.061 30.3766C106.728 30.1888 106.428 29.8979 106.162 29.5038C105.795 28.9621 105.634 28.444 105.677 27.9497C105.72 27.4553 105.955 27.0651 106.381 26.7789C106.795 26.501 107.228 26.4248 107.681 26.5503C108.138 26.6819 108.587 27.0741 109.029 27.7267L110.071 29.2689L110.368 29.0698C110.788 28.7878 111.027 28.4572 111.085 28.0781C111.149 27.6949 111.029 27.2785 110.725 26.8291C110.517 26.5213 110.265 26.261 109.969 26.0483C109.678 25.8314 109.375 25.6816 109.059 25.5987L109.35 24.9735C109.726 25.0787 110.087 25.2664 110.431 25.5365C110.781 25.8025 111.086 26.1263 111.344 26.508ZM106.749 29.257C106.999 29.6264 107.297 29.8875 107.642 30.0403C107.994 30.1889 108.374 30.22 108.783 30.1336L109.58 29.5986L108.55 28.0748C107.988 27.2437 107.417 27.0231 106.836 27.4129C106.552 27.6037 106.399 27.8628 106.378 28.1903C106.363 28.5136 106.487 28.8692 106.749 29.257Z" fill="#212121"/>
<path d="M114.85 39.0718C114.994 39.8746 114.711 40.4289 114 40.7346C113.528 40.9374 113.09 40.9194 112.687 40.6805C112.283 40.4416 111.933 39.978 111.635 39.2895L110.577 36.8458L115.974 34.5266L117 36.8987C117.265 37.5122 117.354 38.0442 117.265 38.4947C117.176 38.9453 116.909 39.2661 116.464 39.4571C116.17 39.5835 115.882 39.6105 115.599 39.538C115.326 39.4694 115.076 39.314 114.85 39.0718ZM113.878 36.2639L114.577 37.8794C114.757 38.2952 114.973 38.5783 115.225 38.7288C115.479 38.8862 115.757 38.9002 116.058 38.7708C116.359 38.6415 116.536 38.432 116.589 38.1424C116.645 37.8596 116.583 37.5103 116.403 37.0945L115.704 35.479L113.878 36.2639ZM112.196 39.0119C112.396 39.4754 112.622 39.7908 112.873 39.9578C113.124 40.1249 113.41 40.1394 113.731 40.0013C114.053 39.8631 114.243 39.656 114.302 39.3801C114.368 39.1011 114.302 38.7333 114.104 38.2766L113.334 36.4975L111.457 37.3044L112.196 39.0119Z" fill="#212121"/>
<path d="M117.903 50.7861L116.823 46.0064C116.237 46.1836 115.805 46.5201 115.528 47.0161C115.258 47.5104 115.194 48.0726 115.336 48.7026C115.417 49.0575 115.552 49.3695 115.743 49.6387C115.94 49.9063 116.187 50.121 116.484 50.2828L116.08 50.8298C115.718 50.6448 115.413 50.3783 115.167 50.0304C114.922 49.6897 114.748 49.2912 114.645 48.8349C114.512 48.2483 114.518 47.6992 114.662 47.1875C114.815 46.6815 115.084 46.252 115.47 45.899C115.856 45.5461 116.329 45.3069 116.889 45.1814C117.448 45.0558 117.977 45.0628 118.474 45.2023C118.973 45.3491 119.393 45.6048 119.735 45.9694C120.079 46.3412 120.31 46.7915 120.429 47.3202C120.549 47.8488 120.533 48.3509 120.38 48.8264C120.228 49.3018 119.957 49.7088 119.568 50.0472C119.186 50.384 118.712 50.616 118.145 50.7432L117.903 50.7861ZM119.765 47.4693C119.64 46.919 119.358 46.4954 118.916 46.1987C118.484 45.9076 117.979 45.8003 117.401 45.8768L118.316 49.9287C118.871 49.7508 119.281 49.4345 119.545 48.9796C119.817 48.5304 119.891 48.027 119.765 47.4693Z" fill="#212121"/>
<path d="M121.914 59.2373C121.93 59.7864 121.818 60.2872 121.578 60.7399C121.346 61.1923 121.006 61.5514 120.56 61.8171C120.113 62.0827 119.599 62.2241 119.018 62.2412C118.43 62.2585 117.905 62.1478 117.444 61.9089C116.982 61.67 116.618 61.3316 116.352 60.8939C116.093 60.4634 115.956 59.9699 115.939 59.4134C115.925 58.9385 116.009 58.5053 116.191 58.1137C116.381 57.7294 116.662 57.4092 117.034 57.1531L113.762 57.2496L113.739 56.4593L121.78 56.2224L121.802 56.9792L120.641 57.0134C121.035 57.2395 121.342 57.5423 121.562 57.922C121.782 58.3092 121.899 58.7476 121.914 59.2373ZM116.641 59.337C116.653 59.7451 116.757 60.1133 116.953 60.4417C117.157 60.7699 117.436 61.0216 117.792 61.1968C118.147 61.3794 118.548 61.4641 118.995 61.451C119.442 61.4378 119.833 61.3297 120.17 61.1267C120.515 60.9309 120.779 60.6632 120.962 60.3236C121.146 59.984 121.232 59.6101 121.22 59.202C121.207 58.7865 121.099 58.4147 120.896 58.0865C120.693 57.7657 120.413 57.514 120.058 57.3314C119.71 57.156 119.312 57.0749 118.866 57.088C118.419 57.1012 118.023 57.2057 117.679 57.4015C117.335 57.6047 117.071 57.8724 116.887 58.2046C116.711 58.544 116.629 58.9215 116.641 59.337Z" fill="#212121"/>
<path d="M115.082 70.8788L117.8 69.4228L115.664 67.194L115.803 66.314L118.421 69.0694L121.591 67.3348L121.452 68.2147L118.904 69.596L120.903 71.6905L120.767 72.5485L118.286 69.9274L114.941 71.7697L115.082 70.8788Z" fill="#212121"/>
<path d="M116.622 85.5467L116.266 86.2531L113.94 85.0883L112.28 88.3815L114.606 89.5464L114.249 90.2528L108.998 87.6232L109.354 86.9168L111.671 88.0766L113.331 84.7833L111.015 83.6235L111.371 82.9171L116.622 85.5467Z" fill="#212121"/>
<path d="M109.436 97.5606C108.967 98.1658 108.454 98.512 107.897 98.5993C107.346 98.6911 106.773 98.5079 106.178 98.0497L103.295 95.8313L103.759 95.232L104.484 95.79C104.352 95.4629 104.325 95.1092 104.403 94.7287C104.477 94.3541 104.659 93.9787 104.951 93.6027C105.351 93.0856 105.794 92.7696 106.278 92.6546C106.762 92.5396 107.208 92.6386 107.615 92.9517C108.01 93.2556 108.219 93.6416 108.242 94.1096C108.261 94.5835 108.029 95.1319 107.546 95.7547L106.406 97.2266L106.689 97.4443C107.09 97.7528 107.48 97.8748 107.859 97.8103C108.244 97.7504 108.603 97.5059 108.935 97.077C109.163 96.7832 109.331 96.4626 109.441 96.1152C109.556 95.7724 109.603 95.4382 109.582 95.1128L110.269 95.1914C110.288 95.5807 110.222 95.9806 110.074 96.3913C109.931 96.8066 109.718 97.1963 109.436 97.5606ZM105.371 94.0807C105.098 94.4333 104.943 94.7971 104.906 95.1722C104.876 95.5519 104.966 95.9214 105.177 96.2807L105.937 96.8659L107.064 95.4117C107.678 94.6185 107.708 94.0087 107.154 93.5822C106.883 93.3735 106.588 93.3108 106.27 93.3939C105.957 93.4816 105.657 93.7106 105.371 94.0807Z" fill="#212121"/>
<path d="M98.5764 104.835C97.8574 105.225 97.2403 105.132 96.7252 104.555C96.3833 104.173 96.2626 103.753 96.363 103.296C96.4634 102.839 96.7945 102.361 97.3563 101.863L99.3503 100.093L103.259 104.466L101.323 106.185C100.823 106.629 100.344 106.88 99.8867 106.938C99.4296 106.996 99.0401 106.844 98.7181 106.484C98.5051 106.246 98.3886 105.981 98.3685 105.691C98.3478 105.411 98.4171 105.126 98.5764 104.835ZM100.944 103.032L99.6261 104.202C99.2868 104.503 99.0851 104.796 99.0211 105.082C98.9515 105.372 99.0257 105.639 99.2436 105.883C99.4616 106.127 99.7168 106.229 100.009 106.188C100.296 106.152 100.609 105.983 100.949 105.682L102.267 104.512L100.944 103.032ZM97.7974 102.306C97.4192 102.642 97.19 102.955 97.1099 103.244C97.0297 103.534 97.1061 103.809 97.3389 104.07C97.5717 104.33 97.8288 104.445 98.1103 104.414C98.3966 104.389 98.7261 104.21 99.0988 103.88L100.551 102.591L99.1907 101.069L97.7974 102.306Z" fill="#212121"/>
<path d="M88.3825 111.413L92.594 108.886C92.2407 108.388 91.7842 108.085 91.2246 107.979C90.6688 107.88 90.1133 107.996 89.5581 108.329C89.2455 108.517 88.991 108.743 88.7947 109.008C88.6022 109.28 88.4755 109.581 88.4147 109.912L87.7668 109.703C87.8288 109.302 87.9866 108.93 88.2403 108.587C88.4876 108.248 88.8122 107.958 89.2142 107.717C89.7311 107.407 90.2559 107.239 90.7885 107.214C91.3186 107.199 91.8125 107.319 92.2701 107.573C92.7278 107.827 93.1046 108.199 93.4004 108.688C93.6962 109.178 93.856 109.68 93.8797 110.194C93.8971 110.713 93.7861 111.191 93.5466 111.629C93.3007 112.071 92.9449 112.432 92.479 112.711C92.0132 112.991 91.5299 113.134 91.0292 113.139C90.5285 113.145 90.0557 113.017 89.6108 112.756C89.1697 112.501 88.7993 112.125 88.4997 111.629L88.3825 111.413ZM92.1275 112.13C92.6125 111.839 92.9268 111.438 93.0703 110.927C93.2114 110.426 93.1544 109.915 92.8994 109.392L89.3292 111.534C89.6735 112.003 90.1038 112.291 90.62 112.397C91.1337 112.514 91.6362 112.424 92.1275 112.13Z" fill="#212121"/>
<path d="M81.5982 117.869C81.0805 118.058 80.5683 118.11 80.0617 118.025C79.5576 117.948 79.1087 117.74 78.715 117.401C78.3213 117.062 78.0248 116.621 77.8256 116.077C77.6238 115.526 77.564 114.995 77.646 114.483C77.7281 113.971 77.9356 113.52 78.2686 113.13C78.5971 112.75 79.0237 112.464 79.5485 112.273C79.9963 112.111 80.4353 112.054 80.8655 112.102C81.2913 112.161 81.6848 112.326 82.0459 112.598L80.9233 109.533L81.6685 109.262L84.4271 116.793L83.7134 117.052L83.3149 115.965C83.2239 116.409 83.0322 116.794 82.7399 117.122C82.4406 117.452 82.06 117.701 81.5982 117.869ZM79.8423 112.913C79.4575 113.053 79.1396 113.268 78.8886 113.557C78.6402 113.852 78.4885 114.196 78.4337 114.587C78.3718 114.981 78.4175 115.388 78.5707 115.806C78.724 116.224 78.9503 116.561 79.2497 116.815C79.5447 117.079 79.8828 117.245 80.2641 117.312C80.6453 117.378 81.0284 117.342 81.4132 117.202C81.805 117.059 82.1251 116.84 82.3736 116.544C82.615 116.251 82.7666 115.907 82.8285 115.513C82.8859 115.129 82.838 114.727 82.6848 114.309C82.5315 113.891 82.3074 113.549 82.0124 113.285C81.7105 113.024 81.3724 112.858 80.9981 112.789C80.6194 112.729 80.2341 112.771 79.8423 112.913Z" fill="#212121"/>
<path d="M68.36 115.075L70.6028 117.187L72.0523 114.464L72.9341 114.319L71.135 117.663L73.7853 120.115L72.9035 120.261L70.7855 118.286L69.4206 120.836L68.5609 120.978L70.2753 117.806L67.4672 115.222L68.36 115.075Z" fill="#212121"/>
</svg>
