<?xml version="1.0" encoding="utf-8"?><svg viewBox="0 0 21.09 17.46" xmlns="http://www.w3.org/2000/svg" xmlns:xlink="http://www.w3.org/1999/xlink"><style>:root>svg{display:none}:root>svg:target{display:block}</style><svg viewBox="0 0 21.09 17.46" id="user_icon" xmlns="http://www.w3.org/2000/svg"><path d="M18.34 16.74a5.59 5.59 0 00-2.92-2.95l-1.24-.61-.95.52a4.85 4.85 0 01-5.37 0L7 13.12l-1 .39a5.82 5.82 0 00-3.44 3.11l-.21.6-.53-.73a12.26 12.26 0 01-1.7-4.31A11.45 11.45 0 01.39 7.6 10.79 10.79 0 0110.56 0a10.79 10.79 0 0110.21 7.7 12.32 12.32 0 01-.08 5.88A10.62 10.62 0 0119 17l-.4.49zm-6.2-3.85a4.66 4.66 0 002.53-4.68c-.17-2.52-1.85-4.28-4.11-4.28s-3.94 1.76-4.1 4.29c-.23 3.49 2.84 6.01 5.68 4.67z" data-name="Layer 2" fill="#999"/></svg></svg>