<svg viewBox="0 0 1000 1000" xml:space="preserve" xmlns="http://www.w3.org/2000/svg"><path d="M460.332 140.895C243.773 159.927 69.995 324.752 39.323 539.97c-6.187 43.425-4.308 114.714 4.034 154.377 7.535 35.645 23.942 83.892 37.665 111.5 14.529 28.941 29.323 53.334 32.284 53.334 2.42 0 93.884-52.53 97.385-56.01 1.614-1.342-20.982-45.033-26.363-50.923-.806-.804-13.447 5.89-35.51 19.033l-8.608 5.36-5.646-13.132c-14.539-33.782-26.373-77.198-30.681-114.186l-1.88-15.278h48.969V572.4h-24.209c-27.976 0-26.363 2.675-20.175-33.773 6.984-39.124 24.74-95.143 33.347-103.719 1.613-1.607 9.414 1.343 22.064 8.576 10.761 6.43 20.716 11.525 21.789 11.79 1.072.274 8.607-10.987 16.673-24.923l14.795-25.462-21.248-12.064c-11.834-6.703-21.523-13.397-21.523-15.005 0-1.607 9.414-14.2 20.982-28.137 20.982-24.923 47.345-49.855 70.216-66.467l11.834-8.31 12.374 21.443c6.453 11.79 12.916 21.443 13.988 21.443 1.614 0 48.152-26 50.306-28.137.541-.54-4.84-10.722-11.834-22.512-6.994-12.064-12.109-22.247-11.568-22.786 2.686-2.411 35.246-15.014 55.687-21.443 24.208-7.507 62.68-15.015 77.475-15.015h9.148v50.924h59.179V207.9h9.148c14.795 0 53.267 7.508 77.475 15.015 20.176 6.164 52.992 19.032 55.687 21.443.531.265-4.84 10.722-11.834 22.512-6.728 12.064-12.109 22.247-11.568 22.786 2.154 2.146 48.692 28.137 50.306 28.137 1.072 0 7.535-9.644 14.253-21.443l12.11-21.708 17.214 12.593c28.517 20.905 86.083 82.276 85.817 91.39 0 1.069-9.68 7.507-21.523 14.201L786.1 404.89l14.804 25.462c8.066 13.936 15.601 25.197 16.683 24.923 1.072-.265 11.027-5.36 21.789-11.79 12.64-7.233 20.44-10.183 22.054-8.576 8.607 8.576 26.363 64.595 33.357 103.729 6.187 36.722 8.066 33.772-21.523 33.772h-25.556v61.645h51.644l-1.88 15.279c-4.298 36.987-16.142 80.403-30.67 114.176l-5.647 13.132-8.607-5.36c-22.064-13.133-34.705-19.837-35.511-19.033-5.381 5.89-27.977 49.58-26.363 50.923 3.492 3.48 94.965 56.01 97.385 56.01 6.453 0 42.505-71.288 54.604-108.55 18.563-56.02 24.75-102.111 22.596-164.295-4.309-120.88-50.306-225.94-136.123-311.44-96.834-96.212-233.488-145.793-368.804-134.002z"/><path d="M476.474 555.25c-42.24 18.228-44.925 77.727-4.574 100.239 14.254 8.31 36.052 8.84 51.378 1.343 10.761-5.087 11.027-5.087 125.902 5.096 63.487 5.9 115.672 9.918 116.213 9.379.531-.54-47.62-20.905-106.8-45.024-101.693-41.28-108.687-44.494-115.14-53.882-13.722-19.023-44.384-27.07-66.98-17.151z"/></svg>