<svg xmlns="http://www.w3.org/2000/svg" viewBox="0 0 442 442" style="enable-background:new 0 0 442 442" xml:space="preserve"><path d="M412.08 115.326a9.917 9.917 0 0 0-.064-.961c-.011-.1-.02-.201-.035-.3a10.196 10.196 0 0 0-.232-1.151c-.013-.05-.032-.097-.046-.146-.094-.33-.206-.654-.333-.973-.041-.102-.085-.203-.129-.304a9.82 9.82 0 0 0-.42-.848c-.039-.069-.073-.141-.113-.209a9.921 9.921 0 0 0-.672-1.004c-.019-.025-.042-.049-.061-.074a9.912 9.912 0 0 0-.718-.82c-.07-.072-.143-.142-.215-.212a10.074 10.074 0 0 0-.709-.622c-.077-.062-.15-.126-.229-.185a9.83 9.83 0 0 0-.979-.657L226.034 1.359a9.996 9.996 0 0 0-10.067 0l-181.092 105.5c-.345.201-.668.423-.979.657-.079.059-.152.124-.229.185a10.074 10.074 0 0 0-1.642 1.654c-.02.025-.042.049-.061.074-.246.322-.468.658-.672 1.004-.04.068-.075.14-.113.209a9.82 9.82 0 0 0-.42.848c-.044.101-.088.202-.129.304-.127.319-.239.643-.333.973-.014.049-.033.097-.046.146-.101.378-.175.763-.232 1.151-.014.099-.023.2-.035.3a9.938 9.938 0 0 0-.064.961c-.001.058-.012.115-.012.174v211a10 10 0 0 0 4.966 8.641l181.092 105.5c.029.017.059.027.088.043.357.204.725.391 1.108.55l.014.005a9.866 9.866 0 0 0 1.409.455c.299.074.603.134.912.181.103.016.205.035.308.047.393.047.79.078 1.195.078s.803-.031 1.195-.078c.103-.012.205-.031.308-.047.309-.047.613-.107.912-.181.097-.024.194-.047.291-.075.382-.107.756-.23 1.118-.38l.014-.005a9.843 9.843 0 0 0 1.108-.55c.029-.016.059-.027.088-.043l181.092-105.5a10 10 0 0 0 4.966-8.641v-211c0-.058-.011-.114-.012-.173zM221 209.427l-70.68-41.177 161.226-93.927 70.681 41.177L221 209.427zm0-187.854 70.68 41.177-161.226 93.927-70.68-41.177L221 21.573zm171.092 299.179L231 414.601V374c0-5.523-4.477-10-10-10s-10 4.477-10 10v40.601L49.908 320.752V132.899l75.626 44.058.016.01 85.45 49.78V334c0 5.523 4.477 10 10 10s10-4.477 10-10V226.747l161.092-93.848v187.853z"/><path d="M284.613 247.88a9.996 9.996 0 0 0 13.674 3.607l36.584-21.313c4.772-2.78 6.387-8.902 3.607-13.674-2.78-4.772-8.903-6.386-13.674-3.607l-36.584 21.313c-4.772 2.78-6.387 8.902-3.607 13.674z"/></svg>