<svg width="200" height="200" data-bbox="35.5 45 129.001 110" data-type="color" viewBox="35.5 45 129 110" xmlns="http://www.w3.org/2000/svg"><rect style="fill:none;stroke:#0da8e0;stroke-width:3.24792;stroke-linejoin:round;stroke-miterlimit:6.3;stroke-dasharray:none;stroke-opacity:1" width="125.752" height="125.752" x="37.124" y="37.124" ry="12.173"/><g style="fill:#0da8e0"><path d="M98.4 52.648c-.374.229-.852.728-1.101 1.101-.374.644-.416 1.04-.416 4.82 0 4.052.02 4.157.499 4.883.582.853 1.641 1.434 2.618 1.434.976 0 2.036-.581 2.617-1.434.478-.727.499-.83.499-4.882 0-3.803-.042-4.177-.436-4.82-.914-1.476-2.888-1.996-4.28-1.102zM69.975 65.136c-1.496.81-2.162 2.244-1.746 3.74.187.728.727 1.392 2.742 3.449 1.392 1.413 2.806 2.722 3.138 2.888.873.457 2.39.436 3.22-.063 1.352-.789 1.85-2.7 1.081-4.197-.498-.955-5.132-5.547-5.922-5.838-.726-.292-1.973-.27-2.513.02zm57.348.082c-.894.458-5.257 4.82-5.735 5.735-.769 1.476-.27 3.408 1.06 4.197.81.458 2.39.499 3.24.063.333-.167 1.747-1.476 3.139-2.888 2.016-2.057 2.555-2.722 2.742-3.449.416-1.517-.27-2.992-1.787-3.76-.643-.333-1.932-.293-2.66.102zm-31.978 4.364c-5.838 1.06-11.718 4.467-15.584 9.018-5.818 6.877-7.687 15.397-5.423 24.892 1.04 4.301 2.743 7.604 6.65 12.82 2.887 3.865 3.718 5.153 4.425 6.92l.54 1.392.126 8.623c.124 8.457.124 8.644.623 9.87.665 1.724 2.555 3.615 4.218 4.217 1.143.437 1.517.458 9.08.458 7.564 0 7.938-.02 9.08-.458 1.663-.602 3.554-2.493 4.22-4.217.477-1.226.498-1.454.622-9.87.125-8.29.146-8.665.603-9.931.561-1.497 1.912-3.637 4.177-6.587 4.3-5.59 6.15-9.35 7.314-14.731.602-2.868.665-8.728.104-11.346-1.123-5.257-3.49-9.703-7.169-13.444-3.823-3.885-9.205-6.711-14.461-7.646-2.288-.395-6.9-.375-9.145.02zm9.517 6.607c6.669 1.704 12.155 6.774 14.316 13.236.83 2.473 1.06 4.405.914 7.833-.228 5.86-1.475 8.998-6.025 15.064-1.517 2.016-3.2 4.406-3.72 5.298-1.017 1.684-2.098 4.219-2.347 5.445-.312 1.6.54 1.454-8 1.454h-7.687l-.125-.582c-.831-3.782-2.161-6.234-6.586-12.072-2.826-3.719-4.24-6.379-5.07-9.474-.499-1.892-.54-2.452-.561-6.026-.02-3.511.042-4.135.457-5.693C82.59 82.777 89.134 77 97.425 75.69c1.847-.29 5.214-.063 7.437.498zm2.576 59.592c.042 4.717.02 4.967-.373 5.362-.394.395-.665.415-7.024.415-5.63 0-6.67-.042-7.064-.332-.457-.312-.457-.395-.457-5.257 0-2.723.062-5.008.145-5.07.083-.083 3.408-.125 7.417-.105l7.294.063zM58.236 94.017c-1.04.52-1.87 1.745-1.87 2.722 0 .831.706 2.12 1.496 2.68.644.458.873.479 4.737.541 3.636.042 4.135.02 4.78-.333.872-.477 1.599-1.475 1.786-2.452.208-1.08-.603-2.514-1.766-3.137-.852-.458-1.143-.478-4.572-.478-3.387 0-3.74.042-4.591.457zm74.697-.165c-2.057.913-2.68 3.407-1.226 4.944 1.1 1.144 1.392 1.206 5.507 1.206 3.365 0 3.885-.042 4.654-.416.935-.457 1.766-1.661 1.766-2.576 0-1.247-1.101-2.763-2.347-3.22-.873-.334-7.585-.293-8.354.062z"/><path d="M75.564 116.749c-.353.165-2.099 1.786-3.864 3.573-3.033 3.055-3.262 3.324-3.387 4.219-.208 1.454.415 2.763 1.6 3.303 1.018.456 1.89.52 2.7.145.851-.373 6.711-6.046 7.106-6.877.458-.956.416-2.369-.083-3.18-.789-1.287-2.72-1.87-4.072-1.183zm46.003.083c-1.476.79-2.057 2.68-1.288 4.28.436.914 6.192 6.504 7.086 6.857 2.306.976 4.696-.914 4.321-3.408-.125-.893-.353-1.164-3.366-4.239-1.786-1.787-3.531-3.408-3.906-3.573-.915-.436-1.911-.395-2.847.083z"/></g></svg>