<svg data-bbox="58 34.5 84 131.001" viewBox="58 34.5 84 131.001" height="200" width="200" xmlns="http://www.w3.org/2000/svg" data-type="color"><path fill="#F2F2F0" d="m81.328 132.94 36.522.748v24.452h-7.259l-.249 6.487H89.547l-.374-6.363-7.845-.374v-24.95z" data-color="1"/><path d="M104.992 82.235v51.453h-9.664V82.235h9.664z" data-color="2"/><path d="M141.263 75.865c0 16.12-7.694 25.174-14.475 33.141-4.79 5.613-8.938 10.487-8.938 16.612v8.07H82.471v-8.07c0-6.513-4.21-11.388-9.084-17.021-6.719-7.743-14.33-16.53-14.33-32.732 0-22.039 18.436-39.982 41.103-39.982 22.667-.001 41.103 17.942 41.103 39.982z" fill="#fff" data-color="2"/><path d="M100 34.5c-23.152 0-42 18.623-42 41.477 0 16.727 7.97 26.048 14.365 33.534 4.364 5.11 8.129 9.521 8.129 14.95l.159 10.38v24.412h7.711v6.248h23.271v-6.248h7.711v-24.412l.159-10.38c0-5.07 3.706-9.461 7.99-14.571C133.971 102.186 142 92.605 142 75.977c0-22.854-18.828-41.477-42-41.477zm9.125 128.485h-18.25v-2.715h18.25v2.715zm7.711-6.248H83.164v-3.453h33.672v3.453zm0-5.968H83.164v-3.453h33.672v3.453zm0-5.968H83.164v-3.453h33.672v3.453zm0-5.968H83.164v-3.294h33.672v3.294zm-21.478-6.507v-50.14h9.284v50.14h-9.284zm30.225-24.053c-4.602 5.469-8.587 10.22-8.587 16.188v7.865h-9.843v-50.14h9.683V79.67H83.164v2.515h9.683v50.14h-9.842v-7.865c0-6.347-4.045-11.098-8.727-16.587-6.455-7.545-13.767-16.108-13.767-31.897 0-21.477 17.713-38.962 39.49-38.962s39.49 17.485 39.49 38.962c-.001 15.711-7.393 24.533-13.908 32.297z" fill="#191607" data-color="3"/></svg>