<svg width="200" height="200" data-bbox="27.5 27.5 145 145" data-type="color" viewBox="27.5 27.5 145 145" xmlns="http://www.w3.org/2000/svg"><path d="M172.5 100c0 40.04-32.46 72.5-72.5 72.5S27.5 140.04 27.5 100 59.96 27.5 100 27.5s72.5 32.46 72.5 72.5z" fill="#FFD55C" data-color="1"/><path d="M38.646 138.61c12.838 20.357 35.508 33.892 61.354 33.892s48.516-13.535 61.353-33.892H38.643z" opacity=".1"/><path d="M115.34 136.31H84.642l3.896-18.976 10.96-2.753 11.939 2.753 3.903 18.976z" fill="#CEE2F2" data-color="2"/><path d="m115.34 136.31-3.903-18.976H88.538l18.977 18.976h7.825z" opacity=".15"/><path d="M123.56 136.31v2.296H76.425v-2.296h47.135z" fill="#CEE2F2" data-color="2"/><path d="M43.955 39.25a2.875 2.875 0 0 0-2.859 2.867v72.354a2.87 2.87 0 0 0 2.859 2.865h112.079a2.877 2.877 0 0 0 2.87-2.865V42.117a2.881 2.881 0 0 0-2.87-2.867H43.955z" fill="#2A445E" data-color="3"/><path d="M152.94 45.203v66.183H47.04V45.203h105.9z" fill="#fff" data-color="4"/><path d="M146.84 97.231v1.316H80.683v-1.316h66.157zm-71.322 0v1.316H53.15v-1.316h22.368zm71.322 4.069v1.316H53.152V101.3h93.688zm-46.846 4.079v1.316H53.15v-1.316h46.844z" fill="#CEE2F2" data-color="2"/><path d="M68.726 49.895v42.251H55.029V49.895h13.697z" fill="#FF6D3B" data-color="5"/><path d="M87.322 72.508v19.638H73.625V72.508h13.697z" fill="#CEE2F2" data-color="2"/><path d="M105.918 56.714v35.432H92.221V56.714h13.697z" fill="#2A445E" data-color="3"/><path d="M124.51 84.354v7.792h-13.697v-7.792h13.697z" fill="#21D8DE" data-color="6"/><path d="M141.02 50.994v1.45h-6.811v-1.45h6.811zm3.94 0v1.45h-2.859v-1.45h2.859zm0 11.625v1.45h-10.752v-1.45h10.752zm0 5.812v1.45h-1.698v-1.45h1.698zm-2.61 0v1.45h-8.146v-1.45h8.146zm-6.15-11.624v1.449h-1.99v-1.449h1.99zm4.41 0v1.449h-3.029v-1.449h3.029zm4.35 0v1.449h-3.029v-1.449h3.029z" fill="#CEE2F2" data-color="2"/><path d="M132.2 51.719a1.825 1.825 0 1 1-3.65 0 1.825 1.825 0 0 1 3.65 0z" fill="#2A445E" data-color="3"/><path d="M132.2 57.531a1.825 1.825 0 1 1-3.65 0 1.825 1.825 0 0 1 3.65 0z" fill="#CEE2F2" data-color="2"/><path d="M132.2 63.343a1.825 1.825 0 1 1-3.65 0 1.825 1.825 0 0 1 3.65 0z" fill="#FF6D3B" data-color="5"/><path d="M132.2 69.155a1.825 1.825 0 1 1-3.65 0 1.825 1.825 0 0 1 3.65 0z" fill="#21D8DE" data-color="6"/><path d="M123.56 136.31v2.296H76.425v-2.296h47.135z" opacity=".05"/></svg>