<svg version="1.0" viewBox="0 0 420.27 420.27" xmlns="http://www.w3.org/2000/svg" xmlns:xlink="http://www.w3.org/1999/xlink"><defs><radialGradient id="d" cx="442.07" cy="633.23" r="8.202" gradientTransform="matrix(1 0 0 .96921 0 19.496)" gradientUnits="userSpaceOnUse" xlink:href="#a"/><radialGradient id="c" cx="440.17" cy="635.5" r="27.274" gradientTransform="matrix(1.8148 0 0 1.9167 -358.66 -582.54)" gradientUnits="userSpaceOnUse"><stop stop-opacity="0" offset="0"/><stop offset="1"/></radialGradient><radialGradient id="b" cx="494.29" cy="391.24" r="78.571" gradientTransform="matrix(1.2878 0 0 1 -142.28 0)" gradientUnits="userSpaceOnUse" xlink:href="#a"/><linearGradient id="a"><stop stop-color="#fff" offset="0"/><stop stop-color="#fff" stop-opacity="0" offset="1"/></linearGradient></defs><path d="M47.935 116.537A187.268 187.268 0 1 1 372.29 303.8 187.268 187.268 0 1 1 47.935 116.537z"/><path transform="rotate(-150.001 597.338 701.014) scale(2.38343)" d="M572.86 391.24a78.571 78.571 0 1 1-157.14 0 78.571 78.571 0 1 1 157.14 0z" fill="url(#b)"/><path transform="rotate(-60.001 -1151.601 2967.805) scale(4.3561)" d="M467.45 635.5a27.274 27.274 0 1 1-54.548 0 27.274 27.274 0 1 1 54.548 0z" fill="url(#c)"/><path d="M258.418 126.382a96.806 96.806 0 1 1-96.805 167.675 96.806 96.806 0 1 1 96.805-167.675z"/><g fill="none" stroke="#676767" stroke-width="4.356"><path d="m197.398 203.583-36.025 89.926 60.763-75.372"/><path d="m205.69 222.806 88.38 35.132-74.522-58.525m-16.935 21.717-75.834-59.754 89.759 35.843"/><path d="m222.25 216.976 35.731-90.654-59.745 76.91"/><path d="m214.468 223.95 89.063-38.113-96.262 10.332"/><path d="m221.92 204.46-37.654-87.333 11.312 94.077m27.32-3.261 11.372 95.872-38.126-88.814"/><path d="m206.43 196.927-89.366 38.84 96.633-12.14"/></g><path d="M237.129 163.513a53.916 53.916 0 1 1-53.916 93.387 53.916 53.916 0 1 1 53.916-93.387z" fill="#b1b1b1"/><path transform="matrix(2.12211 -3.67575 3.80043 2.19409 -3134.428 445.797)" d="M449.77 633.23a7.702 7.45 0 1 1-15.405 0 7.702 7.45 0 1 1 15.405 0z" fill="#414141" stroke="#676767" stroke-linejoin="round"/><path transform="matrix(1.6259 -2.81626 2.9117 1.681 -2352.423 390.656)" d="M449.77 633.23a7.702 7.45 0 1 1-15.405 0 7.702 7.45 0 1 1 15.405 0z" fill="url(#d)"/><path d="M218.545 195.656a16.776 16.776 0 1 1-16.775 29.058 16.776 16.776 0 1 1 16.775-29.058z" fill="#cfcfcf"/><path d="M216.653 198.866a13.068 13.068 30 1 1-13.068 22.635 13.068 13.068 30 1 1 13.068-22.635z" fill="#b6b6b6"/></svg>