<svg width="200" height="200" data-bbox="35.5 45 129.001 110" data-type="color" viewBox="35.5 45 129 110" xmlns="http://www.w3.org/2000/svg"><rect style="fill:none;stroke:#0da8e0;stroke-width:3.24792;stroke-linejoin:round;stroke-miterlimit:6.3;stroke-dasharray:none;stroke-opacity:1" width="125.752" height="125.752" x="37.124" y="37.124" ry="12.173"/><path d="M100 145.486a2.2 2.2 0 0 1-1.33-.447l-23.64-17.905c-9.054-6.857-14.459-17.731-14.459-29.088V67.069c0-.99.66-1.857 1.613-2.122L99.41 54.594a2.21 2.21 0 0 1 1.18 0l37.226 10.353a2.203 2.203 0 0 1 1.613 2.122v30.977c0 11.357-5.405 22.23-14.459 29.088l-23.64 17.905a2.2 2.2 0 0 1-1.33.447zM64.977 68.743v29.303c0 9.986 4.752 19.547 12.713 25.576L100 140.52l22.31-16.898c7.96-6.029 12.713-15.59 12.713-25.576V68.743L100 59.003ZM95.52 110.52a2.205 2.205 0 0 1-1.558-.645l-16.118-16.12a2.202 2.202 0 1 1 3.115-3.115l14.561 14.562 23.52-23.52a2.203 2.203 0 0 1 3.116 3.114l-25.078 25.079a2.204 2.204 0 0 1-1.558.645z" style="fill:#0da8e0"/></svg>