<svg xmlns="http://www.w3.org/2000/svg" viewBox="0 0 512 512" style="enable-background:new 0 0 512 512" xml:space="preserve" fill="#fff"><path d="M256 0C114.842 0 0 114.842 0 256s114.842 256 256 256 256-114.842 256-256S397.158 0 256 0zm0 474.537c-120.501 0-218.537-98.036-218.537-218.537S135.499 37.463 256 37.463 474.537 135.499 474.537 256 376.501 474.537 256 474.537z"/><path d="m359.595 115.583-32.361-18.875-71.068 121.833c-.056-.001-.111-.005-.166-.005-20.69 0-37.463 16.774-37.463 37.463S235.31 293.463 256 293.463 293.463 276.69 293.463 256a37.276 37.276 0 0 0-4.938-18.582l71.07-121.835z"/><circle cx="256" cy="87.415" r="18.732"/><circle cx="110.005" cy="171.707" r="18.732"/><circle cx="110.005" cy="340.293" r="18.732"/><circle cx="401.995" cy="340.293" r="18.732"/><circle cx="401.995" cy="171.707" r="18.732"/><path d="M206.049 362.146h99.902v37.463h-99.902z"/></svg>