<svg xmlns="http://www.w3.org/2000/svg" viewBox="0 0 80 80" xml:space="preserve"><path d="M40.003 18.77c3.584 0 6.5-2.916 6.5-6.5s-2.916-6.5-6.5-6.5-6.5 2.916-6.5 6.5 2.916 6.5 6.5 6.5zm0-12c3.032 0 5.5 2.467 5.5 5.5s-2.468 5.5-5.5 5.5c-3.033 0-5.5-2.467-5.5-5.5s2.467-5.5 5.5-5.5zm14.311 19.957c0-2.126-.583-3.848-1.734-5.118-1.165-1.283-2.778-1.934-4.793-1.934H32.22c-2.016 0-3.628.651-4.792 1.934-1.152 1.27-1.737 2.992-1.737 5.119V42.26c0 .083.005.157.01.231l.005.059-.022.131.001.438a2.965 2.965 0 0 0 2.136 2.628c.295.083.551.122.805.122.048 0 .094-.004.179-.013a2.978 2.978 0 0 0 2.644-2.097 5.74 5.74 0 0 0 .116-.805l.001-14.151h.625v42.231c0 .051.003.1.011.176l-.006.026.001.563c.141 1.959 1.785 3.494 3.741 3.494 1.643 0 3.081-1.06 3.588-2.675.078-.331.131-.72.164-1.246l-.013-.104c.008-.076.015-.151.015-.233V46.674h.625v24.358c0 .053.003.103.011.179l-.005.027.001.559c.14 1.96 1.784 3.495 3.741 3.495 1.643 0 3.08-1.06 3.588-2.675.077-.331.13-.72.163-1.188l-.015-.148c.008-.081.016-.161.016-.248V28.8h.625v8.843l-.004 5.091a1.206 1.206 0 0 0-.014.17c0 .059.006.115.019.212a2.945 2.945 0 0 0 2.919 2.727 2.92 2.92 0 0 0 2.792-2.059 2.92 2.92 0 0 0 .146-.878l-.007-.13c.012-.166.022-.333.022-.519v-15.53zm-1 15.531c0 .161-.01.307-.02.451l-.007.088.001.024a.385.385 0 0 0 .01.085c0 .175-.033.364-.1.578a1.923 1.923 0 0 1-1.838 1.358 1.939 1.939 0 0 1-1.921-1.796l.002-15.246h-2.625v43.233c0 .051-.006.098-.011.145l-.009.088.003.043c.002.035.002.1.018.051a6.73 6.73 0 0 1-.129.994 2.748 2.748 0 0 1-2.624 1.938c-1.436 0-2.641-1.128-2.742-2.531l-.006-26.087h-2.625v25.362c0 .046-.005.088-.01.131l-.01.103.003.043c.002.041.009.074.017.05a6.733 6.733 0 0 1-.129.993 2.747 2.747 0 0 1-2.624 1.938c-1.435 0-2.64-1.127-2.742-2.53l-.005-43.959h-2.625l.001 14.963-.005.079.005.027c-.02.237-.046.461-.083.621a1.938 1.938 0 0 1-1.742 1.363l.031.499-.148-.488c-.16 0-.329-.027-.531-.084a1.982 1.982 0 0 1-1.413-1.701l.003-.338.022-.117-.011-.206c-.003-.053-.007-.104-.007-.163V26.728c0-1.871.497-3.367 1.477-4.447.98-1.081 2.306-1.606 4.052-1.606h15.567c1.745 0 3.071.525 4.053 1.606.979 1.08 1.475 2.576 1.475 4.446v15.531z"/></svg>