<svg xmlns="http://www.w3.org/2000/svg" viewBox="0 0 80 80" xml:space="preserve"><path d="M39.998 17.892c3.584 0 6.5-2.916 6.5-6.5s-2.916-6.5-6.5-6.5-6.5 2.916-6.5 6.5 2.916 6.5 6.5 6.5zm0-12c3.032 0 5.5 2.467 5.5 5.5s-2.468 5.5-5.5 5.5c-3.033 0-5.5-2.467-5.5-5.5s2.467-5.5 5.5-5.5zM50.604 40.43a2.632 2.632 0 0 0 2.146 2.029c.135.022.271.04.413.04a2.62 2.62 0 0 0 2.617-2.617c0-.063-.007-.124-.019-.208-.004-.064-.013-.134-.022-.205l-.014-.104a6.448 6.448 0 0 0-.222-1.063l-4.527-15.084c-.288-.959-.752-1.795-1.379-2.484-1.164-1.284-2.777-1.934-4.792-1.934h-9.614c-2.017 0-3.629.65-4.792 1.933a6.438 6.438 0 0 0-1.379 2.484l-4.49 14.962-.036.122c-.11.368-.184.727-.224 1.098-.016.084-.023.171-.037.332l-.012.152a2.62 2.62 0 0 0 2.617 2.617c.141 0 .275-.018.406-.039a2.592 2.592 0 0 0 2.085-1.809l4.063-13.542h.659l-7.313 25.198h7.072v18.336c0 .101.018.181.031.19a2.442 2.442 0 0 0-.031.342 2.934 2.934 0 0 0 2.93 2.931 2.934 2.934 0 0 0 2.93-2.931c0-.083-.009-.162-.019-.251.015-.068.035-.163.035-.281v-18.17l.311.002.313-.002v18.17c0 .101.017.18.031.184a2.488 2.488 0 0 0-.031.349c0 1.616 1.314 2.931 2.93 2.931s2.93-1.314 2.93-2.931c0-.079-.009-.155-.018-.253a1.24 1.24 0 0 0 .035-.279V52.309h7.071l-7.312-25.198h.659l3.999 13.319zm1.323 10.879h-6.739l-.013 19.403a1.28 1.28 0 0 0-.025.14l-.008.057.019.168c.004.033.01.066.01.101 0 1.064-.865 1.931-1.93 1.931s-1.93-.866-1.93-1.931c0-.071.012-.14.027-.255l-.027-18.949-.003-.504-1.311.008-1.311-.008-.013 19.246-.033.189.018.163c.005.036.011.072.011.109a1.933 1.933 0 0 1-1.93 1.931 1.933 1.933 0 0 1-1.93-1.931c0-.067.011-.134.028-.253l-.027-19.615h-6.741l7.313-25.198h-2.734l-4.275 14.25a1.599 1.599 0 0 1-1.287 1.112c-.082.013-.163.026-.249.026a1.618 1.618 0 0 1-1.614-1.632l.014-.14c.003-.048.006-.096.025-.221.034-.309.096-.609.189-.921l4.525-15.082c.249-.825.629-1.512 1.162-2.1.979-1.08 2.304-1.605 4.051-1.605h9.614c1.746 0 3.071.525 4.052 1.605.533.585.913 1.272 1.163 2.099l4.524 15.083c.089.297.148.583.188.892l.017.127c.006.042.013.085.016.148l.016.126c0 .975-.849 1.77-1.867 1.59-.657-.104-1.191-.606-1.346-1.307L47.35 26.107h-2.735l7.312 25.202z"/></svg>