<svg xmlns="http://www.w3.org/2000/svg" viewBox="0 0 511.746 511.746" style="enable-background:new 0 0 511.746 511.746" xml:space="preserve" width="512" height="512" fill="#00a7e2"><path d="M0 502.358h511.746V159.396H0v342.962zm379.411-292.956h52.942v52.941h-52.942v-52.941zm0 90.005h52.942v52.942h-52.942v-52.942zm0 90.006h52.942v52.941h-52.942v-52.941zM279.405 209.402h52.941v52.941h-52.941v-52.941zm0 90.005h52.941v52.942h-52.941v-52.942zm0 90.006h52.941v52.941h-52.941v-52.941zM179.398 209.402h52.942v52.941h-52.942v-52.941zm0 90.005h52.942v52.942h-52.942v-52.942zm0 90.006h52.942v52.941h-52.942v-52.941zM79.393 209.402h52.941v52.941H79.393v-52.941zm0 90.005h52.941v52.942H79.393v-52.942zm52.941 90.006v52.941H79.393v-52.941h52.941zM511.746 39.391H421.74v60.003h-30V39.391H120.006v60.003h-30V39.391H0v90.005h511.746zM90.006 9.388h30v30h-30zm301.734 0h30v30h-30z"/></svg>