<svg xmlns="http://www.w3.org/2000/svg" viewBox="0 0 178.999 178.999" style="enable-background:new 0 0 178.999 178.999" xml:space="preserve"><path style="fill:#00a7e2" d="M142.208 123.812c2.124-2.625 2.977-5.931 2.446-9.553-.668-4.589-2.804-7.584-5.49-9.559 1.921-4.35 3.222-9.153 3.735-14.547h-9.493c-.746 4.368-1.82 8.067-3.18 11.122-2.685-.406-5.096-.406-6.575-.406-3.097 0-6.313.209-9.41.406-4.177.269-8.312.573-11.761.245-3.222-.31-6.498-.877-9.762-1.575a40.022 40.022 0 0 1-2.697-8.861h30.455l2.44-8.276H89.151a74.935 74.935 0 0 1-.06-2.912c0-2.214.06-4.308.173-6.289h31.207l2.44-8.27H90.434c1.044-5.161 2.769-9.368 5.179-12.632 4.344-5.937 10.072-8.909 17.173-8.909 5.782 0 10.287 1.617 13.515 4.845 3.216 3.216 5.358 7.584 6.402 13.097h9.493c-.549-7.262-3.33-13.748-8.36-19.452-5.024-5.71-12.071-8.568-21.164-8.568-10.669 0-19.028 4.392-25.085 13.157-3.604 5.209-6.068 11.361-7.387 18.461H67.861l-2.446 8.27h13.849a79.08 79.08 0 0 0-.119 4.308c0 1.671.036 3.312.119 4.893H67.855l-2.446 8.276h14.667c.328 2.196.788 4.231 1.295 6.223-8.008-1.886-15.621-3.401-22.573-2.53-3.831.495-7.536 1.539-11.14 2.948a64.261 64.261 0 0 1-2.852-18.969c0-35.503 28.784-64.281 64.281-64.281 35.503 0 64.287 28.778 64.287 64.281 0 9.911-2.315 19.267-6.325 27.65-.871.43-1.766.919-2.691 1.492-4.338 2.667-7.805 7.441-11.486 12.495-4.594 6.331-9.332 12.847-15.287 14.499-3.532.967-8.73-1.026-14.231-3.604 8.042-.965 15.107-2.845 18.854-7.475zm24.477-12.155c-8.777 5.388-15.311 23.999-27.913 27.471-9.774 2.703-22.561-8.377-34.435-10.758 15.162-1.325 37.854-.621 35.974-13.485-2.166-14.858-24.834-7.751-38.224-8.998-15.216-1.414-30.55-8.312-42.717-6.749-23.408 3.025-43.558 28.76-59.37 35.449l29.488 29.488c31.917-18.7 77.516 11.403 119.809-4.242 16.224-6.009 24.434-23.629 29.22-42.717 1.927-7.631-1.904-11.563-11.832-5.459z"/></svg>