<svg xmlns="http://www.w3.org/2000/svg" viewBox="0 0 470.003 470.003"><path d="M367.503 455.003h-3.255c-3.484-17.096-18.635-30-36.745-30h-65V409.26c24.704-.848 49.674-6.037 73.82-16.038a7.497 7.497 0 0 0 4.059-9.8l-3.827-9.238a7.5 7.5 0 0 0-9.799-4.059 7.5 7.5 0 0 0-4.059 9.799l.902 2.18c-20.083 7.449-40.68 11.405-61.097 12.16v-2.37a7.5 7.5 0 0 0-7.5-7.5 7.5 7.5 0 0 0-7.5 7.5v2.342c-74.658-2.952-144.548-48.323-174.967-121.759-40.713-98.291 4.114-211.04 100.012-255.046l.903 2.18a7.498 7.498 0 0 0 9.799 4.059 7.5 7.5 0 0 0 4.059-9.799l-3.827-9.239a7.498 7.498 0 0 0-9.799-4.059C65.43 45.413 13.839 169.964 58.679 278.218c32.808 79.207 108.276 128.079 188.824 131.039v15.746h-65c-18.11 0-33.261 12.904-36.745 30h-3.255c-4.143 0-7.5 3.358-7.5 7.5s3.357 7.5 7.5 7.5h225c4.143 0 7.5-3.358 7.5-7.5s-3.357-7.5-7.5-7.5zm-185-15h145c9.777 0 18.114 6.271 21.21 15h-187.42c3.097-8.73 11.433-15 21.21-15z"/><path d="M410.314 271.759c20.572-42.737 23.595-93.709 4.059-140.874-26.806-64.715-89.387-106.53-159.434-106.53-22.656 0-44.844 4.433-65.948 13.174-42.569 17.633-75.724 50.788-93.356 93.356-17.633 42.569-17.632 89.457.001 132.026 26.805 64.715 89.387 106.53 159.434 106.53 22.656 0 44.844-4.432 65.948-13.174 40.013-16.574 70.484-46.566 88.376-82.613a7.497 7.497 0 0 0 .88-1.753c.015-.047.025-.095.04-.142zm-11.216-11.466a172.318 172.318 0 0 0-38.246-6.874c-.692-9.08-1.946-18.494-3.764-28.148a7.5 7.5 0 1 0-14.74 2.775c1.626 8.639 2.75 17.014 3.409 25.058a172.38 172.38 0 0 0-55.06 10.368l-25.895-62.516 62.278-25.796a317.817 317.817 0 0 1 8.367 24.475 7.501 7.501 0 0 0 14.383-4.26 333.153 333.153 0 0 0-8.889-25.955l62.275-25.795c14.13 39.24 11.637 80.838-4.118 116.668zm-210.435-27.798 62.282-25.798 25.895 62.515a172.389 172.389 0 0 0-46.293 31.629c-15.978-18.822-30.365-42.229-41.884-68.346zm132.681-71.194-62.282 25.798-25.895-62.515a172.389 172.389 0 0 0 46.293-31.629c15.979 18.822 30.366 42.229 41.884 68.346zm-157.403-49.339c1.96-27.578 10.46-47.42 24.176-56.946l25.447 61.435a157.353 157.353 0 0 1-50.037 9.252c-.037-4.687.096-9.275.414-13.741zm63.481-1.251-25.447-61.435c16.439-2.964 36.476 5.057 57.363 23.172a174.646 174.646 0 0 1 10.009 9.423 157.408 157.408 0 0 1-41.925 28.84zm-8.114 19.607 25.897 62.521-62.282 25.798c-10.322-26.609-16.699-53.331-18.712-77.938a172.415 172.415 0 0 0 55.097-10.381zm102.568 208.426-25.433-61.4a157.358 157.358 0 0 1 50.005-9.251c.268 33.467-8.475 59.328-24.572 70.651zm-39.29-55.659 25.448 61.435c-16.436 2.963-36.476-5.057-57.363-23.172a174.302 174.302 0 0 1-10.008-9.423 157.343 157.343 0 0 1 41.923-28.84zm114.877-153.314-62.26 25.789c-12.347-28.063-27.931-53.256-45.317-73.478a172.27 172.27 0 0 0 22.262-32.054c37.046 14.379 67.817 42.534 85.315 79.743zm-99.791-84.542a157.254 157.254 0 0 1-18.007 25.748 188.734 188.734 0 0 0-10.5-9.861c-10.646-9.233-21.276-16.185-31.62-20.785a156.631 156.631 0 0 1 17.395-.977 158.32 158.32 0 0 1 42.732 5.875zm-141.015 28.57c-4.072 10.576-6.678 23.024-7.679 37.1-.333 4.687-.48 9.493-.452 14.397a157.291 157.291 0 0 1-30.897-5.462c9.978-17.87 23.212-33.437 39.028-46.035zm-47.164 62.826c.436-1.054.888-2.098 1.345-3.139a172.292 172.292 0 0 0 38.313 6.894c2.006 26.592 8.801 55.424 19.913 83.997l-62.277 25.796c-13.333-36.965-12.434-76.999 2.706-113.548zm3.052 127.4 62.26-25.789c12.347 28.063 27.931 53.256 45.317 73.478a172.244 172.244 0 0 0-22.262 32.055c-37.047-14.38-67.818-42.536-85.315-79.744zm99.791 84.542a157.31 157.31 0 0 1 18.006-25.748 188.734 188.734 0 0 0 10.5 9.861c10.652 9.239 21.288 16.183 31.639 20.782-5.763.644-11.57.979-17.413.979a158.28 158.28 0 0 1-42.732-5.874zm141.011-28.633c1.521-3.956 2.844-8.176 3.953-12.655 2.881-11.633 4.268-24.698 4.179-38.78a157.243 157.243 0 0 1 30.82 5.44c-9.783 17.478-22.919 33.169-38.952 45.995z"/></svg>