<svg height="439pt" viewBox="0 -32 439.961 439" width="439pt" xmlns="http://www.w3.org/2000/svg" fill="#00a7e2"><path d="M8 336.48a8 8 0 0 0 8-8c1.523-30.273 25.727-54.476 56-56 30.273 1.524 54.477 25.727 56 56v13.754l-16.176-4.043c0-.582.176-1.125.176-1.71.203-20.59-15.11-38.036-35.55-40.508-20.442-2.47-39.47 10.828-44.177 30.87-4.71 20.044 6.41 40.423 25.813 47.31 19.402 6.89 40.883-1.915 49.867-20.442l26.102 6.531a8.16 8.16 0 0 0 1.945.238h152c.734 0 1.465-.101 2.168-.304.238-.063.45-.2.687-.29a9.125 9.125 0 0 0 1.282-.566c.254-.16.465-.375.703-.558a7.75 7.75 0 0 0 .96-.801c.22-.254.423-.52.606-.8.219-.255.418-.52.602-.802l76.887-139.797 8.457 50.704c-34.22 9.703-56.223 42.945-51.793 78.238a8 8 0 0 0 8.937 6.945 8.004 8.004 0 0 0 6.938-8.93 57.326 57.326 0 0 1-.434-7.039c-.059-24.39 15.738-45.996 39-53.335l2.68 16.09c-19.18 7.327-29.696 27.995-24.328 47.816 5.367 19.82 24.87 32.36 45.128 29.011 20.262-3.347 34.696-21.492 33.403-41.988-1.297-20.492-17.899-36.68-38.418-37.449l-17.602-105.457v-.055l-32-184A7.998 7.998 0 0 0 344 .48h-56a8 8 0 0 0 0 16h49.273l30.399 174.602-66.8 121.398h-159.11c-8.328-32.027-36.692-54.796-69.762-56-41.207 0-72 38.016-72 72a8 8 0 0 0 8 8zm64 8a8 8 0 1 1 0-16 8 8 0 0 1 0 16zm328-16a8 8 0 1 1 0 16.001 8 8 0 0 1 0-16zm0 0"/></svg>