<svg xmlns="http://www.w3.org/2000/svg" viewBox="0 0 368.041 368.041" style="enable-background:new 0 0 368.041 368.041" xml:space="preserve" fill="#00a7e2"><path d="M113.173 163.967c16.854 37.194 52.937 53.384 70.847 53.384 11.776 0 31.409-7.005 48.267-22.372-6.164.43-12.752.648-19.792.648-1.652 0-3.385-.015-5.237-.044a20.53 20.53 0 0 1-12.507 4.274h-15c-11.304 0-20.5-9.196-20.5-20.5s9.196-20.5 20.5-20.5h15a20.423 20.423 0 0 1 14.246 5.755c1.249.014 2.48.02 3.688.02 19.364 0 32.125-1.776 40.473-3.918a22.39 22.39 0 0 1-1.673-8.528v-51.977c0-5.407 2.007-10.59 5.477-14.594-1.852-14.415-5.213-25.42-10.229-33.538-10.336-16.729-30.264-24.52-62.713-24.52-26.919 0-45.508 5.588-56.828 17.083-8.775 8.911-13.86 21.626-16.237 40.829 3.548 4.019 5.6 9.255 5.6 14.74v51.977a22.127 22.127 0 0 1-3.382 11.781z"/><path d="M76.292 164.457h17.994c6.774 0 12.27-5.494 12.27-12.271v-51.977c0-4.528-2.459-8.473-6.107-10.599 4.018-42.561 20.442-72.054 83.572-72.054 36.253 0 58.884 9.3 71.22 29.265 7.178 11.618 10.631 26.624 12.244 42.853-3.59 2.141-6 6.051-6 10.534v51.977c0 5.843 4.088 10.722 9.557 11.959-7.932 5.188-24.354 10.487-58.357 10.487-2.754 0-5.625-.035-8.615-.107-1.75-3.365-5.262-5.668-9.318-5.668h-14.999c-5.798 0-10.5 4.701-10.5 10.5s4.702 10.5 10.5 10.5h14.999c3.504 0 6.6-1.723 8.506-4.36 3.158.08 6.25.13 9.238.13 38.328-.001 62.693-6.543 72.561-19.523.42-.552.803-1.102 1.152-1.646h5.543c6.775 0 12.27-5.494 12.27-12.271v-51.977c0-6.776-5.494-12.27-12.27-12.27h-6.768c-1.904-19.608-6.125-36.3-14.807-50.348C254.549 12.296 226.365 0 184.02 0c-42.348 0-70.529 12.296-86.158 37.592-8.681 14.048-12.9 30.738-14.805 50.348h-6.766c-6.777 0-12.271 5.493-12.271 12.27v51.977c0 6.776 5.495 12.27 12.272 12.27zm256.076 152.842c-4.08-25.367-12.479-58.043-29.324-69.653-11.486-7.921-51.586-29.346-68.709-38.494l-.36-.192a5.6 5.6 0 0 0-6.098.534c-8.983 7.051-18.817 11.801-29.228 14.118a5.602 5.602 0 0 0-4.02 3.48l-10.609 27.961-10.609-27.961a5.6 5.6 0 0 0-4.02-3.48c-10.411-2.317-20.247-7.067-29.231-14.118a5.595 5.595 0 0 0-6.097-.534c-16.932 9.046-57.551 30.921-69.019 38.652-19.399 13.069-27.871 60.344-29.372 69.688a5.6 5.6 0 0 0 .25 2.759c.694 1.96 18.488 47.983 148.097 47.983 129.607 0 147.403-46.023 148.098-47.982a5.6 5.6 0 0 0 .251-2.761zm-60.348-29.13h-51.334v-10.811h51.334v10.811z"/></svg>