<svg viewBox="0 0 52 52" style="enable-background:new 0 0 52 52" xml:space="preserve" xmlns="http://www.w3.org/2000/svg"><g class="pin2" style="fill:none;fill-opacity:1;stroke:#000;stroke-opacity:1;opacity:1"><path class="st0" d="M41.39 22.5c-5.3 0-9.6 5.3-9.6 10.6v.01c0 5.3 9.6 14.38 9.6 14.38S51 37.37 51 32.07c-.02-5.29-4.32-9.57-9.61-9.57zm0 13.24c-2 .01-3.64-1.61-3.65-3.61-.01-2 1.61-3.64 3.61-3.65 2-.01 3.63 1.59 3.65 3.59 0 2-1.61 3.66-3.61 3.67z" style="fill:none;fill-opacity:1;stroke:#000;stroke-opacity:1"/></g><g class="dot25" style="opacity:1;fill:none;fill-opacity:1;stroke:#000;stroke-opacity:1"><path class="st1" d="M40.75 51.14a.749.749 0 1 1 1.498-.002.749.749 0 0 1-1.498.002z" style="fill:none;fill-opacity:1;stroke:#000;stroke-opacity:1" transform="translate(0 -.655)"/></g><g class="dot24" style="opacity:1;fill:none;fill-opacity:1;stroke:#000;stroke-opacity:1"><path class="st1" d="M36.73 51.14c0-.41.34-.75.75-.75s.75.34.75.75-.34.75-.75.75-.75-.34-.75-.75z" style="fill:none;fill-opacity:1;stroke:#000;stroke-opacity:1" transform="translate(0 -.655)"/></g><g class="dot23" style="opacity:1;fill:none;fill-opacity:1;stroke:#000;stroke-opacity:1"><path class="st1" d="M32.71 51.14a.749.749 0 1 1 1.498-.002.749.749 0 0 1-1.498.002z" style="fill:none;fill-opacity:1;stroke:#000;stroke-opacity:1" transform="translate(0 -.655)"/></g><g class="dot22" style="opacity:1;fill:none;fill-opacity:1;stroke:#000;stroke-opacity:1"><path class="st1" d="M28.69 51.14a.749.749 0 1 1 1.498-.002.749.749 0 0 1-1.498.002z" style="fill:none;fill-opacity:1;stroke:#000;stroke-opacity:1" transform="translate(0 -.655)"/></g><g class="dot21" style="opacity:1;fill:none;fill-opacity:1;stroke:#000;stroke-opacity:1"><path class="st1" d="M24.67 51.14c0-.41.34-.75.75-.75s.75.34.75.75-.34.75-.75.75-.75-.34-.75-.75z" style="fill:none;fill-opacity:1;stroke:#000;stroke-opacity:1" transform="translate(0 -.655)"/></g><g class="dot20" style="opacity:1;fill:none;fill-opacity:1;stroke:#000;stroke-opacity:1"><path class="st1" d="M20.65 51.14a.749.749 0 1 1 1.498-.002.749.749 0 0 1-1.498.002z" style="fill:none;fill-opacity:1;stroke:#000;stroke-opacity:1" transform="translate(0 -.655)"/></g><g class="dot19" style="opacity:1;fill:none;fill-opacity:1;stroke:#000;stroke-opacity:1"><path class="st1" d="M16.63 51.14c0-.41.34-.75.75-.75s.75.34.75.75-.34.75-.75.75-.75-.34-.75-.75z" style="fill:none;fill-opacity:1;stroke:#000;stroke-opacity:1" transform="translate(0 -.655)"/></g><g class="dot18" style="opacity:1;fill:none;fill-opacity:1;stroke:#000;stroke-opacity:1"><path class="st1" d="M12.61 51.14c0-.41.34-.75.75-.75s.75.34.75.75-.34.75-.75.75-.75-.34-.75-.75z" style="fill:none;fill-opacity:1;stroke:#000;stroke-opacity:1" transform="translate(0 -.655)"/></g><g class="dot17" style="opacity:1;fill:none;fill-opacity:1;stroke:#000;stroke-opacity:1"><path class="st1" d="M8.59 51.14c0-.41.34-.75.75-.75s.75.34.75.75-.34.75-.75.75-.75-.34-.75-.75z" style="fill:none;fill-opacity:1;stroke:#000;stroke-opacity:1" transform="translate(0 -.655)"/></g><g class="dot16" style="opacity:1;fill:none;fill-opacity:1;stroke:#000;stroke-opacity:1"><path class="st1" d="M5.18 51.77a.76.76 0 0 1-.59-.89c.09-.4.48-.66.89-.58a.748.748 0 0 1-.15 1.48c-.05 0-.1 0-.15-.01z" style="fill:none;fill-opacity:1;stroke:#000;stroke-opacity:1" transform="translate(0 -.655)"/></g><g class="dot15" style="fill:none;fill-opacity:1;stroke:#000;stroke-opacity:1;opacity:1"><path class="st1" d="M1.42 49.35a.742.742 0 0 1 .17-1.05.74.74 0 0 1 1.04.17c.25.33.17.8-.17 1.04-.13.1-.28.15-.43.15-.24 0-.46-.11-.61-.31z" style="fill:none;fill-opacity:1;stroke:#000;stroke-opacity:1"/></g><g class="dot14" style="opacity:1;fill:none;fill-opacity:1;stroke:#000;stroke-opacity:1"><path class="st1" d="M.95 45.85a.751.751 0 0 1-.66-.83c.05-.41.42-.71.83-.66.41.05.71.42.66.83-.04.39-.37.67-.74.67-.03 0-.06 0-.09-.01z" style="fill:none;fill-opacity:1;stroke:#000;stroke-opacity:1" transform="translate(.655)"/></g><g class="dot13" style="fill:none;fill-opacity:1;stroke:#000;stroke-opacity:1;opacity:1"><path class="st1" d="M2.31 42.13a.756.756 0 0 1 .08-1.06c.32-.27.79-.23 1.06.08a.747.747 0 0 1-.57 1.24c-.21 0-.42-.09-.57-.26z" style="fill:none;fill-opacity:1;stroke:#000;stroke-opacity:1"/></g><g class="dot12" style="fill:none;fill-opacity:1;stroke:#000;stroke-opacity:1;opacity:1"><path class="st1" d="M17.9 40.34a.749.749 0 1 1 1.498-.002.749.749 0 0 1-1.498.002z" style="fill:none;fill-opacity:1;stroke:#000;stroke-opacity:1"/></g><g class="dot11" style="fill:none;fill-opacity:1;stroke:#000;stroke-opacity:1;opacity:1"><path class="st1" d="M13.88 40.34a.749.749 0 1 1 1.498-.002.749.749 0 0 1-1.498.002z" style="fill:none;fill-opacity:1;stroke:#000;stroke-opacity:1"/></g><g class="dot10" style="fill:none;fill-opacity:1;stroke:#000;stroke-opacity:1;opacity:1"><path class="st1" d="M9.86 40.34a.749.749 0 1 1 1.498-.002.749.749 0 0 1-1.498.002z" style="fill:none;fill-opacity:1;stroke:#000;stroke-opacity:1"/></g><g class="dot9" style="fill:none;fill-opacity:1;stroke:#000;stroke-opacity:1;opacity:1"><path class="st1" d="M5.84 40.34a.749.749 0 1 1 1.498-.002.749.749 0 0 1-1.498.002z" style="fill:none;fill-opacity:1;stroke:#000;stroke-opacity:1"/></g><g class="dot8" style="fill:none;fill-opacity:1;stroke:#000;stroke-opacity:1;opacity:1"><path class="st1" d="M21.92 40.38a.75.75 0 0 1 .7-.8c.41-.03.77.28.8.7.02.41-.29.77-.7.79-.02.01-.04.01-.05.01-.4 0-.72-.31-.75-.7z" style="fill:none;fill-opacity:1;stroke:#000;stroke-opacity:1"/></g><g class="dot7" style="fill:none;fill-opacity:1;stroke:#000;stroke-opacity:1;opacity:1"><path class="st1" d="M25.71 39.2a.737.737 0 0 1-.03-1.06c.28-.3.76-.32 1.06-.03.29.28.31.76.03 1.06a.78.78 0 0 1-.55.23c-.19 0-.37-.07-.51-.2z" style="fill:none;fill-opacity:1;stroke:#000;stroke-opacity:1"/></g><g class="dot6" style="fill:none;fill-opacity:1;stroke:#000;stroke-opacity:1;opacity:1"><path class="st1" d="M27.69 35.77a.749.749 0 0 1-.74-.76c.01-.42.34-.75.76-.74.41 0 .75.34.74.76-.01.41-.34.74-.75.74h-.01z" style="fill:none;fill-opacity:1;stroke:#000;stroke-opacity:1"/></g><g class="dot5" style="fill:none;fill-opacity:1;stroke:#000;stroke-opacity:1;opacity:1"><path class="st1" d="M25.79 31.83a.746.746 0 0 1 .06-1.06c.32-.28.79-.25 1.06.06.28.31.25.79-.06 1.06-.15.13-.32.19-.5.19-.21 0-.41-.09-.56-.25z" style="fill:none;fill-opacity:1;stroke:#000;stroke-opacity:1"/></g><g class="dot4" style="fill:none;fill-opacity:1;stroke:#000;stroke-opacity:1;opacity:1"><path class="st1" d="M22.78 30.27a.75.75 0 0 1-.67-.82c.05-.41.42-.71.83-.67a.75.75 0 0 1-.08 1.5c-.03 0-.05 0-.08-.01z" style="fill:none;fill-opacity:1;stroke:#000;stroke-opacity:1"/></g><g class="dot3" style="fill:none;fill-opacity:1;stroke:#000;stroke-opacity:1;opacity:1"><path class="st1" d="M18.09 29.5c0-.42.34-.75.75-.75.42 0 .75.33.75.75a.749.749 0 1 1-1.5 0z" style="fill:none;fill-opacity:1;stroke:#000;stroke-opacity:1"/></g><g class="dot2" style="fill:none;fill-opacity:1;stroke:#000;stroke-opacity:1;opacity:1"><path class="st1" d="M14.07 29.5c0-.42.34-.75.75-.75.42 0 .75.33.75.75a.749.749 0 1 1-1.5 0z" style="fill:none;fill-opacity:1;stroke:#000;stroke-opacity:1"/></g><g class="dot1" style="fill:none;fill-opacity:1;stroke:#000;stroke-opacity:1;opacity:1"><path class="st1" d="M10.05 29.5c0-.42.34-.75.75-.75.42 0 .75.33.75.75a.749.749 0 1 1-1.5 0z" style="fill:none;fill-opacity:1;stroke:#000;stroke-opacity:1"/></g><g class="pin1" style="fill:none;fill-opacity:1;stroke:#000;stroke-opacity:1;opacity:1"><path class="st0" d="M10.61.86C5.3.86 1 5.16 1 10.47v.03c0 5.3 9.61 15.38 9.61 15.38s9.61-10.11 9.61-15.38c.02-5.31-4.27-9.62-9.58-9.64h-.03zm0 13.23c-2 0-3.63-1.63-3.63-3.63s1.63-3.63 3.63-3.63 3.63 1.63 3.63 3.63v.04a3.628 3.628 0 0 1-3.63 3.59z" style="fill:none;fill-opacity:1;stroke:#000;stroke-opacity:1"/></g></svg>