<svg width="50mm" height="80mm" viewBox="0 0 50 80" xmlns="http://www.w3.org/2000/svg"><path d="m16.968 5.22.52-3.445 2.925 2.18L21.625.627l2.424 2.626L25.93.298l1.829 2.976L30.215.702l1.18 3.253 2.968-2.128.489 3.458 3.3-1.511-.218 3.473 3.586-.91-.993 3.385 3.697-.21-1.66 3.133 3.714.436-2.3 2.781 3.533 1.113-2.766 2.255 3.217 1.759-3.202 1.729 2.751 2.315-3.518 1.098 2.27 2.774-3.683.429 1.679 3.177-3.785-.245.968 3.286-3.615-.936.319 3.55-1.489-.743 8.102 33.276-9.313 9.228L25.984 41.1l-9.385 38.314-9.292-9.653 7.939-32.326-1.474.602.15-3.489-3.517.963.95-3.343-3.668.245 1.648-3.147-3.721-.393 2.264-2.754-3.53-1.106 2.818-2.328-3.264-1.722 3.285-1.722-2.838-2.307 3.519-1.127-2.286-2.722 3.731-.457-1.7-3.136 3.763.244-1.032-3.378 3.654.947-.33-3.503z" fill="#00b7f4"/><text x="12.999" y="29.118" font-family="sans-serif" font-size="13.839" style="line-height:1.25" xml:space="preserve"><tspan x="12.999" y="29.118" fill="#fff">№</tspan></text><text x="28.097" y="29.088" font-family="sans-serif" font-size="25.256" style="line-height:1.25" xml:space="preserve"><tspan x="28.097" y="29.088" fill="#fff" font-family="Arial" stroke-width=".631" style="font-variant-caps:normal;font-variant-east-asian:normal;font-variant-ligatures:normal;font-variant-numeric:normal">1</tspan></text></svg>