<svg height="464pt" viewBox="0 -24 464 464" width="464pt" xmlns="http://www.w3.org/2000/svg" fill="#00a7e2"><path d="M256 362.898V331H0v32.027C0 392.031 23.438 416 52.445 416h229.356c-2.2-2-4.32-3.754-6.324-5.762A66.736 66.736 0 0 1 256 362.898zm-74.742-193.375 37.148 25.504 37.293-25.504c10.2-6.957 18.301-22.656 18.301-35V81.82l-55.5-27.449L163 81.75v52.773c0 12.34 8.055 28.043 18.258 35zm8.363-49.812a6.998 6.998 0 0 1 9.899.05l11.156 11.266 26.851-26.847a6.999 6.999 0 0 1 9.903.004 7.002 7.002 0 0 1-.004 9.902l-31.824 31.84a7.034 7.034 0 0 1-4.95 2.074h-.015a6.986 6.986 0 0 1-4.957-2.102l-16.11-16.273a7.02 7.02 0 0 1 .051-9.914zM426.895 0h-.223C406.105 0 389 17.184 389 37.762V102h75V37.637C464.094 17.02 447.512.199 426.895 0zm0 0"/><path d="M107.469 0C88.019 0 72.19 15.617 72.19 34.773L70.125 317H263a7.289 7.289 0 0 1 7 7.328v38.57c-.07 29.16 23.438 52.891 52.594 53.102h.176c29.05-.21 52.43-23.93 52.23-52.98V37.773C375 23.06 381.621 10 391.57 0zM149 77.383a6.804 6.804 0 0 1 3.7-6.285l62.687-30.809a6.884 6.884 0 0 1 6.11 0l62.8 30.895A6.81 6.81 0 0 1 288 77.469v57.054c0 16.98-10.363 37-24.398 46.567l-41.125 28.2a6.915 6.915 0 0 1-3.918 1.218 6.815 6.815 0 0 1-3.899-1.219l-41.246-28.2C159.387 171.52 149 151.5 149 134.524zM318 285H126c-3.867 0-7-3.133-7-7s3.133-7 7-7h192c3.867 0 7 3.133 7 7s-3.133 7-7 7zm0-37H126c-3.867 0-7-3.133-7-7s3.133-7 7-7h192c3.867 0 7 3.133 7 7s-3.133 7-7 7zm0 0"/></svg>