<svg height="533pt" viewBox="-16 -18 533.333 533" width="533pt" xmlns="http://www.w3.org/2000/svg"><path d="M248.43 25.082c39.289 0 78.64 11.152 113.8 32.254a246.365 246.365 0 0 1 59.364 49.973l-58.739-1.938c-6.898-.23-12.675 5.18-12.902 12.082-.226 6.899 5.18 12.68 12.082 12.902l81.27 2.684a12.502 12.502 0 0 0 13.605-2.726 12.502 12.502 0 0 0 2.703-13.61l-2.675-81.25c-.157-6.902-5.88-12.371-12.782-12.219-6.898.157-12.375 5.88-12.218 12.778 0 .093 0 .18.007.27l1.547 46.874a272.667 272.667 0 0 0-58.398-47.265C336.05 12.465 292.25.082 248.43.082c-70 0-134.54 28.863-181.703 81.27C24.945 127.777 0 190.266 0 248.512c0 6.902 5.594 12.5 12.5 12.5s12.5-5.598 12.5-12.5c0-52.239 22.543-108.477 60.309-150.434 42.367-47.066 100.293-72.996 163.12-72.996zm239.07 210.93c-6.906 0-12.5 5.593-12.5 12.5 0 52.234-22.543 108.476-60.309 150.437-42.367 47.067-100.293 72.988-163.12 72.988-39.29 0-78.641-11.144-113.801-32.246a246.543 246.543 0 0 1-59.364-49.972l58.739 1.937c6.898.223 12.675-5.187 12.902-12.086.226-6.898-5.18-12.675-12.082-12.906l-81.27-2.68a12.496 12.496 0 0 0-16.309 16.332l2.677 81.25c.156 6.907 5.878 12.38 12.78 12.223 6.9-.152 12.376-5.875 12.22-12.777 0-.09 0-.176-.008-.27l-1.547-46.875a272.803 272.803 0 0 0 58.398 47.27c39.043 23.43 82.844 35.808 126.664 35.808 70 0 134.54-28.86 181.703-81.265C475.055 369.25 500 306.762 500 248.512c0-6.907-5.594-12.5-12.5-12.5zm0 0"/></svg>