<svg height="512" width="512" xmlns="http://www.w3.org/2000/svg"><path d="M303.326 404.987h-94.651a7.5 7.5 0 0 0 0 15h94.651a7.5 7.5 0 0 0 0-15zm0-36.997h-94.651a7.5 7.5 0 0 0 0 15h94.651a7.5 7.5 0 0 0 0-15z"/><path d="M437.02 74.981C388.667 26.629 324.38 0 256 0 161.412 0 74.885 51.844 30.186 135.298a7.5 7.5 0 0 0 3.07 10.152 7.498 7.498 0 0 0 10.152-3.07C85.492 63.809 166.952 15 256 15c64.374 0 124.894 25.068 170.413 70.587C471.932 131.107 497 191.627 497 256s-25.068 124.894-70.588 170.413C380.894 471.932 320.374 497 256 497s-124.894-25.068-170.413-70.587S15 320.374 15 256c0-28.487 4.919-56.366 14.622-82.864a7.5 7.5 0 0 0-4.464-9.621 7.497 7.497 0 0 0-9.621 4.464C5.227 196.134 0 225.748 0 256c0 68.38 26.628 132.667 74.98 181.02C123.333 485.371 187.62 512 256 512s132.667-26.629 181.02-74.98C485.372 388.668 512 324.38 512 256s-26.628-132.667-74.98-181.019z"/><path d="M418.117 118.544c11.804-15.916-8.291-36.029-24.215-24.215a902.521 902.521 0 0 0-100.205 86.434l-34.969 34.968c-24.562-1.627-45.084 18.717-43.442 43.442l-13.252 13.252c-10.473 10.473-10.473 27.513 0 37.986 10.472 10.472 27.512 10.473 37.985 0l13.251-13.251c24.577 1.631 45.084-18.73 43.444-43.443l34.969-34.968a903.11 903.11 0 0 0 86.434-100.205zm-188.704 181.26c-4.624 4.624-12.148 4.624-16.772 0-4.624-4.625-4.624-12.148 0-16.773l7.365-7.365a41.097 41.097 0 0 0 16.772 16.773zM256 282.261c-14.204 0-25.815-11.557-25.815-25.816 0-14.235 11.581-25.815 25.815-25.815 12.855 0 23.543 9.445 25.495 21.759l.002.013c2.487 15.745-9.738 29.859-25.497 29.859zm35.994-45.038a41.097 41.097 0 0 0-16.773-16.772l29.083-29.082a887.52 887.52 0 0 1 98.533-84.992c2.16-1.599 4.826 1.08 3.231 3.231a887.931 887.931 0 0 1-84.993 98.534z"/><path d="M369.87 76.069c-81.453-51.658-191.967-43.313-264.672 29.635l-.007.006c-82.793 83.078-82.842 217.519.073 300.639.063.067.119.138.184.203 40.214 40.214 93.681 62.361 150.552 62.361 56.685 0 110.028-22.022 150.202-62.011.035-.034.063-.072.097-.107 73.13-72.893 80.917-183.143 30.044-264.005a7.5 7.5 0 0 0-12.697 7.988c18.562 29.503 28.92 63.326 30.143 98.224h-29.776c-.962-23.908-6.866-46.824-17.589-68.222a7.5 7.5 0 0 0-13.41 6.72c28.416 56.711 19.65 128.704-29.045 177.115a7.503 7.503 0 0 0-.016 10.622l26.229 26.229c-36.654 33.871-84.005 52.448-134.183 52.448-50.196 0-97.531-18.572-134.184-52.447l26.23-26.23a7.501 7.501 0 0 0-.016-10.622c-60.137-59.788-60.166-156.803-.563-216.668 48.402-48.613 120.503-57.588 177.616-28.671a7.5 7.5 0 0 0 10.079-3.304 7.5 7.5 0 0 0-3.304-10.079c-21.425-10.848-44.387-16.851-68.359-17.884v-29.78c34.974 1.313 68.825 11.792 98.336 30.508a7.502 7.502 0 0 0 8.036-12.668zm54.087 187.932h29.779c-1.878 47.539-20.449 92.096-52.915 126.89l-21.059-21.059c26.865-29.148 42.352-66.24 44.195-105.831zM248.5 58.239v29.776c-39.736 1.731-76.973 17.197-106.243 44.138l-21.059-21.059C156.11 78.555 200.815 60.003 248.5 58.239zM132.237 369.832l-21.058 21.059c-32.466-34.793-51.037-79.35-52.915-126.89h29.779c1.843 39.59 17.33 76.683 44.194 105.831zM87.989 249.001H58.208c1.646-47.613 20.066-92.314 52.413-127.273l21.056 21.056c-26.75 29.314-42.073 66.555-43.688 106.217z"/></svg>