<svg xmlns="http://www.w3.org/2000/svg" viewBox="0 0 1000 1000" xml:space="preserve"><path d="M771.6 432.3c-6.7-13.8-16.6-24.2-31.7-28.4-23.1-6.4-45.3-4.1-65.4 10-1.9 1.3-3.8 2.6-6.5 4.5-5.7-15.1-18-14.8-30.6-13.8-1.9.2-3.8 0-5.6 0h-37.3v288.6c0 2.3.2 4.8.3 7.1h77.9v-77.1c11.6 1.1 22.5 3.1 33.5 3.1 37.6-.4 60.2-17.7 71.4-53.6.5-1.6.9-3.1 1.3-4.8 7.5-28.9 7.4-58.3 4.8-87.8-1.6-16.6-4.8-32.8-12.1-47.8zm-68.3 121.2c-3.5 17.2-13.7 22-31 15.7v-14.5c0-28 .2-56.1-.1-84.1 0-4.9 1.7-7.4 6-8.8 2.4-.8 4.8-1.8 7.3-2.6 10.7-3.1 17.6.4 19 11.3 3.7 27.6 4.5 55.5-1.2 83zM464.9 410.8c-.3 19.3-.1 38.6-.1 58.3-8.7-1.1-16.3-2.2-24.1-3-3.9-.3-8-.1-12 .4-16.1 2.1-18.3 4.7-18.3 20.6v134.6H333V405c1.6-.2 3.4-.6 5.1-.6 16.7 0 33.5.1 50.3-.1 4.4-.1 6.9 1.3 8.7 5.3 2.4 5.1 5.4 9.9 8.2 15 14.3-22.7 28.7-28.5 53-22 4.7 1.3 6.7 3.1 6.6 8.2zm97.1-71.9c0 21.7-17.5 39.2-39.2 39.2h-.1c-3.1 0-6.3-.3-9.5-1.1-7-1.8-13-5.2-17.8-9.9a39.25 39.25 0 0 1-11.9-28.2c0-19.6 14.4-35.9 33.3-38.7.4-.2.9-.3 1.4-.4h8.5l.6.3c19.5 2.1 34.7 18.6 34.7 38.8zm-78.2 66h77.1V622h-77.1V404.9zm501 66.2c-2.6-19.4-10.2-37.3-25.1-51.1-18.1-16.8-40.5-20.3-63.9-19.2-45.6 2-72.8 22.3-84 63.1-9.1 33.1-9.1 66.7-.2 100 8.4 31.8 28.7 52.2 61.7 58.8 29.4 5.9 58.6 4.6 87.5-2.7 16.7-4.2 16.7-4.2 16.7-21.3v-39.9c-7.2 1.3-13.4 2.4-19.6 3.5-18.3 3-36.7 6.9-55.4 4-14.2-2.2-20.6-11.7-18.5-27.1h105.9c-1.6-23.6-2.1-46-5.1-68.1zm-102.3 25.4c1.1-12.1 1.9-23.8 3.4-35.4.4-3.3 2.3-6.8 4.5-9.3 7.1-8.2 20-6 22.2 4.5 2.7 12.9 3.1 26.4 4.6 40.2h-34.7zm-607.7-35.1v86.3c0 2.3 0 4.8.2 7.1 1.2 9.6 4.7 12.9 14.4 12.3 8.5-.5 16.8-1.8 26-2.8v55.2c-26.8 4.9-53.6 10.7-80.8 4-24.1-5.8-37.4-25.7-37.7-55.5-.4-35.2-.1-70.3-.1-105.5v-8.1h-28v-49.5h27.9c2.9-14.5 6-28.5 8.5-42.6.9-4.7 2.4-7.3 7.5-8.4 20.4-4.6 40.7-9.7 61.8-14.8v65.3h41.3c-3.5 17-6.8 33.1-10.2 49.7h-30.5c-.1 2.8-.3 5-.3 7.3zm-115.4 101c-4.1 39-26 59.5-65.4 63.1-25.5 2.3-50.3-1.1-74.7-8-2.1-.5-5.1-3.2-5.2-4.9-.4-17.1-.2-34.4-.2-52.2 12.5 2.6 24.2 5.6 36.1 7.4 7.4 1.2 15.1 1.5 22.4.4 3.8-.6 8.4-4.3 10.3-7.9 2.6-5 .2-10.5-4.6-13.5-6.4-4-13.3-7.1-19.9-10.6-7.6-4.1-15.7-7.8-22.7-12.7-13.9-9.8-22-23.6-24.3-40.6-.2-1.6-.9-3.1-1.3-4.7v-12.7c1.2-5.7 1.9-11.5 3.5-17.1 7.4-26.5 26.8-39.6 52.3-44.7 27.1-5.5 53.9-3.1 80.2 5.3 4.2 1.4 5.9 3.3 5.8 7.9-.3 16-.1 32-.1 47.8-13.4-2.5-26.3-5-39.3-7-5.3-.8-11.1-1.2-16.1.2-3.6 1-8.6 4.8-9.1 7.9-.6 3.7 1.9 9.5 5 11.9 5.7 4.4 12.8 6.8 19.2 10.3 8.3 4.4 17.1 8.2 24.6 13.7 20.8 14.9 26 36.7 23.5 60.7z"/></svg>