<svg xmlns="http://www.w3.org/2000/svg" viewBox="0 0 512.001 512.001" style="enable-background:new 0 0 512.001 512.001" xml:space="preserve"><path style="fill:#535353" d="M105.49 493.9c-24.135 24.135-63.258 24.135-87.393 0-24.126-24.135-24.126-63.258 0-87.384 24.135-24.135 63.258-24.135 87.393 0 24.135 24.125 24.135 63.249 0 87.384"/><path style="fill:#a4a4a4" d="M80.521 468.932c-10.346 10.346-27.11 10.346-37.455 0-10.337-10.346-10.337-27.11 0-37.455 10.346-10.337 27.11-10.337 37.455 0 10.346 10.345 10.346 27.109 0 37.455m112.357-87.389-62.42-62.42L280.262 169.31l62.429 62.42zM348.929 188.04l-24.964-24.964L430.858 56.173l24.964 24.974z"/><path style="fill:#535353" d="m474.55 99.872-62.42-62.42 24.965-24.964 62.419 62.419z"/><path style="fill:#a4a4a4" d="m487.034 62.42-37.455-37.456L474.552 0l37.446 37.455z"/><path style="fill:#535353" d="m373.897 262.945-124.84-124.84 24.965-24.973L398.861 237.98zM199.12 437.722 74.28 312.882l24.964-24.973 124.84 124.849z"/><path style="fill:#c6421e" d="M348.925 282.129c-11.785 0-22.863-4.599-31.206-12.941l-74.911-74.902c-10.319-10.328-27.118-10.328-37.447 0-3.443 3.443-9.031 3.443-12.482 0-3.443-3.452-3.443-9.039 0-12.482 8.351-8.351 19.421-12.941 31.206-12.941s22.863 4.59 31.214 12.941l74.902 74.902c10.328 10.337 27.127 10.319 37.455 0 3.452-3.452 9.039-3.452 12.482 0 3.452 3.452 3.452 9.039 0 12.482-8.341 8.342-19.42 12.941-31.213 12.941m-49.932 49.93c-11.785 0-22.863-4.599-31.206-12.941l-74.911-74.902c-10.328-10.337-27.136-10.319-37.455 0-3.443 3.443-9.031 3.443-12.482 0-3.443-3.452-3.443-9.039 0-12.482 8.351-8.351 19.421-12.941 31.214-12.941 11.785 0 22.863 4.59 31.214 12.941l74.902 74.902c10.328 10.328 27.118 10.328 37.447 0 3.452-3.452 9.039-3.452 12.482 0 3.452 3.452 3.452 9.039 0 12.482-8.341 8.342-19.42 12.941-31.205 12.941m-49.939 49.94c-11.785 0-22.863-4.599-31.206-12.941l-74.911-74.902c-10.328-10.337-27.136-10.319-37.455 0-3.443 3.443-9.031 3.443-12.482 0-3.443-3.452-3.443-9.039 0-12.482 8.351-8.351 19.421-12.941 31.206-12.941 11.794 0 22.872 4.59 31.223 12.941l74.902 74.902c10.337 10.337 27.136 10.319 37.455 0 3.452-3.452 9.039-3.452 12.482 0 3.452 3.452 3.452 9.039 0 12.482-8.342 8.342-19.421 12.941-31.214 12.941"/><path style="fill:#a4a4a4" d="M105.49 406.511c12.235 12.235 18.238 28.319 18.07 44.35l44.35-44.35-62.42-62.42-44.35 44.35c16.031-.168 32.115 5.835 44.35 18.07"/></svg>