<svg width="200" height="200" data-bbox="35.5 45 129.001 110" data-type="color" viewBox="35.5 45 129 110" xmlns="http://www.w3.org/2000/svg"><rect style="fill:none;stroke:#b70d0f;stroke-width:3.24792;stroke-linejoin:round;stroke-miterlimit:6.3;stroke-dasharray:none;stroke-opacity:1" width="125.752" height="125.752" x="37.124" y="37.124" ry="12.173"/><path d="M296.18 241.08 269.844 25.04h11.801c3.559 0 6.663-2.743 6.77-6.3a6.5 6.5 0 0 0-6.497-6.7h-39.556c-3.559 0-6.663 2.743-6.77 6.3a6.5 6.5 0 0 0 6.497 6.7h14.658l21.747 178.39c-.396.312-57.554 72.609-57.554 72.609H99.78l-3.034-12.987c-6.651-28.471-31.715-48.355-60.952-48.355H17.375c-3.559 0-6.663 2.743-6.77 6.3a6.5 6.5 0 0 0 6.497 6.7h18.691c23.043 0 43.05 15.872 48.292 38.311l2.343 10.032h-3.936c-3.285-20.793-22.065-36.504-44.105-34.885-20.369 1.496-36.823 17.987-38.276 38.359-1.729 24.246 17.508 44.527 41.393 44.527 20.672 0 37.858-15.194 40.987-35.001h142.36c1.512 0 2.94-.692 3.876-1.879l51.954-65.819 2.594 21.278c-18.321 5.2-31.527 22.688-30.077 42.956 1.46 20.391 17.927 36.875 38.317 38.352 24.266 1.758 44.575-17.489 44.575-41.389.002-22.349-17.758-40.618-39.904-41.46zM41.5 311.041c-15.716 0-28.501-12.785-28.501-28.501 0-15.715 12.785-28.5 28.501-28.5 13.478 0 24.793 9.408 27.743 22H41.5a6.5 6.5 0 1 0 0 13h27.743c-2.95 12.593-14.265 22.001-27.743 22.001zm253.08 0c-15.715 0-28.5-12.785-28.5-28.501 0-12.305 7.84-22.813 18.786-26.793l3.179 26.079a6.5 6.5 0 1 0 12.904-1.572l-3.173-26.03c14.215 1.595 25.304 13.683 25.304 28.316 0 15.716-12.785 28.501-28.5 28.501z" style="fill:#b70d0f;fill-opacity:1" transform="translate(48.763 48.764) scale(.3049)"/></svg>