<svg width="200" height="200" data-bbox="35.5 45 129.001 110" data-type="color" viewBox="35.5 45 129 110" xmlns="http://www.w3.org/2000/svg"><path d="M147.754 67.922a1.755 1.755 0 0 0-1.574.478l-9.053 9.045-5.637-1.509-1.51-5.633 9.053-9.045a1.746 1.746 0 0 0 .479-1.573 1.745 1.745 0 0 0-1.043-1.271 19.535 19.535 0 0 0-21.354 4.228c-5.928 5.922-7.248 14.73-3.967 21.94L101.4 94.93 89.505 84.47a12.82 12.82 0 0 0 2.334-5.817c.94-6.93 4.471-11.571 9.446-12.414 2.021-.343 3.576-2.104 3.62-4.191a4.22 4.22 0 0 0-3.541-4.237c-5.21-.829-15.493-.684-25.862 9.61l-11.475 11.39a4.177 4.177 0 0 0-1.242 2.97 4.175 4.175 0 0 0 1.223 2.978.718.718 0 0 1-.004 1.015l-.911.905a.717.717 0 0 1-1.016-.002 4.177 4.177 0 0 0-2.973-1.242h-.013a4.188 4.188 0 0 0-2.966 1.222l-5.002 4.965a5.534 5.534 0 0 0-.773 6.956 31.477 31.477 0 0 0 4.18 5.246 31.507 31.507 0 0 0 5.226 4.211 5.58 5.58 0 0 0 3.037.905 5.562 5.562 0 0 0 3.928-1.633l5.002-4.965a4.177 4.177 0 0 0 1.243-2.97 4.175 4.175 0 0 0-1.224-2.978.716.716 0 0 1 .004-1.014l.912-.906a.718.718 0 0 1 1.017.003 4.218 4.218 0 0 0 5.952.02l.199-.197 9.747 11.048-21.684 19.096a10.546 10.546 0 0 0-3.607 7.657 10.546 10.546 0 0 0 3.118 7.87 10.563 10.563 0 0 0 7.527 3.12 10.567 10.567 0 0 0 8.014-3.61l18.36-20.839 18.365 20.817a10.637 10.637 0 0 0 8.066 3.633c2.864 0 5.543-1.108 7.578-3.142a10.62 10.62 0 0 0 3.139-7.921 10.626 10.626 0 0 0-3.632-7.711l-21.703-19.088.037-.037 9.646-10.948a19.638 19.638 0 0 0 8.159 1.772c5.012 0 10.025-1.906 13.84-5.719a19.491 19.491 0 0 0 4.232-21.336 1.747 1.747 0 0 0-1.274-1.042zM76.15 92.019a4.22 4.22 0 0 0-5.952-.02l-.913.908a4.207 4.207 0 0 0-.018 5.947.71.71 0 0 1 .208.507.71.71 0 0 1-.211.506l-5.002 4.966a2.079 2.079 0 0 1-2.608.275 27.893 27.893 0 0 1-4.646-3.743 27.972 27.972 0 0 1-3.715-4.665 2.072 2.072 0 0 1 .291-2.604l5.002-4.965a.715.715 0 0 1 .507-.21h.002c.11 0 .324.03.507.213a4.214 4.214 0 0 0 5.953.018l.91-.905a4.177 4.177 0 0 0 1.243-2.97 4.175 4.175 0 0 0-1.223-2.978.71.71 0 0 1-.208-.508.71.71 0 0 1 .211-.506l11.475-11.392c9.276-9.206 18.3-9.366 22.852-8.637.356.056.61.358.6.811-.007.321-.346.67-.712.733-6.463 1.094-11.184 6.99-12.322 15.384-.273 2.015-1.195 3.89-2.595 5.28l-8.62 8.559a.718.718 0 0 1-1.016-.004zm4.173 45.158a7.102 7.102 0 0 1-5.156 2.424c-2.012.078-3.883-.68-5.298-2.095a7.099 7.099 0 0 1-2.097-5.294 7.103 7.103 0 0 1 2.426-5.151l21.682-19.098 7.094 8.042zm54.636-5.038a7.17 7.17 0 0 1-2.117 5.346c-1.43 1.429-3.331 2.2-5.35 2.116a7.177 7.177 0 0 1-5.207-2.448l-39.98-45.316 4.837-4.801 45.368 39.9a7.164 7.164 0 0 1 2.45 5.203zm-24.428-29.25c-.012.014-.02.03-.03.044l-6.458-5.68 10.876-9.578a19.55 19.55 0 0 0 2.197 2.625 19.64 19.64 0 0 0 2.594 2.173zm31.798-15.055c-6.27 6.265-16.475 6.265-22.745 0s-6.27-16.461 0-22.726a16.04 16.04 0 0 1 14.964-4.3l-7.748 7.741a1.741 1.741 0 0 0-.452 1.684l2.032 7.577a1.744 1.744 0 0 0 1.235 1.234l7.583 2.03a1.748 1.748 0 0 0 1.686-.452l7.747-7.74a16.002 16.002 0 0 1-4.302 14.952z" fill="#0da8e0" data-color="1" style="stroke-width:.783507;fill:#b70d0f;fill-opacity:1"/><rect style="fill:none;stroke:#b70d0f;stroke-width:3.24792;stroke-linejoin:round;stroke-miterlimit:6.3;stroke-dasharray:none;stroke-opacity:1" width="125.752" height="125.752" x="37.124" y="37.124" ry="12.173"/></svg>