<svg width="200" height="200" data-bbox="35.5 45 129.001 110" data-type="color" viewBox="35.5 45 129 110" xmlns="http://www.w3.org/2000/svg"><rect style="fill:none;stroke:#b70d0f;stroke-width:3.24792;stroke-linejoin:round;stroke-miterlimit:6.3;stroke-dasharray:none;stroke-opacity:1" width="125.752" height="125.752" x="37.124" y="37.124" ry="12.173"/><g style="fill:#b70d0f;fill-opacity:1"><path d="M4836 4964.9c-38.3-23.4-87.3-74.6-112.9-112.9-38.3-66-42.6-106.5-42.6-494.2 0-415.4 2.1-426.1 51.1-500.6 59.7-87.4 168.3-147 268.4-147 100.1 0 208.8 59.6 268.4 147 49 74.6 51.1 85.2 51.1 500.6 0 389.9-4.3 428.2-44.7 494.2-93.7 151.3-296.1 204.6-438.8 112.9zM1921.6 3684.6c-153.4-83.1-221.6-230.1-179-383.5 19.2-74.6 74.6-142.7 281.2-353.6 142.7-144.9 287.6-279.1 321.7-296.1 89.5-46.9 245-44.7 330.2 6.4 138.5 80.9 189.6 276.9 110.8 430.3-51.1 98-526.2 568.8-607.2 598.6-74.5 29.9-202.3 27.7-257.7-2.1zm5879.8-8.5c-91.6-46.9-539-494.2-588-588-78.8-151.3-27.7-349.4 108.7-430.3 83.1-46.9 245-51.1 332.3-6.4 34.1 17.1 179 151.3 321.7 296.1 206.7 210.9 262 279.1 281.2 353.6 42.6 155.5-27.7 306.8-183.2 385.6-66 34.1-198.1 29.9-272.7-10.6zm-3278.6-447.4c-598.6-108.7-1201.5-458-1597.8-924.6C2328.5 1599 2136.8 725.5 2369-248c106.5-441 281.2-779.7 681.7-1314.5 296.1-396.2 381.3-528.3 453.8-709.4l55.4-142.8 12.8-884.1c12.8-867 12.8-886.2 63.9-1011.9 68.2-176.8 262-370.7 432.5-432.4 117.2-44.8 155.5-46.9 931-46.9s813.8 2.1 931 46.9c170.4 61.7 364.3 255.6 432.5 432.4 49 125.7 51.1 149.1 63.9 1011.9 12.8 850 14.9 888.4 61.8 1018.3 57.5 153.4 196 372.8 428.2 675.3 441 573.1 630.6 958.7 749.9 1510.4 61.8 294 68.2 894.8 10.7 1163.2-115.1 539-357.9 994.9-735 1378.4-392 398.4-943.8 688.1-1482.7 784-234.6 40.5-707.5 38.4-937.6-2.1zm975.7-677.4c683.8-174.7 1246.3-694.5 1467.8-1357.1 85.2-253.5 108.7-451.6 93.8-803.1-23.4-600.8-151.3-922.5-617.8-1544.5-155.5-206.7-328.1-451.7-381.3-543.2-104.4-172.6-215.2-432.5-240.7-558.2-32-164 55.4-149.1-820.2-149.1h-788.2l-12.8 59.7c-85.2 387.7-221.6 639.1-675.3 1237.7-289.7 381.3-434.6 654-519.8 971.4-51.1 193.9-55.4 251.4-57.5 617.8-2.1 360 4.3 423.9 46.9 583.7C3215 1875.9 3886 2468.2 4736 2602.4c189.4 29.8 534.6 6.4 762.5-51.1zm264.2-6109.9c4.3-483.6 2.1-509.2-38.3-549.7-40.4-40.5-68.2-42.6-720.1-42.6-577.3 0-683.9 4.3-724.3 34.1-46.9 32-46.9 40.5-46.9 539 0 279.1 6.4 513.4 14.9 519.8 8.5 8.5 349.4 12.8 760.5 10.7l747.8-6.4zM718 723.4c-106.5-53.3-191.7-178.9-191.7-279.1 0-85.2 72.4-217.3 153.4-274.8 66-46.9 89.5-49 485.7-55.4 372.8-4.3 423.9-2.1 490 34.1 89.5 49 164 151.3 183.2 251.4 21.3 110.8-61.8 257.8-181.1 321.7-87.3 46.9-117.2 49-468.7 49-347.3 0-383.5-4.3-470.8-46.9zm7658.6 17c-210.9-93.7-274.8-349.4-125.7-507 112.9-117.2 142.7-123.6 564.6-123.6 345.1 0 398.4 4.3 477.2 42.6 95.9 46.9 181.1 170.4 181.1 264.2 0 127.8-112.9 283.3-240.7 330.2-89.5 34.1-777.6 29.9-856.5-6.4z" style="fill:#b70d0f;fill-opacity:1" transform="matrix(.00975 0 0 -.00975 51.233 101.073)"/><path d="M2494.7-1607.2c-36.2-17-215.2-183.2-396.2-366.4-311-313.2-334.5-340.8-347.3-432.5-21.3-149.1 42.6-283.3 164-338.7 104.4-46.8 193.9-53.3 276.9-14.9 87.3 38.3 688.1 619.9 728.6 705.1 46.9 98 42.6 242.9-8.5 326-80.9 132-279 191.7-417.5 121.4zm4716.6-8.6c-151.3-80.9-210.9-274.8-132.1-438.8 44.7-93.7 634.9-666.8 726.5-703 236.5-100.1 481.5 93.7 443.1 349.4-12.8 91.6-36.2 119.3-345.1 434.6-183.2 183.2-362.1 349.4-400.5 366.4-93.8 44.7-196 40.5-291.9-8.6z" style="fill:#b70d0f;fill-opacity:1" transform="matrix(.00975 0 0 -.00975 51.233 101.073)"/></g></svg>