<svg width="200" height="200" data-bbox="35.5 45 129.001 110" data-type="color" viewBox="35.5 45 129 110" xmlns="http://www.w3.org/2000/svg"><rect style="fill:none;stroke:#b70d0f;stroke-width:3.24792;stroke-linejoin:round;stroke-miterlimit:6.3;stroke-dasharray:none;stroke-opacity:1" width="125.752" height="125.752" x="37.124" y="37.124" ry="12.173"/><path d="M103.25 206.5a4.994 4.994 0 0 1-3.019-1.014l-53.662-40.644c-20.55-15.564-32.819-40.248-32.819-66.027V28.5a5 5 0 0 1 3.66-4.817l84.5-23.5a5.017 5.017 0 0 1 2.68 0l84.5 23.5a5 5 0 0 1 3.66 4.817v70.315c0 25.779-12.269 50.462-32.819 66.027l-53.662 40.644a4.994 4.994 0 0 1-3.019 1.014zM23.75 32.299v66.516c0 22.667 10.788 44.37 28.857 58.056l50.643 38.357 50.643-38.357c18.069-13.686 28.857-35.389 28.857-58.056V32.299l-79.5-22.109Zm69.331 94.83a5.004 5.004 0 0 1-3.536-1.464L52.957 89.076a5 5 0 1 1 7.071-7.071l33.053 33.053 53.39-53.39a5.001 5.001 0 0 1 7.071 7.071l-56.925 56.926a5.002 5.002 0 0 1-3.536 1.464z" style="fill:#b70d0f;fill-opacity:1" transform="translate(54.514 54.514) scale(.44054)"/></svg>