<svg width="32" height="32" fill="none" xmlns="http://www.w3.org/2000/svg">
  <path d="M12.831 30.63a.6.6 0 0 1-.6-.6c0-8.581-1.972-10.555-10.553-10.555a.6.6 0 1 1 0-1.199c8.58 0 10.553-1.973 10.553-10.554a.6.6 0 0 1 1.2 0c0 8.581 1.972 10.554 10.553 10.554a.6.6 0 0 1 0 1.2c-8.58 0-10.553 1.973-10.553 10.554a.6.6 0 0 1-.6.6ZM7.643 18.876a6.668 6.668 0 0 1 5.188 5.188 6.668 6.668 0 0 1 5.189-5.188 6.668 6.668 0 0 1-5.189-5.189 6.668 6.668 0 0 1-5.188 5.189ZM30.322 6.976c-4.363 0-5.246-.883-5.246-5.246a.6.6 0 0 0-1.199 0c0 4.364-.883 5.246-5.247 5.246a.6.6 0 1 0 0 1.2c4.364 0 5.247.882 5.247 5.246a.6.6 0 1 0 1.2 0c0-4.364.882-5.246 5.245-5.246a.6.6 0 0 0 0-1.2Z" fill="#fff"/>
</svg>
