<svg width="115" height="131" fill="none" xmlns="http://www.w3.org/2000/svg">
  <path opacity=".5" d="M108.776 113.099c3.409-7.809 4.953-16.994 5.334-24.913.769-15.952-.799-31.549-4.095-46.23-3.033-13.508-7.207-29.473-17.695-36.75-10.747-7.46-25.349-5.71-38.39-.299-11.056 4.585-21.487 12.02-31.235 20.42-5.817 5.012-11.517 10.495-15.85 17.255C1.98 50.172-1.127 59.87.755 68.166 3.718 81.212 15.484 86.052 25.564 89.83c11.582 4.342 21.763 11.036 30.448 20.341 5.85 6.269 11.518 13.231 18.855 17.353 4.596 2.582 9.97 3.914 15.484 2.731 8.903-1.911 14.749-8.734 18.426-17.157Z" fill="#6FDE9B"/>
</svg>
