<svg width="133" height="123" fill="none" xmlns="http://www.w3.org/2000/svg">
  <path opacity=".5" d="M130.537 106.309c2.526-7.297 2.737-15.898 1.856-23.32-1.772-14.953-6.102-29.59-12.215-43.382-5.625-12.69-12.933-27.692-25.872-34.596-13.26-7.075-29.314-5.545-43.018-.57C39.672 8.655 29.223 15.548 19.7 23.35c-5.684 4.657-11.159 9.755-14.892 16.061-4.192 7.08-6.068 16.151-2.591 23.944C7.686 75.612 21.653 80.24 33.559 83.86c13.68 4.159 26.18 10.513 37.438 19.305 7.581 5.923 15.075 12.493 23.968 16.415 5.57 2.455 11.805 3.746 17.781 2.678 9.649-1.724 15.066-8.079 17.791-15.949Z" fill="#6FDE9B"/>
</svg>
