<?xml version="1.0" encoding="UTF-8" standalone="no"?>
<svg
   width="90"
   height="90"
   fill="none"
   version="1.1"
   id="svg11"
   sodipodi:docname="icon1.svg"
   inkscape:version="1.1 (c68e22c387, 2021-05-23)"
   xmlns:inkscape="http://www.inkscape.org/namespaces/inkscape"
   xmlns:sodipodi="http://sodipodi.sourceforge.net/DTD/sodipodi-0.dtd"
   xmlns="http://www.w3.org/2000/svg"
   xmlns:svg="http://www.w3.org/2000/svg">
  <defs
     id="defs15" />
  <sodipodi:namedview
     id="namedview13"
     pagecolor="#ffffff"
     bordercolor="#666666"
     borderopacity="1.0"
     inkscape:pageshadow="2"
     inkscape:pageopacity="0.0"
     inkscape:pagecheckerboard="0"
     showgrid="false"
     inkscape:zoom="6.5149254"
     inkscape:cx="40.829324"
     inkscape:cy="83.57732"
     inkscape:window-width="2560"
     inkscape:window-height="1411"
     inkscape:window-x="7191"
     inkscape:window-y="-9"
     inkscape:window-maximized="1"
     inkscape:current-layer="svg11" />
  <mask
     id="a"
     maskUnits="userSpaceOnUse"
     x="-.072"
     y=".233"
     width="71"
     height="66"
     fill="#000000">
    <path
       fill="#ffffff"
       d="m -0.072,0.233 h 71 v 66 h -71 z"
       id="path2" />
    <path
       d="m 67.94,37.168 a 9.9,9.9 0 0 0 2.132,-6.28 8.861,8.861 0 0 0 -8.756,-8.76 h -9.992 c 0.071,-0.15 0.16,-0.308 0.262,-0.49 0.21,-0.36 0.348,-0.615 0.425,-0.766 0.499,-0.943 0.887,-1.734 1.155,-2.35 0.339,-0.837 0.614,-1.7 0.822,-2.578 0.274,-1.088 0.413,-2.205 0.416,-3.327 0,-0.616 0,-1.176 -0.021,-1.62 A 18.22,18.22 0 0 0 54.167,9.051 11.259,11.259 0 0 0 53.631,6.824 10.474,10.474 0 0 0 52.556,4.804 6.647,6.647 0 0 0 50.668,2.875 9.89,9.89 0 0 0 47.964,1.7 13.14,13.14 0 0 0 44.342,1.235 a 3.404,3.404 0 0 0 -2.489,1.047 8.053,8.053 0 0 0 -1.574,2.3 12.94,12.94 0 0 0 -0.853,2.29 c -0.154,0.615 -0.33,1.471 -0.52,2.537 -0.25,1.164 -0.428,1.956 -0.542,2.427 a 12.517,12.517 0 0 1 -0.666,1.83 5.367,5.367 0 0 1 -1.078,1.663 59.85,59.85 0 0 0 -4.2,4.986 74.973,74.973 0 0 1 -4.073,4.88 c -1.848,2.023 -2.464,2.106 -2.491,2.109 a 3.592,3.592 0 0 0 -2.344,1.112 3.388,3.388 0 0 0 -0.995,2.42 v 26.16 a 3.35,3.35 0 0 0 1.053,2.463 3.622,3.622 0 0 0 2.464,1.06 c 0.589,0 2.135,0.332 6.179,1.746 2.156,0.73 3.779,1.26 4.928,1.62 1.149,0.36 2.904,0.78 5.051,1.207 1.993,0.413 4.02,0.63 6.055,0.65 h 5.28 c 3.88,-0.058 6.819,-1.232 8.731,-3.51 1.657,-1.972 2.409,-4.538 2.242,-7.627 a 8.895,8.895 0 0 0 2.156,-3.945 9.406,9.406 0 0 0 0.12,-4.84 9.378,9.378 0 0 0 1.67,-5.79 9.936,9.936 0 0 0 -0.505,-2.86 z m -1.733,-0.807 a 0.923,0.923 0 0 0 -0.179,0.906 c 0.338,0.897 0.527,1.844 0.56,2.802 v 0.04 a 7.497,7.497 0 0 1 -1.567,4.996 0.924,0.924 0 0 0 -0.148,0.826 7.521,7.521 0 0 1 0,4.272 7.084,7.084 0 0 1 -1.943,3.388 0.925,0.925 0 0 0 -0.287,0.742 c 0.225,2.821 -0.357,5.02 -1.786,6.718 -1.54,1.847 -4.026,2.805 -7.334,2.855 H 48.25 A 29.42,29.42 0 0 1 42.555,63.29 c -2.082,-0.413 -3.72,-0.804 -4.866,-1.158 a 238.699,238.699 0 0 1 -4.885,-1.59 c -4.62,-1.617 -6.049,-1.83 -6.717,-1.848 A 1.759,1.759 0 0 1 24.855,58.158 1.518,1.518 0 0 1 24.359,57.007 V 30.848 A 1.539,1.539 0 0 1 24.83,29.715 1.768,1.768 0 0 1 26,29.157 c 0.924,-0.08 2.07,-0.924 3.696,-2.707 a 76.555,76.555 0 0 0 4.168,-4.993 59.026,59.026 0 0 1 4.047,-4.81 7.21,7.21 0 0 0 1.478,-2.243 c 0.312,-0.688 0.567,-1.4 0.764,-2.128 0.12,-0.493 0.308,-1.288 0.558,-2.495 a 0.132,0.132 0 0 1 0,-0.031 c 0.181,-1.032 0.35,-1.848 0.495,-2.427 0.185,-0.673 0.432,-1.328 0.736,-1.956 a 6.188,6.188 0 0 1 1.205,-1.777 1.585,1.585 0 0 1 1.183,-0.505 11.397,11.397 0 0 1 3.113,0.391 8.044,8.044 0 0 1 2.193,0.946 4.755,4.755 0 0 1 1.37,1.389 8.62,8.62 0 0 1 0.894,1.65 c 0.208,0.6 0.355,1.22 0.44,1.849 0.094,0.573 0.159,1.15 0.195,1.73 0,0.423 0.021,0.95 0.021,1.562 0.002,0.97 -0.115,1.938 -0.348,2.88 -0.187,0.788 -0.434,1.56 -0.74,2.31 -0.246,0.57 -0.615,1.318 -1.102,2.24 -0.068,0.135 -0.194,0.366 -0.379,0.68 -0.194,0.328 -0.364,0.67 -0.508,1.022 -0.12,0.308 -0.24,0.66 -0.357,1.066 a 0.923,0.923 0 0 0 0.89,1.18 h 11.304 a 7.016,7.016 0 0 1 6.908,6.908 7.977,7.977 0 0 1 -2.017,5.473 z M 9.69,48.247 a 3.388,3.388 0 0 0 -2.52,1.056 3.536,3.536 0 0 0 5,5 3.547,3.547 0 0 0 -2.483,-6.056 z m 1.192,4.73 a 1.715,1.715 0 0 1 -2.397,0 1.598,1.598 0 0 1 -0.474,-1.194 1.62,1.62 0 0 1 0.493,-1.192 1.564,1.564 0 0 1 1.195,-0.496 1.725,1.725 0 0 1 1.688,1.688 1.564,1.564 0 0 1 -0.508,1.195 h 0.003 z M 16.216,27.34 H 4.464 a 3.404,3.404 0 0 0 -2.489,1.047 3.403,3.403 0 0 0 -1.047,2.489 v 26.118 a 3.416,3.416 0 0 0 1.047,2.492 3.415,3.415 0 0 0 2.489,1.044 h 11.753 a 3.57,3.57 0 0 0 3.536,-3.536 V 30.876 A 3.576,3.576 0 0 0 16.217,27.34 Z m 1.688,29.654 a 1.725,1.725 0 0 1 -1.688,1.688 H 4.464 A 1.722,1.722 0 0 1 2.776,57.007 V 30.888 a 1.725,1.725 0 0 1 1.688,-1.7 h 11.753 a 1.725,1.725 0 0 1 1.688,1.688 v 26.118 z"
       id="path4" />
  </mask>
  <g
     id="g864"
     transform="translate(9.4995754,11.511055)">
    <path
       style="color:#000000;fill:#1c1b1f;-inkscape-stroke:none"
       d="m 67.94,37.168 a 9.9,9.9 0 0 0 2.132,-6.28 8.861,8.861 0 0 0 -8.756,-8.76 h -9.992 c 0.071,-0.15 0.16,-0.308 0.262,-0.49 0.21,-0.36 0.348,-0.615 0.425,-0.766 0.499,-0.943 0.887,-1.734 1.155,-2.35 0.339,-0.837 0.614,-1.7 0.822,-2.578 0.274,-1.088 0.413,-2.205 0.416,-3.327 0,-0.616 0,-1.176 -0.021,-1.62 A 18.22,18.22 0 0 0 54.167,9.051 11.259,11.259 0 0 0 53.631,6.824 10.474,10.474 0 0 0 52.556,4.804 6.647,6.647 0 0 0 50.668,2.875 9.89,9.89 0 0 0 47.964,1.7 13.14,13.14 0 0 0 44.342,1.235 a 3.404,3.404 0 0 0 -2.489,1.047 8.053,8.053 0 0 0 -1.574,2.3 12.94,12.94 0 0 0 -0.853,2.29 c -0.154,0.615 -0.33,1.471 -0.52,2.537 -0.25,1.164 -0.428,1.956 -0.542,2.427 a 12.517,12.517 0 0 1 -0.666,1.83 5.367,5.367 0 0 1 -1.078,1.663 59.85,59.85 0 0 0 -4.2,4.986 74.973,74.973 0 0 1 -4.073,4.88 c -1.848,2.023 -2.464,2.106 -2.491,2.109 a 3.592,3.592 0 0 0 -2.344,1.112 3.388,3.388 0 0 0 -0.995,2.42 v 26.16 a 3.35,3.35 0 0 0 1.053,2.463 3.622,3.622 0 0 0 2.464,1.06 c 0.589,0 2.135,0.332 6.179,1.746 2.156,0.73 3.779,1.26 4.928,1.62 1.149,0.36 2.904,0.78 5.051,1.207 1.993,0.413 4.02,0.63 6.055,0.65 h 5.28 c 3.88,-0.058 6.819,-1.232 8.731,-3.51 1.657,-1.972 2.409,-4.538 2.242,-7.627 a 8.895,8.895 0 0 0 2.156,-3.945 9.406,9.406 0 0 0 0.12,-4.84 9.378,9.378 0 0 0 1.67,-5.79 9.936,9.936 0 0 0 -0.505,-2.86 z m -1.733,-0.807 a 0.923,0.923 0 0 0 -0.179,0.906 c 0.338,0.897 0.527,1.844 0.56,2.802 v 0.04 a 7.497,7.497 0 0 1 -1.567,4.996 0.924,0.924 0 0 0 -0.148,0.826 7.521,7.521 0 0 1 0,4.272 7.084,7.084 0 0 1 -1.943,3.388 0.925,0.925 0 0 0 -0.287,0.742 c 0.225,2.821 -0.357,5.02 -1.786,6.718 -1.54,1.847 -4.026,2.805 -7.334,2.855 H 48.25 A 29.42,29.42 0 0 1 42.555,63.29 c -2.082,-0.413 -3.72,-0.804 -4.866,-1.158 a 238.699,238.699 0 0 1 -4.885,-1.59 c -4.62,-1.617 -6.049,-1.83 -6.717,-1.848 A 1.759,1.759 0 0 1 24.855,58.158 1.518,1.518 0 0 1 24.359,57.007 V 30.848 A 1.539,1.539 0 0 1 24.83,29.715 1.768,1.768 0 0 1 26,29.157 c 0.924,-0.08 2.07,-0.924 3.696,-2.707 a 76.555,76.555 0 0 0 4.168,-4.993 59.026,59.026 0 0 1 4.047,-4.81 7.21,7.21 0 0 0 1.478,-2.243 c 0.312,-0.688 0.567,-1.4 0.764,-2.128 0.12,-0.493 0.308,-1.288 0.558,-2.495 a 0.132,0.132 0 0 1 0,-0.031 c 0.181,-1.032 0.35,-1.848 0.495,-2.427 0.185,-0.673 0.432,-1.328 0.736,-1.956 a 6.188,6.188 0 0 1 1.205,-1.777 1.585,1.585 0 0 1 1.183,-0.505 11.397,11.397 0 0 1 3.113,0.391 8.044,8.044 0 0 1 2.193,0.946 4.755,4.755 0 0 1 1.37,1.389 8.62,8.62 0 0 1 0.894,1.65 c 0.208,0.6 0.355,1.22 0.44,1.849 0.094,0.573 0.159,1.15 0.195,1.73 0,0.423 0.021,0.95 0.021,1.562 0.002,0.97 -0.115,1.938 -0.348,2.88 -0.187,0.788 -0.434,1.56 -0.74,2.31 -0.246,0.57 -0.615,1.318 -1.102,2.24 -0.068,0.135 -0.194,0.366 -0.379,0.68 -0.194,0.328 -0.364,0.67 -0.508,1.022 -0.12,0.308 -0.24,0.66 -0.357,1.066 a 0.923,0.923 0 0 0 0.89,1.18 h 11.304 a 7.016,7.016 0 0 1 6.908,6.908 7.977,7.977 0 0 1 -2.017,5.473 z M 9.69,48.247 a 3.388,3.388 0 0 0 -2.52,1.056 3.536,3.536 0 0 0 5,5 3.547,3.547 0 0 0 -2.483,-6.056 z m 1.192,4.73 a 1.715,1.715 0 0 1 -2.397,0 1.598,1.598 0 0 1 -0.474,-1.194 1.62,1.62 0 0 1 0.493,-1.192 1.564,1.564 0 0 1 1.195,-0.496 1.725,1.725 0 0 1 1.688,1.688 1.564,1.564 0 0 1 -0.508,1.195 h 0.003 z M 16.216,27.34 H 4.464 a 3.404,3.404 0 0 0 -2.489,1.047 3.403,3.403 0 0 0 -1.047,2.489 v 26.118 a 3.416,3.416 0 0 0 1.047,2.492 3.415,3.415 0 0 0 2.489,1.044 h 11.753 a 3.57,3.57 0 0 0 3.536,-3.536 V 30.876 A 3.576,3.576 0 0 0 16.217,27.34 Z m 1.688,29.654 a 1.725,1.725 0 0 1 -1.688,1.688 H 4.464 A 1.722,1.722 0 0 1 2.776,57.007 V 30.888 a 1.725,1.725 0 0 1 1.688,-1.7 h 11.753 a 1.725,1.725 0 0 1 1.688,1.688 v 26.118 z"
       id="path7" />
    <path
       style="color:#000000;fill:#1c1b1f;-inkscape-stroke:none"
       d="m 44.341797,0.93554688 c -1.018771,-0.008767 -1.997156,0.40211272 -2.703125,1.13671872 -0.677074,0.6926025 -1.227729,1.4973651 -1.628906,2.3789063 -0.364187,0.7517488 -0.656687,1.5369372 -0.873047,2.34375 l -0.002,0.00195 v 0.00195 c -0.156851,0.626383 -0.33269,1.4864474 -0.523438,2.5566407 -0.247149,1.1504334 -0.424788,1.9358774 -0.537109,2.4003904 -0.169965,0.611358 -0.385702,1.207562 -0.648438,1.785157 l -0.0039,0.0059 -0.002,0.0059 c -0.238843,0.581991 -0.583807,1.11468 -1.017578,1.570313 -1.49701,1.592401 -2.907724,3.265943 -4.222657,5.011719 -1.282113,1.675602 -2.635336,3.296363 -4.054687,4.857421 -0.914182,1.000753 -1.516353,1.513749 -1.878906,1.769532 -0.362553,0.255782 -0.463255,0.248521 -0.423828,0.24414 -0.959772,0.07363 -1.857934,0.499807 -2.521485,1.197266 -10e-4,0.001 -9.12e-4,0.0029 -0.002,0.0039 -0.697179,0.69725 -1.088312,1.644748 -1.082031,2.63086 v 26.15625 0.002 c -0.0068,1.01375 0.410779,1.984262 1.148437,2.679687 3.97e-4,3.74e-4 -3.96e-4,0.0016 0,0.002 0.708901,0.705576 1.660083,1.113668 2.660157,1.140625 h 0.0039 0.0039 c 0.476266,0 2.044758,0.319504 6.080078,1.730469 h 0.002 0.002 c 2.157538,0.730521 3.781345,1.262029 4.933594,1.623047 1.168218,0.366021 2.927912,0.786765 5.080078,1.214844 2.012129,0.416964 4.058918,0.634106 6.113282,0.654297 l 0.002,0.002 h 5.283203 l 0.002,-0.002 c 3.938227,-0.05887 6.980339,-1.260159 8.957031,-3.615235 1.68488,-2.005179 2.436428,-4.62277 2.296875,-7.707031 1.036124,-1.127419 1.784997,-2.488464 2.158203,-3.974609 v -0.002 c 0.464718,-1.586912 0.502572,-3.263741 0.136719,-4.875 1.162226,-1.722909 1.761006,-3.767242 1.666016,-5.845703 v -0.002 c -0.02701,-0.954395 -0.205203,-1.89516 -0.494141,-2.804687 1.39037,-1.817177 2.151398,-4.039175 2.119141,-6.330078 -0.05635,-4.973354 -4.077454,-8.998024 -9.050782,-9.056641 h -0.002 -9.49414 c 0.0083,-0.01479 0.01297,-0.02388 0.02148,-0.03906 l 0.002,-0.0039 c 0.209472,-0.359271 0.347146,-0.615557 0.427735,-0.773437 l 0.002,-0.0039 c 0.500174,-0.945408 0.891736,-1.739291 1.164062,-2.365234 l 0.002,-0.0039 v -0.0039 c 0.344277,-0.850028 0.624532,-1.72563 0.835938,-2.617188 v -0.0039 c 0.279378,-1.110662 0.420767,-2.251538 0.423828,-3.396484 0,-0.616 0.002,-1.178876 -0.01953,-1.634766 l -0.002,-0.002 c -0.03758,-0.65956 -0.109188,-1.3170845 -0.216882,-1.9688082 l -0.002,-0.00586 C 54.357529,8.2291257 54.174057,7.4640931 53.914062,6.7246094 l -0.002,-0.00586 -0.002,-0.00586 C 53.619632,5.9846781 53.249787,5.2906664 52.808594,4.6425781 52.295663,3.8426837 51.624629,3.1569474 50.835937,2.6269531 l -0.0039,-0.00391 -0.0039,-0.00195 C 49.965665,2.0809339 49.02628,1.6722552 48.042969,1.4101562 h -0.002 C 46.837363,1.0809918 45.593456,0.92164297 44.345703,0.93554688 Z m -0.002,0.59960932 h 0.002 0.0039 c 1.195167,-0.01401 2.386194,0.1396221 3.539063,0.4550782 h 0.002 c 0.924596,0.2462738 1.806051,0.6292193 2.617187,1.1367187 0.71858,0.4837969 1.331198,1.1105932 1.798828,1.8398438 l 0.0039,0.00195 0.002,0.00391 c 0.417861,0.6127432 0.765897,1.2702472 1.041015,1.9589844 5.42e-4,0.00136 0.0014,0.00255 0.002,0.00391 0.244987,0.6993143 0.418367,1.4219153 0.517579,2.15625 l 0.002,0.00391 v 0.00391 c 0.105067,0.6337166 0.176431,1.2727307 0.21289,1.9140627 0.02036,0.431888 0.01953,0.988265 0.01953,1.603516 -0.0031,1.097099 -0.138416,2.190389 -0.40625,3.253906 v 0.002 l -0.002,0.002 c -0.203874,0.860584 -0.472816,1.706856 -0.804687,2.527344 -0.263222,0.605019 -0.647901,1.391555 -1.144531,2.330078 l -0.002,0.002 v 0.002 c -0.0732,0.143539 -0.210215,0.393849 -0.417969,0.75 v 0.002 l -0.002,0.0039 C 51.222403,21.673859 51.130358,21.836006 51.052734,22 l -0.203125,0.427734 h 10.466797 c 4.652149,0.05695 8.402366,3.810204 8.455078,8.462891 v 0.002 c 0.0315,2.207273 -0.697598,4.357963 -2.066406,6.089844 l -0.119141,0.148437 0.07227,0.144532 c 0.296227,0.892679 0.461855,1.823461 0.488281,2.763671 v 0.002 0.002 c 0.09241,1.995272 -0.476387,3.965888 -1.617187,5.605468 l -0.07617,0.111329 0.03125,0.130859 c 0.370796,1.54527 0.32973,3.160551 -0.117188,4.685547 v 0.0059 l -0.002,0.0059 c -0.356573,1.428083 -1.074601,2.739234 -2.083984,3.810546 l -0.08789,0.09375 0.0078,0.128907 c 0.163895,3.031578 -0.570528,5.509876 -2.173828,7.417968 -1.846604,2.200086 -4.68043,3.344412 -8.5,3.402344 H 48.25 48.246094 C 46.23177,65.421358 44.22455,65.2076 42.251953,64.798828 l -0.002,-0.002 C 40.109239,64.371116 38.359824,63.953454 37.230469,63.599609 36.085676,63.240927 34.464273,62.710958 32.3125,61.982422 l -0.0039,-0.002 C 28.26191,60.565776 26.734474,60.21875 26.033203,60.21875 h 0.0098 c -0.85006,-0.02291 -1.660525,-0.371248 -2.261719,-0.972656 l -0.002,-0.002 -0.0039,-0.0039 C 23.15778,58.658505 22.810223,57.846466 22.816406,56.998047 v -26.16211 -0.002 c -0.0053,-0.827136 0.322648,-1.620863 0.908203,-2.205078 l 0.002,-0.0039 0.0039,-0.002 c 0.564163,-0.595538 1.330318,-0.959311 2.148437,-1.019531 h 0.0039 l 0.0059,-0.002 c 0.06643,-0.0074 0.288928,-0.05739 0.703125,-0.349609 0.414196,-0.292217 1.042746,-0.833223 1.976562,-1.855469 1.431749,-1.57463 2.796622,-3.208188 4.089844,-4.898437 v -0.002 h 0.002 c 1.301816,-1.728362 2.695658,-3.384421 4.177735,-4.960938 0.485132,-0.509581 0.869596,-1.104958 1.136718,-1.755859 0.273347,-0.602464 0.500526,-1.225869 0.677735,-1.863281 l 0.002,-0.0039 0.002,-0.0059 c 0.115292,-0.476339 0.292697,-1.268327 0.542969,-2.4335937 l 0.002,-0.00586 v -0.00586 c 0.188941,-1.0600601 0.362692,-1.9082821 0.513672,-2.5117188 l 0.002,-0.00391 c 0.206442,-0.7687717 0.48498,-1.5160458 0.832031,-2.2324219 l 0.002,-0.00391 0.002,-0.00391 C 40.925726,3.8842818 41.438785,3.1363853 42.068762,2.49196 V 2.49001 h 0.002 C 42.66298,1.8726018 43.48389,1.5268875 44.339844,1.5351562 Z m -0.0078,1.2500001 c -0.531316,-0.0071 -1.039946,0.2110016 -1.402344,0.5996093 -0.52307,0.5398899 -0.949337,1.1660748 -1.257812,1.8515625 -6.31e-4,0.0013 -0.0013,0.0026 -0.002,0.00391 -5.96e-4,0.00133 -0.0014,0.00258 -0.002,0.00391 -0.310143,0.6418871 -0.56282,1.3119623 -0.751953,2 v 0.00195 l -0.002,0.00391 c -0.147791,0.590146 -0.316206,1.4104733 -0.498046,2.4472656 l -0.002,0.00977 -0.002,0.00781 c -0.0012,0.010369 4.72e-4,0.020834 0,0.03125 -0.245434,1.1827003 -0.432503,1.9730593 -0.550781,2.4589843 -0.192543,0.709903 -0.441959,1.403564 -0.746094,2.074219 l -0.002,0.0059 -0.002,0.0039 C 38.777988,15.088027 38.297972,15.816 37.695312,16.4375 l -0.002,0.002 -0.002,0.002 c -1.440761,1.538089 -2.797383,3.1514 -4.066406,4.833985 -1.312808,1.715874 -2.696673,3.374408 -4.150391,4.972656 -1.610469,1.76597 -2.735412,2.543177 -3.5,2.609375 h 0.0039 c -0.520151,0.0363 -1.004678,0.27024 -1.361329,0.65039 -0.362111,0.353063 -0.566716,0.839707 -0.558593,1.345704 v 26.148437 c -0.0097,0.520384 0.206891,1.017086 0.589843,1.369141 0.377998,0.386813 0.89256,0.613033 1.433594,0.623047 0.616335,0.01679 2.016029,0.217621 6.623047,1.830078 l 0.002,0.002 h 0.002 c 1.624621,0.548195 3.254584,1.078691 4.890625,1.591797 1.163062,0.35927 2.807666,0.752001 4.894532,1.166015 1.892882,0.39407 3.818588,0.601297 5.751953,0.621094 h 0.002 5.277344 0.002 c 3.362426,-0.05082 5.949453,-1.032527 7.558593,-2.960937 1.484952,-1.764484 2.08424,-4.060417 1.855469,-6.933594 v -0.002 c -0.01359,-0.187347 0.05875,-0.370927 0.195313,-0.5 l 0.002,-0.002 c 0.990551,-0.962071 1.689777,-2.183133 2.021484,-3.523438 0.427726,-1.448017 0.428834,-2.989724 0,-4.4375 v -0.002 c -0.05799,-0.191491 -0.02126,-0.397197 0.09961,-0.556641 1.148913,-1.479403 1.725792,-3.322774 1.626953,-5.193359 l 0.002,0.01563 v -0.04492 -0.0059 c -0.03412,-0.990588 -0.230524,-1.968821 -0.580078,-2.896485 l 0.0039,0.0078 c -0.07209,-0.211241 -0.02591,-0.443374 0.121094,-0.611328 1.387827,-1.560044 2.13359,-3.588207 2.089843,-5.675782 -0.06035,-3.9498 -3.253324,-7.142778 -7.203125,-7.203125 h -0.002 -11.30664 c -0.423942,0.0016 -0.719609,-0.389697 -0.601563,-0.796875 0.11421,-0.396316 0.229667,-0.736993 0.345703,-1.035156 l 0.002,-0.0039 c 0.138103,-0.337023 0.302448,-0.664322 0.488282,-0.978516 0.185779,-0.315322 0.311327,-0.547909 0.384765,-0.693359 l 0.0039,-0.0059 c 0.487063,-0.922392 0.858659,-1.674933 1.109375,-2.25586 v -0.002 l 0.002,-0.002 C 52.057495,17.143012 52.309564,16.356345 52.5,15.554688 v -0.0039 c 0.23826,-0.964587 0.357517,-1.955981 0.355469,-2.949218 0,-0.618863 -0.01953,-1.14943 -0.01953,-1.5625 v -0.0078 l -0.002,-0.0098 C 52.797524,10.434065 52.731674,9.8499574 52.636719,9.2695313 52.549075,8.6209696 52.398215,7.9823805 52.183594,7.3632812 l -0.002,-0.00781 -0.0039,-0.00781 C 51.932971,6.7478954 51.622398,6.1772829 51.253906,5.6445312 50.876093,5.0589665 50.3835,4.5570982 49.802734,4.171875 l -0.0039,-0.00195 -0.0039,-0.00195 C 49.090225,3.7298208 48.323717,3.3976411 47.521484,3.1855469 h -0.002 C 46.481238,2.9061518 45.40911,2.7717502 44.333984,2.7851563 Z m -0.0059,0.5996093 h 0.0039 0.0039 c 1.023072,-0.013438 2.043281,0.1148297 3.03125,0.3808594 h 0.002 c 0.743723,0.1964534 1.453948,0.5043692 2.107422,0.9101562 0.511196,0.340001 0.946994,0.7805944 1.279297,1.296875 l 0.002,0.00586 0.0039,0.00391 c 0.343067,0.4954734 0.631083,1.0262646 0.859375,1.5839843 0.199984,0.5785298 0.341832,1.1764318 0.423828,1.7832032 v 0.00391 l 0.002,0.00586 c 0.09141,0.5572288 0.153857,1.1176053 0.189453,1.6816413 5.2e-5,0.432614 0.02148,0.956166 0.02148,1.560547 v 0.002 c 0.002,0.945464 -0.112725,1.88842 -0.339843,2.80664 v 0.002 c -0.183461,0.773085 -0.426434,1.530015 -0.726563,2.265625 l 0.0039,-0.0039 c -0.240587,0.557459 -0.606864,1.300664 -1.091797,2.21875 l -0.002,0.002 -0.002,0.002 c -0.06287,0.124822 -0.186564,0.354177 -0.36914,0.664063 -0.201053,0.340091 -0.378019,0.695531 -0.527344,1.060547 v 0.002 l -0.002,0.002 c -0.123509,0.317005 -0.245897,0.677685 -0.365235,1.091797 -0.224916,0.775806 0.370329,1.5643 1.177735,1.5625 h 11.298828 c 3.632058,0.05549 6.557789,2.981223 6.613281,6.613281 v 0.002 c 0.04107,1.937905 -0.652585,3.819787 -1.941406,5.267578 l -0.002,0.002 c -0.287641,0.328633 -0.377378,0.78589 -0.236328,1.199219 l 0.002,0.0059 0.002,0.0039 c 0.325267,0.863209 0.506217,1.775271 0.539062,2.697265 v 0.04687 l 0.002,0.0078 c 0.09128,1.727599 -0.444265,3.430877 -1.505859,4.796875 l -0.002,0.002 c -0.236169,0.311541 -0.307975,0.717526 -0.195313,1.091797 0.396461,1.338481 0.396461,2.763082 0,4.101562 l -0.002,0.0078 -0.002,0.0059 C 64.278064,51.365375 63.632725,52.4892 62.720703,53.375 l 0.0039,-0.002 c -0.26812,0.253406 -0.408674,0.61455 -0.380859,0.982422 v 0.002 c 0.220758,2.767809 -0.344122,4.868928 -1.716797,6.5 v 0.002 c -1.46999,1.763033 -3.854507,2.695777 -7.103516,2.746094 H 48.253906 48.25 c -1.893028,-0.01964 -3.781368,-0.223526 -5.634766,-0.609375 h -0.002 C 40.538067,62.58444 38.907746,62.194195 37.779297,61.845703 h -0.002 c -1.63134,-0.511644 -3.256998,-1.04127 -4.876953,-1.587891 l 0.002,0.002 c -4.630448,-1.620657 -6.086455,-1.845829 -6.806641,-1.865235 h -0.002 -0.002 c -0.386149,-0.0071 -0.753023,-0.167661 -1.021485,-0.445312 l -0.0059,-0.0059 -0.0078,-0.0078 c -0.25961,-0.23627 -0.40499,-0.572862 -0.398438,-0.923828 v -0.002 -26.164063 -0.002 C 24.65258,30.500066 24.791461,30.17 25.038939,29.931565 l 0.0039,-0.0059 0.0059,-0.0059 c 0.253551,-0.271927 0.601763,-0.437005 0.972656,-0.462891 h 0.002 l 0.002,-0.002 c 1.08341,-0.0938 2.251051,-1.002708 3.892578,-2.802734 1.465155,-1.610824 2.860456,-3.284297 4.183593,-5.013672 h 0.002 v -0.002 c 1.255083,-1.664102 2.598646,-3.259925 4.023437,-4.78125 l 0.0039,-0.0039 c 0.651176,-0.67251 1.169806,-1.460724 1.53125,-2.324218 l 0.002,-0.0039 c 0.317943,-0.701678 0.578508,-1.427917 0.779297,-2.169922 v -0.002 l 0.002,-0.0039 c 0.120499,-0.495049 0.307843,-1.29523 0.558594,-2.5058591 l 0.0098,-0.046875 -0.002,-0.021484 C 41.18952,8.7636553 41.355741,7.9571508 41.496219,7.3962068 v 0.00586 c 0.180097,-0.6551633 0.420674,-1.29257 0.716797,-1.9042968 l 0.002,-0.00391 V 5.48995 c 0.280749,-0.6261228 0.670637,-1.1989055 1.148437,-1.6914063 l 0.002,-0.00195 0.002,-0.00195 c 0.24757,-0.2660052 0.595636,-0.4153723 0.958985,-0.4101563 z M 4.4648437,27.039062 C 3.4468405,27.029765 2.4698572,27.4427 1.7636719,28.175781 1.0299951,28.882361 0.61893543,29.86015 0.62890625,30.878906 v 26.115235 c -0.00865,1.019085 0.40162365,1.995382 1.13476565,2.703125 0.7074575,0.731245 1.68365,1.141545 2.7011718,1.132812 h 11.7539063 0.002 c 2.105302,-0.01996 3.812075,-1.728683 3.832031,-3.833984 V 30.875 30.873 c -0.0234,-2.103611 -1.72842,-3.810583 -3.832031,-3.833985 h -0.002 -0.002 -11.7500001 z m -0.00391,0.601563 h 0.00195 11.7539063 c 1.782239,0.02194 3.216496,1.455522 3.236328,3.238281 v 26.115235 c -0.01902,1.783227 -1.454535,3.219419 -3.238281,3.236328 H 4.4628906 4.4609375 c -0.8555752,0.0078 -1.6755249,-0.337312 -2.2695312,-0.953125 l -0.00391,-0.0039 -0.00391,-0.0039 C 1.5661524,58.675257 1.2207913,57.853028 1.2285156,56.996094 V 30.875 30.873 c -0.00838,-0.855951 0.3373715,-1.676943 0.9550782,-2.269531 l 0.00391,-0.0039 0.00391,-0.0059 c 0.5926602,-0.617552 1.41357,-0.961313 2.2695237,-0.953044 z m -0.00391,1.248047 c -1.0868908,0.02321 -1.9649608,0.907113 -1.9804687,1.99414 v 0.0039 26.125 0.0039 c 0.029196,1.076722 0.9055062,1.945926 1.9824219,1.966797 h 0.00195 11.7578121 0.0039 c 0.966627,-0.02052 1.677286,-0.766306 1.853516,-1.6875 h 0.128906 v -26.421875 -0.0039 c -0.02296,-1.0816 -0.900822,-1.957508 -1.982422,-1.980469 h -0.002 -11.7597651 z m 0.013672,0.599609 H 16.210937 c 0.766418,0.01627 1.378262,0.628114 1.394532,1.394531 v 26.007813 l -0.002,0.09766 c -0.01627,0.766418 -0.628114,1.378261 -1.394532,1.394531 H 4.4707031 C 3.708125,58.368033 3.0968463,57.760488 3.0761719,56.998047 V 30.892578 c 0.01099,-0.770355 0.6242735,-1.38785 1.3945312,-1.404297 z M 9.6875,47.947266 v 0.002 c -1.0311724,-0.01651 -2.0220585,0.396659 -2.7324219,1.144531 -0.8584721,0.886812 -1.1952525,1.910586 -1.1328125,2.869141 0.06244,0.958554 0.5105584,1.846495 1.1757813,2.511718 0.6652229,0.665223 1.5531642,1.113342 2.5117187,1.175782 0.9585544,0.06244 1.9823284,-0.274341 2.8691404,-1.132813 h 0.002 l 0.002,-0.002 c 1.199113,-1.198182 1.38677,-2.847695 0.839843,-4.181641 -0.546194,-1.332158 -1.83559,-2.370492 -3.5273435,-2.384765 v -0.002 c -0.00131,-2.4e-5 -0.0026,2.2e-5 -0.00391,0 -6.844e-4,-5e-6 -0.00127,4e-6 -0.00195,0 z m 0,0.298828 -0.00195,0.300781 c 6.94e-4,5e-6 0.00126,-5e-6 0.00195,0 6.938e-4,5e-6 0.00126,-6e-6 0.00195,0 1.451767,0.01153 2.514738,0.884478 2.978516,2.015625 0.464221,1.132228 0.317547,2.499658 -0.710938,3.527344 -0.778631,0.752089 -1.61388,1.014632 -2.408203,0.96289 C 8.7533019,55.000914 7.993337,54.622243 7.421875,54.050781 6.850413,53.479319 6.4717423,52.719354 6.4199219,51.923828 6.3681015,51.128302 6.6300451,50.291355 7.3847656,49.511719 l 0.00195,-0.002 c 0.5966756,-0.629128 1.4299415,-0.978697 2.2968751,-0.962891 z m 0.019531,1.548828 c -0.534818,-0.01712 -1.0496605,0.200031 -1.4160154,0.589844 -0.3747201,0.366904 -0.5827704,0.872035 -0.5761719,1.396484 -0.015789,0.526632 0.1835247,1.039677 0.5585938,1.410156 h 0.00195 c 0.7220968,0.70549 1.8225185,0.685713 2.6054685,0.08594 h 0.300782 v -0.3125 c 0.28242,-0.34367 0.517168,-0.737158 0.505859,-1.1875 -0.02295,-1.080957 -0.899755,-1.95846 -1.9804688,-1.982422 z m -0.017578,0.599609 h 0.00195 0.00195 c 0.766418,0.01627 1.378262,0.628114 1.394532,1.394531 v 0.002 c 0.0096,0.366387 -0.141641,0.717502 -0.41211,0.964843 l -0.0078,0.0078 C 10.11562,53.299849 9.2463576,53.300091 8.6953125,52.761719 8.437716,52.506533 8.2975864,52.155392 8.3105469,51.792969 v -0.0078 -0.0078 C 8.3042203,51.4118 8.4502091,51.060925 8.7128906,50.806641 l 0.00586,-0.0059 0.00391,-0.0059 C 8.9717495,50.528037 9.3245838,50.38248 9.689453,50.394531 Z"
       id="path9" />
  </g>
</svg>
