<svg width="132" height="87" fill="none" xmlns="http://www.w3.org/2000/svg">
  <path opacity=".5" d="M1.223 25.962c1.075 6.49 4.586 12.991 8.479 18.158 7.84 10.411 17.62 19.524 28.483 27.264 9.997 7.123 22.349 15.27 35.802 15.038 13.787-.237 26.157-8.051 35.145-17.457 7.619-7.971 13.144-17.453 17.529-27.23 2.617-5.833 4.876-11.91 5.205-18.163.369-7.021-1.992-14.563-8.149-18.928C114.033-2.22 100.72.136 89.511 2.386c-12.879 2.586-25.74 3.045-38.638 1.17C42.186 2.292 33.294.508 24.4 1.282c-5.57.484-11.18 2.115-15.572 5.395-7.09 5.296-8.764 12.285-7.605 19.285Z" fill="#6FDE9B"/>
</svg>
