<svg width="177" height="86" fill="none" xmlns="http://www.w3.org/2000/svg">
  <path d="M175.488 2.088c-2.959 64.575-59.41 69.917-90.106 57.225m0 0c-13.27-5.486-21.728-14.343-18.97-23.24.962-6.163 10.993-12.647 17.478-2.696 3.58 5.493 7.058 15.348 1.492 25.936Zm0 0c-.288.548-2.034 2.85-2.372 3.401-6.864 11.206-16.869 16.203-16.869 16.203-22.716 11.21-49.945 4.926-59.937-18.662m7.818 1.822c-.446-.343-6.97-2.48-7.547-2.561-.876-.122-.406-.382-.943.307-1.48 2.496-2.633 5.175-3.901 8.17" stroke="#fff" stroke-width="3" stroke-linecap="round"/>
</svg>
