<svg width="153" height="66" fill="none" xmlns="http://www.w3.org/2000/svg">
  <path fill-rule="evenodd" clip-rule="evenodd" d="M3.85 64.345a1.5 1.5 0 0 1-1.818 1.087A1.49 1.49 0 0 1 .94 63.626C9.01 31.427 36.269 12.18 66.458 4.614c29.21-7.32 61.567-3.816 82.678 9.787-.632-2.628-1.473-5.301-2.415-8.248a1.49 1.49 0 0 1 .974-1.873 1.5 1.5 0 0 1 1.883.969c1.282 4.008 2.443 7.71 3.119 11.524l.017.093.004.094c.01.204.027.321.04.412l.002.013v.004c.005.03.028.18.027.33a1.566 1.566 0 0 1-1.066 1.488h-.001c-.081.03-.079.028-.079.028l-.032.012a1.34 1.34 0 0 0-.25.135c-.186.118-.492.26-.748.377-.302.137-.69.306-1.131.494a163.318 163.318 0 0 1-6.275 2.51c-.449.166-.854.31-1.177.414a9.971 9.971 0 0 1-.453.136c-.1.026-.313.081-.534.092a1.496 1.496 0 0 1-1.57-1.417 1.495 1.495 0 0 1 1.315-1.552l.019-.005c.063-.017.16-.045.295-.09.268-.086.63-.214 1.064-.373a163.008 163.008 0 0 0 6.217-2.49C128.185 3.971 96.242.224 67.189 7.505c-29.517 7.397-55.624 26.057-63.34 56.84Z" fill="#fff"/>
</svg>
