<svg width="546" height="448" viewBox="0 0 546 448" fill="none" xmlns="http://www.w3.org/2000/svg">
<path d="M306.673 337.787C330.006 335.857 353.562 336.079 376.887 337.514C389.376 338.274 401.84 339.444 414.27 340.93C404.636 344.611 394.96 348.164 385.207 351.512C353.033 362.495 319.87 372.522 286.016 376.895C270.381 378.928 253.74 380.141 238.275 376.161C237.257 375.899 236.188 375.908 235.174 376.186C234.16 376.464 233.236 377.002 232.493 377.747C231.749 378.492 231.213 379.417 230.935 380.433C230.657 381.449 230.648 382.52 230.909 383.54C234.695 398.384 234.652 414.722 232.614 430.095C231.591 429.079 230.551 428.071 229.605 426.978L228.565 425.714L228.369 425.483L228.198 425.236C227.422 424.134 226.638 423.058 225.922 421.922C224.34 419.391 222.916 416.764 221.659 414.056L221.259 413.134C220.926 412.279 220.602 411.477 220.295 410.64C219.687 408.966 219.142 407.272 218.659 405.558C218.121 403.662 217.661 401.74 217.269 399.81C217.064 398.811 216.877 397.82 216.706 396.821L216.476 395.36C216.476 395.07 216.399 394.89 216.382 394.762C216.382 394.814 216.382 394.831 216.382 394.72C213.509 370.806 218.514 348.873 226.502 326.027C285.752 286.013 349.845 252.721 416.111 226.16C447.307 213.597 479.155 202.726 511.517 193.594C468.107 225.075 423.485 254.951 377.049 281.734C360.049 291.539 342.794 300.934 325.207 309.628C318.955 312.726 312.646 315.724 306.281 318.622C303.717 319.795 301.14 320.933 298.548 322.038L295.65 323.285L293.322 324.25C289.111 325.958 284.865 327.735 280.535 329.144C273.194 331.527 276.17 342.374 283.715 340.717C291.865 338.923 297.841 338.479 306.63 337.753M239.051 435.305C240.543 435.596 239.98 435.963 239.051 435.305V435.305ZM163.134 394.703C155.973 408.735 140.968 417.643 127.277 424.143C121.211 426.967 114.989 429.443 108.641 431.556C118.82 416.729 131.284 403.431 144.182 391.03C150.38 385.052 156.783 379.338 163.287 373.727C166.91 380.226 166.783 387.545 163.134 394.694M54.2071 382.02C54.1388 382.25 54.0451 382.438 53.9257 382.455C54.0325 382.319 54.1266 382.173 54.2071 382.02ZM52.8174 378.185C52.5361 378.185 52.3486 378.185 52.3997 378.125C51.9734 378.646 52.3997 377.818 52.8174 378.185ZM443.273 255.147C477.373 232.941 510.681 209.445 543.307 185.07C548.542 181.158 545.686 172.421 538.687 174.104C461.397 192.637 386.682 222.342 316.179 258.973C288.361 273.433 260.85 289.122 234.251 306.229C249.034 271.46 269.58 238.971 291.183 208.241C334.602 146.466 385.275 89.858 437.689 35.667C438.959 34.3517 440.246 33.0621 441.525 31.7554C412.369 99.2272 372.837 162.839 327.901 220.591C324.209 225.331 320.492 230.071 316.613 234.658C311.669 240.525 320.1 249.057 325.087 243.147C337.023 229.046 348.003 214.109 358.736 199.111C384.122 163.792 407.077 126.782 427.441 88.3378C441.322 62.1312 453.635 35.1203 464.313 7.44839C466.546 1.64069 458.277 -2.39054 454.304 1.60653C396.588 59.6836 340.808 120.237 292.257 186.3C263.535 225.374 236.689 266.899 218.897 312.242C218.181 314.061 217.508 315.923 216.826 317.768C198.812 330.092 181.241 343.074 164.506 356.987C150.866 346.567 129.425 344.022 113.099 345.602C131.122 327.48 148.182 308.422 164.208 288.507C182.375 265.994 200.355 242.31 213.109 216.21C219.844 202.442 230.654 178.135 215.845 165.649C198.914 151.377 170.662 164.846 154.992 174.3C123.364 193.406 97.447 221.881 75.8185 251.5C46.3382 291.864 24.2835 337.762 10.0293 385.667C6.13616 398.762 2.83977 412.003 0.140113 425.389C-1.39443 432.931 10.1487 436.151 11.6918 428.584C21.2757 380.885 38.6075 335.084 62.9966 293.008C82.2806 259.947 106.023 228.867 135.06 203.774C145.606 194.661 156.996 186.343 169.434 179.98C178.044 175.573 187.934 171.977 196.638 171.926C200.236 171.926 203.245 172.216 205.837 173.352C207.55 173.983 208.966 175.232 209.809 176.854C210.005 177.238 210.108 177.409 210.167 177.503C210.227 177.597 210.167 177.58 210.219 177.657C210.449 178.349 210.628 179.04 210.815 179.741C211.208 181.261 210.943 180.202 210.977 180.595C211.046 181.449 211.088 182.363 211.088 183.26C211.088 184.156 211.029 184.831 210.977 185.617C210.977 186.01 210.901 186.403 210.849 186.795C210.849 186.881 210.849 186.958 210.849 187.009C210.489 189.2 210 191.367 209.383 193.5C203.288 214.997 189.025 235.349 175.879 253.644C158.814 277.187 140.277 299.623 120.38 320.817C111.641 330.211 102.281 339.999 92.6643 349.155C77.2337 352.921 62.0332 359.267 50.0382 369.123C45.5795 372.796 39.987 378.919 43.218 385.137C45.6648 389.869 51.9393 390.953 56.7561 390.005C63.5336 388.673 69.7741 383.89 75.1535 379.833C83.2665 373.615 91.0466 366.972 98.4614 359.933C110.158 357.123 122.281 355.996 133.816 357.371C141.181 358.225 149.076 360.787 155.129 365.058C150.985 368.653 146.799 372.206 142.767 375.913C122.707 394.352 103.133 414.884 89.9107 438.961C87.4298 443.496 91.539 449.21 96.6797 447.775C119.033 441.591 142.187 433.042 159.886 417.498C169.775 408.803 178.36 396.436 177.848 382.703C177.706 376.719 175.937 370.887 172.733 365.835C184.933 355.8 197.533 346.268 210.415 337.138C205.444 354.518 202.52 372.582 203.97 390.466C205.223 405.917 209.784 421.102 219.443 433.401C222.998 437.919 227.619 442.924 232.887 445.648C232.491 445.144 232.135 444.61 231.821 444.051V443.957C232.278 444.884 232.999 445.653 233.893 446.169C234.83 446.67 235.875 446.932 236.937 446.932C237.998 446.932 239.044 446.67 239.98 446.169C240.713 445.772 241.343 445.21 241.821 444.526C242.299 443.843 242.612 443.057 242.734 442.232C245.88 425.261 247.073 406.882 244.277 389.535C255.684 391.201 267.423 390.834 278.83 389.706C296.451 387.998 313.885 384.462 331.047 380.175C361.814 372.488 391.985 362.325 421.542 350.88C428.004 348.386 434.44 345.824 440.817 343.108C445.37 341.169 444.313 332.859 439.385 332.142C400.749 326.488 360.893 322.67 321.575 324.66L325.062 322.952C365.983 303.223 405.105 279.838 443.162 255.113" fill="#6D7AA7"/>
</svg>
