<svg width="241" height="70" viewBox="0 0 241 70" fill="none" xmlns="http://www.w3.org/2000/svg">
<path d="M30.9683 48.9364C30.9683 51.1269 30.5561 53.1607 29.7319 55.0377C28.9031 56.9192 27.7787 58.5498 26.3542 59.9296C24.9296 61.3138 23.29 62.4069 21.431 63.2132C19.5719 64.0196 17.5918 64.4227 15.4864 64.4227C12.8433 64.4227 10.4691 63.8538 8.36363 62.7204C6.25816 61.5871 4.50211 60.0864 3.09996 58.2318V70H0V48.9408C0 46.7951 0.403175 44.7702 1.20952 42.8708C2.01587 40.9714 3.10892 39.3319 4.49316 37.9476C5.87739 36.5634 7.508 35.4703 9.385 34.664C11.262 33.8576 13.2958 33.4545 15.4864 33.4545C17.5918 33.4545 19.5764 33.8576 21.431 34.664C23.29 35.4703 24.9296 36.5634 26.3542 37.9476C27.7787 39.3319 28.9031 40.9714 29.7319 42.8708C30.5561 44.7702 30.9683 46.7906 30.9683 48.9364ZM27.8728 48.9364C27.8728 47.243 27.5413 45.6438 26.8828 44.1341C26.2198 42.6289 25.3328 41.3164 24.2173 40.2009C23.1019 39.0855 21.7893 38.1985 20.2842 37.5355C18.7745 36.877 17.1752 36.5455 15.4864 36.5455C13.793 36.5455 12.1938 36.877 10.6886 37.5355C9.17894 38.1985 7.87086 39.0855 6.75541 40.2009C5.63996 41.3164 4.75298 42.6289 4.08998 44.1341C3.43146 45.6438 3.09996 47.243 3.09996 48.9364C3.09996 50.6297 3.43146 52.229 4.08998 53.7341C4.7485 55.2438 5.63996 56.5519 6.75541 57.6673C7.87086 58.7828 9.17894 59.6698 10.6886 60.3328C12.1938 60.9958 13.793 61.3228 15.4864 61.3228C17.1797 61.3228 18.779 60.9913 20.2842 60.3328C21.7893 59.6742 23.1019 58.7828 24.2173 57.6673C25.3328 56.5519 26.2198 55.2438 26.8828 53.7341C27.5413 52.2334 27.8728 50.6297 27.8728 48.9364Z" fill="white"/>
<path d="M50.4502 33.4545C52.5959 33.4545 54.6208 33.8576 56.5202 34.664C58.4196 35.4703 60.0591 36.5634 61.4434 37.9476C62.8276 39.3319 63.9207 40.9714 64.727 42.8708C65.5334 44.7702 65.9365 46.7951 65.9365 48.9408V64.4227H62.841V58.2273C61.4389 60.0864 59.6425 61.5826 57.452 62.716C55.2614 63.8538 52.9319 64.4183 50.4546 64.4183C48.2641 64.4183 46.2303 64.0151 44.3533 63.2087C42.4718 62.4024 40.8412 61.3093 39.4614 59.9251C38.0772 58.5409 36.9841 56.9103 36.1778 55.0333C35.3714 53.1563 34.9683 51.1225 34.9683 48.9319C34.9683 46.7861 35.3714 44.7613 36.1778 42.8619C36.9841 40.9625 38.0772 39.3229 39.4614 37.9387C40.8456 36.5544 42.4763 35.4614 44.3533 34.655C46.2258 33.8576 48.2596 33.4545 50.4502 33.4545ZM50.4502 61.3273C52.1435 61.3273 53.7427 60.9958 55.2479 60.3372C56.7531 59.6787 58.0657 58.7873 59.1811 57.6718C60.2966 56.5564 61.1836 55.2483 61.8465 53.7386C62.5051 52.2334 62.8366 50.6342 62.8366 48.9408C62.8366 47.2475 62.5051 45.6483 61.8465 44.1386C61.1836 42.6334 60.2966 41.3208 59.1811 40.2054C58.0657 39.0899 56.7531 38.203 55.2479 37.54C53.7383 36.8815 52.139 36.55 50.4502 36.55C48.7568 36.55 47.1576 36.8815 45.6524 37.54C44.1427 38.203 42.8346 39.0899 41.7192 40.2054C40.6037 41.3208 39.7168 42.6334 39.0538 44.1386C38.3952 45.6483 38.0637 47.2475 38.0637 48.9408C38.0637 50.6342 38.3952 52.2334 39.0538 53.7386C39.7123 55.2483 40.6037 56.5564 41.7192 57.6718C42.8346 58.7873 44.1427 59.6742 45.6524 60.3372C47.1576 60.9958 48.7568 61.3273 50.4502 61.3273Z" fill="white"/>
<path d="M109.608 38.0059C108.533 38.978 108 40.2457 108 41.8136C108 43.3815 108.538 44.703 109.608 45.7782C110.684 46.8533 112.001 47.3864 113.573 47.3864H120.387H127.509C128.665 47.3864 129.749 47.6014 130.762 48.0359C131.774 48.4705 132.661 49.0663 133.427 49.8323C134.189 50.5983 134.789 51.4853 135.224 52.4977C135.658 53.5102 135.873 54.5942 135.873 55.75C135.873 56.9058 135.658 58.0123 135.224 59.065C134.789 60.1177 134.189 61.0361 133.427 61.82C132.661 62.604 131.774 63.2356 130.762 63.7105C129.749 64.1853 128.665 64.4227 127.509 64.4227H104.905V61.3273H127.509C128.912 61.3273 130.144 60.7897 131.196 59.719C132.249 58.6439 132.778 57.3269 132.778 55.7545C132.778 54.1866 132.249 52.9144 131.196 51.9467C130.144 50.9746 128.916 50.4908 127.509 50.4908H120.387H113.573C112.332 50.4908 111.19 50.2534 110.137 49.7785C109.084 49.3037 108.166 48.6765 107.382 47.8881C106.598 47.1042 105.989 46.1858 105.554 45.1331C105.12 44.0804 104.905 42.9739 104.905 41.8181C104.905 40.6623 105.12 39.5782 105.554 38.5658C105.989 37.5534 106.598 36.6664 107.382 35.9004C108.166 35.1388 109.084 34.5386 110.137 34.104C111.19 33.6695 112.337 33.4545 113.573 33.4545H135.869V36.55H113.573C112.005 36.55 110.684 37.0382 109.608 38.0059Z" fill="white"/>
<path d="M170.841 48.9364C170.841 51.127 170.429 53.1608 169.605 55.0378C168.776 56.9193 167.652 58.5499 166.227 59.9297C164.803 61.3139 163.163 62.4069 161.304 63.2133C159.445 64.0196 157.465 64.4228 155.359 64.4228C153.169 64.4228 151.135 64.0196 149.258 63.2133C147.377 62.4069 145.746 61.3139 144.366 59.9297C142.982 58.5454 141.889 56.9148 141.083 55.0378C140.276 53.1608 139.873 51.127 139.873 48.9364V28.8091H142.969V39.6455H151.328V42.741H142.969V48.9364C142.969 50.6298 143.3 52.229 143.959 53.7342C144.617 55.2439 145.509 56.552 146.624 57.6674C147.739 58.7829 149.048 59.6698 150.557 60.3328C152.062 60.9958 153.662 61.3229 155.355 61.3229C157.048 61.3229 158.648 60.9914 160.153 60.3328C161.658 59.6743 162.97 58.7829 164.086 57.6674C165.201 56.552 166.088 55.2439 166.751 53.7342C167.41 52.229 167.741 50.6298 167.741 48.9364H170.841Z" fill="white"/>
<path d="M190.328 33.4545C192.433 33.4545 194.418 33.8576 196.272 34.664C198.131 35.4703 199.771 36.5634 201.195 37.9476C202.62 39.3319 203.744 40.9714 204.573 42.8708C205.397 44.7702 205.81 46.7951 205.81 48.9408C205.81 51.1314 205.397 53.1652 204.573 55.0422C203.744 56.9237 202.62 58.5543 201.195 59.9341C199.771 61.3183 198.131 62.4113 196.272 63.2177C194.413 64.024 192.433 64.4272 190.328 64.4272C188.137 64.4272 186.103 64.024 184.226 63.2177C182.345 62.4113 180.714 61.3183 179.334 59.9341C177.95 58.5498 176.857 56.9192 176.051 55.0422C175.244 53.1652 174.841 51.1314 174.841 48.9408C174.841 46.7951 175.244 44.7702 176.051 42.8708C176.857 40.9714 177.95 39.3319 179.334 37.9476C180.719 36.5634 182.349 35.4703 184.226 34.664C186.103 33.8576 188.137 33.4545 190.328 33.4545ZM190.328 61.3273C192.021 61.3273 193.62 60.9958 195.125 60.3372C196.631 59.6787 197.943 58.7873 199.059 57.6718C200.174 56.5564 201.061 55.2483 201.724 53.7386C202.383 52.2334 202.714 50.6342 202.714 48.9408C202.714 47.2475 202.383 45.6483 201.724 44.1386C201.061 42.6334 200.174 41.3208 199.059 40.2054C197.943 39.0899 196.631 38.203 195.125 37.54C193.616 36.8815 192.017 36.55 190.328 36.55C188.634 36.55 187.035 36.8815 185.53 37.54C184.02 38.203 182.712 39.0899 181.597 40.2054C180.481 41.3208 179.594 42.6334 178.931 44.1386C178.273 45.6483 177.941 47.2475 177.941 48.9408C177.941 50.6342 178.273 52.2334 178.931 53.7386C179.59 55.2483 180.481 56.5564 181.597 57.6718C182.712 58.7873 184.02 59.6742 185.53 60.3372C187.035 60.9958 188.634 61.3273 190.328 61.3273Z" fill="white"/>
<path d="M225.291 33.4545C227.397 33.4545 229.381 33.8576 231.236 34.664C233.095 35.4703 234.735 36.5634 236.159 37.9476C237.584 39.3319 238.708 40.9714 239.537 42.8708C240.361 44.7702 240.773 46.7951 240.773 48.9408H237.678C237.678 47.2475 237.346 45.6483 236.688 44.1386C236.025 42.6334 235.138 41.3208 234.022 40.2054C232.907 39.0899 231.594 38.203 230.089 37.54C228.58 36.8815 226.98 36.55 225.291 36.55C223.598 36.55 221.999 36.8815 220.494 37.54C218.984 38.203 217.676 39.0899 216.561 40.2054C215.445 41.3208 214.558 42.6334 213.895 44.1386C213.237 45.6483 212.905 47.2475 212.905 48.9408V64.4227H209.81V48.9408C209.81 46.7951 210.213 44.7702 211.019 42.8708C211.825 40.9714 212.919 39.3319 214.303 37.9476C215.687 36.5634 217.318 35.4703 219.195 34.664C221.067 33.8576 223.101 33.4545 225.291 33.4545Z" fill="white"/>
<path d="M100.905 47.3909H86.9684V0H83.8729V47.3909H69.9365V50.4864H83.8729V64.4228H86.9684V50.4864H100.905V47.3909Z" fill="#CEA300"/>
</svg>
