<?xml version="1.0" encoding="utf-8"?><svg viewBox="0 0 60 60" xmlns="http://www.w3.org/2000/svg" xmlns:xlink="http://www.w3.org/1999/xlink"><style>:root>svg{display:none}:root>svg:target{display:block}</style><svg fill="none" viewBox="0 0 12 9" id="check_icon" xmlns="http://www.w3.org/2000/svg"><path d="M1 3.917L4.5 8l5.833-7" stroke="#2DB3DE" stroke-width="2" stroke-linecap="round" stroke-linejoin="round"/></svg><svg fill="none" viewBox="0 0 22 22" id="close_icon" xmlns="http://www.w3.org/2000/svg"><path d="M22 2.216L19.784 0 11 8.784 2.216 0 0 2.216 8.784 11 0 19.784 2.216 22 11 13.216 19.784 22 22 19.784 13.216 11 22 2.216z" fill="#C4C6CA"/></svg><svg fill="none" viewBox="0 0 45 31" id="cmail_icon" xmlns="http://www.w3.org/2000/svg"><path d="M38.75.75H6.259C3.358.75 1 2.88 1 5.499v20.058c0 2.62 2.358 4.75 5.258 4.75h32.484c2.9 0 5.258-2.13 5.258-4.75V5.507C44.009 2.887 41.651.75 38.75.75zm2.857 24.807c0 1.423-1.282 2.58-2.856 2.58H6.258c-1.575 0-2.856-1.157-2.856-2.58V5.507c0-1.422 1.281-2.58 2.856-2.58h32.484c1.575 0 2.856 1.158 2.856 2.58v20.05h.009z" fill="url(#cpaint0_linear)"/><path d="M38.75.75H6.259C3.358.75 1 2.88 1 5.499v20.058c0 2.62 2.358 4.75 5.258 4.75h32.484c2.9 0 5.258-2.13 5.258-4.75V5.507C44.009 2.887 41.651.75 38.75.75zm2.857 24.807c0 1.423-1.282 2.58-2.856 2.58H6.258c-1.575 0-2.856-1.157-2.856-2.58V5.507c0-1.422 1.281-2.58 2.856-2.58h32.484c1.575 0 2.856 1.158 2.856 2.58v20.05h.009z" fill="url(#cpaint1_linear)"/><path d="M38.75.75H6.259C3.358.75 1 2.88 1 5.499v20.058c0 2.62 2.358 4.75 5.258 4.75h32.484c2.9 0 5.258-2.13 5.258-4.75V5.507C44.009 2.887 41.651.75 38.75.75zm2.857 24.807c0 1.423-1.282 2.58-2.856 2.58H6.258c-1.575 0-2.856-1.157-2.856-2.58V5.507c0-1.422 1.281-2.58 2.856-2.58h32.484c1.575 0 2.856 1.158 2.856 2.58v20.05h.009z" stroke="#000"/><path d="M38.75.75H6.259C3.358.75 1 2.88 1 5.499v20.058c0 2.62 2.358 4.75 5.258 4.75h32.484c2.9 0 5.258-2.13 5.258-4.75V5.507C44.009 2.887 41.651.75 38.75.75zm2.857 24.807c0 1.423-1.282 2.58-2.856 2.58H6.258c-1.575 0-2.856-1.157-2.856-2.58V5.507c0-1.422 1.281-2.58 2.856-2.58h32.484c1.575 0 2.856 1.158 2.856 2.58v20.05h.009z" stroke="url(#cpaint2_linear)"/><path d="M28.106 15.279L38.622 6.76c.49-.401.534-1.084.09-1.534a1.3 1.3 0 00-1.7-.08L22.51 16.901l-2.83-2.282c-.009-.008-.017-.016-.017-.024a1.745 1.745 0 00-.196-.153L7.954 5.137a1.291 1.291 0 00-1.7.089c-.444.45-.4 1.133.098 1.534l10.641 8.591-10.596 8.96a1.016 1.016 0 00-.054 1.535 1.296 1.296 0 001.7.056l10.756-9.088 2.919 2.354c.231.185.516.274.8.274.285 0 .579-.097.801-.282l2.999-2.427 10.694 9.178c.231.2.534.297.827.297.32 0 .632-.113.872-.338a1.016 1.016 0 00-.044-1.535L28.106 15.28z" fill="url(#cpaint3_linear)"/><path d="M28.106 15.279L38.622 6.76c.49-.401.534-1.084.09-1.534a1.3 1.3 0 00-1.7-.08L22.51 16.901l-2.83-2.282c-.009-.008-.017-.016-.017-.024a1.745 1.745 0 00-.196-.153L7.954 5.137a1.291 1.291 0 00-1.7.089c-.444.45-.4 1.133.098 1.534l10.641 8.591-10.596 8.96a1.016 1.016 0 00-.054 1.535 1.296 1.296 0 001.7.056l10.756-9.088 2.919 2.354c.231.185.516.274.8.274.285 0 .579-.097.801-.282l2.999-2.427 10.694 9.178c.231.2.534.297.827.297.32 0 .632-.113.872-.338a1.016 1.016 0 00-.044-1.535L28.106 15.28z" fill="url(#cpaint4_linear)"/><path d="M28.106 15.279L38.622 6.76c.49-.401.534-1.084.09-1.534a1.3 1.3 0 00-1.7-.08L22.51 16.901l-2.83-2.282c-.009-.008-.017-.016-.017-.024a1.745 1.745 0 00-.196-.153L7.954 5.137a1.291 1.291 0 00-1.7.089c-.444.45-.4 1.133.098 1.534l10.641 8.591-10.596 8.96a1.016 1.016 0 00-.054 1.535 1.296 1.296 0 001.7.056l10.756-9.088 2.919 2.354c.231.185.516.274.8.274.285 0 .579-.097.801-.282l2.999-2.427 10.694 9.178c.231.2.534.297.827.297.32 0 .632-.113.872-.338a1.016 1.016 0 00-.044-1.535L28.106 15.28z" stroke="#000"/><path d="M28.106 15.279L38.622 6.76c.49-.401.534-1.084.09-1.534a1.3 1.3 0 00-1.7-.08L22.51 16.901l-2.83-2.282c-.009-.008-.017-.016-.017-.024a1.745 1.745 0 00-.196-.153L7.954 5.137a1.291 1.291 0 00-1.7.089c-.444.45-.4 1.133.098 1.534l10.641 8.591-10.596 8.96a1.016 1.016 0 00-.054 1.535 1.296 1.296 0 001.7.056l10.756-9.088 2.919 2.354c.231.185.516.274.8.274.285 0 .579-.097.801-.282l2.999-2.427 10.694 9.178c.231.2.534.297.827.297.32 0 .632-.113.872-.338a1.016 1.016 0 00-.044-1.535L28.106 15.28z" stroke="url(#cpaint5_linear)"/><defs><linearGradient id="cpaint0_linear" x1="-33.174" y1="52.77" x2="56.328" y2="42.039" gradientUnits="userSpaceOnUse"><stop stop-color="#1568C4"/><stop offset="1" stop-color="#2DB3DE"/></linearGradient><linearGradient id="cpaint1_linear" x1="-33.174" y1="52.77" x2="56.328" y2="42.039" gradientUnits="userSpaceOnUse"><stop stop-color="#1568C4"/><stop offset="1" stop-color="#2DB3DE"/></linearGradient><linearGradient id="cpaint2_linear" x1="-33.174" y1="52.77" x2="56.328" y2="42.039" gradientUnits="userSpaceOnUse"><stop stop-color="#1568C4"/><stop offset="1" stop-color="#2DB3DE"/></linearGradient><linearGradient id="cpaint3_linear" x1="-20.352" y1="42.432" x2="48.396" y2="33.65" gradientUnits="userSpaceOnUse"><stop stop-color="#1568C4"/><stop offset="1" stop-color="#2DB3DE"/></linearGradient><linearGradient id="cpaint4_linear" x1="-20.352" y1="42.432" x2="48.396" y2="33.65" gradientUnits="userSpaceOnUse"><stop stop-color="#1568C4"/><stop offset="1" stop-color="#2DB3DE"/></linearGradient><linearGradient id="cpaint5_linear" x1="-20.352" y1="42.432" x2="48.396" y2="33.65" gradientUnits="userSpaceOnUse"><stop stop-color="#1568C4"/><stop offset="1" stop-color="#2DB3DE"/></linearGradient></defs></svg><svg fill="none" viewBox="0 0 60 60" id="cmark_icon" xmlns="http://www.w3.org/2000/svg"><path d="M30.114 29.565a8.87 8.87 0 01-6.293-2.603c-3.47-3.47-3.47-9.115 0-12.585a8.84 8.84 0 016.293-2.606c2.377 0 4.611.926 6.292 2.606 3.47 3.47 3.47 9.116 0 12.585a8.871 8.871 0 01-6.292 2.603zm0-14.272a5.362 5.362 0 00-3.804 1.573 5.385 5.385 0 000 7.608 5.344 5.344 0 003.804 1.575c1.436 0 2.787-.56 3.803-1.575a5.385 5.385 0 000-7.608 5.362 5.362 0 00-3.803-1.573z" fill="#000"/><path d="M30.114 29.565a8.87 8.87 0 01-6.293-2.603c-3.47-3.47-3.47-9.115 0-12.585a8.84 8.84 0 016.293-2.606c2.377 0 4.611.926 6.292 2.606 3.47 3.47 3.47 9.116 0 12.585a8.871 8.871 0 01-6.292 2.603zm0-14.272a5.362 5.362 0 00-3.804 1.573 5.385 5.385 0 000 7.608 5.344 5.344 0 003.804 1.575c1.436 0 2.787-.56 3.803-1.575a5.385 5.385 0 000-7.608 5.362 5.362 0 00-3.803-1.573z" fill="url(#dpaint0_linear)"/><path d="M30.134 60l-1.36-1.599c-.797-.936-19.516-23.091-19.516-37.545C9.258 9.356 18.614 0 30.113 0c11.5 0 20.856 9.356 20.856 20.856 0 13.743-18.702 36.56-19.498 37.525L30.134 60zm-.02-56.48c-9.56 0-17.336 7.777-17.336 17.336 0 5.372 3.203 13.147 9.264 22.484 3.145 4.845 6.312 8.948 8.052 11.12 1.743-2.231 4.94-6.47 8.105-11.407 6.052-9.44 9.25-17.116 9.25-22.197 0-9.56-7.776-17.336-17.335-17.336z" fill="#000"/><path d="M30.134 60l-1.36-1.599c-.797-.936-19.516-23.091-19.516-37.545C9.258 9.356 18.614 0 30.113 0c11.5 0 20.856 9.356 20.856 20.856 0 13.743-18.702 36.56-19.498 37.525L30.134 60zm-.02-56.48c-9.56 0-17.336 7.777-17.336 17.336 0 5.372 3.203 13.147 9.264 22.484 3.145 4.845 6.312 8.948 8.052 11.12 1.743-2.231 4.94-6.47 8.105-11.407 6.052-9.44 9.25-17.116 9.25-22.197 0-9.56-7.776-17.336-17.335-17.336z" fill="url(#dpaint1_linear)"/><defs><linearGradient id="dpaint0_linear" x1="7.081" y1="43.088" x2="44.388" y2="40.014" gradientUnits="userSpaceOnUse"><stop stop-color="#1568C4"/><stop offset="1" stop-color="#2DB3DE"/></linearGradient><linearGradient id="dpaint1_linear" x1="-23.892" y1="105.6" x2="63.888" y2="100.571" gradientUnits="userSpaceOnUse"><stop stop-color="#1568C4"/><stop offset="1" stop-color="#2DB3DE"/></linearGradient></defs></svg><svg fill="none" viewBox="0 0 39 42" id="cphone_icon" xmlns="http://www.w3.org/2000/svg"><path d="M36.215 32.132l-5.405-5.897c-1.076-1.17-2.86-1.135-3.973.081l-2.724 2.97a75.59 75.59 0 01-.537-.326c-1.72-1.04-4.073-2.464-6.55-5.168-2.484-2.71-3.791-5.281-4.747-7.158-.1-.2-.197-.39-.293-.573l1.828-1.99.898-.982c1.116-1.218 1.147-3.162.073-4.335L9.38 2.856c-1.075-1.172-2.858-1.136-3.974.081L3.883 4.61l.041.045A9.872 9.872 0 002.67 7.069a10.768 10.768 0 00-.559 2.45c-.713 6.455 1.99 12.354 9.328 20.36 10.144 11.064 18.318 10.228 18.67 10.187a8.613 8.613 0 004.458-1.98l.034.032 1.543-1.649c1.114-1.217 1.146-3.162.072-4.337z" stroke="#000" stroke-width="3"/><path d="M36.215 32.132l-5.405-5.897c-1.076-1.17-2.86-1.135-3.973.081l-2.724 2.97a75.59 75.59 0 01-.537-.326c-1.72-1.04-4.073-2.464-6.55-5.168-2.484-2.71-3.791-5.281-4.747-7.158-.1-.2-.197-.39-.293-.573l1.828-1.99.898-.982c1.116-1.218 1.147-3.162.073-4.335L9.38 2.856c-1.075-1.172-2.858-1.136-3.974.081L3.883 4.61l.041.045A9.872 9.872 0 002.67 7.069a10.768 10.768 0 00-.559 2.45c-.713 6.455 1.99 12.354 9.328 20.36 10.144 11.064 18.318 10.228 18.67 10.187a8.613 8.613 0 004.458-1.98l.034.032 1.543-1.649c1.114-1.217 1.146-3.162.072-4.337z" stroke="url(#epaint0_linear)" stroke-width="3"/><defs><linearGradient id="epaint0_linear" x1="-25.816" y1="69.048" x2="47.661" y2="63.485" gradientUnits="userSpaceOnUse"><stop stop-color="#1568C4"/><stop offset="1" stop-color="#2DB3DE"/></linearGradient></defs></svg><svg fill="none" viewBox="0 0 54 54" id="ctime_icon" xmlns="http://www.w3.org/2000/svg"><circle cx="27" cy="27" r="25" stroke="#000" stroke-width="4"/><circle cx="27" cy="27" r="25" stroke="url(#fpaint0_linear)" stroke-width="4"/><path d="M24.714 17.5v13.357H37" stroke="#000" stroke-width="4" stroke-linecap="round" stroke-linejoin="round"/><path d="M24.714 17.5v13.357H37" stroke="url(#fpaint1_linear)" stroke-width="4" stroke-linecap="round" stroke-linejoin="round"/><defs><linearGradient id="fpaint0_linear" x1="-42.916" y1="95.04" x2="70.329" y2="85.707" gradientUnits="userSpaceOnUse"><stop stop-color="#1568C4"/><stop offset="1" stop-color="#2DB3DE"/></linearGradient><linearGradient id="fpaint1_linear" x1="14.95" y1="41.009" x2="40.742" y2="39.053" gradientUnits="userSpaceOnUse"><stop stop-color="#1568C4"/><stop offset="1" stop-color="#2DB3DE"/></linearGradient></defs></svg><svg fill="none" viewBox="0 0 17 13" id="fmail_icon" xmlns="http://www.w3.org/2000/svg"><path d="M16.85 1.377L11.694 6.5l5.156 5.123c.093-.195.15-.41.15-.64V2.017c0-.23-.056-.446-.15-.64z" fill="#00669C"/><path d="M16.85 1.377L11.694 6.5l5.156 5.123c.093-.195.15-.41.15-.64V2.017c0-.23-.056-.446-.15-.64z" fill="url(#gpaint0_linear)"/><path d="M15.506.523H1.494c-.23 0-.445.057-.64.15l6.59 6.557c.582.582 1.53.582 2.112 0l6.59-6.557a1.477 1.477 0 00-.64-.15z" fill="#00669C"/><path d="M15.506.523H1.494c-.23 0-.445.057-.64.15l6.59 6.557c.582.582 1.53.582 2.112 0l6.59-6.557a1.477 1.477 0 00-.64-.15z" fill="url(#gpaint1_linear)"/><path d="M.15 1.377a1.48 1.48 0 00-.15.64v8.965c0 .23.057.446.15.64L5.305 6.5.15 1.377z" fill="#00669C"/><path d="M.15 1.377a1.48 1.48 0 00-.15.64v8.965c0 .23.057.446.15.64L5.305 6.5.15 1.377z" fill="url(#gpaint2_linear)"/><path d="M10.99 7.204l-.73.73c-.97.97-2.55.97-3.52 0l-.73-.73-5.156 5.123c.195.093.41.15.64.15h14.012c.23 0 .445-.057.64-.15L10.99 7.204z" fill="#00669C"/><path d="M10.99 7.204l-.73.73c-.97.97-2.55.97-3.52 0l-.73-.73-5.156 5.123c.195.093.41.15.64.15h14.012c.23 0 .445-.057.64-.15L10.99 7.204z" fill="url(#gpaint3_linear)"/><defs><linearGradient id="gpaint0_linear" x1="7.478" y1="19.409" x2="18.66" y2="18.932" gradientUnits="userSpaceOnUse"><stop stop-color="#1568C4"/><stop offset="1" stop-color="#2DB3DE"/></linearGradient><linearGradient id="gpaint1_linear" x1="-11.299" y1="13.095" x2="20.013" y2="7.571" gradientUnits="userSpaceOnUse"><stop stop-color="#1568C4"/><stop offset="1" stop-color="#2DB3DE"/></linearGradient><linearGradient id="gpaint2_linear" x1="-4.216" y1="19.409" x2="6.965" y2="18.932" gradientUnits="userSpaceOnUse"><stop stop-color="#1568C4"/><stop offset="1" stop-color="#2DB3DE"/></linearGradient><linearGradient id="gpaint3_linear" x1="-11.299" y1="16.483" x2="19.243" y2="9.183" gradientUnits="userSpaceOnUse"><stop stop-color="#1568C4"/><stop offset="1" stop-color="#2DB3DE"/></linearGradient></defs></svg><svg fill="none" viewBox="0 0 14 14" id="fphone_icon" xmlns="http://www.w3.org/2000/svg"><path d="M13.619 10.275L11.665 8.32c-.697-.698-1.884-.419-2.163.488-.21.628-.907.977-1.535.838-1.395-.35-3.28-2.163-3.628-3.629-.21-.628.209-1.326.837-1.535.907-.279 1.186-1.465.488-2.163L3.711.366c-.559-.488-1.396-.488-1.884 0L.5 1.692c-1.326 1.396.14 5.094 3.419 8.373 3.28 3.28 6.978 4.815 8.373 3.42l1.326-1.326c.488-.559.488-1.396 0-1.884z" fill="#00669C"/><path d="M13.619 10.275L11.665 8.32c-.697-.698-1.884-.419-2.163.488-.21.628-.907.977-1.535.838-1.395-.35-3.28-2.163-3.628-3.629-.21-.628.209-1.326.837-1.535.907-.279 1.186-1.465.488-2.163L3.711.366c-.559-.488-1.396-.488-1.884 0L.5 1.692c-1.326 1.396.14 5.094 3.419 8.373 3.28 3.28 6.978 4.815 8.373 3.42l1.326-1.326c.488-.559.488-1.396 0-1.884z" fill="url(#hpaint0_linear)"/><defs><linearGradient id="hpaint0_linear" x1="-11.088" y1="24.64" x2="18.211" y2="22.23" gradientUnits="userSpaceOnUse"><stop stop-color="#1568C4"/><stop offset="1" stop-color="#2DB3DE"/></linearGradient></defs></svg><svg fill="none" viewBox="0 0 48 8" id="iarrow_icon" xmlns="http://www.w3.org/2000/svg"><path d="M47.354 4.354a.5.5 0 000-.708L44.172.464a.5.5 0 10-.707.708L46.293 4l-2.828 2.828a.5.5 0 10.707.708l3.182-3.182zM0 4.5h47v-1H0v1z" fill="#6AD0F0"/></svg><svg fill="none" viewBox="0 0 12 20" id="marrow_icon" xmlns="http://www.w3.org/2000/svg"><path d="M10 2L2.707 9.293a1 1 0 000 1.414L10 18" stroke="#262F40" stroke-width="4" stroke-linecap="round"/></svg><svg fill="none" viewBox="0 0 10 8" id="narrow_icon" xmlns="http://www.w3.org/2000/svg"><path fill-rule="evenodd" clip-rule="evenodd" d="M6.614.197l2.933 2.932a.672.672 0 010 .95L6.614 7.013a.672.672 0 01-.95-.95L7.45 4.276H.672a.672.672 0 010-1.343h6.777L5.664 1.147a.672.672 0 01.95-.95z" fill="#fff"/></svg><svg fill="none" viewBox="0 0 14 8" id="parrow_icon" xmlns="http://www.w3.org/2000/svg"><path d="M1.045 3.646a.5.5 0 000 .708l3.182 3.182a.5.5 0 10.707-.708L2.106 4l2.828-2.828a.5.5 0 00-.707-.708L1.045 3.646zM13.398 3.5h-12v1h12v-1z" fill="#949494"/></svg><svg fill="none" viewBox="0 0 15 16" id="phone_icon" xmlns="http://www.w3.org/2000/svg"><path d="M15 11.253v2.262a1.507 1.507 0 01-1.645 1.509 14.927 14.927 0 01-6.508-2.316A14.707 14.707 0 012.32 8.183 14.926 14.926 0 01.006 1.644 1.508 1.508 0 011.507 0H3.77a1.508 1.508 0 011.508 1.297c.095.724.273 1.435.528 2.12a1.508 1.508 0 01-.34 1.59l-.957.959a12.067 12.067 0 004.525 4.525l.958-.958a1.508 1.508 0 011.591-.34 9.684 9.684 0 002.12.529 1.508 1.508 0 011.296 1.53z" fill="#00669C"/></svg><svg fill="none" viewBox="0 0 43 47" id="play_icon" xmlns="http://www.w3.org/2000/svg"><path d="M8.112 45.886c-3.093 1.822-7-.387-7.031-3.977L.749 4.906C.717 1.316 4.583-.963 7.71.804L39.92 19.02c3.125 1.768 3.165 6.255.072 8.078L8.112 45.886z" fill="#C4C4C4"/><path d="M8.112 45.886c-3.093 1.822-7-.387-7.031-3.977L.749 4.906C.717 1.316 4.583-.963 7.71.804L39.92 19.02c3.125 1.768 3.165 6.255.072 8.078L8.112 45.886z" fill="url(#npaint0_linear)"/><path d="M8.112 45.886c-3.093 1.822-7-.387-7.031-3.977L.749 4.906C.717 1.316 4.583-.963 7.71.804L39.92 19.02c3.125 1.768 3.165 6.255.072 8.078L8.112 45.886z" fill="url(#npaint1_linear)"/><defs><linearGradient id="npaint0_linear" x1="111.5" y1="23" x2="-16.549" y2="-22.247" gradientUnits="userSpaceOnUse"><stop stop-color="#09498F"/><stop offset="1" stop-color="#38A6C9"/></linearGradient><linearGradient id="npaint1_linear" x1="123.514" y1="-4.935" x2="6.235" y2="-59.065" gradientUnits="userSpaceOnUse"><stop stop-color="#1568C4"/><stop offset="1" stop-color="#2DB3DE"/></linearGradient></defs></svg><svg fill="none" viewBox="0 0 13 8" id="pwarrow_icon" xmlns="http://www.w3.org/2000/svg"><path d="M12.752 4.354a.5.5 0 000-.708L9.57.464a.5.5 0 00-.707.708L11.69 4 8.863 6.828a.5.5 0 10.707.708l3.182-3.182zM.398 4.5h12v-1h-12v1z" fill="#fff"/></svg><svg fill="none" viewBox="0 0 14 22" id="sarrow_icon" xmlns="http://www.w3.org/2000/svg"><path d="M2 2l9 9-9 9" stroke="#494949" stroke-width="3"/></svg><svg fill="none" viewBox="0 0 13 12" id="search_icon" xmlns="http://www.w3.org/2000/svg"><path fill-rule="evenodd" clip-rule="evenodd" d="M5.006 8.018a3.008 3.008 0 003.006-3.009A3.008 3.008 0 005.006 2a3.008 3.008 0 00-3.007 3.01 3.008 3.008 0 003.007 3.008zm0 2A5.007 5.007 0 0010.01 5.01 5.007 5.007 0 005.006 0 5.007 5.007 0 000 5.01a5.007 5.007 0 005.006 5.008z" fill="#00669C"/><path fill-rule="evenodd" clip-rule="evenodd" d="M7.3 7.296a1 1 0 011.414 0l2.996 2.997a1 1 0 01-1.414 1.415L7.301 8.71a1 1 0 010-1.415z" fill="#00669C"/></svg><svg fill="none" viewBox="0 0 19 19" id="time_icon" xmlns="http://www.w3.org/2000/svg"><circle cx="9.5" cy="9.5" r="8.5" fill="#00669C" stroke="#00669C" stroke-width="2"/><path d="M9 6v5h5" stroke="#fff" stroke-width="2" stroke-linecap="round" stroke-linejoin="round"/></svg><svg fill="none" viewBox="0 0 16 21" id="wuparrow_icon" xmlns="http://www.w3.org/2000/svg"><path d="M8.707.293a1 1 0 00-1.414 0L.929 6.657A1 1 0 002.343 8.07L8 2.414l5.657 5.657a1 1 0 101.414-1.414L8.707.293zM9 21V1H7v20h2z" fill="#F9F9F9"/></svg></svg>