<svg width="192" height="23" viewBox="0 0 192 23" fill="none" xmlns="http://www.w3.org/2000/svg">
<path d="M0.508636 20.5294C0.0276184 20.8008 -0.142334 21.4107 0.129044 21.8917C0.400406 22.3728 1.01033 22.5427 1.49135 22.2713L0.508636 20.5294ZM191 21.4004C191.399 20.4835 191.399 20.4835 191.399 20.4835C191.399 20.4835 191.399 20.4835 191.399 20.4835C191.399 20.4835 191.399 20.4834 191.399 20.4834C191.399 20.4834 191.399 20.4833 191.398 20.4832C191.398 20.483 191.397 20.4828 191.397 20.4824C191.395 20.4818 191.393 20.4809 191.39 20.4797C191.385 20.4774 191.377 20.474 191.367 20.4696C191.347 20.4608 191.316 20.4478 191.277 20.4308C191.197 20.3968 191.079 20.3467 190.924 20.2815C190.614 20.151 190.154 19.9602 189.553 19.717L188.803 21.5711C189.396 21.8108 189.847 21.9982 190.149 22.1252C190.3 22.1887 190.414 22.2371 190.49 22.2695C190.528 22.2856 190.556 22.2978 190.574 22.3058C190.584 22.3098 190.59 22.3127 190.595 22.3147C190.597 22.3156 190.599 22.3163 190.6 22.3167C190.6 22.317 190.6 22.3171 190.601 22.3172C190.601 22.3172 190.601 22.3173 190.601 22.3173C190.601 22.3173 190.601 22.3173 190.601 22.3173C190.601 22.3173 190.601 22.3172 190.601 22.3172C190.601 22.3172 190.601 22.3172 191 21.4004ZM185.805 18.2533C184.697 17.8341 183.435 17.3674 182.03 16.8635L181.355 18.7462C182.749 19.2459 183.999 19.7086 185.097 20.1239L185.805 18.2533ZM178.226 15.5333C177.028 15.1248 175.758 14.701 174.42 14.2659L173.801 16.168C175.13 16.6 176.391 17.0207 177.58 17.4262L178.226 15.5333ZM170.571 13.0448C169.339 12.6635 168.062 12.2768 166.74 11.8872L166.175 13.8055C167.487 14.1925 168.756 14.5766 169.979 14.9553L170.571 13.0448ZM162.884 10.7782C161.626 10.4253 160.334 10.0719 159.01 9.71966L158.496 11.6524C159.811 12.0023 161.094 12.3534 162.344 12.7039L162.884 10.7782ZM155.12 8.71264C153.845 8.39147 152.544 8.07272 151.218 7.75776L150.756 9.7036C152.073 10.0164 153.365 10.3331 154.632 10.6521L155.12 8.71264ZM147.303 6.85562C146.015 6.56781 144.706 6.28451 143.377 6.00687L142.968 7.96457C144.287 8.24031 145.588 8.52167 146.868 8.80753L147.303 6.85562ZM139.439 5.21231C138.139 4.95939 136.822 4.7126 135.489 4.47293L135.135 6.44134C136.458 6.67931 137.766 6.92436 139.057 7.17552L139.439 5.21231ZM131.528 3.78983C130.218 3.57357 128.893 3.36477 127.556 3.16433L127.26 5.14223C128.587 5.34119 129.901 5.54845 131.203 5.76315L131.528 3.78983ZM123.574 2.59785C122.257 2.42063 120.928 2.25204 119.589 2.09286L119.353 4.07887C120.682 4.23681 122 4.40412 123.307 4.58L123.574 2.59785ZM115.599 1.65018C114.274 1.51389 112.941 1.38729 111.599 1.27112L111.426 3.26367C112.757 3.37889 114.08 3.50447 115.394 3.63967L115.599 1.65018ZM107.591 0.957619C106.259 0.864697 104.921 0.78249 103.576 0.71169L103.47 2.70893C104.804 2.77912 106.131 2.86062 107.451 2.95276L107.591 0.957619ZM99.5548 0.535442C98.2218 0.488827 96.8829 0.453861 95.5386 0.431199L95.5049 2.43091C96.8369 2.45337 98.1638 2.48802 99.4849 2.53422L99.5548 0.535442ZM91.5189 0.400731C90.8479 0.401931 90.1759 0.406312 89.5027 0.413953L89.5254 2.41382C90.1921 2.40626 90.8578 2.40192 91.5224 2.40073L91.5189 0.400731ZM89.5027 0.413953C88.7985 0.421945 88.0977 0.433093 87.4003 0.447313L87.441 2.4469C88.1325 2.4328 88.8273 2.42175 89.5254 2.41382L89.5027 0.413953ZM83.2279 0.569916C81.8244 0.623812 80.4352 0.689948 79.0608 0.767607L79.1737 2.76442C80.5361 2.68744 81.9132 2.62187 83.3047 2.56844L83.2279 0.569916ZM74.8956 1.04089C73.4896 1.14596 72.1001 1.26285 70.7272 1.39072L70.9127 3.3821C72.2735 3.25535 73.6509 3.13949 75.0446 3.03532L74.8956 1.04089ZM66.5679 1.81667C65.1659 1.97328 63.7826 2.14102 62.4183 2.31895L62.677 4.30215C64.0291 4.1258 65.4002 3.95954 66.7899 3.80431L66.5679 1.81667ZM58.2796 2.89783C56.8822 3.10653 55.5065 3.32549 54.1528 3.55361L54.4852 5.5258C55.8267 5.29973 57.1901 5.08273 58.575 4.87589L58.2796 2.89783ZM50.0394 4.28662C48.6477 4.54819 47.2815 4.81883 45.9412 5.09721L46.3479 7.05542C47.6759 6.77958 49.0298 6.51141 50.4088 6.25221L50.0394 4.28662ZM41.8606 5.98566C40.4764 6.30101 39.123 6.62372 37.8008 6.95213L38.2829 8.89315C39.5927 8.56783 40.9335 8.24812 42.3049 7.93569L41.8606 5.98566ZM33.7559 7.99936C32.3719 8.37237 31.0268 8.7502 29.7213 9.1306L30.2808 11.0507C31.5735 10.6741 32.9056 10.2999 34.2764 9.93045L33.7559 7.99936ZM25.7189 10.3418C24.3472 10.7726 23.0268 11.2036 21.7588 11.6318L22.3986 13.5267C23.6534 13.103 24.9603 12.6764 26.3181 12.2499L25.7189 10.3418ZM17.7946 13.0198C16.4136 13.521 15.1097 14.0131 13.885 14.4908L14.6117 16.3541C15.822 15.882 17.1111 15.3955 18.4769 14.8998L17.7946 13.0198ZM10.0102 16.0589C8.5686 16.6645 7.28313 17.2305 6.15926 17.7425L6.98839 19.5625C8.09473 19.0585 9.36203 18.5005 10.7848 17.9028L10.0102 16.0589ZM2.37265 19.5516C1.7636 19.8585 1.30081 20.1012 0.988693 20.268C0.832626 20.3514 0.714218 20.4158 0.634033 20.4599C0.593948 20.4819 0.5634 20.4989 0.54248 20.5105C0.532013 20.5163 0.523956 20.5208 0.518311 20.524C0.515503 20.5256 0.513275 20.5268 0.511673 20.5277C0.510864 20.5282 0.510208 20.5285 0.509705 20.5288C0.509445 20.529 0.509232 20.5291 0.509064 20.5292C0.508972 20.5292 0.508896 20.5293 0.50882 20.5293C0.508789 20.5293 0.508743 20.5294 0.508728 20.5294C0.508682 20.5294 0.508636 20.5294 1 21.4004C1.49135 22.2713 1.49132 22.2714 1.49129 22.2714C1.49127 22.2714 1.49124 22.2714 1.49123 22.2714C1.4912 22.2714 1.49118 22.2714 1.49117 22.2715C1.49113 22.2715 1.49115 22.2715 1.4912 22.2714C1.4913 22.2714 1.49155 22.2712 1.49196 22.271C1.49275 22.2706 1.49416 22.2698 1.49617 22.2686C1.50018 22.2664 1.50661 22.2628 1.51543 22.2579C1.53308 22.2481 1.56032 22.233 1.59708 22.2128C1.67061 22.1724 1.78223 22.1116 1.9314 22.0319C2.22975 21.8724 2.67828 21.6372 3.27261 21.3377L2.37265 19.5516Z" fill="#34B6B4"/>
</svg>
