<svg width="45" height="61" viewBox="0 0 45 61" fill="none" xmlns="http://www.w3.org/2000/svg">
<path d="M20.1966 60.0055C19.407 60.3584 18.4775 59.4794 19.0261 58.7288C22.1505 53.6383 23.8301 47.6462 28.5227 43.5916C29.1274 43.0372 30.0737 43.5298 30.0402 44.3026C30.0571 45.4002 30.0123 46.4306 29.8388 47.4554C36.6759 41.5582 48.7934 31.4382 37.9516 24.0638C37.3243 23.6495 36.7531 23.4312 36.182 23.2127C36.1264 27.4688 34.0266 31.2488 28.8803 32.3803C27.4467 32.7052 25.3467 32.0334 24.9658 30.4038C24.0696 27.2679 26.8414 24.3558 29.1708 22.7148C30.8339 21.5611 32.5978 21.0571 34.2723 21.1297C33.908 17.6297 31.931 14.1243 29.2373 12.2653C26.9805 10.7478 24.7908 10.6529 22.8814 11.5377C23.1951 13.2288 23.3857 14.7856 23.3913 16.1408C23.47 20.2735 19.741 27.4025 14.7511 23.4437C10.6293 20.2969 17.6734 12.6021 20.0758 10.7707C20.3446 10.5243 20.6078 10.4067 20.8766 10.1602C20.0812 7.67391 18.6978 5.35563 16.7602 3.91658C11.3782 0.0701093 3.64173 0.397901 0.126542 0.678319C0.126542 0.678319 7.22796 -0.128648 13.3636 0.520186C17.2891 0.755211 21.145 5.46207 22.3325 9.32035C29.1026 6.45271 35.2911 14.0122 36.1371 21.2753C40.0293 22.2831 43.227 25.9059 43.888 29.9995C45.2045 38.3154 36.4188 44.515 30.595 49.3594C32.5998 49.2529 34.6047 49.1465 36.6655 49.2359C37.4383 49.2695 37.9703 50.3894 37.304 50.8767C31.9729 54.7744 26.1773 57.4909 20.1966 60.0055ZM17.4553 16.1415C16.6322 17.2672 14.0733 21.2209 16.4141 22.2903C19.959 23.8637 21.3251 19.1484 21.6217 16.774C21.7504 15.2956 21.6887 13.7444 21.3694 12.1821C19.8407 13.2126 18.5529 14.6406 17.4553 16.1415ZM27.9167 26.3383C27.0993 27.335 25.2962 30.2248 28.0571 30.5381C29.3394 30.7227 30.6778 29.6196 31.484 28.8804C33.2311 27.2787 34.0933 25.2515 34.2557 23.0002C31.8701 22.9611 29.4846 24.4061 27.9167 26.3383ZM27.5991 50.0036L27.6158 49.6171C27.9853 48.5363 28.0916 47.5731 28.1364 46.5427C25.4206 49.6509 23.8921 53.6494 21.9268 57.3063C25.9362 55.6092 29.8281 53.6489 33.4174 51.2239C31.8663 51.2856 30.2479 51.4089 28.6295 51.5322C27.7896 51.5604 27.3136 50.6365 27.5991 50.0036Z" fill="#34B6B4"/>
</svg>
