<svg width="40" height="59" viewBox="0 0 40 59" fill="none" xmlns="http://www.w3.org/2000/svg">
<path d="M25.7683 53.4482C19.3373 55.3125 13.0084 57.6348 6.22198 58.0531C5.52185 58.1098 4.73859 57.2731 5.23836 56.6147C8.77483 51.1351 12.1902 45.6328 16.4343 40.7249C17.1498 39.9189 18.5349 40.5551 18.3303 41.6451C17.9437 43.7039 17.6783 45.7857 17.6058 47.8408C28.1523 40.4175 40.7694 32.3174 35.4214 17.3961C33.0235 10.8023 27.9533 5.08573 21.1599 2.86993C14.0033 0.585514 7.00803 3.78573 1.42803 8.12934C0.852631 8.52282 0.118561 7.75809 0.595592 7.22076C11.6958 -4.4868 29.0674 -0.848901 36.1226 13.3272C39.637 20.3188 40.305 27.7789 36.0604 34.6928C32.2665 40.8764 25.6228 45.2083 19.5547 49.1468C21.7119 49.6772 23.8236 50.4498 25.7688 51.4419C26.6922 51.8662 26.7563 53.1947 25.7683 53.4482ZM16.5947 50.2211C16.1558 49.8879 16.1748 49.4526 16.436 49.0627L16.4588 48.9417C16.0315 47.545 15.9183 46.1446 15.9262 44.7669C13.1396 48.2558 10.6709 52.0552 8.22497 55.7335C13.0281 55.1935 17.5779 53.6655 22.1542 52.3307C20.1899 51.7737 18.2748 51.2887 16.5947 50.2211Z" fill="#34B6B4"/>
</svg>
