<svg width="93" height="21" viewBox="0 0 93 21" fill="none" xmlns="http://www.w3.org/2000/svg">
<path d="M9.64483 1.99192e-06C9.32235 0.000757305 9.00733 0.097218 8.7396 0.277188C8.47187 0.457158 8.26344 0.712557 8.14067 1.0111C8.0179 1.30964 7.9863 1.63793 8.04986 1.95445C8.11342 2.27097 8.26929 2.56152 8.49776 2.78937C8.72624 3.01722 9.01706 3.17213 9.33346 3.23453C9.64986 3.29693 9.97764 3.26401 10.2754 3.13994C10.5731 3.01587 10.8274 2.80621 11.0061 2.53747C11.1848 2.26873 11.2799 1.95297 11.2794 1.63012C11.2784 1.19699 11.1057 0.78199 10.7992 0.47632C10.4927 0.170651 10.0775 -0.000673841 9.64483 1.99192e-06Z" fill="white"/>
<path d="M9.64483 17.3433C9.32235 17.3441 9.00733 17.4406 8.7396 17.6205C8.47187 17.8005 8.26344 18.0559 8.14067 18.3544C8.0179 18.653 7.9863 18.9813 8.04986 19.2978C8.11342 19.6143 8.26929 19.9049 8.49776 20.1327C8.72624 20.3606 9.01706 20.5155 9.33346 20.5779C9.64986 20.6403 9.97764 20.6074 10.2754 20.4833C10.5731 20.3592 10.8274 20.1495 11.0061 19.8808C11.1848 19.6121 11.2799 19.2963 11.2794 18.9735C11.2784 18.5403 11.1057 18.1253 10.7992 17.8197C10.4927 17.514 10.0775 17.3427 9.64483 17.3433Z" fill="white"/>
<path d="M15.8019 2.04368C15.3675 2.04468 14.9432 2.1746 14.5826 2.417C14.222 2.65941 13.9413 3.00341 13.7759 3.40552C13.6106 3.80763 13.568 4.2498 13.6536 4.67612C13.7393 5.10244 13.9492 5.49377 14.257 5.80063C14.5648 6.1075 14.9565 6.31612 15.3827 6.40012C15.8088 6.48413 16.2503 6.43974 16.6513 6.27257C17.0523 6.10541 17.3947 5.82297 17.6354 5.46097C17.876 5.09896 18.0041 4.67365 18.0033 4.23879C18.001 3.6558 17.768 3.09748 17.3554 2.68607C16.9428 2.27466 16.3842 2.04367 15.8019 2.04368Z" fill="white"/>
<path d="M15.8019 14.1709C15.3675 14.1719 14.9432 14.3018 14.5826 14.5442C14.222 14.7866 13.9413 15.1306 13.7759 15.5328C13.6106 15.9349 13.568 16.377 13.6536 16.8034C13.7393 17.2297 13.9492 17.621 14.257 17.9279C14.5648 18.2347 14.9565 18.4434 15.3827 18.5274C15.8088 18.6114 16.2503 18.567 16.6513 18.3998C17.0523 18.2326 17.3947 17.9502 17.6354 17.5882C17.876 17.2262 18.0041 16.8009 18.0033 16.366C18.001 15.783 17.768 15.2247 17.3554 14.8133C16.9428 14.4019 16.3842 14.1709 15.8019 14.1709Z" fill="white"/>
<path d="M1.92693 10.2668C1.92693 10.4576 1.87043 10.6441 1.76456 10.8027C1.65869 10.9613 1.50822 11.0849 1.33217 11.1579C1.15612 11.231 0.962399 11.2501 0.775504 11.2128C0.58861 11.1756 0.416937 11.0837 0.282193 10.9488C0.14745 10.814 0.0556887 10.6421 0.0185131 10.455C-0.0186625 10.2679 0.00041759 10.0739 0.0733401 9.89766C0.146263 9.72141 0.269752 9.57076 0.428194 9.46477C0.586635 9.35878 0.772911 9.30221 0.963467 9.30221C1.21899 9.30221 1.46406 9.40383 1.64474 9.58473C1.82543 9.76562 1.92693 10.011 1.92693 10.2668Z" fill="white"/>
<path d="M4.60859 4.24389C4.60884 4.47731 4.53992 4.70555 4.41054 4.89974C4.28117 5.09392 4.09716 5.24532 3.88181 5.33476C3.66645 5.4242 3.42944 5.44767 3.20075 5.40219C2.97207 5.35672 2.76201 5.24434 2.59715 5.07929C2.43228 4.91424 2.32004 4.70393 2.27461 4.47498C2.22919 4.24604 2.25263 4.00875 2.34197 3.79314C2.43131 3.57754 2.58253 3.39332 2.77649 3.2638C2.97045 3.13427 3.19843 3.06527 3.43158 3.06552C3.74364 3.06586 4.04282 3.19012 4.26348 3.41103C4.48414 3.63194 4.60825 3.93147 4.60859 4.24389Z" fill="white"/>
<path d="M4.60859 16.3699C4.60884 16.6033 4.53992 16.8316 4.41054 17.0257C4.28117 17.2199 4.09716 17.3713 3.88181 17.4608C3.66645 17.5502 3.42944 17.5737 3.20075 17.5282C2.97207 17.4827 2.76201 17.3703 2.59715 17.2053C2.43228 17.0402 2.32004 16.8299 2.27461 16.601C2.22919 16.372 2.25263 16.1348 2.34197 15.9192C2.43131 15.7035 2.58253 15.5193 2.77649 15.3898C2.97045 15.2603 3.19843 15.1913 3.43158 15.1915C3.74375 15.1915 4.04312 15.3157 4.26385 15.5367C4.48458 15.7577 4.60859 16.0574 4.60859 16.3699Z" fill="white"/>
<path d="M18.297 7.37559C17.7258 7.37685 17.1678 7.54764 16.6936 7.86638C16.2194 8.18511 15.8503 8.63747 15.6329 9.16624C15.4154 9.69502 15.3595 10.2765 15.4722 10.8371C15.5849 11.3976 15.861 11.9122 16.2658 12.3156C16.6706 12.7191 17.1857 12.9933 17.7462 13.1036C18.3066 13.214 18.8871 13.1554 19.4143 12.9354C19.9415 12.7155 20.3917 12.3439 20.708 11.8677C21.0243 11.3916 21.1924 10.8322 21.1912 10.2604C21.1878 9.4926 20.8802 8.75751 20.3358 8.21661C19.7915 7.6757 19.055 7.37322 18.2881 7.37559" fill="white"/>
<path d="M64.5865 4.72109C62.3647 4.72109 59.004 5.83456 59.004 10.179C59.004 14.5234 62.6672 15.6012 64.5865 15.6012C66.5058 15.6012 70.1716 14.5247 70.1716 10.179C70.1716 5.83328 66.8096 4.72109 64.5865 4.72109ZM67.3587 10.1612C67.3587 12.9786 65.7546 13.6759 64.589 13.6759C63.4235 13.6759 61.8181 12.9786 61.8168 10.1612C61.8168 7.34378 63.5175 6.64644 64.5865 6.64644C65.6555 6.64644 67.3587 7.34378 67.3587 10.1612Z" fill="white"/>
<path d="M54.6048 9.72724L58.9264 4.83436H55.7844L51.8186 9.3633V1.67847C51.8186 0.984945 51.3941 -0.012721 49.7099 0.00763947C49.5096 0.00929348 49.3096 0.0245993 49.1113 0.0534507V15.4638H51.8186V10.0759L56.097 15.4651H59.1819L54.6061 9.72724H54.6048Z" fill="white"/>
<path d="M77.5515 4.73126C75.9207 4.73126 74.9369 5.31026 74.5009 5.64239C74.4437 5.68057 74.3878 5.71747 74.3306 5.75819C74.0764 5.24155 73.5044 4.7249 72.33 4.7249C72.1236 4.72534 71.9176 4.74065 71.7135 4.77071V15.4778H74.5009V7.46084C75.242 6.74695 77.2973 6.37156 78.2353 7.33359C78.7628 7.87696 78.8709 8.6443 78.8709 9.36201V15.4803H81.6583V8.83009C81.6609 6.10433 79.5611 4.73126 77.5515 4.73126Z" fill="white"/>
<path d="M32.0627 4.70966C30.4519 4.71418 28.8717 5.15097 27.4868 5.97456L28.3295 7.48378C29.5892 6.79153 31.4589 6.43649 32.6029 6.69609C33.4443 6.8857 33.7989 7.45961 33.9781 7.99661C34.0709 8.27657 34.0506 9.15971 34.0506 9.15971V8.87466C32.566 8.53999 26.9657 7.80955 26.9657 12.2469C26.9657 13.9012 28.0169 15.2399 30.287 15.5326C31.6042 15.7212 32.9445 15.4148 34.0493 14.6723C34.1065 14.6341 34.1637 14.5972 34.2197 14.5565C34.4739 15.0732 35.0471 15.5898 36.2203 15.5898C36.4266 15.5894 36.6327 15.5741 36.8368 15.544V8.34784C36.833 5.41083 33.8409 4.70966 32.0627 4.70966ZM34.0493 12.8564C32.9499 13.5449 32.0156 13.6658 31.464 13.6658C30.8285 13.6658 29.7214 13.4112 29.6553 12.0802C29.5383 9.73235 32.5457 10.0848 34.0493 10.4093V12.8564Z" fill="white"/>
<path d="M42.1425 8.64181C41.0723 8.27787 40.9986 7.84902 41.099 7.41C41.3901 6.13747 44.3911 6.56885 46.0561 7.41L46.8773 5.88296C45.9875 5.2976 44.3936 4.69823 42.6484 4.69823C41.132 4.69823 39.7453 5.07999 38.975 6.238C38.2391 7.3451 38.3471 9.02357 39.6004 9.92834C40.555 10.6168 42.3357 11.1283 43.5928 11.3968C44.3669 11.5623 45.0164 11.8957 44.8181 12.7572C44.597 13.7154 42.4031 14.4446 39.4339 12.154L38.3776 13.5258C38.3776 13.5258 40.0211 15.4231 42.7374 15.5797C45.5261 15.7387 47.5865 14.2155 47.4467 12.1235C47.2802 9.58984 44.719 9.51986 42.1425 8.64181Z" fill="white"/>
<path d="M88.2271 4.70966C86.6163 4.71418 85.0362 5.15097 83.6513 5.97456L84.4915 7.48378C85.7511 6.79153 87.6208 6.43649 88.7661 6.69609C89.6063 6.8857 89.9609 7.45961 90.1401 7.99661C90.2342 8.27657 90.2125 9.15971 90.2125 9.15971V8.87466C88.7279 8.53999 83.1276 7.80955 83.1276 12.2469C83.1276 13.9012 84.1788 15.2399 86.4502 15.5326C87.7674 15.7213 89.1078 15.4149 90.2125 14.6723C90.2697 14.6341 90.327 14.5972 90.3829 14.5565C90.6371 15.0732 91.2103 15.5898 92.3835 15.5898C92.5899 15.5894 92.7959 15.5741 93 15.544V8.34784C92.9975 5.41083 90.0054 4.70966 88.2271 4.70966ZM90.21 12.8564C89.1118 13.5449 88.1763 13.6658 87.6259 13.6658C86.9904 13.6658 85.882 13.4112 85.8159 12.0802C85.699 9.73235 88.7063 10.0848 90.21 10.4093V12.8564Z" fill="white"/>
</svg>
