<svg width="22" height="63" viewBox="0 0 22 63" fill="none" xmlns="http://www.w3.org/2000/svg">
<path d="M20.3896 62.5104C20.8682 62.786 21.4796 62.6214 21.7552 62.1428C22.0308 61.6642 21.8663 61.0528 21.3877 60.7772L20.3896 62.5104ZM1.48856 33.6709L0.489729 33.7193L1.48856 33.6709ZM19.998 1.00003C19.3755 0.217382 19.3755 0.217413 19.3754 0.217446C19.3754 0.217459 19.3754 0.217493 19.3753 0.217519C19.3753 0.217571 19.3752 0.21763 19.3751 0.217696C19.3749 0.217828 19.3747 0.217986 19.3745 0.218171C19.374 0.218542 19.3734 0.219019 19.3727 0.219604C19.3712 0.220773 19.3692 0.222371 19.3667 0.224394C19.3617 0.228441 19.3545 0.234193 19.3452 0.241634C19.3268 0.256515 19.3 0.278154 19.2654 0.306422C19.1961 0.362956 19.0951 0.44602 18.9656 0.554598C18.7065 0.771737 18.3329 1.09103 17.8684 1.50437L19.1981 2.99837C19.6467 2.59913 20.0053 2.29277 20.2504 2.08738C20.3729 1.98469 20.4669 1.90728 20.5296 1.85615C20.5609 1.83059 20.5844 1.8116 20.5997 1.79932C20.6073 1.79317 20.6129 1.7887 20.6164 1.78593C20.6181 1.78454 20.6193 1.78357 20.62 1.78303C20.6203 1.78276 20.6205 1.7826 20.6206 1.78254C20.6206 1.78251 20.6206 1.78251 20.6206 1.78253C20.6206 1.78255 20.6206 1.78256 20.6205 1.78259C20.6205 1.7826 20.6205 1.78263 20.6205 1.78263C20.6204 1.78266 20.6204 1.78269 19.998 1.00003ZM15.0038 4.21366C14.1643 5.0542 13.2482 6.01335 12.2976 7.07686L13.7887 8.4097C14.7122 7.37655 15.6027 6.44425 16.4189 5.62702L15.0038 4.21366ZM9.76108 10.0865C8.97017 11.0843 8.18004 12.1432 7.41323 13.2554L9.05985 14.3906C9.79906 13.3184 10.5624 12.2953 11.3284 11.3288L9.76108 10.0865ZM5.291 16.5969C4.63333 17.7295 4.01437 18.9042 3.45313 20.1147L5.26758 20.956C5.80061 19.8064 6.39065 18.6861 7.02059 17.6011L5.291 16.5969ZM1.9716 23.8174C1.54779 25.0803 1.19859 26.3739 0.943187 27.6916L2.90665 28.0721C3.14381 26.8485 3.46942 25.6405 3.86769 24.4536L1.9716 23.8174ZM0.478159 31.6946C0.453734 32.3656 0.456823 33.0407 0.489729 33.7193L2.48738 33.6225C2.45729 33.002 2.45441 32.3834 2.47684 31.7674L0.478159 31.6946ZM0.489729 33.7193C0.527388 34.4959 0.599444 35.2596 0.70282 36.01L2.6841 35.737C2.58863 35.044 2.52213 34.3391 2.48738 33.6225L0.489729 33.7193ZM1.71504 40.4786C2.18278 41.9568 2.76343 43.3691 3.42642 44.7122L5.21982 43.8269C4.59794 42.5672 4.05652 41.2489 3.62187 39.8752L1.71504 40.4786ZM5.70856 48.6454C6.5704 49.9339 7.49253 51.1402 8.43804 52.2605L9.96643 50.9705C9.06366 49.9008 8.18721 48.7538 7.37094 47.5335L5.70856 48.6454ZM11.5144 55.5624C12.6757 56.6972 13.8165 57.7016 14.8722 58.5688L16.1417 57.0233C15.1248 56.1881 14.0275 55.2218 12.9121 54.132L11.5144 55.5624ZM18.4725 61.278C19.0571 61.6785 19.5317 61.9838 19.8624 62.1904C20.0277 62.2937 20.1571 62.3723 20.2464 62.4258C20.291 62.4525 20.3256 62.473 20.3497 62.4871C20.3617 62.4941 20.3711 62.4996 20.3777 62.5035C20.3811 62.5054 20.3837 62.507 20.3857 62.5081C20.3867 62.5087 20.3875 62.5092 20.3882 62.5095C20.3885 62.5097 20.3888 62.5099 20.389 62.51C20.3891 62.5101 20.3892 62.5101 20.3893 62.5102C20.3894 62.5102 20.3894 62.5103 20.3894 62.5103C20.3895 62.5103 20.3896 62.5104 20.8886 61.6438C21.3877 60.7772 21.3877 60.7772 21.3878 60.7773C21.3878 60.7773 21.3878 60.7773 21.3878 60.7773C21.3879 60.7773 21.3879 60.7774 21.388 60.7774C21.388 60.7774 21.3881 60.7774 21.388 60.7774C21.388 60.7774 21.3878 60.7773 21.3874 60.777C21.3866 60.7766 21.3852 60.7758 21.3831 60.7745C21.3788 60.7721 21.3719 60.768 21.3624 60.7624C21.3433 60.7512 21.3137 60.7337 21.2742 60.7101C21.1952 60.6627 21.0764 60.5906 20.922 60.4942C20.6132 60.3012 20.1623 60.0112 19.6028 59.628L18.4725 61.278Z" fill="#34B6B4"/>
</svg>
