<svg width="25" height="61" viewBox="0 0 25 61" fill="none" xmlns="http://www.w3.org/2000/svg">
<path d="M1.43173 0.0979939C0.933566 -0.140444 0.336434 0.0701086 0.0979963 0.56827C-0.140441 1.06643 0.070109 1.66356 0.56827 1.902L1.43173 0.0979939ZM1.00001 60C1.52699 60.8499 1.52703 60.8498 1.52707 60.8498C1.52709 60.8498 1.52713 60.8498 1.52717 60.8498C1.52723 60.8497 1.52731 60.8497 1.5274 60.8496C1.52757 60.8495 1.52778 60.8494 1.52803 60.8492C1.52852 60.8489 1.52917 60.8485 1.52998 60.848C1.53158 60.847 1.5338 60.8456 1.53662 60.8439C1.54227 60.8404 1.55032 60.8353 1.56075 60.8288C1.58159 60.8157 1.61189 60.7966 1.65125 60.7716C1.72997 60.7216 1.8449 60.6479 1.9928 60.5514C2.28857 60.3584 2.7163 60.0741 3.24983 59.7053L2.11257 58.0601C1.5948 58.418 1.18193 58.6924 0.899927 58.8764C0.758936 58.9684 0.650696 59.0377 0.578451 59.0837C0.542332 59.1066 0.515213 59.1237 0.497503 59.1348C0.488649 59.1404 0.482147 59.1444 0.478048 59.147C0.476 59.1483 0.47455 59.1492 0.473711 59.1497C0.473289 59.15 0.47302 59.1501 0.472904 59.1502C0.472847 59.1502 0.472826 59.1502 0.472845 59.1502C0.472855 59.1502 0.472874 59.1502 0.472902 59.1502C0.472916 59.1502 0.472944 59.1502 0.472952 59.1502C0.472982 59.1502 0.473015 59.1501 1.00001 60ZM6.56527 57.2759C7.54851 56.5153 8.62662 55.6451 9.75225 54.6777L8.4486 53.1609C7.35191 54.1035 6.30076 54.952 5.34156 55.6939L6.56527 57.2759ZM12.7982 51.9094C13.762 50.9813 14.7308 49.9938 15.6781 48.9535L14.1993 47.607C13.2846 48.6115 12.3467 49.5676 11.411 50.4687L12.7982 51.9094ZM18.3432 45.7919C19.1893 44.7007 19.9932 43.565 20.7307 42.3908L19.0371 41.327C18.3385 42.4393 17.5732 43.5211 16.7627 44.5665L18.3432 45.7919ZM22.7373 38.7211C23.3323 37.4401 23.8327 36.1217 24.2104 34.7727L22.2844 34.2335C21.939 35.467 21.4782 36.6841 20.9234 37.8787L22.7373 38.7211ZM24.9513 30.5857C25.0018 29.8771 25.0138 29.1628 24.9836 28.4439L22.9854 28.5279C23.0123 29.169 23.0017 29.8077 22.9564 30.4433L24.9513 30.5857ZM24.9836 28.4439C24.9557 27.7813 24.8961 27.128 24.807 26.4843L22.8259 26.7583C22.9064 27.3401 22.9602 27.93 22.9854 28.5279L24.9836 28.4439ZM23.9175 22.6697C23.5086 21.4267 22.9972 20.2294 22.4059 19.08L20.6274 19.9948C21.1749 21.0592 21.6443 22.1598 22.0176 23.2946L23.9175 22.6697ZM20.407 15.7653C19.6709 14.7036 18.8754 13.6909 18.0425 12.7294L16.5308 14.0388C17.3216 14.9518 18.0722 15.9079 18.7633 16.9048L20.407 15.7653ZM15.4039 9.95119C14.4652 9.04479 13.508 8.19595 12.5576 7.40706L11.2802 8.94599C12.1962 9.70628 13.1156 10.5218 14.0145 11.3899L15.4039 9.95119ZM9.5497 5.07525C8.43619 4.26788 7.37137 3.55292 6.40119 2.93492L5.32668 4.62175C6.2669 5.22067 7.29819 5.91315 8.37569 6.69442L9.5497 5.07525ZM3.1299 0.988474C2.60487 0.698557 2.18402 0.477709 1.89267 0.328493C1.74697 0.253878 1.63361 0.197149 1.55575 0.158632C1.51681 0.139372 1.48675 0.124662 1.46595 0.114546C1.45555 0.109484 1.44746 0.105574 1.44174 0.102812C1.43888 0.101431 1.43662 0.10034 1.43494 0.0995389C1.43411 0.0991345 1.43342 0.0988064 1.43289 0.0985509C1.43262 0.0984212 1.43239 0.0983105 1.43219 0.098219C1.4321 0.0981732 1.43201 0.0981312 1.43193 0.0980931C1.43189 0.098074 1.43184 0.0980511 1.43182 0.0980397C1.43177 0.0980168 1.43173 0.0979939 1 0.999998C0.56827 1.902 0.568228 1.90198 0.56819 1.90196C0.568181 1.90196 0.568143 1.90194 0.568124 1.90193C0.568083 1.90191 0.568053 1.9019 0.56803 1.90189C0.567988 1.90187 0.567982 1.90187 0.568015 1.90188C0.568078 1.90191 0.568291 1.90201 0.568654 1.90219C0.569377 1.90253 0.570693 1.90317 0.572596 1.90409C0.576403 1.90592 0.582562 1.9089 0.591019 1.91302C0.607934 1.92124 0.634049 1.93402 0.668969 1.95129C0.738814 1.98584 0.843869 2.03839 0.980994 2.10862C1.25527 2.24909 1.65767 2.46018 2.1631 2.73928L3.1299 0.988474Z" fill="#34B6B4"/>
</svg>
