<svg width="60" height="60" viewBox="0 0 60 60" fill="none" xmlns="http://www.w3.org/2000/svg">
<path d="M47.501 23.954L46.655 21.745L51.026 20.1C48.864 15.118 45.01 11.123 40.169 8.679L38.289 12.862L36.127 11.875L38.007 7.645C35.375 6.611 32.508 6 29.5 6C27.009 6 24.612 6.517 22.356 7.175L23.954 11.499L21.745 12.345L20.1 7.974C15.118 10.136 11.123 13.99 8.679 18.831L12.862 20.711L11.875 22.873L7.645 20.993C6.611 23.625 6 26.492 6 29.5C6 31.991 6.517 34.388 7.175 36.644L11.499 35.046L12.345 37.255L7.974 38.9C10.136 43.882 13.99 47.877 18.831 50.321L20.711 46.138L22.873 47.125L20.993 51.355C23.625 52.389 26.492 53 29.5 53C31.991 53 34.388 52.483 36.644 51.825L35.046 47.501L37.255 46.655L38.9 51.026C43.882 48.864 47.877 45.01 50.321 40.169L46.138 38.289L47.125 36.127L51.355 38.007C52.389 35.375 53 32.508 53 29.5C53 27.009 52.483 24.612 51.825 22.356L47.501 23.954ZM34.905 42.519C27.714 45.48 19.442 42.096 16.481 34.905C13.52 27.714 16.904 19.442 24.095 16.481C31.286 13.52 39.558 16.904 42.519 24.095C43.2328 25.8042 43.602 27.6375 43.6054 29.4898C43.6088 31.342 43.2464 33.1767 42.539 34.8886C41.8315 36.6004 40.793 38.1557 39.483 39.4651C38.1729 40.7745 36.6172 41.8124 34.905 42.519Z" fill="#FFA300"/>
<path d="M58.5 30C58.5 45.7401 45.7401 58.5 30 58.5C14.2599 58.5 1.5 45.7401 1.5 30C1.5 14.2599 14.2599 1.5 30 1.5C45.7401 1.5 58.5 14.2599 58.5 30Z" stroke="#2B2A29" stroke-width="3"/>
</svg>
