<svg width="55" height="54" viewBox="0 0 55 54" fill="none" xmlns="http://www.w3.org/2000/svg">
<path d="M14.9552 41.7169L23 33.6721L20.3279 31L12.2831 39.0448L10.7845 37.5462C10.4301 37.1919 9.94955 36.9929 9.44845 36.9929C8.94735 36.9929 8.46677 37.1919 8.11238 37.5462L0.553299 45.1053C0.199022 45.4596 0 45.9402 0 46.4413C0 46.9424 0.199022 47.423 0.553299 47.7774L6.22261 53.4467C6.577 53.801 7.05758 54 7.55868 54C8.05978 54 8.54036 53.801 8.89475 53.4467L16.4538 45.8876C16.8081 45.5332 17.0071 45.0526 17.0071 44.5515C17.0071 44.0504 16.8081 43.5699 16.4538 43.2155L14.9552 41.7169ZM7.55868 49.4385L4.5615 46.4413L9.44845 41.5544L12.4456 44.5515L7.55868 49.4385Z" fill="#2B2A29"/>
<path d="M42.8573 52C39.903 51.9966 37.0708 50.8215 34.9818 48.7325C32.8928 46.6435 31.7178 43.8112 31.7143 40.857C31.7151 39.8862 31.8463 38.9199 32.1043 37.9839L16.0176 21.8953C15.0811 22.1533 14.1142 22.2845 13.1427 22.2853C11.3272 22.2926 9.53767 21.8543 7.93095 21.009C6.32422 20.1637 4.94941 18.9371 3.92703 17.4368C2.90466 15.9365 2.26595 14.2083 2.06691 12.4037C1.86786 10.5992 2.11456 8.7733 2.78536 7.08624L3.82166 4.4472L9.97257 10.5981C10.326 10.9357 10.7959 11.124 11.2846 11.124C11.7734 11.124 12.2433 10.9357 12.5967 10.5981C12.7693 10.4258 12.9063 10.2212 12.9997 9.99585C13.0932 9.77055 13.1413 9.52904 13.1413 9.28513C13.1413 9.04122 13.0932 8.7997 12.9997 8.5744C12.9063 8.3491 12.7693 8.14443 12.5967 7.97211L6.44768 1.81745L9.09042 0.783011C10.7774 0.113396 12.6029 -0.132314 14.4069 0.0674075C16.211 0.267129 17.9385 0.906187 19.4382 1.9286C20.9379 2.95101 22.164 4.32558 23.0091 5.93189C23.8542 7.5382 24.2925 9.32725 24.2857 11.1423C24.2848 12.1131 24.1537 13.0794 23.8957 14.0153L39.9842 30.104C40.9202 29.8463 41.8865 29.7151 42.8573 29.714C44.6728 29.7067 46.4623 30.145 48.0691 30.9903C49.6758 31.8356 51.0506 33.0622 52.073 34.5625C53.0953 36.0628 53.7341 37.791 53.9331 39.5955C54.1321 41.4001 53.8854 43.226 53.2146 44.913L52.1802 47.5521L46.0274 41.4011C45.674 41.0636 45.2041 40.8753 44.7154 40.8753C44.2266 40.8753 43.7567 41.0636 43.4033 41.4011C43.2305 41.5733 43.0934 41.7779 42.9999 42.0031C42.9063 42.2284 42.858 42.4699 42.8578 42.7138C42.8576 42.9577 42.9056 43.1992 42.9988 43.4246C43.0921 43.65 43.2289 43.8547 43.4014 44.0272L49.5542 50.18L46.9133 51.2163C45.6225 51.7297 44.2465 51.9956 42.8573 52ZM16.9722 17.5978L36.3999 37.0257L35.9561 38.1585C35.5211 39.2459 35.3511 40.4211 35.46 41.5871C35.569 42.7532 35.9538 43.8766 36.5826 44.8645C37.2115 45.8525 38.0664 46.6766 39.0767 47.2689C40.087 47.8612 41.2237 48.2046 42.393 48.2708L40.7754 46.6551C40.2579 46.1377 39.8475 45.5235 39.5674 44.8474C39.2873 44.1714 39.1432 43.4468 39.1432 42.7151C39.1432 41.9833 39.2873 41.2588 39.5674 40.5827C39.8475 39.9067 40.2579 39.2925 40.7754 38.7751C41.8368 37.7616 43.2478 37.1962 44.7154 37.1962C46.1829 37.1962 47.5939 37.7616 48.6553 38.7751L50.271 40.3927C50.2046 39.2234 49.8609 38.0867 49.2684 37.0764C48.6759 36.0661 47.8516 35.2112 46.8635 34.5824C45.8754 33.9536 44.752 33.5688 43.5858 33.4598C42.4197 33.3509 41.2444 33.5208 40.157 33.9558L39.026 34.3996L19.6001 14.9736L20.0458 13.8408C20.4808 12.7533 20.6508 11.5779 20.5417 10.4117C20.4327 9.24553 20.0477 8.12204 19.4186 7.13405C18.7896 6.14607 17.9344 5.32195 16.9239 4.72978C15.9134 4.13761 14.7764 3.79439 13.607 3.72848L15.2228 5.34422C15.7402 5.86159 16.1507 6.47583 16.4307 7.15186C16.7108 7.82789 16.8549 8.55246 16.8549 9.2842C16.8549 10.0159 16.7108 10.7405 16.4307 11.4165C16.1507 12.0926 15.7402 12.7068 15.2228 13.2242C14.1614 14.2376 12.7503 14.8031 11.2828 14.8031C9.81528 14.8031 8.4042 14.2376 7.34283 13.2242L5.7271 11.6066C5.79329 12.7758 6.13671 13.9126 6.729 14.9229C7.32128 15.9332 8.14543 16.7881 9.13337 17.4169C10.1213 18.0458 11.2447 18.4306 12.4107 18.5396C13.5768 18.6485 14.752 18.4785 15.8393 18.0435L16.9722 17.5978Z" fill="#FFA300"/>
<path d="M53.3302 1.62287C52.2416 0.581223 50.7943 6.65068e-09 49.2891 6.65068e-09C47.7839 6.65068e-09 46.3367 0.581223 45.248 1.62287L31 15.9009L33.6934 18.5999L47.9415 4.32195C48.3043 3.97492 48.7866 3.78129 49.2882 3.78129C49.7897 3.78129 50.272 3.97492 50.6349 4.32195C50.991 4.6804 51.191 5.16564 51.191 5.67148C51.191 6.17733 50.991 6.66257 50.6349 7.02102L36.3868 21.299L39.0802 24L53.3283 9.722C54.3988 8.64731 55 7.19089 55 5.67244C55 4.15398 54.3988 2.69756 53.3283 1.62287H53.3302Z" fill="#2B2A29"/>
</svg>
