<svg width="50" height="60" viewBox="0 0 50 60" fill="none" xmlns="http://www.w3.org/2000/svg">
<path d="M31.4182 43.0298C30.1892 43.9438 29.0171 44.0017 28.3115 43.9207C26.5249 43.7124 24.9317 42.3471 24.0327 40.2645C23.4296 38.8645 23.111 36.9785 23.4751 35C20.6415 36.5388 17 40.0446 17 47.8661C17 52.3438 20.5846 56 25 56C29.4154 56 33 52.3554 33 47.8661C32.9886 46.1074 32.4196 44.4182 31.4182 43.0298Z" fill="#FFA300"/>
<path d="M49.9523 34.0664L49.6777 29.3438L46.7415 33.0938C46.5027 33.3867 46.0134 33.9258 45.3688 34.4062C45.6195 33.5859 45.8463 32.6602 45.9895 31.6289C46.5027 28.0664 46.1805 22.5938 41.7403 16.7812L39.8783 14.3438L38.6608 17.1445C37.2523 20.3789 34.9725 22.0078 32.8599 21.2812C31.2246 20.7188 29.9117 18.8906 29.2313 16.2539C28.5987 13.793 28.2287 9.46875 30.0788 2.82422L30.8666 0L27.9661 0.644531C18.1666 2.8125 11.5541 9.64453 8.86847 20.4023C7.73454 24.9258 7.51969 29.2148 7.5555 32.1094C5.23991 30.2695 4.08212 28.6523 4.05825 28.6172L1.83815 25.4414L0.835522 29.168C0.286465 31.2188 0 33.3398 0 35.4609C0 48.8906 11.0528 59.8359 24.6956 60C18.2382 59.8359 13.0341 54.6328 13.0341 48.2578C13.0341 40.0312 16.6269 35.6484 19.6467 33.4219C22.941 30.9961 26.2592 30.5625 26.4025 30.5391L30.5443 30.0234L28.0616 33.3281C26.498 35.4023 26.6293 37.6992 27.2738 39.1406C27.7393 40.1836 28.4197 40.7109 28.8852 40.7578C29.47 40.8281 30.0549 40.1602 30.3533 39.7617L31.523 38.2031L32.9912 39.5039C35.5216 41.7305 36.9659 44.918 36.9659 48.2461C36.9659 54.6211 31.7618 59.8359 25.3044 59.9883C38.9472 59.8242 50 48.8789 50 35.4492C49.9881 35.0156 49.9761 34.5469 49.9523 34.0664Z" fill="#2B2A29"/>
</svg>
