<svg width="54" height="54" viewBox="0 0 54 54" fill="none" xmlns="http://www.w3.org/2000/svg">
<path d="M47.25 27C47.25 37.6066 47.25 42.9099 44.2845 46.205C41.3189 49.5 36.5459 49.5 27 49.5C17.4541 49.5 12.6811 49.5 9.71554 46.205C6.75 42.9099 6.75 37.6066 6.75 27C6.75 16.3934 6.75 11.0901 9.71554 7.79505C12.6811 4.5 17.4541 4.5 27 4.5C36.5459 4.5 41.3189 4.5 44.2845 7.79505C46.2563 9.98596 46.917 13.0647 47.1384 18" stroke="#767676" stroke-width="2" stroke-linecap="round"/>
<path d="M15.75 18C15.75 16.9538 15.75 16.4307 15.865 16.0015C16.1771 14.8368 17.0868 13.9271 18.2515 13.615C18.6807 13.5 19.2038 13.5 20.25 13.5H33.75C34.7962 13.5 35.3193 13.5 35.7485 13.615C36.9132 13.9271 37.8229 14.8368 38.135 16.0015C38.25 16.4307 38.25 16.9538 38.25 18C38.25 19.0462 38.25 19.5693 38.135 19.9985C37.8229 21.1632 36.9132 22.0729 35.7485 22.385C35.3193 22.5 34.7962 22.5 33.75 22.5H20.25C19.2038 22.5 18.6807 22.5 18.2515 22.385C17.0868 22.0729 16.1771 21.1632 15.865 19.9985C15.75 19.5693 15.75 19.0462 15.75 18Z" stroke="#116893" stroke-width="2"/>
<circle cx="18" cy="29.25" r="2.25" fill="#116893"/>
<circle cx="18" cy="38.25" r="2.25" fill="#116893"/>
<circle cx="27" cy="29.25" r="2.25" fill="#116893"/>
<circle cx="27" cy="38.25" r="2.25" fill="#116893"/>
<circle cx="36" cy="29.25" r="2.25" fill="#116893"/>
<circle cx="36" cy="38.25" r="2.25" fill="#116893"/>
</svg>
