<svg width="54" height="54" viewBox="0 0 54 54" fill="none" xmlns="http://www.w3.org/2000/svg">
<path d="M49.5 15.75V13.5C49.5 9.25736 49.5 7.13604 48.182 5.81802C46.864 4.5 44.7426 4.5 40.5 4.5L36 4.5C31.7574 4.5 29.636 4.5 28.318 5.81802C27 7.13604 27 9.25736 27 13.5L27 40.5C27 44.7426 27 46.864 28.318 48.182C29.636 49.5 31.7574 49.5 36 49.5H40.5C44.7426 49.5 46.864 49.5 48.182 48.182C49.5 46.864 49.5 44.7426 49.5 40.5V24.75" stroke="#116893" stroke-width="2" stroke-linecap="round"/>
<path d="M27 27H31.5M27 13.5L31.5 13.5M27 40.5H31.5M27 33.75L33.75 33.75M27 20.25L33.75 20.25" stroke="#116893" stroke-width="2" stroke-linecap="round"/>
<path d="M4.5 13.5L4.5 11.25C4.5 7.52208 7.52208 4.5 11.25 4.5C14.9779 4.5 18 7.52208 18 11.25V13.5M4.5 13.5C4.5 13.5 7.03125 15.75 11.25 15.75C15.4688 15.75 18 13.5 18 13.5M4.5 13.5L4.5 23.7291M18 13.5V34.1853C18 35.5863 18 36.2869 17.915 36.9743C17.8148 37.7853 17.6265 38.5828 17.3535 39.353C17.1221 40.0058 16.8088 40.6324 16.1822 41.8856L13.5271 47.1957M13.5271 47.1957L12.8781 48.4938C12.5698 49.1105 11.9395 49.5 11.25 49.5C10.5605 49.5 9.93023 49.1105 9.62189 48.4938L8.97287 47.1957M13.5271 47.1957H8.97287M8.97287 47.1957L6.31779 41.8856C5.69121 40.6324 5.37793 40.0058 5.1465 39.353C4.8735 38.5828 4.68521 37.7853 4.58498 36.9743C4.5 36.2869 4.5 35.5863 4.5 34.1853L4.5 32.2253" stroke="#767676" stroke-width="2" stroke-linecap="round"/>
</svg>
