<svg width="54" height="54" viewBox="0 0 54 54" fill="none" xmlns="http://www.w3.org/2000/svg">
<path d="M42.75 36C42.75 42.364 42.75 45.5459 40.773 47.523C38.7959 49.5 35.614 49.5 29.25 49.5H24.75C18.386 49.5 15.2041 49.5 13.227 47.523C11.25 45.5459 11.25 42.364 11.25 36V27M11.25 18C11.25 11.636 11.25 8.45406 13.227 6.47703C15.2041 4.5 18.386 4.5 24.75 4.5H29.25C35.614 4.5 38.7959 4.5 40.773 6.47703C42.75 8.45406 42.75 11.636 42.75 18V27" stroke="#116893" stroke-width="2" stroke-linecap="round"/>
<path d="M11.25 9.17139C9.05606 9.38719 7.57927 9.8749 6.47703 10.9771C4.5 12.9542 4.5 16.1362 4.5 22.5001V31.5001C4.5 37.8641 4.5 41.0461 6.47703 43.0231C7.57927 44.1253 9.05606 44.613 11.25 44.8288" stroke="#767676" stroke-width="2"/>
<path d="M42.75 9.17139C44.9439 9.38719 46.4207 9.8749 47.523 10.9771C49.5 12.9542 49.5 16.1362 49.5 22.5001V31.5001C49.5 37.8641 49.5 41.0461 47.523 43.0231C46.4207 44.1253 44.9439 44.613 42.75 44.8288" stroke="#767676" stroke-width="2"/>
<path d="M20.25 29.25H33.75" stroke="#116893" stroke-width="2" stroke-linecap="round"/>
<path d="M20.25 20.25H33.75" stroke="#116893" stroke-width="2" stroke-linecap="round"/>
<path d="M20.25 38.25H27" stroke="#116893" stroke-width="2" stroke-linecap="round"/>
</svg>
