<svg width="1004" height="848" viewBox="0 0 1004 848" fill="none" xmlns="http://www.w3.org/2000/svg">
<path d="M710.5 489.068C898.5 489.068 980 519.568 1000.5 531.568L977.5 576.068L1000.5 637.068C907.635 597.417 830.5 586.478 710.5 586.478V489.068Z" fill="url(#paint0_linear_17_148)"/>
<path fill-rule="evenodd" clip-rule="evenodd" d="M1003.14 639.827L979.139 576.163L1002.49 530.992L1001.26 530.273C980.418 518.074 898.601 487.568 710.5 487.568H709V587.978H710.5C830.377 587.978 907.294 598.903 999.911 638.447L1003.14 639.827ZM712 584.978V490.568C895.216 490.727 976.468 519.929 998.506 532.158L975.861 575.972L997.86 634.318C906.566 595.843 829.881 585.068 712 584.978Z" fill="#837DC6"/>
<path d="M293.5 489.568C105.5 489.568 24 520.068 3.5 532.068L34 571.068L3.5 637.568C96.3648 597.917 173.5 586.978 293.5 586.978V489.568Z" fill="url(#paint1_linear_17_148)"/>
<path fill-rule="evenodd" clip-rule="evenodd" d="M0.5177 640.472L32.2559 571.272L1.26132 531.64L2.74222 530.773C23.582 518.574 105.399 488.068 293.5 488.068H295V588.477H293.5C173.623 588.477 96.7065 599.403 4.08902 638.947L0.5177 640.472ZM292 585.478V491.068C109.498 491.226 28.1659 520.202 5.75381 532.515L35.7441 570.863L6.47614 634.677C97.6224 596.317 174.263 585.568 292 585.478Z" fill="#837DC6"/>
<path d="M881.5 540.068C881.5 570.167 731.592 634.568 502 634.568C272.408 634.568 122.5 570.167 122.5 540.068C122.5 509.968 272.408 503.568 502 503.568C731.592 503.568 881.5 509.968 881.5 540.068Z" fill="#3E50AA"/>
<path fill-rule="evenodd" clip-rule="evenodd" d="M130.226 531.102C125.873 534.028 124 537.022 124 540.068C124 543.233 126 547.167 130.461 551.72C134.88 556.23 141.507 561.137 150.265 566.235C167.771 576.427 193.565 587.258 226.584 597.168C292.608 616.985 387.337 633.068 502 633.068C616.663 633.068 711.392 616.985 777.416 597.168C810.435 587.258 836.229 576.427 853.735 566.235C862.493 561.137 869.121 556.23 873.539 551.72C878 547.167 880 543.233 880 540.068C880 537.022 878.127 534.028 873.774 531.102C869.425 528.18 862.854 525.513 854.093 523.113C836.592 518.319 810.794 514.705 777.726 512.025C711.617 506.668 616.798 505.068 502 505.068C387.202 505.068 292.383 506.668 226.274 512.025C193.206 514.705 167.408 518.319 149.907 523.113C141.146 525.513 134.575 528.18 130.226 531.102ZM226.032 509.035C292.275 503.667 387.206 502.068 502 502.068C616.794 502.068 711.725 503.667 777.968 509.035C811.076 511.718 837.104 515.348 854.886 520.22C863.766 522.652 870.701 525.423 875.447 528.612C880.189 531.799 883 535.588 883 540.068C883 544.428 880.316 549.09 875.682 553.82C871.005 558.593 864.128 563.656 855.244 568.828C837.468 579.177 811.435 590.09 778.278 600.042C711.951 619.95 616.929 636.068 502 636.068C387.071 636.068 292.05 619.95 225.722 600.042C192.565 590.09 166.533 579.177 148.756 568.828C139.872 563.656 132.995 558.593 128.318 553.82C123.684 549.09 121 544.428 121 540.068C121 535.588 123.811 531.799 128.553 528.612C133.299 525.423 140.234 522.652 149.114 520.22C166.896 515.348 192.924 511.718 226.032 509.035Z" fill="#837DC6"/>
<path fill-rule="evenodd" clip-rule="evenodd" d="M794.5 55.6604C705.646 25.5398 613.705 16.5676 502.5 16.5676C390.932 16.5676 298.651 25.6403 209.5 55.9423V692.159C209.5 709.998 209.5 718.918 211.518 726.763C215.597 742.617 225.596 756.306 239.459 765.014C246.319 769.322 254.816 772.035 271.81 777.461C273.245 777.919 273.962 778.148 274.686 778.348C276.14 778.749 277.616 779.064 279.108 779.29C279.85 779.402 280.599 779.486 282.095 779.652L344.188 786.568L444.866 791.8C452.755 792.21 456.699 792.415 460.462 793.065C471.756 795.017 482.318 799.965 491.046 807.394C493.954 809.869 496.636 812.768 502 818.568C507.364 812.768 510.046 809.869 512.954 807.394C521.682 799.965 532.244 795.017 543.538 793.065C547.301 792.415 551.245 792.21 559.134 791.8L659.812 786.568L721.905 779.652C723.401 779.486 724.15 779.402 724.892 779.29C726.384 779.064 727.86 778.749 729.314 778.348C730.038 778.148 730.755 777.919 732.19 777.461C749.184 772.035 757.681 769.322 764.541 765.014C778.404 756.306 788.403 742.617 792.482 726.763C794.5 718.918 794.5 709.998 794.5 692.159V55.6604Z" fill="#ED1E24"/>
<path fill-rule="evenodd" clip-rule="evenodd" d="M209.5 55.9423C209.868 55.817 210.237 55.6921 210.606 55.5676C299.414 25.5655 391.393 16.5676 502.5 16.5676C613.59 16.5676 705.457 25.5214 794.226 55.5676C794.317 55.5985 794.409 55.6295 794.5 55.6604V692.159C794.5 709.998 794.5 718.918 792.482 726.763C788.403 742.617 778.404 756.306 764.541 765.014C757.681 769.322 749.184 772.035 732.19 777.461C730.755 777.919 730.038 778.148 729.314 778.348C727.86 778.749 726.384 779.064 724.892 779.29C724.15 779.402 723.403 779.486 721.909 779.652L721.905 779.652L659.812 786.568L559.134 791.8L559.131 791.8C551.244 792.21 547.3 792.415 543.538 793.065C532.244 795.017 521.682 799.965 512.954 807.394C511.245 808.849 509.614 810.45 507.471 812.7C505.967 814.279 504.211 816.177 502 818.568C499.789 816.177 498.033 814.279 496.529 812.7C494.386 810.45 492.755 808.849 491.046 807.394C482.318 799.965 471.756 795.017 460.462 793.065C456.7 792.415 452.756 792.21 444.869 791.8L444.866 791.8L344.188 786.568L282.095 779.652L282.091 779.652C280.597 779.486 279.85 779.402 279.108 779.29C277.616 779.064 276.14 778.749 274.686 778.348C273.962 778.148 273.245 777.919 271.81 777.461C254.816 772.035 246.319 769.322 239.459 765.014C225.596 756.306 215.597 742.617 211.518 726.763C209.5 718.918 209.5 709.998 209.5 692.159V55.9423ZM344.839 778.591L282.981 771.702C281.425 771.528 280.858 771.464 280.307 771.38C279.129 771.202 277.964 770.953 276.816 770.636C276.279 770.488 275.734 770.315 274.243 769.84C256.819 764.277 249.509 761.879 243.714 758.239C231.584 750.62 222.835 738.643 219.266 724.77C217.561 718.143 217.5 710.449 217.5 692.159V61.7004C303.805 33.2476 393.623 24.5676 502.5 24.5676C611.015 24.5676 700.494 33.1503 786.5 61.4236V692.159C786.5 710.449 786.439 718.143 784.734 724.77C781.165 738.643 772.416 750.62 760.286 758.239C754.491 761.879 747.18 764.277 729.757 769.84C728.266 770.315 727.721 770.488 727.184 770.636C726.036 770.953 724.871 771.202 723.693 771.38C723.142 771.464 722.575 771.528 721.019 771.702L659.161 778.591L558.164 783.84C550.801 784.222 546.413 784.45 542.176 785.182C529.47 787.378 517.588 792.945 507.769 801.302C505.895 802.897 504.117 804.635 502 806.845C499.883 804.635 498.105 802.897 496.231 801.302C486.412 792.945 474.53 787.378 461.824 785.182C457.587 784.45 453.199 784.222 445.836 783.84L344.839 778.591Z" fill="black" fill-opacity="0.1"/>
<mask id="mask0_17_148" style="mask-type:alpha" maskUnits="userSpaceOnUse" x="209" y="16" width="586" height="803">
<path fill-rule="evenodd" clip-rule="evenodd" d="M794.5 55.6604C705.646 25.5398 613.705 16.5676 502.5 16.5676C390.932 16.5676 298.651 25.6403 209.5 55.9423V692.159C209.5 709.998 209.5 718.918 211.518 726.763C215.597 742.617 225.596 756.306 239.459 765.014C246.319 769.322 254.816 772.035 271.81 777.461C273.245 777.919 273.962 778.148 274.686 778.348C276.14 778.749 277.616 779.064 279.108 779.29C279.85 779.402 280.599 779.486 282.095 779.652L344.188 786.568L444.866 791.8C452.755 792.21 456.699 792.415 460.462 793.065C471.756 795.017 482.318 799.965 491.046 807.394C493.954 809.869 496.636 812.768 502 818.568C507.364 812.768 510.046 809.869 512.954 807.394C521.682 799.965 532.244 795.017 543.538 793.065C547.301 792.415 551.245 792.21 559.134 791.8L659.812 786.568L721.905 779.652C723.401 779.486 724.15 779.402 724.892 779.29C726.384 779.064 727.86 778.749 729.314 778.348C730.038 778.148 730.755 777.919 732.19 777.461C749.184 772.035 757.681 769.322 764.541 765.014C778.404 756.306 788.403 742.617 792.482 726.763C794.5 718.918 794.5 709.998 794.5 692.159V55.6604Z" fill="#ED1E24"/>
<path d="M502.5 20.5676C612.365 20.5676 703.074 29.345 790.5 58.535V692.159C790.5 710.224 790.469 718.531 788.608 725.766C784.784 740.63 775.41 753.463 762.413 761.627C756.086 765.6 748.182 768.156 730.973 773.65C729.511 774.117 728.88 774.318 728.249 774.492L729.314 778.348L728.249 774.492C726.948 774.851 725.627 775.133 724.293 775.335C723.646 775.433 722.988 775.507 721.462 775.677L659.488 782.579L558.927 787.805L558.616 787.822C551.02 788.216 546.855 788.433 542.857 789.124C530.857 791.197 519.635 796.455 510.362 804.348C507.862 806.475 505.532 808.884 502 812.682C498.468 808.884 496.138 806.475 493.638 804.348C484.365 796.455 473.143 791.197 461.143 789.124C457.145 788.433 452.98 788.216 445.384 787.822L445.073 787.805L344.512 782.579L282.538 775.677C281.012 775.507 280.354 775.433 279.707 775.335C278.373 775.133 277.052 774.851 275.751 774.492L274.686 778.348L275.751 774.492C275.12 774.318 274.489 774.117 273.027 773.65L271.81 777.461L273.027 773.65C255.818 768.156 247.914 765.6 241.587 761.627C228.59 753.463 219.216 740.63 215.392 725.766C213.531 718.531 213.5 710.224 213.5 692.159V58.8143C301.224 29.4439 392.273 20.5676 502.5 20.5676Z" stroke="black" stroke-opacity="0.1" stroke-width="8"/>
</mask>
<g mask="url(#mask0_17_148)">
<g opacity="0.4">
<path d="M501 360.567L485.845 -165.933L516.155 -165.933L501 360.567Z" fill="url(#paint2_linear_17_148)"/>
<path d="M501 360.567L516.156 887.067H485.845L501 360.567Z" fill="url(#paint3_linear_17_148)"/>
<path d="M501 360.567L1027.5 345.412L1027.5 375.723L501 360.567Z" fill="url(#paint4_linear_17_148)"/>
<path d="M501 360.567L-25.5 375.723L-25.5 345.412L501 360.567Z" fill="url(#paint5_linear_17_148)"/>
<path d="M501 360.567L1014.31 242.5L1020.26 272.223L501 360.567Z" fill="url(#paint6_linear_17_148)"/>
<path d="M501 360.567L-12.3147 478.635L-18.2563 448.912L501 360.567Z" fill="url(#paint7_linear_17_148)"/>
<path d="M501 360.567L619.067 873.882L589.345 879.824L501 360.567Z" fill="url(#paint8_linear_17_148)"/>
<path d="M501 360.567L382.932 -152.747L412.655 -158.689L501 360.567Z" fill="url(#paint9_linear_17_148)"/>
<path d="M501 360.567L-12.3147 242.5L-18.2563 272.223L501 360.567Z" fill="url(#paint10_linear_17_148)"/>
<path d="M501 360.567L1014.31 478.635L1020.26 448.912L501 360.567Z" fill="url(#paint11_linear_17_148)"/>
<path d="M501 360.567L382.932 873.882L412.655 879.824L501 360.567Z" fill="url(#paint12_linear_17_148)"/>
<path d="M501 360.567L619.068 -152.747L589.345 -158.689L501 360.567Z" fill="url(#paint13_linear_17_148)"/>
<path d="M501 360.567L779.583 -86.4492L804.835 -69.6842L501 360.567Z" fill="url(#paint14_linear_17_148)"/>
<path d="M501 360.567L222.418 807.584L197.165 790.819L501 360.567Z" fill="url(#paint15_linear_17_148)"/>
<path d="M501 360.567L948.017 639.15L931.252 664.402L501 360.567Z" fill="url(#paint16_linear_17_148)"/>
<path d="M501 360.567L53.9833 81.9849L70.7484 56.7324L501 360.567Z" fill="url(#paint17_linear_17_148)"/>
<path d="M501 360.567L993.953 546.119L982.463 574.168L501 360.567Z" fill="url(#paint18_linear_17_148)"/>
<path d="M501 360.567L8.04724 175.015L19.537 146.966L501 360.567Z" fill="url(#paint19_linear_17_148)"/>
<path d="M501 360.567L315.448 853.52L287.399 842.03L501 360.567Z" fill="url(#paint20_linear_17_148)"/>
<path d="M501 360.567L686.552 -132.385L714.601 -120.896L501 360.567Z" fill="url(#paint21_linear_17_148)"/>
<path d="M501 360.567L138.655 -21.7122L117.265 -0.23601L501 360.567Z" fill="url(#paint22_linear_17_148)"/>
<path d="M501 360.567L863.345 742.847L884.735 721.371L501 360.567Z" fill="url(#paint23_linear_17_148)"/>
<path d="M501 360.567L118.72 722.913L140.197 744.303L501 360.567Z" fill="url(#paint24_linear_17_148)"/>
<path d="M501 360.567L883.279 -1.77835L861.803 -23.1682L501 360.567Z" fill="url(#paint25_linear_17_148)"/>
<path d="M501 360.567L929.159 53.7908L946.097 78.9277L501 360.567Z" fill="url(#paint26_linear_17_148)"/>
<path d="M501 360.567L72.841 667.344L55.9032 642.207L501 360.567Z" fill="url(#paint27_linear_17_148)"/>
<path d="M501 360.567L807.777 788.726L782.64 805.664L501 360.567Z" fill="url(#paint28_linear_17_148)"/>
<path d="M501 360.567L194.223 -67.5916L219.36 -84.5294L501 360.567Z" fill="url(#paint29_linear_17_148)"/>
<path d="M501 360.567L312.074 -131.102L284.104 -119.42L501 360.567Z" fill="url(#paint30_linear_17_148)"/>
<path d="M501 360.567L689.926 852.237L717.896 840.555L501 360.567Z" fill="url(#paint31_linear_17_148)"/>
<path d="M501 360.567L9.33055 549.493L21.0123 577.463L501 360.567Z" fill="url(#paint32_linear_17_148)"/>
<path d="M501 360.567L992.669 171.641L980.988 143.672L501 360.567Z" fill="url(#paint33_linear_17_148)"/>
</g>
<path opacity="0.1" d="M280.5 580.068L299.5 576.068L495.5 549.568L700 574.068L724 579.568L495.5 610.568L280.5 580.068Z" fill="black"/>
</g>
<path fill-rule="evenodd" clip-rule="evenodd" d="M209.5 55.9423C209.868 55.817 210.237 55.6921 210.605 55.5676C299.414 25.5655 391.393 16.5676 502.5 16.5676C613.59 16.5676 705.457 25.5214 794.226 55.5676C794.317 55.5985 794.409 55.6295 794.5 55.6604V692.159C794.5 709.998 794.5 718.918 792.482 726.763C788.403 742.617 778.404 756.306 764.54 765.014C757.681 769.322 749.184 772.035 732.19 777.461C730.755 777.919 730.038 778.148 729.314 778.348C727.86 778.749 726.384 779.064 724.892 779.29C724.15 779.402 723.403 779.486 721.909 779.652L721.905 779.652L659.812 786.568L559.134 791.8L559.131 791.8C551.244 792.21 547.3 792.415 543.538 793.065C532.366 794.996 521.91 799.859 513.238 807.154C513.143 807.234 513.048 807.314 512.954 807.394C510.046 809.869 507.364 812.768 502 818.568C496.636 812.768 493.954 809.869 491.046 807.394C490.951 807.314 490.857 807.234 490.762 807.154C482.09 799.859 471.633 794.996 460.462 793.065C456.7 792.415 452.756 792.21 444.869 791.8L444.865 791.8L344.187 786.568L282.095 779.652L282.09 779.652C280.597 779.486 279.85 779.402 279.108 779.29C277.616 779.064 276.14 778.749 274.686 778.348C273.962 778.148 273.244 777.919 271.81 777.461C254.816 772.035 246.319 769.322 239.459 765.014C225.596 756.306 215.597 742.617 211.518 726.763C209.5 718.918 209.5 709.998 209.5 692.159V55.9423ZM810.5 44.1899V692.159C810.5 692.886 810.5 693.603 810.5 694.31C810.505 710.071 810.509 720.909 807.977 730.749C802.879 750.567 790.38 767.679 773.051 778.563C764.446 783.967 754.121 787.26 739.105 792.049C738.431 792.264 737.748 792.482 737.056 792.703L736.836 792.773C735.615 793.163 734.61 793.484 733.574 793.77C731.508 794.341 729.409 794.788 727.29 795.109C726.164 795.28 725.055 795.401 723.676 795.554L661.114 802.522L559.965 807.779C551.696 808.208 548.866 808.382 546.262 808.832C537.792 810.295 529.87 814.007 523.324 819.578C521.313 821.29 510.368 832.354 510.746 847.432H493.254C493.632 832.354 482.687 821.29 480.675 819.578C474.13 814.007 466.208 810.295 457.737 808.832C455.134 808.382 452.304 808.208 444.035 807.779L342.886 802.522L280.092 795.528C278.819 795.387 277.772 795.27 276.709 795.109C274.59 794.788 272.492 794.341 270.426 793.77C269.39 793.484 268.386 793.163 267.165 792.773L266.944 792.703C266.251 792.482 265.568 792.264 264.895 792.049C249.879 787.26 239.554 783.967 230.949 778.563C213.62 767.679 201.121 750.567 196.023 730.749C193.491 720.909 193.494 710.071 193.499 694.31C193.5 693.603 193.5 692.886 193.5 692.159V44.4816L204.351 40.7934C295.86 9.68998 390.116 0.567627 502.5 0.567627C614.512 0.567627 708.426 9.58795 799.637 40.5074L810.5 44.1899Z" fill="white"/>
<path d="M502 621.568C731.592 621.568 881.5 570.167 881.5 540.068L881.5 643.298C881.5 686.659 791.592 746.568 502 746.568C212.408 746.568 122.5 686.659 122.5 643.298L122.5 540.068C122.5 570.167 272.408 621.568 502 621.568Z" fill="url(#paint34_linear_17_148)"/>
<path fill-rule="evenodd" clip-rule="evenodd" d="M226.518 590.65C292.557 607.228 387.308 620.068 502 620.068C616.692 620.068 711.443 607.228 777.482 590.65C810.51 582.359 836.303 573.146 853.805 564.166C862.561 559.673 869.177 555.271 873.581 551.12C878.023 546.933 880 543.209 880 540.068H883L883 643.298C883 654.692 877.091 666.941 863.933 678.84C850.779 690.735 830.289 702.373 800.84 712.61C741.938 733.086 646.873 748.068 502 748.068C357.127 748.068 262.062 733.086 203.161 712.61C173.711 702.373 153.221 690.735 140.067 678.84C126.909 666.941 121 654.692 121 643.298L121 540.068H124C124 543.209 125.977 546.933 130.419 551.12C134.823 555.271 141.439 559.673 150.195 564.166C167.697 573.146 193.49 582.359 226.518 590.65ZM124 548.362L124 643.298C124 653.585 129.329 665.085 142.079 676.615C154.833 688.148 174.919 699.617 204.146 709.777C262.596 730.095 357.281 745.068 502 745.068C646.719 745.068 741.404 730.095 799.855 709.777C829.081 699.617 849.168 688.148 861.921 676.615C874.671 665.085 880 653.585 880 643.298L880 548.362C878.844 550.015 877.378 551.664 875.639 553.303C870.949 557.724 864.059 562.276 855.174 566.835C837.393 575.958 811.36 585.239 778.212 593.56C711.899 610.207 616.9 623.068 502 623.068C387.1 623.068 292.101 610.207 225.788 593.56C192.64 585.239 166.607 575.958 148.826 566.835C139.941 562.276 133.051 557.724 128.361 553.303C126.623 551.665 125.156 550.015 124 548.362Z" fill="#837DC6"/>
<path fill-rule="evenodd" clip-rule="evenodd" d="M846.8 642.884C843 643.9 840.4 648.754 840.4 654.85C840.4 660.608 843 664.22 846.8 663.091C850.6 661.962 853.2 656.882 853.2 651.125C853.2 645.142 850.6 641.755 846.8 642.884ZM841.782 618.715C842.063 625.971 842.344 633.242 842.6 640.513C843.533 640.25 844.466 639.974 845.4 639.698C847.266 639.146 849.133 638.594 851 638.143C851.6 623.58 852.1 609.13 852.6 594.568C850.65 595.132 848.725 595.697 846.8 596.261C844.875 596.825 842.95 597.39 841 597.954C841.244 604.852 841.513 611.777 841.782 618.715ZM174.2 668.72C179.2 670.074 183.2 669.736 184.8 668.833L184.8 668.832C184.3 664.091 183.8 659.35 183.1 654.721C181.4 655.286 178.3 655.286 175.6 654.496C167.9 652.351 163.3 643.545 163.3 631.579C163.3 618.145 169 613.743 175.4 615.549C178.8 616.565 181.4 618.371 183.2 620.065C183.581 617.61 183.991 615.188 184.398 612.782C184.74 610.762 185.081 608.753 185.4 606.744C183.7 604.825 179.7 602.341 174.9 600.986C162.4 597.487 151.5 606.066 151.5 629.321C151.5 646.932 158.4 664.317 174.2 668.72ZM201.4 676.816V611.001C199.692 610.545 197.984 610.111 196.286 609.68L196.286 609.68L196.286 609.68L196.286 609.68L196.286 609.679L196.286 609.679L196.285 609.679L196.285 609.679L196.285 609.679L196.285 609.679C194.204 609.151 192.137 608.626 190.1 608.066V673.881C193.8 674.897 197.6 675.913 201.4 676.816ZM211.1 628.217L211.1 628.217L211.1 628.217L211.1 628.217L211.099 628.217L211.099 628.217L211.099 628.217L211.099 628.217L211.099 628.217L211.099 628.217L211.098 628.217L211.098 628.217L211.098 628.216L211.098 628.216L211.098 628.216L211.098 628.216L211.097 628.216L211.097 628.216L211.097 628.216L211.097 628.216L211.097 628.216C209.298 627.793 207.499 627.37 205.7 626.919V612.017C216.7 614.727 227.8 617.323 238.8 619.807V634.708C235.1 633.918 231.5 633.128 227.8 632.225V683.25L216.4 680.541C216.5 663.496 216.5 646.564 216.5 629.519V629.515C214.701 629.064 212.902 628.641 211.103 628.218L211.103 628.218L211.103 628.218L211.103 628.218L211.103 628.218L211.102 628.218L211.102 628.218L211.102 628.218L211.102 628.217L211.102 628.217L211.102 628.217L211.101 628.217L211.101 628.217L211.101 628.217L211.101 628.217L211.101 628.217L211.101 628.217L211.1 628.217L211.1 628.217ZM254.6 689.008V623.193L243.2 620.823V686.637L254.6 689.008ZM272.8 626.806V664.172C272.8 674.106 275 680.089 279.5 680.993C284 681.783 286.2 677.154 286.2 666.656V629.289L297.6 631.321V667.672C297.6 687.992 291 697.136 279.1 694.991C267.5 692.846 261.4 681.67 261.4 660.56V624.661C263.3 625 265.2 625.367 267.1 625.733C269 626.1 270.9 626.467 272.8 626.806ZM316.2 686.75C311.9 686.072 307.8 683.363 305.2 680.88C304.5 685.621 303.8 690.362 302.9 694.991C305.3 697.361 310.3 700.184 315.4 700.974C327.8 702.893 333.5 693.975 333.5 682.686C333.5 673.429 330.1 666.656 322.5 661.124C317.2 657.286 314.9 655.48 314.9 652.206C314.9 649.271 316.8 647.577 320.3 648.142C324.5 648.819 327.7 651.077 329.5 652.657C329.9 650.343 330.3 648.057 330.7 645.771C331.1 643.485 331.5 641.199 331.9 638.885C329.1 636.514 325.4 634.595 320.4 633.805C309.7 632.225 303.3 640.127 303.3 651.754C303.3 661.576 308.1 668.462 315.3 673.542C320.1 676.929 322 678.96 322 682.234C322 685.621 320.1 687.314 316.2 686.75ZM334.7 714.408C337 704.812 338.7 694.878 339.7 685.395C343.5 685.621 347.2 685.734 351 685.847C348.7 696.233 345.8 705.941 342.2 714.408C340.533 714.483 338.867 714.458 337.2 714.433C336.367 714.42 335.533 714.408 334.7 714.408ZM377.5 700.466L377.504 700.442L377.504 700.441C377.903 697.938 378.301 695.434 378.7 692.959C380.466 693.174 382.232 693.364 383.987 693.553L383.987 693.553L383.988 693.553C385.91 693.759 387.818 693.965 389.7 694.201C390.15 696.797 390.6 699.365 391.05 701.933C391.5 704.502 391.95 707.07 392.4 709.666L404.7 710.682C402.6 699.506 400.475 688.359 398.35 677.211C396.225 666.063 394.1 654.915 392 643.739L390.888 643.639C386.245 643.22 381.522 642.794 376.8 642.272C374.751 652.993 372.701 663.743 370.652 674.493L370.651 674.497L370.65 674.501C368.6 685.254 366.55 696.007 364.5 706.731C366.45 706.957 368.425 707.155 370.4 707.352C372.375 707.55 374.35 707.747 376.3 707.973C376.699 705.498 377.097 702.994 377.496 700.49L377.496 700.489L377.5 700.466ZM387.2 674.897C387.525 676.9 387.85 678.904 388.2 680.88C385.5 680.654 382.9 680.428 380.4 680.089C380.7 678.171 381 676.224 381.3 674.277L381.3 674.276L381.3 674.274C381.6 672.327 381.9 670.381 382.2 668.462C382.328 667.538 382.469 666.496 382.618 665.395C383.051 662.189 383.553 658.478 384 655.705H384.1C384.7 659.544 385.6 665.188 386.2 668.913C386.55 670.889 386.875 672.893 387.2 674.897ZM409.3 645.094C413.1 645.433 416.9 645.658 420.7 645.884V697.023C423.436 697.191 426.147 697.36 428.858 697.528L428.858 697.528L428.859 697.528L428.859 697.528L428.859 697.528L428.86 697.528L428.86 697.528L428.9 697.531L428.93 697.533C431.645 697.701 434.36 697.87 437.1 698.039V712.827C427.8 712.376 418.5 711.698 409.3 711.021V645.094ZM437.65 661.858C439.475 661.943 441.3 662.027 443.1 662.14C443.1 679.073 443.1 696.12 443 713.279C444.984 713.336 446.943 713.423 448.889 713.509L448.889 713.509L448.89 713.509L448.891 713.509L448.892 713.509L448.892 713.509L448.893 713.509L448.894 713.509L448.894 713.509L448.895 713.509L448.896 713.509L448.897 713.509L448.898 713.509L448.899 713.509L448.899 713.509L448.9 713.509L448.9 713.51L448.901 713.51L448.901 713.51L448.902 713.51L448.902 713.51L448.903 713.51L448.904 713.51L448.904 713.51L448.905 713.51C450.778 713.593 452.639 713.675 454.5 713.73V662.705L465.6 663.043V648.142C454.5 647.803 443.3 647.352 432.2 646.674V661.576C434 661.689 435.825 661.773 437.65 661.858ZM481.4 648.593V714.408C479.488 714.351 477.575 714.323 475.65 714.294H475.65L475.648 714.294C473.748 714.266 471.837 714.238 469.9 714.182V648.368C473.799 648.368 477.599 648.481 481.399 648.593L481.4 648.593ZM499.8 686.073V648.706H499.797C495.998 648.706 492.199 648.706 488.5 648.819V684.718C488.5 705.828 494.7 715.762 506.3 715.762C518.2 715.649 524.8 705.264 524.8 684.944V648.593C522.837 648.593 520.9 648.622 518.975 648.65C517.075 648.678 515.188 648.706 513.3 648.706V686.073C513.3 696.571 511.1 701.651 506.5 701.651C502 701.651 499.8 696.007 499.8 686.073ZM532.4 696.571C535 698.603 539.2 700.522 543.5 700.297C547.4 700.184 549.3 698.039 549.3 694.765C549.3 691.491 547.4 689.798 542.6 687.427C535.4 683.815 530.6 677.719 530.6 667.897C530.6 656.27 537 647.126 547.7 646.787C552.8 646.561 556.4 647.916 559.2 649.722L556.8 663.946C555 662.705 551.8 661.011 547.6 661.237C544.1 661.35 542.2 663.382 542.2 666.317C542.2 669.591 544.5 670.945 549.9 673.768C557.6 677.832 561 684.041 561 693.185C561 704.473 555.3 714.521 542.8 714.972C537.7 715.198 532.7 713.166 530.3 711.36L530.309 711.298L530.309 711.297C531.006 706.351 531.703 701.405 532.4 696.571ZM567 694.652C566 704.361 564.3 714.521 562 724.568C564.5 724.116 567 723.665 569.5 723.326C573.1 714.069 576 703.909 578.3 693.072C574.896 693.476 571.572 693.971 568.184 694.476L567.292 694.609L567 694.652ZM594.9 645.207C604 644.529 613.1 643.739 622.3 642.836V657.286C617.001 657.85 611.702 658.302 606.402 658.753L606.4 658.753V670.833L621.4 669.478V683.702L606.4 685.057V710.005C602.6 710.344 598.8 710.682 595 710.908C594.9 689.121 594.9 667.107 594.9 645.207ZM647.2 706.957C660.3 705.377 668.5 690.701 668.5 669.478C668.5 651.867 661.5 637.079 647.9 638.885C634.8 640.465 626.7 656.383 626.7 675.687C626.7 693.862 634 708.537 647.2 706.957ZM647.7 692.959C642.2 693.636 638.7 686.411 638.7 673.993C638.7 661.801 642.2 653.448 647.6 652.77C653.1 652.093 656.4 660.334 656.4 671.623C656.4 683.589 653.2 692.281 647.7 692.959ZM673.6 637.417C676.8 636.176 681.7 634.934 687.3 634.031C693.8 633.015 698.5 633.579 701.7 636.853C704.4 639.675 705.9 644.191 705.9 650.513C705.9 658.753 701.9 665.188 698.7 667.672V668.01C701.5 669.478 703 673.429 704.1 678.961C704.59 681.431 705.081 684.303 705.55 687.05L705.55 687.05L705.55 687.051C706.324 691.583 707.04 695.773 707.6 697.249C707.206 697.317 706.812 697.386 706.419 697.454L706.406 697.456L706.239 697.485L706.226 697.488L706.223 697.488L706.22 697.489C702.8 698.084 699.439 698.67 696 699.168C695.4 697.361 694.2 692.394 693 684.379C691.9 676.703 690.3 675.348 686.8 675.913C686.2 676.025 685.6 676.138 685 676.138V700.861C683.1 701.143 681.225 701.425 679.35 701.708C677.475 701.99 675.6 702.272 673.7 702.554C673.6 680.767 673.6 659.092 673.6 637.417ZM684.9 663.382C685.4 663.325 685.9 663.241 686.4 663.156C686.9 663.071 687.4 662.987 687.9 662.93C692.2 662.253 694.6 658.641 694.6 653.786C694.6 648.932 692.5 646.449 688.7 647.013C686.6 647.352 685.4 647.577 684.9 648.029V663.382ZM714.3 644.925C716.1 644.614 717.9 644.304 719.7 643.965V694.991C721.6 694.652 723.5 694.285 725.4 693.918C727.3 693.551 729.2 693.185 731.1 692.846V641.82C734.8 641.143 738.4 640.465 742.1 639.675V624.774C731.1 627.032 720 629.064 708.9 630.983V645.884C710.7 645.545 712.5 645.235 714.3 644.925ZM757.8 621.613V687.427L746.4 689.798V623.984L757.8 621.613ZM776 654.915V617.549C772.3 618.452 768.5 619.242 764.6 620.033V655.931C764.6 677.041 770.8 685.621 782.3 682.912C794.2 680.202 800.7 668.236 800.7 647.916V611.566C797 612.582 793.2 613.485 789.4 614.388V651.754C789.4 662.253 787.2 667.897 782.7 668.913C778.2 669.929 776 664.849 776 654.915ZM808.3 657.963C810.9 659.318 815 660.334 819.3 659.205C823.2 658.189 825.1 655.592 825.1 652.319C825.1 649.045 823.2 647.803 818.5 646.449C811.4 644.417 806.6 639.449 806.6 629.741C806.6 618.113 812.9 607.502 823.6 604.68C828.6 603.325 832.2 603.777 835 605.018C834.6 607.445 834.2 609.9 833.8 612.356V612.356C833.4 614.811 833 617.267 832.6 619.694C830.8 618.904 827.7 617.888 823.5 619.016C820.1 619.92 818.2 622.403 818.2 625.338C818.2 628.612 820.5 629.402 825.8 630.983C833.4 633.353 836.7 638.659 836.7 647.916C836.7 659.205 831.1 670.494 818.7 673.881C813.6 675.235 808.7 674.445 806.3 673.09C806.829 668.614 807.435 664.225 808.051 659.77L808.067 659.655C808.144 659.092 808.222 658.528 808.3 657.963Z" fill="white"/>
<path d="M700.5 574.568V556.068L496 581.068V603.068L700.5 574.568Z" fill="#A7A5A6"/>
<path fill-rule="evenodd" clip-rule="evenodd" d="M701.163 555.319C701.377 555.509 701.5 555.781 701.5 556.068V574.568C701.5 575.067 701.132 575.489 700.638 575.558L496.138 604.058C495.852 604.098 495.562 604.012 495.344 603.822C495.125 603.632 495 603.357 495 603.068V581.068C495 580.562 495.377 580.136 495.879 580.075L700.379 555.075C700.663 555.04 700.948 555.129 701.163 555.319ZM497 581.953V601.919L699.5 573.697V557.197L497 581.953Z" fill="black"/>
<path d="M299.5 577.068L496 603.068V581.068L299.5 556.068V577.068Z" fill="#D3D2D2"/>
<path fill-rule="evenodd" clip-rule="evenodd" d="M298.839 555.317C299.055 555.127 299.341 555.039 299.626 555.076L496.126 580.076C496.626 580.139 497 580.564 497 581.068V603.068C497 603.356 496.876 603.63 496.659 603.82C496.442 604.01 496.154 604.097 495.869 604.059L299.369 578.059C298.872 577.993 298.5 577.569 298.5 577.068V556.068C298.5 555.78 298.623 555.507 298.839 555.317ZM300.5 557.203V576.191L495 601.927V581.948L300.5 557.203Z" fill="black"/>
<path d="M700.5 556.068L672.834 526.568L610.667 532.017L548.5 537.466L496 542.068V581.068L700.5 556.068Z" fill="#BDBCBC"/>
<path fill-rule="evenodd" clip-rule="evenodd" d="M672.746 525.571C673.052 525.545 673.353 525.66 673.563 525.884L701.229 555.384C701.487 555.658 701.568 556.054 701.44 556.409C701.312 556.763 700.995 557.015 700.621 557.06L496.121 582.06C495.837 582.095 495.552 582.006 495.337 581.816C495.123 581.627 495 581.354 495 581.068V542.068C495 541.549 495.396 541.117 495.913 541.071L672.746 525.571ZM672.437 527.606L497 542.984V579.938L698.422 555.314L672.437 527.606Z" fill="black"/>
<path d="M327.166 526.568L299.5 556.068L496 581.068V542.068L327.166 526.568Z" fill="#F4F4F4"/>
<path fill-rule="evenodd" clip-rule="evenodd" d="M326.437 525.884C326.648 525.659 326.951 525.544 327.258 525.572L496.091 541.072C496.606 541.119 497 541.551 497 542.068V581.068C497 581.355 496.877 581.628 496.661 581.818C496.445 582.008 496.159 582.096 495.874 582.06L299.374 557.06C299.001 557.012 298.686 556.76 298.559 556.406C298.432 556.053 298.514 555.658 298.771 555.384L326.437 525.884ZM327.562 527.608L301.569 555.323L495 579.932V542.98L327.562 527.608Z" fill="black"/>
<path opacity="0.5" d="M610.667 532.017L672.833 526.568H642.838H607.188L610.667 532.017Z" fill="#9C9A9B"/>
<path opacity="0.5" fill-rule="evenodd" clip-rule="evenodd" d="M606.311 526.087C606.486 525.767 606.822 525.568 607.188 525.568H672.833C673.369 525.568 673.809 525.989 673.833 526.524C673.856 527.059 673.454 527.517 672.921 527.564L610.754 533.013C610.383 533.045 610.024 532.869 609.824 532.555L606.345 527.106C606.148 526.798 606.135 526.407 606.311 526.087ZM609.013 527.568L611.183 530.968L649.972 527.568H609.013Z" fill="black"/>
<path d="M530 480.068L548.5 537.466L610.667 532.017L607.188 526.568L577.5 480.068H542.5H530Z" fill="#BDBCBC"/>
<path fill-rule="evenodd" clip-rule="evenodd" d="M529.192 479.479C529.38 479.22 529.68 479.068 530 479.068H577.5C577.841 479.068 578.159 479.242 578.343 479.53L611.51 531.479C611.698 531.773 611.718 532.145 611.564 532.458C611.409 532.772 611.102 532.982 610.754 533.013L496.087 543.064L495.913 541.071L547.163 536.579L529.048 480.374C528.95 480.07 529.003 479.737 529.192 479.479ZM549.207 536.4L608.936 531.165L576.952 481.068H531.373L549.207 536.4Z" fill="black"/>
<path d="M327.167 526.568L496 542.068L548.5 537.466L384.5 526.568H357.162H327.167Z" fill="#D3D2D2"/>
<path fill-rule="evenodd" clip-rule="evenodd" d="M326.168 526.522C326.192 525.988 326.632 525.568 327.167 525.568H384.5C384.522 525.568 384.544 525.568 384.566 525.57L548.566 536.468C549.088 536.503 549.495 536.933 549.5 537.455C549.506 537.978 549.108 538.416 548.587 538.462L496.087 543.064C496.028 543.069 495.968 543.069 495.909 543.063L327.075 527.563C326.543 527.515 326.143 527.056 326.168 526.522ZM348.997 527.568L496.002 541.064L535.483 537.603L384.467 527.568H348.997Z" fill="black"/>
<path d="M548.5 537.466L530 480.068H500.5L503 184.568L469.5 194.068L462.182 301.956L459.154 346.609L455.53 400.036L453.339 432.342L450 481.568H409L384.5 526.568L548.5 537.466Z" fill="#F4F4F4"/>
<path fill-rule="evenodd" clip-rule="evenodd" d="M503.606 183.772C503.857 183.963 504.003 184.261 504 184.576L501.508 479.068H530C530.434 479.068 530.819 479.348 530.952 479.761L549.452 537.159C549.553 537.475 549.492 537.82 549.288 538.081C549.084 538.342 548.764 538.486 548.434 538.464L384.434 527.565C384.093 527.543 383.788 527.348 383.624 527.05C383.459 526.751 383.459 526.389 383.622 526.089L408.122 481.089C408.297 480.768 408.634 480.568 409 480.568H449.066L468.502 194C468.531 193.579 468.821 193.221 469.227 193.106L502.727 183.606C503.03 183.52 503.356 183.581 503.606 183.772ZM470.45 194.838L450.998 481.635C450.962 482.16 450.526 482.568 450 482.568H409.594L386.125 525.673L547.096 536.37L529.272 481.068H500.5C500.233 481.068 499.978 480.961 499.79 480.772C499.602 480.582 499.498 480.326 499.5 480.059L501.989 185.894L470.45 194.838Z" fill="black"/>
<path d="M500.5 480.068H530H542.5L540.721 426.522L539.316 384.201L538.155 349.246L536.626 303.226L533 194.068L503 184.568L500.5 480.068Z" fill="#BDBCBC"/>
<path fill-rule="evenodd" clip-rule="evenodd" d="M502.413 183.758C502.669 183.572 502.999 183.519 503.302 183.614L533.302 193.114C533.706 193.242 533.985 193.611 533.999 194.034L543.499 480.034C543.508 480.305 543.407 480.568 543.219 480.763C543.03 480.958 542.771 481.068 542.5 481.068H500.5C500.233 481.068 499.978 480.961 499.79 480.772C499.602 480.582 499.498 480.326 499.5 480.059L502 184.559C502.003 184.242 502.156 183.945 502.413 183.758ZM503.989 185.93L501.508 479.068H541.466L532.024 194.808L503.989 185.93Z" fill="black"/>
<path d="M549.524 395.086L539.316 384.201L540.721 426.522L642.838 526.568H672.834L549.524 395.086Z" fill="#DEDDDE"/>
<path fill-rule="evenodd" clip-rule="evenodd" d="M538.932 383.277C539.317 383.118 539.76 383.213 540.045 383.517L673.563 525.884C673.836 526.174 673.91 526.599 673.751 526.965C673.593 527.331 673.232 527.568 672.834 527.568H642.838C642.576 527.568 642.325 527.465 642.138 527.282L540.022 427.237C539.838 427.057 539.731 426.813 539.722 426.556L538.316 384.234C538.302 383.818 538.548 383.437 538.932 383.277ZM540.403 386.823L541.708 426.089L643.246 525.568H670.525L540.403 386.823Z" fill="black"/>
<path d="M542.5 480.068H577.5L607.188 526.568H642.838L540.721 426.522L542.5 480.068Z" fill="#C8C7C7"/>
<path fill-rule="evenodd" clip-rule="evenodd" d="M540.319 425.607C540.693 425.443 541.129 425.522 541.421 425.808L643.537 525.853C643.828 526.138 643.917 526.569 643.763 526.946C643.61 527.322 643.244 527.568 642.838 527.568H607.188C606.846 527.568 606.529 527.394 606.345 527.106L576.952 481.068H542.5C541.961 481.068 541.518 480.64 541.501 480.101L539.722 426.556C539.708 426.147 539.945 425.772 540.319 425.607ZM541.804 428.983L543.467 479.068H577.5C577.841 479.068 578.159 479.242 578.343 479.53L607.736 525.568H640.388L541.804 428.983Z" fill="black"/>
<path d="M409 481.568H450L453.339 432.342L357.162 526.568H384.5L409 481.568Z" fill="#C8C7C7"/>
<path fill-rule="evenodd" clip-rule="evenodd" d="M453.757 431.434C454.134 431.607 454.365 431.995 454.336 432.409L450.998 481.635C450.962 482.16 450.526 482.568 450 482.568H409.594L385.378 527.046C385.203 527.367 384.866 527.568 384.5 527.568H357.162C356.756 527.568 356.39 527.322 356.237 526.946C356.083 526.569 356.172 526.138 356.463 525.853L452.639 431.628C452.935 431.337 453.38 431.26 453.757 431.434ZM359.612 525.568H383.906L408.122 481.09C408.297 480.768 408.634 480.568 409 480.568H449.065L452.163 434.893L359.612 525.568Z" fill="black"/>
<path d="M450.476 395.086L327.167 526.568H357.162L453.339 432.342L455.53 400.036L450.476 395.086Z" fill="#DEDDDE"/>
<path fill-rule="evenodd" clip-rule="evenodd" d="M450.455 394.086C450.724 394.08 450.984 394.183 451.176 394.372L456.23 399.322C456.439 399.527 456.548 399.812 456.528 400.104L454.337 432.41C454.32 432.654 454.214 432.884 454.039 433.056L357.862 527.282C357.675 527.465 357.424 527.568 357.163 527.568H327.167C326.768 527.568 326.407 527.331 326.249 526.965C326.09 526.599 326.164 526.174 326.437 525.884L449.747 394.402C449.931 394.206 450.186 394.092 450.455 394.086ZM450.506 396.515L329.475 525.568H356.754L452.367 431.894L454.501 400.428L450.506 396.515Z" fill="black"/>
<path d="M645 244.568L694 253.568L700.5 192.568L645 244.568Z" fill="#D3D2D2"/>
<path fill-rule="evenodd" clip-rule="evenodd" d="M700.946 191.673C701.32 191.859 701.539 192.258 701.494 192.674L694.994 253.674C694.965 253.95 694.821 254.202 694.598 254.369C694.375 254.535 694.093 254.601 693.819 254.551L644.819 245.551C644.448 245.483 644.147 245.212 644.041 244.849C643.934 244.487 644.041 244.096 644.316 243.838L699.816 191.838C700.121 191.552 700.572 191.486 700.946 191.673ZM647.13 243.942L693.12 252.389L699.221 195.137L647.13 243.942Z" fill="black"/>
<path d="M639 194.068L645 244.568L700.5 192.568L639 194.068Z" fill="#E9E9E9"/>
<path fill-rule="evenodd" clip-rule="evenodd" d="M701.425 192.189C701.583 192.573 701.486 193.014 701.184 193.297L645.684 245.297C645.408 245.555 645.012 245.636 644.657 245.507C644.303 245.378 644.051 245.06 644.007 244.686L638.007 194.186C637.974 193.906 638.06 193.625 638.244 193.413C638.429 193.2 638.694 193.075 638.976 193.068L700.476 191.568C700.89 191.558 701.268 191.805 701.425 192.189ZM640.123 195.041L645.76 242.486L697.902 193.631L640.123 195.041Z" fill="black"/>
<path d="M694 253.568L645 244.568L538.155 349.246L539.316 384.201L549.524 395.086L694 253.568Z" fill="#C8C7C7"/>
<path fill-rule="evenodd" clip-rule="evenodd" d="M644.3 243.853C644.532 243.626 644.861 243.525 645.181 243.584L694.181 252.584C694.548 252.652 694.847 252.918 694.956 253.275C695.066 253.632 694.967 254.021 694.7 254.282L550.224 395.8C550.032 395.988 549.772 396.091 549.503 396.086C549.234 396.08 548.979 395.966 548.795 395.77L538.586 384.885C538.42 384.708 538.324 384.477 538.316 384.234L537.155 349.279C537.146 348.999 537.254 348.728 537.455 348.532L644.3 243.853ZM645.329 245.645L539.169 349.653L540.303 383.791L549.554 393.656L691.923 254.203L645.329 245.645Z" fill="black"/>
<path d="M645 244.568L639 194.068L536.626 303.226L538.155 349.246L645 244.568Z" fill="#DEDDDE"/>
<path fill-rule="evenodd" clip-rule="evenodd" d="M639.312 193.118C639.682 193.239 639.947 193.564 639.993 193.95L645.993 244.45C646.03 244.758 645.921 245.065 645.7 245.282L538.854 349.961C538.571 350.238 538.151 350.322 537.783 350.174C537.414 350.027 537.168 349.676 537.155 349.279L535.627 303.26C535.618 302.994 535.715 302.736 535.897 302.542L638.271 193.384C638.537 193.1 638.943 192.996 639.312 193.118ZM537.639 303.608L539.079 346.941L643.949 244.197L638.26 196.318L537.639 303.608Z" fill="black"/>
<path d="M355 244.568L306 253.568L450.476 395.086L455.53 400.036L459.154 346.609L355 244.568Z" fill="#C8C7C7"/>
<path fill-rule="evenodd" clip-rule="evenodd" d="M354.819 243.584C355.139 243.525 355.468 243.626 355.7 243.853L459.854 345.895C460.062 346.099 460.171 346.385 460.151 346.677L456.528 400.104C456.501 400.493 456.251 400.832 455.886 400.971C455.521 401.11 455.109 401.024 454.83 400.751L305.3 254.282C305.033 254.021 304.935 253.632 305.044 253.275C305.153 252.918 305.452 252.652 305.819 252.584L354.819 243.584ZM308.078 254.203L454.679 397.803L458.125 347.001L354.671 245.645L308.078 254.203Z" fill="black"/>
<path d="M361 194.068L355 244.568L459.154 346.609L462.182 301.956L361 194.068Z" fill="#DEDDDE"/>
<path fill-rule="evenodd" clip-rule="evenodd" d="M360.688 193.118C361.057 192.996 361.463 193.1 361.729 193.384L462.912 301.272C463.102 301.474 463.199 301.746 463.18 302.023L460.151 346.677C460.125 347.066 459.874 347.405 459.51 347.544C459.145 347.682 458.733 347.597 458.454 347.323L354.3 245.282C354.079 245.065 353.97 244.758 354.007 244.45L360.007 193.95C360.053 193.564 360.318 193.239 360.688 193.118ZM361.74 196.318L356.051 244.197L458.303 344.376L461.155 302.322L361.74 196.318Z" fill="black"/>
<path d="M306 253.568L355 244.568L299.5 192.568L306 253.568Z" fill="#D3D2D2"/>
<path fill-rule="evenodd" clip-rule="evenodd" d="M299.054 191.673C299.428 191.486 299.879 191.552 300.184 191.838L355.684 243.838C355.959 244.096 356.066 244.487 355.96 244.849C355.853 245.212 355.552 245.483 355.181 245.551L306.181 254.551C305.907 254.601 305.625 254.535 305.402 254.369C305.179 254.202 305.035 253.95 305.006 253.674L298.506 192.674C298.461 192.258 298.68 191.859 299.054 191.673ZM300.779 195.137L306.88 252.389L352.87 243.942L300.779 195.137Z" fill="black"/>
<path d="M355 244.568L361 194.068L299.5 192.568L355 244.568Z" fill="#E9E9E9"/>
<path fill-rule="evenodd" clip-rule="evenodd" d="M298.575 192.189C298.732 191.805 299.11 191.558 299.524 191.568L361.024 193.068C361.306 193.075 361.571 193.2 361.756 193.413C361.94 193.625 362.026 193.906 361.993 194.186L355.993 244.686C355.949 245.06 355.697 245.378 355.343 245.507C354.988 245.636 354.592 245.555 354.316 245.297L298.816 193.297C298.514 193.014 298.417 192.573 298.575 192.189ZM302.098 193.631L354.24 242.486L359.877 195.041L302.098 193.631Z" fill="black"/>
<path d="M528.755 128.764C533.928 103.125 505.134 75.9096 512.001 48.7102C500.385 63.7615 471.884 86.7161 472.51 120.057C472.909 141.326 497.539 162.743 497.063 178.314C505.493 171.764 522.344 160.534 528.755 128.764Z" fill="#3777C5"/>
<path fill-rule="evenodd" clip-rule="evenodd" d="M512.001 48.7102C510.573 50.561 508.889 52.5313 507.036 54.6257C505.843 55.973 504.581 57.3716 503.271 58.8228C490.056 73.4622 472.011 93.453 472.51 120.057C472.721 131.309 479.715 142.604 486.185 153.052C490.768 160.453 495.088 167.429 496.548 173.665C496.922 175.265 497.109 176.817 497.063 178.314C497.553 177.933 498.071 177.537 498.614 177.122C499.339 176.568 500.107 175.98 500.91 175.351C509.872 168.341 523.213 156.226 528.755 128.764C531.253 116.383 525.83 103.634 520.327 90.697C515.484 79.311 510.579 67.7792 510.957 56.2238C511.039 53.72 511.369 51.215 512.001 48.7102ZM507.05 60.6058C506.765 60.922 506.478 61.2398 506.19 61.559C505.408 62.4256 504.615 63.3032 503.82 64.1901C499.545 68.9568 495.029 74.1499 490.909 79.8643C482.664 91.3003 476.219 104.527 476.509 119.982C476.685 129.334 482.252 139.069 488.519 149.221C488.872 149.794 489.228 150.368 489.585 150.944C492.271 155.281 494.99 159.67 497.067 163.855C498.22 166.179 499.246 168.572 499.97 170.988C503.275 168.314 506.944 165.004 510.541 160.501C516.206 153.406 521.753 143.243 524.834 127.973C525.955 122.416 525.274 116.597 523.505 110.354C521.84 104.477 519.301 98.5046 516.62 92.2019C516.435 91.7648 516.248 91.3261 516.061 90.8857C512.067 81.4798 507.785 71.2112 507.05 60.6058Z" fill="white"/>
<defs>
<linearGradient id="paint0_linear_17_148" x1="800.5" y1="637.068" x2="1000.5" y2="637.068" gradientUnits="userSpaceOnUse">
<stop stop-color="#3D4FAA"/>
<stop offset="1" stop-color="#4461B6"/>
</linearGradient>
<linearGradient id="paint1_linear_17_148" x1="203.5" y1="637.568" x2="3.50001" y2="637.568" gradientUnits="userSpaceOnUse">
<stop stop-color="#3D4FAA"/>
<stop offset="1" stop-color="#4461B6"/>
</linearGradient>
<linearGradient id="paint2_linear_17_148" x1="501" y1="360.567" x2="501" y2="-341.433" gradientUnits="userSpaceOnUse">
<stop stop-opacity="0.3"/>
<stop offset="0.557292" stop-opacity="0"/>
</linearGradient>
<linearGradient id="paint3_linear_17_148" x1="501" y1="360.567" x2="501" y2="1062.57" gradientUnits="userSpaceOnUse">
<stop stop-opacity="0.3"/>
<stop offset="0.557292" stop-opacity="0"/>
</linearGradient>
<linearGradient id="paint4_linear_17_148" x1="501" y1="360.567" x2="1203" y2="360.567" gradientUnits="userSpaceOnUse">
<stop stop-opacity="0.3"/>
<stop offset="0.557292" stop-opacity="0"/>
</linearGradient>
<linearGradient id="paint5_linear_17_148" x1="501" y1="360.567" x2="-201" y2="360.567" gradientUnits="userSpaceOnUse">
<stop stop-opacity="0.3"/>
<stop offset="0.557292" stop-opacity="0"/>
</linearGradient>
<linearGradient id="paint6_linear_17_148" x1="501" y1="360.567" x2="1189.38" y2="222.959" gradientUnits="userSpaceOnUse">
<stop stop-opacity="0.3"/>
<stop offset="0.557292" stop-opacity="0"/>
</linearGradient>
<linearGradient id="paint7_linear_17_148" x1="501" y1="360.567" x2="-187.381" y2="498.176" gradientUnits="userSpaceOnUse">
<stop stop-opacity="0.3"/>
<stop offset="0.557292" stop-opacity="0"/>
</linearGradient>
<linearGradient id="paint8_linear_17_148" x1="501" y1="360.567" x2="638.608" y2="1048.95" gradientUnits="userSpaceOnUse">
<stop stop-opacity="0.3"/>
<stop offset="0.557292" stop-opacity="0"/>
</linearGradient>
<linearGradient id="paint9_linear_17_148" x1="501" y1="360.567" x2="363.392" y2="-327.813" gradientUnits="userSpaceOnUse">
<stop stop-opacity="0.3"/>
<stop offset="0.557292" stop-opacity="0"/>
</linearGradient>
<linearGradient id="paint10_linear_17_148" x1="501" y1="360.567" x2="-187.381" y2="222.959" gradientUnits="userSpaceOnUse">
<stop stop-opacity="0.3"/>
<stop offset="0.557292" stop-opacity="0"/>
</linearGradient>
<linearGradient id="paint11_linear_17_148" x1="501" y1="360.567" x2="1189.38" y2="498.176" gradientUnits="userSpaceOnUse">
<stop stop-opacity="0.3"/>
<stop offset="0.557292" stop-opacity="0"/>
</linearGradient>
<linearGradient id="paint12_linear_17_148" x1="501" y1="360.567" x2="363.392" y2="1048.95" gradientUnits="userSpaceOnUse">
<stop stop-opacity="0.3"/>
<stop offset="0.557292" stop-opacity="0"/>
</linearGradient>
<linearGradient id="paint13_linear_17_148" x1="501" y1="360.567" x2="638.608" y2="-327.813" gradientUnits="userSpaceOnUse">
<stop stop-opacity="0.3"/>
<stop offset="0.557292" stop-opacity="0"/>
</linearGradient>
<linearGradient id="paint14_linear_17_148" x1="501" y1="360.567" x2="889.278" y2="-224.278" gradientUnits="userSpaceOnUse">
<stop stop-opacity="0.3"/>
<stop offset="0.557292" stop-opacity="0"/>
</linearGradient>
<linearGradient id="paint15_linear_17_148" x1="501" y1="360.567" x2="112.722" y2="945.413" gradientUnits="userSpaceOnUse">
<stop stop-opacity="0.3"/>
<stop offset="0.557292" stop-opacity="0"/>
</linearGradient>
<linearGradient id="paint16_linear_17_148" x1="501" y1="360.567" x2="1085.85" y2="748.846" gradientUnits="userSpaceOnUse">
<stop stop-opacity="0.3"/>
<stop offset="0.557292" stop-opacity="0"/>
</linearGradient>
<linearGradient id="paint17_linear_17_148" x1="501" y1="360.567" x2="-83.8455" y2="-27.7109" gradientUnits="userSpaceOnUse">
<stop stop-opacity="0.3"/>
<stop offset="0.557292" stop-opacity="0"/>
</linearGradient>
<linearGradient id="paint18_linear_17_148" x1="501" y1="360.567" x2="1150.61" y2="626.669" gradientUnits="userSpaceOnUse">
<stop stop-opacity="0.3"/>
<stop offset="0.557292" stop-opacity="0"/>
</linearGradient>
<linearGradient id="paint19_linear_17_148" x1="501" y1="360.567" x2="-148.61" y2="94.4654" gradientUnits="userSpaceOnUse">
<stop stop-opacity="0.3"/>
<stop offset="0.557292" stop-opacity="0"/>
</linearGradient>
<linearGradient id="paint20_linear_17_148" x1="501" y1="360.567" x2="234.898" y2="1010.18" gradientUnits="userSpaceOnUse">
<stop stop-opacity="0.3"/>
<stop offset="0.557292" stop-opacity="0"/>
</linearGradient>
<linearGradient id="paint21_linear_17_148" x1="501" y1="360.567" x2="767.102" y2="-289.043" gradientUnits="userSpaceOnUse">
<stop stop-opacity="0.3"/>
<stop offset="0.557292" stop-opacity="0"/>
</linearGradient>
<linearGradient id="paint22_linear_17_148" x1="501" y1="360.567" x2="3.61273" y2="-134.821" gradientUnits="userSpaceOnUse">
<stop stop-opacity="0.3"/>
<stop offset="0.557292" stop-opacity="0"/>
</linearGradient>
<linearGradient id="paint23_linear_17_148" x1="501" y1="360.567" x2="998.387" y2="855.956" gradientUnits="userSpaceOnUse">
<stop stop-opacity="0.3"/>
<stop offset="0.557292" stop-opacity="0"/>
</linearGradient>
<linearGradient id="paint24_linear_17_148" x1="501" y1="360.567" x2="5.61143" y2="857.955" gradientUnits="userSpaceOnUse">
<stop stop-opacity="0.3"/>
<stop offset="0.557292" stop-opacity="0"/>
</linearGradient>
<linearGradient id="paint25_linear_17_148" x1="501" y1="360.567" x2="996.388" y2="-136.82" gradientUnits="userSpaceOnUse">
<stop stop-opacity="0.3"/>
<stop offset="0.557292" stop-opacity="0"/>
</linearGradient>
<linearGradient id="paint26_linear_17_148" x1="501" y1="360.567" x2="1083.17" y2="-31.7101" gradientUnits="userSpaceOnUse">
<stop stop-opacity="0.3"/>
<stop offset="0.557292" stop-opacity="0"/>
</linearGradient>
<linearGradient id="paint27_linear_17_148" x1="501" y1="360.567" x2="-81.1705" y2="752.845" gradientUnits="userSpaceOnUse">
<stop stop-opacity="0.3"/>
<stop offset="0.557292" stop-opacity="0"/>
</linearGradient>
<linearGradient id="paint28_linear_17_148" x1="501" y1="360.567" x2="893.277" y2="942.738" gradientUnits="userSpaceOnUse">
<stop stop-opacity="0.3"/>
<stop offset="0.557292" stop-opacity="0"/>
</linearGradient>
<linearGradient id="paint29_linear_17_148" x1="501" y1="360.567" x2="108.723" y2="-221.603" gradientUnits="userSpaceOnUse">
<stop stop-opacity="0.3"/>
<stop offset="0.557292" stop-opacity="0"/>
</linearGradient>
<linearGradient id="paint30_linear_17_148" x1="501" y1="360.567" x2="230.452" y2="-287.204" gradientUnits="userSpaceOnUse">
<stop stop-opacity="0.3"/>
<stop offset="0.557292" stop-opacity="0"/>
</linearGradient>
<linearGradient id="paint31_linear_17_148" x1="501" y1="360.567" x2="771.548" y2="1008.34" gradientUnits="userSpaceOnUse">
<stop stop-opacity="0.3"/>
<stop offset="0.557292" stop-opacity="0"/>
</linearGradient>
<linearGradient id="paint32_linear_17_148" x1="501" y1="360.567" x2="-146.771" y2="631.115" gradientUnits="userSpaceOnUse">
<stop stop-opacity="0.3"/>
<stop offset="0.557292" stop-opacity="0"/>
</linearGradient>
<linearGradient id="paint33_linear_17_148" x1="501" y1="360.567" x2="1148.77" y2="90.0194" gradientUnits="userSpaceOnUse">
<stop stop-opacity="0.3"/>
<stop offset="0.557292" stop-opacity="0"/>
</linearGradient>
<linearGradient id="paint34_linear_17_148" x1="122.5" y1="746.568" x2="881.5" y2="746.568" gradientUnits="userSpaceOnUse">
<stop stop-color="#4053AD"/>
<stop offset="0.5" stop-color="#4563B8"/>
<stop offset="1" stop-color="#4053AC"/>
</linearGradient>
</defs>
</svg>
