<svg width="174" height="36" viewBox="0 0 174 36" fill="none" xmlns="http://www.w3.org/2000/svg">
<path d="M17.1253 28.287L16.7864 29.999H13.5302L12.588 35.7198H10.2409L11.5219 28.287H17.1253ZM22.522 33.1602L22.3071 30.5075L21.0261 33.1602H22.522ZM23.9848 28.287L25.0179 35.6943H22.6707L22.6129 34.7282H20.2658L19.7782 35.6943H17.4641L21.5798 28.287H23.9848ZM31.1997 31.6601H32.175C32.7204 31.6601 33.332 31.3126 33.332 30.66C33.332 30.1007 32.7204 30.0074 32.208 30.0074H31.5386L31.1997 31.6601ZM30.3816 35.6859H28.0014L29.5551 28.2785H33.0262C34.7948 28.2785 35.6461 28.9989 35.6461 30.1515C35.6461 32.0585 34.2741 33.3382 32.051 33.3382H30.8692L30.3816 35.6859ZM41.6874 33.1602L41.4725 30.5075L40.1915 33.1602H41.6874ZM43.1502 28.287L44.1833 35.6943H41.8362L41.7783 34.7282H39.4312L38.9436 35.6943H36.6295L40.7453 28.287H43.1502ZM50.5553 30.8804H52.7784L53.3239 28.287H55.671L54.1503 35.6859H51.7701L52.4148 32.5924H50.1916L49.547 35.6859H47.1751L48.7288 28.287H51.0759L50.5553 30.8804ZM61.795 35.6859H59.4562L60.6132 29.999H58.5057L58.8694 28.287H65.4562L65.1173 29.999H62.9851L61.795 35.6859ZM75.605 28.287L74.0761 35.6859H71.7951L72.2827 33.3467L72.8034 31.4398L69.324 35.6859H67.1008L68.6546 28.287H70.9108L70.4232 30.6261L69.9025 32.5331L73.4067 28.287H75.605ZM82.7952 29.999H81.8199C81.2745 29.999 80.696 30.3126 80.696 30.9651C80.696 31.2787 80.9687 31.4652 81.7042 31.4652H82.5307L82.7952 29.999ZM81.4811 33.0924L79.8365 35.652H77.3075L79.4067 32.7449C78.886 32.4992 78.4645 31.7449 78.4645 30.999C78.4645 30.0583 79.134 28.2531 82.0927 28.2531H85.5638L84.01 35.6265H81.6299L82.1753 33.067H81.4728V33.0924H81.4811ZM96.4812 30.6855L99.035 28.287H101.812L98.6135 31.0669L100.564 35.6859H97.7292L96.5969 32.7195L95.9275 33.3467L95.4399 35.6859H93.068L94.6217 28.287H96.9688L96.4812 30.6855ZM108.06 33.1602L107.845 30.5075L106.564 33.1602H108.06ZM109.523 28.287L110.556 35.6943H108.209L108.151 34.7282H105.804L105.316 35.6943H103.002L107.118 28.287H109.523ZM116.771 28.287L116.374 30.1939C116.341 30.2871 116.341 30.3804 116.341 30.4397C116.341 30.8465 116.614 31.033 117.101 31.033C117.556 31.033 117.986 30.9736 118.2 30.9058L118.746 28.2785H121.126L119.572 35.6859H117.192L117.804 32.6856C117.374 32.7789 117.043 32.8382 115.795 32.8382C114.853 32.8382 113.845 32.3042 113.845 31.0923C113.845 30.9397 113.878 30.7448 113.903 30.5583L114.39 28.2785H116.771V28.287ZM130.548 28.287L130.184 29.999H126.68L126.465 31.0669H129.415L129.052 32.7873H126.101L125.853 33.9739H129.515L129.143 35.6859H123.143L124.663 28.287H130.548ZM138.077 31.1262C138.077 31.0669 138.11 30.9736 138.11 30.9058C138.11 30.2787 137.746 29.9057 137.077 29.9057C135.556 29.9057 135.184 32.3127 135.184 32.9399C135.184 33.5925 135.457 34.0671 136.283 34.0671C137.043 34.0671 137.498 33.5331 137.746 32.8212H140.035C139.424 34.7282 137.845 35.8808 135.953 35.8808C133.944 35.8808 132.812 34.8214 132.812 33.0331C132.812 30.1261 135.068 28.092 137.325 28.092C139.333 28.092 140.341 29.0328 140.341 30.6516C140.341 30.8041 140.341 30.9651 140.308 31.1177H138.077V31.1262ZM146.696 35.6859H144.325L145.506 29.999H143.374L143.738 28.287H150.358L149.986 29.999H147.887L146.696 35.6859ZM155.292 31.2533H156.267C156.721 31.2533 157.242 31.0075 157.242 30.4397C157.242 30.0668 156.878 30.0329 156.391 30.0329H155.564L155.292 31.2533ZM154.713 33.9739H155.746C156.325 33.9739 156.936 33.8213 156.936 33.1009C156.936 32.6602 156.506 32.6009 155.746 32.6009H154.986L154.713 33.9739ZM153.556 28.287H157.002C158.465 28.287 159.564 28.6006 159.564 29.7278C159.564 30.6685 158.862 31.4143 158.25 31.7618C158.862 31.9144 159.135 32.4144 159.135 33.0416C159.135 35.0078 157.432 35.6943 155.506 35.6943H152.002L153.556 28.287ZM166.416 33.1602L166.201 30.5075L164.92 33.1602H166.416ZM167.878 28.287L168.911 35.6943H166.564L166.507 34.7282H164.159L163.672 35.6943H161.358L165.473 28.287H167.878Z" fill="#007E48"/>
<path d="M117.258 20.9729H122.101L124.754 5.50562H111.985L109.333 15.7268C109.151 16.4133 108.506 16.9472 107.812 16.9472H106.622L105.919 21.0068H108.597C111.126 21.0068 113.324 19.2864 113.961 16.7862L116.035 8.78554H119.3L117.258 20.9729ZM164.217 17.7523H171.837L171.292 20.9984H162.639C159.961 20.9984 157.457 19.4982 156.085 17.1506C154.746 14.7436 154.746 11.8027 156.085 9.37033C157.457 6.96336 159.953 5.52257 162.639 5.52257H173.978L172.639 13.2689H167.812L168.573 8.80249H164.242C162.688 8.80249 161.225 9.65001 160.465 11.023C159.672 12.4299 159.672 14.1504 160.465 15.5234C161.201 16.8794 162.663 17.7523 164.217 17.7523Z" fill="#007E48"/>
<path d="M151.176 5.50562H156.416L151.143 13.252L154.68 20.9729H149.407L145.878 13.252L151.176 5.50562Z" fill="#007E48"/>
<path d="M142.374 5.50562H147.217L144.564 20.9729H139.688L142.374 5.50562ZM135.944 14.8792H130.275L129.787 17.7523H137.862L137.308 20.9729H124.357L127.01 5.50562H139.961L139.382 8.78553H131.341L130.853 11.6247H136.49L135.944 14.8792ZM98.7044 20.9729L100.043 13.252L92.9771 20.9729H87.4233L90.0515 5.50562H94.8945L93.5804 13.252L100.622 5.50562H106.225L103.58 20.9729H98.7044ZM75.729 13.252L81.6382 5.50562H87.6713L81.7869 13.252L85.3241 20.9729H79.258L75.729 13.252ZM77.0679 5.50562L74.3819 20.9729H69.572L72.2249 5.50562H77.0679ZM58.9025 20.9729H64.9686L70.8778 13.252L67.3488 5.50562H61.3074L64.8199 13.252L58.9025 20.9729Z" fill="#007E48"/>
<path d="M43.299 8.78571H50.9189C52.4726 8.78571 53.9354 9.63323 54.7288 11.0062C55.4892 12.4131 55.4892 14.1336 54.7288 15.5066C53.9354 16.8796 52.4726 17.7525 50.9189 17.7525H46.6213L47.3817 13.2522H42.5387L41.2246 20.9985H52.5305C55.2412 20.9985 57.7454 19.4984 59.0842 17.1508C60.4231 14.7438 60.4231 11.8029 59.0842 9.4044C57.7454 7.00591 55.2412 5.55664 52.5305 5.55664H43.8775L43.299 8.78571Z" fill="#007E48"/>
<path d="M13.1914 18.9729H28.4311C31.6295 18.9729 34.5882 17.227 36.1998 14.3793C37.7866 11.5317 37.7866 8.03139 36.1998 5.19218C34.5882 2.3445 31.6626 0.564697 28.4311 0.564697H16.4558L15.6046 5.50576H27.6708C29.1667 5.50576 30.5386 6.31939 31.2989 7.63305C32.0262 8.94671 32.0262 10.5994 31.2989 11.913C30.5716 13.2267 29.1667 14.0403 27.6708 14.0403H23.8278L24.9518 7.50592H9.74506C6.54669 7.50592 3.58799 9.25182 1.97641 12.0995C0.389619 14.9472 0.389619 18.4475 1.97641 21.2528C3.58799 24.1005 6.54669 25.8463 9.74506 25.8463H21.7782L22.6047 20.9392H10.5385C9.04257 20.9392 7.64587 20.1256 6.91033 18.8458C6.18305 17.5321 6.18305 15.8795 6.91033 14.5319C7.6376 13.2182 9.04257 12.4046 10.5385 12.4046H14.3815L13.1914 18.9729Z" fill="#0092D4"/>
<path d="M170.713 24.2532H29.3733L29.1005 25.8804H170.465L170.713 24.2532Z" fill="#007E48"/>
</svg>
