<svg width="94" height="94" viewBox="0 0 94 94" fill="none" xmlns="http://www.w3.org/2000/svg">
<path fill-rule="evenodd" clip-rule="evenodd" d="M53.0001 3L54.5608 12H39.9394L41.5001 3H34.5001L31.847 12H26.1909L23.3816 21H29.1938L25.951 32H19.9481L17.1389 41H23.2978L20.0551 52H13.7053L10.8961 61H17.4019L14.1591 72H7.46257L4.65332 81H11.5059L9.00014 89.5H26.5001L27.9741 81H66.5262L68.0001 89.5H85.5001L82.9944 81H89.847L87.0377 72H80.3412L77.0984 61H83.6042L80.7949 52H74.4452L71.2025 41H77.3614L74.5522 32H68.5493L65.3065 21H71.1186L68.3094 12H62.6533L60.0001 3H53.0001ZM56.1215 21L58.029 32H36.4712L38.3788 21H56.1215ZM34.9105 41L33.003 52H61.4972L59.5897 41H34.9105ZM64.9655 72H29.5348L31.4423 61H63.0579L64.9655 72Z" fill="white"/>
</svg>
