<svg width="94" height="94" viewBox="0 0 94 94" fill="none" xmlns="http://www.w3.org/2000/svg">
<path fill-rule="evenodd" clip-rule="evenodd" d="M49.7906 6.9919L49.8687 15.7437L61.6279 15.7437V7.01868H67.6279V15.7437H77.3488V21.7437H67.6279V32.2843H77.3488V38.2843H67.6279V49.9406H61.6279V38.2843H49.8122L49.8953 49.9192L43.8954 49.962L43.8121 38.2843H31.9535V49.9406H25.9535V38.2843H16.4419V32.2843H25.9535V21.7437H16.4419V15.7437H25.9535V7.01868H31.9535V15.7437L43.8685 15.7437L43.7908 7.04545L49.7906 6.9919ZM49.8764 21.7437L61.6279 21.7437V32.2843H49.8098L49.8764 21.7437ZM43.8763 21.7437L43.8096 32.2843H31.9535V21.7437L43.8763 21.7437ZM77.2558 43.0312L92 57.6875V87H2V57.6875L16.7442 43.0312H20.8256V54.0812H72.5465V43.0312H77.2558Z" fill="white"/>
</svg>
