<?xml version="1.0" encoding="UTF-8" standalone="no"?>
<svg
   width="34"
   height="20"
   fill="none"
   version="1.1"
   id="svg6"
   sodipodi:docname="master.svg"
   inkscape:version="1.1 (c68e22c387, 2021-05-23)"
   xmlns:inkscape="http://www.inkscape.org/namespaces/inkscape"
   xmlns:sodipodi="http://sodipodi.sourceforge.net/DTD/sodipodi-0.dtd"
   xmlns="http://www.w3.org/2000/svg"
   xmlns:svg="http://www.w3.org/2000/svg">
  <defs
     id="defs10" />
  <sodipodi:namedview
     id="namedview8"
     pagecolor="#ffffff"
     bordercolor="#666666"
     borderopacity="1.0"
     inkscape:pageshadow="2"
     inkscape:pageopacity="0.0"
     inkscape:pagecheckerboard="0"
     showgrid="false"
     inkscape:zoom="37.676471"
     inkscape:cx="16.986729"
     inkscape:cy="9.9929742"
     inkscape:window-width="2560"
     inkscape:window-height="1411"
     inkscape:window-x="7191"
     inkscape:window-y="-9"
     inkscape:window-maximized="1"
     inkscape:current-layer="svg6" />
  <g
     id="g829"
     transform="translate(-0.0345,0.34)">
    <path
       d="m 7.328,11.01 c 0,0.257 0.132,0.386 0.395,0.386 0.46,0 0.724,-0.386 0.79,-0.964 H 8.249 c -0.592,0 -0.92,0.192 -0.92,0.578 z m 16.846,0 c 0,0.257 0.132,0.386 0.395,0.386 0.46,0 0.724,-0.386 0.79,-0.964 h -0.264 c -0.658,0 -0.92,0.192 -0.92,0.578 z M 16.146,9.082 c -0.33,0 -0.592,0.257 -0.658,0.707 h 1.184 c 0,-0.129 0.132,-0.707 -0.526,-0.707 z m 14.28,0.128 c -0.461,0 -0.856,0.579 -0.856,1.35 0,0.514 0.198,0.771 0.527,0.771 0.526,0 0.855,-0.578 0.855,-1.35 0.066,-0.513 -0.132,-0.77 -0.526,-0.77 z"
       fill="#454447"
       id="path2" />
    <path
       d="m 23.582,0.083 c -2.5,0 -4.804,0.9 -6.58,2.443 C 15.29,0.983 12.986,0.083 10.486,0.083 5.09,0.083 0.682,4.39 0.682,9.66 c 0,5.27 4.409,9.577 9.805,9.577 2.5,0 4.803,-0.9 6.514,-2.442 1.711,1.542 4.014,2.442 6.58,2.442 5.397,0 9.806,-4.306 9.806,-9.577 0,-5.27 -4.41,-9.577 -9.805,-9.577 z M 4.827,12.231 5.42,8.503 4.038,12.231 H 3.314 L 3.248,8.503 2.59,12.231 H 1.603 L 2.459,7.347 h 1.513 l 0.066,3.02 1.053,-3.02 H 6.736 L 5.88,12.23 H 4.827 Z m 3.554,0 v -0.385 c -0.263,0.321 -0.658,0.45 -1.119,0.45 -0.592,0 -0.987,-0.45 -0.987,-1.093 0,-0.964 0.658,-1.543 1.843,-1.543 h 0.46 C 8.644,9.532 8.644,9.468 8.644,9.403 8.644,9.146 8.447,9.018 7.986,9.018 7.46,9.018 7.065,9.146 6.867,9.21 c 0,-0.064 0.132,-0.9 0.132,-0.9 0.526,-0.128 0.856,-0.192 1.25,-0.192 0.922,0 1.382,0.385 1.382,1.157 0,0.193 0,0.45 -0.066,0.771 -0.065,0.579 -0.263,1.8 -0.329,2.121 -0.131,0.064 -0.855,0.064 -0.855,0.064 z M 11.54,9.853 c 0.526,0.257 0.723,0.579 0.723,1.093 0,0.9 -0.526,1.35 -1.645,1.35 -0.658,0 -0.855,-0.065 -1.118,-0.129 0,-0.064 0.131,-0.9 0.131,-0.9 0.33,0.129 0.658,0.129 0.987,0.129 0.395,0 0.593,-0.129 0.593,-0.386 0,-0.193 -0.066,-0.257 -0.527,-0.45 -0.592,-0.257 -0.79,-0.578 -0.79,-1.092 0,-0.707 0.395,-1.35 1.58,-1.35 0.263,0 0.658,0.064 0.921,0.064 l -0.132,0.9 C 12,9.018 11.737,9.018 11.473,9.018 c -0.328,0 -0.526,0.128 -0.526,0.321 0.066,0.257 0.132,0.321 0.593,0.514 z m 2.303,1.479 c 0.131,0 0.197,0 0.263,-0.065 l -0.132,0.9 c -0.263,0.064 -0.526,0.129 -0.79,0.129 -0.526,0 -0.855,-0.322 -0.855,-0.9 0,-0.193 0.066,-0.643 0.132,-1.029 l 0.46,-2.7 h 1.053 l -0.131,0.58 h 0.526 L 14.238,9.21 h -0.527 c -0.132,0.772 -0.329,1.672 -0.329,1.8 0.132,0.193 0.263,0.322 0.46,0.322 z m 2.5,0.064 a 2.37,2.37 0 0 0 1.119,-0.257 l -0.197,0.964 c -0.395,0.128 -0.724,0.128 -1.12,0.128 -1.184,0 -1.776,-0.578 -1.776,-1.735 0,-1.35 0.79,-2.378 1.843,-2.378 0.855,0 1.447,0.578 1.447,1.414 0,0.321 -0.065,0.578 -0.131,0.964 h -2.106 c -0.066,0.643 0.33,0.9 0.921,0.9 z m 2.37,0.835 h -1.054 l 0.066,-0.257 c 0.198,-1.22 0.395,-2.442 0.527,-3.663 h 0.987 c 0,0.192 -0.066,0.385 -0.066,0.578 0.329,-0.45 0.592,-0.707 1.053,-0.643 -0.132,0.193 -0.33,0.643 -0.395,1.157 -0.658,-0.064 -0.724,0.386 -1.119,2.828 z m 4.08,-0.064 c -0.396,0.129 -0.659,0.129 -0.922,0.129 -1.119,0 -1.842,-0.836 -1.842,-2.121 0,-1.736 0.986,-2.957 2.434,-2.957 0.46,0 0.987,0.193 1.185,0.257 L 23.45,8.503 C 23.055,8.311 22.792,8.246 22.529,8.246 c -0.79,0 -1.382,0.772 -1.382,1.8 0,0.707 0.395,1.157 0.987,1.157 0.263,0 0.527,-0.064 0.921,-0.257 l -0.263,1.221 z m 3.29,0.064 h -0.856 v -0.385 c -0.263,0.321 -0.658,0.45 -1.119,0.45 -0.592,0 -0.987,-0.45 -0.987,-1.093 0,-0.964 0.658,-1.543 1.843,-1.543 h 0.46 A 0.477,0.477 0 0 0 25.49,9.403 c 0,-0.257 -0.197,-0.385 -0.658,-0.385 -0.526,0 -0.921,0.128 -1.119,0.192 0,-0.064 0.132,-0.9 0.132,-0.9 0.527,-0.128 0.856,-0.192 1.25,-0.192 0.922,0 1.382,0.385 1.382,1.157 0,0.193 0,0.45 -0.066,0.771 -0.131,0.643 -0.329,1.864 -0.329,2.185 z m 1.447,0 h -1.053 l 0.066,-0.257 c 0.198,-1.22 0.395,-2.442 0.527,-3.663 h 0.987 c 0,0.192 -0.066,0.385 -0.066,0.578 0.329,-0.45 0.592,-0.707 1.053,-0.643 -0.132,0.193 -0.33,0.643 -0.395,1.157 -0.658,-0.064 -0.79,0.386 -1.119,2.828 z m 3.159,0 0.066,-0.385 c -0.264,0.321 -0.593,0.45 -0.987,0.45 -0.79,0 -1.317,-0.643 -1.317,-1.671 0,-1.286 0.79,-2.443 1.711,-2.443 0.395,0 0.724,0.193 0.988,0.514 l 0.263,-1.414 h 1.053 l -0.79,4.885 h -0.987 z"
       fill="#454447"
       id="path4" />
  </g>
</svg>
