<?xml version="1.0" encoding="UTF-8" standalone="no"?>
<svg
   width="41"
   height="20"
   fill="none"
   version="1.1"
   id="svg4"
   sodipodi:docname="mir.svg"
   inkscape:version="1.1 (c68e22c387, 2021-05-23)"
   xmlns:inkscape="http://www.inkscape.org/namespaces/inkscape"
   xmlns:sodipodi="http://sodipodi.sourceforge.net/DTD/sodipodi-0.dtd"
   xmlns="http://www.w3.org/2000/svg"
   xmlns:svg="http://www.w3.org/2000/svg">
  <defs
     id="defs8" />
  <sodipodi:namedview
     id="namedview6"
     pagecolor="#ffffff"
     bordercolor="#666666"
     borderopacity="1.0"
     inkscape:pageshadow="2"
     inkscape:pageopacity="0.0"
     inkscape:pagecheckerboard="0"
     showgrid="false"
     inkscape:zoom="31.243902"
     inkscape:cx="20.516003"
     inkscape:cy="6.001171"
     inkscape:window-width="2560"
     inkscape:window-height="1411"
     inkscape:window-x="7191"
     inkscape:window-y="-9"
     inkscape:window-maximized="1"
     inkscape:current-layer="svg4" />
  <g
     id="g826"
     transform="translate(0.31167509,4.32247)">
    <path
       fill-rule="evenodd"
       clip-rule="evenodd"
       d="M 4.007,0.125 C 4.362,0.123 5.416,0.025 5.862,1.571 6.163,2.612 6.642,4.318 7.3,6.688 H 7.568 C 8.273,4.189 8.758,2.484 9.021,1.571 9.472,0.009 10.6,0.125 11.05,0.125 h 3.481 V 11.232 H 10.983 V 4.686 H 10.745 L 8.767,11.232 H 6.097 L 4.12,4.682 H 3.882 v 6.55 H 0.335 V 0.125 Z m 15.62,0 v 6.55 H 19.91 L 22.316,1.289 C 22.783,0.217 23.78,0.125 23.78,0.125 h 3.433 V 11.232 H 23.59 v -6.55 h -0.283 l -2.359,5.386 c -0.467,1.066 -1.51,1.164 -1.51,1.164 H 16.005 V 0.125 Z m 20.105,5.278 c -0.505,1.468 -2.092,2.52 -3.848,2.52 h -3.799 v 3.309 H 28.64 V 5.402 H 39.732 Z M 36.05,0.125 h -7.59 c 0.18,2.473 2.257,4.59 4.406,4.59 h 7.106 C 40.382,2.659 38.97,0.125 36.05,0.125 Z"
       fill="#454447"
       id="path2" />
  </g>
</svg>
