<?xml version="1.0" encoding="UTF-8" standalone="no"?>
<svg
   width="46"
   height="20"
   fill="none"
   version="1.1"
   id="svg4"
   sodipodi:docname="netpay.svg"
   inkscape:version="1.1 (c68e22c387, 2021-05-23)"
   xmlns:inkscape="http://www.inkscape.org/namespaces/inkscape"
   xmlns:sodipodi="http://sodipodi.sourceforge.net/DTD/sodipodi-0.dtd"
   xmlns="http://www.w3.org/2000/svg"
   xmlns:svg="http://www.w3.org/2000/svg">
  <defs
     id="defs8" />
  <sodipodi:namedview
     id="namedview6"
     pagecolor="#ffffff"
     bordercolor="#666666"
     borderopacity="1.0"
     inkscape:pageshadow="2"
     inkscape:pageopacity="0.0"
     inkscape:pagecheckerboard="0"
     showgrid="false"
     inkscape:zoom="27.847826"
     inkscape:cx="22.982045"
     inkscape:cy="7.4871194"
     inkscape:window-width="2560"
     inkscape:window-height="1411"
     inkscape:window-x="7191"
     inkscape:window-y="-9"
     inkscape:window-maximized="1"
     inkscape:current-layer="svg4" />
  <g
     id="g826"
     transform="translate(0.43962929,2.175)">
    <path
       fill-rule="evenodd"
       clip-rule="evenodd"
       d="M 2.184,0.934 1.093,6.019 C 0.499,8.79 0.008,11.073 0.001,11.094 -0.01,11.13 0.032,11.132 0.923,11.126 1.768,11.12 1.865,11.116 1.944,11.081 2.127,11.001 2.214,10.876 2.281,10.594 2.305,10.497 2.604,9.108 2.948,7.507 3.291,5.906 3.576,4.592 3.581,4.587 c 0.004,-0.005 0.013,0.005 0.02,0.021 0.267,0.732 2.322,6.097 2.361,6.168 0.08,0.143 0.245,0.283 0.382,0.322 0.09,0.026 0.271,0.032 1.009,0.032 H 8.251 L 8.264,11.082 9.334,6.104 10.422,1.029 10.453,0.885 9.535,0.892 C 8.87,0.898 8.593,0.907 8.533,0.927 A 0.542,0.542 0 0 0 8.236,1.207 C 8.196,1.297 7.75,3.335 6.966,7.013 6.914,7.255 6.866,7.453 6.861,7.453 6.855,7.453 6.335,6.098 5.705,4.441 A 260.827,260.827 0 0 0 4.502,1.308 0.81,0.81 0 0 0 4.162,0.948 C 4.06,0.897 4.054,0.897 3.128,0.89 L 2.196,0.885 Z M 24.096,0.933 c -0.012,0.048 -0.281,1.304 -1.55,7.222 a 666.809,666.809 0 0 1 -0.633,2.94 c -0.012,0.036 0.03,0.037 0.922,0.031 0.933,-0.007 0.934,-0.007 1.038,-0.057 a 0.517,0.517 0 0 0 0.27,-0.31 c 0.018,-0.06 0.188,-0.824 0.376,-1.7 l 0.343,-1.595 1.023,-0.013 c 0.997,-0.013 1.112,-0.02 1.488,-0.095 1.428,-0.284 2.533,-1.185 2.915,-2.378 0.11,-0.34 0.145,-0.567 0.157,-1.01 C 30.462,3.373 30.388,2.92 30.211,2.517 29.838,1.672 29.104,1.171 27.966,0.985 27.496,0.908 27.376,0.904 25.748,0.893 l -1.64,-0.01 z M 19.633,1.375 A 0.548,0.548 0 0 0 19.258,1.73 C 19.24,1.78 19.171,2.09 19.103,2.42 A 37.83,37.83 0 0 1 18.97,3.058 C 18.96,3.09 18.904,3.094 18.464,3.101 18.015,3.107 17.96,3.112 17.871,3.153 A 0.675,0.675 0 0 0 17.567,3.45 17.476,17.476 0 0 0 17.261,4.683 c 0,0.004 0.307,0.01 0.682,0.013 L 18.625,4.702 18.15,6.88 A 210.321,210.321 0 0 0 17.632,9.3 c -0.199,1.096 0.263,1.707 1.409,1.863 0.208,0.029 0.362,0.033 0.792,0.024 0.483,-0.01 1.021,-0.046 1.045,-0.07 0.01,-0.009 0.349,-1.49 0.35,-1.528 0,-0.015 -0.052,-0.017 -0.157,-0.007 -0.234,0.023 -0.866,0.02 -0.954,-0.003 A 0.516,0.516 0 0 1 19.831,9.336 c -0.058,-0.124 -0.053,-0.359 0.012,-0.653 0.03,-0.133 0.231,-1.068 0.448,-2.08 0.217,-1.01 0.4,-1.854 0.405,-1.873 0.01,-0.032 0.072,-0.036 0.572,-0.042 l 0.56,-0.008 0.124,-0.059 a 0.62,0.62 0 0 0 0.303,-0.3 7.05,7.05 0 0 0 0.162,-0.618 C 22.484,3.411 22.544,3.155 22.55,3.134 22.561,3.099 22.516,3.097 21.808,3.097 c -0.415,0 -0.754,-0.003 -0.754,-0.006 l 0.175,-0.855 c 0.096,-0.466 0.174,-0.856 0.174,-0.865 0,-0.022 -1.694,-0.018 -1.77,0.004 z m 7.61,1.315 c 0.283,0.06 0.57,0.2 0.729,0.354 0.246,0.24 0.334,0.518 0.314,0.997 C 28.273,4.357 28.24,4.53 28.15,4.751 27.97,5.195 27.587,5.505 27.058,5.636 26.81,5.698 26.618,5.71 25.93,5.711 h -0.694 l 0.011,-0.048 c 0.007,-0.026 0.15,-0.707 0.32,-1.514 0.17,-0.806 0.313,-1.48 0.319,-1.495 0.016,-0.05 1.09,-0.02 1.357,0.036 z M 13.794,3.112 C 11.874,3.197 10.762,4.08 10.111,6.037 A 10.446,10.446 0 0 0 9.718,7.729 c -0.049,0.388 -0.021,0.934 0.068,1.34 0.245,1.12 1.08,1.883 2.282,2.083 0.211,0.036 0.354,0.042 0.96,0.042 0.99,0 1.512,-0.04 2.091,-0.16 0.524,-0.107 0.648,-0.227 0.84,-0.807 0.084,-0.255 0.255,-0.899 0.255,-0.962 0,-0.038 -0.007,-0.038 -0.234,0 C 15.532,9.339 14.544,9.472 14.1,9.518 13.509,9.579 12.807,9.585 12.584,9.53 A 1.24,1.24 0 0 1 11.99,9.21 C 11.746,8.963 11.651,8.667 11.662,8.187 L 11.668,7.911 13.99,7.9 16.312,7.89 16.414,7.84 C 16.627,7.738 16.756,7.53 16.866,7.113 17.072,6.33 17.062,5.591 16.836,4.935 A 2.621,2.621 0 0 0 15.502,3.406 2.947,2.947 0 0 0 14.415,3.119 C 14.186,3.099 14.116,3.097 13.794,3.112 Z m 20.658,0.423 c -0.272,0.028 -0.6,0.082 -0.837,0.138 a 5.158,5.158 0 0 0 -2.894,1.868 5.304,5.304 0 0 0 -1.078,2.578 c -0.038,0.308 -0.015,0.93 0.044,1.162 0.25,0.988 1.013,1.656 2.1,1.84 0.295,0.05 0.783,0.032 1.067,-0.04 0.374,-0.096 0.682,-0.258 0.902,-0.476 0.075,-0.074 0.121,-0.106 0.127,-0.088 l 0.033,0.12 c 0.06,0.212 0.331,0.424 0.602,0.47 0.075,0.013 0.42,0.023 0.789,0.023 0.544,0 0.66,-0.005 0.681,-0.03 0.021,-0.025 0.017,-0.039 -0.02,-0.07 A 0.825,0.825 0 0 1 35.763,10.684 C 35.672,10.363 35.696,10.135 35.902,9.366 36.614,6.704 37.102,4.628 37.101,4.269 37.1,4.055 36.999,3.909 36.783,3.809 36.633,3.739 36.205,3.636 35.853,3.583 35.574,3.542 34.687,3.511 34.453,3.535 Z m 3.028,0.086 c 0.006,0.022 0.18,0.766 0.385,1.654 l 1.244,5.38 0.109,0.47 -0.81,1.686 c -0.446,0.928 -0.839,1.748 -0.873,1.821 l -0.063,0.135 0.932,-0.007 c 0.893,-0.006 0.936,-0.008 1.03,-0.051 0.146,-0.066 0.275,-0.205 0.37,-0.4 l 0.454,-0.926 c 0.508,-1.036 2.911,-5.879 4.415,-8.9 l 0.448,-0.897 h -0.824 c -0.453,0 -0.884,0.006 -0.958,0.014 a 0.598,0.598 0 0 0 -0.438,0.258 c -0.044,0.062 -0.579,1.107 -1.19,2.32 -0.61,1.215 -1.116,2.197 -1.124,2.183 A 2.048,2.048 0 0 1 40.527,8.144 L 40.306,7.23 39.824,5.244 A 29.972,29.972 0 0 0 39.479,3.894 0.501,0.501 0 0 0 39.199,3.637 C 39.11,3.606 38.985,3.599 38.282,3.591 37.497,3.582 37.468,3.583 37.48,3.621 Z M 14.255,4.658 c 0.31,0.064 0.595,0.267 0.716,0.51 0.111,0.221 0.137,0.364 0.128,0.712 -0.005,0.17 -0.016,0.321 -0.026,0.336 -0.013,0.02 -0.354,0.026 -1.586,0.026 h -1.569 l 0.014,-0.058 c 0.042,-0.171 0.132,-0.418 0.207,-0.564 0.273,-0.535 0.658,-0.835 1.219,-0.951 0.23,-0.048 0.69,-0.054 0.896,-0.011 z m 20.87,0.544 c 0.026,0.025 -0.258,1.023 -0.672,2.369 -0.148,0.479 -0.301,0.985 -0.341,1.124 l -0.073,0.254 -0.218,0.1 C 33.418,9.234 33.111,9.317 32.762,9.337 32.126,9.372 31.701,9.096 31.572,8.564 A 1.22,1.22 0 0 1 31.55,8.176 c 0.04,-0.738 0.401,-1.485 1.004,-2.073 0.483,-0.47 1.063,-0.781 1.66,-0.89 0.168,-0.03 0.883,-0.039 0.912,-0.01 z"
       fill="#454447"
       id="path2" />
  </g>
</svg>
