<?xml version="1.0" encoding="UTF-8" standalone="no"?>
<svg
   width="20"
   height="20"
   fill="none"
   version="1.1"
   id="svg6"
   sodipodi:docname="sber.svg"
   inkscape:version="1.1 (c68e22c387, 2021-05-23)"
   xmlns:inkscape="http://www.inkscape.org/namespaces/inkscape"
   xmlns:sodipodi="http://sodipodi.sourceforge.net/DTD/sodipodi-0.dtd"
   xmlns="http://www.w3.org/2000/svg"
   xmlns:svg="http://www.w3.org/2000/svg">
  <defs
     id="defs10" />
  <sodipodi:namedview
     id="namedview8"
     pagecolor="#ffffff"
     bordercolor="#666666"
     borderopacity="1.0"
     inkscape:pageshadow="2"
     inkscape:pageopacity="0.0"
     inkscape:pagecheckerboard="0"
     showgrid="false"
     inkscape:zoom="43.65"
     inkscape:cx="9.9885452"
     inkscape:cy="10"
     inkscape:window-width="2560"
     inkscape:window-height="1411"
     inkscape:window-x="7191"
     inkscape:window-y="-9"
     inkscape:window-maximized="1"
     inkscape:current-layer="svg6" />
  <g
     id="g829"
     transform="translate(-0.15181468,0.17891395)">
    <path
       d="M 17.706,3.907 A 9.73,9.73 0 0 1 18.849,5.83 L 10.155,12.325 6.521,10.017 V 7.24 l 3.634,2.308 7.55,-5.641 z M 2.813,9.82 c 0,-0.124 0.003,-0.248 0.009,-0.37 L 0.62,9.34 a 9.76,9.76 0 0 0 0.713,4.184 9.655,9.655 0 0 0 2.07,3.135 L 4.965,15.077 A 7.419,7.419 0 0 1 3.371,12.667 7.5,7.5 0 0 1 2.813,9.821 Z m 7.338,-7.438 c 0.123,0 0.245,0.005 0.367,0.01 L 10.628,0.16 A 9.409,9.409 0 0 0 6.498,0.883 9.511,9.511 0 0 0 3.402,2.98 l 1.562,1.583 a 7.309,7.309 0 0 1 2.378,-1.616 7.23,7.23 0 0 1 2.81,-0.566 z m 0.003,14.878 c -0.123,0 -0.245,0 -0.367,-0.01 l -0.11,2.232 a 9.403,9.403 0 0 0 4.13,-0.722 9.508,9.508 0 0 0 3.093,-2.1 l -1.559,-1.582 a 7.312,7.312 0 0 1 -2.379,1.615 7.233,7.233 0 0 1 -2.808,0.567 z"
       fill="#454447"
       id="path2" />
    <path
       d="M 14.29,3.68 16.146,2.294 A 9.424,9.424 0 0 0 10.15,0.148 v 2.234 a 7.235,7.235 0 0 1 4.14,1.298 z m 5.406,6.14 a 9.854,9.854 0 0 0 -0.15,-1.733 l -2.054,1.534 v 0.2 c 0,1.039 -0.214,2.067 -0.63,3.016 a 7.417,7.417 0 0 1 -1.788,2.497 l 1.482,1.66 a 9.645,9.645 0 0 0 2.322,-3.249 9.757,9.757 0 0 0 0.818,-3.925 z m -9.544,7.44 A 7.242,7.242 0 0 1 7.175,16.62 7.328,7.328 0 0 1 4.711,14.809 l -1.637,1.5 a 9.526,9.526 0 0 0 3.205,2.355 9.411,9.411 0 0 0 3.873,0.83 V 17.259 Z M 5.23,4.307 3.75,2.647 A 9.643,9.643 0 0 0 1.426,5.896 9.758,9.758 0 0 0 0.608,9.82 h 2.205 c 0,-1.039 0.214,-2.067 0.63,-3.016 A 7.416,7.416 0 0 1 5.231,4.307 Z"
       fill="#454447"
       id="path4" />
  </g>
</svg>
