<?xml version="1.0" encoding="UTF-8" standalone="no"?>
<svg
   width="28"
   height="20"
   fill="none"
   version="1.1"
   id="svg4"
   sodipodi:docname="union.svg"
   inkscape:version="1.1 (c68e22c387, 2021-05-23)"
   xmlns:inkscape="http://www.inkscape.org/namespaces/inkscape"
   xmlns:sodipodi="http://sodipodi.sourceforge.net/DTD/sodipodi-0.dtd"
   xmlns="http://www.w3.org/2000/svg"
   xmlns:svg="http://www.w3.org/2000/svg">
  <defs
     id="defs8" />
  <sodipodi:namedview
     id="namedview6"
     pagecolor="#ffffff"
     bordercolor="#666666"
     borderopacity="1.0"
     inkscape:pageshadow="2"
     inkscape:pageopacity="0.0"
     inkscape:pagecheckerboard="0"
     showgrid="false"
     inkscape:zoom="45.75"
     inkscape:cx="13.989071"
     inkscape:cy="8.9945355"
     inkscape:window-width="2560"
     inkscape:window-height="1411"
     inkscape:window-x="7191"
     inkscape:window-y="-9"
     inkscape:window-maximized="1"
     inkscape:current-layer="svg4" />
  <g
     id="g826"
     transform="translate(-0.28689379,1.275)">
    <path
       fill-rule="evenodd"
       clip-rule="evenodd"
       d="M 12.221,0.148 H 5.945 c -0.957,0 -1.913,0.779 -2.136,1.737 L 0.621,15.567 c -0.223,0.956 0.373,1.735 1.327,1.735 h 20.679 c 0.956,0 1.914,-0.78 2.139,-1.735 L 27.952,1.885 C 28.177,0.927 27.582,0.148 26.626,0.148 H 12.22 Z M 6.755,4.517 C 6.822,4.533 7.03,4.54 7.734,4.533 7.73,4.539 7.728,4.546 7.726,4.558 L 7.724,4.563 c -0.087,0.27 -0.6,2.343 -0.6,2.343 L 7.066,7.13 V 7.131 C 6.942,7.566 6.803,8.055 6.273,8.369 5.967,8.556 5.515,8.658 5.033,8.658 4.659,8.658 3.997,8.598 3.765,8.192 A 0.919,0.919 0 0 1 3.657,7.728 L 3.741,7.104 3.785,6.913 4.294,4.663 c 0,0 0.024,-0.125 0.03,-0.146 0.012,0.016 0.184,0.024 1.155,0.016 A 0.192,0.192 0 0 1 5.471,4.563 C 5.382,4.827 4.884,6.823 4.884,6.823 L 4.789,7.42 4.794,7.521 c 0.031,0.294 0.213,0.45 0.525,0.45 A 0.765,0.765 0 0 0 5.824,7.794 C 6.077,7.59 6.151,7.274 6.254,6.831 6.254,6.829 6.73,4.638 6.755,4.517 Z m 2.173,1.818 c 0.203,-0.1 0.43,-0.13 0.553,-0.13 0.19,0 0.396,0.053 0.482,0.272 0.082,0.194 0.028,0.434 -0.08,0.906 L 9.828,7.623 C 9.718,8.148 9.699,8.245 9.638,8.605 L 9.597,8.636 A 9.535,9.535 0 0 0 8.729,8.652 L 8.714,8.622 C 8.73,8.547 8.748,8.474 8.765,8.401 L 8.821,8.162 8.871,7.952 C 8.944,7.627 9.017,7.248 9.025,7.132 L 9.026,7.127 C 9.034,7.055 9.053,6.89 8.859,6.89 A 0.66,0.66 0 0 0 8.599,6.971 C 8.561,7.108 8.492,7.439 8.442,7.681 L 8.406,7.853 A 20.81,20.81 0 0 0 8.256,8.605 L 8.226,8.636 A 9.9,9.9 0 0 0 7.341,8.652 L 7.322,8.617 C 7.39,8.34 7.458,8.06 7.523,7.782 7.695,7.029 7.736,6.741 7.782,6.357 L 7.815,6.335 7.89,6.325 C 8.227,6.277 8.338,6.262 8.74,6.18 L 8.777,6.22 8.711,6.46 8.761,6.43 C 8.817,6.397 8.871,6.364 8.928,6.335 Z m 2.434,0.378 0.07,-0.013 0.009,0.018 0.005,0.02 -0.053,0.217 -0.066,0.274 c -0.017,0.077 -0.036,0.154 -0.054,0.23 l -0.06,0.261 a 73.994,73.994 0 0 1 -0.127,0.57 2.748,2.748 0 0 0 -0.027,0.154 l -0.026,0.161 -0.02,0.016 -0.018,0.015 -0.18,-10e-4 a 6.073,6.073 0 0 0 -0.291,0 C 10.405,8.636 10.289,8.642 10.123,8.65 L 10.075,8.652 10.065,8.635 10.052,8.617 A 2.92,2.92 0 0 1 10.15,8.304 L 10.16,8.278 C 10.186,8.207 10.21,8.136 10.257,7.934 A 8.15,8.15 0 0 0 10.379,7.325 C 10.4,7.21 10.414,7.108 10.429,7 L 10.444,6.882 10.459,6.87 10.476,6.855 c 0.206,-0.028 0.337,-0.048 0.471,-0.07 0.12,-0.015 0.24,-0.038 0.415,-0.072 z m -0.69,-0.6 c 0.23,-0.158 0.571,-0.194 0.765,-0.08 0.192,0.114 0.163,0.332 -0.065,0.49 -0.227,0.16 -0.57,0.194 -0.76,0.082 -0.194,-0.116 -0.168,-0.336 0.06,-0.491 z m 3.039,2.145 c -0.304,0.322 -0.706,0.43 -1.1,0.43 -0.153,0 -0.392,-0.02 -0.557,-0.09 -0.537,-0.218 -0.451,-0.801 -0.377,-1.125 0.074,-0.318 0.196,-0.65 0.46,-0.894 0.367,-0.339 0.838,-0.358 1.035,-0.358 0.329,0 0.645,0.073 0.825,0.303 0.117,0.15 0.211,0.397 0.09,0.926 -0.036,0.16 -0.143,0.548 -0.376,0.808 z M 13.051,6.76 c -0.272,0 -0.38,0.336 -0.47,0.737 a 1.728,1.728 0 0 0 -0.055,0.392 c 0.002,0.253 0.173,0.253 0.202,0.253 0.096,0 0.183,-0.063 0.257,-0.167 0.106,-0.141 0.184,-0.473 0.2,-0.563 C 13.281,7.01 13.265,6.76 13.052,6.76 Z m 2.05,1.845 -0.031,0.031 A 9.867,9.867 0 0 0 14.186,8.652 L 14.167,8.617 C 14.235,8.34 14.303,8.06 14.368,7.782 14.539,7.029 14.578,6.741 14.627,6.357 l 0.03,-0.022 0.084,-0.012 c 0.33,-0.046 0.444,-0.062 0.843,-0.143 l 0.033,0.04 -0.062,0.24 a 3.7,3.7 0 0 1 0.216,-0.125 c 0.202,-0.1 0.43,-0.13 0.554,-0.13 0.187,0 0.395,0.053 0.483,0.272 0.08,0.195 0.026,0.434 -0.083,0.905 l -0.054,0.242 c -0.113,0.524 -0.13,0.62 -0.19,0.981 l -0.042,0.031 a 9.504,9.504 0 0 0 -0.867,0.016 l -0.014,-0.03 c 0.019,-0.086 0.039,-0.17 0.06,-0.254 l 0.049,-0.206 0.047,-0.21 c 0.075,-0.325 0.148,-0.704 0.155,-0.82 V 7.128 C 15.878,7.056 15.897,6.89 15.704,6.89 c -0.086,0 -0.17,0.04 -0.258,0.08 l -0.003,0.001 c -0.035,0.13 -0.1,0.43 -0.15,0.668 l -0.045,0.214 a 24.776,24.776 0 0 0 -0.147,0.752 z m 3.11,-0.81 -0.177,0.857 C 17.922,8.64 17.655,8.64 17.006,8.648 l 0.668,-2.751 0.266,-1.238 0.03,-0.15 c 0.123,0.014 0.421,0.017 1.166,0.008 l 0.286,-0.003 c 0.581,0.003 1.085,0.01 1.338,0.363 0.1,0.133 0.134,0.303 0.134,0.475 0,0.131 -0.02,0.262 -0.046,0.372 -0.103,0.45 -0.334,0.82 -0.671,1.07 -0.496,0.364 -1.129,0.364 -1.69,0.364 h -0.059 c -0.04,0.022 -0.08,0.079 -0.08,0.079 -0.008,0.02 -0.137,0.557 -0.137,0.557 z m 0.6,-2.566 c 0,-0.005 -0.283,1.228 -0.283,1.228 l -0.012,0.062 h 0.154 c 0.238,0 0.469,-0.008 0.657,-0.102 A 0.901,0.901 0 0 0 19.794,5.8 C 19.861,5.5 19.766,5.27 19.534,5.18 19.521,5.18 18.937,5.129 18.937,5.129 L 18.823,5.117 18.819,5.165 18.81,5.229 Z m 1.855,3.402 C 20.132,8.423 20.218,7.839 20.293,7.521 20.364,7.203 20.489,6.873 20.75,6.631 21.12,6.294 21.552,6.201 21.736,6.273 a 0.59,0.59 0 0 1 0.3,0.248 l 0.007,-0.047 0.006,-0.05 0.032,-0.026 C 22.494,6.34 22.608,6.323 23.038,6.243 l 0.012,0.036 c -0.079,0.326 -0.155,0.65 -0.232,0.977 -0.152,0.657 -0.21,1.003 -0.27,1.346 l -0.006,0.04 -0.038,0.03 A 14.213,14.213 0 0 0 21.585,8.685 L 21.561,8.653 21.599,8.508 c -0.14,0.118 -0.292,0.2 -0.456,0.209 A 1.042,1.042 0 0 1 20.666,8.631 Z m 1,-1.818 c -0.274,0 -0.38,0.333 -0.471,0.727 a 1.71,1.71 0 0 0 -0.056,0.391 c 0.006,0.25 0.174,0.25 0.202,0.25 0.096,0 0.264,-0.063 0.334,-0.162 A 0.85,0.85 0 0 0 21.776,7.814 L 21.798,7.726 A 18.333,18.333 0 0 0 21.912,7.245 C 21.93,6.973 21.839,6.813 21.666,6.813 Z m 4.206,-0.61 0.033,0.037 c 0,0 -1.711,2.935 -1.936,3.419 l -0.035,0.04 h 0.005 l -0.334,0.573 c -0.106,0.196 -0.302,0.342 -0.614,0.344 l -0.532,-0.01 0.155,-0.515 h 0.104 a 0.284,0.284 0 0 0 0.124,-0.018 c 0.027,-0.009 0.047,-0.03 0.068,-0.062 L 23.098,9.714 23.096,9.71 A 7.5,7.5 0 0 0 23.44,9.139 C 23.512,9.009 23.591,8.868 23.707,8.676 23.666,8.246 23.643,8.06 23.613,7.812 A 17.263,17.263 0 0 0 23.556,7.365 C 23.541,7.261 23.526,7.157 23.514,7.053 L 23.489,6.846 A 3.905,3.905 0 0 0 23.424,6.434 L 23.421,6.428 23.423,6.412 c 0.001,-0.01 0.002,-0.02 0.005,-0.029 L 23.46,6.355 c 0.3,-0.039 0.386,-0.056 0.583,-0.096 l 0.284,-0.057 0.037,0.038 0.06,1.144 v 0.032 l 0.002,0.033 c 0.108,-0.24 0.165,-0.341 0.222,-0.443 0.069,-0.122 0.139,-0.246 0.297,-0.61 l 0.001,0.006 0.005,-0.019 0.028,-0.028 c 0.39,-0.053 0.468,-0.067 0.893,-0.153 z m -5.805,6.808 h 0.226 l -0.175,0.57 h -0.223 l -0.052,0.176 h -0.795 l 0.054,-0.176 H 17.49 l 0.16,-0.528 h 0.165 l 0.846,-2.804 0.169,-0.565 h 0.81 l -0.086,0.285 c 0,0 0.216,-0.155 0.42,-0.208 0.17,-0.045 1.006,-0.066 1.285,-0.072 V 9.688 h 0.866 l 0.008,0.321 c -0.006,0.055 0.041,0.08 0.142,0.08 h 0.176 l -0.16,0.532 h -0.468 c -0.404,0.03 -0.558,-0.144 -0.547,-0.34 l -0.009,-0.316 -0.088,0.284 h -0.277 z m -0.806,-2.056 c 0,0 0.24,-0.109 0.37,-0.145 0.133,-0.035 0.332,-0.046 0.332,-0.046 l 0.155,-0.514 h -0.643 l -0.215,0.705 z m 0.048,0.92 c 0.133,-0.03 0.335,-0.056 0.335,-0.056 L 19.8,11.305 h -0.646 l -0.222,0.734 c 0,0 0.246,-0.125 0.377,-0.165 z m -0.67,1.142 h 0.644 l 0.185,-0.62 h -0.643 l -0.187,0.62 z m 3.128,-1.712 h -0.93 l 0.158,-0.534 h 2.588 l -0.16,0.534 h -0.869 l -0.135,0.432 h 0.87 l -0.144,0.473 h -0.94 l -0.168,0.2 h 0.382 l 0.093,0.596 0.007,0.043 c 0.005,0.036 0.009,0.062 0.023,0.08 0.02,0.022 0.134,0.033 0.2,0.033 h 0.117 l -0.177,0.58 h -0.294 c -0.04,0 -0.097,-0.003 -0.175,-0.006 l -0.031,-0.001 a 0.38,0.38 0 0 1 -0.163,-0.063 0.807,0.807 0 0 0 -0.047,-0.027 0.28,0.28 0 0 1 -0.153,-0.202 l -0.092,-0.595 -0.428,0.586 a 0.727,0.727 0 0 1 -0.63,0.328 h -0.6 l 0.158,-0.519 h 0.229 a 0.37,0.37 0 0 0 0.167,-0.048 0.257,0.257 0 0 0 0.127,-0.105 l 0.624,-0.88 H 20.55 l 0.141,-0.473 h 0.942 z m -8.567,1.11 -0.217,0.723 c -0.027,0.08 0.212,0.09 0.298,0.09 l 0.446,-0.062 -0.18,0.595 h -1.005 a 0.962,0.962 0 0 1 -0.229,-0.03 0.24,0.24 0 0 1 -0.16,-0.117 0.596,0.596 0 0 0 -0.018,-0.028 c -0.034,-0.048 -0.07,-0.1 -0.036,-0.206 l 0.29,-0.955 h -0.497 l 0.165,-0.546 h 0.497 l 0.133,-0.445 h -0.496 l 0.158,-0.52 h 2.183 l -0.161,0.52 h -0.873 l -0.136,0.445 h 0.893 l -0.163,0.537 H 13.2 Z M 12.859,10.09 13.085,9.681 h 0.889 l -0.156,0.297 h 0.895 l -0.162,0.545 h -1.224 l -0.132,0.114 c -0.034,0.033 -0.054,0.038 -0.08,0.045 -0.02,0.005 -0.04,0.011 -0.071,0.027 a 0.888,0.888 0 0 1 -0.402,0.104 H 12.25 l 0.158,-0.523 h 0.118 c 0.099,0 0.167,-0.009 0.202,-0.03 a 0.474,0.474 0 0 0 0.13,-0.17 z m 2.058,2.865 c -0.032,0.11 -0.047,0.163 -0.026,0.193 a 0.138,0.138 0 0 0 0.113,0.056 l 0.525,-0.05 -0.18,0.607 h -0.586 a 5.865,5.865 0 0 1 -0.477,-0.015 c -0.07,-0.003 -0.14,-0.007 -0.19,-0.044 l -0.02,-0.018 c -0.052,-0.045 -0.117,-0.102 -0.115,-0.16 0.006,-0.059 0.031,-0.159 0.069,-0.296 l 1.067,-3.54 h 0.763 l -0.112,0.383 c 0,0 0.242,-0.192 0.41,-0.261 0.168,-0.062 0.548,-0.118 0.548,-0.118 l 1.234,-0.008 -0.42,1.4 c -0.071,0.24 -0.154,0.395 -0.206,0.466 a 0.537,0.537 0 0 1 -0.207,0.192 0.779,0.779 0 0 1 -0.287,0.096 8.048,8.048 0 0 1 -0.38,0.01 h -1.189 z m 1.8,-1.854 h -1.25 l -0.077,0.252 h 1.082 a 0.55,0.55 0 0 1 0.146,-0.003 c 0.01,0.001 0.015,0.002 0.019,0 z m 0.26,-0.835 h -1.26 l -0.182,0.608 c 0,0 0.244,-0.224 0.663,-0.296 0.095,-0.018 0.688,-0.012 0.688,-0.012 z m -0.362,1.995 a 0.133,0.133 0 0 0 0.05,-0.077 l 0.074,-0.237 h 0.582 l -0.071,0.336 c -0.03,0.105 -0.056,0.184 -0.136,0.251 a 0.549,0.549 0 0 1 -0.41,0.146 l -0.423,0.017 -0.003,0.38 c -0.004,0.086 0.014,0.096 0.03,0.106 a 0.051,0.051 0 0 1 0.01,0.008 0.15,0.15 0 0 0 0.055,0.034 h 10e-4 l 0.134,-0.008 0.404,-0.022 -0.167,0.555 h -0.464 c -0.325,0 -0.566,-0.008 -0.644,-0.07 -0.078,-0.05 -0.089,-0.111 -0.087,-0.218 l 0.03,-1.482 h 0.74 l -0.01,0.303 h 0.178 c 0.06,0 0.102,-0.006 0.127,-0.022 z"
       fill="#454447"
       id="path2" />
  </g>
</svg>
