<svg width="172" height="22" viewBox="0 0 172 22" fill="none" xmlns="http://www.w3.org/2000/svg">
<path d="M50.5049 5.16772L57.8622 20.7355V20.8525H52.0734L50.7389 17.8294H42.5712L41.2336 20.8525H35.6289V20.7355L42.9175 5.16772H50.5049ZM44.1873 14.2549H49.1228L46.7245 8.85767H46.5856L44.1873 14.2549Z" fill="white"/>
<path d="M58.6699 13.0788V5.16772H63.9736V16.633H73.3143V5.16772H78.6179V13.0788C78.6179 19.121 75.8967 21.2425 68.6346 21.2425C61.3912 21.2425 58.6699 19.121 58.6699 13.0788Z" fill="white"/>
<path d="M102.49 20.7355V20.8525H95.8241L90.0354 15.4326H87.9599V20.8525H82.6562V5.16772H95.5722C100.207 5.16772 102.26 7.08172 102.26 10.3107C102.26 13.2628 100.508 15.1308 96.6096 15.4077L102.49 20.7355ZM87.9599 9.20396V12.0898H96.6782V9.20396H87.9599Z" fill="white"/>
<path d="M104.449 13.0093C104.449 6.96705 107.401 4.77539 115.52 4.77539C123.638 4.77539 126.59 6.96705 126.59 13.0093C126.59 19.0516 123.638 21.2425 115.52 21.2425C107.402 21.2425 104.449 19.0516 104.449 13.0093ZM120.778 16.6299V9.38724H110.261V16.6291H120.778V16.6299Z" fill="white"/>
<path d="M149.767 20.7355V20.8525H143.101L137.312 15.4311H135.237V20.8525H129.934V5.16772H142.85C147.485 5.16772 149.538 7.08172 149.538 10.3107C149.538 13.2628 147.785 15.1308 143.887 15.4077L149.767 20.7355ZM135.237 9.20396V12.0898H143.955V9.20396H135.237Z" fill="white"/>
<path d="M164.644 5.16772L172 20.7355V20.8525H166.211L164.874 17.831H156.71L155.372 20.8525H149.768V20.7355L157.055 5.16772H164.644ZM158.326 14.2549H163.261L160.863 8.85767H160.725L158.326 14.2549Z" fill="white"/>
<path d="M11.9402 20.9245L17.2735 5.60706H18.2203L19.4066 9.01388L23.8796 8.29321L20.9923 0H14.5015L7.2168 20.9245H11.9402Z" fill="white"/>
<path d="M30.1869 8.78467L17.2967 10.7572L14.8242 17.9093L30.1869 8.78467Z" fill="white"/>
<path d="M12.7943 0H11.3873L7.53744 10.9037L2.78598 11.6228L0 12.044L2.09962 13.9229L5.40817 16.8828L4.0066 20.9245H5.41051L6.95091 16.4835L2.98409 12.9339L8.52329 12.0962L12.7943 0Z" fill="white"/>
<path d="M28.2784 20.9244L25.561 13.0181L21.6309 15.4008L23.5542 20.9244H28.2784Z" fill="white"/>
</svg>
