<svg width="906" height="201" viewBox="0 0 906 201" fill="none" xmlns="http://www.w3.org/2000/svg">
<path fill-rule="evenodd" clip-rule="evenodd" d="M268.262 -6.94226e-05H210.359L183.911 45.8066C195.171 62.5853 201.751 82.7458 201.751 104.396C201.751 105.625 201.723 106.848 201.681 108.068H206.238L268.262 -6.94226e-05ZM207.566 -6.94226e-05H177.966L164.221 23.8066C171.078 29.6053 177.191 36.2586 182.393 43.6013L207.566 -6.94226e-05ZM175.173 -6.94226e-05H149.213L143.411 10.0479C150.161 13.4413 156.498 17.5413 162.329 22.2453L175.173 -6.94226e-05ZM146.419 -6.94226e-05H124.779L123.38 2.4226C129.57 4.07594 135.539 6.28393 141.231 8.98527L146.419 -6.94226e-05ZM96.2187 8.17726C102.841 8.17726 109.311 8.85193 115.563 10.1359L110.421 19.0426C105.798 18.2733 101.054 17.8679 96.2193 17.8679C48.5614 17.8679 9.69114 56.7386 9.69114 104.396C9.69114 125.214 17.1099 144.354 29.4365 159.311L24.3062 168.197C9.19947 151.196 0 128.837 0 104.396C0 51.3999 43.2229 8.17726 96.2187 8.17726V8.17726ZM118.042 10.6813C124.485 12.1853 130.68 14.3439 136.559 17.0746L131.697 25.4973C125.771 22.8173 119.489 20.7919 112.95 19.5013L118.042 10.6813ZM138.747 18.1253C145.523 21.4839 151.853 25.6159 157.617 30.4079L152.695 38.9293C147.021 34.0253 140.705 29.8439 133.895 26.5306L138.747 18.1253ZM159.487 32.0053C166.314 37.9799 172.295 44.8999 177.219 52.5599L171.683 62.1479C167.138 54.0706 161.335 46.7879 154.541 40.5719L159.487 32.0053ZM178.667 54.8906C187.403 69.3687 192.438 86.3125 192.438 104.396C192.438 157.392 149.215 200.615 96.2187 200.615C95.6594 200.615 95.1031 200.603 94.5463 200.593L100.184 190.828C146.014 188.744 182.746 150.724 182.746 104.396C182.746 90.0802 179.237 76.5582 173.037 64.6439L178.667 54.8906ZM91.801 200.508C82.511 200.085 73.5578 198.334 65.1266 195.442L70.0755 186.871C78.3291 189.5 87.113 190.923 96.2193 190.923C96.5947 190.923 96.9687 190.913 97.3438 190.909L91.801 200.508ZM62.8114 194.613C55.7047 191.968 48.9895 188.505 42.7834 184.339L47.6386 175.93C53.8146 180.143 60.563 183.572 67.7349 186.086L62.8114 194.613ZM40.7849 182.961C35.4349 179.172 30.4875 174.848 26.0167 170.074L31.1015 161.267C35.4313 166.217 40.3151 170.669 45.6521 174.531L40.7849 182.961ZM109.6 28.2639C115.691 29.3333 121.54 31.1239 127.056 33.5373L117.053 50.8613C111.345 48.6293 105.198 47.2826 98.7834 46.9986L109.6 28.2639ZM129.267 34.5466C136.118 37.8066 142.421 42.0453 147.989 47.0813L137.769 64.7826C132.562 59.3239 126.295 54.8839 119.306 51.7986L129.267 34.5466ZM149.805 48.7759C156.571 55.2999 162.158 63.0386 166.206 71.6363L141.406 114.591H111.807L123.578 94.2015H152.763C150.885 83.7843 146.181 74.3275 139.481 66.6573L149.805 48.7759ZM167.427 74.3603C171.347 83.6015 173.517 93.753 173.517 104.395C173.517 143.726 143.883 176.354 105.802 181.097L119.864 156.742C136.79 149.053 149.374 133.386 152.762 114.591H144.199L167.427 74.3603ZM102.83 181.406C100.65 181.593 98.4458 181.694 96.2193 181.694C88.7963 181.694 81.613 180.637 74.8114 178.668L85.1422 160.774C88.7286 161.48 92.4318 161.85 96.2193 161.85C103.237 161.85 109.968 160.579 116.194 158.258L102.83 181.406ZM72.4395 177.937C65.1917 175.581 58.4067 172.183 52.2657 167.916L62.2261 150.664C68.2542 155.108 75.1766 158.404 82.6641 160.227L72.4395 177.937ZM50.2911 166.496C45.3906 162.859 40.9313 158.658 37.0119 153.99L47.813 135.282C51.1969 140.562 55.4219 145.255 60.2933 149.173L50.2911 166.496ZM109.013 114.591H85.4578L97.3234 94.2015H120.784L109.013 114.591Z" fill="#5199FF"/>
<path d="M251.948 98.8593C253.818 100.732 255.972 102.353 258.408 103.724C262.995 106.247 268.012 107.508 273.458 107.508C282.517 107.508 289.999 104.498 295.904 98.4779C301.81 92.5152 304.762 85.0906 304.762 76.2039C304.762 67.2599 301.81 59.8352 295.904 53.9299C290.805 48.7318 284.531 45.7779 277.081 45.0682L271.743 56.4924C272.305 56.4467 272.877 56.4239 273.458 56.4239C278.274 56.4239 282.345 57.7139 285.67 60.2939C289.053 62.8166 291.26 66.2566 292.292 70.6139H265.46V81.7079H292.292C291.26 86.0652 289.053 89.5339 285.67 92.1139C282.345 94.6366 278.274 95.8979 273.458 95.8979C270.076 95.8979 266.98 95.1526 264.17 93.6619C261.418 92.1139 259.326 90.0212 257.892 87.3839V87.3839C257.597 87.7266 257.345 88.1044 257.142 88.5088L251.948 98.8593Z" fill="#5199FF"/>
<path d="M347.301 46.1039V70.0119H324.941V46.1039H313.073V106.304H324.941V81.3639H347.301V106.304H359.083V46.1039H347.301Z" fill="#5199FF"/>
<path d="M382.134 94.9519V81.4499H404.924V70.2699H382.134V57.4559H407.074V46.1039H370.266V106.304H407.504V94.9519H382.134Z" fill="#5199FF"/>
<path fill-rule="evenodd" clip-rule="evenodd" d="M438.316 46.1039H415.87V106.304H427.738V86.5239H438.316C444.049 86.5239 448.922 84.5746 452.936 80.6759C456.892 76.7772 458.87 71.9899 458.87 66.3139C458.87 60.6379 456.892 55.8506 452.936 51.9519C448.922 48.0532 444.049 46.1039 438.316 46.1039ZM438.316 75.4299H427.738V57.1979H438.316C440.838 57.1979 442.931 58.0579 444.594 59.7779C446.256 61.4979 447.088 63.6766 447.088 66.3139C447.088 68.8939 446.256 71.0726 444.594 72.8499C442.931 74.5699 440.838 75.4299 438.316 75.4299Z" fill="#5199FF"/>
<path d="M500.824 46.1039H466.596V106.304H478.464V57.4559H500.824V46.1039Z" fill="#5199FF"/>
<path fill-rule="evenodd" clip-rule="evenodd" d="M532.183 107.508C540.898 107.508 548.294 104.498 554.371 98.4779C560.449 92.4006 563.487 84.9759 563.487 76.2039C563.487 67.4319 560.449 60.0359 554.371 54.0159C548.294 47.9386 540.898 44.8999 532.183 44.8999C523.469 44.8999 516.073 47.9386 509.995 54.0159C503.975 60.0359 500.965 67.4319 500.965 76.2039C500.965 84.9186 503.975 92.3432 509.995 98.4779C516.073 104.498 523.469 107.508 532.183 107.508ZM532.183 95.8979C526.622 95.8979 522.007 94.0632 518.337 90.3939C514.611 86.6672 512.747 81.9372 512.747 76.2039C512.747 70.4706 514.611 65.7406 518.337 62.0139C522.064 58.2872 526.679 56.4239 532.183 56.4239C537.687 56.4239 542.303 58.2872 546.029 62.0139C549.756 65.7406 551.619 70.4706 551.619 76.2039C551.619 81.9372 549.756 86.6672 546.029 90.3939C542.36 94.0632 537.745 95.8979 532.183 95.8979Z" fill="#5199FF"/>
<path d="M630.739 46.1039H618.527L601.327 74.5699L584.041 46.1039H571.829V106.304H583.697V67.3459L600.639 95.2099H602.015L618.957 67.2599V106.304H630.739V46.1039Z" fill="#5199FF"/>
<path fill-rule="evenodd" clip-rule="evenodd" d="M680.656 106.304H693.556L672.4 46.1039H657.694L636.624 106.304H649.438L653.05 95.4679H677.044L680.656 106.304ZM656.834 84.3739L665.09 59.7779L673.346 84.3739H656.834Z" fill="#5199FF"/>
<path d="M734.852 46.1039H690.562V57.4559H706.73V106.304H718.598V57.4559H734.852V46.1039Z" fill="#5199FF"/>
<path d="M776.307 106.304H788.175V46.1039H779.145L753.345 82.9119V46.1039H741.477V106.304H750.507L776.307 69.5819V106.304Z" fill="#5199FF"/>
<path d="M846.384 106.304L823.25 75.3439L845.524 46.1039H831.85L811.21 72.6779V46.1039H799.342V106.304H811.21V78.0959L832.71 106.304H846.384Z" fill="#5199FF"/>
<path fill-rule="evenodd" clip-rule="evenodd" d="M892.464 106.304H905.364L884.208 46.1039H869.502L848.432 106.304H861.246L864.858 95.4679H888.852L892.464 106.304ZM868.642 84.3739L876.898 59.7779L885.154 84.3739H868.642Z" fill="#5199FF"/>
</svg>
