<svg width="140" height="57" viewBox="0 0 140 57" fill="none" xmlns="http://www.w3.org/2000/svg">
<path d="M55.7268 9.67236H54.5381V16.9699H55.7268V9.67236Z" fill="#116893"/>
<path d="M67.5989 9.67236H66.4102V16.9699H67.5989V9.67236Z" fill="#116893"/>
<path d="M73.5427 9.67236H72.354V16.9699H73.5427V9.67236Z" fill="#116893"/>
<path d="M79.4861 9.67236H78.2974V16.9699H79.4861V9.67236Z" fill="#116893"/>
<path d="M62.2423 -0.179199H59.8799V17.1373H62.2423V-0.179199Z" fill="#116893"/>
<path d="M86.0016 9.67236H83.6392V26.9889H86.0016V9.67236Z" fill="#116893"/>
<path d="M5.67996 50.5999V56.5748H0.804688V37.814H10.9013C14.7383 37.814 17.5823 40.2921 17.5823 44.1993C17.5823 48.0914 14.7534 50.6151 10.9013 50.6151H5.67996V50.5999ZM5.74015 42.375V46.0389H10.9465C12.0449 46.0389 12.7371 45.37 12.7371 44.1841C12.7371 43.0287 12.0148 42.375 10.9465 42.375H5.74015Z" fill="#116893"/>
<path d="M18.3348 37.814H28.8979C32.7199 37.814 35.5487 40.0641 35.5487 43.6672C35.5487 46.2974 34.044 48.2586 31.7418 49.0796V49.262L36.286 55.4954V56.5596H30.9443L26.4903 50.0678H23.1649V56.5596H18.3047V37.814H18.3348ZM23.195 42.375V45.522H28.9129C30.0114 45.522 30.7035 44.9443 30.7035 43.9257C30.7035 42.9527 29.9813 42.3597 28.9129 42.3597H23.195V42.375Z" fill="#116893"/>
<path d="M35.8047 47.0879C35.8047 41.0826 40.1533 37.2666 46.0668 37.2666C51.9503 37.2666 56.329 41.0674 56.329 47.0879H51.3785C51.3785 43.7888 49.2568 41.8276 46.0668 41.8276C42.8769 41.8276 40.7552 43.7888 40.7552 47.0879C40.7552 50.4022 42.8769 52.3635 46.0668 52.3635C49.2568 52.3635 51.3785 50.4022 51.3785 47.0879H56.329C56.329 53.0932 51.9503 56.9244 46.0668 56.9244C40.1533 56.9244 35.8047 53.0932 35.8047 47.0879Z" fill="#116893"/>
<path d="M72.3389 50.7517C72.3389 51.223 72.2637 51.6943 72.1283 52.1656C71.9778 52.6369 71.7521 53.1386 71.406 53.6555C71.0599 54.1572 70.6386 54.6133 70.1119 54.9934C69.6154 55.3735 68.9533 55.6928 68.1257 55.9512C67.3132 56.2097 66.4254 56.3313 65.4323 56.3313C63.1301 56.3313 61.3244 55.784 60.0303 54.7198C58.7212 53.6555 58.0742 52.1656 58.0742 50.2804V50.1284H59.7595C59.7595 51.7399 60.2862 52.941 61.3094 53.7467C62.3326 54.5677 63.762 54.963 65.5827 54.963C67.0875 54.963 68.2912 54.5677 69.2091 53.7619C70.127 52.9714 70.5935 51.968 70.5935 50.7821C70.5935 49.7635 70.2022 48.9577 69.3897 48.3192C68.5771 47.6806 67.5991 47.3614 66.3953 47.3614H63.431V45.9323H66.3953C67.4486 45.9323 68.3364 45.6586 69.0285 45.1113C69.7508 44.564 70.0818 43.8038 70.0818 42.8308C70.0818 41.6601 69.6756 40.7631 68.848 40.1702C68.0204 39.5773 66.9219 39.2884 65.5978 39.2884C64.078 39.2884 62.8291 39.6381 61.8962 40.3222C60.9482 41.0064 60.4366 42.0098 60.3764 43.3173H58.6761C58.7664 41.5385 59.4285 40.2006 60.6623 39.2732C61.8962 38.3458 63.5363 37.8745 65.5376 37.8745C67.3884 37.8745 68.8931 38.2698 70.0818 39.0908C71.2706 39.9118 71.8424 41.0976 71.8424 42.694C71.8424 43.5605 71.5715 44.3663 71.0148 45.0353C70.4731 45.7194 69.826 46.1907 69.1188 46.434V46.51C70.127 46.7684 70.9094 47.2549 71.4812 47.9847C72.053 48.684 72.3389 49.6115 72.3389 50.7517Z" fill="#2D373D"/>
<path d="M81.7281 38.2545L89.1012 56.3312H87.1601L84.9332 50.6603H76.4767L74.2045 56.316H72.3086L79.772 38.2393H81.7281V38.2545ZM84.3764 49.2616L80.7501 39.866L77.0184 49.2616H84.3764Z" fill="#2D373D"/>
<path d="M108.678 38.2544V56.3311H106.993V45.4151C106.993 43.6516 107.068 41.7512 107.203 39.7291C106.842 40.8542 106.436 41.9336 105.984 43.013L100.537 56.3311H98.9575L93.4351 43.1803C93.059 42.2985 92.6527 41.1734 92.2163 39.8659C92.3668 41.8424 92.427 43.6972 92.427 45.3999V56.3463H90.7417V38.2848H93.1342L98.491 51.1772C98.6716 51.5877 99.0778 52.7431 99.77 54.5827C99.8603 54.3699 100.041 53.853 100.312 53.0624C100.583 52.2718 100.808 51.6637 100.989 51.238L106.285 38.3H108.693V38.2544H108.678Z" fill="#2D373D"/>
<path d="M123.77 38.2545V39.7292H112.725V46.221H123.078V47.6501H112.725V54.7804H123.89V56.2552H110.98V38.2393H123.785V38.2545H123.77Z" fill="#2D373D"/>
<path d="M126.012 38.2544H133.927C135.702 38.2544 137.117 38.6953 138.155 39.5619C139.193 40.4285 139.72 41.6751 139.72 43.3171C139.72 45.0351 139.193 46.3425 138.14 47.2395C137.087 48.1213 135.657 48.5774 133.852 48.5774H127.758V56.2703H125.997V38.2544H126.012ZM127.773 39.7291V47.1179H133.37C134.739 47.1179 135.853 46.829 136.696 46.2057C137.538 45.6128 137.975 44.6854 137.975 43.4083C137.975 42.1616 137.583 41.2342 136.801 40.6109C136.034 39.9876 134.935 39.6835 133.551 39.6835H127.773V39.7291Z" fill="#2D373D"/>
</svg>
