<svg width="36" height="40" viewBox="0 0 36 40" fill="none" xmlns="http://www.w3.org/2000/svg">
<path d="M17.4152 35.1076C17.4152 35.0815 17.4152 35.0685 17.4152 35.0685L13.8144 29.4325C13.684 29.2237 13.5013 29.0933 13.2665 29.0411C13.0317 28.9628 12.7968 28.9889 12.562 29.1194L12.2489 29.3151C12.0401 29.4194 11.9227 29.6021 11.8966 29.863C11.8966 30.1239 11.9619 30.3588 12.0923 30.5675L14.4015 34.1683C14.3493 34.1422 14.2841 34.1292 14.2058 34.1292C14.1275 34.1031 14.0493 34.09 13.971 34.09C13.9188 34.0639 13.8666 34.0378 13.8144 34.0117C12.4576 33.6725 11.1791 33.1507 9.97882 32.4462C8.80465 31.7417 7.7479 30.8937 6.80857 29.9022C5.86923 28.8845 5.07341 27.7626 4.42109 26.5362C2.54242 22.9093 2.22931 19.152 3.48176 15.2642C3.76878 14.3249 4.14712 13.4377 4.61679 12.6027C5.11255 11.7417 5.67354 10.9459 6.29976 10.2153C6.92598 9.48467 7.61744 8.81931 8.37412 8.21918C9.1569 7.61905 9.99187 7.08415 10.879 6.61448C11.166 6.45793 11.3617 6.22309 11.4661 5.90998C11.5705 5.59687 11.5444 5.2968 11.3878 5.00978C11.2313 4.69667 10.9964 4.48793 10.6833 4.38356C10.3702 4.27919 10.0701 4.30528 9.78313 4.46184C7.72181 5.53164 5.93446 6.94064 4.42109 8.68885C2.93381 10.411 1.85097 12.3549 1.17256 14.5205C0.468058 16.7123 0.207132 18.9432 0.38978 21.2133C0.598521 23.4573 1.22474 25.5969 2.26845 27.6321C3.39043 29.7978 4.90381 31.6504 6.80857 33.1898C8.71333 34.7032 10.8399 35.7599 13.1882 36.3601C13.2143 36.3862 13.2404 36.3992 13.2665 36.3992H13.3448L10.1745 38.0431C9.96577 38.1474 9.82227 38.317 9.74399 38.5519C9.6918 38.7867 9.73094 39.0085 9.8614 39.2172L9.97882 39.5303C10.2658 40 10.6442 40.1174 11.1139 39.8826L16.9456 36.8689L17.3369 36.6732C17.5457 36.5427 17.6761 36.3601 17.7283 36.1252C17.8066 35.8904 17.7805 35.6686 17.6501 35.4599L17.4152 35.1076ZM33.7362 12.4853C32.6142 10.3196 31.1139 8.4801 29.2352 6.96673C27.3826 5.42727 25.2821 4.35747 22.9338 3.75734C22.699 3.67906 22.3598 3.60078 21.9162 3.5225L25.0473 1.95695C25.2821 1.82648 25.4387 1.64384 25.517 1.409C25.5953 1.17417 25.5822 0.952381 25.4778 0.74364L25.3604 0.430528C25.2821 0.300065 25.1647 0.195695 25.0082 0.117417C24.8777 0.0391389 24.7342 0 24.5776 0C24.4211 0 24.2645 0.0260926 24.108 0.0782779L18.2763 3.09198L17.8849 3.28767C17.6501 3.41813 17.5065 3.60078 17.4544 3.83562C17.4022 4.07045 17.4413 4.29224 17.5718 4.50098L17.7675 4.89237C17.7936 4.89237 17.8066 4.89237 17.8066 4.89237L21.4074 10.5284C21.5379 10.7371 21.7205 10.8806 21.9553 10.9589C22.1902 11.0111 22.412 10.972 22.6207 10.8415L22.9338 10.6458C23.1426 10.5414 23.26 10.3588 23.2861 10.0978C23.3122 9.83692 23.26 9.60209 23.1295 9.39335L20.8203 5.79256C21.3943 5.87084 21.8901 5.97521 22.3076 6.10568C22.8816 6.26223 23.4426 6.44488 23.9906 6.65362C24.5385 6.86236 25.0604 7.11024 25.5561 7.39726C26.078 7.68428 26.5737 7.99739 27.0434 8.33659C27.5131 8.6758 27.9566 9.0411 28.3741 9.43249C28.8177 9.82387 29.2221 10.2414 29.5874 10.6849C29.9788 11.1285 30.3311 11.5982 30.6442 12.0939C30.9834 12.5636 31.2965 13.0594 31.5835 13.5812C33.4622 17.2081 33.7753 20.9654 32.5229 24.8532C31.9227 26.7319 30.9964 28.4149 29.744 29.9022C28.4915 31.3894 26.9912 32.5897 25.243 33.5029C24.956 33.6595 24.7603 33.8943 24.6559 34.2074C24.5516 34.5205 24.5776 34.8337 24.7342 35.1468C24.9429 35.5903 25.2952 35.8121 25.791 35.8121C25.9997 35.8121 26.1954 35.7599 26.378 35.6556C28.4133 34.6119 30.1615 33.229 31.6227 31.5068C33.0838 29.7586 34.1536 27.7886 34.8321 25.5969C36.2411 21.2394 35.941 16.9993 33.9319 12.8767C33.8536 12.7202 33.7883 12.5897 33.7362 12.4853Z" fill="white"/>
</svg>
