<svg width="14" height="20" viewBox="0 0 14 20" fill="none" xmlns="http://www.w3.org/2000/svg">
<path d="M8.72161 1.25245L7.3366 8.66928L12.3765 8.68885L5.52839 18.7476L6.9134 10.5871L1.87348 10.5675L8.72161 1.25245ZM8.72161 0C8.70879 0 8.69597 0 8.68314 0C8.67032 0 8.65108 0 8.62543 0C8.52284 0.0130463 8.43307 0.0391389 8.35612 0.0782779C8.27918 0.104371 8.18941 0.150033 8.08682 0.215264C7.99705 0.280496 7.91369 0.358774 7.83674 0.450098C7.82392 0.463144 7.8111 0.47619 7.79827 0.489237C7.79827 0.502283 7.79186 0.515329 7.77903 0.528376L0.873195 9.80431C0.578239 10.2218 0.546178 10.6588 0.777014 11.1155C0.815487 11.1937 0.860371 11.272 0.911668 11.3503C0.975789 11.4155 1.03991 11.4808 1.10403 11.546C1.18098 11.5982 1.25792 11.6438 1.33487 11.683C1.42464 11.7221 1.51441 11.7547 1.60418 11.7808C1.69395 11.7939 1.78371 11.8004 1.87348 11.8004L5.4322 11.82L4.29726 18.5323C4.24596 18.8193 4.29085 19.0868 4.43191 19.3346C4.57298 19.5956 4.77176 19.7847 5.02824 19.9022C5.10519 19.9413 5.18213 19.9674 5.25908 19.9804C5.34885 19.9935 5.43862 20 5.52839 20C5.90029 20 6.21448 19.8304 6.47096 19.4912L13.3768 9.43249C13.6718 9.015 13.7038 8.57795 13.473 8.12133C13.2422 7.66471 12.8767 7.4364 12.3765 7.4364H8.8178L9.9335 1.54599C9.94633 1.4938 9.95274 1.44814 9.95274 1.409C9.96556 1.35682 9.97198 1.30463 9.97198 1.25245C9.97198 1.13503 9.95274 1.02414 9.91427 0.919765C9.88862 0.815395 9.85015 0.717547 9.79885 0.626223C9.74755 0.534899 9.68343 0.450098 9.60649 0.37182C9.54236 0.293542 9.46542 0.22831 9.37565 0.176125C9.28588 0.12394 9.1897 0.084801 9.0871 0.0587084C8.98451 0.0195695 8.88192 0 8.77932 0C8.7665 0 8.75368 0 8.74085 0C8.74085 0 8.73444 0 8.72161 0Z" fill="white"/>
</svg>
