<svg xmlns="http://www.w3.org/2000/svg" viewBox="0 0 16 20">
  <path fill-rule="evenodd" clip-rule="evenodd" d="M6.5 3.75h3.25c.352 0 .645-.117.879-.352.247-.247.371-.546.371-.898V1.25a1.16 1.16 0 0 0-.371-.879A1.16 1.16 0 0 0 9.75 0H6.5c-.352 0-.651.124-.898.371a1.192 1.192 0 0 0-.352.879V2.5c0 .352.117.651.352.898.247.235.546.352.898.352Zm0-2.5h3.25V2.5H6.5V1.25ZM1.25 20h13.5c.352 0 .645-.124.879-.371A1.16 1.16 0 0 0 16 18.75V16.5a1.16 1.16 0 0 0-.371-.879 1.16 1.16 0 0 0-.879-.371H14l-1-9.5a1.16 1.16 0 0 0-.371-.879 1.16 1.16 0 0 0-.879-.371h-7.5c-.352 0-.651.124-.898.371A1.193 1.193 0 0 0 3 5.75l-1 9.5h-.75c-.352 0-.651.124-.898.371A1.192 1.192 0 0 0 0 16.5v2.25c0 .352.117.645.352.879.247.247.546.371.898.371Zm2-4.75 1-9.5h7.5l1 9.5h-9.5Zm-2 1.25v2.25h13.5V16.5H1.25Z" fill="#fff"/>
</svg>
