<svg width="128" height="26" viewBox="0 0 128 26" fill="none" xmlns="http://www.w3.org/2000/svg">
<path fill-rule="evenodd" clip-rule="evenodd" d="M107.023 14.2856V0.0585938H124.93C126.607 0.0585938 127.967 1.41897 127.967 3.09633V11.2479C127.967 12.9246 126.607 14.2856 124.93 14.2856H107.023ZM122.969 2.64664H110.505V11.6976H122.969C123.806 11.6976 124.486 11.0183 124.486 10.1787V4.16551C124.486 3.32589 123.806 2.64664 122.969 2.64664Z" fill="url(#paint0_linear_9102_430)"/>
<path d="M3.04529 0.0787195C1.38177 0.0787195 0.0327148 1.42778 0.0327148 3.09318V11.1781C0.0327148 12.8416 1.38177 14.19 3.04529 14.19H20.8076V11.624H4.99246C4.15976 11.624 3.4868 10.9498 3.4868 10.1183V8.31017H19.5352V5.74413H3.4868V4.15168C3.4868 3.31897 4.15976 2.64664 4.99246 2.64664H20.8076V0.0787195H3.04529Z" fill="url(#paint1_linear_9102_430)"/>
<path d="M37.1893 5.37213L30.5252 0.210166H26.005L34.9293 7.12274L26.005 14.0353H30.5252L37.1893 8.87336L43.8535 14.0353H48.3736L39.4494 7.12274L48.3736 0.210166H43.8535L37.1893 5.37213Z" fill="url(#paint2_linear_9102_430)"/>
<path d="M53.5711 3.10451C53.5711 1.44098 54.9195 0.0919271 56.5837 0.0919271H74.3459V2.65796H58.5289C57.6975 2.65796 57.0233 3.33218 57.0233 4.16363V5.75545H73.0736V8.32212H57.0233V10.1309C57.0233 10.9611 57.6975 11.636 58.5289 11.636H74.3459V14.2039H56.5837C54.9195 14.2039 53.5711 12.8548 53.5711 11.1913V3.10451Z" fill="url(#paint3_linear_9102_430)"/>
<path d="M83.3522 0.103248C81.6881 0.103248 80.339 1.4523 80.339 3.11646V11.2026C80.339 12.8668 81.6881 14.2152 83.3522 14.2152H101.114V11.6492H85.2988C84.466 11.6492 83.7918 10.9743 83.7918 10.1422V8.33532H99.8415V5.76677H83.7918V4.17683C83.7918 3.34413 84.466 2.66991 85.2988 2.66991H101.114V0.103248H83.3522Z" fill="url(#paint4_linear_9102_430)"/>
<path fill-rule="evenodd" clip-rule="evenodd" d="M7.36524 24.8712C7.36524 25.6497 6.99871 26 6.20845 26H0V21H6.06169C6.8527 21 7.21848 21.3496 7.21848 22.1281V22.4924C7.21848 22.9859 7.04989 23.2995 6.71346 23.4214C7.14547 23.5286 7.36524 23.8496 7.36524 24.3997V24.8712ZM5.52054 22.4637C5.52054 22.2287 5.44001 22.1501 5.19842 22.1501H1.69869V22.9786H5.19842C5.44001 22.9786 5.52054 22.9 5.52054 22.6642V22.4637ZM5.66655 24.2286C5.66655 23.9928 5.58602 23.9142 5.34443 23.9142H1.69869V24.8499H5.34443C5.58602 24.8499 5.66655 24.7713 5.66655 24.5355V24.2286Z" fill="url(#paint5_linear_9102_430)"/>
<path fill-rule="evenodd" clip-rule="evenodd" d="M10.1334 21C9.13016 21 8.6545 21.4502 8.6545 22.4424V24.5568C8.6545 25.5498 9.13016 26 10.1334 26H14.8328C15.8361 26 16.3118 25.5498 16.3118 24.5568V22.4424C16.3118 21.4502 15.8361 21 14.8328 21H10.1334ZM10.8213 24.6927C10.4698 24.6927 10.3532 24.5789 10.3532 24.2359V22.7641C10.3532 22.4211 10.4698 22.3066 10.8213 22.3066H14.1449C14.4889 22.3066 14.6131 22.4211 14.6131 22.7641V24.2359C14.6131 24.5789 14.4889 24.6927 14.1449 24.6927H10.8213Z" fill="url(#paint6_linear_9102_430)"/>
<path fill-rule="evenodd" clip-rule="evenodd" d="M24.9738 22.2999C24.9738 21.3856 24.5779 21 23.6409 21H17.6823V26H19.3802V24.3931H21.7156L23.1216 26H25.1928L23.6559 24.2785C24.5854 24.2719 24.9738 23.8929 24.9738 22.9786V22.2999ZM23.2751 22.9066C23.2751 23.1996 23.1803 23.2929 22.88 23.2929H19.3802V22.1354H22.88C23.1803 22.1354 23.2751 22.2287 23.2751 22.521V22.9066Z" fill="url(#paint7_linear_9102_430)"/>
<path d="M27.976 22.7568L32.5294 26H33.9203V21H32.2803V24.1926L27.7931 21H26.336V26H27.976V22.7568Z" fill="url(#paint8_linear_9102_430)"/>
<path d="M38.2848 21H44.9463V22.2786H39.9835V23.1218H44.6536V24.2785H39.9835V26H38.2848V21Z" fill="url(#paint9_linear_9102_430)"/>
<path fill-rule="evenodd" clip-rule="evenodd" d="M46.0602 22.4424C46.0602 21.4502 46.5359 21 47.5392 21H52.2386C53.2418 21 53.7175 21.4502 53.7175 22.4424V24.5568C53.7175 25.5498 53.2418 26 52.2386 26H47.5392C46.5359 26 46.0602 25.5498 46.0602 24.5568V22.4424ZM47.7589 24.2359C47.7589 24.5789 47.8756 24.6927 48.2271 24.6927H51.5507C51.8946 24.6927 52.0196 24.5789 52.0196 24.2359V22.7641C52.0196 22.4211 51.8946 22.3066 51.5507 22.3066H48.2271C47.8756 22.3066 47.7589 22.4211 47.7589 22.7641V24.2359Z" fill="url(#paint10_linear_9102_430)"/>
<path fill-rule="evenodd" clip-rule="evenodd" d="M61.0466 21C61.9836 21 62.3788 21.3856 62.3788 22.2999V22.9786C62.3788 23.8929 61.9904 24.2719 61.0609 24.2785L62.5985 26H60.5273L59.1214 24.3931H56.786V26H55.0873V21H61.0466ZM60.2849 23.2929C60.5852 23.2929 60.6808 23.1996 60.6808 22.9066V22.521C60.6808 22.2287 60.5852 22.1354 60.2849 22.1354H56.786V23.2929H60.2849Z" fill="url(#paint11_linear_9102_430)"/>
<path d="M70.9309 23.7857L73.6908 21H75.1328V26H73.4929V23.0645L71.3629 25.2215H70.4402L68.3102 23.0645V26H66.6703V21H68.1785L70.9309 23.7857Z" fill="url(#paint12_linear_9102_430)"/>
<path fill-rule="evenodd" clip-rule="evenodd" d="M76.5109 22.4424C76.5109 21.4502 76.9866 21 77.9891 21H82.6885C83.6918 21 84.1674 21.4502 84.1674 22.4424V24.5568C84.1674 25.5498 83.6918 26 82.6885 26H77.9891C76.9866 26 76.5109 25.5498 76.5109 24.5568V22.4424ZM78.2088 24.2359C78.2088 24.5789 78.3262 24.6927 78.6777 24.6927H82.0006C82.3453 24.6927 82.4695 24.5789 82.4695 24.2359V22.7641C82.4695 22.4211 82.3453 22.3066 82.0006 22.3066H78.6777C78.3262 22.3066 78.2088 22.4211 78.2088 22.7641V24.2359Z" fill="url(#paint13_linear_9102_430)"/>
<path fill-rule="evenodd" clip-rule="evenodd" d="M91.4973 21C92.4336 21 92.8294 21.3856 92.8294 22.2999V22.9786C92.8294 23.8929 92.4411 24.2719 91.5116 24.2785L93.0492 26H90.9772L89.5713 24.3931H87.2366V26H85.538V21H91.4973ZM90.7356 23.2929C91.0359 23.2929 91.1308 23.1996 91.1308 22.9066V22.521C91.1308 22.2287 91.0359 22.1354 90.7356 22.1354H87.2366V23.2929H90.7356Z" fill="url(#paint14_linear_9102_430)"/>
<path d="M100.927 21H94.1917V26H101V24.786H95.8904V23.9642H100.634V22.9352H95.8904V22.214H100.927V21Z" fill="url(#paint15_linear_9102_430)"/>
<defs>
<linearGradient id="paint0_linear_9102_430" x1="64" y1="0.0585937" x2="64" y2="14.2856" gradientUnits="userSpaceOnUse">
<stop stop-color="#E3B69F"/>
<stop offset="1" stop-color="#C38A6E"/>
</linearGradient>
<linearGradient id="paint1_linear_9102_430" x1="64" y1="0.0585937" x2="64" y2="14.2856" gradientUnits="userSpaceOnUse">
<stop stop-color="#E3B69F"/>
<stop offset="1" stop-color="#C38A6E"/>
</linearGradient>
<linearGradient id="paint2_linear_9102_430" x1="64" y1="0.0585937" x2="64" y2="14.2856" gradientUnits="userSpaceOnUse">
<stop stop-color="#E3B69F"/>
<stop offset="1" stop-color="#C38A6E"/>
</linearGradient>
<linearGradient id="paint3_linear_9102_430" x1="64" y1="0.0585937" x2="64" y2="14.2856" gradientUnits="userSpaceOnUse">
<stop stop-color="#E3B69F"/>
<stop offset="1" stop-color="#C38A6E"/>
</linearGradient>
<linearGradient id="paint4_linear_9102_430" x1="64" y1="0.0585937" x2="64" y2="14.2856" gradientUnits="userSpaceOnUse">
<stop stop-color="#E3B69F"/>
<stop offset="1" stop-color="#C38A6E"/>
</linearGradient>
<linearGradient id="paint5_linear_9102_430" x1="50.5" y1="21" x2="50.5" y2="26" gradientUnits="userSpaceOnUse">
<stop stop-color="#E3B69F"/>
<stop offset="1" stop-color="#C38A6E"/>
</linearGradient>
<linearGradient id="paint6_linear_9102_430" x1="50.5" y1="21" x2="50.5" y2="26" gradientUnits="userSpaceOnUse">
<stop stop-color="#E3B69F"/>
<stop offset="1" stop-color="#C38A6E"/>
</linearGradient>
<linearGradient id="paint7_linear_9102_430" x1="50.5" y1="21" x2="50.5" y2="26" gradientUnits="userSpaceOnUse">
<stop stop-color="#E3B69F"/>
<stop offset="1" stop-color="#C38A6E"/>
</linearGradient>
<linearGradient id="paint8_linear_9102_430" x1="50.5" y1="21" x2="50.5" y2="26" gradientUnits="userSpaceOnUse">
<stop stop-color="#E3B69F"/>
<stop offset="1" stop-color="#C38A6E"/>
</linearGradient>
<linearGradient id="paint9_linear_9102_430" x1="50.5" y1="21" x2="50.5" y2="26" gradientUnits="userSpaceOnUse">
<stop stop-color="#E3B69F"/>
<stop offset="1" stop-color="#C38A6E"/>
</linearGradient>
<linearGradient id="paint10_linear_9102_430" x1="50.5" y1="21" x2="50.5" y2="26" gradientUnits="userSpaceOnUse">
<stop stop-color="#E3B69F"/>
<stop offset="1" stop-color="#C38A6E"/>
</linearGradient>
<linearGradient id="paint11_linear_9102_430" x1="50.5" y1="21" x2="50.5" y2="26" gradientUnits="userSpaceOnUse">
<stop stop-color="#E3B69F"/>
<stop offset="1" stop-color="#C38A6E"/>
</linearGradient>
<linearGradient id="paint12_linear_9102_430" x1="50.5" y1="21" x2="50.5" y2="26" gradientUnits="userSpaceOnUse">
<stop stop-color="#E3B69F"/>
<stop offset="1" stop-color="#C38A6E"/>
</linearGradient>
<linearGradient id="paint13_linear_9102_430" x1="50.5" y1="21" x2="50.5" y2="26" gradientUnits="userSpaceOnUse">
<stop stop-color="#E3B69F"/>
<stop offset="1" stop-color="#C38A6E"/>
</linearGradient>
<linearGradient id="paint14_linear_9102_430" x1="50.5" y1="21" x2="50.5" y2="26" gradientUnits="userSpaceOnUse">
<stop stop-color="#E3B69F"/>
<stop offset="1" stop-color="#C38A6E"/>
</linearGradient>
<linearGradient id="paint15_linear_9102_430" x1="50.5" y1="21" x2="50.5" y2="26" gradientUnits="userSpaceOnUse">
<stop stop-color="#E3B69F"/>
<stop offset="1" stop-color="#C38A6E"/>
</linearGradient>
</defs>
</svg>
