<?xml version="1.0" encoding="UTF-8" standalone="no"?>
<svg
   width="20"
   height="20"
   viewBox="0 0 20 20"
   fill="none"
   version="1.1"
   id="svg4"
   sodipodi:docname="prop_icon33.svg"
   inkscape:version="1.1 (c68e22c387, 2021-05-23)"
   xmlns:inkscape="http://www.inkscape.org/namespaces/inkscape"
   xmlns:sodipodi="http://sodipodi.sourceforge.net/DTD/sodipodi-0.dtd"
   xmlns="http://www.w3.org/2000/svg"
   xmlns:svg="http://www.w3.org/2000/svg">
  <defs
     id="defs8" />
  <sodipodi:namedview
     id="namedview6"
     pagecolor="#ffffff"
     bordercolor="#666666"
     borderopacity="1.0"
     inkscape:pageshadow="2"
     inkscape:pageopacity="0.0"
     inkscape:pagecheckerboard="0"
     showgrid="false"
     inkscape:zoom="43.65"
     inkscape:cx="7.0103093"
     inkscape:cy="10"
     inkscape:window-width="2560"
     inkscape:window-height="1411"
     inkscape:window-x="7191"
     inkscape:window-y="-9"
     inkscape:window-maximized="1"
     inkscape:current-layer="svg4" />
  <path
     fill-rule="evenodd"
     clip-rule="evenodd"
     d="m 8.5000529,3.7501732 h 3.2500001 c 0.352,0 0.645,-0.117 0.879,-0.352 0.247,-0.247 0.371,-0.546 0.371,-0.898 v -1.25 a 1.16,1.16 0 0 0 -0.371,-0.879 1.16,1.16 0 0 0 -0.879,-0.37100000002 H 8.5000529 c -0.352,0 -0.651,0.12400000002 -0.898,0.37100000002 a 1.192,1.192 0 0 0 -0.352,0.879 v 1.25 c 0,0.352 0.117,0.651 0.352,0.898 0.247,0.235 0.546,0.352 0.898,0.352 z m 0,-2.5 h 3.2500001 v 1.25 H 8.5000529 Z M 3.2500528,20.000173 H 16.750053 c 0.352,0 0.645,-0.124 0.879,-0.371 a 1.16,1.16 0 0 0 0.371,-0.879 v -2.25 a 1.16,1.16 0 0 0 -0.371,-0.879 1.16,1.16 0 0 0 -0.879,-0.371 h -0.75 l -1,-9.4999998 a 1.16,1.16 0 0 0 -0.371,-0.879 1.16,1.16 0 0 0 -0.879,-0.371 H 6.2500529 c -0.352,0 -0.651,0.124 -0.898,0.371 a 1.193,1.193 0 0 0 -0.352,0.879 L 4.0000528,15.250173 h -0.75 c -0.352,0 -0.651,0.124 -0.898,0.371 a 1.192,1.192 0 0 0 -0.352,0.879 v 2.25 c 0,0.352 0.117,0.645 0.352,0.879 0.247,0.247 0.546,0.371 0.898,0.371 z m 2.0000001,-4.75 1,-9.4999998 h 7.5000001 l 1,9.4999998 z m -2.0000001,1.25 v 2.25 H 16.750053 v -2.25 z"
     fill="#ffffff"
     id="path2"
     style="fill:#ffffff;fill-opacity:1" />
</svg>
