<svg width="21" height="20" viewBox="0 0 21 20" fill="none" xmlns="http://www.w3.org/2000/svg">
<path d="M19.125 8.10547L17.5234 7.75391C17.4062 7.3763 17.25 6.99219 17.0547 6.60156L17.9141 5.15625C18.0312 4.97396 18.1159 4.78516 18.168 4.58984C18.2331 4.38151 18.2461 4.16667 18.207 3.94531C18.168 3.72396 18.0703 3.53516 17.9141 3.37891L17.0352 2.5C16.918 2.38281 16.7747 2.29818 16.6055 2.24609C16.4492 2.18099 16.2865 2.15495 16.1172 2.16797C15.9609 2.16797 15.8047 2.19401 15.6484 2.24609C15.4922 2.29818 15.349 2.36328 15.2188 2.44141L13.8125 3.33984C13.7604 3.3138 13.7083 3.28776 13.6562 3.26172C13.6042 3.23568 13.5521 3.20964 13.5 3.18359C13.4479 3.15755 13.3958 3.13802 13.3438 3.125C13.2917 3.09896 13.2331 3.07292 13.168 3.04688C13.1159 3.02083 13.0638 3.0013 13.0117 2.98828C12.9596 2.96224 12.901 2.94271 12.8359 2.92969C12.7839 2.90365 12.7318 2.88411 12.6797 2.87109L12.3281 1.23047C12.263 0.917969 12.1068 0.638021 11.8594 0.390625C11.612 0.130208 11.3255 0 11 0H9.75C9.42448 0 9.15104 0.123698 8.92969 0.371094C8.72135 0.61849 8.57812 0.911458 8.5 1.25L8.08984 2.85156C7.88151 2.91667 7.67318 2.99479 7.46484 3.08594C7.26953 3.16406 7.07422 3.25521 6.87891 3.35938L5.43359 2.44141C5.26432 2.32422 5.06901 2.24609 4.84766 2.20703C4.63932 2.15495 4.42448 2.15495 4.20312 2.20703C3.98177 2.24609 3.79297 2.34375 3.63672 2.5L2.73828 3.37891C2.51693 3.66536 2.41276 3.95833 2.42578 4.25781C2.45182 4.55729 2.55599 4.85677 2.73828 5.15625L3.65625 6.67969C3.47396 7.05729 3.33073 7.41536 3.22656 7.75391L1.625 8.10547C1.29948 8.17057 1.00651 8.32682 0.746094 8.57422C0.498698 8.80859 0.375 9.09505 0.375 9.43359V10.6836C0.375 10.9961 0.498698 11.263 0.746094 11.4844C0.99349 11.7057 1.28646 11.8555 1.625 11.9336L3.24609 12.3242C3.35026 12.6497 3.48698 12.9818 3.65625 13.3203L2.73828 14.8438C2.55599 15.1432 2.45182 15.4427 2.42578 15.7422C2.41276 16.0417 2.51693 16.3346 2.73828 16.6211L3.63672 17.5C3.89714 17.7344 4.19661 17.8516 4.53516 17.8516C4.8737 17.8385 5.17318 17.7409 5.43359 17.5586L6.87891 16.6406C6.95703 16.6797 7.03516 16.7188 7.11328 16.7578C7.19141 16.7969 7.26953 16.8359 7.34766 16.875C7.4388 16.901 7.52344 16.9336 7.60156 16.9727C7.69271 16.9987 7.77734 17.0312 7.85547 17.0703C7.94661 17.0964 8.03125 17.1224 8.10938 17.1484L8.5 18.75C8.57812 19.0885 8.72786 19.3815 8.94922 19.6289C9.17057 19.8763 9.4375 20 9.75 20H11C11.2214 20 11.4297 19.9349 11.625 19.8047C11.8203 19.6875 11.9766 19.5312 12.0938 19.3359C12.2109 19.1536 12.2891 18.9583 12.3281 18.75L12.6797 17.1289C13.0703 17.0117 13.4479 16.8555 13.8125 16.6602L15.2188 17.5586C15.4922 17.7409 15.7982 17.8385 16.1367 17.8516C16.4753 17.8516 16.7747 17.7344 17.0352 17.5L17.9141 16.6211C18.1354 16.3346 18.2331 16.0417 18.207 15.7422C18.194 15.4427 18.0964 15.1432 17.9141 14.8438L17.0547 13.3984C17.237 13.0469 17.3867 12.6888 17.5039 12.3242L19.125 11.9336C19.4635 11.8555 19.7565 11.7057 20.0039 11.4844C20.2513 11.263 20.375 10.9961 20.375 10.6836V9.43359C20.375 8.92578 20.1081 8.53516 19.5742 8.26172C19.431 8.18359 19.2812 8.13151 19.125 8.10547ZM19.125 10.5859C19.112 10.599 19.0924 10.612 19.0664 10.625C19.0404 10.638 19.0078 10.651 18.9688 10.6641C18.9297 10.6771 18.8906 10.6901 18.8516 10.7031L16.5273 11.2891L16.3125 11.9336C16.2604 12.0898 16.2018 12.2461 16.1367 12.4023C16.0846 12.5456 16.0195 12.6888 15.9414 12.832L15.6289 13.457L16.8594 15.4883C16.9245 15.6055 16.9635 15.7096 16.9766 15.8008L16.1562 16.6211C16.1042 16.6081 16.0586 16.5951 16.0195 16.582C15.9805 16.556 15.9544 16.5365 15.9414 16.5234L13.8906 15.2148L13.2461 15.5469C13.1419 15.599 13.0378 15.651 12.9336 15.7031C12.8294 15.7422 12.7253 15.7878 12.6211 15.8398C12.5169 15.8789 12.4128 15.9115 12.3086 15.9375L11.625 16.1719L11.1172 18.4961C11.1042 18.5482 11.0846 18.6003 11.0586 18.6523C11.0326 18.6914 11.0065 18.724 10.9805 18.75H9.84766C9.79557 18.6719 9.75651 18.5807 9.73047 18.4766L9.14453 16.1719L8.48047 15.957C8.44141 15.944 8.40234 15.931 8.36328 15.918C8.33724 15.9049 8.30469 15.8919 8.26562 15.8789C8.22656 15.8659 8.1875 15.8529 8.14844 15.8398C8.10938 15.8268 8.07031 15.8138 8.03125 15.8008C7.99219 15.7747 7.95312 15.7552 7.91406 15.7422C7.875 15.7292 7.83594 15.7161 7.79688 15.7031C7.75781 15.6771 7.71875 15.6576 7.67969 15.6445C7.65365 15.6315 7.62109 15.6185 7.58203 15.6055C7.54297 15.5794 7.50391 15.5534 7.46484 15.5273L6.82031 15.1953L4.76953 16.5039C4.67839 16.569 4.59375 16.6016 4.51562 16.6016L3.69531 15.8008C3.70833 15.7096 3.7474 15.612 3.8125 15.5078L5.08203 13.3789L4.78906 12.7734C4.64583 12.487 4.52865 12.2135 4.4375 11.9531L4.22266 11.2891L1.9375 10.7031C1.80729 10.6771 1.70312 10.638 1.625 10.5859V9.43359C1.63802 9.43359 1.65104 9.42708 1.66406 9.41406C1.6901 9.40104 1.71615 9.38802 1.74219 9.375C1.78125 9.34896 1.8138 9.33594 1.83984 9.33594L4.20312 8.80859L4.41797 8.125C4.49609 7.85156 4.61328 7.55208 4.76953 7.22656L5.08203 6.62109L3.8125 4.51172C3.78646 4.45964 3.76042 4.40755 3.73438 4.35547C3.70833 4.29036 3.69531 4.23828 3.69531 4.19922L4.51562 3.37891L4.73047 3.47656L6.82031 4.80469L7.46484 4.47266C7.79036 4.30339 8.12891 4.16016 8.48047 4.04297L9.14453 3.82812L9.71094 1.5625C9.73698 1.43229 9.78255 1.32812 9.84766 1.25H11C11 1.25 11.0065 1.26953 11.0195 1.30859C11.0326 1.32161 11.0391 1.33464 11.0391 1.34766C11.0521 1.36068 11.0586 1.38021 11.0586 1.40625C11.0716 1.43229 11.0846 1.45182 11.0977 1.46484L11.6055 3.82812L12.2891 4.0625C12.6146 4.16667 12.9336 4.29688 13.2461 4.45312L13.8906 4.78516L15.9023 3.49609C15.9935 3.44401 16.0781 3.41797 16.1562 3.41797L16.9766 4.21875C16.9635 4.24479 16.9505 4.28385 16.9375 4.33594C16.9245 4.38802 16.8984 4.4401 16.8594 4.49219L15.6289 6.54297L15.9414 7.16797C16.0326 7.33724 16.1107 7.5 16.1758 7.65625C16.2409 7.8125 16.293 7.96875 16.332 8.125L16.5469 8.80859L18.8711 9.33594C19.0143 9.36198 19.1055 9.40755 19.1445 9.47266L19.125 10.5859ZM13.0312 7.34375C12.3021 6.61458 11.4167 6.25 10.375 6.25C9.34635 6.25 8.46094 6.61458 7.71875 7.34375C6.98958 8.07292 6.625 8.95833 6.625 10C6.625 11.0417 6.98958 11.9271 7.71875 12.6562C8.46094 13.3854 9.34635 13.75 10.375 13.75C10.8958 13.75 11.3841 13.6523 11.8398 13.457C12.3086 13.2617 12.7122 12.9948 13.0508 12.6562C13.3893 12.3177 13.6562 11.9206 13.8516 11.4648C14.0469 10.9961 14.1445 10.5078 14.1445 10C14.1445 8.95833 13.7734 8.07292 13.0312 7.34375ZM12.1328 11.7773C11.651 12.2591 11.0651 12.5 10.375 12.5C9.6849 12.5 9.09245 12.2591 8.59766 11.7773C8.11589 11.2826 7.875 10.6901 7.875 10C7.875 9.3099 8.11589 8.72396 8.59766 8.24219C9.09245 7.7474 9.6849 7.5 10.375 7.5C11.0651 7.5 11.651 7.7474 12.1328 8.24219C12.6276 8.72396 12.875 9.3099 12.875 10C12.875 10.6901 12.6276 11.2826 12.1328 11.7773Z" fill="#C78E66"/>
</svg>
