<svg width="20" height="20" viewBox="0 0 20 20" fill="none" xmlns="http://www.w3.org/2000/svg">
<path d="M12.0966 1.25245L10.7116 8.66928L15.7515 8.68885L8.90339 18.7476L10.2884 10.5871L5.24848 10.5675L12.0966 1.25245ZM12.0966 0C12.0838 0 12.071 0 12.0581 0C12.0453 0 12.0261 0 12.0004 0C11.8978 0.0130463 11.8081 0.0391389 11.7311 0.0782779C11.6542 0.104371 11.5644 0.150033 11.4618 0.215264C11.372 0.280496 11.2887 0.358774 11.2117 0.450098C11.1989 0.463144 11.1861 0.47619 11.1733 0.489237C11.1733 0.502283 11.1669 0.515329 11.154 0.528376L4.2482 9.80431C3.95324 10.2218 3.92118 10.6588 4.15201 11.1155C4.19049 11.1937 4.23537 11.272 4.28667 11.3503C4.35079 11.4155 4.41491 11.4808 4.47903 11.546C4.55598 11.5982 4.63292 11.6438 4.70987 11.683C4.79964 11.7221 4.88941 11.7547 4.97918 11.7808C5.06895 11.7939 5.15871 11.8004 5.24848 11.8004L8.8072 11.82L7.67226 18.5323C7.62096 18.8193 7.66585 19.0868 7.80691 19.3346C7.94798 19.5956 8.14676 19.7847 8.40324 19.9022C8.48019 19.9413 8.55713 19.9674 8.63408 19.9804C8.72385 19.9935 8.81362 20 8.90339 20C9.27529 20 9.58948 19.8304 9.84596 19.4912L16.7518 9.43249C17.0468 9.015 17.0788 8.57795 16.848 8.12133C16.6172 7.66471 16.2517 7.4364 15.7515 7.4364H12.1928L13.3085 1.54599C13.3213 1.4938 13.3277 1.44814 13.3277 1.409C13.3406 1.35682 13.347 1.30463 13.347 1.25245C13.347 1.13503 13.3277 1.02414 13.2893 0.919765C13.2636 0.815395 13.2251 0.717547 13.1738 0.626223C13.1226 0.534899 13.0584 0.450098 12.9815 0.37182C12.9174 0.293542 12.8404 0.22831 12.7506 0.176125C12.6609 0.12394 12.5647 0.084801 12.4621 0.0587084C12.3595 0.0195695 12.2569 0 12.1543 0C12.1415 0 12.1287 0 12.1159 0C12.1159 0 12.1094 0 12.0966 0Z" fill="#C78E66"/>
</svg>
