<?xml version="1.0" encoding="UTF-8" standalone="no"?>
<svg
   width="20"
   height="20"
   viewBox="0 0 20 20"
   fill="none"
   version="1.1"
   id="svg4"
   sodipodi:docname="prop_icon32.svg"
   inkscape:version="1.1 (c68e22c387, 2021-05-23)"
   xmlns:inkscape="http://www.inkscape.org/namespaces/inkscape"
   xmlns:sodipodi="http://sodipodi.sourceforge.net/DTD/sodipodi-0.dtd"
   xmlns="http://www.w3.org/2000/svg"
   xmlns:svg="http://www.w3.org/2000/svg">
  <defs
     id="defs8" />
  <sodipodi:namedview
     id="namedview6"
     pagecolor="#ffffff"
     bordercolor="#666666"
     borderopacity="1.0"
     inkscape:pageshadow="2"
     inkscape:pageopacity="0.0"
     inkscape:pagecheckerboard="0"
     showgrid="false"
     inkscape:zoom="43.65"
     inkscape:cx="7.0103093"
     inkscape:cy="10"
     inkscape:window-width="2560"
     inkscape:window-height="1411"
     inkscape:window-x="7191"
     inkscape:window-y="-9"
     inkscape:window-maximized="1"
     inkscape:current-layer="svg4" />
  <path
     d="m 19.862997,9.7061415 -0.157,-0.156 v -0.02 h -0.02 l -2.524,-2.3090004 a 0.453,0.453 0 0 0 -0.332,-0.137 0.453,0.453 0 0 0 -0.333,0.137 l -0.117,0.157 a 0.396,0.396 0 0 0 -0.098,0.313 0.515,0.515 0 0 0 0.156,0.313 l 1.507,1.3700004 h -7.28 V 2.0541411 l 1.37,1.508 a 0.515,0.515 0 0 0 0.313,0.156 0.395,0.395 0 0 0 0.313,-0.098 l 0.157,-0.117 a 0.453,0.453 0 0 0 0.137,-0.333 0.453,0.453 0 0 0 -0.137,-0.332 l -2.211,-2.42799995 a 0.628,0.628 0 0 0 -0.235,-0.254 l -0.04,-0.02 A 0.392,0.392 0 0 0 10.019997,1.4114736e-4 0.431,0.431 0 0 0 9.7059973,0.13714115 l -0.176,0.176 -2.25,2.48499995 a 0.453,0.453 0 0 0 -0.137,0.333 c 0,0.13 0.046,0.241 0.137,0.333 l 0.156,0.117 a 0.306,0.306 0 0 0 0.079,0.059 l 0.078,0.04 h 0.196 a 0.76,0.76 0 0 0 0.098,-0.04 0.757,0.757 0 0 0 0.097,-0.04 l 0.079,-0.078 1.35,-1.506 v 7.3380004 h -7.358 l 1.507,-1.3500004 a 0.515,0.515 0 0 0 0.156,-0.313 0.396,0.396 0 0 0 -0.098,-0.313 l -0.117,-0.157 a 0.322,0.322 0 0 0 -0.215,-0.117 0.362,0.362 0 0 0 -0.235,0 0.394,0.394 0 0 0 -0.215,0.117 l -2.428,2.2110004 a 0.628,0.628 0 0 0 -0.254,0.235 l -0.02,0.04 A 0.392,0.392 0 0 0 -2.699457e-6,10.020142 c 0,0.117 0.045999999457,0.221 0.136999999457,0.313 l 0.157,0.156 0.02,0.02 2.484,2.25 a 0.693,0.693 0 0 0 0.216,0.118 0.362,0.362 0 0 0 0.235,0 0.487,0.487 0 0 0 0.215,-0.118 l 0.117,-0.156 a 0.35,0.35 0 0 0 0.098,-0.196 0.376,0.376 0 0 0 -0.04,-0.235 0.491,0.491 0 0 0 -0.116,-0.196 l -1.527,-1.35 h 7.417 v 7.358 l -1.35,-1.507 a 0.516,0.516 0 0 0 -0.313,-0.156 0.396,0.396 0 0 0 -0.314,0.098 l -0.156,0.117 a 0.487,0.487 0 0 0 -0.118,0.215 0.362,0.362 0 0 0 0,0.235 c 0.027,0.079 0.066,0.15 0.118,0.216 l 2.25,2.485 0.176,0.176 a 0.431,0.431 0 0 0 0.3139997,0.137 c 0.13,0 0.234,-0.046 0.313,-0.137 l 0.156,-0.157 c 0.013,0 0.02,-0.006 0.02,-0.02 l 2.309,-2.524 a 0.453,0.453 0 0 0 0.137,-0.332 0.453,0.453 0 0 0 -0.137,-0.333 l -0.157,-0.117 a 0.396,0.396 0 0 0 -0.313,-0.098 0.514,0.514 0 0 0 -0.313,0.156 l -1.35,1.507 v -7.319 h 7.3 l -1.508,1.35 a 0.516,0.516 0 0 0 -0.156,0.314 0.396,0.396 0 0 0 0.098,0.313 l 0.117,0.156 a 0.491,0.491 0 0 0 0.196,0.118 0.422,0.422 0 0 0 0.254,0 0.693,0.693 0 0 0 0.216,-0.118 l 2.485,-2.25 c 0,-0.013 0.006,-0.02 0.02,-0.02 l 0.156,-0.156 a 0.431,0.431 0 0 0 0.137,-0.313 0.392,0.392 0 0 0 -0.137,-0.3140005 z"
     fill="#fff"
     id="path2-0"
     style="fill:#ffffff;fill-opacity:1" />
</svg>
