<svg xmlns="http://www.w3.org/2000/svg" viewBox="0 0 20 20">
  <path d="m19.863 9.706-.157-.156v-.02h-.02l-2.524-2.309a.453.453 0 0 0-.332-.137.453.453 0 0 0-.333.137l-.117.157a.396.396 0 0 0-.098.313.515.515 0 0 0 .156.313l1.507 1.37h-7.28v-7.32l1.37 1.508a.515.515 0 0 0 .313.156.395.395 0 0 0 .313-.098l.157-.117a.453.453 0 0 0 .137-.333.453.453 0 0 0-.137-.332L10.607.41a.628.628 0 0 0-.235-.254l-.04-.02A.392.392 0 0 0 10.02 0a.431.431 0 0 0-.314.137L9.53.313 7.28 2.798a.453.453 0 0 0-.137.333c0 .13.046.241.137.333l.156.117a.306.306 0 0 0 .079.059l.078.04h.196a.76.76 0 0 0 .098-.04.757.757 0 0 0 .097-.04l.079-.078 1.35-1.506v7.338H2.055l1.507-1.35a.515.515 0 0 0 .156-.313.396.396 0 0 0-.098-.313l-.117-.157a.322.322 0 0 0-.215-.117.362.362 0 0 0-.235 0 .394.394 0 0 0-.215.117L.41 9.432a.628.628 0 0 0-.254.235l-.02.04A.392.392 0 0 0 0 10.02c0 .117.046.221.137.313l.157.156.02.02 2.484 2.25a.693.693 0 0 0 .216.118.362.362 0 0 0 .235 0 .487.487 0 0 0 .215-.118l.117-.156a.35.35 0 0 0 .098-.196.376.376 0 0 0-.04-.235.491.491 0 0 0-.116-.196l-1.527-1.35h7.417v7.358l-1.35-1.507a.516.516 0 0 0-.313-.156.396.396 0 0 0-.314.098l-.156.117a.487.487 0 0 0-.118.215.362.362 0 0 0 0 .235c.027.079.066.15.118.216l2.25 2.485.176.176a.431.431 0 0 0 .314.137c.13 0 .234-.046.313-.137l.156-.157c.013 0 .02-.006.02-.02l2.309-2.524a.453.453 0 0 0 .137-.332.453.453 0 0 0-.137-.333l-.157-.117a.396.396 0 0 0-.313-.098.514.514 0 0 0-.313.156l-1.35 1.507v-7.319h7.3l-1.508 1.35a.516.516 0 0 0-.156.314.396.396 0 0 0 .098.313l.117.156a.491.491 0 0 0 .196.118.422.422 0 0 0 .254 0 .693.693 0 0 0 .216-.118l2.485-2.25c0-.013.006-.02.02-.02l.156-.156A.431.431 0 0 0 20 10.02a.392.392 0 0 0-.137-.314Z" fill="#fff"/>
</svg>
