<svg width="20" height="20" viewBox="0 0 20 20" fill="none" xmlns="http://www.w3.org/2000/svg">
<path d="M14.5703 16.3122L10.6445 14.1463C11.2956 13.626 11.7643 12.9171 12.0508 12.0195C12.3503 11.122 12.5 10.2699 12.5 9.46341V6.82927C12.5 6.25691 12.2721 5.68455 11.8164 5.1122C11.3737 4.53984 10.7878 4.07154 10.0586 3.70732C9.32943 3.33008 8.58724 3.14146 7.83203 3.14146C7.38932 3.14146 6.93359 3.21301 6.46484 3.3561C5.99609 3.49919 5.56641 3.69431 5.17578 3.94146C4.78516 4.18862 4.43359 4.46829 4.12109 4.78049C3.80859 5.07967 3.5612 5.41138 3.37891 5.77561C3.20964 6.13984 3.125 6.49106 3.125 6.82927V9.46341C3.125 10.1919 3.28776 11.0179 3.61328 11.9415C3.9388 12.865 4.43359 13.5935 5.09766 14.1268L1.05469 16.3122C0.976562 16.3512 0.878906 16.4033 0.761719 16.4683C0.644531 16.5333 0.488281 16.6569 0.292969 16.839C0.0976562 17.0211 0 17.1967 0 17.3659V18.9463C0 19.2455 0.104167 19.4927 0.3125 19.6878C0.520833 19.8959 0.768229 20 1.05469 20H14.5703C14.8568 20 15.1042 19.8959 15.3125 19.6878C15.5208 19.4927 15.625 19.2455 15.625 18.9463V17.3659C15.625 17.2878 15.6055 17.2098 15.5664 17.1317C15.5273 17.0406 15.4753 16.9626 15.4102 16.8976C15.3581 16.8325 15.293 16.7675 15.2148 16.7024C15.1367 16.6374 15.0586 16.5854 14.9805 16.5463C14.9023 16.4943 14.8307 16.4553 14.7656 16.4293C14.7135 16.3902 14.668 16.3642 14.6289 16.3512L14.5703 16.3122ZM14.375 18.7512H1.25V17.639C1.35417 17.561 1.45833 17.5024 1.5625 17.4634L1.64062 17.4244L5.68359 15.2195C5.7487 15.1935 5.80729 15.161 5.85938 15.122C5.91146 15.0699 5.95703 15.0244 5.99609 14.9854C6.04818 14.9333 6.09375 14.8813 6.13281 14.8293C6.17188 14.7642 6.20443 14.6992 6.23047 14.6341C6.25651 14.5691 6.27604 14.5041 6.28906 14.439C6.3151 14.374 6.32812 14.3089 6.32812 14.2439C6.36719 13.8016 6.21745 13.4374 5.87891 13.1512C5.63151 12.9561 5.40365 12.6959 5.19531 12.3707C5 12.0455 4.84375 11.7073 4.72656 11.3561C4.60938 11.0049 4.51823 10.6667 4.45312 10.3415C4.40104 10.0163 4.375 9.72358 4.375 9.46341V6.82927C4.375 6.33496 4.73958 5.80813 5.46875 5.24878C6.21094 4.67642 6.9987 4.39024 7.83203 4.39024C8.69141 4.39024 9.47266 4.66992 10.1758 5.22927C10.8919 5.78862 11.25 6.32195 11.25 6.82927V9.46341C11.25 10.1008 11.1393 10.7837 10.918 11.5122C10.6966 12.2276 10.3451 12.774 9.86328 13.1512C9.51172 13.4374 9.35547 13.8016 9.39453 14.2439C9.43359 14.6862 9.64844 15.0179 10.0391 15.239L13.9648 17.4049L14.082 17.4634C14.1732 17.5024 14.2708 17.561 14.375 17.639V18.7512ZM18.9453 13.2098L14.9609 11.0244C15.2995 10.7512 15.599 10.413 15.8594 10.0098C16.1198 9.5935 16.3216 9.16423 16.4648 8.72195C16.6081 8.27967 16.7122 7.86341 16.7773 7.47317C16.8424 7.06992 16.875 6.69919 16.875 6.36098V3.72683C16.875 3.29756 16.7318 2.86179 16.4453 2.41951C16.1719 1.96423 15.8203 1.56098 15.3906 1.20976C14.9609 0.858537 14.4531 0.572358 13.8672 0.35122C13.2943 0.117073 12.7214 0 12.1484 0C11.4193 0 10.6901 0.182114 9.96094 0.546341C9.24479 0.897561 8.65234 1.34634 8.18359 1.89268C8.2487 1.89268 8.35287 1.89919 8.49609 1.9122C8.63932 1.9122 8.75 1.9187 8.82812 1.93171C8.90625 1.93171 9.00391 1.93821 9.12109 1.95122C9.2513 1.96423 9.36849 1.98374 9.47266 2.00976C9.57682 2.02276 9.67448 2.04228 9.76562 2.06829C10.4688 1.53496 11.263 1.26829 12.1484 1.26829C13.0078 1.26829 13.8021 1.55447 14.5312 2.12683C15.2604 2.68618 15.625 3.21951 15.625 3.72683V6.36098C15.625 6.97236 15.5013 7.64878 15.2539 8.39024C15.0195 9.1187 14.6615 9.67154 14.1797 10.0488C13.8281 10.322 13.6719 10.6862 13.7109 11.1415C13.7109 11.2195 13.724 11.2976 13.75 11.3756C13.776 11.4537 13.8086 11.5317 13.8477 11.6098C13.8867 11.6748 13.9258 11.7398 13.9648 11.8049C14.0169 11.8699 14.0755 11.9285 14.1406 11.9805C14.2057 12.0325 14.2773 12.0846 14.3555 12.1366L18.3398 14.3024C18.3659 14.3154 18.3854 14.3285 18.3984 14.3415C18.4245 14.3415 18.444 14.348 18.457 14.361C18.4831 14.374 18.5091 14.387 18.5352 14.4C18.5612 14.413 18.5872 14.426 18.6133 14.439C18.6393 14.452 18.6589 14.465 18.6719 14.478C18.6979 14.4911 18.724 14.5041 18.75 14.5171V15.6293H16.2305C16.3477 15.7203 16.4453 15.8374 16.5234 15.9805C16.6146 16.1236 16.6797 16.2537 16.7188 16.3707C16.7578 16.4878 16.8099 16.6569 16.875 16.878H18.9453C19.1406 16.878 19.3164 16.8325 19.4727 16.7415C19.6419 16.6504 19.7721 16.5268 19.8633 16.3707C19.9544 16.2016 20 16.0195 20 15.8244V14.2634C20 14.0813 19.9089 13.9057 19.7266 13.7366C19.5573 13.5545 19.3815 13.4179 19.1992 13.3268L18.9453 13.2098Z" fill="#C78E66"/>
</svg>
