<svg width="21" height="19" viewBox="0 0 21 19" fill="none" xmlns="http://www.w3.org/2000/svg">
<path d="M14.8748 0.818277C13.6484 0.272759 12.3568 0 11 0C9.64318 0 8.34508 0.272759 7.10568 0.818277C5.87932 1.35049 4.81605 2.07563 3.91585 2.9937C3.0287 3.89846 2.31768 4.98284 1.78278 6.24685C1.26093 7.51085 1 8.83473 1 10.2185C1 11.9748 1.41096 13.618 2.23288 15.1481C3.06784 16.6782 4.22244 17.9156 5.69667 18.8603C5.84018 18.9534 5.99674 18.98 6.16634 18.9401C6.33594 18.9002 6.46641 18.8071 6.55773 18.6607C6.64905 18.5144 6.67515 18.3547 6.63601 18.1817C6.59687 18.0088 6.50554 17.8757 6.36204 17.7826C5.30528 17.104 4.43118 16.2458 3.73973 15.208L4.40509 14.8088C4.5486 14.729 4.63992 14.6026 4.67906 14.4296C4.73125 14.2567 4.71168 14.097 4.62035 13.9506C4.54207 13.791 4.41813 13.6912 4.24853 13.6513C4.07893 13.598 3.92237 13.618 3.77886 13.7111L3.1135 14.0903C2.87867 13.5847 2.6895 13.0592 2.54599 12.5137C2.40248 11.9681 2.31115 11.4093 2.27202 10.8372H2.95695C3.1396 10.8372 3.28963 10.7773 3.40704 10.6576C3.52446 10.5245 3.58317 10.3715 3.58317 10.1985C3.58317 10.0256 3.52446 9.8792 3.40704 9.75945C3.28963 9.6264 3.1396 9.55987 2.95695 9.55987H2.27202C2.35029 8.40231 2.64384 7.30462 3.15264 6.26681L3.77886 6.64601C3.87019 6.69923 3.97456 6.72584 4.09198 6.72584C4.32681 6.72584 4.50294 6.6194 4.62035 6.40651C4.71168 6.26015 4.73125 6.10049 4.67906 5.92752C4.63992 5.75455 4.5486 5.62815 4.40509 5.54832L3.77886 5.16912C4.41813 4.22444 5.20091 3.43277 6.1272 2.79412L6.47945 3.41281C6.59687 3.6257 6.77952 3.73214 7.0274 3.73214C7.13177 3.73214 7.23614 3.70553 7.34051 3.65231C7.40574 3.61239 7.46445 3.55917 7.51663 3.49265C7.56882 3.41281 7.60144 3.33964 7.61448 3.27311C7.64057 3.19328 7.6471 3.11345 7.63405 3.03361C7.63405 2.94048 7.60796 2.85399 7.55577 2.77416L7.20352 2.15546C7.69928 1.91597 8.20809 1.72969 8.72994 1.59664C9.26484 1.45028 9.80626 1.35049 10.3542 1.29727V2.09559C10.3542 2.28186 10.4129 2.43487 10.5303 2.55462C10.6608 2.67437 10.8108 2.73424 10.9804 2.73424C11.1631 2.73424 11.3131 2.67437 11.4305 2.55462C11.5479 2.43487 11.6067 2.28186 11.6067 2.09559V1.29727C12.7417 1.3771 13.818 1.66982 14.8356 2.17542L14.4834 2.77416C14.4703 2.81408 14.4573 2.85399 14.4442 2.89391C14.4312 2.92052 14.4181 2.95378 14.4051 2.9937C14.4051 3.03361 14.4051 3.07353 14.4051 3.11345C14.4051 3.14006 14.4051 3.17332 14.4051 3.21323C14.4181 3.25315 14.4312 3.29307 14.4442 3.33298C14.4573 3.35959 14.4703 3.39286 14.4834 3.43277C14.5095 3.45938 14.529 3.48599 14.5421 3.5126C14.5682 3.53922 14.5943 3.56583 14.6204 3.59244C14.6464 3.61905 14.6791 3.63901 14.7182 3.65231C14.7443 3.66562 14.7704 3.67892 14.7965 3.69223C14.8226 3.70553 14.8487 3.71884 14.8748 3.73214C14.9008 3.73214 14.9269 3.73214 14.953 3.73214C14.9791 3.73214 15.0052 3.73214 15.0313 3.73214C15.0835 3.73214 15.1357 3.72549 15.1879 3.71218C15.2401 3.69888 15.2857 3.67892 15.3249 3.65231C15.377 3.6257 15.4227 3.59244 15.4618 3.55252C15.514 3.5126 15.5532 3.46604 15.5793 3.41281L15.9119 2.81408C16.8382 3.46604 17.6145 4.2577 18.2407 5.18908L17.6536 5.54832C17.5753 5.58823 17.5101 5.64146 17.4579 5.70798C17.4188 5.77451 17.3862 5.84769 17.3601 5.92752C17.334 6.00735 17.3275 6.09384 17.3405 6.18697C17.3536 6.26681 17.3796 6.33999 17.4188 6.40651C17.484 6.51295 17.5623 6.59279 17.6536 6.64601C17.758 6.69923 17.8624 6.72584 17.9667 6.72584C18.0189 6.72584 18.0711 6.71919 18.1233 6.70588C18.1755 6.69258 18.2277 6.67262 18.2798 6.64601L18.8669 6.30672C19.3627 7.33123 19.6497 8.42227 19.728 9.57983H19.0431C18.8735 9.57983 18.7234 9.64636 18.593 9.77941C18.4755 9.89916 18.4168 10.0455 18.4168 10.2185C18.4168 10.3915 18.4755 10.5445 18.593 10.6775C18.7234 10.7973 18.8735 10.8571 19.0431 10.8571H19.728C19.6497 11.9881 19.3757 13.0592 18.9061 14.0704L18.2798 13.7111C18.1233 13.618 17.9602 13.598 17.7906 13.6513C17.6341 13.6912 17.5101 13.791 17.4188 13.9506C17.3796 14.0172 17.3536 14.097 17.3405 14.1901C17.3275 14.27 17.334 14.3498 17.3601 14.4296C17.3862 14.5095 17.4188 14.5826 17.4579 14.6492C17.5101 14.7157 17.5753 14.7689 17.6536 14.8088L18.2798 15.188C17.5753 16.2525 16.6751 17.1306 15.5793 17.8225C15.4357 17.9156 15.3444 18.0487 15.3053 18.2216C15.2661 18.3813 15.2922 18.541 15.3836 18.7006C15.4227 18.7539 15.4684 18.8004 15.5205 18.8403C15.5858 18.8936 15.651 18.9335 15.7162 18.9601C15.7815 18.9867 15.8467 19 15.9119 19C16.0294 19 16.1402 18.9667 16.2446 18.9002C17.7319 17.9688 18.893 16.7381 19.728 15.208C20.576 13.6646 21 11.9947 21 10.1985C21 8.82808 20.7325 7.51085 20.1977 6.24685C19.6758 4.98284 18.9648 3.89846 18.0646 2.9937C17.1774 2.07563 16.1142 1.35049 14.8748 0.818277ZM15.6184 8.22269C15.7228 8.15616 15.801 8.07633 15.8532 7.98319C15.9054 7.87675 15.9315 7.77031 15.9315 7.66387C15.9315 7.55742 15.9054 7.45098 15.8532 7.34454C15.7619 7.19818 15.6314 7.10504 15.4618 7.06513C15.3053 7.0119 15.1487 7.02521 14.9922 7.10504L11.5871 9.1208C11.3914 9.00105 11.1892 8.94118 10.9804 8.94118C10.6412 8.94118 10.3477 9.06758 10.0998 9.32038C9.85192 9.57318 9.72798 9.87255 9.72798 10.2185C9.72798 10.4447 9.78017 10.6576 9.88454 10.8571C10.002 11.0567 10.1585 11.2164 10.3542 11.3361C10.5499 11.4426 10.7586 11.4958 10.9804 11.4958C11.3196 11.4958 11.6132 11.3694 11.8611 11.1166C12.1089 10.8638 12.2329 10.5644 12.2329 10.2185L15.6184 8.22269Z" fill="#C78E66"/>
</svg>
