<svg width="35" height="19" viewBox="0 0 35 19" fill="none" xmlns="http://www.w3.org/2000/svg">
<rect width="35" height="19" fill="#003399"/>
<path d="M13.2333 7.42891L13.0266 6.77599L13.57 6.37471H12.8966L12.6899 5.72179L12.48 6.37471H11.8066L12.3533 6.77599L12.1433 7.42891L12.6899 7.02763L13.2333 7.42891ZM15.2666 15.1706L15.0599 14.5177L15.6033 14.1164H14.93L14.7232 13.4635L14.5133 14.1164H13.84L14.3866 14.5177L14.1766 15.1706L14.7233 14.7693L15.2666 15.1706ZM15.2666 5.35491L15.0599 4.70199L15.6033 4.30071H14.93L14.7232 3.64779L14.5133 4.30071H13.84L14.3866 4.70199L14.1766 5.35491L14.7233 4.95363L15.2666 5.35491ZM18.0433 15.9289L17.8366 15.276L18.38 14.8745H17.7066L17.4999 14.2223L17.2932 14.8752H16.6199L17.1633 15.2767L16.9565 15.9296L17.4999 15.5279L18.0433 15.9289ZM20.8232 15.1707L20.6133 14.5178L21.1604 14.1165L20.4866 14.1167L20.2766 13.4638L20.0699 14.1167H19.3966L19.9399 14.518L19.7332 15.171L20.2766 14.7697L20.8232 15.1707ZM20.8232 5.35504L20.6133 4.70211L21.1604 4.30083L20.4866 4.30107L20.2766 3.64814L20.0699 4.30107H19.3966L19.9399 4.70235L19.7332 5.35527L20.2766 4.95399L20.8232 5.35504ZM22.8565 7.42904L22.6466 6.77611L23.1932 6.37483L22.5199 6.37507L22.3099 5.72215L22.1032 6.37507H21.4299L21.9733 6.77635L21.7666 7.42927L22.31 7.02799L22.8565 7.42904ZM23.3935 9.61232L23.9368 9.20772H23.2635L23.0568 8.55479L22.8468 9.20772H22.1735L22.7206 9.61232L22.5107 10.2652L23.054 9.86064L23.6007 10.2652L23.3935 9.61232ZM22.6468 12.4445L23.1935 12.0399H22.5202L22.3102 11.3906L22.1035 12.0399H21.4302L21.9735 12.4445L21.7668 13.0974L22.3102 12.6928L22.8573 13.0974L22.6468 12.4445ZM17.8368 3.94452L18.3802 3.54324H17.7068L17.5001 2.89056L17.2934 3.54348H16.6201L17.1635 3.94476L16.9568 4.59769L17.5002 4.19284L18.0435 4.59745L17.8368 3.94452ZM13.0267 12.4445L13.5701 12.0399H12.8968L12.6901 11.3906L12.4801 12.0399H11.8068L12.3534 12.4445L12.1435 13.0974L12.6869 12.6928L13.2335 13.0974L13.0267 12.4445ZM12.2801 9.61232L12.8268 9.20772H12.1534L11.9435 8.55479L11.7368 9.20772H11.0634L11.6068 9.61232L11.4001 10.2652L11.9435 9.86064L12.4901 10.2652L12.2801 9.61232Z" fill="#FFCC00"/>
</svg>
