<svg width="35" height="19" viewBox="0 0 35 19" fill="none" xmlns="http://www.w3.org/2000/svg">
<path d="M13.998 0H35.0004V1.46139H13.998V0Z" fill="#B70101"/>
<path d="M13.998 2.92285H35.0004V4.38453H13.998V2.92285Z" fill="#B70101"/>
<path d="M13.998 5.84619H35.0004V7.30759H13.998V5.84619Z" fill="#B70101"/>
<path d="M13.998 8.76904H35.0004V10.2307H13.998V8.76904Z" fill="#B70101"/>
<path d="M0 11.6914H34.9993V13.1531H0V11.6914Z" fill="#B70101"/>
<path d="M0 14.6147H34.9993V16.0764H0V14.6147Z" fill="#B70101"/>
<path d="M0 17.5386H34.9993V19.0003H0V17.5386Z" fill="#B70101"/>
<path d="M13.9976 8.76893V0.00027975L0 0V10.231H13.9969V8.76937L13.9976 8.76893ZM13.1337 7.64041L12.8003 7.39059L12.4667 7.64041L12.5942 7.23617L12.2608 6.98635H12.6731L12.8006 6.58212L12.9281 6.98635H13.3404L13.0067 7.23673L13.1337 7.64041ZM2.35405 7.60795L2.48154 8.01219H2.89386L2.5602 8.26201L2.6877 8.66624L2.35431 8.41643L2.02066 8.66624L2.14815 8.26201L1.8145 8.01219H2.22682L2.35405 7.60795ZM3.30861 7.23617L2.97496 6.98635H3.38755L3.51504 6.58211L3.64253 6.98635H4.05485L3.7212 7.23673L3.84869 7.64096L3.5153 7.39114L3.18165 7.64096L3.30861 7.23617ZM2.97496 2.88242H3.38755L3.51504 2.47819L3.64253 2.88242H4.05485L3.7212 3.1328L3.84869 3.53704L3.5153 3.28666L3.18165 3.53704L3.30914 3.1328L2.97496 2.88242ZM5.29672 2.88242H5.70904L5.83653 2.47819L5.96375 2.88242H6.37607L6.04269 3.13224L6.17017 3.53704L5.83679 3.28666L5.50314 3.53704L5.63063 3.1328L5.29672 2.88242ZM7.61792 2.88242H8.03024L8.15773 2.47819L8.28522 2.88242H8.69781L8.36416 3.1328L8.49165 3.53704L8.158 3.28666L7.82461 3.53704L7.95211 3.13224L7.61792 2.88242ZM9.93913 2.88242H10.3514L10.4789 2.47819L10.6064 2.88242H11.0187L10.6854 3.1328L10.8129 3.53704L10.4792 3.28666L10.1458 3.53704L10.2733 3.1328L9.93913 2.88242ZM9.85775 5.96026L9.52409 6.21008L9.65158 6.61431L9.31793 6.36449L8.98455 6.61431L9.11177 6.21008L8.77839 5.96026H9.19071L9.3182 5.55602L9.44569 5.96026H9.85775ZM9.65186 8.66655L9.31821 8.41673L8.98483 8.66655L9.11205 8.26231L8.77866 8.0125H9.19098L9.31847 7.60826L9.44596 8.0125H9.85828L9.52463 8.26231L9.65186 8.66655ZM7.53628 5.96026L7.2029 6.21008L7.33039 6.61431L6.99673 6.36449L6.66335 6.61431L6.79084 6.21008L6.45719 5.96026H6.86951L6.997 5.55602L7.12449 5.96026H7.53628ZM7.33039 8.66655L6.99674 8.41673L6.66336 8.66655L6.79085 8.26231L6.4572 8.01194H6.86951L6.99701 7.6077L7.1245 8.01194H7.53681L7.20343 8.26176L7.33039 8.66655ZM6.45694 3.90854H6.86926L6.99675 3.50374L7.12424 3.90854H7.53656L7.20318 4.15835L7.33067 4.56259L6.99701 4.31277L6.66363 4.56259L6.79112 4.15835L6.45694 3.90854ZM8.49086 5.58843L8.1572 5.33861L7.82382 5.58843L7.95131 5.18419L7.61793 4.93438H8.03025L8.15774 4.53014L8.28523 4.93438H8.69782L8.36417 5.18419L8.49086 5.58843ZM5.83605 4.53016L5.96327 4.9344H6.37559L6.0422 5.18421L6.1697 5.58845L5.83631 5.33863L5.50266 5.58845L5.63015 5.18421L5.29677 4.9344H5.70909L5.83605 4.53016ZM10.8121 5.58843L10.4784 5.33861L10.145 5.58843L10.2725 5.18419L9.93886 4.93438H10.3512L10.4787 4.53014L10.6062 4.93438H11.0185L10.6851 5.18419L10.8121 5.58843ZM9.65188 4.5626L9.31822 4.31279L8.98484 4.5626L9.11206 4.15837L8.77868 3.90855H9.191L9.31849 3.50376L9.44598 3.90855H9.8583L9.52464 4.15837L9.65188 4.5626ZM4.13574 3.90855H4.54805L4.67554 3.50376L4.80304 3.90855H5.21535L4.88197 4.15837L5.00919 4.5626L4.67581 4.31279L4.34243 4.5626L4.46992 4.15837L4.13574 3.90855ZM3.51482 4.53015L3.64231 4.93439H4.05463L3.72097 5.18421L3.84846 5.58844L3.51508 5.33863L3.18143 5.58844L3.30892 5.18421L2.97527 4.93439H3.38786L3.51482 4.53015ZM4.67528 5.55598L4.80277 5.96022H5.21509L4.88144 6.21003L5.00893 6.61427L4.67554 6.36445L4.34216 6.61427L4.46965 6.21003L4.136 5.96022H4.54832L4.67528 5.55598ZM5.00893 8.66654L4.67555 8.41673L4.34217 8.66654L4.46966 8.26231L4.13601 8.01249H4.54833L4.67582 7.60825L4.80331 8.01249H5.21562L4.88224 8.26231L5.00893 8.66654ZM5.62985 7.23616L5.29647 6.98634H5.70879L5.83628 6.58211L5.9635 6.98634H6.37582L6.04243 7.23616L6.16992 7.6404L5.83654 7.39058L5.50289 7.6404L5.62985 7.23616ZM7.95106 7.23616L7.61767 6.98634H8.02999L8.15748 6.58211L8.28497 6.98634H8.69756L8.36391 7.23672L8.4914 7.64095L8.15775 7.39114L7.82436 7.64095L7.95106 7.23616ZM10.2725 7.23616L9.93888 6.98634H10.3512L10.4787 6.58211L10.6062 6.98634H11.0185L10.6851 7.23616L10.8126 7.6404L10.479 7.39058L10.1456 7.6404L10.2725 7.23616ZM11.9731 8.66654L11.6397 8.41673L11.306 8.66654L11.4335 8.26231L11.0999 8.01193H11.5124L11.6399 7.6077L11.7674 8.01193H12.1797L11.8453 8.26203L11.9731 8.66654ZM12.1789 5.96025L11.8453 6.21035L11.9728 6.61458L11.6394 6.36477L11.3057 6.61458L11.4332 6.21035L11.0996 5.96053H11.5122L11.6397 5.5563L11.7672 5.96053L12.1789 5.96025ZM13.1335 5.58846L12.8001 5.33865L12.4665 5.58846L12.594 5.18423L12.2606 4.93441H12.6729L12.8004 4.53018L12.9279 4.93441H13.3402L13.0065 5.18423L13.1335 5.58846ZM11.973 4.56264L11.6397 4.31282L11.306 4.56264L11.4335 4.1584L11.0998 3.90859H11.5124L11.6399 3.50379L11.7674 3.90859H12.1797L11.8453 4.1584L11.973 4.56264ZM13.1335 3.53681L12.8001 3.28644L12.4665 3.53681L12.594 3.13202L12.2606 2.8822H12.6729L12.8004 2.47797L12.9279 2.8822H13.3402L13.0065 3.13258L13.1335 3.53681ZM12.7996 0.426249L12.9271 0.830485H13.3394L13.0057 1.0803L13.1332 1.48454L12.7998 1.23472L12.4662 1.48454L12.5937 1.0803L12.2603 0.830485H12.6726L12.7996 0.426249ZM11.7669 1.85692H12.1792L11.8453 2.10674L11.9725 2.51097L11.6394 2.2606L11.3057 2.51097L11.4332 2.10674L11.0996 1.85692H11.5122L11.6397 1.45213L11.7669 1.85692ZM10.4784 0.426249L10.6059 0.830485H11.0182L10.6848 1.0803L10.8123 1.48454L10.4786 1.23472L10.1453 1.48454L10.2728 1.0803L9.9391 0.830485H10.3514L10.4784 0.426249ZM9.44569 1.85692H9.85801L9.52436 2.10674L9.65185 2.51097L9.3182 2.2606L8.98481 2.51097L9.11203 2.10674L8.77865 1.85692H9.19097L9.31846 1.45213L9.44569 1.85692ZM8.15718 0.426249L8.28467 0.830485H8.69726L8.3636 1.0803L8.49109 1.48454L8.15744 1.23472L7.82406 1.48454L7.95155 1.0803L7.61817 0.830485H8.03049L8.15718 0.426249ZM7.12393 1.85692H7.53625L7.20287 2.10674L7.33036 2.51097L6.99671 2.2606L6.66332 2.51097L6.79082 2.10674L6.45716 1.85692H6.86948L6.99697 1.45213L7.12393 1.85692ZM5.83597 0.426249L5.96319 0.830485H6.37551L6.04213 1.0803L6.16962 1.48454L5.83624 1.23472L5.50258 1.48454L5.63007 1.0803L5.29669 0.830485H5.70901L5.83597 0.426249ZM4.80273 1.85692H5.21505L4.88167 2.10674L5.00889 2.51097L4.6755 2.2606L4.34212 2.51097L4.46961 2.10674L4.13596 1.85692H4.54828L4.67577 1.45213L4.80273 1.85692ZM3.51477 0.426249L3.64226 0.830485H4.05458L3.72093 1.0803L3.84842 1.48454L3.51503 1.23472L3.18138 1.48454L3.30887 1.0803L2.97522 0.830485H3.38781L3.51477 0.426249ZM2.48153 1.85692H2.89384L2.56019 2.10674L2.68768 2.51097L2.3543 2.2606L2.02065 2.51097L2.14814 2.10674L1.81448 1.85692H2.2268L2.35429 1.45213L2.48153 1.85692ZM0.653785 0.830521H1.0661L1.19359 0.426285L1.32108 0.830521H1.7334L1.40002 1.08034L1.52751 1.48457L1.19386 1.23476L0.860476 1.48457L0.987695 1.08034L0.653785 0.830521ZM0.653785 2.88246H1.0661L1.19359 2.47822L1.32108 2.88246H1.7334L1.40002 3.13228L1.52751 3.53707L1.19386 3.2867L0.860476 3.53707L0.987695 3.13284L0.653785 2.88246ZM1.81425 3.90857H2.22657L2.35406 3.50378L2.48155 3.90857H2.89387L2.56021 4.15839L2.6877 4.56263L2.35432 4.31281L2.02067 4.56263L2.14816 4.15839L1.81425 3.90857ZM1.52725 5.58846L1.1936 5.33865L0.860219 5.58846L0.987438 5.18423L0.654056 4.93441H1.06637L1.19386 4.53018L1.32135 4.93441H1.73367L1.39975 5.18423L1.52725 5.58846ZM2.35404 5.55602L2.48153 5.96025H2.89385L2.5602 6.21007L2.68769 6.6143L2.35431 6.36449L2.02065 6.6143L2.14814 6.21007L1.81449 5.96025H2.22681L2.35404 5.55602ZM0.653799 6.9864H1.06612L1.19361 6.58216L1.3211 6.9864H1.73342L1.40003 7.23622L1.52752 7.64045L1.19387 7.39063L0.860489 7.64045L0.987709 7.23622L0.653799 6.9864ZM1.52725 9.6924L1.1936 9.44259L0.860219 9.6924L0.987438 9.28817L0.653785 9.03835H1.0661L1.19359 8.63412L1.32108 9.03835H1.7334L1.40002 9.28817L1.52725 9.6924ZM3.8479 9.6924L3.51452 9.44259L3.18087 9.6924L3.30836 9.28817L2.97498 9.03835H3.38756L3.51505 8.63412L3.64254 9.03835H4.05486L3.72121 9.28817L3.8479 9.6924ZM6.16966 9.6924L5.83628 9.44259L5.50263 9.6924L5.63012 9.28817L5.29673 9.03835H5.70905L5.83654 8.63412L5.96376 9.03835H6.37608L6.0427 9.28817L6.16966 9.6924ZM8.49086 9.6924L8.15721 9.44259L7.82383 9.6924L7.95132 9.28817L7.61794 9.03835H8.03026L8.15775 8.63412L8.28524 9.03835H8.69783L8.36417 9.28817L8.49086 9.6924ZM10.8121 9.6924L10.4784 9.44203L10.145 9.6924L10.2725 9.28817L9.93887 9.03835H10.3512L10.4787 8.63412L10.6062 9.03835H11.0185L10.6851 9.28817L10.8121 9.6924ZM13.1335 9.6924L12.8002 9.44203L12.4665 9.6924L12.594 9.28817L12.2606 9.03835H12.6729L12.8004 8.63412L12.9279 9.03835H13.3402L13.0066 9.28817L13.1335 9.6924Z" fill="#04146E"/>
</svg>
