<svg width="1118" height="400" viewBox="0 0 1118 400" fill="none" xmlns="http://www.w3.org/2000/svg">
<g clip-path="url(#clip0_2154_13017)">
<rect width="1118" height="400" rx="20" fill="#F3F5F7"/>
<path d="M560 326V326C560 337.046 568.954 346 580 346L977 346C988.046 346 997 337.046 997 326L997 286M977 103V103C988.046 103 997 111.954 997 123L997 194M997 194L977 194M997 194L997 286M997 286L977 286" stroke="white" stroke-width="4" stroke-linecap="round" stroke-linejoin="round"/>
<path d="M349 114L349 158" stroke="white" stroke-width="4" stroke-linecap="round" stroke-linejoin="round"/>
<path d="M306 114L306 158" stroke="white" stroke-width="4" stroke-linecap="round" stroke-linejoin="round"/>
<path d="M264 114L264 158" stroke="white" stroke-width="4" stroke-linecap="round" stroke-linejoin="round"/>
<path d="M222 114L222 158" stroke="white" stroke-width="4" stroke-linecap="round" stroke-linejoin="round"/>
<path d="M349 152L349 133" stroke="#1FA4F1" stroke-width="4" stroke-linecap="round" stroke-linejoin="round"/>
<path d="M306 152L306 133" stroke="#1FA4F1" stroke-width="4" stroke-linecap="round" stroke-linejoin="round"/>
<path d="M264 152L264 133" stroke="#1FA4F1" stroke-width="4" stroke-linecap="round" stroke-linejoin="round"/>
<path d="M222 152L222 133" stroke="#1FA4F1" stroke-width="4" stroke-linecap="round" stroke-linejoin="round"/>
<path d="M349 114L349 133" stroke="#1FA4F1" stroke-width="4" stroke-linecap="round" stroke-linejoin="round"/>
<path d="M306 114L306 133" stroke="#1FA4F1" stroke-width="4" stroke-linecap="round" stroke-linejoin="round"/>
<path d="M264 114L264 133" stroke="#1FA4F1" stroke-width="4" stroke-linecap="round" stroke-linejoin="round"/>
<path d="M222 114L222 133" stroke="#1FA4F1" stroke-width="4" stroke-linecap="round" stroke-linejoin="round"/>
<rect x="341" y="152" width="16" height="14" rx="5" fill="white"/>
<g clip-path="url(#clip1_2154_13017)">
<path d="M320 170.123C320 164.6 324.477 160.123 330 160.123H357V231.341C357 236.864 352.523 241.341 347 241.341H330C324.477 241.341 320 236.864 320 231.341V170.123Z" fill="#1FA4F1"/>
<path d="M583.546 164.667C588.697 170.444 593.849 170.444 599 164.667L599 130L289.925 130L289.925 164.667C295.076 170.444 300.227 170.444 305.379 164.667C310.53 170.444 315.681 170.444 320.832 164.667C325.984 170.444 331.135 170.444 336.286 164.667C341.437 170.444 346.589 170.444 351.74 164.667C356.891 170.444 362.042 170.444 367.194 164.667C372.345 170.444 377.496 170.444 382.647 164.667C387.799 170.444 392.95 170.444 398.101 164.667C403.252 170.444 408.404 170.444 413.555 164.667C418.706 170.444 423.857 170.444 429.009 164.667C434.16 170.444 439.311 170.444 444.462 164.667C449.614 170.444 454.765 170.444 459.916 164.667C465.067 170.444 470.219 170.444 475.37 164.667C480.521 170.444 485.672 170.444 490.824 164.667C495.975 170.444 501.126 170.444 506.277 164.667C511.429 170.444 516.58 170.444 521.731 164.667C526.882 170.444 532.034 170.444 537.185 164.667C542.336 170.444 547.487 170.444 552.639 164.667C557.79 170.444 562.941 170.444 568.092 164.667C573.244 170.444 578.395 170.444 583.546 164.667Z" fill="white"/>
<path d="M352.488 203.527C351.936 203.527 351.488 203.975 351.488 204.527C351.488 205.08 351.936 205.527 352.488 205.527L352.488 203.527ZM352.488 205.527L357 205.527L357 203.527L352.488 203.527L352.488 205.527Z" fill="#012137"/>
<path d="M352.488 174C351.936 174 351.488 174.448 351.488 175C351.488 175.552 351.936 176 352.488 176L352.488 174ZM352.488 176L357 176L357 174L352.488 174L352.488 176Z" fill="#012137"/>
<path d="M352.488 231.316C351.936 231.316 351.488 231.764 351.488 232.316C351.488 232.869 351.936 233.316 352.488 233.316L352.488 231.316ZM352.488 233.316L357 233.316L357 231.316L352.488 231.316L352.488 233.316Z" fill="#012137"/>
</g>
<rect x="298" y="152" width="16" height="14" rx="5" fill="white"/>
<g clip-path="url(#clip2_2154_13017)">
<path d="M277 170.123C277 164.6 281.477 160.123 287 160.123H314V231.341C314 236.864 309.523 241.341 304 241.341H287C281.477 241.341 277 236.864 277 231.341V170.123Z" fill="#1FA4F1"/>
<path d="M540.546 164.667C545.697 170.444 550.849 170.444 556 164.667L556 130L246.925 130L246.925 164.667C252.076 170.444 257.227 170.444 262.379 164.667C267.53 170.444 272.681 170.444 277.832 164.667C282.984 170.444 288.135 170.444 293.286 164.667C298.437 170.444 303.589 170.444 308.74 164.667C313.891 170.444 319.042 170.444 324.194 164.667C329.345 170.444 334.496 170.444 339.647 164.667C344.799 170.444 349.95 170.444 355.101 164.667C360.252 170.444 365.404 170.444 370.555 164.667C375.706 170.444 380.857 170.444 386.009 164.667C391.16 170.444 396.311 170.444 401.462 164.667C406.614 170.444 411.765 170.444 416.916 164.667C422.067 170.444 427.219 170.444 432.37 164.667C437.521 170.444 442.672 170.444 447.824 164.667C452.975 170.444 458.126 170.444 463.277 164.667C468.429 170.444 473.58 170.444 478.731 164.667C483.882 170.444 489.034 170.444 494.185 164.667C499.336 170.444 504.487 170.444 509.639 164.667C514.79 170.444 519.941 170.444 525.092 164.667C530.244 170.444 535.395 170.444 540.546 164.667Z" fill="white"/>
<path d="M309.488 203.527C308.936 203.527 308.488 203.975 308.488 204.527C308.488 205.08 308.936 205.527 309.488 205.527L309.488 203.527ZM309.488 205.527L314 205.527L314 203.527L309.488 203.527L309.488 205.527Z" fill="#012137"/>
<path d="M309.488 174C308.936 174 308.488 174.448 308.488 175C308.488 175.552 308.936 176 309.488 176L309.488 174ZM309.488 176L314 176L314 174L309.488 174L309.488 176Z" fill="#012137"/>
<path d="M309.488 231.316C308.936 231.316 308.488 231.764 308.488 232.316C308.488 232.869 308.936 233.316 309.488 233.316L309.488 231.316ZM309.488 233.316L314 233.316L314 231.316L309.488 231.316L309.488 233.316Z" fill="#012137"/>
</g>
<rect x="256" y="152" width="16" height="14" rx="5" fill="white"/>
<g clip-path="url(#clip3_2154_13017)">
<path d="M235 170.123C235 164.6 239.477 160.123 245 160.123H272V231.341C272 236.864 267.523 241.341 262 241.341H245C239.477 241.341 235 236.864 235 231.341V170.123Z" fill="#1FA4F1"/>
<path d="M498.546 164.667C503.697 170.444 508.849 170.444 514 164.667L514 130L204.925 130L204.925 164.667C210.076 170.444 215.227 170.444 220.379 164.667C225.53 170.444 230.681 170.444 235.832 164.667C240.984 170.444 246.135 170.444 251.286 164.667C256.437 170.444 261.589 170.444 266.74 164.667C271.891 170.444 277.042 170.444 282.194 164.667C287.345 170.444 292.496 170.444 297.647 164.667C302.799 170.444 307.95 170.444 313.101 164.667C318.252 170.444 323.404 170.444 328.555 164.667C333.706 170.444 338.857 170.444 344.009 164.667C349.16 170.444 354.311 170.444 359.462 164.667C364.614 170.444 369.765 170.444 374.916 164.667C380.067 170.444 385.219 170.444 390.37 164.667C395.521 170.444 400.672 170.444 405.824 164.667C410.975 170.444 416.126 170.444 421.277 164.667C426.429 170.444 431.58 170.444 436.731 164.667C441.882 170.444 447.034 170.444 452.185 164.667C457.336 170.444 462.487 170.444 467.639 164.667C472.79 170.444 477.941 170.444 483.092 164.667C488.244 170.444 493.395 170.444 498.546 164.667Z" fill="white"/>
<path d="M267.488 203.527C266.936 203.527 266.488 203.975 266.488 204.527C266.488 205.08 266.936 205.527 267.488 205.527L267.488 203.527ZM267.488 205.527L272 205.527L272 203.527L267.488 203.527L267.488 205.527Z" fill="#012137"/>
<path d="M267.488 174C266.936 174 266.488 174.448 266.488 175C266.488 175.552 266.936 176 267.488 176L267.488 174ZM267.488 176L272 176L272 174L267.488 174L267.488 176Z" fill="#012137"/>
<path d="M267.488 231.316C266.936 231.316 266.488 231.764 266.488 232.316C266.488 232.869 266.936 233.316 267.488 233.316L267.488 231.316ZM267.488 233.316L272 233.316L272 231.316L267.488 231.316L267.488 233.316Z" fill="#012137"/>
</g>
<rect x="214" y="152" width="16" height="14" rx="5" fill="white"/>
<g clip-path="url(#clip4_2154_13017)">
<path d="M193 170.123C193 164.6 197.477 160.123 203 160.123H230V231.341C230 236.864 225.523 241.341 220 241.341H203C197.477 241.341 193 236.864 193 231.341V170.123Z" fill="#1FA4F1"/>
<path d="M456.546 164.667C461.697 170.444 466.849 170.444 472 164.667L472 130L162.925 130L162.925 164.667C168.076 170.444 173.227 170.444 178.379 164.667C183.53 170.444 188.681 170.444 193.832 164.667C198.984 170.444 204.135 170.444 209.286 164.667C214.437 170.444 219.589 170.444 224.74 164.667C229.891 170.444 235.042 170.444 240.194 164.667C245.345 170.444 250.496 170.444 255.647 164.667C260.799 170.444 265.95 170.444 271.101 164.667C276.252 170.444 281.404 170.444 286.555 164.667C291.706 170.444 296.857 170.444 302.009 164.667C307.16 170.444 312.311 170.444 317.462 164.667C322.614 170.444 327.765 170.444 332.916 164.667C338.067 170.444 343.219 170.444 348.37 164.667C353.521 170.444 358.672 170.444 363.824 164.667C368.975 170.444 374.126 170.444 379.277 164.667C384.429 170.444 389.58 170.444 394.731 164.667C399.882 170.444 405.034 170.444 410.185 164.667C415.336 170.444 420.487 170.444 425.639 164.667C430.79 170.444 435.941 170.444 441.092 164.667C446.244 170.444 451.395 170.444 456.546 164.667Z" fill="white"/>
<path d="M225.488 203.527C224.936 203.527 224.488 203.975 224.488 204.527C224.488 205.08 224.936 205.527 225.488 205.527L225.488 203.527ZM225.488 205.527L230 205.527L230 203.527L225.488 203.527L225.488 205.527Z" fill="#012137"/>
<path d="M225.488 174C224.936 174 224.488 174.448 224.488 175C224.488 175.552 224.936 176 225.488 176L225.488 174ZM225.488 176L230 176L230 174L225.488 174L225.488 176Z" fill="#012137"/>
<path d="M225.488 231.316C224.936 231.316 224.488 231.764 224.488 232.316C224.488 232.869 224.936 233.316 225.488 233.316L225.488 231.316ZM225.488 233.316L230 233.316L230 231.316L225.488 231.316L225.488 233.316Z" fill="#012137"/>
</g>
<path d="M134.5 346L366 346C377.046 346 386 337.046 386 326V300M854 286H741C729.954 286 721 277.046 721 266V194M721 194L854 194M721 194V103M721 103V52C721 40.9543 712.046 32 701 32L406 32C394.954 32 386 40.9543 386 52V113L386 298V115M721 103L787.5 103H854" stroke="white" stroke-width="4" stroke-linecap="round" stroke-linejoin="round"/>
<path d="M427 114L162 114M133.5 114H162M162 114V279C162 290.046 170.954 299 182 299L212 299M386 299H335" stroke="white" stroke-width="4" stroke-linecap="round" stroke-linejoin="round"/>
<path d="M386 299H427" stroke="white" stroke-width="4"/>
<path d="M14.466 321.76C15.922 321.76 17.0607 322.157 17.882 322.95C18.7033 323.743 19.114 324.882 19.114 326.366C19.114 327.859 18.7033 329.007 17.882 329.81C17.0607 330.603 15.922 331 14.466 331H11.498V321.76H14.466ZM14.564 330.034C15.656 330.034 16.5053 329.712 17.112 329.068C17.7187 328.424 18.022 327.523 18.022 326.366C18.022 325.218 17.7187 324.327 17.112 323.692C16.5053 323.048 15.656 322.726 14.564 322.726H12.534V330.034H14.564ZM21.2548 331V324H22.1088L22.2488 325.204C22.4355 324.765 22.7201 324.434 23.1028 324.21C23.4855 323.977 23.9475 323.86 24.4888 323.86C24.6195 323.86 24.7595 323.874 24.9088 323.902C25.0581 323.921 25.1841 323.958 25.2868 324.014L25.0908 324.966C24.9881 324.919 24.8761 324.887 24.7548 324.868C24.6335 324.84 24.4608 324.826 24.2368 324.826C23.9288 324.826 23.6255 324.915 23.3268 325.092C23.0281 325.269 22.7808 325.535 22.5848 325.89C22.3888 326.235 22.2908 326.669 22.2908 327.192V331H21.2548ZM30.8262 326.464C30.8262 325.923 30.6815 325.507 30.3922 325.218C30.1029 324.919 29.6922 324.77 29.1602 324.77C28.6655 324.77 28.2455 324.877 27.9002 325.092C27.5549 325.307 27.2982 325.652 27.1302 326.128L26.2902 325.61C26.4862 325.078 26.8315 324.653 27.3262 324.336C27.8302 324.019 28.4509 323.86 29.1882 323.86C29.6922 323.86 30.1449 323.949 30.5462 324.126C30.9569 324.294 31.2789 324.555 31.5122 324.91C31.7455 325.265 31.8622 325.713 31.8622 326.254V329.67C31.8622 330.034 32.0489 330.216 32.4222 330.216C32.5995 330.216 32.7722 330.193 32.9402 330.146L32.8842 330.958C32.7069 331.051 32.4735 331.098 32.1842 331.098C31.9229 331.098 31.6849 331.051 31.4702 330.958C31.2649 330.855 31.1015 330.701 30.9802 330.496C30.8589 330.281 30.7982 330.015 30.7982 329.698V329.516L31.0642 329.544C30.9615 329.917 30.7702 330.221 30.4902 330.454C30.2195 330.687 29.9115 330.86 29.5662 330.972C29.2209 331.084 28.8802 331.14 28.5442 331.14C28.1335 331.14 27.7509 331.07 27.3962 330.93C27.0415 330.79 26.7615 330.58 26.5562 330.3C26.3509 330.02 26.2482 329.67 26.2482 329.25C26.2482 328.727 26.4209 328.298 26.7662 327.962C27.1209 327.626 27.6109 327.397 28.2362 327.276L31.0362 326.73V327.584L28.7262 328.06C28.2502 328.153 27.8955 328.289 27.6622 328.466C27.4289 328.643 27.3122 328.886 27.3122 329.194C27.3122 329.511 27.4289 329.763 27.6622 329.95C27.9049 330.137 28.2502 330.23 28.6982 330.23C28.9689 330.23 29.2302 330.197 29.4822 330.132C29.7342 330.057 29.9629 329.945 30.1682 329.796C30.3735 329.647 30.5322 329.46 30.6442 329.236C30.7655 329.012 30.8262 328.746 30.8262 328.438V326.464ZM35.0619 322.656C34.8285 322.656 34.6372 322.586 34.4879 322.446C34.3479 322.297 34.2779 322.101 34.2779 321.858C34.2779 321.625 34.3479 321.438 34.4879 321.298C34.6372 321.149 34.8285 321.074 35.0619 321.074C35.3045 321.074 35.4959 321.149 35.6359 321.298C35.7852 321.438 35.8599 321.625 35.8599 321.858C35.8599 322.101 35.7852 322.297 35.6359 322.446C35.4959 322.586 35.3045 322.656 35.0619 322.656ZM35.5799 324V331H34.5439V324H35.5799ZM38.1669 331V324H39.0769L39.1749 325.61L39.0069 325.456C39.1469 325.083 39.3429 324.779 39.5949 324.546C39.8562 324.303 40.1549 324.131 40.4909 324.028C40.8269 323.916 41.1769 323.86 41.5409 323.86C42.0542 323.86 42.5116 323.958 42.9129 324.154C43.3236 324.341 43.6502 324.63 43.8929 325.022C44.1449 325.414 44.2709 325.909 44.2709 326.506V331H43.2349V326.87C43.2349 326.095 43.0622 325.554 42.7169 325.246C42.3809 324.929 41.9562 324.77 41.4429 324.77C41.0882 324.77 40.7382 324.854 40.3929 325.022C40.0476 325.19 39.7629 325.456 39.5389 325.82C39.3149 326.175 39.2029 326.646 39.2029 327.234V331H38.1669ZM50.9102 326.464C50.9102 325.923 50.7655 325.507 50.4762 325.218C50.1869 324.919 49.7762 324.77 49.2442 324.77C48.7495 324.77 48.3295 324.877 47.9842 325.092C47.6389 325.307 47.3822 325.652 47.2142 326.128L46.3742 325.61C46.5702 325.078 46.9155 324.653 47.4102 324.336C47.9142 324.019 48.5349 323.86 49.2722 323.86C49.7762 323.86 50.2289 323.949 50.6302 324.126C51.0409 324.294 51.3629 324.555 51.5962 324.91C51.8295 325.265 51.9462 325.713 51.9462 326.254V329.67C51.9462 330.034 52.1329 330.216 52.5062 330.216C52.6835 330.216 52.8562 330.193 53.0242 330.146L52.9682 330.958C52.7909 331.051 52.5575 331.098 52.2682 331.098C52.0069 331.098 51.7689 331.051 51.5542 330.958C51.3489 330.855 51.1855 330.701 51.0642 330.496C50.9429 330.281 50.8822 330.015 50.8822 329.698V329.516L51.1482 329.544C51.0455 329.917 50.8542 330.221 50.5742 330.454C50.3035 330.687 49.9955 330.86 49.6502 330.972C49.3049 331.084 48.9642 331.14 48.6282 331.14C48.2175 331.14 47.8349 331.07 47.4802 330.93C47.1255 330.79 46.8455 330.58 46.6402 330.3C46.4349 330.02 46.3322 329.67 46.3322 329.25C46.3322 328.727 46.5049 328.298 46.8502 327.962C47.2049 327.626 47.6949 327.397 48.3202 327.276L51.1202 326.73V327.584L48.8102 328.06C48.3342 328.153 47.9795 328.289 47.7462 328.466C47.5129 328.643 47.3962 328.886 47.3962 329.194C47.3962 329.511 47.5129 329.763 47.7462 329.95C47.9889 330.137 48.3342 330.23 48.7822 330.23C49.0529 330.23 49.3142 330.197 49.5662 330.132C49.8182 330.057 50.0469 329.945 50.2522 329.796C50.4575 329.647 50.6162 329.46 50.7282 329.236C50.8495 329.012 50.9102 328.746 50.9102 328.438V326.464ZM57.3858 334.01C56.8725 334.01 56.3872 333.931 55.9298 333.772C55.4818 333.623 55.1038 333.389 54.7958 333.072C54.4878 332.755 54.2872 332.353 54.1938 331.868L55.2158 331.56C55.3092 332.055 55.5472 332.433 55.9298 332.694C56.3218 332.965 56.8538 333.1 57.5258 333.1C58.2538 333.1 58.8092 332.881 59.1918 332.442C59.5745 332.003 59.7658 331.429 59.7658 330.72V329.6C59.5605 330.001 59.2525 330.333 58.8418 330.594C58.4405 330.855 57.9645 330.986 57.4138 330.986C56.7885 330.986 56.2332 330.846 55.7478 330.566C55.2718 330.277 54.8938 329.866 54.6138 329.334C54.3338 328.802 54.1938 328.167 54.1938 327.43C54.1938 326.683 54.3478 326.044 54.6558 325.512C54.9638 324.98 55.3605 324.574 55.8458 324.294C56.3405 324.005 56.8538 323.86 57.3858 323.86C57.9832 323.86 58.4872 323.981 58.8978 324.224C59.3085 324.457 59.6165 324.779 59.8218 325.19L59.9058 323.986H60.8158V330.482C60.8158 331.275 60.6852 331.933 60.4238 332.456C60.1625 332.979 59.7752 333.366 59.2618 333.618C58.7578 333.879 58.1325 334.01 57.3858 334.01ZM57.4978 330.076C58.1792 330.076 58.7252 329.847 59.1358 329.39C59.5558 328.933 59.7658 328.279 59.7658 327.43C59.7658 326.571 59.5558 325.913 59.1358 325.456C58.7252 324.999 58.1792 324.77 57.4978 324.77C57.0218 324.77 56.6158 324.887 56.2798 325.12C55.9438 325.344 55.6825 325.657 55.4958 326.058C55.3185 326.459 55.2298 326.917 55.2298 327.43C55.2298 328.242 55.4305 328.886 55.8318 329.362C56.2425 329.838 56.7978 330.076 57.4978 330.076ZM66.3035 331.14C65.6502 331.14 65.0622 330.995 64.5395 330.706C64.0262 330.417 63.6248 330.001 63.3355 329.46C63.0462 328.909 62.9015 328.256 62.9015 327.5C62.9015 326.744 63.0462 326.095 63.3355 325.554C63.6248 325.003 64.0215 324.583 64.5255 324.294C65.0295 324.005 65.5988 323.86 66.2335 323.86C66.8868 323.86 67.4422 324 67.8995 324.28C68.3568 324.56 68.7068 324.943 68.9495 325.428C69.1922 325.913 69.3135 326.459 69.3135 327.066C69.3135 327.206 69.3088 327.337 69.2995 327.458C69.2902 327.579 69.2762 327.687 69.2575 327.78H63.5735V326.87H68.8095L68.2775 326.968C68.2775 326.277 68.0862 325.741 67.7035 325.358C67.3302 324.966 66.8308 324.77 66.2055 324.77C65.7388 324.77 65.3328 324.877 64.9875 325.092C64.6515 325.307 64.3902 325.619 64.2035 326.03C64.0168 326.431 63.9235 326.921 63.9235 327.5C63.9235 328.069 64.0168 328.559 64.2035 328.97C64.3995 329.381 64.6702 329.693 65.0155 329.908C65.3702 330.123 65.7902 330.23 66.2755 330.23C66.7982 330.23 67.2275 330.132 67.5635 329.936C67.8995 329.731 68.1655 329.451 68.3615 329.096L69.1875 329.572C69.0102 329.899 68.7815 330.179 68.5015 330.412C68.2308 330.645 67.9088 330.827 67.5355 330.958C67.1715 331.079 66.7608 331.14 66.3035 331.14Z" fill="#012137"/>
<path d="M17.938 90.726H12.534V93.834H16.762V94.8H12.534V99H11.498V89.76H17.938V90.726ZM19.1903 99V92H20.0443L20.1843 93.204C20.371 92.7653 20.6557 92.434 21.0383 92.21C21.421 91.9767 21.883 91.86 22.4243 91.86C22.555 91.86 22.695 91.874 22.8443 91.902C22.9937 91.9207 23.1197 91.958 23.2223 92.014L23.0263 92.966C22.9237 92.9193 22.8117 92.8867 22.6903 92.868C22.569 92.84 22.3963 92.826 22.1723 92.826C21.8643 92.826 21.561 92.9147 21.2623 93.092C20.9637 93.2693 20.7163 93.5353 20.5203 93.89C20.3243 94.2353 20.2263 94.6693 20.2263 95.192V99H19.1903ZM27.4891 99.14C26.8357 99.14 26.2477 98.9953 25.7251 98.706C25.2117 98.4167 24.8104 98.0013 24.5211 97.46C24.2317 96.9093 24.0871 96.256 24.0871 95.5C24.0871 94.744 24.2317 94.0953 24.5211 93.554C24.8104 93.0033 25.2071 92.5833 25.7111 92.294C26.2151 92.0047 26.7844 91.86 27.4191 91.86C28.0724 91.86 28.6277 92 29.0851 92.28C29.5424 92.56 29.8924 92.9427 30.1351 93.428C30.3777 93.9133 30.4991 94.4593 30.4991 95.066C30.4991 95.206 30.4944 95.3367 30.4851 95.458C30.4757 95.5793 30.4617 95.6867 30.4431 95.78H24.7591V94.87H29.9951L29.4631 94.968C29.4631 94.2773 29.2717 93.7407 28.8891 93.358C28.5157 92.966 28.0164 92.77 27.3911 92.77C26.9244 92.77 26.5184 92.8773 26.1731 93.092C25.8371 93.3067 25.5757 93.6193 25.3891 94.03C25.2024 94.4313 25.1091 94.9213 25.1091 95.5C25.1091 96.0693 25.2024 96.5593 25.3891 96.97C25.5851 97.3807 25.8557 97.6933 26.2011 97.908C26.5557 98.1227 26.9757 98.23 27.4611 98.23C27.9837 98.23 28.4131 98.132 28.7491 97.936C29.0851 97.7307 29.3511 97.4507 29.5471 97.096L30.3731 97.572C30.1957 97.8987 29.9671 98.1787 29.6871 98.412C29.4164 98.6453 29.0944 98.8273 28.7211 98.958C28.3571 99.0793 27.9464 99.14 27.4891 99.14ZM35.0945 99.14C34.4038 99.14 33.7738 98.9953 33.2045 98.706C32.6445 98.4167 32.2151 98.006 31.9165 97.474L32.7985 96.844C33.0038 97.2827 33.3071 97.6233 33.7085 97.866C34.1098 98.1087 34.5998 98.23 35.1785 98.23C35.6918 98.23 36.0931 98.132 36.3825 97.936C36.6811 97.7307 36.8305 97.4647 36.8305 97.138C36.8305 96.9233 36.7605 96.732 36.6205 96.564C36.4898 96.396 36.2378 96.27 35.8645 96.186L34.1845 95.836C33.5125 95.696 33.0271 95.4673 32.7285 95.15C32.4391 94.8233 32.2945 94.422 32.2945 93.946C32.2945 93.5633 32.4018 93.218 32.6165 92.91C32.8405 92.5927 33.1531 92.3407 33.5545 92.154C33.9651 91.958 34.4411 91.86 34.9825 91.86C35.6731 91.86 36.2565 91.9953 36.7325 92.266C37.2085 92.5367 37.5585 92.924 37.7825 93.428L36.9145 94.002C36.7558 93.5727 36.4945 93.26 36.1305 93.064C35.7758 92.868 35.3931 92.77 34.9825 92.77C34.6371 92.77 34.3385 92.8213 34.0865 92.924C33.8438 93.0173 33.6525 93.148 33.5125 93.316C33.3818 93.484 33.3165 93.68 33.3165 93.904C33.3165 94.1187 33.3911 94.3193 33.5405 94.506C33.6898 94.6833 33.9651 94.814 34.3665 94.898L36.1025 95.262C36.7558 95.3927 37.2131 95.6073 37.4745 95.906C37.7358 96.1953 37.8665 96.5547 37.8665 96.984C37.8665 97.4133 37.7498 97.796 37.5165 98.132C37.2925 98.4587 36.9705 98.7107 36.5505 98.888C36.1305 99.056 35.6451 99.14 35.0945 99.14ZM39.9306 99V88.78H40.9666V93.12C41.1999 92.6907 41.5219 92.3733 41.9326 92.168C42.3526 91.9627 42.8099 91.86 43.3046 91.86C43.8179 91.86 44.2752 91.958 44.6766 92.154C45.0872 92.3407 45.4139 92.63 45.6566 93.022C45.9086 93.414 46.0346 93.9087 46.0346 94.506V99H44.9986V94.87C44.9986 94.0953 44.8259 93.554 44.4806 93.246C44.1446 92.9287 43.7199 92.77 43.2066 92.77C42.8519 92.77 42.5019 92.854 42.1566 93.022C41.8112 93.19 41.5266 93.456 41.3026 93.82C41.0786 94.184 40.9666 94.66 40.9666 95.248V99H39.9306ZM54.7285 99L51.9705 89.76H53.0485L55.3865 98.048L57.6125 89.76H58.7885L61.0145 98.076L63.3525 89.76H64.3745L61.6305 99H60.3425L58.6625 92.91L58.1865 90.838H58.1725L57.6825 92.91L56.0165 99H54.7285ZM69.7227 94.464C69.7227 93.9227 69.578 93.5073 69.2887 93.218C68.9994 92.9193 68.5887 92.77 68.0567 92.77C67.562 92.77 67.142 92.8773 66.7967 93.092C66.4514 93.3067 66.1947 93.652 66.0267 94.128L65.1867 93.61C65.3827 93.078 65.728 92.6533 66.2227 92.336C66.7267 92.0187 67.3474 91.86 68.0847 91.86C68.5887 91.86 69.0414 91.9487 69.4427 92.126C69.8534 92.294 70.1754 92.5553 70.4087 92.91C70.642 93.2647 70.7587 93.7127 70.7587 94.254V97.67C70.7587 98.034 70.9454 98.216 71.3187 98.216C71.496 98.216 71.6687 98.1927 71.8367 98.146L71.7807 98.958C71.6034 99.0513 71.37 99.098 71.0807 99.098C70.8194 99.098 70.5814 99.0513 70.3667 98.958C70.1614 98.8553 69.998 98.7013 69.8767 98.496C69.7554 98.2813 69.6947 98.0153 69.6947 97.698V97.516L69.9607 97.544C69.858 97.9173 69.6667 98.2207 69.3867 98.454C69.116 98.6873 68.808 98.86 68.4627 98.972C68.1174 99.084 67.7767 99.14 67.4407 99.14C67.03 99.14 66.6474 99.07 66.2927 98.93C65.938 98.79 65.658 98.58 65.4527 98.3C65.2474 98.02 65.1447 97.67 65.1447 97.25C65.1447 96.7273 65.3174 96.298 65.6627 95.962C66.0174 95.626 66.5074 95.3973 67.1327 95.276L69.9327 94.73V95.584L67.6227 96.06C67.1467 96.1533 66.792 96.2887 66.5587 96.466C66.3254 96.6433 66.2087 96.886 66.2087 97.194C66.2087 97.5113 66.3254 97.7633 66.5587 97.95C66.8014 98.1367 67.1467 98.23 67.5947 98.23C67.8654 98.23 68.1267 98.1973 68.3787 98.132C68.6307 98.0573 68.8594 97.9453 69.0647 97.796C69.27 97.6467 69.4287 97.46 69.5407 97.236C69.662 97.012 69.7227 96.746 69.7227 96.438V94.464ZM74.7346 90.026V97.082C74.7346 97.446 74.8326 97.7213 75.0286 97.908C75.2339 98.0853 75.4999 98.174 75.8266 98.174C76.0972 98.174 76.3306 98.1273 76.5266 98.034C76.7226 97.9407 76.8999 97.8147 77.0586 97.656L77.4226 98.524C77.2172 98.7107 76.9699 98.86 76.6806 98.972C76.3912 99.084 76.0599 99.14 75.6866 99.14C75.3319 99.14 75.0006 99.0793 74.6926 98.958C74.3939 98.8273 74.1559 98.622 73.9786 98.342C73.8012 98.062 73.7079 97.7027 73.6986 97.264V90.306L74.7346 90.026ZM77.2966 92V92.896H72.2986V92H77.2966ZM81.8484 99.14C81.1951 99.14 80.6071 98.9953 80.0844 98.706C79.5711 98.4167 79.1698 98.0013 78.8804 97.46C78.5911 96.9093 78.4464 96.256 78.4464 95.5C78.4464 94.744 78.5911 94.0953 78.8804 93.554C79.1698 93.0033 79.5664 92.5833 80.0704 92.294C80.5744 92.0047 81.1438 91.86 81.7784 91.86C82.4318 91.86 82.9871 92 83.4444 92.28C83.9018 92.56 84.2518 92.9427 84.4944 93.428C84.7371 93.9133 84.8584 94.4593 84.8584 95.066C84.8584 95.206 84.8538 95.3367 84.8444 95.458C84.8351 95.5793 84.8211 95.6867 84.8024 95.78H79.1184V94.87H84.3544L83.8224 94.968C83.8224 94.2773 83.6311 93.7407 83.2484 93.358C82.8751 92.966 82.3758 92.77 81.7504 92.77C81.2838 92.77 80.8778 92.8773 80.5324 93.092C80.1964 93.3067 79.9351 93.6193 79.7484 94.03C79.5618 94.4313 79.4684 94.9213 79.4684 95.5C79.4684 96.0693 79.5618 96.5593 79.7484 96.97C79.9444 97.3807 80.2151 97.6933 80.5604 97.908C80.9151 98.1227 81.3351 98.23 81.8204 98.23C82.3431 98.23 82.7724 98.132 83.1084 97.936C83.4444 97.7307 83.7104 97.4507 83.9064 97.096L84.7324 97.572C84.5551 97.8987 84.3264 98.1787 84.0464 98.412C83.7758 98.6453 83.4538 98.8273 83.0804 98.958C82.7164 99.0793 82.3058 99.14 81.8484 99.14ZM86.9618 99V92H87.8158L87.9558 93.204C88.1425 92.7653 88.4272 92.434 88.8098 92.21C89.1925 91.9767 89.6545 91.86 90.1958 91.86C90.3265 91.86 90.4665 91.874 90.6158 91.902C90.7652 91.9207 90.8912 91.958 90.9938 92.014L90.7978 92.966C90.6952 92.9193 90.5832 92.8867 90.4618 92.868C90.3405 92.84 90.1678 92.826 89.9438 92.826C89.6358 92.826 89.3325 92.9147 89.0338 93.092C88.7352 93.2693 88.4878 93.5353 88.2918 93.89C88.0958 94.2353 87.9978 94.6693 87.9978 95.192V99H86.9618Z" fill="#012137"/>
<g clip-path="url(#clip5_2154_13017)">
<rect x="854" y="62" width="123" height="81" rx="10" fill="white"/>
<path d="M772.85 75.4444C767.567 69.5185 762.283 69.5185 757 75.4444L757 175.5L1074 175.5L1074 75.4444C1068.72 69.5185 1063.43 69.5185 1058.15 75.4444C1052.87 69.5185 1047.58 69.5185 1042.3 75.4444C1037.02 69.5185 1031.73 69.5185 1026.45 75.4444C1021.17 69.5185 1015.88 69.5185 1010.6 75.4444C1005.32 69.5185 1000.03 69.5185 994.75 75.4444C989.467 69.5185 984.183 69.5185 978.9 75.4444C973.617 69.5185 968.333 69.5185 963.05 75.4444C957.767 69.5185 952.483 69.5185 947.2 75.4444C941.917 69.5185 936.633 69.5185 931.35 75.4444C926.067 69.5185 920.783 69.5185 915.5 75.4444C910.217 69.5185 904.933 69.5185 899.65 75.4444C894.367 69.5185 889.084 69.5185 883.8 75.4444C878.517 69.5185 873.234 69.5185 867.95 75.4444C862.667 69.5185 857.383 69.5185 852.1 75.4444C846.817 69.5185 841.534 69.5185 836.25 75.4444C830.967 69.5185 825.684 69.5185 820.4 75.4444C815.117 69.5185 809.833 69.5185 804.55 75.4444C799.267 69.5185 793.983 69.5185 788.7 75.4444C783.417 69.5185 778.133 69.5185 772.85 75.4444Z" fill="#00D791"/>
<path d="M906.136 98.726H900.732V101.834H904.96V102.8H900.732V107H899.696V97.76H906.136V98.726ZM911.382 102.464C911.382 101.923 911.237 101.507 910.948 101.218C910.659 100.919 910.248 100.77 909.716 100.77C909.221 100.77 908.801 100.877 908.456 101.092C908.111 101.307 907.854 101.652 907.686 102.128L906.846 101.61C907.042 101.078 907.387 100.653 907.882 100.336C908.386 100.019 909.007 99.86 909.744 99.86C910.248 99.86 910.701 99.9487 911.102 100.126C911.513 100.294 911.835 100.555 912.068 100.91C912.301 101.265 912.418 101.713 912.418 102.254V105.67C912.418 106.034 912.605 106.216 912.978 106.216C913.155 106.216 913.328 106.193 913.496 106.146L913.44 106.958C913.263 107.051 913.029 107.098 912.74 107.098C912.479 107.098 912.241 107.051 912.026 106.958C911.821 106.855 911.657 106.701 911.536 106.496C911.415 106.281 911.354 106.015 911.354 105.698V105.516L911.62 105.544C911.517 105.917 911.326 106.221 911.046 106.454C910.775 106.687 910.467 106.86 910.122 106.972C909.777 107.084 909.436 107.14 909.1 107.14C908.689 107.14 908.307 107.07 907.952 106.93C907.597 106.79 907.317 106.58 907.112 106.3C906.907 106.02 906.804 105.67 906.804 105.25C906.804 104.727 906.977 104.298 907.322 103.962C907.677 103.626 908.167 103.397 908.792 103.276L911.592 102.73V103.584L909.282 104.06C908.806 104.153 908.451 104.289 908.218 104.466C907.985 104.643 907.868 104.886 907.868 105.194C907.868 105.511 907.985 105.763 908.218 105.95C908.461 106.137 908.806 106.23 909.254 106.23C909.525 106.23 909.786 106.197 910.038 106.132C910.29 106.057 910.519 105.945 910.724 105.796C910.929 105.647 911.088 105.46 911.2 105.236C911.321 105.012 911.382 104.746 911.382 104.438V102.464ZM915.1 107V100H915.954L916.094 101.204C916.28 100.765 916.565 100.434 916.948 100.21C917.33 99.9767 917.792 99.86 918.334 99.86C918.464 99.86 918.604 99.874 918.754 99.902C918.903 99.9207 919.029 99.958 919.132 100.014L918.936 100.966C918.833 100.919 918.721 100.887 918.6 100.868C918.478 100.84 918.306 100.826 918.082 100.826C917.774 100.826 917.47 100.915 917.172 101.092C916.873 101.269 916.626 101.535 916.43 101.89C916.234 102.235 916.136 102.669 916.136 103.192V107H915.1ZM920.732 107V100H921.642L921.712 101.162C921.955 100.723 922.282 100.397 922.692 100.182C923.112 99.9673 923.551 99.86 924.008 99.86C924.531 99.86 925.012 99.9813 925.45 100.224C925.889 100.457 926.216 100.817 926.43 101.302C926.58 100.975 926.79 100.709 927.06 100.504C927.331 100.289 927.63 100.131 927.956 100.028C928.292 99.916 928.614 99.86 928.922 99.86C929.38 99.86 929.809 99.9533 930.21 100.14C930.612 100.327 930.938 100.616 931.19 101.008C931.452 101.4 931.582 101.899 931.582 102.506V107H930.546V102.604C930.546 101.96 930.383 101.493 930.056 101.204C929.73 100.915 929.319 100.77 928.824 100.77C928.442 100.77 928.087 100.863 927.76 101.05C927.434 101.227 927.172 101.493 926.976 101.848C926.78 102.193 926.682 102.618 926.682 103.122V107H925.646V102.618C925.646 101.965 925.478 101.493 925.142 101.204C924.816 100.915 924.41 100.77 923.924 100.77C923.588 100.77 923.252 100.859 922.916 101.036C922.59 101.204 922.314 101.47 922.09 101.834C921.876 102.189 921.768 102.651 921.768 103.22V107H920.732Z" fill="#012137"/>
</g>
<g clip-path="url(#clip6_2154_13017)">
<rect x="854" y="153" width="123" height="81" rx="10" fill="white"/>
<path d="M772.85 166.444C767.567 160.519 762.283 160.519 757 166.444L757 266.5L1074 266.5L1074 166.444C1068.72 160.518 1063.43 160.518 1058.15 166.444C1052.87 160.518 1047.58 160.518 1042.3 166.444C1037.02 160.518 1031.73 160.518 1026.45 166.444C1021.17 160.518 1015.88 160.518 1010.6 166.444C1005.32 160.518 1000.03 160.518 994.75 166.444C989.467 160.518 984.183 160.518 978.9 166.444C973.617 160.518 968.333 160.518 963.05 166.444C957.767 160.518 952.483 160.518 947.2 166.444C941.917 160.518 936.633 160.518 931.35 166.444C926.067 160.518 920.783 160.518 915.5 166.444C910.217 160.518 904.933 160.518 899.65 166.444C894.367 160.518 889.084 160.518 883.8 166.444C878.517 160.518 873.234 160.518 867.95 166.444C862.667 160.518 857.383 160.519 852.1 166.444C846.817 160.519 841.534 160.519 836.25 166.444C830.967 160.519 825.684 160.519 820.4 166.444C815.117 160.519 809.833 160.519 804.55 166.444C799.267 160.519 793.983 160.519 788.7 166.444C783.417 160.519 778.133 160.519 772.85 166.444Z" fill="#00D791"/>
<path d="M906.136 189.726H900.732V192.834H904.96V193.8H900.732V198H899.696V188.76H906.136V189.726ZM911.382 193.464C911.382 192.923 911.237 192.507 910.948 192.218C910.659 191.919 910.248 191.77 909.716 191.77C909.221 191.77 908.801 191.877 908.456 192.092C908.111 192.307 907.854 192.652 907.686 193.128L906.846 192.61C907.042 192.078 907.387 191.653 907.882 191.336C908.386 191.019 909.007 190.86 909.744 190.86C910.248 190.86 910.701 190.949 911.102 191.126C911.513 191.294 911.835 191.555 912.068 191.91C912.301 192.265 912.418 192.713 912.418 193.254V196.67C912.418 197.034 912.605 197.216 912.978 197.216C913.155 197.216 913.328 197.193 913.496 197.146L913.44 197.958C913.263 198.051 913.029 198.098 912.74 198.098C912.479 198.098 912.241 198.051 912.026 197.958C911.821 197.855 911.657 197.701 911.536 197.496C911.415 197.281 911.354 197.015 911.354 196.698V196.516L911.62 196.544C911.517 196.917 911.326 197.221 911.046 197.454C910.775 197.687 910.467 197.86 910.122 197.972C909.777 198.084 909.436 198.14 909.1 198.14C908.689 198.14 908.307 198.07 907.952 197.93C907.597 197.79 907.317 197.58 907.112 197.3C906.907 197.02 906.804 196.67 906.804 196.25C906.804 195.727 906.977 195.298 907.322 194.962C907.677 194.626 908.167 194.397 908.792 194.276L911.592 193.73V194.584L909.282 195.06C908.806 195.153 908.451 195.289 908.218 195.466C907.985 195.643 907.868 195.886 907.868 196.194C907.868 196.511 907.985 196.763 908.218 196.95C908.461 197.137 908.806 197.23 909.254 197.23C909.525 197.23 909.786 197.197 910.038 197.132C910.29 197.057 910.519 196.945 910.724 196.796C910.929 196.647 911.088 196.46 911.2 196.236C911.321 196.012 911.382 195.746 911.382 195.438V193.464ZM915.1 198V191H915.954L916.094 192.204C916.28 191.765 916.565 191.434 916.948 191.21C917.33 190.977 917.792 190.86 918.334 190.86C918.464 190.86 918.604 190.874 918.754 190.902C918.903 190.921 919.029 190.958 919.132 191.014L918.936 191.966C918.833 191.919 918.721 191.887 918.6 191.868C918.478 191.84 918.306 191.826 918.082 191.826C917.774 191.826 917.47 191.915 917.172 192.092C916.873 192.269 916.626 192.535 916.43 192.89C916.234 193.235 916.136 193.669 916.136 194.192V198H915.1ZM920.732 198V191H921.642L921.712 192.162C921.955 191.723 922.282 191.397 922.692 191.182C923.112 190.967 923.551 190.86 924.008 190.86C924.531 190.86 925.012 190.981 925.45 191.224C925.889 191.457 926.216 191.817 926.43 192.302C926.58 191.975 926.79 191.709 927.06 191.504C927.331 191.289 927.63 191.131 927.956 191.028C928.292 190.916 928.614 190.86 928.922 190.86C929.38 190.86 929.809 190.953 930.21 191.14C930.612 191.327 930.938 191.616 931.19 192.008C931.452 192.4 931.582 192.899 931.582 193.506V198H930.546V193.604C930.546 192.96 930.383 192.493 930.056 192.204C929.73 191.915 929.319 191.77 928.824 191.77C928.442 191.77 928.087 191.863 927.76 192.05C927.434 192.227 927.172 192.493 926.976 192.848C926.78 193.193 926.682 193.618 926.682 194.122V198H925.646V193.618C925.646 192.965 925.478 192.493 925.142 192.204C924.816 191.915 924.41 191.77 923.924 191.77C923.588 191.77 923.252 191.859 922.916 192.036C922.59 192.204 922.314 192.47 922.09 192.834C921.876 193.189 921.768 193.651 921.768 194.22V198H920.732Z" fill="#012137"/>
</g>
<g clip-path="url(#clip7_2154_13017)">
<rect x="854" y="245" width="123" height="81" rx="10" fill="white"/>
<path d="M772.85 258.444C767.567 252.519 762.283 252.519 757 258.444L757 358.5L1074 358.5L1074 258.444C1068.72 252.518 1063.43 252.518 1058.15 258.444C1052.87 252.518 1047.58 252.518 1042.3 258.444C1037.02 252.518 1031.73 252.518 1026.45 258.444C1021.17 252.518 1015.88 252.518 1010.6 258.444C1005.32 252.518 1000.03 252.518 994.75 258.444C989.467 252.518 984.183 252.518 978.9 258.444C973.617 252.518 968.333 252.518 963.05 258.444C957.767 252.518 952.483 252.518 947.2 258.444C941.917 252.518 936.633 252.518 931.35 258.444C926.067 252.518 920.783 252.518 915.5 258.444C910.217 252.518 904.933 252.518 899.65 258.444C894.367 252.518 889.084 252.518 883.8 258.444C878.517 252.518 873.234 252.518 867.95 258.444C862.667 252.518 857.383 252.519 852.1 258.444C846.817 252.519 841.534 252.519 836.25 258.444C830.967 252.519 825.684 252.519 820.4 258.444C815.117 252.519 809.833 252.519 804.55 258.444C799.267 252.519 793.983 252.519 788.7 258.444C783.417 252.519 778.133 252.519 772.85 258.444Z" fill="#00D791"/>
<path d="M906.136 281.726H900.732V284.834H904.96V285.8H900.732V290H899.696V280.76H906.136V281.726ZM911.382 285.464C911.382 284.923 911.237 284.507 910.948 284.218C910.659 283.919 910.248 283.77 909.716 283.77C909.221 283.77 908.801 283.877 908.456 284.092C908.111 284.307 907.854 284.652 907.686 285.128L906.846 284.61C907.042 284.078 907.387 283.653 907.882 283.336C908.386 283.019 909.007 282.86 909.744 282.86C910.248 282.86 910.701 282.949 911.102 283.126C911.513 283.294 911.835 283.555 912.068 283.91C912.301 284.265 912.418 284.713 912.418 285.254V288.67C912.418 289.034 912.605 289.216 912.978 289.216C913.155 289.216 913.328 289.193 913.496 289.146L913.44 289.958C913.263 290.051 913.029 290.098 912.74 290.098C912.479 290.098 912.241 290.051 912.026 289.958C911.821 289.855 911.657 289.701 911.536 289.496C911.415 289.281 911.354 289.015 911.354 288.698V288.516L911.62 288.544C911.517 288.917 911.326 289.221 911.046 289.454C910.775 289.687 910.467 289.86 910.122 289.972C909.777 290.084 909.436 290.14 909.1 290.14C908.689 290.14 908.307 290.07 907.952 289.93C907.597 289.79 907.317 289.58 907.112 289.3C906.907 289.02 906.804 288.67 906.804 288.25C906.804 287.727 906.977 287.298 907.322 286.962C907.677 286.626 908.167 286.397 908.792 286.276L911.592 285.73V286.584L909.282 287.06C908.806 287.153 908.451 287.289 908.218 287.466C907.985 287.643 907.868 287.886 907.868 288.194C907.868 288.511 907.985 288.763 908.218 288.95C908.461 289.137 908.806 289.23 909.254 289.23C909.525 289.23 909.786 289.197 910.038 289.132C910.29 289.057 910.519 288.945 910.724 288.796C910.929 288.647 911.088 288.46 911.2 288.236C911.321 288.012 911.382 287.746 911.382 287.438V285.464ZM915.1 290V283H915.954L916.094 284.204C916.28 283.765 916.565 283.434 916.948 283.21C917.33 282.977 917.792 282.86 918.334 282.86C918.464 282.86 918.604 282.874 918.754 282.902C918.903 282.921 919.029 282.958 919.132 283.014L918.936 283.966C918.833 283.919 918.721 283.887 918.6 283.868C918.478 283.84 918.306 283.826 918.082 283.826C917.774 283.826 917.47 283.915 917.172 284.092C916.873 284.269 916.626 284.535 916.43 284.89C916.234 285.235 916.136 285.669 916.136 286.192V290H915.1ZM920.732 290V283H921.642L921.712 284.162C921.955 283.723 922.282 283.397 922.692 283.182C923.112 282.967 923.551 282.86 924.008 282.86C924.531 282.86 925.012 282.981 925.45 283.224C925.889 283.457 926.216 283.817 926.43 284.302C926.58 283.975 926.79 283.709 927.06 283.504C927.331 283.289 927.63 283.131 927.956 283.028C928.292 282.916 928.614 282.86 928.922 282.86C929.38 282.86 929.809 282.953 930.21 283.14C930.612 283.327 930.938 283.616 931.19 284.008C931.452 284.4 931.582 284.899 931.582 285.506V290H930.546V285.604C930.546 284.96 930.383 284.493 930.056 284.204C929.73 283.915 929.319 283.77 928.824 283.77C928.442 283.77 928.087 283.863 927.76 284.05C927.434 284.227 927.172 284.493 926.976 284.848C926.78 285.193 926.682 285.618 926.682 286.122V290H925.646V285.618C925.646 284.965 925.478 284.493 925.142 284.204C924.816 283.915 924.41 283.77 923.924 283.77C923.588 283.77 923.252 283.859 922.916 284.036C922.59 284.204 922.314 284.47 922.09 284.834C921.876 285.189 921.768 285.651 921.768 286.22V290H920.732Z" fill="#012137"/>
</g>
<rect x="212" y="273" width="123" height="54" rx="10" fill="#1FA4F1"/>
<rect x="313" y="268" width="12" height="62" rx="6" fill="#1FA4F1"/>
<path d="M134 346H0" stroke="white" stroke-width="4"/>
<path d="M134 114H0" stroke="white" stroke-width="4"/>
<g clip-path="url(#clip8_2154_13017)">
<rect x="427" y="62" width="264" height="264" rx="10" fill="#1FA4F1"/>
<path d="M697.546 70.6667C702.697 76.4444 707.849 76.4444 713 70.6667L713 36L403.925 36L403.925 70.6666C409.076 76.4444 414.227 76.4444 419.379 70.6666C424.53 76.4444 429.681 76.4444 434.832 70.6666C439.984 76.4444 445.135 76.4444 450.286 70.6666C455.437 76.4444 460.589 76.4444 465.74 70.6666C470.891 76.4444 476.042 76.4444 481.194 70.6666C486.345 76.4444 491.496 76.4444 496.647 70.6666C501.799 76.4444 506.95 76.4444 512.101 70.6666C517.252 76.4444 522.404 76.4444 527.555 70.6667C532.706 76.4444 537.857 76.4444 543.009 70.6667C548.16 76.4444 553.311 76.4444 558.462 70.6667C563.614 76.4444 568.765 76.4444 573.916 70.6667C579.067 76.4444 584.219 76.4444 589.37 70.6667C594.521 76.4444 599.672 76.4444 604.824 70.6667C609.975 76.4444 615.126 76.4444 620.277 70.6667C625.429 76.4444 630.58 76.4444 635.731 70.6667C640.882 76.4444 646.034 76.4444 651.185 70.6667C656.336 76.4444 661.487 76.4444 666.639 70.6667C671.79 76.4444 676.941 76.4444 682.092 70.6667C687.244 76.4444 692.395 76.4444 697.546 70.6667Z" fill="white"/>
<path d="M538.11 177.76V187H536.822L532.762 180.602L531.838 178.978H531.824L531.88 180.322V187H530.886V177.76H532.174L536.234 184.13L537.172 185.796L537.13 184.438V177.76H538.11ZM543.327 187.14C542.869 187.14 542.445 187.056 542.053 186.888C541.661 186.72 541.343 186.449 541.101 186.076C540.858 185.693 540.737 185.199 540.737 184.592V180H541.773V184.326C541.773 185.045 541.931 185.544 542.249 185.824C542.566 186.095 543.014 186.23 543.593 186.23C543.873 186.23 544.143 186.183 544.405 186.09C544.666 185.987 544.899 185.838 545.105 185.642C545.31 185.446 545.469 185.199 545.581 184.9C545.702 184.592 545.763 184.242 545.763 183.85V180H546.799V187H545.889L545.819 185.866C545.585 186.295 545.254 186.617 544.825 186.832C544.405 187.037 543.905 187.14 543.327 187.14ZM550.933 178.026V185.082C550.933 185.446 551.031 185.721 551.227 185.908C551.432 186.085 551.698 186.174 552.025 186.174C552.295 186.174 552.529 186.127 552.725 186.034C552.921 185.941 553.098 185.815 553.257 185.656L553.621 186.524C553.415 186.711 553.168 186.86 552.879 186.972C552.589 187.084 552.258 187.14 551.885 187.14C551.53 187.14 551.199 187.079 550.891 186.958C550.592 186.827 550.354 186.622 550.177 186.342C549.999 186.062 549.906 185.703 549.897 185.264V178.306L550.933 178.026ZM553.495 180V180.896H548.497V180H553.495ZM555.135 187V180H555.989L556.129 181.204C556.315 180.765 556.6 180.434 556.983 180.21C557.365 179.977 557.827 179.86 558.369 179.86C558.499 179.86 558.639 179.874 558.789 179.902C558.938 179.921 559.064 179.958 559.167 180.014L558.971 180.966C558.868 180.919 558.756 180.887 558.635 180.868C558.513 180.84 558.341 180.826 558.117 180.826C557.809 180.826 557.505 180.915 557.207 181.092C556.908 181.269 556.661 181.535 556.465 181.89C556.269 182.235 556.171 182.669 556.171 183.192V187H555.135ZM561.285 178.656C561.052 178.656 560.861 178.586 560.711 178.446C560.571 178.297 560.501 178.101 560.501 177.858C560.501 177.625 560.571 177.438 560.711 177.298C560.861 177.149 561.052 177.074 561.285 177.074C561.528 177.074 561.719 177.149 561.859 177.298C562.009 177.438 562.083 177.625 562.083 177.858C562.083 178.101 562.009 178.297 561.859 178.446C561.719 178.586 561.528 178.656 561.285 178.656ZM561.803 180V187H560.767V180H561.803ZM567.303 187.14C566.649 187.14 566.061 186.995 565.539 186.706C565.025 186.417 564.624 186.001 564.335 185.46C564.045 184.909 563.901 184.256 563.901 183.5C563.901 182.744 564.045 182.095 564.335 181.554C564.624 181.003 565.021 180.583 565.525 180.294C566.029 180.005 566.598 179.86 567.233 179.86C567.886 179.86 568.441 180 568.899 180.28C569.356 180.56 569.706 180.943 569.949 181.428C570.191 181.913 570.313 182.459 570.313 183.066C570.313 183.206 570.308 183.337 570.299 183.458C570.289 183.579 570.275 183.687 570.257 183.78H564.573V182.87H569.809L569.277 182.968C569.277 182.277 569.085 181.741 568.703 181.358C568.329 180.966 567.83 180.77 567.205 180.77C566.738 180.77 566.332 180.877 565.987 181.092C565.651 181.307 565.389 181.619 565.203 182.03C565.016 182.431 564.923 182.921 564.923 183.5C564.923 184.069 565.016 184.559 565.203 184.97C565.399 185.381 565.669 185.693 566.015 185.908C566.369 186.123 566.789 186.23 567.275 186.23C567.797 186.23 568.227 186.132 568.563 185.936C568.899 185.731 569.165 185.451 569.361 185.096L570.187 185.572C570.009 185.899 569.781 186.179 569.501 186.412C569.23 186.645 568.908 186.827 568.535 186.958C568.171 187.079 567.76 187.14 567.303 187.14ZM572.416 187V180H573.326L573.424 181.61L573.256 181.456C573.396 181.083 573.592 180.779 573.844 180.546C574.105 180.303 574.404 180.131 574.74 180.028C575.076 179.916 575.426 179.86 575.79 179.86C576.303 179.86 576.761 179.958 577.162 180.154C577.573 180.341 577.899 180.63 578.142 181.022C578.394 181.414 578.52 181.909 578.52 182.506V187H577.484V182.87C577.484 182.095 577.311 181.554 576.966 181.246C576.63 180.929 576.205 180.77 575.692 180.77C575.337 180.77 574.987 180.854 574.642 181.022C574.297 181.19 574.012 181.456 573.788 181.82C573.564 182.175 573.452 182.646 573.452 183.234V187H572.416ZM582.474 178.026V185.082C582.474 185.446 582.572 185.721 582.768 185.908C582.973 186.085 583.239 186.174 583.566 186.174C583.837 186.174 584.07 186.127 584.266 186.034C584.462 185.941 584.639 185.815 584.798 185.656L585.162 186.524C584.957 186.711 584.709 186.86 584.42 186.972C584.131 187.084 583.799 187.14 583.426 187.14C583.071 187.14 582.74 187.079 582.432 186.958C582.133 186.827 581.895 186.622 581.718 186.342C581.541 186.062 581.447 185.703 581.438 185.264V178.306L582.474 178.026ZM585.036 180V180.896H580.038V180H585.036ZM519.01 208.14C518.32 208.14 517.69 207.995 517.12 207.706C516.56 207.417 516.131 207.006 515.832 206.474L516.714 205.844C516.92 206.283 517.223 206.623 517.624 206.866C518.026 207.109 518.516 207.23 519.094 207.23C519.608 207.23 520.009 207.132 520.298 206.936C520.597 206.731 520.746 206.465 520.746 206.138C520.746 205.923 520.676 205.732 520.536 205.564C520.406 205.396 520.154 205.27 519.78 205.186L518.1 204.836C517.428 204.696 516.943 204.467 516.644 204.15C516.355 203.823 516.21 203.422 516.21 202.946C516.21 202.563 516.318 202.218 516.532 201.91C516.756 201.593 517.069 201.341 517.47 201.154C517.881 200.958 518.357 200.86 518.898 200.86C519.589 200.86 520.172 200.995 520.648 201.266C521.124 201.537 521.474 201.924 521.698 202.428L520.83 203.002C520.672 202.573 520.41 202.26 520.046 202.064C519.692 201.868 519.309 201.77 518.898 201.77C518.553 201.77 518.254 201.821 518.002 201.924C517.76 202.017 517.568 202.148 517.428 202.316C517.298 202.484 517.232 202.68 517.232 202.904C517.232 203.119 517.307 203.319 517.456 203.506C517.606 203.683 517.881 203.814 518.282 203.898L520.018 204.262C520.672 204.393 521.129 204.607 521.39 204.906C521.652 205.195 521.782 205.555 521.782 205.984C521.782 206.413 521.666 206.796 521.432 207.132C521.208 207.459 520.886 207.711 520.466 207.888C520.046 208.056 519.561 208.14 519.01 208.14ZM526.745 200.86C527.398 200.86 527.977 201.005 528.481 201.294C528.994 201.583 529.395 202.003 529.685 202.554C529.974 203.095 530.119 203.744 530.119 204.5C530.119 205.256 529.974 205.909 529.685 206.46C529.395 207.001 528.994 207.417 528.481 207.706C527.977 207.995 527.398 208.14 526.745 208.14C526.091 208.14 525.508 207.995 524.995 207.706C524.481 207.417 524.08 207.001 523.791 206.46C523.501 205.909 523.357 205.256 523.357 204.5C523.357 203.744 523.501 203.095 523.791 202.554C524.08 202.003 524.481 201.583 524.995 201.294C525.508 201.005 526.091 200.86 526.745 200.86ZM526.745 201.756C526.25 201.756 525.83 201.868 525.485 202.092C525.139 202.307 524.869 202.619 524.673 203.03C524.486 203.431 524.393 203.921 524.393 204.5C524.393 205.069 524.486 205.559 524.673 205.97C524.869 206.381 525.139 206.698 525.485 206.922C525.83 207.137 526.25 207.244 526.745 207.244C527.23 207.244 527.645 207.137 527.991 206.922C528.336 206.698 528.602 206.381 528.789 205.97C528.985 205.559 529.083 205.069 529.083 204.5C529.083 203.921 528.985 203.431 528.789 203.03C528.602 202.619 528.336 202.307 527.991 202.092C527.645 201.868 527.23 201.756 526.745 201.756ZM533.264 197.78V208H532.228V197.78H533.264ZM538.398 208.14C537.941 208.14 537.516 208.056 537.124 207.888C536.732 207.72 536.415 207.449 536.172 207.076C535.929 206.693 535.808 206.199 535.808 205.592V201H536.844V205.326C536.844 206.045 537.003 206.544 537.32 206.824C537.637 207.095 538.085 207.23 538.664 207.23C538.944 207.23 539.215 207.183 539.476 207.09C539.737 206.987 539.971 206.838 540.176 206.642C540.381 206.446 540.54 206.199 540.652 205.9C540.773 205.592 540.834 205.242 540.834 204.85V201H541.87V208H540.96L540.89 206.866C540.657 207.295 540.325 207.617 539.896 207.832C539.476 208.037 538.977 208.14 538.398 208.14ZM546.004 199.026V206.082C546.004 206.446 546.102 206.721 546.298 206.908C546.503 207.085 546.769 207.174 547.096 207.174C547.367 207.174 547.6 207.127 547.796 207.034C547.992 206.941 548.169 206.815 548.328 206.656L548.692 207.524C548.487 207.711 548.239 207.86 547.95 207.972C547.661 208.084 547.329 208.14 546.956 208.14C546.601 208.14 546.27 208.079 545.962 207.958C545.663 207.827 545.425 207.622 545.248 207.342C545.071 207.062 544.977 206.703 544.968 206.264V199.306L546.004 199.026ZM548.566 201V201.896H543.568V201H548.566ZM550.724 199.656C550.491 199.656 550.299 199.586 550.15 199.446C550.01 199.297 549.94 199.101 549.94 198.858C549.94 198.625 550.01 198.438 550.15 198.298C550.299 198.149 550.491 198.074 550.724 198.074C550.967 198.074 551.158 198.149 551.298 198.298C551.447 198.438 551.522 198.625 551.522 198.858C551.522 199.101 551.447 199.297 551.298 199.446C551.158 199.586 550.967 199.656 550.724 199.656ZM551.242 201V208H550.206V201H551.242ZM556.727 200.86C557.38 200.86 557.959 201.005 558.463 201.294C558.976 201.583 559.378 202.003 559.667 202.554C559.956 203.095 560.101 203.744 560.101 204.5C560.101 205.256 559.956 205.909 559.667 206.46C559.378 207.001 558.976 207.417 558.463 207.706C557.959 207.995 557.38 208.14 556.727 208.14C556.074 208.14 555.49 207.995 554.977 207.706C554.464 207.417 554.062 207.001 553.773 206.46C553.484 205.909 553.339 205.256 553.339 204.5C553.339 203.744 553.484 203.095 553.773 202.554C554.062 202.003 554.464 201.583 554.977 201.294C555.49 201.005 556.074 200.86 556.727 200.86ZM556.727 201.756C556.232 201.756 555.812 201.868 555.467 202.092C555.122 202.307 554.851 202.619 554.655 203.03C554.468 203.431 554.375 203.921 554.375 204.5C554.375 205.069 554.468 205.559 554.655 205.97C554.851 206.381 555.122 206.698 555.467 206.922C555.812 207.137 556.232 207.244 556.727 207.244C557.212 207.244 557.628 207.137 557.973 206.922C558.318 206.698 558.584 206.381 558.771 205.97C558.967 205.559 559.065 205.069 559.065 204.5C559.065 203.921 558.967 203.431 558.771 203.03C558.584 202.619 558.318 202.307 557.973 202.092C557.628 201.868 557.212 201.756 556.727 201.756ZM562.183 208V201H563.093L563.191 202.61L563.023 202.456C563.163 202.083 563.359 201.779 563.611 201.546C563.872 201.303 564.171 201.131 564.507 201.028C564.843 200.916 565.193 200.86 565.557 200.86C566.07 200.86 566.527 200.958 566.929 201.154C567.339 201.341 567.666 201.63 567.909 202.022C568.161 202.414 568.287 202.909 568.287 203.506V208H567.251V203.87C567.251 203.095 567.078 202.554 566.733 202.246C566.397 201.929 565.972 201.77 565.459 201.77C565.104 201.77 564.754 201.854 564.409 202.022C564.063 202.19 563.779 202.456 563.555 202.82C563.331 203.175 563.219 203.646 563.219 204.234V208H562.183ZM576.574 199.026V206.082C576.574 206.446 576.672 206.721 576.868 206.908C577.074 207.085 577.34 207.174 577.666 207.174C577.937 207.174 578.17 207.127 578.366 207.034C578.562 206.941 578.74 206.815 578.898 206.656L579.262 207.524C579.057 207.711 578.81 207.86 578.52 207.972C578.231 208.084 577.9 208.14 577.526 208.14C577.172 208.14 576.84 208.079 576.532 207.958C576.234 207.827 575.996 207.622 575.818 207.342C575.641 207.062 575.548 206.703 575.538 206.264V199.306L576.574 199.026ZM579.136 201V201.896H574.138V201H579.136ZM584.906 203.464C584.906 202.923 584.762 202.507 584.472 202.218C584.183 201.919 583.772 201.77 583.24 201.77C582.746 201.77 582.326 201.877 581.98 202.092C581.635 202.307 581.378 202.652 581.21 203.128L580.37 202.61C580.566 202.078 580.912 201.653 581.406 201.336C581.91 201.019 582.531 200.86 583.268 200.86C583.772 200.86 584.225 200.949 584.626 201.126C585.037 201.294 585.359 201.555 585.592 201.91C585.826 202.265 585.942 202.713 585.942 203.254V206.67C585.942 207.034 586.129 207.216 586.502 207.216C586.68 207.216 586.852 207.193 587.02 207.146L586.964 207.958C586.787 208.051 586.554 208.098 586.264 208.098C586.003 208.098 585.765 208.051 585.55 207.958C585.345 207.855 585.182 207.701 585.06 207.496C584.939 207.281 584.878 207.015 584.878 206.698V206.516L585.144 206.544C585.042 206.917 584.85 207.221 584.57 207.454C584.3 207.687 583.992 207.86 583.646 207.972C583.301 208.084 582.96 208.14 582.624 208.14C582.214 208.14 581.831 208.07 581.476 207.93C581.122 207.79 580.842 207.58 580.636 207.3C580.431 207.02 580.328 206.67 580.328 206.25C580.328 205.727 580.501 205.298 580.846 204.962C581.201 204.626 581.691 204.397 582.316 204.276L585.116 203.73V204.584L582.806 205.06C582.33 205.153 581.976 205.289 581.742 205.466C581.509 205.643 581.392 205.886 581.392 206.194C581.392 206.511 581.509 206.763 581.742 206.95C581.985 207.137 582.33 207.23 582.778 207.23C583.049 207.23 583.31 207.197 583.562 207.132C583.814 207.057 584.043 206.945 584.248 206.796C584.454 206.647 584.612 206.46 584.724 206.236C584.846 206.012 584.906 205.746 584.906 205.438V203.464ZM588.624 208V201H589.534L589.632 202.61L589.464 202.456C589.604 202.083 589.8 201.779 590.052 201.546C590.313 201.303 590.612 201.131 590.948 201.028C591.284 200.916 591.634 200.86 591.998 200.86C592.511 200.86 592.969 200.958 593.37 201.154C593.781 201.341 594.107 201.63 594.35 202.022C594.602 202.414 594.728 202.909 594.728 203.506V208H593.692V203.87C593.692 203.095 593.519 202.554 593.174 202.246C592.838 201.929 592.413 201.77 591.9 201.77C591.545 201.77 591.195 201.854 590.85 202.022C590.505 202.19 590.22 202.456 589.996 202.82C589.772 203.175 589.66 203.646 589.66 204.234V208H588.624ZM603.313 201L600.275 204.01L600.023 204.262L597.755 206.516V205.214L601.997 201H603.313ZM598.273 197.78V208H597.237V197.78H598.273ZM600.359 203.478L603.467 208H602.207L599.491 204.066L600.359 203.478Z" fill="#012137"/>
</g>
<path d="M215.219 206H214.127L213.105 203.368H208.877L207.855 206H206.777L210.389 196.76H211.621L215.219 206ZM209.255 202.402H212.727L210.991 197.754L209.255 202.402Z" fill="#012137"/>
<path d="M249.952 206V196.76H253.242C254.315 196.76 255.104 196.989 255.608 197.446C256.112 197.894 256.364 198.51 256.364 199.294C256.364 199.77 256.224 200.199 255.944 200.582C255.673 200.955 255.286 201.193 254.782 201.296V201.31C255.342 201.413 255.785 201.665 256.112 202.066C256.439 202.458 256.602 202.911 256.602 203.424C256.602 204.208 256.308 204.833 255.72 205.3C255.141 205.767 254.311 206 253.228 206H249.952ZM250.988 205.034H253.466C254.157 205.034 254.67 204.894 255.006 204.614C255.342 204.334 255.51 203.937 255.51 203.424C255.51 202.911 255.342 202.519 255.006 202.248C254.67 201.968 254.157 201.828 253.466 201.828H250.988V205.034ZM250.988 200.862H253.256C254.6 200.862 255.272 200.339 255.272 199.294C255.272 198.249 254.6 197.726 253.256 197.726H250.988V200.862Z" fill="#012137"/>
<path d="M299.14 203.634C298.953 204.157 298.678 204.609 298.314 204.992C297.95 205.365 297.52 205.65 297.026 205.846C296.54 206.042 296.008 206.14 295.43 206.14C294.552 206.14 293.796 205.949 293.162 205.566C292.527 205.174 292.032 204.623 291.678 203.914C291.332 203.205 291.16 202.36 291.16 201.38C291.16 200.4 291.332 199.555 291.678 198.846C292.032 198.137 292.527 197.591 293.162 197.208C293.796 196.816 294.543 196.62 295.402 196.62C295.999 196.62 296.531 196.704 296.998 196.872C297.474 197.031 297.875 197.273 298.202 197.6C298.528 197.927 298.79 198.328 298.986 198.804L297.964 199.28C297.758 198.729 297.45 198.309 297.04 198.02C296.638 197.731 296.116 197.586 295.472 197.586C294.837 197.586 294.277 197.74 293.792 198.048C293.306 198.347 292.928 198.776 292.658 199.336C292.387 199.896 292.252 200.577 292.252 201.38C292.252 202.173 292.378 202.855 292.63 203.424C292.891 203.984 293.26 204.418 293.736 204.726C294.212 205.025 294.776 205.174 295.43 205.174C296.064 205.174 296.615 205.015 297.082 204.698C297.558 204.371 297.898 203.891 298.104 203.256L299.14 203.634Z" fill="#012137"/>
<path d="M331.375 208.94V199H332.285L332.383 200.75L332.229 200.582C332.35 200.237 332.532 199.938 332.775 199.686C333.027 199.425 333.326 199.224 333.671 199.084C334.026 198.935 334.408 198.86 334.819 198.86C335.398 198.86 335.925 199.005 336.401 199.294C336.877 199.583 337.26 199.999 337.549 200.54C337.838 201.081 337.983 201.735 337.983 202.5C337.983 203.256 337.838 203.909 337.549 204.46C337.26 205.001 336.872 205.417 336.387 205.706C335.902 205.995 335.365 206.14 334.777 206.14C334.189 206.14 333.671 205.995 333.223 205.706C332.784 205.407 332.472 205.025 332.285 204.558L332.411 204.362V208.94H331.375ZM334.679 205.23C335.388 205.23 335.944 204.983 336.345 204.488C336.746 203.993 336.947 203.331 336.947 202.5C336.947 201.669 336.751 201.007 336.359 200.512C335.967 200.017 335.416 199.77 334.707 199.77C334.25 199.77 333.848 199.882 333.503 200.106C333.167 200.33 332.901 200.647 332.705 201.058C332.509 201.459 332.411 201.94 332.411 202.5C332.411 203.051 332.504 203.531 332.691 203.942C332.887 204.353 333.153 204.67 333.489 204.894C333.834 205.118 334.231 205.23 334.679 205.23ZM347.409 196.76V206H346.373V196.76H347.409ZM341.221 196.76V206H340.185V196.76H341.221ZM346.863 200.834V201.8H340.731V200.834H346.863Z" fill="#012137"/>
<path d="M653.957 305V304.021H656.069V298.994C655.893 299.163 655.691 299.317 655.464 299.456C655.237 299.588 655.002 299.705 654.76 299.808C654.525 299.903 654.291 299.977 654.056 300.028L653.847 299.027C653.994 299.005 654.177 298.954 654.397 298.873C654.624 298.792 654.859 298.69 655.101 298.565C655.35 298.44 655.574 298.308 655.772 298.169C655.97 298.022 656.12 297.879 656.223 297.74H657.213V304.021H659.105V305H653.957ZM663.005 305.11C662.147 305.11 661.468 304.795 660.97 304.164C660.478 303.526 660.233 302.595 660.233 301.37C660.233 300.145 660.478 299.218 660.97 298.587C661.468 297.949 662.147 297.63 663.005 297.63C663.87 297.63 664.548 297.949 665.04 298.587C665.531 299.218 665.777 300.145 665.777 301.37C665.777 302.595 665.531 303.526 665.04 304.164C664.548 304.795 663.87 305.11 663.005 305.11ZM663.005 304.109C663.349 304.109 663.639 304.01 663.874 303.812C664.108 303.614 664.284 303.31 664.402 302.899C664.519 302.488 664.578 301.979 664.578 301.37C664.578 300.761 664.519 300.252 664.402 299.841C664.284 299.43 664.108 299.126 663.874 298.928C663.639 298.73 663.349 298.631 663.005 298.631C662.66 298.631 662.37 298.73 662.136 298.928C661.901 299.126 661.725 299.43 661.608 299.841C661.49 300.252 661.432 300.761 661.432 301.37C661.432 301.979 661.49 302.488 661.608 302.899C661.725 303.31 661.901 303.614 662.136 303.812C662.37 304.01 662.66 304.109 663.005 304.109ZM668.279 305L673.031 297.74H674.043L669.302 305H668.279ZM668.565 297.63C668.939 297.63 669.262 297.714 669.533 297.883C669.812 298.052 670.025 298.286 670.171 298.587C670.325 298.888 670.402 299.243 670.402 299.654C670.402 300.057 670.325 300.413 670.171 300.721C670.025 301.022 669.812 301.256 669.533 301.425C669.262 301.594 668.939 301.678 668.565 301.678C668.199 301.678 667.876 301.594 667.597 301.425C667.319 301.256 667.102 301.022 666.948 300.721C666.802 300.413 666.728 300.057 666.728 299.654C666.728 299.243 666.802 298.888 666.948 298.587C667.102 298.286 667.319 298.052 667.597 297.883C667.876 297.714 668.199 297.63 668.565 297.63ZM668.565 298.488C668.382 298.488 668.224 298.536 668.092 298.631C667.96 298.719 667.861 298.851 667.795 299.027C667.729 299.196 667.696 299.405 667.696 299.654C667.696 299.896 667.729 300.105 667.795 300.281C667.861 300.457 667.96 300.589 668.092 300.677C668.224 300.765 668.382 300.809 668.565 300.809C668.756 300.809 668.917 300.765 669.049 300.677C669.181 300.589 669.28 300.457 669.346 300.281C669.412 300.105 669.445 299.896 669.445 299.654C669.445 299.405 669.412 299.196 669.346 299.027C669.28 298.851 669.181 298.719 669.049 298.631C668.917 298.536 668.756 298.488 668.565 298.488ZM673.757 301.062C674.131 301.062 674.454 301.146 674.725 301.315C675.004 301.484 675.217 301.722 675.363 302.03C675.517 302.331 675.594 302.683 675.594 303.086C675.594 303.497 675.517 303.852 675.363 304.153C675.217 304.454 675.004 304.688 674.725 304.857C674.454 305.026 674.131 305.11 673.757 305.11C673.391 305.11 673.068 305.026 672.789 304.857C672.511 304.688 672.294 304.454 672.14 304.153C671.994 303.852 671.92 303.497 671.92 303.086C671.92 302.683 671.994 302.331 672.14 302.03C672.294 301.722 672.511 301.484 672.789 301.315C673.068 301.146 673.391 301.062 673.757 301.062ZM673.757 301.931C673.574 301.931 673.416 301.975 673.284 302.063C673.152 302.151 673.053 302.283 672.987 302.459C672.921 302.628 672.888 302.837 672.888 303.086C672.888 303.328 672.921 303.537 672.987 303.713C673.053 303.889 673.152 304.025 673.284 304.12C673.416 304.208 673.574 304.252 673.757 304.252C673.948 304.252 674.109 304.208 674.241 304.12C674.373 304.025 674.472 303.889 674.538 303.713C674.604 303.537 674.637 303.328 674.637 303.086C674.637 302.844 674.604 302.635 674.538 302.459C674.472 302.283 674.373 302.151 674.241 302.063C674.109 301.975 673.948 301.931 673.757 301.931Z" fill="#012137"/>
<path d="M681 300C680.448 300 680 300.448 680 301C680 301.552 680.448 302 681 302V300ZM691 300H681V302H691V300Z" fill="#012137"/>
<path d="M656.333 198.11C655.688 198.11 655.156 197.971 654.738 197.692C654.327 197.413 654.001 197.01 653.759 196.482L654.859 195.91C654.969 196.262 655.134 196.552 655.354 196.779C655.581 196.999 655.915 197.109 656.355 197.109C656.663 197.109 656.923 197.054 657.136 196.944C657.356 196.827 657.525 196.665 657.642 196.46C657.759 196.247 657.818 195.994 657.818 195.701C657.818 195.393 657.763 195.136 657.653 194.931C657.543 194.726 657.385 194.572 657.18 194.469C656.975 194.359 656.718 194.304 656.41 194.304C656.197 194.304 655.999 194.326 655.816 194.37C655.633 194.414 655.468 194.484 655.321 194.579C655.174 194.667 655.046 194.784 654.936 194.931L653.968 194.744L654.408 190.74H658.632V191.752H655.343L655.079 193.798L655.057 193.919H655.079C655.248 193.736 655.464 193.593 655.728 193.49C655.999 193.387 656.318 193.336 656.685 193.336C657.154 193.336 657.558 193.435 657.895 193.633C658.232 193.824 658.496 194.091 658.687 194.436C658.878 194.781 658.973 195.18 658.973 195.635C658.973 196.031 658.907 196.383 658.775 196.691C658.643 196.999 658.456 197.259 658.214 197.472C657.972 197.685 657.69 197.846 657.367 197.956C657.052 198.059 656.707 198.11 656.333 198.11ZM663.005 198.11C662.147 198.11 661.468 197.795 660.97 197.164C660.478 196.526 660.233 195.595 660.233 194.37C660.233 193.145 660.478 192.218 660.97 191.587C661.468 190.949 662.147 190.63 663.005 190.63C663.87 190.63 664.548 190.949 665.04 191.587C665.531 192.218 665.777 193.145 665.777 194.37C665.777 195.595 665.531 196.526 665.04 197.164C664.548 197.795 663.87 198.11 663.005 198.11ZM663.005 197.109C663.349 197.109 663.639 197.01 663.874 196.812C664.108 196.614 664.284 196.31 664.402 195.899C664.519 195.488 664.578 194.979 664.578 194.37C664.578 193.761 664.519 193.252 664.402 192.841C664.284 192.43 664.108 192.126 663.874 191.928C663.639 191.73 663.349 191.631 663.005 191.631C662.66 191.631 662.37 191.73 662.136 191.928C661.901 192.126 661.725 192.43 661.608 192.841C661.49 193.252 661.432 193.761 661.432 194.37C661.432 194.979 661.49 195.488 661.608 195.899C661.725 196.31 661.901 196.614 662.136 196.812C662.37 197.01 662.66 197.109 663.005 197.109ZM668.279 198L673.031 190.74H674.043L669.302 198H668.279ZM668.565 190.63C668.939 190.63 669.262 190.714 669.533 190.883C669.812 191.052 670.025 191.286 670.171 191.587C670.325 191.888 670.402 192.243 670.402 192.654C670.402 193.057 670.325 193.413 670.171 193.721C670.025 194.022 669.812 194.256 669.533 194.425C669.262 194.594 668.939 194.678 668.565 194.678C668.199 194.678 667.876 194.594 667.597 194.425C667.319 194.256 667.102 194.022 666.948 193.721C666.802 193.413 666.728 193.057 666.728 192.654C666.728 192.243 666.802 191.888 666.948 191.587C667.102 191.286 667.319 191.052 667.597 190.883C667.876 190.714 668.199 190.63 668.565 190.63ZM668.565 191.488C668.382 191.488 668.224 191.536 668.092 191.631C667.96 191.719 667.861 191.851 667.795 192.027C667.729 192.196 667.696 192.405 667.696 192.654C667.696 192.896 667.729 193.105 667.795 193.281C667.861 193.457 667.96 193.589 668.092 193.677C668.224 193.765 668.382 193.809 668.565 193.809C668.756 193.809 668.917 193.765 669.049 193.677C669.181 193.589 669.28 193.457 669.346 193.281C669.412 193.105 669.445 192.896 669.445 192.654C669.445 192.405 669.412 192.196 669.346 192.027C669.28 191.851 669.181 191.719 669.049 191.631C668.917 191.536 668.756 191.488 668.565 191.488ZM673.757 194.062C674.131 194.062 674.454 194.146 674.725 194.315C675.004 194.484 675.217 194.722 675.363 195.03C675.517 195.331 675.594 195.683 675.594 196.086C675.594 196.497 675.517 196.852 675.363 197.153C675.217 197.454 675.004 197.688 674.725 197.857C674.454 198.026 674.131 198.11 673.757 198.11C673.391 198.11 673.068 198.026 672.789 197.857C672.511 197.688 672.294 197.454 672.14 197.153C671.994 196.852 671.92 196.497 671.92 196.086C671.92 195.683 671.994 195.331 672.14 195.03C672.294 194.722 672.511 194.484 672.789 194.315C673.068 194.146 673.391 194.062 673.757 194.062ZM673.757 194.931C673.574 194.931 673.416 194.975 673.284 195.063C673.152 195.151 673.053 195.283 672.987 195.459C672.921 195.628 672.888 195.837 672.888 196.086C672.888 196.328 672.921 196.537 672.987 196.713C673.053 196.889 673.152 197.025 673.284 197.12C673.416 197.208 673.574 197.252 673.757 197.252C673.948 197.252 674.109 197.208 674.241 197.12C674.373 197.025 674.472 196.889 674.538 196.713C674.604 196.537 674.637 196.328 674.637 196.086C674.637 195.844 674.604 195.635 674.538 195.459C674.472 195.283 674.373 195.151 674.241 195.063C674.109 194.975 673.948 194.931 673.757 194.931Z" fill="#012137"/>
<path d="M681 193C680.448 193 680 193.448 680 194C680 194.552 680.448 195 681 195V193ZM691 193H681V195H691V193Z" fill="#012137"/>
<path d="M647.318 91V90.021H649.43V84.994C649.254 85.1627 649.053 85.3167 648.825 85.456C648.598 85.588 648.363 85.7053 648.121 85.808C647.887 85.9033 647.652 85.9767 647.417 86.028L647.208 85.027C647.355 85.005 647.538 84.9537 647.758 84.873C647.986 84.7923 648.22 84.6897 648.462 84.565C648.712 84.4403 648.935 84.3083 649.133 84.169C649.331 84.0223 649.482 83.8793 649.584 83.74H650.574V90.021H652.466V91H647.318ZM656.366 91.11C655.508 91.11 654.83 90.7947 654.331 90.164C653.84 89.526 653.594 88.5947 653.594 87.37C653.594 86.1453 653.84 85.2177 654.331 84.587C654.83 83.949 655.508 83.63 656.366 83.63C657.231 83.63 657.91 83.949 658.401 84.587C658.892 85.2177 659.138 86.1453 659.138 87.37C659.138 88.5947 658.892 89.526 658.401 90.164C657.91 90.7947 657.231 91.11 656.366 91.11ZM656.366 90.109C656.711 90.109 657 90.01 657.235 89.812C657.47 89.614 657.646 89.3097 657.763 88.899C657.88 88.4883 657.939 87.9787 657.939 87.37C657.939 86.7613 657.88 86.2517 657.763 85.841C657.646 85.4303 657.47 85.126 657.235 84.928C657 84.73 656.711 84.631 656.366 84.631C656.021 84.631 655.732 84.73 655.497 84.928C655.262 85.126 655.086 85.4303 654.969 85.841C654.852 86.2517 654.793 86.7613 654.793 87.37C654.793 87.9787 654.852 88.4883 654.969 88.899C655.086 89.3097 655.262 89.614 655.497 89.812C655.732 90.01 656.021 90.109 656.366 90.109ZM663.005 91.11C662.147 91.11 661.468 90.7947 660.97 90.164C660.478 89.526 660.233 88.5947 660.233 87.37C660.233 86.1453 660.478 85.2177 660.97 84.587C661.468 83.949 662.147 83.63 663.005 83.63C663.87 83.63 664.548 83.949 665.04 84.587C665.531 85.2177 665.777 86.1453 665.777 87.37C665.777 88.5947 665.531 89.526 665.04 90.164C664.548 90.7947 663.87 91.11 663.005 91.11ZM663.005 90.109C663.349 90.109 663.639 90.01 663.874 89.812C664.108 89.614 664.284 89.3097 664.402 88.899C664.519 88.4883 664.578 87.9787 664.578 87.37C664.578 86.7613 664.519 86.2517 664.402 85.841C664.284 85.4303 664.108 85.126 663.874 84.928C663.639 84.73 663.349 84.631 663.005 84.631C662.66 84.631 662.37 84.73 662.136 84.928C661.901 85.126 661.725 85.4303 661.608 85.841C661.49 86.2517 661.432 86.7613 661.432 87.37C661.432 87.9787 661.49 88.4883 661.608 88.899C661.725 89.3097 661.901 89.614 662.136 89.812C662.37 90.01 662.66 90.109 663.005 90.109ZM668.279 91L673.031 83.74H674.043L669.302 91H668.279ZM668.565 83.63C668.939 83.63 669.262 83.7143 669.533 83.883C669.812 84.0517 670.025 84.2863 670.171 84.587C670.325 84.8877 670.402 85.2433 670.402 85.654C670.402 86.0573 670.325 86.413 670.171 86.721C670.025 87.0217 669.812 87.2563 669.533 87.425C669.262 87.5937 668.939 87.678 668.565 87.678C668.199 87.678 667.876 87.5937 667.597 87.425C667.319 87.2563 667.102 87.0217 666.948 86.721C666.802 86.413 666.728 86.0573 666.728 85.654C666.728 85.2433 666.802 84.8877 666.948 84.587C667.102 84.2863 667.319 84.0517 667.597 83.883C667.876 83.7143 668.199 83.63 668.565 83.63ZM668.565 84.488C668.382 84.488 668.224 84.5357 668.092 84.631C667.96 84.719 667.861 84.851 667.795 85.027C667.729 85.1957 667.696 85.4047 667.696 85.654C667.696 85.896 667.729 86.105 667.795 86.281C667.861 86.457 667.96 86.589 668.092 86.677C668.224 86.765 668.382 86.809 668.565 86.809C668.756 86.809 668.917 86.765 669.049 86.677C669.181 86.589 669.28 86.457 669.346 86.281C669.412 86.105 669.445 85.896 669.445 85.654C669.445 85.4047 669.412 85.1957 669.346 85.027C669.28 84.851 669.181 84.719 669.049 84.631C668.917 84.5357 668.756 84.488 668.565 84.488ZM673.757 87.062C674.131 87.062 674.454 87.1463 674.725 87.315C675.004 87.4837 675.217 87.722 675.363 88.03C675.517 88.3307 675.594 88.6827 675.594 89.086C675.594 89.4967 675.517 89.8523 675.363 90.153C675.217 90.4537 675.004 90.6883 674.725 90.857C674.454 91.0257 674.131 91.11 673.757 91.11C673.391 91.11 673.068 91.0257 672.789 90.857C672.511 90.6883 672.294 90.4537 672.14 90.153C671.994 89.8523 671.92 89.4967 671.92 89.086C671.92 88.6827 671.994 88.3307 672.14 88.03C672.294 87.722 672.511 87.4837 672.789 87.315C673.068 87.1463 673.391 87.062 673.757 87.062ZM673.757 87.931C673.574 87.931 673.416 87.975 673.284 88.063C673.152 88.151 673.053 88.283 672.987 88.459C672.921 88.6277 672.888 88.8367 672.888 89.086C672.888 89.328 672.921 89.537 672.987 89.713C673.053 89.889 673.152 90.0247 673.284 90.12C673.416 90.208 673.574 90.252 673.757 90.252C673.948 90.252 674.109 90.208 674.241 90.12C674.373 90.0247 674.472 89.889 674.538 89.713C674.604 89.537 674.637 89.328 674.637 89.086C674.637 88.844 674.604 88.635 674.538 88.459C674.472 88.283 674.373 88.151 674.241 88.063C674.109 87.975 673.948 87.931 673.757 87.931Z" fill="#012137"/>
<path d="M681 86C680.448 86 680 86.4477 680 87C680 87.5523 680.448 88 681 88V86ZM691 86H681V88H691V86Z" fill="#012137"/>
<path d="M246.749 293.76V303H245.769V296.98L245.881 294.684H245.867L242.773 303H241.877L238.769 294.684H238.755L238.881 296.98V303H237.887V293.76H239.483L241.653 299.654L242.311 301.782H242.339L242.997 299.668L245.167 293.76H246.749ZM253.592 298.464C253.592 297.923 253.447 297.507 253.158 297.218C252.868 296.919 252.458 296.77 251.926 296.77C251.431 296.77 251.011 296.877 250.666 297.092C250.32 297.307 250.064 297.652 249.896 298.128L249.056 297.61C249.252 297.078 249.597 296.653 250.092 296.336C250.596 296.019 251.216 295.86 251.954 295.86C252.458 295.86 252.91 295.949 253.312 296.126C253.722 296.294 254.044 296.555 254.278 296.91C254.511 297.265 254.628 297.713 254.628 298.254V301.67C254.628 302.034 254.814 302.216 255.188 302.216C255.365 302.216 255.538 302.193 255.706 302.146L255.65 302.958C255.472 303.051 255.239 303.098 254.95 303.098C254.688 303.098 254.45 303.051 254.236 302.958C254.03 302.855 253.867 302.701 253.746 302.496C253.624 302.281 253.564 302.015 253.564 301.698V301.516L253.83 301.544C253.727 301.917 253.536 302.221 253.256 302.454C252.985 302.687 252.677 302.86 252.332 302.972C251.986 303.084 251.646 303.14 251.31 303.14C250.899 303.14 250.516 303.07 250.162 302.93C249.807 302.79 249.527 302.58 249.322 302.3C249.116 302.02 249.014 301.67 249.014 301.25C249.014 300.727 249.186 300.298 249.532 299.962C249.886 299.626 250.376 299.397 251.002 299.276L253.802 298.73V299.584L251.492 300.06C251.016 300.153 250.661 300.289 250.428 300.466C250.194 300.643 250.078 300.886 250.078 301.194C250.078 301.511 250.194 301.763 250.428 301.95C250.67 302.137 251.016 302.23 251.464 302.23C251.734 302.23 251.996 302.197 252.248 302.132C252.5 302.057 252.728 301.945 252.934 301.796C253.139 301.647 253.298 301.46 253.41 301.236C253.531 301.012 253.592 300.746 253.592 300.438V298.464ZM257.827 294.656C257.594 294.656 257.403 294.586 257.253 294.446C257.113 294.297 257.043 294.101 257.043 293.858C257.043 293.625 257.113 293.438 257.253 293.298C257.403 293.149 257.594 293.074 257.827 293.074C258.07 293.074 258.261 293.149 258.401 293.298C258.551 293.438 258.625 293.625 258.625 293.858C258.625 294.101 258.551 294.297 258.401 294.446C258.261 294.586 258.07 294.656 257.827 294.656ZM258.345 296V303H257.309V296H258.345ZM260.933 303V296H261.843L261.941 297.61L261.773 297.456C261.913 297.083 262.109 296.779 262.361 296.546C262.622 296.303 262.921 296.131 263.257 296.028C263.593 295.916 263.943 295.86 264.307 295.86C264.82 295.86 265.277 295.958 265.679 296.154C266.089 296.341 266.416 296.63 266.659 297.022C266.911 297.414 267.037 297.909 267.037 298.506V303H266.001V298.87C266.001 298.095 265.828 297.554 265.483 297.246C265.147 296.929 264.722 296.77 264.209 296.77C263.854 296.77 263.504 296.854 263.159 297.022C262.813 297.19 262.529 297.456 262.305 297.82C262.081 298.175 261.969 298.646 261.969 299.234V303H260.933ZM277.2 293.76C277.835 293.76 278.381 293.877 278.838 294.11C279.305 294.334 279.669 294.656 279.93 295.076C280.192 295.487 280.322 295.977 280.322 296.546C280.322 297.125 280.192 297.624 279.93 298.044C279.669 298.455 279.305 298.777 278.838 299.01C278.381 299.234 277.835 299.346 277.2 299.346H275.016V303H273.98V293.76H277.2ZM277.06 298.38C277.798 298.38 278.344 298.221 278.698 297.904C279.053 297.587 279.23 297.134 279.23 296.546C279.23 295.958 279.053 295.51 278.698 295.202C278.344 294.885 277.798 294.726 277.06 294.726H275.016V298.38H277.06ZM284.767 303.14C284.31 303.14 283.885 303.056 283.493 302.888C283.101 302.72 282.784 302.449 282.541 302.076C282.298 301.693 282.177 301.199 282.177 300.592V296H283.213V300.326C283.213 301.045 283.372 301.544 283.689 301.824C284.006 302.095 284.454 302.23 285.033 302.23C285.313 302.23 285.584 302.183 285.845 302.09C286.106 301.987 286.34 301.838 286.545 301.642C286.75 301.446 286.909 301.199 287.021 300.9C287.142 300.592 287.203 300.242 287.203 299.85V296H288.239V303H287.329L287.259 301.866C287.026 302.295 286.694 302.617 286.265 302.832C285.845 303.037 285.346 303.14 284.767 303.14ZM290.819 303V296H291.729L291.799 297.162C292.042 296.723 292.369 296.397 292.779 296.182C293.199 295.967 293.638 295.86 294.095 295.86C294.618 295.86 295.099 295.981 295.537 296.224C295.976 296.457 296.303 296.817 296.517 297.302C296.667 296.975 296.877 296.709 297.147 296.504C297.418 296.289 297.717 296.131 298.043 296.028C298.379 295.916 298.701 295.86 299.009 295.86C299.467 295.86 299.896 295.953 300.297 296.14C300.699 296.327 301.025 296.616 301.277 297.008C301.539 297.4 301.669 297.899 301.669 298.506V303H300.633V298.604C300.633 297.96 300.47 297.493 300.143 297.204C299.817 296.915 299.406 296.77 298.911 296.77C298.529 296.77 298.174 296.863 297.847 297.05C297.521 297.227 297.259 297.493 297.063 297.848C296.867 298.193 296.769 298.618 296.769 299.122V303H295.733V298.618C295.733 297.965 295.565 297.493 295.229 297.204C294.903 296.915 294.497 296.77 294.011 296.77C293.675 296.77 293.339 296.859 293.003 297.036C292.677 297.204 292.401 297.47 292.177 297.834C291.963 298.189 291.855 298.651 291.855 299.22V303H290.819ZM304.177 305.94V296H305.087L305.185 297.75L305.031 297.582C305.152 297.237 305.334 296.938 305.577 296.686C305.829 296.425 306.127 296.224 306.473 296.084C306.827 295.935 307.21 295.86 307.621 295.86C308.199 295.86 308.727 296.005 309.203 296.294C309.679 296.583 310.061 296.999 310.351 297.54C310.64 298.081 310.785 298.735 310.785 299.5C310.785 300.256 310.64 300.909 310.351 301.46C310.061 302.001 309.674 302.417 309.189 302.706C308.703 302.995 308.167 303.14 307.579 303.14C306.991 303.14 306.473 302.995 306.025 302.706C305.586 302.407 305.273 302.025 305.087 301.558L305.213 301.362V305.94H304.177ZM307.481 302.23C308.19 302.23 308.745 301.983 309.147 301.488C309.548 300.993 309.749 300.331 309.749 299.5C309.749 298.669 309.553 298.007 309.161 297.512C308.769 297.017 308.218 296.77 307.509 296.77C307.051 296.77 306.65 296.882 306.305 297.106C305.969 297.33 305.703 297.647 305.507 298.058C305.311 298.459 305.213 298.94 305.213 299.5C305.213 300.051 305.306 300.531 305.493 300.942C305.689 301.353 305.955 301.67 306.291 301.894C306.636 302.118 307.033 302.23 307.481 302.23Z" fill="#012137"/>
<path d="M126 114H0" stroke="#1FA4F1" stroke-width="4"/>
<path d="M126 346H0" stroke="#1FA4F1" stroke-width="4"/>
<path d="M386 299H335M212 299H182C170.954 299 162 290.046 162 279L162 114" stroke="#1FA4F1" stroke-width="4" stroke-linecap="round" stroke-linejoin="round"/>
<path d="M386 299H427" stroke="#1FA4F1" stroke-width="4"/>
<path d="M427 114L162 114" stroke="#1FA4F1" stroke-width="4" stroke-linecap="round" stroke-linejoin="round"/>
<path d="M818 279.886V292.114C818 293.74 819.839 294.687 821.162 293.741L829.722 287.627C830.838 286.83 830.838 285.17 829.722 284.373L821.162 278.259C819.839 277.313 818 278.26 818 279.886Z" fill="#00D791"/>
<path d="M834 292.114L834 279.886C834 278.26 832.161 277.313 830.838 278.259L822.278 284.373C821.162 285.17 821.162 286.83 822.278 287.627L830.838 293.741C832.161 294.687 834 293.74 834 292.114Z" fill="#00D791"/>
<rect x="824" y="278" width="4" height="16" fill="#F3F5F7"/>
<path d="M818 187.886V200.114C818 201.74 819.839 202.687 821.162 201.741L829.722 195.627C830.838 194.83 830.838 193.17 829.722 192.373L821.162 186.259C819.839 185.313 818 186.26 818 187.886Z" fill="#00D791"/>
<path d="M834 200.114L834 187.886C834 186.26 832.161 185.313 830.838 186.259L822.278 192.373C821.162 193.17 821.162 194.83 822.278 195.627L830.838 201.741C832.161 202.687 834 201.74 834 200.114Z" fill="#00D791"/>
<rect x="824" y="186" width="4" height="16" fill="#F3F5F7"/>
<path d="M818 96.8864V109.114C818 110.74 819.839 111.687 821.162 110.741L829.722 104.627C830.838 103.83 830.838 102.17 829.722 101.373L821.162 95.2589C819.839 94.3134 818 95.2596 818 96.8864Z" fill="#00D791"/>
<path d="M834 109.114L834 96.8864C834 95.2596 832.161 94.3134 830.838 95.2589L822.278 101.373C821.162 102.17 821.162 103.83 822.278 104.627L830.838 110.741C832.161 111.687 834 110.74 834 109.114Z" fill="#00D791"/>
<rect x="824" y="95" width="4" height="16" fill="#F3F5F7"/>
<path d="M379.886 217L392.114 217C393.74 217 394.687 215.161 393.741 213.838L387.627 205.278C386.83 204.162 385.17 204.162 384.373 205.278L378.259 213.838C377.313 215.161 378.26 217 379.886 217Z" fill="#1FA4F1"/>
<path d="M392.114 201L379.886 201C378.26 201 377.313 202.839 378.259 204.162L384.373 212.722C385.17 213.838 386.83 213.838 387.627 212.722L393.741 204.162C394.687 202.839 393.74 201 392.114 201Z" fill="#1FA4F1"/>
<rect x="378" y="211" width="4" height="16" transform="rotate(-90 378 211)" fill="#F3F5F7"/>
<path d="M399 292.886V305.114C399 306.74 400.839 307.687 402.162 306.741L410.722 300.627C411.838 299.83 411.838 298.17 410.722 297.373L402.162 291.259C400.839 290.313 399 291.26 399 292.886Z" fill="#1FA4F1"/>
<path d="M415 305.114L415 292.886C415 291.26 413.161 290.313 411.838 291.259L403.278 297.373C402.162 298.17 402.162 299.83 403.278 300.627L411.838 306.741C413.161 307.687 415 306.74 415 305.114Z" fill="#1FA4F1"/>
<rect x="405" y="291" width="4" height="2" fill="#F3F5F7"/>
<path d="M126 339.886V352.114C126 353.74 127.839 354.687 129.162 353.741L137.722 347.627C138.838 346.83 138.838 345.17 137.722 344.373L129.162 338.259C127.839 337.313 126 338.26 126 339.886Z" fill="#1FA4F1"/>
<path d="M142 352.114L142 339.886C142 338.26 140.161 337.313 138.838 338.259L130.278 344.373C129.162 345.17 129.162 346.83 130.278 347.627L138.838 353.741C140.161 354.687 142 353.74 142 352.114Z" fill="#1FA4F1"/>
<rect x="132" y="338" width="4" height="16" fill="#F3F5F7"/>
<path d="M399 107.886V120.114C399 121.74 400.839 122.687 402.162 121.741L410.722 115.627C411.838 114.83 411.838 113.17 410.722 112.373L402.162 106.259C400.839 105.313 399 106.26 399 107.886Z" fill="#1FA4F1"/>
<path d="M415 120.114L415 107.886C415 106.26 413.161 105.313 411.838 106.259L403.278 112.373C402.162 113.17 402.162 114.83 403.278 115.627L411.838 121.741C413.161 122.687 415 121.74 415 120.114Z" fill="#1FA4F1"/>
<rect x="405" y="106" width="4" height="2" fill="#F3F5F7"/>
<path d="M126 107.886V120.114C126 121.74 127.839 122.687 129.162 121.741L137.722 115.627C138.838 114.83 138.838 113.17 137.722 112.373L129.162 106.259C127.839 105.313 126 106.26 126 107.886Z" fill="#1FA4F1"/>
<path d="M142 120.114L142 107.886C142 106.26 140.161 105.313 138.838 106.259L130.278 112.373C129.162 113.17 129.162 114.83 130.278 115.627L138.838 121.741C140.161 122.687 142 121.74 142 120.114Z" fill="#1FA4F1"/>
<rect x="132" y="106" width="4" height="16" fill="#F3F5F7"/>
<path d="M342.886 140L355.114 140C356.74 140 357.687 138.161 356.741 136.838L350.627 128.278C349.83 127.162 348.17 127.162 347.373 128.278L341.259 136.838C340.313 138.161 341.26 140 342.886 140Z" fill="#E682E8"/>
<path d="M355.114 124L342.886 124C341.26 124 340.313 125.839 341.259 127.162L347.373 135.722C348.17 136.838 349.83 136.838 350.627 135.722L356.741 127.162C357.687 125.839 356.74 124 355.114 124Z" fill="#E682E8"/>
<rect x="341" y="134" width="4" height="2" transform="rotate(-90 341 134)" fill="#F3F5F7"/>
<path d="M299.886 140L312.114 140C313.74 140 314.687 138.161 313.741 136.838L307.627 128.278C306.83 127.162 305.17 127.162 304.373 128.278L298.259 136.838C297.313 138.161 298.26 140 299.886 140Z" fill="#E682E8"/>
<path d="M312.114 124L299.886 124C298.26 124 297.313 125.839 298.259 127.162L304.373 135.722C305.17 136.838 306.83 136.838 307.627 135.722L313.741 127.162C314.687 125.839 313.74 124 312.114 124Z" fill="#E682E8"/>
<rect x="298" y="134" width="4" height="2" transform="rotate(-90 298 134)" fill="#F3F5F7"/>
<path d="M257.886 140L270.114 140C271.74 140 272.687 138.161 271.741 136.838L265.627 128.278C264.83 127.162 263.17 127.162 262.373 128.278L256.259 136.838C255.313 138.161 256.26 140 257.886 140Z" fill="#E682E8"/>
<path d="M270.114 124L257.886 124C256.26 124 255.313 125.839 256.259 127.162L262.373 135.722C263.17 136.838 264.83 136.838 265.627 135.722L271.741 127.162C272.687 125.839 271.74 124 270.114 124Z" fill="#E682E8"/>
<rect x="256" y="134" width="4" height="2" transform="rotate(-90 256 134)" fill="#F3F5F7"/>
<path d="M215.886 140L228.114 140C229.74 140 230.687 138.161 229.741 136.838L223.627 128.278C222.83 127.162 221.17 127.162 220.373 128.278L214.259 136.838C213.313 138.161 214.26 140 215.886 140Z" fill="#E682E8"/>
<path d="M228.114 124L215.886 124C214.26 124 213.313 125.839 214.259 127.162L220.373 135.722C221.17 136.838 222.83 136.838 223.627 135.722L229.741 127.162C230.687 125.839 229.74 124 228.114 124Z" fill="#E682E8"/>
<rect x="214" y="134" width="4" height="2" transform="rotate(-90 214 134)" fill="#F3F5F7"/>
</g>
<defs>
<clipPath id="clip0_2154_13017">
<rect width="1118" height="400" rx="20" fill="white"/>
</clipPath>
<clipPath id="clip1_2154_13017">
<path d="M320 170.123C320 164.6 324.477 160.123 330 160.123H357V231.341C357 236.864 352.523 241.341 347 241.341H330C324.477 241.341 320 236.864 320 231.341V170.123Z" fill="white"/>
</clipPath>
<clipPath id="clip2_2154_13017">
<path d="M277 170.123C277 164.6 281.477 160.123 287 160.123H314V231.341C314 236.864 309.523 241.341 304 241.341H287C281.477 241.341 277 236.864 277 231.341V170.123Z" fill="white"/>
</clipPath>
<clipPath id="clip3_2154_13017">
<path d="M235 170.123C235 164.6 239.477 160.123 245 160.123H272V231.341C272 236.864 267.523 241.341 262 241.341H245C239.477 241.341 235 236.864 235 231.341V170.123Z" fill="white"/>
</clipPath>
<clipPath id="clip4_2154_13017">
<path d="M193 170.123C193 164.6 197.477 160.123 203 160.123H230V231.341C230 236.864 225.523 241.341 220 241.341H203C197.477 241.341 193 236.864 193 231.341V170.123Z" fill="white"/>
</clipPath>
<clipPath id="clip5_2154_13017">
<rect x="854" y="62" width="123" height="81" rx="10" fill="white"/>
</clipPath>
<clipPath id="clip6_2154_13017">
<rect x="854" y="153" width="123" height="81" rx="10" fill="white"/>
</clipPath>
<clipPath id="clip7_2154_13017">
<rect x="854" y="245" width="123" height="81" rx="10" fill="white"/>
</clipPath>
<clipPath id="clip8_2154_13017">
<rect x="427" y="62" width="264" height="264" rx="10" fill="white"/>
</clipPath>
</defs>
</svg>
