<svg width="1118" height="136" viewBox="0 0 1118 136" fill="none" xmlns="http://www.w3.org/2000/svg">
<g clip-path="url(#clip0_2154_12966)">
<rect y="45" width="434" height="40" rx="20" fill="#F3F5F7"/>
<rect x="4" y="49" width="94" height="32" rx="16" fill="white"/>
<path d="M39.322 59.76V69H37.936V63.652L38.048 61.104H38.034L35.22 69H33.974L31.16 61.104H31.146L31.258 63.652V69H29.872V59.76H32.098L33.96 65.108L34.604 67.306H34.632L35.29 65.108L37.138 59.76H39.322ZM42.6133 60.824C42.2866 60.824 42.0346 60.7447 41.8573 60.586C41.6893 60.418 41.6053 60.1847 41.6053 59.886C41.6053 59.5873 41.6893 59.3587 41.8573 59.2C42.0346 59.0413 42.2866 58.962 42.6133 58.962C42.9306 58.962 43.1733 59.0413 43.3413 59.2C43.5186 59.3587 43.6073 59.5873 43.6073 59.886C43.6073 60.1847 43.5186 60.418 43.3413 60.586C43.1733 60.7447 42.9306 60.824 42.6133 60.824ZM43.3553 62V69H41.8573V62H43.3553ZM46.7911 62L48.7651 64.996L49.0451 65.038L51.8871 69H50.1091L48.0511 65.92L47.7291 65.808L44.9851 62H46.7911ZM51.8451 62L49.1011 65.752L48.7931 65.738L46.5531 69H44.8451L47.8271 65.01L48.1211 65.038L50.1231 62H51.8451ZM54.1524 60.824C53.8257 60.824 53.5737 60.7447 53.3964 60.586C53.2284 60.418 53.1444 60.1847 53.1444 59.886C53.1444 59.5873 53.2284 59.3587 53.3964 59.2C53.5737 59.0413 53.8257 58.962 54.1524 58.962C54.4697 58.962 54.7124 59.0413 54.8804 59.2C55.0577 59.3587 55.1464 59.5873 55.1464 59.886C55.1464 60.1847 55.0577 60.418 54.8804 60.586C54.7124 60.7447 54.4697 60.824 54.1524 60.824ZM54.8944 62V69H53.3964V62H54.8944ZM57.2382 69V62H58.5682L58.6662 63.82L58.4702 63.624C58.6008 63.2227 58.7875 62.8913 59.0302 62.63C59.2822 62.3593 59.5762 62.1633 59.9122 62.042C60.2575 61.9207 60.6215 61.86 61.0042 61.86C61.4988 61.86 61.9422 61.958 62.3342 62.154C62.7355 62.3407 63.0528 62.6253 63.2862 63.008C63.5195 63.3907 63.6362 63.876 63.6362 64.464V69H62.1382V64.926C62.1382 64.2353 61.9935 63.7593 61.7042 63.498C61.4242 63.2273 61.0695 63.092 60.6402 63.092C60.3322 63.092 60.0335 63.1667 59.7442 63.316C59.4548 63.456 59.2122 63.6847 59.0162 64.002C58.8295 64.3193 58.7362 64.744 58.7362 65.276V69H57.2382ZM68.8461 72.01C68.3048 72.01 67.7961 71.9353 67.3201 71.786C66.8535 71.6367 66.4615 71.394 66.1441 71.058C65.8268 70.722 65.6215 70.2833 65.5281 69.742L66.9981 69.434C67.0728 69.9007 67.2735 70.2553 67.6001 70.498C67.9268 70.75 68.3888 70.876 68.9861 70.876C69.6115 70.876 70.0828 70.6847 70.4001 70.302C70.7175 69.9193 70.8761 69.4153 70.8761 68.79V67.67C70.6708 68.034 70.3768 68.3373 69.9941 68.58C69.6115 68.8227 69.1588 68.944 68.6361 68.944C68.0295 68.944 67.4881 68.804 67.0121 68.524C66.5455 68.244 66.1768 67.8427 65.9061 67.32C65.6448 66.788 65.5141 66.1487 65.5141 65.402C65.5141 64.6647 65.6588 64.03 65.9481 63.498C66.2468 62.966 66.6341 62.56 67.1101 62.28C67.5861 62 68.0901 61.86 68.6221 61.86C69.2101 61.86 69.7048 61.986 70.1061 62.238C70.5075 62.4807 70.8015 62.8073 70.9881 63.218L71.0581 62H72.3881V68.44C72.3881 69.2613 72.2481 69.9333 71.9681 70.456C71.6975 70.988 71.3008 71.38 70.7781 71.632C70.2555 71.884 69.6115 72.01 68.8461 72.01ZM68.9581 67.726C69.5368 67.726 69.9988 67.53 70.3441 67.138C70.6988 66.7367 70.8761 66.158 70.8761 65.402C70.8761 64.646 70.7035 64.072 70.3581 63.68C70.0128 63.2787 69.5461 63.078 68.9581 63.078C68.5568 63.078 68.2115 63.176 67.9221 63.372C67.6328 63.568 67.4088 63.8433 67.2501 64.198C67.1008 64.5433 67.0261 64.9447 67.0261 65.402C67.0261 66.1393 67.1988 66.7133 67.5441 67.124C67.8895 67.5253 68.3608 67.726 68.9581 67.726Z" fill="#012137"/>
<path d="M121.438 60.726H116.034V63.834H120.262V64.8H116.034V69H114.998V59.76H121.438V60.726ZM125.425 69.14C124.771 69.14 124.183 68.9953 123.661 68.706C123.147 68.4167 122.746 68.0013 122.457 67.46C122.167 66.9093 122.023 66.256 122.023 65.5C122.023 64.744 122.167 64.0953 122.457 63.554C122.746 63.0033 123.143 62.5833 123.647 62.294C124.151 62.0047 124.72 61.86 125.355 61.86C126.008 61.86 126.563 62 127.021 62.28C127.478 62.56 127.828 62.9427 128.071 63.428C128.313 63.9133 128.435 64.4593 128.435 65.066C128.435 65.206 128.43 65.3367 128.421 65.458C128.411 65.5793 128.397 65.6867 128.379 65.78H122.695V64.87H127.931L127.399 64.968C127.399 64.2773 127.207 63.7407 126.825 63.358C126.451 62.966 125.952 62.77 125.327 62.77C124.86 62.77 124.454 62.8773 124.109 63.092C123.773 63.3067 123.511 63.6193 123.325 64.03C123.138 64.4313 123.045 64.9213 123.045 65.5C123.045 66.0693 123.138 66.5593 123.325 66.97C123.521 67.3807 123.791 67.6933 124.137 67.908C124.491 68.1227 124.911 68.23 125.397 68.23C125.919 68.23 126.349 68.132 126.685 67.936C127.021 67.7307 127.287 67.4507 127.483 67.096L128.309 67.572C128.131 67.8987 127.903 68.1787 127.623 68.412C127.352 68.6453 127.03 68.8273 126.657 68.958C126.293 69.0793 125.882 69.14 125.425 69.14ZM133.45 69.14C132.797 69.14 132.209 68.9953 131.686 68.706C131.173 68.4167 130.771 68.0013 130.482 67.46C130.193 66.9093 130.048 66.256 130.048 65.5C130.048 64.744 130.193 64.0953 130.482 63.554C130.771 63.0033 131.168 62.5833 131.672 62.294C132.176 62.0047 132.745 61.86 133.38 61.86C134.033 61.86 134.589 62 135.046 62.28C135.503 62.56 135.853 62.9427 136.096 63.428C136.339 63.9133 136.46 64.4593 136.46 65.066C136.46 65.206 136.455 65.3367 136.446 65.458C136.437 65.5793 136.423 65.6867 136.404 65.78H130.72V64.87H135.956L135.424 64.968C135.424 64.2773 135.233 63.7407 134.85 63.358C134.477 62.966 133.977 62.77 133.352 62.77C132.885 62.77 132.479 62.8773 132.134 63.092C131.798 63.3067 131.537 63.6193 131.35 64.03C131.163 64.4313 131.07 64.9213 131.07 65.5C131.07 66.0693 131.163 66.5593 131.35 66.97C131.546 67.3807 131.817 67.6933 132.162 67.908C132.517 68.1227 132.937 68.23 133.422 68.23C133.945 68.23 134.374 68.132 134.71 67.936C135.046 67.7307 135.312 67.4507 135.508 67.096L136.334 67.572C136.157 67.8987 135.928 68.1787 135.648 68.412C135.377 68.6453 135.055 68.8273 134.682 68.958C134.318 69.0793 133.907 69.14 133.45 69.14ZM141.293 69.14C140.715 69.14 140.183 68.9953 139.697 68.706C139.212 68.4167 138.825 68.0013 138.535 67.46C138.246 66.9093 138.101 66.256 138.101 65.5C138.101 64.7253 138.251 64.0673 138.549 63.526C138.857 62.9847 139.263 62.574 139.767 62.294C140.271 62.0047 140.817 61.86 141.405 61.86C141.993 61.86 142.502 62.014 142.931 62.322C143.37 62.63 143.659 63.0407 143.799 63.554L143.673 63.652V58.78H144.709V69H143.799L143.715 67.25L143.855 67.18C143.781 67.6 143.617 67.9547 143.365 68.244C143.123 68.5333 142.819 68.7573 142.455 68.916C142.091 69.0653 141.704 69.14 141.293 69.14ZM141.405 68.23C141.863 68.23 142.259 68.118 142.595 67.894C142.941 67.6607 143.207 67.334 143.393 66.914C143.58 66.4847 143.673 65.9853 143.673 65.416C143.673 64.8653 143.58 64.394 143.393 64.002C143.207 63.6007 142.945 63.2973 142.609 63.092C142.283 62.8773 141.895 62.77 141.447 62.77C140.719 62.77 140.15 63.0173 139.739 63.512C139.338 64.0067 139.137 64.6693 139.137 65.5C139.137 66.3307 139.338 66.9933 139.739 67.488C140.141 67.9827 140.696 68.23 141.405 68.23ZM147.804 60.656C147.571 60.656 147.379 60.586 147.23 60.446C147.09 60.2967 147.02 60.1007 147.02 59.858C147.02 59.6247 147.09 59.438 147.23 59.298C147.379 59.1487 147.571 59.074 147.804 59.074C148.047 59.074 148.238 59.1487 148.378 59.298C148.527 59.438 148.602 59.6247 148.602 59.858C148.602 60.1007 148.527 60.2967 148.378 60.446C148.238 60.586 148.047 60.656 147.804 60.656ZM148.322 62V69H147.286V62H148.322ZM150.909 69V62H151.819L151.917 63.61L151.749 63.456C151.889 63.0827 152.085 62.7793 152.337 62.546C152.598 62.3033 152.897 62.1307 153.233 62.028C153.569 61.916 153.919 61.86 154.283 61.86C154.796 61.86 155.254 61.958 155.655 62.154C156.066 62.3407 156.392 62.63 156.635 63.022C156.887 63.414 157.013 63.9087 157.013 64.506V69H155.977V64.87C155.977 64.0953 155.804 63.554 155.459 63.246C155.123 62.9287 154.698 62.77 154.185 62.77C153.83 62.77 153.48 62.854 153.135 63.022C152.79 63.19 152.505 63.456 152.281 63.82C152.057 64.1747 151.945 64.646 151.945 65.234V69H150.909ZM162.28 72.01C161.767 72.01 161.282 71.9307 160.824 71.772C160.376 71.6227 159.998 71.3893 159.69 71.072C159.382 70.7547 159.182 70.3533 159.088 69.868L160.11 69.56C160.204 70.0547 160.442 70.4327 160.824 70.694C161.216 70.9647 161.748 71.1 162.42 71.1C163.148 71.1 163.704 70.8807 164.086 70.442C164.469 70.0033 164.66 69.4293 164.66 68.72V67.6C164.455 68.0013 164.147 68.3327 163.736 68.594C163.335 68.8553 162.859 68.986 162.308 68.986C161.683 68.986 161.128 68.846 160.642 68.566C160.166 68.2767 159.788 67.866 159.508 67.334C159.228 66.802 159.088 66.1673 159.088 65.43C159.088 64.6833 159.242 64.044 159.55 63.512C159.858 62.98 160.255 62.574 160.74 62.294C161.235 62.0047 161.748 61.86 162.28 61.86C162.878 61.86 163.382 61.9813 163.792 62.224C164.203 62.4573 164.511 62.7793 164.716 63.19L164.8 61.986H165.71V68.482C165.71 69.2753 165.58 69.9333 165.318 70.456C165.057 70.9787 164.67 71.366 164.156 71.618C163.652 71.8793 163.027 72.01 162.28 72.01ZM162.392 68.076C163.074 68.076 163.62 67.8473 164.03 67.39C164.45 66.9327 164.66 66.2793 164.66 65.43C164.66 64.5713 164.45 63.9133 164.03 63.456C163.62 62.9987 163.074 62.77 162.392 62.77C161.916 62.77 161.51 62.8867 161.174 63.12C160.838 63.344 160.577 63.6567 160.39 64.058C160.213 64.4593 160.124 64.9167 160.124 65.43C160.124 66.242 160.325 66.886 160.726 67.362C161.137 67.838 161.692 68.076 162.392 68.076Z" fill="#012137"/>
<path d="M210.966 59.76C212.422 59.76 213.561 60.1567 214.382 60.95C215.203 61.7433 215.614 62.882 215.614 64.366C215.614 65.8593 215.203 67.0073 214.382 67.81C213.561 68.6033 212.422 69 210.966 69H207.998V59.76H210.966ZM211.064 68.034C212.156 68.034 213.005 67.712 213.612 67.068C214.219 66.424 214.522 65.5233 214.522 64.366C214.522 63.218 214.219 62.3267 213.612 61.692C213.005 61.048 212.156 60.726 211.064 60.726H209.034V68.034H211.064ZM217.755 69V62H218.609L218.749 63.204C218.935 62.7653 219.22 62.434 219.603 62.21C219.985 61.9767 220.447 61.86 220.989 61.86C221.119 61.86 221.259 61.874 221.409 61.902C221.558 61.9207 221.684 61.958 221.787 62.014L221.591 62.966C221.488 62.9193 221.376 62.8867 221.255 62.868C221.133 62.84 220.961 62.826 220.737 62.826C220.429 62.826 220.125 62.9147 219.827 63.092C219.528 63.2693 219.281 63.5353 219.085 63.89C218.889 64.2353 218.791 64.6693 218.791 65.192V69H217.755ZM227.326 64.464C227.326 63.9227 227.182 63.5073 226.892 63.218C226.603 62.9193 226.192 62.77 225.66 62.77C225.166 62.77 224.746 62.8773 224.4 63.092C224.055 63.3067 223.798 63.652 223.63 64.128L222.79 63.61C222.986 63.078 223.332 62.6533 223.826 62.336C224.33 62.0187 224.951 61.86 225.688 61.86C226.192 61.86 226.645 61.9487 227.046 62.126C227.457 62.294 227.779 62.5553 228.012 62.91C228.246 63.2647 228.362 63.7127 228.362 64.254V67.67C228.362 68.034 228.549 68.216 228.922 68.216C229.1 68.216 229.272 68.1927 229.44 68.146L229.384 68.958C229.207 69.0513 228.974 69.098 228.684 69.098C228.423 69.098 228.185 69.0513 227.97 68.958C227.765 68.8553 227.602 68.7013 227.48 68.496C227.359 68.2813 227.298 68.0153 227.298 67.698V67.516L227.564 67.544C227.462 67.9173 227.27 68.2207 226.99 68.454C226.72 68.6873 226.412 68.86 226.066 68.972C225.721 69.084 225.38 69.14 225.044 69.14C224.634 69.14 224.251 69.07 223.896 68.93C223.542 68.79 223.262 68.58 223.056 68.3C222.851 68.02 222.748 67.67 222.748 67.25C222.748 66.7273 222.921 66.298 223.266 65.962C223.621 65.626 224.111 65.3973 224.736 65.276L227.536 64.73V65.584L225.226 66.06C224.75 66.1533 224.396 66.2887 224.162 66.466C223.929 66.6433 223.812 66.886 223.812 67.194C223.812 67.5113 223.929 67.7633 224.162 67.95C224.405 68.1367 224.75 68.23 225.198 68.23C225.469 68.23 225.73 68.1973 225.982 68.132C226.234 68.0573 226.463 67.9453 226.668 67.796C226.874 67.6467 227.032 67.46 227.144 67.236C227.266 67.012 227.326 66.746 227.326 66.438V64.464ZM231.562 60.656C231.329 60.656 231.137 60.586 230.988 60.446C230.848 60.2967 230.778 60.1007 230.778 59.858C230.778 59.6247 230.848 59.438 230.988 59.298C231.137 59.1487 231.329 59.074 231.562 59.074C231.805 59.074 231.996 59.1487 232.136 59.298C232.285 59.438 232.36 59.6247 232.36 59.858C232.36 60.1007 232.285 60.2967 232.136 60.446C231.996 60.586 231.805 60.656 231.562 60.656ZM232.08 62V69H231.044V62H232.08ZM234.667 69V62H235.577L235.675 63.61L235.507 63.456C235.647 63.0827 235.843 62.7793 236.095 62.546C236.356 62.3033 236.655 62.1307 236.991 62.028C237.327 61.916 237.677 61.86 238.041 61.86C238.554 61.86 239.012 61.958 239.413 62.154C239.824 62.3407 240.15 62.63 240.393 63.022C240.645 63.414 240.771 63.9087 240.771 64.506V69H239.735V64.87C239.735 64.0953 239.562 63.554 239.217 63.246C238.881 62.9287 238.456 62.77 237.943 62.77C237.588 62.77 237.238 62.854 236.893 63.022C236.548 63.19 236.263 63.456 236.039 63.82C235.815 64.1747 235.703 64.646 235.703 65.234V69H234.667ZM243.798 60.656C243.565 60.656 243.374 60.586 243.224 60.446C243.084 60.2967 243.014 60.1007 243.014 59.858C243.014 59.6247 243.084 59.438 243.224 59.298C243.374 59.1487 243.565 59.074 243.798 59.074C244.041 59.074 244.232 59.1487 244.372 59.298C244.522 59.438 244.596 59.6247 244.596 59.858C244.596 60.1007 244.522 60.2967 244.372 60.446C244.232 60.586 244.041 60.656 243.798 60.656ZM244.316 62V69H243.28V62H244.316ZM246.903 69V62H247.813L247.911 63.61L247.743 63.456C247.883 63.0827 248.079 62.7793 248.331 62.546C248.593 62.3033 248.891 62.1307 249.227 62.028C249.563 61.916 249.913 61.86 250.277 61.86C250.791 61.86 251.248 61.958 251.649 62.154C252.06 62.3407 252.387 62.63 252.629 63.022C252.881 63.414 253.007 63.9087 253.007 64.506V69H251.971V64.87C251.971 64.0953 251.799 63.554 251.453 63.246C251.117 62.9287 250.693 62.77 250.179 62.77C249.825 62.77 249.475 62.854 249.129 63.022C248.784 63.19 248.499 63.456 248.275 63.82C248.051 64.1747 247.939 64.646 247.939 65.234V69H246.903ZM258.275 72.01C257.761 72.01 257.276 71.9307 256.819 71.772C256.371 71.6227 255.993 71.3893 255.685 71.072C255.377 70.7547 255.176 70.3533 255.083 69.868L256.105 69.56C256.198 70.0547 256.436 70.4327 256.819 70.694C257.211 70.9647 257.743 71.1 258.415 71.1C259.143 71.1 259.698 70.8807 260.081 70.442C260.463 70.0033 260.655 69.4293 260.655 68.72V67.6C260.449 68.0013 260.141 68.3327 259.731 68.594C259.329 68.8553 258.853 68.986 258.303 68.986C257.677 68.986 257.122 68.846 256.637 68.566C256.161 68.2767 255.783 67.866 255.503 67.334C255.223 66.802 255.083 66.1673 255.083 65.43C255.083 64.6833 255.237 64.044 255.545 63.512C255.853 62.98 256.249 62.574 256.735 62.294C257.229 62.0047 257.743 61.86 258.275 61.86C258.872 61.86 259.376 61.9813 259.787 62.224C260.197 62.4573 260.505 62.7793 260.711 63.19L260.795 61.986H261.705V68.482C261.705 69.2753 261.574 69.9333 261.313 70.456C261.051 70.9787 260.664 71.366 260.151 71.618C259.647 71.8793 259.021 72.01 258.275 72.01ZM258.387 68.076C259.068 68.076 259.614 67.8473 260.025 67.39C260.445 66.9327 260.655 66.2793 260.655 65.43C260.655 64.5713 260.445 63.9133 260.025 63.456C259.614 62.9987 259.068 62.77 258.387 62.77C257.911 62.77 257.505 62.8867 257.169 63.12C256.833 63.344 256.571 63.6567 256.385 64.058C256.207 64.4593 256.119 64.9167 256.119 65.43C256.119 66.242 256.319 66.886 256.721 67.362C257.131 67.838 257.687 68.076 258.387 68.076Z" fill="#012137"/>
<path d="M307.218 59.76C307.853 59.76 308.399 59.8767 308.856 60.11C309.323 60.334 309.687 60.656 309.948 61.076C310.209 61.4867 310.34 61.9767 310.34 62.546C310.34 63.1247 310.209 63.624 309.948 64.044C309.687 64.4547 309.323 64.7767 308.856 65.01C308.399 65.234 307.853 65.346 307.218 65.346H305.034V69H303.998V59.76H307.218ZM307.078 64.38C307.815 64.38 308.361 64.2213 308.716 63.904C309.071 63.5867 309.248 63.134 309.248 62.546C309.248 61.958 309.071 61.51 308.716 61.202C308.361 60.8847 307.815 60.726 307.078 60.726H305.034V64.38H307.078ZM314.785 69.14C314.327 69.14 313.903 69.056 313.511 68.888C313.119 68.72 312.801 68.4493 312.559 68.076C312.316 67.6933 312.195 67.1987 312.195 66.592V62H313.231V66.326C313.231 67.0447 313.389 67.544 313.707 67.824C314.024 68.0947 314.472 68.23 315.051 68.23C315.331 68.23 315.601 68.1833 315.863 68.09C316.124 67.9873 316.357 67.838 316.563 67.642C316.768 67.446 316.927 67.1987 317.039 66.9C317.16 66.592 317.221 66.242 317.221 65.85V62H318.257V69H317.347L317.277 67.866C317.043 68.2953 316.712 68.6173 316.283 68.832C315.863 69.0373 315.363 69.14 314.785 69.14ZM320.837 69V62H321.747L321.817 63.162C322.059 62.7233 322.386 62.3967 322.797 62.182C323.217 61.9673 323.655 61.86 324.113 61.86C324.635 61.86 325.116 61.9813 325.555 62.224C325.993 62.4573 326.32 62.8167 326.535 63.302C326.684 62.9753 326.894 62.7093 327.165 62.504C327.435 62.2893 327.734 62.1307 328.061 62.028C328.397 61.916 328.719 61.86 329.027 61.86C329.484 61.86 329.913 61.9533 330.315 62.14C330.716 62.3267 331.043 62.616 331.295 63.008C331.556 63.4 331.687 63.8993 331.687 64.506V69H330.651V64.604C330.651 63.96 330.487 63.4933 330.161 63.204C329.834 62.9147 329.423 62.77 328.929 62.77C328.546 62.77 328.191 62.8633 327.865 63.05C327.538 63.2273 327.277 63.4933 327.081 63.848C326.885 64.1933 326.787 64.618 326.787 65.122V69H325.751V64.618C325.751 63.9647 325.583 63.4933 325.247 63.204C324.92 62.9147 324.514 62.77 324.029 62.77C323.693 62.77 323.357 62.8587 323.021 63.036C322.694 63.204 322.419 63.47 322.195 63.834C321.98 64.1887 321.873 64.6507 321.873 65.22V69H320.837ZM334.194 71.94V62H335.104L335.202 63.75L335.048 63.582C335.17 63.2367 335.352 62.938 335.594 62.686C335.846 62.4247 336.145 62.224 336.49 62.084C336.845 61.9347 337.228 61.86 337.638 61.86C338.217 61.86 338.744 62.0047 339.22 62.294C339.696 62.5833 340.079 62.9987 340.368 63.54C340.658 64.0813 340.802 64.7347 340.802 65.5C340.802 66.256 340.658 66.9093 340.368 67.46C340.079 68.0013 339.692 68.4167 339.206 68.706C338.721 68.9953 338.184 69.14 337.596 69.14C337.008 69.14 336.49 68.9953 336.042 68.706C335.604 68.4073 335.291 68.0247 335.104 67.558L335.23 67.362V71.94H334.194ZM337.498 68.23C338.208 68.23 338.763 67.9827 339.164 67.488C339.566 66.9933 339.766 66.3307 339.766 65.5C339.766 64.6693 339.57 64.0067 339.178 63.512C338.786 63.0173 338.236 62.77 337.526 62.77C337.069 62.77 336.668 62.882 336.322 63.106C335.986 63.33 335.72 63.6473 335.524 64.058C335.328 64.4593 335.23 64.94 335.23 65.5C335.23 66.0507 335.324 66.5313 335.51 66.942C335.706 67.3527 335.972 67.67 336.308 67.894C336.654 68.118 337.05 68.23 337.498 68.23ZM343.435 60.656C343.202 60.656 343.01 60.586 342.861 60.446C342.721 60.2967 342.651 60.1007 342.651 59.858C342.651 59.6247 342.721 59.438 342.861 59.298C343.01 59.1487 343.202 59.074 343.435 59.074C343.678 59.074 343.869 59.1487 344.009 59.298C344.158 59.438 344.233 59.6247 344.233 59.858C344.233 60.1007 344.158 60.2967 344.009 60.446C343.869 60.586 343.678 60.656 343.435 60.656ZM343.953 62V69H342.917V62H343.953ZM346.54 69V62H347.45L347.548 63.61L347.38 63.456C347.52 63.0827 347.716 62.7793 347.968 62.546C348.229 62.3033 348.528 62.1307 348.864 62.028C349.2 61.916 349.55 61.86 349.914 61.86C350.427 61.86 350.885 61.958 351.286 62.154C351.697 62.3407 352.023 62.63 352.266 63.022C352.518 63.414 352.644 63.9087 352.644 64.506V69H351.608V64.87C351.608 64.0953 351.435 63.554 351.09 63.246C350.754 62.9287 350.329 62.77 349.816 62.77C349.461 62.77 349.111 62.854 348.766 63.022C348.421 63.19 348.136 63.456 347.912 63.82C347.688 64.1747 347.576 64.646 347.576 65.234V69H346.54ZM357.911 72.01C357.398 72.01 356.913 71.9307 356.455 71.772C356.007 71.6227 355.629 71.3893 355.321 71.072C355.013 70.7547 354.813 70.3533 354.719 69.868L355.741 69.56C355.835 70.0547 356.073 70.4327 356.455 70.694C356.847 70.9647 357.379 71.1 358.051 71.1C358.779 71.1 359.335 70.8807 359.717 70.442C360.1 70.0033 360.291 69.4293 360.291 68.72V67.6C360.086 68.0013 359.778 68.3327 359.367 68.594C358.966 68.8553 358.49 68.986 357.939 68.986C357.314 68.986 356.759 68.846 356.273 68.566C355.797 68.2767 355.419 67.866 355.139 67.334C354.859 66.802 354.719 66.1673 354.719 65.43C354.719 64.6833 354.873 64.044 355.181 63.512C355.489 62.98 355.886 62.574 356.371 62.294C356.866 62.0047 357.379 61.86 357.911 61.86C358.509 61.86 359.013 61.9813 359.423 62.224C359.834 62.4573 360.142 62.7793 360.347 63.19L360.431 61.986H361.341V68.482C361.341 69.2753 361.211 69.9333 360.949 70.456C360.688 70.9787 360.301 71.366 359.787 71.618C359.283 71.8793 358.658 72.01 357.911 72.01ZM358.023 68.076C358.705 68.076 359.251 67.8473 359.661 67.39C360.081 66.9327 360.291 66.2793 360.291 65.43C360.291 64.5713 360.081 63.9133 359.661 63.456C359.251 62.9987 358.705 62.77 358.023 62.77C357.547 62.77 357.141 62.8867 356.805 63.12C356.469 63.344 356.208 63.6567 356.021 64.058C355.844 64.4593 355.755 64.9167 355.755 65.43C355.755 66.242 355.956 66.886 356.357 67.362C356.768 67.838 357.323 68.076 358.023 68.076ZM376.948 62H378.096L375.674 69H374.638L372.622 63.33L370.69 69H369.654L367.232 62H368.38L370.186 67.796L372.146 62H373.182L375.142 67.796L376.948 62ZM383.756 64.464C383.756 63.9227 383.611 63.5073 383.322 63.218C383.033 62.9193 382.622 62.77 382.09 62.77C381.595 62.77 381.175 62.8773 380.83 63.092C380.485 63.3067 380.228 63.652 380.06 64.128L379.22 63.61C379.416 63.078 379.761 62.6533 380.256 62.336C380.76 62.0187 381.381 61.86 382.118 61.86C382.622 61.86 383.075 61.9487 383.476 62.126C383.887 62.294 384.209 62.5553 384.442 62.91C384.675 63.2647 384.792 63.7127 384.792 64.254V67.67C384.792 68.034 384.979 68.216 385.352 68.216C385.529 68.216 385.702 68.1927 385.87 68.146L385.814 68.958C385.637 69.0513 385.403 69.098 385.114 69.098C384.853 69.098 384.615 69.0513 384.4 68.958C384.195 68.8553 384.031 68.7013 383.91 68.496C383.789 68.2813 383.728 68.0153 383.728 67.698V67.516L383.994 67.544C383.891 67.9173 383.7 68.2207 383.42 68.454C383.149 68.6873 382.841 68.86 382.496 68.972C382.151 69.084 381.81 69.14 381.474 69.14C381.063 69.14 380.681 69.07 380.326 68.93C379.971 68.79 379.691 68.58 379.486 68.3C379.281 68.02 379.178 67.67 379.178 67.25C379.178 66.7273 379.351 66.298 379.696 65.962C380.051 65.626 380.541 65.3973 381.166 65.276L383.966 64.73V65.584L381.656 66.06C381.18 66.1533 380.825 66.2887 380.592 66.466C380.359 66.6433 380.242 66.886 380.242 67.194C380.242 67.5113 380.359 67.7633 380.592 67.95C380.835 68.1367 381.18 68.23 381.628 68.23C381.899 68.23 382.16 68.1973 382.412 68.132C382.664 68.0573 382.893 67.9453 383.098 67.796C383.303 67.6467 383.462 67.46 383.574 67.236C383.695 67.012 383.756 66.746 383.756 66.438V64.464ZM388.768 60.026V67.082C388.768 67.446 388.866 67.7213 389.062 67.908C389.267 68.0853 389.533 68.174 389.86 68.174C390.13 68.174 390.364 68.1273 390.56 68.034C390.756 67.9407 390.933 67.8147 391.092 67.656L391.456 68.524C391.25 68.7107 391.003 68.86 390.714 68.972C390.424 69.084 390.093 69.14 389.72 69.14C389.365 69.14 389.034 69.0793 388.726 68.958C388.427 68.8273 388.189 68.622 388.012 68.342C387.834 68.062 387.741 67.7027 387.732 67.264V60.306L388.768 60.026ZM391.33 62V62.896H386.332V62H391.33ZM395.882 69.14C395.228 69.14 394.64 68.9953 394.118 68.706C393.604 68.4167 393.203 68.0013 392.914 67.46C392.624 66.9093 392.48 66.256 392.48 65.5C392.48 64.744 392.624 64.0953 392.914 63.554C393.203 63.0033 393.6 62.5833 394.104 62.294C394.608 62.0047 395.177 61.86 395.812 61.86C396.465 61.86 397.02 62 397.478 62.28C397.935 62.56 398.285 62.9427 398.528 63.428C398.77 63.9133 398.892 64.4593 398.892 65.066C398.892 65.206 398.887 65.3367 398.878 65.458C398.868 65.5793 398.854 65.6867 398.836 65.78H393.152V64.87H398.388L397.856 64.968C397.856 64.2773 397.664 63.7407 397.282 63.358C396.908 62.966 396.409 62.77 395.784 62.77C395.317 62.77 394.911 62.8773 394.566 63.092C394.23 63.3067 393.968 63.6193 393.782 64.03C393.595 64.4313 393.502 64.9213 393.502 65.5C393.502 66.0693 393.595 66.5593 393.782 66.97C393.978 67.3807 394.248 67.6933 394.594 67.908C394.948 68.1227 395.368 68.23 395.854 68.23C396.376 68.23 396.806 68.132 397.142 67.936C397.478 67.7307 397.744 67.4507 397.94 67.096L398.766 67.572C398.588 67.8987 398.36 68.1787 398.08 68.412C397.809 68.6453 397.487 68.8273 397.114 68.958C396.75 69.0793 396.339 69.14 395.882 69.14ZM400.995 69V62H401.849L401.989 63.204C402.176 62.7653 402.46 62.434 402.843 62.21C403.226 61.9767 403.688 61.86 404.229 61.86C404.36 61.86 404.5 61.874 404.649 61.902C404.798 61.9207 404.924 61.958 405.027 62.014L404.831 62.966C404.728 62.9193 404.616 62.8867 404.495 62.868C404.374 62.84 404.201 62.826 403.977 62.826C403.669 62.826 403.366 62.9147 403.067 63.092C402.768 63.2693 402.521 63.5353 402.325 63.89C402.129 64.2353 402.031 64.6693 402.031 65.192V69H400.995Z" fill="#012137"/>
<rect x="1" y="46" width="432" height="38" rx="19" stroke="#012137" stroke-width="2"/>
</g>
<rect x="796" y="19" width="322" height="91" rx="10" fill="#F3F5F7"/>
<line x1="888" y1="40" x2="854" y2="40" stroke="white" stroke-width="4"/>
<path d="M870 46.1136L870 33.8864C870 32.2596 868.161 31.3134 866.838 32.2589L858.278 38.3725C857.162 39.1702 857.162 40.8298 858.278 41.6275L866.838 47.7411C868.161 48.6866 870 47.7404 870 46.1136Z" fill="#1FA4F1"/>
<path d="M854 33.8864L854 46.1136C854 47.7404 855.839 48.6866 857.162 47.7411L865.722 41.6275C866.838 40.8298 866.838 39.1702 865.722 38.3725L857.162 32.2589C855.839 31.3134 854 32.2596 854 33.8864Z" fill="#1FA4F1"/>
<rect x="864" y="48" width="4" height="2" transform="rotate(180 864 48)" fill="#F3F5F7"/>
<path d="M872 33.8864V46.1136C872 47.7404 873.839 48.6866 875.162 47.7411L883.722 41.6275C884.838 40.8298 884.838 39.1702 883.722 38.3725L875.162 32.2589C873.839 31.3134 872 32.2596 872 33.8864Z" fill="#00D791"/>
<path d="M888 46.1136L888 33.8864C888 32.2596 886.161 31.3134 884.838 32.2589L876.278 38.3725C875.162 39.1702 875.162 40.8298 876.278 41.6275L884.838 47.7411C886.161 48.6866 888 47.7404 888 46.1136Z" fill="#00D791"/>
<rect x="878" y="32" width="4" height="2" fill="#F3F5F7"/>
<path d="M908.596 35.26L905.082 44.5H903.906L900.378 35.26H901.498L903.92 41.798L904.494 43.548L905.054 41.812L907.49 35.26H908.596ZM913.566 39.964C913.566 39.4227 913.422 39.0073 913.132 38.718C912.843 38.4193 912.432 38.27 911.9 38.27C911.406 38.27 910.986 38.3773 910.64 38.592C910.295 38.8067 910.038 39.152 909.87 39.628L909.03 39.11C909.226 38.578 909.572 38.1533 910.066 37.836C910.57 37.5187 911.191 37.36 911.928 37.36C912.432 37.36 912.885 37.4487 913.286 37.626C913.697 37.794 914.019 38.0553 914.252 38.41C914.486 38.7647 914.602 39.2127 914.602 39.754V43.17C914.602 43.534 914.789 43.716 915.162 43.716C915.34 43.716 915.512 43.6927 915.68 43.646L915.624 44.458C915.447 44.5513 915.214 44.598 914.924 44.598C914.663 44.598 914.425 44.5513 914.21 44.458C914.005 44.3553 913.842 44.2013 913.72 43.996C913.599 43.7813 913.538 43.5153 913.538 43.198V43.016L913.804 43.044C913.702 43.4173 913.51 43.7207 913.23 43.954C912.96 44.1873 912.652 44.36 912.306 44.472C911.961 44.584 911.62 44.64 911.284 44.64C910.874 44.64 910.491 44.57 910.136 44.43C909.782 44.29 909.502 44.08 909.296 43.8C909.091 43.52 908.988 43.17 908.988 42.75C908.988 42.2273 909.161 41.798 909.506 41.462C909.861 41.126 910.351 40.8973 910.976 40.776L913.776 40.23V41.084L911.466 41.56C910.99 41.6533 910.636 41.7887 910.402 41.966C910.169 42.1433 910.052 42.386 910.052 42.694C910.052 43.0113 910.169 43.2633 910.402 43.45C910.645 43.6367 910.99 43.73 911.438 43.73C911.709 43.73 911.97 43.6973 912.222 43.632C912.474 43.5573 912.703 43.4453 912.908 43.296C913.114 43.1467 913.272 42.96 913.384 42.736C913.506 42.512 913.566 42.246 913.566 41.938V39.964ZM918.348 34.28V44.5H917.312V34.28H918.348ZM925.638 37.5H926.716L923.804 44.5H922.768L919.856 37.5H921.032L923.3 43.45L925.638 37.5ZM931.079 44.64C930.426 44.64 929.838 44.4953 929.315 44.206C928.802 43.9167 928.4 43.5013 928.111 42.96C927.822 42.4093 927.677 41.756 927.677 41C927.677 40.244 927.822 39.5953 928.111 39.054C928.4 38.5033 928.797 38.0833 929.301 37.794C929.805 37.5047 930.374 37.36 931.009 37.36C931.662 37.36 932.218 37.5 932.675 37.78C933.132 38.06 933.482 38.4427 933.725 38.928C933.968 39.4133 934.089 39.9593 934.089 40.566C934.089 40.706 934.084 40.8367 934.075 40.958C934.066 41.0793 934.052 41.1867 934.033 41.28H928.349V40.37H933.585L933.053 40.468C933.053 39.7773 932.862 39.2407 932.479 38.858C932.106 38.466 931.606 38.27 930.981 38.27C930.514 38.27 930.108 38.3773 929.763 38.592C929.427 38.8067 929.166 39.1193 928.979 39.53C928.792 39.9313 928.699 40.4213 928.699 41C928.699 41.5693 928.792 42.0593 928.979 42.47C929.175 42.8807 929.446 43.1933 929.791 43.408C930.146 43.6227 930.566 43.73 931.051 43.73C931.574 43.73 932.003 43.632 932.339 43.436C932.675 43.2307 932.941 42.9507 933.137 42.596L933.963 43.072C933.786 43.3987 933.557 43.6787 933.277 43.912C933.006 44.1453 932.684 44.3273 932.311 44.458C931.947 44.5793 931.536 44.64 931.079 44.64ZM948.047 42.134C947.86 42.6567 947.585 43.1093 947.221 43.492C946.857 43.8653 946.428 44.15 945.933 44.346C945.448 44.542 944.916 44.64 944.337 44.64C943.46 44.64 942.704 44.4487 942.069 44.066C941.434 43.674 940.94 43.1233 940.585 42.414C940.24 41.7047 940.067 40.86 940.067 39.88C940.067 38.9 940.24 38.0553 940.585 37.346C940.94 36.6367 941.434 36.0907 942.069 35.708C942.704 35.316 943.45 35.12 944.309 35.12C944.906 35.12 945.438 35.204 945.905 35.372C946.381 35.5307 946.782 35.7733 947.109 36.1C947.436 36.4267 947.697 36.828 947.893 37.304L946.871 37.78C946.666 37.2293 946.358 36.8093 945.947 36.52C945.546 36.2307 945.023 36.086 944.379 36.086C943.744 36.086 943.184 36.24 942.699 36.548C942.214 36.8467 941.836 37.276 941.565 37.836C941.294 38.396 941.159 39.0773 941.159 39.88C941.159 40.6733 941.285 41.3547 941.537 41.924C941.798 42.484 942.167 42.918 942.643 43.226C943.119 43.5247 943.684 43.674 944.337 43.674C944.972 43.674 945.522 43.5153 945.989 43.198C946.465 42.8713 946.806 42.3907 947.011 41.756L948.047 42.134ZM952.858 37.36C953.511 37.36 954.09 37.5047 954.594 37.794C955.107 38.0833 955.509 38.5033 955.798 39.054C956.087 39.5953 956.232 40.244 956.232 41C956.232 41.756 956.087 42.4093 955.798 42.96C955.509 43.5013 955.107 43.9167 954.594 44.206C954.09 44.4953 953.511 44.64 952.858 44.64C952.205 44.64 951.621 44.4953 951.108 44.206C950.595 43.9167 950.193 43.5013 949.904 42.96C949.615 42.4093 949.47 41.756 949.47 41C949.47 40.244 949.615 39.5953 949.904 39.054C950.193 38.5033 950.595 38.0833 951.108 37.794C951.621 37.5047 952.205 37.36 952.858 37.36ZM952.858 38.256C952.363 38.256 951.943 38.368 951.598 38.592C951.253 38.8067 950.982 39.1193 950.786 39.53C950.599 39.9313 950.506 40.4213 950.506 41C950.506 41.5693 950.599 42.0593 950.786 42.47C950.982 42.8807 951.253 43.198 951.598 43.422C951.943 43.6367 952.363 43.744 952.858 43.744C953.343 43.744 953.759 43.6367 954.104 43.422C954.449 43.198 954.715 42.8807 954.902 42.47C955.098 42.0593 955.196 41.5693 955.196 41C955.196 40.4213 955.098 39.9313 954.902 39.53C954.715 39.1193 954.449 38.8067 954.104 38.592C953.759 38.368 953.343 38.256 952.858 38.256ZM958.313 44.5V37.5H959.223L959.321 39.11L959.153 38.956C959.293 38.5827 959.489 38.2793 959.741 38.046C960.003 37.8033 960.301 37.6307 960.637 37.528C960.973 37.416 961.323 37.36 961.687 37.36C962.201 37.36 962.658 37.458 963.059 37.654C963.47 37.8407 963.797 38.13 964.039 38.522C964.291 38.914 964.417 39.4087 964.417 40.006V44.5H963.381V40.37C963.381 39.5953 963.209 39.054 962.863 38.746C962.527 38.4287 962.103 38.27 961.589 38.27C961.235 38.27 960.885 38.354 960.539 38.522C960.194 38.69 959.909 38.956 959.685 39.32C959.461 39.6747 959.349 40.146 959.349 40.734V44.5H958.313ZM968.371 35.526V42.582C968.371 42.946 968.469 43.2213 968.665 43.408C968.871 43.5853 969.137 43.674 969.463 43.674C969.734 43.674 969.967 43.6273 970.163 43.534C970.359 43.4407 970.537 43.3147 970.695 43.156L971.059 44.024C970.854 44.2107 970.607 44.36 970.317 44.472C970.028 44.584 969.697 44.64 969.323 44.64C968.969 44.64 968.637 44.5793 968.329 44.458C968.031 44.3273 967.793 44.122 967.615 43.842C967.438 43.562 967.345 43.2027 967.335 42.764V35.806L968.371 35.526ZM970.933 37.5V38.396H965.935V37.5H970.933ZM972.573 44.5V37.5H973.427L973.567 38.704C973.754 38.2653 974.038 37.934 974.421 37.71C974.804 37.4767 975.266 37.36 975.807 37.36C975.938 37.36 976.078 37.374 976.227 37.402C976.376 37.4207 976.502 37.458 976.605 37.514L976.409 38.466C976.306 38.4193 976.194 38.3867 976.073 38.368C975.952 38.34 975.779 38.326 975.555 38.326C975.247 38.326 974.944 38.4147 974.645 38.592C974.346 38.7693 974.099 39.0353 973.903 39.39C973.707 39.7353 973.609 40.1693 973.609 40.692V44.5H972.573ZM980.858 37.36C981.511 37.36 982.09 37.5047 982.594 37.794C983.107 38.0833 983.509 38.5033 983.798 39.054C984.087 39.5953 984.232 40.244 984.232 41C984.232 41.756 984.087 42.4093 983.798 42.96C983.509 43.5013 983.107 43.9167 982.594 44.206C982.09 44.4953 981.511 44.64 980.858 44.64C980.205 44.64 979.621 44.4953 979.108 44.206C978.595 43.9167 978.193 43.5013 977.904 42.96C977.615 42.4093 977.47 41.756 977.47 41C977.47 40.244 977.615 39.5953 977.904 39.054C978.193 38.5033 978.595 38.0833 979.108 37.794C979.621 37.5047 980.205 37.36 980.858 37.36ZM980.858 38.256C980.363 38.256 979.943 38.368 979.598 38.592C979.253 38.8067 978.982 39.1193 978.786 39.53C978.599 39.9313 978.506 40.4213 978.506 41C978.506 41.5693 978.599 42.0593 978.786 42.47C978.982 42.8807 979.253 43.198 979.598 43.422C979.943 43.6367 980.363 43.744 980.858 43.744C981.343 43.744 981.759 43.6367 982.104 43.422C982.449 43.198 982.715 42.8807 982.902 42.47C983.098 42.0593 983.196 41.5693 983.196 41C983.196 40.4213 983.098 39.9313 982.902 39.53C982.715 39.1193 982.449 38.8067 982.104 38.592C981.759 38.368 981.343 38.256 980.858 38.256ZM987.377 34.28V44.5H986.341V34.28H987.377Z" fill="#012137"/>
<line x1="888" y1="65" x2="854" y2="65" stroke="white" stroke-width="4"/>
<path d="M863 58.8864V71.1136C863 72.7404 864.839 73.6866 866.162 72.7411L874.722 66.6275C875.838 65.8298 875.838 64.1702 874.722 63.3725L866.162 57.2589C864.839 56.3134 863 57.2596 863 58.8864Z" fill="#E682E8"/>
<path d="M879 71.1136L879 58.8864C879 57.2596 877.161 56.3134 875.838 57.2589L867.278 63.3725C866.162 64.1702 866.162 65.8298 867.278 66.6275L875.838 72.7411C877.161 73.6866 879 72.7404 879 71.1136Z" fill="#E682E8"/>
<rect x="869" y="57" width="4" height="2" fill="#F3F5F7"/>
<path d="M902.534 60.26V69.5H901.498V60.26H902.534ZM905.253 69.5V62.5H906.163L906.261 64.11L906.093 63.956C906.233 63.5827 906.429 63.2793 906.681 63.046C906.942 62.8033 907.241 62.6307 907.577 62.528C907.913 62.416 908.263 62.36 908.627 62.36C909.14 62.36 909.598 62.458 909.999 62.654C910.41 62.8407 910.736 63.13 910.979 63.522C911.231 63.914 911.357 64.4087 911.357 65.006V69.5H910.321V65.37C910.321 64.5953 910.148 64.054 909.803 63.746C909.467 63.4287 909.042 63.27 908.529 63.27C908.174 63.27 907.824 63.354 907.479 63.522C907.134 63.69 906.849 63.956 906.625 64.32C906.401 64.6747 906.289 65.146 906.289 65.734V69.5H905.253ZM914.384 61.156C914.151 61.156 913.959 61.086 913.81 60.946C913.67 60.7967 913.6 60.6007 913.6 60.358C913.6 60.1247 913.67 59.938 913.81 59.798C913.959 59.6487 914.151 59.574 914.384 59.574C914.627 59.574 914.818 59.6487 914.958 59.798C915.107 59.938 915.182 60.1247 915.182 60.358C915.182 60.6007 915.107 60.7967 914.958 60.946C914.818 61.086 914.627 61.156 914.384 61.156ZM914.902 62.5V70.228C914.902 70.7973 914.795 71.2453 914.58 71.572C914.365 71.908 914.095 72.146 913.768 72.286C913.451 72.4353 913.129 72.51 912.802 72.51C912.522 72.51 912.265 72.468 912.032 72.384C911.789 72.3 911.593 72.1927 911.444 72.062L911.668 71.082C911.799 71.2033 911.962 71.3013 912.158 71.376C912.345 71.46 912.555 71.502 912.788 71.502C913.105 71.502 913.362 71.3947 913.558 71.18C913.763 70.9747 913.866 70.6247 913.866 70.13V62.5H914.902ZM920.401 69.64C919.748 69.64 919.16 69.4953 918.637 69.206C918.124 68.9167 917.723 68.5013 917.433 67.96C917.144 67.4093 916.999 66.756 916.999 66C916.999 65.244 917.144 64.5953 917.433 64.054C917.723 63.5033 918.119 63.0833 918.623 62.794C919.127 62.5047 919.697 62.36 920.331 62.36C920.985 62.36 921.54 62.5 921.997 62.78C922.455 63.06 922.805 63.4427 923.047 63.928C923.29 64.4133 923.411 64.9593 923.411 65.566C923.411 65.706 923.407 65.8367 923.397 65.958C923.388 66.0793 923.374 66.1867 923.355 66.28H917.671V65.37H922.907L922.375 65.468C922.375 64.7773 922.184 64.2407 921.801 63.858C921.428 63.466 920.929 63.27 920.303 63.27C919.837 63.27 919.431 63.3773 919.085 63.592C918.749 63.8067 918.488 64.1193 918.301 64.53C918.115 64.9313 918.021 65.4213 918.021 66C918.021 66.5693 918.115 67.0593 918.301 67.47C918.497 67.8807 918.768 68.1933 919.113 68.408C919.468 68.6227 919.888 68.73 920.373 68.73C920.896 68.73 921.325 68.632 921.661 68.436C921.997 68.2307 922.263 67.9507 922.459 67.596L923.285 68.072C923.108 68.3987 922.879 68.6787 922.599 68.912C922.329 69.1453 922.007 69.3273 921.633 69.458C921.269 69.5793 920.859 69.64 920.401 69.64ZM928.399 62.36C928.884 62.36 929.309 62.4347 929.673 62.584C930.046 62.7333 930.368 62.948 930.639 63.228C930.909 63.508 931.124 63.8393 931.283 64.222L930.303 64.698C930.153 64.2313 929.92 63.8767 929.603 63.634C929.285 63.3913 928.875 63.27 928.371 63.27C927.895 63.27 927.484 63.3773 927.139 63.592C926.793 63.8067 926.527 64.1193 926.341 64.53C926.154 64.9313 926.061 65.4213 926.061 66C926.061 66.5693 926.154 67.0593 926.341 67.47C926.527 67.8807 926.793 68.1933 927.139 68.408C927.484 68.6227 927.895 68.73 928.371 68.73C928.744 68.73 929.066 68.674 929.337 68.562C929.617 68.4407 929.845 68.2727 930.023 68.058C930.209 67.834 930.335 67.5633 930.401 67.246L931.353 67.582C931.203 68.0113 930.989 68.38 930.709 68.688C930.438 68.996 930.107 69.234 929.715 69.402C929.332 69.5607 928.893 69.64 928.399 69.64C927.745 69.64 927.162 69.4953 926.649 69.206C926.145 68.9167 925.748 68.5013 925.459 67.96C925.169 67.4093 925.025 66.756 925.025 66C925.025 65.244 925.169 64.5953 925.459 64.054C925.748 63.5033 926.149 63.0833 926.663 62.794C927.176 62.5047 927.755 62.36 928.399 62.36ZM934.862 60.526V67.582C934.862 67.946 934.96 68.2213 935.156 68.408C935.361 68.5853 935.627 68.674 935.954 68.674C936.224 68.674 936.458 68.6273 936.654 68.534C936.85 68.4407 937.027 68.3147 937.186 68.156L937.55 69.024C937.344 69.2107 937.097 69.36 936.808 69.472C936.518 69.584 936.187 69.64 935.814 69.64C935.459 69.64 935.128 69.5793 934.82 69.458C934.521 69.3273 934.283 69.122 934.106 68.842C933.928 68.562 933.835 68.2027 933.826 67.764V60.806L934.862 60.526ZM937.424 62.5V63.396H932.426V62.5H937.424ZM941.961 62.36C942.615 62.36 943.193 62.5047 943.697 62.794C944.211 63.0833 944.612 63.5033 944.901 64.054C945.191 64.5953 945.335 65.244 945.335 66C945.335 66.756 945.191 67.4093 944.901 67.96C944.612 68.5013 944.211 68.9167 943.697 69.206C943.193 69.4953 942.615 69.64 941.961 69.64C941.308 69.64 940.725 69.4953 940.211 69.206C939.698 68.9167 939.297 68.5013 939.007 67.96C938.718 67.4093 938.573 66.756 938.573 66C938.573 65.244 938.718 64.5953 939.007 64.054C939.297 63.5033 939.698 63.0833 940.211 62.794C940.725 62.5047 941.308 62.36 941.961 62.36ZM941.961 63.256C941.467 63.256 941.047 63.368 940.701 63.592C940.356 63.8067 940.085 64.1193 939.889 64.53C939.703 64.9313 939.609 65.4213 939.609 66C939.609 66.5693 939.703 67.0593 939.889 67.47C940.085 67.8807 940.356 68.198 940.701 68.422C941.047 68.6367 941.467 68.744 941.961 68.744C942.447 68.744 942.862 68.6367 943.207 68.422C943.553 68.198 943.819 67.8807 944.005 67.47C944.201 67.0593 944.299 66.5693 944.299 66C944.299 65.4213 944.201 64.9313 944.005 64.53C943.819 64.1193 943.553 63.8067 943.207 63.592C942.862 63.368 942.447 63.256 941.961 63.256ZM947.417 69.5V62.5H948.271L948.411 63.704C948.598 63.2653 948.882 62.934 949.265 62.71C949.648 62.4767 950.11 62.36 950.651 62.36C950.782 62.36 950.922 62.374 951.071 62.402C951.22 62.4207 951.346 62.458 951.449 62.514L951.253 63.466C951.15 63.4193 951.038 63.3867 950.917 63.368C950.796 63.34 950.623 63.326 950.399 63.326C950.091 63.326 949.788 63.4147 949.489 63.592C949.19 63.7693 948.943 64.0353 948.747 64.39C948.551 64.7353 948.453 65.1693 948.453 65.692V69.5H947.417ZM955.255 69.64C954.564 69.64 953.934 69.4953 953.365 69.206C952.805 68.9167 952.375 68.506 952.077 67.974L952.959 67.344C953.164 67.7827 953.467 68.1233 953.869 68.366C954.27 68.6087 954.76 68.73 955.339 68.73C955.852 68.73 956.253 68.632 956.543 68.436C956.841 68.2307 956.991 67.9647 956.991 67.638C956.991 67.4233 956.921 67.232 956.781 67.064C956.65 66.896 956.398 66.77 956.025 66.686L954.345 66.336C953.673 66.196 953.187 65.9673 952.889 65.65C952.599 65.3233 952.455 64.922 952.455 64.446C952.455 64.0633 952.562 63.718 952.777 63.41C953.001 63.0927 953.313 62.8407 953.715 62.654C954.125 62.458 954.601 62.36 955.143 62.36C955.833 62.36 956.417 62.4953 956.893 62.766C957.369 63.0367 957.719 63.424 957.943 63.928L957.075 64.502C956.916 64.0727 956.655 63.76 956.291 63.564C955.936 63.368 955.553 63.27 955.143 63.27C954.797 63.27 954.499 63.3213 954.247 63.424C954.004 63.5173 953.813 63.648 953.673 63.816C953.542 63.984 953.477 64.18 953.477 64.404C953.477 64.6187 953.551 64.8193 953.701 65.006C953.85 65.1833 954.125 65.314 954.527 65.398L956.263 65.762C956.916 65.8927 957.373 66.1073 957.635 66.406C957.896 66.6953 958.027 67.0547 958.027 67.484C958.027 67.9133 957.91 68.296 957.677 68.632C957.453 68.9587 957.131 69.2107 956.711 69.388C956.291 69.556 955.805 69.64 955.255 69.64ZM971.945 67.134C971.759 67.6567 971.483 68.1093 971.119 68.492C970.755 68.8653 970.326 69.15 969.831 69.346C969.346 69.542 968.814 69.64 968.235 69.64C967.358 69.64 966.602 69.4487 965.967 69.066C965.333 68.674 964.838 68.1233 964.483 67.414C964.138 66.7047 963.965 65.86 963.965 64.88C963.965 63.9 964.138 63.0553 964.483 62.346C964.838 61.6367 965.333 61.0907 965.967 60.708C966.602 60.316 967.349 60.12 968.207 60.12C968.805 60.12 969.337 60.204 969.803 60.372C970.279 60.5307 970.681 60.7733 971.007 61.1C971.334 61.4267 971.595 61.828 971.791 62.304L970.769 62.78C970.564 62.2293 970.256 61.8093 969.845 61.52C969.444 61.2307 968.921 61.086 968.277 61.086C967.643 61.086 967.083 61.24 966.597 61.548C966.112 61.8467 965.734 62.276 965.463 62.836C965.193 63.396 965.057 64.0773 965.057 64.88C965.057 65.6733 965.183 66.3547 965.435 66.924C965.697 67.484 966.065 67.918 966.541 68.226C967.017 68.5247 967.582 68.674 968.235 68.674C968.87 68.674 969.421 68.5153 969.887 68.198C970.363 67.8713 970.704 67.3907 970.909 66.756L971.945 67.134ZM976.756 62.36C977.41 62.36 977.988 62.5047 978.492 62.794C979.006 63.0833 979.407 63.5033 979.696 64.054C979.986 64.5953 980.13 65.244 980.13 66C980.13 66.756 979.986 67.4093 979.696 67.96C979.407 68.5013 979.006 68.9167 978.492 69.206C977.988 69.4953 977.41 69.64 976.756 69.64C976.103 69.64 975.52 69.4953 975.006 69.206C974.493 68.9167 974.092 68.5013 973.802 67.96C973.513 67.4093 973.368 66.756 973.368 66C973.368 65.244 973.513 64.5953 973.802 64.054C974.092 63.5033 974.493 63.0833 975.006 62.794C975.52 62.5047 976.103 62.36 976.756 62.36ZM976.756 63.256C976.262 63.256 975.842 63.368 975.496 63.592C975.151 63.8067 974.88 64.1193 974.684 64.53C974.498 64.9313 974.404 65.4213 974.404 66C974.404 66.5693 974.498 67.0593 974.684 67.47C974.88 67.8807 975.151 68.198 975.496 68.422C975.842 68.6367 976.262 68.744 976.756 68.744C977.242 68.744 977.657 68.6367 978.002 68.422C978.348 68.198 978.614 67.8807 978.8 67.47C978.996 67.0593 979.094 66.5693 979.094 66C979.094 65.4213 978.996 64.9313 978.8 64.53C978.614 64.1193 978.348 63.8067 978.002 63.592C977.657 63.368 977.242 63.256 976.756 63.256ZM982.212 69.5V62.5H983.122L983.22 64.11L983.052 63.956C983.192 63.5827 983.388 63.2793 983.64 63.046C983.901 62.8033 984.2 62.6307 984.536 62.528C984.872 62.416 985.222 62.36 985.586 62.36C986.099 62.36 986.556 62.458 986.958 62.654C987.368 62.8407 987.695 63.13 987.938 63.522C988.19 63.914 988.316 64.4087 988.316 65.006V69.5H987.28V65.37C987.28 64.5953 987.107 64.054 986.762 63.746C986.426 63.4287 986.001 63.27 985.488 63.27C985.133 63.27 984.783 63.354 984.438 63.522C984.092 63.69 983.808 63.956 983.584 64.32C983.36 64.6747 983.248 65.146 983.248 65.734V69.5H982.212ZM992.27 60.526V67.582C992.27 67.946 992.368 68.2213 992.564 68.408C992.769 68.5853 993.035 68.674 993.362 68.674C993.632 68.674 993.866 68.6273 994.062 68.534C994.258 68.4407 994.435 68.3147 994.594 68.156L994.958 69.024C994.752 69.2107 994.505 69.36 994.216 69.472C993.926 69.584 993.595 69.64 993.222 69.64C992.867 69.64 992.536 69.5793 992.228 69.458C991.929 69.3273 991.691 69.122 991.514 68.842C991.336 68.562 991.243 68.2027 991.234 67.764V60.806L992.27 60.526ZM994.832 62.5V63.396H989.834V62.5H994.832ZM996.472 69.5V62.5H997.326L997.466 63.704C997.652 63.2653 997.937 62.934 998.32 62.71C998.702 62.4767 999.164 62.36 999.706 62.36C999.836 62.36 999.976 62.374 1000.13 62.402C1000.27 62.4207 1000.4 62.458 1000.5 62.514L1000.31 63.466C1000.2 63.4193 1000.09 63.3867 999.972 63.368C999.85 63.34 999.678 63.326 999.454 63.326C999.146 63.326 998.842 63.4147 998.544 63.592C998.245 63.7693 997.998 64.0353 997.802 64.39C997.606 64.7353 997.508 65.1693 997.508 65.692V69.5H996.472ZM1004.76 62.36C1005.41 62.36 1005.99 62.5047 1006.49 62.794C1007.01 63.0833 1007.41 63.5033 1007.7 64.054C1007.99 64.5953 1008.13 65.244 1008.13 66C1008.13 66.756 1007.99 67.4093 1007.7 67.96C1007.41 68.5013 1007.01 68.9167 1006.49 69.206C1005.99 69.4953 1005.41 69.64 1004.76 69.64C1004.1 69.64 1003.52 69.4953 1003.01 69.206C1002.49 68.9167 1002.09 68.5013 1001.8 67.96C1001.51 67.4093 1001.37 66.756 1001.37 66C1001.37 65.244 1001.51 64.5953 1001.8 64.054C1002.09 63.5033 1002.49 63.0833 1003.01 62.794C1003.52 62.5047 1004.1 62.36 1004.76 62.36ZM1004.76 63.256C1004.26 63.256 1003.84 63.368 1003.5 63.592C1003.15 63.8067 1002.88 64.1193 1002.68 64.53C1002.5 64.9313 1002.4 65.4213 1002.4 66C1002.4 66.5693 1002.5 67.0593 1002.68 67.47C1002.88 67.8807 1003.15 68.198 1003.5 68.422C1003.84 68.6367 1004.26 68.744 1004.76 68.744C1005.24 68.744 1005.66 68.6367 1006 68.422C1006.35 68.198 1006.61 67.8807 1006.8 67.47C1007 67.0593 1007.09 66.5693 1007.09 66C1007.09 65.4213 1007 64.9313 1006.8 64.53C1006.61 64.1193 1006.35 63.8067 1006 63.592C1005.66 63.368 1005.24 63.256 1004.76 63.256ZM1011.28 59.28V69.5H1010.24V59.28H1011.28Z" fill="#012137"/>
<rect x="854" y="80" width="34" height="16" rx="5" fill="#1FA4F1"/>
<path d="M878 87C877.448 87 877 87.4477 877 88C877 88.5523 877.448 89 878 89L878 87ZM878 89L888 89L888 87L878 87L878 89Z" fill="#012137"/>
<path d="M904.452 83.12C905.264 83.12 905.964 83.288 906.552 83.624C907.14 83.9507 907.621 84.4407 907.994 85.094L907.126 85.766C906.799 85.1593 906.412 84.73 905.964 84.478C905.525 84.2167 904.984 84.086 904.34 84.086C903.836 84.086 903.416 84.1607 903.08 84.31C902.753 84.4593 902.511 84.6553 902.352 84.898C902.193 85.1313 902.114 85.3973 902.114 85.696C902.114 86.0413 902.221 86.3447 902.436 86.606C902.66 86.858 903.094 87.0587 903.738 87.208L905.698 87.642C906.585 87.838 907.205 88.132 907.56 88.524C907.915 88.9067 908.092 89.392 908.092 89.98C908.092 90.5027 907.943 90.9647 907.644 91.366C907.355 91.7673 906.944 92.08 906.412 92.304C905.889 92.528 905.269 92.64 904.55 92.64C903.887 92.64 903.299 92.5513 902.786 92.374C902.273 92.1873 901.834 91.94 901.47 91.632C901.115 91.3147 900.826 90.9553 900.602 90.554L901.512 89.826C901.68 90.1993 901.904 90.526 902.184 90.806C902.473 91.0767 902.819 91.2913 903.22 91.45C903.631 91.5993 904.097 91.674 904.62 91.674C905.105 91.674 905.525 91.6133 905.88 91.492C906.244 91.3707 906.524 91.1887 906.72 90.946C906.916 90.7033 907.014 90.414 907.014 90.078C907.014 89.7607 906.907 89.4807 906.692 89.238C906.487 88.986 906.095 88.7993 905.516 88.678L903.402 88.202C902.833 88.0713 902.371 87.894 902.016 87.67C901.661 87.4367 901.405 87.166 901.246 86.858C901.097 86.55 901.022 86.2093 901.022 85.836C901.022 85.3507 901.157 84.9027 901.428 84.492C901.708 84.0813 902.105 83.75 902.618 83.498C903.131 83.246 903.743 83.12 904.452 83.12ZM913.114 92.64C912.461 92.64 911.873 92.4953 911.35 92.206C910.837 91.9167 910.435 91.5013 910.146 90.96C909.857 90.4093 909.712 89.756 909.712 89C909.712 88.244 909.857 87.5953 910.146 87.054C910.435 86.5033 910.832 86.0833 911.336 85.794C911.84 85.5047 912.409 85.36 913.044 85.36C913.697 85.36 914.253 85.5 914.71 85.78C915.167 86.06 915.517 86.4427 915.76 86.928C916.003 87.4133 916.124 87.9593 916.124 88.566C916.124 88.706 916.119 88.8367 916.11 88.958C916.101 89.0793 916.087 89.1867 916.068 89.28H910.384V88.37H915.62L915.088 88.468C915.088 87.7773 914.897 87.2407 914.514 86.858C914.141 86.466 913.641 86.27 913.016 86.27C912.549 86.27 912.143 86.3773 911.798 86.592C911.462 86.8067 911.201 87.1193 911.014 87.53C910.827 87.9313 910.734 88.4213 910.734 89C910.734 89.5693 910.827 90.0593 911.014 90.47C911.21 90.8807 911.481 91.1933 911.826 91.408C912.181 91.6227 912.601 91.73 913.086 91.73C913.609 91.73 914.038 91.632 914.374 91.436C914.71 91.2307 914.976 90.9507 915.172 90.596L915.998 91.072C915.821 91.3987 915.592 91.6787 915.312 91.912C915.041 92.1453 914.719 92.3273 914.346 92.458C913.982 92.5793 913.571 92.64 913.114 92.64ZM918.227 92.5V85.5H919.137L919.235 87.11L919.067 86.956C919.207 86.5827 919.403 86.2793 919.655 86.046C919.917 85.8033 920.215 85.6307 920.551 85.528C920.887 85.416 921.237 85.36 921.601 85.36C922.115 85.36 922.572 85.458 922.973 85.654C923.384 85.8407 923.711 86.13 923.953 86.522C924.205 86.914 924.331 87.4087 924.331 88.006V92.5H923.295V88.37C923.295 87.5953 923.123 87.054 922.777 86.746C922.441 86.4287 922.017 86.27 921.503 86.27C921.149 86.27 920.799 86.354 920.453 86.522C920.108 86.69 919.823 86.956 919.599 87.32C919.375 87.6747 919.263 88.146 919.263 88.734V92.5H918.227ZM929.333 92.64C928.642 92.64 928.012 92.4953 927.443 92.206C926.883 91.9167 926.453 91.506 926.155 90.974L927.037 90.344C927.242 90.7827 927.545 91.1233 927.947 91.366C928.348 91.6087 928.838 91.73 929.417 91.73C929.93 91.73 930.331 91.632 930.621 91.436C930.919 91.2307 931.069 90.9647 931.069 90.638C931.069 90.4233 930.999 90.232 930.859 90.064C930.728 89.896 930.476 89.77 930.103 89.686L928.423 89.336C927.751 89.196 927.265 88.9673 926.967 88.65C926.677 88.3233 926.533 87.922 926.533 87.446C926.533 87.0633 926.64 86.718 926.855 86.41C927.079 86.0927 927.391 85.8407 927.793 85.654C928.203 85.458 928.679 85.36 929.221 85.36C929.911 85.36 930.495 85.4953 930.971 85.766C931.447 86.0367 931.797 86.424 932.021 86.928L931.153 87.502C930.994 87.0727 930.733 86.76 930.369 86.564C930.014 86.368 929.631 86.27 929.221 86.27C928.875 86.27 928.577 86.3213 928.325 86.424C928.082 86.5173 927.891 86.648 927.751 86.816C927.62 86.984 927.555 87.18 927.555 87.404C927.555 87.6187 927.629 87.8193 927.779 88.006C927.928 88.1833 928.203 88.314 928.605 88.398L930.341 88.762C930.994 88.8927 931.451 89.1073 931.713 89.406C931.974 89.6953 932.105 90.0547 932.105 90.484C932.105 90.9133 931.988 91.296 931.755 91.632C931.531 91.9587 931.209 92.2107 930.789 92.388C930.369 92.556 929.883 92.64 929.333 92.64ZM937.067 85.36C937.72 85.36 938.299 85.5047 938.803 85.794C939.316 86.0833 939.718 86.5033 940.007 87.054C940.296 87.5953 940.441 88.244 940.441 89C940.441 89.756 940.296 90.4093 940.007 90.96C939.718 91.5013 939.316 91.9167 938.803 92.206C938.299 92.4953 937.72 92.64 937.067 92.64C936.414 92.64 935.83 92.4953 935.317 92.206C934.804 91.9167 934.402 91.5013 934.113 90.96C933.824 90.4093 933.679 89.756 933.679 89C933.679 88.244 933.824 87.5953 934.113 87.054C934.402 86.5033 934.804 86.0833 935.317 85.794C935.83 85.5047 936.414 85.36 937.067 85.36ZM937.067 86.256C936.572 86.256 936.152 86.368 935.807 86.592C935.462 86.8067 935.191 87.1193 934.995 87.53C934.808 87.9313 934.715 88.4213 934.715 89C934.715 89.5693 934.808 90.0593 934.995 90.47C935.191 90.8807 935.462 91.198 935.807 91.422C936.152 91.6367 936.572 91.744 937.067 91.744C937.552 91.744 937.968 91.6367 938.313 91.422C938.658 91.198 938.924 90.8807 939.111 90.47C939.307 90.0593 939.405 89.5693 939.405 89C939.405 88.4213 939.307 87.9313 939.111 87.53C938.924 87.1193 938.658 86.8067 938.313 86.592C937.968 86.368 937.552 86.256 937.067 86.256ZM942.522 92.5V85.5H943.376L943.516 86.704C943.703 86.2653 943.988 85.934 944.37 85.71C944.753 85.4767 945.215 85.36 945.756 85.36C945.887 85.36 946.027 85.374 946.176 85.402C946.326 85.4207 946.452 85.458 946.554 85.514L946.358 86.466C946.256 86.4193 946.144 86.3867 946.022 86.368C945.901 86.34 945.728 86.326 945.504 86.326C945.196 86.326 944.893 86.4147 944.594 86.592C944.296 86.7693 944.048 87.0353 943.852 87.39C943.656 87.7353 943.558 88.1693 943.558 88.692V92.5H942.522ZM950.36 92.64C949.669 92.64 949.039 92.4953 948.47 92.206C947.91 91.9167 947.481 91.506 947.182 90.974L948.064 90.344C948.269 90.7827 948.573 91.1233 948.974 91.366C949.375 91.6087 949.865 91.73 950.444 91.73C950.957 91.73 951.359 91.632 951.648 91.436C951.947 91.2307 952.096 90.9647 952.096 90.638C952.096 90.4233 952.026 90.232 951.886 90.064C951.755 89.896 951.503 89.77 951.13 89.686L949.45 89.336C948.778 89.196 948.293 88.9673 947.994 88.65C947.705 88.3233 947.56 87.922 947.56 87.446C947.56 87.0633 947.667 86.718 947.882 86.41C948.106 86.0927 948.419 85.8407 948.82 85.654C949.231 85.458 949.707 85.36 950.248 85.36C950.939 85.36 951.522 85.4953 951.998 85.766C952.474 86.0367 952.824 86.424 953.048 86.928L952.18 87.502C952.021 87.0727 951.76 86.76 951.396 86.564C951.041 86.368 950.659 86.27 950.248 86.27C949.903 86.27 949.604 86.3213 949.352 86.424C949.109 86.5173 948.918 86.648 948.778 86.816C948.647 86.984 948.582 87.18 948.582 87.404C948.582 87.6187 948.657 87.8193 948.806 88.006C948.955 88.1833 949.231 88.314 949.632 88.398L951.368 88.762C952.021 88.8927 952.479 89.1073 952.74 89.406C953.001 89.6953 953.132 90.0547 953.132 90.484C953.132 90.9133 953.015 91.296 952.782 91.632C952.558 91.9587 952.236 92.2107 951.816 92.388C951.396 92.556 950.911 92.64 950.36 92.64ZM956.022 85.374C956.284 85.374 956.489 85.4533 956.638 85.612C956.797 85.7613 956.876 85.9667 956.876 86.228C956.876 86.48 956.797 86.6853 956.638 86.844C956.489 87.0027 956.284 87.082 956.022 87.082C955.77 87.082 955.565 87.0027 955.406 86.844C955.248 86.6853 955.168 86.48 955.168 86.228C955.168 85.9667 955.248 85.7613 955.406 85.612C955.565 85.4533 955.77 85.374 956.022 85.374ZM956.022 90.932C956.284 90.932 956.489 91.0113 956.638 91.17C956.797 91.3193 956.876 91.5247 956.876 91.786C956.876 92.038 956.797 92.2433 956.638 92.402C956.489 92.5607 956.284 92.64 956.022 92.64C955.77 92.64 955.565 92.5607 955.406 92.402C955.248 92.2433 955.168 92.038 955.168 91.786C955.168 91.5247 955.248 91.3193 955.406 91.17C955.565 91.0113 955.77 90.932 956.022 90.932ZM963.645 95.44V85.5H964.555L964.653 87.25L964.499 87.082C964.621 86.7367 964.803 86.438 965.045 86.186C965.297 85.9247 965.596 85.724 965.941 85.584C966.296 85.4347 966.679 85.36 967.089 85.36C967.668 85.36 968.195 85.5047 968.671 85.794C969.147 86.0833 969.53 86.4987 969.819 87.04C970.109 87.5813 970.253 88.2347 970.253 89C970.253 89.756 970.109 90.4093 969.819 90.96C969.53 91.5013 969.143 91.9167 968.657 92.206C968.172 92.4953 967.635 92.64 967.047 92.64C966.459 92.64 965.941 92.4953 965.493 92.206C965.055 91.9073 964.742 91.5247 964.555 91.058L964.681 90.862V95.44H963.645ZM966.949 91.73C967.659 91.73 968.214 91.4827 968.615 90.988C969.017 90.4933 969.217 89.8307 969.217 89C969.217 88.1693 969.021 87.5067 968.629 87.012C968.237 86.5173 967.687 86.27 966.977 86.27C966.52 86.27 966.119 86.382 965.773 86.606C965.437 86.83 965.171 87.1473 964.975 87.558C964.779 87.9593 964.681 88.44 964.681 89C964.681 89.5507 964.775 90.0313 964.961 90.442C965.157 90.8527 965.423 91.17 965.759 91.394C966.105 91.618 966.501 91.73 966.949 91.73ZM979.679 83.26V92.5H978.643V83.26H979.679ZM973.491 83.26V92.5H972.455V83.26H973.491ZM979.133 87.334V88.3H973.001V87.334H979.133ZM986.579 82.28L982.351 93.48H981.385L985.599 82.28H986.579ZM988.478 92.5V83.26H994.932V84.226H989.514V87.334H993.742V88.3H989.514V91.534H995.142V92.5H988.478ZM1004.54 90.134C1004.35 90.6567 1004.08 91.1093 1003.71 91.492C1003.35 91.8653 1002.92 92.15 1002.43 92.346C1001.94 92.542 1001.41 92.64 1000.83 92.64C999.952 92.64 999.196 92.4487 998.561 92.066C997.926 91.674 997.432 91.1233 997.077 90.414C996.732 89.7047 996.559 88.86 996.559 87.88C996.559 86.9 996.732 86.0553 997.077 85.346C997.432 84.6367 997.926 84.0907 998.561 83.708C999.196 83.316 999.942 83.12 1000.8 83.12C1001.4 83.12 1001.93 83.204 1002.4 83.372C1002.87 83.5307 1003.27 83.7733 1003.6 84.1C1003.93 84.4267 1004.19 84.828 1004.39 85.304L1003.36 85.78C1003.16 85.2293 1002.85 84.8093 1002.44 84.52C1002.04 84.2307 1001.52 84.086 1000.87 84.086C1000.24 84.086 999.676 84.24 999.191 84.548C998.706 84.8467 998.328 85.276 998.057 85.836C997.786 86.396 997.651 87.0773 997.651 87.88C997.651 88.6733 997.777 89.3547 998.029 89.924C998.29 90.484 998.659 90.918 999.135 91.226C999.611 91.5247 1000.18 91.674 1000.83 91.674C1001.46 91.674 1002.01 91.5153 1002.48 91.198C1002.96 90.8713 1003.3 90.3907 1003.5 89.756L1004.54 90.134ZM1010.78 82.28L1006.55 93.48H1005.58L1009.8 82.28H1010.78ZM1021.14 85.5H1022.28L1019.86 92.5H1018.83L1016.81 86.83L1014.88 92.5H1013.84L1011.42 85.5H1012.57L1014.37 91.296L1016.33 85.5H1017.37L1019.33 91.296L1021.14 85.5ZM1027.95 87.964C1027.95 87.4227 1027.8 87.0073 1027.51 86.718C1027.22 86.4193 1026.81 86.27 1026.28 86.27C1025.78 86.27 1025.36 86.3773 1025.02 86.592C1024.67 86.8067 1024.42 87.152 1024.25 87.628L1023.41 87.11C1023.61 86.578 1023.95 86.1533 1024.45 85.836C1024.95 85.5187 1025.57 85.36 1026.31 85.36C1026.81 85.36 1027.26 85.4487 1027.67 85.626C1028.08 85.794 1028.4 86.0553 1028.63 86.41C1028.86 86.7647 1028.98 87.2127 1028.98 87.754V91.17C1028.98 91.534 1029.17 91.716 1029.54 91.716C1029.72 91.716 1029.89 91.6927 1030.06 91.646L1030 92.458C1029.83 92.5513 1029.59 92.598 1029.3 92.598C1029.04 92.598 1028.8 92.5513 1028.59 92.458C1028.38 92.3553 1028.22 92.2013 1028.1 91.996C1027.98 91.7813 1027.92 91.5153 1027.92 91.198V91.016L1028.18 91.044C1028.08 91.4173 1027.89 91.7207 1027.61 91.954C1027.34 92.1873 1027.03 92.36 1026.69 92.472C1026.34 92.584 1026 92.64 1025.66 92.64C1025.25 92.64 1024.87 92.57 1024.52 92.43C1024.16 92.29 1023.88 92.08 1023.68 91.8C1023.47 91.52 1023.37 91.17 1023.37 90.75C1023.37 90.2273 1023.54 89.798 1023.89 89.462C1024.24 89.126 1024.73 88.8973 1025.36 88.776L1028.16 88.23V89.084L1025.85 89.56C1025.37 89.6533 1025.01 89.7887 1024.78 89.966C1024.55 90.1433 1024.43 90.386 1024.43 90.694C1024.43 91.0113 1024.55 91.2633 1024.78 91.45C1025.02 91.6367 1025.37 91.73 1025.82 91.73C1026.09 91.73 1026.35 91.6973 1026.6 91.632C1026.85 91.5573 1027.08 91.4453 1027.29 91.296C1027.49 91.1467 1027.65 90.96 1027.76 90.736C1027.88 90.512 1027.95 90.246 1027.95 89.938V87.964ZM1032.96 83.526V90.582C1032.96 90.946 1033.06 91.2213 1033.25 91.408C1033.46 91.5853 1033.72 91.674 1034.05 91.674C1034.32 91.674 1034.55 91.6273 1034.75 91.534C1034.95 91.4407 1035.12 91.3147 1035.28 91.156L1035.65 92.024C1035.44 92.2107 1035.19 92.36 1034.9 92.472C1034.61 92.584 1034.28 92.64 1033.91 92.64C1033.55 92.64 1033.22 92.5793 1032.92 92.458C1032.62 92.3273 1032.38 92.122 1032.2 91.842C1032.02 91.562 1031.93 91.2027 1031.92 90.764V83.806L1032.96 83.526ZM1035.52 85.5V86.396H1030.52V85.5H1035.52ZM1040.07 92.64C1039.42 92.64 1038.83 92.4953 1038.31 92.206C1037.79 91.9167 1037.39 91.5013 1037.1 90.96C1036.81 90.4093 1036.67 89.756 1036.67 89C1036.67 88.244 1036.81 87.5953 1037.1 87.054C1037.39 86.5033 1037.79 86.0833 1038.29 85.794C1038.8 85.5047 1039.37 85.36 1040 85.36C1040.65 85.36 1041.21 85.5 1041.67 85.78C1042.12 86.06 1042.47 86.4427 1042.72 86.928C1042.96 87.4133 1043.08 87.9593 1043.08 88.566C1043.08 88.706 1043.08 88.8367 1043.07 88.958C1043.06 89.0793 1043.04 89.1867 1043.03 89.28H1037.34V88.37H1042.58L1042.05 88.468C1042.05 87.7773 1041.85 87.2407 1041.47 86.858C1041.1 86.466 1040.6 86.27 1039.97 86.27C1039.51 86.27 1039.1 86.3773 1038.76 86.592C1038.42 86.8067 1038.16 87.1193 1037.97 87.53C1037.78 87.9313 1037.69 88.4213 1037.69 89C1037.69 89.5693 1037.78 90.0593 1037.97 90.47C1038.17 90.8807 1038.44 91.1933 1038.78 91.408C1039.14 91.6227 1039.56 91.73 1040.04 91.73C1040.57 91.73 1041 91.632 1041.33 91.436C1041.67 91.2307 1041.93 90.9507 1042.13 90.596L1042.96 91.072C1042.78 91.3987 1042.55 91.6787 1042.27 91.912C1042 92.1453 1041.68 92.3273 1041.3 92.458C1040.94 92.5793 1040.53 92.64 1040.07 92.64ZM1045.18 92.5V85.5H1046.04L1046.18 86.704C1046.37 86.2653 1046.65 85.934 1047.03 85.71C1047.42 85.4767 1047.88 85.36 1048.42 85.36C1048.55 85.36 1048.69 85.374 1048.84 85.402C1048.99 85.4207 1049.11 85.458 1049.22 85.514L1049.02 86.466C1048.92 86.4193 1048.81 86.3867 1048.68 86.368C1048.56 86.34 1048.39 86.326 1048.17 86.326C1047.86 86.326 1047.56 86.4147 1047.26 86.592C1046.96 86.7693 1046.71 87.0353 1046.51 87.39C1046.32 87.7353 1046.22 88.1693 1046.22 88.692V92.5H1045.18ZM1056.11 82.28V92.5H1055.07V82.28H1056.11ZM1061.63 92.64C1060.98 92.64 1060.39 92.4953 1059.87 92.206C1059.35 91.9167 1058.95 91.5013 1058.66 90.96C1058.37 90.4093 1058.23 89.756 1058.23 89C1058.23 88.244 1058.37 87.5953 1058.66 87.054C1058.95 86.5033 1059.35 86.0833 1059.85 85.794C1060.36 85.5047 1060.93 85.36 1061.56 85.36C1062.21 85.36 1062.77 85.5 1063.23 85.78C1063.68 86.06 1064.03 86.4427 1064.28 86.928C1064.52 87.4133 1064.64 87.9593 1064.64 88.566C1064.64 88.706 1064.64 88.8367 1064.63 88.958C1064.62 89.0793 1064.6 89.1867 1064.59 89.28H1058.9V88.37H1064.14L1063.61 88.468C1063.61 87.7773 1063.41 87.2407 1063.03 86.858C1062.66 86.466 1062.16 86.27 1061.53 86.27C1061.07 86.27 1060.66 86.3773 1060.32 86.592C1059.98 86.8067 1059.72 87.1193 1059.53 87.53C1059.34 87.9313 1059.25 88.4213 1059.25 89C1059.25 89.5693 1059.34 90.0593 1059.53 90.47C1059.73 90.8807 1060 91.1933 1060.34 91.408C1060.7 91.6227 1061.12 91.73 1061.6 91.73C1062.13 91.73 1062.56 91.632 1062.89 91.436C1063.23 91.2307 1063.49 90.9507 1063.69 90.596L1064.52 91.072C1064.34 91.3987 1064.11 91.6787 1063.83 91.912C1063.56 92.1453 1063.24 92.3273 1062.86 92.458C1062.5 92.5793 1062.09 92.64 1061.63 92.64ZM1071.23 85.5H1072.31L1069.4 92.5H1068.36L1065.45 85.5H1066.62L1068.89 91.45L1071.23 85.5ZM1076.67 92.64C1076.02 92.64 1075.43 92.4953 1074.91 92.206C1074.39 91.9167 1073.99 91.5013 1073.7 90.96C1073.41 90.4093 1073.27 89.756 1073.27 89C1073.27 88.244 1073.41 87.5953 1073.7 87.054C1073.99 86.5033 1074.39 86.0833 1074.89 85.794C1075.4 85.5047 1075.97 85.36 1076.6 85.36C1077.25 85.36 1077.81 85.5 1078.27 85.78C1078.72 86.06 1079.07 86.4427 1079.32 86.928C1079.56 87.4133 1079.68 87.9593 1079.68 88.566C1079.68 88.706 1079.68 88.8367 1079.67 88.958C1079.66 89.0793 1079.64 89.1867 1079.62 89.28H1073.94V88.37H1079.18L1078.64 88.468C1078.64 87.7773 1078.45 87.2407 1078.07 86.858C1077.7 86.466 1077.2 86.27 1076.57 86.27C1076.11 86.27 1075.7 86.3773 1075.35 86.592C1075.02 86.8067 1074.76 87.1193 1074.57 87.53C1074.38 87.9313 1074.29 88.4213 1074.29 89C1074.29 89.5693 1074.38 90.0593 1074.57 90.47C1074.77 90.8807 1075.04 91.1933 1075.38 91.408C1075.74 91.6227 1076.16 91.73 1076.64 91.73C1077.17 91.73 1077.59 91.632 1077.93 91.436C1078.27 91.2307 1078.53 90.9507 1078.73 90.596L1079.55 91.072C1079.38 91.3987 1079.15 91.6787 1078.87 91.912C1078.6 92.1453 1078.28 92.3273 1077.9 92.458C1077.54 92.5793 1077.13 92.64 1076.67 92.64ZM1082.85 82.28V92.5H1081.81V82.28H1082.85Z" fill="#012137"/>
<g clip-path="url(#clip1_2154_12966)">
<rect x="711" y="19" width="122" height="91" rx="13" fill="white"/>
<path d="M724.625 20H819.928C826.6 20 832 25.3787 832 32V96.4497C832 103.377 826.354 109 819.375 109H724.625C717.646 109 712 103.377 712 96.4497V32.5503C712 25.6233 717.646 20 724.625 20Z" stroke="#012137" stroke-width="2"/>
<path d="M728.864 35.0117H815.136C816.031 35.0117 816.749 35.7317 816.749 36.6105V92.0776C816.749 92.9548 816.033 93.6763 815.136 93.6763H728.864C727.969 93.6763 727.251 92.9563 727.251 92.0776V36.6105C727.251 35.7333 727.967 35.0117 728.864 35.0117Z" stroke="#012137" stroke-width="2"/>
<path d="M773.127 46.8743C773.127 46.8743 773.096 46.856 773.087 46.8437C772.426 46.431 771.568 46.431 770.907 46.8437C770.898 46.8437 770.876 46.8621 770.867 46.8743C769.96 47.4736 769.103 48.1095 768.285 48.7974C769.597 49.4333 770.839 50.1885 771.992 51.0538C777.692 55.3096 781.061 61.9564 781.061 69.0954C781.061 74.0667 777.009 78.1055 772.002 78.1055C766.994 78.1055 762.942 74.0759 762.942 69.0954H762.923C762.923 64.9954 764.018 61.1523 765.939 57.8503C769.588 60.2809 771.983 64.4084 771.983 69.0954C771.983 70.5752 771.845 71.9388 771.608 73.1831H771.992C774.261 73.1831 776.103 71.3487 776.103 69.0954C776.103 61.5345 771.322 55.0926 764.608 52.5825C760.922 57.2205 758.841 63.0051 758.841 69.0832H758.859C758.859 76.2986 764.746 82.1535 772.002 82.1535C779.257 82.1535 785.144 76.2986 785.144 69.0832C785.144 60.122 780.649 51.815 773.127 46.8651V46.8743Z" fill="#1FA4F1"/>
</g>
<g clip-path="url(#clip2_2154_12966)">
<rect x="501" y="45" width="143" height="40" rx="20" fill="#F3F5F7"/>
</g>
<rect x="502" y="46" width="141" height="38" rx="19" stroke="#012137" stroke-width="2"/>
<path d="M644 65L711 65" stroke="#012137" stroke-width="2" stroke-linecap="round" stroke-linejoin="round"/>
<path d="M434 65L501 65" stroke="#012137" stroke-width="2" stroke-linecap="round" stroke-linejoin="round"/>
<path d="M530.277 59.76C531.733 59.76 532.871 60.1567 533.693 60.95C534.514 61.7433 534.925 62.882 534.925 64.366C534.925 65.8593 534.514 67.0073 533.693 67.81C532.871 68.6033 531.733 69 530.277 69H527.309V59.76H530.277ZM530.375 68.034C531.467 68.034 532.316 67.712 532.923 67.068C533.529 66.424 533.833 65.5233 533.833 64.366C533.833 63.218 533.529 62.3267 532.923 61.692C532.316 61.048 531.467 60.726 530.375 60.726H528.345V68.034H530.375ZM537.065 69V62H537.919L538.059 63.204C538.246 62.7653 538.531 62.434 538.913 62.21C539.296 61.9767 539.758 61.86 540.299 61.86C540.43 61.86 540.57 61.874 540.719 61.902C540.869 61.9207 540.995 61.958 541.097 62.014L540.901 62.966C540.799 62.9193 540.687 62.8867 540.565 62.868C540.444 62.84 540.271 62.826 540.047 62.826C539.739 62.826 539.436 62.9147 539.137 63.092C538.839 63.2693 538.591 63.5353 538.395 63.89C538.199 64.2353 538.101 64.6693 538.101 65.192V69H537.065ZM543.216 60.656C542.983 60.656 542.791 60.586 542.642 60.446C542.502 60.2967 542.432 60.1007 542.432 59.858C542.432 59.6247 542.502 59.438 542.642 59.298C542.791 59.1487 542.983 59.074 543.216 59.074C543.459 59.074 543.65 59.1487 543.79 59.298C543.939 59.438 544.014 59.6247 544.014 59.858C544.014 60.1007 543.939 60.2967 543.79 60.446C543.65 60.586 543.459 60.656 543.216 60.656ZM543.734 62V69H542.698V62H543.734ZM546.321 71.94V62H547.231L547.329 63.75L547.175 63.582C547.297 63.2367 547.479 62.938 547.721 62.686C547.973 62.4247 548.272 62.224 548.617 62.084C548.972 61.9347 549.355 61.86 549.765 61.86C550.344 61.86 550.871 62.0047 551.347 62.294C551.823 62.5833 552.206 62.9987 552.495 63.54C552.785 64.0813 552.929 64.7347 552.929 65.5C552.929 66.256 552.785 66.9093 552.495 67.46C552.206 68.0013 551.819 68.4167 551.333 68.706C550.848 68.9953 550.311 69.14 549.723 69.14C549.135 69.14 548.617 68.9953 548.169 68.706C547.731 68.4073 547.418 68.0247 547.231 67.558L547.357 67.362V71.94H546.321ZM549.625 68.23C550.335 68.23 550.89 67.9827 551.291 67.488C551.693 66.9933 551.893 66.3307 551.893 65.5C551.893 64.6693 551.697 64.0067 551.305 63.512C550.913 63.0173 550.363 62.77 549.653 62.77C549.196 62.77 548.795 62.882 548.449 63.106C548.113 63.33 547.847 63.6473 547.651 64.058C547.455 64.4593 547.357 64.94 547.357 65.5C547.357 66.0507 547.451 66.5313 547.637 66.942C547.833 67.3527 548.099 67.67 548.435 67.894C548.781 68.118 549.177 68.23 549.625 68.23ZM559.786 60.656C559.553 60.656 559.362 60.586 559.212 60.446C559.072 60.2967 559.002 60.1007 559.002 59.858C559.002 59.6247 559.072 59.438 559.212 59.298C559.362 59.1487 559.553 59.074 559.786 59.074C560.029 59.074 560.22 59.1487 560.36 59.298C560.51 59.438 560.584 59.6247 560.584 59.858C560.584 60.1007 560.51 60.2967 560.36 60.446C560.22 60.586 560.029 60.656 559.786 60.656ZM560.304 62V69H559.268V62H560.304ZM562.892 69V62H563.746L563.886 63.204C564.072 62.7653 564.357 62.434 564.74 62.21C565.122 61.9767 565.584 61.86 566.126 61.86C566.256 61.86 566.396 61.874 566.546 61.902C566.695 61.9207 566.821 61.958 566.924 62.014L566.728 62.966C566.625 62.9193 566.513 62.8867 566.392 62.868C566.27 62.84 566.098 62.826 565.874 62.826C565.566 62.826 565.262 62.9147 564.964 63.092C564.665 63.2693 564.418 63.5353 564.222 63.89C564.026 64.2353 563.928 64.6693 563.928 65.192V69H562.892ZM568.524 69V62H569.378L569.518 63.204C569.705 62.7653 569.99 62.434 570.372 62.21C570.755 61.9767 571.217 61.86 571.758 61.86C571.889 61.86 572.029 61.874 572.178 61.902C572.328 61.9207 572.454 61.958 572.556 62.014L572.36 62.966C572.258 62.9193 572.146 62.8867 572.024 62.868C571.903 62.84 571.73 62.826 571.506 62.826C571.198 62.826 570.895 62.9147 570.596 63.092C570.298 63.2693 570.05 63.5353 569.854 63.89C569.658 64.2353 569.56 64.6693 569.56 65.192V69H568.524ZM574.675 60.656C574.442 60.656 574.25 60.586 574.101 60.446C573.961 60.2967 573.891 60.1007 573.891 59.858C573.891 59.6247 573.961 59.438 574.101 59.298C574.25 59.1487 574.442 59.074 574.675 59.074C574.918 59.074 575.109 59.1487 575.249 59.298C575.398 59.438 575.473 59.6247 575.473 59.858C575.473 60.1007 575.398 60.2967 575.249 60.446C575.109 60.586 574.918 60.656 574.675 60.656ZM575.193 62V69H574.157V62H575.193ZM580.538 72.01C580.025 72.01 579.54 71.9307 579.082 71.772C578.634 71.6227 578.256 71.3893 577.948 71.072C577.64 70.7547 577.44 70.3533 577.346 69.868L578.368 69.56C578.462 70.0547 578.7 70.4327 579.082 70.694C579.474 70.9647 580.006 71.1 580.678 71.1C581.406 71.1 581.962 70.8807 582.344 70.442C582.727 70.0033 582.918 69.4293 582.918 68.72V67.6C582.713 68.0013 582.405 68.3327 581.994 68.594C581.593 68.8553 581.117 68.986 580.566 68.986C579.941 68.986 579.386 68.846 578.9 68.566C578.424 68.2767 578.046 67.866 577.766 67.334C577.486 66.802 577.346 66.1673 577.346 65.43C577.346 64.6833 577.5 64.044 577.808 63.512C578.116 62.98 578.513 62.574 578.998 62.294C579.493 62.0047 580.006 61.86 580.538 61.86C581.136 61.86 581.64 61.9813 582.05 62.224C582.461 62.4573 582.769 62.7793 582.974 63.19L583.058 61.986H583.968V68.482C583.968 69.2753 583.838 69.9333 583.576 70.456C583.315 70.9787 582.928 71.366 582.414 71.618C581.91 71.8793 581.285 72.01 580.538 72.01ZM580.65 68.076C581.332 68.076 581.878 67.8473 582.288 67.39C582.708 66.9327 582.918 66.2793 582.918 65.43C582.918 64.5713 582.708 63.9133 582.288 63.456C581.878 62.9987 581.332 62.77 580.65 62.77C580.174 62.77 579.768 62.8867 579.432 63.12C579.096 63.344 578.835 63.6567 578.648 64.058C578.471 64.4593 578.382 64.9167 578.382 65.43C578.382 66.242 578.583 66.886 578.984 67.362C579.395 67.838 579.95 68.076 580.65 68.076ZM590.674 64.464C590.674 63.9227 590.529 63.5073 590.24 63.218C589.951 62.9193 589.54 62.77 589.008 62.77C588.513 62.77 588.093 62.8773 587.748 63.092C587.403 63.3067 587.146 63.652 586.978 64.128L586.138 63.61C586.334 63.078 586.679 62.6533 587.174 62.336C587.678 62.0187 588.299 61.86 589.036 61.86C589.54 61.86 589.993 61.9487 590.394 62.126C590.805 62.294 591.127 62.5553 591.36 62.91C591.593 63.2647 591.71 63.7127 591.71 64.254V67.67C591.71 68.034 591.897 68.216 592.27 68.216C592.447 68.216 592.62 68.1927 592.788 68.146L592.732 68.958C592.555 69.0513 592.321 69.098 592.032 69.098C591.771 69.098 591.533 69.0513 591.318 68.958C591.113 68.8553 590.949 68.7013 590.828 68.496C590.707 68.2813 590.646 68.0153 590.646 67.698V67.516L590.912 67.544C590.809 67.9173 590.618 68.2207 590.338 68.454C590.067 68.6873 589.759 68.86 589.414 68.972C589.069 69.084 588.728 69.14 588.392 69.14C587.981 69.14 587.599 69.07 587.244 68.93C586.889 68.79 586.609 68.58 586.404 68.3C586.199 68.02 586.096 67.67 586.096 67.25C586.096 66.7273 586.269 66.298 586.614 65.962C586.969 65.626 587.459 65.3973 588.084 65.276L590.884 64.73V65.584L588.574 66.06C588.098 66.1533 587.743 66.2887 587.51 66.466C587.277 66.6433 587.16 66.886 587.16 67.194C587.16 67.5113 587.277 67.7633 587.51 67.95C587.753 68.1367 588.098 68.23 588.546 68.23C588.817 68.23 589.078 68.1973 589.33 68.132C589.582 68.0573 589.811 67.9453 590.016 67.796C590.221 67.6467 590.38 67.46 590.492 67.236C590.613 67.012 590.674 66.746 590.674 66.438V64.464ZM595.686 60.026V67.082C595.686 67.446 595.784 67.7213 595.98 67.908C596.185 68.0853 596.451 68.174 596.778 68.174C597.048 68.174 597.282 68.1273 597.478 68.034C597.674 67.9407 597.851 67.8147 598.01 67.656L598.374 68.524C598.168 68.7107 597.921 68.86 597.632 68.972C597.342 69.084 597.011 69.14 596.638 69.14C596.283 69.14 595.952 69.0793 595.644 68.958C595.345 68.8273 595.107 68.622 594.93 68.342C594.752 68.062 594.659 67.7027 594.65 67.264V60.306L595.686 60.026ZM598.248 62V62.896H593.25V62H598.248ZM600.406 60.656C600.172 60.656 599.981 60.586 599.832 60.446C599.692 60.2967 599.622 60.1007 599.622 59.858C599.622 59.6247 599.692 59.438 599.832 59.298C599.981 59.1487 600.172 59.074 600.406 59.074C600.648 59.074 600.84 59.1487 600.98 59.298C601.129 59.438 601.204 59.6247 601.204 59.858C601.204 60.1007 601.129 60.2967 600.98 60.446C600.84 60.586 600.648 60.656 600.406 60.656ZM600.924 62V69H599.888V62H600.924ZM606.409 61.86C607.062 61.86 607.641 62.0047 608.145 62.294C608.658 62.5833 609.059 63.0033 609.349 63.554C609.638 64.0953 609.783 64.744 609.783 65.5C609.783 66.256 609.638 66.9093 609.349 67.46C609.059 68.0013 608.658 68.4167 608.145 68.706C607.641 68.9953 607.062 69.14 606.409 69.14C605.755 69.14 605.172 68.9953 604.659 68.706C604.145 68.4167 603.744 68.0013 603.455 67.46C603.165 66.9093 603.021 66.256 603.021 65.5C603.021 64.744 603.165 64.0953 603.455 63.554C603.744 63.0033 604.145 62.5833 604.659 62.294C605.172 62.0047 605.755 61.86 606.409 61.86ZM606.409 62.756C605.914 62.756 605.494 62.868 605.149 63.092C604.803 63.3067 604.533 63.6193 604.337 64.03C604.15 64.4313 604.057 64.9213 604.057 65.5C604.057 66.0693 604.15 66.5593 604.337 66.97C604.533 67.3807 604.803 67.698 605.149 67.922C605.494 68.1367 605.914 68.244 606.409 68.244C606.894 68.244 607.309 68.1367 607.655 67.922C608 67.698 608.266 67.3807 608.453 66.97C608.649 66.5593 608.747 66.0693 608.747 65.5C608.747 64.9213 608.649 64.4313 608.453 64.03C608.266 63.6193 608 63.3067 607.655 63.092C607.309 62.868 606.894 62.756 606.409 62.756ZM611.864 69V62H612.774L612.872 63.61L612.704 63.456C612.844 63.0827 613.04 62.7793 613.292 62.546C613.554 62.3033 613.852 62.1307 614.188 62.028C614.524 61.916 614.874 61.86 615.238 61.86C615.752 61.86 616.209 61.958 616.61 62.154C617.021 62.3407 617.348 62.63 617.59 63.022C617.842 63.414 617.968 63.9087 617.968 64.506V69H616.932V64.87C616.932 64.0953 616.76 63.554 616.414 63.246C616.078 62.9287 615.654 62.77 615.14 62.77C614.786 62.77 614.436 62.854 614.09 63.022C613.745 63.19 613.46 63.456 613.236 63.82C613.012 64.1747 612.9 64.646 612.9 65.234V69H611.864Z" fill="#012137"/>
<defs>
<clipPath id="clip0_2154_12966">
<rect y="45" width="434" height="40" rx="20" fill="white"/>
</clipPath>
<clipPath id="clip1_2154_12966">
<rect x="711" y="19" width="122" height="91" rx="13" fill="white"/>
</clipPath>
<clipPath id="clip2_2154_12966">
<rect x="501" y="45" width="143" height="40" rx="20" fill="white"/>
</clipPath>
</defs>
</svg>
