<svg width="535" height="921" viewBox="0 0 535 921" fill="none" xmlns="http://www.w3.org/2000/svg">
<circle cx="268" cy="460" r="265" stroke="#F3F5F7" stroke-width="2"/>
<path d="M289.48 7.83097L289.483 7.83281C442.033 108.626 533 277.676 533 460.1C533 642.524 442.033 811.574 289.283 912.367L289.199 912.422L289.128 912.494C289.074 912.548 289.016 912.605 288.958 912.66C288.905 912.71 288.853 912.759 288.802 912.801H288.742L288.497 912.957C282.05 917.053 274.425 919.2 267 919.2C259.619 919.2 252.224 917.077 245.59 913.01C245.571 912.992 245.551 912.972 245.53 912.952C245.437 912.862 245.323 912.755 245.206 912.658C245.111 912.579 244.99 912.485 244.855 912.406C244.802 912.375 244.705 912.319 244.576 912.274C92.1108 811.469 1 642.467 1 460.1C1 277.677 92.167 108.627 244.917 7.83314L245.001 7.77752L245.073 7.70617C245.175 7.60406 245.291 7.48908 245.399 7.39861H245.458L245.704 7.24269C252.15 3.14727 259.775 1 267.2 1C274.588 1 281.988 3.12604 288.627 7.19948C288.789 7.34299 288.995 7.49237 289.128 7.58773C289.223 7.65517 289.31 7.71539 289.373 7.75862C289.394 7.77237 289.411 7.78449 289.427 7.79469L289.45 7.81042L289.472 7.82502L289.478 7.82913L289.48 7.83034L289.48 7.83072L289.48 7.83086L290.035 6.99848L289.48 7.83097ZM266.601 828.62L267.2 829.07L267.8 828.62C383.824 741.651 452.276 605.785 452.276 460.1C452.276 314.415 383.824 178.549 267.8 91.5798L267.201 91.1306L266.601 91.5793C150.375 178.549 82.1245 314.416 82.1245 460.1C82.1245 605.785 150.576 741.651 266.601 828.62Z" stroke="#F3F5F7" stroke-width="2"/>
<path d="M290.245 7.73204L291.8 8.76857V8.56482C443.187 109.499 533.6 278.057 533.6 459.9C533.6 606.548 414.648 725.5 268 725.5C121.352 725.5 2.40001 606.548 2.40001 459.9V458.9H2.00092C2.22669 335.744 44.1524 218.568 118.332 124.494C253.796 175.734 350.2 306.588 350.2 460.1C350.2 505.548 313.248 542.5 267.8 542.5H261.205C265.88 517.36 268.6 489.893 268.6 460.1C268.6 364.152 219.822 279.647 145.557 229.869L144.669 229.275L144.134 230.199C105.048 297.749 82.8 376.321 82.8 460.1V461.1H83.2027C83.7399 562.791 166.181 644.9 268 644.9C370.153 644.9 452.8 562.052 452.8 460.1C452.8 314.184 384.251 178.289 268.401 91.3008C245.354 73.9663 220.566 58.7621 194.418 45.878C210.634 32.2787 227.617 19.6259 245.553 7.73345L245.636 7.67802L245.707 7.60711C245.809 7.50513 245.925 7.39038 246.032 7.3H246.088L246.331 7.14729C259.38 -1.0326 276.325 -1.04908 289.39 7.09789C289.553 7.24221 289.759 7.39281 289.894 7.48873C289.988 7.55619 290.075 7.61643 290.138 7.65967L290.168 7.68019C290.187 7.6927 290.202 7.70324 290.215 7.71148L290.236 7.72609L290.243 7.7302L290.244 7.73141L290.245 7.7318L290.245 7.73194L290.338 7.59328L290.245 7.73204Z" stroke="#1FA4F1" stroke-width="2"/>
</svg>
