<svg width="60" height="65" viewBox="0 0 60 65" fill="none" xmlns="http://www.w3.org/2000/svg">
<path d="M24.4432 22.0578L32.0795 19.2124C35.9218 20.0746 42.1244 21.8888 45.108 20.0313C47.32 18.6529 47.8431 17.2206 48.2598 16.232L49.3665 16.7629C49.0488 17.7854 47.637 20.0952 45.8212 21.1137C44.3669 21.932 42.038 22.7244 38.0939 21.7976C37.838 21.7391 34.4257 20.9381 34.4004 20.9315C33.6175 20.7419 32.447 20.6361 31.9997 21.6207L26.6805 33.4446C28.039 33.7539 29.3683 34.048 30.5866 34.3048L34.6776 25.2085L35.6287 25.6662L35.6148 25.6988L35.63 25.7068L31.6554 34.5256C32.4949 34.6973 33.2606 34.8443 33.9212 34.9587C34.4915 35.0578 35.0598 35.1556 35.6234 35.2501L39.158 27.4066L40.0925 27.8137L36.6629 35.4231C38.0434 35.6499 39.388 35.8615 40.6741 36.0571L43.6106 29.5514L44.5364 29.9778L41.7263 36.2154C43.1779 36.4323 44.5371 36.6266 45.774 36.7969L52.818 21.2734C52.818 21.2734 53.3929 19.7553 53.2893 18.3821C53.1949 17.1514 51.8735 15.8614 51.8735 15.8614L51.8676 15.8594L59.0046 0H45.1167L40.1205 11.0249L33.8142 11.0482L22.3037 18.1673C21.5553 18.6436 21.205 19.734 21.5613 20.7126C21.9853 21.8821 23.2781 22.4829 24.4432 22.0578Z" fill="white"/>
<path d="M59.5051 59.2498L52.5688 39.0821C52.5688 39.0821 43.7156 38.0769 33.9199 36.3731C28.0676 35.3552 13.9663 31.8087 13.9663 31.8087L15.4146 40.0654C13.8294 40.8783 11.4047 42.1703 8.94349 43.6678C1.07398 48.4564 0.071682 50.9419 0.00322255 52.3955C-0.0280162 53.0475 0.1428 54.2769 1.63761 55.1777C2.06631 55.4358 2.85326 55.9101 4.71097 55.9101C6.29883 55.9101 8.66899 55.5635 12.2654 54.4392L8.17914 60.1892C8.17914 60.1892 6.83255 61.8969 7.57364 63.5229C8.36857 65.2652 10.9421 64.9831 10.9421 64.9831H55.3916C55.3916 64.9831 58.3666 65.1787 59.4792 63.5475C60.6357 61.8557 59.5051 59.2498 59.5051 59.2498ZM2.96227 52.975C2.55948 52.7308 2.56547 52.5805 2.56945 52.5173C2.58541 52.18 3.03139 50.278 10.2622 45.8752C12.3047 44.6318 14.3558 43.5175 15.8798 42.7218L16.813 48.0406L14.8177 50.8481C6.36596 53.9981 3.73925 53.442 2.96227 52.975ZM35.7836 43.6671C35.66 43.7357 22.216 50.8188 12.4223 54.1858L14.5924 51.1701C23.8716 47.7566 34.651 41.8702 34.7667 41.807C35.2798 41.5256 35.9238 41.7139 36.2056 42.2282C36.4855 42.7411 36.298 43.3864 35.7836 43.6671Z" fill="white"/>
</svg>
