<svg width="68" height="56" viewBox="0 0 68 56" fill="none" xmlns="http://www.w3.org/2000/svg">
<path d="M67.4284 28.9504H44.5642L40.0628 31.1436V33.1906C40.0628 33.483 40.2771 33.7024 40.5629 33.7024H52.4238V55.3421C52.4238 55.6345 52.6381 55.8538 52.9239 55.8538H65.4278C65.7136 55.8538 65.928 55.6345 65.928 55.3421V33.7024H67.4999C67.7857 33.7024 68 33.483 68 33.1906V29.4621C67.9286 29.1697 67.7142 28.9504 67.4284 28.9504Z" fill="white"/>
<path d="M57.0681 27.4883H65.9995C66.3567 27.4883 66.5711 27.1958 66.5711 26.9034V25.3682C66.5711 25.0026 66.2853 24.7833 65.9995 24.7833H57.0681C56.7108 24.7833 56.4965 25.0757 56.4965 25.3682V26.9034C56.425 27.2689 56.7108 27.4883 57.0681 27.4883Z" fill="white"/>
<path d="M58.4257 23.248H67.357C67.7143 23.248 67.9286 22.9556 67.9286 22.6632V21.1279C67.9286 20.7624 67.6428 20.5431 67.357 20.5431H58.4257C58.0684 20.5431 57.8541 20.8355 57.8541 21.1279V22.6632C57.7826 23.0287 58.0684 23.248 58.4257 23.248Z" fill="white"/>
<path d="M28.7021 38.3081H25.1296L22.4144 39.624C21.3427 40.0627 20.2709 40.282 19.2706 40.282C17.913 40.282 15.841 39.4047 14.5549 37.7963C13.4116 36.4073 12.6971 34.5065 12.3399 33.483C11.3396 30.6318 9.91056 25.8068 8.91024 22.2976C8.69589 21.5666 8.48154 20.8355 8.33864 20.2506C7.33833 20.1044 6.33802 19.812 5.26626 19.4465C5.19481 19.812 5.1948 20.1775 5.33771 20.5431L11.411 40.7937V53.6606C11.411 54.8303 12.3399 55.8538 13.5545 55.8538C14.7692 55.8538 15.6981 54.8303 15.6981 53.6606V42.6945H26.63V53.8068C26.63 54.9765 27.5589 56 28.7736 56C29.9882 56 30.9171 54.9765 30.9171 53.8068V40.5013C30.8456 39.3316 29.8453 38.3081 28.7021 38.3081Z" fill="white"/>
<path d="M13.626 33.0444C13.8404 33.6292 14.5549 35.6031 15.6266 36.9191C16.6984 38.235 18.4132 38.8929 19.2706 38.8929C20.0566 38.8929 20.914 38.7467 21.8429 38.3081L44.5642 27.4151C46.0647 26.6841 46.7077 24.8564 45.9932 23.3211C45.2787 21.7859 43.4924 21.1279 41.992 21.859L40.563 22.517C40.3486 22.2976 40.1343 22.0783 39.8484 21.9321C37.8478 20.7624 32.9892 18.0574 30.1311 17.9843C29.2023 17.9112 26.9873 17.9843 22.9861 24.1253C22.343 22.0052 21.6285 20.1044 21.2712 18.9347C23.5577 18.5692 26.5586 17.6188 28.3449 15.4256C29.4881 13.9634 29.9882 12.2089 29.631 10.3081C28.9165 6.36031 24.9152 4.89817 22.0572 4.38642C22.2001 4.97128 22.2716 5.55613 22.2716 6.14099C22.2716 7.38381 21.9858 8.55352 21.4142 9.65013C22.9861 10.0157 24.4151 10.6736 24.558 11.3316C24.6294 11.6971 24.558 11.9164 24.4151 12.1358C23.4862 13.2324 20.5567 14.0366 18.3418 14.0366H11.4825C9.26752 14.0366 6.26659 13.3055 5.40918 12.1358C5.26628 11.9164 5.12338 11.7702 5.19483 11.3316C5.33773 10.6736 6.69529 10.0157 8.33866 9.65013C7.8385 8.62663 7.48125 7.45692 7.48125 6.14099C7.48125 5.55613 7.5527 4.97128 7.6956 4.38642C4.90902 4.89817 0.836329 6.36031 0.121822 10.3081C-0.235432 12.2089 0.193272 13.9634 1.40794 15.4256C3.40856 17.9112 6.98109 18.7885 9.26752 19.0078C10.1964 21.859 12.3399 29.2428 13.626 33.0444ZM30.6313 24.1984C31.4173 24.4178 32.6319 24.9295 34.0609 25.6606L27.3446 28.8773C28.5592 26.7572 29.8453 24.9295 30.6313 24.1984Z" fill="white"/>
<path d="M14.9121 12.282C18.2269 12.282 20.914 9.53257 20.914 6.14099C20.914 2.74942 18.2269 0 14.9121 0C11.5974 0 8.91028 2.74942 8.91028 6.14099C8.91028 9.53257 11.5974 12.282 14.9121 12.282Z" fill="white"/>
</svg>
