<svg width="58" height="65" viewBox="0 0 58 65" fill="none" xmlns="http://www.w3.org/2000/svg">
<path d="M57.8495 15.3636C57.4634 13.9848 56.2407 13.0657 54.8251 13.0657C54.5033 13.0657 54.1816 13.1313 53.8598 13.197L49.4841 14.5758V4.07071C49.4841 1.5101 47.8754 0 45.4945 0H26.4473C24.0021 0 22.2646 1.44444 22.2646 4.07071V24.2273C20.0124 25.2121 18.4681 25.9343 18.1463 26.0657C15.4437 27.4444 13.4489 30.6616 12.9984 31.9747C12.4836 33.2879 0 65 0 65H25.8682C25.8682 65 32.11 62.3081 35.4561 58.6313C36.8718 57.0556 37.9657 54.9545 38.7379 53.1818H45.6232C47.7467 53.1818 49.4198 51.7374 49.4198 48.9141V46.4849H52.1868C53.9242 46.4849 55.4042 45.0404 55.4042 43.2677C55.4042 41.4949 53.9885 39.9849 52.1868 39.9849H49.4198V38.8687H52.2511C53.9885 38.8687 55.4686 37.4242 55.4686 35.5859C55.4686 33.8131 54.0529 32.303 52.2511 32.303H49.4198V31.1869H52.2511C53.9885 31.1869 55.4686 29.7424 55.4686 27.904C55.4686 26.1313 54.0529 24.6212 52.2511 24.6212H49.4198V21.2071L55.7259 19.1717C56.5625 18.9091 57.206 18.3182 57.5921 17.596C58.0425 17.0707 58.1068 16.2172 57.8495 15.3636ZM35.9066 50.4242C35.1344 50.4242 34.5552 49.7677 34.5552 49.0455C34.5552 48.2576 35.1344 47.6667 35.9066 47.6667C36.6787 47.6667 37.2579 48.2576 37.2579 49.0455C37.2579 49.7677 36.6144 50.4242 35.9066 50.4242ZM46.6528 45.6313H30.4369C30.4369 47.2071 30.3082 49.3737 29.7291 51.7374C28.5708 56.399 24.6455 58.9596 24.5168 59.0909C24.3881 59.2222 24.1951 59.2222 24.0021 59.2222C23.6803 59.2222 23.4229 59.0909 23.2299 58.8283C22.9725 58.3687 23.1012 57.8434 23.4873 57.5152C23.5516 57.5152 26.9621 55.1515 27.9273 51.2778C29.0212 47.1414 28.4421 43.399 28.4421 43.399C28.4421 43.3333 28.4421 43.2677 28.4421 43.1364H38.8022C40.9258 43.1364 43.0493 41.8232 43.0493 39.2626C43.0493 36.702 41.1831 35.0606 38.8022 35.0606H21.2351V33.2222H25.1603V7.02525H46.6528V45.6313Z" fill="white"/>
<path d="M35.8422 13.6566C31.3378 13.6566 27.6699 17.399 27.6699 21.9949C27.6699 26.5909 31.3378 30.3333 35.8422 30.3333C40.3466 30.3333 44.0145 26.5909 44.0145 21.9949C44.0145 17.399 40.3466 13.6566 35.8422 13.6566ZM35.8422 27.3788C35.07 27.3788 34.4909 26.7879 34.4909 26C34.4909 25.2778 35.07 24.6212 35.8422 24.6212C36.6144 24.6212 37.1935 25.2121 37.1935 26C37.1935 26.7879 36.6144 27.3788 35.8422 27.3788ZM36.6144 22.0606L36.2283 23.4394H35.4561L35.1344 22.0606C34.6196 20.2222 34.4909 19.2374 34.4909 18.7121C34.4909 17.7929 35.0057 17.3333 35.8422 17.3333C36.6787 17.3333 37.1935 17.7929 37.1935 18.7121C37.2579 19.2374 37.0648 20.2222 36.6144 22.0606Z" fill="white"/>
</svg>
