<svg width="24" height="25" viewBox="0 0 24 25" fill="none" xmlns="http://www.w3.org/2000/svg">
<path d="M9 14.5H12" stroke="#116893" stroke-width="1.5" stroke-linecap="round"/>
<path d="M10 12.5V8.7C10 8.5142 10 8.4213 10.0123 8.34357C10.0801 7.91567 10.4157 7.58008 10.8436 7.51231C10.9213 7.5 11.0142 7.5 11.2 7.5H13.5C14.8807 7.5 16 8.61929 16 10C16 11.3807 14.8807 12.5 13.5 12.5H10ZM10 12.5V17.5M10 12.5H9" stroke="#116893" stroke-width="1.5" stroke-linecap="round"/>
<path d="M7 3.83782C8.47087 2.98697 10.1786 2.5 12 2.5C17.5228 2.5 22 6.97715 22 12.5C22 18.0228 17.5228 22.5 12 22.5C6.47715 22.5 2 18.0228 2 12.5C2 10.6786 2.48697 8.97087 3.33782 7.5" stroke="#767676" stroke-width="1.5" stroke-linecap="round"/>
</svg>
