<?xml version="1.0" encoding="UTF-8" standalone="no"?>
<svg
   width="55"
   height="55"
   viewBox="0 0 55 55"
   fill="none"
   version="1.1"
   id="svg8"
   sodipodi:docname="phone.svg"
   inkscape:version="1.1 (c68e22c387, 2021-05-23)"
   xmlns:inkscape="http://www.inkscape.org/namespaces/inkscape"
   xmlns:sodipodi="http://sodipodi.sourceforge.net/DTD/sodipodi-0.dtd"
   xmlns="http://www.w3.org/2000/svg"
   xmlns:svg="http://www.w3.org/2000/svg">
  <defs
     id="defs12" />
  <sodipodi:namedview
     id="namedview10"
     pagecolor="#ffffff"
     bordercolor="#666666"
     borderopacity="1.0"
     inkscape:pageshadow="2"
     inkscape:pageopacity="0.0"
     inkscape:pagecheckerboard="0"
     showgrid="false"
     inkscape:zoom="15.872727"
     inkscape:cx="27.468499"
     inkscape:cy="27.5"
     inkscape:window-width="2560"
     inkscape:window-height="1411"
     inkscape:window-x="2391"
     inkscape:window-y="-9"
     inkscape:window-maximized="1"
     inkscape:current-layer="svg8" />
  <g
     id="g832"
     transform="translate(-2.1863452,2.1862104)">
    <path
       d="m 31.9194,5.21606 c 0,0 4.9128,0.44662 11.1654,6.69924 6.2526,6.2526 6.6992,11.1653 6.6992,11.1653"
       stroke="#116893"
       stroke-width="1.5"
       stroke-linecap="round"
       id="path2" />
    <path
       d="m 32.3813,13.1116 c 0,0 2.2107,0.6316 5.5266,3.9475 3.316,3.316 3.9476,5.5266 3.9476,5.5266"
       stroke="#116893"
       stroke-width="1.5"
       stroke-linecap="round"
       id="path4" />
    <path
       d="m 9.60301,18.4652 c -0.16153,4.2611 0.91689,11.4973 8.17559,18.7561 1.7512,1.7512 3.5011,3.1427 5.2082,4.2438 M 13.0224,11.7753 c 3.1106,-3.11058 8.0734,-2.69265 10.0484,0.8462 l 1.4493,2.5969 c 1.3079,2.3436 0.7828,5.4179 -1.2771,7.4779 0,0 0,0 0,0 -2e-4,10e-5 -2.4986,2.4988 2.0316,7.029 4.5295,4.5295 7.0282,2.0325 7.029,2.0317 10e-5,-10e-5 10e-5,-10e-5 10e-5,-10e-5 2.0599,-2.0599 5.1343,-2.5849 7.4778,-1.277 l 2.5969,1.4493 c 3.5389,1.9749 3.9568,6.9377 0.8462,10.0483 -1.869,1.8691 -4.1588,3.3235 -6.6899,3.4194 -1.8178,0.0689 -4.1771,-0.0878 -6.8487,-0.8538"
       stroke="#767676"
       stroke-width="1.5"
       stroke-linecap="round"
       id="path6" />
  </g>
</svg>
