<svg width="24" height="24" viewBox="0 0 24 24" fill="none" xmlns="http://www.w3.org/2000/svg">
<path d="M19.682 20.6618L20.2163 21.1881L19.682 20.6618ZM19.682 5.06476L19.1477 5.59108L19.682 5.06476ZM4.85233 5.59108C5.14301 5.29599 5.13943 4.82113 4.84434 4.53045C4.54925 4.23977 4.07439 4.24334 3.78371 4.53843L4.85233 5.59108ZM8.4 3.77708L7.86567 3.25078C7.5781 3.54273 7.57811 4.01146 7.86569 4.30341L8.4 3.77708ZM9.6161 6.08037C9.90678 6.37546 10.3816 6.37904 10.6767 6.08836C10.9718 5.79768 10.9754 5.32282 10.6847 5.02773L9.6161 6.08037ZM10.6847 2.5263C10.9754 2.23121 10.9718 1.75635 10.6767 1.46568C10.3816 1.175 9.90675 1.1786 9.61608 1.4737L10.6847 2.5263ZM21.75 12.9999C21.75 12.5857 21.4142 12.2499 21 12.2498C20.5858 12.2498 20.25 12.5856 20.25 12.9998L21.75 12.9999ZM20.1905 9.04305C20.2144 9.45658 20.569 9.77246 20.9825 9.74859C21.396 9.72473 21.7119 9.37015 21.688 8.95663L20.1905 9.04305ZM12 21.2498C9.85716 21.2498 8.32662 21.2482 7.1637 21.0895C6.02353 20.9339 5.34923 20.6399 4.85233 20.1355L3.78371 21.1881C4.60483 22.0217 5.65019 22.3968 6.96085 22.5757C8.24876 22.7515 9.9002 22.7498 12 22.7498V21.2498ZM2.25 12.8633C2.25 14.9959 2.24845 16.6697 2.42124 17.9744C2.59674 19.2995 2.96414 20.3561 3.78371 21.1881L4.85233 20.1355C4.35388 19.6295 4.06227 18.9403 3.90826 17.7775C3.75155 16.5942 3.75 15.0377 3.75 12.8633H2.25ZM12 22.7498C14.0998 22.7498 15.7512 22.7515 17.0391 22.5757C18.3498 22.3968 19.3952 22.0217 20.2163 21.1881L19.1477 20.1355C18.6508 20.6399 17.9765 20.9339 16.8363 21.0895C15.6734 21.2482 14.1428 21.2498 12 21.2498V22.7498ZM12 4.47674C14.1428 4.47674 15.6734 4.47838 16.8363 4.6371C17.9765 4.79272 18.6508 5.08663 19.1477 5.59108L20.2163 4.53843C19.3952 3.70486 18.3498 3.32977 17.0391 3.15088C15.7512 2.9751 14.0998 2.97674 12 2.97674V4.47674ZM3.75 12.8633C3.75 10.6889 3.75155 9.13243 3.90826 7.94912C4.06227 6.78624 4.35388 6.09709 4.85233 5.59108L3.78371 4.53843C2.96414 5.37044 2.59674 6.42705 2.42124 7.75219C2.24845 9.05689 2.25 10.7307 2.25 12.8633H3.75ZM12 2.97674C10.5848 2.97674 9.38003 2.97653 8.3621 3.02804L8.4379 4.52612C9.40971 4.47695 10.5719 4.47674 12 4.47674V2.97674ZM7.86569 4.30341L9.6161 6.08037L10.6847 5.02773L8.93431 3.25076L7.86569 4.30341ZM8.93432 4.30339L10.6847 2.5263L9.61608 1.4737L7.86567 3.25078L8.93432 4.30339ZM20.25 12.9998C20.2499 15.1275 20.2449 16.6532 20.0868 17.8143C19.9315 18.9548 19.6409 19.6348 19.1477 20.1355L20.2163 21.1881C21.0271 20.3651 21.3954 19.3221 21.5731 18.0166C21.748 16.7317 21.7499 15.0883 21.75 12.9999L20.25 12.9998ZM21.688 8.95663C21.5776 7.0436 21.2662 5.60429 20.2163 4.53843L19.1477 5.59108C19.7888 6.24192 20.0836 7.19051 20.1905 9.04305L21.688 8.95663Z" fill="#767676"/>
<path d="M8.5 12.5L10.5 14.5L15.5 9.5" stroke="#116893" stroke-width="1.5" stroke-linecap="round" stroke-linejoin="round"/>
</svg>
