<svg width="51" height="48" viewBox="0 0 51 48" fill="none" xmlns="http://www.w3.org/2000/svg">
<g clip-path="url(#clip0_1501_120)">
<path d="M44.8869 1.71387H5.72474C4.78052 1.71387 3.87497 2.07509 3.20731 2.71807C2.53964 3.36105 2.16455 4.23312 2.16455 5.14244V34.2853C2.16455 35.1946 2.53964 36.0667 3.20731 36.7097C3.87497 37.3526 4.78052 37.7139 5.72474 37.7139H12.8451V46.2853L23.9529 37.7139H44.8869C45.8311 37.7139 46.7366 37.3526 47.4043 36.7097C48.072 36.0667 48.4471 35.1946 48.4471 34.2853V5.14244C48.4471 4.23312 48.072 3.36105 47.4043 2.71807C46.7366 2.07509 45.8311 1.71387 44.8869 1.71387Z" stroke="url(#paint0_linear_1501_120)" stroke-width="4.5045" stroke-miterlimit="10" stroke-linecap="round"/>
<path d="M19.9653 15.428C19.9653 14.4109 20.2785 13.4165 20.8653 12.5708C21.4521 11.7251 22.2862 11.0659 23.262 10.6766C24.2378 10.2874 25.3115 10.1855 26.3475 10.384C27.3834 10.5824 28.3349 11.0722 29.0818 11.7915C29.8286 12.5107 30.3372 13.4271 30.5433 14.4247C30.7494 15.4223 30.6436 16.4564 30.2394 17.3961C29.8352 18.3358 29.1507 19.139 28.2725 19.7041C27.3943 20.2692 26.3618 20.5709 25.3056 20.5709V22.2852" stroke="url(#paint1_linear_1501_120)" stroke-width="4.59994" stroke-miterlimit="10" stroke-linecap="round"/>
<path d="M25.3064 27.4277C24.7783 27.4277 24.262 27.5785 23.8229 27.8611C23.3838 28.1437 23.0416 28.5453 22.8395 29.0151C22.6374 29.485 22.5845 30.002 22.6875 30.5008C22.7906 30.9996 23.0449 31.4578 23.4183 31.8174C23.7917 32.1771 24.2675 32.422 24.7855 32.5212C25.3034 32.6204 25.8403 32.5695 26.3282 32.3749C26.8161 32.1802 27.2331 31.8506 27.5265 31.4278C27.8199 31.0049 27.9765 30.5077 27.9765 29.9992C27.9673 29.3199 27.683 28.671 27.1843 28.1907C26.6855 27.7104 26.0117 27.4366 25.3064 27.4277V27.4277Z" fill="#FDC62C"/>
</g>
<defs>
<linearGradient id="paint0_linear_1501_120" x1="6.56431" y1="11.5466" x2="55.9506" y2="21.605" gradientUnits="userSpaceOnUse">
<stop stop-color="#CE0037"/>
<stop offset="1" stop-color="#CE0037" stop-opacity="0"/>
</linearGradient>
<linearGradient id="paint1_linear_1501_120" x1="19.6982" y1="15.4297" x2="34.3395" y2="15.4297" gradientUnits="userSpaceOnUse">
<stop stop-color="#FDC62C"/>
<stop offset="1" stop-color="#FDC62C" stop-opacity="0"/>
</linearGradient>
<clipPath id="clip0_1501_120">
<rect width="49.8427" height="48" fill="white" transform="translate(0.383789)"/>
</clipPath>
</defs>
</svg>
