<svg width="51" height="48" viewBox="0 0 51 48" fill="none" xmlns="http://www.w3.org/2000/svg">
<g clip-path="url(#clip0_1501_89)">
<path d="M12.751 10.2853V3.42815C12.751 2.9735 12.9385 2.53746 13.2724 2.21597C13.6062 1.89448 14.059 1.71387 14.5311 1.71387H44.7927C45.2648 1.71387 45.7176 1.89448 46.0514 2.21597C46.3853 2.53746 46.5728 2.9735 46.5728 3.42815V17.1424" stroke="url(#paint0_linear_1501_89)" stroke-width="4.59994" stroke-miterlimit="10" stroke-linecap="round"/>
<path d="M26.9922 10.2852H37.6728" stroke="url(#paint1_linear_1501_89)" stroke-width="4.59994" stroke-miterlimit="10" stroke-linecap="round"/>
<path d="M3.53017 43.0626L2.07049 19.0626C2.04013 18.8208 2.06362 18.5756 2.13938 18.3433C2.21515 18.1109 2.34145 17.8968 2.50987 17.7151C2.6783 17.5335 2.88498 17.3884 3.11616 17.2897C3.34734 17.191 3.5977 17.1409 3.85058 17.1426H20.2631C20.6621 17.145 21.0492 17.2739 21.3645 17.5094C21.6799 17.7449 21.9059 18.0739 22.0076 18.4455L23.4316 23.9998H46.5729C46.8192 23.999 47.0629 24.0475 47.2887 24.1421C47.5145 24.2367 47.7175 24.3753 47.8848 24.5493C48.0521 24.7234 48.1801 24.9289 48.2607 25.153C48.3413 25.3771 48.3727 25.6148 48.353 25.8512L46.9645 42.9941C46.8928 43.855 46.4862 44.6582 45.8262 45.243C45.1661 45.8278 44.3012 46.1511 43.4043 46.1483H7.09036C6.2047 46.1526 5.34919 45.8388 4.69087 45.2682C4.03256 44.6977 3.61872 43.9113 3.53017 43.0626Z" stroke="url(#paint2_linear_1501_89)" stroke-width="4.5045" stroke-miterlimit="10" stroke-linecap="round"/>
</g>
<defs>
<linearGradient id="paint0_linear_1501_89" x1="11.9052" y1="8.32827" x2="58.2693" y2="8.32827" gradientUnits="userSpaceOnUse">
<stop stop-color="#FDC62C"/>
<stop offset="1" stop-color="#FDC62C" stop-opacity="0"/>
</linearGradient>
<linearGradient id="paint1_linear_1501_89" x1="26.7251" y1="10.7139" x2="41.3664" y2="10.7139" gradientUnits="userSpaceOnUse">
<stop stop-color="#FDC62C"/>
<stop offset="1" stop-color="#FDC62C" stop-opacity="0"/>
</linearGradient>
<linearGradient id="paint2_linear_1501_89" x1="6.45914" y1="23.5414" x2="53.321" y2="38.2135" gradientUnits="userSpaceOnUse">
<stop stop-color="#CE0037"/>
<stop offset="1" stop-color="#CE0037" stop-opacity="0"/>
</linearGradient>
<clipPath id="clip0_1501_89">
<rect width="49.8427" height="48" fill="white" transform="translate(0.291016)"/>
</clipPath>
</defs>
</svg>
