<svg width="25" height="41" viewBox="0 0 25 41" fill="none" xmlns="http://www.w3.org/2000/svg">
<path d="M24.2367 38.3107C24.3268 38.8556 23.9581 39.3703 23.4132 39.4604L14.5337 40.9283C13.9888 41.0184 13.4741 40.6497 13.384 40.1048C13.2939 39.56 13.6626 39.0452 14.2075 38.9551L22.1004 37.6503L20.7955 29.7574C20.7054 29.2125 21.0741 28.6978 21.619 28.6077C22.1639 28.5176 22.6786 28.8863 22.7687 29.4312L24.2367 38.3107ZM22.6678 39.2867C15.8972 34.4372 10.4 29.6012 6.6093 23.4578C2.80656 17.2948 0.769491 9.89716 0.76945 0.000150769L2.76945 0.000142247C2.76949 9.60299 4.74012 16.6198 8.31136 22.4075C11.8946 28.2148 17.1378 32.8657 23.8324 37.6608L22.6678 39.2867Z" fill="white"/>
</svg>
