<svg width="54" height="69" viewBox="0 0 54 69" fill="none" xmlns="http://www.w3.org/2000/svg">
<path d="M9.53799 0.895494C9.18691 0.469152 8.55669 0.408137 8.13035 0.75921L1.18273 6.48027C0.756392 6.83135 0.695374 7.46156 1.04645 7.8879C1.39752 8.31425 2.02774 8.37526 2.45408 8.02419L8.62974 2.9388L13.7151 9.11446C14.0662 9.5408 14.6964 9.60182 15.1228 9.25074C15.5491 8.89968 15.6101 8.26945 15.259 7.84311L9.53799 0.895494ZM7.77068 1.4348C5.93378 20.4076 12.8973 36.0365 22.4392 47.4625C31.96 58.8633 44.1054 66.1505 52.7953 68.4368L53.3042 66.5026C45.0698 64.3362 33.2673 57.3085 23.9743 46.1806C14.7023 35.0778 7.98609 19.9638 9.76137 1.62754L7.77068 1.4348Z" fill="black"/>
</svg>
