<svg width="44" height="23" viewBox="0 0 44 23" fill="none" xmlns="http://www.w3.org/2000/svg">
<path d="M42.3568 0.893461C42.9083 0.864867 43.3786 1.2888 43.4072 1.84034L43.8731 10.8283C43.9017 11.3798 43.4778 11.8501 42.9263 11.8787C42.3747 11.9073 41.9044 11.4834 41.8758 10.9318L41.4616 2.94255L33.4724 3.35674C32.9208 3.38533 32.4505 2.96139 32.4219 2.40985C32.3933 1.8583 32.8173 1.38801 33.3688 1.35942L42.3568 0.893461ZM43.1513 2.56167C37.0634 9.31532 31.2129 14.7275 24.5133 18.1747C17.7851 21.6365 10.2632 23.0855 0.887391 22.0266L1.11182 20.0393C10.1317 21.0579 17.252 19.6616 23.5982 16.3963C29.973 13.1163 35.6291 7.91932 41.6658 1.22257L43.1513 2.56167Z" fill="#DA0C39"/>
</svg>
