<svg width="16" height="73" viewBox="0 0 16 73" fill="none" xmlns="http://www.w3.org/2000/svg">
<path d="M14.9324 72.1477C15.4846 72.1399 15.9259 71.6859 15.9181 71.1337L15.7907 62.1346C15.7829 61.5823 15.3289 61.141 14.7767 61.1488C14.2244 61.1566 13.7831 61.6106 13.7909 62.1629L13.9042 70.1621L5.90495 70.2753C5.35272 70.2831 4.91139 70.7371 4.91921 71.2893C4.92702 71.8416 5.38103 72.2829 5.93326 72.2751L14.9324 72.1477ZM15.6152 70.4308C10.6318 65.5864 4.5721 56.3128 2.7342 44.3358C0.902276 32.3977 3.25348 17.7077 15.1754 1.94763L13.5803 0.741044C1.34277 16.9184 -1.15914 32.15 0.75734 44.6391C2.66784 57.0893 8.95809 66.7487 14.2212 71.8649L15.6152 70.4308Z" fill="white"/>
</svg>
