<svg width="28" height="28" viewBox="0 0 28 28" fill="none" xmlns="http://www.w3.org/2000/svg">
<g clip-path="url(#clip0_925_1274)">
<path d="M25 1H3C2.46957 1 1.96086 1.21071 1.58579 1.58579C1.21071 1.96086 1 2.46957 1 3V20C1 20.5304 1.21071 21.0391 1.58579 21.4142C1.96086 21.7893 2.46957 22 3 22H7V27L13.24 22H25C25.5304 22 26.0391 21.7893 26.4142 21.4142C26.7893 21.0391 27 20.5304 27 20V3C27 2.46957 26.7893 1.96086 26.4142 1.58579C26.0391 1.21071 25.5304 1 25 1Z" stroke="black" stroke-width="2" stroke-linecap="round" stroke-linejoin="round"/>
<path d="M11 9C11 8.40666 11.1759 7.82664 11.5056 7.33329C11.8352 6.83994 12.3038 6.45543 12.8519 6.22836C13.4001 6.0013 14.0033 5.94189 14.5853 6.05765C15.1672 6.1734 15.7018 6.45912 16.1213 6.87868C16.5409 7.29824 16.8266 7.83279 16.9424 8.41473C17.0581 8.99667 16.9987 9.59987 16.7716 10.1481C16.5446 10.6962 16.1601 11.1648 15.6667 11.4944C15.1734 11.8241 14.5933 12 14 12V13" stroke="black" stroke-width="2" stroke-linecap="round" stroke-linejoin="round"/>
<path d="M14 16C13.7033 16 13.4133 16.088 13.1666 16.2528C12.92 16.4176 12.7277 16.6519 12.6142 16.926C12.5006 17.2001 12.4709 17.5017 12.5288 17.7926C12.5867 18.0836 12.7296 18.3509 12.9393 18.5607C13.1491 18.7704 13.4164 18.9133 13.7074 18.9712C13.9983 19.0291 14.2999 18.9993 14.574 18.8858C14.8481 18.7723 15.0824 18.58 15.2472 18.3334C15.412 18.0867 15.5 17.7967 15.5 17.5C15.4948 17.1038 15.3351 16.7253 15.0549 16.4451C14.7747 16.1649 14.3962 16.0052 14 16Z" fill="black"/>
</g>
<defs>
<clipPath id="clip0_925_1274">
<rect width="28" height="28" fill="white"/>
</clipPath>
</defs>
</svg>
