<svg width="92" height="58" viewBox="0 0 92 58" fill="none" xmlns="http://www.w3.org/2000/svg">
<path d="M16 0.890625C20.4271 0.890625 24.112 1.51562 27.0547 2.76562C29.9974 4.01562 32.1979 5.89062 33.6562 8.39062C35.1146 10.8646 35.8438 13.9896 35.8438 17.7656C35.8438 19.9792 35.5573 22.0234 34.9844 23.8984C34.4115 25.7734 33.5521 27.4792 32.4062 29.0156C31.2604 30.5521 29.8151 31.9193 28.0703 33.1172L39.9844 58H25.0234L16.0781 36.5547H14.3203V58H0.726562V0.890625H16ZM15.8438 12.2578H14.3203V26.0078H15.7656C17.7969 26.0078 19.3203 25.3828 20.3359 24.1328C21.3516 22.8828 21.8594 20.9948 21.8594 18.4688C21.8594 16.3854 21.3516 14.8359 20.3359 13.8203C19.3464 12.7786 17.849 12.2578 15.8438 12.2578Z" fill="#BF0C0C"/>
<path d="M62.3891 58H48.8734V12.6484H38.5609V0.890625H72.6234V12.6484H62.3891V58Z" fill="#BF0C0C"/>
<path d="M77.9172 58V0.890625H91.5109V58H77.9172Z" fill="#BF0C0C"/>
</svg>
