<svg width="119" height="119" viewBox="0 0 119 119" fill="none" xmlns="http://www.w3.org/2000/svg">
<path fill-rule="evenodd" clip-rule="evenodd" d="M47.8757 91.2433C49.1192 91.8625 49.9052 93.1319 49.9052 94.521V108.709H69.1022V94.266C69.1022 92.8768 69.8883 91.6072 71.132 90.9882C75.4272 88.85 79.0496 85.5687 81.6008 81.5052C84.1492 77.4462 85.5301 72.7637 85.5922 67.9716C85.6068 63.3253 84.3803 58.7592 82.0392 54.7455C79.6955 50.7273 76.32 47.4088 72.2625 45.1339C68.205 42.8589 63.6129 41.7102 58.9622 41.8068C54.3114 41.9034 49.771 43.2418 45.8114 45.6833C41.8519 48.1247 38.6171 51.5805 36.4423 55.6926C34.2674 59.8047 33.2316 64.4235 33.4422 69.0705C33.6527 73.7175 35.102 78.2237 37.6398 82.1223C40.1776 86.0208 43.7116 89.1699 47.8757 91.2433ZM89.2537 68.001C89.2736 62.6964 87.8747 57.4829 85.2021 52.9007C82.5294 48.3186 78.6802 44.5343 74.0532 41.9401C69.4262 39.3458 64.1896 38.0359 58.8861 38.1461C53.5826 38.2562 48.405 39.7824 43.8897 42.5666C39.3744 45.3507 35.6856 49.2915 33.2055 53.9807C30.7255 58.67 29.5443 63.937 29.7844 69.2362C30.0245 74.5355 31.6772 79.6741 34.5711 84.1198C37.4651 88.5655 41.4951 92.1566 46.2437 94.521V109.141C46.2659 110.005 46.6249 110.827 47.2442 111.43C47.8635 112.034 48.694 112.371 49.5587 112.371H69.4487C70.3134 112.371 71.1439 112.034 71.7632 111.43C72.3825 110.827 72.7415 110.005 72.7637 109.141V94.266C77.6618 91.8278 81.7925 88.086 84.7018 83.4522C87.6111 78.8183 89.1861 73.472 89.2537 68.001Z" fill="white"/>
<path fill-rule="evenodd" clip-rule="evenodd" d="M59.5007 5.05469C60.5118 5.05469 61.3315 5.87435 61.3315 6.88546V19.6355C61.3315 20.6466 60.5118 21.4662 59.5007 21.4662C58.4896 21.4662 57.6699 20.6466 57.6699 19.6355V6.88546C57.6699 5.87435 58.4896 5.05469 59.5007 5.05469Z" fill="#FF4B12"/>
<path fill-rule="evenodd" clip-rule="evenodd" d="M94.7894 17.7401C95.5077 18.4517 95.5131 19.6109 94.8015 20.3292L85.7915 29.4242C85.0799 30.1425 83.9208 30.1479 83.2025 29.4363C82.4842 28.7247 82.4787 27.5656 83.1903 26.8473L92.2003 17.7523C92.9119 17.034 94.0711 17.0285 94.7894 17.7401Z" fill="#FF4B12"/>
<path fill-rule="evenodd" clip-rule="evenodd" d="M98.3008 45.3903C98.3008 44.3792 99.1204 43.5596 100.132 43.5596H112.882C113.893 43.5596 114.712 44.3792 114.712 45.3903C114.712 46.4014 113.893 47.2211 112.882 47.2211H100.132C99.1204 47.2211 98.3008 46.4014 98.3008 45.3903Z" fill="#FF4B12"/>
<path fill-rule="evenodd" clip-rule="evenodd" d="M24.2142 17.7404C24.9325 17.0288 26.0917 17.0342 26.8033 17.7525L35.8133 26.8475C36.5249 27.5658 36.5194 28.725 35.8011 29.4366C35.0828 30.1482 33.9236 30.1427 33.212 29.4244L24.202 20.3294C23.4904 19.6111 23.4959 18.452 24.2142 17.7404Z" fill="#FF4B12"/>
<path fill-rule="evenodd" clip-rule="evenodd" d="M4.29102 45.3903C4.29102 44.3792 5.11068 43.5596 6.12178 43.5596H18.8718C19.8829 43.5596 20.7026 44.3792 20.7026 45.3903C20.7026 46.4014 19.8829 47.2211 18.8718 47.2211H6.12178C5.11068 47.2211 4.29102 46.4014 4.29102 45.3903Z" fill="#FF4B12"/>
</svg>
