<svg width="117" height="117" viewBox="0 0 117 117" fill="none" xmlns="http://www.w3.org/2000/svg">
<path fill-rule="evenodd" clip-rule="evenodd" d="M58.5004 0C59.5426 0 60.3874 0.844876 60.3874 1.88708V36.7259C60.3874 37.7681 59.5426 38.613 58.5004 38.613C57.4582 38.613 56.6133 37.7681 56.6133 36.7259V1.88708C56.6133 0.844876 57.4582 0 58.5004 0Z" fill="black"/>
<path fill-rule="evenodd" clip-rule="evenodd" d="M69.6738 93.3387C69.6738 92.2965 70.5187 91.4517 71.5609 91.4517H93.335C94.3772 91.4517 95.222 92.2965 95.222 93.3387C95.222 94.381 94.3772 95.2258 93.335 95.2258H71.5609C70.5187 95.2258 69.6738 94.381 69.6738 93.3387Z" fill="#FF4B12"/>
<path fill-rule="evenodd" clip-rule="evenodd" d="M0 36.7245C0 35.6823 0.844876 34.8374 1.88708 34.8374H115.112C116.154 34.8374 116.999 35.6823 116.999 36.7245V106.402C116.999 109.213 115.883 111.908 113.896 113.895C111.908 115.882 109.213 116.999 106.402 116.999H10.5967C7.78627 116.999 5.09096 115.882 3.1037 113.895C1.11643 111.908 0 109.213 0 106.402V36.7245ZM3.77417 38.6116V106.402C3.77417 108.212 4.49297 109.947 5.77245 111.226C7.05192 112.506 8.78726 113.225 10.5967 113.225H106.402C108.212 113.225 109.947 112.506 111.227 111.226C112.506 109.947 113.225 108.212 113.225 106.402V38.6116H3.77417Z" fill="black"/>
<path fill-rule="evenodd" clip-rule="evenodd" d="M30.0581 0.000623021C30.0743 0.000207749 30.0905 0 30.1066 0H86.8933C90.4851 0.00190618 94.0062 1.00575 97.0587 2.89867C100.11 4.79074 102.573 7.49609 104.171 10.7108C104.172 10.7122 104.173 10.7137 104.174 10.7151L116.799 35.8796C117.267 36.8112 116.89 37.9452 115.959 38.4126C115.027 38.88 113.893 38.5037 113.426 37.5721L100.797 12.4011L100.794 12.3946C99.5077 9.80681 97.5254 7.62906 95.0697 6.10618C92.6142 4.58348 89.7826 3.77589 86.8933 3.77417C86.8932 3.77417 86.8935 3.77417 86.8933 3.77417H30.1316C27.3166 3.85079 24.5752 4.69132 22.2008 6.20602C19.8198 7.72494 17.898 9.86431 16.6422 12.394L16.6268 12.4242L3.56239 37.5952C3.08228 38.5202 1.94318 38.8809 1.01815 38.4008C0.0931145 37.9207 -0.267561 36.7816 0.212555 35.8566L13.2694 10.7002C14.8305 7.56263 17.2163 4.90906 20.171 3.02417C23.1305 1.13616 26.5488 0.0908241 30.0581 0.000623021Z" fill="black"/>
</svg>
