<svg width="62" height="62" viewBox="0 0 62 62" fill="none" xmlns="http://www.w3.org/2000/svg">
<path fill-rule="evenodd" clip-rule="evenodd" d="M31 0C31.5523 0 32 0.447715 32 1V19.4617C32 20.014 31.5523 20.4617 31 20.4617C30.4477 20.4617 30 20.014 30 19.4617V1C30 0.447715 30.4477 0 31 0Z" fill="white"/>
<path fill-rule="evenodd" clip-rule="evenodd" d="M36.9219 49.4619C36.9219 48.9096 37.3696 48.4619 37.9219 48.4619H49.4603C50.0126 48.4619 50.4603 48.9096 50.4603 49.4619C50.4603 50.0142 50.0126 50.4619 49.4603 50.4619H37.9219C37.3696 50.4619 36.9219 50.0142 36.9219 49.4619Z" fill="#FF4B12"/>
<path fill-rule="evenodd" clip-rule="evenodd" d="M0 19.4609C0 18.9087 0.447715 18.4609 1 18.4609H61C61.5523 18.4609 62 18.9087 62 19.4609V56.3844C62 57.8737 61.4084 59.302 60.3553 60.3551C59.3022 61.4082 57.8739 61.9998 56.3846 61.9998H5.61538C4.12609 61.9998 2.69779 61.4082 1.6447 60.3551C0.591617 59.302 0 57.8737 0 56.3844V19.4609ZM2 20.4609V56.3844C2 57.3432 2.38091 58.2628 3.05893 58.9409C3.73694 59.6189 4.65653 59.9998 5.61538 59.9998H56.3846C57.3435 59.9998 58.2631 59.6189 58.9411 58.9409C59.6191 58.2628 60 57.3432 60 56.3844V20.4609H2Z" fill="white"/>
<path fill-rule="evenodd" clip-rule="evenodd" d="M15.9284 0.00033015C15.9369 0.00011009 15.9455 0 15.9541 0H46.0464C47.9497 0.00101012 49.8156 0.532967 51.4332 1.53606C53.05 2.5387 54.3553 3.97231 55.2023 5.67583C55.2027 5.6766 55.203 5.67736 55.2034 5.67813L61.894 19.0133C62.1417 19.5069 61.9423 20.1079 61.4487 20.3555C60.955 20.6032 60.3541 20.4038 60.1064 19.9102L53.4141 6.57157L53.4124 6.56812C52.7309 5.19681 51.6805 4.04278 50.3791 3.23578C49.0779 2.42887 47.5774 2.00091 46.0464 2C46.0463 2 46.0465 2 46.0464 2H15.9673C14.4755 2.04061 13.0228 2.48601 11.7646 3.28868C10.5029 4.09358 9.48448 5.22728 8.81898 6.56779L8.81085 6.5838L1.88778 19.9224C1.63335 20.4126 1.02973 20.6037 0.539535 20.3493C0.0493431 20.0949 -0.141786 19.4912 0.112637 19.001L7.03168 5.67023C7.85896 4.00758 9.12323 2.6014 10.689 1.60256C12.2573 0.602071 14.0687 0.0481293 15.9284 0.00033015Z" fill="white"/>
</svg>
