<svg width="75" height="75" viewBox="0 0 75 75" fill="none" xmlns="http://www.w3.org/2000/svg">
<path fill-rule="evenodd" clip-rule="evenodd" d="M12.5 11.5C13.0523 11.5 13.5 11.9477 13.5 12.5V31.25C13.5 31.8023 13.0523 32.25 12.5 32.25C11.9477 32.25 11.5 31.8023 11.5 31.25V12.5C11.5 11.9477 11.9477 11.5 12.5 11.5Z" fill="white"/>
<path fill-rule="evenodd" clip-rule="evenodd" d="M21.875 11.5C22.4273 11.5 22.875 11.9477 22.875 12.5V25C22.875 25.5523 22.4273 26 21.875 26C21.3227 26 20.875 25.5523 20.875 25V12.5C20.875 11.9477 21.3227 11.5 21.875 11.5Z" fill="white"/>
<path fill-rule="evenodd" clip-rule="evenodd" d="M31.25 11.5C31.8023 11.5 32.25 11.9477 32.25 12.5V15.625C32.25 16.1773 31.8023 16.625 31.25 16.625C30.6977 16.625 30.25 16.1773 30.25 15.625V12.5C30.25 11.9477 30.6977 11.5 31.25 11.5Z" fill="#FF4B12"/>
<path fill-rule="evenodd" clip-rule="evenodd" d="M11.5 62.5C11.5 61.9477 11.9477 61.5 12.5 61.5H31.25C31.8023 61.5 32.25 61.9477 32.25 62.5C32.25 63.0523 31.8023 63.5 31.25 63.5H12.5C11.9477 63.5 11.5 63.0523 11.5 62.5Z" fill="white"/>
<path fill-rule="evenodd" clip-rule="evenodd" d="M11.5 53.125C11.5 52.5727 11.9477 52.125 12.5 52.125H25C25.5523 52.125 26 52.5727 26 53.125C26 53.6773 25.5523 54.125 25 54.125H12.5C11.9477 54.125 11.5 53.6773 11.5 53.125Z" fill="white"/>
<path fill-rule="evenodd" clip-rule="evenodd" d="M11.5 43.75C11.5 43.1977 11.9477 42.75 12.5 42.75H15.625C16.1773 42.75 16.625 43.1977 16.625 43.75C16.625 44.3023 16.1773 44.75 15.625 44.75H12.5C11.9477 44.75 11.5 44.3023 11.5 43.75Z" fill="#FF4B12"/>
<path fill-rule="evenodd" clip-rule="evenodd" d="M42.75 12.5C42.75 11.9477 43.1977 11.5 43.75 11.5H62.5C63.0523 11.5 63.5 11.9477 63.5 12.5C63.5 13.0523 63.0523 13.5 62.5 13.5H43.75C43.1977 13.5 42.75 13.0523 42.75 12.5Z" fill="white"/>
<path fill-rule="evenodd" clip-rule="evenodd" d="M49 21.875C49 21.3227 49.4477 20.875 50 20.875H62.5C63.0523 20.875 63.5 21.3227 63.5 21.875C63.5 22.4273 63.0523 22.875 62.5 22.875H50C49.4477 22.875 49 22.4273 49 21.875Z" fill="white"/>
<path fill-rule="evenodd" clip-rule="evenodd" d="M58.375 31.25C58.375 30.6977 58.8227 30.25 59.375 30.25H62.5C63.0523 30.25 63.5 30.6977 63.5 31.25C63.5 31.8023 63.0523 32.25 62.5 32.25H59.375C58.8227 32.25 58.375 31.8023 58.375 31.25Z" fill="#FF4B12"/>
<path fill-rule="evenodd" clip-rule="evenodd" d="M62.5 42.75C63.0523 42.75 63.5 43.1977 63.5 43.75V62.5C63.5 63.0523 63.0523 63.5 62.5 63.5C61.9477 63.5 61.5 63.0523 61.5 62.5V43.75C61.5 43.1977 61.9477 42.75 62.5 42.75Z" fill="white"/>
<path fill-rule="evenodd" clip-rule="evenodd" d="M53.125 49C53.6773 49 54.125 49.4477 54.125 50V62.5C54.125 63.0523 53.6773 63.5 53.125 63.5C52.5727 63.5 52.125 63.0523 52.125 62.5V50C52.125 49.4477 52.5727 49 53.125 49Z" fill="white"/>
<path fill-rule="evenodd" clip-rule="evenodd" d="M43.75 58.375C44.3023 58.375 44.75 58.8227 44.75 59.375V62.5C44.75 63.0523 44.3023 63.5 43.75 63.5C43.1977 63.5 42.75 63.0523 42.75 62.5V59.375C42.75 58.8227 43.1977 58.375 43.75 58.375Z" fill="#FF4B12"/>
<path fill-rule="evenodd" clip-rule="evenodd" d="M25.7442 38.2071C25.3537 37.8166 25.3537 37.1834 25.7442 36.7929L36.7927 25.7445C37.1832 25.3539 37.8163 25.3539 38.2069 25.7445L49.2553 36.7929C49.6458 37.1834 49.6458 37.8166 49.2553 38.2071L38.2069 49.2555C38.0193 49.4431 37.765 49.5484 37.4998 49.5484C37.2345 49.5484 36.9802 49.4431 36.7927 49.2555L25.7442 38.2071ZM27.8655 37.5L37.4998 47.1342L47.134 37.5L37.4998 27.8658L27.8655 37.5Z" fill="#FF4B12"/>
</svg>
