<svg width="67" height="57" viewBox="0 0 67 57" fill="none" xmlns="http://www.w3.org/2000/svg">
<path fill-rule="evenodd" clip-rule="evenodd" d="M35.71 0.157872C36.1751 -0.139856 36.7936 -0.00412384 37.0913 0.461039L49.2359 19.4354C49.4123 19.711 49.4427 20.0555 49.3172 20.3578L34.4239 56.2484C34.2122 56.7585 33.6271 57.0004 33.117 56.7888C32.6069 56.5771 32.365 55.992 32.5766 55.4819L47.2698 20.0736L35.4068 1.53921C35.1091 1.07405 35.2448 0.455601 35.71 0.157872Z" fill="#FF4B12"/>
<path fill-rule="evenodd" clip-rule="evenodd" d="M31.4403 0.158878C31.9049 0.457474 32.0395 1.07617 31.7409 1.54078L19.8285 20.076L34.423 55.4841C34.6335 55.9947 34.3902 56.5792 33.8796 56.7897C33.3689 57.0001 32.7844 56.7568 32.5739 56.2462L17.7805 20.3556C17.6559 20.0532 17.687 19.709 17.8638 19.4338L30.0584 0.459466C30.357 -0.0051401 30.9757 -0.139718 31.4403 0.158878Z" fill="#FF4B12"/>
<path fill-rule="evenodd" clip-rule="evenodd" d="M15.2805 0.0509172C15.2897 0.0506638 15.2989 0.0505371 15.3081 0.0505371H51.6919V1.05054L51.7195 0.0509172C52.7159 0.0783974 53.6916 0.341008 54.5679 0.817274C55.4411 1.29192 56.1909 1.9654 56.7572 2.78324L65.8534 15.4332C66.6569 16.5736 67.0578 17.9503 66.9933 19.3449C66.9287 20.7395 66.4022 22.073 65.4966 23.1338L65.4927 23.1384L38.222 54.6923C37.6643 55.407 36.9525 55.9862 36.1395 56.3861C35.318 56.7902 34.4151 57.0003 33.5 57.0003C32.5849 57.0003 31.682 56.7902 30.8605 56.3861C30.0475 55.9862 29.3357 55.407 28.778 54.6923L1.50338 23.1338C0.59776 22.073 0.0713213 20.7395 0.00674053 19.3449C-0.0578397 17.9503 0.343093 16.5736 1.1466 15.4332L1.15214 15.4253L10.2427 2.78328C10.8091 1.96542 11.5589 1.29193 12.4321 0.817274C13.3084 0.341008 14.2841 0.0783974 15.2805 0.0509172ZM51.6774 2.05054H15.3226C14.6459 2.07125 13.9832 2.25056 13.3873 2.57447C12.7875 2.90048 12.2721 3.36391 11.883 3.92762L11.8719 3.94339L2.77892 16.5888C2.23334 17.365 1.9606 18.3022 2.0046 19.2524C2.04862 20.2031 2.40719 21.1112 3.02263 21.8331C3.02325 21.8338 3.02387 21.8345 3.02448 21.8353L30.3084 53.4044C30.3203 53.4182 30.3319 53.4324 30.3431 53.4468C30.7171 53.9309 31.1961 54.3223 31.7432 54.5914C32.2903 54.8605 32.8912 55.0003 33.5 55.0003C34.1088 55.0003 34.7097 54.8605 35.2568 54.5914C35.8039 54.3223 36.2829 53.9309 36.6569 53.4468C36.6681 53.4324 36.6797 53.4182 36.6917 53.4044L63.9755 21.8353C63.9762 21.8345 63.9768 21.8337 63.9774 21.833C64.5928 21.1111 64.9514 20.203 64.9954 19.2524C65.0394 18.3023 64.7667 17.365 64.2212 16.589C64.2203 16.5877 64.2194 16.5864 64.2185 16.5851L55.1281 3.94339L55.117 3.92762C54.7279 3.36391 54.2125 2.90048 53.6127 2.57447C53.0168 2.25056 52.3541 2.07125 51.6774 2.05054Z" fill="white"/>
<path fill-rule="evenodd" clip-rule="evenodd" d="M0.115234 19.9746C0.115234 19.4223 0.56295 18.9746 1.11523 18.9746H65.8863C66.4386 18.9746 66.8863 19.4223 66.8863 19.9746C66.8863 20.5269 66.4386 20.9746 65.8863 20.9746H1.11523C0.56295 20.9746 0.115234 20.5269 0.115234 19.9746Z" fill="white"/>
</svg>
