<svg width="74" height="75" viewBox="0 0 74 75" fill="none" xmlns="http://www.w3.org/2000/svg">
<path fill-rule="evenodd" clip-rule="evenodd" d="M15.4079 10.3633C12.5456 10.3633 10.2253 12.715 10.2253 15.6159V59.3841C10.2253 62.285 12.5456 64.6367 15.4079 64.6367H27.7463C28.2912 64.6367 28.733 65.0844 28.733 65.6367C28.733 66.189 28.2912 66.6367 27.7463 66.6367H15.4079C11.4558 66.6367 8.25195 63.3896 8.25195 59.3841V15.6159C8.25195 11.6104 11.4558 8.36328 15.4079 8.36328H52.4233C56.3754 8.36328 59.5792 11.6104 59.5792 15.6159V24.9948C59.5792 25.5471 59.1374 25.9948 58.5925 25.9948C58.0476 25.9948 57.6058 25.5471 57.6058 24.9948V15.6159C57.6058 12.715 55.2855 10.3633 52.4233 10.3633H15.4079Z" fill="white"/>
<path fill-rule="evenodd" clip-rule="evenodd" d="M66.8793 35.2933C66.8967 35.3086 66.9134 35.3245 66.9297 35.3411C69.4756 37.9347 69.4661 42.1286 66.9088 44.7105C66.9085 44.7108 66.9082 44.7111 66.9079 44.7114L47.2974 64.5869C46.7359 65.155 46.0028 65.5176 45.2155 65.6163L37.1213 66.6293C36.8161 66.6675 36.5108 66.5593 36.2956 66.3367C36.0804 66.1141 35.9799 65.8025 36.0238 65.4941L37.223 57.064C37.2232 57.0631 37.2233 57.0623 37.2234 57.0615C37.3304 56.2872 37.6845 55.5696 38.2316 55.0183C38.232 55.0178 38.2325 55.0174 38.2329 55.0169L57.5596 35.429C57.5912 35.3844 57.6265 35.3423 57.6655 35.303C60.2143 32.733 64.3295 32.7323 66.8793 35.2933ZM66.2117 36.0307L66.0467 36.2313L65.5307 36.7516C67.3085 38.5628 67.3017 41.4915 65.5155 43.2942L65.514 43.2957L45.9026 63.1721C45.9028 63.1719 45.9024 63.1723 45.9026 63.1721M66.2117 36.0307L65.5125 36.7363C63.7657 34.9584 60.9474 34.9199 59.1543 36.6258C59.1255 36.6653 59.0937 36.7027 59.059 36.7378L39.6259 56.4335L39.6235 56.4359C39.3813 56.6798 39.2246 56.9974 39.1775 57.3401L39.1768 57.3447L38.1612 64.4839L44.9733 63.6314C44.9734 63.6314 44.9732 63.6314 44.9733 63.6314" fill="white"/>
<path fill-rule="evenodd" clip-rule="evenodd" d="M24.6624 44.7527C22.652 44.7527 21.0222 46.4045 21.0222 48.4421C21.0222 50.4798 22.652 52.1316 24.6624 52.1316C26.6729 52.1316 28.3027 50.4798 28.3027 48.4421C28.3027 46.4045 26.6729 44.7527 24.6624 44.7527ZM19.0488 48.4421C19.0488 45.2999 21.5621 42.7527 24.6624 42.7527C27.7627 42.7527 30.276 45.2999 30.276 48.4421C30.276 51.5843 27.7627 54.1316 24.6624 54.1316C21.5621 54.1316 19.0488 51.5843 19.0488 48.4421Z" fill="#FF4B12"/>
<path fill-rule="evenodd" clip-rule="evenodd" d="M19.0488 21.8684C19.0488 21.3161 19.4906 20.8684 20.0355 20.8684H44.7124C45.2574 20.8684 45.6991 21.3161 45.6991 21.8684C45.6991 22.4207 45.2574 22.8684 44.7124 22.8684H20.0355C19.4906 22.8684 19.0488 22.4207 19.0488 21.8684Z" fill="#FF4B12"/>
<path fill-rule="evenodd" clip-rule="evenodd" d="M19.0488 32.8105C19.0488 32.2583 19.4906 31.8105 20.0355 31.8105H32.374C32.9189 31.8105 33.3606 32.2583 33.3606 32.8105C33.3606 33.3628 32.9189 33.8105 32.374 33.8105H20.0355C19.4906 33.8105 19.0488 33.3628 19.0488 32.8105Z" fill="#FF4B12"/>
</svg>
