<svg width="106" height="106" viewBox="0 0 106 106" fill="none" xmlns="http://www.w3.org/2000/svg">
<path fill-rule="evenodd" clip-rule="evenodd" d="M93.7103 16.799C82.8297 6.41351 68.3618 0.626225 53.3204 0.642613C42.9018 0.642785 32.7172 3.73233 24.0545 9.52058C15.3915 15.309 8.63955 23.5363 4.65242 33.1621C0.665291 42.7879 -0.377922 53.3798 1.65469 63.5985C3.68732 73.8172 8.70448 83.2036 16.0717 90.5709C23.439 97.9381 32.8254 102.955 43.0441 104.988C53.2628 107.021 63.8547 105.977 73.4805 101.99C83.1063 98.0031 91.3336 91.2511 97.122 82.5881C102.91 73.9251 106 63.7402 106 53.3214C106 52.3882 105.244 51.6318 104.31 51.6318C103.377 51.6318 102.621 52.3882 102.621 53.3214C102.621 63.0719 99.7295 72.6035 94.3124 80.7108C88.8952 88.818 81.1957 95.1369 72.1874 98.8683C63.1791 102.6 53.2666 103.576 43.7034 101.674C34.1402 99.7715 25.3558 95.0761 18.4612 88.1815C11.5665 81.2868 6.87116 72.5024 4.96893 62.9392C3.06669 53.3761 4.04299 43.4636 7.77436 34.4552C11.5057 25.4469 17.8246 17.7474 25.9319 12.3303C34.0391 6.91315 43.5707 4.02178 53.3212 4.02178L53.3231 4.02178C67.4946 4.00609 81.1258 9.45856 91.3771 19.2434C92.0521 19.8877 93.1216 19.8628 93.7659 19.1878C94.4102 18.5128 94.3853 17.4433 93.7103 16.799Z" fill="black"/>
<path fill-rule="evenodd" clip-rule="evenodd" d="M88.2085 0.693425C87.3032 0.919742 86.7528 1.83707 86.9791 2.74234L90.4916 16.7922L76.4417 20.3046C75.5365 20.531 74.9861 21.4483 75.2124 22.3536C75.4387 23.2588 76.356 23.8092 77.2613 23.5829L92.9503 19.6607C93.8555 19.4344 94.4059 18.517 94.1796 17.6118L90.2574 1.92278C90.0311 1.01751 89.1137 0.467107 88.2085 0.693425Z" fill="black"/>
<path fill-rule="evenodd" clip-rule="evenodd" d="M53.3226 24.1763C52.3895 24.1763 51.633 24.9327 51.633 25.8659V57.2438C51.633 57.8838 51.9946 58.4688 52.567 58.755L72.9626 68.9529C73.7973 69.3702 74.8122 69.0319 75.2295 68.1973C75.6468 67.3626 75.3085 66.3477 74.4739 65.9304L55.0122 56.1996V25.8659C55.0122 24.9327 54.2557 24.1763 53.3226 24.1763Z" fill="#FF4B12"/>
</svg>
