<svg width="1370" height="1124" viewBox="0 0 1370 1124" fill="none" xmlns="http://www.w3.org/2000/svg">
<g opacity="0.1">
<path d="M650.416 890.29C699.904 886.197 749.862 886.667 799.331 889.71C825.82 891.322 852.254 893.803 878.616 896.954C858.185 904.76 837.663 912.294 816.978 919.394C748.74 942.685 678.406 963.947 606.606 973.22C573.445 977.53 538.151 980.102 505.353 971.662C503.193 971.108 500.926 971.127 498.776 971.716C496.625 972.306 494.666 973.447 493.089 975.026C491.512 976.605 490.374 978.568 489.785 980.722C489.196 982.876 489.177 985.147 489.731 987.31C497.759 1018.79 497.668 1053.43 493.347 1086.03C491.177 1083.88 488.971 1081.74 486.964 1079.42L484.758 1076.74L484.343 1076.25L483.981 1075.73C482.336 1073.39 480.672 1071.11 479.153 1068.7C475.797 1063.33 472.778 1057.76 470.113 1052.02L469.263 1050.06C468.558 1048.25 467.871 1046.55 467.22 1044.78C465.93 1041.23 464.773 1037.63 463.748 1034C462.609 1029.98 461.633 1025.9 460.801 1021.81C460.367 1019.69 459.969 1017.59 459.608 1015.47L459.12 1012.38C459.12 1011.76 458.957 1011.38 458.921 1011.11C458.921 1011.22 458.921 1011.25 458.921 1011.02C452.827 960.307 463.441 913.798 480.383 865.351C606.045 780.501 741.978 709.905 882.522 653.58C948.683 626.94 1016.23 603.887 1084.87 584.523C992.797 651.28 898.161 714.632 799.674 771.428C763.621 792.219 727.025 812.141 689.724 830.578C676.465 837.146 663.085 843.503 649.584 849.649C644.148 852.136 638.682 854.551 633.185 856.893L627.038 859.537L622.101 861.584C613.169 865.206 604.165 868.973 594.98 871.961C579.412 877.014 585.723 900.015 601.724 896.502C619.01 892.698 631.684 891.757 650.326 890.217M506.998 1097.08C510.162 1097.7 508.969 1098.47 506.998 1097.08V1097.08ZM345.987 1010.98C330.799 1040.74 298.977 1059.63 269.939 1073.41C257.073 1079.4 243.877 1084.65 230.413 1089.13C252.002 1057.69 278.437 1029.49 305.793 1003.19C318.938 990.516 332.517 978.399 346.313 966.5C353.997 980.283 353.726 995.804 345.987 1010.96M114.967 984.086C114.822 984.575 114.623 984.974 114.37 985.01C114.596 984.721 114.796 984.412 114.967 984.086ZM112.019 975.954C111.423 975.954 111.025 975.954 111.133 975.828C110.229 976.932 111.133 975.176 112.019 975.954ZM940.128 715.048C1012.45 667.96 1083.09 618.137 1152.29 566.448C1163.39 558.153 1157.33 539.626 1142.49 543.193C978.568 582.494 820.106 645.484 670.576 723.162C611.578 753.824 553.231 787.094 496.818 823.37C528.171 749.64 571.746 680.746 617.563 615.583C709.649 484.586 817.123 364.547 928.284 249.633C930.978 246.844 933.709 244.109 936.421 241.338C874.584 384.415 790.743 519.305 695.438 641.771C687.609 651.823 679.725 661.874 671.499 671.6C661.012 684.042 678.894 702.135 689.471 689.602C714.784 659.701 738.073 628.025 760.837 596.222C814.677 521.328 863.361 442.846 906.551 361.323C935.992 305.751 962.105 248.474 984.751 189.795C989.489 177.479 971.95 168.931 963.524 177.407C841.116 300.561 722.812 428.968 619.841 569.056C558.927 651.913 501.99 739.969 464.255 836.12C462.736 839.977 461.307 843.926 459.861 847.838C421.656 873.972 384.391 901.5 348.898 931.003C319.969 908.908 274.495 903.511 239.87 906.861C278.094 868.434 314.276 828.021 348.265 785.789C386.796 738.049 424.929 687.827 451.978 632.48C466.262 603.286 489.188 551.742 457.782 525.264C421.873 495 361.953 523.561 328.72 543.61C261.639 584.124 206.673 644.506 160.802 707.315C98.2778 792.907 51.5024 890.235 21.271 991.82C13.0141 1019.59 6.0228 1047.67 0.297162 1076.05C-2.95741 1092.05 21.5242 1098.87 24.7968 1082.83C45.1232 981.679 81.8819 884.558 133.608 795.334C174.507 725.227 224.863 659.321 286.446 606.111C308.813 586.786 332.969 569.146 359.349 555.654C377.611 546.309 398.585 538.684 417.045 538.575C424.675 538.575 431.058 539.191 436.555 541.6C440.188 542.938 443.193 545.586 444.98 549.025C445.396 549.84 445.613 550.202 445.74 550.402C445.866 550.601 445.74 550.565 445.848 550.728C446.336 552.195 446.716 553.662 447.114 555.147C447.946 558.37 447.385 556.125 447.457 556.958C447.602 558.769 447.693 560.707 447.693 562.608C447.693 564.51 447.566 565.941 447.457 567.607C447.457 568.44 447.295 569.273 447.186 570.106C447.186 570.287 447.186 570.45 447.186 570.559C446.422 575.205 445.384 579.801 444.076 584.323C431.148 629.909 400.899 673.067 373.018 711.861C336.826 761.785 297.511 809.361 255.311 854.303C236.778 874.225 216.925 894.98 196.53 914.395C163.803 922.382 131.565 935.839 106.125 956.739C96.6686 964.526 84.8075 977.512 91.6602 990.697C96.8494 1000.73 110.157 1003.03 120.373 1001.02C134.747 998.195 147.982 988.052 159.392 979.45C176.598 966.264 193.099 952.178 208.825 937.251C233.632 931.293 259.343 928.902 283.807 931.818C299.429 933.629 316.172 939.062 329.009 948.118C320.222 955.743 311.344 963.277 302.792 971.137C260.247 1010.24 218.733 1053.78 190.69 1104.83C185.428 1114.45 194.143 1126.56 205.046 1123.52C252.454 1110.41 301.562 1092.28 339.098 1059.32C360.072 1040.88 378.28 1014.66 377.195 985.535C376.893 972.846 373.142 960.479 366.346 949.766C392.22 928.486 418.944 908.274 446.264 888.913C435.723 925.769 429.521 964.074 432.595 1002C435.253 1034.76 444.926 1066.96 465.412 1093.04C472.952 1102.62 482.751 1113.24 493.925 1119.01C493.086 1117.94 492.33 1116.81 491.665 1115.63V1115.43C492.634 1117.39 494.163 1119.02 496.059 1120.12C498.045 1121.18 500.262 1121.74 502.514 1121.74C504.766 1121.74 506.983 1121.18 508.969 1120.12C510.523 1119.28 511.86 1118.08 512.873 1116.63C513.887 1115.18 514.55 1113.52 514.809 1111.77C521.481 1075.78 524.012 1036.81 518.082 1000.02C542.274 1003.56 567.171 1002.78 591.364 1000.39C628.737 996.764 665.713 989.266 702.11 980.174C767.364 963.874 831.352 942.322 894.039 918.054C907.745 912.765 921.396 907.332 934.92 901.573C944.575 897.462 942.333 879.84 931.883 878.318C849.94 866.329 765.411 858.233 682.022 862.453L689.417 858.831C776.206 816.995 859.179 767.407 939.892 714.976" fill="#6D7AA7" fill-opacity="0.75"/>
</g>
</svg>
