<svg width="74" height="18" fill="none" xmlns="http://www.w3.org/2000/svg"><path d="M44.407 0h2.02c-.56 1.41-.971 3.034-1.594 4.307h-1.93c.547-1.396.973-2.912 1.504-4.307zM6.959 16.912H3.288V5.46H0V2.367h10.675l-.429 3.093H6.96v11.452zm29.605 0h-3.657V5.46h-3.288V2.367h10.66l-.43 3.093h-3.285v11.452zm16.824 0h-3.54v-6.537a15.997 15.997 0 00-.323-3.914l3.24-.562c.14.411.21.841.223 1.274A2.556 2.556 0 0155.14 5.84c.46.005.915.113 1.33.319L55.655 9.1a1.946 1.946 0 00-1.03-.288 1.292 1.292 0 00-1.239.774v7.326zm-28.693-1.668zm-6.045-3.459v-.182a6.186 6.186 0 00-1.208-4.262 4.02 4.02 0 00-3.348-1.517 4.662 4.662 0 00-3.656 1.517 6.183 6.183 0 00-1.298 4.215v.29a5.564 5.564 0 001.637 4.092 5.064 5.064 0 003.362 1.185h.205a6.399 6.399 0 004.261-1.517l-1.356-2.045a4.651 4.651 0 01-2.669 1.09h-.087a1.554 1.554 0 01-1.475-.774 2.861 2.861 0 01-.266-1.198h5.898v-.894zm-5.897-1.623c.02-.52.2-1.019.516-1.426.21-.228.505-.348.81-.334a.973.973 0 011.003.698c.116.362.166.743.148 1.122v.108h-2.433l-.044-.168z" fill="#7E7E7E"/><path d="M26.612 11.603l-.251-.397 3.126-5.064h-4.128l-.472.925a5.86 5.86 0 00-.53 1.775 6.273 6.273 0 00-.634-1.653l-.796-1.426-3.76.758 2.948 4.778-.19.286-3.421 5.326h4.319l.634-1.123c.344-.534.584-1.13.709-1.76.107.423.267.832.471 1.216l.752 1.667h4.422l-3.199-5.308zm21.644.182v-.182a6.185 6.185 0 00-1.21-4.262A3.997 3.997 0 0043.7 5.824a4.67 4.67 0 00-3.658 1.517 6.201 6.201 0 00-1.297 4.215v.29a5.57 5.57 0 001.638 4.092c.951.79 2.14 1.21 3.362 1.185h.192a6.396 6.396 0 004.26-1.517l-1.357-2.093a4.656 4.656 0 01-2.609 1.137h-.089a1.555 1.555 0 01-1.474-.773 2.842 2.842 0 01-.266-1.2h5.897l-.043-.892zm-5.897-1.623a2.5 2.5 0 01.398-1.426c.21-.225.508-.347.812-.334a.976.976 0 01.988.698c.115.362.163.743.146 1.122v.108h-2.357l.013-.168zm18.546 6.75h-3.523v-6.537a16.033 16.033 0 00-.326-3.914l3.244-.562c.136.411.21.841.222 1.274a2.557 2.557 0 012.152-1.334c.46.005.915.113 1.325.319L63.176 9.1a1.955 1.955 0 00-1.034-.288 1.295 1.295 0 00-1.237.774v7.326zm12.532-1.638a2.147 2.147 0 01-.722-1.942V9.51a6.46 6.46 0 00-.175-1.67 2.424 2.424 0 00-1.3-1.517 5.411 5.411 0 00-2.477-.5 7.284 7.284 0 00-2.595.485c-.734.274-1.44.625-2.106 1.047l1.266 2.26a6.058 6.058 0 011.843-.986c.37-.101.751-.151 1.137-.151a.85.85 0 01.706.242c.112.23.157.488.131.744v.668h-.603a5.821 5.821 0 00-3.126.788 3.53 3.53 0 00-.737.62 3.187 3.187 0 00-.766 2.216 3.447 3.447 0 00.958 2.516 3.503 3.503 0 002.58.912 3.99 3.99 0 002.7-.897c.273.453.681.804 1.163 1.003h.205l1.872-1.881.077-.076-.031-.06zm-4.214-.94c-.096.093-.206.17-.326.226a1.085 1.085 0 01-.502.123.92.92 0 01-.81-.41 1.287 1.287 0 01-.163-.623v-.103c.02-.34.202-.65.487-.823a1.982 1.982 0 011.002-.241h.31v1.85h.002zM44.407 0h2.02c-.56 1.41-.971 3.034-1.594 4.307h-1.93c.547-1.396.973-2.912 1.504-4.307zM6.959 16.912H3.288V5.46H0V2.367h10.675l-.429 3.093H6.96v11.452zm29.605 0h-3.657V5.46h-3.288V2.367h10.66l-.43 3.093h-3.285v11.452zm16.824 0h-3.54v-6.537a15.997 15.997 0 00-.323-3.914l3.24-.562c.14.411.21.841.223 1.274A2.556 2.556 0 0155.14 5.84c.46.005.915.113 1.33.319L55.655 9.1a1.946 1.946 0 00-1.03-.288 1.292 1.292 0 00-1.239.774v7.326zm-28.693-1.668z" fill="#7E7E7E"/><path d="M18.65 11.785v-.182a6.186 6.186 0 00-1.208-4.262 4.02 4.02 0 00-3.348-1.517 4.662 4.662 0 00-3.656 1.517 6.183 6.183 0 00-1.298 4.215v.29a5.564 5.564 0 001.637 4.092 5.064 5.064 0 003.362 1.185h.205a6.399 6.399 0 004.261-1.517l-1.356-2.045a4.651 4.651 0 01-2.669 1.09h-.087a1.554 1.554 0 01-1.475-.774 2.861 2.861 0 01-.266-1.198h5.898v-.894zm-5.897-1.623c.02-.52.2-1.019.516-1.426.21-.228.505-.348.81-.334a.973.973 0 011.003.698c.116.362.166.743.148 1.122v.108h-2.433l-.044-.168z" fill="#7E7E7E"/><path d="M26.612 11.603l-.251-.397 3.126-5.064h-4.128l-.472.925a5.86 5.86 0 00-.53 1.775 6.273 6.273 0 00-.634-1.653l-.796-1.426-3.76.758 2.948 4.778-.19.286-3.421 5.326h4.319l.634-1.123c.344-.534.584-1.13.709-1.76.107.423.267.832.471 1.216l.752 1.667h4.422l-3.199-5.308zm21.644.182v-.182a6.185 6.185 0 00-1.21-4.262A3.997 3.997 0 0043.7 5.824a4.67 4.67 0 00-3.658 1.517 6.201 6.201 0 00-1.297 4.215v.29a5.57 5.57 0 001.638 4.092c.951.79 2.14 1.21 3.362 1.185h.192a6.396 6.396 0 004.26-1.517l-1.357-2.093a4.656 4.656 0 01-2.609 1.137h-.089a1.555 1.555 0 01-1.474-.773 2.842 2.842 0 01-.266-1.2h5.897l-.043-.892zm-5.897-1.623a2.5 2.5 0 01.398-1.426c.21-.225.508-.347.812-.334a.976.976 0 01.988.698c.115.362.163.743.146 1.122v.108h-2.357l.013-.168zm18.546 6.75h-3.523v-6.537a16.033 16.033 0 00-.326-3.914l3.244-.562c.136.411.21.841.222 1.274a2.557 2.557 0 012.152-1.334c.46.005.915.113 1.325.319L63.176 9.1a1.955 1.955 0 00-1.034-.288 1.295 1.295 0 00-1.237.774v7.326zm12.532-1.638a2.147 2.147 0 01-.722-1.942V9.51a6.46 6.46 0 00-.175-1.67 2.424 2.424 0 00-1.3-1.517 5.411 5.411 0 00-2.477-.5 7.284 7.284 0 00-2.595.485c-.734.274-1.44.625-2.106 1.047l1.266 2.26a6.058 6.058 0 011.843-.986c.37-.101.751-.151 1.137-.151a.85.85 0 01.706.242c.112.23.157.488.131.744v.668h-.603a5.821 5.821 0 00-3.126.788 3.53 3.53 0 00-.737.62 3.187 3.187 0 00-.766 2.216 3.447 3.447 0 00.958 2.516 3.503 3.503 0 002.58.912 3.99 3.99 0 002.7-.897c.273.453.681.804 1.163 1.003h.205l1.872-1.881.077-.076-.031-.06zm-4.214-.94c-.096.093-.206.17-.326.226a1.085 1.085 0 01-.502.123.92.92 0 01-.81-.41 1.287 1.287 0 01-.163-.623v-.103c.02-.34.202-.65.487-.823a1.982 1.982 0 011.002-.241h.31v1.85h.002z" fill="#7E7E7E"/></svg>