<svg width="51" height="51" fill="none" xmlns="http://www.w3.org/2000/svg"><path d="M42.992 7.376C38.235 2.62 31.91 0 25.184 0S12.133 2.62 7.376 7.376C2.62 12.133 0 18.457 0 25.184s2.62 13.05 7.376 17.808c4.757 4.756 11.081 7.376 17.808 7.376 4.605 0 9.111-1.255 13.03-3.63a1.968 1.968 0 10-2.038-3.365 21.21 21.21 0 01-10.992 3.06c-11.717 0-21.249-9.532-21.249-21.25 0-11.716 9.532-21.248 21.249-21.248 11.717 0 21.249 9.532 21.249 21.249 0 4.19-1.246 8.268-3.603 11.793a1.968 1.968 0 003.27 2.188c2.792-4.176 4.268-9.01 4.268-13.981 0-6.727-2.62-13.051-7.376-17.808z" fill="#fff"/><path d="M42.992 7.376C38.235 2.62 31.91 0 25.184 0S12.133 2.62 7.376 7.376C2.62 12.133 0 18.457 0 25.184s2.62 13.05 7.376 17.808c4.757 4.756 11.081 7.376 17.808 7.376 4.605 0 9.111-1.255 13.03-3.63a1.968 1.968 0 10-2.038-3.365 21.21 21.21 0 01-10.992 3.06c-11.717 0-21.249-9.532-21.249-21.25 0-11.716 9.532-21.248 21.249-21.248 11.717 0 21.249 9.532 21.249 21.249 0 4.19-1.246 8.268-3.603 11.793a1.968 1.968 0 003.27 2.188c2.792-4.176 4.268-9.01 4.268-13.981 0-6.727-2.62-13.051-7.376-17.808z" fill="#00669C"/><path d="M42.992 7.376C38.235 2.62 31.91 0 25.184 0S12.133 2.62 7.376 7.376C2.62 12.133 0 18.457 0 25.184s2.62 13.05 7.376 17.808c4.757 4.756 11.081 7.376 17.808 7.376 4.605 0 9.111-1.255 13.03-3.63a1.968 1.968 0 10-2.038-3.365 21.21 21.21 0 01-10.992 3.06c-11.717 0-21.249-9.532-21.249-21.25 0-11.716 9.532-21.248 21.249-21.248 11.717 0 21.249 9.532 21.249 21.249 0 4.19-1.246 8.268-3.603 11.793a1.968 1.968 0 003.27 2.188c2.792-4.176 4.268-9.01 4.268-13.981 0-6.727-2.62-13.051-7.376-17.808z" fill="url(#paint0_linear)"/><path d="M18.932 37.108a1.967 1.967 0 002.666-.795l10.635-19.675a1.967 1.967 0 10-3.461-1.872L18.136 34.442c-.516.956-.16 2.15.796 2.667z" fill="#fff"/><path d="M18.932 37.108a1.967 1.967 0 002.666-.795l10.635-19.675a1.967 1.967 0 10-3.461-1.872L18.136 34.442c-.516.956-.16 2.15.796 2.667z" fill="#00669C"/><path d="M18.932 37.108a1.967 1.967 0 002.666-.795l10.635-19.675a1.967 1.967 0 10-3.461-1.872L18.136 34.442c-.516.956-.16 2.15.796 2.667z" fill="url(#paint1_linear)"/><path d="M21.755 18.653a4.924 4.924 0 00-4.919-4.918 4.924 4.924 0 00-4.919 4.918 4.924 4.924 0 004.92 4.919 4.924 4.924 0 004.918-4.919zm-4.919.984a.985.985 0 010-1.968.985.985 0 010 1.968z" fill="#fff"/><path d="M21.755 18.653a4.924 4.924 0 00-4.919-4.918 4.924 4.924 0 00-4.919 4.918 4.924 4.924 0 004.92 4.919 4.924 4.924 0 004.918-4.919zm-4.919.984a.985.985 0 010-1.968.985.985 0 010 1.968z" fill="#00669C"/><path d="M21.755 18.653a4.924 4.924 0 00-4.919-4.918 4.924 4.924 0 00-4.919 4.918 4.924 4.924 0 004.92 4.919 4.924 4.924 0 004.918-4.919zm-4.919.984a.985.985 0 010-1.968.985.985 0 010 1.968z" fill="url(#paint2_linear)"/><path d="M33.068 37.344a4.924 4.924 0 004.919-4.918 4.924 4.924 0 00-4.919-4.919 4.924 4.924 0 00-4.919 4.919 4.924 4.924 0 004.919 4.918zm0-5.902a.985.985 0 010 1.967.985.985 0 010-1.967z" fill="#fff"/><path d="M33.068 37.344a4.924 4.924 0 004.919-4.918 4.924 4.924 0 00-4.919-4.919 4.924 4.924 0 00-4.919 4.919 4.924 4.924 0 004.919 4.918zm0-5.902a.985.985 0 010 1.967.985.985 0 010-1.967z" fill="#00669C"/><path d="M33.068 37.344a4.924 4.924 0 004.919-4.918 4.924 4.924 0 00-4.919-4.919 4.924 4.924 0 00-4.919 4.919 4.924 4.924 0 004.919 4.918zm0-5.902a.985.985 0 010 1.967.985.985 0 010-1.967z" fill="url(#paint3_linear)"/><defs><linearGradient id="paint0_linear" x1="-40.029" y1="88.647" x2="65.598" y2="79.942" gradientUnits="userSpaceOnUse"><stop stop-color="#1568C4"/><stop offset="1" stop-color="#2DB3DE"/></linearGradient><linearGradient id="paint1_linear" x1="6.319" y1="55.289" x2="37.004" y2="53.728" gradientUnits="userSpaceOnUse"><stop stop-color="#1568C4"/><stop offset="1" stop-color="#2DB3DE"/></linearGradient><linearGradient id="paint2_linear" x1="4.099" y1="31.049" x2="24.73" y2="29.348" gradientUnits="userSpaceOnUse"><stop stop-color="#1568C4"/><stop offset="1" stop-color="#2DB3DE"/></linearGradient><linearGradient id="paint3_linear" x1="20.331" y1="44.821" x2="40.961" y2="43.121" gradientUnits="userSpaceOnUse"><stop stop-color="#1568C4"/><stop offset="1" stop-color="#2DB3DE"/></linearGradient></defs></svg>