<svg width="53" height="51" fill="none" xmlns="http://www.w3.org/2000/svg"><path d="M49.39 17.967c-.686-2.124-.394-5.313-2.177-7.776-1.797-2.481-4.923-3.187-6.688-4.477-1.746-1.278-3.37-4.057-6.309-5.016-2.854-.931-5.774.333-8.037.333-2.263 0-5.182-1.265-8.038-.333-2.937.959-4.563 3.739-6.308 5.015-1.763 1.29-4.891 1.997-6.688 4.478-1.782 2.46-1.492 5.656-2.177 7.776C2.316 19.984.183 22.405.183 25.54c0 3.137 2.13 5.548 2.785 7.572.686 2.125.393 5.314 2.176 7.776 1.798 2.482 4.923 3.187 6.688 4.478 1.746 1.277 3.372 4.057 6.31 5.015 2.852.931 5.776-.333 8.037-.333 2.258 0 5.188 1.263 8.037.333 2.938-.958 4.563-3.738 6.309-5.015 1.763-1.29 4.891-1.997 6.688-4.478 1.782-2.46 1.492-5.656 2.177-7.776.652-2.017 2.785-4.437 2.785-7.572 0-3.137-2.13-5.548-2.785-7.573zm-3.865 13.896c-.8 2.476-.59 5.246-1.602 6.642-1.025 1.416-3.718 2.062-5.796 3.582-2.055 1.503-3.495 3.886-5.17 4.432-1.585.518-4.169-.533-6.778-.533-2.629 0-5.185 1.053-6.778.533-1.675-.546-3.113-2.927-5.17-4.432-2.066-1.51-4.775-2.17-5.797-3.582-1.008-1.392-.806-4.181-1.601-6.641-.78-2.411-2.588-4.498-2.588-6.324 0-1.828 1.807-3.908 2.588-6.324.8-2.475.59-5.246 1.601-6.642 1.025-1.415 3.72-2.063 5.796-3.582 2.062-1.508 3.494-3.885 5.171-4.432 1.584-.517 4.175.533 6.778.533 2.633 0 5.183-1.053 6.777-.533 1.675.546 3.115 2.928 5.171 4.432 2.066 1.511 4.774 2.17 5.796 3.582 1.009 1.392.806 4.179 1.602 6.642.779 2.41 2.588 4.498 2.588 6.324 0 1.827-1.807 3.908-2.588 6.323zm-9.99-12.842a2.03 2.03 0 010 2.872L25.37 32.059a2.031 2.031 0 01-2.872 0l-5.676-5.676a2.03 2.03 0 112.872-2.873l4.24 4.24 8.73-8.73a2.031 2.031 0 012.872 0z" fill="#fff"/><path d="M49.39 17.967c-.686-2.124-.394-5.313-2.177-7.776-1.797-2.481-4.923-3.187-6.688-4.477-1.746-1.278-3.37-4.057-6.309-5.016-2.854-.931-5.774.333-8.037.333-2.263 0-5.182-1.265-8.038-.333-2.937.959-4.563 3.739-6.308 5.015-1.763 1.29-4.891 1.997-6.688 4.478-1.782 2.46-1.492 5.656-2.177 7.776C2.316 19.984.183 22.405.183 25.54c0 3.137 2.13 5.548 2.785 7.572.686 2.125.393 5.314 2.176 7.776 1.798 2.482 4.923 3.187 6.688 4.478 1.746 1.277 3.372 4.057 6.31 5.015 2.852.931 5.776-.333 8.037-.333 2.258 0 5.188 1.263 8.037.333 2.938-.958 4.563-3.738 6.309-5.015 1.763-1.29 4.891-1.997 6.688-4.478 1.782-2.46 1.492-5.656 2.177-7.776.652-2.017 2.785-4.437 2.785-7.572 0-3.137-2.13-5.548-2.785-7.573zm-3.865 13.896c-.8 2.476-.59 5.246-1.602 6.642-1.025 1.416-3.718 2.062-5.796 3.582-2.055 1.503-3.495 3.886-5.17 4.432-1.585.518-4.169-.533-6.778-.533-2.629 0-5.185 1.053-6.778.533-1.675-.546-3.113-2.927-5.17-4.432-2.066-1.51-4.775-2.17-5.797-3.582-1.008-1.392-.806-4.181-1.601-6.641-.78-2.411-2.588-4.498-2.588-6.324 0-1.828 1.807-3.908 2.588-6.324.8-2.475.59-5.246 1.601-6.642 1.025-1.415 3.72-2.063 5.796-3.582 2.062-1.508 3.494-3.885 5.171-4.432 1.584-.517 4.175.533 6.778.533 2.633 0 5.183-1.053 6.777-.533 1.675.546 3.115 2.928 5.171 4.432 2.066 1.511 4.774 2.17 5.796 3.582 1.009 1.392.806 4.179 1.602 6.642.779 2.41 2.588 4.498 2.588 6.324 0 1.827-1.807 3.908-2.588 6.323zm-9.99-12.842a2.03 2.03 0 010 2.872L25.37 32.059a2.031 2.031 0 01-2.872 0l-5.676-5.676a2.03 2.03 0 112.872-2.873l4.24 4.24 8.73-8.73a2.031 2.031 0 012.872 0z" fill="#00669C"/><path d="M49.39 17.967c-.686-2.124-.394-5.313-2.177-7.776-1.797-2.481-4.923-3.187-6.688-4.477-1.746-1.278-3.37-4.057-6.309-5.016-2.854-.931-5.774.333-8.037.333-2.263 0-5.182-1.265-8.038-.333-2.937.959-4.563 3.739-6.308 5.015-1.763 1.29-4.891 1.997-6.688 4.478-1.782 2.46-1.492 5.656-2.177 7.776C2.316 19.984.183 22.405.183 25.54c0 3.137 2.13 5.548 2.785 7.572.686 2.125.393 5.314 2.176 7.776 1.798 2.482 4.923 3.187 6.688 4.478 1.746 1.277 3.372 4.057 6.31 5.015 2.852.931 5.776-.333 8.037-.333 2.258 0 5.188 1.263 8.037.333 2.938-.958 4.563-3.738 6.309-5.015 1.763-1.29 4.891-1.997 6.688-4.478 1.782-2.46 1.492-5.656 2.177-7.776.652-2.017 2.785-4.437 2.785-7.572 0-3.137-2.13-5.548-2.785-7.573zm-3.865 13.896c-.8 2.476-.59 5.246-1.602 6.642-1.025 1.416-3.718 2.062-5.796 3.582-2.055 1.503-3.495 3.886-5.17 4.432-1.585.518-4.169-.533-6.778-.533-2.629 0-5.185 1.053-6.778.533-1.675-.546-3.113-2.927-5.17-4.432-2.066-1.51-4.775-2.17-5.797-3.582-1.008-1.392-.806-4.181-1.601-6.641-.78-2.411-2.588-4.498-2.588-6.324 0-1.828 1.807-3.908 2.588-6.324.8-2.475.59-5.246 1.601-6.642 1.025-1.415 3.72-2.063 5.796-3.582 2.062-1.508 3.494-3.885 5.171-4.432 1.584-.517 4.175.533 6.778.533 2.633 0 5.183-1.053 6.777-.533 1.675.546 3.115 2.928 5.171 4.432 2.066 1.511 4.774 2.17 5.796 3.582 1.009 1.392.806 4.179 1.602 6.642.779 2.41 2.588 4.498 2.588 6.324 0 1.827-1.807 3.908-2.588 6.323zm-9.99-12.842a2.03 2.03 0 010 2.872L25.37 32.059a2.031 2.031 0 01-2.872 0l-5.676-5.676a2.03 2.03 0 112.872-2.873l4.24 4.24 8.73-8.73a2.031 2.031 0 012.872 0z" fill="url(#paint0_linear)"/><defs><linearGradient id="paint0_linear" x1="-41.138" y1="89.003" x2="67.848" y2="79.731" gradientUnits="userSpaceOnUse"><stop stop-color="#1568C4"/><stop offset="1" stop-color="#2DB3DE"/></linearGradient></defs></svg>