<svg width="219" height="148" viewBox="0 0 219 148" fill="none" xmlns="http://www.w3.org/2000/svg">
<path d="M215.5 45.6667C216.973 45.6667 218.167 44.4728 218.167 43C218.167 41.5272 216.973 40.3333 215.5 40.3333C214.027 40.3333 212.833 41.5272 212.833 43C212.833 44.4728 214.027 45.6667 215.5 45.6667ZM3 45.6667C4.47276 45.6667 5.66666 44.4728 5.66666 43C5.66666 41.5272 4.47275 40.3333 3 40.3333C1.52724 40.3333 0.333329 41.5272 0.333329 43C0.333329 44.4728 1.52724 45.6667 3 45.6667ZM113 33L113 32.5C112.867 32.5 112.74 32.5527 112.646 32.6464L113 33ZM173 23L173 22.5C172.867 22.5 172.74 22.5527 172.646 22.6464L173 23ZM193 25.6667C194.473 25.6667 195.667 24.4728 195.667 23C195.667 21.5272 194.473 20.3333 193 20.3333C191.527 20.3333 190.333 21.5272 190.333 23C190.333 24.4728 191.527 25.6667 193 25.6667ZM63 53L62.6464 53.3536C62.7402 53.4473 62.8674 53.5 63 53.5L63 53ZM93 63L92.6464 63.3535C92.7402 63.4473 92.8674 63.5 93 63.5L93 63ZM133 63L133.354 62.6464C133.26 62.5527 133.133 62.5 133 62.5L133 63ZM153 85.6667C154.473 85.6667 155.667 84.4728 155.667 83C155.667 81.5272 154.473 80.3333 153 80.3333C151.527 80.3333 150.333 81.5272 150.333 83C150.333 84.4728 151.527 85.6667 153 85.6667ZM133 53L132.646 53.3535C132.74 53.4473 132.867 53.5 133 53.5L133 53ZM153 53L153.354 52.6464C153.26 52.5527 153.133 52.5 153 52.5L153 53ZM185 115L184.5 115C184.5 115.133 184.553 115.26 184.646 115.354L185 115ZM215 147.667C216.473 147.667 217.667 146.473 217.667 145C217.667 143.527 216.473 142.333 215 142.333C213.527 142.333 212.333 143.527 212.333 145C212.333 146.473 213.527 147.667 215 147.667ZM133 23L133 22.5C132.867 22.5 132.74 22.5527 132.646 22.6464L133 23ZM153 23L153 23.5C153.133 23.5 153.26 23.4473 153.354 23.3535L153 23ZM3 35.6667C4.47275 35.6667 5.66666 34.4728 5.66666 33C5.66666 31.5272 4.47275 30.3333 2.99999 30.3333C1.52724 30.3333 0.333328 31.5272 0.333328 33C0.333328 34.4728 1.52724 35.6667 3 35.6667ZM63 13L63 12.5C62.8674 12.5 62.7402 12.5527 62.6464 12.6465L63 13ZM103 13L103 13.5C103.133 13.5 103.26 13.4473 103.354 13.3535L103 13ZM113 5.66667C114.473 5.66667 115.667 4.47276 115.667 3C115.667 1.52723 114.473 0.333323 113 0.333323C111.527 0.333324 110.333 1.52723 110.333 3C110.333 4.47276 111.527 5.66667 113 5.66667ZM113 23L113 23.5C113.133 23.5 113.26 23.4473 113.354 23.3535L113 23ZM123 13L123 12.5C122.867 12.5 122.74 12.5527 122.646 12.6464L123 13ZM143 13L143 13.5C143.133 13.5 143.26 13.4473 143.354 13.3535L143 13ZM153 5.66667C154.473 5.66667 155.667 4.47276 155.667 2.99999C155.667 1.52723 154.473 0.333322 153 0.333322C151.527 0.333322 150.333 1.52723 150.333 2.99999C150.333 4.47276 151.527 5.66667 153 5.66667ZM43 53L43.3535 52.6464C43.2598 52.5527 43.1326 52.5 43 52.5L43 53ZM3 55.6667C4.47276 55.6667 5.66666 54.4728 5.66666 53C5.66666 51.5272 4.47276 50.3333 3 50.3333C1.52724 50.3333 0.333329 51.5272 0.333329 53C0.333329 54.4728 1.52724 55.6667 3 55.6667ZM53 63L52.6464 63.3536C52.7402 63.4473 52.8674 63.5 53 63.5L53 63ZM73 63L73.3536 62.6464C73.2598 62.5527 73.1326 62.5 73 62.5L73 63ZM83 73L82.6464 73.3536C82.7402 73.4473 82.8674 73.5 83 73.5L83 73ZM123 73L123.354 72.6464C123.26 72.5527 123.133 72.5 123 72.5L123 73ZM163 115.667C164.473 115.667 165.667 114.473 165.667 113C165.667 111.527 164.473 110.333 163 110.333C161.527 110.333 160.333 111.527 160.333 113C160.333 114.473 161.527 115.667 163 115.667ZM215.5 35.6667C216.973 35.6667 218.167 34.4728 218.167 33C218.167 31.5272 216.973 30.3333 215.5 30.3333C214.027 30.3333 212.833 31.5272 212.833 33C212.833 34.4728 214.027 35.6667 215.5 35.6667ZM93 35.6667C94.4728 35.6667 95.6667 34.4728 95.6667 33C95.6667 31.5272 94.4728 30.3333 93 30.3333C91.5272 30.3333 90.3333 31.5272 90.3333 33C90.3333 34.4728 91.5272 35.6667 93 35.6667ZM113 55.6667C114.473 55.6667 115.667 54.4728 115.667 53C115.667 51.5272 114.473 50.3333 113 50.3333C111.527 50.3333 110.333 51.5272 110.333 53C110.333 54.4728 111.527 55.6667 113 55.6667ZM212.5 115.167C213.973 115.167 215.167 113.973 215.167 112.5C215.167 111.027 213.973 109.833 212.5 109.833C211.027 109.833 209.833 111.027 209.833 112.5C209.833 113.973 211.027 115.167 212.5 115.167ZM212 84.6667C213.473 84.6667 214.667 83.4727 214.667 82C214.667 80.5272 213.473 79.3333 212 79.3333C210.527 79.3333 209.333 80.5272 209.333 82C209.333 83.4727 210.527 84.6667 212 84.6667ZM173 2.99999L173 2.49999C172.867 2.49999 172.74 2.55267 172.646 2.64645L173 2.99999ZM215.5 5.66666C216.973 5.66666 218.167 4.47275 218.167 2.99999C218.167 1.52723 216.973 0.333319 215.5 0.333319C214.027 0.333319 212.833 1.52723 212.833 2.99999C212.833 4.47275 214.027 5.66666 215.5 5.66666ZM103.354 43.3535L113.354 33.3535L112.646 32.6464L102.646 42.6464L103.354 43.3535ZM163.354 33.3535L173.354 23.3535L172.646 22.6464L162.646 32.6464L163.354 33.3535ZM173 23.5L193 23.5L193 22.5L173 22.5L173 23.5ZM103 42.5L53 42.5L53 43.5L103 43.5L103 42.5ZM52.6464 43.3536L62.6464 53.3536L63.3535 52.6464L53.3535 42.6464L52.6464 43.3536ZM63 53.5L83 53.5L83 52.5L63 52.5L63 53.5ZM82.6464 53.3536L92.6464 63.3535L93.3536 62.6464L83.3535 52.6464L82.6464 53.3536ZM93 63.5L133 63.5L133 62.5L93 62.5L93 63.5ZM132.646 63.3535L152.646 83.3535L153.354 82.6464L133.354 62.6464L132.646 63.3535ZM123 42.5L103 42.5L103 43.5L123 43.5L123 42.5ZM122.646 43.3535L132.646 53.3535L133.354 52.6464L123.354 42.6464L122.646 43.3535ZM133 53.5L153 53.5L153 52.5L133 52.5L133 53.5ZM152.646 53.3535L184.646 85.3535L185.354 84.6464L153.354 52.6464L152.646 53.3535ZM184.5 85L184.5 115L185.5 115L185.5 85L184.5 85ZM184.646 115.354L214.646 145.354L215.354 144.646L185.354 114.646L184.646 115.354ZM113 33.5L123 33.5L123 32.5L113 32.5L113 33.5ZM123 33.5L163 33.5L163 32.5L123 32.5L123 33.5ZM123.354 33.3535L133.354 23.3535L132.646 22.6464L122.646 32.6464L123.354 33.3535ZM133 23.5L153 23.5L153 22.5L133 22.5L133 23.5ZM43 32.5L3 32.5L3 33.5L43 33.5L43 32.5ZM63 13.5L83 13.5L83 12.5L63 12.5L63 13.5ZM83 13.5L103 13.5L103 12.5L83 12.5L83 13.5ZM103.354 13.3535L113.354 3.35354L112.646 2.64645L102.646 12.6464L103.354 13.3535ZM43.3535 33.3536L53.3535 23.3536L52.6464 22.6464L42.6464 32.6464L43.3535 33.3536ZM53.3535 23.3536L63.3535 13.3535L62.6464 12.6465L52.6464 22.6464L53.3535 23.3536ZM53 23.5L113 23.5L113 22.5L53 22.5L53 23.5ZM113.354 23.3535L123.354 13.3535L122.646 12.6464L112.646 22.6464L113.354 23.3535ZM123 13.5L143 13.5L143 12.5L123 12.5L123 13.5ZM143.354 13.3535L153.354 3.35354L152.646 2.64645L142.646 12.6464L143.354 13.3535ZM43 52.5L3 52.5L3 53.5L43 53.5L43 52.5ZM42.6464 53.3536L52.6464 63.3536L53.3536 62.6464L43.3535 52.6464L42.6464 53.3536ZM53 63.5L73 63.5L73 62.5L53 62.5L53 63.5ZM72.6464 63.3536L82.6464 73.3536L83.3536 72.6464L73.3536 62.6464L72.6464 63.3536ZM83 73.5L123 73.5L123 72.5L83 72.5L83 73.5ZM122.646 73.3535L132.646 83.3535L133.354 82.6464L123.354 72.6464L122.646 73.3535ZM132.646 83.3535L162.646 113.354L163.354 112.646L133.354 82.6464L132.646 83.3535ZM163 33.5L215.5 33.5L215.5 32.5L163 32.5L163 33.5ZM53 42.5L3 42.5L3 43.5L53 43.5L53 42.5ZM43 33.5L93 33.5L93 32.5L43 32.5L43 33.5ZM83 53.5L113 53.5L113 52.5L83 52.5L83 53.5ZM184.646 85.3535L212.146 112.854L212.854 112.146L185.354 84.6464L184.646 85.3535ZM215.5 42.5L173 42.5L173 43.5L215.5 43.5L215.5 42.5ZM173 42.5L123 42.5L123 43.5L173 43.5L173 42.5ZM172.646 43.3535L211.646 82.3535L212.354 81.6464L173.354 42.6464L172.646 43.3535ZM153.354 23.3535L173.354 3.35354L172.646 2.64645L152.646 22.6464L153.354 23.3535ZM173 3.49999L215.5 3.49999L215.5 2.49999L173 2.49999L173 3.49999Z" fill="#012137"/>
</svg>
