<svg width="54" height="54" viewBox="0 0 54 54" fill="none" xmlns="http://www.w3.org/2000/svg">
<path d="M47.1941 27.4167L46.2087 27.2463L47.1941 27.4167ZM45.6066 36.5961L44.6213 36.4257L45.6066 36.5961ZM15.61 46.0734L14.6137 46.1596L15.61 46.0734ZM13.7826 24.9399L14.7789 24.8538L13.7826 24.9399ZM31.4886 11.7482L32.4755 11.9099V11.9099L31.4886 11.7482ZM29.9976 20.8485L30.9845 21.0101L29.9976 20.8485ZM15.0708 21.7743L14.418 21.0168L15.0708 21.7743ZM18.308 18.9848L18.9608 19.7424L18.308 18.9848ZM23.6656 10.7634L22.6977 10.5123V10.5123L23.6656 10.7634ZM24.736 6.63725L25.7039 6.88834L25.7039 6.88834L24.736 6.63725ZM28.5021 4.6448L28.1962 5.59688L28.1962 5.59688L28.5021 4.6448ZM28.8283 4.74958L29.1341 3.7975L29.1341 3.7975L28.8283 4.74958ZM22.1894 14.5409L23.0714 15.012L22.1894 14.5409ZM31.2855 7.30693L30.3176 7.55802V7.55802L31.2855 7.30693ZM26.267 4.79788L25.8328 3.89702V3.89702L26.267 4.79788ZM8.9361 48.3091L7.93981 48.3953L8.9361 48.3091ZM6.75 23.027L7.74628 22.9408C7.70015 22.4073 7.24191 22.0048 6.70689 22.0279C6.17187 22.051 5.75 22.4914 5.75 23.027H6.75ZM46.2087 27.2463L44.6213 36.4257L46.592 36.7665L48.1795 27.5871L46.2087 27.2463ZM29.8012 48.5H19.3418V50.5H29.8012V48.5ZM16.6063 45.9873L14.7789 24.8538L12.7863 25.0261L14.6137 46.1596L16.6063 45.9873ZM44.6213 36.4257C43.4209 43.3668 37.1741 48.5 29.8012 48.5V50.5C38.0941 50.5 45.2169 44.7179 46.592 36.7665L44.6213 36.4257ZM30.5018 11.5865L29.0108 20.6868L30.9845 21.0101L32.4755 11.9099L30.5018 11.5865ZM15.7236 22.5319L18.9608 19.7424L17.6552 18.2273L14.418 21.0168L15.7236 22.5319ZM24.6336 11.0145L25.7039 6.88834L23.768 6.38616L22.6977 10.5123L24.6336 11.0145ZM28.1962 5.59688L28.5224 5.70166L29.1341 3.7975L28.8079 3.69272L28.1962 5.59688ZM23.0714 15.012C23.748 13.7456 24.273 12.4045 24.6336 11.0145L22.6977 10.5123C22.3771 11.7481 21.91 12.9415 21.3073 14.0697L23.0714 15.012ZM28.5224 5.70166C29.4275 5.99243 30.0952 6.70095 30.3176 7.55802L32.2535 7.05584C31.8526 5.51043 30.6667 4.28984 29.1341 3.7975L28.5224 5.70166ZM25.7039 6.88834C25.8351 6.38278 26.1929 5.94361 26.7011 5.69875L25.8328 3.89702C24.8121 4.38889 24.0514 5.29353 23.768 6.38616L25.7039 6.88834ZM26.7011 5.69875C27.1637 5.47583 27.7027 5.43833 28.1962 5.59688L28.8079 3.69272C27.8282 3.37798 26.7592 3.45061 25.8328 3.89702L26.7011 5.69875ZM31.8458 24.027H43.5033V22.027H31.8458V24.027ZM9.93238 48.223L7.74628 22.9408L5.75372 23.1131L7.93981 48.3953L9.93238 48.223ZM7.75 48.4037V23.027H5.75V48.4037H7.75ZM7.93981 48.3953C7.94479 48.4528 7.89967 48.5 7.84509 48.5V50.5C9.07464 50.5 10.0382 49.4463 9.93238 48.223L7.93981 48.3953ZM32.4755 11.9099C32.7402 10.2941 32.6646 8.64069 32.2535 7.05584L30.3176 7.55802C30.6588 8.87331 30.7215 10.2455 30.5018 11.5865L32.4755 11.9099ZM19.3418 48.5C17.9181 48.5 16.7293 47.4097 16.6063 45.9873L14.6137 46.1596C14.8259 48.6141 16.8784 50.5 19.3418 50.5V48.5ZM18.9608 19.7424C20.4791 18.4339 22.0449 16.9337 23.0714 15.012L21.3073 14.0697C20.4648 15.6471 19.1407 16.9472 17.6552 18.2273L18.9608 19.7424ZM48.1795 27.5871C48.6815 24.6844 46.4492 22.027 43.5033 22.027V24.027C45.2057 24.027 46.4997 25.5636 46.2087 27.2463L48.1795 27.5871ZM7.84509 48.5C7.79364 48.5 7.75 48.4579 7.75 48.4037H5.75C5.75 49.5604 6.68693 50.5 7.84509 50.5V48.5ZM29.0108 20.6868C28.7242 22.4356 30.0723 24.027 31.8458 24.027V22.027C31.3086 22.027 30.897 21.5442 30.9845 21.0101L29.0108 20.6868ZM14.7789 24.8538C14.7027 23.9724 15.0544 23.1085 15.7236 22.5319L14.418 21.0168C13.2617 22.0132 12.6548 23.5051 12.7863 25.0261L14.7789 24.8538Z" fill="#116893"/>
<path d="M8.9361 48.3091L7.93981 48.3953L8.9361 48.3091ZM6.75 23.027L7.74628 22.9408C7.70015 22.4073 7.24191 22.0048 6.70689 22.0279C6.17187 22.051 5.75 22.4915 5.75 23.027H6.75ZM9.93238 48.223L7.74628 22.9408L5.75372 23.1131L7.93981 48.3953L9.93238 48.223ZM7.75 48.4037V23.027H5.75V48.4037H7.75ZM7.93981 48.3953C7.94479 48.4528 7.89967 48.5 7.84509 48.5V50.5C9.07464 50.5 10.0382 49.4463 9.93238 48.223L7.93981 48.3953ZM7.84509 48.5C7.79364 48.5 7.75 48.458 7.75 48.4037H5.75C5.75 49.5604 6.68693 50.5 7.84509 50.5V48.5Z" fill="#767676"/>
</svg>
