<svg width="54" height="54" viewBox="0 0 54 54" fill="none" xmlns="http://www.w3.org/2000/svg">
<path d="M42.75 49.5V48.375M11.25 49.5V48.375" stroke="#767676" stroke-width="2" stroke-linecap="round"/>
<path d="M27 47.25V33.75" stroke="#116893" stroke-width="2" stroke-linecap="round"/>
<path d="M6.47706 45.273L5.76995 45.9801V45.9801L6.47706 45.273ZM4.50394 36.0001L3.50396 36.0057L4.50394 36.0001ZM47.523 45.273L48.2301 45.9801L47.523 45.273ZM49.4961 36.0001L50.4961 36.0057V36.0057L49.4961 36.0001ZM36 46.25H18V48.25H36V46.25ZM18 46.25C14.7898 46.25 12.4827 46.2479 10.7267 46.0118C8.99946 45.7796 7.95591 45.3376 7.18417 44.5659L5.76995 45.9801C6.97524 47.1854 8.51119 47.7319 10.4602 47.994C12.3804 48.2521 14.8463 48.25 18 48.25V46.25ZM3.50396 36.0057C3.51753 38.4446 3.57692 40.4148 3.86885 42.004C4.16604 43.6219 4.71788 44.928 5.76995 45.9801L7.18417 44.5659C6.50739 43.8891 6.0863 43.0056 5.83594 41.6427C5.58034 40.2512 5.51759 38.4494 5.50393 35.9946L3.50396 36.0057ZM36 48.25C39.1537 48.25 41.6196 48.2521 43.5399 47.994C45.4889 47.7319 47.0248 47.1854 48.2301 45.9801L46.8159 44.5659C46.0442 45.3376 45.0006 45.7796 43.2734 46.0118C41.5174 46.2479 39.2103 46.25 36 46.25V48.25ZM48.4961 35.9946C48.4825 38.4494 48.4197 40.2512 48.1641 41.6427C47.9138 43.0056 47.4927 43.8891 46.8159 44.5659L48.2301 45.9801C49.2822 44.928 49.834 43.6219 50.1312 42.004C50.4231 40.4148 50.4825 38.4446 50.4961 36.0057L48.4961 35.9946ZM6.75003 34.75H47.25V32.75H6.75003V34.75ZM50.4961 36.0057C50.5061 34.2037 49.0422 32.75 47.25 32.75V34.75C47.9431 34.75 48.4999 35.3113 48.4961 35.9946L50.4961 36.0057ZM5.50393 35.9946C5.50012 35.3113 6.05693 34.75 6.75003 34.75V32.75C4.95785 32.75 3.49393 34.2037 3.50396 36.0057L5.50393 35.9946Z" fill="#116893"/>
<path d="M46.125 33.75V13.8094C46.125 12.9365 46.125 12.5001 46.0849 12.2016C45.8078 10.1407 44.6533 8.87655 42.626 8.41401C42.3324 8.34702 41.7215 8.29148 40.5 8.18044C38.2457 7.9755 35.5879 7.19088 33.2295 6.33284C29.8697 5.11046 28.1897 4.49927 27 4.49927C25.8103 4.49927 24.1303 5.11046 20.7705 6.33284C18.4121 7.19089 15.7543 7.9755 13.5 8.18044C12.2785 8.29149 11.6677 8.34702 11.374 8.41401C9.34669 8.87655 8.19223 10.1407 7.91513 12.2016C7.875 12.5001 7.875 12.9365 7.875 13.8094V33.75" stroke="#767676" stroke-width="2"/>
<path d="M33.75 40.5L38.25 40.5" stroke="#116893" stroke-width="2" stroke-linecap="round"/>
<path d="M15.75 40.5L20.25 40.5" stroke="#116893" stroke-width="2" stroke-linecap="round"/>
<path d="M32.625 24.75L30.375 27M30.375 18L23.625 24.75M23.625 15.75L21.375 18" stroke="#767676" stroke-width="2" stroke-linecap="round"/>
</svg>
