<svg width="54" height="54" viewBox="0 0 54 54" fill="none" xmlns="http://www.w3.org/2000/svg">
<path d="M29.3342 44.1908C28.9437 43.8003 28.3105 43.8003 27.92 44.1908C27.5295 44.5813 27.5295 45.2145 27.92 45.605L29.3342 44.1908ZM35.1354 49.5V48.5V49.5ZM9.10209 12.3563L9.8092 13.0634V13.0634L9.10209 12.3563ZM8.39498 26.08C8.78551 26.4705 9.41867 26.4705 9.8092 26.08C10.1997 25.6895 10.1997 25.0563 9.8092 24.6658L8.39498 26.08ZM25.3729 9.10209L26.08 9.80919C26.2676 9.62166 26.3729 9.3673 26.3729 9.10209C26.3729 8.83687 26.2676 8.58252 26.08 8.39498L25.3729 9.10209ZM12.3563 9.10209L11.6491 8.39498L11.6491 8.39498L12.3563 9.10209ZM44.8979 28.6271L45.605 27.92C45.4175 27.7324 45.1631 27.6271 44.8979 27.6271C44.6327 27.6271 44.3783 27.7324 44.1908 27.92L44.8979 28.6271ZM49.5 35.1354H50.5H49.5ZM19.2422 13.8186C18.8517 14.2091 18.8517 14.8423 19.2422 15.2328C19.6327 15.6233 20.2659 15.6233 20.6564 15.2328L19.2422 13.8186ZM38.7672 33.3436C38.3767 33.7341 38.3767 34.3673 38.7672 34.7578C39.1577 35.1483 39.7909 35.1483 40.1814 34.7578L38.7672 33.3436ZM41.1129 46.8373C41.5063 46.4497 41.511 45.8166 41.1234 45.4232C40.7357 45.0298 40.1026 45.025 39.7092 45.4127L41.1129 46.8373ZM45.3257 39.7973C44.9376 40.1903 44.9416 40.8234 45.3346 41.2115C45.7275 41.5996 46.3607 41.5956 46.7487 41.2027L45.3257 39.7973ZM11.6491 8.39498L8.39498 11.6491L9.8092 13.0634L13.0634 9.80919L11.6491 8.39498ZM27.92 45.605C29.434 47.1191 30.6392 48.3272 31.7103 49.1445C32.8046 49.9794 33.8757 50.5 35.1354 50.5V48.5C34.4889 48.5 33.8399 48.2536 32.9235 47.5545C31.9841 46.8377 30.8882 45.7448 29.3342 44.1908L27.92 45.605ZM8.39498 11.6491C6.88094 13.1632 5.67278 14.3683 4.8555 15.4395C4.02062 16.5338 3.5 17.6049 3.5 18.8646L5.5 18.8646C5.5 18.218 5.7464 17.569 6.44554 16.6527C7.1623 15.7133 8.25518 14.6174 9.8092 13.0634L8.39498 11.6491ZM9.8092 24.6658C8.25518 23.1118 7.1623 22.0159 6.44554 21.0765C5.7464 20.1601 5.5 19.5112 5.5 18.8646L3.5 18.8646C3.5 20.1243 4.02062 21.1954 4.8555 22.2897C5.67278 23.3608 6.88094 24.566 8.39498 26.08L9.8092 24.6658ZM26.08 8.39498C24.566 6.88094 23.3608 5.67278 22.2897 4.8555C21.1954 4.02062 20.1243 3.5 18.8646 3.5V5.5C19.5112 5.5 20.1602 5.7464 21.0765 6.44554C22.0159 7.1623 23.1118 8.25517 24.6658 9.80919L26.08 8.39498ZM13.0634 9.80919C14.6174 8.25517 15.7133 7.1623 16.6527 6.44554C17.569 5.7464 18.218 5.5 18.8646 5.5V3.5C17.6049 3.5 16.5338 4.02062 15.4395 4.8555C14.3683 5.67278 13.1632 6.88094 11.6491 8.39498L13.0634 9.80919ZM44.1908 29.3342C45.7448 30.8882 46.8377 31.9841 47.5545 32.9235C48.2536 33.8398 48.5 34.4888 48.5 35.1354H50.5C50.5 33.8757 49.9794 32.8046 49.1445 31.7103C48.3272 30.6392 47.1191 29.434 45.605 27.92L44.1908 29.3342ZM24.6658 8.39498L19.2422 13.8186L20.6564 15.2328L26.08 9.80919L24.6658 8.39498ZM44.1908 27.92L38.7672 33.3436L40.1814 34.7578L45.605 29.3342L44.1908 27.92ZM39.7092 45.4127C38.5638 46.5411 37.7121 47.3238 36.9677 47.8286C36.247 48.3174 35.6923 48.5 35.1354 48.5V50.5C36.211 50.5 37.1522 50.1201 38.0903 49.4839C39.0047 48.8637 39.9746 47.9589 41.1129 46.8373L39.7092 45.4127ZM46.7487 41.2027C47.8982 40.0387 48.8248 39.0523 49.4592 38.1264C50.11 37.1767 50.5 36.2252 50.5 35.1354H48.5C48.5 35.6991 48.3129 36.2612 47.8094 36.9959C47.2896 37.7546 46.4848 38.6237 45.3257 39.7973L46.7487 41.2027Z" fill="#116893"/>
<path d="M32.3101 9.17698L34.3956 7.0915C37.851 3.63617 43.4532 3.63617 46.9085 7.0915C50.3638 10.5468 50.3638 16.149 46.9085 19.6044L44.823 21.6899M32.3101 9.17698C32.3101 9.17698 32.5708 13.6086 36.4811 17.5189C40.3914 21.4292 44.823 21.6899 44.823 21.6899M32.3101 9.17698L27 14.4871M44.823 21.6899L32.9866 33.5262L26.0129 40.5L25.6502 40.8626C24.3516 42.1613 23.7023 42.8106 22.9864 43.369C22.1418 44.0277 21.2281 44.5924 20.2612 45.0532C19.4416 45.4438 18.5704 45.7342 16.8282 46.315L9.44532 48.7759M9.44532 48.7759L7.64064 49.3775C6.78325 49.6633 5.83798 49.4401 5.19892 48.8011C4.55986 48.162 4.33671 47.2167 4.62251 46.3594L5.22407 44.5547M9.44532 48.7759L5.22407 44.5547M5.22407 44.5547L7.68501 37.1718C8.26577 35.4296 8.55615 34.5584 8.94677 33.7388C9.40755 32.7719 9.9723 31.8582 10.631 31.0136C11.1894 30.2977 11.8387 29.6484 13.1374 28.3498L19.125 22.3621" stroke="#767676" stroke-width="2" stroke-linecap="round"/>
</svg>
