<svg width="170" height="160" viewBox="0 0 170 160" fill="none" xmlns="http://www.w3.org/2000/svg">
<path d="M235.166 -18.4451C235.137 -18.9207 235.016 -19.3708 234.85 -19.8049C234.799 -19.9326 234.745 -20.0507 234.684 -20.1752C234.477 -20.5997 234.228 -20.9987 233.896 -21.3467C233.822 -21.4233 233.739 -21.4839 233.656 -21.5573C233.442 -21.7489 233.225 -21.9404 232.973 -22.0968L188.25 -49.3345C186.74 -50.2507 184.828 -50.2219 183.353 -49.242L2.06522 70.2275C1.95669 70.301 1.89924 70.4286 1.79389 70.5116C1.4683 70.767 1.20336 71.0575 0.957603 71.3894C0.817148 71.5809 0.673508 71.7597 0.56498 71.9768C0.373461 72.347 0.271313 72.746 0.185126 73.1674C0.150014 73.3461 0.0382985 73.4961 0.0191523 73.6813C0.0159605 73.7419 0.0478803 73.7962 0.0414966 73.8537C0.038304 73.9271 0 73.9877 0 74.0548V106.748C0 108.022 0.529882 109.238 1.46518 110.096L50.6675 155.774C50.9005 155.994 51.1942 156.113 51.4591 156.272C51.6315 156.378 51.7847 156.512 51.9666 156.591C52.5444 156.844 53.1509 157 53.7798 157C54.3416 157 54.9002 156.866 55.4396 156.655C55.4939 156.633 55.5481 156.642 55.6056 156.62C55.8705 156.505 56.0908 156.333 56.3206 156.173C56.4164 156.109 56.5217 156.087 56.6143 156.014L233.424 16.0905C234.522 15.2255 235.158 13.8976 235.158 12.5027V-18.1949C235.158 -18.2269 235.138 -18.2492 235.138 -18.2811C235.154 -18.3418 235.167 -18.3928 235.164 -18.4471L235.166 -18.4451ZM144 1L96.5 35.5L84.5 22L93 16.5L100.037 23.016C100.471 23.3863 101.001 23.5682 101.534 23.5682C102.176 23.5682 102.814 23.2969 103.267 22.7734C104.091 21.8158 103.986 20.3762 103.028 19.5462L97 14L107 7.43882L113.632 13.1973C114.066 13.5676 114.596 13.7495 115.129 13.7495C115.771 13.7495 116.409 13.4782 116.862 12.9547C117.686 11.9971 117.58 10.5574 116.623 9.72754L110.5 5.5L120 -1L126.773 3.42638C127.204 3.79665 127.737 3.9786 128.27 3.9786C128.912 3.9786 129.55 3.70728 130 3.18378C130.827 2.22615 130.719 0.786549 129.761 -0.0433655L127.833 -1.70319L134.552 -6.1274L144 1ZM80 24.5L93 38.5C93.8938 39.4161 94.803 40.5 96 40.5C96.9384 40.5 100.192 38.5841 101 38L150.5 2C151.63 1.17646 153.277 1.69698 153.338 0.295628C153.399 -1.10565 152.811 -2.44956 151.755 -3.35931L142.491 -11.3458L185.964 -39.9915L222.557 -17.705L185.5 16.0905L54 118L6 75.5L80 24.5ZM4 105.5L5 81.5L50.6675 122L51.4591 150L4 105.5ZM57 149.5V122L226.016 -8.80497L231 10.0627L143 81L57 149.5Z" fill="white"/>
<path d="M41.6615 60.7953L40.2506 61.7466C39.2036 62.452 38.929 63.8789 39.6377 64.9227C40.0814 65.577 40.7996 65.9282 41.5369 65.9282C41.9774 65.9282 42.4243 65.8037 42.8169 65.5356L44.2279 64.5843C45.2748 63.8789 45.5494 62.452 44.8407 61.4082C44.1321 60.3645 42.7116 60.0771 41.6615 60.7953Z" fill="#E46435"/>
<path d="M28.4152 75.3001L37.7105 69.0086C38.7574 68.2999 39.032 66.8763 38.3233 65.8325C37.6179 64.7887 36.1942 64.511 35.1473 65.2196L23.3621 73.1965C22.7716 73.5987 22.4013 74.25 22.3598 74.9682C22.3183 75.6768 22.6152 76.3727 23.1546 76.8291L37.455 89.0326C37.8859 89.4029 38.4126 89.5817 38.9425 89.5817C39.5873 89.5817 40.2289 89.3071 40.6821 88.7773C41.5025 87.8164 41.3876 86.3737 40.4268 85.5565L28.4152 75.3001Z" fill="#E46435"/>
</svg>
