<svg width="54" height="54" viewBox="0 0 54 54" fill="none" xmlns="http://www.w3.org/2000/svg">
<path d="M27 27L20.3452 33.5901C13.7696 40.1018 10.4818 43.3576 11.4022 46.1667C11.4813 46.4081 11.5796 46.643 11.6961 46.8692C13.051 49.5 17.7007 49.5 27 49.5C36.2993 49.5 40.949 49.5 42.3039 46.8692C42.4204 46.643 42.5187 46.4081 42.5978 46.1667C43.1157 44.586 42.3012 42.864 40.3184 40.5M27 27L33.6548 33.5901M27 27L33.6548 20.4099C40.2304 13.8982 43.5182 10.6424 42.5978 7.83334C42.5187 7.59188 42.4204 7.35698 42.3039 7.13084C40.949 4.5 36.2993 4.5 27 4.5C17.7007 4.5 13.051 4.5 11.6961 7.13084C11.5796 7.35698 11.4813 7.59188 11.4022 7.83334C10.8843 9.41397 11.6988 11.136 13.6816 13.5M27 27L20.3452 20.4099" stroke="#767676" stroke-width="2" stroke-linecap="round"/>
<path d="M20.3452 33.5901C13.7696 40.1018 10.4818 43.3576 11.4022 46.1667C11.4813 46.4081 11.5796 46.643 11.6961 46.8692C13.051 49.5 17.7007 49.5 27 49.5C36.2993 49.5 40.949 49.5 42.3039 46.8692C42.4204 46.643 42.5187 46.4081 42.5978 46.1667C43.1157 44.586 42.3012 42.864 40.3184 40.5M33.6548 20.4099C40.2304 13.8982 43.5182 10.6424 42.5978 7.83334C42.5187 7.59188 42.4204 7.35698 42.3039 7.13084C40.949 4.5 36.2993 4.5 27 4.5C17.7007 4.5 13.051 4.5 11.6961 7.13084C11.5796 7.35698 11.4813 7.59188 11.4022 7.83334C10.8843 9.41397 11.6988 11.136 13.6816 13.5" stroke="#116893" stroke-width="2" stroke-linecap="round"/>
</svg>
