<svg width="54" height="54" viewBox="0 0 54 54" fill="none" xmlns="http://www.w3.org/2000/svg">
<path d="M42.75 20.25V33.75C42.75 40.0701 42.75 43.2301 41.2332 45.5001C40.5766 46.4828 39.7328 47.3266 38.7501 47.9832C36.4801 49.5 33.3201 49.5 27 49.5C20.6799 49.5 17.5199 49.5 15.2499 47.9832C14.2672 47.3266 13.4234 46.4828 12.7668 45.5001C11.4417 43.5171 11.2742 40.8548 11.2531 36M42.3216 11.25C42.0971 10.1665 41.7549 9.28054 41.2332 8.49987C40.5766 7.51716 39.7328 6.6734 38.7501 6.01677C36.4801 4.5 33.3201 4.5 27 4.5C20.6799 4.5 17.5199 4.5 15.2499 6.01677C14.2672 6.6734 13.4234 7.51716 12.7668 8.49987C11.25 10.7699 11.25 13.9299 11.25 20.25V27" stroke="#767676" stroke-width="2" stroke-linecap="round"/>
<path d="M33.75 19.125C33.75 15.3971 30.7279 12.375 27 12.375C23.2721 12.375 20.25 15.3971 20.25 19.125C20.25 22.8529 23.2721 25.875 27 25.875C30.7279 25.875 33.75 22.8529 33.75 19.125Z" stroke="#116893" stroke-width="2"/>
<path d="M24.75 32.625C24.75 31.3824 23.7426 30.375 22.5 30.375C21.2574 30.375 20.25 31.3824 20.25 32.625C20.25 33.8676 21.2574 34.875 22.5 34.875C23.7426 34.875 24.75 33.8676 24.75 32.625Z" fill="#116893"/>
<circle cx="2.25" cy="2.25" r="2.25" transform="matrix(1 0 0 -1 20.25 42.75)" fill="#116893"/>
<path d="M33.75 32.625C33.75 31.3824 32.7426 30.375 31.5 30.375C30.2574 30.375 29.25 31.3824 29.25 32.625C29.25 33.8676 30.2574 34.875 31.5 34.875C32.7426 34.875 33.75 33.8676 33.75 32.625Z" fill="#116893"/>
<circle cx="2.25" cy="2.25" r="2.25" transform="matrix(1 0 0 -1 29.25 42.75)" fill="#116893"/>
</svg>
