<svg width="139" height="122" fill="none" xmlns="http://www.w3.org/2000/svg">
  <path d="M3 18.236C13.749 9.384 36.303-.844 50.14 4.455c21.571 8.261 18.427 51.476-.978 59.492-7.524 3.107-21.525-3.588-14.798-17.49 3.905-8.07 13.27-19.282 30.401-19.282 17.132 0 24.686 2.521 32.378 8.072 28.544 20.597 29.812 50.148 29.812 83.062" stroke="#6FDE9B" stroke-width="4.484" stroke-linecap="round"/>
  <path d="M118.22 112.377c.37.629 7.176 6.343 7.831 6.717.994.568.303.658 1.284.08 2.992-2.313 5.683-5.004 8.665-8.023" stroke="#6FDE9B" stroke-width="4.484" stroke-linecap="round"/>
</svg>
