<svg width="48" height="64" fill="none" xmlns="http://www.w3.org/2000/svg">
  <path d="M16.486 25.09c-7.728-.495-8.159-10.148-8.159-10.148S7.73 24.595 0 24.938c7.729.495 8.16 10.149 8.16 10.149s.598-9.654 8.326-9.997ZM47.981 47.33c-12.5-.781-13.193-16.394-13.193-16.394S33.834 46.53 21.315 47.1c12.5.78 13.192 16.394 13.192 16.394S35.462 47.9 47.981 47.33ZM46.39 7.82C40.89 7.479 40.57.605 40.57.605s-.43 6.874-5.931 7.122c5.501.342 5.82 7.216 5.82 7.216s.43-6.874 5.932-7.121Z" fill="#fff"/>
</svg>
