<?xml version="1.0" encoding="iso-8859-1"?>
<!-- Generator: Adobe Illustrator 19.0.0, SVG Export Plug-In . SVG Version: 6.00 Build 0)  -->
<svg version="1.1" id="Capa_1" xmlns="http://www.w3.org/2000/svg" xmlns:xlink="http://www.w3.org/1999/xlink" x="0px" y="0px"
	 viewBox="0 0 512 512" style="enable-background:new 0 0 512 512;" xml:space="preserve">
<g>
	<g>
		<path d="M448.681,84.016L425.03,33.38c-1.753-3.752-6.215-5.372-9.97-3.621c-3.753,1.753-5.374,6.217-3.621,9.97l9.614,20.582
			C374.935,21.281,317.107,0,256,0C187.62,0,123.333,26.629,74.981,74.981c-41.75,41.75-67.936,97.044-73.733,155.697
			c-5.717,57.847,8.5,116.378,40.033,164.813c1.438,2.208,3.841,3.409,6.292,3.409c1.403,0,2.822-0.393,4.085-1.216
			c3.472-2.26,4.454-6.906,2.193-10.377C24.173,341.72,10.792,286.618,16.175,232.153c5.457-55.21,30.108-107.262,69.412-146.566
			C131.106,40.068,191.626,15,256,15c57.589,0,112.085,20.077,155.524,56.897l-22.055-5.495c-4.018-1.004-8.089,1.445-9.09,5.464
			c-1.001,4.019,1.445,8.089,5.464,9.09l54.23,13.511c0.602,0.15,1.21,0.223,1.813,0.223c2.209,0,4.345-0.979,5.789-2.732
			C449.513,89.726,449.905,86.636,448.681,84.016z"/>
	</g>
</g>
<g>
	<g>
		<path d="M470.719,116.509c-2.261-3.472-6.906-4.453-10.377-2.193c-3.472,2.26-4.454,6.906-2.193,10.377
			c29.679,45.588,43.059,100.689,37.676,155.154c-5.457,55.21-30.108,107.262-69.412,146.566C380.894,471.932,320.374,497,256,497
			c-57.589,0-112.085-20.077-155.524-56.897l22.055,5.495c4.017,1.002,8.089-1.445,9.09-5.464c1.001-4.019-1.445-8.089-5.464-9.09
			l-54.23-13.511c-2.805-0.699-5.764,0.277-7.602,2.509s-2.23,5.322-1.006,7.942L86.97,478.62c1.274,2.727,3.978,4.328,6.8,4.327
			c1.063,0,2.143-0.227,3.169-0.706c3.753-1.753,5.374-6.217,3.621-9.97l-9.615-20.582C137.065,490.719,194.893,512,256,512
			c68.38,0,132.667-26.629,181.019-74.981c41.75-41.75,67.936-97.044,73.733-155.697
			C516.469,223.476,502.252,164.944,470.719,116.509z"/>
	</g>
</g>
<g>
	<g>
		<path d="M373.154,235.866c-1.205-2.592-3.776-4.273-6.633-4.337l-97.04-2.174L299.17,93.119c0.741-3.399-0.953-6.86-4.09-8.362
			c-3.139-1.501-6.896-0.649-9.078,2.06l-146.196,181.45c-1.792,2.225-2.166,5.275-0.961,7.867c1.205,2.592,3.776,4.273,6.633,4.337
			l97.04,2.174l-0.672,3.085c-0.882,4.047,1.684,8.043,5.731,8.925c4.045,0.882,8.043-1.684,8.925-5.731l2.61-11.977
			c0.477-2.188-0.049-4.476-1.435-6.236s-3.485-2.809-5.725-2.859l-90.907-2.037L277.75,120.967l-24.862,114.085
			c-0.477,2.189,0.049,4.476,1.435,6.236c1.386,1.76,3.485,2.809,5.725,2.859l90.907,2.037L234.25,391.034l15.423-70.776
			c0.882-4.048-1.684-8.044-5.732-8.925c-4.045-0.879-8.043,1.685-8.925,5.731l-22.188,101.818c-0.741,3.399,0.953,6.861,4.09,8.362
			c1.037,0.496,2.142,0.735,3.235,0.735c2.214,0,4.382-0.981,5.843-2.795l146.197-181.451
			C373.985,241.508,374.359,238.458,373.154,235.866z"/>
	</g>
</g>
<g>
</g>
<g>
</g>
<g>
</g>
<g>
</g>
<g>
</g>
<g>
</g>
<g>
</g>
<g>
</g>
<g>
</g>
<g>
</g>
<g>
</g>
<g>
</g>
<g>
</g>
<g>
</g>
<g>
</g>
</svg>
