<svg id="Layer_1" enable-background="new 0 0 512 512" height="512" viewBox="0 0 512 512" width="512" xmlns="http://www.w3.org/2000/svg"><path d="m470.05 461.123h-13.444v-39.257c0-3.822-3.097-6.919-6.919-6.919h-11.493v-173.054c3.857-1.239 7.237-3.789 9.527-7.403 17.102-27 22.277-53.899 14.973-77.789l-30.289-99.064c-7.302-23.897-26.638-43.302-55.915-56.118-6.428-2.813-13.685-1.664-18.924 3.005-5.246 4.669-7.23 11.739-5.178 18.453l23.703 77.514-292.273 89.359-1.845-6.029c-2.865-9.363-12.809-14.642-22.169-11.786l-13.424 4.105c-4.529 1.383-8.25 4.455-10.482 8.646-2.23 4.194-2.694 8.996-1.311 13.525l19.275 63.041c1.385 4.529 4.457 8.25 8.649 10.478 2.61 1.387 5.457 2.092 8.324 2.092.992 0 1.983-.108 2.971-.276v103.125h-11.495c-3.822 0-6.919 3.097-6.919 6.919v77.433h-13.442c-11.027 0-20 8.971-20 19.998v23.96c0 3.822 3.097 6.919 6.919 6.919h454.262c3.822 0 6.919-3.097 6.919-6.919v-23.96c0-11.027-8.973-19.998-20-19.998zm-50.269 0v-32.338h22.987v32.338zm-130.892-231.637h-10.554v-28.708c0-4.471-1.047-8.69-2.863-12.475l116.569-35.64 23.703 77.519c1.417 4.628 4.542 8.288 8.613 10.444v174.322h-11.495v-.001c-3.822 0-6.919 3.097-6.919 6.919v39.257h-90.028l-20.135-225.334c-.854-6.37-6.891-6.303-6.891-6.303zm-54.666-28.708c0-8.347 6.791-15.138 15.135-15.138 8.347 0 15.138 6.791 15.138 15.138v28.708h-30.273zm57.476 146.601c.06-.075.08-.168.136-.246l8.771 98.151-42.968-55.07zm-42.817 31.614-28.157-36.088 28.378-39.41 28.499 39.381zm42.118-41.207-33.377-46.122 26.026-36.143zm-15.62-94.463-26.304 36.53-26.435-36.53zm-34.825 48.361-34.092 47.345c-.139.193-.191.418-.309.621l8.076-84.342zm-34.955 53.771c.242.66.573 1.297 1.024 1.874l33.399 42.806-43.999 55.333zm43.177 55.901 46.634 59.768h-94.16zm-181.68-144.048-19.275-63.041c-.304-.993-.2-2.052.295-2.982.493-.928 1.313-1.606 2.306-1.91l13.426-4.106c2.063-.635 4.261.536 4.892 2.599l3.865 12.644c.536 1.755 1.748 3.225 3.369 4.086 1.619.865 3.518 1.038 5.27.509l305.506-93.404c3.653-1.117 5.712-4.984 4.595-8.64l-25.723-84.132c-.473-1.547-.068-2.993 1.146-4.074 1.209-1.074 2.687-1.309 4.173-.662 25.464 11.147 42.142 27.568 48.228 47.487l30.289 99.064c6.09 19.915 1.446 42.854-13.428 66.341-.865 1.363-2.214 1.989-3.833 1.784-1.604-.216-2.75-1.189-3.223-2.737l-25.723-84.134c-.538-1.755-1.748-3.225-3.369-4.086-1.622-.865-3.518-1.038-5.27-.509l-128.963 39.429c-4.646-3.172-10.255-5.032-16.292-5.032-12.179 0-22.608 7.564-26.887 18.234l-133.367 40.776c-1.755.538-3.225 1.75-4.086 3.369-.863 1.619-1.045 3.516-.509 5.27l3.505 11.46c.633 2.068-.534 4.261-2.599 4.892l-13.426 4.104c-2.066.639-4.262-.532-4.892-2.599zm135.106-21.564-21.579 225.379h-74.568v-77.433c0-3.822-3.097-6.919-6.919-6.919h-11.493v-107.178l1.815-.555c4.529-1.385 8.25-4.457 10.478-8.649 2.23-4.194 2.694-8.996 1.311-13.523l-1.482-4.845 120.619-36.875v24.339h-11.295s-5.928-.29-6.887 6.259zm-132.973 154.865h22.987v70.514h-22.987zm406.982 107.553h-440.424v-17.041c0-3.396 2.764-6.16 6.162-6.16h428.1c3.399 0 6.162 2.764 6.162 6.16z"/></svg>