<svg width="51" height="51" fill="none" xmlns="http://www.w3.org/2000/svg"><path d="M43.17 7.736c-9.84-9.84-25.766-9.841-35.607 0-9.84 9.84-9.841 25.766 0 35.607 4.385 4.385 10.104 6.952 16.242 7.325.573.072 1.754.057 1.754.047 13.826-.103 24.985-11.322 24.985-25.176 0-6.725-2.619-13.048-7.374-17.803zm-30.876-.147l3.586 2.793-.487 3.408H6.52a22.392 22.392 0 015.774-6.201zM3.2 27.02h10.415v6.517H4.64A22.059 22.059 0 013.2 27.02zm22.165 20.735c-.105 0-.068.776-.094-10.188l16.569 2.86c-4.069 4.498-9.947 7.328-16.475 7.328zm18.532-9.978l-18.123-3.129a2.963 2.963 0 00-3.465 2.926l.023 9.973c-6.98-.957-12.936-5.167-16.285-11.048h7.569a2.965 2.965 0 002.962-2.962V27.02a2.965 2.965 0 00-2.963-2.962H3.202c.17-2.58.783-5.04 1.763-7.306h10.429a2.977 2.977 0 002.932-2.544l.487-3.407A2.969 2.969 0 0017.7 8.045l-2.736-2.13A22.173 22.173 0 0141.07 9.84h-8.397c-1.2 0-2.273.715-2.735 1.823l-2.715 6.516c-.811 1.948.619 4.102 2.734 4.102h8.373l1.167 7.003a2.953 2.953 0 002.922 2.476h4.276a22.123 22.123 0 01-2.797 6.017zm-1.48-8.98l-1.166-7.003a2.953 2.953 0 00-2.922-2.475h-8.372l2.715-6.517h10.884a22.135 22.135 0 013.785 15.995H42.42z" fill="#fff"/><path d="M43.17 7.736c-9.84-9.84-25.766-9.841-35.607 0-9.84 9.84-9.841 25.766 0 35.607 4.385 4.385 10.104 6.952 16.242 7.325.573.072 1.754.057 1.754.047 13.826-.103 24.985-11.322 24.985-25.176 0-6.725-2.619-13.048-7.374-17.803zm-30.876-.147l3.586 2.793-.487 3.408H6.52a22.392 22.392 0 015.774-6.201zM3.2 27.02h10.415v6.517H4.64A22.059 22.059 0 013.2 27.02zm22.165 20.735c-.105 0-.068.776-.094-10.188l16.569 2.86c-4.069 4.498-9.947 7.328-16.475 7.328zm18.532-9.978l-18.123-3.129a2.963 2.963 0 00-3.465 2.926l.023 9.973c-6.98-.957-12.936-5.167-16.285-11.048h7.569a2.965 2.965 0 002.962-2.962V27.02a2.965 2.965 0 00-2.963-2.962H3.202c.17-2.58.783-5.04 1.763-7.306h10.429a2.977 2.977 0 002.932-2.544l.487-3.407A2.969 2.969 0 0017.7 8.045l-2.736-2.13A22.173 22.173 0 0141.07 9.84h-8.397c-1.2 0-2.273.715-2.735 1.823l-2.715 6.516c-.811 1.948.619 4.102 2.734 4.102h8.373l1.167 7.003a2.953 2.953 0 002.922 2.476h4.276a22.123 22.123 0 01-2.797 6.017zm-1.48-8.98l-1.166-7.003a2.953 2.953 0 00-2.922-2.475h-8.372l2.715-6.517h10.884a22.135 22.135 0 013.785 15.995H42.42z" fill="#00669C"/><path d="M43.17 7.736c-9.84-9.84-25.766-9.841-35.607 0-9.84 9.84-9.841 25.766 0 35.607 4.385 4.385 10.104 6.952 16.242 7.325.573.072 1.754.057 1.754.047 13.826-.103 24.985-11.322 24.985-25.176 0-6.725-2.619-13.048-7.374-17.803zm-30.876-.147l3.586 2.793-.487 3.408H6.52a22.392 22.392 0 015.774-6.201zM3.2 27.02h10.415v6.517H4.64A22.059 22.059 0 013.2 27.02zm22.165 20.735c-.105 0-.068.776-.094-10.188l16.569 2.86c-4.069 4.498-9.947 7.328-16.475 7.328zm18.532-9.978l-18.123-3.129a2.963 2.963 0 00-3.465 2.926l.023 9.973c-6.98-.957-12.936-5.167-16.285-11.048h7.569a2.965 2.965 0 002.962-2.962V27.02a2.965 2.965 0 00-2.963-2.962H3.202c.17-2.58.783-5.04 1.763-7.306h10.429a2.977 2.977 0 002.932-2.544l.487-3.407A2.969 2.969 0 0017.7 8.045l-2.736-2.13A22.173 22.173 0 0141.07 9.84h-8.397c-1.2 0-2.273.715-2.735 1.823l-2.715 6.516c-.811 1.948.619 4.102 2.734 4.102h8.373l1.167 7.003a2.953 2.953 0 002.922 2.476h4.276a22.123 22.123 0 01-2.797 6.017zm-1.48-8.98l-1.166-7.003a2.953 2.953 0 00-2.922-2.475h-8.372l2.715-6.517h10.884a22.135 22.135 0 013.785 15.995H42.42z" fill="url(#paint0_linear)"/><defs><linearGradient id="paint0_linear" x1="-39.842" y1="89.003" x2="65.773" y2="80.3" gradientUnits="userSpaceOnUse"><stop stop-color="#1568C4"/><stop offset="1" stop-color="#2DB3DE"/></linearGradient></defs></svg>