<svg width="48" height="48" viewBox="0 0 48 48" fill="none" xmlns="http://www.w3.org/2000/svg">
<path d="M40.4164 40.8331H19.9424L18.2705 24.6711L23.4997 17.8731L28.7604 24.7124C28.8396 26.6775 30.0007 28.3647 31.6664 29.196V32.6666H31.0831C30.9284 32.6666 30.7799 32.7281 30.6706 32.8374L28.6289 34.8791C28.5195 34.9885 28.4581 35.1369 28.4581 35.2916V37.3333C28.4581 37.6554 28.7193 37.9166 29.0414 37.9166C29.3635 37.9166 29.6247 37.6554 29.6247 37.3333V35.5333L31.3247 33.8333H37.8414L39.5414 35.5333V37.3333C39.5414 37.6554 39.8026 37.9166 40.1247 37.9166C40.4469 37.9166 40.7081 37.6554 40.7081 37.3333V35.2916C40.7081 35.1369 40.6466 34.9885 40.5372 34.8791L38.4956 32.8374C38.3862 32.7281 38.2377 32.6666 38.0831 32.6666H37.4997V28.5833C37.4997 28.5288 37.4828 28.4799 37.4687 28.4299C38.5581 27.4673 39.2497 26.0645 39.2497 24.4999C39.2497 22.6312 38.2651 20.9916 36.7903 20.0611C36.7854 20.0549 36.7843 20.0471 36.7794 20.0408L28.1181 9.7555C27.2334 8.1245 25.51 7.01303 23.5306 7.00156C23.5275 7.0013 23.5246 7.0013 23.5215 7.00104C23.5142 7.00104 23.5072 7 23.4999 7C23.4926 7 23.4855 7.00104 23.4783 7.00104C23.4751 7.00104 23.4723 7.0013 23.4694 7.00156C21.49 7.01302 19.7663 8.1245 18.8817 9.7555L10.2203 20.0408C10.2151 20.0471 10.2141 20.0549 10.2094 20.0611C8.75026 20.9819 7.77346 22.5971 7.75313 24.4416L6.00313 41.3563C6.00208 41.3662 6.00677 41.3756 6.00625 41.3854C6.00573 41.3964 6 41.4055 6 41.4164C6 41.4519 6.01406 41.4823 6.02005 41.5162C6.0263 41.5511 6.02839 41.5852 6.04062 41.6183C6.05781 41.6646 6.08516 41.7034 6.11302 41.7435C6.12708 41.7641 6.13307 41.7888 6.15 41.8076C6.15338 41.8112 6.15859 41.8125 6.16198 41.8162C6.20156 41.8581 6.25052 41.8883 6.30078 41.917C6.31848 41.9268 6.33229 41.9427 6.35104 41.9508C6.42239 41.9815 6.50052 41.9998 6.58333 41.9998H40.4167C40.7388 41.9998 41 41.7386 41 41.4164C41 41.0943 40.7385 40.8331 40.4164 40.8331ZM33.9997 32.6664H32.8331V29.6146C33.2088 29.7003 33.5982 29.7498 33.9997 29.7498V32.6664ZM36.3331 32.6664H35.1664V29.6146C35.5758 29.5211 35.9659 29.3789 36.3331 29.1959V32.6664ZM38.0831 24.4997C38.0831 26.7513 36.2513 28.5831 33.9997 28.5831C31.7482 28.5831 29.9164 26.7513 29.9164 24.4997C29.9164 22.2482 31.7482 20.4164 33.9997 20.4164C36.2513 20.4164 38.0831 22.2482 38.0831 24.4997ZM28.7464 12.3131L34.6217 19.2904C34.4172 19.2662 34.2105 19.25 33.9995 19.25C31.6065 19.25 29.5868 20.8612 28.9565 23.0542L24.5943 17.3834C26.9451 16.8823 28.7165 14.8039 28.7464 12.3131ZM24.0829 10.6073C24.7605 10.8487 25.2495 11.4904 25.2495 12.2498C25.2495 13.0092 24.7605 13.6509 24.0829 13.8923V10.6073ZM24.0829 15.1076C25.4125 14.8365 26.4162 13.6581 26.4162 12.2498C26.4162 10.8415 25.4125 9.66306 24.0829 9.392V8.52713L26.6311 9.80106L27.135 10.3995C27.4191 10.9558 27.5829 11.5834 27.5829 12.2498C27.5829 14.3029 26.0584 16.0021 24.0829 16.2865L24.0829 15.1076ZM22.9162 13.8923C22.2386 13.6506 21.7495 13.0092 21.7495 12.2498C21.7495 11.4904 22.2386 10.8487 22.9162 10.6073V13.8923ZM19.8641 10.3995L20.368 9.80109L22.9162 8.52716V9.39229C21.5866 9.66312 20.5829 10.8415 20.5829 12.2498C20.5829 13.6582 21.5866 14.8366 22.9162 15.1076V16.2868C20.9407 16.0022 19.4162 14.303 19.4162 12.2498C19.4162 11.5834 19.58 10.9558 19.8641 10.3995ZM18.2527 12.3131C18.2826 14.8039 20.054 16.8821 22.4045 17.3831L18.0422 23.0539C17.4122 20.8609 15.3925 19.2498 12.9995 19.2498C12.7885 19.2498 12.5817 19.2659 12.3773 19.2902L18.2527 12.3131ZM12.9995 20.4164C15.0527 20.4164 16.7519 21.9409 17.0363 23.9164H15.8571C15.5862 22.5867 14.4079 21.5831 12.9995 21.5831C11.5912 21.5831 10.4128 22.5867 10.1417 23.9164H8.96279C9.24716 21.9409 10.9464 20.4164 12.9995 20.4164ZM11.3571 23.9164C11.5985 23.2388 12.2401 22.7497 12.9995 22.7497C13.7589 22.7497 14.4006 23.2388 14.642 23.9164H11.3571ZM14.6419 25.0831C14.4005 25.7607 13.7589 26.2497 12.9995 26.2497C12.2401 26.2497 11.5987 25.7607 11.357 25.0831H14.6419ZM10.1417 25.0831C10.4127 26.4127 11.5911 27.4164 12.9995 27.4164C14.4078 27.4164 15.5862 26.4127 15.8573 25.0831H17.0365C16.7518 27.0586 15.0526 28.5831 12.9995 28.5831C10.9463 28.5831 9.24712 27.0586 8.96272 25.0831H10.1417ZM7.22965 40.8331L8.62025 27.3884C9.56085 28.8095 11.1718 29.7496 12.9995 29.7496C14.8271 29.7496 16.438 28.8095 17.3787 27.3884L18.7693 40.8331H7.22965Z" fill="#606060"/>
</svg>
