<svg width="48" height="48" viewBox="0 0 48 48" fill="none" xmlns="http://www.w3.org/2000/svg">
<path d="M41.8745 38.59H21.8474C21.1439 38.5995 20.4819 38.259 20.0809 37.6807C19.9859 37.5379 19.9516 37.3635 19.9853 37.1954C20.0193 37.0273 20.1186 36.8796 20.2613 36.7846C20.5587 36.5869 20.9599 36.6677 21.1574 36.9651C21.3177 37.1844 21.5762 37.3099 21.8474 37.3004H41.8744C42.2866 37.3338 42.6493 37.029 42.6867 36.6168V30.169C42.6493 29.7571 42.2866 29.452 41.8744 29.4857H28.5014C28.1454 29.4857 27.8567 29.197 27.8567 28.8409C27.8567 28.4849 28.1454 28.1962 28.5014 28.1962H41.8744C42.4153 28.1806 42.9406 28.3801 43.3346 28.7511C43.7287 29.1224 43.9593 29.6345 43.9763 30.1757V36.6234C43.9561 37.162 43.7238 37.6712 43.33 38.0393C42.9366 38.4078 42.4134 38.6055 41.8745 38.59Z" fill="#606060"/>
<path d="M41.8749 29.4921H28.5019C28.1459 29.4921 27.8571 29.2036 27.8571 28.8473C27.8571 28.4912 28.1459 28.2025 28.5019 28.2025H41.8749C42.2871 28.2362 42.6498 27.9314 42.6872 27.5192V21.0714C42.6498 20.6592 42.2871 20.3544 41.8749 20.3881H27.2581C26.902 20.3881 26.6133 20.0994 26.6133 19.7433C26.6133 19.387 26.902 19.0985 27.2581 19.0985H41.8749C42.4149 19.0827 42.9391 19.2816 43.3328 19.6512C43.7266 20.0208 43.9583 20.5314 43.9768 21.0714V27.5191C43.9583 28.0591 43.7266 28.5698 43.3328 28.9393C42.9391 29.3089 42.4149 29.5079 41.8749 29.4921Z" fill="#606060"/>
<path d="M41.875 20.3883H27.2581C26.9021 20.3883 26.6134 20.0996 26.6134 19.7435C26.6134 19.3872 26.9021 19.0987 27.2581 19.0987H41.875C42.2872 19.1321 42.6499 18.8273 42.6873 18.4151V11.9674C42.6498 11.5555 42.2872 11.2503 41.875 11.284H21.8479C21.4354 11.2503 21.073 11.5555 21.0356 11.9674V14.25C21.0356 14.6061 20.7469 14.8948 20.3909 14.8948C20.0348 14.8948 19.7461 14.6061 19.7461 14.25V11.974C19.7645 11.434 19.9959 10.9233 20.39 10.5538C20.7838 10.1839 21.3079 9.98531 21.8479 10.0008H41.875C42.415 9.9853 42.9392 10.1839 43.3329 10.5538C43.7267 10.9234 43.9584 11.434 43.9769 11.974V18.4217C43.9567 18.9603 43.7244 19.4692 43.3306 19.8377C42.9372 20.2061 42.4139 20.4038 41.875 20.3883Z" fill="#606060"/>
<path d="M43.3312 18.0786C43.1691 18.08 43.0125 18.0201 42.8928 17.911L41.8482 16.9502L40.9196 17.8852C40.6706 18.1226 40.2791 18.1226 40.0299 17.8852L38.9852 16.9243L38.0503 17.8593V17.8596C37.8013 18.0971 37.4098 18.0971 37.1606 17.8596L36.116 16.8988L35.1873 17.8337H35.1876C34.9378 18.0752 34.5411 18.0752 34.2913 17.8337L33.2467 16.8729L32.318 17.8079L32.3183 17.8081C32.0691 18.0453 31.6776 18.0453 31.4286 17.8081L30.384 16.8473L29.4554 17.7823C29.2055 18.0238 28.8092 18.0238 28.5593 17.7823L27.5147 16.8215L26.5669 17.8854C26.3127 18.1064 25.931 18.0946 25.6912 17.858C25.4512 17.6214 25.4339 17.24 25.6512 16.9827L27.0182 15.6027V15.603C27.2681 15.3615 27.6644 15.3615 27.9146 15.603L28.9718 16.5572L29.9005 15.6222C30.1503 15.3807 30.5467 15.3807 30.7965 15.6222L31.8411 16.5572L32.7697 15.6222C33.0196 15.3807 33.416 15.3807 33.6658 15.6222L34.7104 16.5572L35.639 15.6222C35.888 15.3848 36.2798 15.3848 36.5287 15.6222L37.5734 16.5572L38.502 15.6222H38.5017C38.7518 15.3807 39.1482 15.3807 39.398 15.6222L40.4426 16.5572L41.3968 15.603C41.6458 15.3655 42.0376 15.3655 42.2866 15.603L43.7888 16.9763C44.018 17.2193 44.0237 17.5972 43.8018 17.8467C43.6849 17.9875 43.514 18.0718 43.3312 18.0787L43.3312 18.0786Z" fill="#606060"/>
<path d="M43.3317 14.9734C43.1697 14.9746 43.0131 14.9147 42.8933 14.8056L41.8487 13.8451L40.9201 14.78C40.6711 15.0172 40.2796 15.0172 40.0304 14.78L38.9858 13.8192L38.0508 14.7542C37.8018 14.9917 37.4104 14.9917 37.1611 14.7542L36.1165 13.7934L35.1879 14.7283H35.1882C34.9383 14.9701 34.5417 14.9701 34.2918 14.7283L33.2472 13.7675L32.3186 14.7024L32.3189 14.7027C32.0696 14.9402 31.6781 14.9402 31.4292 14.7027L30.3845 13.7419L29.4559 14.6769C29.2061 14.9184 28.8097 14.9184 28.5599 14.6769L27.5153 13.716L26.5674 14.7802C26.3184 15.0174 25.9267 15.0174 25.6777 14.7802L24.6331 13.8452L23.7045 14.7802C23.4535 15.0329 23.045 15.0344 22.7923 14.7833C22.5392 14.5324 22.5378 14.1239 22.7891 13.8709L24.1495 12.4975C24.3993 12.256 24.7957 12.256 25.0458 12.4975L26.0904 13.4517L27.019 12.5168H27.0188C27.2686 12.2753 27.665 12.2753 27.9151 12.5168L28.9531 13.471L29.8817 12.536C30.1316 12.2945 30.5279 12.2945 30.7778 12.536L31.8224 13.4902L32.751 12.5552V12.5555C33.0008 12.3137 33.3972 12.3137 33.647 12.5555L34.6917 13.5097L35.6203 12.5747C35.8693 12.3373 36.2607 12.3373 36.51 12.5747L37.5546 13.5289L38.4832 12.594H38.4829C38.7328 12.3525 39.1294 12.3525 39.3793 12.594L40.4239 13.5482L41.3974 12.4972C41.6464 12.2598 42.0381 12.2598 42.2871 12.4972L43.7894 13.8706C44.0505 14.1112 44.0677 14.5176 43.8283 14.7799C43.6984 14.9129 43.5174 14.9834 43.3317 14.9733L43.3317 14.9734Z" fill="#606060"/>
<path d="M43.3314 27.1457C43.1693 27.1469 43.0127 27.087 42.893 26.9779L41.8484 26.0237L40.9197 26.9587C40.6708 27.1961 40.2793 27.1961 40.03 26.9587L38.9854 26.0045L38.0505 26.9394C37.8015 27.1769 37.41 27.1769 37.1607 26.9394L36.1161 25.9852L35.1875 26.9202H35.1878C34.9379 27.1617 34.5413 27.1617 34.2915 26.9202L33.2468 25.966L32.3182 26.901H32.3185C32.0692 27.1382 31.6778 27.1382 31.4288 26.901L30.3842 25.9468L29.4556 26.8817V26.8814C29.3347 27.0035 29.1697 27.0723 28.9979 27.0723C28.826 27.0723 28.6611 27.0035 28.5399 26.8814C28.2901 26.6302 28.2901 26.224 28.5399 25.9724L29.9003 24.5991H29.9006C30.1504 24.3576 30.5468 24.3576 30.7966 24.5991L31.8412 25.5856L32.7699 24.6506C33.0197 24.4091 33.4161 24.4091 33.6659 24.6506L34.7105 25.5856L35.6391 24.6506C35.8881 24.4131 36.2799 24.4131 36.5289 24.6506L37.5735 25.5856L38.5021 24.6506H38.5018C38.7519 24.4091 39.1483 24.4091 39.3982 24.6506L40.4428 25.5856L41.397 24.6765C41.6459 24.4391 42.0377 24.4391 42.2867 24.6765L43.789 26.0565V26.0562C43.966 26.2419 44.0161 26.5145 43.9168 26.7511C43.8175 26.9874 43.5878 27.1425 43.3313 27.146L43.3314 27.1457Z" fill="#606060"/>
<path d="M43.3314 24.0355C43.1693 24.0366 43.0127 23.9768 42.893 23.868L41.8484 22.9071L40.9197 23.8484C40.6708 24.0858 40.2793 24.0858 40.03 23.8484L38.9854 22.8875L38.0505 23.8288V23.8291C37.8015 24.0665 37.41 24.0665 37.1607 23.8291L36.1161 22.8682L35.1875 23.8095L35.1878 23.8097C34.9379 24.0512 34.5413 24.0512 34.2915 23.8097L33.2468 22.8489L32.3182 23.7901L32.3185 23.7904C32.0692 24.0279 31.6778 24.0279 31.4288 23.7904L30.3842 22.8296L29.4556 23.7708V23.7711C29.3347 23.8932 29.1697 23.9617 28.9979 23.9617C28.826 23.9617 28.6611 23.8932 28.5399 23.7711C28.2901 23.5195 28.2901 23.1134 28.5399 22.8618L29.9003 21.4818L29.9006 21.4821C30.1504 21.2403 30.5468 21.2403 30.7966 21.4821L31.8412 22.4363L32.7699 21.5014C33.0197 21.2599 33.4161 21.2599 33.6659 21.5014L34.7105 22.4555L35.6391 21.5206C35.8881 21.2831 36.2799 21.2831 36.5289 21.5206L37.5735 22.4748L38.5021 21.5398H38.5018C38.7519 21.2983 39.1483 21.2983 39.3982 21.5398L40.4428 22.494L41.397 21.5591C41.6459 21.3219 42.0377 21.3219 42.2867 21.5591L43.789 22.9324V22.9327C43.9165 23.0484 43.9922 23.2104 43.9994 23.3823C44.0066 23.5541 43.945 23.722 43.8278 23.848C43.6969 23.9787 43.5161 24.0469 43.3313 24.0351L43.3314 24.0355Z" fill="#606060"/>
<path d="M43.3315 36.2797C43.1694 36.2809 43.0128 36.221 42.8931 36.1119L41.8485 35.1577L40.9199 36.0927C40.6709 36.3301 40.2794 36.3301 40.0302 36.0927L38.9855 35.1385L38.0506 36.0927C37.8016 36.3301 37.4101 36.3301 37.1609 36.0927L36.1163 35.1385L35.1879 36.0927C34.9381 36.3342 34.5414 36.3342 34.2916 36.0927L33.247 35.1385L32.3186 36.0927C32.0694 36.3301 31.6779 36.3301 31.4289 36.0927L30.3843 35.1385L29.4557 36.0927C29.2059 36.3342 28.8095 36.3342 28.5596 36.0927L27.515 35.1385L26.5672 36.0927C26.3182 36.3301 25.9264 36.3301 25.6775 36.0927L24.6329 35.1385C24.5056 35.0225 24.4299 34.8607 24.4224 34.6886C24.4152 34.5167 24.4771 34.3489 24.5943 34.2228C24.8349 33.9618 25.2414 33.9445 25.5033 34.1843L26.1158 34.7453L27.0445 33.8103V33.81C27.2943 33.5685 27.6907 33.5685 27.9405 33.81L28.9785 34.7709L29.9071 33.8359C30.157 33.5944 30.5536 33.5944 30.8035 33.8359L31.8481 34.7967L32.7767 33.8618H32.7764C33.0263 33.62 33.4229 33.62 33.6728 33.8618L34.7174 34.8226L35.646 33.8876L35.6457 33.8873C35.895 33.6499 36.2864 33.6499 36.5354 33.8873L37.58 34.8482L38.5086 33.9132C38.7585 33.6717 39.1549 33.6717 39.4047 33.9132L40.4493 34.874L41.3972 33.8099C41.6462 33.5727 42.0379 33.5727 42.2869 33.8099L43.7892 35.1899C43.9662 35.3755 44.0163 35.6481 43.917 35.8844C43.8177 36.121 43.588 36.276 43.3315 36.2797Z" fill="#606060"/>
<path d="M43.3317 33.1736C43.1696 33.1748 43.013 33.1149 42.8933 33.0058L41.8487 32.0323L40.9201 32.9735C40.6711 33.211 40.2796 33.211 40.0303 32.9735L38.9857 32.0323L38.0508 32.9735C37.8018 33.211 37.4103 33.211 37.1611 32.9735L36.1165 32.0323L35.1878 32.9735H35.1881C34.9383 33.2153 34.5416 33.2153 34.2918 32.9735L33.2472 32.0323L32.3185 32.9735H32.3188C32.0696 33.211 31.6781 33.211 31.4291 32.9735L30.3845 32.0323L29.4559 32.9735C29.206 33.2153 28.8097 33.2153 28.5598 32.9735L27.1736 31.684C26.9099 31.4436 26.8912 31.0352 27.1316 30.7718C27.3719 30.5081 27.7804 30.4894 28.0441 30.7298L28.9727 31.5809L29.9013 30.646H29.901C30.1509 30.4045 30.5472 30.4045 30.7971 30.646L31.8417 31.6002L32.7703 30.6652C33.0201 30.4237 33.4165 30.4237 33.6664 30.6652L34.711 31.6194L35.6396 30.6844C35.8886 30.4472 36.2803 30.4472 36.5293 30.6844L37.5739 31.6386L38.5025 30.7037L38.5022 30.704C38.7524 30.4622 39.1487 30.4622 39.3986 30.704L40.4432 31.6581L41.3974 30.6973C41.6464 30.4598 42.0381 30.4598 42.2871 30.6973L43.7638 32.032C43.891 32.1478 43.9667 32.3098 43.9739 32.4817C43.9814 32.6538 43.9195 32.8216 43.8023 32.9477C43.6843 33.0858 43.5133 33.1679 43.3317 33.1734L43.3317 33.1736Z" fill="#606060"/>
<path d="M16.7667 38.5915C13.3808 38.5915 10.1335 37.2464 7.73911 34.8521C5.34511 32.4581 4 29.2109 4 25.8253C4 22.4397 5.34511 19.1921 7.73911 16.7977C10.1334 14.4037 13.3806 13.0586 16.7667 13.0586C20.1528 13.0586 23.3998 14.4037 25.7943 16.7977C28.1883 19.192 29.5334 22.4392 29.5334 25.8253C29.5299 29.2101 28.184 32.4553 25.7905 34.8484C23.3968 37.2419 20.1516 38.5881 16.7666 38.5916L16.7667 38.5915ZM16.7667 14.348C13.7227 14.348 10.8037 15.5572 8.65137 17.7094C6.49915 19.8617 5.28992 22.781 5.28992 25.8248C5.28992 28.8688 6.49915 31.7878 8.65137 33.9401C10.8039 36.0923 13.7229 37.3015 16.7667 37.3015C19.8105 37.3015 22.7297 36.0923 24.882 33.9401C27.0342 31.7876 28.2435 28.8685 28.2435 25.8248C28.2383 22.7825 27.0276 19.8661 24.8763 17.7153C22.7252 15.564 19.8087 14.3533 16.7668 14.3481L16.7667 14.348Z" fill="#606060"/>
<path d="M16.8572 33.4425C14.8632 33.4425 12.9508 32.6504 11.5409 31.2405C10.131 29.8306 9.33887 27.9182 9.33887 25.9243C9.33887 23.9303 10.131 22.0182 11.5409 20.6083C12.9508 19.1984 14.8632 18.4062 16.8572 18.4062C18.8511 18.4062 20.7632 19.1984 22.1731 20.6083C23.583 22.0182 24.3752 23.9303 24.3752 25.9243C24.3734 27.9176 23.5807 29.8289 22.1714 31.2384C20.7618 32.648 18.8506 33.4408 16.8572 33.4425L16.8572 33.4425ZM16.8572 19.6959C15.2052 19.6959 13.6209 20.3522 12.4528 21.5203C11.2847 22.6884 10.6284 24.2724 10.6284 25.9244C10.6284 27.5763 11.2847 29.1607 12.4528 30.3288C13.6209 31.4969 15.2052 32.1531 16.8572 32.1531C18.5088 32.1531 20.0931 31.4969 21.2612 30.3288C22.4293 29.1607 23.0856 27.5763 23.0856 25.9244C23.0839 24.273 22.427 22.6898 21.2595 21.5221C20.0917 20.3543 18.5086 19.6977 16.8572 19.696L16.8572 19.6959Z" fill="#606060"/>
<path d="M11.6411 30.6059C11.3636 30.6105 11.114 30.4369 11.0219 30.1753C10.9298 29.9134 11.0156 29.6218 11.2349 29.4516L13.9882 27.2658C14.2677 27.0432 14.6747 27.0896 14.8972 27.3691C15.1197 27.6486 15.0736 28.0556 14.7941 28.2781L12.0409 30.464C11.9258 30.5521 11.7859 30.6016 11.6411 30.6059Z" fill="#606060"/>
<path d="M16.8577 23.4821C16.5013 23.4821 16.2129 23.1934 16.2129 22.8374V19.0588C16.2129 18.7028 16.5013 18.4141 16.8577 18.4141C17.2137 18.4141 17.5024 18.7028 17.5024 19.0588V22.8374C17.5024 23.0083 17.4345 23.1721 17.3136 23.2933C17.1924 23.4142 17.0286 23.4821 16.8577 23.4821Z" fill="#606060"/>
<path d="M19.4746 24.9403C19.2469 24.9403 19.0362 24.8203 18.9202 24.6243C18.7374 24.3198 18.8353 23.9248 19.1392 23.7412L22.3631 21.8069C22.6676 21.6241 23.0626 21.722 23.2465 22.0259C23.4293 22.3305 23.3311 22.7254 23.0271 22.9093L19.8033 24.8436C19.7045 24.905 19.5908 24.9383 19.4746 24.9403Z" fill="#606060"/>
<path d="M22.4154 30.6089C22.2781 30.6075 22.1448 30.5623 22.0352 30.48L18.9984 28.2232H18.9981C18.7134 28.0094 18.6556 27.6052 18.8691 27.3206C19.083 27.0356 19.4871 26.9777 19.7718 27.1916L22.8023 29.4547C22.9401 29.5563 23.032 29.7085 23.0573 29.8778C23.0826 30.0473 23.0397 30.2198 22.9378 30.3573C22.8132 30.5191 22.6195 30.6124 22.4154 30.6089Z" fill="#606060"/>
<path d="M16.8577 33.4443C16.5013 33.4443 16.2129 33.1556 16.2129 32.7996V29.0081C16.2129 28.652 16.5013 28.3633 16.8577 28.3633C17.2137 28.3633 17.5024 28.652 17.5024 29.0081V32.7996C17.5024 33.1556 17.2137 33.4443 16.8577 33.4443Z" fill="#606060"/>
<path d="M14.0457 25.2944C13.9616 25.2921 13.8787 25.2745 13.8007 25.2429L10.306 23.7792C9.9925 23.6318 9.85174 23.2631 9.98674 22.9442C10.122 22.6252 10.485 22.4701 10.8088 22.5927L14.3165 24.0564C14.5983 24.1764 14.7567 24.4781 14.6956 24.778C14.6349 25.0779 14.3712 25.2938 14.065 25.2944L14.0457 25.2944Z" fill="#606060"/>
<path d="M16.8574 29.6617C15.8672 29.6617 14.9176 29.2682 14.2176 28.5682C13.5172 27.8682 13.124 26.9185 13.124 25.9284C13.124 24.9382 13.5172 23.9889 14.2176 23.2886C14.9176 22.5885 15.8672 22.1953 16.8574 22.1953C17.8473 22.1953 18.7969 22.5885 19.4969 23.2886C20.1972 23.9889 20.5904 24.9382 20.5904 25.9284C20.5904 26.9185 20.1972 27.8682 19.4969 28.5682C18.7969 29.2682 17.8472 29.6617 16.8574 29.6617ZM16.8574 23.4849C16.2091 23.4849 15.5877 23.7422 15.1295 24.2004C14.6709 24.6587 14.4136 25.2804 14.4136 25.9284C14.4136 26.5766 14.6709 27.198 15.1295 27.6563C15.5877 28.1145 16.2091 28.3722 16.8574 28.3722C17.5053 28.3722 18.127 28.1145 18.5853 27.6563C19.0436 27.198 19.3009 26.5766 19.3009 25.9284C19.3009 25.2804 19.0436 24.6587 18.5853 24.2004C18.1271 23.7422 17.5053 23.4849 16.8574 23.4849Z" fill="#606060"/>
</svg>
