<svg width="48" height="48" viewBox="0 0 48 48" fill="none" xmlns="http://www.w3.org/2000/svg">
<path d="M39.7618 28.2322H26.6198C26.2635 28.2322 25.9746 27.9436 25.9746 27.5871V23.0709C25.9746 22.7147 26.2635 22.4258 26.6198 22.4258H39.7618C39.9329 22.4258 40.0968 22.4938 40.2181 22.6147C40.339 22.736 40.407 22.8999 40.407 23.0709V27.5871C40.407 27.7581 40.339 27.9223 40.2181 28.0433C40.0968 28.1642 39.9329 28.2322 39.7618 28.2322ZM27.2649 26.9419H39.1167V23.7161H27.2649V26.9419Z" fill="#606060"/>
<path d="M26.6194 36.5797H23.2516C22.8953 36.5797 22.6064 36.2908 22.6064 35.9345C22.6064 35.5783 22.8953 35.2894 23.2516 35.2894H25.9742V15.3802H23.2516C22.8953 15.3802 22.6064 15.0913 22.6064 14.735C22.6064 14.3784 22.8953 14.0898 23.2516 14.0898H26.6194C26.7905 14.0898 26.9547 14.1578 27.0756 14.2788C27.1966 14.3997 27.2646 14.5639 27.2646 14.735V35.9345C27.2646 36.1056 27.1966 36.2698 27.0756 36.3908C26.9547 36.5117 26.7905 36.5797 26.6194 36.5797Z" fill="#606060"/>
<path d="M20.9745 44.0017H9.92275C9.14738 44.0017 8.40401 43.6938 7.85596 43.1457C7.30786 42.5977 7 41.8543 7 41.0793V9.60215C7 8.82707 7.30789 8.0837 7.85596 7.53565C8.40406 6.98755 9.14746 6.67969 9.92275 6.67969H20.9745C21.7496 6.67969 22.493 6.98758 23.041 7.53565C23.5891 8.08371 23.897 8.82714 23.897 9.60215V41.0793C23.897 41.8543 23.5891 42.5977 23.041 43.1457C22.4929 43.6938 21.7495 44.0017 20.9745 44.0017ZM9.92275 7.96941C9.48986 7.96941 9.07454 8.14136 8.7684 8.44753C8.46224 8.75368 8.29029 9.16872 8.29029 9.60159V41.0787C8.29029 41.5116 8.46223 41.9266 8.7684 42.2327C9.07456 42.5389 9.48989 42.7109 9.92275 42.7109H20.9745C21.4074 42.7109 21.8224 42.5389 22.1286 42.2327C22.4347 41.9266 22.6067 41.5116 22.6067 41.0787V9.60159C22.6067 9.16869 22.4347 8.75366 22.1286 8.44753C21.8224 8.14139 21.4074 7.96941 20.9745 7.96941H9.92275Z" fill="#606060"/>
<path d="M20.5229 44.0014C20.3607 44.0026 20.204 43.9426 20.0842 43.8338L17.7294 41.6854V41.6852C17.5989 41.5679 17.522 41.4026 17.5162 41.2272C17.5171 41.0578 17.5842 40.8957 17.7034 40.7756L19.5874 38.8917L17.7294 37.2013C17.5989 37.084 17.522 36.9187 17.5163 36.7433C17.5082 36.563 17.5762 36.3873 17.7035 36.2595L19.5874 34.3755L17.7294 32.6851C17.599 32.5679 17.5221 32.4026 17.5163 32.2272C17.5082 32.0469 17.5762 31.8712 17.7035 31.7433L19.5875 29.8594L17.7295 28.169C17.601 28.0474 17.5284 27.8781 17.5284 27.7012C17.5284 27.5244 17.601 27.3553 17.7295 27.2335L19.6134 25.3562L17.7554 23.6658H17.7551C17.627 23.544 17.5544 23.3749 17.5544 23.1981C17.5544 23.0212 17.627 22.8522 17.7551 22.7303L19.6391 20.853L17.7811 19.1626C17.6521 19.0417 17.5757 18.8749 17.5682 18.6981C17.5636 18.5221 17.6313 18.3521 17.7552 18.2271L19.6391 16.3498L17.7811 14.6595C17.6521 14.5382 17.5758 14.3714 17.5683 14.1949C17.5637 14.0189 17.6314 13.8487 17.7552 13.724L19.6391 11.84L17.7812 10.1497C17.6507 10.0324 17.5741 9.86682 17.5683 9.69171C17.5637 9.51573 17.6314 9.34551 17.7552 9.2208L20.1167 6.85937C20.3681 6.60938 20.7745 6.60938 21.0262 6.85937C21.1484 6.98063 21.2172 7.14537 21.2172 7.31761C21.2172 7.48955 21.1484 7.6543 21.0262 7.77555L19.0971 9.65949L20.9551 11.3499H20.9554C21.0835 11.4714 21.1561 11.6408 21.1561 11.8176C21.1561 11.9945 21.0835 12.1635 20.9554 12.2854L19.0781 14.1627L20.9361 15.8531H20.9358C21.0677 15.972 21.1449 16.1399 21.1489 16.3176C21.1515 16.4945 21.0815 16.6647 20.9554 16.7885L19.0781 18.6658L20.936 20.3562H20.9357C21.0648 20.4772 21.1411 20.644 21.1489 20.8208C21.1515 20.9976 21.0815 21.1679 20.9553 21.2917L19.078 23.1756L20.936 24.8594H20.9357C21.0648 24.9806 21.1411 25.1474 21.1489 25.324C21.1514 25.5008 21.0815 25.671 20.9553 25.7949L19.097 27.6788L20.955 29.3692H20.9553C21.0855 29.4864 21.1624 29.652 21.1681 29.8271C21.1707 30.004 21.101 30.1745 20.9746 30.2981L19.0973 32.182L20.9553 33.8724C21.0855 33.9899 21.1624 34.1552 21.1681 34.3303C21.1707 34.5075 21.101 34.6777 20.9746 34.8015L19.0973 36.6855L20.9553 38.3758V38.3756C21.0854 38.4931 21.1623 38.6584 21.1681 38.8338C21.1727 39.0127 21.1024 39.1857 20.9746 39.311L19.0973 41.1883L20.9552 42.8787C21.1522 43.0579 21.2191 43.3396 21.1231 43.5881C21.0275 43.8367 20.789 44.0008 20.5229 44.0014Z" fill="#606060"/>
<path d="M16.6069 44.0028C16.447 44.0025 16.2929 43.9426 16.1746 43.8352L13.8327 41.6865C13.7048 41.5682 13.6302 41.4028 13.6262 41.2286C13.6219 41.0526 13.6892 40.8824 13.8134 40.7577L15.6907 38.8737L13.8327 37.1834C13.7048 37.065 13.6302 36.8997 13.6262 36.7254C13.6219 36.5494 13.6893 36.3792 13.8134 36.2545L15.6907 34.3706L13.8327 32.6802C13.7048 32.5618 13.6302 32.3965 13.6262 32.2222C13.6219 32.0463 13.6893 31.876 13.8134 31.751L15.6907 29.8671L13.8327 28.177C13.7031 28.0569 13.6285 27.889 13.6262 27.7124C13.6219 27.5365 13.6893 27.3662 13.8135 27.2415L15.6908 25.3642L13.8328 23.6738C13.7032 23.5537 13.6286 23.3858 13.6263 23.2093C13.6219 23.0333 13.6893 22.8631 13.8135 22.7384L15.6908 20.8611L13.8328 19.1704C13.7046 19.0488 13.632 18.8795 13.632 18.7026C13.632 18.5258 13.7046 18.3567 13.8328 18.2349L15.7101 16.3576L13.8328 14.6672C13.7046 14.5454 13.632 14.3763 13.632 14.1994C13.632 14.0226 13.7046 13.8535 13.8328 13.7317L15.7101 11.8478L13.8328 10.1577C13.7049 10.039 13.6303 9.87369 13.6263 9.69944C13.622 9.52346 13.6894 9.35353 13.8135 9.22853L16.1746 6.8674C16.4264 6.61712 16.8328 6.61712 17.0845 6.8674C17.2066 6.98837 17.2752 7.1534 17.2752 7.32535C17.2752 7.49729 17.2066 7.66232 17.0845 7.78329L15.2006 9.66089L17.0652 11.3513H17.0649C17.1945 11.4711 17.2691 11.639 17.2714 11.8156C17.276 11.9915 17.2083 12.1618 17.0845 12.2868L15.2005 14.1641L17.0651 15.8544H17.0649C17.1945 15.9745 17.2691 16.1425 17.2714 16.319C17.276 16.4947 17.2083 16.6649 17.0844 16.7899L15.2005 18.6672L17.0651 20.3576H17.0648C17.1933 20.4794 17.2659 20.6485 17.2659 20.8254C17.2659 21.0022 17.1933 21.1713 17.0648 21.2931L15.1809 23.177L17.0455 24.8608C17.1737 24.9826 17.2463 25.1517 17.2463 25.3285C17.2463 25.5054 17.1737 25.6744 17.0455 25.7963L15.2005 27.6802L17.0651 29.3706H17.0648C17.1812 29.4875 17.248 29.6445 17.2521 29.8093C17.2567 29.9852 17.189 30.1555 17.0648 30.2802L15.1809 32.1641L17.0455 33.8545C17.1766 33.976 17.2515 34.1465 17.252 34.3254C17.2566 34.5014 17.189 34.6716 17.0648 34.7963L15.1809 36.6802L17.0455 38.3706C17.1765 38.4922 17.2514 38.6627 17.252 38.8415C17.2583 39.0198 17.1907 39.1926 17.0648 39.3191L15.1809 41.1964L17.0455 42.8868C17.3067 43.1275 17.324 43.5342 17.0844 43.7963C16.9611 43.9291 16.7881 44.0039 16.6069 44.0028Z" fill="#606060"/>
<path d="M12.736 44.001C12.5762 44.0008 12.4221 43.9409 12.3037 43.8334L9.94256 41.6851V41.6848C9.81209 41.5676 9.73547 41.4023 9.72971 41.2269C9.7251 41.0509 9.79279 40.8807 9.91664 40.7559L11.8006 38.872L9.94259 37.1816C9.81212 37.0644 9.73551 36.8988 9.72975 36.7237C9.72514 36.5477 9.79283 36.3775 9.91668 36.2528L11.8006 34.3688L9.94263 32.6784C9.81216 32.5609 9.73554 32.3956 9.72979 32.2205C9.72518 32.0445 9.79286 31.8743 9.91671 31.7493L11.8006 29.8654L9.94267 28.175V28.1753C9.8145 28.0534 9.74192 27.8844 9.74192 27.7075C9.74192 27.5307 9.8145 27.3616 9.94267 27.2398L11.8266 25.3625L9.96862 23.6721H9.96833C9.84016 23.5503 9.76758 23.3812 9.76758 23.2043C9.76758 23.0275 9.84016 22.8581 9.96833 22.7366L11.8523 20.8593L9.99429 19.1689V19.1686C9.86554 19.0477 9.78893 18.8809 9.78144 18.7043C9.77683 18.5284 9.84452 18.3581 9.96837 18.2331L11.8523 16.3558L9.99432 14.6654C9.86558 14.5445 9.78896 14.3777 9.78148 14.2009C9.77687 14.0252 9.84456 13.855 9.96841 13.73L11.8523 11.846L9.99436 10.1556V10.1559C9.86418 10.0384 9.78728 9.8731 9.78152 9.6977C9.77691 9.52172 9.84459 9.35179 9.96844 9.22679L12.3296 6.86566H12.3299C12.5827 6.61249 12.9929 6.61249 13.2461 6.86566C13.4989 7.11854 13.4989 7.52867 13.2461 7.78156L11.3106 9.65916L13.1686 11.3495C13.3005 11.4685 13.3774 11.6364 13.3814 11.8138C13.3823 11.9892 13.3152 12.158 13.1942 12.285L11.3103 14.1623L13.1682 15.8527H13.1685C13.2967 15.9745 13.3693 16.1436 13.3693 16.3205C13.3693 16.4973 13.2967 16.6664 13.1685 16.7882L11.2846 18.6655L13.1426 20.3559C13.2716 20.4769 13.3479 20.6436 13.3554 20.8205C13.36 20.9964 13.2923 21.1664 13.1685 21.2914L11.2846 23.1753L13.1425 24.8591C13.2716 24.9803 13.3479 25.1471 13.3554 25.3236C13.36 25.4996 13.2923 25.6698 13.1685 25.7945L11.3105 27.6785L13.1685 29.3689C13.2946 29.4904 13.3658 29.658 13.3658 29.8334C13.3658 30.0086 13.2946 30.1762 13.1685 30.2977L11.2845 32.1817L13.1425 33.8721C13.2687 33.9936 13.3401 34.1612 13.3401 34.3366C13.3401 34.5117 13.2687 34.6794 13.1425 34.8012L11.2586 36.6851L13.1166 38.3755L13.1168 38.3752C13.2681 38.4847 13.3642 38.654 13.3812 38.8398C13.3833 39.0172 13.3161 39.1883 13.194 39.3174L11.3101 41.1947L13.1681 42.885H13.1684C13.3605 43.0648 13.4241 43.3436 13.3291 43.589C13.234 43.8346 12.9993 43.9976 12.736 44.001Z" fill="#606060"/>
<path d="M33.6391 23.7286C33.2829 23.7286 32.994 23.4397 32.994 23.0834V5.29032H31.4456V23.0834C31.4456 23.4397 31.1567 23.7286 30.8004 23.7286C30.4442 23.7286 30.1553 23.4397 30.1553 23.0834V4.64516C30.1553 4.28888 30.4442 4 30.8004 4H33.6391C33.8102 4 33.9744 4.06797 34.0953 4.18894C34.2163 4.30991 34.2843 4.47408 34.2843 4.64516V23.0834C34.2843 23.2545 34.2163 23.4187 34.0953 23.5396C33.9744 23.6606 33.8102 23.7286 33.6391 23.7286Z" fill="#606060"/>
<path d="M29.1223 9.5122C28.8057 9.51133 28.5361 9.28092 28.4866 8.96813C28.4368 8.65534 28.6214 8.35292 28.9224 8.25414L35.1096 6.2478L35.1093 6.24752C35.4428 6.15247 35.7922 6.33796 35.8996 6.66773C36.0073 6.99751 35.8348 7.3535 35.5093 7.47333L29.3222 9.47996C29.2574 9.49983 29.1902 9.51076 29.1223 9.5122Z" fill="#606060"/>
<path d="M29.1223 12.2269C28.8057 12.2263 28.5361 11.9959 28.4866 11.6831C28.4368 11.3703 28.6214 11.0676 28.9224 10.9688L35.1096 8.96246H35.1093C35.4428 8.86713 35.7922 9.0529 35.8996 9.38268C36.0073 9.71246 35.8348 10.0682 35.5093 10.1883L29.3222 12.1946C29.2574 12.2148 29.1902 12.2254 29.1223 12.2269Z" fill="#606060"/>
<path d="M29.123 14.9654C28.7667 15.0207 28.4332 14.7765 28.3779 14.4202C28.3227 14.0639 28.5666 13.7304 28.9231 13.6751L35.1103 11.6688H35.11C35.2745 11.608 35.4565 11.617 35.6144 11.6936C35.7722 11.7699 35.892 11.9073 35.9464 12.0741C36.0009 12.2405 35.985 12.4223 35.9027 12.5769C35.8203 12.7319 35.6786 12.8465 35.5101 12.8946L29.3229 14.901C29.2598 14.9321 29.1924 14.9539 29.123 14.9654Z" fill="#606060"/>
<path d="M29.123 17.6563C28.7667 17.7116 28.4332 17.4674 28.3779 17.1111C28.3227 16.7548 28.5666 16.4213 28.9231 16.366L35.1103 14.3597L35.11 14.3594C35.4557 14.2491 35.8255 14.4398 35.9358 14.7854C36.0464 15.131 35.8557 15.5005 35.5101 15.6111L29.3229 17.6174C29.2584 17.6399 29.1912 17.6529 29.123 17.6563Z" fill="#606060"/>
<path d="M29.1223 20.3753C28.8057 20.3747 28.5361 20.1443 28.4866 19.8315C28.4368 19.5187 28.6214 19.216 28.9224 19.1172L35.1096 17.1109H35.1093C35.4428 17.0156 35.7922 17.2013 35.8996 17.5311C36.0073 17.8609 35.8348 18.2169 35.5093 18.3367L29.3222 20.3431C29.2574 20.3632 29.1902 20.3741 29.1223 20.3753Z" fill="#606060"/>
</svg>
