<svg width="48" height="48" viewBox="0 0 48 48" fill="none" xmlns="http://www.w3.org/2000/svg">
<path d="M24.3429 10.9546C20.4637 10.9556 16.7917 12.7056 14.3476 15.7184C11.9039 18.7312 10.9487 22.6854 11.7483 26.4815C11.7522 26.5102 11.7583 26.5383 11.7661 26.5657C12.2761 28.8996 13.4263 31.0451 15.0872 32.7621C15.1234 32.8115 15.1663 32.8554 15.215 32.8925C18.2466 35.9441 22.6027 37.2789 26.8235 36.4499C31.0446 35.6209 34.572 32.7375 36.2246 28.7663C37.8771 24.7947 37.4358 20.2601 35.0489 16.6818C32.6617 13.1034 28.6446 10.9544 24.3429 10.9548L24.3429 10.9546ZM27.994 31.4973C27.9933 31.8931 27.6724 32.214 27.2767 32.2146H22.9387C22.8315 32.2146 22.7253 32.1901 22.6288 32.1429H22.6243C22.3241 31.9964 22.1649 31.6623 22.2402 31.3372C22.3154 31.0118 22.6049 30.7816 22.9387 30.7816H27.278C27.6725 30.7832 27.992 31.1025 27.994 31.4973ZM28.4013 29.5178H23.2448C22.7066 29.5236 22.2556 29.1117 22.2134 28.5749C22.1708 28.0384 22.5514 27.5607 23.0837 27.4816H28.5641C29.097 27.5607 29.4777 28.0391 29.4347 28.5759C29.3917 29.1131 28.9398 29.5249 28.401 29.5178H28.4013ZM28.709 26.2207H28.6535C28.5695 26.2116 28.4853 26.2068 28.401 26.2068H23.2467C23.1624 26.2068 23.0782 26.2116 22.9942 26.2207H22.9387C22.6776 26.2207 22.4367 26.0789 22.3105 25.8504L22.3066 25.8433C22.1872 25.6212 22.1933 25.3526 22.3228 25.136C22.4519 24.9194 22.6856 24.7867 22.9381 24.7864H28.709C29.1051 24.7864 29.4263 25.1076 29.4263 25.5037C29.4263 25.8998 29.1051 26.221 28.709 26.221L28.709 26.2207ZM27.5265 23.5239H23.05C22.5997 23.5132 22.2401 23.1452 22.2401 22.6949C22.2401 22.2446 22.5997 21.8766 23.05 21.8659H27.5252H27.5248C27.9752 21.8766 28.3348 22.2446 28.3348 22.6949C28.3348 23.1452 27.9752 23.5132 27.5248 23.5239H27.5265ZM24.0834 18.1587C23.8923 18.7714 23.6017 19.6798 23.306 20.6037H23.0507C22.5045 20.6034 21.9796 20.8171 21.589 21.199C21.198 21.5805 20.9724 22.1002 20.9604 22.6465C20.9482 23.1927 21.1503 23.7221 21.5238 24.1211C21.2768 24.3729 21.1018 24.6867 21.0173 25.0292C20.9324 25.3717 20.9411 25.7306 21.0424 26.0689C20.3494 26.8631 19.3686 27.3482 18.317 27.417C17.9758 27.4354 17.7114 27.722 17.7201 28.0636C17.7291 28.4051 18.008 28.6779 18.3499 28.6785H18.3841C19.3597 28.6201 20.299 28.2882 21.0948 27.7204C20.9518 28.1171 20.9214 28.5458 21.0073 28.9587C21.0932 29.3715 21.292 29.7525 21.5816 30.0594C21.2975 30.3264 21.099 30.6712 21.0105 31.0511C20.9224 31.4307 20.9486 31.8278 21.0857 32.1925C20.556 32.2297 20.0214 32.2552 19.4872 32.2513L19.4875 32.2516C18.5668 32.2461 17.6484 32.1612 16.7426 31.9976C16.4588 31.9443 16.1906 31.8836 15.9356 31.8232V31.8229C14.4726 30.2873 13.4589 28.3801 13.0047 26.3083V24.9609C13.6707 24.9428 14.3351 24.8879 14.9945 24.7956C15.6347 24.7356 16.228 24.4347 16.6548 23.9537C16.8368 23.7293 17.0018 23.4917 17.1484 23.2428C17.2681 23.0433 17.3979 22.85 17.5377 22.664C17.8715 22.2744 18.2575 21.9332 18.6853 21.6504C18.7779 21.5832 18.8735 21.5148 18.9713 21.4447V21.4451C19.4865 21.0922 19.9785 20.7074 20.4443 20.292C21.0767 19.7119 21.6029 19.0256 21.9992 18.2647C22.3669 17.5307 22.671 16.7666 22.9083 15.9808C22.9315 15.9092 22.9519 15.842 22.9709 15.7833C23.0171 15.6348 23.0635 15.483 23.0981 15.4014C23.132 15.4062 23.1652 15.4146 23.1975 15.4265C23.4935 15.5583 23.7511 15.7632 23.9458 16.0225C24.155 16.2962 24.2893 16.6193 24.3358 16.9606C24.3319 17.3728 24.246 17.7799 24.0833 18.1589L24.0834 18.1587ZM24.3429 35.4346C22.0148 35.4372 19.7399 34.736 17.8176 33.4225C18.366 33.478 18.9283 33.51 19.4785 33.5151H19.584C20.5051 33.5151 21.404 33.4406 22.2759 33.3644L22.2763 33.3641C22.4887 33.4396 22.7124 33.478 22.938 33.478H27.2756C27.9487 33.4783 28.5759 33.1365 28.9401 32.5706C29.3046 32.0044 29.3559 31.2919 29.0766 30.6796C29.8288 30.4472 30.4082 29.8442 30.6104 29.0836C30.8128 28.3231 30.6094 27.5121 30.0722 26.9369C30.5681 26.4653 30.785 25.7709 30.6456 25.1007C30.5061 24.4305 30.0303 23.8801 29.3872 23.6455C29.7181 22.9976 29.6884 22.2242 29.3081 21.6034C28.9281 20.9829 28.2528 20.6049 27.5249 20.6053H24.6312C24.8833 19.8186 25.1222 19.0674 25.2884 18.536C25.5112 17.9963 25.6141 17.4146 25.5902 16.8312C25.5202 16.2586 25.2978 15.7153 24.9462 15.2575C24.6053 14.8075 24.1498 14.457 23.6275 14.2426C23.4042 14.1455 23.1585 14.1119 22.9173 14.1451C22.6762 14.1781 22.4489 14.2772 22.2604 14.4311C22.0044 14.7004 21.8324 15.0377 21.7646 15.4028C21.7462 15.4622 21.7258 15.5258 21.7036 15.5959C21.4854 16.3112 21.2103 17.0075 20.8804 17.6783C20.5498 18.3117 20.1111 18.8824 19.5846 19.365C19.1572 19.7437 18.7066 20.0952 18.2349 20.4173C18.1345 20.489 18.0364 20.559 17.9415 20.6278C17.4179 20.9784 16.9466 21.4016 16.5417 21.8845C16.3742 22.1066 16.2189 22.3374 16.0766 22.576C15.9629 22.7697 15.8364 22.9553 15.6969 23.1315C15.4606 23.3869 15.1323 23.5383 14.7843 23.5515C14.1316 23.6387 13.4743 23.69 12.8158 23.7052L12.7355 23.7084H12.7351C12.7665 20.6365 14.0138 17.7025 16.2044 15.5487C18.3947 13.3949 21.3497 12.1972 24.4216 12.2179C27.4935 12.2385 30.432 13.4763 32.5933 15.6594C34.7542 17.8426 35.9622 20.7935 35.9516 23.8653C35.9412 26.9376 34.7136 29.88 32.5375 32.0486C30.3618 34.2169 27.4148 35.4346 24.3429 35.4346ZM43.5212 23.8253C43.5858 23.1684 43.7698 22.5289 44.0635 21.9382C44.4487 20.9998 44.847 20.0297 44.6188 19.0519C44.3873 18.0624 43.5939 17.3859 42.8268 16.7286C42.3297 16.3648 41.9045 15.9113 41.5733 15.3915C41.3645 14.8078 41.2686 14.1897 41.2905 13.5699C41.2508 12.585 41.2092 11.5665 40.5936 10.7995C39.978 10.0328 38.9928 9.77263 38.0404 9.52182V9.52214C37.4364 9.41142 36.8589 9.18706 36.3392 8.86037C35.9082 8.42458 35.5638 7.911 35.3243 7.34707C34.8678 6.46769 34.3959 5.55576 33.5033 5.11769C32.6107 4.67995 31.6016 4.86137 30.6219 5.0344C30.0082 5.19129 29.3703 5.23164 28.7415 5.15352C28.1495 4.9466 27.5994 4.63508 27.1178 4.23349C26.2717 3.62725 25.3985 3 24.3429 3C23.2873 3 22.4141 3.62658 21.5693 4.23283C21.088 4.63441 20.5382 4.94624 19.9465 5.15352C19.3177 5.23228 18.6795 5.19258 18.0651 5.03633C17.0854 4.8633 16.0724 4.68415 15.1837 5.11962C14.295 5.55509 13.8188 6.46831 13.3628 7.349C13.1232 7.91295 12.7788 8.42655 12.3482 8.86206C11.8281 9.18874 11.251 9.41343 10.647 9.52383C9.69469 9.77465 8.70979 10.0329 8.09379 10.8015C7.47786 11.5701 7.43654 12.587 7.39651 13.5719H7.39619C7.41846 14.1913 7.32259 14.8096 7.11404 15.3928C6.78284 15.9129 6.3577 16.3664 5.86023 16.7303C5.09097 17.3843 4.30007 18.0622 4.06826 19.0517C3.8368 20.0294 4.2371 20.9995 4.6235 21.9379V21.9383C4.91694 22.5293 5.1003 23.1689 5.16454 23.8254C5.09998 24.4824 4.91598 25.1219 4.62221 25.7126C4.2371 26.6507 3.83875 27.6211 4.06697 28.5989C4.29843 29.5883 5.09188 30.2649 5.85894 30.9222C6.35607 31.286 6.7812 31.7395 7.11243 32.2593C7.32128 32.8429 7.41716 33.4608 7.39489 34.0802C7.43524 35.0655 7.47688 36.0839 8.09217 36.8509C8.70777 37.6176 9.69299 37.8778 10.6453 38.1286C11.2493 38.239 11.8268 38.4637 12.3466 38.7904C12.7775 39.2262 13.122 39.7397 13.3615 40.3037C13.8179 41.1831 14.2898 42.095 15.1824 42.5331C16.075 42.9708 17.0842 42.7894 18.0639 42.616V42.6157C18.6778 42.4595 19.3154 42.4194 19.9442 42.4972C20.5363 42.7042 21.0863 43.0157 21.568 43.4173C22.414 44.0235 23.2873 44.6508 24.3428 44.6508C25.3984 44.6508 26.2717 44.0242 27.1164 43.4179C27.5977 43.016 28.1475 42.7042 28.7392 42.4972C29.3681 42.4191 30.0056 42.4591 30.6196 42.6157C31.5993 42.7894 32.6123 42.9682 33.501 42.5324C34.3897 42.0966 34.8659 41.1844 35.322 40.3037C35.5615 39.7398 35.906 39.2262 36.3369 38.7904C36.8566 38.4637 37.4338 38.239 38.0381 38.1286C38.9904 37.8778 39.9753 37.6196 40.5913 36.8509C41.2072 36.0823 41.2485 35.0655 41.2883 34.0803C41.2663 33.4608 41.3622 32.8429 41.571 32.2593C41.9019 31.7396 42.3274 31.286 42.8245 30.9222C43.5912 30.2665 44.3847 29.5883 44.6165 28.5989C44.8479 27.6211 44.4477 26.6507 44.0613 25.7126C43.7681 25.1216 43.5851 24.482 43.5212 23.8254L43.5212 23.8253ZM42.8959 26.1919C43.22 26.9809 43.5264 27.7259 43.3888 28.3105C43.2513 28.8952 42.6461 29.4149 42.0056 29.9627C41.3716 30.4321 40.839 31.0241 40.439 31.7039C40.144 32.4425 40.0045 33.2337 40.0284 34.0288C39.9945 34.8462 39.9632 35.618 39.6078 36.0609C39.2523 36.5038 38.507 36.7004 37.7174 36.9083C36.94 37.0546 36.2014 37.3603 35.5477 37.8061C34.9725 38.3458 34.5147 38.9986 34.2026 39.7229C33.8236 40.4541 33.4653 41.1449 32.9462 41.3996C32.4272 41.654 31.6569 41.5177 30.8406 41.3731C30.0597 41.1784 29.2475 41.1429 28.4524 41.2685C27.6954 41.5055 26.9914 41.887 26.3793 42.3919C25.6653 42.9042 24.9909 43.3885 24.343 43.3885C23.6951 43.3885 23.0194 42.9043 22.3066 42.3919C21.6949 41.887 20.9915 41.5058 20.2349 41.2685C19.9766 41.2101 19.7129 41.1817 19.4482 41.1839C18.91 41.2007 18.3745 41.264 17.8473 41.3731C17.0309 41.5174 16.2601 41.654 15.7417 41.3996C15.2232 41.1452 14.8623 40.4541 14.4853 39.7229C14.1731 38.9985 13.7151 38.3458 13.1398 37.8061C12.4858 37.3603 11.7466 37.0546 10.9686 36.9083C10.179 36.7005 9.43367 36.5039 9.07824 36.061C8.72282 35.618 8.6915 34.8462 8.65761 34.0288C8.6815 33.2337 8.54205 32.4426 8.24699 31.7039C7.84703 31.0241 7.3144 30.432 6.68038 29.9627C6.03992 29.4149 5.43467 28.8984 5.29715 28.3105C5.15963 27.7227 5.46599 26.9809 5.79009 26.1919C6.15292 25.4517 6.36921 24.6479 6.42699 23.8253C6.36921 23.0028 6.15292 22.199 5.79009 21.4588C5.46598 20.6698 5.16028 19.9248 5.29715 19.3401C5.43402 18.7555 6.03768 18.2358 6.68038 17.688C7.31439 17.2186 7.84701 16.6266 8.24699 15.9468C8.54204 15.2082 8.6815 14.4169 8.65761 13.6218C8.69151 12.8045 8.72282 12.0327 9.07824 11.5897C9.43365 11.1468 10.1793 10.9502 10.9686 10.7423C11.746 10.5961 12.4846 10.2904 13.1383 9.84462C13.7142 9.30488 14.1729 8.65245 14.4857 7.92778C14.8647 7.1966 15.223 6.50579 15.7421 6.25109C16.2612 5.99672 17.0314 6.13294 17.8478 6.27757C18.629 6.47222 19.4411 6.50773 20.2362 6.38215C20.9926 6.14456 21.6956 5.76332 22.3068 5.25874C23.0208 4.74644 23.6952 4.26219 24.3431 4.26219C24.991 4.26219 25.6667 4.74641 26.3794 5.25874C26.9912 5.76363 27.6946 6.14489 28.4512 6.38215C29.2463 6.50773 30.0582 6.47222 30.8391 6.27757C31.6555 6.13327 32.4264 5.99672 32.9448 6.25109C33.4632 6.50547 33.8242 7.19658 34.2012 7.92778H34.2015C34.5133 8.65217 34.9714 9.30489 35.5466 9.84462C36.2006 10.2904 36.9395 10.5961 37.7176 10.7423C38.5072 10.9502 39.2522 11.1468 39.608 11.5897C39.9637 12.0326 39.9947 12.8045 40.0286 13.6218C40.0047 14.4169 40.1441 15.2081 40.4392 15.9468C40.8392 16.6266 41.3718 17.2187 42.0058 17.688C42.6463 18.2358 43.2515 18.7523 43.389 19.3401C43.5266 19.928 43.2202 20.6698 42.8961 21.4588C42.5333 22.199 42.317 23.0028 42.2592 23.8253C42.317 24.6479 42.5333 25.4517 42.8961 26.1919L42.8959 26.1919Z" fill="#606060"/>
<path d="M24.3429 10.9546C20.4637 10.9556 16.7917 12.7056 14.3476 15.7184C11.9039 18.7312 10.9487 22.6854 11.7483 26.4815C11.7522 26.5102 11.7583 26.5383 11.7661 26.5657C12.2761 28.8996 13.4263 31.0451 15.0872 32.7621C15.1234 32.8115 15.1663 32.8554 15.215 32.8925C18.2466 35.9441 22.6027 37.2789 26.8235 36.4499C31.0446 35.6209 34.572 32.7375 36.2246 28.7663C37.8771 24.7947 37.4358 20.2601 35.0489 16.6818C32.6617 13.1034 28.6446 10.9544 24.3429 10.9548L24.3429 10.9546ZM27.994 31.4973C27.9933 31.8931 27.6724 32.214 27.2767 32.2146H22.9387C22.8315 32.2146 22.7253 32.1901 22.6288 32.1429H22.6243C22.3241 31.9964 22.1649 31.6623 22.2402 31.3372C22.3154 31.0118 22.6049 30.7816 22.9387 30.7816H27.278C27.6725 30.7832 27.992 31.1025 27.994 31.4973ZM28.4013 29.5178H23.2448C22.7066 29.5236 22.2556 29.1117 22.2134 28.5749C22.1708 28.0384 22.5514 27.5607 23.0837 27.4816H28.5641C29.097 27.5607 29.4777 28.0391 29.4347 28.5759C29.3917 29.1131 28.9398 29.5249 28.401 29.5178H28.4013ZM28.709 26.2207H28.6535C28.5695 26.2116 28.4853 26.2068 28.401 26.2068H23.2467C23.1624 26.2068 23.0782 26.2116 22.9942 26.2207H22.9387C22.6776 26.2207 22.4367 26.0789 22.3105 25.8504L22.3066 25.8433C22.1872 25.6212 22.1933 25.3526 22.3228 25.136C22.4519 24.9194 22.6856 24.7867 22.9381 24.7864H28.709C29.1051 24.7864 29.4263 25.1076 29.4263 25.5037C29.4263 25.8998 29.1051 26.221 28.709 26.221L28.709 26.2207ZM27.5265 23.5239H23.05C22.5997 23.5132 22.2401 23.1452 22.2401 22.6949C22.2401 22.2446 22.5997 21.8766 23.05 21.8659H27.5252H27.5248C27.9752 21.8766 28.3348 22.2446 28.3348 22.6949C28.3348 23.1452 27.9752 23.5132 27.5248 23.5239H27.5265ZM24.0834 18.1587C23.8923 18.7714 23.6017 19.6798 23.306 20.6037H23.0507C22.5045 20.6034 21.9796 20.8171 21.589 21.199C21.198 21.5805 20.9724 22.1002 20.9604 22.6465C20.9482 23.1927 21.1503 23.7221 21.5238 24.1211C21.2768 24.3729 21.1018 24.6867 21.0173 25.0292C20.9324 25.3717 20.9411 25.7306 21.0424 26.0689C20.3494 26.8631 19.3686 27.3482 18.317 27.417C17.9758 27.4354 17.7114 27.722 17.7201 28.0636C17.7291 28.4051 18.008 28.6779 18.3499 28.6785H18.3841C19.3597 28.6201 20.299 28.2882 21.0948 27.7204C20.9518 28.1171 20.9214 28.5458 21.0073 28.9587C21.0932 29.3715 21.292 29.7525 21.5816 30.0594C21.2975 30.3264 21.099 30.6712 21.0105 31.0511C20.9224 31.4307 20.9486 31.8278 21.0857 32.1925C20.556 32.2297 20.0214 32.2552 19.4872 32.2513L19.4875 32.2516C18.5668 32.2461 17.6484 32.1612 16.7426 31.9976C16.4588 31.9443 16.1906 31.8836 15.9356 31.8232V31.8229C14.4726 30.2873 13.4589 28.3801 13.0047 26.3083V24.9609C13.6707 24.9428 14.3351 24.8879 14.9945 24.7956C15.6347 24.7356 16.228 24.4347 16.6548 23.9537C16.8368 23.7293 17.0018 23.4917 17.1484 23.2428C17.2681 23.0433 17.3979 22.85 17.5377 22.664C17.8715 22.2744 18.2575 21.9332 18.6853 21.6504C18.7779 21.5832 18.8735 21.5148 18.9713 21.4447V21.4451C19.4865 21.0922 19.9785 20.7074 20.4443 20.292C21.0767 19.7119 21.6029 19.0256 21.9992 18.2647C22.3669 17.5307 22.671 16.7666 22.9083 15.9808C22.9315 15.9092 22.9519 15.842 22.9709 15.7833C23.0171 15.6348 23.0635 15.483 23.0981 15.4014C23.132 15.4062 23.1652 15.4146 23.1975 15.4265C23.4935 15.5583 23.7511 15.7632 23.9458 16.0225C24.155 16.2962 24.2893 16.6193 24.3358 16.9606C24.3319 17.3728 24.246 17.7799 24.0833 18.1589L24.0834 18.1587ZM24.3429 35.4346C22.0148 35.4372 19.7399 34.736 17.8176 33.4225C18.366 33.478 18.9283 33.51 19.4785 33.5151H19.584C20.5051 33.5151 21.404 33.4406 22.2759 33.3644L22.2763 33.3641C22.4887 33.4396 22.7124 33.478 22.938 33.478H27.2756C27.9487 33.4783 28.5759 33.1365 28.9401 32.5706C29.3046 32.0044 29.3559 31.2919 29.0766 30.6796C29.8288 30.4472 30.4082 29.8442 30.6104 29.0836C30.8128 28.3231 30.6094 27.5121 30.0722 26.9369C30.5681 26.4653 30.785 25.7709 30.6456 25.1007C30.5061 24.4305 30.0303 23.8801 29.3872 23.6455C29.7181 22.9976 29.6884 22.2242 29.3081 21.6034C28.9281 20.9829 28.2528 20.6049 27.5249 20.6053H24.6312C24.8833 19.8186 25.1222 19.0674 25.2884 18.536C25.5112 17.9963 25.6141 17.4146 25.5902 16.8312C25.5202 16.2586 25.2978 15.7153 24.9462 15.2575C24.6053 14.8075 24.1498 14.457 23.6275 14.2426C23.4042 14.1455 23.1585 14.1119 22.9173 14.1451C22.6762 14.1781 22.4489 14.2772 22.2604 14.4311C22.0044 14.7004 21.8324 15.0377 21.7646 15.4028C21.7462 15.4622 21.7258 15.5258 21.7036 15.5959C21.4854 16.3112 21.2103 17.0075 20.8804 17.6783C20.5498 18.3117 20.1111 18.8824 19.5846 19.365C19.1572 19.7437 18.7066 20.0952 18.2349 20.4173C18.1345 20.489 18.0364 20.559 17.9415 20.6278C17.4179 20.9784 16.9466 21.4016 16.5417 21.8845C16.3742 22.1066 16.2189 22.3374 16.0766 22.576C15.9629 22.7697 15.8364 22.9553 15.6969 23.1315C15.4606 23.3869 15.1323 23.5383 14.7843 23.5515C14.1316 23.6387 13.4743 23.69 12.8158 23.7052L12.7355 23.7084H12.7351C12.7665 20.6365 14.0138 17.7025 16.2044 15.5487C18.3947 13.3949 21.3497 12.1972 24.4216 12.2179C27.4935 12.2385 30.432 13.4763 32.5933 15.6594C34.7542 17.8426 35.9622 20.7935 35.9516 23.8653C35.9412 26.9376 34.7136 29.88 32.5375 32.0486C30.3618 34.2169 27.4148 35.4346 24.3429 35.4346ZM43.5212 23.8253C43.5858 23.1684 43.7698 22.5289 44.0635 21.9382C44.4487 20.9998 44.847 20.0297 44.6188 19.0519C44.3873 18.0624 43.5939 17.3859 42.8268 16.7286C42.3297 16.3648 41.9045 15.9113 41.5733 15.3915C41.3645 14.8078 41.2686 14.1897 41.2905 13.5699C41.2508 12.585 41.2092 11.5665 40.5936 10.7995C39.978 10.0328 38.9928 9.77263 38.0404 9.52182V9.52214C37.4364 9.41142 36.8589 9.18706 36.3392 8.86037C35.9082 8.42458 35.5638 7.911 35.3243 7.34707C34.8678 6.46769 34.3959 5.55576 33.5033 5.11769C32.6107 4.67995 31.6016 4.86137 30.6219 5.0344C30.0082 5.19129 29.3703 5.23164 28.7415 5.15352C28.1495 4.9466 27.5994 4.63508 27.1178 4.23349C26.2717 3.62725 25.3985 3 24.3429 3C23.2873 3 22.4141 3.62658 21.5693 4.23283C21.088 4.63441 20.5382 4.94624 19.9465 5.15352C19.3177 5.23228 18.6795 5.19258 18.0651 5.03633C17.0854 4.8633 16.0724 4.68415 15.1837 5.11962C14.295 5.55509 13.8188 6.46831 13.3628 7.349C13.1232 7.91295 12.7788 8.42655 12.3482 8.86206C11.8281 9.18874 11.251 9.41343 10.647 9.52383C9.69469 9.77465 8.70979 10.0329 8.09379 10.8015C7.47786 11.5701 7.43654 12.587 7.39651 13.5719H7.39619C7.41846 14.1913 7.32259 14.8096 7.11404 15.3928C6.78284 15.9129 6.3577 16.3664 5.86023 16.7303C5.09097 17.3843 4.30007 18.0622 4.06826 19.0517C3.8368 20.0294 4.2371 20.9995 4.6235 21.9379V21.9383C4.91694 22.5293 5.1003 23.1689 5.16454 23.8254C5.09998 24.4824 4.91598 25.1219 4.62221 25.7126C4.2371 26.6507 3.83875 27.6211 4.06697 28.5989C4.29843 29.5883 5.09188 30.2649 5.85894 30.9222C6.35607 31.286 6.7812 31.7395 7.11243 32.2593C7.32128 32.8429 7.41716 33.4608 7.39489 34.0802C7.43524 35.0655 7.47688 36.0839 8.09217 36.8509C8.70777 37.6176 9.69299 37.8778 10.6453 38.1286C11.2493 38.239 11.8268 38.4637 12.3466 38.7904C12.7775 39.2262 13.122 39.7397 13.3615 40.3037C13.8179 41.1831 14.2898 42.095 15.1824 42.5331C16.075 42.9708 17.0842 42.7894 18.0639 42.616V42.6157C18.6778 42.4595 19.3154 42.4194 19.9442 42.4972C20.5363 42.7042 21.0863 43.0157 21.568 43.4173C22.414 44.0235 23.2873 44.6508 24.3428 44.6508C25.3984 44.6508 26.2717 44.0242 27.1164 43.4179C27.5977 43.016 28.1475 42.7042 28.7392 42.4972C29.3681 42.4191 30.0056 42.4591 30.6196 42.6157C31.5993 42.7894 32.6123 42.9682 33.501 42.5324C34.3897 42.0966 34.8659 41.1844 35.322 40.3037C35.5615 39.7398 35.906 39.2262 36.3369 38.7904C36.8566 38.4637 37.4338 38.239 38.0381 38.1286C38.9904 37.8778 39.9753 37.6196 40.5913 36.8509C41.2072 36.0823 41.2485 35.0655 41.2883 34.0803C41.2663 33.4608 41.3622 32.8429 41.571 32.2593C41.9019 31.7396 42.3274 31.286 42.8245 30.9222C43.5912 30.2665 44.3847 29.5883 44.6165 28.5989C44.8479 27.6211 44.4477 26.6507 44.0613 25.7126C43.7681 25.1216 43.5851 24.482 43.5212 23.8254L43.5212 23.8253ZM42.8959 26.1919C43.22 26.9809 43.5264 27.7259 43.3888 28.3105C43.2513 28.8952 42.6461 29.4149 42.0056 29.9627C41.3716 30.4321 40.839 31.0241 40.439 31.7039C40.144 32.4425 40.0045 33.2337 40.0284 34.0288C39.9945 34.8462 39.9632 35.618 39.6078 36.0609C39.2523 36.5038 38.507 36.7004 37.7174 36.9083C36.94 37.0546 36.2014 37.3603 35.5477 37.8061C34.9725 38.3458 34.5147 38.9986 34.2026 39.7229C33.8236 40.4541 33.4653 41.1449 32.9462 41.3996C32.4272 41.654 31.6569 41.5177 30.8406 41.3731C30.0597 41.1784 29.2475 41.1429 28.4524 41.2685C27.6954 41.5055 26.9914 41.887 26.3793 42.3919C25.6653 42.9042 24.9909 43.3885 24.343 43.3885C23.6951 43.3885 23.0194 42.9043 22.3066 42.3919C21.6949 41.887 20.9915 41.5058 20.2349 41.2685C19.9766 41.2101 19.7129 41.1817 19.4482 41.1839C18.91 41.2007 18.3745 41.264 17.8473 41.3731C17.0309 41.5174 16.2601 41.654 15.7417 41.3996C15.2232 41.1452 14.8623 40.4541 14.4853 39.7229C14.1731 38.9985 13.7151 38.3458 13.1398 37.8061C12.4858 37.3603 11.7466 37.0546 10.9686 36.9083C10.179 36.7005 9.43367 36.5039 9.07824 36.061C8.72282 35.618 8.6915 34.8462 8.65761 34.0288C8.6815 33.2337 8.54205 32.4426 8.24699 31.7039C7.84703 31.0241 7.3144 30.432 6.68038 29.9627C6.03992 29.4149 5.43467 28.8984 5.29715 28.3105C5.15963 27.7227 5.46599 26.9809 5.79009 26.1919C6.15292 25.4517 6.36921 24.6479 6.42699 23.8253C6.36921 23.0028 6.15292 22.199 5.79009 21.4588C5.46598 20.6698 5.16028 19.9248 5.29715 19.3401C5.43402 18.7555 6.03768 18.2358 6.68038 17.688C7.31439 17.2186 7.84701 16.6266 8.24699 15.9468C8.54204 15.2082 8.6815 14.4169 8.65761 13.6218C8.69151 12.8045 8.72282 12.0327 9.07824 11.5897C9.43365 11.1468 10.1793 10.9502 10.9686 10.7423C11.746 10.5961 12.4846 10.2904 13.1383 9.84462C13.7142 9.30488 14.1729 8.65245 14.4857 7.92778C14.8647 7.1966 15.223 6.50579 15.7421 6.25109C16.2612 5.99672 17.0314 6.13294 17.8478 6.27757C18.629 6.47222 19.4411 6.50773 20.2362 6.38215C20.9926 6.14456 21.6956 5.76332 22.3068 5.25874C23.0208 4.74644 23.6952 4.26219 24.3431 4.26219C24.991 4.26219 25.6667 4.74641 26.3794 5.25874C26.9912 5.76363 27.6946 6.14489 28.4512 6.38215C29.2463 6.50773 30.0582 6.47222 30.8391 6.27757C31.6555 6.13327 32.4264 5.99672 32.9448 6.25109C33.4632 6.50547 33.8242 7.19658 34.2012 7.92778H34.2015C34.5133 8.65217 34.9714 9.30489 35.5466 9.84462C36.2006 10.2904 36.9395 10.5961 37.7176 10.7423C38.5072 10.9502 39.2522 11.1468 39.608 11.5897C39.9637 12.0326 39.9947 12.8045 40.0286 13.6218C40.0047 14.4169 40.1441 15.2081 40.4392 15.9468C40.8392 16.6266 41.3718 17.2187 42.0058 17.688C42.6463 18.2358 43.2515 18.7523 43.389 19.3401C43.5266 19.928 43.2202 20.6698 42.8961 21.4588C42.5333 22.199 42.317 23.0028 42.2592 23.8253C42.317 24.6479 42.5333 25.4517 42.8961 26.1919L42.8959 26.1919Z" fill="#606060"/>
</svg>
