<svg width="48" height="48" viewBox="0 0 48 48" fill="none" xmlns="http://www.w3.org/2000/svg">
<path d="M37.0016 20.3846H34.2526C33.8446 20.3846 33.5137 20.0538 33.5137 19.6457V16.9264C33.5137 16.5181 33.8446 16.1875 34.2526 16.1875C34.6607 16.1875 34.9916 16.5181 34.9916 16.9264V18.9067H36.2626V16.9264C36.2626 16.5181 36.5932 16.1875 37.0016 16.1875C37.4097 16.1875 37.7405 16.5181 37.7405 16.9264V19.6457C37.7405 20.0538 37.4097 20.3846 37.0016 20.3846Z" fill="#606060"/>
<path d="M35.6281 17.7445C33.4076 17.7445 31.2782 16.8624 29.7079 15.2925C28.138 13.7222 27.2559 11.5927 27.2559 9.37226C27.2559 7.15178 28.138 5.02234 29.7079 3.45205C31.2782 1.88176 33.4076 1 35.6281 1C37.8486 1 39.978 1.88176 41.5483 3.45205C43.1186 5.02234 44.0004 7.15178 44.0004 9.37226C43.9984 11.5921 43.1159 13.7205 41.5461 15.2901C39.9764 16.8597 37.848 17.7425 35.6282 17.7444L35.6281 17.7445ZM35.6281 2.48499C33.7992 2.48499 32.0452 3.21174 30.7524 4.50524C29.4593 5.7987 28.7332 7.55309 28.7338 9.38197C28.7345 11.2109 29.4619 12.9646 30.7557 14.2571C32.0498 15.5496 33.8042 16.2751 35.6331 16.2737C37.462 16.2724 39.2157 15.5447 40.5076 14.2502C41.7997 12.9557 42.5245 11.2011 42.5225 9.37209C42.5205 7.54482 41.7934 5.79312 40.5006 4.50161C39.2081 3.21043 37.4553 2.48499 35.6281 2.48499Z" fill="#606060"/>
<path d="M35.6281 17.7445C33.4076 17.7445 31.2782 16.8624 29.7079 15.2925C28.138 13.7222 27.2559 11.5927 27.2559 9.37226C27.2559 7.15178 28.138 5.02234 29.7079 3.45205C31.2782 1.88176 33.4076 1 35.6281 1C37.8486 1 39.978 1.88176 41.5483 3.45205C43.1186 5.02234 44.0004 7.15178 44.0004 9.37226C43.9984 11.5921 43.1159 13.7205 41.5461 15.2901C39.9764 16.8597 37.848 17.7425 35.6282 17.7444L35.6281 17.7445ZM35.6281 2.48499C33.7992 2.48499 32.0452 3.21174 30.7524 4.50524C29.4593 5.7987 28.7332 7.55309 28.7338 9.38197C28.7345 11.2109 29.4619 12.9646 30.7557 14.2571C32.0498 15.5496 33.8042 16.2751 35.6331 16.2737C37.462 16.2724 39.2157 15.5447 40.5076 14.2502C41.7997 12.9557 42.5245 11.2011 42.5225 9.37209C42.5205 7.54482 41.7934 5.79312 40.5006 4.50161C39.2081 3.21043 37.4553 2.48499 35.6281 2.48499Z" fill="#606060"/>
<path d="M35.6276 5.74328C35.2196 5.74328 34.8887 5.41273 34.8887 5.00433V4.4577C34.8887 4.04963 35.2196 3.71875 35.6276 3.71875C36.0357 3.71875 36.3666 4.04963 36.3666 4.4577V5.00466V5.00433C36.3666 5.20028 36.2887 5.38832 36.1502 5.52687C36.0116 5.66542 35.8236 5.74328 35.6276 5.74328Z" fill="#606060"/>
<path d="M35.6276 15.0477C35.2196 15.0477 34.8887 14.7169 34.8887 14.3088V13.7546C34.8887 13.3465 35.2196 13.0156 35.6276 13.0156C36.0357 13.0156 36.3666 13.3465 36.3666 13.7546V14.3088C36.3666 14.5047 36.2887 14.6928 36.1502 14.8313C36.0116 14.9699 35.8236 15.0477 35.6276 15.0477Z" fill="#606060"/>
<path d="M40.549 10.1107H39.9948C39.5864 10.1107 39.2559 9.77983 39.2559 9.37176C39.2559 8.96369 39.5864 8.63281 39.9948 8.63281H40.549C40.9571 8.63281 41.288 8.96369 41.288 9.37176C41.288 9.77983 40.9571 10.1107 40.549 10.1107Z" fill="#606060"/>
<path d="M31.2605 10.1107H30.7136C30.3055 10.1107 29.9746 9.77983 29.9746 9.37176C29.9746 8.96369 30.3055 8.63281 30.7136 8.63281H31.2605C31.6686 8.63281 31.9995 8.96369 31.9995 9.37176C31.9995 9.77983 31.6686 10.1107 31.2605 10.1107Z" fill="#606060"/>
<path d="M38.7164 7.02304C38.5227 7.02205 38.337 6.94519 38.1991 6.80861C37.9128 6.52028 37.9128 6.05481 38.1991 5.76682L38.5835 5.37524V5.37491C38.8718 5.08857 39.3372 5.08857 39.6256 5.37491C39.7655 5.51379 39.844 5.70282 39.844 5.89976C39.844 6.0967 39.7655 6.28573 39.6256 6.42428L39.2413 6.8086C39.1017 6.94682 38.913 7.02403 38.7164 7.02304Z" fill="#606060"/>
<path d="M32.132 13.5677C31.8318 13.5693 31.5603 13.3892 31.4452 13.1121C31.3301 12.835 31.3941 12.5153 31.6075 12.3042L31.9991 11.9199C32.2924 11.6688 32.7291 11.6857 33.0023 11.9585C33.2751 12.2316 33.2919 12.6684 33.0409 12.9617L32.6566 13.346C32.5183 13.4872 32.3296 13.567 32.132 13.5677Z" fill="#606060"/>
<path d="M39.1083 13.5698C38.9107 13.5692 38.7217 13.4893 38.5835 13.3481L38.1991 12.9638C37.9128 12.6758 37.9128 12.21 38.1991 11.922C38.4875 11.6354 38.9529 11.6354 39.2413 11.922L39.6256 12.3064C39.9119 12.5944 39.9119 13.0598 39.6256 13.3481C39.489 13.4874 39.3029 13.5672 39.1083 13.5698Z" fill="#606060"/>
<path d="M32.5384 7.02163C32.3445 7.02064 32.1587 6.94377 32.0212 6.8072L31.6296 6.42288C31.3396 6.13323 31.3396 5.66347 31.6296 5.37348C31.9192 5.08384 32.389 5.08384 32.679 5.37348L33.0633 5.76506L33.063 5.76539C33.3496 6.05338 33.3496 6.51885 33.063 6.80718C32.9238 6.9454 32.7347 7.02262 32.5384 7.02163Z" fill="#606060"/>
<path d="M35.6276 10.3615C35.2196 10.3615 34.8887 10.031 34.8887 9.62258V7.59051C34.8887 7.18244 35.2196 6.85156 35.6276 6.85156C36.0357 6.85156 36.3666 7.18244 36.3666 7.59051V9.62258C36.3666 9.81853 36.2887 10.0066 36.1502 10.1451C36.0116 10.2837 35.8236 10.3615 35.6276 10.3615Z" fill="#606060"/>
<path d="M18.8312 46.8227C14.8926 46.8168 11.1181 45.2472 8.33642 42.4586C5.55544 39.67 3.99545 35.8908 4.00001 31.9529C4.00463 28.0143 5.57325 24.2391 8.36083 21.4572C11.1484 18.675 14.9269 17.1139 18.8657 17.1172C22.804 17.1205 26.5799 18.6878 29.363 21.4744C32.146 24.2613 33.7083 28.0391 33.7064 31.9776C33.7004 35.9184 32.1305 39.6954 29.3413 42.4791C26.5521 45.2627 22.7719 46.8254 18.8313 46.8234L18.8312 46.8227ZM18.8312 18.6024C15.2836 18.6005 11.8804 20.0081 9.37095 22.5156C6.86148 25.023 5.45055 28.4249 5.4492 31.9725C5.44788 35.5204 6.85582 38.9232 9.36394 41.4327C11.8717 43.9422 15.2739 45.3521 18.8217 45.3528C22.3693 45.3534 25.7721 43.9448 28.2811 41.4363C30.7899 38.9279 32.1994 35.5257 32.1994 31.9778C32.1955 28.4331 30.7859 25.0346 28.28 22.5268C25.7742 20.0196 22.3764 18.6084 18.8316 18.6024H18.8312Z" fill="#606060"/>
<path d="M18.8316 41.0082C16.4356 41.0023 14.1399 40.0453 12.4496 38.3473C10.7589 36.6494 9.81186 34.3497 9.81642 31.9538C9.82098 29.5578 10.7767 27.2615 12.474 25.5701C14.171 23.8788 16.4699 22.9303 18.866 22.9336C21.2623 22.9369 23.5586 23.8913 25.2513 25.5876C26.9436 27.2835 27.893 29.5822 27.8911 31.9782C27.8874 34.3771 26.9308 36.6761 25.2315 38.3695C23.5326 40.0631 21.2306 41.0122 18.8317 41.0082H18.8316ZM18.8316 24.4186C16.8278 24.4245 14.9086 25.2255 13.4953 26.6457C12.0821 28.0661 11.2904 29.9891 11.2943 31.9928C11.2983 33.9966 12.0973 35.9165 13.5162 37.3314C14.935 38.7459 16.8576 39.5394 18.8613 39.5373C20.8648 39.5357 22.7857 38.7384 24.2019 37.3208C25.6178 35.9033 26.4132 33.9817 26.4132 31.9779C26.4112 29.9699 25.6112 28.045 24.189 26.6272C22.7672 25.2093 20.8397 24.4146 18.8316 24.4186Z" fill="#606060"/>
<path d="M13.8796 39.3433C13.6408 39.3423 13.4171 39.2259 13.2792 39.0309C13.1413 38.8359 13.106 38.5862 13.1849 38.3606L15.1359 32.7297L10.6431 29.7739C10.3706 29.5951 10.2476 29.2589 10.34 28.9462C10.435 28.6203 10.7398 28.4009 11.0789 28.4144H16.5913L18.1728 23.5004C18.2688 23.1913 18.5548 22.9805 18.8788 22.9805C19.2024 22.9805 19.4884 23.1913 19.5844 23.5004L21.1731 28.4292L26.7743 28.6509V28.6506C27.0982 28.6654 27.3747 28.8894 27.4562 29.2035C27.5376 29.5172 27.405 29.8474 27.1289 30.0176L22.5844 32.7815L24.5354 38.3902C24.6433 38.7043 24.5285 39.052 24.2547 39.24C23.9822 39.43 23.6163 39.4148 23.3603 39.203L18.86 35.5083L14.3524 39.203H14.3527C14.2158 39.3026 14.0489 39.3521 13.8797 39.3432L13.8796 39.3433ZM18.8306 33.7494C19.0008 33.7511 19.1651 33.8111 19.296 33.9196L22.2518 36.3509L20.9735 32.6562V32.6558C20.8597 32.3286 20.9887 31.9657 21.2839 31.784L24.2397 29.9663L20.545 29.8185C20.2362 29.8057 19.968 29.6024 19.8723 29.3085L18.8305 26.0869L17.7812 29.331V29.3306C17.6828 29.6322 17.4034 29.837 17.0867 29.8407H13.4586L16.4144 31.7841H16.4141C16.6978 31.9718 16.8165 32.3284 16.7024 32.6487L15.4241 36.3434L18.3799 33.9121C18.5079 33.8096 18.6662 33.7522 18.8305 33.7495L18.8306 33.7494Z" fill="#606060"/>
<path d="M31.5711 41.6878H29.5905C28.3194 41.6858 27.1005 41.1801 26.2015 40.2808C25.3026 39.3818 24.7969 38.1633 24.7949 36.8919C24.7949 36.4838 25.1258 36.1529 25.5339 36.1529C25.9419 36.1529 26.2728 36.4838 26.2728 36.8919C26.2748 37.7713 26.6248 38.6143 27.2466 39.2361C27.8684 39.8579 28.7114 40.2079 29.5905 40.2099H31.5711C32.4503 40.2079 33.2932 39.8579 33.915 39.2361C34.5368 38.6143 34.8869 37.7713 34.8888 36.8919V19.6452C34.8888 19.2371 35.2197 18.9062 35.6278 18.9062C36.0358 18.9062 36.3667 19.2371 36.3667 19.6452V36.8919C36.3647 38.1633 35.859 39.3818 34.9601 40.2808C34.0611 41.1801 32.8422 41.6858 31.5711 41.6878Z" fill="#606060"/>
</svg>
