<svg width="244" height="37" viewBox="0 0 244 37" fill="none" xmlns="http://www.w3.org/2000/svg">
<path d="M82.9604 31.0235H92.3951L91.7444 7.59952H82.3097L75.803 18.6609L74.5017 21.2635L73.8511 18.6609L70.5977 7.59952H56.283L58.8857 14.4315V14.7569L54.3311 31.0235H62.4644C62.7897 29.7222 65.0671 19.6369 65.0671 19.6369C65.3924 18.0102 65.3924 16.7089 65.3924 16.7089C65.3924 16.7089 65.7177 18.0102 66.043 19.6369C66.043 19.6369 69.2964 29.7222 69.9471 31.0235H74.5017C75.4777 29.3969 81.0084 19.6369 81.0084 19.6369C81.9844 18.0102 82.3097 16.7089 82.3097 16.7089C82.3097 16.7089 81.9844 18.0102 81.9844 19.6369C82.9604 19.3115 82.9604 29.7222 82.9604 31.0235ZM107.686 31.3489C99.227 31.3489 94.9977 29.3969 95.6484 25.4929C96.299 20.9382 103.456 19.6369 111.915 18.9862V18.3355C112.24 17.0342 110.614 16.3835 108.011 16.3835C105.408 16.3835 102.48 17.0342 100.528 17.3595L98.5764 13.7809C100.854 13.1302 104.758 12.4795 109.963 12.4795C116.795 12.4795 121.024 14.4315 120.374 19.6369L119.398 30.0475C116.795 30.6982 112.891 31.3489 107.686 31.3489ZM111.264 21.5889C107.36 21.9142 104.758 22.2395 104.432 24.8422C104.107 26.7942 105.734 27.4449 108.336 27.4449C109.312 27.4449 109.963 27.4449 110.614 27.1195L111.264 21.5889ZM133.387 31.3489C127.206 31.3489 124.603 28.7462 124.928 25.4929L125.904 16.7089H124.928L122.976 12.4795H126.23L126.555 8.57552L136.315 6.94886L135.664 12.4795H139.568L139.894 16.7089H135.99L135.014 24.8422C134.688 26.1435 135.339 26.7942 136.966 26.7942C137.616 26.7942 137.942 26.7942 138.918 26.4689L138.267 30.3729C137.616 31.0235 135.664 31.3489 133.387 31.3489ZM152.907 31.3489C144.448 31.3489 140.219 29.3969 140.87 25.4929C141.52 20.9382 148.678 19.6369 157.136 18.9862V18.3355C157.462 16.7089 155.835 16.3835 153.232 16.3835C150.63 16.3835 147.702 17.0342 145.75 17.3595L143.798 13.7809C146.075 13.1302 149.979 12.4795 155.184 12.4795C162.016 12.4795 166.246 14.4315 165.595 19.6369L164.619 30.0475C162.016 30.6982 158.112 31.3489 152.907 31.3489ZM156.486 21.5889C152.582 21.9142 149.979 22.2395 149.654 24.8422C149.328 26.7942 150.955 27.4449 153.558 27.4449C154.534 27.4449 155.184 27.4449 155.835 27.1195L156.486 21.5889ZM181.862 31.3489C173.403 31.3489 167.872 28.4209 168.848 21.9142C169.499 16.0582 175.03 12.4795 182.187 12.4795C183.814 12.4795 185.115 12.4795 186.091 12.8049L187.067 4.34619H196.827L193.574 30.0475C190.646 31.0235 187.067 31.3489 181.862 31.3489ZM185.44 16.0582H183.814C180.235 16.0582 178.608 18.0102 178.283 21.5889C177.958 25.4929 179.259 27.1195 182.187 27.1195C182.838 27.1195 183.488 27.1195 183.814 26.7942L185.44 16.0582ZM209.515 31.3489C201.382 31.3489 197.152 27.4449 197.803 21.9142C198.454 16.3835 203.659 12.4795 211.792 12.4795C219.926 12.4795 224.155 16.3835 223.504 21.9142C222.854 27.4449 217.648 31.3489 209.515 31.3489ZM211.142 16.3835C208.539 16.3835 207.563 18.6609 207.238 21.9142C206.912 25.1675 207.238 27.1195 209.84 27.1195C212.443 27.1195 213.419 24.8422 213.744 21.9142C214.07 18.6609 213.744 16.3835 211.142 16.3835ZM241.723 17.0342C240.096 16.3835 238.144 16.3835 236.843 16.7089L234.891 31.0235H225.131L227.734 13.7809C230.987 12.8049 236.192 12.1542 244 12.4795L241.723 17.0342Z" fill="white"/>
<path d="M13.664 27.4449C16.9173 17.6849 22.448 11.1782 28.6293 10.2022C31.5573 9.87689 34.4853 10.8529 37.088 13.1302C32.8587 4.34623 27.0027 -0.859107 20.496 0.116893C11.3867 1.41823 3.57867 14.4316 0 31.6742C3.904 29.7222 8.45867 28.4209 13.664 27.4449Z" fill="white"/>
<path d="M26.6769 18.3355C30.5809 18.6609 33.8342 22.5649 35.4609 27.7702C38.0635 28.4209 40.6662 29.0715 42.9435 30.0475C41.3169 20.9382 36.4369 13.7809 31.2315 13.1302C27.6529 12.8049 24.3995 15.0822 21.7969 19.6369C23.4235 18.6609 25.0502 18.3355 26.6769 18.3355Z" fill="white"/>
<path d="M41.968 32.9756C37.7387 31.9996 32.8587 31.0236 27.6533 30.6983C16.9173 30.3729 7.15733 31.9996 0 34.9276H0.650667C6.832 33.3009 12.3627 33.3009 19.8453 33.6263C25.376 33.9516 31.232 35.2529 35.7867 36.5543C37.4133 35.5783 40.016 33.6263 41.968 32.9756Z" fill="white"/>
</svg>
