<svg width="230" height="36" viewBox="0 0 230 36" fill="none" xmlns="http://www.w3.org/2000/svg">
<path d="M78.2 29.7616H87.0934L86.48 7.29043H77.5867L71.4534 17.9018L70.2267 20.3986L69.6134 17.9018L66.5467 7.29043H53.0534L55.5067 13.8445V14.1566L51.2134 29.7616H58.88C59.1867 28.5132 61.3334 18.8381 61.3334 18.8381C61.64 17.2776 61.64 16.0292 61.64 16.0292C61.64 16.0292 61.9467 17.2776 62.2534 18.8381C62.2534 18.8381 65.32 28.5132 65.9334 29.7616H70.2267C71.1467 28.2011 76.36 18.8381 76.36 18.8381C77.28 17.2776 77.5867 16.0292 77.5867 16.0292C77.5867 16.0292 77.28 17.2776 77.28 18.8381C78.2 18.526 78.2 28.5132 78.2 29.7616ZM101.507 30.0737C93.5334 30.0737 89.5467 28.2011 90.16 24.4559C90.7734 20.0865 97.52 18.8381 105.493 18.2139V17.5897C105.8 16.3413 104.267 15.7171 101.813 15.7171C99.36 15.7171 96.6 16.3413 94.76 16.6534L92.92 13.2203C95.0667 12.5961 98.7467 11.9719 103.653 11.9719C110.093 11.9719 114.08 13.8445 113.467 18.8381L112.547 28.8253C110.093 29.4495 106.413 30.0737 101.507 30.0737ZM104.88 20.7107C101.2 21.0228 98.7467 21.3349 98.44 23.8317C98.1334 25.7043 99.6667 26.3285 102.12 26.3285C103.04 26.3285 103.653 26.3285 104.267 26.0164L104.88 20.7107ZM125.733 30.0737C119.907 30.0737 117.453 27.5769 117.76 24.4559L118.68 16.0292H117.76L115.92 11.9719H118.987L119.293 8.22672L128.493 6.66623L127.88 11.9719H131.56L131.867 16.0292H128.187L127.267 23.8317C126.96 25.0801 127.573 25.7043 129.107 25.7043C129.72 25.7043 130.027 25.7043 130.947 25.3922L130.333 29.1374C129.72 29.7616 127.88 30.0737 125.733 30.0737ZM144.133 30.0737C136.16 30.0737 132.173 28.2011 132.787 24.4559C133.4 20.0865 140.147 18.8381 148.12 18.2139V17.5897C148.427 16.0292 146.893 15.7171 144.44 15.7171C141.987 15.7171 139.227 16.3413 137.387 16.6534L135.547 13.2203C137.693 12.5961 141.373 11.9719 146.28 11.9719C152.72 11.9719 156.707 13.8445 156.093 18.8381L155.173 28.8253C152.72 29.4495 149.04 30.0737 144.133 30.0737ZM147.507 20.7107C143.827 21.0228 141.373 21.3349 141.067 23.8317C140.76 25.7043 142.293 26.3285 144.747 26.3285C145.667 26.3285 146.28 26.3285 146.893 26.0164L147.507 20.7107ZM171.427 30.0737C163.453 30.0737 158.24 27.2648 159.16 21.0228C159.773 15.405 164.987 11.9719 171.733 11.9719C173.267 11.9719 174.493 11.9719 175.413 12.284L176.333 4.16943H185.533L182.467 28.8253C179.707 29.7616 176.333 30.0737 171.427 30.0737ZM174.8 15.405H173.267C169.893 15.405 168.36 17.2776 168.053 20.7107C167.747 24.4559 168.973 26.0164 171.733 26.0164C172.347 26.0164 172.96 26.0164 173.267 25.7043L174.8 15.405ZM197.493 30.0737C189.827 30.0737 185.84 26.3285 186.453 21.0228C187.067 15.7171 191.973 11.9719 199.64 11.9719C207.307 11.9719 211.293 15.7171 210.68 21.0228C210.067 26.3285 205.16 30.0737 197.493 30.0737ZM199.027 15.7171C196.573 15.7171 195.653 17.9018 195.347 21.0228C195.04 24.1438 195.347 26.0164 197.8 26.0164C200.253 26.0164 201.173 23.8317 201.48 21.0228C201.787 17.9018 201.48 15.7171 199.027 15.7171ZM227.853 16.3413C226.32 15.7171 224.48 15.7171 223.253 16.0292L221.413 29.7616H212.213L214.667 13.2203C217.733 12.284 222.64 11.6598 230 11.9719L227.853 16.3413Z" fill="#E30520"/>
<path d="M12.88 26.3285C15.9467 16.9655 21.16 10.7235 26.9867 9.78722C29.7467 9.47512 32.5067 10.4114 34.96 12.5961C30.9733 4.16943 25.4533 -0.82416 19.32 0.112138C10.7333 1.36054 3.37333 13.8445 0 30.3858C3.68 28.5132 7.97333 27.2648 12.88 26.3285Z" fill="#1D1D1B"/>
<path d="M25.1466 17.5898C28.8266 17.9019 31.8933 21.6471 33.4266 26.6407C35.88 27.2649 38.3333 27.8891 40.48 28.8254C38.9466 20.0866 34.3466 13.2204 29.44 12.5962C26.0666 12.2841 23 14.4688 20.5466 18.8382C22.08 17.9019 23.6133 17.5898 25.1466 17.5898Z" fill="#E30520"/>
<path d="M39.56 31.6342C35.5733 30.6979 30.9733 29.7616 26.0667 29.4495C15.9467 29.1374 6.74667 30.6979 0 33.5068H0.613333C6.44 31.9463 11.6533 31.9463 18.7067 32.2584C23.92 32.5705 29.44 33.8189 33.7333 35.0673C35.2667 34.131 37.72 32.2584 39.56 31.6342Z" fill="#616161"/>
</svg>
