<svg width="108" height="32" fill="none" xmlns="http://www.w3.org/2000/svg">
  <path d="M104.158 31.25H3.783A3.042 3.042 0 0 1 .75 28.214V3.78C.75 2.11 2.111.75 3.783.75h100.375c1.686 0 3.092 1.376 3.092 3.03v24.434c0 1.655-1.408 3.036-3.092 3.036Z" stroke="#fff" stroke-width="1.5"/>
  <path d="M24.102 15.827c-.023-2.578 2.112-3.833 2.21-3.891-1.21-1.762-3.083-2.003-3.742-2.022-1.573-.166-3.1.941-3.901.941-.818 0-2.052-.925-3.383-.898-1.712.026-3.313 1.017-4.192 2.557-1.812 3.138-.46 7.75 1.276 10.287.87 1.242 1.884 2.63 3.213 2.58 1.3-.053 1.786-.828 3.355-.828 1.554 0 2.01.829 3.365.797 1.395-.022 2.274-1.248 3.112-2.501 1.004-1.424 1.407-2.827 1.423-2.899-.032-.01-2.71-1.032-2.736-4.123ZM21.542 8.245c.7-.875 1.178-2.064 1.045-3.271-1.012.044-2.277.7-3.006 1.555-.645.753-1.221 1.989-1.072 3.15 1.137.085 2.304-.573 3.033-1.434ZM42.916 25.203h-1.817l-.995-3.127h-3.46l-.947 3.127h-1.769l3.427-10.646h2.117l3.444 10.646Zm-3.112-4.439-.9-2.78c-.095-.284-.274-.953-.537-2.006h-.032a77.4 77.4 0 0 1-.505 2.006l-.884 2.78h2.858ZM51.73 21.27c0 1.306-.353 2.338-1.059 3.096-.632.674-1.417 1.01-2.353 1.01-1.012 0-1.738-.362-2.18-1.089h-.032v4.044H44.4v-8.277c0-.821-.022-1.664-.063-2.528h1.5l.095 1.217h.032c.569-.917 1.432-1.374 2.59-1.374.906 0 1.662.357 2.267 1.073.606.717.909 1.66.909 2.828Zm-1.738.063c0-.747-.168-1.363-.506-1.848-.368-.506-.864-.759-1.484-.759-.421 0-.804.141-1.145.419a1.94 1.94 0 0 0-.671 1.098c-.053.211-.08.384-.08.52v1.28c0 .559.172 1.03.514 1.415.342.384.787.576 1.334.576.643 0 1.143-.248 1.5-.742.359-.495.538-1.148.538-1.96ZM60.56 21.27c0 1.306-.354 2.338-1.06 3.096-.631.674-1.416 1.01-2.353 1.01-1.011 0-1.737-.362-2.179-1.089h-.032v4.044H53.23v-8.277c0-.821-.021-1.664-.063-2.528h1.5l.095 1.217h.032c.568-.917 1.432-1.374 2.59-1.374.906 0 1.662.357 2.268 1.073.604.717.907 1.66.907 2.828Zm-1.738.063c0-.747-.17-1.363-.507-1.848-.369-.506-.862-.759-1.484-.759-.421 0-.803.141-1.145.419a1.94 1.94 0 0 0-.67 1.098c-.053.211-.08.384-.08.52v1.28c0 .559.171 1.03.512 1.415.342.384.787.576 1.336.576.642 0 1.142-.248 1.5-.742.358-.495.538-1.148.538-1.96ZM70.431 22.218c0 .905-.314 1.642-.945 2.21-.694.622-1.66.933-2.9.933-1.146 0-2.064-.221-2.76-.663l.396-1.422c.748.453 1.57.68 2.465.68.643 0 1.143-.146 1.502-.435.357-.29.536-.679.536-1.163 0-.432-.147-.796-.443-1.092-.293-.295-.784-.57-1.468-.823-1.864-.695-2.796-1.713-2.796-3.053 0-.875.327-1.592.98-2.15.652-.56 1.52-.84 2.607-.84.969 0 1.773.17 2.416.506l-.427 1.39c-.6-.326-1.278-.489-2.037-.489-.6 0-1.069.148-1.405.443a1.264 1.264 0 0 0-.426.964c0 .42.162.768.488 1.042.284.253.8.526 1.55.822.915.368 1.588.8 2.02 1.294.432.493.647 1.11.647 1.846ZM76.07 18.806h-1.88v3.727c0 .948.332 1.422.996 1.422.304 0 .557-.026.757-.08l.047 1.296c-.336.126-.778.189-1.326.189-.674 0-1.2-.206-1.58-.616-.378-.411-.569-1.1-.569-2.07v-3.87h-1.12v-1.28h1.12V16.12l1.675-.505v1.91h1.88v1.282ZM84.553 21.302c0 1.18-.338 2.148-1.011 2.906-.707.78-1.644 1.169-2.813 1.169-1.127 0-2.023-.374-2.692-1.121s-1.003-1.69-1.003-2.827c0-1.19.344-2.164 1.034-2.922.689-.758 1.618-1.138 2.787-1.138 1.127 0 2.033.374 2.717 1.122.654.726.98 1.663.98 2.81Zm-1.77.055c0-.708-.151-1.316-.457-1.822-.358-.613-.87-.918-1.532-.918-.685 0-1.206.306-1.564.918-.306.507-.457 1.124-.457 1.854 0 .708.151 1.315.457 1.82.37.613.884.919 1.55.919.65 0 1.162-.312 1.53-.934.315-.517.473-1.13.473-1.837ZM90.097 19.026a2.962 2.962 0 0 0-.538-.047c-.6 0-1.064.227-1.39.68-.284.4-.427.906-.427 1.516v4.028h-1.704l.016-5.259c0-.885-.022-1.69-.064-2.417h1.485l.063 1.469h.047c.18-.505.464-.911.853-1.216.38-.274.79-.411 1.232-.411.158 0 .3.011.427.031v1.626ZM97.725 21.002a4 4 0 0 1-.063.773h-5.116c.02.759.267 1.339.742 1.739.431.357.989.536 1.674.536.757 0 1.448-.12 2.07-.363l.267 1.184c-.726.317-1.584.475-2.573.475-1.19 0-2.125-.35-2.805-1.05-.679-.7-1.019-1.64-1.019-2.82 0-1.158.316-2.122.95-2.89.662-.821 1.557-1.232 2.683-1.232 1.107 0 1.944.41 2.513 1.232.45.652.677 1.458.677 2.416Zm-1.627-.443c.012-.505-.1-.942-.33-1.311-.296-.474-.75-.711-1.36-.711-.558 0-1.011.231-1.358.695a2.545 2.545 0 0 0-.504 1.326h3.552v.001ZM39.24 8.007c0 .942-.282 1.65-.846 2.127-.523.439-1.265.659-2.227.659-.477 0-.885-.021-1.226-.063V5.586a9.05 9.05 0 0 1 1.444-.11c.916 0 1.606.2 2.072.598.521.45.783 1.095.783 1.933Zm-.884.023c0-.61-.162-1.078-.485-1.404-.323-.326-.795-.49-1.417-.49-.264 0-.488.018-.675.055v3.911c.103.016.292.024.567.024.641 0 1.136-.179 1.485-.536.349-.356.525-.876.525-1.56ZM43.927 8.83c0 .58-.165 1.055-.497 1.428-.347.383-.807.574-1.381.574-.554 0-.995-.183-1.323-.551-.328-.367-.492-.83-.492-1.39 0-.583.168-1.062.508-1.434.339-.372.795-.559 1.37-.559.553 0 .998.184 1.334.55.32.358.481.818.481 1.382Zm-.87.027c0-.348-.075-.647-.224-.895-.176-.301-.427-.452-.752-.452-.337 0-.593.15-.769.452-.15.248-.225.552-.225.91 0 .348.075.646.225.895.182.3.434.451.76.451.32 0 .572-.152.753-.459.155-.253.233-.554.233-.902ZM50.212 6.975l-1.18 3.771h-.768l-.489-1.637a12.256 12.256 0 0 1-.303-1.219h-.015a8.92 8.92 0 0 1-.303 1.219l-.52 1.637h-.776l-1.11-3.77h.862l.426 1.792c.103.424.188.828.256 1.21h.015c.063-.315.166-.716.311-1.202l.536-1.8h.683l.513 1.762c.124.43.224.843.302 1.241h.023c.057-.388.143-.801.256-1.241l.458-1.762h.823ZM54.558 10.746h-.838v-2.16c0-.665-.253-.998-.76-.998a.757.757 0 0 0-.606.274.974.974 0 0 0-.232.647v2.237h-.839V8.053c0-.331-.01-.69-.03-1.08h.737l.039.59h.023c.098-.183.243-.334.434-.455.228-.14.482-.212.76-.212.352 0 .645.114.878.342.29.279.434.696.434 1.25v2.258ZM56.87 10.746h-.837V5.245h.837v5.501ZM61.806 8.83c0 .58-.165 1.055-.496 1.428-.348.383-.808.574-1.382.574-.554 0-.995-.183-1.323-.551-.328-.367-.492-.83-.492-1.39 0-.583.169-1.062.508-1.434.339-.372.795-.559 1.369-.559.554 0 .998.184 1.336.55.32.358.48.818.48 1.382Zm-.87.027c0-.348-.075-.647-.225-.895-.175-.301-.426-.452-.751-.452-.338 0-.594.15-.769.452-.15.248-.225.552-.225.91 0 .348.076.646.225.895.182.3.435.451.761.451.32 0 .57-.152.751-.459.156-.253.233-.554.233-.902ZM65.864 10.746h-.753l-.062-.434h-.023c-.258.346-.625.52-1.102.52-.356 0-.644-.115-.86-.342a1.071 1.071 0 0 1-.296-.768c0-.46.192-.812.578-1.055.386-.243.928-.362 1.627-.357v-.07c0-.497-.261-.745-.783-.745-.372 0-.7.094-.984.28l-.17-.551c.35-.217.783-.326 1.294-.326.985 0 1.48.52 1.48 1.56v1.39c0 .376.018.676.054.898Zm-.87-1.296V8.87c-.925-.016-1.388.237-1.388.76 0 .197.053.344.161.442a.586.586 0 0 0 .41.147.847.847 0 0 0 .513-.174.714.714 0 0 0 .304-.594ZM70.628 10.746h-.744l-.04-.605h-.022c-.238.46-.643.691-1.212.691a1.42 1.42 0 0 1-1.132-.535c-.3-.357-.45-.82-.45-1.39 0-.61.162-1.104.489-1.481a1.503 1.503 0 0 1 1.164-.528c.506 0 .86.17 1.062.512h.016V5.245h.84V9.73c0 .368.009.706.029 1.016Zm-.869-1.59v-.629a.955.955 0 0 0-.326-.772.824.824 0 0 0-.561-.205.86.86 0 0 0-.738.372c-.178.25-.268.567-.268.955 0 .373.085.675.257.908a.863.863 0 0 0 .733.372.808.808 0 0 0 .662-.31c.162-.192.241-.422.241-.691ZM77.798 8.83c0 .58-.165 1.055-.496 1.428-.348.383-.807.574-1.382.574-.553 0-.994-.183-1.323-.551-.328-.367-.492-.83-.492-1.39 0-.583.169-1.062.508-1.434.339-.372.795-.559 1.37-.559.553 0 .999.184 1.335.55.32.358.48.818.48 1.382Zm-.868.027c0-.348-.076-.647-.225-.895-.177-.301-.427-.452-.753-.452-.336 0-.592.15-.769.452-.15.248-.225.552-.225.91 0 .348.076.646.225.895.182.3.435.451.761.451.32 0 .572-.152.753-.459.154-.253.233-.554.233-.902ZM82.306 10.746h-.837v-2.16c0-.665-.253-.998-.761-.998a.754.754 0 0 0-.605.274.97.97 0 0 0-.233.647v2.237h-.839V8.053c0-.331-.01-.69-.03-1.08h.737l.039.59h.023c.098-.183.244-.334.434-.455a1.42 1.42 0 0 1 .761-.212c.351 0 .644.114.877.342.29.279.434.696.434 1.25v2.258ZM87.949 7.603h-.923v1.832c0 .466.164.699.488.699.15 0 .276-.013.374-.04l.022.636a1.884 1.884 0 0 1-.652.094c-.33 0-.588-.1-.775-.302-.187-.202-.28-.541-.28-1.017V7.603h-.551v-.628h.551v-.691l.822-.248v.938h.923v.63ZM92.387 10.746h-.839V8.602c0-.676-.253-1.014-.76-1.014-.388 0-.654.196-.8.588-.024.082-.038.183-.038.302v2.268h-.838V5.245h.838v2.273h.016c.264-.414.642-.62 1.132-.62.348 0 .635.113.863.341.284.284.426.707.426 1.265v2.242ZM96.966 8.682c0 .15-.012.277-.032.38H94.42c.011.373.131.657.364.854.213.176.487.264.823.264.372 0 .711-.06 1.017-.178l.131.582c-.357.155-.778.233-1.265.233-.584 0-1.044-.172-1.377-.516-.335-.344-.5-.806-.5-1.385 0-.569.154-1.042.465-1.42.325-.403.764-.605 1.319-.605.542 0 .954.202 1.233.605.224.32.336.716.336 1.186Zm-.8-.216a1.129 1.129 0 0 0-.163-.644c-.145-.233-.367-.35-.667-.35a.796.796 0 0 0-.667.342 1.27 1.27 0 0 0-.249.652h1.746Z" fill="#fff"/>
</svg>
