<svg width="159" height="47" viewBox="0 0 159 47" fill="none" xmlns="http://www.w3.org/2000/svg">
<g clip-path="url(#clip0_118_798)">
<path d="M152.981 46.25H5.55627C2.90829 46.25 0.749695 44.0864 0.749695 41.4387V5.55305C0.749695 2.90573 2.90674 0.75 5.55627 0.75H152.981C155.645 0.75 157.875 2.92085 157.875 5.55305V41.4387C157.875 44.0713 155.643 46.25 152.981 46.25Z" stroke="white" stroke-width="1.5"/>
<path d="M49.8846 13.4554H45.5933L44.6524 15.5226H44.071L47.4743 8.17822H48.0132L51.4165 15.5226H50.8351L49.8839 13.4554H49.8846ZM49.6839 13.0044L47.7389 8.76564L45.8049 13.0044H49.6839Z" fill="white"/>
<path d="M56.7448 10.0454L54.25 15.5224H53.7112L51.2274 10.0454H51.7875L53.9861 14.9453L56.206 10.0454H56.7448Z" fill="white"/>
<path d="M61.1626 10.5228C61.5291 10.8693 61.7124 11.378 61.7124 12.0493V15.5226H61.2052V14.547C61.029 14.8685 60.7715 15.119 60.4334 15.2971C60.0952 15.4752 59.69 15.5649 59.2176 15.5649C58.6046 15.5649 58.1199 15.4214 57.7644 15.1344C57.4082 14.8474 57.2307 14.4701 57.2307 14.0012C57.2307 13.5323 57.3946 13.1774 57.7224 12.8942C58.0503 12.6111 58.5736 12.4695 59.2918 12.4695H61.1839V12.0288C61.1839 11.5183 61.0445 11.1301 60.7664 10.8642C60.4882 10.5984 60.081 10.4658 59.5454 10.4658C59.1789 10.4658 58.8285 10.5285 58.4936 10.6547C58.1587 10.7809 57.8754 10.9488 57.6424 11.1582L57.3785 10.7803C57.6534 10.5356 57.9844 10.3447 58.3723 10.2083C58.7594 10.0718 59.1647 10.0039 59.588 10.0039C60.2714 10.0039 60.7967 10.1769 61.1632 10.5234L61.1626 10.5228ZM60.4598 14.8192C60.7805 14.6091 61.0219 14.3048 61.1839 13.9064V12.8782H59.3021C58.7594 12.8782 58.3665 12.9762 58.1238 13.1723C57.8805 13.3683 57.7592 13.6373 57.7592 13.98C57.7592 14.3228 57.8928 14.6187 58.1606 14.825C58.4284 15.0312 58.8053 15.1344 59.2918 15.1344C59.75 15.1344 60.1391 15.0293 60.4598 14.8199V14.8192Z" fill="white"/>
<path d="M63.8477 8.59194C63.7632 8.51186 63.7206 8.41193 63.7206 8.29278C63.7206 8.17363 63.7632 8.07242 63.8477 7.9885C63.9322 7.90458 64.0342 7.8623 64.1542 7.8623C64.2743 7.8623 64.3762 7.90266 64.4607 7.98274C64.5453 8.06345 64.5879 8.16274 64.5879 8.28189C64.5879 8.40104 64.5453 8.50225 64.4607 8.58617C64.3762 8.67009 64.2743 8.71237 64.1542 8.71237C64.0342 8.71237 63.9322 8.67201 63.8477 8.59194ZM63.8897 10.0454H64.4182V15.5225H63.8897V10.0454Z" fill="white"/>
<path d="M66.6484 7.73682H67.1769V15.5219H66.6484V7.73682Z" fill="white"/>
<path d="M72.842 10.5228C73.2086 10.8693 73.3918 11.378 73.3918 12.0493V15.5226H72.8846V14.547C72.7084 14.8685 72.451 15.119 72.1128 15.2971C71.7747 15.4752 71.3694 15.5649 70.8971 15.5649C70.284 15.5649 69.7994 15.4214 69.4438 15.1344C69.0876 14.8474 68.9102 14.4701 68.9102 14.0012C68.9102 13.5323 69.0741 13.1774 69.4019 12.8942C69.7297 12.6111 70.253 12.4695 70.9713 12.4695H72.8633V12.0288C72.8633 11.5183 72.7239 11.1301 72.4458 10.8642C72.167 10.5984 71.7605 10.4658 71.2249 10.4658C70.8583 10.4658 70.5079 10.5285 70.173 10.6547C69.8381 10.7809 69.5548 10.9488 69.3225 11.1582L69.0586 10.7803C69.3335 10.5356 69.6645 10.3447 70.0524 10.2083C70.4395 10.0718 70.8448 10.0039 71.2681 10.0039C71.9515 10.0039 72.4768 10.1769 72.8433 10.5234L72.842 10.5228ZM72.1393 14.8192C72.46 14.6091 72.7013 14.3048 72.8633 13.9064V12.8782H70.9816C70.4389 12.8782 70.0459 12.9762 69.8033 13.1723C69.56 13.3683 69.4387 13.6373 69.4387 13.98C69.4387 14.3228 69.5722 14.6187 69.84 14.825C70.1078 15.0312 70.4847 15.1344 70.9713 15.1344C71.4294 15.1344 71.8186 15.0293 72.1393 14.8199V14.8192Z" fill="white"/>
<path d="M79.7333 10.3549C80.1488 10.5894 80.4747 10.918 80.7109 11.3414C80.9471 11.7648 81.0652 12.2453 81.0652 12.784C81.0652 13.3228 80.9471 13.8019 80.7109 14.2215C80.4747 14.6411 80.1488 14.9703 79.7333 15.208C79.3177 15.4457 78.8524 15.5648 78.3381 15.5648C77.8238 15.5648 77.3992 15.4476 77.001 15.2131C76.6029 14.9787 76.2944 14.652 76.0763 14.2324V15.5232H75.5691V7.73682H76.0976V11.294C76.3157 10.8885 76.6222 10.5721 77.0172 10.3447C77.4114 10.1172 77.8522 10.0039 78.3381 10.0039C78.8524 10.0039 79.3177 10.1211 79.7333 10.3555V10.3549ZM79.448 14.7987C79.7862 14.6026 80.052 14.3304 80.2463 13.98C80.4399 13.6302 80.5367 13.2318 80.5367 12.784C80.5367 12.3362 80.4399 11.9378 80.2463 11.588C80.0527 11.2383 79.7868 10.9654 79.448 10.7694C79.1099 10.5733 78.7292 10.4753 78.3065 10.4753C77.8838 10.4753 77.505 10.5733 77.1701 10.7694C76.8352 10.9654 76.5712 11.2383 76.3777 11.588C76.1841 11.9378 76.0873 12.3369 76.0873 12.784C76.0873 13.2311 76.1841 13.6302 76.3777 13.98C76.5712 14.3298 76.8358 14.6026 77.1701 14.7987C77.505 14.9947 77.8838 15.0927 78.3065 15.0927C78.7292 15.0927 79.1099 14.9947 79.448 14.7987Z" fill="white"/>
<path d="M82.7029 7.73682H83.2315V15.5219H82.7029V7.73682Z" fill="white"/>
<path d="M90.1227 12.9094H85.3771C85.3913 13.3361 85.5004 13.7159 85.7049 14.0478C85.9095 14.3802 86.1857 14.6371 86.5348 14.819C86.8839 15.001 87.2763 15.0919 87.7131 15.0919C88.0726 15.0919 88.4055 15.0272 88.7121 14.8978C89.0186 14.7684 89.2741 14.5775 89.4787 14.3258L89.7852 14.6723C89.5458 14.9593 89.2444 15.1797 88.8818 15.3334C88.5191 15.4872 88.1261 15.564 87.7034 15.564C87.1536 15.564 86.6639 15.4449 86.2341 15.2072C85.8043 14.9696 85.4675 14.6403 85.2248 14.2207C84.9815 13.8011 84.8602 13.322 84.8602 12.7832C84.8602 12.2445 84.9744 11.7743 85.2035 11.3509C85.4326 10.9275 85.7482 10.5969 86.1496 10.3592C86.5509 10.1216 87.002 10.0024 87.5021 10.0024C88.0022 10.0024 88.4514 10.1197 88.8495 10.3541C89.2477 10.5886 89.5613 10.9153 89.7904 11.3349C90.0195 11.7545 90.1337 12.2304 90.1337 12.7621L90.1234 12.9088L90.1227 12.9094ZM86.4548 10.7218C86.1444 10.8935 85.8959 11.1344 85.7094 11.4457C85.523 11.757 85.4152 12.1087 85.3868 12.5001H89.6148C89.5936 12.1087 89.4877 11.7589 89.298 11.4508C89.1076 11.1433 88.8573 10.9018 88.5475 10.7269C88.2371 10.5521 87.8887 10.4649 87.5008 10.4649C87.113 10.4649 86.7645 10.5508 86.4548 10.7218Z" fill="white"/>
<path d="M95.2329 15.2072C94.8135 14.9696 94.4843 14.639 94.2449 14.2156C94.0055 13.7922 93.8855 13.3149 93.8855 12.7832C93.8855 12.2515 94.0055 11.7743 94.2449 11.3509C94.4843 10.9275 94.8141 10.5969 95.2329 10.3592C95.6523 10.1216 96.1221 10.0024 96.6442 10.0024C97.1662 10.0024 97.636 10.1216 98.0555 10.3592C98.4749 10.5969 98.804 10.9275 99.0441 11.3509C99.2835 11.7743 99.4035 12.2515 99.4035 12.7832C99.4035 13.3149 99.2835 13.7922 99.0441 14.2156C98.8047 14.639 98.4749 14.9696 98.0555 15.2072C97.636 15.4449 97.1656 15.564 96.6442 15.564C96.1228 15.564 95.6523 15.4449 95.2329 15.2072ZM97.7799 14.7979C98.1142 14.6019 98.3788 14.3296 98.5724 13.9792C98.766 13.6295 98.8628 13.231 98.8628 12.7832C98.8628 12.3355 98.766 11.937 98.5724 11.5873C98.3788 11.2375 98.1142 10.9646 97.7799 10.7686C97.445 10.5726 97.0662 10.4746 96.6435 10.4746C96.2209 10.4746 95.8421 10.5726 95.5072 10.7686C95.1722 10.9646 94.9083 11.2375 94.7147 11.5873C94.5211 11.937 94.4243 12.3361 94.4243 12.7832C94.4243 13.2304 94.5211 13.6295 94.7147 13.9792C94.9083 14.329 95.1729 14.6019 95.5072 14.7979C95.8421 14.9939 96.2209 15.0919 96.6435 15.0919C97.0662 15.0919 97.445 14.9939 97.7799 14.7979Z" fill="white"/>
<path d="M105.375 10.6017C105.776 11.0002 105.977 11.5741 105.977 12.3223V15.5227H105.449V12.3646C105.449 11.749 105.292 11.2808 104.978 10.9585C104.665 10.637 104.226 10.4762 103.663 10.4762C103.014 10.4762 102.504 10.6683 102.13 11.0533C101.756 11.4383 101.57 11.9559 101.57 12.6061V15.5227H101.041V10.0457H101.549V11.2314C101.739 10.8471 102.022 10.546 102.4 10.3288C102.777 10.1123 103.222 10.0034 103.737 10.0034C104.427 10.0034 104.973 10.2026 105.375 10.6017H105.375Z" fill="white"/>
<path d="M113.608 15.1761C113.474 15.3023 113.307 15.3983 113.106 15.4643C112.905 15.531 112.696 15.5643 112.477 15.5643C111.997 15.5643 111.628 15.4329 111.367 15.1709C111.106 14.9083 110.976 14.5432 110.976 14.0743V10.4966H109.961V10.0456H110.976V8.84961H111.504V10.0456H113.259V10.4966H111.504V14.0217C111.504 14.3785 111.591 14.6495 111.763 14.8346C111.935 15.0198 112.191 15.1126 112.53 15.1126C112.868 15.1126 113.16 15.0114 113.386 14.8084L113.608 15.1754V15.1761Z" fill="white"/>
<path d="M119.411 10.6015C119.812 11 120.013 11.5739 120.013 12.3222V15.5225H119.485V12.3644C119.485 11.7488 119.328 11.2806 119.014 10.9583C118.701 10.6368 118.262 10.476 117.699 10.476C117.05 10.476 116.54 10.6682 116.166 11.0531C115.792 11.4381 115.606 11.9557 115.606 12.6059V15.5225H115.077V7.73682H115.606V11.1889C115.796 10.811 116.078 10.5195 116.451 10.3126C116.825 10.1064 117.265 10.0032 117.772 10.0032C118.463 10.0032 119.009 10.2024 119.411 10.6015Z" fill="white"/>
<path d="M126.862 12.9094H122.116C122.131 13.3361 122.24 13.7159 122.444 14.0478C122.649 14.3802 122.925 14.6371 123.274 14.819C123.623 15.001 124.016 15.0919 124.452 15.0919C124.812 15.0919 125.145 15.0272 125.451 14.8978C125.758 14.7684 126.013 14.5775 126.218 14.3258L126.524 14.6723C126.285 14.9593 125.984 15.1797 125.621 15.3334C125.258 15.4872 124.865 15.564 124.443 15.564C123.893 15.564 123.403 15.4449 122.973 15.2072C122.544 14.9696 122.207 14.6403 121.964 14.2207C121.721 13.8011 121.599 13.322 121.599 12.7832C121.599 12.2445 121.714 11.7743 121.943 11.3509C122.172 10.9275 122.487 10.5969 122.889 10.3592C123.29 10.1216 123.741 10.0024 124.241 10.0024C124.741 10.0024 125.191 10.1197 125.589 10.3541C125.987 10.5886 126.301 10.9153 126.53 11.3349C126.759 11.7545 126.873 12.2304 126.873 12.7621L126.863 12.9088L126.862 12.9094ZM123.194 10.7218C122.884 10.8935 122.635 11.1344 122.449 11.4457C122.262 11.757 122.154 12.1087 122.126 12.5001H126.354C126.333 12.1087 126.227 11.7589 126.037 11.4508C125.847 11.1433 125.597 10.9018 125.287 10.7269C124.976 10.5521 124.628 10.4649 124.24 10.4649C123.852 10.4649 123.504 10.5508 123.194 10.7218Z" fill="white"/>
<path d="M52.4909 28.3906H54.6624V33.2795C54.0268 33.7817 53.2853 34.1674 52.438 34.4358C51.5907 34.7042 50.7196 34.8387 49.8252 34.8387C48.5655 34.8387 47.4305 34.5671 46.4186 34.0239C45.4061 33.4807 44.6117 32.7299 44.0355 31.7722C43.4586 30.8145 43.1708 29.7339 43.1708 28.5302C43.1708 27.3265 43.4592 26.2465 44.0355 25.2882C44.6117 24.3305 45.4093 23.5797 46.4276 23.0365C47.4453 22.4933 48.5901 22.2217 49.8613 22.2217C50.897 22.2217 51.8385 22.3914 52.6858 22.7297C53.5331 23.0685 54.2449 23.565 54.8218 24.219L53.3744 25.6206C52.4329 24.686 51.2971 24.219 49.9678 24.219C49.0966 24.219 48.3229 24.4003 47.6466 24.7623C46.9697 25.1242 46.4399 25.6328 46.0579 26.2869C45.6752 26.9415 45.4842 27.6885 45.4842 28.5296C45.4842 29.3707 45.6752 30.0836 46.0579 30.7377C46.4399 31.3923 46.9697 31.9061 47.6466 32.2796C48.3229 32.6537 49.0908 32.8401 49.9504 32.8401C50.9151 32.8401 51.7624 32.63 52.4922 32.2091V28.3893L52.4909 28.3906Z" fill="white"/>
<path d="M59.1279 34.1731C58.3626 33.7644 57.7657 33.1949 57.3359 32.4647C56.9061 31.735 56.6919 30.908 56.6919 29.9849C56.6919 29.0618 56.9068 28.2387 57.3359 27.5142C57.765 26.7897 58.3626 26.2234 59.1279 25.8147C59.8926 25.406 60.7522 25.2017 61.7053 25.2017C62.6584 25.2017 63.5347 25.406 64.3001 25.8147C65.0648 26.224 65.6623 26.7903 66.0921 27.5142C66.5212 28.2387 66.7361 29.0625 66.7361 29.9849C66.7361 30.9074 66.5212 31.7344 66.0921 32.4647C65.6623 33.1949 65.0654 33.7644 64.3001 34.1731C63.5347 34.5824 62.67 34.7861 61.7053 34.7861C60.7406 34.7861 59.8926 34.5818 59.1279 34.1731ZM63.7174 32.1053C64.2472 31.5678 64.5117 30.8613 64.5117 29.9849C64.5117 29.1086 64.2472 28.402 63.7174 27.8646C63.1876 27.3271 62.5171 27.0587 61.7053 27.0587C60.8935 27.0587 60.2249 27.3278 59.7016 27.8646C59.1776 28.402 58.9163 29.1086 58.9163 29.9849C58.9163 30.8613 59.1783 31.5678 59.7016 32.1053C60.2249 32.6427 60.8928 32.9111 61.7053 32.9111C62.5177 32.9111 63.1882 32.6427 63.7174 32.1053Z" fill="white"/>
<path d="M70.5137 34.1731C69.7484 33.7644 69.1515 33.1949 68.7217 32.4647C68.2919 31.735 68.0777 30.908 68.0777 29.9849C68.0777 29.0618 68.2926 28.2387 68.7217 27.5142C69.1508 26.7897 69.7484 26.2234 70.5137 25.8147C71.2784 25.406 72.138 25.2017 73.0911 25.2017C74.0442 25.2017 74.9205 25.406 75.6859 25.8147C76.4506 26.224 77.0481 26.7903 77.4779 27.5142C77.907 28.2387 78.1219 29.0625 78.1219 29.9849C78.1219 30.9074 77.907 31.7344 77.4779 32.4647C77.0481 33.1949 76.4512 33.7644 75.6859 34.1731C74.9205 34.5824 74.0558 34.7861 73.0911 34.7861C72.1264 34.7861 71.2784 34.5818 70.5137 34.1731ZM75.1032 32.1053C75.633 31.5678 75.8975 30.8613 75.8975 29.9849C75.8975 29.1086 75.633 28.402 75.1032 27.8646C74.5734 27.3271 73.9029 27.0587 73.0911 27.0587C72.2793 27.0587 71.6108 27.3278 71.0874 27.8646C70.5634 28.402 70.3021 29.1086 70.3021 29.9849C70.3021 30.8613 70.5641 31.5678 71.0874 32.1053C71.6108 32.6427 72.2787 32.9111 73.0911 32.9111C73.9035 32.9111 74.574 32.6427 75.1032 32.1053Z" fill="white"/>
<path d="M89.5955 25.3061V33.2443C89.5955 36.5388 87.9009 38.1858 84.5118 38.1858C83.6058 38.1858 82.7462 38.0717 81.9344 37.8443C81.1226 37.6163 80.4515 37.2864 79.9217 36.854L80.9103 35.207C81.322 35.5459 81.8428 35.8175 82.4726 36.0218C83.1018 36.2262 83.7406 36.3287 84.3879 36.3287C85.4229 36.3287 86.1825 36.0949 86.6652 35.6279C87.1479 35.1603 87.3886 34.4479 87.3886 33.4902V32.9995C87.0117 33.4089 86.5529 33.7183 86.0115 33.9284C85.4701 34.1385 84.8757 34.2436 84.2285 34.2436C83.3341 34.2436 82.5249 34.054 81.8015 33.6741C81.0781 33.2949 80.507 32.76 80.0895 32.0707C79.672 31.3814 79.4629 30.5929 79.4629 29.705C79.4629 28.8171 79.672 28.0318 80.0895 27.3483C80.507 26.6648 81.0781 26.1363 81.8015 25.7622C82.5255 25.3887 83.3341 25.2017 84.2285 25.2017C84.9106 25.2017 85.532 25.3131 86.0908 25.5348C86.6497 25.757 87.1175 26.0953 87.4944 26.5514V25.3074H89.5949L89.5955 25.3061ZM86.6213 31.6409C87.1569 31.1444 87.4247 30.4993 87.4247 29.7044C87.4247 28.9094 87.1569 28.2848 86.6213 27.7941C86.0857 27.3034 85.4004 27.0581 84.5647 27.0581C83.729 27.0581 83.0256 27.3034 82.4907 27.7941C81.9551 28.2848 81.6873 28.9216 81.6873 29.7044C81.6873 30.4872 81.9551 31.1444 82.4907 31.6409C83.0256 32.1373 83.7174 32.3859 84.5647 32.3859C85.412 32.3859 86.0857 32.138 86.6213 31.6409Z" fill="white"/>
<path d="M92.4903 21.6611H94.6966V34.6632H92.4903V21.6611Z" fill="white"/>
<path d="M106.418 30.6857H99.0215C99.1505 31.375 99.4893 31.9214 100.037 32.3244C100.584 32.7273 101.263 32.9291 102.075 32.9291C103.111 32.9291 103.964 32.5902 104.634 31.9125L105.817 33.2615C105.394 33.7638 104.858 34.1436 104.211 34.4005C103.564 34.6574 102.834 34.7861 102.022 34.7861C100.986 34.7861 100.075 34.5818 99.2861 34.1731C98.4975 33.7644 97.8883 33.1949 97.4592 32.4647C97.0294 31.735 96.8152 30.908 96.8152 29.9849C96.8152 29.0618 97.0243 28.2534 97.4418 27.5232C97.8593 26.7929 98.4394 26.2234 99.1809 25.8147C99.9223 25.406 100.758 25.2017 101.687 25.2017C102.616 25.2017 103.426 25.4034 104.15 25.8064C104.873 26.2093 105.438 26.7762 105.844 27.5059C106.25 28.2361 106.453 29.0804 106.453 30.0381C106.453 30.1899 106.442 30.4058 106.418 30.6864V30.6857ZM99.8952 27.5757C99.4067 27.9908 99.1099 28.5423 99.0041 29.2316H104.353C104.259 28.5545 103.97 28.0049 103.488 27.5846C103.006 27.1644 102.405 26.9537 101.688 26.9537C100.97 26.9537 100.384 27.1612 99.8959 27.5757H99.8952Z" fill="white"/>
<path d="M121.537 22.9232C122.331 23.2736 122.94 23.7759 123.364 24.4299C123.788 25.0846 123.999 25.861 123.999 26.7604C123.999 27.6597 123.788 28.422 123.364 29.0825C122.94 29.7423 122.331 30.2477 121.537 30.5981C120.743 30.9485 119.809 31.124 118.739 31.124H115.95V34.6639H113.655V22.3979H118.739C119.809 22.3979 120.743 22.5735 121.537 22.9239V22.9232ZM120.91 28.5655C121.428 28.1447 121.687 27.5432 121.687 26.7604C121.687 25.9776 121.428 25.376 120.91 24.9552C120.392 24.5343 119.633 24.3242 118.633 24.3242H115.95V29.1959H118.633C119.633 29.1959 120.392 28.9858 120.91 28.5649V28.5655Z" fill="white"/>
<path d="M126.259 21.6611H128.465V34.6632H126.259V21.6611Z" fill="white"/>
<path d="M138.147 26.1914C138.883 26.8518 139.251 27.8473 139.251 29.1791V34.6638H137.168V33.5248C136.896 33.9342 136.511 34.2461 136.011 34.462C135.511 34.6779 134.908 34.7861 134.202 34.7861C133.496 34.7861 132.878 34.6664 132.348 34.4268C131.819 34.1872 131.41 33.8547 131.122 33.4281C130.833 33.0021 130.689 32.5197 130.689 31.9823C130.689 31.1412 131.004 30.4667 131.633 29.9587C132.263 29.4507 133.254 29.1964 134.608 29.1964H137.044V29.0561C137.044 28.402 136.846 27.8998 136.453 27.5494C136.058 27.199 135.473 27.0235 134.696 27.0235C134.166 27.0235 133.645 27.1055 133.134 27.2688C132.622 27.4328 132.19 27.6602 131.836 27.9523L130.971 26.3579C131.466 25.9845 132.06 25.6981 132.754 25.4995C133.449 25.301 134.184 25.2017 134.961 25.2017C136.349 25.2017 137.411 25.5316 138.147 26.192V26.1914ZM136.135 32.8151C136.565 32.5639 136.867 32.2046 137.044 31.7376V30.6511H134.767C133.496 30.6511 132.861 31.0662 132.861 31.8952C132.861 32.2923 133.019 32.6081 133.338 32.8413C133.655 33.0751 134.096 33.1917 134.662 33.1917C135.227 33.1917 135.706 33.0662 136.136 32.8151H136.135Z" fill="white"/>
<path d="M150.724 25.3062L146.311 35.4172C145.899 36.4338 145.399 37.1487 144.811 37.5638C144.222 37.9783 143.51 38.1858 142.675 38.1858C142.204 38.1858 141.739 38.1096 141.28 37.9578C140.821 37.806 140.444 37.5958 140.15 37.3268L141.033 35.7144C141.245 35.913 141.494 36.0706 141.783 36.1878C142.072 36.3044 142.363 36.3634 142.657 36.3634C143.046 36.3634 143.366 36.2641 143.619 36.0655C143.872 35.8669 144.105 35.5338 144.317 35.0668L144.476 34.6991L140.362 25.3068H142.657L145.623 32.2284L148.606 25.3068H150.725L150.724 25.3062Z" fill="white"/>
<path d="M38.9305 22.8996L32.9988 19.502L28.1203 24.1834L32.5787 28.4619L38.9305 24.8227C39.2802 24.6228 39.4893 24.2628 39.4893 23.8618C39.4893 23.4608 39.2802 23.1008 38.9305 22.9003V22.8996Z" fill="white"/>
<path d="M31.9922 18.9247L25.4642 15.1843L11.1591 7.90723L27.3163 23.4114L31.9922 18.9247Z" fill="white"/>
<path d="M11.3965 40.2306L25.4888 32.5243L31.5721 29.0388L27.3163 24.9551L11.3965 40.2306Z" fill="white"/>
<path d="M10.2046 8.53418L10.1891 39.8462L26.5122 24.1825L10.2046 8.53418Z" fill="white"/>
</g>
<defs>
<clipPath id="clip0_118_798">
<rect width="158.625" height="47" fill="white" transform="translate(-0.000305176)"/>
</clipPath>
</defs>
</svg>
