<?xml version="1.0" encoding="UTF-8"?>
<!DOCTYPE svg PUBLIC "-//W3C//DTD SVG 1.1//EN" "http://www.w3.org/Graphics/SVG/1.1/DTD/svg11.dtd">
<!-- Creator: CorelDRAW 2020 (64-Bit) -->
<svg xmlns="http://www.w3.org/2000/svg" xml:space="preserve" width="148mm" height="105mm" version="1.1" style="shape-rendering:geometricPrecision; text-rendering:geometricPrecision; image-rendering:optimizeQuality; fill-rule:evenodd; clip-rule:evenodd"
viewBox="0 0 14800 10500"
 xmlns:xlink="http://www.w3.org/1999/xlink"
 xmlns:xodm="http://www.corel.com/coreldraw/odm/2003">
 <defs>
  <style type="text/css">
   <![CDATA[
    .fil1 {fill:#FEFEFE}
    .fil0 {fill:#E4222F}
    .fil2 {fill:#ABACAC}
   ]]>
  </style>
 </defs>
 <g id="Layer_x0020_1">
  <metadata id="CorelCorpID_0Corel-Layer"/>
  <g id="_2021205739824">
   <path class="fil0" d="M3976.18 5921.5l490.48 0.78 1.22 543.62c-145.36,-61.39 -418.26,-376.55 -491.7,-544.4zm-711.09 -5.52l485.95 0.19c28.98,21.87 103.31,163.53 125.72,198.78 45.08,70.89 88.92,128.24 142.58,188.04 108.57,120.98 154.21,173.69 287.29,271.54 27.48,20.21 29.7,19.29 50.01,44.35 -239.75,-25.03 -485.46,-132.73 -650.14,-242.46 -156.21,-104.07 -288.78,-231.62 -394.8,-380.47 -15.86,-22.27 -28.32,-51.36 -46.61,-79.97zm1490.52 704.59c33.31,-39.55 196.86,-147.03 334.69,-306.48 104.45,-120.83 166.24,-238.4 253.96,-392.26l536.26 0.4c-36.29,81.16 -145.24,198.29 -199.38,252.59 -209.92,210.52 -624.36,455.09 -925.53,445.75zm-125.1 -143.19l-2.03 -554.39 512.01 -0.89c-29.79,89.89 -170.74,251.06 -221.3,312.04 -36.81,44.39 -223.81,219.8 -288.68,243.24zm791.08 -721.37c63.53,-233.58 103.49,-360.2 120.51,-625.4l598.67 -0.53c-5.46,270.53 -79.99,404.9 -154.25,625.21l-564.93 0.72zm-2252.23 -2.69c-87.81,-110.25 -154.28,-452.96 -165.53,-623.05l566.74 0.81c16.85,266.99 59,388.13 120.09,624.74l-521.3 -2.5zm1461.55 -617.27l726.6 0.66c2.9,131.01 -66.55,548.71 -146.57,619.04l-582.71 -1.25 2.68 -618.45zm-743.29 605.84c-49.33,-61.53 -150.9,-443.41 -137.84,-543.31l3.07 -66.89 716.81 2.5c8.11,86.85 13.94,560.08 -4.91,623.26l-542.63 0.12c-54.06,-0.67 -15.63,2.78 -34.5,-15.68zm-132.43 -866.02c1.41,-145.97 104.39,-483.38 156.9,-548.58 11.26,-14.18 471.61,-1.16 556.31,-0.81 12.61,67 13.89,591.54 -3.17,644.68l-708.87 -2.19c-6.01,-26.57 -3.39,-61.42 -1.17,-93.1zm879.39 -551.01l578.84 -0.52c74.54,212.12 140.9,381.9 150.11,641.11l-729.57 -5.33 0.62 -635.26zm906.32 641.79c-5.15,-117.35 -23.02,-231.97 -46.93,-343.54 -23.1,-107.78 -64.02,-201.08 -87.95,-298.59l561.93 -0.34c90.63,197.41 162.24,386.13 173.13,644.61l-600.18 -2.14zm-2536.37 -1.04c6.33,-224.89 87.21,-471.59 172.74,-641.3l529.31 0.07c-19.25,91.13 -64.3,195.27 -88.42,300.28 -26.17,113.89 -39.81,227.35 -49.6,340.15l-564.03 0.8zm992.25 -806.92c102.19,-194.31 290.55,-401.13 470.5,-504.04l0.68 54 0.71 399.23 -4.19 52.57 -467.7 -1.76zm638.49 -517.59c111.3,38.89 309.08,251.33 392.79,364.46 34.08,46.04 72.44,94.92 96.65,152.53l-491.31 0.27 1.87 -517.26zm694.65 518.27c-44.5,-63.23 -76.65,-135.6 -119.37,-199.41 -121.14,-180.96 -140.76,-171.77 -211.05,-256.61 -37.88,-45.72 -116.31,-104.05 -165.85,-142.07 -91.48,-70.22 -59.99,-24.99 -81.79,-75.97 254.31,18.04 494.81,127.1 671.18,239.31 152.88,97.27 358.3,288.69 441.73,434.17l-534.85 0.58zm-2045.09 -3.5c25.28,-61.16 152.09,-196.07 196.98,-237.48 242.12,-223.33 517.65,-391.35 876.01,-429.36l-167.84 145.15c-133.89,127.84 -340.83,342 -399.72,523.98l-505.43 -2.29zm-423.42 2609.45l3421.65 0 0 -3421.65 -3421.65 0 0 3421.65z"/>
   <path class="fil0" d="M8028.1 4319.43c53.06,22.28 102.91,39.91 127.27,84.95 57.01,75.58 62.14,223.35 9.75,308.1 -49.36,79.86 -138.87,119.77 -262.48,126.16l-50.97 -4.15 -0.35 779.4c3.21,86.08 41.65,129.67 68.13,204.78l405.2 958.06 764.17 0c-4.04,-48.4 -36.21,-125.86 -52.73,-175.39 -68,-203.93 -384.32,-1107.64 -414.9,-1238.89 130.73,-87.55 288.55,-344.97 343.71,-511.71 184.15,-556.66 -31.72,-1159.48 -484.28,-1400.71 -180.32,-96.12 -222.4,-94.95 -486.73,-94.95l-855.49 -0.08c-102.36,-0.53 -173.74,11.49 -285.07,11.49l0 3410.24 821.2 0 0 -2121.43c0,-416.3 -48.87,-352.77 182.52,-353.6 87.59,-0.32 97.23,-0.07 171.05,17.73z"/>
   <path class="fil0" d="M10057.39 4404.38l2.48 68.44 -1.6 2303.91c89.1,0 783.68,6.96 807.91,-1.9 43.05,-15.72 24.79,-58.61 24.7,-169.18l0 -2235.48 638.71 0 0 -1003.68 -2178.45 0 0 1003.68 707.14 0 -0.89 34.21z"/>
   <path class="fil0" d="M11917.38 5373.85c0,51.08 -9.1,32.71 -6.01,75.61 18.37,255.09 6.48,906.1 6.01,1201.81 -0.09,52.18 -20.69,159.68 34.22,159.68l798.38 0 0 -3467.28 -832.6 0 0 2030.18z"/>
   <path class="fil1" d="M4633.96 4960.12l729.57 5.33c-9.21,-259.21 -75.57,-428.99 -150.11,-641.11l-578.84 0.52 -0.62 635.26z"/>
   <path class="fil1" d="M4628.23 5754.5l582.71 1.25c80.02,-70.33 149.47,-488.03 146.57,-619.04l-726.6 -0.66 -2.68 618.45z"/>
   <path class="fil1" d="M3768.03 4876.59l-9.68 82.88 706.99 -0.64 -0.89 -624.97c-108.07,1.68 -489.1,-17.07 -563.06,11.96 -52.51,65.21 -143.36,426.14 -133.36,530.77z"/>
   <path class="fil1" d="M3761.19 5197.16c-13.07,99.9 77.1,483.2 126.43,544.73l575.89 2.06 1.39 -603.1 -704.2 -0.36 0.49 56.67z"/>
   <path class="fil1" d="M5540.9 4966.65l600.18 2.14c-10.89,-258.48 -82.5,-447.2 -173.13,-644.61l-561.93 0.34c23.93,97.51 64.85,190.81 87.95,298.59 23.91,111.57 41.78,226.19 46.93,343.54z"/>
   <path class="fil1" d="M5421.59 5756.01l564.93 -0.72c74.26,-220.31 148.79,-354.68 154.25,-625.21l-598.67 0.53c-17.02,265.2 -56.98,391.82 -120.51,625.4z"/>
   <path class="fil1" d="M3004.53 4965.61l564.03 -0.8c22.63,-111.38 23.43,-226.26 49.6,-340.15 24.12,-105.01 69.17,-209.15 88.42,-300.28l-529.31 -0.07c-85.53,169.71 -166.41,416.41 -172.74,641.3z"/>
   <path class="fil1" d="M3169.36 5753.32l521.3 2.5c-61.09,-236.61 -103.24,-357.75 -120.09,-624.74l-566.74 -0.81c11.25,170.09 77.72,512.8 165.53,623.05z"/>
   <path class="fil2" d="M11689.27 3537.57l0 866.81 -638.71 0 0 2475 -695.74 0c-41.34,0 -63.66,9.57 -91.24,22.81 9.62,41.29 17.76,57.03 68.43,57.03l718.55 0c82.51,0 57.03,-167.87 57.03,-250.93l0 -2224.07c84.08,-19.59 380.49,-12.33 501.93,-11.31 61.4,0.51 136.78,14.69 136.78,-45.72l0 -946.65c0,-34.66 -19.79,-38.72 -45.62,-45.62 -1.15,51.57 -11.41,45.32 -11.41,102.65z"/>
   <path class="fil1" d="M4755.61 6620.57c301.17,9.34 715.61,-235.23 925.53,-445.75 54.14,-54.3 163.09,-171.43 199.38,-252.59l-536.26 -0.4c-87.72,153.86 -149.51,271.43 -253.96,392.26 -137.83,159.45 -301.38,266.93 -334.69,306.48z"/>
   <path class="fil1" d="M5329.92 4159.37l534.85 -0.58c-83.43,-145.48 -288.85,-336.9 -441.73,-434.17 -176.37,-112.21 -416.87,-221.27 -671.18,-239.31 21.8,50.98 -9.69,5.75 81.79,75.97 49.54,38.02 127.97,96.35 165.85,142.07 70.29,84.84 89.91,75.65 211.05,256.61 42.72,63.81 74.87,136.18 119.37,199.41z"/>
   <path class="fil1" d="M3265.09 5915.98c18.29,28.61 30.75,57.7 46.61,79.97 106.02,148.85 238.59,276.4 394.8,380.47 164.68,109.73 410.39,217.43 650.14,242.46 -20.31,-25.06 -22.53,-24.14 -50.01,-44.35 -133.08,-97.85 -178.72,-150.56 -287.29,-271.54 -53.66,-59.8 -97.5,-117.15 -142.58,-188.04 -22.41,-35.25 -96.74,-176.91 -125.72,-198.78l-485.95 -0.19z"/>
   <path class="fil2" d="M12886.85 3446.32l0 3478.68 -752.76 0c-52.44,0 -43.46,79.84 68.43,79.84 135.09,0 636.12,22.21 729.95,-22.81 5.96,-25.58 11.4,-26.23 11.4,-57.03l0 -3444.46c0,-46.25 -10.55,-59.07 -45.62,-68.43 -7.81,13.91 -11.4,12.19 -11.4,34.21z"/>
   <path class="fil1" d="M3284.83 4155.87l505.43 2.29c58.89,-181.98 265.83,-396.14 399.72,-523.98l167.84 -145.15c-358.36,38.01 -633.89,206.03 -876.01,429.36 -44.89,41.41 -171.7,176.32 -196.98,237.48z"/>
   <path class="fil2" d="M7919.45 5818.67c-26.48,-75.11 -64.92,-118.7 -68.13,-204.78l0.35 -779.4 50.97 4.15c0,-114.71 -0.25,-229.28 -0.93,-343.94 -0.44,-75.66 7.47,-88.53 80.04,-91.04 55.35,-1.92 117.41,0.72 173.62,0.72 -24.36,-45.04 -74.21,-62.67 -127.27,-84.95 -63.77,18.15 -111.9,-5.94 -182.49,27.93l0 2532.02c-163.47,0 -326.95,0 -490.43,0 -143.56,0 -363.32,-27.24 -467.63,22.81 13.46,25.43 19.03,34.34 34.22,57.03 150.17,0 898.76,22.52 969.47,-11.41 54.8,-54.8 -29.5,-1067.43 28.21,-1129.14z"/>
   <path class="fil2" d="M9202.87 4472.82c0,290.48 -94.1,566.1 -249.13,777.36 -51.26,69.85 -122.3,122.21 -161.47,180.7l406.17 1270.44c18.83,56.62 39.19,131.65 61.46,178.06 -240.44,0 -503.4,-8.4 -741.36,11.4 3.05,36.72 20.42,68.44 57.03,68.44l684.33 0c84.15,0 -9.87,-195.13 -52.73,-323.66l-287.99 -898.18c-45.08,-147.29 -100.18,-212.9 -33.38,-281.25 72.49,-74.17 118.86,-131.68 175.4,-223.95 166.65,-271.94 187.29,-449.05 187.29,-770.77 0,-143.48 -87.32,-471.64 -159.67,-524.65 9.16,39.35 31.21,73.71 44.44,115.23 38.05,119.4 69.61,292.86 69.61,420.83z"/>
   <path class="fil1" d="M4630.51 6477.38c64.87,-23.44 251.87,-198.85 288.68,-243.24 50.56,-60.98 191.51,-222.15 221.3,-312.04l-512.01 0.89 2.03 554.39z"/>
   <path class="fil1" d="M3976.18 5921.5c73.44,167.85 346.34,483.01 491.7,544.4l-1.22 -543.62 -490.48 -0.78z"/>
   <path class="fil1" d="M4633.4 4158.36l491.31 -0.27c-24.21,-57.61 -62.57,-106.49 -96.65,-152.53 -83.71,-113.13 -281.49,-325.57 -392.79,-364.46l-1.87 517.26z"/>
   <path class="fil1" d="M3996.78 4158.69l467.7 1.76 4.19 -52.57 -0.71 -399.23 -0.68 -54c-179.95,102.91 -368.31,309.73 -470.5,504.04z"/>
   <path class="fil2" d="M10059.87 4472.82l-2.48 -68.44 -489.54 0c2.04,91.52 39,68.45 205.3,68.44 95.57,-0.01 191.14,0 286.72,0z"/>
  </g>
 </g>
</svg>
