<svg width="186" height="106" viewBox="0 0 186 106" fill="none" xmlns="http://www.w3.org/2000/svg">
<path d="M3 45.6667C4.47276 45.6667 5.66666 44.4728 5.66666 43C5.66666 41.5272 4.47276 40.3333 3 40.3333C1.52724 40.3333 0.333331 41.5272 0.333331 43C0.333331 44.4728 1.52724 45.6667 3 45.6667ZM123 33L123 32.5C122.867 32.5 122.74 32.5527 122.646 32.6464L123 33ZM163 33L163 33.5C163.133 33.5 163.26 33.4473 163.354 33.3535L163 33ZM173 25.6667C174.473 25.6667 175.667 24.4728 175.667 23C175.667 21.5272 174.473 20.3333 173 20.3333C171.527 20.3333 170.333 21.5272 170.333 23C170.333 24.4728 171.527 25.6667 173 25.6667ZM63 53L62.6464 53.3536C62.7402 53.4473 62.8674 53.5 63 53.5L63 53ZM93 63L92.6464 63.3535C92.7402 63.4473 92.8674 63.5 93 63.5L93 63ZM173 63L173 63.5C173.133 63.5 173.26 63.4473 173.354 63.3535L173 63ZM143 55.6667C144.473 55.6667 145.667 54.4728 145.667 53C145.667 51.5272 144.473 50.3333 143 50.3333C141.527 50.3333 140.333 51.5272 140.333 53C140.333 54.4728 141.527 55.6667 143 55.6667ZM143 23L143 22.5C142.867 22.5 142.74 22.5527 142.646 22.6464L143 23ZM153 23L153 23.5C153.133 23.5 153.26 23.4473 153.354 23.3535L153 23ZM3 35.6667C4.47276 35.6667 5.66666 34.4728 5.66666 33C5.66666 31.5272 4.47276 30.3333 3 30.3333C1.52724 30.3333 0.33333 31.5272 0.33333 33C0.33333 34.4728 1.52724 35.6667 3 35.6667ZM63 13L63 12.5C62.8674 12.5 62.7402 12.5527 62.6464 12.6464L63 13ZM123 15.6667C124.473 15.6667 125.667 14.4728 125.667 13C125.667 11.5272 124.473 10.3333 123 10.3333C121.527 10.3333 120.333 11.5272 120.333 13C120.333 14.4728 121.527 15.6667 123 15.6667ZM123 23L123 23.5C123.133 23.5 123.26 23.4473 123.354 23.3535L123 23ZM133 13L133 12.5C132.867 12.5 132.74 12.5527 132.646 12.6464L133 13ZM143 15.6667C144.473 15.6667 145.667 14.4728 145.667 13C145.667 11.5272 144.473 10.3333 143 10.3333C141.527 10.3333 140.333 11.5272 140.333 13C140.333 14.4728 141.527 15.6667 143 15.6667ZM43 53L43.3536 52.6464C43.2598 52.5527 43.1326 52.5 43 52.5L43 53ZM3 55.6667C4.47276 55.6667 5.66666 54.4728 5.66666 53C5.66666 51.5272 4.47276 50.3333 3 50.3333C1.52724 50.3333 0.333331 51.5272 0.333331 53C0.333331 54.4728 1.52724 55.6667 3 55.6667ZM53 63L52.6464 63.3536C52.7402 63.4473 52.8674 63.5 53 63.5L53 63ZM73 63L73.3536 62.6464C73.2598 62.5527 73.1326 62.5 73 62.5L73 63ZM83 73L82.6464 73.3535C82.7402 73.4473 82.8674 73.5 83 73.5L83 73ZM153 73L153.354 72.6464C153.26 72.5527 153.133 72.5 153 72.5L153 73ZM183 105.667C184.473 105.667 185.667 104.473 185.667 103C185.667 101.527 184.473 100.333 183 100.333C181.527 100.333 180.333 101.527 180.333 103C180.333 104.473 181.527 105.667 183 105.667ZM113 35.6667C114.473 35.6667 115.667 34.4728 115.667 33C115.667 31.5272 114.473 30.3333 113 30.3333C111.527 30.3333 110.333 31.5272 110.333 33C110.333 34.4728 111.527 35.6667 113 35.6667ZM113 55.6667C114.473 55.6667 115.667 54.4728 115.667 53C115.667 51.5272 114.473 50.3333 113 50.3333C111.527 50.3333 110.333 51.5272 110.333 53C110.333 54.4728 111.527 55.6667 113 55.6667ZM183 45.6667C184.473 45.6667 185.667 44.4728 185.667 43C185.667 41.5272 184.473 40.3333 183 40.3333C181.527 40.3333 180.333 41.5272 180.333 43C180.333 44.4728 181.527 45.6667 183 45.6667ZM173 5.66666C174.473 5.66666 175.667 4.47276 175.667 2.99999C175.667 1.52723 174.473 0.333328 173 0.333328C171.527 0.333329 170.333 1.52723 170.333 2.99999C170.333 4.47276 171.527 5.66666 173 5.66666ZM183 55.6667C184.473 55.6667 185.667 54.4728 185.667 53C185.667 51.5272 184.473 50.3333 183 50.3333C181.527 50.3333 180.333 51.5272 180.333 53C180.333 54.4728 181.527 55.6667 183 55.6667ZM113.354 43.3535L123.354 33.3535L122.646 32.6464L112.646 42.6464L113.354 43.3535ZM163.354 33.3535L173.354 23.3535L172.646 22.6464L162.646 32.6464L163.354 33.3535ZM113 42.5L53 42.5L53 43.5L113 43.5L113 42.5ZM52.6464 43.3536L62.6464 53.3536L63.3536 52.6464L53.3536 42.6464L52.6464 43.3536ZM63 53.5L83 53.5L83 52.5L63 52.5L63 53.5ZM82.6464 53.3536L92.6464 63.3535L93.3536 62.6464L83.3536 52.6464L82.6464 53.3536ZM93 63.5L173 63.5L173 62.5L93 62.5L93 63.5ZM133 42.5L113 42.5L113 43.5L133 43.5L133 42.5ZM132.646 43.3535L142.646 53.3535L143.354 52.6464L133.354 42.6464L132.646 43.3535ZM123 33.5L133 33.5L133 32.5L123 32.5L123 33.5ZM133 33.5L163 33.5L163 32.5L133 32.5L133 33.5ZM133.354 33.3535L143.354 23.3535L142.646 22.6464L132.646 32.6464L133.354 33.3535ZM143 23.5L153 23.5L153 22.5L143 22.5L143 23.5ZM43 32.5L3 32.5L3 33.5L43 33.5L43 32.5ZM63 13.5L93 13.5L93 12.5L63 12.5L63 13.5ZM93 13.5L123 13.5L123 12.5L93 12.5L93 13.5ZM43.3536 33.3536L53.3536 23.3536L52.6464 22.6464L42.6464 32.6464L43.3536 33.3536ZM53.3536 23.3536L63.3535 13.3536L62.6464 12.6464L52.6464 22.6464L53.3536 23.3536ZM53 23.5L123 23.5L123 22.5L53 22.5L53 23.5ZM123.354 23.3535L133.354 13.3535L132.646 12.6464L122.646 22.6464L123.354 23.3535ZM133 13.5L143 13.5L143 12.5L133 12.5L133 13.5ZM43 52.5L3 52.5L3 53.5L43 53.5L43 52.5ZM42.6464 53.3536L52.6464 63.3536L53.3536 62.6464L43.3536 52.6464L42.6464 53.3536ZM53 63.5L73 63.5L73 62.5L53 62.5L53 63.5ZM72.6464 63.3536L82.6464 73.3535L83.3536 72.6464L73.3536 62.6464L72.6464 63.3536ZM83 73.5L153 73.5L153 72.5L83 72.5L83 73.5ZM152.646 73.3535L182.646 103.354L183.354 102.646L153.354 72.6464L152.646 73.3535ZM53 42.5L3 42.5L3 43.5L53 43.5L53 42.5ZM43 33.5L113 33.5L113 32.5L43 32.5L43 33.5ZM83 53.5L113 53.5L113 52.5L83 52.5L83 53.5ZM183 42.5L133 42.5L133 43.5L183 43.5L183 42.5ZM153.354 23.3535L173.354 3.35355L172.646 2.64644L152.646 22.6464L153.354 23.3535ZM173.354 63.3535L183.354 53.3535L182.646 52.6464L172.646 62.6464L173.354 63.3535Z" fill="#012137"/>
</svg>
