<svg width="1028" height="1249" viewBox="0 0 1028 1249" fill="none" xmlns="http://www.w3.org/2000/svg">
<path d="M178.536 208.68L178.641 208.156L178.516 208.031C182.117 193.31 193.972 181.59 208.782 178.157C208.924 178.156 209.118 178.153 209.306 178.136C209.428 178.125 209.581 178.105 209.732 178.066C209.792 178.051 209.902 178.021 210.027 177.96C230.918 173.58 251.946 170.667 272.984 168.831C263.605 196.369 256.829 224.585 252.789 253.075C232.239 396.325 280.003 540.426 383.18 643.373C486.359 746.322 630.924 793.837 774.352 773.473L775.097 773.368L775.202 772.625C795.611 629.234 747.99 485.274 644.811 382.326C585.57 323.217 514.421 283.62 438.878 263.397L437.845 263.121L437.637 264.167C420.179 351.544 445.585 445.721 513.429 513.415C570.26 570.118 629.787 600.666 673.875 616.933C681.304 619.713 684.318 626.534 683.487 632.836C682.657 639.13 678.006 644.811 670.059 645.339L670.056 645.339C610.671 649.421 524.743 639.842 455.731 570.984C347.183 462.678 322.823 302.341 382.377 170.616C501.672 184.691 614.461 238.032 701.944 325.321C830.966 454.054 886.3 637.434 849.739 816.169C846.425 832.149 833.86 844.678 817.997 847.843L817.993 847.844C639.141 884.324 455.21 829.253 326.189 700.52C197.168 571.786 141.833 388.406 178.394 209.671L178.414 209.573V209.472C178.414 209.474 178.414 209.462 178.417 209.431C178.419 209.402 178.423 209.366 178.429 209.322C178.44 209.235 178.455 209.135 178.471 209.036C178.488 208.939 178.504 208.849 178.516 208.783L178.525 208.74L178.531 208.706L178.535 208.685L178.536 208.681L178.536 208.68Z" stroke="#F3F5F7" stroke-width="2"/>
<circle cx="555.479" cy="929.5" r="318.5" stroke="#F3F5F7" stroke-width="2"/>
<circle cx="555.479" cy="929.5" r="240.5" stroke="#F3F5F7" stroke-width="2"/>
<path d="M738.906 776.198L740.884 776.071L739.607 774.556C695.44 722.142 629.386 688.6 555.5 688.6C422.788 688.6 314.974 796.448 314.974 929.2C314.974 1061.95 422.788 1169.8 555.5 1169.8C687.811 1169.8 795.374 1062.6 796.022 930.4H873.998C873.457 1105.59 730.758 1248 555.5 1248C379.907 1248 237 1105.05 237 929.4C237 753.752 379.907 610.8 555.5 610.8C642.197 610.8 720.525 645.688 777.929 702.113L779.655 703.81L779.63 701.39C779.233 663.545 774.138 626.092 764.73 590H847.805C864.003 663.221 865.138 739.797 849.632 815.779C849.037 818.159 848.452 820.294 847.485 822.616L847.482 822.621C842.607 834.521 832.072 843.697 819.597 846.824C782.678 854.209 745.563 858 708.852 858C669.413 858 630.363 853.472 592.288 845.195V762.296C639.795 774.678 689.253 779.377 738.906 776.198Z" stroke="#1FA4F1" stroke-width="2"/>
</svg>
