<?xml version="1.0" standalone="no"?>
<!DOCTYPE svg PUBLIC "-//W3C//DTD SVG 20010904//EN"
 "http://www.w3.org/TR/2001/REC-SVG-20010904/DTD/svg10.dtd">
<svg version="1.0" xmlns="http://www.w3.org/2000/svg"
 width="722.000000pt" height="722.000000pt" viewBox="0 0 722.000000 722.000000"
 preserveAspectRatio="xMidYMid meet">
<metadata>
Created by potrace 1.11, written by Peter Selinger 2001-2013
</metadata>
<g transform="translate(0.000000,722.000000) scale(0.100000,-0.100000)"
fill="#000000" stroke="none">
<path d="M1815 6928 c-60 -5 -130 -12 -155 -16 l-45 -7 -9 -65 c-5 -36 -10
-234 -10 -440 -1 -316 2 -393 17 -490 23 -147 53 -277 83 -360 13 -36 24 -66
24 -67 0 -1 -27 9 -60 23 -82 33 -223 69 -360 90 -162 26 -682 24 -880 -3
l-135 -18 -7 -50 c-28 -215 -38 -629 -19 -791 6 -43 15 -128 21 -189 24 -229
92 -511 161 -664 16 -35 29 -67 29 -71 0 -5 20 -39 44 -76 25 -37 43 -71 40
-76 -3 -5 -1 -7 4 -6 5 2 21 -11 35 -28 l27 -32 -46 -68 c-68 -101 -102 -173
-149 -319 -92 -280 -120 -484 -119 -885 0 -271 23 -624 42 -641 8 -7 116 -22
287 -41 168 -19 585 -16 725 5 128 19 280 57 348 87 24 11 46 20 48 20 2 0 -8
-30 -22 -67 -33 -87 -59 -202 -76 -333 -18 -148 -16 -647 5 -859 9 -90 18
-165 19 -167 2 -1 94 -12 206 -23 371 -38 754 -26 1042 34 241 49 513 158 638
254 60 47 68 48 96 22 32 -30 181 -113 278 -154 170 -73 420 -131 673 -158
221 -23 718 -8 930 29 l40 7 11 80 c42 289 44 764 5 990 -19 114 -71 307 -92
348 -6 10 -9 20 -7 22 2 2 55 -13 118 -35 131 -44 289 -75 470 -91 206 -19
802 0 828 26 3 3 16 92 28 198 47 402 26 797 -62 1150 -19 76 -55 189 -79 250
-25 62 -47 117 -48 122 -2 6 -11 24 -22 40 -42 67 -46 76 -39 87 4 7 3 8 -4 4
-7 -4 -12 -4 -12 1 0 4 -20 34 -44 66 l-43 58 34 36 c170 186 284 607 302
1113 7 194 -1 585 -14 711 l-7 66 -95 12 c-194 23 -412 33 -613 28 -283 -9
-473 -40 -648 -108 -62 -23 -73 -25 -67 -11 37 87 67 222 91 407 14 102 17
203 16 475 0 190 -4 385 -9 435 l-8 90 -40 6 c-197 34 -845 37 -1080 5 -242
-32 -458 -87 -616 -157 -88 -39 -208 -110 -233 -138 -18 -20 -18 -20 -40 1
-41 38 -108 80 -199 123 -196 93 -423 148 -729 180 -163 17 -634 19 -823 3z
m2555 -493 c103 -20 224 -72 320 -136 142 -95 232 -208 286 -359 24 -66 27
-90 27 -200 0 -99 -4 -142 -23 -210 -75 -279 -273 -538 -573 -753 -77 -54
-102 -68 -116 -61 -18 9 -90 69 -175 146 -23 21 -43 38 -46 38 -13 0 -415
-411 -415 -425 0 -8 290 -305 644 -659 443 -444 641 -649 635 -658 -4 -7 -3
-10 1 -5 11 10 46 -23 38 -36 -3 -5 -2 -7 4 -4 5 3 74 -59 154 -139 79 -79
139 -144 134 -144 -6 0 -3 -5 5 -10 8 -5 15 -15 15 -22 1 -7 6 -12 13 -11 12
3 62 -57 62 -75 0 -7 4 -12 8 -12 16 0 32 -77 32 -151 0 -54 -6 -84 -21 -116
-12 -24 -18 -47 -15 -50 4 -4 226 213 495 481 269 269 493 489 497 489 16 1
73 -93 90 -146 22 -74 29 -224 14 -311 -17 -98 -58 -209 -111 -301 -51 -91
-180 -232 -199 -220 -9 5 -11 4 -6 -3 9 -15 -79 -71 -164 -105 -183 -73 -418
-59 -624 37 -213 99 -414 282 -587 536 -85 124 -87 106 27 215 l99 95 -215
210 c-190 186 -267 255 -246 222 8 -13 -253 -284 -267 -275 -5 3 -7 2 -4 -3 5
-9 -967 -993 -1279 -1295 -171 -166 -249 -199 -385 -165 -35 9 -68 21 -73 26
-6 6 -17 10 -25 10 -9 0 46 -62 122 -138 76 -76 136 -140 135 -142 -2 -3 -1
-4 2 -2 9 6 239 -232 233 -241 -3 -6 -2 -7 4 -4 11 7 166 -146 158 -156 -3 -4
-2 -5 2 -2 10 8 263 -247 256 -258 -3 -6 -1 -7 4 -4 6 4 18 -2 28 -13 18 -20
18 -21 -1 -36 -39 -31 -143 -75 -215 -90 -169 -36 -410 14 -572 119 -99 64
-214 177 -201 198 3 5 0 8 -6 7 -12 -3 -62 77 -65 104 0 9 -6 22 -12 30 -51
62 -64 305 -25 463 38 150 146 350 260 477 46 53 206 207 210 204 2 -2 20 12
40 30 20 19 67 55 104 81 l67 46 24 -19 c14 -11 63 -54 110 -96 46 -43 88 -78
92 -78 4 0 96 85 205 190 108 104 200 187 204 185 3 -3 4 -2 1 2 -3 3 0 12 6
19 8 9 3 21 -18 45 -15 17 -27 36 -25 41 1 5 -2 7 -7 4 -13 -8 -52 34 -44 47
3 6 2 7 -4 4 -11 -7 -519 499 -515 514 1 6 -2 8 -7 5 -10 -7 -960 957 -1055
1071 -72 86 -91 214 -48 322 12 30 20 56 18 58 -2 2 -128 -121 -280 -272 -170
-168 -282 -273 -289 -269 -7 4 -9 3 -4 -1 10 -11 -63 -86 -76 -78 -6 3 -7 2
-4 -4 8 -13 -107 -126 -118 -116 -4 5 -5 3 -2 -3 3 -6 -45 -61 -107 -123 -121
-121 -117 -119 -151 -52 -144 283 -30 724 238 927 276 209 653 189 989 -53
134 -97 314 -295 421 -464 l36 -56 -90 -89 c-49 -49 -89 -92 -89 -96 0 -9 5
-15 242 -257 l180 -185 349 355 c192 195 354 353 360 351 6 -1 8 2 5 6 -9 15
814 821 941 921 116 92 228 110 408 65 22 -5 -64 86 -353 372 -211 208 -434
428 -495 487 l-112 109 24 19 c13 10 28 16 34 12 5 -3 7 -2 4 4 -14 22 122 67
233 76 50 4 135 -3 210 -18z m-1236 -15 c66 -18 148 -50 166 -67 7 -7 -323
-332 -332 -327 -5 3 -7 1 -6 -5 2 -5 -42 -53 -97 -106 -227 -219 -516 -508
-511 -512 3 -3 21 0 41 7 19 6 73 12 118 12 154 -1 233 -48 447 -266 84 -86
158 -156 164 -156 5 0 106 95 223 212 l213 212 -30 31 c-17 17 -28 34 -25 38
3 4 2 5 -2 2 -10 -8 -83 67 -76 78 3 6 2 7 -4 4 -5 -3 -29 13 -52 37 -39 40
-42 47 -36 77 16 71 69 192 113 258 52 77 127 161 144 161 20 0 95 -86 137
-158 23 -38 64 -119 90 -180 l50 -111 -472 -477 c-260 -262 -475 -481 -479
-487 -11 -19 -39 0 -197 131 -24 21 -53 43 -63 50 -10 7 -15 18 -12 24 4 6 2
8 -3 5 -13 -8 -36 17 -25 28 4 5 2 5 -4 2 -6 -4 -47 31 -90 76 -127 131 -240
286 -230 313 3 8 1 12 -4 9 -13 -8 -56 80 -80 166 -61 223 21 532 189 710 46
48 73 69 81 64 8 -5 11 -4 6 3 -6 10 62 59 77 54 4 -1 7 2 7 8 0 20 137 75
250 101 57 13 228 2 314 -21z m2720 -1411 c221 -56 399 -205 509 -424 68 -137
89 -231 76 -348 -15 -133 -63 -297 -87 -297 -5 0 -220 212 -478 470 -257 259
-471 470 -476 470 -4 0 2 -19 12 -42 43 -94 18 -246 -60 -367 -44 -67 -159
-183 -173 -174 -6 3 -7 2 -4 -4 3 -5 -39 -54 -94 -109 l-100 -98 58 -55 c246
-230 332 -315 326 -325 -3 -6 -2 -8 2 -3 5 4 19 -3 32 -15 l24 -23 57 60 c32
33 83 88 114 123 66 72 82 75 175 40 73 -27 115 -52 105 -63 -4 -5 -1 -5 6 -1
16 9 115 -54 191 -122 l54 -48 -34 -38 c-30 -35 -131 -116 -143 -116 -3 0 -25
-13 -49 -30 -25 -16 -92 -52 -150 -79 l-105 -49 -46 47 c-26 26 -43 51 -39 56
5 4 3 5 -3 2 -13 -7 -541 530 -536 545 1 5 -1 7 -6 4 -9 -6 -322 307 -322 321
0 13 101 148 108 146 4 -2 7 1 7 5 0 15 102 137 176 211 206 205 391 318 577
351 66 12 203 2 296 -21z m-3322 -2090 c-154 -240 -448 -522 -651 -623 -112
-56 -178 -71 -316 -71 -148 1 -209 14 -343 76 -97 45 -166 97 -239 180 -101
115 -178 281 -190 406 -10 112 33 384 67 417 8 8 123 -102 400 -383 214 -216
388 -398 387 -403 -1 -6 6 -12 16 -13 21 -4 64 -55 59 -70 -2 -5 0 -7 4 -2 4
4 27 -11 51 -35 23 -23 45 -40 47 -37 3 3 -1 27 -10 54 -18 61 -20 166 -4 225
26 97 60 142 250 332 l187 188 -171 166 c-94 92 -191 186 -216 210 l-46 44
-64 -59 c-36 -33 -92 -84 -125 -115 -69 -65 -90 -69 -181 -35 -65 25 -170 82
-200 110 -11 10 -24 19 -29 19 -14 0 -115 91 -115 104 0 6 12 25 28 42 63 69
196 149 377 228 l80 35 482 -482 482 -481 -17 -27z m1858 -418 c125 -86 194
-145 320 -271 160 -160 275 -342 315 -500 26 -99 17 -298 -18 -405 -29 -88
-99 -212 -117 -207 -6 1 -9 -2 -5 -7 8 -15 -113 -134 -181 -177 -85 -55 -188
-99 -284 -124 -94 -24 -165 -23 -300 5 -76 16 -200 67 -200 82 1 4 158 166
350 358 193 193 350 351 350 352 0 0 56 57 125 126 69 68 125 127 125 130 0 3
-17 -1 -37 -10 -55 -24 -202 -23 -273 1 -85 29 -186 98 -173 119 3 6 1 7 -4 4
-8 -5 -93 74 -93 86 0 1 -41 46 -92 100 l-91 97 -219 -217 c-120 -119 -218
-220 -218 -223 0 -3 52 -58 114 -121 l115 -116 -15 -59 c-9 -32 -32 -92 -53
-132 -40 -80 -170 -262 -186 -262 -15 0 -95 86 -127 135 -30 45 -130 253 -146
302 l-11 33 367 371 c202 204 414 420 471 479 58 60 110 106 115 103 6 -4 40
-27 76 -52z"/>
</g>
</svg>
