<?xml version="1.0" encoding="UTF-8" standalone="no"?>
<svg
   width="1050"
   height="84"
   viewBox="0 0 1050 84"
   fill="none"
   version="1.1"
   id="svg24"
   sodipodi:docname="bobrova_pavlova.svg"
   inkscape:version="1.1 (c68e22c387, 2021-05-23)"
   xmlns:inkscape="http://www.inkscape.org/namespaces/inkscape"
   xmlns:sodipodi="http://sodipodi.sourceforge.net/DTD/sodipodi-0.dtd"
   xmlns="http://www.w3.org/2000/svg"
   xmlns:svg="http://www.w3.org/2000/svg">
  <defs
     id="defs28" />
  <sodipodi:namedview
     id="namedview26"
     pagecolor="#ffffff"
     bordercolor="#666666"
     borderopacity="1.0"
     inkscape:pageshadow="2"
     inkscape:pageopacity="0.0"
     inkscape:pagecheckerboard="0"
     showgrid="false"
     inkscape:zoom="1.2733598"
     inkscape:cx="502.60734"
     inkscape:cy="42.014832"
     inkscape:window-width="2560"
     inkscape:window-height="1411"
     inkscape:window-x="7191"
     inkscape:window-y="-9"
     inkscape:window-maximized="1"
     inkscape:current-layer="svg24" />
  <path
     d="M 571,84 V 0 h 35.509 c 7.917,0 14.31,2.62 19.179,7.86 4.853,5.1957 7.478,12.118 7.304,19.26 0,7.76 -2.435,14.22 -7.304,19.38 -4.869,5.16 -11.262,7.74 -19.179,7.74 l -25.058,0.12 V 84 Z m 10.451,-39.12 24.464,-0.12 c 5.278,0 9.435,-1.7 12.47,-5.1 3.055,-3.5266 4.668,-8.0956 4.512,-12.78 0.172,-4.5679 -1.425,-9.0235 -4.453,-12.42 -2.969,-3.26 -7.145,-4.89 -12.529,-4.89 h -24.464 z"
     fill="#e4e4e4"
     id="path2" />
  <path
     d="M 629,84 663.586,0 h 10.966 L 703.835,70.92 731.672,0 H 743 L 709.258,84 H 698.292 L 690.097,64.2 H 648 L 639.966,84 Z m 22.535,-29 h 35.068 L 669.008,12.4 Z"
     fill="#e4e4e4"
     id="path4" />
  <path
     d="M 752,84 V 0 h 10.353 v 74.16 h 36 L 804,84 Z"
     fill="#e4e4e4"
     id="path6" />
  <path
     d="M 820.256,12.3192 C 824.123,8.42405 828.739,5.3283 833.834,3.21305 838.929,1.09779 844.4,0.00548254 849.928,2.05858e-5 855.457,-0.00544137 860.93,1.07605 866.029,3.18123 c 5.1,2.10519 9.722,5.19182 13.597,9.07937 7.909,7.9158 12.352,18.5754 12.374,29.6873 0.022,11.1119 -4.378,21.7887 -12.255,29.7353 -3.884,3.9002 -8.518,6.9981 -13.63,9.1129 C 861.003,82.9108 855.514,84 849.971,84 844.427,84 838.939,82.9108 833.827,80.7961 828.714,78.6813 824.081,75.5834 820.196,71.6832 812.365,63.7289 807.989,53.0757 808,41.9893 c 0.011,-11.0864 4.408,-21.7311 12.256,-29.6701 z m 7.258,52.5594 c 2.919,2.9695 6.414,5.3305 10.277,6.9428 3.863,1.6123 8.015,2.4431 12.209,2.4431 4.195,0 8.347,-0.8308 12.21,-2.4431 3.863,-1.6123 7.358,-3.9733 10.277,-6.9428 5.816,-6.2272 9.044,-14.3829 9.044,-22.8481 0,-8.4651 -3.228,-16.6209 -9.044,-22.848 -2.905,-2.9815 -6.39,-5.3546 -10.246,-6.9774 -3.856,-1.6229 -8.005,-2.46216 -12.198,-2.46763 -4.193,-0.00548 -8.344,0.82293 -12.205,2.43573 -3.861,1.6128 -7.352,3.9768 -10.265,6.9506 -2.977,3.0296 -5.315,6.6118 -6.877,10.5389 -1.562,3.9271 -2.319,8.121 -2.225,12.3385 -0.095,4.2127 0.654,8.4025 2.206,12.3285 1.552,3.9261 3.875,7.5111 6.837,10.5489 z"
     fill="#e4e4e4"
     id="path8" />
  <path
     d="M 925.898,84 892,0 h 11.34 L 931.206,70.92 960.279,0 h 10.978 L 1006,84 h -10.978 l -8.203,-19.8 h -41.86 L 936.997,84 Z m 22.439,-29 h 34.984 L 965.708,12.4 Z"
     fill="#e4e4e4"
     id="path10" />
  <path
     d="M 0,73.5933 V 0 h 38.1227 c 7.6246,0 13.6805,1.94325 18.1679,5.82976 2.2014,1.89787 3.9484,4.26184 5.1131,6.91864 1.1647,2.6569 1.7175,5.5393 1.618,8.4364 0.0947,4.1756 -1.067,8.2841 -3.3358,11.7978 -2.2161,3.3533 -5.4204,5.9419 -9.1733,7.4107 C 60.8375,43.4762 66,50.1952 66,60.5505 66,67.4276 63.657,72.8819 58.9711,76.9133 54.2852,80.9448 47.8652,82.9736 39.7112,83 H 5.48014 Z M 10.1264,36.5595 h 27.1624 c 4.7654,0 8.5776,-1.2647 11.4368,-3.7943 1.4206,-1.2756 2.5414,-2.8471 3.2826,-4.6027 0.7413,-1.7556 1.0848,-3.6522 1.0062,-5.5549 0.078,-1.8078 -0.2445,-3.6105 -0.9445,-5.2805 -0.7,-1.67 -1.7603,-3.1663 -3.106,-4.3831 C 46.2635,10.5331 42.5704,9.32762 37.8845,9.32762 H 10.0866 Z m 28.9494,36.9153 c 5.083,0 9.074,-1.2648 11.9729,-3.7943 2.8989,-2.5296 4.3484,-6.0472 4.3484,-10.5529 0,-4.7428 -1.5487,-8.2407 -4.6462,-10.4936 -3.0975,-2.2528 -7.1877,-3.3792 -12.2708,-3.3792 H 10.1264 v 28.22 z"
     fill="#e4e4e4"
     id="path12" />
  <path
     d="M 87.2595,12.1695 C 91.0822,8.24764 95.6994,5.1414 100.819,3.04748 105.938,0.953561 111.448,-0.0824233 117,0.00511977 122.528,-0.0767043 128.014,0.956667 133.112,3.0402 c 5.098,2.08354 9.698,5.17213 13.51,9.0714 3.982,3.8431 7.13,8.427 9.255,13.479 2.126,5.052 3.186,10.4688 3.117,15.928 0.092,5.4376 -0.946,10.8371 -3.052,15.874 -2.106,5.037 -5.235,9.6073 -9.201,13.4365 -3.823,3.9218 -8.44,7.0281 -13.559,9.122 -5.12,2.0939 -10.63,3.1299 -16.182,3.0424 -5.562,0.0991 -11.085,-0.9313 -16.215,-3.0257 C 95.6538,77.8734 91.0273,74.761 87.2,70.8291 83.2498,66.9917 80.1342,62.4186 78.0392,57.3827 75.9441,52.3468 74.9126,46.9513 75.0062,41.5186 74.9093,36.0745 75.945,30.6677 78.0508,25.6238 c 2.1059,-5.044 5.2383,-9.6206 9.2087,-13.4543 z m 7.2567,51.9015 c 2.8574,3.0133 6.3398,5.4011 10.2158,7.0055 3.876,1.6044 8.058,2.3888 12.268,2.3013 4.208,0.0924 8.388,-0.6859 12.264,-2.2836 3.876,-1.5977 7.359,-3.9783 10.22,-6.9845 2.961,-2.9998 5.285,-6.5399 6.836,-10.4169 1.552,-3.8769 2.301,-8.0143 2.206,-12.1742 0.17,-8.3809 -3.081,-16.4851 -9.042,-22.5331 -2.852,-3.0207 -6.333,-5.4148 -10.21,-7.0229 -3.876,-1.6081 -8.061,-2.39324 -12.274,-2.30318 -4.197,-0.08052 -8.364,0.70348 -12.229,2.30068 -3.864,1.5972 -7.3387,3.9715 -10.1953,6.9674 -2.9767,2.9917 -5.3139,6.5291 -6.8761,10.407 -1.5622,3.878 -2.3183,8.0194 -2.2246,12.1841 -0.0903,4.1535 0.6618,8.2835 2.2132,12.1535 1.5515,3.87 3.8718,7.4038 6.828,10.3989 z"
     fill="#e4e4e4"
     id="path14" />
  <path
     d="M 170,73.5933 V 0 h 38.7 c 7.74,0 13.888,1.95643 18.443,5.86929 2.235,1.89786 4.009,4.26181 5.191,6.91861 1.182,2.6569 1.744,5.5394 1.643,8.4364 0.096,4.1756 -1.084,8.2842 -3.387,11.7978 -2.249,3.3533 -5.502,5.9419 -9.312,7.4108 C 231.759,43.5157 237,50.2348 237,60.59 c 0,6.8771 -2.378,12.3314 -7.135,16.3629 C 225.108,80.9843 218.577,83 210.273,83 h -34.71 z m 10.28,-37.0338 h 27.574 c 4.837,0 8.707,-1.2647 11.61,-3.7943 1.442,-1.2756 2.58,-2.8471 3.332,-4.6027 0.753,-1.7556 1.101,-3.6522 1.022,-5.5549 0.079,-1.8078 -0.249,-3.6105 -0.959,-5.2805 -0.711,-1.67 -1.787,-3.1663 -3.153,-4.3831 -2.742,-2.4109 -6.491,-3.61638 -11.248,-3.61638 h -28.219 z m 29.428,36.9153 c 5.16,0 9.212,-1.2648 12.155,-3.7943 2.942,-2.5296 4.414,-6.0472 4.414,-10.5529 0,-4.7428 -1.572,-8.2407 -4.717,-10.4936 -3.144,-2.2528 -7.31,-3.3792 -12.497,-3.3792 H 180.28 v 28.22 z"
     fill="#e4e4e4"
     id="path16" />
  <path
     d="m 247,0 h 36.723 c 8.079,0 14.649,2.53611 19.708,7.60833 2.475,2.44947 4.42,5.35207 5.723,8.53817 1.304,3.1861 1.938,6.5919 1.867,10.0183 0.134,5.7844 -1.838,11.43 -5.57,15.9478 -3.582,4.3884 -8.633,7.4286 -14.281,8.5964 h -3.285 L 312,83 H 299.922 L 270.666,42.6857 h 11.507 c 4.782,0.155 9.437,-1.5042 12.975,-4.6243 1.695,-1.5446 3.027,-3.4238 3.907,-5.5103 0.88,-2.0866 1.287,-4.3318 1.194,-6.584 0.12,-4.3517 -1.503,-8.5797 -4.53,-11.7978 -3.019,-3.2014 -7.14,-4.80216 -12.363,-4.80216 H 257.772 V 83 H 247 Z"
     fill="#e4e4e4"
     id="path18" />
  <path
     d="M 330.26,12.1726 C 334.126,8.32377 338.742,5.26487 343.836,3.17479 348.93,1.08472 354.401,0.00541727 359.929,2.03408e-5 365.456,-0.00537659 370.929,1.06324 376.028,3.14336 c 5.098,2.08013 9.72,5.13 13.595,8.97124 3.982,3.8455 7.129,8.4323 9.255,13.4874 2.125,5.0551 3.185,10.4753 3.117,15.9378 0.086,5.4346 -0.955,10.8301 -3.06,15.8631 -2.106,5.033 -5.233,9.5999 -9.193,13.4269 -3.884,3.8538 -8.517,6.9148 -13.629,9.0044 C 371.002,81.9238 365.514,83 359.971,83 c -5.543,0 -11.031,-1.0762 -16.142,-3.1658 -5.112,-2.0896 -9.745,-5.1506 -13.629,-9.0044 -3.945,-3.8352 -7.058,-8.4048 -9.153,-13.4369 -2.095,-5.032 -3.129,-10.4234 -3.041,-15.8531 -0.097,-5.4474 0.939,-10.8576 3.045,-15.9046 2.106,-5.0471 5.238,-9.6266 9.209,-13.4626 z m 7.256,51.9337 c 2.92,2.9341 6.414,5.267 10.277,6.8601 3.862,1.5931 8.014,2.414 12.208,2.414 4.194,0 8.345,-0.8209 12.207,-2.414 3.863,-1.5931 7.357,-3.926 10.277,-6.8601 2.956,-2.9971 5.277,-6.5331 6.828,-10.4054 1.551,-3.8724 2.304,-8.005 2.213,-12.1611 0.171,-8.386 -3.081,-16.4953 -9.041,-22.5471 -2.905,-2.9459 -6.389,-5.2908 -10.245,-6.8943 -3.856,-1.6035 -8.005,-2.4328 -12.197,-2.43821 -4.192,-0.00541 -8.343,0.81311 -12.203,2.40671 -3.861,1.5936 -7.352,3.9294 -10.264,6.8679 -2.977,2.9935 -5.314,6.5331 -6.876,10.4134 -1.563,3.8804 -2.319,8.0244 -2.225,12.1916 -0.09,4.1561 0.662,8.2887 2.213,12.1611 1.552,3.8723 3.872,7.4083 6.828,10.4054 z"
     fill="#e4e4e4"
     id="path20" />
  <path
     d="M 437.292,83 404,0 h 11.137 L 442.505,70.0757 471.058,0 h 10.781 L 516,83 H 505.14 L 497.083,63.4357 H 456.011 L 448.192,83 Z m 22.037,-28.6548 h 34.358 L 476.389,12.2524 Z"
     fill="#e4e4e4"
     id="path22" />
</svg>
