<svg width="201" height="1305" viewBox="0 0 201 1305" fill="none" xmlns="http://www.w3.org/2000/svg">
<rect x="200" width="1" height="1000" fill="#E4E4E4"/>
<rect width="1" height="1000" fill="#E4E4E4"/>
<path d="M23.5533 76L200 76L200 166.686C200 184.823 195.341 199.229 186.023 209.903C181.472 215.14 175.805 219.296 169.435 222.066C163.065 224.837 156.153 226.152 149.208 225.915C139.196 226.14 129.346 223.377 120.921 217.98C112.881 212.709 106.675 205.086 103.153 196.159C95.7619 220.72 79.6524 233 54.8248 233C38.3362 233 25.259 227.427 15.5933 216.28C5.92762 205.133 1.06317 189.861 0.999996 170.464L0.999999 89.0361L23.5533 76ZM112.345 100.088L112.345 164.702C112.345 176.038 115.378 185.107 121.442 191.908C124.501 195.287 128.269 197.953 132.478 199.717C136.687 201.48 141.234 202.297 145.796 202.11C150.131 202.295 154.453 201.528 158.457 199.863C162.461 198.198 166.048 195.676 168.965 192.475C174.746 186.051 177.636 177.266 177.636 166.119L177.636 99.994L112.345 100.088ZM23.8376 168.953C23.8376 181.045 26.87 190.538 32.9348 197.434C38.9995 204.33 47.4333 207.778 58.2362 207.778C69.6076 207.778 77.994 204.094 83.3955 196.726C88.7969 189.357 91.4976 179.628 91.4976 167.536L91.4976 100.088L23.8376 100.088L23.8376 168.953Z" fill="#E4E4E4"/>
<path d="M170.822 282.189C180.226 291.291 187.673 302.284 192.693 314.473C197.714 326.663 200.198 339.782 199.988 353.001C200.184 366.163 197.706 379.224 192.711 391.362C187.715 403.5 180.31 414.452 170.961 423.529C161.747 433.01 150.757 440.504 138.644 445.565C126.532 450.626 113.544 453.15 100.455 452.987C87.4182 453.205 74.4724 450.733 62.396 445.719C50.3195 440.705 39.3617 433.254 30.1809 423.812C20.7779 414.711 13.3304 403.717 8.30999 391.528C3.28964 379.339 0.805781 366.22 1.01567 353.001C0.777935 339.757 3.24852 326.608 8.26999 314.392C13.2915 302.176 20.7536 291.16 30.181 282.048C39.3813 272.642 50.3458 265.224 62.4199 260.236C74.4939 255.248 87.4299 252.792 100.455 253.015C113.508 252.784 126.471 255.25 138.565 260.264C150.658 265.278 161.631 272.736 170.822 282.189ZM46.3839 299.467C39.1594 306.27 33.4344 314.561 29.5876 323.79C25.7409 333.019 23.8603 342.975 24.0701 353.001C23.8485 363.019 25.7147 372.972 29.5453 382.2C33.3759 391.428 39.0836 399.723 46.2913 406.534C53.4836 413.584 61.9713 419.116 71.2666 422.81C80.5619 426.504 90.4816 428.289 100.455 428.061C120.549 428.467 139.98 420.725 154.481 406.534C161.723 399.743 167.463 391.456 171.319 382.225C175.174 372.994 177.057 363.032 176.841 353.001C177.034 343.007 175.154 333.085 171.325 323.884C167.495 314.682 161.802 306.41 154.62 299.609C147.447 292.522 138.966 286.957 129.668 283.237C120.37 279.518 110.441 277.717 100.455 277.941C90.497 277.725 80.5949 279.516 71.3163 283.21C62.0377 286.904 53.5651 292.429 46.3839 299.467Z" fill="#E4E4E4"/>
<path d="M23.5533 481L200 481L200 572.264C200 590.516 195.309 605.014 185.928 615.756C181.378 621.026 175.71 625.209 169.34 627.997C162.97 630.785 156.059 632.108 149.113 631.87C139.101 632.097 129.251 629.316 120.826 623.884C112.787 618.579 106.58 610.908 103.059 601.924C95.6671 626.641 79.5576 639 54.73 639C38.2414 639 25.1643 633.391 15.4986 622.173C5.83285 610.955 0.999995 595.555 0.999996 575.971L0.999999 494.119L23.5533 481ZM112.345 505.242L112.345 570.267C112.345 581.675 115.378 590.801 121.442 597.646C124.501 601.047 128.269 603.73 132.478 605.505C136.687 607.279 141.234 608.101 145.796 607.913C150.131 608.1 154.453 607.328 158.457 605.652C162.461 603.977 166.048 601.438 168.965 598.217C174.746 591.752 177.636 582.911 177.636 571.693L177.636 505.147L112.345 505.242ZM23.8376 574.64C23.8376 586.809 26.87 596.363 32.9348 603.303C38.9995 610.242 47.4333 613.712 58.2362 613.712C69.6076 613.712 77.994 610.005 83.3955 602.59C88.7969 595.174 91.4976 585.351 91.4976 573.119L91.4976 505.242L23.8376 505.242L23.8376 574.64Z" fill="#E4E4E4"/>
<path d="M200 665L200 749.746C200 768.39 193.919 783.55 181.758 795.226C175.886 800.936 168.926 805.426 161.287 808.433C153.648 811.441 145.483 812.905 137.268 812.74C123.399 813.049 109.863 808.499 99.0312 799.887C88.5097 791.62 81.2206 779.965 78.4205 766.93L78.4205 759.35L0.999993 815L0.999995 787.128L97.6571 719.614L97.6571 746.168C97.2855 757.203 101.264 767.947 108.744 776.111C112.448 780.022 116.953 783.096 121.956 785.127C126.959 787.157 132.342 788.097 137.741 787.881C148.175 788.16 158.312 784.414 166.028 777.429C173.704 770.461 177.541 760.951 177.541 748.898L177.541 689.859L0.999999 689.859L1 665L200 665Z" fill="#E4E4E4"/>
<path d="M170.815 862.189C180.043 871.396 187.377 882.385 192.388 894.515C197.399 906.644 199.987 919.67 200 932.83C200.013 945.991 197.451 959.022 192.464 971.161C187.476 983.301 180.164 994.305 170.954 1003.53C161.734 1013.01 150.737 1020.51 138.617 1025.57C126.497 1030.63 113.501 1033.15 100.404 1032.99C87.3747 1033.19 74.4385 1030.72 62.3714 1025.7C50.3043 1020.69 39.3547 1013.24 30.1791 1003.81C20.9394 994.566 13.6002 983.535 8.59028 971.365C3.58032 959.194 1.00001 946.129 1.00001 932.931C1.00001 919.733 3.58032 906.667 8.59028 894.497C13.6002 882.326 20.9394 871.295 30.1792 862.048C39.3743 852.654 50.3305 845.243 62.3953 840.255C74.46 835.267 87.3864 832.805 100.404 833.015C113.465 832.784 126.437 835.25 138.537 840.264C150.638 845.278 161.618 852.736 170.815 862.189ZM46.2995 879.468C39.2645 886.419 33.6713 894.739 29.8516 903.935C26.032 913.131 24.0638 923.016 24.0638 933.002C24.0638 942.988 26.032 952.872 29.8516 962.068C33.6713 971.264 39.2645 979.584 46.2995 986.536C53.4851 993.574 61.963 999.099 71.2473 1002.79C80.5316 1006.49 90.4399 1008.28 100.404 1008.06C120.511 1008.47 139.954 1000.73 154.463 986.536C161.526 979.62 167.148 971.323 170.993 962.142C174.838 952.961 176.826 943.085 176.839 933.102C176.852 923.12 174.889 913.238 171.068 904.047C167.248 894.856 161.647 886.544 154.602 879.609C147.425 872.522 138.939 866.957 129.635 863.237C120.331 859.518 110.396 857.717 100.404 857.941C90.4399 857.726 80.5316 859.516 71.2473 863.21C61.963 866.904 53.4852 872.429 46.2995 879.468Z" fill="#E4E4E4"/>
<path d="M1.00001 1116.66L200 1037L200 1063.65L31.9872 1129.14L200 1197.46L200 1223.26L1 1305L1 1279.01L47.9072 1259.73L47.9072 1161.46L1.00001 1142.74L1.00001 1116.66ZM69.7024 1169.39L69.7024 1251.61L170.624 1210.22L69.7024 1169.39Z" fill="#E4E4E4"/>
</svg>
