<?xml version="1.0" encoding="UTF-8" standalone="no"?>
<svg
   width="201"
   height="1320"
   viewBox="0 0 201 1320"
   fill="none"
   version="1.1"
   id="svg18"
   sodipodi:docname="bobrova_text.svg"
   inkscape:version="1.1 (c68e22c387, 2021-05-23)"
   xmlns:inkscape="http://www.inkscape.org/namespaces/inkscape"
   xmlns:sodipodi="http://sodipodi.sourceforge.net/DTD/sodipodi-0.dtd"
   xmlns="http://www.w3.org/2000/svg"
   xmlns:svg="http://www.w3.org/2000/svg">
  <defs
     id="defs22" />
  <sodipodi:namedview
     id="namedview20"
     pagecolor="#ffffff"
     bordercolor="#666666"
     borderopacity="1.0"
     inkscape:pageshadow="2"
     inkscape:pageopacity="0.0"
     inkscape:pagecheckerboard="0"
     showgrid="false"
     inkscape:zoom="0.66896552"
     inkscape:cx="-20.927835"
     inkscape:cy="580.74742"
     inkscape:window-width="2400"
     inkscape:window-height="1321"
     inkscape:window-x="4791"
     inkscape:window-y="-9"
     inkscape:window-maximized="1"
     inkscape:current-layer="svg18" />
  <path
     d="M 23.5533,10 H 200 v 90.686 c 0,18.137 -4.659,32.543 -13.977,43.217 -4.551,5.237 -10.218,9.393 -16.588,12.163 -6.37,2.771 -13.282,4.086 -20.227,3.849 -10.012,0.225 -19.862,-2.538 -28.287,-7.935 -8.04,-5.271 -14.246,-12.894 -17.768,-21.821 C 95.7619,154.72 79.6524,167 54.8248,167 38.3362,167 25.259,161.427 15.5933,150.28 5.92762,139.133 1.06317,123.861 0.999996,104.464 l 3e-6,-81.4279 z m 88.7917,24.088 v 64.614 c 0,11.336 3.033,20.405 9.097,27.206 3.059,3.379 6.827,6.045 11.036,7.809 4.209,1.763 8.756,2.58 13.318,2.393 4.335,0.185 8.657,-0.582 12.661,-2.247 4.004,-1.665 7.591,-4.187 10.508,-7.388 5.781,-6.424 8.671,-15.209 8.671,-26.356 V 33.994 Z m -88.5074,68.865 c 0,12.092 3.0324,21.585 9.0972,28.481 6.0647,6.896 14.4985,10.344 25.3014,10.344 11.3714,0 19.7578,-3.684 25.1593,-11.052 5.4014,-7.369 8.1021,-17.098 8.1021,-29.19 V 34.088 h -67.66 z"
     fill="#e4e4e4"
     id="path6" />
  <path
     d="m 170.822,216.189 c 9.404,9.102 16.851,20.095 21.871,32.284 5.021,12.19 7.505,25.309 7.295,38.528 0.196,13.162 -2.282,26.223 -7.277,38.361 -4.996,12.138 -12.401,23.09 -21.75,32.167 -9.214,9.481 -20.204,16.975 -32.317,22.036 -12.112,5.061 -25.1,7.585 -38.189,7.422 -13.0368,0.218 -25.9826,-2.254 -38.059,-7.268 C 50.3195,374.705 39.3617,367.254 30.1809,357.812 20.7779,348.711 13.3304,337.717 8.30999,325.528 3.28964,313.339 0.805781,300.22 1.01567,287.001 0.777935,273.757 3.24852,260.608 8.26999,248.392 13.2915,236.176 20.7536,225.16 30.181,216.048 c 9.2003,-9.406 20.1648,-16.824 32.2389,-21.812 12.074,-4.988 25.01,-7.444 38.0351,-7.221 13.053,-0.231 26.016,2.235 38.11,7.249 12.093,5.014 23.066,12.472 32.257,21.925 z M 46.3839,233.467 c -7.2245,6.803 -12.9495,15.094 -16.7963,24.323 -3.8467,9.229 -5.7273,19.185 -5.5175,29.211 -0.2216,10.018 1.6446,19.971 5.4752,29.199 3.8306,9.228 9.5383,17.523 16.746,24.334 7.1923,7.05 15.68,12.582 24.9753,16.276 9.2953,3.694 19.215,5.479 29.1884,5.251 20.094,0.406 39.525,-7.336 54.026,-21.527 7.242,-6.791 12.982,-15.078 16.838,-24.309 3.855,-9.231 5.738,-19.193 5.522,-29.224 0.193,-9.994 -1.687,-19.916 -5.516,-29.117 -3.83,-9.202 -9.523,-17.474 -16.705,-24.275 -7.173,-7.087 -15.654,-12.652 -24.952,-16.372 -9.298,-3.719 -19.227,-5.52 -29.213,-5.296 -9.958,-0.216 -19.8601,1.575 -29.1387,5.269 -9.2786,3.694 -17.7512,9.219 -24.9324,16.257 z"
     fill="#e4e4e4"
     id="path8" />
  <path
     d="M 23.5533,415 H 200 v 91.264 c 0,18.252 -4.691,32.75 -14.072,43.492 -4.55,5.27 -10.218,9.453 -16.588,12.241 -6.37,2.788 -13.281,4.111 -20.227,3.873 -10.012,0.227 -19.862,-2.554 -28.287,-7.986 -8.039,-5.305 -14.246,-12.976 -17.767,-21.96 C 95.6671,560.641 79.5576,573 54.73,573 38.2414,573 25.1643,567.391 15.4986,556.173 5.83285,544.955 0.999995,529.555 0.999996,509.971 l 3e-6,-81.852 z m 88.7917,24.242 v 65.025 c 0,11.408 3.033,20.534 9.097,27.379 3.059,3.401 6.827,6.084 11.036,7.859 4.209,1.774 8.756,2.596 13.318,2.408 4.335,0.187 8.657,-0.585 12.661,-2.261 4.004,-1.675 7.591,-4.214 10.508,-7.435 5.781,-6.465 8.671,-15.306 8.671,-26.524 V 439.147 Z M 23.8376,508.64 c 0,12.169 3.0324,21.723 9.0972,28.663 6.0647,6.939 14.4985,10.409 25.3014,10.409 11.3714,0 19.7578,-3.707 25.1593,-11.122 5.4014,-7.416 8.1021,-17.239 8.1021,-29.471 v -67.877 h -67.66 z"
     fill="#e4e4e4"
     id="path10" />
  <path
     d="m 200,599 v 84.746 c 0,18.644 -6.081,33.804 -18.242,45.48 -5.872,5.71 -12.832,10.2 -20.471,13.207 -7.639,3.008 -15.804,4.472 -24.019,4.307 -13.869,0.309 -27.405,-4.241 -38.2368,-12.853 C 88.5097,725.62 81.2206,713.965 78.4205,700.93 v -7.58 L 0.999993,749 l 2e-6,-27.872 96.657105,-67.514 v 26.554 c -0.3716,11.035 3.6069,21.779 11.0869,29.943 3.704,3.911 8.209,6.985 13.212,9.016 5.003,2.03 10.386,2.97 15.785,2.754 10.434,0.279 20.571,-3.467 28.287,-10.452 7.676,-6.968 11.513,-16.478 11.513,-28.531 V 623.859 H 0.999999 L 1,599 Z"
     fill="#e4e4e4"
     id="path12" />
  <path
     d="m 170.815,796.189 c 9.228,9.207 16.562,20.196 21.573,32.326 5.011,12.129 7.599,25.155 7.612,38.315 0.013,13.161 -2.549,26.192 -7.536,38.331 -4.988,12.14 -12.3,23.144 -21.51,32.369 -9.22,9.48 -20.217,16.98 -32.337,22.04 -12.12,5.06 -25.116,7.58 -38.213,7.42 -13.0293,0.2 -25.9655,-2.27 -38.0326,-7.29 C 50.3043,954.69 39.3547,947.24 30.1791,937.81 20.9394,928.566 13.6002,917.535 8.59028,905.365 3.58032,893.194 1.00001,880.129 1.00001,866.931 c 0,-13.198 2.58031,-26.264 7.59027,-38.434 5.00992,-12.171 12.34912,-23.202 21.58892,-32.449 9.1951,-9.394 20.1513,-16.805 32.2161,-21.793 12.0647,-4.988 24.9911,-7.45 38.0087,-7.24 13.061,-0.231 26.033,2.235 38.133,7.249 12.101,5.014 23.081,12.472 32.278,21.925 z M 46.2995,813.468 c -7.035,6.951 -12.6282,15.271 -16.4479,24.467 -3.8196,9.196 -5.7878,19.081 -5.7878,29.067 0,9.986 1.9682,19.87 5.7878,29.066 3.8197,9.196 9.4129,17.516 16.4479,24.468 7.1856,7.038 15.6635,12.563 24.9478,16.254 9.2843,3.7 19.1926,5.49 29.1567,5.27 20.107,0.41 39.55,-7.33 54.059,-21.524 7.063,-6.916 12.685,-15.213 16.53,-24.394 3.845,-9.181 5.833,-19.057 5.846,-29.04 0.013,-9.982 -1.95,-19.864 -5.771,-29.055 -3.82,-9.191 -9.421,-17.503 -16.466,-24.438 -7.177,-7.087 -15.663,-12.652 -24.967,-16.372 -9.304,-3.719 -19.239,-5.52 -29.231,-5.296 -9.9641,-0.215 -19.8724,1.575 -29.1567,5.269 -9.2843,3.694 -17.7621,9.219 -24.9478,16.258 z"
     fill="#e4e4e4"
     id="path14" />
  <path
     d="M 1.00001,1050.66 200,971 v 26.65 L 31.9872,1063.14 200,1131.46 v 25.8 L 1,1239 v -25.99 l 46.9072,-19.28 v -98.27 L 1.00001,1076.74 Z m 68.70239,52.73 v 82.22 l 100.9216,-41.39 z"
     fill="#e4e4e4"
     id="path16" />
</svg>
