<?xml version="1.0" encoding="UTF-8" standalone="no"?>
<svg
   width="1710"
   height="115"
   viewBox="0 0 1710 115"
   fill="none"
   version="1.1"
   id="svg4"
   sodipodi:docname="call_text.svg"
   inkscape:version="1.1 (c68e22c387, 2021-05-23)"
   xmlns:inkscape="http://www.inkscape.org/namespaces/inkscape"
   xmlns:sodipodi="http://sodipodi.sourceforge.net/DTD/sodipodi-0.dtd"
   xmlns="http://www.w3.org/2000/svg"
   xmlns:svg="http://www.w3.org/2000/svg">
  <defs
     id="defs8" />
  <sodipodi:namedview
     id="namedview6"
     pagecolor="#ffffff"
     bordercolor="#666666"
     borderopacity="1.0"
     inkscape:pageshadow="2"
     inkscape:pageopacity="0.0"
     inkscape:pagecheckerboard="0"
     showgrid="false"
     inkscape:zoom="0.78014616"
     inkscape:cx="821.64091"
     inkscape:cy="54.476971"
     inkscape:window-width="2560"
     inkscape:window-height="1411"
     inkscape:window-x="7191"
     inkscape:window-y="-9"
     inkscape:window-maximized="1"
     inkscape:current-layer="svg4" />
  <path
     d="M 9.958,25.942 2.216,17.41 C 15.0667,6.13933 29.6553,0.503998 45.982,0.503998 c 11.7973,0 21.33,2.738662 28.598,8.216002 7.268,5.372 10.902,12.4293 10.902,21.172 v 0.316 c 0,6.4253 -1.896,11.9553 -5.688,16.59 -3.792,4.5293 -9.322,7.8473 -16.59,9.954 7.584,1.58 13.588,4.6873 18.012,9.322 4.5293,4.5293 6.794,10.1647 6.794,16.906 v 0.158 c 0,9.164 -3.95,16.748 -11.85,22.752 -7.9,6.004 -18.486,9.006 -31.758,9.006 -16.9587,0 -31.5473,-5.214 -43.766,-15.642 l 7.426,-9.006 c 11.1653,8.9533 23.3313,13.43 36.498,13.43 9.0587,0 16.3793,-1.949 21.962,-5.846 5.688,-4.0027 8.532,-9.006 8.532,-15.01 v -0.316 c 0,-6.4253 -2.7387,-11.3233 -8.216,-14.694 C 61.3607,64.4413 53.6187,62.756 43.612,62.756 H 24.652 V 51.854 H 43.77 c 8.532,0 15.4313,-1.7907 20.698,-5.372 5.372,-3.5813 8.058,-8.6373 8.058,-15.168 v -0.158 c 0,-5.7933 -2.4753,-10.4807 -7.426,-14.062 -4.8453,-3.5813 -11.3233,-5.372 -19.434,-5.372 -12.8507,0 -24.7533,4.74 -35.708,14.22 z M 102.615,113 153.017,1.60999 h 11.692 L 215.111,113 h -13.43 L 188.725,83.77 H 128.527 L 115.413,113 Z m 30.81,-40.448 h 50.402 L 158.705,16.146 Z M 236.921,113 V 2.39999 h 12.482 V 50.906 h 18.012 L 313.551,2.39999 h 16.274 L 278.001,55.646 332.195,113 h -16.59 L 267.889,62.124 H 249.403 V 113 Z m 101.46,0 50.402,-111.39001 h 11.692 L 450.877,113 h -13.43 L 424.491,83.77 H 364.293 L 351.179,113 Z m 30.81,-40.448 h 50.402 L 394.471,16.146 Z m 103.658,-46.61 -7.742,-8.532 c 12.85,-11.27067 27.439,-16.906002 43.766,-16.906002 11.797,0 21.33,2.738662 28.598,8.216002 7.268,5.372 10.902,12.4293 10.902,21.172 v 0.316 c 0,6.4253 -1.896,11.9553 -5.688,16.59 -3.792,4.5293 -9.322,7.8473 -16.59,9.954 7.584,1.58 13.588,4.6873 18.012,9.322 4.529,4.5293 6.794,10.1647 6.794,16.906 v 0.158 c 0,9.164 -3.95,16.748 -11.85,22.752 -7.9,6.004 -18.486,9.006 -31.758,9.006 -16.959,0 -31.548,-5.214 -43.766,-15.642 l 7.426,-9.006 c 11.165,8.9533 23.331,13.43 36.498,13.43 9.058,0 16.379,-1.949 21.962,-5.846 5.688,-4.0027 8.532,-9.006 8.532,-15.01 v -0.316 c 0,-6.4253 -2.739,-11.3233 -8.216,-14.694 -5.478,-3.3707 -13.22,-5.056 -23.226,-5.056 h -18.96 V 51.854 h 19.118 c 8.532,0 15.431,-1.7907 20.698,-5.372 5.372,-3.5813 8.058,-8.6373 8.058,-15.168 v -0.158 c 0,-5.7933 -2.476,-10.4807 -7.426,-14.062 -4.846,-3.5813 -11.324,-5.372 -19.434,-5.372 -12.851,0 -24.754,4.74 -35.708,14.22 z M 565.506,113 615.908,1.60999 H 627.6 L 678.002,113 h -13.43 L 651.616,83.77 H 591.418 L 578.304,113 Z m 30.81,-40.448 h 50.402 L 621.596,16.146 Z M 714.99,113 V 13.934 H 677.702 V 2.39999 H 764.76 V 13.934 H 727.472 V 113 Z m 72.463,0 V 2.39999 h 12.482 V 42.374 h 28.598 c 12.64,0 22.752,3.0547 30.336,9.164 7.584,6.004 11.376,14.4307 11.376,25.28 v 0.316 c 0,11.2707 -4.056,20.066 -12.166,26.386 -8.111,6.32 -18.539,9.48 -31.284,9.48 z m 12.482,-11.534 h 27.334 c 9.058,0 16.379,-2.1593 21.962,-6.478 5.582,-4.3187 8.374,-10.112 8.374,-17.38 v -0.316 c 0,-7.4787 -2.686,-13.272 -8.058,-17.38 -5.267,-4.108 -12.43,-6.162 -21.488,-6.162 H 799.935 Z M 940.831,25.942 933.089,17.41 C 945.94,6.13933 960.528,0.503998 976.855,0.503998 c 11.797,0 21.33,2.738662 28.595,8.216002 7.27,5.372 10.91,12.4293 10.91,21.172 v 0.316 c 0,6.4253 -1.9,11.9553 -5.69,16.59 -3.79,4.5293 -9.32,7.8473 -16.593,9.954 7.583,1.58 13.593,4.6873 18.013,9.322 4.53,4.5293 6.79,10.1647 6.79,16.906 v 0.158 c 0,9.164 -3.95,16.748 -11.85,22.752 -7.897,6.004 -18.483,9.006 -31.755,9.006 -16.959,0 -31.547,-5.214 -43.766,-15.642 l 7.426,-9.006 c 11.165,8.9533 23.331,13.43 36.498,13.43 9.059,0 16.379,-1.949 21.962,-5.846 5.685,-4.0027 8.535,-9.006 8.535,-15.01 v -0.316 c 0,-6.4253 -2.74,-11.3233 -8.219,-14.694 -5.477,-3.3707 -13.219,-5.056 -23.226,-5.056 h -18.96 V 51.854 h 19.118 c 8.532,0 15.431,-1.7907 20.698,-5.372 5.369,-3.5813 8.059,-8.6373 8.059,-15.168 v -0.158 c 0,-5.7933 -2.48,-10.4807 -7.427,-14.062 -4.845,-3.5813 -11.323,-5.372 -19.434,-5.372 -12.851,0 -24.753,4.74 -35.708,14.22 z M 1044.67,113 V 2.39999 h 47.08 c 12.53,0 22.17,3.26534 28.91,9.79601 4.74,4.8453 7.11,10.744 7.11,17.696 v 0.316 c 0,12.008 -5.84,20.54 -17.53,25.596 15.8,4.5293 23.7,13.43 23.7,26.702 v 0.316 c 0,9.3747 -3.64,16.748 -10.91,22.12 -7.26,5.372 -17.01,8.058 -29.23,8.058 z m 70.46,-81.054 V 31.63 c 0,-5.5827 -2.16,-9.954 -6.47,-13.114 -4.22,-3.2653 -10.22,-4.898 -18.02,-4.898 h -33.65 v 38.078 h 32.71 c 7.79,0 13.95,-1.6853 18.48,-5.056 4.64,-3.3707 6.95,-8.2687 6.95,-14.694 z m 6.17,50.086 v -0.316 c 0,-6.1093 -2.53,-10.7967 -7.59,-14.062 -4.95,-3.2653 -12.22,-4.898 -21.8,-4.898 h -34.92 v 39.026 h 37.13 c 8.53,0 15.17,-1.738 19.91,-5.214 4.84,-3.476 7.27,-8.3213 7.27,-14.536 z m 128.73,16.116 c -10.64,11.165 -24.17,16.748 -40.61,16.748 -16.43,0 -29.91,-5.53 -40.44,-16.59 -10.54,-11.1653 -15.8,-24.5953 -15.8,-40.29 V 57.7 c 0,-15.6947 5.31,-29.1247 15.95,-40.29 10.64,-11.27067 24.18,-16.906002 40.61,-16.906002 16.43,0 29.91,5.582672 40.45,16.748002 10.53,11.06 15.8,24.4373 15.8,40.132 V 57.7 c 0,15.6947 -5.32,29.1773 -15.96,40.448 z m -71.57,-8.058 c 8.32,8.848 18.74,13.272 31.28,13.272 12.53,0 22.86,-4.3713 30.97,-13.114 8.21,-8.7427 12.32,-19.4867 12.32,-32.232 V 57.7 c 0,-12.7453 -4.16,-23.542 -12.48,-32.39 -8.22,-8.848 -18.59,-13.272 -31.13,-13.272 -12.53,0 -22.91,4.3713 -31.12,13.114 -8.11,8.7427 -12.17,19.4867 -12.17,32.232 V 57.7 c 0,12.7453 4.11,23.542 12.33,32.39 z M 1292.31,113 V 2.39999 h 12.48 V 51.538 h 63.84 V 2.39999 h 12.48 V 113 h -12.48 V 63.23 h -63.84 V 113 Z m 212,-14.852 c -10.64,11.165 -24.17,16.748 -40.61,16.748 -16.43,0 -29.91,-5.53 -40.44,-16.59 -10.54,-11.1653 -15.8,-24.5953 -15.8,-40.29 V 57.7 c 0,-15.6947 5.32,-29.1247 15.95,-40.29 10.64,-11.27067 24.18,-16.906002 40.61,-16.906002 16.43,0 29.92,5.582672 40.45,16.748002 10.53,11.06 15.8,24.4373 15.8,40.132 V 57.7 c 0,15.6947 -5.32,29.1773 -15.96,40.448 z m -71.57,-8.058 c 8.32,8.848 18.75,13.272 31.28,13.272 12.54,0 22.86,-4.3713 30.97,-13.114 8.21,-8.7427 12.32,-19.4867 12.32,-32.232 V 57.7 c 0,-12.7453 -4.16,-23.542 -12.48,-32.39 -8.22,-8.848 -18.59,-13.272 -31.13,-13.272 -12.53,0 -22.91,4.3713 -31.12,13.114 -8.11,8.7427 -12.17,19.4867 -12.17,32.232 V 57.7 c 0,12.7453 4.11,23.542 12.33,32.39 z M 1546.59,113 V 2.39999 h 12.49 V 50.906 h 18.01 l 46.13,-48.50601 h 16.28 L 1587.67,55.646 1641.87,113 h -16.59 l -47.72,-50.876 h -18.48 V 113 Z"
     fill="#e4e4e4"
     id="path2" />
</svg>
