<svg width="323" height="30" viewBox="0 0 323 30" fill="none" xmlns="http://www.w3.org/2000/svg">
<path d="M180.344 27.7631V28.2631H180.844H184.219H184.719V27.7631V18.924L192.312 18.8885C192.313 18.8885 192.313 18.8885 192.314 18.8885C194.986 18.8883 197.187 18.0337 198.866 16.2981C200.536 14.5728 201.365 12.4118 201.366 9.85185C201.424 7.47028 200.526 5.16371 198.868 3.43316C197.19 1.67138 194.988 0.802734 192.312 0.802734H180.844H180.344V1.30273V27.7631ZM192.118 14.9023L184.719 14.9377V4.81732H192.121C193.755 4.81732 194.957 5.29579 195.8 6.19703C196.689 7.17032 197.156 8.44513 197.106 9.75075L197.105 9.76892L197.106 9.7871C197.152 11.1323 196.677 12.4456 195.777 13.4609C194.908 14.4085 193.71 14.9023 192.121 14.9023L192.118 14.9023Z" stroke="white"/>
<path d="M199.292 27.571L199.004 28.2631H199.754H203.244H203.58L203.707 27.9527L206.137 22.026H218.868L221.348 27.956L221.476 28.2631H221.809H225.3H225.636L225.763 27.9511L236.503 1.49078L236.782 0.802734H236.039H232.434H232.094L231.969 1.1184L223.562 22.3162L214.714 1.11021L214.586 0.802734H214.253H210.762H210.429L210.301 1.11068L199.292 27.571ZM207.675 18.1279L212.49 6.51085L217.338 18.1279H207.675Z" stroke="white"/>
<path d="M238.8 27.7631V28.2631H239.3H256.254H257.132L256.683 27.5077L254.842 24.4081L254.697 24.1634H254.412H243.175V1.30273V0.802734H242.675H239.3H238.8V1.30273V27.7631Z" stroke="white"/>
<path d="M260.885 4.61688L260.885 4.61765C258.263 7.26831 256.793 10.8239 256.789 14.5284C256.785 18.233 258.248 21.7914 260.865 24.4472L260.867 24.4492C262.166 25.7529 263.715 26.7881 265.424 27.4945C267.133 28.201 268.967 28.5648 270.82 28.5648C272.672 28.5648 274.507 28.201 276.215 27.4945C277.924 26.7881 279.474 25.7529 280.773 24.4492L280.774 24.4484C283.405 21.7949 284.877 18.2282 284.869 14.5146C284.862 10.8011 283.376 7.24027 280.734 4.59707C279.438 3.29754 277.892 2.26613 276.188 1.56279C274.483 0.859426 272.653 0.498182 270.806 0.500007C268.958 0.501831 267.129 0.866688 265.426 1.57342C263.723 2.28016 262.179 3.31469 260.885 4.61688ZM263.956 7.51223L263.956 7.51167C264.848 6.60152 265.918 5.87761 267.101 5.3836C268.284 4.88959 269.557 4.63573 270.842 4.63741C272.128 4.63909 273.4 4.89626 274.582 5.39336C275.762 5.88978 276.828 6.61516 277.717 7.52587C279.504 9.43986 280.494 11.9442 280.494 14.5422C280.494 17.1399 279.504 19.6439 277.718 21.5578C276.824 22.4647 275.755 23.1862 274.573 23.6794C273.389 24.1734 272.116 24.428 270.829 24.428C269.543 24.428 268.27 24.1734 267.086 23.6794C265.902 23.1855 264.831 22.4626 263.937 21.5539C263.029 20.6225 262.316 19.5238 261.841 18.3211C261.365 17.1181 261.135 15.8346 261.165 14.5441L261.165 14.5329L261.165 14.5217C261.136 13.23 261.368 11.9454 261.847 10.7422C262.326 9.5391 263.042 8.44115 263.956 7.51223Z" stroke="white"/>
<path d="M295.068 27.9517L295.195 28.2631H295.531H299.06H299.397L299.523 27.9511L301.928 22.026H314.569L317.048 27.956L317.177 28.2631H317.51H321H321.751L321.462 27.5704L310.415 1.11011L310.286 0.802734H309.953H306.463H306.129L306.001 1.11156L297.229 22.3114L288.823 1.1184L288.698 0.802734H288.358H284.753H284.009L284.29 1.49135L295.068 27.9517ZM303.412 18.1279L308.192 6.51468L313.039 18.1279H303.412Z" stroke="white"/>
<path d="M19.4486 3.06815C17.8896 1.73142 15.8128 1.0896 13.2742 1.0896H1H0.5V1.5896V25.0511V25.1873L0.569058 25.3046L2.33347 28.3035L2.47847 28.5499H2.76441L13.7856 28.5499L13.7872 28.5499C16.492 28.5413 18.6864 27.8739 20.3109 26.4901C21.9438 25.0991 22.7497 23.2144 22.7497 20.893C22.7497 19.1563 22.311 17.6805 21.3981 16.5041C20.6964 15.5997 19.7359 14.8998 18.5391 14.3916M19.4486 3.06815C19.4487 3.06829 19.4489 3.06843 19.4491 3.06858L19.1236 3.44811L19.4482 3.06784C19.4483 3.06794 19.4485 3.06804 19.4486 3.06815ZM19.4486 3.06815C20.2138 3.72145 20.8216 4.53562 21.227 5.45137C21.6306 6.3629 21.8233 7.35179 21.7909 8.3462M21.7909 8.3462C21.7908 8.34141 21.7907 8.33662 21.7906 8.33183L21.2907 8.34328M21.7909 8.3462C21.8207 9.77378 21.4183 11.1773 20.6356 12.3775L20.6327 12.382L20.6326 12.382C20.0879 13.1982 19.372 13.8822 18.5391 14.3916M21.7909 8.3462C21.7908 8.35101 21.7906 8.35581 21.7904 8.36062L21.2907 8.34328M21.2907 8.34328C21.3228 7.41972 21.1448 6.50078 20.7698 5.65378C20.3948 4.80678 19.8324 4.05316 19.1236 3.44812C17.6788 2.20911 15.729 1.5896 13.2742 1.5896H1.5H1V2.0896V25.0511L2.76441 28.0499H13.7856C16.4109 28.0415 18.4779 27.3947 19.9866 26.1095C21.4953 24.8243 22.2497 23.0855 22.2497 20.893C22.2497 17.835 20.8234 15.7717 17.9709 14.703C18.1656 14.6081 18.3552 14.5041 18.5391 14.3916M21.2907 8.34328C21.3212 9.67448 20.9472 10.9843 20.2168 12.1044C19.64 12.9686 18.8554 13.6734 17.9376 14.1592C18.1443 14.2316 18.3448 14.3091 18.5391 14.3916M17.5693 8.77515L17.5683 8.79644L17.5692 8.81773C17.5914 9.34977 17.4944 9.88028 17.2849 10.3716C17.0756 10.8625 16.759 11.3025 16.3571 11.6602C15.5492 12.3673 14.4498 12.7447 13.0057 12.7447H4.75959L4.74828 5.06324H13.1975C14.6209 5.06324 15.679 5.42434 16.4323 6.0897C16.8105 6.42858 17.108 6.8447 17.3042 7.30838C17.5007 7.7725 17.5911 8.27321 17.5693 8.77515ZM17.109 23.4253C16.2926 24.1307 15.1373 24.5133 13.581 24.5133H4.76033V16.5168H13.3892C14.9553 16.5168 16.1598 16.8603 17.0478 17.4998C17.8842 18.1021 18.3359 19.0466 18.3359 20.4394C18.3359 21.757 17.9139 22.7299 17.109 23.4253Z" stroke="white"/>
<path d="M31.4748 21.8366L31.4748 21.8366L31.4678 21.8294C30.5606 20.8993 29.849 19.8022 29.3732 18.6014C28.8975 17.4005 28.667 16.1192 28.6947 14.8308L28.6949 14.8198L28.6947 14.8089C28.6659 13.5172 28.8977 12.2326 29.3766 11.0295C29.8556 9.82636 30.5723 8.72841 31.4856 7.79949L31.4857 7.79957L31.493 7.79182C32.3657 6.86562 33.4276 6.13111 34.6093 5.63686C35.791 5.1426 37.0657 4.89988 38.3496 4.92481L38.3599 4.92501L38.3702 4.92479C39.6586 4.89691 40.9381 5.13993 42.1233 5.63743C43.3085 6.13493 44.372 6.87536 45.2432 7.80896L45.2431 7.80904L45.2506 7.81667C47.0796 9.69494 48.0763 12.2103 48.024 14.81L48.0238 14.8207L48.024 14.8314C48.0533 16.1218 47.8236 17.4054 47.3478 18.6084C46.872 19.8114 46.1595 20.9104 45.2508 21.842L45.2508 21.8419L45.2445 21.8486C44.3706 22.7779 43.3061 23.5142 42.121 24.0086C40.9359 24.503 39.6575 24.7439 38.3705 24.7153L38.3596 24.715L38.3488 24.7153C37.0609 24.7424 35.782 24.4996 34.5968 24.0031C33.4117 23.5067 32.3476 22.7681 31.4748 21.8366ZM32.9508 1.80555C31.2393 2.51397 29.6948 3.56464 28.4153 4.89159C27.0894 6.18853 26.0429 7.73663 25.3388 9.44312C24.6349 11.1493 24.2881 12.9783 24.3193 14.8202C24.2892 16.6581 24.6346 18.483 25.3348 20.1863C26.0353 21.8901 27.0763 23.4371 28.3955 24.7352C29.6767 26.0658 31.2244 27.1188 32.9401 27.8275C34.6552 28.536 36.5009 28.885 38.3598 28.8527C40.2152 28.8811 42.0566 28.5302 43.7679 27.8219C45.4794 27.1135 47.0239 26.0628 48.3034 24.7359C49.6276 23.4405 50.6733 21.8945 51.3772 20.1904C52.0813 18.4862 52.429 16.6592 52.3993 14.819C52.4212 12.9721 52.0663 11.1398 51.3559 9.43105C50.6455 7.72227 49.5941 6.17211 48.2647 4.87236C46.9885 3.55291 45.4498 2.5081 43.7452 1.80312C42.0408 1.0982 40.2073 0.74818 38.3596 0.774806C36.504 0.746251 34.6623 1.09714 32.9508 1.80555Z" stroke="white"/>
<path d="M55.3506 25.0511V25.1873L55.4196 25.3046L57.1841 28.3035L57.3291 28.5499H57.615H68.6234C71.3366 28.5499 73.5362 27.8872 75.1614 26.5027C76.7943 25.1117 77.6003 23.227 77.6003 20.9056C77.6003 19.1689 77.1616 17.6932 76.2487 16.5167C75.547 15.6123 74.5865 14.9124 73.3897 14.4042C74.2226 13.8948 74.9385 13.2108 75.4832 12.3946L75.4832 12.3946L75.4862 12.3901C76.2689 11.1899 76.6713 9.78638 76.6415 8.35881C76.6738 7.36439 76.4812 6.3755 76.0776 5.46397C75.6723 4.54855 75.0648 3.73465 74.3 3.08147C72.7411 1.73593 70.6639 1.0896 68.1248 1.0896H55.8506H55.3506V1.5896V25.0511ZM72.4198 8.77515L72.4189 8.79644L72.4198 8.81773C72.442 9.34977 72.345 9.88028 72.1355 10.3716C71.9262 10.8625 71.6096 11.3025 71.2077 11.6602C70.3998 12.3673 69.3003 12.7447 67.8563 12.7447H59.6102L59.5989 5.06324H68.048C69.4715 5.06324 70.5295 5.42433 71.2828 6.08967C71.661 6.42855 71.9585 6.84469 72.1548 7.30838C72.3513 7.7725 72.4417 8.27321 72.4198 8.77515ZM71.9724 23.4253C71.156 24.1307 70.0007 24.5133 68.4444 24.5133H59.6109V16.5168H68.2398C69.8151 16.5168 71.0236 16.8606 71.9112 17.4998C72.7475 18.1021 73.1993 19.0466 73.1993 20.4394C73.1993 21.757 72.7772 22.7299 71.9724 23.4253Z" stroke="white"/>
<path d="M80.6289 1.0896H80.1289V1.5896V28.0499V28.5499H80.6289H84.0043H84.5043V28.0499V5.07584H92.0209C93.5447 5.07584 94.6931 5.54605 95.5279 6.44628C96.3883 7.37706 96.8485 8.59846 96.8143 9.85429L96.8138 9.87128L96.8145 9.88826C96.8408 10.5336 96.7262 11.1771 96.4782 11.7754C96.2307 12.3725 95.856 12.9109 95.3789 13.3542C94.3674 14.2603 93.0357 14.7432 91.6666 14.698L91.6583 14.6978H91.6501H88.0446H87.0738L87.6375 15.4881L96.8048 28.3403L96.9543 28.5499H97.2118H100.996H101.984L101.399 27.7541L94.4273 18.2556H94.4693H94.5213L94.5723 18.2449C96.4539 17.8491 98.1379 16.8185 99.3334 15.3291C100.574 13.8002 101.232 11.8895 101.19 9.93034C101.212 8.7742 101.001 7.62535 100.569 6.5506C100.135 5.47304 99.489 4.49181 98.6674 3.66401C96.9766 1.94007 94.7839 1.0896 92.1359 1.0896H80.6289Z" stroke="white"/>
<path d="M126.694 14.81L126.694 14.8204L126.694 14.8308C126.722 16.1192 126.491 17.4005 126.015 18.6014C125.54 19.8019 124.828 20.8986 123.922 21.8286C123.027 22.7373 121.957 23.4602 120.773 23.954C119.589 24.448 118.316 24.7027 117.029 24.7027C115.743 24.7027 114.47 24.448 113.286 23.954C112.102 23.4602 111.031 22.7373 110.137 21.8286C109.23 20.8986 108.519 19.8019 108.043 18.6014C107.567 17.4005 107.337 16.1192 107.365 14.8308L107.365 14.8198L107.365 14.8089C107.336 13.5172 107.568 12.2326 108.047 11.0295C108.525 9.82636 109.242 8.72841 110.156 7.79949L110.156 7.79892C111.048 6.88878 112.118 6.16487 113.301 5.67086C114.484 5.17684 115.757 4.92299 117.042 4.92467C118.328 4.92635 119.6 5.18352 120.782 5.68062C121.964 6.17772 123.031 6.90441 123.921 7.81688C125.75 9.69513 126.746 12.2104 126.694 14.81ZM111.626 1.84808C109.924 2.55434 108.381 3.58795 107.088 4.88889C105.761 6.18638 104.713 7.73544 104.009 9.44312C103.305 11.1494 102.958 12.9784 102.989 14.8204C102.961 16.6562 103.307 18.4788 104.007 20.1798C104.708 21.8825 105.749 23.4284 107.068 24.7257C108.367 26.0285 109.916 27.063 111.624 27.7692C113.333 28.4757 115.167 28.8394 117.02 28.8394C118.872 28.8394 120.707 28.4757 122.415 27.7692C124.123 27.0631 125.672 26.0288 126.97 24.7262C128.294 23.4317 129.34 21.8868 130.045 20.1838C130.749 18.4819 131.097 16.6573 131.069 14.8192C131.091 12.9722 130.736 11.1399 130.026 9.43105C129.315 7.72105 128.263 6.16989 126.932 4.86956C125.636 3.57105 124.091 2.54039 122.387 1.83745C120.683 1.13408 118.853 0.772841 117.006 0.774665C115.158 0.77649 113.329 1.14135 111.626 1.84808Z" stroke="white"/>
<path d="M141.268 28.2385L141.395 28.5499H141.731H145.26H145.597L145.724 28.238L148.128 22.3128H160.756L163.236 28.2428L163.364 28.5499H163.697H167.213H167.964L167.674 27.8571L156.615 1.39678L156.486 1.0896H156.154H152.663H152.329L152.201 1.39843L143.429 22.5982L135.023 1.40526L134.898 1.0896H134.559H130.953H130.21L130.49 1.77822L141.268 28.2385ZM149.612 18.4148L154.392 6.80155L159.239 18.4148H149.612Z" stroke="white"/>
</svg>
