<svg width="1860" height="159" viewBox="0 0 1860 159" fill="none" xmlns="http://www.w3.org/2000/svg">
<path d="M1064.46 101.291V155.06H1045.84V2.25977H1112.01C1126.75 2.25977 1138.62 7.01335 1147.65 16.496L1147.65 16.4969C1156.67 25.9146 1161.55 38.4604 1161.22 51.4029L1161.22 51.4029V51.4154C1161.22 65.5054 1156.7 77.2052 1147.65 86.5517C1138.62 95.889 1126.75 100.571 1112.01 100.571L1112 100.571L1064.96 100.791L1064.46 100.793V101.291ZM1064.46 83.9332V84.4356L1064.97 84.4332L1110.89 84.2135C1120.91 84.2135 1128.86 81.0601 1134.67 74.7132L1134.67 74.7132L1134.67 74.7077C1140.49 68.1599 1143.56 59.6768 1143.27 50.9771C1143.6 42.4874 1140.55 34.2088 1134.78 27.8981L1134.78 27.8942C1129.09 21.8008 1121.1 18.782 1110.89 18.782H1064.96H1064.46V19.282V83.9332Z" stroke="white"/>
<path d="M1294.17 131.796L1345.55 2.25977H1365.42L1303.41 155.06H1283.79L1268.75 119.114L1268.63 118.807H1268.29H1190.41H1190.07L1189.95 119.118L1175.21 155.06H1156.01L1219.58 2.25977H1239.2L1293.25 131.804L1293.72 132.938L1294.17 131.796ZM1196.49 102.271L1196.2 102.963H1196.95H1261.83H1262.58L1262.29 102.27L1229.74 24.2711L1229.28 23.1616L1228.81 24.2722L1196.49 102.271Z" stroke="white"/>
<path d="M1472.68 138.044L1482.78 155.06H1385.62V2.25977H1404.24V137.544V138.044H1404.74H1472.68Z" stroke="white"/>
<path d="M1623.54 23.3145L1623.55 23.3149C1638.27 38.0468 1646.54 57.8836 1646.59 78.5604C1646.63 99.2368 1638.43 119.105 1623.77 133.894C1616.54 141.151 1607.91 146.916 1598.39 150.852C1588.87 154.787 1578.65 156.814 1568.33 156.814C1558.01 156.814 1547.79 154.787 1538.27 150.852C1528.75 146.916 1520.12 141.152 1512.89 133.895C1498.31 119.091 1490.16 99.2665 1490.18 78.6374C1490.2 58.0076 1498.39 38.1983 1513 23.423C1520.2 16.1756 1528.8 10.4153 1538.28 6.47917C1547.77 2.54294 1557.96 0.510203 1568.25 0.500038C1578.54 0.489874 1588.74 2.50248 1598.23 6.41997C1607.72 10.3374 1616.33 16.0811 1623.54 23.3145ZM1610.88 121.854L1610.88 121.854L1610.89 121.845C1621.87 110.091 1627.97 94.6953 1627.97 78.7142C1627.97 62.733 1621.87 47.3373 1610.89 35.5833L1610.89 35.5832L1610.88 35.5756C1605.39 29.9438 1598.8 25.4616 1591.52 22.3966C1584.23 19.3315 1576.39 17.7465 1568.46 17.7362C1560.54 17.7258 1552.7 19.2904 1545.4 22.3364C1538.11 25.3824 1531.51 29.8474 1526 35.4648C1520.38 41.1856 1515.96 47.9504 1513.01 55.3669C1510.06 62.7803 1508.63 70.6973 1508.8 78.6591C1508.62 86.6117 1510.04 94.5206 1512.97 101.932C1515.9 109.346 1520.29 116.116 1525.89 121.853L1526.25 121.504L1525.89 121.854C1531.41 127.463 1538.01 131.923 1545.31 134.968C1552.61 138.013 1560.46 139.581 1568.38 139.581C1576.31 139.581 1584.16 138.013 1591.46 134.968C1598.75 131.923 1605.36 127.463 1610.88 121.854Z" stroke="white"/>
<path d="M1722.23 131.803L1775.84 2.25977H1795.46L1859.25 155.06H1840.04L1825.01 119.114L1824.88 118.807H1824.55H1747.19H1746.85L1746.72 119.119L1732.14 155.06H1712.3L1650.06 2.25977H1669.93L1721.31 131.796L1721.76 132.943L1722.23 131.803ZM1752.97 102.272L1752.68 102.963H1753.43H1818.08H1818.84L1818.55 102.27L1786 24.2711L1785.53 23.1578L1785.07 24.2734L1752.97 102.272Z" stroke="white"/>
<path d="M105.018 14.6099L105.019 14.6106C109.082 18.0791 112.306 22.3988 114.455 27.2531C116.604 32.1074 117.624 37.3736 117.44 42.6661L117.44 42.6805L117.44 42.6949C117.615 50.3303 115.47 57.8434 111.28 64.2697C107.19 70.396 101.277 75.1265 94.3496 77.8111L92.9822 78.341L94.3885 78.7568C103.977 81.5917 111.122 86.0841 115.873 92.2061C120.621 98.3259 123.014 106.121 123.014 115.629C123.014 128.243 118.681 138.204 110.035 145.569C101.382 152.941 89.4948 156.68 74.3147 156.728H10.5416L0.5 139.661V3.92766H71.3436C85.5283 3.92766 96.7344 7.5061 105.018 14.6099ZM18.4506 71.1739L18.4514 71.6732H18.9506H69.783C78.7903 71.6732 86.0522 69.3042 91.5155 64.5184L91.5183 64.5159C94.2316 62.1033 96.3728 59.1308 97.7891 55.8094C99.2026 52.4945 99.8594 48.9136 99.7127 45.3204C99.8582 41.9033 99.2411 38.4964 97.9051 35.3402C96.5662 32.1774 94.5383 29.3441 91.9655 27.0407L91.9631 27.0386C86.7936 22.4685 79.7516 20.2119 70.8977 20.2119H18.8763H18.3756L18.3763 20.7127L18.4506 71.1739ZM18.9506 86.7856H18.4506V87.2856V139.578V140.078H18.9506H73.1272C82.72 140.078 90.3184 137.714 95.8605 132.925C101.414 128.127 104.171 121.46 104.171 112.992C104.171 104.084 101.226 97.4322 95.2684 93.1417C89.3624 88.8884 81.5954 86.7856 72.0125 86.7856H18.9506Z" stroke="white"/>
<path d="M217.144 2.09828L217.152 2.09841L217.16 2.09829C227.452 1.94413 237.665 3.8911 247.156 7.81649C256.647 11.7419 265.21 17.5606 272.307 24.906L272.312 24.9112L272.317 24.9163C279.732 32.1579 285.592 40.7951 289.549 50.3138C293.507 59.8324 295.48 70.038 295.353 80.3234L295.353 80.3307L295.353 80.3379C295.523 90.582 293.591 100.755 289.67 110.244C285.75 119.734 279.923 128.345 272.54 135.56L272.534 135.565L272.529 135.571C265.413 142.959 256.817 148.811 247.286 152.756C237.755 156.701 227.497 158.653 217.16 158.488L217.152 158.488L217.143 158.488C206.787 158.675 196.505 156.733 186.953 152.787C177.401 148.841 168.788 142.978 161.664 135.571L161.664 135.571L161.654 135.561C154.299 128.33 148.498 119.714 144.598 110.226C140.697 100.738 138.777 90.5732 138.951 80.3381L138.951 80.3295L138.951 80.3208C138.771 70.0645 140.699 59.8782 144.619 50.3754C148.54 40.8725 154.372 32.2495 161.764 25.0261L161.415 24.6684L161.775 25.0153C168.891 17.6272 177.487 11.7752 187.018 7.83024C196.549 3.88526 206.807 1.93334 217.144 2.09828ZM161.754 103.563C164.685 110.963 169.069 117.72 174.653 123.446C180.056 129.211 186.639 133.779 193.966 136.848C201.292 139.917 209.194 141.417 217.152 141.251C225.104 141.427 233.003 139.937 240.328 136.882C247.655 133.825 254.241 129.271 259.651 123.52C265.244 117.784 269.633 111.015 272.565 103.602C275.496 96.1908 276.913 88.2817 276.734 80.329C277.053 64.3052 270.909 48.8123 259.651 37.25C254.258 31.4711 247.677 26.8913 240.348 23.815C233.021 20.7393 225.113 19.237 217.151 19.4078C209.219 19.2553 201.344 20.7553 194.04 23.81C186.735 26.8653 180.167 31.4071 174.766 37.1384C169.143 42.8586 164.727 49.6222 161.775 57.0373C158.824 64.4508 157.395 72.3678 157.571 80.3298C157.401 88.2701 158.823 96.1652 161.754 103.563Z" stroke="white"/>
<path d="M319.318 139.661V3.92766H390.162C404.346 3.92766 415.551 7.53008 423.835 14.682L423.837 14.6838C427.9 18.1523 431.124 22.4721 433.273 27.3263C435.422 32.1806 436.442 37.4468 436.259 42.7393L436.258 42.7537L436.258 42.7681C436.433 50.4034 434.288 57.9165 430.098 64.3428C426.009 70.4691 420.095 75.1997 413.168 77.8843L411.801 78.4142L413.207 78.83C422.796 81.6649 429.941 86.1573 434.691 92.2794C439.44 98.3992 441.832 106.194 441.832 115.702C441.832 128.317 437.499 138.278 428.854 145.642C420.201 153.013 408.29 156.728 393.06 156.728H329.36L319.318 139.661ZM337.269 71.1739L337.27 71.6732H337.769H388.601C397.609 71.6732 404.871 69.3042 410.334 64.5184L410.337 64.5159C413.05 62.1033 415.191 59.1308 416.607 55.8094C418.021 52.4945 418.678 48.9136 418.531 45.3204C418.677 41.9033 418.06 38.4964 416.723 35.3402C415.385 32.1774 413.357 29.3441 410.784 27.0407L410.781 27.0386C405.612 22.4685 398.57 20.2119 389.716 20.2119H337.695H337.194L337.195 20.7127L337.269 71.1739ZM337.769 86.7856H337.269V87.2856V139.578V140.078H337.769H392.02C401.613 140.078 409.211 137.714 414.753 132.925C420.307 128.127 423.064 121.46 423.064 112.992C423.064 104.084 420.119 97.4322 414.161 93.1417C408.255 88.8882 400.463 86.7856 390.831 86.7856H337.769Z" stroke="white"/>
<path d="M536.904 97.6884L580.24 156.728H559.488L506.916 83.0251H526.894C535.729 83.3144 544.33 80.1949 550.869 74.3284L550.869 74.3284L550.875 74.3228C554.014 71.4119 556.482 67.8701 558.112 63.9369C559.741 60.0088 560.495 55.7821 560.325 51.5419C560.544 43.3526 557.539 35.3983 551.943 29.3442L551.942 29.3437C546.331 23.2913 538.683 20.2852 529.058 20.2852H482.461H481.961V20.7852V156.728H463.342V3.92766H529.726C544.324 3.92766 556.155 8.58481 565.264 17.8761L565.266 17.8783C569.726 22.3701 573.233 27.6923 575.581 33.534C577.929 39.3756 579.073 45.6196 578.944 51.9012L578.944 51.912L578.944 51.9228C579.185 62.5221 575.634 72.868 568.912 81.148L568.91 81.1502C562.469 89.1775 553.392 94.7442 543.237 96.8925H537.307H536.319L536.904 97.6884Z" stroke="white"/>
<path d="M729.582 24.9112L729.586 24.9158C737.001 32.1574 742.861 40.7947 746.819 50.3133C750.776 59.8319 752.75 70.0376 752.622 80.323L752.623 80.337C752.783 90.5689 750.845 100.728 746.925 110.204C743.005 119.68 737.184 128.28 729.809 135.486L729.805 135.491C722.573 142.748 713.945 148.513 704.427 152.448C694.908 156.384 684.689 158.411 674.366 158.411C664.043 158.411 653.824 156.384 644.305 152.448C634.786 148.513 626.159 142.748 618.927 135.491L618.923 135.487C611.577 128.265 605.782 119.661 601.882 110.186C597.981 100.711 596.056 90.5601 596.221 80.3372L596.221 80.3288L596.221 80.3204C596.04 70.0641 597.968 59.8778 601.889 50.3749C605.809 40.8721 611.641 32.2491 619.034 25.0256L618.684 24.668L619.039 25.0204C626.239 17.7727 634.833 12.0121 644.32 8.07584C653.806 4.13961 663.994 2.10688 674.287 2.09672C684.581 2.08655 694.773 4.09916 704.267 8.01664C713.761 11.9341 722.367 17.6777 729.582 24.9112ZM716.915 123.451L716.917 123.449C722.503 117.722 726.888 110.964 729.82 103.563C732.751 96.1646 734.172 88.2693 734.003 80.3288C734.323 64.3031 728.177 48.8085 716.917 37.2457L716.917 37.2455C711.426 31.6138 704.84 27.1315 697.553 24.0665C690.265 21.0014 682.425 19.4164 674.502 19.4061C666.578 19.3958 658.734 20.9603 651.438 24.0063C644.142 27.0523 637.544 31.5173 632.039 37.1347C626.414 42.8556 621.997 49.6203 619.045 57.0369C616.094 64.4503 614.664 72.3674 614.84 80.3294C614.671 88.2697 616.092 96.1648 619.023 103.563C621.955 110.964 626.34 117.722 631.926 123.449L632.284 123.101L631.928 123.451C637.446 129.06 644.051 133.519 651.351 136.564C658.65 139.609 666.496 141.178 674.422 141.178C682.348 141.178 690.193 139.609 697.493 136.564C704.792 133.519 711.397 129.06 716.915 123.451Z" stroke="white"/>
<path d="M828.274 133.47L881.877 3.92766H901.498L965.364 156.728H946.01L930.978 120.782L930.85 120.475H930.517H853.228H852.891L852.765 120.787L838.177 156.728H818.338L756.097 3.92766H775.971L827.347 133.464L827.802 134.611L828.274 133.47ZM859.008 103.94L858.724 104.63H859.471H924.126H924.876L924.587 103.938L892.037 25.939L891.572 24.8257L891.113 25.9412L859.008 103.94Z" stroke="white"/>
</svg>
