<svg width="42" height="42" viewBox="0 0 42 42" fill="none" xmlns="http://www.w3.org/2000/svg">
<path d="M23 33V9H32.7363C34.9071 9 36.6601 9.74857 37.9952 11.2457C39.3257 12.7302 40.0455 14.708 39.9978 16.7486C39.9978 18.9657 39.3302 20.8114 37.9952 22.2857C36.6601 23.76 34.9071 24.4971 32.7363 24.4971L25.8655 24.5314V33H23ZM25.8655 21.8229L32.5735 21.7886C34.0207 21.7886 35.1604 21.3029 35.9925 20.3314C36.8303 19.3238 37.2727 18.0184 37.2299 16.68C37.2771 15.3749 36.839 14.1018 36.0088 13.1314C35.1948 12.2 34.0496 11.7343 32.5735 11.7343H25.8655V21.8229Z" fill="#1E1E1E"/>
<path d="M2 30.28V9H12.9747C15.1697 9 16.9131 9.5619 18.2049 10.6857C18.8386 11.2345 19.3415 11.918 19.6768 12.6863C20.0121 13.4545 20.1712 14.288 20.1426 15.1257C20.1699 16.3331 19.8354 17.5211 19.1823 18.5371C18.5443 19.5068 17.6219 20.2553 16.5415 20.68C19.5138 21.5714 21 23.5143 21 26.5086C21 28.4971 20.3255 30.0743 18.9765 31.24C17.6276 32.4057 15.7794 32.9924 13.432 33H3.57762L2 30.28ZM4.91516 19.5714H12.7347C14.1065 19.5714 15.204 19.2057 16.0271 18.4743C16.436 18.1054 16.7587 17.651 16.9721 17.1434C17.1855 16.6357 17.2844 16.0873 17.2617 15.5371C17.2842 15.0144 17.1913 14.4931 16.9898 14.0102C16.7883 13.5274 16.4831 13.0947 16.0957 12.7429C15.3183 12.0457 14.2551 11.6971 12.9061 11.6971H4.90373L4.91516 19.5714ZM13.2491 30.2457C14.7124 30.2457 15.8613 29.88 16.6958 29.1486C17.5304 28.4171 17.9477 27.4 17.9477 26.0971C17.9477 24.7257 17.5018 23.7143 16.6101 23.0629C15.7184 22.4114 14.5409 22.0857 13.0776 22.0857H4.91516V30.2457H13.2491Z" fill="#1E1E1E"/>
</svg>
