<svg width="401" height="142" viewBox="0 0 401 142" fill="none" xmlns="http://www.w3.org/2000/svg">
<path d="M400.966 65.3945H394.025V140.414H400.966V65.3945Z" fill="#1E1E1E"/>
<path d="M346.493 65.3945H339.553V140.414H346.493V65.3945Z" fill="#1E1E1E"/>
<path d="M400.968 65.3945H339.746V72.3215H400.968V65.3945Z" fill="#1E1E1E"/>
<path d="M400.628 133.486H339.846V140.413H400.628V133.486Z" fill="#1E1E1E"/>
<path d="M0.708984 140.413V75.7607H28.3779C34.5471 75.7607 39.5287 77.7773 43.3228 81.8103C47.104 85.8093 49.1495 91.1372 49.0139 96.6341C49.0139 102.607 47.1169 107.579 43.3228 111.55C39.5287 115.522 34.5471 117.507 28.3779 117.507L8.85234 117.6V140.413H0.708984ZM8.85234 110.303L27.9152 110.211C32.028 110.211 35.2668 108.903 37.6317 106.286C40.0125 103.571 41.2697 100.055 41.1482 96.4494C41.2822 92.9336 40.0372 89.5043 37.678 86.8901C35.3645 84.381 32.1103 83.1264 27.9152 83.1264H8.85234V110.303Z" fill="#1E1E1E"/>
<path d="M46.332 140.413L72.8905 75.7607H81.3115L103.798 130.345L125.175 75.7607H133.873L107.962 140.413H99.5415L93.2489 125.173H60.9222L54.753 140.413H46.332ZM63.6367 118.092H90.5653L77.0547 85.3046L63.6367 118.092Z" fill="#1E1E1E"/>
<path d="M141.738 140.413V75.7607H149.882V132.839H178.198L182.64 140.413H141.738Z" fill="#1E1E1E"/>
<path d="M194.671 84.7217C197.679 81.6553 201.269 79.2181 205.232 77.5529C209.194 75.8877 213.45 75.0278 217.749 75.0235C222.049 75.0192 226.306 75.8706 230.272 77.5279C234.238 79.1852 237.833 81.6151 240.847 84.6756C246.999 90.9073 250.454 99.2991 250.471 108.047C250.489 116.795 247.066 125.2 240.94 131.456C237.919 134.526 234.315 136.965 230.339 138.63C226.363 140.295 222.094 141.152 217.782 141.152C213.47 141.152 209.202 140.295 205.226 138.63C201.25 136.965 197.646 134.526 194.625 131.456C188.533 125.194 185.13 116.807 185.139 108.079C185.147 99.3517 188.567 90.9717 194.671 84.7217ZM200.316 126.099C202.587 128.437 205.305 130.295 208.309 131.565C211.314 132.834 214.543 133.488 217.805 133.488C221.068 133.488 224.297 132.834 227.301 131.565C230.306 130.295 233.024 128.437 235.295 126.099C239.818 121.197 242.329 114.776 242.329 108.112C242.329 101.448 239.818 95.0271 235.295 90.1248C233.036 87.7777 230.325 85.9094 227.326 84.6319C224.326 83.3543 221.1 82.6936 217.838 82.6892C214.577 82.6849 211.349 83.3371 208.346 84.6068C205.343 85.8764 202.628 87.7375 200.362 90.0786C198.047 92.4637 196.228 95.2837 195.013 98.3754C193.798 101.467 193.21 104.769 193.283 108.089C193.208 111.405 193.791 114.704 194.998 117.794C196.205 120.885 198.012 123.707 200.316 126.099Z" fill="#1E1E1E"/>
<path d="M277.398 140.413L251.395 75.7607H260.093L281.469 130.345L303.771 75.7607H312.192L338.843 140.413H330.422L324.13 125.173H292.019L285.911 140.413H277.398ZM294.61 118.092H321.446L307.935 85.3046L294.61 118.092Z" fill="#1E1E1E"/>
<path d="M0 58.0992V0.774414H29.6122C35.5346 0.774414 40.2387 2.28809 43.7243 5.31545C45.4342 6.79377 46.7913 8.63512 47.6959 10.7046C48.6006 12.7742 49.03 15.0195 48.9527 17.2761C49.0262 20.5286 48.1239 23.7289 46.3616 26.4659C44.6403 29.0779 42.1513 31.0943 39.2362 32.2384C47.2561 34.6397 51.2661 39.8735 51.2661 47.9396C51.2661 53.2964 49.4462 57.545 45.8064 60.6852C42.1665 63.8255 37.1798 65.4059 30.8461 65.4264H4.25675L0 58.0992ZM7.86574 29.2521H28.9644C32.666 29.2521 35.6272 28.2669 37.8481 26.2966C38.9516 25.3029 39.8221 24.0788 40.3979 22.7113C40.9737 21.3438 41.2405 19.8665 41.1795 18.3844C41.24 16.9762 40.9895 15.572 40.4458 14.2712C39.9021 12.9704 39.0784 11.8048 38.0332 10.857C35.9356 8.97906 33.067 8.04006 29.4271 8.04006H7.8349L7.86574 29.2521ZM30.3525 58.0068C34.3008 58.0068 37.4008 57.0216 39.6526 55.0513C41.9044 53.0809 43.0302 50.3409 43.0302 46.8312C43.0302 43.1369 41.8272 40.4122 39.4212 38.6574C37.0153 36.9026 33.8381 36.0251 29.8898 36.0251H7.86574V58.0068H30.3525Z" fill="#1E1E1E"/>
<path d="M66.9972 9.70188C69.9708 6.57524 73.5624 4.09886 77.5447 2.42953C81.5269 0.760204 85.8131 -0.06571 90.1317 0.00408162C94.4319 -0.0611507 98.699 0.762681 102.665 2.42373C106.63 4.08478 110.208 6.54709 113.174 9.6557C116.271 12.7195 118.72 16.3739 120.373 20.4015C122.026 24.4291 122.851 28.7475 122.798 33.0997C122.869 37.4347 122.061 41.7394 120.423 45.7549C118.785 49.7705 116.351 53.4141 113.266 56.4668C110.293 59.5935 106.701 62.0698 102.719 63.7392C98.7366 65.4085 94.4504 66.2344 90.1317 66.1646C85.8049 66.2437 81.5091 65.4222 77.518 63.7525C73.5269 62.0828 69.9281 59.6015 66.9509 56.4668C63.8782 53.4076 61.4547 49.7618 59.825 45.747C58.1954 41.7322 57.393 37.4309 57.4658 33.0997C57.3904 28.7596 58.196 24.4491 59.8341 20.4279C61.4722 16.4068 63.9088 12.7582 66.9972 9.70188ZM72.642 51.0791C74.8647 53.4814 77.5732 55.385 80.5883 56.6641C83.6034 57.9432 86.8563 58.5685 90.1317 58.4987C93.4048 58.5724 96.6563 57.9519 99.6713 56.6782C102.686 55.4045 105.396 53.5066 107.621 51.1099C109.925 48.7184 111.732 45.8961 112.939 42.8053C114.146 39.7145 114.729 36.4162 114.654 33.0997C114.787 26.4183 112.258 19.9573 107.621 15.1357C105.403 12.7276 102.695 10.8189 99.6794 9.53692C96.6637 8.25491 93.4089 7.62895 90.1317 7.70075C86.8668 7.63655 83.6251 8.26159 80.619 9.53492C77.613 10.8083 74.9104 12.7011 72.6883 15.0895C70.3728 17.4746 68.5548 20.2947 67.3396 23.3863C66.1244 26.4779 65.5362 29.7795 65.6091 33.0997C65.5389 36.411 66.1239 39.7036 67.3307 42.7888C68.5376 45.8741 70.3425 48.6913 72.642 51.0791Z" fill="#1E1E1E"/>
<path d="M132.332 58.0992V0.774414H161.944C167.867 0.774414 172.571 2.29835 176.056 5.34623C177.766 6.82456 179.123 8.66591 180.028 10.7354C180.933 12.805 181.362 15.0502 181.285 17.3068C181.358 20.5594 180.456 23.7597 178.694 26.4967C176.972 29.1087 174.483 31.125 171.568 32.2692C179.588 34.6705 183.598 39.9043 183.598 47.9704C183.598 53.3272 181.778 57.5758 178.138 60.716C174.499 63.8563 169.502 65.4264 163.147 65.4264H136.589L132.332 58.0992ZM140.198 29.2521H161.296C164.998 29.2521 167.959 28.2669 170.18 26.2966C171.284 25.3029 172.154 24.0788 172.73 22.7113C173.306 21.3438 173.573 19.8665 173.512 18.3844C173.572 16.9762 173.322 15.572 172.778 14.2712C172.234 12.9704 171.41 11.8048 170.365 10.857C168.268 8.97906 165.399 8.04006 161.759 8.04006H140.167L140.198 29.2521ZM162.715 58.0068C166.664 58.0068 169.764 57.0216 172.015 55.0513C174.267 53.0809 175.393 50.3409 175.393 46.8312C175.393 43.1369 174.19 40.4122 171.784 38.6574C169.378 36.9026 166.191 36.0251 162.222 36.0251H140.198V58.0068H162.715Z" fill="#1E1E1E"/>
<path d="M192.111 0.774414H219.873C225.98 0.774414 230.947 2.74989 234.771 6.70084C236.642 8.60882 238.113 10.8698 239.098 13.3516C240.083 15.8334 240.563 18.4863 240.509 21.1552C240.61 25.6609 239.119 30.0585 236.298 33.5776C233.59 36.9959 229.772 39.364 225.502 40.2737H223.019L241.249 65.4264H232.119L210.002 34.024H218.701C222.316 34.1447 225.835 32.8523 228.51 30.422C229.791 29.2188 230.798 27.755 231.463 26.1297C232.128 24.5044 232.436 22.7555 232.365 21.0012C232.457 17.6115 231.23 14.3181 228.942 11.8114C226.659 9.31771 223.543 8.07085 219.595 8.07085H200.255V65.4264H192.111V0.774414Z" fill="#1E1E1E"/>
<path d="M256.794 9.70124C259.802 6.63475 263.392 4.19763 267.355 2.53239C271.317 0.867159 275.573 0.00724581 279.873 0.00294589C284.172 -0.00135402 288.43 0.850045 292.396 2.50735C296.362 4.16465 299.957 6.59459 302.971 9.65506C306.068 12.7189 308.516 16.3733 310.17 20.4009C311.823 24.4285 312.648 28.7469 312.595 33.0991C312.662 37.429 311.852 41.7277 310.214 45.7377C308.576 49.7477 306.144 53.3863 303.063 56.4354C300.042 59.5058 296.438 61.9447 292.462 63.6095C288.486 65.2743 284.217 66.1318 279.905 66.1318C275.594 66.1318 271.325 65.2743 267.349 63.6095C263.373 61.9447 259.769 59.5058 256.748 56.4354C253.679 53.3798 251.258 49.739 249.628 45.7298C247.998 41.7206 247.194 37.4251 247.263 33.0991C247.187 28.7589 247.993 24.4485 249.631 20.4273C251.269 16.4062 253.706 12.7575 256.794 9.70124ZM262.439 51.0785C264.71 53.4163 267.428 55.2749 270.433 56.5442C273.437 57.8135 276.666 58.4676 279.929 58.4676C283.191 58.4676 286.42 57.8135 289.425 56.5442C292.429 55.2749 295.147 53.4163 297.418 51.0785C299.718 48.6907 301.523 45.8734 302.73 42.7882C303.936 39.703 304.521 36.4104 304.451 33.0991C304.584 26.4176 302.054 19.9567 297.418 15.1351C295.159 12.7879 292.448 10.9197 289.449 9.64213C286.45 8.36454 283.223 7.70383 279.962 7.69952C276.7 7.69521 273.472 8.34738 270.469 9.61704C267.466 10.8867 264.751 12.7478 262.485 15.0889C260.17 17.4739 258.352 20.294 257.136 23.3856C255.921 26.4773 255.333 29.7789 255.406 33.0991C255.336 36.4104 255.921 39.703 257.128 42.7882C258.334 45.8734 260.139 48.6907 262.439 51.0785Z" fill="#1E1E1E"/>
<path d="M339.525 65.4264L313.521 0.774414H322.22L343.596 55.3592L365.898 0.774414H374.319L401.001 65.4264H392.518L386.226 50.187H354.146L348.038 65.4264H339.525ZM356.737 43.1061H383.573L370.062 10.3183L356.737 43.1061Z" fill="#1E1E1E"/>
</svg>
