<svg width="121" height="44" viewBox="0 0 121 44" fill="none" xmlns="http://www.w3.org/2000/svg">
<path d="M120.991 20.3848H118.896V43.7696H120.991V20.3848Z" fill="#1E1E1E"/>
<path d="M104.553 20.3848H102.459V43.7696H104.553V20.3848Z" fill="#1E1E1E"/>
<path d="M120.991 20.3848H102.518V22.544H120.991V20.3848Z" fill="#1E1E1E"/>
<path d="M120.888 41.6094H102.547V43.7686H120.888V41.6094Z" fill="#1E1E1E"/>
<path d="M0.212891 43.7703V23.6172H8.56186C10.4234 23.6172 11.9266 24.2458 13.0714 25.5029C14.2124 26.7495 14.8296 28.4103 14.7887 30.1238C14.7887 31.9855 14.2163 33.5354 13.0714 34.7734C11.9266 36.0114 10.4234 36.6304 8.56186 36.6304L2.67011 36.6592V43.7703H0.212891ZM2.67011 34.3847L8.42225 34.3559C9.66327 34.3559 10.6406 33.9481 11.3542 33.1324C12.0726 32.2863 12.4519 31.1901 12.4152 30.0662C12.4557 28.9703 12.08 27.9013 11.3681 27.0864C10.67 26.3043 9.68809 25.9132 8.42225 25.9132H2.67011V34.3847Z" fill="#1E1E1E"/>
<path d="M13.9805 43.7703L21.9944 23.6172H24.5354L31.3206 40.6322L37.7708 23.6172H40.3956L32.5772 43.7703H30.0362L28.1374 39.02H18.383L16.5215 43.7703H13.9805ZM19.2021 36.8127H27.3277L23.2509 26.5922L19.2021 36.8127Z" fill="#1E1E1E"/>
<path d="M42.7695 43.7703V23.6172H45.2268V41.4096H53.7712L55.1115 43.7703H42.7695Z" fill="#1E1E1E"/>
<path d="M58.7415 26.4099C59.6491 25.454 60.7325 24.6943 61.9282 24.1752C63.1239 23.6561 64.408 23.3881 65.7054 23.3867C67.0028 23.3854 68.2874 23.6508 69.4841 24.1674C70.6809 24.684 71.7657 25.4415 72.6751 26.3955C74.5312 28.338 75.5739 30.9539 75.5791 33.6807C75.5843 36.4075 74.5516 39.0276 72.703 40.9777C71.7914 41.9348 70.7039 42.695 69.5042 43.214C68.3044 43.733 67.0164 44.0003 65.7153 44.0003C64.4142 44.0003 63.1262 43.733 61.9264 43.214C60.7267 42.695 59.6392 41.9348 58.7276 40.9777C56.8896 39.0257 55.8626 36.4114 55.8652 33.6909C55.8678 30.9703 56.8998 28.3581 58.7415 26.4099ZM60.4448 39.3079C61.1301 40.0366 61.9503 40.616 62.8569 41.0116C63.7635 41.4073 64.7379 41.6112 65.7223 41.6112C66.7067 41.6112 67.6811 41.4073 68.5877 41.0116C69.4942 40.616 70.3145 40.0366 70.9997 39.3079C72.3645 37.7797 73.1221 35.7783 73.1221 33.701C73.1221 31.6236 72.3645 29.6222 70.9997 28.0941C70.318 27.3624 69.5001 26.7801 68.595 26.3818C67.69 25.9836 66.7163 25.7776 65.7322 25.7763C64.7482 25.7749 63.774 25.9782 62.8679 26.374C61.9618 26.7698 61.1424 27.3499 60.4588 28.0797C59.7601 28.8231 59.2115 29.7022 58.8449 30.6659C58.4782 31.6296 58.3007 32.6588 58.3227 33.6938C58.3003 34.7276 58.4762 35.7557 58.8404 36.7192C59.2046 37.6826 59.7498 38.5624 60.4448 39.3079Z" fill="#1E1E1E"/>
<path d="M83.7038 43.7703L75.8574 23.6172H78.4822L84.9324 40.6322L91.6618 23.6172H94.2028L102.245 43.7703H99.7037L97.8049 39.02H88.1156L86.2727 43.7703H83.7038ZM88.8975 36.8127H96.9951L92.9184 26.5922L88.8975 36.8127Z" fill="#1E1E1E"/>
<path d="M0 18.1113V0.242188H8.93536C10.7224 0.242188 12.1418 0.714027 13.1936 1.65771C13.7096 2.11853 14.1191 2.69251 14.392 3.33762C14.665 3.98272 14.7946 4.68262 14.7713 5.38604C14.7935 6.39993 14.5212 7.39751 13.9894 8.25067C13.47 9.06487 12.719 9.69342 11.8393 10.0501C14.2593 10.7986 15.4693 12.4301 15.4693 14.9444C15.4693 16.6142 14.9202 17.9386 13.8219 18.9174C12.7236 19.8963 11.2188 20.389 9.30766 20.3953H1.28446L0 18.1113ZM2.37345 9.11917H8.73989C9.85681 9.11917 10.7503 8.81208 11.4205 8.19789C11.7535 7.88814 12.0161 7.50657 12.1899 7.0803C12.3636 6.65402 12.4441 6.19352 12.4257 5.73152C12.444 5.29257 12.3684 4.85485 12.2043 4.44937C12.0403 4.04388 11.7917 3.68055 11.4763 3.38512C10.8434 2.79972 9.97781 2.50702 8.87951 2.50702H2.36415L2.37345 9.11917ZM9.15874 18.0825C10.3501 18.0825 11.2855 17.7754 11.965 17.1612C12.6445 16.5471 12.9842 15.6929 12.9842 14.5989C12.9842 13.4473 12.6212 12.598 11.8952 12.051C11.1692 11.504 10.2105 11.2305 9.01912 11.2305H2.37345V18.0825H9.15874Z" fill="#1E1E1E"/>
<path d="M20.2154 3.02425C21.1127 2.04962 22.1964 1.27769 23.3981 0.757328C24.5997 0.236969 25.893 -0.020483 27.1962 0.00127231C28.4937 -0.0190618 29.7813 0.237741 30.9779 0.75552C32.1745 1.2733 33.2541 2.04084 34.149 3.00985C35.0837 3.96489 35.8224 5.10404 36.3213 6.35952C36.8202 7.61499 37.069 8.96111 37.053 10.3178C37.0745 11.6691 36.8308 13.0109 36.3365 14.2626C35.8423 15.5143 35.1077 16.6501 34.1769 17.6017C33.2796 18.5763 32.1959 19.3483 30.9943 19.8686C29.7926 20.389 28.4993 20.6464 27.1962 20.6247C25.8906 20.6493 24.5943 20.3932 23.39 19.8728C22.1857 19.3523 21.0998 18.5788 20.2015 17.6017C19.2743 16.6481 18.543 15.5116 18.0512 14.2601C17.5595 13.0087 17.3174 11.6679 17.3394 10.3178C17.3166 8.96487 17.5597 7.62122 18.054 6.36775C18.5483 5.11429 19.2835 3.97695 20.2154 3.02425ZM21.9187 15.9223C22.5894 16.6711 23.4067 17.2645 24.3165 17.6632C25.2263 18.0619 26.2078 18.2568 27.1962 18.2351C28.1838 18.2581 29.1649 18.0646 30.0747 17.6676C30.9844 17.2705 31.8021 16.6789 32.4736 15.9319C33.1686 15.1864 33.7139 14.3066 34.0781 13.3432C34.4423 12.3797 34.6182 11.3516 34.5958 10.3178C34.6358 8.23504 33.8726 6.22106 32.4736 4.71807C31.8041 3.96741 30.9871 3.37245 30.0771 2.97283C29.1672 2.5732 28.185 2.37808 27.1962 2.40046C26.211 2.38045 25.2328 2.57528 24.3257 2.9722C23.4187 3.36912 22.6032 3.95917 21.9327 4.70368C21.234 5.44713 20.6854 6.3262 20.3187 7.28991C19.9521 8.25363 19.7746 9.2828 19.7966 10.3178C19.7754 11.35 19.9519 12.3763 20.3161 13.338C20.6802 14.2998 21.2248 15.1779 21.9187 15.9223Z" fill="#1E1E1E"/>
<path d="M39.9297 18.1113V0.242188H48.865C50.6521 0.242188 52.0715 0.717226 53.1233 1.6673C53.6393 2.12812 54.0487 2.70211 54.3217 3.34721C54.5947 3.99232 54.7243 4.69222 54.7009 5.39564C54.7231 6.40953 54.4509 7.40711 53.9191 8.26027C53.3997 9.07447 52.6486 9.70301 51.769 10.0597C54.189 10.8082 55.399 12.4396 55.399 14.954C55.399 16.6238 54.8499 17.9482 53.7516 18.927C52.6533 19.9059 51.1454 20.3953 49.228 20.3953H41.2141L39.9297 18.1113ZM42.3031 9.11917H48.6696C49.7865 9.11917 50.68 8.81208 51.3502 8.19789C51.6831 7.88814 51.9458 7.50657 52.1196 7.0803C52.2933 6.65402 52.3738 6.19352 52.3554 5.73152C52.3737 5.29257 52.2981 4.85485 52.134 4.44937C51.97 4.04388 51.7214 3.68055 51.406 3.38512C50.7731 2.79972 49.9075 2.50702 48.8092 2.50702H42.2938L42.3031 9.11917ZM49.0977 18.0825C50.2891 18.0825 51.2245 17.7754 51.904 17.1612C52.5835 16.5471 52.9232 15.6929 52.9232 14.5989C52.9232 13.4473 52.5602 12.598 51.8342 12.051C51.1082 11.504 50.1464 11.2305 48.9488 11.2305H42.3031V18.0825H49.0977Z" fill="#1E1E1E"/>
<path d="M57.9688 0.242188H66.3456C68.1886 0.242188 69.6871 0.857979 70.8412 2.08956C71.4057 2.68431 71.8495 3.38909 72.1468 4.16271C72.444 4.93633 72.5887 5.76328 72.5725 6.59523C72.603 7.99975 72.1532 9.37056 71.302 10.4675C70.4848 11.5331 69.3327 12.2712 68.0443 12.5548H67.295L72.7959 20.3953H70.0408L63.3672 10.6067H65.992C67.0828 10.6443 68.1447 10.2414 68.9518 9.48385C69.3383 9.10879 69.6422 8.65252 69.843 8.14588C70.0437 7.63925 70.1365 7.09408 70.1152 6.54725C70.1428 5.49061 69.7725 4.464 69.0821 3.68262C68.3933 2.90528 67.4533 2.51662 66.2619 2.51662H60.426V20.3953H57.9688V0.242188Z" fill="#1E1E1E"/>
<path d="M77.4869 3.02509C78.3945 2.06921 79.4778 1.30951 80.6735 0.790431C81.8693 0.271349 83.1534 0.00329854 84.4508 0.00195818C85.7481 0.000617817 87.0328 0.266014 88.2295 0.782625C89.4262 1.29924 90.511 2.05669 91.4205 3.01069C92.3551 3.96573 93.0939 5.10489 93.5928 6.36036C94.0917 7.61583 94.3405 8.96195 94.3245 10.3186C94.3447 11.6683 94.1004 13.0083 93.6062 14.2583C93.1119 15.5083 92.378 16.6425 91.4484 17.5929C90.5368 18.5501 89.4493 19.3103 88.2495 19.8292C87.0498 20.3482 85.7617 20.6155 84.4607 20.6155C83.1596 20.6155 81.8716 20.3482 80.6718 19.8292C79.472 19.3103 78.3846 18.5501 77.4729 17.5929C76.5469 16.6405 75.8163 15.5056 75.3246 14.2558C74.8328 13.0061 74.5901 11.6671 74.6108 10.3186C74.5881 8.96571 74.8312 7.62206 75.3255 6.36859C75.8197 5.11513 76.555 3.97779 77.4869 3.02509ZM79.1902 15.9231C79.8755 16.6518 80.6957 17.2312 81.6023 17.6269C82.5088 18.0225 83.4832 18.2264 84.4676 18.2264C85.4521 18.2264 86.4265 18.0225 87.333 17.6269C88.2396 17.2312 89.0598 16.6518 89.7451 15.9231C90.439 15.1788 90.9836 14.3006 91.3478 13.3389C91.7119 12.3772 91.8884 11.3508 91.8672 10.3186C91.9073 8.23588 91.144 6.2219 89.7451 4.71891C89.0633 3.98727 88.2454 3.40491 87.3404 3.00666C86.4353 2.60841 85.4616 2.40246 84.4776 2.40112C83.4936 2.39977 82.5194 2.60307 81.6133 2.99884C80.7072 3.39462 79.8878 3.97474 79.2042 4.70452C78.5055 5.44797 77.9569 6.32704 77.5902 7.29076C77.2235 8.25447 77.0461 9.28364 77.0681 10.3186C77.0468 11.3508 77.2234 12.3772 77.5875 13.3389C77.9517 14.3006 78.4963 15.1788 79.1902 15.9231Z" fill="#1E1E1E"/>
<path d="M102.45 20.3953L94.6035 0.242188H97.2283L103.678 17.2572L110.408 0.242188H112.949L121 20.3953H118.44L116.542 15.645H106.862L105.019 20.3953H102.45ZM107.644 13.4377H115.741L111.664 3.21718L107.644 13.4377Z" fill="#1E1E1E"/>
</svg>
