<?xml version="1.0" encoding="UTF-8" standalone="no"?>
<svg
   width="201"
   height="1180"
   viewBox="0 0 201 1180"
   fill="none"
   version="1.1"
   id="svg12"
   sodipodi:docname="pavlova_text.svg"
   inkscape:version="1.1 (c68e22c387, 2021-05-23)"
   xmlns:inkscape="http://www.inkscape.org/namespaces/inkscape"
   xmlns:sodipodi="http://sodipodi.sourceforge.net/DTD/sodipodi-0.dtd"
   xmlns="http://www.w3.org/2000/svg"
   xmlns:svg="http://www.w3.org/2000/svg">
  <defs
     id="defs16" />
  <sodipodi:namedview
     id="namedview14"
     pagecolor="#ffffff"
     bordercolor="#666666"
     borderopacity="1.0"
     inkscape:pageshadow="2"
     inkscape:pageopacity="0.0"
     inkscape:pagecheckerboard="0"
     showgrid="false"
     inkscape:zoom="0.84266409"
     inkscape:cx="99.683849"
     inkscape:cy="518"
     inkscape:window-width="2560"
     inkscape:window-height="1411"
     inkscape:window-x="7191"
     inkscape:window-y="-9"
     inkscape:window-maximized="1"
     inkscape:current-layer="svg12" />
  <path
     d="M 0,3.9999913 199,4 v 84.7628 c 0,18.8992 -6.207,34.1602 -18.621,45.7832 -12.309,11.584 -28.708,17.85 -45.628,17.435 -18.383,0 -33.687,-5.812 -45.9117,-17.435 C 76.615,122.923 70.5028,107.662 70.5028,88.7628 L 70.2186,28.9469 H -1.09046e-6 Z M 92.6771,28.9469 92.9614,87.3454 c 0,12.5994 4.0274,22.5216 12.0826,29.7666 8.354,7.293 19.178,11.144 30.276,10.772 10.822,0.411 21.377,-3.403 29.424,-10.631 7.723,-7.087 11.584,-17.0562 11.584,-29.9076 V 28.9469 Z"
     fill="#e4e4e4"
     id="path2" />
  <path
     d="M 1.52588e-5,144 199,225.307 v 25.78 L 30.9871,319.928 199,385.37 V 412 L 7.01148e-6,332.677 8.13836e-6,306.896 46.9071,287.632 V 188.667 L 1.41319e-5,169.78 Z M 68.7024,196.977 v 82.439 L 169.624,238.055 Z"
     fill="#e4e4e4"
     id="path4" />
  <path
     d="m 0,437 h 199 v 24.887 H 23.3114 v 86.538 L -5.46392e-6,562 Z"
     fill="#e4e4e4"
     id="path6" />
  <path
     d="m 169.815,598.181 c 9.228,9.207 16.562,20.198 21.573,32.328 5.011,12.131 7.599,25.159 7.612,38.321 0.013,13.162 -2.549,26.194 -7.537,38.335 -4.987,12.141 -12.299,23.147 -21.509,32.373 C 151.201,758.368 125.948,768.947 99.6234,769 73.2989,769.053 48.0049,758.576 29.1792,739.822 19.9394,730.573 12.6002,719.541 7.5903,707.369 2.58035,695.197 1.03137e-5,682.13 1.08907e-5,668.93 1.14677e-5,655.731 2.58035,642.664 7.5903,630.492 12.6002,618.32 19.9394,607.288 29.1792,598.039 48.0231,579.392 73.2612,568.974 99.5254,569 c 26.2646,0.026 51.4816,10.496 70.2896,29.181 z m -124.5155,17.28 c -7.035,6.952 -12.6282,15.273 -16.4479,24.47 -3.8196,9.197 -5.7878,19.083 -5.7878,29.07 0,9.987 1.9682,19.873 5.7878,29.07 3.8197,9.197 9.4129,17.518 16.4479,24.47 14.7525,13.846 34.0737,21.532 54.1281,21.532 20.0544,0 39.3754,-7.686 54.1284,-21.532 7.063,-6.916 12.685,-15.214 16.53,-24.396 3.844,-9.182 5.832,-19.06 5.845,-29.043 0.013,-9.983 -1.949,-19.867 -5.77,-29.059 -3.821,-9.192 -9.421,-17.505 -16.466,-24.441 -7.177,-7.088 -15.664,-12.653 -24.967,-16.373 -9.304,-3.72 -19.239,-5.521 -29.2308,-5.298 -9.9801,-0.227 -19.9058,1.557 -29.2069,5.252 -9.3011,3.695 -17.7941,9.227 -24.9908,16.278 z"
     fill="#e4e4e4"
     id="path8" />
  <path
     d="M 1.17754e-5,851.691 199,772 v 26.658 L 30.9871,864.169 199,932.516 v 25.808 L 3.54414e-6,1040 4.67221e-6,1014.19 46.9071,994.908 V 896.499 L 1.06349e-5,877.782 Z M 68.7024,904.44 v 82.244 L 169.624,945.278 Z"
     fill="#e4e4e4"
     id="path10" />
</svg>
