<svg width="199" height="1036" viewBox="0 0 199 1036" fill="none" xmlns="http://www.w3.org/2000/svg">
<path d="M0 -8.69857e-06L199 0L199 84.7628C199 103.662 192.793 118.923 180.379 130.546C168.07 142.13 151.671 148.396 134.751 147.981C116.368 147.981 101.064 142.169 88.8393 130.546C76.615 118.923 70.5028 103.662 70.5028 84.7628L70.2186 24.9469L-1.09046e-06 24.9469L0 -8.69857e-06ZM92.6771 24.9469L92.9614 83.3454C92.9614 95.9448 96.9888 105.867 105.044 113.112C113.398 120.405 124.222 124.256 135.32 123.884C146.142 124.295 156.697 120.481 164.744 113.253C172.467 106.166 176.328 96.1968 176.328 83.3454L176.328 24.9469L92.6771 24.9469Z" fill="#E4E4E4"/>
<path d="M1.52588e-05 140L199 221.307L199 247.087L30.9871 315.928L199 381.37L199 408L7.01148e-06 328.677L8.13836e-06 302.896L46.9071 283.632L46.9071 184.667L1.41319e-05 165.78L1.52588e-05 140ZM68.7024 192.977L68.7024 275.416L169.624 234.055L68.7024 192.977Z" fill="#E4E4E4"/>
<path d="M0 433L199 433L199 457.887L23.3114 457.887L23.3114 544.425L-5.46392e-06 558L0 433Z" fill="#E4E4E4"/>
<path d="M169.815 594.181C179.043 603.388 186.377 614.379 191.388 626.509C196.399 638.64 198.987 651.668 199 664.83C199.013 677.992 196.451 691.024 191.463 703.165C186.476 715.306 179.164 726.312 169.954 735.538C151.201 754.368 125.948 764.947 99.6234 765C73.2989 765.053 48.0049 754.576 29.1792 735.822C19.9394 726.573 12.6002 715.541 7.5903 703.369C2.58035 691.197 1.03137e-05 678.13 1.08907e-05 664.93C1.14677e-05 651.731 2.58035 638.664 7.5903 626.492C12.6002 614.32 19.9394 603.288 29.1792 594.039C48.0231 575.392 73.2612 564.974 99.5254 565C125.79 565.026 151.007 575.496 169.815 594.181ZM45.2995 611.461C38.2645 618.413 32.6713 626.734 28.8516 635.931C25.032 645.128 23.0638 655.014 23.0638 665.001C23.0638 674.988 25.032 684.874 28.8516 694.071C32.6713 703.268 38.2645 711.589 45.2995 718.541C60.052 732.387 79.3732 740.073 99.4276 740.073C119.482 740.073 138.803 732.387 153.556 718.541C160.619 711.625 166.241 703.327 170.086 694.145C173.93 684.963 175.918 675.085 175.931 665.102C175.944 655.119 173.982 645.235 170.161 636.043C166.34 626.851 160.74 618.538 153.695 611.602C146.518 604.514 138.031 598.949 128.728 595.229C119.424 591.509 109.489 589.708 99.4972 589.931C89.5171 589.704 79.5914 591.488 70.2903 595.183C60.9892 598.878 52.4962 604.41 45.2995 611.461Z" fill="#E4E4E4"/>
<path d="M1.17754e-05 847.691L199 768L199 794.658L30.9871 860.169L199 928.516L199 954.324L3.54414e-06 1036L4.67221e-06 1010.19L46.9071 990.908L46.9071 892.499L1.06349e-05 873.782L1.17754e-05 847.691ZM68.7024 900.44L68.7024 982.684L169.624 941.278L68.7024 900.44Z" fill="#E4E4E4"/>
</svg>
