<svg width="54" height="54" viewBox="0 0 54 54" fill="none" xmlns="http://www.w3.org/2000/svg">
<path d="M36.0006 45.0001H24.7506C18.3867 45.0001 15.2047 45.0001 13.2276 43.0231C12.1254 41.9208 11.6377 40.444 11.4219 38.25M47.5236 43.0231C49.5006 41.0461 49.5006 37.8641 49.5006 31.5001C49.5006 25.1362 49.5006 21.9542 47.5236 19.9771C46.4213 18.8749 44.9446 18.3872 42.7506 18.1714" stroke="#767676" stroke-width="2" stroke-linecap="round"/>
<path d="M29.25 11.25C35.614 11.25 38.7959 11.25 40.773 13.227C42.75 15.2041 42.75 18.386 42.75 24.75C42.75 31.114 42.75 34.2959 40.773 36.273C38.7959 38.25 35.614 38.25 29.25 38.25H18C11.636 38.25 8.45406 38.25 6.47703 36.273C4.5 34.2959 4.5 31.114 4.5 24.75C4.5 18.386 4.5 15.2041 6.47703 13.227C8.45406 11.25 11.636 11.25 18 11.25H20.25" stroke="#116893" stroke-width="2" stroke-linecap="round"/>
<path d="M29.25 24.75C29.25 27.8566 26.7316 30.375 23.625 30.375C20.5184 30.375 18 27.8566 18 24.75C18 21.6434 20.5184 19.125 23.625 19.125C26.7316 19.125 29.25 21.6434 29.25 24.75Z" stroke="#116893" stroke-width="2"/>
<path d="M36 29.25L36 20.25" stroke="#116893" stroke-width="2" stroke-linecap="round"/>
<path d="M11.25 29.25L11.25 20.25" stroke="#116893" stroke-width="2" stroke-linecap="round"/>
</svg>
