<svg width="54" height="54" viewBox="0 0 54 54" fill="none" xmlns="http://www.w3.org/2000/svg">
<path d="M15.75 13.5C15.75 14.7426 14.7426 15.75 13.5 15.75C12.2574 15.75 11.25 14.7426 11.25 13.5C11.25 12.2574 12.2574 11.25 13.5 11.25C14.7426 11.25 15.75 12.2574 15.75 13.5Z" fill="#767676"/>
<path d="M22.5 13.5C22.5 14.7426 21.4926 15.75 20.25 15.75C19.0074 15.75 18 14.7426 18 13.5C18 12.2574 19.0074 11.25 20.25 11.25C21.4926 11.25 22.5 12.2574 22.5 13.5Z" fill="#767676"/>
<path d="M29.25 13.5C29.25 14.7426 28.2426 15.75 27 15.75C25.7574 15.75 24.75 14.7426 24.75 13.5C24.75 12.2574 25.7574 11.25 27 11.25C28.2426 11.25 29.25 12.2574 29.25 13.5Z" fill="#767676"/>
<path d="M4.5 21.375H49.5" stroke="#116893" stroke-width="2" stroke-linecap="round"/>
<path d="M20.25 47.25L20.25 22.5" stroke="#116893" stroke-width="2" stroke-linecap="round"/>
<path d="M4.5 27C4.5 16.3934 4.5 11.0901 7.79505 7.79505C11.0901 4.5 16.3934 4.5 27 4.5C37.6066 4.5 42.9099 4.5 46.205 7.79505C49.5 11.0901 49.5 16.3934 49.5 27C49.5 37.6066 49.5 42.9099 46.205 46.205C42.9099 49.5 37.6066 49.5 27 49.5C16.3934 49.5 11.0901 49.5 7.79505 46.205C5.60413 44.014 4.86998 40.9353 4.62398 36" stroke="#116893" stroke-width="2" stroke-linecap="round"/>
</svg>
