<svg width="54" height="54" viewBox="0 0 54 54" fill="none" xmlns="http://www.w3.org/2000/svg">
<path d="M23.625 24.75H38.25" stroke="#767676" stroke-width="2" stroke-linecap="round"/>
<path d="M15.75 24.75H16.875" stroke="#767676" stroke-width="2" stroke-linecap="round"/>
<path d="M15.75 16.875H16.875" stroke="#767676" stroke-width="2" stroke-linecap="round"/>
<path d="M15.75 32.625H16.875" stroke="#767676" stroke-width="2" stroke-linecap="round"/>
<path d="M38.25 32.625H36M23.625 32.625H30.375" stroke="#767676" stroke-width="2" stroke-linecap="round"/>
<path d="M38.25 16.875H31.5M23.625 16.875H25.875" stroke="#767676" stroke-width="2" stroke-linecap="round"/>
<path d="M47.25 15.75V14.3326C47.25 11.6484 47.25 10.3062 46.8946 9.22379C46.2207 7.17117 44.6553 5.55965 42.6614 4.86587C41.6099 4.5 40.3062 4.5 37.6987 4.5H16.3013C13.6938 4.5 12.3901 4.5 11.3386 4.86587C9.34474 5.55965 7.77933 7.17117 7.1054 9.22379C6.75 10.3062 6.75 11.6484 6.75 14.3326V33.75M47.25 24.75V45.8419C47.25 47.773 45.0338 48.7975 43.6318 47.5146C42.8081 46.7609 41.5669 46.7609 40.7432 47.5146L39.6562 48.5093C38.2127 49.8302 36.0373 49.8302 34.5938 48.5093C33.1502 47.1883 30.9748 47.1883 29.5312 48.5093C28.0877 49.8302 25.9123 49.8302 24.4688 48.5093C23.0252 47.1883 20.8498 47.1883 19.4062 48.5093C17.9627 49.8302 15.7873 49.8302 14.3438 48.5093L13.2568 47.5146C12.4331 46.7609 11.1919 46.7609 10.3682 47.5146C8.96624 48.7975 6.75 47.773 6.75 45.8419V42.75" stroke="#116893" stroke-width="2" stroke-linecap="round"/>
</svg>
