<svg width="1015" height="546" viewBox="0 0 1015 546" fill="none" xmlns="http://www.w3.org/2000/svg">
<path d="M621.284 256.804C624.107 256.8 626.904 257.353 629.512 258.43C632.121 259.508 634.491 261.089 636.485 263.083C636.565 263.173 636.664 263.261 636.744 263.366C640.658 267.405 642.824 272.817 642.776 278.435C642.728 284.053 640.468 289.428 636.485 293.399C636.406 293.487 636.286 293.566 636.227 293.646C632.176 297.561 626.744 299.729 621.104 299.683C615.465 299.637 610.069 297.38 606.083 293.399C606.004 293.317 605.924 293.229 605.845 293.141C601.929 289.098 599.761 283.683 599.805 278.06C599.85 272.438 602.104 267.058 606.083 263.077C606.17 262.986 606.265 262.903 606.367 262.83C610.368 258.964 615.72 256.801 621.29 256.798L621.284 256.804ZM630.371 269.186C627.992 266.817 624.779 265.471 621.419 265.435C618.058 265.399 614.817 266.676 612.387 268.993L612.208 269.186C609.839 271.559 608.492 274.762 608.455 278.111C608.418 281.461 609.694 284.693 612.01 287.118L612.208 287.307C614.59 289.679 617.806 291.027 621.17 291.064C624.534 291.101 627.779 289.824 630.212 287.506L630.371 287.307C632.752 284.941 634.107 281.736 634.145 278.383C634.182 275.03 632.898 271.797 630.57 269.378L630.371 269.186ZM621.284 239.679C626.363 239.671 631.394 240.665 636.086 242.604C640.779 244.543 645.041 247.388 648.628 250.976C648.708 251.068 648.793 251.155 648.883 251.236C656.01 258.492 659.98 268.26 659.932 278.419C659.884 288.578 655.822 298.308 648.628 305.497H648.605H648.628C645.043 309.08 640.786 311.922 636.099 313.862C631.412 315.801 626.388 316.799 621.314 316.799C616.24 316.799 611.216 315.801 606.529 313.862C601.842 311.922 597.585 309.08 594 305.497H593.961C590.37 301.917 587.522 297.665 585.579 292.986C583.636 288.307 582.636 283.292 582.636 278.227C582.636 273.162 583.636 268.146 585.579 263.467C587.522 258.788 590.37 254.537 593.961 250.956C594.04 250.868 594.139 250.789 594.219 250.712C601.436 243.626 611.158 239.657 621.284 239.662V239.679ZM642.485 257.076C636.898 251.499 629.33 248.348 621.426 248.31C613.523 248.271 605.924 251.347 600.282 256.869L600.083 257.076C597.293 259.853 595.079 263.153 593.568 266.785C592.058 270.417 591.28 274.311 591.28 278.244C591.28 282.176 592.058 286.07 593.568 289.702C595.079 293.335 597.293 296.634 600.083 299.411H600.043C605.675 305.02 613.307 308.17 621.264 308.17C629.222 308.17 636.854 305.02 642.485 299.411V299.411C648.092 293.841 651.263 286.285 651.307 278.39C651.352 270.496 648.267 262.905 642.724 257.271C642.652 257.195 642.572 257.127 642.485 257.067V257.076ZM621.284 205.439C638.179 205.427 654.556 211.262 667.622 221.949C680.688 232.636 689.635 247.513 692.939 264.045C696.242 280.577 693.697 297.741 685.737 312.61C677.778 327.479 664.896 339.134 649.288 345.588C633.68 352.042 616.312 352.896 600.144 348.004C583.976 343.112 570.009 332.777 560.623 318.76C551.236 304.744 547.013 287.913 548.671 271.137C550.33 254.362 557.768 238.679 569.718 226.762C576.485 219.998 584.523 214.633 593.372 210.974C602.22 207.315 611.706 205.434 621.284 205.439V205.439ZM666.768 232.868C656.246 222.371 642.402 215.838 627.595 214.384C612.787 212.929 597.932 216.642 585.56 224.89C573.189 233.139 564.067 245.412 559.748 259.618C555.429 273.825 556.181 289.086 561.875 302.802C567.569 316.517 577.854 327.838 590.976 334.836C604.099 341.834 619.247 344.076 633.84 341.18C648.434 338.283 661.569 330.428 671.008 318.952C680.447 307.476 685.607 293.089 685.606 278.244C685.617 269.815 683.958 261.467 680.725 253.68C677.492 245.893 672.749 238.82 666.768 232.868V232.868ZM710.247 179.673C709.424 178.898 708.938 177.832 708.892 176.704C708.847 175.576 709.247 174.475 710.006 173.637C710.764 172.799 711.822 172.291 712.951 172.222C714.081 172.153 715.192 172.528 716.048 173.266C730.333 186.095 741.85 201.691 749.897 219.105C757.944 236.518 762.353 255.384 762.855 274.553C763.357 293.722 759.941 312.793 752.816 330.602C745.691 348.411 735.006 364.586 721.412 378.141C695.778 403.706 660.39 419.507 621.284 419.507C595.247 419.502 569.716 412.333 547.498 398.789C525.279 385.246 507.234 365.852 495.345 342.74C483.457 319.628 478.186 293.692 480.112 267.785C482.038 241.878 491.086 217.002 506.262 195.893C525.955 168.563 555.701 148.653 588.25 140.87C589.35 140.632 590.5 140.834 591.454 141.43C592.408 142.027 593.091 142.973 593.355 144.065C593.62 145.157 593.446 146.309 592.871 147.275C592.296 148.241 591.365 148.944 590.277 149.234C559.239 156.629 532.194 174.621 513.259 200.914C493.791 227.981 485.243 261.366 489.314 294.432C493.386 327.499 509.778 357.827 535.233 379.388C560.689 400.948 593.343 412.163 626.706 410.803C660.068 409.443 691.697 395.607 715.304 372.046C739.348 348.045 754.251 314.887 754.251 278.263C754.289 259.669 750.39 241.276 742.808 224.289C735.227 207.302 724.135 192.105 710.258 179.692L710.247 179.673ZM621.284 222.56C634.198 222.562 646.713 227.031 656.695 235.206C666.677 243.381 673.509 254.757 676.028 267.395C678.546 280.033 676.594 293.151 670.506 304.514C664.417 315.877 654.567 324.782 642.636 329.712C630.704 334.642 617.428 335.291 605.07 331.55C592.712 327.808 582.037 319.907 574.863 309.193C567.689 298.478 564.461 285.613 565.728 272.79C566.995 259.967 572.679 247.979 581.812 238.869C586.994 233.695 593.147 229.591 599.92 226.792C606.693 223.994 613.953 222.556 621.284 222.56ZM654.648 244.975C646.932 237.287 636.783 232.505 625.93 231.445C615.077 230.386 604.192 233.113 595.128 239.162C586.064 245.212 579.383 254.21 576.222 264.623C573.062 275.036 573.617 286.221 577.794 296.271C581.972 306.321 589.512 314.616 599.131 319.742C608.749 324.867 619.852 326.507 630.546 324.382C641.241 322.256 650.867 316.497 657.783 308.085C664.699 299.674 668.479 289.13 668.477 278.249C668.482 272.068 667.262 265.946 664.889 260.236C662.516 254.525 659.036 249.339 654.648 244.975V244.975ZM621.284 188.308C642.134 188.31 662.338 195.524 678.454 208.721C694.571 221.919 705.603 240.284 709.67 260.687C713.738 281.09 710.59 302.269 700.762 320.615C690.934 338.962 675.035 353.341 655.773 361.303C636.511 369.265 615.078 370.318 595.125 364.281C575.173 358.244 557.935 345.492 546.35 328.197C534.764 310.902 529.547 290.133 531.587 269.43C533.627 248.728 542.798 229.371 557.538 214.658C565.903 206.296 575.839 199.664 586.778 195.143C597.717 190.621 609.443 188.298 621.284 188.308V188.308ZM678.93 220.753C665.598 207.462 648.061 199.195 629.305 197.358C610.549 195.522 591.735 200.231 576.068 210.682C560.402 221.134 548.852 236.682 543.386 254.677C537.92 272.673 538.876 292.002 546.092 309.373C553.307 326.744 566.336 341.081 582.958 349.942C599.58 358.804 618.767 361.641 637.251 357.971C655.734 354.3 672.371 344.35 684.326 329.814C696.281 315.278 702.815 297.056 702.815 278.252C702.825 267.571 700.721 256.993 696.622 247.125C692.523 237.258 686.511 228.295 678.93 220.753V220.753ZM651.939 184.636C651.391 184.468 650.881 184.193 650.441 183.826C650.001 183.459 649.638 183.009 649.374 182.501C649.11 181.993 648.95 181.437 648.903 180.867C648.857 180.296 648.925 179.722 649.103 179.178C649.281 178.634 649.566 178.131 649.941 177.698C650.317 177.266 650.774 176.912 651.288 176.657C651.802 176.403 652.362 176.253 652.934 176.217C653.506 176.18 654.08 176.258 654.622 176.445C679.05 184.399 699.807 200.834 713.12 222.762C726.433 244.69 731.42 270.656 727.172 295.942C722.925 321.227 709.726 344.152 689.974 360.551C670.223 376.95 645.23 385.734 619.538 385.306C593.846 384.879 569.16 375.268 549.968 358.221C530.775 341.174 518.35 317.822 514.95 292.41C511.55 266.998 517.401 241.212 531.44 219.739C545.479 198.266 566.773 182.531 591.453 175.394C591.997 175.237 592.566 175.188 593.129 175.25C593.692 175.312 594.236 175.484 594.732 175.757C595.228 176.029 595.666 176.396 596.02 176.837C596.374 177.278 596.637 177.784 596.795 178.327C596.952 178.869 597.001 179.437 596.939 179.999C596.877 180.56 596.704 181.104 596.431 181.599C596.158 182.094 595.79 182.53 595.348 182.883C594.907 183.236 594.399 183.499 593.855 183.656C571.169 190.213 551.593 204.673 538.686 224.408C525.778 244.144 520.395 267.845 523.516 291.204C526.637 314.564 538.053 336.031 555.692 351.704C573.33 367.377 596.018 376.216 619.634 376.615C643.25 377.013 666.225 368.945 684.384 353.876C702.543 338.807 714.681 317.738 718.592 294.497C722.503 271.256 717.927 247.387 705.696 227.227C693.465 207.067 674.39 191.955 651.939 184.636V184.636ZM602.957 181.5C602.399 181.603 601.828 181.595 601.273 181.478C600.719 181.36 600.194 181.134 599.727 180.814C599.26 180.494 598.861 180.085 598.552 179.611C598.244 179.137 598.032 178.606 597.929 178.05C597.826 177.495 597.834 176.924 597.952 176.371C598.069 175.818 598.295 175.294 598.616 174.828C598.937 174.362 599.347 173.964 599.823 173.656C600.298 173.348 600.829 173.137 601.386 173.034C602.122 172.898 602.758 172.779 603.354 172.68C604.11 172.55 604.805 172.436 605.302 172.36C606.436 172.191 607.591 172.479 608.512 173.16C609.433 173.841 610.045 174.859 610.214 175.991C610.382 177.122 610.094 178.274 609.411 179.193C608.729 180.112 607.708 180.723 606.574 180.891C605.819 180.999 605.263 181.098 604.766 181.174C604.11 181.288 603.513 181.395 602.957 181.497V181.5ZM602.003 155.55C602.562 155.461 603.133 155.483 603.684 155.615C604.235 155.747 604.754 155.986 605.212 156.318C605.671 156.65 606.059 157.068 606.355 157.55C606.651 158.032 606.849 158.567 606.938 159.125C607.027 159.683 607.004 160.253 606.872 160.803C606.74 161.353 606.501 161.871 606.168 162.328C605.835 162.785 605.416 163.173 604.933 163.468C604.45 163.763 603.914 163.961 603.354 164.05C577.134 168.138 553.112 181.076 535.299 200.704C517.487 220.333 506.961 245.463 505.48 271.901C503.999 298.339 511.652 324.484 527.161 345.97C542.67 367.457 565.097 382.986 590.698 389.964C616.298 396.942 643.523 394.947 667.827 384.313C692.132 373.678 712.044 355.047 724.241 331.53C736.438 308.013 740.181 281.033 734.844 255.095C729.508 229.157 715.416 205.83 694.921 189.008C694.483 188.649 694.121 188.207 693.855 187.708C693.588 187.21 693.423 186.663 693.368 186.101C693.314 185.538 693.37 184.97 693.536 184.429C693.701 183.889 693.971 183.386 694.331 182.949C694.692 182.513 695.134 182.151 695.634 181.886C696.134 181.62 696.682 181.455 697.246 181.4C697.81 181.346 698.379 181.403 698.921 181.567C699.463 181.732 699.967 182.002 700.404 182.361C722.394 200.423 737.511 225.463 743.231 253.303C748.951 281.142 744.929 310.097 731.836 335.335C718.743 360.573 697.371 380.567 671.286 391.981C645.202 403.394 615.983 405.537 588.506 398.051C561.03 390.565 536.957 373.904 520.306 350.847C503.655 327.791 495.433 299.734 497.013 271.359C498.592 242.984 509.877 216.008 528.984 194.932C548.091 173.857 573.864 159.957 602.003 155.552V155.55ZM722.182 167.26C721.367 166.484 720.889 165.421 720.849 164.298C720.81 163.175 721.211 162.08 721.969 161.249C722.726 160.417 723.78 159.914 724.904 159.847C726.028 159.779 727.134 160.153 727.986 160.888C743.917 175.303 756.748 192.797 765.698 212.309C774.649 231.821 779.534 252.943 780.056 274.395C780.579 295.847 776.728 317.182 768.738 337.104C760.748 357.027 748.785 375.122 733.575 390.293C704.84 418.96 665.138 436.705 621.284 436.705C577.43 436.705 537.729 418.96 508.994 390.293C480.259 361.625 462.476 322.01 462.476 278.252C462.483 271.018 462.981 263.792 463.967 256.625C464.942 249.474 466.409 242.397 468.357 235.446C468.689 234.37 469.429 233.466 470.419 232.927C471.41 232.388 472.572 232.256 473.659 232.56C474.745 232.864 475.669 233.579 476.234 234.554C476.8 235.528 476.961 236.684 476.683 237.775C474.837 244.337 473.443 251.018 472.512 257.77C471.598 264.559 471.139 271.402 471.14 278.252C471.126 303.214 477.361 327.783 489.279 349.73C501.197 371.677 518.421 390.306 539.387 403.925C560.353 417.545 584.396 425.723 609.334 427.719C634.271 429.714 659.314 425.462 682.186 415.349C705.059 405.237 725.038 389.584 740.309 369.813C755.58 350.041 765.659 326.776 769.631 302.132C773.603 277.487 771.342 252.242 763.054 228.691C754.766 205.139 740.713 184.026 722.17 167.268L722.182 167.26ZM481.826 222.623C481.623 223.156 481.315 223.644 480.92 224.057C480.526 224.471 480.053 224.802 479.529 225.031C479.005 225.259 478.44 225.382 477.868 225.391C477.296 225.399 476.728 225.294 476.198 225.082C475.667 224.869 475.184 224.553 474.777 224.151C474.37 223.75 474.047 223.272 473.827 222.745C473.608 222.218 473.496 221.653 473.497 221.082C473.499 220.511 473.615 219.947 473.838 219.421C476.485 212.795 479.584 206.357 483.115 200.155C486.658 193.942 490.608 187.969 494.94 182.276C495.635 181.367 496.664 180.77 497.8 180.617C498.936 180.464 500.087 180.768 500.998 181.462C501.91 182.155 502.508 183.182 502.661 184.316C502.814 185.449 502.51 186.597 501.815 187.507C493.583 198.249 486.859 210.061 481.826 222.617V222.623ZM507.736 180.225C507.37 180.672 506.919 181.041 506.409 181.31C505.898 181.58 505.338 181.744 504.763 181.794C504.187 181.844 503.608 181.778 503.058 181.601C502.509 181.423 502 181.138 501.564 180.761C501.127 180.384 500.77 179.923 500.514 179.406C500.259 178.889 500.11 178.326 500.077 177.751C500.043 177.175 500.126 176.599 500.319 176.056C500.513 175.513 500.814 175.014 501.204 174.59C503.987 171.388 506.888 168.308 509.908 165.35C512.989 162.344 516.127 159.477 519.367 156.771C520.245 156.037 521.379 155.682 522.519 155.783C523.66 155.883 524.713 156.432 525.448 157.308C526.183 158.184 526.54 159.315 526.439 160.453C526.338 161.591 525.788 162.642 524.91 163.375C521.788 165.986 518.801 168.689 515.948 171.484C513.095 174.28 510.359 177.193 507.741 180.225H507.736ZM684.249 123.525C683.205 123.083 682.377 122.251 681.943 121.206C681.509 120.161 681.504 118.988 681.928 117.939C682.353 116.89 683.173 116.05 684.213 115.599C685.253 115.148 686.428 115.123 687.486 115.529C690.23 116.643 693.052 117.889 696.005 119.255C698.826 120.577 701.595 121.963 704.312 123.411C704.818 123.673 705.266 124.033 705.632 124.469C705.997 124.906 706.273 125.41 706.442 125.953C706.611 126.496 706.67 127.067 706.617 127.633C706.563 128.2 706.397 128.75 706.129 129.251C705.861 129.753 705.496 130.197 705.055 130.557C704.613 130.917 704.105 131.187 703.559 131.349C703.013 131.512 702.44 131.565 701.873 131.506C701.306 131.446 700.757 131.275 700.256 131.002C697.652 129.613 695.012 128.293 692.368 127.035C689.843 125.851 687.123 124.672 684.26 123.516L684.249 123.525ZM714.75 139.714C714.264 139.407 713.845 139.006 713.516 138.535C713.188 138.064 712.958 137.532 712.839 136.971C712.719 136.409 712.714 135.83 712.823 135.266C712.932 134.703 713.153 134.166 713.472 133.689C713.792 133.212 714.204 132.804 714.685 132.488C715.165 132.173 715.704 131.956 716.269 131.851C716.835 131.747 717.416 131.756 717.977 131.879C718.539 132.001 719.071 132.235 719.541 132.566C767.646 164.919 797.275 220.495 797.275 278.244C797.275 326.73 777.582 370.627 745.749 402.397C713.916 434.167 669.928 453.827 621.298 453.827C572.668 453.827 528.724 434.17 496.868 402.397C465.012 370.624 445.322 326.73 445.322 278.244C445.324 264.456 446.952 250.716 450.172 237.308C453.356 223.93 458.123 210.977 464.37 198.721C464.622 198.206 464.974 197.747 465.405 197.369C465.837 196.991 466.339 196.703 466.883 196.521C467.427 196.339 468.002 196.267 468.575 196.309C469.147 196.351 469.705 196.507 470.217 196.766C470.729 197.026 471.183 197.384 471.555 197.821C471.926 198.257 472.207 198.763 472.38 199.309C472.554 199.855 472.616 200.43 472.565 201C472.513 201.57 472.349 202.125 472.08 202.631C456.115 234.042 450.509 269.684 456.062 304.464C461.614 339.244 478.043 371.384 502.999 396.291C533.262 426.505 575.091 445.191 621.29 445.191C667.489 445.191 709.338 426.491 739.601 396.291C769.863 366.091 788.623 324.342 788.623 278.244C788.623 222.26 761.279 171.031 714.742 139.714H714.75ZM477.24 193.281C476.648 194.246 475.699 194.941 474.598 195.215C473.498 195.489 472.333 195.321 471.356 194.746C470.378 194.172 469.666 193.237 469.373 192.143C469.08 191.05 469.229 189.885 469.789 188.901C470.623 187.501 471.518 186.036 472.512 184.483C473.526 182.883 474.457 181.426 475.332 180.137C475.986 179.223 476.973 178.6 478.08 178.401C479.188 178.201 480.331 178.44 481.265 179.067C482.199 179.694 482.851 180.66 483.082 181.759C483.314 182.858 483.107 184.005 482.505 184.954C481.494 186.447 480.599 187.818 479.804 189.065C478.989 190.363 478.115 191.774 477.249 193.275L477.24 193.281ZM557.121 124.009C556.6 124.228 556.041 124.341 555.477 124.342C554.912 124.343 554.352 124.232 553.831 124.015C553.31 123.798 552.837 123.48 552.44 123.079C552.042 122.679 551.729 122.203 551.518 121.68C551.078 120.629 551.073 119.446 551.505 118.391C551.936 117.336 552.769 116.494 553.821 116.05C555.67 115.291 557.638 114.506 559.824 113.704C561.789 112.976 563.8 112.262 565.904 111.574C566.441 111.397 567.007 111.327 567.571 111.368C568.135 111.409 568.686 111.561 569.191 111.815C569.696 112.068 570.146 112.418 570.515 112.845C570.885 113.273 571.166 113.768 571.344 114.304C571.521 114.839 571.591 115.404 571.55 115.967C571.508 116.53 571.356 117.079 571.102 117.583C570.848 118.087 570.497 118.536 570.069 118.904C569.641 119.273 569.144 119.554 568.608 119.731C566.699 120.36 564.791 121.037 562.823 121.762C561.057 122.42 559.188 123.179 557.121 124.009V124.009ZM707.205 115.311C706.193 114.782 705.432 113.874 705.091 112.786C704.749 111.697 704.855 110.519 705.385 109.508C705.915 108.498 706.825 107.739 707.916 107.398C709.007 107.058 710.188 107.163 711.201 107.692L713.265 108.78L715.273 109.913C716.265 110.472 716.995 111.399 717.304 112.493C717.613 113.586 717.476 114.758 716.922 115.751C716.369 116.744 715.443 117.478 714.349 117.792C713.255 118.107 712.08 117.977 711.081 117.43L709.133 116.373V116.356L707.205 115.331V115.311ZM746.092 142.661C745.666 142.281 745.32 141.82 745.074 141.305C744.828 140.79 744.686 140.231 744.659 139.661C744.631 139.092 744.716 138.522 744.911 137.985C745.105 137.449 745.405 136.956 745.792 136.536C746.179 136.116 746.645 135.777 747.165 135.539C747.684 135.3 748.246 135.167 748.817 135.147C749.389 135.127 749.958 135.22 750.493 135.421C751.028 135.623 751.518 135.928 751.933 136.32C771.65 154.353 787.389 176.284 798.148 200.716C808.908 225.149 814.452 251.548 814.43 278.235C814.43 331.451 792.828 379.628 757.857 414.492C722.886 449.356 674.637 470.938 621.284 470.938C567.932 470.938 519.685 449.367 484.711 414.492C449.737 379.617 428.17 331.459 428.17 278.244C427.812 250.964 434.948 219.724 446.73 195.794C446.963 195.273 447.298 194.804 447.715 194.414C448.132 194.024 448.622 193.721 449.158 193.522C449.694 193.323 450.264 193.233 450.835 193.256C451.406 193.28 451.967 193.416 452.484 193.658C453.002 193.901 453.466 194.243 453.849 194.666C454.233 195.089 454.528 195.584 454.717 196.122C454.907 196.66 454.987 197.23 454.953 197.8C454.919 198.369 454.771 198.926 454.519 199.438C442.578 225.116 436.913 250.364 436.814 278.246C436.814 329.082 457.461 375.101 490.842 408.406C524.223 441.712 570.354 462.316 621.295 462.316C672.237 462.316 718.365 441.715 751.746 408.406C785.127 375.098 805.797 329.073 805.797 278.246C805.83 252.748 800.539 227.523 790.259 204.179C779.979 180.834 764.937 159.883 746.092 142.661V142.661ZM538.461 113.716C537.442 114.213 536.267 114.29 535.191 113.929C534.115 113.569 533.225 112.8 532.713 111.789C532.201 110.779 532.109 109.607 532.456 108.529C532.803 107.451 533.562 106.553 534.568 106.029C537.124 104.734 539.733 103.504 542.298 102.346L542.536 102.252C544.981 101.153 547.523 100.082 550.127 99.0561C551.189 98.6353 552.375 98.6527 553.424 99.1043C554.473 99.556 555.299 100.405 555.721 101.464C556.143 102.524 556.125 103.707 555.673 104.754C555.22 105.801 554.369 106.625 553.307 107.046C550.902 107.992 548.48 109.012 546.052 110.1L545.876 110.2C543.32 111.333 540.867 112.503 538.461 113.707V113.716ZM726.339 106.46C725.367 105.858 724.673 104.896 724.411 103.785C724.15 102.674 724.341 101.504 724.943 100.534C725.546 99.5632 726.51 98.8713 727.624 98.6101C728.738 98.349 729.91 98.54 730.883 99.1411L732.393 100.065L732.413 100.085L733.884 101.011C734.378 101.305 734.807 101.695 735.147 102.157C735.487 102.619 735.732 103.144 735.866 103.702C736 104.259 736.021 104.838 735.927 105.404C735.834 105.97 735.628 106.511 735.322 106.996C735.016 107.482 734.616 107.901 734.146 108.23C733.675 108.559 733.143 108.791 732.581 108.912C732.02 109.033 731.439 109.041 730.875 108.935C730.31 108.829 729.772 108.612 729.292 108.296L727.805 107.366L726.353 106.465L726.339 106.46ZM768.98 141.264C768.233 140.422 767.844 139.322 767.898 138.199C767.952 137.075 768.445 136.018 769.27 135.251C770.095 134.485 771.188 134.071 772.315 134.097C773.442 134.124 774.514 134.589 775.301 135.393C795.467 157.015 810.828 182.643 820.378 210.599C829.929 238.555 833.454 268.208 830.722 297.617C827.991 327.026 819.065 355.528 804.528 381.257C789.991 406.985 770.172 429.36 746.368 446.917C745.449 447.585 744.303 447.865 743.178 447.695C742.054 447.526 741.042 446.92 740.362 446.011C739.682 445.102 739.389 443.961 739.546 442.838C739.703 441.714 740.298 440.698 741.202 440.009C764.045 423.185 783.067 401.733 797.019 377.061C810.971 352.389 819.54 325.053 822.162 296.845C824.785 268.637 821.403 240.195 812.238 213.383C803.073 186.571 788.331 161.994 768.98 141.264V141.264ZM721.074 453.133C722.069 452.569 723.247 452.423 724.35 452.726C725.452 453.029 726.389 453.757 726.954 454.749C727.519 455.742 727.666 456.917 727.362 458.017C727.058 459.118 726.328 460.052 725.334 460.616C693.646 478.665 657.778 488.132 621.29 488.076C563.226 488.076 510.649 464.582 472.597 426.616C434.545 388.65 410.99 336.176 410.99 278.244C410.99 274.018 411.122 269.72 411.387 265.349C411.665 260.918 412.063 256.617 412.58 252.446C412.737 251.325 413.329 250.311 414.228 249.621C415.128 248.932 416.263 248.623 417.388 248.76C418.514 248.898 419.541 249.471 420.247 250.357C420.954 251.242 421.283 252.369 421.164 253.495C420.647 257.677 420.25 261.802 420.011 265.856C419.773 269.849 419.634 273.98 419.634 278.244C419.634 333.799 442.189 384.108 478.7 420.51C515.21 456.913 565.595 479.443 621.273 479.443C656.266 479.503 690.667 470.434 721.063 453.136L721.074 453.133ZM535.463 96.135C534.95 96.3759 534.395 96.5137 533.829 96.5406C533.263 96.5675 532.697 96.4829 532.164 96.2916C531.631 96.1003 531.141 95.8061 530.721 95.4258C530.302 95.0455 529.962 94.5866 529.721 94.0752C529.479 93.5637 529.341 93.0099 529.314 92.4452C529.287 91.8805 529.372 91.3161 529.564 90.7841C529.755 90.2521 530.05 89.763 530.431 89.3447C530.813 88.9264 531.272 88.5871 531.785 88.3462C533.654 87.465 535.602 86.5867 537.606 85.7112C539.475 84.8971 541.463 84.0754 543.57 83.2462C544.097 83.0327 544.661 82.9254 545.229 82.9305C545.798 82.9355 546.36 83.0529 546.883 83.2757C547.406 83.4985 547.879 83.8225 548.276 84.2288C548.673 84.6351 548.985 85.1158 549.195 85.6432C549.405 86.1705 549.508 86.7341 549.498 87.3013C549.489 87.8686 549.366 88.4284 549.139 88.9483C548.911 89.4683 548.583 89.9381 548.172 90.3308C547.762 90.7234 547.278 91.0312 546.747 91.2362C544.961 91.953 543.056 92.7435 541.068 93.602C539.239 94.3915 537.372 95.2359 535.465 96.135H535.463ZM783.292 131.483C782.521 130.637 782.119 129.519 782.173 128.377C782.228 127.234 782.735 126.16 783.583 125.39C784.432 124.621 785.552 124.219 786.697 124.274C787.842 124.328 788.919 124.834 789.69 125.681C827.752 167.412 848.818 221.825 848.756 278.249C848.756 281.136 848.697 284.23 848.538 287.531C848.418 290.781 848.219 293.835 847.97 296.711C847.929 297.274 847.777 297.823 847.523 298.327C847.269 298.831 846.918 299.28 846.49 299.648C846.062 300.017 845.565 300.297 845.028 300.474C844.491 300.651 843.925 300.72 843.361 300.678C842.215 300.589 841.152 300.052 840.403 299.182C839.654 298.313 839.281 297.183 839.365 296.04C839.624 292.923 839.803 289.982 839.902 287.197C840.001 284.412 840.101 281.468 840.101 278.252C840.184 223.968 819.913 171.615 783.273 131.486L783.292 131.483ZM830.273 343.186C830.442 342.647 830.715 342.146 831.078 341.712C831.441 341.278 831.886 340.919 832.388 340.657C832.89 340.395 833.439 340.234 834.003 340.183C834.567 340.132 835.136 340.193 835.676 340.361C836.217 340.53 836.719 340.803 837.154 341.165C837.589 341.527 837.948 341.971 838.211 342.472C838.474 342.973 838.636 343.52 838.687 344.083C838.737 344.646 838.677 345.214 838.508 345.753C832.468 365.172 823.813 383.682 812.78 400.776C801.718 417.929 788.405 433.527 773.194 447.155C772.341 447.907 771.225 448.292 770.089 448.228C768.952 448.163 767.888 447.653 767.126 446.81C766.364 445.966 765.967 444.856 766.02 443.722C766.074 442.587 766.575 441.52 767.413 440.751C782.05 427.635 794.861 412.622 805.505 396.112C816.107 379.663 824.434 361.86 830.261 343.186H830.273ZM726.947 469.459C727.445 469.17 727.996 468.983 728.567 468.909C729.138 468.835 729.718 468.876 730.274 469.029C730.829 469.181 731.348 469.443 731.801 469.799C732.253 470.155 732.63 470.597 732.909 471.1C733.188 471.602 733.364 472.156 733.426 472.727C733.487 473.299 733.434 473.877 733.269 474.427C733.105 474.978 732.831 475.49 732.465 475.934C732.099 476.378 731.648 476.745 731.138 477.012C697.505 495.535 659.709 505.232 621.293 505.195C558.481 505.195 501.61 479.8 460.477 438.728C419.284 397.659 393.832 340.917 393.832 278.244C393.832 275.599 393.892 272.719 394.011 269.602C395.181 238.535 403.686 205.022 417.637 177.137C417.887 176.629 418.236 176.176 418.663 175.803C419.089 175.43 419.586 175.146 420.124 174.966C420.661 174.786 421.229 174.714 421.795 174.755C422.361 174.795 422.913 174.947 423.419 175.202C424.442 175.713 425.221 176.608 425.586 177.69C425.951 178.772 425.872 179.954 425.367 180.979C411.097 209.513 403.805 238.033 402.612 269.902C402.536 272.413 402.476 275.192 402.476 278.244C402.476 338.537 426.974 393.118 466.557 432.623C506.14 472.128 560.886 496.571 621.293 496.571C639.717 496.594 658.071 494.293 675.917 489.722C693.721 485.158 710.869 478.348 726.947 469.459V469.459ZM796.247 120.221C795.854 119.804 795.548 119.313 795.347 118.777C795.146 118.241 795.055 117.67 795.078 117.098C795.101 116.526 795.238 115.964 795.482 115.446C795.726 114.928 796.07 114.463 796.496 114.08C796.922 113.696 797.421 113.401 797.962 113.212C798.504 113.023 799.078 112.944 799.65 112.979C800.223 113.014 800.783 113.163 801.297 113.417C801.811 113.671 802.27 114.025 802.645 114.458C843.429 159.294 865.989 217.695 865.914 278.244C865.914 278.51 865.914 279.153 865.874 280.326V281.261C865.881 281.835 865.772 282.404 865.555 282.935C865.338 283.466 865.017 283.948 864.611 284.354C864.204 284.759 863.721 285.079 863.188 285.296C862.656 285.512 862.086 285.62 861.511 285.614C860.936 285.607 860.369 285.486 859.842 285.257C859.314 285.029 858.838 284.697 858.441 284.283C858.044 283.868 857.735 283.378 857.53 282.842C857.325 282.306 857.23 281.735 857.25 281.162L857.29 280.21V278.244C857.381 219.82 835.608 163.467 796.236 120.221H796.247ZM832.709 382.926C832.955 382.412 833.301 381.952 833.726 381.572C834.152 381.192 834.649 380.901 835.189 380.714C835.728 380.528 836.299 380.45 836.869 380.486C837.439 380.521 837.996 380.669 838.508 380.922C839.02 381.174 839.477 381.525 839.851 381.955C840.226 382.385 840.512 382.884 840.691 383.425C840.871 383.966 840.941 384.537 840.898 385.105C840.854 385.673 840.698 386.227 840.439 386.734C826.907 413.915 808.417 438.341 785.916 458.763C785.5 459.159 785.008 459.468 784.47 459.671C783.932 459.875 783.358 459.969 782.783 459.948C782.208 459.927 781.643 459.792 781.121 459.55C780.599 459.308 780.131 458.965 779.744 458.539C779.357 458.114 779.059 457.616 778.868 457.075C778.677 456.533 778.596 455.959 778.631 455.386C778.665 454.812 778.814 454.252 779.069 453.737C779.324 453.222 779.68 452.764 780.115 452.388C801.804 432.682 819.638 409.129 832.709 382.926V382.926ZM723.36 490.592C723.87 490.347 724.424 490.205 724.989 490.174C725.554 490.142 726.12 490.222 726.655 490.409C727.189 490.596 727.681 490.886 728.103 491.263C728.525 491.639 728.868 492.095 729.114 492.604C729.359 493.113 729.501 493.665 729.533 494.229C729.564 494.793 729.484 495.358 729.297 495.891C729.11 496.424 728.819 496.915 728.442 497.336C728.064 497.757 727.608 498.099 727.097 498.344C721.418 501.07 715.651 503.569 709.775 505.83C703.9 508.091 697.891 510.17 691.885 511.975C691.342 512.136 690.772 512.187 690.209 512.128C689.645 512.068 689.099 511.899 688.601 511.629C688.104 511.359 687.664 510.993 687.308 510.554C686.952 510.114 686.686 509.609 686.525 509.067C686.365 508.525 686.313 507.956 686.372 507.394C686.432 506.832 686.602 506.287 686.873 505.791C687.143 505.294 687.509 504.855 687.95 504.5C688.39 504.145 688.897 503.879 689.44 503.719C695.343 501.944 701.099 499.971 706.708 497.8C712.388 495.599 717.976 493.19 723.38 490.592H723.36ZM673.949 507.802C674.502 507.677 675.074 507.662 675.632 507.757C676.19 507.852 676.724 508.057 677.204 508.358C677.683 508.66 678.098 509.052 678.425 509.514C678.752 509.975 678.985 510.496 679.111 511.047C679.236 511.599 679.251 512.169 679.156 512.726C679.06 513.283 678.855 513.816 678.553 514.294C678.251 514.773 677.857 515.187 677.395 515.513C676.933 515.84 676.41 516.072 675.858 516.197C666.93 518.235 657.894 519.765 648.792 520.778C637.292 522.058 625.715 522.531 614.148 522.195C613.007 522.162 611.927 521.679 611.142 520.852C610.358 520.025 609.933 518.922 609.962 517.784C609.991 516.646 610.471 515.566 611.296 514.78C612.122 513.994 613.226 513.566 614.367 513.59C625.54 513.906 636.721 513.446 647.83 512.213C656.609 511.234 665.325 509.761 673.938 507.802H673.949ZM596.505 512.409C597.069 512.466 597.615 512.634 598.114 512.902C598.613 513.17 599.054 513.534 599.412 513.972C599.77 514.41 600.038 514.914 600.2 515.456C600.363 515.997 600.417 516.565 600.36 517.128C600.302 517.69 600.134 518.236 599.866 518.733C599.597 519.231 599.233 519.671 598.793 520.028C598.354 520.385 597.849 520.653 597.306 520.815C596.763 520.977 596.194 521.031 595.63 520.974C588.636 520.251 581.761 519.229 574.886 517.911C574.329 517.804 573.798 517.589 573.325 517.278C572.851 516.966 572.443 516.565 572.125 516.096C571.482 515.15 571.242 513.988 571.459 512.865C571.675 511.742 572.329 510.751 573.278 510.11C574.226 509.469 575.391 509.23 576.516 509.445C583.133 510.715 589.809 511.712 596.505 512.409ZM537.033 498.242C538.075 498.665 538.911 499.477 539.362 500.506C539.813 501.535 539.843 502.699 539.447 503.75C539.05 504.8 538.258 505.655 537.239 506.132C536.22 506.608 535.055 506.668 533.992 506.3C487.315 488.515 447.554 456.884 419.634 416.447C391.575 375.807 376.584 327.607 376.655 278.258C376.64 257.906 379.176 237.632 384.205 217.908C384.333 217.346 384.573 216.815 384.91 216.347C385.247 215.879 385.674 215.483 386.167 215.182C386.659 214.881 387.207 214.682 387.779 214.595C388.35 214.509 388.932 214.538 389.492 214.68C390.052 214.822 390.578 215.075 391.038 215.423C391.499 215.77 391.885 216.207 392.174 216.706C392.462 217.205 392.648 217.757 392.72 218.329C392.792 218.901 392.748 219.481 392.591 220.036C390.154 229.515 388.334 239.142 387.145 248.856C385.914 258.611 385.304 268.434 385.319 278.266C385.319 327.764 400.599 373.681 426.727 411.56C453.86 450.926 492.322 481.156 537.033 498.259V498.242ZM438.961 128.758C438.235 129.641 437.187 130.201 436.047 130.313C434.908 130.425 433.77 130.081 432.885 129.357C432 128.633 431.439 127.587 431.327 126.45C431.214 125.313 431.558 124.178 432.285 123.295C433.477 121.852 434.629 120.487 435.74 119.201C437.052 117.685 438.225 116.345 439.259 115.198C439.637 114.771 440.096 114.423 440.609 114.174C441.122 113.926 441.68 113.781 442.25 113.748C442.82 113.716 443.39 113.797 443.929 113.985C444.467 114.174 444.963 114.468 445.387 114.849C445.811 115.23 446.155 115.691 446.399 116.206C446.643 116.721 446.783 117.278 446.81 117.847C446.837 118.416 446.751 118.985 446.556 119.52C446.362 120.055 446.063 120.547 445.677 120.966C444.384 122.417 443.251 123.706 442.269 124.831C441.099 126.191 439.997 127.503 438.972 128.758H438.961ZM820.163 121.958C819.804 121.513 819.538 121.002 819.378 120.454C819.219 119.906 819.17 119.332 819.235 118.765C819.299 118.198 819.476 117.65 819.755 117.151C820.033 116.653 820.408 116.215 820.858 115.862C821.308 115.51 821.823 115.249 822.374 115.097C822.925 114.945 823.501 114.903 824.069 114.974C824.636 115.045 825.184 115.228 825.68 115.512C826.176 115.796 826.611 116.176 826.959 116.628C859.932 158.284 879.334 209.012 882.557 261.995C882.624 263.136 882.234 264.257 881.473 265.111C880.712 265.965 879.642 266.482 878.498 266.549C877.354 266.616 876.231 266.227 875.375 265.467C874.519 264.708 874 263.64 873.933 262.499C870.795 211.279 852.033 162.242 820.163 121.966V121.958ZM855.293 374.78C855.497 374.245 855.806 373.755 856.202 373.34C856.598 372.925 857.073 372.593 857.599 372.364C858.125 372.134 858.692 372.012 859.267 372.005C859.841 371.997 860.411 372.104 860.943 372.319C861.475 372.534 861.959 372.853 862.366 373.258C862.773 373.662 863.095 374.144 863.312 374.674C863.53 375.204 863.64 375.772 863.634 376.345C863.629 376.918 863.509 377.484 863.281 378.01C863.063 378.546 862.804 379.062 862.608 379.589C862.405 380.124 862.097 380.613 861.701 381.028C861.306 381.443 860.831 381.774 860.305 382.003C859.779 382.232 859.213 382.353 858.639 382.361C858.065 382.368 857.496 382.26 856.964 382.045C856.433 381.829 855.95 381.51 855.544 381.105C855.138 380.7 854.818 380.219 854.601 379.689C854.385 379.159 854.276 378.591 854.283 378.018C854.29 377.446 854.411 376.881 854.64 376.356L855.293 374.78ZM849.046 388.587C849.293 388.079 849.638 387.624 850.061 387.248C850.485 386.873 850.978 386.585 851.514 386.401C852.049 386.217 852.616 386.14 853.181 386.174C853.746 386.209 854.299 386.355 854.808 386.604C855.837 387.105 856.626 387.991 857.006 389.069C857.385 390.147 857.324 391.331 856.835 392.364C841.837 423.106 820.946 450.619 795.344 473.346C794.488 474.103 793.365 474.49 792.223 474.421C791.081 474.352 790.013 473.833 789.254 472.979C788.496 472.125 788.108 471.004 788.177 469.865C788.246 468.725 788.766 467.66 789.622 466.903C814.359 444.912 834.551 418.31 849.063 388.593L849.046 388.587ZM535.684 516.03C536.759 516.414 537.637 517.208 538.125 518.238C538.613 519.268 538.671 520.45 538.287 521.522C537.902 522.595 537.106 523.471 536.073 523.958C535.041 524.445 533.857 524.503 532.782 524.119C468.599 501.04 415.962 453.904 386.052 392.724C356.142 331.544 351.317 261.139 372.6 196.466C372.777 195.926 373.06 195.427 373.431 194.996C373.802 194.566 374.254 194.212 374.762 193.956C375.27 193.7 375.824 193.546 376.391 193.503C376.959 193.461 377.529 193.53 378.07 193.707C378.611 193.885 379.111 194.166 379.543 194.537C379.975 194.907 380.329 195.358 380.585 195.865C380.842 196.372 380.996 196.925 381.039 197.491C381.082 198.057 381.012 198.626 380.835 199.166C368.525 236.539 365.119 276.262 370.886 315.179C376.653 354.096 391.436 391.135 414.059 423.355C443.825 465.571 486.231 498.288 535.71 516.03H535.684ZM416.754 129.412C416.419 129.868 415.996 130.253 415.511 130.546C415.027 130.839 414.489 131.033 413.929 131.119C413.368 131.204 412.797 131.178 412.246 131.043C411.696 130.908 411.178 130.667 410.721 130.332C410.265 129.997 409.879 129.576 409.585 129.092C409.292 128.608 409.097 128.071 409.011 127.512C408.925 126.953 408.951 126.383 409.086 125.834C409.222 125.285 409.464 124.768 409.8 124.312C411.072 122.576 412.421 120.782 413.852 118.912C415.243 117.144 416.635 115.373 418.066 113.619C418.795 112.76 419.834 112.22 420.958 112.116C422.082 112.012 423.202 112.353 424.077 113.065C424.952 113.777 425.512 114.803 425.636 115.922C425.761 117.042 425.44 118.165 424.742 119.051C423.372 120.73 422.02 122.438 420.687 124.173C419.415 125.814 418.106 127.573 416.754 129.407V129.412ZM829.213 105.879C828.847 105.446 828.569 104.945 828.398 104.405C828.226 103.864 828.163 103.296 828.212 102.731C828.262 102.166 828.423 101.617 828.686 101.115C828.949 100.613 829.31 100.167 829.746 99.8046C830.183 99.4419 830.687 99.1691 831.23 99.0017C831.772 98.8344 832.343 98.7758 832.909 98.8295C833.474 98.8832 834.023 99.048 834.525 99.3145C835.026 99.581 835.47 99.9438 835.83 100.382C854.136 122.311 868.948 146.923 879.743 173.351C891.19 201.35 897.826 231.378 899.735 261.394C899.777 262.518 899.377 263.613 898.621 264.447C897.865 265.281 896.812 265.787 895.687 265.858C894.562 265.929 893.454 265.558 892.599 264.825C891.744 264.092 891.21 263.055 891.111 261.935C889.242 232.469 883.003 204.135 871.735 176.584C861.29 150.974 846.948 127.125 829.213 105.879V105.879ZM881.135 352.842C881.28 352.287 881.535 351.767 881.885 351.311C882.235 350.856 882.672 350.475 883.172 350.191C883.671 349.906 884.223 349.724 884.793 349.655C885.364 349.586 885.943 349.631 886.496 349.789C887.049 349.946 887.565 350.211 888.014 350.57C888.463 350.929 888.835 351.373 889.109 351.878C889.383 352.382 889.554 352.936 889.611 353.507C889.668 354.077 889.61 354.654 889.441 355.202L888.725 357.599V357.619L888.029 359.951C887.683 361.029 886.926 361.928 885.922 362.454C884.918 362.981 883.746 363.093 882.66 362.767C881.574 362.44 880.66 361.701 880.114 360.709C879.568 359.716 879.435 358.55 879.743 357.46L880.459 355.123C880.658 354.497 880.876 353.735 881.135 352.856V352.842ZM873.604 375.197C874.018 374.132 874.839 373.275 875.887 372.814C876.934 372.354 878.122 372.327 879.189 372.74C880.257 373.154 881.116 373.973 881.577 375.018C882.039 376.063 882.066 377.249 881.651 378.314C867.002 416.178 844.233 450.389 814.938 478.551C814.53 478.942 814.049 479.25 813.522 479.457C812.995 479.663 812.433 479.764 811.867 479.753C810.723 479.731 809.636 479.258 808.843 478.436C808.05 477.614 807.616 476.512 807.638 475.371C807.659 474.231 808.134 473.145 808.958 472.354C837.336 445.049 859.396 411.891 873.598 375.197H873.604ZM480.381 508.468C480.88 508.753 481.316 509.135 481.665 509.591C482.013 510.047 482.267 510.569 482.41 511.124C482.554 511.68 482.585 512.259 482.5 512.826C482.416 513.394 482.219 513.939 481.92 514.429C481.622 514.919 481.228 515.345 480.762 515.681C480.296 516.017 479.767 516.256 479.206 516.385C478.646 516.514 478.066 516.53 477.499 516.431C476.933 516.333 476.392 516.122 475.908 515.812C435.054 490.848 401.283 455.869 377.808 414.203C355.212 373.987 342.337 327.614 342.337 278.244C342.332 265.131 343.255 252.034 345.1 239.05C346.924 226.101 349.676 213.298 353.335 200.741C353.482 200.188 353.738 199.669 354.089 199.216C354.44 198.763 354.878 198.384 355.377 198.102C355.877 197.82 356.428 197.641 356.998 197.575C357.568 197.508 358.145 197.557 358.696 197.716C359.248 197.876 359.761 198.144 360.207 198.504C360.653 198.865 361.022 199.311 361.292 199.815C361.563 200.32 361.73 200.874 361.783 201.444C361.836 202.014 361.774 202.589 361.601 203.135C358.076 215.297 355.419 227.693 353.65 240.229C351.873 252.823 350.983 265.526 350.986 278.244C350.986 326.107 363.464 371.043 385.364 409.993C408.106 450.365 440.816 484.264 480.386 508.471L480.381 508.468ZM391.637 135.929C391.338 136.409 390.946 136.826 390.485 137.156C390.024 137.485 389.503 137.721 388.951 137.849C388.399 137.977 387.826 137.996 387.267 137.904C386.708 137.812 386.172 137.61 385.691 137.312C385.209 137.013 384.791 136.622 384.461 136.162C384.131 135.703 383.895 135.182 383.766 134.631C383.638 134.081 383.619 133.51 383.711 132.952C383.804 132.393 384.005 131.859 384.305 131.379C385.895 128.851 387.599 126.228 389.416 123.508C391.12 120.958 392.915 118.408 394.741 115.878C395.408 114.957 396.415 114.339 397.54 114.159C398.664 113.979 399.814 114.252 400.737 114.918C401.659 115.585 402.279 116.589 402.459 117.711C402.639 118.833 402.366 119.98 401.698 120.901C399.994 123.312 398.29 125.783 396.609 128.296C394.981 130.687 393.326 133.232 391.643 135.929H391.637ZM455.303 65.3623C454.857 65.7085 454.347 65.9637 453.802 66.1133C453.258 66.2628 452.688 66.3039 452.128 66.234C451.567 66.1642 451.026 65.9848 450.534 65.7062C450.043 65.4275 449.612 65.0551 449.265 64.6101C448.918 64.1651 448.662 63.6562 448.512 63.1126C448.362 62.569 448.321 62.0012 448.391 61.4418C448.461 60.8823 448.641 60.342 448.92 59.8519C449.199 59.3617 449.572 58.9312 450.018 58.585C450.572 58.1374 451.438 57.4715 452.322 56.8057L452.461 56.6895C453.373 56.0559 454.496 55.7978 455.594 55.9691C456.693 56.1404 457.683 56.7278 458.359 57.6091C459.034 58.4904 459.343 59.5977 459.221 60.7004C459.099 61.8031 458.555 62.8164 457.703 63.5292L457.564 63.6453H457.524C456.888 64.1355 456.252 64.6342 455.298 65.3623H455.303ZM836.864 88.5134C836.113 87.6545 835.73 86.5363 835.797 85.3989C835.864 84.2615 836.376 83.1956 837.221 82.4302C837.643 82.0538 838.135 81.7642 838.669 81.578C839.204 81.3919 839.769 81.3128 840.334 81.3455C840.899 81.3781 841.452 81.5218 841.961 81.7683C842.471 82.0147 842.926 82.359 843.301 82.7816C871.516 114.418 893.237 153.739 905.258 194.309C905.418 194.851 905.469 195.419 905.41 195.98C905.35 196.542 905.179 197.086 904.909 197.581C904.638 198.077 904.272 198.515 903.832 198.87C903.392 199.224 902.886 199.489 902.343 199.649C901.8 199.808 901.231 199.86 900.669 199.8C900.106 199.74 899.56 199.571 899.064 199.3C898.567 199.03 898.128 198.665 897.772 198.226C897.417 197.787 897.152 197.282 896.992 196.74C885.19 156.952 864.502 119.533 836.864 88.5077V88.5134ZM894.331 368.128C894.699 367.042 895.481 366.146 896.507 365.632C897.534 365.118 898.722 365.028 899.814 365.382C900.354 365.559 900.853 365.841 901.283 366.211C901.713 366.582 902.066 367.033 902.32 367.54C902.575 368.046 902.727 368.598 902.767 369.163C902.807 369.729 902.735 370.296 902.555 370.834C888.801 412.317 866.011 450.248 835.821 481.9C835.029 482.727 833.941 483.208 832.794 483.238C831.648 483.268 830.536 482.844 829.702 482.058C829.29 481.668 828.961 481.2 828.732 480.682C828.503 480.164 828.379 479.605 828.368 479.039C828.357 478.472 828.458 477.91 828.667 477.383C828.875 476.856 829.187 476.375 829.582 475.97C841.757 463.19 852.731 449.323 862.367 434.544C875.886 413.899 886.63 391.572 894.322 368.136L894.331 368.128ZM461.502 516.724C461.973 517.039 462.376 517.443 462.69 517.914C463.004 518.384 463.222 518.912 463.331 519.467C463.441 520.021 463.44 520.592 463.328 521.146C463.216 521.7 462.996 522.227 462.681 522.697C462.365 523.166 461.96 523.569 461.488 523.882C461.017 524.195 460.488 524.412 459.932 524.521C459.376 524.631 458.804 524.63 458.249 524.518C457.693 524.407 457.165 524.187 456.695 523.872C416.172 496.78 382.947 460.163 359.943 417.246C337.748 375.8 325.168 328.476 325.168 278.244C325.162 263.557 326.258 248.89 328.448 234.367C330.593 219.893 333.828 205.601 338.125 191.612C338.266 191.046 338.52 190.515 338.873 190.05C339.226 189.585 339.67 189.197 340.177 188.909C340.685 188.62 341.247 188.438 341.828 188.373C342.408 188.308 342.996 188.362 343.555 188.531C344.115 188.7 344.634 188.981 345.081 189.356C345.528 189.731 345.894 190.194 346.156 190.715C346.419 191.235 346.572 191.804 346.607 192.386C346.642 192.968 346.558 193.551 346.361 194.1C338.045 221.38 333.813 249.736 333.801 278.249C333.801 327.065 346.011 373.001 367.542 413.209C389.875 454.881 422.14 490.432 461.491 516.73L461.502 516.724ZM358.253 162.358C357.792 163.405 356.932 164.225 355.864 164.639C354.796 165.053 353.607 165.027 352.558 164.567C351.51 164.106 350.687 163.249 350.272 162.183C349.857 161.117 349.883 159.931 350.345 158.884C352.393 154.289 354.565 149.703 356.862 145.126C359.188 140.543 361.586 136.105 364.055 131.809C364.337 131.319 364.712 130.888 365.161 130.542C365.609 130.196 366.122 129.942 366.669 129.794C367.216 129.645 367.787 129.606 368.349 129.678C368.911 129.75 369.454 129.932 369.946 130.213C370.438 130.494 370.869 130.869 371.216 131.316C371.562 131.764 371.817 132.275 371.966 132.821C372.115 133.367 372.154 133.936 372.082 134.497C372.01 135.058 371.828 135.6 371.546 136.09C369.084 140.406 366.758 144.715 364.611 149.013C362.388 153.348 360.281 157.796 358.253 162.364V162.358ZM845.766 72.7459C845.38 72.3311 845.08 71.8443 844.883 71.3135C844.686 70.7827 844.596 70.2183 844.618 69.6527C844.64 69.0871 844.773 68.5313 845.011 68.0174C845.249 67.5034 845.586 67.0413 846.003 66.6576C846.42 66.2739 846.909 65.9761 847.442 65.7814C847.974 65.5866 848.54 65.4986 849.107 65.5225C849.674 65.5464 850.231 65.6817 850.745 65.9207C851.259 66.1596 851.721 66.4975 852.104 66.915C865.064 81.0077 876.71 96.2498 886.896 112.452C897.056 128.61 905.706 145.666 912.738 163.404C912.947 163.93 913.05 164.491 913.041 165.057C913.032 165.623 912.912 166.181 912.687 166.7C912.461 167.219 912.136 167.689 911.729 168.083C911.322 168.477 910.841 168.787 910.314 168.995C909.787 169.204 909.224 169.306 908.657 169.298C908.09 169.289 907.53 169.169 907.01 168.944C906.49 168.72 906.019 168.395 905.624 167.989C905.229 167.583 904.919 167.103 904.71 166.577C890.996 131.955 871.011 100.148 845.755 72.7459H845.766ZM906.967 384.06C907.367 382.992 908.174 382.127 909.213 381.653C910.252 381.18 911.436 381.138 912.506 381.536C913.576 381.935 914.444 382.741 914.918 383.777C915.392 384.814 915.434 385.995 915.035 387.063C913.524 391.129 911.974 395.112 910.284 399.107C910.074 399.642 909.759 400.13 909.358 400.542C908.956 400.953 908.476 401.281 907.946 401.505C907.416 401.729 906.846 401.845 906.27 401.846C905.695 401.847 905.125 401.733 904.594 401.511C904.062 401.289 903.581 400.963 903.178 400.553C902.775 400.143 902.458 399.657 902.246 399.122C902.034 398.588 901.932 398.017 901.944 397.443C901.957 396.869 902.084 396.303 902.319 395.778C903.131 393.815 903.946 391.882 904.681 389.947H904.701C905.553 387.757 906.331 385.785 906.973 384.06H906.967ZM894.964 411.917C895.203 411.396 895.544 410.929 895.967 410.542C896.39 410.155 896.886 409.857 897.426 409.664C897.967 409.471 898.54 409.389 899.113 409.42C899.686 409.452 900.246 409.598 900.762 409.849C901.278 410.1 901.738 410.452 902.115 410.883C902.492 411.314 902.779 411.816 902.959 412.36C903.139 412.903 903.209 413.477 903.163 414.048C903.117 414.618 902.958 415.174 902.694 415.682C898.404 424.437 893.748 432.906 888.725 441.089C883.659 449.377 878.254 457.367 872.51 465.058C871.812 465.946 870.794 466.527 869.673 466.676C868.552 466.826 867.417 466.532 866.51 465.858C865.602 465.185 864.995 464.184 864.817 463.069C864.638 461.955 864.904 460.815 865.556 459.893C871.201 452.36 876.474 444.595 881.373 436.598C886.295 428.561 890.826 420.334 894.964 411.917ZM859.357 467.895C860.07 467.003 861.108 466.431 862.244 466.304C863.38 466.177 864.519 466.505 865.413 467.216C866.306 467.927 866.879 468.963 867.007 470.096C867.134 471.23 866.806 472.367 866.093 473.258L865.715 473.683C864.96 474.675 864.105 475.715 863.807 476.103C863.081 476.986 862.033 477.545 860.893 477.658C859.754 477.77 858.616 477.426 857.731 476.702C856.846 475.978 856.285 474.932 856.173 473.795C856.06 472.658 856.405 471.523 857.131 470.64C858.085 469.461 858.522 468.915 858.999 468.331L859.357 467.895V467.895ZM849.818 479.228C850.193 478.803 850.648 478.457 851.157 478.208C851.667 477.959 852.22 477.813 852.786 477.777C853.352 477.742 853.919 477.818 854.456 478.001C854.992 478.184 855.487 478.471 855.912 478.845C856.338 479.219 856.685 479.674 856.934 480.182C857.184 480.69 857.331 481.242 857.366 481.806C857.402 482.371 857.325 482.937 857.142 483.472C856.958 484.007 856.671 484.501 856.296 484.926L855.918 485.334C855.35 486.008 854.705 486.694 853.993 487.515C853.222 488.353 852.152 488.853 851.014 488.908C849.876 488.962 848.762 488.567 847.914 487.808C847.066 487.048 846.553 485.986 846.485 484.851C846.417 483.717 846.801 482.601 847.552 481.747C848.12 481.152 848.765 480.398 849.441 479.644H849.46L849.818 479.219V479.228ZM428.122 513.287C428.979 514.023 429.512 515.065 429.608 516.189C429.704 517.313 429.354 518.43 428.633 519.3C427.913 520.169 426.879 520.722 425.754 520.84C424.63 520.957 423.504 520.63 422.618 519.928C421.803 519.246 420.77 518.413 419.537 517.361C418.248 516.271 417.174 515.378 416.439 514.766C415.591 514.007 415.071 512.949 414.99 511.816C414.908 510.682 415.271 509.561 416.002 508.689C416.754 507.827 417.818 507.297 418.961 507.215C420.104 507.133 421.233 507.506 422.101 508.252C423.393 509.363 424.373 510.185 425.063 510.802C425.838 511.446 426.889 512.307 428.122 513.298V513.287ZM401.298 488.515C401.692 488.921 402.002 489.401 402.211 489.927C402.419 490.453 402.521 491.014 402.512 491.58C402.502 492.145 402.381 492.703 402.155 493.221C401.929 493.74 401.603 494.209 401.195 494.601C400.787 494.994 400.305 495.302 399.778 495.508C399.25 495.715 398.687 495.815 398.121 495.804C397.554 495.793 396.995 495.671 396.476 495.444C395.957 495.217 395.488 494.89 395.096 494.482C390.686 489.904 386.432 485.223 382.379 480.435C378.367 475.706 374.411 470.802 370.575 465.685C369.89 464.769 369.597 463.62 369.762 462.49C369.926 461.359 370.534 460.34 371.451 459.657C372.368 458.973 373.52 458.681 374.653 458.845C375.786 459.009 376.807 459.615 377.492 460.531C381.106 465.359 384.934 470.14 388.976 474.876C392.973 479.566 397.08 484.112 401.298 488.515V488.515ZM357.16 429.818C357.729 430.809 357.88 431.985 357.58 433.087C357.28 434.189 356.553 435.128 355.56 435.695C354.566 436.263 353.388 436.414 352.283 436.114C351.178 435.815 350.238 435.09 349.669 434.099C322.303 386.699 307.932 332.945 308.002 278.244C307.996 261.087 309.398 243.959 312.193 227.031C314.98 210.166 319.159 193.559 324.688 177.38C324.86 176.832 325.139 176.324 325.51 175.886C325.882 175.447 326.337 175.087 326.85 174.827C327.363 174.567 327.923 174.412 328.497 174.371C329.07 174.33 329.647 174.404 330.191 174.588C330.736 174.773 331.239 175.064 331.669 175.445C332.099 175.826 332.449 176.289 332.697 176.807C332.945 177.325 333.087 177.887 333.114 178.46C333.141 179.034 333.053 179.607 332.855 180.146C327.474 195.869 323.42 212.014 320.735 228.411C309.168 297.729 322.039 368.904 357.157 429.818H357.16ZM428.079 43.2313C427.189 43.9242 426.062 44.2415 424.941 44.115C423.819 43.9885 422.792 43.4283 422.079 42.5547C421.367 41.681 421.026 40.5636 421.13 39.4421C421.234 38.3206 421.774 37.2844 422.635 36.556L424.305 35.2187L424.524 35.043L425.975 33.8757C426.871 33.21 427.99 32.917 429.098 33.0585C430.206 33.2 431.216 33.7648 431.915 34.6341C432.614 35.5034 432.948 36.6094 432.847 37.7194C432.745 38.8293 432.216 39.8565 431.37 40.585L429.899 41.741L429.72 41.8939L428.07 43.2313H428.079ZM855.063 57.5707C854.675 57.1614 854.371 56.6798 854.169 56.1534C853.967 55.627 853.871 55.066 853.887 54.5026C853.902 53.9392 854.029 53.3843 854.259 52.8696C854.489 52.355 854.819 51.8907 855.229 51.5032C855.64 51.1156 856.122 50.8125 856.65 50.6111C857.177 50.4097 857.74 50.314 858.304 50.3294C858.869 50.3448 859.425 50.471 859.941 50.7008C860.457 50.9307 860.922 51.2596 861.311 51.6689C917.334 110.589 949.504 188.121 951.613 269.31C951.63 269.872 951.534 270.432 951.333 270.958C951.133 271.483 950.83 271.964 950.442 272.373C950.055 272.781 949.59 273.109 949.075 273.338C948.56 273.567 948.005 273.693 947.442 273.707C946.295 273.734 945.185 273.309 944.351 272.523C943.517 271.737 943.028 270.655 942.989 269.511C940.959 190.452 909.64 114.947 855.08 57.5792L855.063 57.5707ZM921.427 394.359C921.632 393.833 921.939 393.352 922.33 392.945C922.722 392.537 923.19 392.21 923.707 391.983C924.225 391.756 924.783 391.633 925.348 391.621C925.914 391.608 926.476 391.707 927.003 391.912C927.53 392.117 928.012 392.423 928.42 392.813C928.829 393.204 929.156 393.67 929.384 394.187C929.612 394.704 929.735 395.26 929.747 395.824C929.759 396.388 929.66 396.949 929.455 397.475C928.319 400.428 927.09 403.425 925.82 406.446C924.588 409.421 923.265 412.345 921.964 415.229C921.488 416.267 920.619 417.075 919.546 417.474C918.474 417.872 917.287 417.83 916.246 417.355C915.205 416.881 914.396 416.013 913.996 414.943C913.597 413.873 913.639 412.689 914.115 411.65C915.447 408.803 916.671 405.95 917.869 403.114C919.068 400.277 920.254 397.365 921.427 394.381V394.359ZM905.241 429.509C905.779 428.502 906.695 427.749 907.789 427.417C908.883 427.084 910.064 427.199 911.074 427.735C912.083 428.272 912.837 429.186 913.17 430.278C913.504 431.369 913.389 432.548 912.851 433.555C907.706 443.1 902.18 452.348 896.179 461.27C890.179 470.192 883.742 478.896 876.906 487.223C876.18 488.107 875.132 488.666 873.993 488.779C872.853 488.891 871.716 488.547 870.831 487.823C869.945 487.098 869.385 486.053 869.272 484.916C869.159 483.779 869.504 482.644 870.23 481.761C876.907 473.673 883.173 465.246 889.026 456.482C894.828 447.77 900.274 438.768 905.241 429.509V429.509ZM329.584 413.957C329.828 414.468 329.969 415.022 329.999 415.587C330.028 416.153 329.945 416.719 329.754 417.252C329.563 417.785 329.268 418.276 328.886 418.695C328.504 419.114 328.043 419.454 327.53 419.694C327.016 419.935 326.459 420.071 325.892 420.096C325.325 420.121 324.759 420.034 324.226 419.84C323.693 419.646 323.203 419.348 322.786 418.964C322.369 418.58 322.032 418.118 321.794 417.603L321.277 416.512C320.71 415.365 320.164 414.195 319.985 413.778C319.528 412.736 319.501 411.557 319.911 410.495C320.32 409.434 321.133 408.577 322.173 408.11C323.213 407.644 324.395 407.606 325.463 408.005C326.53 408.403 327.397 409.207 327.874 410.239C328.49 411.628 328.789 412.251 329.087 412.874L329.584 413.957ZM320.244 391.831C320.619 392.892 320.562 394.057 320.087 395.077C319.612 396.096 318.755 396.89 317.701 397.288C316.647 397.686 315.478 397.656 314.446 397.205C313.413 396.754 312.598 395.917 312.176 394.874C285.337 323.996 283.758 246.061 307.706 174.159C307.884 173.624 308.165 173.129 308.534 172.703C308.904 172.277 309.353 171.927 309.858 171.674C310.362 171.421 310.912 171.27 311.475 171.229C312.038 171.188 312.604 171.258 313.14 171.435C313.676 171.612 314.172 171.892 314.6 172.261C315.027 172.629 315.377 173.078 315.631 173.581C315.884 174.085 316.036 174.633 316.077 175.195C316.118 175.757 316.048 176.321 315.871 176.856C298.903 228.175 295.064 282.912 304.705 336.089C308.174 355.102 313.376 373.761 320.244 391.831V391.831ZM319.647 166.124C319.453 166.653 319.156 167.138 318.772 167.552C318.389 167.966 317.927 168.301 317.414 168.536C316.9 168.771 316.345 168.902 315.781 168.923C315.216 168.943 314.653 168.852 314.124 168.654C313.056 168.25 312.189 167.444 311.711 166.409C311.233 165.374 311.182 164.193 311.568 163.12C312.046 161.828 312.523 160.638 312.94 159.533L313.039 159.329C313.517 158.074 313.954 156.966 314.351 155.983C314.786 154.943 315.613 154.115 316.653 153.677C317.694 153.239 318.865 153.226 319.915 153.641C320.965 154.057 321.81 154.867 322.267 155.897C322.724 156.928 322.757 158.096 322.359 159.151C321.882 160.355 321.445 161.446 321.067 162.406L320.988 162.636C320.511 163.88 320.054 165.053 319.636 166.124H319.647ZM844.852 24.0016C843.991 23.255 843.463 22.198 843.384 21.063C843.305 19.928 843.68 18.8081 844.429 17.9496C845.177 17.0911 846.236 16.5643 847.374 16.4851C848.511 16.4059 849.634 16.7809 850.494 17.5274L852.303 19.1027C852.363 19.1736 852.482 19.2529 852.562 19.3266C853.379 20.098 853.863 21.1575 853.91 22.2794C853.956 23.4013 853.562 24.497 852.811 25.3334C852.06 26.1698 851.012 26.6807 849.889 26.7574C848.766 26.8341 847.658 26.4705 846.8 25.744L846.558 25.5429L844.855 24.0016H844.852ZM868.657 46.9996C868.264 46.5913 867.955 46.1091 867.75 45.5811C867.545 45.053 867.447 44.4896 867.462 43.9235C867.477 43.3573 867.604 42.7998 867.836 42.2831C868.069 41.7664 868.402 41.3009 868.816 40.9136C869.653 40.1315 870.767 39.7119 871.914 39.7464C873.06 39.7809 874.147 40.2667 874.935 41.0978C909.761 78.1889 936.017 122.445 951.855 170.75C952.03 171.288 952.097 171.855 952.053 172.418C952.008 172.982 951.853 173.531 951.596 174.035C951.338 174.539 950.984 174.987 950.553 175.354C950.123 175.721 949.623 176 949.085 176.175C948.546 176.349 947.978 176.417 947.413 176.372C946.848 176.328 946.297 176.173 945.793 175.916C945.288 175.66 944.838 175.306 944.47 174.876C944.103 174.447 943.823 173.949 943.648 173.411C935.991 149.946 925.762 127.396 913.147 106.171C900.518 84.8909 885.6 65.0498 868.657 46.9996V46.9996ZM954.578 216.211C954.476 215.656 954.484 215.087 954.602 214.536C954.721 213.984 954.947 213.462 955.267 212.997C955.588 212.533 955.998 212.137 956.472 211.83C956.946 211.524 957.477 211.314 958.032 211.212C958.588 211.11 959.159 211.118 959.711 211.236C960.264 211.354 960.788 211.579 961.253 211.9C961.719 212.22 962.116 212.628 962.423 213.101C962.73 213.575 962.941 214.104 963.043 214.658C964.991 225.028 966.461 235.569 967.453 246.281C968.407 256.914 968.924 267.579 968.924 278.244C968.924 278.629 968.884 279.898 968.884 281.802C968.845 283.043 968.845 284.213 968.805 285.335C968.764 286.463 968.281 287.529 967.46 288.305C966.639 289.08 965.545 289.503 964.415 289.482C963.284 289.462 962.207 288.999 961.415 288.193C960.623 287.388 960.18 286.305 960.181 285.177C960.221 283.967 960.26 282.797 960.26 281.7V278.244C960.26 267.615 959.796 257.22 958.869 247.06C957.915 236.645 956.447 226.351 954.578 216.211V216.211ZM935.342 405.669C935.771 404.607 936.606 403.759 937.662 403.31C938.718 402.862 939.91 402.851 940.974 403.279C942.039 403.708 942.889 404.54 943.339 405.594C943.788 406.648 943.799 407.837 943.37 408.899C941.742 412.896 940.02 416.892 938.204 420.887C936.375 424.95 934.508 428.878 932.602 432.671C932.082 433.682 931.184 434.447 930.103 434.802C929.021 435.157 927.843 435.073 926.824 434.567C925.804 434.061 925.026 433.175 924.656 432.1C924.287 431.026 924.358 429.849 924.852 428.826C926.8 424.958 928.626 421.122 930.335 417.345C932.045 413.569 933.743 409.633 935.342 405.669V405.669ZM906.848 460.559C907.474 459.611 908.449 458.947 909.562 458.712C910.675 458.477 911.836 458.689 912.794 459.302C913.751 459.916 914.427 460.881 914.676 461.989C914.924 463.097 914.725 464.258 914.121 465.22C909.194 472.893 903.867 480.435 898.264 487.821C892.661 495.208 886.698 502.353 880.578 509.244C879.809 510.077 878.743 510.576 877.61 510.632C876.476 510.688 875.366 510.298 874.518 509.544C873.671 508.791 873.154 507.735 873.08 506.605C873.005 505.475 873.379 504.361 874.121 503.504C880.179 496.764 885.941 489.806 891.409 482.628C896.793 475.569 901.939 468.213 906.848 460.559ZM865.357 512.975C865.752 512.572 866.224 512.25 866.744 512.028C867.264 511.806 867.822 511.689 868.388 511.682C868.953 511.676 869.514 511.781 870.039 511.991C870.564 512.201 871.043 512.512 871.447 512.906C871.851 513.3 872.174 513.77 872.396 514.289C872.619 514.808 872.737 515.366 872.743 515.93C872.749 516.494 872.644 517.054 872.434 517.578C872.224 518.101 871.912 518.579 871.517 518.982C870.284 520.251 869.055 521.532 867.825 522.779C867.016 523.59 865.917 524.048 864.769 524.052C863.622 524.056 862.52 523.605 861.705 522.799C861.3 522.402 860.978 521.929 860.757 521.408C860.537 520.886 860.422 520.326 860.42 519.76C860.419 519.194 860.529 518.633 860.746 518.11C860.964 517.586 861.283 517.112 861.685 516.713C862.935 515.483 864.128 514.225 865.36 512.975H865.357ZM301.541 390.769C301.736 391.302 301.822 391.867 301.795 392.434C301.768 393 301.628 393.555 301.384 394.067C301.14 394.579 300.797 395.037 300.374 395.416C299.951 395.794 299.457 396.085 298.92 396.271C297.837 396.65 296.647 396.585 295.612 396.09C294.576 395.596 293.779 394.713 293.394 393.633C286.872 375.163 281.926 356.175 278.611 336.873C275.331 317.501 273.676 297.89 273.664 278.244C273.666 260.624 275.003 243.03 277.665 225.612C280.308 208.262 284.278 191.139 289.541 174.394C289.902 173.328 290.667 172.444 291.671 171.932C292.676 171.42 293.841 171.319 294.919 171.652C295.997 171.984 296.902 172.724 297.441 173.712C297.981 174.701 298.112 175.86 297.807 176.944C292.667 193.272 288.787 209.968 286.201 226.887C280.734 262.885 281.056 299.523 287.155 335.42C290.377 354.24 295.189 372.754 301.541 390.763V390.769ZM884.037 38.341C883.655 37.9257 883.359 37.4395 883.166 36.9102C882.972 36.3808 882.885 35.8186 882.91 35.2557C882.934 34.6929 883.069 34.1403 883.308 33.6295C883.546 33.1188 883.883 32.6599 884.299 32.2791C884.716 31.8983 885.203 31.603 885.733 31.41C886.264 31.2171 886.827 31.1303 887.392 31.1547C887.956 31.179 888.51 31.314 889.022 31.5519C889.533 31.7898 889.993 32.1259 890.375 32.5412C896.713 39.4658 902.781 46.6095 908.578 53.9724C922.407 71.5928 936.495 93.5963 946.55 113.347C952.326 124.676 957.499 136.3 962.049 148.172C962.251 148.7 962.347 149.263 962.331 149.829C962.315 150.394 962.187 150.951 961.955 151.467C961.723 151.983 961.392 152.449 960.98 152.837C960.568 153.226 960.083 153.529 959.553 153.731C959.023 153.932 958.459 154.028 957.892 154.011C957.326 153.995 956.768 153.868 956.25 153.637C955.733 153.405 955.266 153.075 954.877 152.664C954.488 152.252 954.184 151.769 953.982 151.24C949.541 139.652 944.486 128.308 938.84 117.255C927.711 95.4607 916.705 78.2851 901.782 59.2707C896.118 52.0457 890.203 45.0692 884.037 38.341V38.341ZM972.82 221.09C972.664 219.975 972.951 218.843 973.621 217.937C974.291 217.031 975.29 216.423 976.403 216.242C977.517 216.062 978.658 216.324 979.58 216.972C980.503 217.62 981.134 218.603 981.339 219.71C981.68 221.846 982.015 223.96 982.313 226.119C982.397 226.679 982.369 227.249 982.23 227.798C982.092 228.347 981.845 228.863 981.505 229.316C981.165 229.769 980.739 230.15 980.25 230.437C979.761 230.724 979.221 230.912 978.659 230.99C977.525 231.148 976.374 230.852 975.458 230.166C974.542 229.481 973.935 228.462 973.769 227.332C973.451 225.249 973.172 223.164 972.818 221.098L972.82 221.09ZM975.092 237.393C974.963 236.257 975.291 235.116 976.004 234.222C976.717 233.327 977.757 232.752 978.896 232.623C980.034 232.494 981.177 232.821 982.074 233.533C982.971 234.244 983.547 235.282 983.676 236.418C984.432 243.266 985.068 250.245 985.465 257.339C985.863 264.383 986.102 271.359 986.102 278.258C986.102 280.986 986.062 284.12 985.943 287.659C985.863 290.919 985.744 294.051 985.585 297.054C985.556 297.616 985.417 298.168 985.175 298.676C984.933 299.185 984.593 299.641 984.174 300.019C983.755 300.396 983.266 300.688 982.734 300.877C982.203 301.066 981.639 301.148 981.075 301.12C980.512 301.091 979.959 300.952 979.449 300.711C978.939 300.469 978.482 300.13 978.104 299.712C977.725 299.294 977.433 298.806 977.244 298.276C977.055 297.745 976.972 297.183 977 296.621C977.14 293.459 977.259 290.404 977.318 287.46C977.398 284.816 977.438 281.748 977.438 278.258C977.438 271.269 977.239 264.453 976.841 257.81C976.484 251.024 975.847 244.21 975.092 237.393V237.393ZM950.432 414.192C950.867 413.137 951.703 412.297 952.758 411.857C953.813 411.416 954.999 411.411 956.058 411.843C957.112 412.283 957.952 413.117 958.398 414.167C958.843 415.218 958.858 416.4 958.44 417.461L958.363 417.62C958.156 418.154 957.843 418.642 957.445 419.054C957.046 419.467 956.569 419.796 956.042 420.022C955.514 420.248 954.947 420.367 954.372 420.372C953.798 420.377 953.229 420.267 952.697 420.05C952.166 419.832 951.684 419.511 951.278 419.106C950.873 418.7 950.552 418.218 950.336 417.687C950.119 417.156 950.011 416.588 950.017 416.015C950.024 415.442 950.144 414.876 950.372 414.351L950.432 414.192ZM939.763 437.496C940.284 436.493 941.18 435.734 942.257 435.385C943.334 435.035 944.506 435.123 945.519 435.628C946.532 436.134 947.304 437.017 947.67 438.086C948.036 439.156 947.965 440.326 947.473 441.344C946.638 442.959 945.803 444.576 945.446 445.339C944.909 446.337 944.001 447.086 942.917 447.423C941.832 447.761 940.659 447.66 939.648 447.143C938.638 446.625 937.871 445.733 937.513 444.657C937.156 443.582 937.236 442.409 937.736 441.392C938.69 439.55 939.246 438.527 939.763 437.496ZM906.013 491.726C906.353 491.275 906.777 490.896 907.263 490.609C907.749 490.323 908.287 490.134 908.846 490.055C909.405 489.976 909.975 490.007 910.521 490.148C911.068 490.288 911.582 490.534 912.033 490.873C912.485 491.211 912.865 491.635 913.152 492.12C913.44 492.605 913.628 493.142 913.708 493.699C913.787 494.257 913.756 494.825 913.615 495.371C913.474 495.916 913.227 496.429 912.888 496.879C906.809 504.96 900.451 512.709 893.814 520.127C887.214 527.561 880.24 534.758 872.987 541.677C872.577 542.068 872.094 542.374 871.565 542.578C871.036 542.783 870.472 542.881 869.905 542.868C869.338 542.855 868.78 542.73 868.261 542.502C867.742 542.273 867.274 541.945 866.882 541.535C866.491 541.126 866.184 540.644 865.979 540.116C865.774 539.589 865.675 539.026 865.689 538.46C865.702 537.895 865.827 537.337 866.056 536.819C866.285 536.302 866.614 535.834 867.024 535.444C874.057 528.74 880.846 521.728 887.391 514.406C893.967 507.04 900.174 499.484 906.01 491.74L906.013 491.726ZM281.99 386.587C282.178 387.128 282.255 387.7 282.217 388.271C282.179 388.842 282.027 389.4 281.77 389.911C281.513 390.422 281.156 390.877 280.72 391.249C280.283 391.62 279.777 391.901 279.231 392.074C278.684 392.247 278.109 392.31 277.537 392.257C276.966 392.205 276.412 392.039 275.906 391.77C275.4 391.5 274.953 391.133 274.592 390.688C274.231 390.244 273.963 389.732 273.803 389.182C268.07 371.311 263.744 353.02 260.866 334.476C254.797 295.481 255.079 255.763 261.7 216.857C265.145 196.635 270.31 176.742 277.14 157.394C277.516 156.316 278.307 155.432 279.337 154.935C280.367 154.439 281.553 154.371 282.633 154.746C283.714 155.122 284.6 155.911 285.098 156.939C285.596 157.966 285.664 159.15 285.287 160.227C278.623 179.115 273.588 198.537 270.237 218.279C266.852 238.089 265.157 258.149 265.17 278.244C265.124 315.01 270.802 351.56 282.001 386.587H281.99ZM898.426 28.6992C897.688 27.8484 897.314 26.7432 897.383 25.6204C897.453 24.4976 897.96 23.4467 898.797 22.6928C899.634 21.939 900.733 21.5423 901.86 21.5878C902.987 21.6333 904.05 22.1174 904.823 22.9362C908.6 27.104 912.136 31.1925 915.475 35.1932C918.815 39.1938 922.191 43.4778 925.63 48.0083C926.321 48.9156 926.622 50.0596 926.467 51.1884C926.312 52.3173 925.714 53.3386 924.805 54.0276C923.896 54.7167 922.749 55.0171 921.618 54.8628C920.486 54.7084 919.463 54.1119 918.772 53.2046C915.673 49.1454 912.349 44.9728 908.799 40.687C905.258 36.454 901.833 32.4449 898.426 28.6992ZM939.278 83.0196C938.675 82.0521 938.483 80.8854 938.742 79.7762C939.002 78.667 939.692 77.7062 940.662 77.105C941.632 76.5039 942.801 76.3116 943.913 76.5707C945.024 76.8297 945.987 77.5188 946.59 78.4863C949.888 83.828 953.041 89.2236 956.049 94.673C956.324 95.1664 956.499 95.709 956.564 96.2698C956.629 96.8306 956.582 97.3987 956.427 97.9416C956.272 98.4845 956.011 98.9916 955.659 99.4339C955.308 99.8762 954.872 100.245 954.378 100.52C953.883 100.794 953.34 100.968 952.777 101.033C952.215 101.098 951.646 101.052 951.102 100.897C950.558 100.742 950.049 100.482 949.606 100.131C949.163 99.78 948.793 99.3455 948.518 98.8521C945.516 93.4433 942.575 88.3689 939.278 83.0054V83.0196ZM994.439 289.172C994.469 288.034 994.951 286.955 995.777 286.17C996.604 285.386 997.709 284.96 998.849 284.987C999.416 284.998 999.975 285.121 1000.49 285.351C1001.01 285.58 1001.48 285.911 1001.87 286.322C1002.26 286.734 1002.56 287.22 1002.76 287.75C1002.96 288.28 1003.05 288.844 1003.02 289.41C1002.94 292.929 1002.8 296.317 1002.63 299.579C1002.43 303.129 1002.19 306.489 1001.93 309.662C1001.9 310.235 1001.75 310.794 1001.5 311.309C1001.24 311.824 1000.89 312.283 1000.46 312.66C1000.03 313.037 999.522 313.324 998.977 313.504C998.431 313.684 997.856 313.753 997.283 313.708C996.71 313.664 996.152 313.505 995.642 313.242C995.131 312.98 994.679 312.618 994.31 312.178C993.941 311.738 993.665 311.23 993.496 310.682C993.327 310.134 993.269 309.558 993.326 308.988C993.61 305.528 993.823 302.236 994.002 299.103C994.2 295.683 994.34 292.373 994.439 289.172V289.172ZM953.286 448.688C953.81 447.67 954.718 446.902 955.81 446.552C956.901 446.203 958.088 446.3 959.107 446.823C960.127 447.346 960.897 448.252 961.247 449.341C961.598 450.43 961.5 451.614 960.976 452.632C959.823 454.833 958.67 456.964 957.568 459.015C956.637 460.749 955.484 462.863 954.092 465.33C953.519 466.324 952.575 467.053 951.467 467.357C950.358 467.662 949.174 467.518 948.172 466.957C947.183 466.392 946.458 465.459 946.156 464.363C945.855 463.266 946 462.095 946.561 461.106C947.516 459.431 948.649 457.38 949.969 454.932C951.142 452.79 952.241 450.708 953.269 448.699L953.286 448.688ZM899.178 526.949C899.555 526.529 900.01 526.187 900.519 525.942C901.029 525.697 901.581 525.555 902.145 525.523C902.709 525.492 903.274 525.571 903.807 525.757C904.341 525.943 904.832 526.232 905.254 526.608C905.675 526.984 906.018 527.438 906.264 527.946C906.509 528.454 906.651 529.005 906.683 529.568C906.715 530.131 906.635 530.695 906.449 531.227C906.262 531.759 905.972 532.249 905.596 532.67C903.588 534.9 901.739 536.92 900.013 538.764C898.144 540.719 896.236 542.703 894.288 544.694C893.896 545.1 893.426 545.424 892.908 545.648C892.389 545.872 891.832 545.991 891.267 546C890.702 546.008 890.141 545.904 889.616 545.695C889.091 545.487 888.613 545.176 888.208 544.782C887.392 543.987 886.921 542.902 886.899 541.764C886.877 540.625 887.304 539.523 888.089 538.696C889.982 536.807 891.856 534.861 893.712 532.857C895.699 530.735 897.528 528.754 899.178 526.949V526.949ZM262.396 381.025C262.711 382.127 262.574 383.308 262.016 384.309C261.458 385.31 260.524 386.049 259.42 386.363C258.316 386.677 257.132 386.541 256.129 385.984C255.125 385.427 254.385 384.495 254.07 383.394C249.182 366.351 245.497 348.988 243.043 331.431C240.587 313.808 239.354 296.036 239.352 278.244C239.34 238.081 245.671 198.167 258.111 159.97C258.465 158.876 259.239 157.967 260.264 157.443C261.289 156.919 262.481 156.823 263.577 157.176C264.674 157.529 265.584 158.302 266.11 159.324C266.635 160.347 266.731 161.536 266.377 162.63C260.265 181.225 255.653 200.277 252.585 219.605C249.519 239.005 247.984 258.615 247.996 278.255C248.001 295.656 249.203 313.035 251.594 330.272C253.989 347.427 257.601 364.391 262.402 381.036L262.396 381.025ZM270.146 151.614C269.751 152.688 268.947 153.562 267.908 154.046C266.869 154.53 265.681 154.583 264.603 154.195C264.07 154.004 263.58 153.708 263.163 153.326C262.745 152.945 262.408 152.484 262.17 151.971C261.933 151.458 261.799 150.903 261.778 150.339C261.757 149.774 261.848 149.211 262.047 148.682C263.001 146.03 264.035 143.298 265.088 140.525C266.162 137.799 267.215 135.107 268.325 132.458C268.541 131.935 268.857 131.459 269.256 131.058C269.656 130.656 270.131 130.337 270.654 130.119C271.177 129.901 271.738 129.788 272.305 129.786C272.872 129.784 273.433 129.893 273.958 130.108C274.482 130.323 274.959 130.638 275.362 131.037C275.764 131.435 276.084 131.909 276.302 132.431C276.521 132.953 276.635 133.513 276.636 134.078C276.638 134.644 276.529 135.204 276.313 135.728C275.223 138.368 274.15 141.006 273.136 143.627C272.142 146.194 271.148 148.856 270.154 151.614H270.146ZM912.848 19.1452C912.087 18.2882 911.697 17.1644 911.766 16.0209C911.835 14.8774 912.356 13.808 913.215 13.0479C914.074 12.2879 915.2 11.8994 916.346 11.9679C917.492 12.0365 918.564 12.5564 919.326 13.4135C925.485 20.3324 931.468 27.5205 937.151 34.8532C937.511 35.2983 937.778 35.8107 937.937 36.3603C938.097 36.91 938.144 37.4858 938.077 38.054C938.011 38.6222 937.831 39.1714 937.548 39.6693C937.266 40.1673 936.887 40.604 936.433 40.9539C935.98 41.3037 935.461 41.5597 934.906 41.7068C934.352 41.8538 933.774 41.8891 933.206 41.8104C932.638 41.7317 932.092 41.5407 931.599 41.2485C931.106 40.9563 930.676 40.5689 930.335 40.109C924.753 32.9086 918.924 25.9197 912.848 19.1424V19.1452ZM1005.45 348.411C1005.54 347.847 1005.74 347.306 1006.04 346.821C1006.34 346.336 1006.74 345.916 1007.21 345.586C1007.67 345.255 1008.2 345.021 1008.76 344.896C1009.32 344.771 1009.9 344.759 1010.46 344.86C1011.03 344.96 1011.56 345.172 1012.04 345.482C1012.52 345.793 1012.94 346.195 1013.26 346.667C1013.58 347.139 1013.81 347.67 1013.92 348.23C1014.04 348.789 1014.04 349.366 1013.93 349.927C1013.67 351.295 1013.63 351.584 1013.56 351.91L1013.33 353.012C1013.24 353.579 1013.03 354.122 1012.73 354.608C1012.42 355.094 1012.02 355.513 1011.54 355.842C1011.07 356.171 1010.54 356.402 1009.97 356.522C1009.41 356.641 1008.83 356.648 1008.26 356.54C1007.7 356.432 1007.16 356.212 1006.68 355.893C1006.2 355.575 1005.79 355.163 1005.47 354.684C1005.15 354.204 1004.93 353.666 1004.83 353.101C1004.72 352.536 1004.73 351.956 1004.85 351.394L1005.09 350.284L1005.45 348.411V348.411ZM246.658 388.451C246.852 389 246.932 389.582 246.893 390.163C246.855 390.744 246.698 391.31 246.432 391.829C246.167 392.347 245.799 392.806 245.35 393.178C244.901 393.549 244.381 393.826 243.822 393.991C243.263 394.156 242.676 394.206 242.096 394.137C241.517 394.068 240.958 393.883 240.453 393.592C239.948 393.301 239.508 392.91 239.159 392.444C238.81 391.977 238.56 391.445 238.423 390.879C215.939 314.511 216.818 233.184 240.948 157.318C241.119 156.778 241.394 156.277 241.759 155.844C242.124 155.411 242.57 155.054 243.073 154.793C243.577 154.532 244.126 154.372 244.691 154.323C245.256 154.274 245.825 154.337 246.366 154.507C246.907 154.677 247.408 154.952 247.843 155.316C248.277 155.68 248.635 156.126 248.897 156.628C249.158 157.13 249.318 157.678 249.367 158.242C249.416 158.806 249.354 159.373 249.183 159.913C243.097 178.973 238.5 198.474 235.433 218.242C232.354 238.095 230.809 258.155 230.81 278.244C230.82 296.901 232.148 315.535 234.786 334.006C237.444 352.413 241.415 370.608 246.667 388.451H246.658ZM252.738 149.319C252.345 150.374 251.552 151.234 250.531 151.713C249.51 152.192 248.341 152.252 247.276 151.882C246.21 151.511 245.333 150.738 244.831 149.73C244.33 148.721 244.245 147.556 244.594 146.486C247.473 138.292 250.597 130.257 253.965 122.38C257.344 114.447 260.939 106.664 264.816 99.0165C265.071 98.5114 265.423 98.0614 265.852 97.6921C266.282 97.3229 266.78 97.0416 267.318 96.8644C267.856 96.6872 268.424 96.6175 268.99 96.6594C269.555 96.7012 270.107 96.8537 270.613 97.1082C271.119 97.3627 271.57 97.7142 271.94 98.1426C272.31 98.5711 272.592 99.068 272.77 99.6051C272.947 100.142 273.017 100.709 272.975 101.273C272.933 101.837 272.78 102.387 272.525 102.892C268.739 110.374 265.195 117.995 261.893 125.754C258.592 133.514 255.538 141.368 252.733 149.316L252.738 149.319ZM925.181 7.19148C924.798 6.77216 924.501 6.28109 924.309 5.74669C924.116 5.21228 924.032 4.64514 924.061 4.07807C924.09 3.51099 924.231 2.95522 924.476 2.44292C924.722 1.93063 925.067 1.47198 925.491 1.09348C925.915 0.71499 926.41 0.424177 926.948 0.237852C927.485 0.051527 928.055 -0.0266075 928.623 0.00797347C929.191 0.0425545 929.746 0.189164 930.257 0.439318C930.768 0.689471 931.224 1.03819 931.599 1.46534C938.314 8.94719 944.751 16.6727 950.909 24.6419C951.539 25.544 951.798 26.6531 951.632 27.7402C951.466 28.8272 950.888 29.8092 950.018 30.4833C949.147 31.1575 948.05 31.4723 946.954 31.3628C945.857 31.2533 944.845 30.7278 944.125 29.8949C938.084 22.1089 931.772 14.5392 925.19 7.18581L925.181 7.19148ZM998.73 432.064C999.161 431.008 999.995 430.165 1001.05 429.721C1002.1 429.278 1003.29 429.27 1004.35 429.7C1005.41 430.13 1006.25 430.962 1006.7 432.013C1007.14 433.065 1007.15 434.249 1006.72 435.306C1003.88 442.273 1000.44 450.076 997.219 456.816C996.726 457.847 995.843 458.639 994.765 459.02C993.686 459.401 992.5 459.338 991.467 458.846C990.435 458.355 989.64 457.474 989.259 456.397C988.877 455.321 988.94 454.138 989.433 453.107C993.008 445.545 995.632 439.746 998.73 432.064ZM230.444 394.098C230.611 394.639 230.669 395.207 230.614 395.771C230.558 396.334 230.391 396.881 230.121 397.378C229.851 397.876 229.483 398.315 229.041 398.669C228.599 399.024 228.09 399.286 227.544 399.442C227 399.602 226.429 399.655 225.865 399.595C225.3 399.536 224.753 399.365 224.255 399.095C223.756 398.824 223.316 398.458 222.96 398.017C222.603 397.576 222.337 397.07 222.177 396.526C210.773 358.129 204.99 318.289 205.008 278.241C205.01 256.237 206.751 234.267 210.216 212.536C213.668 190.889 218.837 169.549 225.676 148.719C226.041 147.63 226.821 146.729 227.848 146.211C228.874 145.693 230.064 145.601 231.159 145.953C231.697 146.13 232.195 146.41 232.624 146.779C233.053 147.148 233.405 147.597 233.659 148.102C233.914 148.606 234.067 149.156 234.108 149.719C234.15 150.282 234.08 150.848 233.902 151.385C227.187 171.78 222.124 192.681 218.761 213.885C209.117 274.073 213.109 335.651 230.444 394.098V394.098ZM244.216 123.516C243.781 124.57 242.944 125.409 241.89 125.848C240.835 126.286 239.649 126.289 238.592 125.855C237.536 125.421 236.695 124.586 236.255 123.534C235.816 122.481 235.813 121.298 236.248 120.244C239.107 113.308 242.113 106.508 245.267 99.8438C248.428 93.2459 251.78 86.6878 255.322 80.1692C255.871 79.1702 256.794 78.4294 257.89 78.1098C258.986 77.7902 260.164 77.9179 261.165 78.465C262.166 79.012 262.909 79.9336 263.229 81.0268C263.55 82.1201 263.421 83.2955 262.873 84.2946C259.497 90.5278 256.197 96.9595 253.096 103.524C249.938 110.135 246.978 116.8 244.216 123.519V123.516ZM216.594 407.415C216.937 408.5 216.834 409.676 216.309 410.686C215.783 411.695 214.877 412.456 213.791 412.8C212.704 413.144 211.524 413.044 210.511 412.521C209.498 411.999 208.735 411.097 208.388 410.013C201.586 388.778 196.444 367.049 193.008 345.022C184.639 291.244 186.452 236.377 198.352 183.265C205.341 152.187 215.771 121.981 229.45 93.2025C229.939 92.1666 230.821 91.3672 231.902 90.9801C232.982 90.593 234.172 90.65 235.21 91.1384C236.248 91.6269 237.05 92.5068 237.437 93.5846C237.825 94.6625 237.768 95.85 237.279 96.8858C223.85 125.084 213.625 154.693 206.797 185.161C195.153 237.223 193.377 290.999 201.561 343.713C204.898 365.31 209.93 386.613 216.611 407.423L216.594 407.415ZM193.366 388.876C193.624 389.973 193.441 391.127 192.857 392.091C192.274 393.056 191.335 393.754 190.242 394.036C189.148 394.319 187.988 394.163 187.008 393.603C186.029 393.042 185.308 392.122 185 391.038C160.844 297.824 167.259 199.34 203.302 110.03C203.513 109.504 203.825 109.024 204.222 108.619C204.618 108.214 205.091 107.89 205.613 107.667C206.135 107.444 206.696 107.325 207.263 107.319C207.831 107.312 208.394 107.417 208.921 107.627C209.449 107.837 209.929 108.149 210.335 108.545C210.742 108.941 211.066 109.412 211.289 109.933C211.513 110.454 211.632 111.013 211.639 111.579C211.645 112.146 211.54 112.708 211.33 113.234C200.758 139.343 192.739 166.41 187.385 194.057C182.013 221.796 179.318 249.984 179.337 278.235C179.33 296.921 180.497 315.588 182.833 334.128C185.168 352.583 188.686 370.87 193.366 388.876V388.876ZM168.487 354.31C168.58 354.868 168.562 355.439 168.434 355.99C168.306 356.541 168.071 357.062 167.741 357.522C167.412 357.983 166.994 358.374 166.513 358.673C166.032 358.973 165.497 359.175 164.937 359.268C164.378 359.361 163.806 359.343 163.253 359.216C162.701 359.088 162.179 358.853 161.717 358.524C161.256 358.195 160.864 357.779 160.564 357.299C160.263 356.819 160.061 356.284 159.968 355.726C157.821 342.976 156.205 330.106 155.12 317.114C154.047 304.27 153.51 291.309 153.51 278.232C153.502 254.457 155.306 230.715 158.906 207.212C162.491 183.791 167.872 160.679 175.001 138.079C175.17 137.54 175.444 137.039 175.807 136.605C176.17 136.171 176.615 135.813 177.117 135.55C177.619 135.288 178.167 135.127 178.731 135.076C179.296 135.025 179.864 135.086 180.405 135.255C180.946 135.423 181.448 135.696 181.883 136.058C182.318 136.421 182.677 136.865 182.94 137.365C183.203 137.866 183.364 138.414 183.415 138.977C183.466 139.539 183.405 140.107 183.236 140.646C169.232 185.166 162.129 231.56 162.174 278.221C162.174 291.101 162.704 303.824 163.764 316.389C164.838 329.233 166.414 341.869 168.493 354.296L168.487 354.31ZM150.105 347.966C150.243 349.083 149.936 350.209 149.252 351.104C148.568 351.998 147.561 352.59 146.445 352.753C145.329 352.917 144.193 352.638 143.281 351.977C142.368 351.316 141.751 350.325 141.561 349.215C139.834 337.569 138.543 325.772 137.687 313.824C136.794 302.017 136.35 290.154 136.356 278.235C136.313 230.226 143.445 182.479 157.517 136.569C157.869 135.501 158.626 134.612 159.627 134.093C160.627 133.574 161.791 133.465 162.87 133.791C163.949 134.116 164.858 134.85 165.402 135.835C165.947 136.82 166.083 137.978 165.783 139.063C158.865 161.535 153.657 184.496 150.205 207.751C146.737 231.089 144.997 254.65 145 278.244C145 290.074 145.424 301.736 146.272 313.229C147.146 324.918 148.424 336.499 150.105 347.974V347.966ZM133.533 353.298C133.625 353.861 133.604 354.437 133.471 354.992C133.338 355.546 133.096 356.069 132.76 356.53C132.423 356.991 131.998 357.381 131.509 357.676C131.02 357.972 130.477 358.168 129.912 358.253C129.346 358.337 128.77 358.309 128.215 358.17C127.661 358.031 127.14 357.783 126.682 357.441C126.224 357.1 125.839 356.671 125.549 356.179C125.259 355.688 125.069 355.144 124.991 354.579C123.083 342.088 121.632 329.419 120.638 316.573C119.691 303.883 119.208 291.104 119.187 278.235C119.182 234.005 125.029 189.968 136.574 147.265C136.881 146.173 137.606 145.246 138.593 144.684C139.58 144.122 140.749 143.971 141.847 144.263C142.945 144.555 143.883 145.267 144.458 146.245C145.034 147.223 145.2 148.387 144.92 149.486C133.54 191.459 127.793 234.754 127.831 278.235C127.831 290.966 128.304 303.527 129.251 315.918C130.197 328.491 131.617 340.948 133.51 353.29L133.533 353.298ZM114.95 344.427C115.037 344.994 115.009 345.573 114.868 346.129C114.727 346.685 114.475 347.207 114.129 347.665C113.783 348.123 113.348 348.507 112.85 348.794C112.353 349.082 111.803 349.267 111.232 349.339C110.662 349.411 110.083 349.368 109.529 349.214C108.976 349.059 108.459 348.795 108.009 348.438C107.559 348.081 107.185 347.638 106.91 347.134C106.635 346.631 106.463 346.077 106.405 345.507C104.953 334.343 103.86 323.152 103.125 311.932C102.391 300.712 102.026 289.482 102.032 278.244C102.008 232.881 107.954 187.711 119.718 143.893C120.036 142.812 120.766 141.897 121.75 141.345C122.735 140.792 123.898 140.646 124.989 140.936C126.081 141.227 127.015 141.932 127.593 142.9C128.172 143.869 128.347 145.024 128.084 146.12C116.482 189.205 110.634 233.631 110.69 278.244C110.69 289.467 111.041 300.517 111.744 311.393C112.459 322.577 113.553 333.598 114.944 344.436L114.95 344.427ZM102.847 377.328C102.966 377.888 102.972 378.467 102.864 379.03C102.756 379.592 102.537 380.128 102.218 380.605C101.9 381.082 101.489 381.49 101.01 381.806C100.531 382.122 99.9931 382.34 99.4287 382.446C98.8642 382.551 98.2842 382.543 97.7229 382.422C97.1615 382.301 96.6302 382.069 96.1599 381.74C95.6897 381.411 95.2902 380.992 94.9848 380.506C94.6795 380.021 94.4745 379.48 94.3819 378.914C90.6192 358.882 87.9394 338.663 86.354 318.344C85.3828 305.053 84.8868 291.687 84.866 278.244C84.8662 256.956 86.1263 235.687 88.64 214.548C91.1433 193.492 94.9031 172.603 99.8994 151.994C100.169 150.884 100.869 149.927 101.845 149.332C102.822 148.738 103.995 148.555 105.107 148.823C106.219 149.092 107.179 149.79 107.775 150.765C108.371 151.739 108.554 152.91 108.285 154.02C98.443 194.697 93.486 236.398 93.5186 278.244C93.5186 291.589 94.0013 304.754 94.9668 317.74C96.7956 342.245 99.3002 358.393 102.836 377.328H102.847ZM88.7592 394.044C89.0017 395.162 88.7894 396.329 88.169 397.291C87.5486 398.252 86.5709 398.928 85.451 399.17C84.3311 399.412 83.1606 399.2 82.1973 398.581C81.2339 397.962 80.5564 396.986 80.3139 395.869C71.9587 357.22 67.7295 317.796 67.6971 278.258C67.6971 267.908 68.035 257.498 68.5916 247.043C69.1879 236.503 70.0616 226.09 71.2126 215.803C71.3461 214.67 71.9216 213.634 72.8144 212.921C73.7073 212.208 74.8458 211.874 75.9834 211.992C76.5479 212.051 77.0951 212.222 77.5933 212.493C78.0914 212.765 78.5305 213.133 78.8852 213.575C79.2399 214.017 79.5032 214.525 79.6597 215.069C79.8163 215.614 79.8629 216.184 79.7971 216.746C78.6612 226.969 77.8008 237.226 77.2158 247.516C76.6593 257.563 76.3753 267.81 76.3639 278.258C76.3628 317.183 80.5189 355.998 88.7621 394.044H88.7592ZM71.1132 393.679C71.2434 394.238 71.2602 394.817 71.1626 395.383C71.065 395.948 70.8551 396.488 70.5451 396.972C70.2351 397.455 69.8314 397.872 69.3576 398.197C68.8839 398.523 68.3497 398.75 67.7865 398.867C67.2233 398.983 66.6424 398.986 66.0781 398.875C65.5138 398.764 64.9774 398.542 64.5004 398.221C64.0235 397.9 63.6157 397.488 63.301 397.007C62.9864 396.527 62.7711 395.989 62.6679 395.424C59.6692 381.148 57.2081 366.621 55.2847 351.845C53.3916 337.263 52.074 322.545 51.3318 307.693C51.2934 307.127 51.369 306.559 51.5541 306.023C51.7392 305.486 52.0302 304.992 52.4097 304.57C52.7892 304.147 53.2496 303.805 53.7639 303.563C54.2782 303.32 54.8359 303.183 55.404 303.16C56.5449 303.107 57.6603 303.507 58.5061 304.273C59.3518 305.038 59.8589 306.107 59.9163 307.245C60.6735 321.935 61.9779 336.441 63.8294 350.762C65.6979 365.188 68.1221 379.489 71.1019 393.667L71.1132 393.679ZM59.2518 270.571C59.2128 271.695 58.7345 272.759 57.9193 273.535C57.1041 274.312 56.0167 274.739 54.8897 274.726C53.7628 274.712 52.6859 274.259 51.8893 273.464C51.0928 272.668 50.6399 271.593 50.6276 270.469C50.6475 268.928 50.6674 267.446 50.7071 266.015C50.7469 264.443 50.7866 262.978 50.8264 261.572C50.8572 260.431 51.3412 259.349 52.1717 258.564C53.0022 257.779 54.1112 257.355 55.2549 257.386C56.3985 257.417 57.4831 257.9 58.2699 258.728C59.0568 259.557 59.4815 260.664 59.4506 261.805C59.4108 263.335 59.371 264.822 59.3313 266.185C59.2915 267.69 59.2518 269.166 59.2518 270.571ZM61.9325 222.631C61.8766 223.193 61.7101 223.739 61.4428 224.237C61.1755 224.735 60.8125 225.176 60.3745 225.534C59.9365 225.892 59.4321 226.161 58.8901 226.324C58.3482 226.488 57.7792 226.543 57.2157 226.487C56.6522 226.432 56.1053 226.266 55.6061 225.999C55.1069 225.732 54.6653 225.37 54.3065 224.933C53.9476 224.496 53.6785 223.993 53.5145 223.452C53.3506 222.911 53.295 222.343 53.3509 221.781L53.6888 218.452C53.828 216.965 53.9472 215.809 54.0068 215.075C54.1389 213.941 54.7136 212.906 55.6062 212.192C56.4988 211.479 57.6373 211.145 58.7747 211.264C59.3393 211.323 59.8865 211.494 60.3846 211.765C60.8827 212.037 61.3219 212.404 61.6766 212.847C62.0313 213.289 62.2946 213.797 62.4511 214.341C62.6076 214.886 62.6543 215.456 62.5885 216.018C62.4493 217.494 62.3499 218.568 62.2704 219.294L61.9325 222.623V222.631ZM58.4028 415.226C58.6713 416.338 58.4859 417.511 57.8876 418.487C57.2893 419.463 56.327 420.162 55.2123 420.429C54.0977 420.697 52.922 420.512 51.944 419.915C50.966 419.318 50.2657 418.358 49.9972 417.246C45.6865 399.491 42.189 381.479 39.5045 363.212C36.8541 345.188 35.0726 326.866 34.1601 308.246C34.1074 307.105 34.5112 305.989 35.2826 305.145C36.054 304.301 37.1298 303.798 38.2735 303.745C39.4171 303.692 40.5348 304.095 41.3808 304.865C42.2267 305.634 42.7316 306.708 42.7844 307.849C43.6987 326.086 45.4603 344.137 48.069 362.002C50.6929 380.077 54.1375 397.822 58.4028 415.237V415.226ZM46.3396 437.122C46.4968 437.668 46.5441 438.239 46.4785 438.804C46.413 439.368 46.2361 439.914 45.9579 440.409C45.6797 440.905 45.3058 441.34 44.8578 441.691C44.4099 442.042 43.8968 442.3 43.3481 442.451C42.7994 442.603 42.2261 442.644 41.6612 442.573C41.0964 442.502 40.5512 442.32 40.0573 442.038C39.5634 441.756 39.1305 441.378 38.7836 440.928C38.4367 440.477 38.1827 439.963 38.0363 439.414C26.5789 397.989 19.5839 355.462 17.1701 312.555C17.1717 311.453 17.5963 310.394 18.3565 309.595C19.1167 308.796 20.1548 308.317 21.2575 308.258C22.3603 308.199 23.4438 308.564 24.2855 309.277C25.1272 309.99 25.663 310.998 25.783 312.093C26.9883 333.248 29.303 354.326 32.7175 375.239C36.1539 396.094 40.6972 416.751 46.3283 437.125L46.3396 437.122ZM44.1758 127.48C43.8888 128.587 43.173 129.535 42.1856 130.115C41.1983 130.695 40.0203 130.86 38.911 130.574C37.8016 130.288 36.8516 129.573 36.2701 128.588C35.6885 127.603 35.5231 126.428 35.81 125.321C36.4262 123.015 36.8635 121.312 37.1418 120.346C37.4258 119.292 37.8972 117.592 38.5106 115.404C38.6504 114.848 38.9003 114.325 39.2457 113.866C39.5912 113.408 40.025 113.023 40.5219 112.734C41.0187 112.445 41.5684 112.258 42.1387 112.185C42.7089 112.111 43.2882 112.152 43.8423 112.305C44.3965 112.458 44.9143 112.72 45.3654 113.076C45.8165 113.432 46.1916 113.874 46.4688 114.377C46.7459 114.88 46.9195 115.432 46.9792 116.003C47.039 116.574 46.9838 117.15 46.8167 117.699C46.5186 118.776 46.0812 120.357 45.4877 122.573C44.8516 124.893 44.4342 126.488 44.1758 127.48V127.48ZM14.6854 370.984C14.7793 371.548 14.7597 372.125 14.628 372.681C14.4962 373.237 14.2548 373.762 13.9179 374.224C13.581 374.687 13.1552 375.077 12.6654 375.374C12.1756 375.671 11.6316 375.867 11.065 375.952C10.4984 376.036 9.92059 376.008 9.36515 375.868C8.80972 375.727 8.28775 375.478 7.82973 375.135C7.37171 374.792 6.9868 374.361 6.69731 373.867C6.40782 373.374 6.21959 372.828 6.14358 372.262C4.81176 363.529 3.67866 354.636 2.68477 345.575C1.73062 336.684 0.935522 327.725 0.359061 318.701C0.323261 318.137 0.399102 317.572 0.582231 317.037C0.76536 316.503 1.0522 316.01 1.42638 315.586C1.80056 315.162 2.25471 314.816 2.76297 314.567C3.27123 314.318 3.82362 314.172 4.38859 314.136C4.95356 314.1 5.52008 314.176 6.05574 314.359C6.5914 314.541 7.08573 314.828 7.51054 315.201C7.93535 315.574 8.28234 316.028 8.53161 316.535C8.78089 317.042 8.92759 317.593 8.96339 318.157C9.53134 327.048 10.2999 335.887 11.2692 344.674C12.2158 353.396 13.3517 362.166 14.6769 370.984H14.6854ZM621.284 272.551C620.156 272.551 619.053 272.884 618.114 273.509C617.176 274.134 616.444 275.023 616.012 276.063C615.579 277.103 615.466 278.247 615.685 279.351C615.905 280.456 616.448 281.47 617.245 282.267C618.043 283.063 619.059 283.606 620.166 283.826C621.272 284.046 622.419 283.934 623.462 283.504C624.505 283.073 625.396 282.344 626.023 281.408C626.651 280.473 626.986 279.372 626.986 278.246C626.988 277.499 626.841 276.758 626.555 276.067C626.27 275.375 625.85 274.747 625.32 274.218C624.79 273.689 624.161 273.27 623.469 272.984C622.776 272.698 622.034 272.551 621.284 272.551Z" fill="url(#paint0_radial_803_5672)"/>
<path d="M145.299 236.569C153.815 236.569 160.72 229.666 160.72 221.149C160.72 212.633 153.815 205.729 145.299 205.729C136.783 205.729 129.878 212.633 129.878 221.149C129.878 229.666 136.783 236.569 145.299 236.569Z" fill="white" stroke="#CE0037" stroke-width="9"/>
<path d="M319.039 362.642C327.555 362.642 334.46 355.739 334.46 347.222C334.46 338.706 327.555 331.803 319.039 331.803C310.523 331.803 303.618 338.706 303.618 347.222C303.618 355.739 310.523 362.642 319.039 362.642Z" fill="white" stroke="#CE0037" stroke-width="9"/>
<path d="M103.602 177.007C112.118 177.007 119.022 170.104 119.022 161.588C119.022 153.071 112.118 146.168 103.602 146.168C95.0854 146.168 88.1808 153.071 88.1808 161.588C88.1808 170.104 95.0854 177.007 103.602 177.007Z" fill="white" stroke="#CE0037" stroke-width="9"/>
<path d="M105.587 282.718C110.534 282.718 114.544 278.708 114.544 273.762C114.544 268.815 110.534 264.806 105.587 264.806C100.641 264.806 96.6304 268.815 96.6304 273.762C96.6304 278.708 100.641 282.718 105.587 282.718Z" fill="white" stroke="#CE0037" stroke-width="6"/>
<path d="M896.848 520.964C901.795 520.964 905.805 516.955 905.805 512.008C905.805 507.061 901.795 503.052 896.848 503.052C891.902 503.052 887.891 507.061 887.891 512.008C887.891 516.955 891.902 520.964 896.848 520.964Z" fill="#CE0037" stroke="white" stroke-width="6"/>
<path d="M450.089 401.841C455.035 401.841 459.045 397.832 459.045 392.885C459.045 387.938 455.035 383.929 450.089 383.929C445.142 383.929 441.132 387.938 441.132 392.885C441.132 397.832 445.142 401.841 450.089 401.841Z" fill="#CE0037" stroke="white" stroke-width="6"/>
<path d="M226.709 301.58C231.655 301.58 235.666 297.571 235.666 292.624C235.666 287.677 231.655 283.668 226.709 283.668C221.762 283.668 217.752 287.677 217.752 292.624C217.752 297.571 221.762 301.58 226.709 301.58Z" fill="white" stroke="#CE0037" stroke-width="6"/>
<path d="M689.353 425.666C694.3 425.666 698.31 421.657 698.31 416.71C698.31 411.763 694.3 407.754 689.353 407.754C684.407 407.754 680.396 411.763 680.396 416.71C680.396 421.657 684.407 425.666 689.353 425.666Z" fill="#CE0037" stroke="white" stroke-width="6"/>
<path d="M93.6736 373.054C98.62 373.054 102.63 369.044 102.63 364.098C102.63 359.151 98.62 355.142 93.6736 355.142C88.7272 355.142 84.7168 359.151 84.7168 364.098C84.7168 369.044 88.7272 373.054 93.6736 373.054Z" fill="white" stroke="#CE0037" stroke-width="6"/>
<path d="M51.9761 418.717C56.9224 418.717 60.9329 414.707 60.9329 409.761C60.9329 404.814 56.9224 400.805 51.9761 400.805C47.0297 400.805 43.0193 404.814 43.0193 409.761C43.0193 414.707 47.0297 418.717 51.9761 418.717Z" fill="white" stroke="#CE0037" stroke-width="6"/>
<path d="M168.134 194.369C173.08 194.369 177.09 190.36 177.09 185.413C177.09 180.467 173.08 176.457 168.134 176.457C163.187 176.457 159.177 180.467 159.177 185.413C159.177 190.36 163.187 194.369 168.134 194.369Z" fill="white" stroke="#CE0037" stroke-width="6"/>
<defs>
<radialGradient id="paint0_radial_803_5672" cx="0" cy="0" r="1" gradientUnits="userSpaceOnUse" gradientTransform="translate(618.577 280.711) rotate(45) scale(953.857 953.854)">
<stop stop-color="#FDC62C"/>
<stop offset="1" stop-color="#DA0C39"/>
</radialGradient>
</defs>
</svg>
