<svg width="121" height="115" viewBox="0 0 121 115" fill="none" xmlns="http://www.w3.org/2000/svg">
<path d="M66.5542 23.9427C88.5762 26.6529 109.755 46.165 112.43 58.4874C119.384 90.5111 4.70296 95.6651 8.28754 62.7185C9.73206 49.4416 44.2819 21.2016 66.5542 23.9427Z" fill="#FFE195"/>
<path d="M60.3636 21.1125C82.4273 18.7662 107.474 32.9764 112.87 44.373C126.893 73.9907 16.3577 104.976 12.3896 72.0738C10.7905 58.8146 38.0491 23.4854 60.3636 21.1125Z" stroke="#FFB15C"/>
<path d="M62.4796 55.2707L62.479 55.27L54.9219 47.2401L54.921 47.2391C52.9125 45.116 53.0394 41.5739 55.2144 39.6092C57.1839 37.9255 60.069 38.2115 61.8554 40.1122L62.5651 40.9234L62.9261 41.336L63.3038 40.9387L64.0783 40.124L64.0804 40.1217C65.8742 38.2107 68.7546 37.9305 70.6723 39.6123L70.6726 39.6125C72.9118 41.5737 73.0284 45.1133 71.03 47.2404L71.0292 47.2413L63.5213 55.2707C63.5211 55.2709 63.521 55.271 63.5208 55.2712C63.2321 55.5786 62.7681 55.5784 62.4796 55.2707ZM78.8802 61.451L78.8814 61.4501C79.8909 60.6923 81.3125 60.9102 82.0618 61.9399C82.8073 62.9656 82.5949 64.4023 81.4763 65.1637L81.4674 65.1697L81.4587 65.1762L72.075 72.1731C72.075 72.1732 72.0749 72.1732 72.0749 72.1732C70.9258 73.0298 69.5101 73.5 68.0882 73.5H44.0488C43.8028 73.5 43.5 73.2412 43.5 72.875L43.5007 66.2511V66.251C43.5007 65.8668 43.7614 65.6247 44.0493 65.6246C44.0493 65.6246 44.0493 65.6246 44.0493 65.6246C44.0494 65.6246 44.0495 65.6246 44.0495 65.6246L47.8952 65.6264L48.0744 65.6264L48.2128 65.5127L51.4421 62.8594C51.4422 62.8593 51.4423 62.8592 51.4424 62.8592C52.8106 61.738 54.5749 61.1269 56.2734 61.1269H67.4471C68.4853 61.1269 69.326 62.1266 69.1503 63.1717L69.15 63.1735C69.014 64.0014 68.1701 64.6264 67.3256 64.6264H61.8905C61.0827 64.6264 60.3417 65.2836 60.3417 66.1881C60.3417 66.9908 60.982 67.7499 61.8905 67.7499H70.2671H70.433L70.566 67.6507L78.8802 61.451Z" stroke="black"/>
</svg>
