<svg width="121" height="115" viewBox="0 0 121 115" fill="none" xmlns="http://www.w3.org/2000/svg">
<path d="M66.5542 23.9427C88.5762 26.6529 109.755 46.165 112.43 58.4874C119.384 90.5111 4.70296 95.6651 8.28754 62.7185C9.73206 49.4416 44.2819 21.2016 66.5542 23.9427Z" fill="#FFE195"/>
<path d="M60.3636 21.1125C82.4273 18.7662 107.474 32.9764 112.87 44.373C126.893 73.9907 16.3577 104.976 12.3896 72.0738C10.7905 58.8146 38.0491 23.4854 60.3636 21.1125Z" stroke="#FFB15C"/>
<mask id="path-3-inside-1_203_1263" fill="white">
<path d="M43.5158 64.3633C43.6834 64.4027 43.911 64.606 43.9767 64.7916L44.31 65.5826C44.3852 65.7344 44.3709 66.0352 44.2814 66.1795L42.9511 68.3201C42.6664 68.7793 42.7254 69.4297 43.1082 69.8514L44.2348 70.9592C44.6271 71.3022 45.3194 71.364 45.7708 71.095L47.9458 69.7858C48.082 69.7033 48.3743 69.6743 48.5791 69.7689L49.3818 70.0951C49.5437 70.1504 49.7504 70.3734 49.7904 70.5384L50.3874 72.9788C50.5141 73.4961 51.0159 73.9216 51.5549 73.9703C51.5549 73.9703 51.8854 74.0003 52.3805 74.0003C52.8757 74.0003 53.2071 73.9703 53.2071 73.9703C53.48 73.9386 53.7369 73.8272 53.9448 73.6505C54.1528 73.4738 54.3021 73.2398 54.3737 72.9788L54.9717 70.5384C55.0117 70.3744 55.2174 70.1504 55.4059 70.0857L56.2096 69.7577C56.3515 69.6893 56.6801 69.7033 56.8162 69.7858L58.9912 71.095C59.1827 71.2103 59.4112 71.2712 59.654 71.2712C59.9826 71.2712 60.3006 71.1578 60.5473 70.9413L61.6729 69.8327C61.8513 69.6254 61.9603 69.3689 61.9851 69.0983C62.0098 68.8278 61.949 68.5563 61.8109 68.321L60.4806 66.1805C60.3911 66.0362 60.3768 65.7353 60.4635 65.5573L60.7949 64.7672C60.851 64.6079 61.0777 64.4045 61.2453 64.3652L63.725 63.7776C63.9903 63.7069 64.228 63.5597 64.4075 63.3549C64.5871 63.1501 64.7003 62.8972 64.7325 62.6286C64.7325 62.6286 64.763 62.3034 64.763 61.816C64.763 61.3287 64.7325 61.0026 64.7325 61.0026C64.7001 60.734 64.5869 60.4811 64.4074 60.2764C64.2279 60.0717 63.9902 59.9244 63.725 59.8536L61.2462 59.2669C61.0786 59.2276 60.851 59.0242 60.7853 58.8386L60.452 58.0477C60.3768 57.8958 60.3911 57.595 60.4806 57.4507L61.8109 55.3102C62.0957 54.8509 62.0366 54.2005 61.6538 53.7788L60.5273 52.6711C60.134 52.3271 59.4407 52.2653 58.9912 52.5352L56.8162 53.8444C56.6801 53.9259 56.3868 53.9569 56.183 53.8613L55.3802 53.5351C55.2183 53.4798 55.0126 53.2568 54.9726 53.0919L54.3746 50.6514C54.3028 50.3904 54.1532 50.1565 53.9451 49.9798C53.7371 49.803 53.48 49.6917 53.2071 49.6599C53.2052 49.6608 52.8748 49.6309 52.3796 49.6309C51.8844 49.6309 51.553 49.6608 51.553 49.6608C51.2801 49.6927 51.0232 49.8041 50.8151 49.9808C50.6071 50.1575 50.4575 50.3914 50.3855 50.6524L49.7894 53.0909C49.7494 53.2559 49.5428 53.4798 49.3542 53.5445L48.5505 53.8725C48.4076 53.9409 48.0801 53.9259 47.9439 53.8444L45.7698 52.5352C45.3194 52.2653 44.6414 52.3121 44.2138 52.6889L43.0882 53.7976C42.9098 54.0048 42.8008 54.2613 42.776 54.5319C42.7513 54.8025 42.8121 55.0739 42.9502 55.3092L44.2805 57.4497C44.37 57.5941 44.3843 57.8949 44.2976 58.073L43.9662 58.863C43.91 59.0223 43.6834 59.2257 43.5158 59.265L41.0361 59.8527C40.7708 59.9234 40.5331 60.0706 40.3536 60.2753C40.174 60.4801 40.0608 60.733 40.0286 61.0016C40.0286 61.0016 40 61.3268 40 61.8142C40 62.3015 40.0305 62.6276 40.0305 62.6276C40.0629 62.8962 40.1761 63.1491 40.3556 63.3538C40.5351 63.5586 40.7728 63.7058 41.038 63.7766L43.5158 64.3633ZM40.9523 61.8142C40.9523 61.3849 40.978 61.0954 40.9789 61.086C40.9941 61.0131 41.028 60.9452 41.0773 60.8887C41.1266 60.8323 41.1898 60.7892 41.2608 60.7636L43.7405 60.176C44.2214 60.0617 44.7062 59.6287 44.8566 59.1948L45.1651 58.4572C45.3823 58.0195 45.3518 57.3766 45.0937 56.9605L43.7634 54.821C43.6996 54.7169 43.7177 54.5107 43.7805 54.4405L44.8671 53.3702C44.9537 53.2943 45.1747 53.2755 45.2737 53.3346L47.4487 54.6438C47.861 54.8922 48.5676 54.909 48.9419 54.7263L49.6923 54.4208C50.1598 54.2624 50.5998 53.7854 50.716 53.3112L51.3121 50.8717C51.3379 50.8016 51.3816 50.7392 51.439 50.6904C51.4963 50.6417 51.5654 50.6083 51.6397 50.5933C51.6492 50.5933 51.9434 50.568 52.3796 50.568C52.8157 50.568 53.11 50.5933 53.1195 50.5943C53.1936 50.6092 53.2626 50.6425 53.3199 50.6911C53.3773 50.7396 53.421 50.8018 53.4471 50.8717L54.0442 53.3112C54.1603 53.7844 54.5993 54.2624 55.0412 54.4105L55.7906 54.7141C56.2258 54.924 56.9001 54.8912 57.3114 54.6438L59.4855 53.3346C59.5845 53.2755 59.8188 53.3065 59.8721 53.3515L60.9596 54.4208C61.0415 54.5117 61.0596 54.7169 60.9958 54.821L59.6655 56.9615C59.4074 57.3766 59.3769 58.0205 59.5817 58.431L59.8921 59.1695C60.053 59.6296 60.5377 60.0626 61.0196 60.1769L63.4984 60.7636C63.5696 60.789 63.633 60.832 63.6825 60.8885C63.732 60.9449 63.766 61.0129 63.7812 61.086C63.7812 61.0954 63.8069 61.3849 63.8069 61.8142C63.8069 62.2434 63.7812 62.533 63.7802 62.5424C63.7651 62.6153 63.7312 62.6832 63.6819 62.7396C63.6325 62.796 63.5694 62.8391 63.4984 62.8647L61.0186 63.4524C60.5377 63.5667 60.053 63.9997 59.9026 64.4336L59.594 65.1711C59.3769 65.6088 59.4074 66.2517 59.6655 66.6678L60.9958 68.8074C61.0596 68.9114 61.0415 69.1176 60.9786 69.1879L59.8921 70.2581C59.8233 70.3088 59.739 70.3349 59.6531 70.3322C59.5951 70.334 59.5376 70.3208 59.4864 70.2938L57.3114 68.9845C56.9001 68.7371 56.1935 68.7193 55.8183 68.9021L55.0679 69.2076C54.6003 69.366 54.1603 69.8439 54.0451 70.3172L53.448 72.7567C53.4222 72.8268 53.3785 72.8892 53.3212 72.9379C53.2638 72.9866 53.1947 73.0201 53.1205 73.035C53.11 73.035 52.8157 73.0603 52.3796 73.0603C51.9434 73.0603 51.6492 73.035 51.6397 73.0341C51.5656 73.0191 51.4966 72.9858 51.4393 72.9373C51.3819 72.8887 51.3381 72.8265 51.3121 72.7567L50.715 70.3163C50.5988 69.843 50.1589 69.366 49.718 69.2179L48.9685 68.9142C48.7554 68.8167 48.5226 68.768 48.2877 68.7718C47.9744 68.7718 47.6763 68.8477 47.4478 68.9855L45.2737 70.2947C45.1747 70.3537 44.9395 70.3219 44.8871 70.2778L43.7996 69.2076C43.7177 69.1167 43.6996 68.9114 43.7634 68.8074L45.0937 66.6669C45.3518 66.2517 45.3823 65.6079 45.1775 65.1974L44.8671 64.4589C44.7062 63.9987 44.2214 63.5658 43.7396 63.4514L41.2608 62.8647C41.1896 62.8393 41.1262 62.7963 41.0767 62.7399C41.0271 62.6834 40.9932 62.6154 40.978 62.5424C40.978 62.533 40.9523 62.2434 40.9523 61.8142Z"/>
</mask>
<path d="M43.5158 64.3633C43.6834 64.4027 43.911 64.606 43.9767 64.7916L44.31 65.5826C44.3852 65.7344 44.3709 66.0352 44.2814 66.1795L42.9511 68.3201C42.6664 68.7793 42.7254 69.4297 43.1082 69.8514L44.2348 70.9592C44.6271 71.3022 45.3194 71.364 45.7708 71.095L47.9458 69.7858C48.082 69.7033 48.3743 69.6743 48.5791 69.7689L49.3818 70.0951C49.5437 70.1504 49.7504 70.3734 49.7904 70.5384L50.3874 72.9788C50.5141 73.4961 51.0159 73.9216 51.5549 73.9703C51.5549 73.9703 51.8854 74.0003 52.3805 74.0003C52.8757 74.0003 53.2071 73.9703 53.2071 73.9703C53.48 73.9386 53.7369 73.8272 53.9448 73.6505C54.1528 73.4738 54.3021 73.2398 54.3737 72.9788L54.9717 70.5384C55.0117 70.3744 55.2174 70.1504 55.4059 70.0857L56.2096 69.7577C56.3515 69.6893 56.6801 69.7033 56.8162 69.7858L58.9912 71.095C59.1827 71.2103 59.4112 71.2712 59.654 71.2712C59.9826 71.2712 60.3006 71.1578 60.5473 70.9413L61.6729 69.8327C61.8513 69.6254 61.9603 69.3689 61.9851 69.0983C62.0098 68.8278 61.949 68.5563 61.8109 68.321L60.4806 66.1805C60.3911 66.0362 60.3768 65.7353 60.4635 65.5573L60.7949 64.7672C60.851 64.6079 61.0777 64.4045 61.2453 64.3652L63.725 63.7776C63.9903 63.7069 64.228 63.5597 64.4075 63.3549C64.5871 63.1501 64.7003 62.8972 64.7325 62.6286C64.7325 62.6286 64.763 62.3034 64.763 61.816C64.763 61.3287 64.7325 61.0026 64.7325 61.0026C64.7001 60.734 64.5869 60.4811 64.4074 60.2764C64.2279 60.0717 63.9902 59.9244 63.725 59.8536L61.2462 59.2669C61.0786 59.2276 60.851 59.0242 60.7853 58.8386L60.452 58.0477C60.3768 57.8958 60.3911 57.595 60.4806 57.4507L61.8109 55.3102C62.0957 54.8509 62.0366 54.2005 61.6538 53.7788L60.5273 52.6711C60.134 52.3271 59.4407 52.2653 58.9912 52.5352L56.8162 53.8444C56.6801 53.9259 56.3868 53.9569 56.183 53.8613L55.3802 53.5351C55.2183 53.4798 55.0126 53.2568 54.9726 53.0919L54.3746 50.6514C54.3028 50.3904 54.1532 50.1565 53.9451 49.9798C53.7371 49.803 53.48 49.6917 53.2071 49.6599C53.2052 49.6608 52.8748 49.6309 52.3796 49.6309C51.8844 49.6309 51.553 49.6608 51.553 49.6608C51.2801 49.6927 51.0232 49.8041 50.8151 49.9808C50.6071 50.1575 50.4575 50.3914 50.3855 50.6524L49.7894 53.0909C49.7494 53.2559 49.5428 53.4798 49.3542 53.5445L48.5505 53.8725C48.4076 53.9409 48.0801 53.9259 47.9439 53.8444L45.7698 52.5352C45.3194 52.2653 44.6414 52.3121 44.2138 52.6889L43.0882 53.7976C42.9098 54.0048 42.8008 54.2613 42.776 54.5319C42.7513 54.8025 42.8121 55.0739 42.9502 55.3092L44.2805 57.4497C44.37 57.5941 44.3843 57.8949 44.2976 58.073L43.9662 58.863C43.91 59.0223 43.6834 59.2257 43.5158 59.265L41.0361 59.8527C40.7708 59.9234 40.5331 60.0706 40.3536 60.2753C40.174 60.4801 40.0608 60.733 40.0286 61.0016C40.0286 61.0016 40 61.3268 40 61.8142C40 62.3015 40.0305 62.6276 40.0305 62.6276C40.0629 62.8962 40.1761 63.1491 40.3556 63.3538C40.5351 63.5586 40.7728 63.7058 41.038 63.7766L43.5158 64.3633ZM40.9523 61.8142C40.9523 61.3849 40.978 61.0954 40.9789 61.086C40.9941 61.0131 41.028 60.9452 41.0773 60.8887C41.1266 60.8323 41.1898 60.7892 41.2608 60.7636L43.7405 60.176C44.2214 60.0617 44.7062 59.6287 44.8566 59.1948L45.1651 58.4572C45.3823 58.0195 45.3518 57.3766 45.0937 56.9605L43.7634 54.821C43.6996 54.7169 43.7177 54.5107 43.7805 54.4405L44.8671 53.3702C44.9537 53.2943 45.1747 53.2755 45.2737 53.3346L47.4487 54.6438C47.861 54.8922 48.5676 54.909 48.9419 54.7263L49.6923 54.4208C50.1598 54.2624 50.5998 53.7854 50.716 53.3112L51.3121 50.8717C51.3379 50.8016 51.3816 50.7392 51.439 50.6904C51.4963 50.6417 51.5654 50.6083 51.6397 50.5933C51.6492 50.5933 51.9434 50.568 52.3796 50.568C52.8157 50.568 53.11 50.5933 53.1195 50.5943C53.1936 50.6092 53.2626 50.6425 53.3199 50.6911C53.3773 50.7396 53.421 50.8018 53.4471 50.8717L54.0442 53.3112C54.1603 53.7844 54.5993 54.2624 55.0412 54.4105L55.7906 54.7141C56.2258 54.924 56.9001 54.8912 57.3114 54.6438L59.4855 53.3346C59.5845 53.2755 59.8188 53.3065 59.8721 53.3515L60.9596 54.4208C61.0415 54.5117 61.0596 54.7169 60.9958 54.821L59.6655 56.9615C59.4074 57.3766 59.3769 58.0205 59.5817 58.431L59.8921 59.1695C60.053 59.6296 60.5377 60.0626 61.0196 60.1769L63.4984 60.7636C63.5696 60.789 63.633 60.832 63.6825 60.8885C63.732 60.9449 63.766 61.0129 63.7812 61.086C63.7812 61.0954 63.8069 61.3849 63.8069 61.8142C63.8069 62.2434 63.7812 62.533 63.7802 62.5424C63.7651 62.6153 63.7312 62.6832 63.6819 62.7396C63.6325 62.796 63.5694 62.8391 63.4984 62.8647L61.0186 63.4524C60.5377 63.5667 60.053 63.9997 59.9026 64.4336L59.594 65.1711C59.3769 65.6088 59.4074 66.2517 59.6655 66.6678L60.9958 68.8074C61.0596 68.9114 61.0415 69.1176 60.9786 69.1879L59.8921 70.2581C59.8233 70.3088 59.739 70.3349 59.6531 70.3322C59.5951 70.334 59.5376 70.3208 59.4864 70.2938L57.3114 68.9845C56.9001 68.7371 56.1935 68.7193 55.8183 68.9021L55.0679 69.2076C54.6003 69.366 54.1603 69.8439 54.0451 70.3172L53.448 72.7567C53.4222 72.8268 53.3785 72.8892 53.3212 72.9379C53.2638 72.9866 53.1947 73.0201 53.1205 73.035C53.11 73.035 52.8157 73.0603 52.3796 73.0603C51.9434 73.0603 51.6492 73.035 51.6397 73.0341C51.5656 73.0191 51.4966 72.9858 51.4393 72.9373C51.3819 72.8887 51.3381 72.8265 51.3121 72.7567L50.715 70.3163C50.5988 69.843 50.1589 69.366 49.718 69.2179L48.9685 68.9142C48.7554 68.8167 48.5226 68.768 48.2877 68.7718C47.9744 68.7718 47.6763 68.8477 47.4478 68.9855L45.2737 70.2947C45.1747 70.3537 44.9395 70.3219 44.8871 70.2778L43.7996 69.2076C43.7177 69.1167 43.6996 68.9114 43.7634 68.8074L45.0937 66.6669C45.3518 66.2517 45.3823 65.6079 45.1775 65.1974L44.8671 64.4589C44.7062 63.9987 44.2214 63.5658 43.7396 63.4514L41.2608 62.8647C41.1896 62.8393 41.1262 62.7963 41.0767 62.7399C41.0271 62.6834 40.9932 62.6154 40.978 62.5424C40.978 62.533 40.9523 62.2434 40.9523 61.8142Z" fill="black" stroke="black" stroke-width="3" mask="url(#path-3-inside-1_203_1263)"/>
<path d="M52.3781 66.9684C55.2664 66.9684 57.6157 64.6563 57.6157 61.8139C57.6157 58.9714 55.2664 56.6594 52.3781 56.6594C49.4899 56.6594 47.1406 58.9714 47.1406 61.8139C47.1406 64.6563 49.4899 66.9684 52.3781 66.9684ZM52.3781 57.5966C54.7407 57.5966 56.6634 59.4887 56.6634 61.8139C56.6634 64.139 54.7407 66.0312 52.3781 66.0312C50.0155 66.0312 48.0929 64.139 48.0929 61.8139C48.0929 59.4887 50.0155 57.5966 52.3781 57.5966ZM66.1643 48.9877C66.1003 49.0583 66.0128 49.1041 65.9176 49.117L64.1454 49.1001C63.9267 49.1058 63.7147 49.1753 63.5361 49.2998C63.3576 49.4243 63.2207 49.5981 63.1427 49.7993C63.1427 49.7993 63.0646 50.0176 62.9789 50.3522C62.8932 50.6868 62.857 50.9154 62.857 50.9154C62.7903 51.3381 63.0294 51.8058 63.4131 52.0035L64.9758 52.8095C65.0596 52.8719 65.1161 52.9634 65.1339 53.0653L65.2225 53.6604C65.2281 53.7544 65.1997 53.8474 65.1425 53.9228L63.8836 55.1374C63.5683 55.4411 63.4855 55.9603 63.7026 56.3679L64.273 57.3051C64.514 57.6537 65.0358 57.8318 65.4453 57.7062L67.1822 57.1833C67.2765 57.1833 67.3708 57.2189 67.4241 57.2611L67.9145 57.6172C67.9859 57.6804 68.0324 57.7664 68.0459 57.8599L68.0288 59.5956C68.025 60.0229 68.3297 60.4512 68.7392 60.5918C68.7392 60.5918 68.9611 60.6686 69.3011 60.753C69.641 60.8373 69.8734 60.873 69.8734 60.873C69.8981 60.8767 69.9972 60.8842 70.0219 60.8842C70.2172 60.8818 70.4084 60.8289 70.5764 60.7309C70.7443 60.6329 70.8832 60.4931 70.979 60.3256L71.7979 58.7877C71.8614 58.7053 71.9543 58.6497 72.0579 58.6322L72.6892 58.5422C72.7845 58.5422 72.8968 58.5909 72.9283 58.6228L74.1624 59.8617C74.4624 60.1635 74.968 60.2713 75.4128 60.0398L76.3641 59.4784C76.7279 59.2348 76.904 58.7381 76.7726 58.3248L76.247 56.6688C76.2329 56.5658 76.2595 56.4615 76.3212 56.3773L76.6831 55.8947C76.747 55.824 76.8345 55.7782 76.9297 55.7653L78.7019 55.7822C78.9206 55.7765 79.1327 55.707 79.3112 55.5825C79.4897 55.4581 79.6267 55.2842 79.7047 55.0831C79.7047 55.0831 79.7828 54.8647 79.8685 54.5301C79.9542 54.1956 79.9904 53.9669 79.9904 53.9669C80.0186 53.7516 79.9808 53.5329 79.8817 53.339C79.7825 53.1451 79.6267 52.9848 79.4342 52.8788L77.8715 52.0729C77.7878 52.0104 77.7313 51.9189 77.7135 51.817L77.6259 51.2238C77.6202 51.1297 77.6486 51.0368 77.7058 50.9614L78.9648 49.7468C79.28 49.4431 79.3628 48.9239 79.1457 48.5163L78.5753 47.5791C78.3343 47.2314 77.8134 47.0515 77.403 47.177L75.6651 47.7C75.5782 47.6999 75.4935 47.6726 75.4232 47.6222L74.9328 47.2661C74.8614 47.2028 74.8149 47.1169 74.8014 47.0233L74.8185 45.2877C74.8149 45.0708 74.7452 44.8599 74.6186 44.6823C74.492 44.5048 74.3142 44.3686 74.1081 44.2915C74.1081 44.2915 73.8863 44.2146 73.5463 44.1303C73.2063 44.0459 72.974 44.0103 72.974 44.0103C72.9246 44.0055 72.875 44.002 72.8254 44C72.6302 44.0024 72.439 44.0553 72.271 44.1533C72.103 44.2513 71.9642 44.3911 71.8684 44.5586L71.0494 46.0965C70.986 46.1789 70.893 46.2345 70.7895 46.252L70.1581 46.3411C70.0719 46.3392 69.9883 46.3111 69.9191 46.2605L68.6849 45.0215C68.5236 44.8636 68.3149 44.761 68.0897 44.7289C67.8645 44.6968 67.6348 44.737 67.4346 44.8435L66.4823 45.4039C66.1185 45.6476 65.9424 46.1443 66.0738 46.5576L66.5994 48.2136C66.6135 48.3165 66.5869 48.4208 66.5252 48.505L66.1643 48.9877ZM66.9451 49.5237L67.2717 49.087C67.527 48.7899 67.626 48.3054 67.5079 47.9352L66.9832 46.2802C66.9784 46.2539 66.9994 46.1949 66.9946 46.1939L67.8974 45.6616L68.005 45.6775L69.2401 46.9165C69.4591 47.1358 69.82 47.2782 70.1591 47.2782C70.2243 47.2793 70.2894 47.2733 70.3533 47.2604L70.9009 47.1808C71.1065 47.1562 71.3035 47.0846 71.476 46.9717C71.6485 46.8587 71.7917 46.7076 71.8941 46.5304L72.7121 44.9934C72.7416 44.9609 72.7823 44.9405 72.8264 44.9362C72.8369 44.9372 73.0311 44.969 73.3149 45.0384C73.5977 45.1087 73.7844 45.1715 73.7929 45.1752C73.8225 45.1874 73.8653 45.2483 73.8672 45.2783L73.8501 47.014C73.8463 47.402 74.0834 47.8377 74.39 48.0346L74.8328 48.356C75.1271 48.6006 75.6318 48.7037 76.0032 48.5884L77.6925 48.0711C77.7325 48.0711 77.7773 48.0955 77.7716 48.0833L78.3124 48.9717C78.3229 48.9961 78.3124 49.0579 78.2963 49.0776L77.0373 50.2931C76.7564 50.5659 76.6107 51.0382 76.6879 51.3887L76.7679 51.9276C76.8021 52.3137 77.0802 52.7251 77.4297 52.9051L78.9914 53.7101C79.0241 53.7393 79.0448 53.7793 79.0495 53.8226C79.0216 53.9841 78.987 54.1445 78.9457 54.3033C78.9062 54.462 78.8598 54.619 78.8067 54.7738C78.7943 54.8028 78.7324 54.845 78.7019 54.8469L76.9288 54.83C76.5374 54.83 76.0994 55.0634 75.9013 55.3614L75.5756 55.7972C75.447 55.9574 75.3587 56.1452 75.3176 56.3453C75.2766 56.5454 75.2841 56.7522 75.3394 56.949L75.8641 58.604C75.8689 58.6293 75.848 58.6893 75.8527 58.6903L74.95 59.2226L74.8423 59.2066L73.6072 57.9677C73.3882 57.7484 73.0273 57.6059 72.6883 57.6059C72.6231 57.6049 72.5579 57.6109 72.494 57.6238L71.9465 57.7034C71.7408 57.728 71.5439 57.7996 71.3714 57.9125C71.1989 58.0255 71.0557 58.1766 70.9533 58.3538L70.1352 59.8908C70.1058 59.9233 70.065 59.9437 70.021 59.948C69.8568 59.9205 69.6938 59.8864 69.5325 59.8458C69.3712 59.8069 69.2117 59.7613 69.0544 59.709C69.0249 59.6968 68.982 59.6359 68.9801 59.6059L68.9973 57.8702C69.0011 57.4822 68.764 57.0465 68.4573 56.8496L68.0145 56.5282C67.8516 56.4016 67.6606 56.3146 67.4571 56.2742C67.2536 56.2338 67.0433 56.2412 66.8432 56.2958L65.1539 56.8131C65.1129 56.8131 65.0682 56.7915 65.0748 56.8009L64.534 55.9125C64.5235 55.8881 64.534 55.8262 64.5501 55.8066L65.8091 54.591C66.09 54.3183 66.2357 53.846 66.1585 53.4955L66.0785 52.9575C66.0536 52.755 65.9807 52.5611 65.8657 52.3914C65.7508 52.2216 65.597 52.0807 65.4167 51.9801L63.855 51.175C63.8223 51.1458 63.8016 51.1058 63.7969 51.0626C63.7978 51.0523 63.8302 50.8611 63.9007 50.5818C63.9721 50.3035 64.0359 50.1198 64.0397 50.1113C64.0521 50.0823 64.114 50.0401 64.1445 50.0382L65.9176 50.0551C66.309 50.0551 66.747 49.8217 66.9451 49.5237Z" fill="black"/>
<path d="M71.4275 55.2539C73.0028 55.2539 74.2847 53.9925 74.2847 52.4424C74.2847 50.8923 73.0028 49.6309 71.4275 49.6309C69.8522 49.6309 68.5703 50.8923 68.5703 52.4424C68.5703 53.9925 69.8522 55.2539 71.4275 55.2539ZM71.4275 50.568C72.478 50.568 73.3323 51.4087 73.3323 52.4424C73.3323 53.4761 72.478 54.3167 71.4275 54.3167C70.377 54.3167 69.5227 53.4761 69.5227 52.4424C69.5227 51.4087 70.377 50.568 71.4275 50.568Z" fill="black"/>
</svg>
