<svg width="121" height="115" viewBox="0 0 121 115" fill="none" xmlns="http://www.w3.org/2000/svg">
<path d="M66.5542 23.9427C88.5762 26.6529 109.755 46.165 112.43 58.4874C119.384 90.5111 4.70296 95.6651 8.28754 62.7185C9.73206 49.4416 44.2819 21.2016 66.5542 23.9427Z" fill="#FFE195"/>
<path d="M60.3636 21.1125C82.4273 18.7662 107.474 32.9764 112.87 44.373C126.893 73.9907 16.3577 104.976 12.3896 72.0738C10.7905 58.8146 38.0491 23.4854 60.3636 21.1125Z" stroke="#FFB15C"/>
<path d="M54.5025 67.9949C72.4395 67.9949 73.8844 52.7348 74 45.4829C74.001 45.2856 73.9625 45.0902 73.8867 44.908C73.8109 44.7259 73.6993 44.5609 73.5585 44.4226C73.4178 44.2844 73.2507 44.1758 73.0673 44.1033C72.8838 44.0308 72.6877 43.9958 72.4905 44.0004C47 44.4686 47 56.8267 47 67.9949V73.9969" stroke="black" stroke-width="1.5" stroke-linecap="round" stroke-linejoin="round"/>
<path d="M47 67.9976C47 67.9976 47 58.9946 59.004 57.4941" stroke="black" stroke-width="1.5" stroke-linecap="round" stroke-linejoin="round"/>
</svg>
