<svg width="170" height="47" viewBox="0 0 170 47" fill="none" xmlns="http://www.w3.org/2000/svg">
<path fill-rule="evenodd" clip-rule="evenodd" d="M169.404 30.5314C169.314 29.9957 168.238 29.7829 167.689 30.1957C166.105 31.3611 164.413 32.3715 162.635 33.2129C159.175 34.8671 155.237 35.6938 150.821 35.6929C148.372 35.7146 145.928 35.4606 143.535 34.9357C141.351 34.4375 139.21 33.7687 137.131 32.9357C139.468 32.0268 141.692 30.8474 143.755 29.4214C145.668 28.128 147.411 26.6004 148.945 24.8743C150.269 23.3782 151.383 21.7091 152.257 19.9129C153.067 18.2129 153.472 16.5819 153.471 15.02C153.471 11.7124 152.328 8.74952 150.042 6.13143C147.757 3.51333 143.743 2.20429 138.001 2.20429C135.352 2.20429 133.071 2.64095 131.157 3.51429C129.242 4.38762 127.735 5.55905 126.635 7.02857C125.514 8.53606 124.69 10.2431 124.207 12.0586C123.688 13.9675 123.428 15.9375 123.434 17.9157C123.434 20.7643 124.28 23.4976 125.974 26.1157C127.667 28.7338 130.206 30.9619 133.591 32.8C130.661 33.7162 127.608 34.1806 124.538 34.1771C121.594 34.1771 119.018 33.9014 116.809 33.35C117.256 32.5124 117.626 31.6359 117.914 30.7314C118.21 29.796 118.359 28.82 118.355 27.8386C118.355 25.8167 117.656 24.2548 116.258 23.1529C114.86 22.051 113.13 21.4995 111.068 21.4986C109.155 21.4986 107.683 21.9352 106.652 22.8086C105.622 23.6819 105.106 24.8533 105.106 26.3229C105.106 28.16 106.027 29.7448 107.867 31.0771C109.707 32.4095 112.025 33.4429 114.822 34.1771C113.203 36.3829 110.958 38.2205 108.088 39.69C105.099 41.2045 101.951 42.3831 98.7022 43.2043C95.3657 44.0673 91.9711 44.688 88.5451 45.0614C85.1594 45.4281 82.2155 45.6119 79.7136 45.6129C72.9422 45.6129 67.1275 44.8091 62.2694 43.2014C57.4113 41.5938 53.5122 39.5048 50.5722 36.9343C57.1932 35.6448 62.5641 33.5771 66.6851 30.7314C68.7199 31.4609 70.8273 31.9695 72.9708 32.2486C75.0579 32.5209 77.1603 32.6588 79.2651 32.6614C83.0927 32.6614 86.4413 32.1562 89.3108 31.1457C92.1803 30.1352 94.5356 28.8495 96.3765 27.2886C98.2213 25.7248 99.6222 24.0248 100.579 22.1886C101.536 20.3524 102.015 18.5605 102.015 16.8129C102.015 13.69 101.132 11.071 99.3651 8.95571C97.5984 6.84048 95.2798 5.11857 92.4094 3.79C89.3863 2.41032 86.1937 1.4371 82.9151 0.895714C79.5977 0.311149 76.2364 0.0114851 72.8679 0C67.7184 0 63.1913 0.619048 59.2865 1.85714C55.3817 3.09524 52.0703 4.77286 49.3522 6.89C46.6284 9.00429 44.5675 11.4162 43.1694 14.1257C41.7944 16.7395 41.0742 19.648 41.0708 22.6014C41.0542 25.0967 41.5821 27.5655 42.6179 29.8357C43.6588 32.1027 45.077 34.1765 46.8122 35.9686C44.3094 36.3371 41.2917 36.521 37.7594 36.52C33.1361 36.5393 28.5194 36.1703 23.9579 35.4171C19.617 34.6829 15.8265 33.6033 12.5865 32.1786C9.3465 30.7538 6.77031 29.0314 4.85793 27.0114C2.94364 24.9905 1.9865 22.6933 1.9865 20.12C1.9865 16.261 3.78983 13.2062 7.3965 10.9557C11.0032 8.70524 15.0884 7.58 19.6522 7.58C25.0979 7.58 29.256 8.3381 32.1265 9.85429C34.997 11.3705 36.4313 13.4605 36.4294 16.1243C36.4294 18.2376 35.3251 19.9371 33.1165 21.2229C30.9079 22.5086 28.7741 23.1519 26.7151 23.1529C24.8008 23.1529 23.4022 23.0148 22.5194 22.7386C22.1878 22.6476 21.835 22.6723 21.5194 22.8086C21.1527 22.9457 21.1894 23.1524 21.6294 23.4286C23.1125 23.9819 24.6835 24.2621 26.2665 24.2557C30.0951 24.2557 33.0394 23.3595 35.0994 21.5671C37.1594 19.7748 38.1898 17.9605 38.1908 16.1243C38.1908 14.1938 37.6389 12.609 36.5351 11.37C35.4313 10.131 33.9994 9.12 32.2394 8.33714C30.3396 7.5212 28.3307 6.98746 26.2765 6.75286C24.1945 6.49209 22.099 6.35424 20.0008 6.34C17.4202 6.31143 14.8485 6.6481 12.3622 7.34C10.1933 7.95092 8.11403 8.84429 6.17793 9.99714C4.26745 11.1419 2.76031 12.5643 1.6565 14.2643C0.551844 15.9651 -0.0242931 17.955 0.000785224 19.9829C0.000785224 22.459 0.736976 24.8019 2.20936 27.0114C3.68174 29.221 5.96317 31.1505 9.05364 32.8C12.1451 34.4524 16.0832 35.7614 20.8679 36.7271C25.6527 37.6929 31.2832 38.1752 37.7594 38.1743C41.2374 38.1791 44.7102 37.9025 48.1436 37.3471C51.677 40.2871 56.1298 42.63 61.5022 44.3757C66.8746 46.1214 72.9455 46.9962 79.7151 47C83.4445 46.9958 87.1687 46.7194 90.8579 46.1729C94.445 45.659 97.9884 44.8758 101.458 43.83C104.58 42.9021 107.582 41.6073 110.399 39.9729C113.049 38.4119 115.037 36.5743 116.362 34.46L120.342 35C121.733 35.1918 123.134 35.2873 124.538 35.2857C128.074 35.2849 131.584 34.679 134.917 33.4943C139.185 35.6076 144.484 36.6643 150.814 36.6643C155.231 36.6643 159.242 35.9291 162.848 34.4586C165.081 33.5603 167.203 32.4064 169.171 31.02C169.251 30.9733 169.315 30.9045 169.357 30.8219C169.399 30.7393 169.416 30.6464 169.406 30.5543L169.404 30.5314ZM66.2436 29.2157C64.7198 28.3773 63.3707 27.2547 62.2694 25.9086C61.2398 24.6229 60.7246 23.061 60.7236 21.2229C60.7227 19.3848 61.2379 18.0757 62.2694 17.2957C63.2823 16.5201 64.5266 16.1076 65.8022 16.1243C67.4213 16.1243 68.6727 16.5605 69.5565 17.4329C70.4403 18.3052 70.8817 19.431 70.8808 20.81C70.8808 24.1176 69.3351 26.9195 66.2436 29.2157ZM43.2865 22.6014C43.2865 19.3852 44.096 16.4681 45.7151 13.85C47.3341 11.2319 49.5056 8.98095 52.2294 7.09714C54.9475 5.21429 58.1094 3.74429 61.7151 2.68714C65.4112 1.61792 69.2417 1.0844 73.0894 1.10286C76.2426 1.09409 79.3881 1.4173 82.4736 2.06714C85.4917 2.71 88.1779 3.65191 90.5322 4.89286C92.8865 6.13381 94.7636 7.74095 96.1637 9.71429C97.5617 11.6895 98.2608 13.9633 98.2608 16.5357C98.2608 18.0986 97.9275 19.7524 97.2608 21.4971C96.5941 23.2419 95.527 24.8957 94.0594 26.4586C92.586 28.0205 90.6336 29.3062 88.2022 30.3157C85.7708 31.3252 82.7898 31.8305 79.2594 31.8314C75.3502 31.8426 71.4675 31.1905 67.7765 29.9029C71.3098 27.3314 73.0765 24.2533 73.0765 20.6686C73.0765 18.4648 72.3403 16.9262 70.8679 16.0529C69.3956 15.1795 67.7027 14.7429 65.7894 14.7429C62.8446 14.7429 60.9308 15.501 60.0479 17.0171C59.1651 18.5333 58.7236 19.9343 58.7236 21.22C58.7236 23.3333 59.3494 25.1019 60.6008 26.5257C61.8522 27.9495 63.4346 29.121 65.3479 30.04C63.4336 31.3267 61.1151 32.4524 58.3922 33.4171C55.4819 34.4298 52.49 35.1902 49.4494 35.69C45.3408 31.5576 43.2865 27.1948 43.2865 22.6014ZM115.271 33.0757C112.768 32.4319 110.744 31.5357 109.198 30.3871C107.652 29.2386 106.877 27.8838 106.872 26.3229C106.872 25.22 107.314 24.37 108.198 23.7729C109.041 23.1883 110.042 22.8757 111.068 22.8771C112.687 22.8771 114.049 23.3824 115.154 24.3929C116.258 25.4033 116.81 26.5519 116.809 27.8386C116.821 28.7757 116.672 29.7078 116.368 30.5943C116.062 31.4476 115.693 32.2771 115.264 33.0757H115.271ZM128.181 25.4286C126.487 22.8114 125.641 20.3081 125.642 17.9186C125.642 13.6871 126.673 10.2857 128.734 7.71429C130.795 5.14286 133.884 3.85714 138.001 3.85714C140.357 3.85714 142.271 4.20191 143.742 4.89143C145.214 5.58095 146.356 6.47667 147.171 7.57857C147.969 8.65603 148.498 9.90831 148.715 11.2314C148.933 12.5296 149.044 13.8436 149.046 15.16C149.046 18.1 147.942 21.2233 145.734 24.53C143.525 27.8367 140.138 30.3633 135.572 32.11C132.334 30.2729 129.87 28.0457 128.181 25.4286Z" fill="#FA8200"/>
</svg>
