<svg width="732" height="251" viewBox="0 0 732 251" fill="none" xmlns="http://www.w3.org/2000/svg">
<path d="M731.492 79.4896C731.648 61.7781 719.955 47.3796 699.255 35.9627C678.558 24.5474 648.964 16.1802 613.588 10.5151C542.845 -0.813647 449.137 -1.31363 357.658 6.08731C266.16 13.4898 177.086 23.6368 110.829 39.3944C77.6969 47.2742 50.3065 56.5489 31.1776 67.5641C12.0314 78.5892 1.29746 91.2745 1.16824 105.937C1.10372 113.258 4.23799 120.994 10.1839 128.947C16.1282 136.899 24.8575 145.033 35.9156 153.14C58.0309 169.352 89.3947 185.404 126.217 199.624C199.86 228.063 295.242 249.139 381.916 249.548C468.56 249.956 555.866 222.283 621.577 187.041C654.432 169.421 681.869 149.918 701.118 131.106C710.742 121.699 718.309 112.475 723.484 103.755C728.661 95.0308 731.427 86.8394 731.492 79.4896Z" stroke="#FBBD17"/>
</svg>
