<svg width="527" height="317" viewBox="0 0 527 317" fill="none" xmlns="http://www.w3.org/2000/svg">
<path d="M526.189 216.774C526.335 239.404 517.877 257.668 503.055 272.061C488.22 286.466 466.993 297.008 441.595 304.128C390.798 318.369 323.459 318.881 257.685 309.388C191.88 299.89 127.839 286.922 80.1982 266.888C32.5223 246.84 1.48895 219.812 1.24727 182.299C1.1264 163.537 10.3139 142.858 26.1888 122.35C42.0571 101.851 64.5705 81.5712 91.0076 63.6192C143.889 27.7105 212.388 1.16846 274.64 0.767407C336.836 0.366703 399.61 35.4806 446.919 80.2004C470.567 102.554 490.332 127.291 504.212 151.152C518.097 175.024 526.068 197.977 526.189 216.774Z" stroke="#FBBD17"/>
</svg>
