<svg width="74" height="66" viewBox="0 0 74 66" fill="none" xmlns="http://www.w3.org/2000/svg">
<path d="M46.752 54.3363C46.6573 54.1917 46.5825 54.0471 46.5027 53.9275C46.5027 53.9275 46.5027 53.9075 46.5027 53.8951C46.4778 53.8028 46.4304 53.7081 46.408 53.6134C46.2584 53.065 46.1338 52.5415 45.9842 51.9931C45.8319 51.4598 45.8555 50.8916 46.0515 50.3728C46.302 49.9564 46.5793 49.5567 46.8816 49.1762C46.9433 49.0824 47.0252 49.0036 47.1215 48.9458C47.2177 48.888 47.3257 48.8526 47.4375 48.8422C47.4763 48.8411 47.5141 48.8542 47.5439 48.879C47.5737 48.9037 47.5935 48.9385 47.5995 48.9768C47.7142 49.7246 47.8239 50.4725 48.1779 51.1704C48.4521 51.9432 48.7512 52.716 49.0254 53.4887C49.175 53.4638 49.175 53.4638 49.1999 53.2893C49.2581 52.7661 49.2413 52.2373 49.15 51.7189C49.0503 50.8489 49.0503 49.9565 49.0254 49.0616C49.0242 49.055 49.0242 49.0482 49.0254 49.0416C49.0728 48.6702 49.0503 48.2514 49.1974 47.9049C49.5321 46.9874 50.1414 46.1953 50.9424 45.6365C51.416 45.5368 51.4658 45.5866 51.4658 46.0852C51.4658 46.509 51.4409 46.9078 51.4658 47.3316C51.4658 47.6307 51.5157 47.9548 51.5406 48.2539C51.5905 48.6527 51.6653 49.0516 51.7151 49.4504C51.7899 49.8966 51.8896 50.3428 51.9644 50.7891V50.804C51.9893 51.0533 51.9893 51.3026 52.0142 51.5942C52.1638 51.6191 52.2884 51.4696 52.3882 51.2951C52.438 50.8489 52.4629 50.4027 52.5128 49.9565C52.5116 49.9515 52.5116 49.9464 52.5128 49.9415C52.5377 49.7944 52.5851 49.6474 52.61 49.4754C52.7845 48.5032 52.959 47.531 53.0836 46.5339C53.2017 45.4346 53.6611 44.3998 54.3973 43.575L54.4123 43.56C54.8086 43.2135 55.205 42.8421 55.6013 42.4956C55.7207 42.4048 55.8559 42.3371 56.0002 42.2962C56.1248 42.2712 56.2993 42.2463 56.3492 42.3211C56.399 42.3959 56.399 42.5454 56.3741 42.6701C56.3443 42.839 56.3027 43.0056 56.2495 43.1686V43.2185C56.0999 44.5397 55.9503 45.8608 55.8008 47.2069C55.8257 47.2319 55.8756 47.2319 55.9005 47.2568C55.961 47.2065 56.0281 47.1645 56.0999 47.1322C56.1697 47.0848 56.242 47.015 56.3118 46.9651C56.3197 46.9599 56.3272 46.9541 56.3342 46.9477C56.6533 46.6012 56.9499 46.2572 57.2715 45.9356C57.5011 45.7228 57.7424 45.5231 57.9944 45.3374C58.139 45.2177 58.2586 45.0881 58.4007 45.0008L58.4381 44.9809C58.5827 44.931 58.7447 44.8637 58.8868 44.8164C59.2751 44.6964 59.6695 44.5974 60.0684 44.5197H60.0883C60.4535 44.5022 60.8193 44.5358 61.1752 44.6194C61.4743 44.6942 61.4993 44.8936 61.2998 45.1429C61.1752 45.3174 61.0256 45.4919 60.901 45.6664C60.7763 45.8409 60.6517 45.9905 60.5271 46.14C60.2529 46.489 59.9787 46.8629 59.7045 47.2119C59.4053 47.6108 59.0813 48.0345 58.7821 48.4583C58.7341 48.5436 58.7004 48.6363 58.6824 48.7325C58.6575 48.7574 58.6326 48.7824 58.6326 48.8073C58.3833 49.1563 58.1091 49.5302 57.8598 49.8792C57.5607 50.3279 57.2615 50.8015 56.9624 51.2502C56.8128 51.4721 56.6408 51.6964 56.4913 51.8934C56.2694 52.2349 56.05 52.5564 55.8282 52.8905L55.8107 52.9129C55.6662 53.06 55.544 53.2295 55.3969 53.3766C55.2735 53.5267 55.1578 53.6831 55.0504 53.8452C54.851 54.0945 54.6541 54.3662 54.4547 54.6155C54.2552 54.8647 54.0583 55.134 53.8614 55.3832C53.5149 55.7547 53.1908 56.1311 52.8443 56.5249C52.5452 56.8739 52.2461 57.2229 51.9469 57.547C51.7999 57.694 51.6528 57.8411 51.5057 58.0106L51.4908 58.0281C51.0446 58.3995 50.6233 58.7759 50.1771 59.1673L48.5069 60.5383C48.4072 60.6131 48.0831 60.8125 48.0333 60.8374C47.3877 61.2587 46.767 61.6576 46.1188 62.0838C45.4483 62.4378 43.2746 63.6069 43.2621 63.6144C43.1948 63.6568 41.8861 64.1129 41.4374 64.275C40.7893 64.4744 40.1412 64.6738 39.493 64.8982C39.4432 64.8982 38.6206 65.1474 38.5458 65.1474C38.0722 65.2471 37.5736 65.3718 37.1 65.4715C36.4045 65.5961 33.8818 65.8953 33.3359 65.9202C32.7127 65.9451 32.1144 66.0199 31.4912 65.995C30.4742 65.9327 29.4571 65.8554 28.4401 65.7756L26.922 65.5687L24.9851 65.1973C24.7607 65.1474 19.501 64.2575 16.9583 62.6547C16.3601 62.3306 15.7369 62.0065 15.1386 61.6825C13.8377 61.0019 12.5968 60.2122 11.4294 59.3218C10.5818 58.6488 9.73429 57.9508 8.9366 57.2528C8.40968 56.8007 7.918 56.309 7.46586 55.7821C6.8676 55.109 6.26933 54.436 5.74585 53.7131C5.05036 52.7683 4.40224 51.7712 3.73168 50.8015V50.7891C3.60705 50.5697 3.48241 50.3503 3.36275 50.1534C3.18826 49.8069 3.01626 49.4828 2.84176 49.1363C1.71592 46.8764 0.918498 44.4674 0.473627 41.9821C0.324061 41.0348 0.199422 40.0876 0.124639 39.1403C0.0498555 38.3925 0.0747833 37.6446 0.0498555 36.9217C0.0249278 36.3983 0 35.8748 0 35.3264C0 35.2516 0.0498555 35.1768 0.0498555 35.102C0.099711 34.6782 0.174494 34.2545 0.22435 33.8556C0.274205 33.559 0.299133 33.2873 0.348989 32.9906C0.347822 32.9857 0.347822 32.9806 0.348989 32.9757C0.670556 31.6844 0.969689 30.3932 1.29126 29.077C1.29126 29.077 1.29126 29.077 1.29126 29.062C1.36355 28.8651 1.4134 28.6682 1.48819 28.4712C1.83718 27.6486 2.16124 26.8011 2.53515 25.9785C3.2385 24.463 4.07258 23.0117 5.02793 21.641C5.32706 21.1923 5.70098 20.7686 6.02504 20.3199C5.97518 20.2451 5.95025 20.1454 5.9004 20.1204C5.21381 19.7211 4.71225 19.0673 4.50445 18.3007C4.35689 17.6873 4.34667 17.0489 4.47453 16.4311C4.47453 16.4311 4.47453 16.4137 4.47453 16.4062C4.63068 15.8935 4.92269 15.4327 5.31958 15.0726C5.88836 14.5303 6.53539 14.0765 7.23902 13.7265C7.50073 13.544 7.73566 13.3258 7.937 13.0784C8.65275 12.4157 9.52926 11.9517 10.4796 11.7323L10.7289 11.6575C10.9782 11.6824 10.8785 11.5328 10.8535 11.4082C10.6292 10.4609 10.4298 9.48876 10.2303 8.5415C10.1306 8.06788 10.0559 7.61918 9.98107 7.07077C9.94044 7.1513 9.89022 7.22663 9.83151 7.29512C9.14772 8.41622 8.16317 9.32304 6.98974 9.91253C6.84077 9.9735 6.68636 10.0202 6.52858 10.0521C6.5039 10.0571 6.47848 10.0571 6.45379 10.0521C5.6586 9.89508 5.32207 9.39902 5.519 8.55646C5.54393 8.48168 5.519 8.40689 5.54393 8.33211C5.86799 7.95819 6.19205 7.63413 6.71554 7.53442C6.69061 7.65906 6.69061 7.73384 6.66568 7.83356C6.56859 8.03037 6.54285 8.2548 6.59286 8.46849C6.64288 8.68218 6.76554 8.87187 6.93989 9.00516C7.09299 9.08907 7.26391 9.13522 7.43844 9.13977C7.46166 9.14341 7.4854 9.14172 7.50786 9.13481C7.53032 9.12789 7.55091 9.11595 7.56807 9.09988C7.84965 8.89144 8.11316 8.65962 8.35578 8.40689C8.85434 7.83356 9.05376 7.08572 9.30304 6.38775C9.32796 6.33789 9.35289 6.31296 9.35289 6.26311C9.56003 5.46811 9.63664 4.64474 9.57973 3.82517C9.57698 3.78937 9.58764 3.75383 9.60965 3.72546C9.86098 3.38781 10.2086 3.13407 10.6068 2.99757C10.6678 3.06943 10.7105 3.15494 10.7314 3.24685C10.7563 3.62077 10.7563 3.99468 10.8062 4.34367C11.0843 6.58578 11.5005 8.80857 12.0526 10.9994C12.1523 11.3982 12.2769 11.6475 12.7505 11.6226C13.0663 11.643 13.3798 11.6896 13.6878 11.7622C13.7132 11.7667 13.7393 11.7648 13.7637 11.7566C13.7882 11.7485 13.8102 11.7343 13.8278 11.7155C13.8453 11.6967 13.858 11.6738 13.8644 11.6488C13.8709 11.6239 13.871 11.5977 13.8648 11.5727C13.8449 11.4855 13.8249 11.4057 13.7975 11.3234C13.2844 9.73827 13.0401 8.07845 13.0746 6.41267C13.0995 5.86426 13.1743 5.31585 13.2491 4.74251C13.3899 3.85451 13.862 3.05285 14.5703 2.49902C14.9822 2.17171 15.4152 1.87193 15.8665 1.60162C16.1882 1.44669 16.5216 1.31749 16.8636 1.21524C16.8875 1.21033 16.9121 1.21033 16.9359 1.21524C17.7311 1.31744 18.0452 1.59414 18.12 2.25722C18.129 2.43555 18.1131 2.61426 18.0726 2.78818V2.82058C17.6139 4.06697 15.8067 5.72217 15.0115 5.52275C15.2656 5.28237 15.5409 5.06545 15.8341 4.87463C16.2933 4.63154 16.6479 4.22908 16.8312 3.74291C16.8323 3.73297 16.8323 3.72294 16.8312 3.713C16.9146 3.48548 16.9641 3.24695 16.9783 3.00505C16.9534 2.35693 16.4548 1.95808 15.9064 2.08272C15.3081 2.10765 14.66 2.85548 14.5354 3.5036C14.3791 4.11747 14.2708 4.74254 14.2113 5.37319C14.0617 7.46712 14.5852 9.46134 15.1835 11.4306C15.4328 12.2782 15.4328 12.2782 16.3052 12.4527C16.6246 12.51 16.948 12.5417 17.2724 12.5474C17.3075 12.5496 17.3423 12.5409 17.3721 12.5225C17.5018 12.4327 17.6214 12.343 17.7511 12.2532C18.1075 12.004 18.1649 11.9815 18.3169 12.3031C18.3331 12.3369 18.3609 12.3637 18.3952 12.3788C18.4295 12.3939 18.468 12.3962 18.5039 12.3854C18.5924 12.3695 18.6762 12.3336 18.7487 12.2805C18.8213 12.2274 18.8808 12.1584 18.9227 12.0788C19.0586 11.8649 19.2373 11.6814 19.4475 11.5399C19.6577 11.3983 19.8948 11.3017 20.1441 11.2561C19.7951 11.9541 19.2218 12.353 18.6734 12.7518C18.6484 12.8266 18.5986 12.9014 18.6235 12.9512C18.8433 13.2638 19.1477 13.5072 19.5009 13.6529C19.8541 13.7986 20.2415 13.8405 20.6177 13.7738C21.2353 13.6625 21.7973 13.3464 22.2131 12.8764C22.7865 12.2283 23.1354 11.4805 23.5343 10.7327C23.6589 10.5083 23.4346 10.5332 23.3598 10.4834C22.7366 10.1344 22.0636 9.86018 21.4653 9.46134C20.4258 8.76835 19.7777 7.8535 19.9422 6.54479C19.944 6.52767 19.9482 6.51088 19.9547 6.49494C20.2101 5.93209 20.6621 5.4818 21.226 5.22861C21.6266 5.03622 22.0438 4.88021 22.4724 4.76246H22.5123C23.4007 4.65728 24.2999 4.83154 25.0848 5.26101C25.1097 5.28594 25.1845 5.21116 25.2593 5.18623C25.5287 4.15479 25.9327 3.16329 26.4608 2.23728C26.6608 1.85185 26.8943 1.48482 27.1588 1.14045C27.565 0.613911 28.1212 0.222812 28.7542 0.0187055C28.9361 -0.00623517 29.1206 -0.00623517 29.3026 0.0187055C29.4372 0.0187055 29.5369 0.0536044 29.5518 0.14833C29.5552 0.172606 29.5643 0.195732 29.5784 0.2158C29.5924 0.235869 29.6111 0.252304 29.6328 0.263748C29.6544 0.275193 29.6785 0.28132 29.703 0.281623C29.7275 0.281926 29.7518 0.276396 29.7737 0.26549L29.9507 0.17575C29.9801 0.161269 30.0133 0.1565 30.0456 0.162131C30.0778 0.167762 30.1075 0.183502 30.1302 0.207078C30.153 0.230655 30.1676 0.260849 30.1721 0.293303C30.1766 0.325756 30.1706 0.35879 30.1551 0.387636C29.6008 1.45432 29.1146 2.555 28.6993 3.68308C28.5747 4.03207 28.475 4.38106 28.3753 4.75498C28.3503 4.85469 28.3005 4.9544 28.2755 5.05411C27.8767 6.7492 27.7271 8.41936 28.3753 10.1144C28.5747 10.613 28.7242 11.0368 29.3474 10.9371C29.3724 10.9371 29.3973 10.962 29.4472 10.962C30.1701 10.962 30.868 10.962 31.5909 10.9371C32.5834 10.9181 33.5605 10.6887 34.4576 10.264C35.031 10.0147 35.5544 9.7156 36.1278 9.46632C36.2491 9.42152 36.3742 9.38814 36.5017 9.36661C36.5266 9.41647 36.5516 9.44139 36.5516 9.49125C36.2442 9.75396 35.9194 9.99549 35.5794 10.2142C34.9505 10.5533 34.3011 10.853 33.635 11.1116C33.1531 11.318 32.6522 11.4766 32.1393 11.5852C31.6208 11.7098 31.0999 11.7347 30.5564 11.8345H28.9785C28.8289 11.8843 28.7791 11.9092 28.8788 12.0588C28.8788 12.0837 28.8539 12.0837 28.8539 12.1087C28.8788 12.1834 28.8788 12.2832 28.9287 12.333L29.851 13.3301C29.9291 13.4026 30.0124 13.4693 30.1003 13.5295C30.0348 13.6177 29.9632 13.701 29.8859 13.7788L29.8634 13.7963C29.6665 13.9309 29.4845 14.0829 29.2901 14.22C29.2708 14.2327 29.2491 14.2412 29.2264 14.2451C29.2037 14.249 29.1804 14.2481 29.158 14.2425C29.0329 14.2261 28.9106 14.1935 28.794 14.1453L28.7641 14.1278C28.041 13.5823 27.5159 12.8155 27.2685 11.9441C27.2533 11.8596 27.211 11.7823 27.1481 11.7239C27.0851 11.6654 27.0049 11.629 26.9195 11.6201C26.1467 11.4456 25.374 11.2462 24.5763 11.0467C24.478 11.0261 24.3775 11.0177 24.2771 11.0218C23.978 11.4456 23.7038 11.8943 23.3797 12.2931C22.5857 13.3003 21.5352 14.0752 20.3386 14.5366C20.1192 14.6089 19.8998 14.6588 19.6805 14.7086H19.6505C19.2174 14.7528 18.7805 14.6749 18.3893 14.4837C17.9981 14.2925 17.6682 13.9957 17.437 13.6268C17.4136 13.5719 17.3788 13.5227 17.335 13.4823C17.2911 13.4419 17.2392 13.4113 17.1827 13.3924C17.1262 13.3736 17.0663 13.367 17.007 13.373C16.9477 13.379 16.8903 13.3975 16.8387 13.4273H15.9164C15.9213 13.4882 15.9382 13.5475 15.9662 13.6018C16.2155 14.3746 16.4897 15.1224 16.6891 15.8952C16.7392 16.1866 16.7634 16.4819 16.7614 16.7776C16.7638 16.8032 16.7595 16.829 16.749 16.8524C16.5137 17.3979 16.1102 17.8539 15.5973 18.1536C15.5678 18.1691 15.5342 18.1746 15.5013 18.1694C15.4685 18.1642 15.4382 18.1485 15.4149 18.1247C15.3917 18.1009 15.3768 18.0703 15.3723 18.0373C15.3679 18.0044 15.3743 17.9708 15.3904 17.9418C15.4602 17.8121 15.525 17.6925 15.5923 17.5653C15.6413 17.4208 15.6666 17.2693 15.6671 17.1166C15.6075 16.787 15.5242 16.4621 15.4178 16.1445C15.1436 15.3468 14.8694 14.5242 14.5952 13.7265C14.5703 13.6268 14.5453 13.4772 14.3958 13.6268C13.9969 13.7763 13.5981 13.9508 13.1992 14.1004C12.95 14.1702 13.107 14.3322 13.1444 14.412C13.1454 14.4211 13.1454 14.4303 13.1444 14.4394C13.4385 15.5288 13.5607 16.6405 13.1195 17.7299C13.1195 17.7299 13.1195 17.7299 13.1195 17.7498C12.5212 18.9638 11.5266 19.759 10.2827 20.3074C9.82506 20.555 9.31886 20.6996 8.7995 20.7312H8.77457C8.20622 20.6589 7.6603 20.609 7.09195 20.5342C7.00581 20.5476 6.92194 20.5728 6.84267 20.609C6.19455 21.0827 5.7957 21.7557 5.44671 22.4288C4.99801 23.3262 4.59917 24.2236 4.1754 25.1459C4.15047 25.1708 4.1754 25.2207 4.1754 25.2705C4.1754 25.3204 4.15047 25.3702 4.12554 25.3952C4.07379 25.4816 4.03198 25.5736 4.0009 25.6694C3.7267 26.8659 3.42757 28.0624 3.17829 29.259C3.05857 29.8599 2.97532 30.4676 2.92901 31.0787C2.92075 31.3621 2.93743 31.6457 2.97887 31.9262C3.00779 32.1628 3.02443 32.4008 3.02872 32.6392C3.0275 32.6458 3.0275 32.6525 3.02872 32.6591C3.07608 33.0255 3.15087 33.3945 3.19823 33.7858C3.19965 33.7924 3.19965 33.7992 3.19823 33.8058V34.0825C3.19713 34.0907 3.19713 34.0991 3.19823 34.1074C3.22316 34.2545 3.24559 34.4215 3.27052 34.5686C3.32038 34.8926 3.39516 35.2167 3.44501 35.5158C3.49487 35.815 3.56965 36.0617 3.61951 36.3584C3.74415 36.8295 3.81893 37.3256 3.99343 37.7992C4.4172 38.9708 4.8659 40.1175 5.28967 41.2642C5.33952 41.3639 5.36445 41.4636 5.41431 41.5633C6.11798 43.0628 6.95211 44.4975 7.90708 45.8509C8.24111 46.337 8.61254 46.7857 8.97648 47.2443L9.53736 47.9149C9.70687 48.1068 9.87887 48.2963 10.0509 48.4683C10.2229 48.6403 10.3176 48.7799 10.4597 48.927L10.4921 48.9519C10.8336 49.1712 11.2 49.3906 11.5415 49.6125C12.0127 49.8617 12.4614 50.111 12.9325 50.3079C13.6554 50.632 17.2425 52.2374 18.3643 52.6113C18.5886 52.6861 22.1034 53.7978 24.1949 53.7978C24.5937 53.8228 24.9427 53.723 25.3715 53.723C26.197 53.4896 27.005 53.198 27.7895 52.8506C27.9499 52.7564 28.1164 52.6731 28.288 52.6013C28.809 52.3271 29.3325 52.0554 29.8285 51.7812C30.1028 51.6067 30.377 51.4073 30.6512 51.2328C30.7259 51.1829 30.7758 51.1081 30.8506 51.0583H30.9004C31.6483 50.5871 32.416 50.1135 33.1614 49.6424H33.1763C33.4979 49.4953 33.8444 49.3208 34.1735 49.1737C34.6222 48.9494 35.0958 48.725 35.5445 48.5007C35.9184 48.3013 36.3172 48.1268 36.6912 47.9024C37.1149 47.6781 37.5138 47.4537 37.9375 47.2294C38.1001 47.1648 38.2583 47.0899 38.4112 47.005C38.9347 46.7308 39.4332 46.4566 39.9318 46.1575C40.0108 46.1348 40.0863 46.1013 40.1561 46.0578C41.5346 45.2451 42.938 44.4549 44.1446 43.3805C44.1731 43.3544 44.2105 43.3401 44.2492 43.3406C44.6431 43.3406 44.6955 43.3905 44.8625 43.8891C44.9073 44.0486 44.9323 44.1882 44.9746 44.3452C44.9821 44.3721 44.9821 44.4006 44.9746 44.4275C44.91 44.743 44.8293 45.055 44.7328 45.3623C44.334 46.2323 43.6659 46.8779 42.9206 47.4762H42.9056C42.6838 47.6232 42.4619 47.7479 42.265 47.8949L41.9808 48.1093L41.9534 48.1293C41.734 48.3262 40.8865 49.0217 40.5026 49.3482C40.4158 49.4227 40.3373 49.5063 40.2683 49.5975C39.9517 50.0263 38.9097 51.4098 38.7053 51.7238C38.7048 51.7297 38.7048 51.7355 38.7053 51.7413C38.5582 52.0604 38.3862 52.3794 38.2392 52.6985C38.1145 53.0201 37.9899 53.3192 37.8927 53.6408C37.8647 53.6951 37.8477 53.7544 37.8428 53.8153C37.6185 54.6628 37.9425 55.8594 39.0393 56.1336C39.3335 56.1834 39.6276 56.2083 39.9218 56.2557H39.9517L41.5321 56.1809C41.7814 56.156 42.0307 56.0812 42.28 56.0314H42.2949C42.5168 55.9566 42.7137 55.9092 42.9356 55.8344C43.5089 55.6599 44.1072 55.4854 44.6805 55.3109C45.0295 55.1863 45.4034 55.0617 45.7524 54.962L46.6498 54.6628L46.752 54.3363ZM11.9229 14.8806C11.917 14.8605 11.907 14.8418 11.8937 14.8255C11.8804 14.8093 11.8639 14.7959 11.8454 14.7861C11.8268 14.7764 11.8064 14.7705 11.7855 14.7687C11.7645 14.7669 11.7435 14.7694 11.7235 14.7759C11.2549 14.938 10.8037 15.1125 10.3326 15.2471C10.0085 15.3468 9.80907 15.4465 9.834 15.8204C9.82288 16.0196 9.77202 16.2145 9.68443 16.3937C9.33966 17.4377 8.77911 18.3974 8.0392 19.2106L7.83479 19.4599C7.8185 19.4796 7.80728 19.503 7.80209 19.528C7.79691 19.5531 7.79792 19.579 7.80505 19.6036C7.81217 19.6282 7.82519 19.6506 7.84298 19.669C7.86076 19.6874 7.88277 19.7012 7.90708 19.7091C8.5754 19.932 9.28716 19.9927 9.98356 19.8861C11.1552 19.7116 11.903 19.0635 12.1772 17.8919C12.4514 16.8474 12.2021 15.8728 11.9229 14.8806ZM7.04708 14.5541C7.04319 14.5338 7.03533 14.5144 7.02395 14.4971C7.01257 14.4799 6.99788 14.465 6.98074 14.4534C6.9636 14.4418 6.94434 14.4338 6.92407 14.4296C6.9038 14.4255 6.88291 14.4255 6.86261 14.4294C6.61986 14.4751 6.39344 14.584 6.20614 14.745C6.01884 14.9061 5.87728 15.1136 5.7957 15.3468C5.66991 15.6601 5.57798 15.9861 5.5215 16.319C5.4431 16.9225 5.54869 17.5357 5.82443 18.0783C6.10018 18.6209 6.53325 19.0677 7.06702 19.3601C7.21658 19.4349 7.31629 19.4599 7.44093 19.2854C7.66528 18.9364 7.91456 18.6123 8.11398 18.2633C8.4879 17.5404 8.83689 16.7677 8.7621 15.9201C8.73718 15.6958 8.66239 15.621 8.43804 15.621C7.67027 15.5736 7.21658 15.2446 7.04708 14.5541ZM23.9979 9.56853C24.0252 9.55564 24.0504 9.53884 24.0727 9.51867C24.3469 8.6462 24.5962 7.77373 24.8455 6.87633C24.8539 6.82591 24.8491 6.77416 24.8317 6.72612C24.8142 6.67808 24.7846 6.63536 24.7458 6.60212C24.2909 6.21238 23.7534 5.9311 23.1739 5.77952C22.5943 5.62795 21.9879 5.61004 21.4005 5.72716C21.226 5.75209 21.0764 5.8518 21.1013 6.02629C21.085 6.36177 21.1186 6.6978 21.201 7.0234C21.6248 8.41686 22.8214 8.9902 23.993 9.56354L23.9979 9.56853ZM26.7126 6.65697C26.7318 6.67454 26.7552 6.68688 26.7806 6.69279C26.806 6.69871 26.8325 6.698 26.8575 6.69075C26.8825 6.68349 26.9053 6.66992 26.9235 6.65135C26.9418 6.63277 26.955 6.60982 26.9619 6.58467C27.4305 4.43341 28.3204 2.50151 29.3948 0.602015C29.1206 0.776509 28.8962 0.926076 28.6719 1.05071C28.6302 1.07298 28.5844 1.08665 28.5373 1.09093C28.4902 1.09521 28.4427 1.09001 28.3977 1.07564C28.0736 0.851292 28.0736 0.851292 27.8991 1.15043C27.0267 2.59624 26.5032 4.16668 26.0794 5.78699C26.0694 5.82969 26.0687 5.87403 26.0773 5.91704C26.0859 5.96004 26.1036 6.0007 26.1293 6.03626C26.3237 6.24815 26.5107 6.44259 26.7076 6.65198L26.7126 6.65697ZM11.5839 14.3322C11.6051 14.328 11.6251 14.3193 11.6427 14.3068C11.6603 14.2943 11.6751 14.2783 11.6862 14.2597C11.6972 14.2412 11.7043 14.2205 11.7068 14.1991C11.7094 14.1777 11.7074 14.1559 11.7011 14.1353C11.5266 13.5744 11.387 13.0534 11.2025 12.5549C11.1853 12.5146 11.1579 12.4796 11.1229 12.4534C11.0879 12.4271 11.0466 12.4105 11.0031 12.4053C10.2476 12.3901 9.49829 12.5434 8.80947 12.854C8.59549 12.9416 8.42207 13.1061 8.32338 13.3152C8.31389 13.3368 8.30957 13.3603 8.31075 13.3839C8.31194 13.4075 8.31861 13.4305 8.33022 13.451C8.34183 13.4716 8.35807 13.4892 8.37765 13.5024C8.39723 13.5156 8.41961 13.524 8.44303 13.5271C8.74794 13.5723 9.03439 13.701 9.27065 13.899C9.50691 14.097 9.68377 14.3565 9.78165 14.6488C9.79733 14.6757 9.81896 14.6987 9.84488 14.716C9.87081 14.7333 9.90034 14.7444 9.93122 14.7485C10.4572 14.589 11.0006 14.4519 11.5839 14.3322ZM25.5435 7.77124C25.3191 8.45426 25.0948 9.09989 24.8679 9.78789C24.8553 9.82723 24.8587 9.86997 24.8773 9.90683C24.896 9.94369 24.9284 9.97171 24.9676 9.98482C25.5485 10.1743 26.1318 10.3812 26.7475 10.5881C26.7715 10.5961 26.7972 10.5983 26.8223 10.5943C26.8474 10.5902 26.8711 10.5802 26.8914 10.565C26.9118 10.5498 26.9281 10.5299 26.9391 10.507C26.95 10.4841 26.9553 10.4589 26.9544 10.4335C26.8721 9.38655 26.3835 8.57391 25.8202 7.73384C25.8047 7.70784 25.7819 7.68695 25.7547 7.67375C25.7275 7.66056 25.697 7.65565 25.667 7.65963C25.637 7.66362 25.6088 7.67631 25.586 7.69615C25.5631 7.71599 25.5466 7.7421 25.5385 7.77124H25.5435ZM12.6409 12.8266C12.7331 13.1033 12.8154 13.3551 12.8901 13.6118C12.8969 13.6326 12.908 13.6516 12.9227 13.6678C12.9374 13.6839 12.9553 13.6968 12.9754 13.7055C12.9954 13.7142 13.017 13.7186 13.0389 13.7184C13.0607 13.7181 13.0822 13.7132 13.102 13.704C13.3962 13.5744 13.6828 13.4548 13.9595 13.3376L13.9471 12.9562C13.5931 12.849 13.2267 12.7418 12.8303 12.6371C12.8041 12.6301 12.7764 12.63 12.7502 12.637C12.724 12.6441 12.7 12.6579 12.6808 12.6771C12.6616 12.6963 12.6478 12.7202 12.6408 12.7465C12.6338 12.7727 12.6338 12.8004 12.6409 12.8266Z" fill="white"/>
<path d="M25.9777 53.3508C25.2778 53.5952 24.5275 53.6586 23.7965 53.5353C23.4226 53.4605 23.0487 53.4107 22.6748 53.3608C22.3507 53.3109 18.4121 51.9399 17.9634 51.5909C17.7783 51.4297 17.5553 51.3182 17.3153 51.2669C16.3668 51.1262 15.4265 50.9348 14.4985 50.6935C13.4132 50.3672 12.4217 49.786 11.6068 48.9984C11.5071 48.8738 11.3825 48.7741 11.2828 48.6495C11.208 48.5747 11.1581 48.475 11.0834 48.4002C10.9837 48.2506 10.859 48.126 10.7593 47.9764C10.6596 47.8268 10.5599 47.7521 10.4602 47.6274C10.3172 47.3449 10.1591 47.0703 9.98654 46.8048C9.76219 46.4558 9.48799 46.1068 9.23871 45.7578C8.98943 45.4089 8.83987 45.0848 8.64045 44.7358C8.61552 44.6859 8.51581 44.661 8.46595 44.6361C8.4161 44.6112 8.39117 44.5364 8.36624 44.4865C8.04218 43.7636 7.74305 43.0407 7.41899 42.2929C7.3442 42.0436 7.26942 41.8193 7.16971 41.57C7.02014 41.0714 6.87057 40.5729 6.74594 40.0743C6.67115 39.7752 6.64622 39.501 6.59637 39.2018C6.54651 38.7282 6.49666 38.2795 6.42188 37.8059V35.4128C6.47173 34.9392 6.54651 34.4656 6.59637 34.0169C6.64622 33.6679 6.72101 33.3189 6.77086 32.9948C6.8955 32.5711 7.02014 32.1224 7.11985 31.6986C7.48421 30.4426 8.00337 29.2368 8.66537 28.109C9.25947 27.0431 9.96111 26.0407 10.7593 25.1177C11.0086 24.8435 11.2329 24.5693 11.4822 24.295C12.0057 23.7466 12.5292 23.1982 13.0776 22.6498C13.8969 21.8639 14.9441 21.3577 16.0689 21.204C16.4927 21.1292 16.9414 21.1292 17.3901 21.0544C17.5327 21.0291 17.6636 20.9593 17.764 20.855C18.1878 20.2568 18.786 19.8828 19.3843 19.484C20.0823 19.2098 20.7803 18.9356 21.5032 18.6614C22.5113 18.4508 23.5394 18.3505 24.5693 18.3622L25.0928 18.437C25.2358 18.4435 25.3754 18.4829 25.5008 18.5521C25.6261 18.6212 25.7339 18.7183 25.8157 18.8359C26.063 19.2121 26.3753 19.5413 26.738 19.8081C26.8128 19.8579 26.8377 20.0075 26.8876 20.1072C26.7878 20.0573 26.6632 19.9825 26.5635 19.9327C26.3963 19.7934 26.212 19.6762 26.0151 19.5837C25.742 19.484 25.4532 19.4342 25.1626 19.4366C24.4493 19.3743 23.732 19.3743 23.0188 19.4366C21.897 19.5862 20.9248 20.1346 20.0274 20.7827C19.8529 20.9074 19.6785 21.0569 19.479 21.2314C19.818 21.4035 20.1677 21.5533 20.526 21.6801C21.5431 21.9939 22.4449 22.6009 23.1185 23.4251C23.3927 23.7491 23.7167 24.0233 24.0159 24.3225C24.2615 24.5681 24.4944 24.826 24.7139 25.0952C24.7637 25.17 24.7388 25.2947 24.7637 25.4193L24.4646 25.3445C24.3928 25.3121 24.3257 25.2702 24.2652 25.2199L23.966 25.0703C23.8165 24.9706 23.6669 24.8958 23.4924 24.7961C23.3179 24.6964 23.1683 24.5967 23.0188 24.497C22.7446 24.3474 22.4454 24.1729 22.1712 24.0233C21.9718 23.9735 21.7724 23.9486 21.573 23.8987C21.3784 23.7971 21.1787 23.7055 20.9747 23.6245C20.7503 23.5248 20.526 23.4251 20.3266 23.3254C20.0274 23.1758 19.7283 23.0262 19.4292 22.9016C19.0909 22.7006 18.7003 22.6051 18.3074 22.6274C17.5347 22.6772 16.7619 22.4778 16.039 22.9514C15.5404 23.2755 15.0419 23.5497 14.5433 23.8738C13.8731 24.3398 13.2836 24.9124 12.7984 25.5689C13.7207 25.2697 14.5683 24.9955 15.4158 24.6964C15.5404 24.6465 15.6402 24.6216 15.7648 24.5717C15.8568 24.5706 15.9487 24.579 16.039 24.5967C15.8645 24.6715 15.7399 24.7462 15.6402 24.7961C15.767 24.8166 15.8971 24.7993 16.0141 24.7462C16.3842 24.5699 16.7794 24.4522 17.1857 24.3973H17.2854C17.1358 24.497 17.0112 24.5967 16.8616 24.6964C16.737 24.7462 16.6373 24.7712 16.5126 24.821C16.1636 24.9706 15.7897 25.0952 15.4407 25.2448C14.9173 25.5439 14.3938 25.8431 13.8952 26.1422C13.7955 26.217 13.6958 26.2668 13.5961 26.3416C13.2969 26.5909 12.9729 26.8402 12.6738 27.1144L12.6239 27.1642L12.0256 27.7625L11.901 27.8871L11.7764 28.0118C11.7514 28.0367 11.7265 28.0866 11.7016 28.1115C11.6766 28.1364 11.6517 28.1364 11.6268 28.1613C10.8291 29.2582 10.0813 30.3799 9.73228 31.7011C9.45807 32.6982 9.13401 33.6704 9.05923 34.7173C8.98445 35.7643 8.88474 36.8611 9.18387 37.933C9.75721 39.9522 10.879 41.6473 12.1253 43.2925C12.3302 43.5509 12.5553 43.7926 12.7984 44.0154C12.8482 43.9157 12.8732 43.8658 12.8482 43.8409C12.5289 42.6035 12.4695 41.3134 12.6738 40.0519C12.8231 38.6858 13.1499 37.345 13.6459 36.0634C14.3021 34.5836 15.1304 33.1863 16.1138 31.9005C16.5881 31.3387 17.0959 30.8059 17.6344 30.3051C17.9086 30.2303 17.9086 30.5295 17.9086 30.5793C17.9086 30.7538 17.7341 30.8785 17.7092 31.053C17.6141 31.3003 17.4885 31.5348 17.3352 31.7509C17.1358 32.1498 16.8616 32.4988 16.7619 32.9475C16.6373 33.6454 16.4378 34.3434 16.2883 35.0414C16.2384 35.2907 16.1387 35.5649 16.1138 35.8142C16.1138 36.5371 16.1138 37.2849 16.1636 38.0078C16.2135 39.0548 16.3381 40.1267 16.3381 41.1736C16.3381 41.9215 16.5376 42.6194 16.6622 43.3423C16.8975 44.4019 17.2748 45.4249 17.7839 46.3835C17.8837 46.558 17.9834 46.7325 18.0831 46.9319L18.3074 47.3059C18.3573 47.3806 18.3822 47.4554 18.4321 47.5302C18.5255 47.6517 18.6254 47.7682 18.7312 47.8792C18.8558 48.0288 19.0054 48.1534 19.13 48.303L19.1799 48.3528C19.3793 48.8264 19.8031 49.0757 20.2019 49.3001C20.366 49.4387 20.5411 49.5637 20.7254 49.674C21.1492 49.8734 21.5979 50.0479 22.0466 50.2224C22.2709 50.3221 22.5451 50.347 22.7695 50.4218C22.8941 50.4468 22.9938 50.4468 23.1185 50.4717C23.2488 50.4782 23.3762 50.5122 23.4924 50.5714C23.8663 50.7957 24.1156 50.6711 24.1405 50.2473C24.1405 50.1975 24.1654 50.1725 24.1654 50.1227C24.1654 50.0728 24.2153 50.0479 24.2153 49.9981C24.2153 49.9482 24.2402 49.9233 24.2402 49.8734C24.1904 49.7488 24.1654 49.6241 24.1156 49.5244C24.0657 49.4247 24.0408 49.325 23.991 49.2253C23.966 49.1754 23.9162 49.1007 23.8912 49.0508C23.7417 48.6769 23.5921 48.303 23.4675 47.9291C23.3179 47.3308 23.1683 46.7574 23.0188 46.1592C22.7747 45.2733 22.6408 44.3607 22.6199 43.4421C22.595 42.0212 22.944 40.6501 23.0686 39.2542C23.1683 38.3568 23.4675 37.4843 23.617 36.5869C23.9169 35.0777 24.3593 33.6004 24.9382 32.1747C25.2336 31.4717 25.5751 30.7888 25.9602 30.1306C26.0724 29.9121 26.2151 29.7107 26.384 29.5324C26.5834 29.3329 26.6333 28.9341 27.0571 29.0338C27.1817 29.2332 27.1069 29.3828 26.9823 29.5573C26.8754 29.6924 26.7912 29.8439 26.733 30.006C26.6832 30.1556 26.6832 30.3051 26.6333 30.4547C26.4837 30.8535 26.2843 31.2275 26.1597 31.6263C26.0504 32.1201 25.9671 32.6194 25.9104 33.122C25.8855 33.1967 25.8107 33.2466 25.8107 33.3214C25.686 34.1191 25.5863 34.8918 25.4866 35.6895C25.4866 35.7145 25.4617 35.7394 25.4617 35.7643C25.362 37.26 25.2598 38.7307 25.2124 40.2264C25.2169 41.028 25.2836 41.8281 25.4118 42.6194C25.4617 43.118 25.6113 43.5916 25.711 44.0902C25.7858 44.489 25.8605 44.9128 25.9602 45.3116C26.0537 45.6923 26.1703 46.0669 26.3092 46.4334C26.5336 47.0317 26.733 47.6548 27.0072 48.2282C27.3063 48.8763 27.7301 49.4496 28.0043 50.0978C28.2785 50.7459 28.7771 50.8456 29.3504 50.9453C29.849 51.045 29.9287 51.0176 30.4273 51.1173C28.9854 51.9414 27.5001 52.687 25.9777 53.3508Z" fill="white"/>
<path d="M42.9043 47.6783C43.6521 47.105 44.3775 46.4319 44.7763 45.5345C44.901 45.2354 45.1054 44.4128 45.1303 44.3629C45.5541 43.5652 45.9779 42.7925 46.3767 41.9948C46.413 41.9155 46.4381 41.8316 46.4515 41.7455C46.5263 41.3965 46.6011 41.0725 46.6758 40.7235C46.7755 40.2249 46.9002 39.7513 46.95 39.2527C47.0167 38.9227 47.0081 38.5819 46.9251 38.2556C46.6997 37.4257 46.425 36.6099 46.1025 35.8127C45.7535 34.9652 45.3547 34.1675 44.9558 33.3449C44.8744 33.185 44.8077 33.0182 44.7564 32.8463C44.7294 32.6523 44.6877 32.4606 44.6318 32.273C44.2828 31.6747 43.9338 31.0515 43.5349 30.5031C43.161 30.0045 42.7123 29.5808 42.3135 29.1071L42.2138 29.0074C42.1141 28.8828 42.0143 28.7831 41.9146 28.6584C41.7651 28.5587 41.6155 28.459 41.6903 28.2596L41.7401 28.2097C41.8897 28.2596 42.0642 28.3094 42.2138 28.3593L43.161 29.0822C43.3625 29.2703 43.589 29.4297 43.8341 29.5558C44.3286 29.7516 44.7658 30.0688 45.1054 30.4782C45.3499 30.7911 45.5668 31.1247 45.7535 31.4753C46.4764 32.8962 47.2242 34.317 47.9222 35.7628C48.2712 36.5107 48.5704 37.2834 48.8446 38.0562C49.0689 38.7292 49.2434 39.4272 49.4677 40.1751C49.717 39.6765 49.9912 39.2527 50.1907 38.804C50.5147 38.0562 50.9385 37.3084 51.0631 36.5356C51.2127 35.5634 51.0881 34.5663 51.0631 33.5692C51.0334 33.0811 50.8599 32.6128 50.5646 32.2231C50.0411 31.4503 49.5675 30.6277 49.019 29.8799C48.5949 29.2689 48.1205 28.6944 47.6007 28.1624C47.0553 27.6431 46.4628 27.1757 45.8308 26.7664C45.083 26.2429 44.4099 25.5948 43.4128 25.52C43.3629 25.52 43.2632 25.3705 43.2882 25.3206C43.3131 25.2708 43.3879 25.1212 43.4377 25.1212C43.7367 25.0918 44.0382 25.1001 44.3351 25.1461C44.8003 25.2694 45.2581 25.4192 45.7061 25.5948C46.2393 25.7335 46.7571 25.9256 47.2517 26.1682C48.1241 26.6169 48.9717 27.1653 49.8192 27.6638C49.8225 27.6094 49.8046 27.5558 49.7694 27.5143C49.6447 27.3398 49.4952 27.1653 49.3456 26.9908C49.0465 26.6667 48.7473 26.3426 48.4233 26.0186C48.2986 25.8939 48.1241 25.8192 48.0244 25.6945C47.6505 25.2209 47.127 24.9716 46.6035 24.6974C46.1798 24.4731 45.7062 24.3484 45.3073 24.0992C44.7177 23.7465 44.0663 23.5096 43.3879 23.4012C42.3988 23.2436 41.3939 23.2101 40.3965 23.3015L39.3745 23.3762C39.2748 23.102 39.4244 23.0023 39.6238 22.9525C39.7235 22.9275 39.8731 22.9275 39.9229 22.8528C40.1223 22.5536 40.4215 22.5287 40.6957 22.4788L42.64 22.1299C42.4406 21.9055 42.1913 21.5814 41.9421 21.2823C41.5432 20.7838 40.92 20.709 40.3716 20.4846C39.9728 20.3101 39.4244 20.4597 38.9507 20.4597C38.4966 20.5329 38.0471 20.6328 37.6046 20.7588C36.4102 21.1868 35.3635 21.948 34.5884 22.9525C34.5884 23.0522 34.5136 23.1768 34.5634 23.2267C34.7025 23.3473 34.8027 23.5063 34.8515 23.6837C34.9003 23.8612 34.8955 24.0491 34.8377 24.2238C34.5385 24.7971 34.04 25.1212 33.4915 25.4203C33.2236 25.5062 32.983 25.661 32.7936 25.869C32.6804 26.0327 32.5322 26.1691 32.3597 26.2682C32.1873 26.3674 31.9948 26.4269 31.7965 26.4424C31.4225 26.4922 31.0237 26.5171 30.6498 26.567H29.902C29.7792 26.5382 29.654 26.5215 29.528 26.5171C29.1541 26.3925 28.7553 26.2679 28.3814 26.1682C27.833 25.8192 27.3095 25.4452 26.7611 25.0963C26.5866 24.8719 26.3373 24.6476 26.4121 24.2986C26.4861 24.0716 26.5865 23.8541 26.7112 23.6505L27.0103 23.2765C27.2347 23.0273 27.459 22.7281 27.833 22.7032C27.9077 22.778 28.0074 22.8528 28.0822 22.9275L28.157 23.8249C28.2069 24.149 28.2318 24.4731 28.2817 24.7971C28.2817 24.847 28.3814 24.8968 28.4561 24.9716C28.6507 25.0733 28.8504 25.1648 29.0544 25.2458C29.553 25.4203 30.0266 25.6945 30.575 25.52L31.1733 25.4452L31.6469 25.3705C31.7217 25.3455 31.7965 25.3455 31.8712 25.3206C32.1067 25.2742 32.3396 25.216 32.5692 25.1461C32.644 25.1212 32.7437 25.0464 32.7437 24.9966C32.7437 24.7223 32.6939 24.4481 32.6689 24.1739L32.5942 23.5757V22.7531C32.6191 22.7531 32.644 22.7281 32.6689 22.7281C32.829 22.761 32.9871 22.8026 33.1426 22.8528C33.2963 22.3002 33.4879 21.7588 33.7159 21.2325C34.0054 20.7223 34.339 20.2385 34.713 19.7867C34.4271 19.6804 34.1359 19.5889 33.8405 19.5124C32.925 19.2756 31.9642 19.2756 31.0486 19.5124C30.8161 19.0391 30.5042 18.609 30.1263 18.2411C30.0515 18.1913 30.0266 18.0417 29.9767 17.9669C31.3228 17.7675 32.6939 17.4684 34.04 17.9919C34.6667 18.2289 35.2749 18.5122 35.8597 18.8394C36.1339 19.0139 36.2585 18.9142 36.458 18.8394C37.2307 18.5652 38.0035 18.2661 38.851 18.3658C39.3496 18.4156 39.8481 18.5403 40.3716 18.615C40.4445 18.6356 40.5203 18.644 40.596 18.64C41.2192 18.9391 41.8423 19.2133 42.4655 19.5124C43.0887 20.0609 43.7119 20.5843 44.3351 21.1327C44.7589 21.5067 45.2575 21.8307 45.6064 22.2794C45.9169 22.6189 46.313 22.8685 46.7531 23.0023L48.0244 23.6754C48.4482 23.9247 48.872 24.1739 49.2708 24.4481C49.6245 24.6862 49.958 24.953 50.2679 25.2458C50.8413 25.8441 51.4146 26.4424 51.9381 27.0905C52.2388 27.4506 52.4673 27.8653 52.6111 28.3119C52.8853 29.0099 53.0598 29.7578 53.2842 30.4807C53.3034 30.5253 53.3286 30.5673 53.359 30.6053L53.6581 31.9514C53.708 32.3502 53.7578 32.774 53.8077 33.1729C53.9572 34.3731 53.9572 35.5872 53.8077 36.7874C53.7578 37.2111 53.708 37.6349 53.683 38.0587C53.5833 38.4825 53.4836 38.9062 53.4088 39.3549C53.2593 39.8535 53.1346 40.352 52.9601 40.8506C52.7856 41.3492 52.5613 41.8228 52.3619 42.3213C52.2123 42.6454 52.0378 42.9695 51.8882 43.2935C51.5392 43.8918 51.1653 44.515 50.8163 45.1132C50.7914 45.1631 50.7914 45.213 50.7665 45.2379C50.2679 45.9109 49.7694 46.5591 49.2708 47.2321C48.7473 47.7805 47.6729 48.7851 47.6231 48.835C47.2267 48.6679 46.8753 48.9895 46.7033 49.1964C46.4247 49.5544 46.1747 49.9336 45.9554 50.3306C45.412 51.0136 44.3451 51.4947 43.4627 52.093C42.6752 52.4795 41.8476 52.7779 40.9948 52.9829C40.4962 53.0079 38.4522 53.3893 38.2278 53.5638C38.1281 53.6635 38.1032 53.6136 37.9785 53.7133C38.1032 53.3893 38.5344 52.3622 38.7488 51.9534C39.4579 50.953 40.2421 50.008 41.0945 49.1266" fill="white"/>
<path d="M35.6091 12.4301C35.7288 12.6961 35.8794 12.9471 36.0578 13.1779C36.5937 13.7362 37.2946 14.1077 38.0575 14.2378C38.8203 14.368 39.6048 14.2498 40.2955 13.9008C40.9685 13.5518 41.6166 13.1779 42.2648 12.779C42.5893 12.5425 42.8974 12.2844 43.1871 12.0063L44.8074 10.5356C45.281 10.0869 45.7547 9.61322 46.2283 9.16453C47.1871 8.22805 48.2791 7.43844 49.4689 6.82132C49.843 6.67409 50.2389 6.58985 50.6405 6.57204C50.9396 6.54711 51.1141 6.79639 51.2138 7.04567C51.289 7.24207 51.3147 7.45395 51.2886 7.66263C51.2625 7.8713 51.1855 8.07035 51.0643 8.2422C50.0173 9.76279 48.9454 11.2834 47.8984 12.804C46.9761 14.1251 46.0538 15.4214 45.1813 16.7675C44.9997 17.0622 44.8888 17.3949 44.8573 17.7397C44.8398 17.8396 44.8461 17.9422 44.8759 18.0392C44.9056 18.1361 44.9579 18.2247 45.0283 18.2976C45.0988 18.3705 45.1856 18.4257 45.2815 18.4587C45.3774 18.4917 45.4797 18.5016 45.5802 18.4875C46.0368 18.445 46.4832 18.327 46.9013 18.1385C48.1753 17.5266 49.2923 16.6313 50.1669 15.5211C50.4627 15.1042 50.7212 14.6621 50.9396 14.1999C51.7121 12.7836 52.5869 11.4256 53.557 10.1367C54.0057 9.56337 54.3547 9.48859 54.8782 9.73786C55.1275 9.8625 55.2771 10.0619 55.1524 10.3361C55.0653 10.6149 54.9303 10.8764 54.7536 11.1089C53.582 12.2057 52.7594 13.5767 51.9617 14.9727C51.3385 16.0944 50.6654 17.1913 50.0422 18.313C49.722 18.846 49.5181 19.4406 49.444 20.058C49.419 20.4568 49.4689 20.8806 49.8428 21.0551C50.1305 21.1598 50.4427 21.1771 50.7402 21.1049C51.5227 20.9585 52.2583 20.6249 52.884 20.1327C53.1582 20.5316 53.1582 20.6313 52.7594 20.9055C52.0173 21.4575 51.1167 21.7548 50.1918 21.753C49.7924 21.7359 49.4116 21.5795 49.1156 21.3108C48.8196 21.0421 48.6271 20.6782 48.5715 20.2823C48.397 19.2104 48.397 18.8863 48.9454 17.5901C48.7958 17.6898 48.7211 17.7397 48.6213 17.8145C47.8735 18.4626 47.0509 18.9861 46.0787 19.1606C45.7087 19.2291 45.3264 19.1793 44.9863 19.0182C44.6462 18.8571 44.3655 18.5929 44.1842 18.2632C43.9939 17.8975 43.8946 17.4913 43.8946 17.0791C43.8946 16.6669 43.9939 16.2607 44.1842 15.895C44.5426 15.1884 44.9596 14.513 45.4306 13.8759C46.0787 12.9785 46.7767 12.1309 47.4497 11.2834C48.048 10.5356 48.6463 9.81265 49.2196 9.06481C49.5686 8.61611 49.9176 8.14249 50.2666 7.66886C50.334 7.50845 50.3841 7.34132 50.4161 7.17031C50.1419 7.24509 49.8927 7.22016 49.7431 7.31987C49.111 7.71498 48.5033 8.14784 47.9234 8.61611C46.7767 9.56337 45.6549 10.5356 44.5332 11.5327C44.0097 12.0063 43.5112 12.5298 42.9877 13.0034C42.0404 13.826 41.0184 14.524 39.7969 14.7733C39.1927 14.911 38.5651 14.9108 37.961 14.7727C37.3568 14.6346 36.7915 14.3621 36.307 13.9756C35.7357 13.5058 35.2831 12.908 34.9859 12.2306C34.9609 12.1808 34.9859 12.1309 34.9609 12.0811C35.1379 12.1808 35.4595 12.0811 35.6091 12.4301Z" fill="white"/>
<path d="M65.8455 21.6802C65.7708 21.6303 65.7209 21.6054 65.6461 21.5555C65.5713 21.5057 65.5713 21.5057 65.5215 21.5057V21.4309C65.4716 21.406 65.4467 21.406 65.3968 21.3811C65.2473 21.3811 65.0728 21.406 64.9232 21.406C64.8983 21.2813 64.8983 21.1068 64.8734 20.9822C64.8217 20.7185 64.7466 20.4598 64.649 20.2094C64.3 19.4616 63.7017 19.337 63.0038 19.7857C62.6908 19.9441 62.3657 20.0775 62.0316 20.1845C61.9475 20.0773 61.8357 19.9951 61.7083 19.9467C61.5809 19.8984 61.4427 19.8858 61.3087 19.9103C61.2838 19.8355 61.2339 19.7358 61.209 19.661C61.2339 19.6361 61.2339 19.6112 61.2588 19.6112C61.1539 19.527 61.0798 19.4103 61.0482 19.2795C61.0167 19.1487 61.0294 19.0111 61.0843 18.8883C61.1378 18.6915 61.1794 18.4917 61.209 18.29C61.2339 18.2651 61.2838 18.2402 61.3087 18.2152C61.3113 18.1963 61.3201 18.1788 61.3336 18.1654V17.9909C61.533 17.6917 61.7325 17.3926 61.9568 17.0935C62.0159 17.0155 62.0562 16.9248 62.0743 16.8286C62.0925 16.7325 62.0881 16.6334 62.0616 16.5392C62.035 16.445 61.9869 16.3582 61.9212 16.2857C61.8554 16.2132 61.7738 16.1569 61.6826 16.1213C61.6035 16.0986 61.528 16.0651 61.4582 16.0216C61.4582 15.9967 61.4832 15.9468 61.4832 15.9219C61.9069 15.9468 62.3058 15.9468 62.7296 15.9967C63.4275 16.0964 64.1255 16.2709 64.8235 16.3456C65.087 16.3731 65.3306 16.4985 65.506 16.697C65.6814 16.8955 65.7759 17.1527 65.7708 17.4175C65.7543 17.819 65.7878 18.2209 65.8705 18.6141C65.9203 18.639 65.9452 18.639 65.9951 18.6639C66.0783 18.5335 66.1699 18.4086 66.2693 18.29C66.369 18.1654 66.4687 18.0158 66.5934 17.9659C66.8177 17.9161 66.8177 17.8164 66.7679 17.6419C66.718 17.3677 66.7429 17.3178 67.0421 17.3178C67.2913 17.3178 67.5157 17.243 67.765 17.243C68.0143 17.243 68.5128 17.592 68.5876 17.8662C68.6575 18.1263 68.691 18.3947 68.6873 18.6639C68.7167 18.8177 68.7955 18.9577 68.9116 19.0628C69.1609 19.2373 69.2108 19.4118 69.0114 19.6361C68.8119 19.8605 68.8618 19.9602 69.1111 20.0848L69.6346 20.3839C69.6844 20.5584 69.7343 20.7579 69.7841 20.9573C69.7093 21.1068 69.5847 21.3063 69.485 21.4808C69.4102 21.5805 69.6345 21.8298 69.2856 21.8298H68.787L68.8618 21.9045C68.787 22.0292 68.7621 22.2286 68.6374 22.3034C68.3134 22.5277 68.0392 22.9515 67.5157 22.7271C67.4775 22.7045 67.4345 22.691 67.3902 22.6878C67.3458 22.6845 67.3013 22.6917 67.2602 22.7086C67.2191 22.7255 67.1825 22.7518 67.1533 22.7853C67.1241 22.8188 67.1031 22.8586 67.0919 22.9016C66.988 22.8211 66.8798 22.7462 66.7679 22.6773C66.7429 22.7272 66.6931 22.8019 66.6681 22.8518C66.6183 22.7271 66.5435 22.6025 66.4937 22.4779V22.428C66.5217 22.3737 66.5386 22.3144 66.5435 22.2535C66.5186 22.2286 66.5186 22.2037 66.4937 22.2037C66.4687 22.2037 66.4189 22.1538 66.3939 22.1289C66.2195 21.9793 66.045 21.8048 65.8705 21.6553L65.8455 21.6802ZM64.6739 17.0686C64.6134 17.1189 64.5463 17.1608 64.4745 17.1932L64.1006 17.4175C63.9402 17.5342 63.7738 17.6424 63.602 17.7416C63.4598 17.8061 63.3084 17.8481 63.1533 17.8662C63.0184 17.8534 62.8849 17.8284 62.7545 17.7915C62.6132 17.7194 62.462 17.669 62.3058 17.6419C62.1223 17.6814 61.9599 17.7872 61.8495 17.9389C61.7392 18.0907 61.6886 18.2778 61.7075 18.4645C61.8322 19.0129 62.3058 19.3868 62.7046 19.2123C62.7718 19.1761 62.8486 19.1614 62.9244 19.1703C63.0002 19.1793 63.0715 19.2113 63.1284 19.2622C63.1783 19.312 63.253 19.312 63.3029 19.337L63.3777 19.2622C63.2835 19.2176 63.1919 19.1677 63.1035 19.1126C63.5023 18.988 63.8762 18.8883 64.2502 18.7636C64.3499 18.7387 64.4496 18.6889 64.5244 18.7138C65.1974 18.8135 65.4467 18.2152 65.3968 17.7416C65.3719 17.617 65.3719 17.4923 65.347 17.3926C65.1226 17.2655 64.8983 17.1658 64.6739 17.0661V17.0686ZM67.8148 19.9103C67.8148 19.5115 67.6154 19.2622 67.2913 19.2373C67.1237 19.2553 66.9682 19.3333 66.8537 19.457C66.7391 19.5808 66.6732 19.7418 66.6681 19.9103C66.6765 20.0646 66.7383 20.2111 66.8429 20.3249C66.9475 20.4386 67.0884 20.5123 67.2415 20.5335C67.5905 20.5559 67.8148 20.3067 67.8148 19.9078V19.9103Z" fill="white"/>
<path d="M65.9697 24.7695C65.8202 24.944 65.6457 25.0935 65.4961 25.2929C65.4441 25.3669 65.3774 25.4294 65.3002 25.4766C65.223 25.5238 65.137 25.5546 65.0474 25.5671C64.7791 25.6474 64.52 25.7561 64.2747 25.8912C64.17 25.7996 64.0524 25.724 63.9257 25.6669C63.826 25.617 63.6764 25.5921 63.6016 25.6669C63.2028 26.0158 62.779 25.7167 62.3801 25.7666H62.2804C61.9065 25.6419 61.9065 25.6419 61.6323 25.7167C61.5825 25.5671 61.4329 25.4425 61.6572 25.2929C61.6684 25.1875 61.6419 25.0816 61.5825 24.9938C61.3581 24.8941 61.4329 24.8193 61.5077 24.6448C61.6245 24.4317 61.7165 24.2059 61.7819 23.9718C61.4828 23.7723 61.2335 23.6726 60.9343 23.8721C60.7375 23.9723 60.5101 23.9946 60.2976 23.9345C60.085 23.8744 59.9029 23.7364 59.7877 23.548C59.7148 23.4466 59.6213 23.3616 59.5135 23.2987C59.2891 23.1242 59.1645 22.85 58.7656 22.85C58.9401 22.7005 59.0149 22.6506 59.1146 22.5758C59.1421 22.6021 59.1768 22.6194 59.2143 22.6257L59.2642 22.6755C59.3438 22.6448 59.4281 22.6279 59.5135 22.6257C59.5493 22.6955 59.591 22.7623 59.6381 22.8251C59.724 22.9354 59.8451 23.0128 59.9812 23.0446C60.1173 23.0763 60.2601 23.0605 60.3859 22.9996C60.5006 22.9524 60.5954 22.8671 60.6544 22.7581C60.7135 22.6491 60.7331 22.5231 60.71 22.4013C60.6755 22.2719 60.5967 22.1587 60.4874 22.0813C60.3782 22.0039 60.2452 21.9672 60.1117 21.9775C59.9288 22.031 59.7531 22.1063 59.5882 22.2019L59.4636 22.0773C59.6581 21.7279 59.9658 21.4553 60.3361 21.3045C60.5332 21.2503 60.7424 21.259 60.9343 21.3294C61.0145 21.3637 61.1044 21.3673 61.1871 21.3398C61.2697 21.3122 61.3395 21.2553 61.383 21.1799C61.4827 21.0552 61.6323 20.8558 61.4578 20.6564C61.4279 20.5654 61.412 20.4704 61.4105 20.3747C61.7096 20.3248 62.0312 20.3747 62.3303 20.2825C62.7042 20.1578 63.0033 19.9584 63.3523 19.8088C63.4261 19.7439 63.5149 19.6985 63.6107 19.6767C63.7065 19.655 63.8062 19.6575 63.9007 19.6842C64.4492 19.759 65.0225 20.781 64.8231 21.3793C64.1749 21.3793 63.6265 21.5787 63.452 22.0274C63.3964 22.1361 63.3626 22.2547 63.3523 22.3764C63.3541 22.4051 63.3617 22.4331 63.3745 22.4588C63.3874 22.4845 63.4053 22.5073 63.4271 22.526C63.7263 22.8251 64.0005 22.8251 64.2747 22.526C64.2747 22.501 64.3245 22.501 64.3494 22.4761C64.4212 22.4437 64.4883 22.4018 64.5489 22.3515C64.499 22.501 64.4741 22.6506 64.4242 22.8251C64.5648 22.8217 64.7015 22.8709 64.8076 22.9632C64.9137 23.0554 64.9814 23.184 64.9976 23.3236C65.0175 23.3745 65.0477 23.4206 65.0863 23.4593C65.1249 23.4979 65.1711 23.5281 65.2219 23.548C65.5709 23.5979 65.6208 23.8721 65.7454 24.1213C65.87 24.3706 65.9947 24.595 66.0944 24.8442C66.1247 24.992 66.1414 25.1422 66.1442 25.2929C66.1089 25.1116 66.0503 24.9357 65.9697 24.7695Z" fill="white"/>
<path d="M55.2516 25.8673C55.1519 25.5681 55.2017 25.3687 55.5258 25.3687C56.0504 25.3308 56.5776 25.3559 57.0963 25.4435C57.6945 25.5931 57.869 26.1415 57.9438 26.6899C57.9937 27.1386 57.7194 27.4626 57.3455 27.7119C57.2209 27.7867 57.0963 27.8615 56.8968 27.9861C57.4702 28.0609 57.8939 27.7618 58.3676 27.6122C58.4922 27.8365 58.6168 28.0858 58.7664 28.36C58.2429 28.6592 57.7444 28.9583 57.2209 29.2574C57.2209 29.2824 57.2458 29.3322 57.2458 29.3571C57.3535 29.3696 57.4622 29.3696 57.5699 29.3571C58.0652 29.2117 58.5907 29.2031 59.0905 29.3322C59.614 29.5067 60.1873 30.3792 60.1125 30.9276C60.0377 31.4261 59.6389 31.6754 59.1902 31.4511C58.8562 31.2726 58.5391 31.064 58.2429 30.8279C58.0186 30.6783 57.8441 30.4789 57.6197 30.3293C57.5532 30.2867 57.4737 30.269 57.3954 30.2795C57.1164 30.3861 56.8728 30.5687 56.6922 30.8066C56.5116 31.0445 56.4011 31.3282 56.3734 31.6256C56.3734 32.0244 56.7971 32.523 57.2957 32.7224C57.7419 32.8551 58.2159 32.8637 58.6667 32.7473C58.8594 32.7241 59.0508 32.6908 59.24 32.6476C59.2295 32.7829 59.2044 32.9166 59.1653 33.0464C59.1287 33.108 59.0773 33.1594 59.0157 33.196C58.6367 33.2635 58.2536 33.3051 57.869 33.3207C56.7722 33.3456 56.0742 32.8221 55.7252 31.825C55.6446 31.4976 55.6605 31.1539 55.7711 30.8353C55.8817 30.5168 56.0822 30.2372 56.3484 30.0302C56.4269 29.977 56.4946 29.9093 56.5478 29.8308C56.2487 29.7809 55.8748 29.9305 54.9525 30.3792L54.8777 30.3044C54.753 30.08 54.6284 29.8557 54.4788 29.5815L56.5728 28.4597C56.4481 28.2354 56.2487 28.2354 56.0244 28.3102C55.4484 28.5211 54.821 28.5473 54.2296 28.385C53.6562 28.1855 53.1078 27.4128 53.6562 26.7397C53.8806 26.4655 54.1548 26.316 54.4788 26.4655C54.9301 26.6748 55.3566 26.934 55.7502 27.2383C55.8375 27.3191 55.9508 27.366 56.0696 27.3706C56.1885 27.3751 56.305 27.3371 56.3983 27.2632C56.7219 27.0977 56.9776 26.8244 57.1212 26.4905C57.1537 26.423 57.1676 26.3481 57.1614 26.2735C57.1552 26.1989 57.1291 26.1274 57.0858 26.0663C57.0425 26.0052 56.9837 25.9568 56.9154 25.9262C56.8471 25.8956 56.7718 25.8838 56.6974 25.8922C56.2487 25.8673 55.7751 25.8673 55.2516 25.8673ZM55.7502 27.6371C55.3513 27.4128 55.0273 27.2134 54.7032 27.0638C54.6517 27.0309 54.5939 27.0092 54.5334 27.0002C54.473 26.9912 54.4114 26.995 54.3525 27.0115C54.2937 27.028 54.239 27.0567 54.192 27.0958C54.1451 27.1349 54.1069 27.1834 54.08 27.2383C54.0432 27.3573 54.0537 27.486 54.1095 27.5975C54.1652 27.7089 54.2618 27.7946 54.3791 27.8365C54.8528 28.011 55.2516 27.8864 55.7502 27.6371ZM58.1183 30.0053C58.1183 30.0302 58.0934 30.0551 58.0934 30.105C58.4174 30.3293 58.7415 30.5537 59.0905 30.7531C59.265 30.8528 59.4644 30.9276 59.614 30.7032C59.7635 30.4789 59.6389 30.3044 59.4644 30.1798C59.0157 29.8058 58.5695 29.908 58.1183 30.0053Z" fill="white"/>
<path d="M66.1922 25.2194C66.2017 25.068 66.1849 24.9162 66.1423 24.7707C66.0426 24.5214 65.8931 24.297 65.7933 24.0478C65.6936 23.7985 65.6189 23.5243 65.2699 23.4744C65.2169 23.4584 65.1687 23.4295 65.1296 23.3904C65.0905 23.3512 65.0616 23.303 65.0455 23.2501C65.0294 23.1104 64.9616 22.9819 64.8555 22.8896C64.7495 22.7974 64.6127 22.7481 64.4722 22.7515C64.522 22.577 64.2229 22.6269 64.522 22.253C64.5719 22.1533 64.7464 21.8541 64.7962 21.7544C64.9209 21.555 65.0206 21.1312 65.1452 21.1063C65.2699 21.0814 65.7435 21.6298 65.8432 21.6298C66.0246 21.7425 66.192 21.8764 66.3418 22.0286C66.4913 22.1782 66.7157 22.1533 66.5163 22.4275L66.4664 22.4524V22.5022C66.3907 22.4933 66.3139 22.5018 66.242 22.5272C66.2171 22.7515 66.1673 22.926 66.1423 23.1005C66.1423 23.1753 66.0925 23.2252 66.0925 23.275C66.1673 23.5991 66.267 23.9231 66.3418 24.2472C66.3713 24.2932 66.415 24.3282 66.4664 24.3469C66.4952 24.4612 66.5119 24.5781 66.5163 24.6959C66.5378 24.8234 66.5712 24.9485 66.616 25.0698C67.0397 26.5655 67.3887 28.0611 67.2392 29.6067C67.2142 29.9307 67.1644 30.2797 67.1145 30.6038C66.9899 31.0525 66.8652 31.5261 66.7406 31.9748C66.4874 32.7803 66.1179 33.5445 65.6438 34.2432C65.1727 34.8639 64.6192 35.4174 63.9985 35.8884C63.324 36.3833 62.5862 36.7857 61.8049 37.085C61.1568 37.3343 60.4588 37.6334 59.7858 37.4589C58.7388 37.2096 57.642 36.9603 57.1185 35.8635C56.6199 34.8166 56.8941 33.8693 58.1156 33.4455C58.6337 33.2413 59.2026 33.2036 59.7432 33.3376C60.2838 33.4716 60.7691 33.7707 61.1319 34.1934C61.78 34.8913 61.4559 35.5893 60.6582 35.7638C60.384 35.8386 60.0101 35.6392 59.711 35.4896C59.3078 35.2552 58.9243 34.9884 58.5643 34.6919C58.5001 34.6318 58.4154 34.5984 58.3275 34.5984C58.2395 34.5984 58.1549 34.6318 58.0907 34.6919C57.5921 35.016 57.5173 35.5145 57.8912 35.9882C58.2153 36.4119 58.7139 36.6114 59.1875 36.7858C59.4617 36.5864 59.6113 36.8856 59.8356 36.9603C60.3447 37.0939 60.8817 37.0766 61.3811 36.9105C61.8601 36.7646 62.3269 36.5812 62.7771 36.3621C63.6192 35.9621 64.3674 35.389 64.9731 34.6803C65.5787 33.9716 66.0281 33.1431 66.2919 32.249C66.3418 32.0745 66.3667 31.9 66.4165 31.7504C66.4664 31.7006 66.5412 31.6258 66.5412 31.5759C66.6958 30.9269 66.8123 30.2693 66.8902 29.6067C67.0148 28.1359 66.6658 26.6677 66.1922 25.2194ZM59.0878 34.4426C59.4337 34.8054 59.874 35.0644 60.3591 35.1905C60.6084 35.2403 60.8826 35.0908 60.9075 34.9163C60.9166 34.814 60.8851 34.7122 60.8198 34.6329C60.7545 34.5537 60.6607 34.5032 60.5585 34.4925C60.0805 34.3508 59.5743 34.3336 59.0878 34.4426Z" fill="white"/>
<path d="M54.9505 25.0923C54.9598 25.1536 54.9558 25.2162 54.9389 25.2758C54.9219 25.3355 54.8923 25.3908 54.8522 25.438C54.812 25.4853 54.7622 25.5234 54.706 25.5497C54.6499 25.5761 54.5888 25.5901 54.5268 25.5908C53.8039 25.7155 53.056 25.8651 52.3331 25.6158C52.0495 25.5321 51.7871 25.3888 51.5635 25.1953C51.3399 25.0018 51.1604 24.7627 51.0369 24.494C50.7627 23.8459 50.9621 23.2975 51.3609 22.7989C51.5922 22.4997 51.8915 22.2599 52.234 22.0995C52.5765 21.9391 52.9523 21.8627 53.3302 21.8766C53.8537 21.8766 54.3523 21.9015 54.801 22.2007C55.2995 22.5247 55.2746 22.7491 55.1998 23.123C55.1636 23.3228 55.0595 23.5039 54.905 23.6356C54.7505 23.7674 54.5553 23.8417 54.3523 23.8459C53.8039 23.821 53.2555 23.7213 52.707 23.6465C52.6821 23.6465 52.6821 23.6216 52.6572 23.6216C52.4079 23.6216 52.1586 23.3972 51.9841 23.796C51.8096 24.1949 51.7598 24.519 52.0091 24.8181C52.1612 24.9873 52.3511 25.1183 52.5633 25.2006C52.7755 25.2829 53.004 25.3141 53.2305 25.2917C53.8313 25.2419 54.3772 25.1696 54.9505 25.0923ZM52.8068 22.9984C52.8068 23.0233 52.8317 23.0731 52.8317 23.0981C53.2837 23.3052 53.7891 23.3662 54.2775 23.2726C54.3329 23.2715 54.3874 23.2586 54.4373 23.2346C54.4873 23.2106 54.5315 23.1762 54.5669 23.1336C54.6024 23.0911 54.6283 23.0414 54.6429 22.9879C54.6574 22.9345 54.6604 22.8785 54.6514 22.8239C54.6015 22.5497 54.3523 22.4998 54.1279 22.5497C53.7042 22.6768 53.2555 22.8488 52.8068 22.9984Z" fill="white"/>
<path d="M59.4657 19.5342C59.0419 19.3597 58.6431 19.1602 58.2193 19.0107C57.9336 18.9173 57.6252 18.9204 57.3414 19.0195C57.0577 19.1186 56.8143 19.3082 56.6489 19.5591C56.3747 20.0576 56.275 20.3318 56.8483 20.7307C57.1724 20.8553 57.4964 20.6559 57.0976 20.4066C57.5463 20.5313 57.4466 20.8803 57.1225 20.955C56.9046 20.9698 56.6897 20.8982 56.5242 20.7556C56.1503 20.4066 56.1254 19.8582 56.5242 19.3846C56.718 19.1367 56.9766 18.9473 57.2714 18.8373C57.5662 18.7273 57.8856 18.7011 58.1944 18.7614C58.2692 18.7614 58.3689 18.7863 58.5185 18.7863C58.3489 18.5877 58.1908 18.3796 58.0448 18.1631C57.8194 17.8743 57.6639 17.5372 57.5904 17.1783C57.5169 16.8194 57.5274 16.4483 57.6211 16.0941C57.6692 15.9077 57.7563 15.7335 57.8766 15.5831C57.9969 15.4327 58.1477 15.3095 58.319 15.2217C58.344 15.2466 59.017 14.8976 59.5903 15.1469C59.7898 15.2217 60.4379 15.446 60.2385 16.0692C60.0391 16.6425 59.2663 16.3434 58.9422 16.1938C59.9144 16.4182 60.064 16.2686 60.1138 15.7701C60.1388 15.5706 59.8147 15.3463 59.4159 15.2715C59.168 15.2339 58.9159 15.2339 58.668 15.2715C58.0947 15.3463 57.8205 15.9695 57.7706 16.2188C57.6949 16.7209 57.801 17.2337 58.0698 17.6646C58.344 18.3625 58.8924 18.7863 59.4408 19.235C59.4614 19.3333 59.4698 19.4338 59.4657 19.5342Z" fill="white"/>
<path d="M66.4795 24.8764C66.4507 24.7621 66.434 24.6452 66.4297 24.5274C66.4795 24.4776 66.4795 24.4277 66.5294 24.3779L67.1277 23.9292C67.5132 23.6645 67.9478 23.4797 68.4059 23.3855C68.864 23.2914 69.3362 23.2897 69.7949 23.3807C70.4181 23.5054 71.0413 23.6799 71.6645 23.7796C72.1655 23.894 72.6912 23.8138 73.1353 23.5552C73.275 23.4668 73.3911 23.3457 73.4736 23.2024C73.5561 23.0591 73.6026 22.8979 73.6089 22.7326C73.6089 22.6578 73.6837 22.608 73.7086 22.5332C73.7584 22.608 73.8831 22.7077 73.8831 22.7825C73.8083 23.5303 73.1851 23.9541 72.4871 24.0538C71.5648 24.2034 70.7422 23.8544 69.8697 23.6799C68.5485 23.3807 67.2274 23.7796 66.5294 24.9013C66.5045 24.8764 66.5045 24.8764 66.4795 24.8764Z" fill="white"/>
<path d="M64.9466 21.405C64.8968 21.5795 64.7721 21.7291 64.7223 21.9036C64.6288 22.0709 64.5203 22.2295 64.3982 22.3772C64.3234 22.4022 64.4231 22.3274 64.3483 22.3523C64.5478 22.0282 64.7721 21.779 64.822 21.3552C64.8718 20.6821 64.5727 19.7847 63.8498 19.6102C63.614 19.606 63.3844 19.6855 63.2017 19.8346C62.8277 20.0091 62.6533 20.1337 62.2793 20.2833C62.0357 20.3483 61.7834 20.3752 61.5315 20.3631C61.4567 20.3631 59.4102 19.336 59.4102 19.2363C59.8889 19.6067 60.4414 19.8702 61.0305 20.0091C61.1584 20.0713 61.292 20.1214 61.4293 20.1587C61.6363 20.1837 61.8455 20.1837 62.0525 20.1587C62.3866 20.0516 62.7117 19.9183 63.0247 19.7598C63.7227 19.3111 64.3209 19.4607 64.6699 20.1836C64.7696 20.4329 64.8195 20.7071 64.8943 20.9563" fill="white"/>
<path d="M25.0894 18.413L24.5659 18.3383C24.7404 18.3383 24.9149 18.3133 25.1642 18.3133C24.9713 18.0518 24.6861 17.8736 24.3665 17.8148C23.7164 17.6446 23.0421 17.5857 22.3723 17.6403C22.2975 17.6403 22.2227 17.6652 22.1729 17.6403C22.0233 17.5904 21.799 17.5655 21.799 17.4907C21.7729 17.28 21.7985 17.0661 21.8737 16.8675C22.0233 16.5185 22.2477 16.1945 22.3972 15.8455C22.4969 15.6211 22.5717 15.3968 22.6714 15.1724C22.6964 15.1226 22.7711 15.1226 22.821 15.0977H23.1201C22.9955 15.1974 22.7711 15.1226 22.7711 15.3719C22.7524 15.503 22.7102 15.6296 22.6465 15.7458C22.5468 15.9951 22.4471 16.2194 22.3474 16.4687C22.2975 16.5435 22.2726 16.6182 22.2227 16.693C22.123 16.8675 21.9984 17.042 21.8987 17.2165C21.799 17.391 21.8488 17.5156 22.0732 17.5156C22.7961 17.5655 23.519 17.6403 24.2668 17.6901C24.4662 17.74 24.6657 17.7649 24.8651 17.8148H24.9149C25.0645 17.9893 25.239 18.1638 25.4135 18.3632C25.3036 18.3636 25.1944 18.3804 25.0894 18.413Z" fill="white"/>
<path d="M22.3203 16.4179C22.42 16.1686 22.5197 15.9443 22.6194 15.695C22.6721 15.5744 22.7138 15.4492 22.7441 15.3211C22.769 15.0718 22.9934 15.1466 23.0931 15.0469C23.7412 15.0718 24.4142 15.0967 25.0624 15.0967C25.7769 15.1197 26.4764 15.3074 27.1064 15.6451C27.3557 15.7947 27.6299 15.9443 27.9291 16.1188C27.9112 16.0381 27.8773 15.9618 27.8293 15.8944C27.9291 15.9692 28.0038 16.0191 28.0786 16.0689C28.1036 16.1188 28.1285 16.1437 28.1285 16.1936C28.2033 16.3182 28.303 16.4678 28.3778 16.5924C28.2282 16.4927 28.1036 16.4179 27.954 16.3182C27.8044 16.2185 27.605 16.1188 27.4056 16.0191C27.3806 15.9941 27.3806 15.9941 27.3557 16.0191C27.0815 15.8446 26.8073 15.695 26.5082 15.5205C26.0595 15.2712 25.536 15.2962 25.0374 15.2463L23.2925 15.1715C23.2292 15.1562 23.1632 15.1556 23.0996 15.1699C23.036 15.1842 22.9766 15.213 22.926 15.254C22.8753 15.295 22.8348 15.3471 22.8076 15.4063C22.7804 15.4655 22.7672 15.5302 22.769 15.5953C22.7441 15.6451 22.7441 15.6701 22.7192 15.7199C22.5945 15.9468 22.4699 16.196 22.3203 16.4179Z" fill="white"/>
<path d="M66.1682 25.2167C66.6418 26.6626 66.9908 28.1333 66.8662 29.6788C66.784 30.3408 66.6675 30.9982 66.5172 31.6481C66.5172 31.7229 66.4424 31.7727 66.3925 31.8226C66.7464 30.7984 66.8823 29.7116 66.7914 28.6318C66.687 27.6528 66.4951 26.685 66.218 25.7402C66.1183 25.4411 66.1432 25.0672 65.9688 24.793C66.046 24.9201 66.0934 25.0672 66.1682 25.2167Z" fill="white"/>
<path d="M25.2592 5.25064C25.206 5.2859 25.1469 5.31123 25.0847 5.32542C24.287 4.8518 23.4145 4.77701 22.4922 4.82687C22.9484 4.78948 23.407 4.78948 23.8632 4.82687C24.2567 4.91374 24.6408 5.03898 25.0099 5.20079C25.0952 5.20306 25.1795 5.21992 25.2592 5.25064Z" fill="white"/>
<path d="M28.0542 16.0698C27.9794 16.02 27.9296 15.9701 27.8049 15.8953C27.8335 15.9721 27.8668 16.047 27.9046 16.1197C27.6055 15.9452 27.3562 15.7956 27.082 15.6461C27.1814 15.6336 27.2818 15.6336 27.3812 15.6461C27.6803 15.6984 28.0044 15.6984 28.0542 16.0698Z" fill="white"/>
<path d="M25.0887 15.0958C24.4406 15.0709 23.7676 15.0459 23.1194 15.0459H22.8203C22.9006 15.0174 22.9845 15.0006 23.0696 14.9961H24.8395C24.9167 14.9961 24.989 15.0709 25.0887 15.0958Z" fill="white"/>
<path d="M28.3743 16.5688C28.2995 16.4441 28.1998 16.2946 28.125 16.1699H28.1749C28.474 16.4691 28.7731 16.7682 29.0723 17.0922C28.8728 16.9676 28.6734 16.843 28.474 16.6934C28.4348 16.657 28.4012 16.615 28.3743 16.5688Z" fill="white"/>
<path d="M62.0823 20.1385C61.8505 20.1806 61.6124 20.1721 61.3843 20.1136C61.3594 20.0638 61.3843 19.8893 61.3594 19.8394C61.4957 19.8177 61.6355 19.8341 61.7631 19.8869C61.8907 19.9397 62.0011 20.0268 62.0823 20.1385Z" fill="white"/>
<path d="M7.13805 31.6758C7.01341 32.0996 6.88877 32.5483 6.78906 32.972C6.88877 32.5483 7.01341 32.0996 7.13805 31.6758Z" fill="white"/>
<path d="M66.7656 32.0253C66.8903 31.5766 67.0149 31.103 67.1395 30.6543C67.0423 31.103 66.9152 31.5517 66.7656 32.0253Z" fill="white"/>
<path d="M53.3555 39.2533C53.4552 38.8295 53.5549 38.4057 53.6297 37.957C53.5549 38.3559 53.505 38.7796 53.4303 39.1785C53.4552 39.2283 53.4053 39.2283 53.3555 39.2533Z" fill="white"/>
<path d="M53.6546 31.8754L53.3555 30.5293C53.4184 30.6278 53.4608 30.7381 53.4801 30.8534C53.5549 31.2023 53.6047 31.5264 53.6546 31.8754Z" fill="white"/>
<path d="M28.4766 16.7188C28.676 16.8434 28.8754 16.968 29.0748 17.1176C29.1247 17.1675 29.1995 17.2173 29.2493 17.2672C29.2992 17.317 29.349 17.3918 29.3989 17.4417C29.0748 17.1949 28.7757 16.968 28.4766 16.7188Z" fill="white"/>
<path d="M35.6087 12.4309C35.4841 12.1069 35.1351 12.1817 34.8858 12.082C34.8609 12.057 34.8609 12.0321 34.8359 12.0072C34.8858 12.0072 34.9356 11.9822 34.9606 12.0072C35.2099 12.082 35.4591 12.1567 35.6835 12.2315C35.6457 12.2924 35.6203 12.3602 35.6087 12.4309Z" fill="white"/>
<path d="M51.8594 43.1909C52.0089 42.8669 52.1834 42.5428 52.333 42.2188C52.1834 42.5428 52.0089 42.8694 51.8594 43.1909Z" fill="white"/>
<path d="M11.5042 24.2461C11.2549 24.5203 11.0305 24.7945 10.7812 25.0687C11.0305 24.8194 11.2798 24.5203 11.5042 24.2461Z" fill="white"/>
<path d="M59.4626 22.0527L59.5873 22.1774C59.5585 22.2747 59.5418 22.3751 59.5374 22.4765H59.3629L59.2383 22.3519C59.2632 22.3269 59.2881 22.302 59.3131 22.302L59.4377 22.1774C59.4284 22.1566 59.4258 22.1334 59.4303 22.1111C59.4347 22.0887 59.446 22.0683 59.4626 22.0527Z" fill="white"/>
<path d="M59.213 22.3262L59.3376 22.4508L59.213 22.5754C59.1855 22.5492 59.1508 22.5318 59.1133 22.5256C59.1133 22.4757 59.1382 22.4508 59.1382 22.401L59.213 22.3262Z" fill="white"/>
<path d="M59.3864 22.1523L59.2617 22.277C59.3141 22.2521 59.3365 22.2022 59.3864 22.1523Z" fill="white"/>
<path d="M61.3575 18.2148C61.3326 18.2398 61.2827 18.2647 61.2578 18.2896C61.2862 18.2588 61.32 18.2335 61.3575 18.2148Z" fill="white"/>
<path d="M59.2154 22.3516C59.1905 22.3765 59.1656 22.3765 59.1406 22.4014C59.1656 22.3765 59.1905 22.3516 59.2154 22.3516Z" fill="white"/>
<path d="M61.3084 19.584C61.2831 19.6093 61.2831 19.6346 61.2578 19.6346C61.2806 19.6346 61.2806 19.6093 61.3084 19.584Z" fill="white"/>
<path d="M39.1279 35.4388C39.2803 36.0715 39.3968 36.7124 39.4769 37.3582C39.6015 38.7043 39.6264 40.0504 39.7262 41.3965C39.776 42.1693 39.9007 42.967 39.9754 43.7398C40.0253 44.3629 40.0502 44.9861 40.0751 45.5844C40.0751 45.6841 40.0004 45.8088 40.0004 45.9334C39.9797 46.0401 39.9713 46.1488 39.9754 46.2575C39.4769 46.5317 38.9534 46.8308 38.4548 47.105C38.3053 47.1798 38.1308 47.2546 37.9812 47.3293C38.2129 46.5172 38.3467 45.6804 38.3801 44.8366C38.4299 44.1885 38.4548 43.5653 38.4548 42.9171V40.9728C38.4548 40.7235 38.5047 40.4493 38.5047 40.2C38.5047 39.9507 38.4548 39.7015 38.4548 39.4273C38.4548 39.153 38.4798 38.8788 38.4548 38.6046C38.405 37.9316 38.3551 37.2585 38.2554 36.5855C38.1582 35.9798 38.025 35.3805 37.8566 34.7907C37.5574 33.8434 37.2334 32.8962 36.9093 31.9489C36.8844 31.8741 36.8595 31.7744 36.8345 31.6996C36.685 31.2509 36.5105 30.7773 36.3609 30.3286C36.3329 30.2743 36.316 30.215 36.3111 30.1541C36.2113 29.9547 36.0867 29.7553 35.987 29.5559C35.9371 29.4561 35.8624 29.3564 35.8125 29.2567C35.8374 29.157 35.8873 29.0573 35.9122 28.9327C35.9621 28.9077 35.987 28.9077 36.0369 28.8828L36.685 29.6057C36.7598 29.7304 36.8096 29.8799 36.8844 30.0046C37.0589 30.2788 37.2334 30.528 37.4079 30.8022C37.4827 30.9518 37.5574 31.0765 37.6322 31.226C37.7319 31.4753 37.8316 31.7495 37.9314 31.9988C38.2803 33.0707 38.6543 34.1176 39.0282 35.1895C39.0008 35.2643 39.0755 35.3391 39.1279 35.4388Z" fill="white"/>
<path d="M34.1602 49.2492C34.6089 49.0249 35.0825 48.8005 35.5312 48.5762C35.0825 48.8005 34.6089 49.0249 34.1602 49.2492Z" fill="white"/>
<path d="M38.6494 51.8164C38.4998 52.1405 38.3253 52.4645 38.1758 52.7886C38.3253 52.4396 38.4749 52.1405 38.6494 51.8164Z" fill="white"/>
<path d="M28.2784 23.9227L28.1787 23.823L28.1039 22.9256C27.9792 22.3523 27.8546 21.8537 27.705 21.3303C27.5306 20.9813 27.381 20.6074 27.1816 20.2584C27.1317 20.1836 26.9821 20.1587 26.8575 20.0839C26.8076 19.9842 26.7827 19.8346 26.7079 19.7847C26.3452 19.518 26.0329 19.1888 25.7856 18.8126C25.7038 18.695 25.5961 18.5979 25.4707 18.5287C25.3453 18.4596 25.2057 18.4202 25.0627 18.4137C25.1375 18.3888 25.2372 18.3888 25.3618 18.3639C25.1873 18.1644 25.0128 17.9899 24.8633 17.8154C25.0469 17.799 25.2318 17.8241 25.4044 17.8888C25.577 17.9535 25.7329 18.0562 25.8604 18.1894C26.8219 19.0561 27.5869 20.1185 28.1039 21.3053L28.2784 23.9227ZM28.2285 23.6485H28.3282V22.2277C28.2784 22.6988 28.2535 23.1749 28.2285 23.646V23.6485Z" fill="white"/>
<path d="M17.457 30.4654C17.781 30.1164 18.1051 29.7923 18.4291 29.4434C18.4818 29.564 18.5235 29.6891 18.5538 29.8173C18.479 29.9419 18.3793 30.0915 18.3045 30.2161L17.7062 31.1135L17.108 32.3101C16.9833 32.5593 16.8587 32.8335 16.7341 33.0828C16.5596 33.6562 16.3851 34.2295 16.2106 34.8278C16.1803 34.9559 16.1386 35.081 16.0859 35.2017C16.2604 34.5037 16.4349 33.8057 16.5596 33.1077C16.6343 32.659 16.9335 32.31 17.1329 31.9112C17.2723 31.6868 17.3972 31.4536 17.5068 31.2132C17.5567 31.0138 17.7062 30.8892 17.7062 30.7396C17.7062 30.6548 17.7062 30.3906 17.457 30.4654Z" fill="white"/>
<path d="M31.6455 25.3198L31.1719 25.3945C30.9725 25.1702 30.773 24.9708 30.5736 24.7464C30.5487 24.4224 30.4988 24.1232 30.449 23.7992C30.3742 23.3006 30.2994 22.827 30.2246 22.3284C30.3083 22.3286 30.3918 22.3369 30.4739 22.3534C30.2994 21.8548 30.1498 21.431 29.9753 20.9823C29.9255 20.8328 29.8258 20.7331 29.6264 20.8328C29.4083 20.3546 29.1498 19.8959 28.8536 19.4617C28.4298 18.9133 27.9313 18.4646 27.4826 17.9661C27.5581 17.9656 27.6334 17.9739 27.7069 17.991C27.5823 17.8414 27.5075 17.7168 27.4078 17.5922C27.2582 17.4177 27.0588 17.2432 26.9342 17.0687C26.8594 16.969 26.8843 16.8443 26.8594 16.7197C26.9536 16.6791 27.0562 16.662 27.1585 16.6698C27.2836 16.6806 27.4039 16.7235 27.5075 16.7945C27.7997 17.0412 28.0745 17.3077 28.3301 17.5922C28.7539 18.0907 29.1527 18.5893 29.6014 19.0878C29.8507 19.387 30.1748 19.6362 30.424 19.9354C31.3464 21.0571 31.6704 22.3783 31.6704 23.7992C31.6679 24.3226 31.6455 24.8212 31.6455 25.3198Z" fill="white"/>
<path d="M31.6434 25.3172V23.8216C31.6185 22.4007 31.3194 21.0795 30.397 19.9578C30.1478 19.6586 29.8486 19.3844 29.5744 19.1102C29.1507 18.6117 28.7518 18.0882 28.3031 17.6146C28.0477 17.3299 27.7729 17.0634 27.4805 16.8169C27.3804 16.7393 27.2581 16.6956 27.1315 16.6922C27.0292 16.6844 26.9266 16.7015 26.8324 16.7421C26.84 16.8615 26.8652 16.9791 26.9072 17.0911C27.0567 17.2905 27.2312 17.4401 27.3808 17.6146C27.4905 17.7397 27.5904 17.8731 27.6799 18.0134C27.6047 18.0095 27.5298 18.0011 27.4556 17.9885L27.3309 17.8638C26.6408 17.3382 25.8763 16.9182 25.0625 16.6174C25.1703 16.5743 25.2711 16.5155 25.3616 16.443L25.7356 15.9943C25.7868 15.9067 25.8682 15.8407 25.9645 15.8086C26.0608 15.7765 26.1654 15.7805 26.259 15.8198C26.5083 15.8945 26.8074 15.9195 27.0567 15.9693C27.1564 15.9943 27.2561 15.9943 27.3808 16.0192H27.4306L27.8544 16.443C28.5773 17.116 29.2753 17.7891 29.9733 18.487C30.2906 18.813 30.5823 19.163 30.8457 19.534C31.4384 20.3081 31.8784 21.1879 32.142 22.1265C32.1918 22.3758 32.2666 22.625 32.2915 22.8743C32.3497 23.3541 32.358 23.8386 32.3165 24.3201C32.2666 24.6442 32.0423 24.9682 31.9176 25.2923C31.8255 25.2882 31.7333 25.2966 31.6434 25.3172Z" fill="white"/>
<path d="M31.0438 19.4588C31.3928 20.0072 31.7418 20.5805 32.0658 21.129C32.0908 21.3034 32.0409 21.5527 32.1406 21.6524C32.4148 21.9017 32.2403 22.1759 32.2902 22.4501C32.2222 22.339 32.1638 22.2222 32.1157 22.1011C31.8521 21.1625 31.4122 20.2827 30.8195 19.5086C30.556 19.1377 30.2643 18.7877 29.947 18.4617C29.249 17.7637 28.5261 17.0907 27.8281 16.4176L27.9528 16.293C28.1023 16.3927 28.227 16.4675 28.3765 16.5672C28.4264 16.617 28.4513 16.6669 28.5012 16.7167C28.8003 16.966 29.0994 17.1904 29.3986 17.4396C29.598 17.5892 29.7974 17.7637 29.9719 17.9133C30.0218 18.013 30.0467 18.1376 30.1215 18.1875C30.4917 18.562 30.8027 18.9907 31.0438 19.4588Z" fill="white"/>
<path d="M34.8847 24.2716C34.8847 24.2965 34.8847 24.3214 34.9096 24.3214C34.7102 24.5956 34.4858 24.8699 34.2864 25.1441L33.8128 25.6177C33.2644 25.8919 32.7409 26.2409 32.1426 26.4154C31.6939 26.5649 31.1704 26.4902 30.6719 26.5151C31.0458 26.4652 31.4446 26.4403 31.8186 26.3904C32.0169 26.375 32.2093 26.3155 32.3818 26.2163C32.5543 26.1171 32.7025 25.9808 32.8157 25.8171C32.9902 25.5678 33.2893 25.493 33.5136 25.3684C34.062 25.0693 34.5606 24.7452 34.8597 24.1719C34.8771 24.2022 34.8857 24.2367 34.8847 24.2716Z" fill="white"/>
<path d="M32.1414 22.1011C32.1912 22.2008 32.266 22.3254 32.3159 22.4501C32.266 22.2008 32.4405 21.9266 32.1663 21.6524C32.0666 21.5527 32.1165 21.3034 32.0915 21.1289C32.1414 21.2037 32.2162 21.3034 32.266 21.3782C32.3907 21.8269 32.5153 22.2507 32.6399 22.6994V22.7991C32.5652 22.6994 32.5153 22.5996 32.4405 22.4999H32.3657L32.5153 23.6965C32.5402 24.0455 32.5652 24.4194 32.5652 24.7684C32.5652 24.8182 32.5901 24.8681 32.5901 24.9179H32.6649V24.1202C32.6898 24.3944 32.7397 24.6686 32.7397 24.9429C32.7272 24.9815 32.7044 25.0159 32.6736 25.0423C32.6428 25.0687 32.6052 25.0861 32.5652 25.0924C32.3364 25.1652 32.1033 25.2235 31.8672 25.2669C32.0168 24.9429 32.2411 24.6437 32.266 24.2947C32.2949 23.8129 32.2866 23.3295 32.2411 22.8489C32.2386 22.5996 32.1638 22.3504 32.1414 22.1011Z" fill="white"/>
<path d="M30.5938 25.4421V24.7441C30.7932 24.9685 30.9926 25.1679 31.192 25.3923C30.9677 25.4197 30.7932 25.4197 30.5938 25.4421Z" fill="white"/>
<path d="M32.4933 23.7239L32.3438 22.5273H32.4185C32.4933 22.6271 32.5432 22.7268 32.618 22.8265V23.5494C32.5628 23.5965 32.5201 23.6564 32.4933 23.7239Z" fill="white"/>
<path d="M32.4922 23.7214C32.542 23.6715 32.567 23.5967 32.6168 23.5469L32.6916 24.1451V24.9428H32.6168C32.6168 24.893 32.5919 24.8431 32.5919 24.7933C32.542 24.4218 32.5171 24.0704 32.4922 23.7214Z" fill="white"/>
<path d="M26.807 25.0435C26.6587 24.9855 26.5328 24.8817 26.4477 24.7472C26.3625 24.6126 26.3224 24.4545 26.3334 24.2956C26.3146 24.1485 26.3464 23.9994 26.4233 23.8726C26.5003 23.7458 26.618 23.6489 26.7571 23.5977C26.6574 23.822 26.5328 24.0214 26.458 24.2458C26.3832 24.5698 26.6325 24.7942 26.807 25.0435Z" fill="white"/>
<path d="M28.3043 23.8976C28.3542 24.122 28.3791 24.3712 28.429 24.5956C28.4577 24.6929 28.4744 24.7934 28.4788 24.8947C28.429 24.8449 28.3293 24.795 28.3043 24.7202C28.2545 24.3962 28.2295 24.0721 28.1797 23.748C28.2295 23.8228 28.2794 23.8478 28.3043 23.8976Z" fill="white"/>
<path d="M64.7719 16.8438C64.9763 16.9584 65.2081 17.0756 65.4399 17.2227C65.4648 17.3398 65.4648 17.4719 65.4923 17.6315C65.5421 18.1874 65.3103 18.8779 64.5899 18.7707C64.4923 18.7593 64.3936 18.7794 64.3082 18.828C63.9218 18.9452 63.5354 19.0922 63.1241 19.2368C63.2144 19.3014 63.3085 19.3605 63.4058 19.4138L63.3285 19.501C63.2787 19.4711 63.2014 19.4412 63.1491 19.4138C63.0945 19.3548 63.0212 19.3166 62.9417 19.3057C62.8621 19.2948 62.7812 19.3118 62.7128 19.354C62.299 19.5584 61.8379 19.1197 61.6833 18.479C61.606 18.0976 61.9326 17.5442 62.299 17.5143C62.462 17.547 62.6186 17.6059 62.7627 17.6888C62.8929 17.747 63.0338 17.7775 63.1765 17.7785C63.3409 17.7737 63.5008 17.7228 63.6376 17.6315C63.8165 17.5148 63.9888 17.3883 64.1536 17.2526L64.5525 16.9883C64.6342 16.9547 64.7087 16.9056 64.7719 16.8438Z" fill="white"/>
<path d="M67.8132 19.8525C67.8132 20.4707 67.5415 20.8496 67.1202 20.8496C66.7886 20.8496 66.4297 20.351 66.4297 19.8824C66.4297 19.3016 66.7886 18.8005 67.1775 18.8379C67.5714 18.808 67.8132 19.2318 67.8132 19.8525Z" fill="white"/>
<path d="M66.5662 22.2772C66.5409 22.2519 66.5409 22.2266 66.5156 22.2266L66.5662 22.2772Z" fill="white"/>
<path d="M64.844 21.328C64.8689 21.7269 64.6695 22.0011 64.3953 22.3999C64.3953 22.4249 64.3205 22.4498 64.3205 22.4747H63.473C63.4351 22.4425 63.4088 22.3987 63.3982 22.3501C63.3791 22.2151 63.3963 22.0774 63.448 21.9512C63.6475 21.5275 64.1959 21.3031 64.844 21.328Z" fill="white"/>
<path d="M59.5157 22.5982C59.5482 22.4735 59.5674 22.3456 59.573 22.2168C59.7589 22.0953 59.9601 21.9989 60.1713 21.9302C60.252 21.9183 60.3344 21.9231 60.4132 21.9442C60.492 21.9654 60.5657 22.0024 60.6297 22.0531C60.6936 22.1038 60.7466 22.167 60.7852 22.2389C60.8238 22.3108 60.8474 22.3898 60.8543 22.4711C60.8837 22.6211 60.8637 22.7765 60.7971 22.9141C60.7306 23.0516 60.6212 23.1639 60.4854 23.2339C60.3411 23.3113 60.1729 23.3314 60.0145 23.2903C59.856 23.2492 59.7188 23.1498 59.6304 23.012C59.576 22.9331 59.5285 22.8498 59.4883 22.7628C59.5143 22.7121 59.5239 22.6546 59.5157 22.5982Z" fill="white"/>
<path d="M63.4531 22.4512H64.3032C64.0539 22.7752 63.7772 22.7752 63.4531 22.4512Z" fill="white"/>
<path d="M59.5101 22.4512V22.5758C59.4304 22.6065 59.3461 22.6234 59.2608 22.6257L59.2109 22.5758L59.3356 22.4512H59.5101Z" fill="white"/>
<path d="M59.2109 22.5762L59.2615 22.6268L59.2109 22.5762Z" fill="white"/>
<path d="M64.7494 21.5549C64.5749 21.8541 64.5001 22.2529 64.176 22.5022C64.0845 22.5726 63.97 22.6064 63.8549 22.5972C63.7397 22.588 63.6321 22.5364 63.5529 22.4523C63.3784 22.228 63.5778 21.879 63.7024 21.7544C63.8322 21.6345 63.9861 21.5437 64.1537 21.4878C64.3213 21.4319 64.4988 21.4123 64.6746 21.4303C64.7494 21.4303 64.7743 21.4303 64.7992 21.4552L64.7494 21.5549Z" fill="white"/>
<path d="M24.242 17.6651C23.5191 17.6152 22.7962 17.5404 22.0483 17.4906C21.824 17.4657 21.7991 17.3659 21.8738 17.1915C21.9486 17.017 22.0982 16.8425 22.1979 16.668L22.1231 16.8923C22.0982 16.9671 22.0483 17.0668 22.0234 17.1416C21.9985 17.2164 21.9486 17.2912 21.8489 17.4407H23.6936C23.893 17.5155 24.0675 17.5903 24.242 17.6651Z" fill="white"/>
<path d="M24.2359 17.6658C24.0614 17.591 23.8869 17.5162 23.6875 17.4414H23.9143L24.2135 17.5162C24.4129 17.6159 24.6123 17.7156 24.8367 17.8153L24.2359 17.6658Z" fill="white"/>
<path d="M22.1484 16.8923L22.2232 16.668C22.2731 16.5932 22.298 16.5184 22.3479 16.4436C22.4725 16.1943 22.6221 15.9451 22.7467 15.7207V16.0198C22.6719 16.1445 22.5722 16.2691 22.4974 16.3938C22.3671 16.5497 22.2503 16.7165 22.1484 16.8923Z" fill="white"/>
<path d="M23.617 15.2227C24.0408 15.2476 24.4895 15.2227 24.9382 15.2227C24.9201 15.3297 24.9117 15.4382 24.9133 15.5467L24.6889 15.3972C24.4147 15.3722 24.1156 15.3473 23.8414 15.3473C23.7023 15.3658 23.5674 15.408 23.4425 15.4719C23.3927 15.5218 23.3428 15.5467 23.3179 15.5966C23.2641 15.6439 23.2056 15.6857 23.1434 15.7212C23.0219 15.8147 22.9054 15.9145 22.7944 16.0203V15.7212C22.7446 15.6464 22.7695 15.6215 22.7944 15.5716" fill="white"/>
<path d="M24.9609 15.7696C24.9859 15.5951 25.0357 15.4206 25.0606 15.2461C25.5592 15.2959 26.0578 15.271 26.5314 15.5203L26.5065 15.5452C26.4201 15.5582 26.3319 15.5406 26.2572 15.4954C25.9331 15.2212 25.5592 15.4704 25.2351 15.3458C25.1853 15.3458 25.1105 15.4455 25.0606 15.4954C25.0058 15.5774 24.9716 15.6715 24.9609 15.7696Z" fill="white"/>
<path d="M27.3544 15.9927C27.2547 15.9678 27.155 15.9678 27.0304 15.9428C26.9556 15.893 26.9057 15.8431 26.8309 15.7933C26.7063 15.6936 26.5817 15.6188 26.457 15.5191L26.482 15.4941C26.806 15.6686 27.0802 15.8431 27.3544 15.9927Z" fill="white"/>
<path d="M27.9547 16.2935L27.83 16.4182L27.4062 15.9944C27.5807 16.0941 27.7552 16.1963 27.9547 16.2935Z" fill="white"/>
<path d="M18.4996 29.8446C18.447 29.7239 18.4052 29.5988 18.375 29.4706C18.5246 29.3211 18.6991 29.1964 18.8486 29.0469C18.8736 29.1217 18.9234 29.1964 18.8985 29.2463C18.8736 29.346 18.8237 29.4457 18.7988 29.5454L18.4996 29.8446Z" fill="white"/>
<path d="M18.7578 29.5855C18.7827 29.4858 18.8326 29.386 18.8575 29.2863C18.8528 29.2174 18.8359 29.1499 18.8077 29.0869C18.9323 28.9373 19.0569 28.8127 19.1816 28.6631C19.2359 28.6351 19.2952 28.6182 19.3561 28.6133C19.2314 28.8376 19.1068 29.0869 18.9822 29.3113C18.9572 29.3611 18.9074 29.386 18.8825 29.4359C18.8575 29.4858 18.8077 29.5605 18.7578 29.5855Z" fill="white"/>
<path d="M22.993 17.0927C23.5165 16.8933 24.04 16.6939 24.5634 16.4695C24.6632 16.4197 24.713 16.295 24.7878 16.1953C24.7629 16.295 24.7379 16.3698 24.713 16.4695L25.0869 16.6191C25.8961 16.9297 26.6592 17.349 27.3554 17.8655C27.4052 17.8904 27.4301 17.9403 27.48 17.9901C27.9632 18.464 28.4209 18.9633 28.851 19.4858C29.142 19.9232 29.4003 20.3814 29.6238 20.8568C29.6736 20.9316 29.7733 21.0064 29.7983 21.0812C29.9229 21.4551 30.0476 21.829 30.1722 22.2278C30.14 22.3412 30.1315 22.46 30.1473 22.5768C30.222 23.1502 30.2719 23.6986 30.3716 24.2719C30.4215 24.596 30.5212 24.92 30.596 25.2192V25.3937C30.3218 25.2441 30.0476 25.0945 29.7733 24.92C29.7235 24.8951 29.6736 24.8951 29.6238 24.8702C29.0255 24.6209 29.0006 24.6209 29.0255 23.9728C29.0504 23.2 29.1252 22.4273 29.1252 21.6545C29.1197 21.0236 28.929 20.4081 28.5768 19.8846C27.9134 18.8389 27.0177 17.9602 25.9594 17.3171C25.6253 17.1338 25.2631 17.0075 24.8875 16.9431C24.5634 16.8684 24.4139 17.0179 24.389 17.3669C24.389 17.4168 24.2892 17.4417 24.2394 17.4916L23.9403 17.4168C23.8904 17.3918 23.8655 17.3669 23.8156 17.3669L22.1953 17.2173C22.4695 17.1675 22.7188 17.1176 22.993 17.0927Z" fill="white"/>
<path d="M30.5712 25.2179C30.4964 24.8938 30.3967 24.5947 30.3469 24.2706C30.2472 23.7222 30.1973 23.1489 30.1225 22.5755C30.1175 22.4586 30.1258 22.3416 30.1474 22.2266C30.1724 22.2764 30.1973 22.3013 30.2222 22.3512C30.297 22.8498 30.3718 23.3234 30.4466 23.8219C30.4964 24.146 30.5214 24.4451 30.5712 24.7692V25.2179Z" fill="white"/>
<path d="M30.2248 22.3249C30.1998 22.275 30.1749 22.2501 30.15 22.2002C30.0253 21.8263 29.9256 21.4275 29.7761 21.0535C29.7511 20.9788 29.6514 20.904 29.6016 20.8292C29.7761 20.7295 29.8758 20.8292 29.9506 20.9788C30.125 21.4025 30.2746 21.8512 30.4491 22.3498C30.3734 22.3587 30.2967 22.3502 30.2248 22.3249Z" fill="white"/>
<path d="M25.0614 16.594L24.6875 16.4445C24.7124 16.3448 24.7374 16.2451 24.7623 16.1703C24.8121 16.0207 24.8869 15.8961 24.9368 15.7465C24.9501 15.6604 24.9753 15.5765 25.0116 15.4972C25.0614 15.4224 25.1362 15.3227 25.1861 15.3477C25.535 15.4474 25.909 15.223 26.2081 15.4972C26.2579 15.5471 26.3826 15.5221 26.4574 15.5471C26.582 15.6468 26.7066 15.7216 26.8313 15.8213C26.9061 15.8711 26.9559 15.921 27.0307 15.9708C26.7605 15.9475 26.4933 15.8974 26.233 15.8213C26.139 15.7861 26.0357 15.7842 25.9404 15.8159C25.8451 15.8477 25.7636 15.9112 25.7095 15.9958C25.5987 16.1563 25.4735 16.3065 25.3356 16.4445C25.2858 16.5193 25.1636 16.5442 25.0614 16.594Z" fill="white"/>
<path d="M22.9928 17.0918C22.7436 17.1417 22.4694 17.1915 22.1952 17.2414C22.7685 17.2912 23.292 17.3411 23.8155 17.3909C23.8653 17.3909 23.8902 17.4159 23.9401 17.4408H21.8711C21.9708 17.2912 21.9957 17.2164 22.0456 17.1417C22.3447 17.1167 22.6713 17.0918 22.9928 17.0918Z" fill="white"/>
<path d="M23.3896 15.4723C23.5145 15.4083 23.6494 15.3662 23.7884 15.3477C24.0626 15.3477 24.3618 15.3726 24.636 15.3975C24.5861 15.4972 24.5612 15.6219 24.5113 15.7216C24.4366 15.8961 24.3368 16.0456 24.0876 15.9958C23.9582 15.9906 23.8298 16.0202 23.7158 16.0816C23.6017 16.143 23.5063 16.2339 23.4394 16.3448C23.1805 16.5818 22.8432 16.7149 22.4922 16.7187C22.6916 16.5442 22.8162 16.4195 22.9409 16.2949C22.9907 16.2451 23.0157 16.1952 23.0655 16.1453V16.0706C23.1902 15.8462 23.3896 15.8213 23.6389 15.7964C23.8497 15.7498 24.0577 15.6915 24.2621 15.6219C24.3416 15.5345 24.4165 15.4429 24.4864 15.3477C24.1125 15.3975 23.7635 15.4499 23.3896 15.4723Z" fill="white"/>
<path d="M23.4688 16.3698C23.5338 16.2572 23.6288 16.1649 23.7433 16.1033C23.8577 16.0416 23.9871 16.0131 24.1169 16.0208C24.1051 16.0908 24.0775 16.1572 24.0361 16.2149C23.9947 16.2726 23.9407 16.3202 23.8782 16.3538C23.8157 16.3875 23.7463 16.4064 23.6753 16.4092C23.6044 16.4119 23.5337 16.3985 23.4688 16.3698Z" fill="white"/>
<path d="M23.1168 16.1699C23.067 16.2198 23.042 16.2696 22.9922 16.3195C23.0261 16.2638 23.0681 16.2133 23.1168 16.1699Z" fill="white"/>
<path d="M24.2892 15.6468C24.2354 15.5994 24.1769 15.5577 24.1147 15.5222C24.1147 15.4972 24.1396 15.4474 24.1396 15.4224L23.2422 15.572C23.292 15.5222 23.3419 15.4972 23.3668 15.4474C23.7158 15.4224 24.0648 15.3975 24.4886 15.3477C24.4402 15.4583 24.3727 15.5595 24.2892 15.6468Z" fill="white"/>
<path d="M61.4308 20.3747C61.3876 20.3812 61.3435 20.3724 61.3062 20.3498C61.1199 20.303 60.9368 20.2447 60.7577 20.1753C60.309 19.951 59.8603 19.7266 59.3867 19.5023V19.2031C59.8654 19.5735 60.4179 19.837 61.007 19.9759C61.135 20.0381 61.2685 20.0882 61.4059 20.1255" fill="white"/>
<path d="M64.4861 21.6816C64.4362 21.8561 64.3116 22.0057 64.2617 22.1802L64.4861 21.6816Z" fill="white"/>
<path d="M64.9209 21.3555C64.9209 21.3555 66.1424 21.6297 66.5163 22.2529C66.6908 22.5796 66.78 22.9451 66.7756 23.3155C66.7713 23.6859 66.6735 24.0492 66.4914 24.3717H66.4665C66.7255 23.8164 66.7612 23.1828 66.5662 22.6019C66.2172 21.7294 64.8711 21.4303 64.8711 21.4303" fill="white"/>
<path d="M66.5567 22.2971C66.7344 22.6237 66.8264 22.9901 66.8242 23.3619C66.8221 23.7337 66.7257 24.0989 66.5442 24.4235H66.5193C66.7784 23.8681 66.8141 23.2345 66.619 22.6536" fill="white"/>
</svg>
