<svg width="28" height="20" viewBox="0 0 28 20" fill="none" xmlns="http://www.w3.org/2000/svg">
<path d="M24.2819 3.47221L14.2461 10.8583L4.21025 3.47221M3.02618 1.02726C2.68668 1.02726 2.36108 1.16212 2.12102 1.40219C1.88096 1.64225 1.74609 1.96784 1.74609 2.30734V16.7787C1.74609 17.1182 1.88096 17.4438 2.12102 17.6838C2.36108 17.9239 2.68668 18.0588 3.02618 18.0588H25.466C25.8055 18.0588 26.1311 17.9239 26.3712 17.6838C26.6112 17.4438 26.7461 17.1182 26.7461 16.7787V2.28814C26.7461 1.94864 26.6112 1.62305 26.3712 1.38298C26.1311 1.14292 25.8055 1.00806 25.466 1.00806H3.02618V1.02726Z" stroke="#FEEBB6" stroke-width="2" stroke-linecap="round" stroke-linejoin="round"/>
</svg>
