<svg width="28" height="28" viewBox="0 0 28 28" fill="none" xmlns="http://www.w3.org/2000/svg">
<path d="M25.5342 17.7493C24.1038 17.5727 22.6835 17.3223 21.2789 16.9992C20.936 16.8845 20.5693 16.8604 20.2143 16.929C19.8593 16.9977 19.528 17.1569 19.2526 17.3911C18.8946 17.756 17.8611 18.7764 16.7872 19.8306C12.9394 17.9382 9.82749 14.8225 7.9389 10.9715C8.98583 9.89706 9.96522 8.86991 10.3637 8.51177C10.5979 8.23616 10.757 7.90474 10.8256 7.54959C10.8943 7.19445 10.8701 6.82759 10.7555 6.48452C10.4321 5.0771 10.1819 3.65387 10.0057 2.22053C9.98688 2.03801 9.93106 1.86124 9.84169 1.701C9.75231 1.54076 9.63126 1.40041 9.4859 1.2885C9.34055 1.17659 9.17394 1.09546 8.99622 1.05007C8.81851 1.00467 8.63342 0.995957 8.45223 1.02446H2.69746C2.45992 1.04591 2.23756 1.15052 2.06953 1.31986C1.90149 1.48921 1.79857 1.71243 1.77886 1.95023C1.40737 7.14675 4.30502 12.7082 4.89265 13.7759V13.8164L4.9737 13.9718C7.07726 17.6218 10.1061 20.6521 13.7545 22.7566L14.0516 22.9255C15.4025 23.6418 20.7723 26.3448 25.7908 25.9732C26.0309 25.9565 26.2573 25.8549 26.4293 25.6865C26.6013 25.5181 26.7078 25.2939 26.7297 25.0541V19.3035C26.7582 19.1222 26.7495 18.9371 26.7041 18.7593C26.6587 18.5815 26.5776 18.4148 26.4658 18.2694C26.3539 18.1239 26.2136 18.0028 26.0535 17.9134C25.8933 17.824 25.7166 17.7681 25.5342 17.7493Z" stroke="#FEEBB6" stroke-width="2" stroke-linecap="round" stroke-linejoin="round"/>
</svg>
