<svg width="541" height="517" viewBox="0 0 541 517" fill="none" xmlns="http://www.w3.org/2000/svg">
<path d="M280.73 353.194C245.653 353.946 189.098 342.727 153.149 315.166C103.501 277.103 112.373 221.981 141.192 175.222C186.99 100.913 229.675 118.382 313.606 126.758C401.41 135.521 435.646 234.911 400.145 284.814C374.361 321.057 330.438 352.127 280.73 353.194Z" stroke="#FA8200" stroke-opacity="0.5"/>
<path d="M211.049 356.825C185.965 333.078 151.416 282.986 139.141 231.747C122.189 160.984 154.578 114.831 197.064 90.5297C264.582 51.9106 286.389 98.2639 341.586 164.748C399.328 234.299 376.338 352.547 327.652 375.172C292.291 391.605 246.596 390.477 211.049 356.825Z" stroke="#FA8200" stroke-opacity="0.5"/>
<g filter="url(#filter0_f_203_1266)">
<path d="M432.747 421.523C393.383 511.866 294.256 454.666 202.14 391.541C110.024 328.417 29.2251 253.846 61.9313 178.785C94.6374 103.723 254.922 49.6546 350.45 90.8697C445.978 132.085 465.454 346.462 432.747 421.523Z" fill="#FBBD17" fill-opacity="0.18"/>
</g>
<path d="M420.962 395.642C387.066 473.432 299.297 423.138 217.652 367.779C136.007 312.421 64.2293 247.26 92.3914 182.627C120.553 117.995 261.229 72.5863 345.693 109.028C430.157 145.469 449.124 331.009 420.962 395.642Z" fill="#FBBD17" fill-opacity="0.22"/>
<defs>
<filter id="filter0_f_203_1266" x="6.52319" y="28.6323" width="488.933" height="487.751" filterUnits="userSpaceOnUse" color-interpolation-filters="sRGB">
<feFlood flood-opacity="0" result="BackgroundImageFix"/>
<feBlend mode="normal" in="SourceGraphic" in2="BackgroundImageFix" result="shape"/>
<feGaussianBlur stdDeviation="24" result="effect1_foregroundBlur_203_1266"/>
</filter>
</defs>
</svg>
