<svg width="120" height="114" viewBox="0 0 120 114" fill="none" xmlns="http://www.w3.org/2000/svg">
<path d="M66.5005 23.8458C88.5045 26.5452 109.666 45.9789 112.339 58.2517C119.287 90.1467 4.69994 95.28 8.28158 62.4658C9.72492 49.2422 44.2465 21.1158 66.5005 23.8458Z" fill="#FFDC7C"/>
<path d="M60.3142 21.0276C82.3599 18.6908 107.386 32.8439 112.777 44.1946C126.79 73.6933 16.3444 104.554 12.3794 71.7841C10.7817 58.5782 38.018 23.391 60.3142 21.0276Z" stroke="#FA8200"/>
<path d="M50.8995 36.6456C51.0871 36.3978 51.32 36.1989 51.5822 36.0625C51.8444 35.9261 52.1296 35.8554 52.4183 35.8555H69.4843C69.7729 35.8554 70.0581 35.9261 70.3203 36.0625C70.5825 36.1989 70.8154 36.3978 71.003 36.6456L76.2168 43.5176C76.6823 44.1313 76.9381 44.9128 76.9382 45.721V46.2967C76.9383 47.4141 76.6293 48.5037 76.0545 49.413C75.4797 50.3224 74.6678 51.0062 73.7321 51.3688C72.7965 51.7314 71.784 51.7547 70.8361 51.4355C69.8882 51.1162 69.0522 50.4704 68.4451 49.5882C68.0018 50.2333 67.4336 50.7553 66.7842 51.1141C66.1347 51.4729 65.4212 51.6591 64.6982 51.6584C63.9752 51.6593 63.2616 51.4732 62.6121 51.1143C61.9627 50.7555 61.3945 50.2334 60.9513 49.5882C60.508 50.2334 59.9399 50.7555 59.2904 51.1143C58.6409 51.4732 57.9273 51.6593 57.2043 51.6584C56.4813 51.6593 55.7678 51.4732 55.1183 51.1143C54.4688 50.7555 53.9007 50.2334 53.4574 49.5882C52.8503 50.4704 52.0143 51.1162 51.0664 51.4355C50.1185 51.7547 49.106 51.7314 48.1704 51.3688C47.2348 51.0062 46.4228 50.3224 45.848 49.413C45.2732 48.5037 44.9642 47.4141 44.9644 46.2967V45.721C44.9644 44.9128 45.2203 44.1313 45.6858 43.5176L50.9015 36.6434L50.8995 36.6456ZM54.4566 46.2967C54.4566 47.1199 54.7461 47.9095 55.2614 48.4916C55.7767 49.0738 56.4756 49.4008 57.2043 49.4008C57.9331 49.4008 58.632 49.0738 59.1473 48.4916C59.6626 47.9095 59.9521 47.1199 59.9521 46.2967C59.9521 45.9973 60.0574 45.7102 60.2447 45.4985C60.4321 45.2868 60.6863 45.1679 60.9513 45.1679C61.2163 45.1679 61.4704 45.2868 61.6578 45.4985C61.8452 45.7102 61.9504 45.9973 61.9504 46.2967C61.9504 47.1199 62.2399 47.9095 62.7552 48.4916C63.2705 49.0738 63.9694 49.4008 64.6982 49.4008C65.4269 49.4008 66.1258 49.0738 66.6411 48.4916C67.1565 47.9095 67.4459 47.1199 67.4459 46.2967C67.4459 45.9973 67.5512 45.7102 67.7386 45.4985C67.926 45.2868 68.1801 45.1679 68.4451 45.1679C68.7101 45.1679 68.9643 45.2868 69.1517 45.4985C69.339 45.7102 69.4443 45.9973 69.4443 46.2967C69.4443 47.1199 69.7338 47.9095 70.2491 48.4916C70.7644 49.0738 71.4633 49.4008 72.1921 49.4008C72.9208 49.4008 73.6197 49.0738 74.135 48.4916C74.6503 47.9095 74.9398 47.1199 74.9398 46.2967V45.721C74.9398 45.452 74.8548 45.1918 74.7 44.9873L69.4843 38.113H52.4183L47.2025 44.9873C47.0477 45.1918 46.9627 45.452 46.9627 45.721V46.2967C46.9627 47.1199 47.2522 47.9095 47.7675 48.4916C48.2828 49.0738 48.9817 49.4008 49.7105 49.4008C50.4392 49.4008 51.1381 49.0738 51.6534 48.4916C52.1687 47.9095 52.4582 47.1199 52.4582 46.2967C52.4582 45.9973 52.5635 45.7102 52.7509 45.4985C52.9383 45.2868 53.1924 45.1679 53.4574 45.1679C53.7224 45.1679 53.9765 45.2868 54.1639 45.4985C54.3513 45.7102 54.4566 45.9973 54.4566 46.2967ZM47.9619 52.7871C48.2269 52.7871 48.481 52.9061 48.6684 53.1178C48.8558 53.3294 48.9611 53.6165 48.9611 53.9159V67.4613H72.9414V53.9159C72.9414 53.6165 73.0467 53.3294 73.2341 53.1178C73.4215 52.9061 73.6756 52.7871 73.9406 52.7871C74.2056 52.7871 74.4598 52.9061 74.6472 53.1178C74.8345 53.3294 74.9398 53.6165 74.9398 53.9159V67.4613H75.939C76.204 67.4613 76.4581 67.5802 76.6455 67.7919C76.8329 68.0036 76.9382 68.2907 76.9382 68.59C76.9382 68.8894 76.8329 69.1765 76.6455 69.3882C76.4581 69.5999 76.204 69.7188 75.939 69.7188H45.9635C45.6985 69.7188 45.4444 69.5999 45.257 69.3882C45.0696 69.1765 44.9644 68.8894 44.9644 68.59C44.9644 68.2907 45.0696 68.0036 45.257 67.7919C45.4444 67.5802 45.6985 67.4613 45.9635 67.4613H46.9627V53.9159C46.9627 53.6165 47.068 53.3294 47.2554 53.1178C47.4428 52.9061 47.6969 52.7871 47.9619 52.7871ZM51.9586 53.9159C52.2236 53.9159 52.4778 54.0348 52.6652 54.2465C52.8525 54.4582 52.9578 54.7453 52.9578 55.0447V62.9461H68.9447V55.0447C68.9447 54.7453 69.05 54.4582 69.2374 54.2465C69.4248 54.0348 69.6789 53.9159 69.9439 53.9159C70.2089 53.9159 70.463 54.0348 70.6504 54.2465C70.8378 54.4582 70.9431 54.7453 70.9431 55.0447V62.9461C70.9431 63.5449 70.7325 64.1191 70.3578 64.5425C69.983 64.9659 69.4747 65.2037 68.9447 65.2037H52.9578C52.4278 65.2037 51.9195 64.9659 51.5448 64.5425C51.17 64.1191 50.9594 63.5449 50.9594 62.9461V55.0447C50.9594 54.7453 51.0647 54.4582 51.2521 54.2465C51.4395 54.0348 51.6936 53.9159 51.9586 53.9159Z" fill="#FA8200"/>
</svg>
