<svg width="20" height="20" viewBox="0 0 20 20" fill="none" xmlns="http://www.w3.org/2000/svg">
<path d="M10.6476 1.27362C10.4334 1.2578 10.2187 1.24988 10.0039 1.24987V0C10.2496 0.000119772 10.4951 0.00929169 10.7401 0.0274971L10.6476 1.27362ZM13.1523 1.83606C12.7517 1.68145 12.3402 1.55655 11.9212 1.46235L12.1949 0.242474C12.6736 0.349963 13.1448 0.492448 13.6023 0.669929L13.1523 1.83606ZM14.8646 2.72346C14.6859 2.60429 14.5029 2.49172 14.316 2.386L14.9321 1.29861C15.3595 1.54076 15.7684 1.81396 16.1558 2.11603L15.3871 3.10217C15.2176 2.96997 15.0434 2.84407 14.8646 2.72471V2.72346ZM17.1569 4.96073C16.9097 4.60948 16.6369 4.27695 16.3407 3.96583L17.2456 3.10342C17.5831 3.45964 17.8956 3.84084 18.1793 4.2408L17.1569 4.96073ZM18.0868 6.65055C18.0048 6.45239 17.9155 6.25728 17.8193 6.06561L18.9355 5.50317C19.1562 5.94198 19.3442 6.3965 19.4979 6.86303L18.3105 7.25423C18.2434 7.05034 18.1687 6.84897 18.0868 6.65055ZM18.7492 9.78397C18.7391 9.35444 18.6974 8.92624 18.6242 8.50285L19.8554 8.29038C19.9391 8.77282 19.9879 9.26277 20.0004 9.75272L18.7505 9.78397H18.7492ZM18.5855 11.7063C18.6267 11.4938 18.6605 11.2826 18.6867 11.0688L19.9279 11.2226C19.8678 11.7102 19.7717 12.1927 19.6404 12.6662L18.4355 12.3324C18.493 12.1262 18.543 11.9175 18.5855 11.7063ZM17.3956 14.6797C17.6256 14.3172 17.8281 13.9373 18.0031 13.5448L19.1454 14.051C18.9455 14.501 18.7142 14.9334 18.4518 15.3484L17.3956 14.6797ZM16.1908 16.1858C16.3432 16.0333 16.4895 15.8758 16.6282 15.7133L17.5756 16.5295C17.4152 16.7155 17.248 16.8956 17.0744 17.0694L16.1908 16.1858Z" fill="white"/>
<path d="M10.0028 1.24987C8.5641 1.24997 7.14758 1.60489 5.87876 2.28318C4.60993 2.96148 3.52796 3.94221 2.72869 5.13852C1.92941 6.33483 1.4375 7.70979 1.29651 9.14161C1.15553 10.5734 1.36982 12.0179 1.92042 13.3472C2.47102 14.6764 3.34093 15.8493 4.45309 16.762C5.56526 17.6748 6.88535 18.2992 8.29645 18.5799C9.70755 18.8606 11.1661 18.789 12.5429 18.3714C13.9197 17.9538 15.1723 17.2031 16.1897 16.1858L17.0734 17.0694C15.9106 18.2328 14.4789 19.0914 12.9051 19.5692C11.3312 20.047 9.66385 20.1292 8.05063 19.8085C6.43742 19.4879 4.92821 18.7743 3.6567 17.7309C2.3852 16.6876 1.39068 15.3467 0.761242 13.8272C0.131808 12.3076 -0.1131 10.6562 0.0482173 9.01938C0.209535 7.38254 0.772098 5.81076 1.68606 4.4433C2.60002 3.07585 3.83717 1.95493 5.28788 1.17988C6.73859 0.404826 8.35808 -0.000435869 10.0028 3.51786e-07V1.24987Z" fill="white"/>
<path d="M9.37884 3.75C9.54458 3.75 9.70354 3.81584 9.82074 3.93304C9.93793 4.05024 10.0038 4.20919 10.0038 4.37493V10.8867L14.0633 13.2065C14.2031 13.2908 14.3043 13.4264 14.3454 13.5843C14.3864 13.7423 14.3641 13.91 14.2831 14.0517C14.2022 14.1933 14.069 14.2977 13.9121 14.3425C13.7552 14.3873 13.587 14.369 13.4434 14.2914L9.06887 11.7917C8.97322 11.737 8.89372 11.6581 8.8384 11.5628C8.78309 11.4676 8.75394 11.3594 8.75391 11.2492V4.37493C8.75391 4.20919 8.81975 4.05024 8.93695 3.93304C9.05414 3.81584 9.2131 3.75 9.37884 3.75Z" fill="white"/>
</svg>
