<?xml version="1.0" encoding="UTF-8" standalone="no"?>
<svg
   width="1905"
   height="912"
   viewBox="0 0 1905 912"
   fill="none"
   version="1.1"
   id="svg8"
   sodipodi:docname="whom_bg.svg"
   inkscape:version="1.1 (c68e22c387, 2021-05-23)"
   xmlns:inkscape="http://www.inkscape.org/namespaces/inkscape"
   xmlns:sodipodi="http://sodipodi.sourceforge.net/DTD/sodipodi-0.dtd"
   xmlns="http://www.w3.org/2000/svg"
   xmlns:svg="http://www.w3.org/2000/svg">
  <defs
     id="defs12" />
  <sodipodi:namedview
     id="namedview10"
     pagecolor="#ffffff"
     bordercolor="#666666"
     borderopacity="1.0"
     inkscape:pageshadow="2"
     inkscape:pageopacity="0.0"
     inkscape:pagecheckerboard="0"
     showgrid="false"
     width="1905px"
     inkscape:zoom="0.62903041"
     inkscape:cx="793.28438"
     inkscape:cy="426.84741"
     inkscape:window-width="2560"
     inkscape:window-height="1411"
     inkscape:window-x="7191"
     inkscape:window-y="-9"
     inkscape:window-maximized="1"
     inkscape:current-layer="svg8" />
  <g
     id="g832"
     transform="translate(133.46409,24.815046)">
    <path
       d="M 1769.35,544.479 C 1770.72,757.73 1271.63,808.072 796.062,764.675 320.492,721.279 -60.9987,737.999 -131.281,468.097 -33,115 413.5,55.5 860.128,39.6764 1311.03,36.7715 1768.2,367.299 1769.35,544.479 Z"
       fill="#fbbd17"
       fill-opacity="0.22"
       id="path2" />
    <path
       d="M 377.742,711.025 C 299.958,663.789 183.668,562.541 124.738,456.963 43.354,311.154 103.336,212.264 201.102,157.974 c 155.366,-86.2766 236.531,8.3 415.186,141.863 186.897,139.725 189.346,387.855 74.561,439.198 -83.367,37.29 -202.876,38.931 -313.107,-28.01 z"
       stroke="#fa8200"
       stroke-opacity="0.5"
       id="path4" />
    <path
       d="M 221.659,621.503 C 183.854,538.723 144.543,389.629 155.115,269.181 169.715,102.837 274.897,54.7339 386.276,64.7543 563.275,80.6782 577.278,204.518 650.023,415.386 726.124,635.98 588.735,842.617 464.933,820.596 375.017,804.603 275.234,738.813 221.659,621.503 Z"
       stroke="#fa8200"
       stroke-opacity="0.5"
       id="path6" />
  </g>
</svg>
