<svg width="121" height="115" viewBox="0 0 121 115" fill="none" xmlns="http://www.w3.org/2000/svg">
<path d="M66.5549 23.9427C88.5769 26.6529 109.755 46.165 112.431 58.4874C119.384 90.5111 4.70369 95.6651 8.28827 62.7185C9.7328 49.4416 44.2826 21.2016 66.5549 23.9427Z" fill="#FFDC7C"/>
<path d="M60.3643 21.1125C82.428 18.7662 107.474 32.9764 112.871 44.373C126.894 73.9907 16.3585 104.976 12.3903 72.0738C10.7912 58.8146 38.0498 23.4854 60.3643 21.1125Z" stroke="#FA8200"/>
<path d="M66.3962 74.4519L66.3961 74.4511C66.3218 74.0321 66.2601 73.6109 66.211 73.1882C66.211 73.1881 66.211 73.1879 66.211 73.1878L66.956 73.1014C66.853 72.2178 66.906 71.5961 67.0202 70.5683L66.2747 70.4854C66.4566 68.849 66.8244 68.0669 67.3303 67.1138L66.3962 74.4519ZM66.3962 74.4519C66.4487 74.7463 66.5123 75.0599 66.5692 75.3309C66.4136 75.426 66.19 75.5378 65.902 75.6499L66.3962 74.4519ZM79.9994 46.096C80.3544 46.5266 80.919 47.7332 80.9854 48.3908C81.0495 49.0245 80.9003 50.0384 80.5804 50.8263M79.9994 46.096L71.6546 40.1639C72.4375 40.7306 72.8116 41.013 73.1775 41.6636L73.1775 41.6636L73.182 41.6715C73.5125 42.2429 73.6133 42.528 73.6936 42.9513L73.7904 43.4616L74.3022 43.5505C74.9589 43.6645 75.7194 43.82 76.3321 44.073C76.9428 44.3253 77.5219 44.6603 78.0291 45.0654L78.0292 45.0654C78.4776 45.4235 78.8444 45.8707 79.268 46.3872C79.318 46.4482 79.3688 46.5101 79.4207 46.573L79.4207 46.5731C79.5333 46.7096 79.7304 47.0455 79.9149 47.462C80.1005 47.8812 80.2183 48.2589 80.2392 48.4662C80.2893 48.9617 80.1662 49.8528 79.8855 50.5441L80.5804 50.8263M79.9994 46.096C79.9483 46.034 79.8973 45.9717 79.8462 45.9093M79.9994 46.096L79.8462 45.9093M80.5804 50.8263C80.2088 51.7413 79.2804 52.8381 79.2804 52.8381L79.8855 50.5441L80.5804 50.8263ZM66.1632 38.9218L66.1632 38.9218C65.336 39.0977 64.5027 39.4352 63.86 39.7599L63.5651 39.9089L63.2562 39.7919C62.0646 39.3407 60.9518 39.4055 60.0632 39.6441L60.0631 39.6441C59.6633 39.7515 59.4535 39.8286 59.2614 39.9207C59.0937 40.0011 58.9351 40.094 58.6746 40.2467C58.6036 40.2882 58.5251 40.3342 58.4368 40.3856L58.3968 40.4089L58.3542 40.4271C57.7614 40.6802 57.0292 41.3231 56.4297 42.1425L56.2128 42.4391L55.8454 42.4494C53.6156 42.5119 51.7447 43.2882 50.3899 44.0483M66.1632 38.9218L59.9935 76.6083L60.2513 75.904C60.2513 75.904 60.2513 75.904 60.2513 75.904C59.7595 75.724 59.353 75.5196 59.0482 75.2604C58.8618 75.1019 58.6756 74.8795 58.5357 74.659C59.0203 72.2649 58.4841 70.1826 57.8256 68.6993C57.4829 67.9272 57.1039 67.3096 56.8089 66.8828C56.6611 66.669 56.5337 66.502 56.4412 66.3862C56.3949 66.3283 56.3573 66.2831 56.3302 66.2512C56.3167 66.2352 56.3057 66.2226 56.2976 66.2133L56.2931 66.2082L56.2907 66.2052L56.2645 66.174L56.165 66.055C56.0789 65.9521 55.955 65.8044 55.8039 65.6246C55.5016 65.2651 55.09 64.777 54.6526 64.2632C53.7896 63.2492 52.7925 62.0943 52.359 61.6599L52.1077 61.408L51.7537 61.4433C49.1267 61.7052 46.5159 61.1787 45.0068 59.7211L45.0068 59.7211C44.1541 58.8976 43.676 57.7733 43.7594 56.6615C43.8408 55.5758 44.4671 54.3852 46.0559 53.4195L46.5042 53.147L46.4019 52.6324C45.9096 50.1545 46.4868 48.5914 47.0634 47.4719L47.0635 47.4718C47.5722 46.4841 48.9225 44.8716 50.3899 44.0483M66.1632 38.9218C67.1175 38.7189 67.8728 38.735 68.3937 38.7744L66.1632 38.9218ZM50.3899 44.0483L50.023 43.3942L50.3899 44.0483ZM53.4307 60.3645L53.8713 59.9289C54.2155 59.5886 54.5287 59.0799 54.8236 58.6009L54.8243 58.5999L55.0583 58.2198L55.504 58.2442C55.5291 58.2456 55.5558 58.2471 55.584 58.2487C55.9266 58.2679 56.4937 58.2998 57.0473 58.2747L53.4307 60.3645ZM53.4307 60.3645L53.7752 60.8794M53.4307 60.3645L53.7752 60.8794M53.7752 60.8794L54.3986 60.4623M53.7752 60.8794L54.3986 60.4623M54.3986 60.4623C53.7752 60.8794 53.7753 60.8795 53.7753 60.8795L53.7754 60.8797L53.7757 60.8802L53.7766 60.8814L53.7792 60.8854L53.7883 60.8988L53.8212 60.9467C53.8495 60.9877 53.8904 61.0462 53.9426 61.1191C54.0469 61.2647 54.197 61.4685 54.3825 61.7049C54.7509 62.1743 55.2708 62.7875 55.8589 63.3298C55.8589 63.3298 55.8589 63.3298 55.8589 63.3298L56.3674 62.7785L54.3986 60.4623ZM79.8462 45.9093C79.4304 45.4016 79.0116 44.8901 78.4971 44.4793L79.8462 45.9093ZM66.7666 75.187C66.7665 75.1872 66.7653 75.1886 66.7628 75.1911C66.7654 75.1881 66.7667 75.1868 66.7666 75.187ZM58.4002 65.0773C58.8058 65.2213 59.1473 65.1369 59.4015 65.0181L59.6487 64.9026L59.7639 64.6553C59.9106 64.3402 60.0148 64.0591 60.0626 63.6304C60.1056 63.2455 60.1025 62.7461 60.0805 61.9938C60.0805 61.9938 60.0805 61.9938 60.0805 61.9938L59.3308 62.0158L58.4002 65.0773ZM66.5492 59.3919L65.9093 59.4194L65.8363 60.0558C65.8074 60.3072 65.7952 61.0375 65.8958 61.6831L65.8958 61.6832C65.9405 61.9693 65.9913 62.2918 66.0647 62.5718C66.1297 62.8199 66.2492 63.1955 66.5274 63.4588L66.8021 63.7188L67.1744 63.6524C68.0458 63.4972 68.7064 62.9858 69.1252 62.6616C69.1901 62.6113 69.2493 62.5655 69.3025 62.5263L69.309 62.5214L69.3155 62.5165L68.8572 61.9228L69.3155 62.5164L69.3156 62.5164L69.3158 62.5162L69.3167 62.5155L69.3201 62.5129L69.3333 62.5027L69.3832 62.4641L69.5631 62.3246C69.7132 62.2081 69.9165 62.0498 70.1295 61.8826C70.5401 61.5604 71.0304 61.1714 71.2065 61.0098L71.8159 60.4506L71.2 59.8987C71.1531 59.8566 71.0564 59.7444 70.9476 59.5837C70.8406 59.4257 70.7654 59.2855 70.7368 59.2132L70.4862 58.5782L69.8305 58.7681L69.8304 58.7681L69.83 58.7682L69.8279 58.7688L69.8191 58.7714L69.7847 58.7812L69.6566 58.8177C69.5478 58.8485 69.3973 58.8907 69.2302 58.9363C68.8894 59.0292 68.5021 59.13 68.2549 59.1808L68.2549 59.1808L68.2488 59.1821C67.6164 59.3175 66.8528 59.3789 66.5492 59.3919ZM69.1814 64.1819C68.5759 64.9893 67.8028 66.2234 67.3303 67.1138L69.1814 64.1819ZM68.3937 38.7744C69.5055 38.8585 70.7251 39.491 71.6546 40.1639L68.3937 38.7744Z" stroke="#FA8200" stroke-width="1.5"/>
</svg>
