<svg width="121" height="115" viewBox="0 0 121 115" fill="none" xmlns="http://www.w3.org/2000/svg">
<path d="M66.5549 23.9427C88.5769 26.6529 109.755 46.165 112.431 58.4874C119.384 90.5111 4.70369 95.6651 8.28827 62.7185C9.7328 49.4416 44.2826 21.2016 66.5549 23.9427Z" fill="#FFDC7C"/>
<path d="M60.3643 21.1125C82.428 18.7662 107.474 32.9764 112.871 44.373C126.894 73.9907 16.3585 104.976 12.3903 72.0738C10.7912 58.8146 38.0498 23.4854 60.3643 21.1125Z" stroke="#FA8200"/>
<path d="M57.6289 70.4238C58.8715 70.4238 59.8789 69.4165 59.8789 68.1738C59.8789 66.9312 58.8715 65.9238 57.6289 65.9238C56.3863 65.9238 55.3789 66.9312 55.3789 68.1738C55.3789 69.4165 56.3863 70.4238 57.6289 70.4238Z" fill="#FA8200"/>
<path d="M71.2969 70.4238C72.5395 70.4238 73.5469 69.4165 73.5469 68.1738C73.5469 66.9312 72.5395 65.9238 71.2969 65.9238C70.0542 65.9238 69.0469 66.9312 69.0469 68.1738C69.0469 69.4165 70.0542 70.4238 71.2969 70.4238Z" fill="#FA8200"/>
<path d="M77.3793 43.7943C77.2863 43.6796 77.1689 43.5869 77.0358 43.5229C76.9027 43.459 76.757 43.4253 76.6093 43.4243H55.7893L56.4393 45.4243H75.2993L72.6293 57.4243H57.6293L53.0593 42.9543C53.0099 42.8008 52.924 42.6615 52.8091 42.5483C52.6942 42.4351 52.5536 42.3514 52.3993 42.3043L48.2993 41.0443C48.1732 41.0056 48.0408 40.992 47.9095 41.0045C47.7782 41.0169 47.6506 41.0551 47.5341 41.1169C47.2987 41.2416 47.1225 41.4547 47.0443 41.7093C46.9661 41.9639 46.9922 42.2392 47.1169 42.4745C47.2416 42.7099 47.4547 42.8861 47.7093 42.9643L51.2993 44.0643L55.8893 58.5643L54.2493 59.9043L54.1193 60.0343C53.7136 60.5018 53.4837 61.0961 53.4691 61.7149C53.4545 62.3337 53.6561 62.9382 54.0393 63.4243C54.3119 63.7558 54.6582 64.0188 55.0506 64.1925C55.4431 64.3661 55.8707 64.4455 56.2993 64.4243H72.9893C73.2545 64.4243 73.5089 64.3189 73.6964 64.1314C73.8839 63.9439 73.9893 63.6895 73.9893 63.4243C73.9893 63.1591 73.8839 62.9047 73.6964 62.7172C73.5089 62.5297 73.2545 62.4243 72.9893 62.4243H56.1393C56.0242 62.4204 55.912 62.3868 55.8136 62.3269C55.7152 62.2669 55.6339 62.1826 55.5776 62.0821C55.5213 61.9815 55.4919 61.8682 55.4922 61.753C55.4925 61.6377 55.5225 61.5245 55.5793 61.4243L57.9893 59.4243H73.4293C73.6605 59.43 73.8864 59.3553 74.0688 59.2131C74.2511 59.0709 74.3785 58.8699 74.4293 58.6443L77.5993 44.6443C77.6297 44.4952 77.6257 44.3412 77.5876 44.1939C77.5495 44.0466 77.4782 43.9099 77.3793 43.7943Z" fill="#FA8200"/>
</svg>
