<svg width="121" height="115" viewBox="0 0 121 115" fill="none" xmlns="http://www.w3.org/2000/svg">
<path d="M66.5549 23.9427C88.5769 26.6529 109.755 46.165 112.431 58.4874C119.384 90.5111 4.70369 95.6651 8.28827 62.7185C9.7328 49.4416 44.2826 21.2016 66.5549 23.9427Z" fill="#FFDC7C"/>
<path d="M60.3643 21.1125C82.428 18.7662 107.474 32.9764 112.871 44.373C126.894 73.9907 16.3585 104.976 12.3903 72.0738C10.7912 58.8146 38.0498 23.4854 60.3643 21.1125Z" stroke="#FA8200"/>
<path d="M53.8799 47.2693L54.5286 47.5842M57.0045 62.5301C58.1574 58.2843 62.1884 55.2515 66.8316 55.7529C71.2522 56.2301 74.7665 60.023 74.9891 64.5358C75.0448 65.7246 74.8857 66.8649 74.5439 67.9244C74.3371 68.5714 73.717 69 73.0412 69H49.3622C45.3487 69 42.3385 65.2645 43.1257 61.2612C43.1257 61.2612 42.6025 45.9518 47.9645 36.6506C49.8492 33.3813 54.0142 35.6027 57.0045 37.8637C59.0135 39.3828 60.6857 40.2899 60.6857 42.3118C60.6857 45.6396 56.6508 49.0256 53.8719 47.2693C52.8269 46.6088 51.9399 44.738 51.9399 44.738L57.0045 62.5301Z" stroke="#FA8200" stroke-width="1.5" stroke-miterlimit="2" stroke-linecap="round" stroke-linejoin="round"/>
</svg>
