<svg width="160" height="43" viewBox="0 0 160 43" fill="none" xmlns="http://www.w3.org/2000/svg">
<path d="M17.546 0.553178C13.944 1.28091 10.9369 2.66867 8.3319 4.78417C7.17411 5.71498 4.92285 8.08434 4.92285 8.37204C4.92285 8.91361 7.81732 12.0276 9.34496 13.1277L9.82737 13.4831L10.3098 12.8061C11.548 11.063 14.2012 9.15054 16.4847 8.37204C18.3339 7.72893 19.7329 7.52585 21.6465 7.64431C25.2967 7.86432 28.5932 9.50595 30.9892 12.3322L31.9862 13.5L32.9028 12.7553C33.8837 11.9599 36.9229 8.67667 36.9229 8.40589C36.9229 8.16896 34.5912 5.73191 33.546 4.88571C31.0535 2.85483 28.2555 1.46707 25.1842 0.739341C23.56 0.35009 19.0736 0.248547 17.546 0.553178Z" fill="#75C86C"/>
<path d="M97.2612 11.3042L97.3074 17.875H99.0766H100.846L100.892 11.3042L100.923 4.75H99.0766H97.2305L97.2612 11.3042Z" fill="#75C86C"/>
<path d="M52.9546 12.1922L53.0023 17.7759L54.7968 17.8254L56.5755 17.875V13.9763V10.0942H60.8633C65.4211 10.0942 66.0405 10.1768 66.4057 10.8871C66.5169 11.1019 66.5804 12.44 66.5804 14.3893C66.5804 17.2307 66.6122 17.5446 66.8663 17.6602C67.0092 17.7098 67.8191 17.7759 68.6449 17.7759H70.1536V13.5303V9.30121L69.6772 8.57434C69.4072 8.19438 68.9467 7.69879 68.6608 7.50055C67.4856 6.67456 67.0251 6.625 59.7199 6.625H52.9229L52.9546 12.1922Z" fill="#75C86C"/>
<path d="M76.0226 7.02286C73.5286 7.93461 72 9.92388 72 12.2447C72 13.1067 72.0965 13.5212 72.4505 14.2506C73.3516 16.0741 75.2824 17.4168 77.4063 17.6986C78.9349 17.8976 89.4258 17.9473 90.7934 17.7484C95.5079 17.1018 97.9858 13.0736 95.8297 9.57576C95.1861 8.51481 93.6736 7.37098 92.3703 6.95655C91.3888 6.64158 90.89 6.625 84.2125 6.625C77.1328 6.625 77.1167 6.625 76.0226 7.02286ZM91.2922 10.2886C92.322 10.5538 93.1265 11.3827 93.1265 12.1452C93.1265 12.9409 92.5151 13.6538 91.5658 13.9853C90.9222 14.2174 89.828 14.2506 84.3091 14.2506C77.1972 14.2506 76.8754 14.2174 75.9743 13.3222C74.8319 12.2281 75.4594 10.8522 77.3581 10.2554C78.0339 10.0565 90.4716 10.0731 91.2922 10.2886Z" fill="#75C86C"/>
<path d="M106.619 7.34127C106.14 7.74105 104.798 8.80712 103.664 9.72328C102.513 10.6228 101.555 11.439 101.539 11.5056C101.507 11.5723 102.785 13.0381 104.367 14.7372L107.259 17.8188L109.895 17.8688C111.349 17.8854 112.515 17.8688 112.467 17.8188C111.317 16.6361 106.843 11.7055 106.795 11.5889C106.779 11.5056 106.859 11.339 106.987 11.2391C107.115 11.1225 108.409 10.1064 109.847 8.9737C111.269 7.84099 112.515 6.84155 112.611 6.75826C112.691 6.69163 111.572 6.625 110.134 6.625H107.498L106.619 7.34127Z" fill="#75C86C"/>
<path d="M113.876 12.2184L113.923 17.8284L114.769 17.8616C115.23 17.8948 116.046 17.8616 116.584 17.8118L117.538 17.7123V12.1686V6.625H115.692H113.846L113.876 12.2184Z" fill="#75C86C"/>
<path d="M122.946 6.94073C121.247 7.52234 119.881 8.70218 119.071 10.2808C118.849 10.7129 118.77 11.2114 118.77 12.1918C118.77 13.3551 118.833 13.6376 119.23 14.402C120.199 16.2299 122.12 17.4928 124.264 17.7421C124.915 17.8085 127.155 17.8584 129.251 17.8418L133.062 17.7919L134.285 16.1634C134.952 15.2494 135.508 14.4684 135.524 14.3853C135.524 14.3189 133.046 14.269 130.013 14.269C126.583 14.269 124.248 14.2025 123.883 14.0862C123.534 13.9865 123.01 13.6708 122.692 13.3551C121.946 12.6405 121.898 11.8595 122.581 11.1117C123.439 10.1811 123.963 10.1147 130.871 10.1147H137.112V13.9865V17.875L138.907 17.8418C139.875 17.8085 140.733 17.7919 140.812 17.7753C140.876 17.7753 140.923 15.2494 140.923 12.1918V6.625L132.395 6.64162C124.566 6.64162 123.772 6.67485 122.946 6.94073Z" fill="#75C86C"/>
<path d="M142.77 12.2083V17.7917H144.669H146.568V13.9583V10.125H150.842C155.447 10.125 155.812 10.1917 156.255 11.0083C156.397 11.2583 156.492 12.425 156.54 14.625L156.619 17.8583L158.281 17.875H159.943L159.99 13.875C160.037 9.325 159.958 8.89167 158.93 7.90833C158.597 7.59167 157.917 7.175 157.426 6.975C156.555 6.64167 156.271 6.625 149.655 6.625H142.77V12.2083Z" fill="#75C86C"/>
<path d="M3.51537 9.9117C3.13543 10.4761 3.0198 10.801 3.10239 11.0747C3.33366 11.8785 8.09117 16.3079 8.33896 15.983C8.372 15.9488 8.58675 15.5554 8.81802 15.1279L9.23099 14.3412L7.92598 13.2637C6.65401 12.2034 5.54722 11.0747 4.53956 9.79199L4.02746 9.125L3.51537 9.9117Z" fill="#75C86C"/>
<path d="M36.8395 9.2704C36.8395 9.65736 33.1559 13.3418 32.0038 14.0989C31.9714 14.1157 32.1499 14.5531 32.3933 15.0579L32.8476 16L33.5616 15.4616C34.519 14.755 36.6447 12.6857 37.4885 11.6426L38.1538 10.8182L37.6184 9.97701C37.1153 9.18628 36.8395 8.93392 36.8395 9.2704Z" fill="#75C86C"/>
<path d="M39.2929 12.4113C39.1751 12.7822 36.1635 15.508 35.0194 16.3144C33.808 17.1531 33.7912 17.1853 33.8753 17.7337C34.0604 18.7659 34.1109 18.7659 35.6251 17.6692C37.2571 16.4918 39.9995 13.9596 39.9995 13.6371C39.9995 13.3951 39.5285 12.25 39.4275 12.25C39.377 12.25 39.3266 12.3145 39.2929 12.4113Z" fill="#75C86C"/>
<path d="M1.53735 12.9243L1.23047 13.5822L2.60337 14.9803C3.87937 16.2961 6.56057 18.5 6.89976 18.5C6.98052 18.5 7.12589 18.2039 7.2228 17.8421L7.38431 17.1678L6.43136 16.5099C5.89835 16.1316 4.67081 15.0296 3.68555 14.0428C2.70028 13.0559 1.87654 12.25 1.86039 12.25C1.84424 12.25 1.69887 12.5461 1.53735 12.9243Z" fill="#75C86C"/>
<path d="M9.311 13.8365C9.13417 14.1394 9.19848 14.2236 10.0183 14.7788C12.9602 16.7476 16.8022 17.875 20.6282 17.875C24.406 17.875 27.7979 16.8654 31.1899 14.7284C32.0901 14.1563 32.1223 14.1226 31.849 13.8197C31.5757 13.5 31.5596 13.5 30.997 13.8702C27.7497 15.9399 24.1166 17.0337 20.5157 17.0337C17.1398 17.0337 13.4424 15.9567 10.5971 14.1394C10.0505 13.7861 9.58429 13.5 9.55214 13.5C9.53606 13.5 9.42353 13.6514 9.311 13.8365Z" fill="#75C86C"/>
<path d="M0.645051 16.45C0.552263 16.85 0.645051 17.0333 1.37189 17.8333C2.57814 19.15 4.46484 20.7333 6.19689 21.8667L6.76908 22.25V21.7333C6.76908 21.2833 6.6299 21.1167 5.62469 20.4C4.23287 19.3833 2.81011 18.15 1.63479 16.9167L0.753304 16L0.645051 16.45Z" fill="#75C86C"/>
<path d="M8.12209 16.5613C7.97739 16.9473 7.96131 17.1928 8.07386 17.3858C8.34717 17.8594 11.6431 19.6487 13.4598 20.3153C18.9262 22.2975 24.891 22.0168 30.1162 19.561C31.4667 18.9119 33.8462 17.491 33.8462 17.3156C33.8462 17.2805 33.7336 16.9473 33.605 16.614L33.3638 16L32.6886 16.4561C28.4923 19.2452 23.4279 20.5784 18.9101 20.0697C15.5338 19.6838 12.2379 18.5436 9.71377 16.8946C8.99028 16.4035 8.37933 16.0175 8.36325 16.0175C8.3311 16.0175 8.23463 16.2631 8.12209 16.5613Z" fill="#75C86C"/>
<path d="M39.4091 17.0475C38.4484 18.1294 36.7906 19.5891 35.2877 20.7053C34.4355 21.3236 34.389 21.4266 34.513 22.2165C34.5595 22.56 37.5343 20.1902 39.4245 18.3011C40.5556 17.1677 40.6641 16.996 40.6021 16.5324C40.5711 16.2404 40.4936 16 40.4316 16C40.3697 16 39.9204 16.4637 39.4091 17.0475Z" fill="#75C86C"/>
<path d="M6.86589 19.9561C6.81771 20.0988 6.76953 20.5745 6.76953 21.0026V21.7796L8.40756 22.5883C15.8911 26.2986 24.5469 26.2986 32.0947 22.62C32.9137 22.2236 33.6685 21.8113 33.7488 21.7003C33.8452 21.5735 33.8773 21.1453 33.813 20.6221L33.7167 19.75L31.9181 20.6697C29.8464 21.7479 27.5018 22.5883 25.1732 23.0798C23.7922 23.3811 23.0695 23.4286 20.2592 23.4286C17.224 23.4286 16.8225 23.3969 15.04 22.9847C12.1172 22.3187 9.27475 21.1929 7.31554 19.9244C7.01042 19.7341 6.96224 19.7341 6.86589 19.9561Z" fill="#75C86C"/>
<path d="M0.000270536 20.6684C0.000270536 20.9864 0.294245 21.3043 1.39278 22.1945C2.15093 22.8145 3.37324 23.7207 4.08497 24.1817C5.36918 25.0401 7.25681 26.0893 7.34964 25.9939C7.53531 25.7714 6.96283 25.1514 6.08091 24.6586C4.54914 23.7842 2.95549 22.6874 1.68676 21.6223C-0.0616189 20.1597 0.000270536 20.1915 0.000270536 20.6684Z" fill="#75C86C"/>
<path d="M39.6444 21.2864C38.1172 22.524 35.76 24.0872 34.3821 24.7711C33.5687 25.1781 33.0541 25.7481 33.2865 25.9923C33.4193 26.1063 35.5608 24.9339 37.2374 23.8592C39.0302 22.6868 41.0223 21.1073 41.1717 20.7491C41.4207 20.0978 40.8729 20.3095 39.6444 21.2864Z" fill="#75C86C"/>
<path d="M148.647 22.3456C145.033 22.8008 142.139 24.3517 141.275 26.3073C140.876 27.2008 140.892 28.4315 141.291 29.2575C141.691 30.0667 143.018 31.0276 144.378 31.4828C144.921 31.6514 146.328 31.9548 147.512 32.1403C150.006 32.5112 150.486 32.7135 150.486 33.3035C150.486 33.9273 149.558 34.2138 148.007 34.079C146.808 33.9778 144.41 33.3709 143.322 32.882C143.002 32.7472 142.651 32.6292 142.523 32.6292C142.347 32.6292 139.692 36.4897 139.692 36.7426C139.692 36.8437 140.956 37.2652 142.251 37.5855C146.888 38.7487 151.413 38.7993 154.867 37.7541C158.049 36.7763 159.984 34.9219 160 32.8483C160 31.8874 159.776 31.3142 159.073 30.5556C157.969 29.3418 156.578 28.8192 153.204 28.3303C150.47 27.9426 149.43 27.3694 150.198 26.7119C150.678 26.2905 153.604 26.4422 155.203 26.9648C155.955 27.2177 156.658 27.4368 156.786 27.4537C156.994 27.4874 159.52 23.9809 159.52 23.6774C159.52 23.5257 157.314 22.9188 155.603 22.5985C153.844 22.2782 150.278 22.1433 148.647 22.3456Z" fill="#75C86C"/>
<path d="M6.78554 22.9466C6.78554 23.2694 6.88162 23.9151 6.97769 24.3908C7.15383 25.1894 7.21788 25.2573 8.08255 25.6991C9.45961 26.3957 12.598 27.4661 14.3914 27.8569C16.3449 28.2816 20.0758 28.6044 21.5009 28.4685C24.0629 28.2307 24.5593 28.1627 26.0644 27.8569C27.8899 27.4661 30.1156 26.7355 32.021 25.886L33.3341 25.2913L33.4942 24.4248C33.5742 23.9321 33.6863 23.2524 33.7504 22.8956L33.8465 22.25L32.4374 22.9976C30.5319 24.017 28.098 24.9175 25.8403 25.4612C24.143 25.869 23.6786 25.903 20.3 25.903C17.0495 25.903 16.425 25.869 14.9358 25.5292C12.566 24.9685 10.1481 24.102 8.33874 23.1505L6.76953 22.335L6.78554 22.9466Z" fill="#75C86C"/>
<path d="M53.0359 22.9608C52.9713 23.0099 52.9229 24.1207 52.9229 25.4111V27.7471H55.4266H57.9303V32.811V37.875H62.4532H66.9761V32.811V27.7471H69.4799H71.9998L71.9513 25.3295L71.9029 22.9282L62.5178 22.8792C57.365 22.8628 53.0844 22.8955 53.0359 22.9608Z" fill="#75C86C"/>
<path d="M76.1547 26.6148L80.2933 30.9796V34.4273V37.875H84.8023H89.3113L89.3274 34.4273V30.9966L91.6946 28.6359C95.3179 25.0014 97.8462 22.4198 97.8462 22.3349C97.8462 22.284 95.64 22.25 92.9507 22.25H88.0552L87.6687 22.7425C87.4433 22.9973 86.8152 23.9654 86.2355 24.8485C85.6719 25.7486 85.1566 26.4789 85.0922 26.4959C85.0278 26.4959 84.8506 26.2921 84.6896 26.0204C84.1743 25.1712 82.3224 22.5048 82.1452 22.3859C82.0647 22.3179 79.7458 22.25 76.9921 22.25H72L76.1547 26.6148Z" fill="#75C86C"/>
<path d="M97.9732 22.9476C97.8935 23.0129 97.8457 26.3936 97.8457 30.4766V37.875H102.148H106.45L106.466 35.6702C106.482 34.4616 106.498 33.3837 106.514 33.3021C106.545 33.0244 106.832 33.1877 107.326 33.792C107.741 34.2983 110.194 37.1237 110.704 37.6627C110.848 37.826 111.963 37.875 115.755 37.8423L120.615 37.7933L117.444 34.8536C115.707 33.2531 114.305 31.8812 114.337 31.8158C114.385 31.7668 114.783 31.6689 115.229 31.6199C116.839 31.4239 118.352 30.3786 118.814 29.1211C119.579 27.0469 118.257 24.8584 115.58 23.8295C113.652 23.0946 112.329 22.9803 105.016 22.8986C101.208 22.8496 98.0369 22.8823 97.9732 22.9476ZM109.796 27.0632C110.449 27.3899 110.72 28.0268 110.497 28.6801C110.258 29.3987 109.461 29.709 107.852 29.709H106.45V28.2391V26.7693H107.852C108.856 26.7693 109.398 26.8509 109.796 27.0632Z" fill="#75C86C"/>
<path d="M121.341 22.9608C121.278 23.0099 121.23 26.3913 121.23 30.4751V37.875H129.538H137.846V35.9148V33.9545H133.89H129.934V33.0561C129.934 32.566 129.981 32.174 130.06 32.174C130.124 32.1903 131.69 32.1903 133.542 32.174L136.896 32.1576V30.2791V28.4005H133.415H129.934V27.6654V26.9303H133.811H137.703L137.656 24.9211L137.608 22.9282L129.522 22.8792C125.076 22.8628 121.389 22.8955 121.341 22.9608Z" fill="#75C86C"/>
<path d="M0.0963592 26.0047C0.353317 27.3968 1.07601 29.5346 1.83082 31.1089C4.57706 36.8097 9.45926 40.8366 15.5459 42.411C17.1198 42.8253 17.5855 42.8584 20.1872 42.875C22.3874 42.875 23.3992 42.8087 24.4431 42.5767C30.3531 41.2509 35.3638 37.4394 38.3831 31.9375C39.1218 30.5786 40.0533 28.0928 40.3905 26.535L40.6154 25.4413L38.8327 26.6676C37.8531 27.3471 36.2953 28.2917 35.3638 28.7723C33.6133 29.6837 31.0598 30.794 30.9474 30.678C30.9152 30.6449 31.1722 30.1643 31.5255 29.6174C32.2321 28.5071 33.0351 26.9162 32.9388 26.8002C32.8906 26.767 32.2482 26.9825 31.5094 27.2973C25.5834 29.75 18.9506 30.1809 12.7194 28.5237C11.7076 28.242 10.1659 27.7282 9.2826 27.3802C8.41537 27.0156 7.67661 26.7173 7.64449 26.7173C7.48389 26.7173 8.41537 28.6231 9.02564 29.5346C9.79651 30.6946 10.0695 30.8603 12.3822 31.4403C15.9635 32.3518 19.2397 32.6501 22.548 32.3684C24.8607 32.1695 28.0405 31.5895 29.775 31.026C30.2889 30.8603 30.7065 30.794 30.7065 30.8603C30.7065 31.142 28.5866 33.0147 27.4302 33.7604C23.9774 35.9811 19.4324 36.4451 15.6262 35.0033C13.6669 34.241 11.1616 32.5175 10.2462 31.2746C10.0053 30.9598 9.55562 30.6615 9.00958 30.4626C6.56848 29.6009 3.40469 27.9105 1.23661 26.303L0 25.375L0.0963592 26.0047Z" fill="#75C86C"/>
</svg>
