<svg width="150" height="44" viewBox="0 0 150 44" fill="none" xmlns="http://www.w3.org/2000/svg">
<g clip-path="url(#clip0_47_5875)">
<rect x="35" y="13" width="115" height="21" rx="5" fill="white"/>
<ellipse cx="22" cy="22" rx="21" ry="21" fill="white"/>
<path d="M20.3754 2.06709C19.8364 2.18467 19.6958 2.29204 19.2037 2.93622C18.7631 3.50883 18.374 4.09166 18.374 4.17347C18.3787 4.26038 19.7989 5.27778 20.038 5.3647C20.1739 5.41582 20.3239 5.39537 21.0082 5.24199C22.1097 4.99659 22.7518 4.90968 23.708 4.86878C24.1486 4.85344 24.5142 4.81765 24.5142 4.79209C24.5142 4.65916 24.3361 4.42398 23.9424 4.04054C23.4174 3.52417 23.2018 3.26854 23.2018 3.16118C23.2018 3.11516 23.319 2.9669 23.4596 2.82886C23.9705 2.33805 24.0924 2.20513 24.0924 2.15911C24.0924 2.01085 20.9801 1.93927 20.3754 2.06709Z" fill="#2B2A29"/>
<path d="M24.6107 2.06819C24.4078 2.17561 23.8728 2.70292 23.836 2.82498C23.7668 3.05446 24.6292 3.97726 25.1734 4.26533C25.3532 4.3581 25.6438 4.46551 25.819 4.49969C26.1788 4.57781 28.1434 4.7487 28.1803 4.70476C28.1941 4.69011 28.1111 4.43622 27.9912 4.13838C27.8713 3.84055 27.7698 3.53783 27.7652 3.46459C27.756 3.34253 27.7791 3.32788 28.1019 3.2107C28.291 3.14235 28.4939 3.04958 28.5538 3.00564C28.6599 2.9324 28.6507 2.92263 28.1388 2.75663C26.6307 2.25861 25.8052 2.04866 25.1964 2.0096C24.8413 1.99007 24.7306 1.99983 24.6107 2.06819Z" fill="#2B2A29"/>
<path d="M18.1245 2.72465C17.189 2.85798 15.3471 3.41986 13.4321 4.15317C13.1495 4.26269 12.8133 4.52458 12.7109 4.71505C12.6183 4.896 12.3016 6.4388 12.2626 6.89593L12.2334 7.27211L13.0813 7.33401C14.6162 7.44829 14.7818 7.44829 15.1229 7.36258C15.2983 7.31972 15.8538 7.09116 16.3557 6.85307C16.8625 6.61975 17.5642 6.33404 17.915 6.21976C18.8944 5.91025 19.177 5.74835 19.0114 5.60074C18.9188 5.51503 17.6567 4.73886 17.5008 4.6722C17.3839 4.61982 17.379 4.60077 17.4277 4.46744C17.457 4.38649 17.7834 3.9627 18.1538 3.51986C18.5241 3.08178 18.8262 2.71036 18.8262 2.69608C18.8262 2.66275 18.4656 2.67703 18.1245 2.72465Z" fill="#2B2A29"/>
<path d="M29.2181 3.47197C29.0128 3.53716 28.8122 3.59232 28.7749 3.59232C28.5836 3.59733 28.5649 3.66754 28.6769 4.04864C28.9008 4.84594 29.0035 4.95125 29.8666 5.29725C30.8743 5.69841 31.9147 6.22493 33.6456 7.20276C35.5491 8.27586 36.7948 8.89264 36.7948 8.76226C36.7948 8.58676 35.9597 7.69919 35.1106 6.96707C33.2024 5.33235 30.977 3.80293 29.9926 3.4469C29.6473 3.32154 29.6753 3.32154 29.2181 3.47197Z" fill="#2B2A29"/>
<path d="M11.9142 4.82314C11.1773 5.15263 9.72353 6.20011 8.27477 7.44921C7.15185 8.418 6.77588 8.89994 6.77588 9.38187C6.77588 9.50973 6.83102 9.84414 6.89619 10.1244C6.96637 10.3998 7.03656 10.7539 7.05159 10.9015C7.11676 11.4768 7.12178 11.4916 7.25713 11.4916C7.7083 11.4916 10.2298 10.8031 10.7963 10.5277C10.9267 10.4638 11.3127 10.1638 11.6485 9.86873C11.9894 9.56875 12.5759 9.09665 12.9569 8.82125C13.3379 8.54586 13.7891 8.22129 13.9595 8.09835C14.125 7.9754 14.2703 7.85246 14.2804 7.82295C14.2904 7.79345 13.8893 7.73444 13.1574 7.66067C12.5258 7.59674 11.9443 7.53281 11.8591 7.51806L11.7087 7.48363L11.9994 6.15585C12.1548 5.42311 12.2852 4.79855 12.2902 4.76413C12.2902 4.68053 12.205 4.69528 11.9142 4.82314Z" fill="#2E2D2D"/>
<path d="M23.6006 5.45855C21.9299 5.64646 19.4385 6.25837 17.9767 6.83174C16.2089 7.53038 14.2808 8.69157 12.7947 9.95395C12.2556 10.4117 11.1968 11.4572 10.7112 12.0065C8.04489 15.0516 6.49563 18.7472 6.1411 22.8957C6.07797 23.6377 6.07797 25.4397 6.1411 26.1239C6.48106 29.8147 7.88948 33.3175 10.2012 36.194C10.8034 36.9456 12.0273 38.1357 12.7218 38.6561C14.0428 39.639 15.4658 40.3521 17.3356 40.964C19.5065 41.6819 21.4346 41.9999 23.5861 41.9999C25.4656 41.9999 26.84 41.7687 28.2144 41.2242C28.7341 41.017 29.3314 40.7087 29.2877 40.6653C29.2731 40.6508 28.229 40.6364 26.9663 40.6316C24.4068 40.6219 24.2854 40.6123 22.8478 40.2365C20.1087 39.5234 17.8504 38.4104 15.8106 36.7625C15.1015 36.1844 13.834 34.9172 13.2512 34.1944C10.9589 31.3372 9.64758 28.056 9.34161 24.3893C9.27362 23.5606 9.31247 21.8694 9.41931 21.0503C9.85155 17.7161 11.1483 14.7095 13.3143 12.0306C15.8738 8.85539 19.4434 6.73056 23.6249 5.88737C24.3 5.75246 25.6015 5.57418 25.9318 5.57418C26.2815 5.57418 26.2232 5.49228 25.8298 5.43446C25.3539 5.367 24.334 5.37664 23.6006 5.45855Z" fill="#2B2A29"/>
<path d="M25.65 7.45089C25.4729 7.47098 25.291 7.51616 25.2432 7.54126C25.1666 7.59147 25.1762 7.60653 25.3293 7.67179C25.425 7.71196 25.7888 7.7973 26.1381 7.85253C28.2057 8.18388 30.3019 9.03233 32.0248 10.2372C33.3649 11.1761 34.2216 12.0095 35.7196 13.8269L36.0307 14.2034H37.6053C38.4715 14.2034 39.2612 14.1833 39.3617 14.1632C39.5196 14.1281 39.5388 14.108 39.5148 14.0126C39.4096 13.6411 38.5912 12.5768 37.677 11.6179C36.1599 10.0314 34.8342 9.16287 32.7715 8.42486C31.6276 8.01318 30.0195 7.65171 28.6508 7.5011C28.0094 7.43081 26.0472 7.39567 25.65 7.45089Z" fill="#367DE7"/>
<path d="M6.65112 8.98816C6.41565 9.24419 5.49263 10.6749 5.00286 11.5434C4.4142 12.5826 4.04688 13.4963 4.04688 13.913C4.04688 14.2292 4.71559 16.2373 4.8192 16.2373C4.94164 16.2373 7.17385 15.1529 7.44699 14.9622C7.51292 14.917 7.66361 14.6861 7.79076 14.4451C8.13454 13.7925 8.49245 13.2352 9.29774 12.0705C10.1172 10.8958 10.2584 10.6649 10.1595 10.6649C10.1266 10.6649 9.47198 10.8356 8.70908 11.0414C7.94617 11.2422 7.31513 11.4029 7.30571 11.3928C7.29629 11.3828 7.21152 10.8004 7.11734 10.0976C7.01844 9.38978 6.92896 8.7974 6.91013 8.78234C6.89129 8.76225 6.77827 8.85764 6.65112 8.98816Z" fill="#2B2A29"/>
<path d="M23.1167 10.162C20.5042 10.4096 17.8672 11.452 15.9175 13.0134C15.625 13.2466 15.5958 13.2799 15.6981 13.299C15.859 13.3228 16.2879 13.218 16.6876 13.0657C16.8728 12.9896 17.1604 12.9182 17.3213 12.8991C17.4821 12.8801 17.6966 12.8325 17.7989 12.7896C17.9354 12.742 18.0719 12.7277 18.3107 12.7515L18.6373 12.7849L18.8567 12.5469C18.9785 12.4183 19.1052 12.2755 19.1442 12.2327C19.193 12.1756 19.2515 12.1613 19.3636 12.1803C19.5537 12.2184 19.6219 12.2184 19.812 12.1803C19.9777 12.1518 20.0752 12.2279 19.9826 12.3184C19.9046 12.3945 19.9192 12.4469 20.0216 12.4469C20.1776 12.4469 20.2751 12.3898 20.3189 12.2755C20.3579 12.1803 20.6358 12.0185 20.7625 12.0185C20.8259 12.0185 21.1476 12.3089 21.1476 12.3707C21.1476 12.4374 20.7917 12.6373 20.665 12.6373C20.6114 12.6373 20.5578 12.6563 20.5383 12.6801C20.5236 12.7039 20.4408 12.7135 20.3482 12.6992C20.2117 12.6801 20.1727 12.6944 20.0801 12.8182C20.0265 12.8991 19.9777 12.9943 19.9777 13.0372C19.9777 13.1466 19.7194 13.2894 19.31 13.4084C18.9688 13.5036 18.9541 13.5132 18.7787 13.794C18.5447 14.1605 18.5106 14.4224 18.6617 14.6651C18.842 14.946 19.115 15.0364 19.7633 15.0459C20.5529 15.0602 20.6894 15.1507 20.8015 15.7504C20.8843 16.1884 21.1037 16.3407 21.2743 16.0884C21.3376 15.998 21.3474 15.9123 21.3182 15.7028C21.2792 15.3982 21.3376 15.2744 21.6009 15.1173C21.8105 14.9936 21.9128 14.7841 21.8299 14.6413C21.8007 14.5842 21.7568 14.5414 21.7325 14.5414C21.7081 14.5414 21.6496 14.489 21.6057 14.4224C21.5326 14.3129 21.5326 14.2938 21.6301 14.1463C21.7178 14.0082 21.7276 13.9511 21.6886 13.7559C21.6642 13.6274 21.6545 13.4989 21.6691 13.4656C21.7081 13.3656 22.5903 13.3942 22.8048 13.4989C23.1362 13.6607 23.3897 13.8702 23.3897 13.9892C23.3897 14.1843 23.5798 14.2843 23.9112 14.2653C23.9697 14.2605 24.077 14.1891 24.155 14.1129C24.3304 13.9273 24.5449 13.9178 24.5888 14.0844C24.6034 14.151 24.6716 14.2367 24.735 14.2748C24.7984 14.3176 24.8764 14.4366 24.9056 14.5461C24.9885 14.8079 25.1152 14.865 25.4759 14.7889C25.7293 14.7365 25.7683 14.7413 25.9731 14.8412C26.246 14.9698 26.3337 15.1364 26.3386 15.5267C26.3386 15.9218 26.2363 16.0646 25.8707 16.136C25.7245 16.1646 25.5295 16.2264 25.4369 16.274C25.3004 16.3502 25.2029 16.3597 24.8715 16.3312C24.3061 16.2883 23.8138 16.4406 23.3897 16.7834C23.2289 16.9214 23.107 17.0404 23.1216 17.0547C23.1362 17.069 23.2289 17.0071 23.3312 16.9119C23.6139 16.6406 24.2719 16.493 24.4182 16.6644C24.501 16.7596 24.423 16.8929 24.2719 16.9119L24.1647 16.9309L24.2622 17.0309C24.3158 17.088 24.4279 17.207 24.5059 17.2879C24.6278 17.4212 24.6814 17.445 24.8715 17.445C24.9885 17.445 25.1006 17.4641 25.1152 17.4879C25.1688 17.5688 25.0859 17.683 24.9787 17.683C24.7691 17.683 24.501 17.7878 24.3499 17.9258C24.1696 18.0924 24.0526 18.0876 24.0331 17.9115C24.0185 17.802 24.0477 17.7687 24.2281 17.6783C24.5205 17.5307 24.3743 17.5069 24.0575 17.6497C23.9161 17.7116 23.6919 17.7782 23.5554 17.7973C23.3507 17.8306 23.2873 17.8687 23.0973 18.0734C22.9754 18.2019 22.7366 18.4589 22.5611 18.6351C22.3856 18.8159 22.2004 19.0111 22.1419 19.073C22.0883 19.1349 22.0054 19.2015 21.9567 19.2301C21.9079 19.2586 21.8494 19.3967 21.8056 19.5918C21.6886 20.1393 21.4644 20.4534 20.9282 20.8247C20.5968 21.0532 20.5578 21.2103 20.7089 21.6863C20.86 22.1766 20.8941 22.5764 20.7869 22.6145C20.5919 22.6859 20.3384 22.3622 20.2214 21.8862C20.1532 21.5911 20.0801 21.5197 19.8754 21.5483C19.7876 21.5625 19.6122 21.534 19.4806 21.4816L19.2417 21.3959L18.9054 21.5387C18.7153 21.6197 18.4862 21.6815 18.3741 21.6815C17.95 21.6815 17.6771 21.7767 17.4578 21.9957C17.3408 22.1147 17.2482 22.2337 17.2482 22.267C17.2482 22.3051 17.1945 22.4384 17.1263 22.5669C16.9655 22.8763 16.9606 23.2333 17.1214 23.5618C17.3213 23.9807 17.5942 24.1568 18.0329 24.1568C18.3059 24.1568 18.4667 24.0426 18.4667 23.8522C18.4667 23.7855 18.5203 23.676 18.5788 23.6046C18.6763 23.4951 18.7446 23.4713 18.9883 23.4523C19.349 23.4285 19.3977 23.4809 19.2271 23.7236C19.154 23.8236 19.076 23.9759 19.0516 24.0664C18.9834 24.2901 18.9931 24.6138 19.0663 24.6709C19.0955 24.6947 19.2856 24.728 19.4806 24.7375C19.7876 24.7518 19.851 24.7709 19.968 24.8851C20.0947 25.0089 20.0996 25.0374 20.0996 25.4849C20.0996 25.9228 20.1093 25.9656 20.2214 26.0846C20.4018 26.2751 20.5285 26.3084 20.7674 26.2227C21.2012 26.0704 21.4741 26.2513 21.5229 26.7082C21.5521 27.0034 21.6057 27.1557 21.6837 27.1557C21.713 27.1557 21.7325 27.0938 21.7325 27.0224C21.7325 26.7511 22.0639 26.6083 22.2833 26.7796C22.3856 26.8558 22.4587 26.8748 22.566 26.851C22.6586 26.8367 22.7707 26.851 22.8535 26.8939C22.9315 26.932 23.1216 26.9653 23.2873 26.9653C23.4482 26.9653 23.5895 26.9843 23.609 27.0081C23.6237 27.0319 23.7017 27.0652 23.7796 27.0843C23.8625 27.1033 23.9259 27.1366 23.9259 27.1604C23.9259 27.2509 24.1257 27.3937 24.2476 27.3937C24.3353 27.3937 24.4425 27.4651 24.6083 27.6412L24.8374 27.884L25.2809 27.9173C25.8707 27.9601 26.0315 28.0601 26.285 28.5456C26.3825 28.736 26.4507 28.9312 26.4361 28.9693C26.4117 29.0312 26.48 29.055 26.8066 29.0978C27.1039 29.1406 27.3232 29.2073 27.6498 29.3644C27.8935 29.4834 28.225 29.6024 28.3858 29.6309C28.5467 29.6643 28.7904 29.7452 28.922 29.8166C29.0585 29.8927 29.2485 29.9641 29.3509 29.9832C29.5995 30.026 29.658 30.1736 29.5849 30.5354C29.5361 30.7686 29.502 30.8257 29.2144 31.0828C28.9074 31.3589 28.8927 31.3779 28.8245 31.7206C28.7368 32.1395 28.6295 32.3823 28.4004 32.7012C28.3078 32.8345 28.2006 33.0106 28.1665 33.0963C28.0982 33.2724 27.9422 33.3676 27.6547 33.4152C27.2842 33.4771 26.7968 33.6342 26.7091 33.7199C26.6603 33.7675 26.6067 33.896 26.5872 34.0055C26.5628 34.1578 26.5238 34.2245 26.4069 34.2911C26.324 34.3387 26.1485 34.4958 26.0218 34.6433C25.8561 34.8242 25.6611 34.9623 25.3881 35.1003C25.1737 35.2098 24.9495 35.3621 24.891 35.4383C24.7642 35.6097 24.579 35.6763 24.3207 35.643C24.1403 35.6192 24.1062 35.6335 23.9649 35.7858C23.8674 35.8857 23.726 35.9714 23.609 36.0047C23.38 36.0619 23.1314 36.2951 23.1557 36.4189C23.1801 36.5426 23.3507 36.5664 24.2427 36.576C25.8415 36.5855 27.4889 36.3141 28.8976 35.8191C29.3996 35.6382 31.247 34.7623 31.6516 34.5101C33.2649 33.5104 34.9222 31.8682 35.8775 30.3212C36.0237 30.0879 36.0627 29.9737 36.0871 29.6785C36.1407 29.1121 36.2528 28.6837 36.4673 28.2505C36.7403 27.7031 36.7646 27.3318 36.5745 26.7368C36.4429 26.3227 36.4381 26.2703 36.5307 25.7134C36.5697 25.4944 36.4868 25.3897 36.209 25.2992C36.0481 25.2469 35.975 25.2516 35.7313 25.3183C35.5753 25.3611 35.2244 25.4182 34.9612 25.442C34.698 25.4658 34.4347 25.4992 34.3763 25.5182C34.2983 25.5372 34.1715 25.442 33.7865 25.0755C33.5184 24.8185 33.2259 24.4995 33.1382 24.371C33.0505 24.2377 32.9237 24.0759 32.8506 23.9997C32.7434 23.8855 32.7336 23.8522 32.7824 23.7331C32.8214 23.6284 32.8165 23.5713 32.758 23.4761C32.6849 23.3571 32.6849 23.3428 32.7872 23.2095C32.9237 23.0239 32.9335 22.6954 32.797 22.4812C32.5825 22.1337 32.6264 21.7149 32.9189 21.4007C33.0066 21.3055 33.2113 21.0342 33.3722 20.8009C33.533 20.5629 33.7182 20.3201 33.7913 20.2583C33.8937 20.1631 33.9181 20.1012 33.9181 19.9155C33.9181 19.7108 33.9424 19.6585 34.1374 19.4443C34.269 19.3015 34.3421 19.1777 34.3275 19.1349C34.2788 19.0159 34.4347 19.0016 34.7174 19.1063L34.9904 19.2063L35.2146 19.0873C35.7215 18.8255 36.248 19.0254 36.5112 19.5776C36.6135 19.7822 37.1741 20.3011 37.3008 20.3011C37.4032 20.3011 37.4763 20.1916 37.4763 20.0441C37.4763 19.9631 37.3885 19.6347 37.2764 19.3158C37.1058 18.8112 37.0668 18.7398 37.0083 18.7969C36.9694 18.835 36.9401 18.9016 36.9401 18.9445C36.9401 19.073 36.8231 18.9968 36.7744 18.835C36.75 18.7541 36.633 18.5827 36.516 18.4589C36.3942 18.3304 36.2431 18.1162 36.1797 17.9782C36.0627 17.7259 35.975 17.6735 35.8678 17.802C35.7898 17.8925 35.702 17.8925 35.6241 17.802C35.5509 17.7164 35.4778 17.7497 35.4778 17.8734C35.4778 17.9544 35.4486 17.9972 35.2585 18.1495C35.2195 18.1828 35.1854 18.2876 35.1854 18.378C35.1854 18.5494 35.1123 18.7255 35.0197 18.7874C34.9904 18.8064 34.8929 18.8255 34.8052 18.8255C34.7174 18.8255 34.5956 18.8493 34.542 18.8778C34.4591 18.9207 34.4055 18.9159 34.2885 18.8635C34.2057 18.8255 34.074 18.7731 33.9912 18.7493C33.8693 18.7112 33.8401 18.6779 33.8303 18.5399C33.8206 18.4494 33.7767 18.3352 33.7377 18.2923C33.6695 18.2162 33.6695 18.1924 33.7426 18.04C33.7865 17.9496 33.8108 17.8544 33.7962 17.8306C33.7329 17.7259 33.6841 17.326 33.7329 17.2689C33.7962 17.1927 34.2057 17.2403 34.3178 17.3355C34.3616 17.3784 34.4689 17.3974 34.5858 17.3879C34.7321 17.3784 34.7759 17.3546 34.7857 17.2689C34.8198 17.0499 34.4299 16.5406 34.23 16.5406C34.1618 16.5406 34.1325 16.393 34.191 16.3407C34.2057 16.3216 34.2885 16.3312 34.3714 16.355C34.5566 16.4073 34.7613 16.3312 34.8247 16.1884C34.8491 16.1265 34.9222 16.0836 35.005 16.0741C35.1171 16.0598 35.1366 16.0408 35.1269 15.9313C35.1123 15.8123 35.122 15.8028 35.2975 15.8171C35.395 15.8266 35.4778 15.8123 35.4778 15.7933C35.473 15.6505 34.1764 14.1748 33.6646 13.7274C33.07 13.2038 32.3437 12.6421 31.8416 12.3136C31.3298 11.9804 30.4525 11.4949 30.3647 11.4949C30.3306 11.4949 30.2478 11.5377 30.1795 11.5901C30.1113 11.6424 30.0236 11.6853 29.9797 11.6853C29.9407 11.6853 29.8188 11.7805 29.7067 11.8947C29.5313 12.0756 29.4728 12.1042 29.2291 12.1327C28.8927 12.1756 28.8294 12.2375 28.8732 12.4897C28.8976 12.6373 28.8879 12.6849 28.8245 12.723C28.7514 12.7611 28.7465 12.7849 28.8001 12.9324C28.883 13.1466 28.8294 13.4227 28.688 13.5179C28.5369 13.6179 28.493 13.6084 28.2639 13.4227C28.0641 13.2609 28.0495 13.2561 27.6498 13.2561C27.4012 13.2561 27.1721 13.2276 27.0698 13.1895C26.8602 13.1038 26.4751 12.7563 26.3776 12.5707C26.3386 12.4897 26.1875 12.3136 26.0413 12.1803C25.8268 11.9852 25.7781 11.9138 25.7781 11.7852C25.7781 11.5758 25.8561 11.452 26.0364 11.3759C26.1875 11.3092 26.1826 11.3092 25.8756 11.3188C25.5636 11.3283 25.5587 11.3283 25.5441 11.1997C25.5246 11.0569 25.5782 11.0331 25.9731 11.0046L26.1924 10.9903L25.9536 10.9284C25.7927 10.8808 25.6611 10.8047 25.5392 10.6761C25.4418 10.5714 25.2858 10.4477 25.1883 10.4C24.7545 10.1763 23.9454 10.0859 23.1167 10.162ZM21.3328 11.2664C21.3474 11.3854 21.362 11.3902 21.4741 11.3473C21.5619 11.314 21.6204 11.3188 21.6691 11.3616C21.7227 11.4044 21.7715 11.3997 21.8836 11.333C22.1078 11.2045 22.3174 11.1569 22.4246 11.214C22.4831 11.2426 22.5075 11.295 22.4928 11.3378C22.4685 11.3949 22.5026 11.4044 22.6976 11.3902C22.8487 11.3806 22.9656 11.3997 23.0144 11.4378C23.0583 11.4758 23.1704 11.5044 23.2678 11.5044C23.3848 11.5044 23.4384 11.5282 23.4384 11.571C23.4384 11.6234 23.4774 11.6329 23.6042 11.6139C23.7991 11.5758 23.8723 11.652 23.7601 11.7757C23.6675 11.8757 23.6578 12.009 23.7455 12.0042C23.8381 11.9947 24.2281 12.1089 24.3646 12.1803C24.4328 12.2184 24.5936 12.2613 24.7204 12.2803C24.9202 12.3089 24.9543 12.3279 24.9397 12.4136C24.93 12.4707 24.8617 12.5469 24.7789 12.5897C24.7009 12.6278 24.618 12.6801 24.6034 12.7039C24.5693 12.7468 24.2183 12.6421 24.2183 12.5897C24.2183 12.5469 23.9892 12.4469 23.8966 12.4469C23.8576 12.4469 23.8333 12.4659 23.8528 12.4897C23.8966 12.5659 23.7748 12.6087 23.7212 12.5373C23.6822 12.4802 23.6773 12.4802 23.6919 12.5373C23.7017 12.5754 23.8723 12.6944 24.0721 12.8039C24.2914 12.9277 24.4377 13.0372 24.4377 13.0848C24.4377 13.1276 24.4182 13.1609 24.3938 13.1562C24.3694 13.1562 24.3353 13.18 24.3109 13.2133C24.2817 13.2656 24.2232 13.2609 24.0087 13.1942C23.6968 13.099 23.4774 13.0895 23.7504 13.1847C23.9892 13.2656 24.1598 13.4275 24.0916 13.4941C24.0575 13.5274 23.9844 13.5227 23.8625 13.4703C23.765 13.4322 23.6188 13.3989 23.5408 13.3989C23.4628 13.3989 23.3897 13.3704 23.3702 13.3275C23.3556 13.2847 23.2825 13.2561 23.1752 13.2561C23.0534 13.2561 22.99 13.2276 22.951 13.1609C22.9218 13.1086 22.8048 13.0181 22.6927 12.9658C22.4977 12.8658 22.4831 12.8658 22.2443 12.9467C21.9567 13.0419 21.7178 13.0276 21.6935 12.9182C21.6788 12.8325 21.9079 12.7182 22.0542 12.7373C22.1078 12.742 22.2345 12.7325 22.3466 12.7135C22.5172 12.6849 22.5416 12.6659 22.527 12.5754C22.5172 12.4993 22.5513 12.4469 22.6683 12.3755C22.7512 12.3231 22.8243 12.2613 22.8243 12.2327C22.8292 12.1756 22.3174 11.9042 22.0005 11.7995C21.8689 11.7567 21.7325 11.6996 21.6983 11.6758C21.6642 11.652 21.6301 11.652 21.6106 11.6853C21.596 11.7091 21.5375 11.7329 21.4839 11.7329C21.4303 11.7329 21.3376 11.7614 21.2792 11.7995C21.2109 11.8424 20.938 11.8757 20.4944 11.8995C19.8266 11.9328 19.8169 11.9328 19.8461 11.8328C19.8608 11.7757 19.851 11.7329 19.8266 11.7329C19.7584 11.7329 19.7779 11.5758 19.8608 11.4711C19.9192 11.3949 20.2458 11.2616 20.3823 11.2569C20.4018 11.2569 20.4164 11.3092 20.4164 11.3759C20.4164 11.4425 20.4652 11.5472 20.5188 11.6044L20.626 11.7091L20.5968 11.5853C20.5529 11.414 20.8015 11.1474 20.9721 11.1902C21.0354 11.2045 21.1037 11.195 21.1232 11.1617C21.1817 11.0665 21.3182 11.1331 21.3328 11.2664ZM33.7621 14.5318C33.7718 14.589 33.8108 14.6366 33.8498 14.6366C33.8888 14.6366 33.9522 14.708 33.9912 14.7889C34.0253 14.8746 34.1277 15.0078 34.2105 15.0888C34.2983 15.1649 34.4104 15.3173 34.464 15.422C34.5176 15.5267 34.6005 15.6552 34.6492 15.7076C34.6931 15.7599 34.7467 15.8647 34.7662 15.9361L34.8003 16.0741L34.4689 16.0408C34.2836 16.0218 34.0984 15.9742 34.0546 15.9313C33.9522 15.8456 33.9327 15.4981 34.0302 15.4029C34.0789 15.3553 34.0546 15.3125 33.9132 15.1935C33.8157 15.1078 33.7231 14.9936 33.7036 14.9364C33.6841 14.8841 33.6402 14.8222 33.6012 14.8079C33.5281 14.7794 33.4989 14.4938 33.5623 14.4271C33.6305 14.3652 33.7475 14.4224 33.7621 14.5318ZM33.4599 14.9031C33.533 14.9222 33.5964 15.0126 33.6597 15.184C33.7134 15.322 33.7426 15.4601 33.728 15.4839C33.689 15.5362 33.3527 15.5933 33.2552 15.5553C33.2162 15.541 33.1869 15.4648 33.1869 15.3791C33.1869 15.2982 33.1528 15.1887 33.1138 15.1411C33.0163 15.0126 33.0212 14.9698 33.1382 14.9698C33.1918 14.9698 33.2357 14.946 33.2357 14.9222C33.2357 14.8698 33.3088 14.865 33.4599 14.9031ZM20.9575 23.2048C21.0598 23.2571 21.1768 23.3 21.2207 23.3C21.2597 23.3 21.3376 23.3428 21.3913 23.3952C21.4449 23.4475 21.5131 23.4904 21.5375 23.4904C21.5667 23.4904 21.6691 23.5332 21.7666 23.5856C21.8689 23.6379 21.9908 23.6808 22.0395 23.6808C22.098 23.6808 22.1224 23.7093 22.1127 23.7617C22.1029 23.8188 22.0395 23.8474 21.9031 23.8522C21.7958 23.8617 21.6252 23.876 21.518 23.895C21.3425 23.9188 21.3328 23.914 21.3571 23.8141C21.3815 23.7236 21.3474 23.6808 21.1719 23.5713C21.0598 23.4999 20.9282 23.4428 20.8843 23.4428C20.8405 23.4428 20.743 23.4142 20.6699 23.3761C20.4359 23.2571 20.1922 23.2333 20.0655 23.319C20.007 23.3619 19.9192 23.3952 19.8705 23.3952C19.7097 23.3952 19.7779 23.2619 20.0021 23.1381C20.1873 23.0382 20.6894 23.0715 20.9575 23.2048ZM23.0583 23.8664C23.2191 23.9283 23.5018 24.1901 23.4628 24.252C23.4433 24.2806 23.3995 24.2853 23.3507 24.2615C23.2289 24.1996 22.8535 24.2472 22.8535 24.3234C22.8535 24.4281 22.7122 24.4472 22.6488 24.3472C22.6001 24.271 22.5318 24.252 22.332 24.252C22.137 24.252 22.0737 24.233 22.0737 24.1806C22.0737 24.1282 22.1273 24.1092 22.2686 24.1092C22.4782 24.1092 22.5465 23.9997 22.3661 23.9521C22.3125 23.9378 22.2686 23.9045 22.2686 23.876C22.2686 23.8141 22.8925 23.8046 23.0583 23.8664ZM24.0672 24.1854C24.116 24.2282 23.999 24.2996 23.882 24.2996C23.7212 24.2996 23.6773 24.2663 23.7163 24.1758C23.7358 24.1235 23.7845 24.114 23.8966 24.1378C23.9795 24.152 24.0575 24.1758 24.0672 24.1854Z" fill="#367DE7"/>
<path d="M3.05743 15.1832C2.46054 16.8225 1.91747 19.498 2.01043 20.3301C2.07403 20.8632 2.11317 20.9379 2.72474 21.6404C3.04275 22.0091 3.3412 22.323 3.38034 22.338C3.42926 22.3579 3.72771 22.0789 4.3246 21.4461C4.99977 20.7336 5.22482 20.4596 5.32757 20.2354C5.39606 20.0809 5.59176 19.4781 5.75811 18.9051C6.0908 17.7492 6.15441 17.5648 6.43328 16.9171C6.65344 16.394 6.80511 15.9505 6.77087 15.9157C6.75619 15.9007 6.27672 16.11 5.6994 16.384C4.59858 16.9121 4.124 17.0915 4.05062 17.0118C4.03105 16.9869 3.84024 16.5086 3.62986 15.9456C3.41948 15.3825 3.23356 14.9042 3.21399 14.8843C3.19442 14.8594 3.12103 14.9939 3.05743 15.1832Z" fill="#2B2A29"/>
<path d="M42.252 23.6949V31.8305H44.3728H46.4936L46.4985 30.2274C46.5034 29.3513 46.5082 28.6051 46.518 28.5811C46.5229 28.5522 46.5326 27.7146 46.5326 26.7133L46.5424 24.8936L46.7276 24.9273C47.1811 25.0043 47.5418 25.2546 47.7222 25.6109C47.8344 25.8371 47.8344 25.8564 47.8636 28.0515C47.8831 29.9145 47.9026 30.3285 47.9758 30.6463C48.0782 31.094 48.2342 31.4598 48.4146 31.6716L48.5511 31.8305H50.5159H52.4856L52.3686 31.6235C51.9883 30.9543 51.9395 30.55 51.9347 28.0756C51.9298 26.203 51.92 25.9478 51.842 25.6734C51.7153 25.2354 51.5592 24.9562 51.2716 24.6432C50.862 24.2004 50.2575 23.9019 49.4189 23.7334L49.102 23.666L49.4433 23.6034C50.8523 23.3387 51.6714 22.6118 51.8908 21.4227C51.9493 21.0954 51.959 20.7343 51.9347 19.3864C51.8957 17.1527 51.9688 16.4114 52.2954 15.8096L52.432 15.5593H50.4671H48.5023L48.3561 15.7856C48.1805 16.06 48.0294 16.4788 47.9563 16.912C47.927 17.0805 47.8734 18.1733 47.8344 19.3383C47.7661 21.5816 47.7564 21.6827 47.5077 22.01C47.3858 22.1737 47.0104 22.3711 46.7276 22.4192L46.5424 22.4481L46.5326 20.6284C46.5326 19.6271 46.5229 18.7847 46.518 18.7606C46.5082 18.7317 46.5034 18.0048 46.4985 17.1335L46.4936 15.5593H44.3728H42.252V23.6949Z" fill="#367DE7"/>
<path d="M92.3608 18.3C91.2685 18.4607 90.4306 18.8248 89.8271 19.3969C89.3433 19.8555 89.059 20.3519 88.8794 21.0563C88.66 21.8932 88.645 22.1721 88.645 25.1932C88.645 27.7368 88.655 28.1434 88.7348 28.6209C89.0939 30.8051 90.3009 31.6987 93.0342 31.8216C95.4682 31.9256 97.129 31.1125 97.8323 29.4719C98.1415 28.7391 98.1964 28.0677 98.1964 24.8386C98.1964 21.5622 98.1565 21.1934 97.7475 20.4181C97.3385 19.6522 96.8298 19.1841 95.9769 18.787C95.1539 18.3993 94.4108 18.2622 93.2187 18.2716C92.8147 18.2764 92.4307 18.2858 92.3608 18.3ZM93.6826 20.6025C93.912 20.6923 93.9519 20.7868 94.0118 21.3542C94.0866 22.0728 94.0467 28.914 93.9669 29.1504C93.8821 29.3915 93.6975 29.5192 93.4282 29.5192C93.114 29.5192 92.9244 29.3442 92.8596 28.9896C92.8247 28.8194 92.8097 27.3444 92.8197 24.8528C92.8347 21.2218 92.8397 20.976 92.9244 20.8294C93.0142 20.6734 93.2437 20.541 93.4232 20.5363C93.4731 20.5363 93.5878 20.5646 93.6826 20.6025Z" fill="#367DE7"/>
<path d="M74.3179 23.6949V31.8305H76.1422H77.9666L77.9714 26.4726C77.9714 23.5312 77.9858 21.1483 78.0002 21.1868C78.0146 21.2205 78.3651 23.6275 78.778 26.5303L79.5317 31.8064L80.8376 31.8209C81.5577 31.8257 82.1434 31.816 82.1434 31.7968C82.1386 31.7246 83.5549 20.9558 83.5693 20.9702C83.5741 20.975 83.5837 22.9921 83.5933 25.4568C83.5981 27.9167 83.6125 30.3574 83.6221 30.8821L83.6413 31.8305H85.4609H87.2805V23.6949V15.5593H84.5439H81.8122L81.7834 15.7134C81.769 15.8 81.5529 17.4945 81.3033 19.4779C81.0536 21.4612 80.8424 23.0932 80.8328 23.1028C80.8232 23.1124 80.5831 21.4757 80.2999 19.4731C80.0166 17.4656 79.7718 15.7663 79.7574 15.6893L79.7334 15.5593H77.0256H74.3179V23.6949Z" fill="#367DE7"/>
<path d="M99.5605 23.6949V31.8305H107.065H114.57V23.6949V15.5593H112.473H110.377V22.0581V28.557H109.757H109.138V22.0581V15.5593H107.065H104.992V22.0581V28.557H104.349H103.706V22.0581V15.5593H101.633H99.5605V23.6949Z" fill="#2B2A29"/>
<path d="M12.553 17.0238C12.3837 17.2631 11.7488 18.7088 11.5607 19.2784C10.7377 21.7868 10.6484 24.3286 11.2974 26.9088C12.4683 31.5521 16.1364 35.2428 20.7968 36.4491C21.5257 36.6405 21.5492 36.6358 21.5116 36.2959C21.4975 36.1906 21.4739 35.9847 21.4551 35.8363C21.4316 35.6209 21.4457 35.5252 21.5304 35.3241C21.615 35.1231 21.6291 35.0274 21.6056 34.8215C21.5774 34.6157 21.5915 34.5247 21.6762 34.3285C21.7655 34.1274 21.7843 34.0077 21.7843 33.5147C21.789 32.8302 21.7843 32.8206 21.2717 32.5477C20.7779 32.2845 20.2889 31.7675 20.0396 31.2409C19.8797 30.901 19.7998 30.7957 19.6164 30.6617C19.4847 30.566 19.386 30.4559 19.386 30.4032C19.3813 30.3553 19.3671 30.2787 19.3483 30.2357C19.3248 30.1782 19.3577 30.116 19.4471 30.0298L19.5788 29.9006L19.4612 29.8096C19.3483 29.7235 19.3483 29.7187 19.4283 29.5464C19.4706 29.4554 19.5082 29.3309 19.5082 29.2783C19.5082 29.2256 19.5929 29.1012 19.701 29.0054C19.9738 28.7565 19.9973 28.6943 20.0255 28.1821C20.049 27.756 20.0631 27.713 20.2277 27.4688C20.3218 27.33 20.4017 27.1864 20.4017 27.1481C20.4017 27.1098 20.4817 27.0476 20.5804 27.0093C20.9002 26.8705 20.9755 26.8035 20.919 26.6934C20.8767 26.6215 20.8297 26.6024 20.7168 26.612C20.5945 26.6215 20.5616 26.6503 20.5522 26.7556C20.5334 26.9231 20.4111 26.9662 20.2889 26.8465C20.2324 26.7987 19.9879 26.6598 19.7434 26.545C19.2496 26.3056 19.1837 26.2482 19.0662 25.9179C18.9674 25.6498 18.8687 25.5876 18.342 25.4535C18.0081 25.3674 17.961 25.3434 17.7635 25.1137L17.5472 24.8648L17.3403 24.9174C17.1334 24.9701 17.124 24.9701 16.4045 24.6015C15.8354 24.3143 15.6567 24.1994 15.5721 24.0701C15.511 23.9792 15.4639 23.8691 15.4639 23.8212C15.4639 23.5914 15.2523 23.1798 15.0125 22.9308C14.8714 22.792 14.7585 22.6436 14.7585 22.6053C14.7585 22.567 14.6645 22.4043 14.5469 22.2415C14.4293 22.0836 14.3165 21.8681 14.2883 21.7676C14.2318 21.5618 14.1566 21.4852 14.1002 21.5761C14.0484 21.6623 14.1237 21.9543 14.2365 22.0979C14.434 22.3516 14.5704 22.6197 14.6127 22.8303C14.6316 22.9548 14.6974 23.108 14.7538 23.1798C14.8761 23.3425 14.8808 23.3952 14.7585 23.3952C14.641 23.3952 14.4011 23.0697 14.3635 22.8495C14.3447 22.7394 14.2789 22.6436 14.1707 22.5575C14.0437 22.4617 14.0061 22.3995 14.0061 22.2798C14.0061 22.1889 13.945 22.0405 13.865 21.916C13.7851 21.8011 13.7239 21.6432 13.7239 21.5666C13.7239 21.3081 13.6111 21.1166 13.4042 21.0352C13.2349 20.9682 13.2066 20.9347 13.1831 20.7767C13.169 20.6762 13.1079 20.4321 13.0562 20.2358C12.9198 19.7571 12.9245 19.13 13.0609 18.7327C13.1972 18.345 13.1878 17.986 13.0374 17.6269C12.9715 17.469 12.8822 17.2488 12.8398 17.1387C12.7411 16.8802 12.6705 16.8515 12.553 17.0238Z" fill="#58BCE9"/>
<path d="M36.1123 17.5985C36.1123 17.625 36.2153 17.7439 36.3455 17.8629C36.4702 17.9818 36.6112 18.1316 36.66 18.1889C36.7793 18.3343 36.8443 18.2726 36.7467 18.114C36.6491 17.973 36.1123 17.5325 36.1123 17.5985Z" fill="#2E2D2D"/>
<path d="M56.6117 18.326C54.9847 18.6147 53.8817 19.4618 53.4624 20.7442C53.178 21.6292 53.168 21.7475 53.168 25.1642C53.168 28.6094 53.1829 28.8034 53.4724 29.5748C53.7819 30.384 54.3059 30.9708 55.0396 31.3115C56.3173 31.9031 58.5532 32.0072 60.0256 31.5292C60.9988 31.2169 61.7075 30.6395 62.1866 29.7735C62.6258 28.9738 62.6807 28.5431 62.7107 25.3961C62.7456 22.0456 62.6857 21.2979 62.3314 20.5549C61.8023 19.4476 60.894 18.7708 59.4466 18.4112C59.0174 18.3071 58.8327 18.2881 57.9842 18.2739C57.2705 18.2645 56.9062 18.2787 56.6117 18.326ZM58.3137 20.678C58.3885 20.749 58.4534 20.8862 58.4833 21.0566C58.5183 21.2317 58.5333 22.6561 58.5233 25.221C58.5083 28.8365 58.5033 29.1252 58.4185 29.2672C58.3087 29.4612 58.1939 29.518 57.9094 29.518C57.7347 29.518 57.6499 29.4896 57.56 29.4044C57.3204 29.1773 57.3204 29.1489 57.3005 25.415C57.2805 21.9746 57.3055 21.0708 57.4352 20.801C57.57 20.5218 58.0791 20.4508 58.3137 20.678Z" fill="#367DE7"/>
<path d="M66.7077 18.341C65.7301 18.5159 64.9226 18.932 64.2708 19.5893C63.8741 19.9913 63.6569 20.4263 63.5105 21.1025C63.4019 21.5895 63.4019 21.6463 63.4019 24.8145C63.4019 27.7321 63.4113 28.0773 63.4869 28.5265C63.7561 30.0302 64.3511 30.905 65.4657 31.411C66.4952 31.8744 68.252 31.9689 69.4563 31.619C70.4292 31.3353 71.0903 30.8199 71.6382 29.9073C72.0632 29.198 72.1718 28.6731 72.2379 27.0464L72.271 26.2094H70.4906H68.7148V27.3822C68.7148 28.9142 68.644 29.2878 68.337 29.4486C68.0064 29.6188 67.6664 29.4959 67.487 29.1412C67.3075 28.7866 67.2933 28.4414 67.3075 24.6915C67.3264 20.6675 67.3169 20.7762 67.6286 20.6154C67.827 20.5114 68.1103 20.5351 68.252 20.6627C68.4693 20.8566 68.4976 21.0079 68.5165 22.2468L68.5354 23.4195H70.4008H72.271L72.2379 22.7906C72.1766 21.6463 72.0349 20.8897 71.7657 20.3223C71.2934 19.3151 70.1553 18.5585 68.7857 18.3362C68.2567 18.2464 67.2083 18.2511 66.7077 18.341Z" fill="#367DE7"/>
<path d="M141.943 18.3409C140.912 18.5158 140.083 18.9082 139.409 19.5463C139.052 19.8867 138.801 20.3263 138.655 20.8699C138.539 21.3001 138.449 22.2266 138.449 22.9971V23.5596H140.429H142.41L142.43 22.2691C142.445 21.4702 142.475 20.9361 142.511 20.8557C142.591 20.6714 142.792 20.5674 143.053 20.5674C143.531 20.5674 143.702 20.8652 143.752 21.8153C143.792 22.5055 143.722 23.1483 143.586 23.3232C143.466 23.4792 142.697 23.8385 141.691 24.2166C140.032 24.8453 139.203 25.2708 138.901 25.6537C138.554 26.1027 138.419 26.9725 138.464 28.523C138.514 30.3807 138.801 30.9999 139.821 31.4726C140.786 31.917 141.857 31.9501 142.712 31.5577C143.048 31.4064 143.501 30.9999 143.707 30.6738L143.853 30.4374L143.868 31.0141L143.883 31.5955H145.939H148V28.1543C147.995 23.4792 147.93 21.4277 147.744 20.6525C147.608 20.0852 147.186 19.4849 146.653 19.102C146.095 18.7002 145.446 18.4591 144.582 18.3362C143.968 18.2464 142.485 18.2511 141.943 18.3409ZM143.732 28.816C143.707 29.0382 143.657 29.2651 143.622 29.3171C143.466 29.5487 142.973 29.5913 142.727 29.3927C142.516 29.2273 142.465 29.0335 142.435 28.2157C142.405 27.4263 142.475 26.7692 142.621 26.4572C142.727 26.2256 143.028 25.9089 143.451 25.578L143.752 25.3417L143.767 26.8732C143.772 27.7146 143.757 28.5891 143.732 28.816Z" fill="#2B2A29"/>
<path d="M116.617 25.0508V31.8305L118.491 31.8207L120.366 31.806L121.778 28.1984C122.555 26.2159 123.205 24.576 123.224 24.5564C123.244 24.5368 123.259 26.1669 123.259 28.1739V31.8305H125.055H126.85V25.0508V18.2712L124.927 18.281L123.003 18.2956L121.62 21.869L120.233 25.4424L120.218 21.8544L120.208 18.2712H118.413H116.617V25.0508Z" fill="#2B2A29"/>
<path d="M128.215 25.0508V31.8305H130.227H132.239L132.249 29.3193L132.263 26.8131L132.981 26.7984L133.694 26.7837V29.3095V31.8305H135.73H137.766V25.0508V18.2712H135.73H133.694V20.6942V23.1173H132.966H132.239V20.6942V18.2712H130.227H128.215V25.0508Z" fill="#2B2A29"/>
<path d="M4.51109 21.8161C4.01623 22.281 3.59712 22.6635 3.57187 22.6635C3.55167 22.6635 3.33454 22.4408 3.09721 22.1647C2.85988 21.8936 2.54175 21.5546 2.38522 21.4093L2.10749 21.1478L2.04689 21.2883C1.90046 21.6466 2.12264 24.1405 2.35997 24.8281C2.49631 25.2203 2.86493 25.7482 3.2588 26.121L3.56177 26.4067L3.70316 26.3196C3.95059 26.1646 4.58179 25.5545 4.80397 25.2542C5.19279 24.7312 5.17259 24.8233 5.30388 22.8233C5.36952 21.8161 5.42002 20.988 5.40992 20.9832C5.40487 20.9735 5.0009 21.3512 4.51109 21.8161Z" fill="#2B2A29"/>
<path d="M4.3261 26.4311C3.98333 26.8133 3.66225 27.1525 3.61019 27.1764C3.51473 27.2338 3.47135 27.186 3.02011 26.5553C2.92899 26.4311 2.81184 26.3069 2.76411 26.2734C2.673 26.2209 2.66866 26.2256 2.69903 26.4645C2.76845 27.0331 3.21535 28.6432 3.46701 29.2165C3.57982 29.4793 3.6232 29.5271 4.03539 29.8281C4.28271 30.0049 4.56039 30.2151 4.65585 30.2915C4.7513 30.368 4.89014 30.4444 4.9639 30.4635C5.08973 30.4922 5.10275 30.4779 5.18519 30.2581C5.44552 29.594 5.47155 29.1783 5.31101 28.304C5.1982 27.6877 5.04634 26.6604 4.9856 26.0871L4.95089 25.7288L4.3261 26.4311Z" fill="#2B2A29"/>
<path d="M4.06093 30.5719C4.26897 31.2095 4.94512 32.3086 5.35601 32.6797C5.7409 33.027 6.85394 33.7312 7.21802 33.8597C7.35325 33.9025 7.48848 33.6456 7.45207 33.4124C7.43647 33.3125 7.28563 32.9652 7.114 32.6464C6.94236 32.3228 6.6719 31.7186 6.50546 31.2999C6.33903 30.8812 6.1986 30.5291 6.18819 30.5196C6.12058 30.4529 5.89173 30.6433 5.7513 30.8907C5.63167 31.0905 5.54845 31.1809 5.48084 31.1809C5.34561 31.1809 5.01794 31.0239 4.53943 30.7242C4.08693 30.4387 4.00892 30.4149 4.06093 30.5719Z" fill="#2B2A29"/>
<path d="M36.3521 32.5833C36.2071 32.6333 36.0331 32.788 35.6755 33.1923C35.4145 33.4869 34.9408 33.991 34.6267 34.3155C32.6837 36.3072 30.2188 37.7148 27.4445 38.4187C26.1057 38.7581 25.9414 38.7731 23.6891 38.7631C21.8719 38.7531 21.6785 38.7631 21.8235 38.828C22.4567 39.1025 23.5006 39.2473 25.1874 39.2822C26.6277 39.3072 27.3962 39.2573 28.5562 39.0476C31.3159 38.5485 33.8147 37.3704 36.0766 35.5085C36.6373 35.0443 37.8746 33.8463 38.2515 33.402C38.4932 33.1125 38.8412 32.6033 38.8412 32.5334C38.8412 32.5185 38.324 32.5085 37.6957 32.5085C36.8451 32.5135 36.4971 32.5284 36.3521 32.5833Z" fill="url(#paint0_linear_47_5875)"/>
<path d="M6.09375 33.8726C6.09375 33.9279 6.41344 34.398 6.69203 34.7483C7.06652 35.223 8.30875 36.4813 8.9253 37.0113C9.58295 37.5782 10.2817 38.0714 10.1767 37.8963C10.1584 37.864 9.68342 37.2095 9.12168 36.4398C8.55537 35.6701 7.98449 34.8497 7.84748 34.6193C7.71047 34.3842 7.55976 34.1584 7.51409 34.1123C7.43188 34.0293 7.42732 34.0293 7.29944 34.2044C7.23094 34.3012 7.15786 34.398 7.1396 34.4165C7.10306 34.4626 6.89754 34.3612 6.55045 34.1261C6.2536 33.9233 6.09375 33.8357 6.09375 33.8726Z" fill="#2B2A29"/>
</g>
<defs>
<linearGradient id="paint0_linear_47_5875" x1="30.3132" y1="39.2881" x2="30.3132" y2="32.5085" gradientUnits="userSpaceOnUse">
<stop stop-color="#4169E1"/>
<stop offset="0.0001" stop-color="#58BCE9"/>
<stop offset="1" stop-color="#367DE7"/>
</linearGradient>
<clipPath id="clip0_47_5875">
<rect width="150" height="44" fill="white"/>
</clipPath>
</defs>
</svg>
