<svg width="260" height="50" viewBox="0 0 260 50" fill="none" xmlns="http://www.w3.org/2000/svg">
<rect width="260" height="50" rx="5" fill="white"/>
<path d="M179.82 25.6998V34.8838H182.75H185.68L185.688 29.4612L185.699 24.0426L185.902 24.0307L186.102 24.0187L186.203 24.3301C186.281 24.5737 189.297 34.5364 189.375 34.8119C189.395 34.8798 189.535 34.8838 191.609 34.8838H193.824L195.465 29.4612L197.109 24.0426L197.313 24.0307L197.516 24.0187V29.4492V34.8838H200.465H203.414V25.6998V16.5117L199.969 16.5277C196.125 16.5397 196.375 16.5237 195.758 16.8232C195.531 16.935 195.391 17.0468 195.129 17.3104C194.617 17.8374 194.461 18.1848 193.938 20.0097C193.598 21.1996 192.113 26.4305 191.906 27.1652L191.848 27.3768H191.617H191.387L191.309 27.1053C191.266 26.9576 190.793 25.2725 190.254 23.3638C188.922 18.6121 188.918 18.6041 188.664 18.077C188.473 17.6777 188.402 17.5739 188.105 17.2744C187.844 16.9989 187.707 16.8951 187.477 16.7833C186.918 16.5117 186.965 16.5157 183.199 16.5157H179.82V25.6998Z" fill="#038F00"/>
<path d="M205.875 25.6997V34.8877L208.855 34.8757L211.832 34.8637L212.113 34.7559C213 34.4205 213.582 33.9094 213.977 33.1268C214.07 32.9391 215.012 30.8148 216.07 28.403L217.996 24.0186L218.234 24.0306L218.473 24.0426L218.484 29.4611L218.492 34.8837H221.48H224.469V25.6997V16.5156L221.492 16.5236L218.512 16.5356L218.227 16.6434C218.07 16.6993 217.816 16.8231 217.66 16.9189C217.312 17.1266 216.758 17.6856 216.574 18.013C216.5 18.1448 215.516 20.3051 214.391 22.8167L212.348 27.3807L212.109 27.3688L211.871 27.3568L211.859 21.9342L211.852 16.5156H208.863H205.875V25.6997Z" fill="#038F00"/>
<path d="M232.086 20.1453V23.775L232.215 23.8189C232.281 23.8429 232.5 23.9028 232.691 23.9467C233.031 24.0305 233.152 24.0345 236.383 24.0625C242.293 24.1144 245.668 24.1104 245.691 24.0505C245.754 23.8788 245.805 23.1521 245.785 22.6689C245.723 21.0397 245.098 19.5903 243.965 18.4283C243.078 17.5258 242.105 16.9788 240.875 16.7033C240.09 16.5236 239.867 16.5156 235.875 16.5156H232.086V20.1453Z" fill="#1E60AA"/>
<path d="M226.891 30.0717V34.8833H229.742H232.594V32.1481V29.4128H235.828C237.648 29.4128 239.254 29.3929 239.508 29.3729C242.121 29.1413 244.297 27.6439 245.207 25.4477L245.285 25.26H236.09H226.891V30.0717Z" fill="#038F00"/>
<path d="M136.202 21.3236C136.162 24.5148 139.009 26.2955 141.153 27.3543C143.355 28.4406 144.095 29.1373 144.087 30.1088C144.07 31.5955 142.329 32.2517 140.701 32.2772C137.859 32.3218 136.206 31.4996 134.893 30.8778L133.869 35.7324C135.187 36.3479 137.627 36.8846 140.158 36.9082C146.099 36.9082 149.985 33.9365 150.006 29.329C150.029 23.4815 142.025 23.1578 142.08 20.5441C142.098 19.7516 142.845 18.9059 144.48 18.6908C145.289 18.5822 147.523 18.4991 150.057 19.6812L151.051 14.9842C149.689 14.4815 147.938 14.0002 145.758 14.0002C140.167 14.0002 136.234 17.0124 136.202 21.3236ZM160.604 14.4048C159.519 14.4048 158.605 15.046 158.197 16.03L149.712 36.5632H155.648L156.829 33.2548H164.083L164.768 36.5632H170L165.434 14.4048H160.604ZM161.435 20.3906L163.148 28.7113H158.456L161.435 20.3906ZM129.005 14.4051L124.326 36.5629H129.983L134.66 14.4045H129.005V14.4051ZM120.637 14.4045L114.749 29.4867L112.368 16.6629C112.088 15.2314 110.985 14.4048 109.759 14.4048H100.135L100 15.0482C101.976 15.4827 104.221 16.1835 105.581 16.9334C106.413 17.3915 106.651 17.7919 106.924 18.8804L111.435 36.5632H117.413L126.577 14.4048H120.637" fill="url(#paint0_linear_203_1485)"/>
<path d="M81.4077 34.1746H70.5918V15.5342H81.4077V34.1746Z" fill="#6C6BBD"/>
<path d="M71.2786 24.8549C71.2786 21.0735 73.1247 17.7053 75.9997 15.5347C73.8973 13.9474 71.2438 13 68.3603 13C61.5338 13 56 18.3075 56 24.8549C56 31.4022 61.5338 36.7096 68.3603 36.7096C71.2439 36.7096 73.8973 35.7622 75.9997 34.175C73.1247 32.0044 71.2786 28.6361 71.2786 24.8549Z" fill="#D32011"/>
<path d="M95.9995 24.8549C95.9995 31.4022 90.4657 36.7096 83.6392 36.7096C80.7556 36.7096 78.1021 35.7622 75.999 34.175C78.8748 32.0044 80.7209 28.6361 80.7209 24.8549C80.7209 21.0735 78.8748 17.7053 75.999 15.5347C78.1021 13.9474 80.7557 13 83.6392 13C90.4657 13 95.9995 18.3075 95.9995 24.8549Z" fill="#0099DF"/>
<path d="M85.3139 24.785C85.4577 24.785 85.6644 24.8114 85.8223 24.8709L85.6023 25.5161C85.4514 25.4566 85.3005 25.437 85.1559 25.437C84.6891 25.437 84.4556 25.7263 84.4556 26.2464V28.0115H83.7412V24.8641H84.4486V25.2462C84.6341 24.9696 84.902 24.785 85.3139 24.785ZM82.6747 25.4897H81.5075V26.9118C81.5075 27.2277 81.6239 27.4387 81.9816 27.4387C82.167 27.4387 82.4003 27.3792 82.6127 27.2608L82.8184 27.8465C82.5922 27.9979 82.2353 28.0908 81.9264 28.0908C81.0816 28.0908 80.7869 27.6558 80.7869 26.9247V25.4897H80.1205V24.8641H80.7869V23.9092H81.5075V24.8641H82.6747V25.4897ZM73.535 26.1613C73.6112 25.7068 73.8991 25.3971 74.4075 25.3971C74.8672 25.3971 75.1627 25.6735 75.2381 26.1613H73.535ZM75.9802 26.4379C75.973 25.4564 75.3411 24.785 74.4208 24.785C73.4597 24.785 72.7869 25.4566 72.7869 26.4377C72.7869 27.4379 73.4872 28.0899 74.4695 28.0899C74.9639 28.0899 75.4166 27.9715 75.815 27.649L75.4645 27.1418C75.1903 27.3528 74.8397 27.4712 74.5105 27.4712C74.0506 27.4712 73.6317 27.2669 73.5287 26.701H75.9659C75.973 26.615 75.98 26.5297 75.98 26.4379H75.9802ZM79.1177 25.6676C78.9187 25.5484 78.5139 25.3969 78.095 25.3969C77.7036 25.3969 77.4702 25.5357 77.4702 25.7663C77.4702 25.9765 77.717 26.036 78.0259 26.0753L78.3623 26.1213C79.0767 26.2208 79.5089 26.5103 79.5089 27.0635C79.5089 27.6625 78.9595 28.0906 78.0125 28.0906C77.4766 28.0906 76.9822 27.9588 76.5906 27.6822L76.9272 27.1486C77.1677 27.3264 77.5253 27.4779 78.0195 27.4779C78.5069 27.4779 78.7678 27.3401 78.7678 27.0958C78.7678 26.9187 78.5823 26.8192 78.1909 26.7672L77.8545 26.7212C77.1197 26.6217 76.7212 26.3059 76.7212 25.7927C76.7212 25.1671 77.2572 24.785 78.088 24.785C78.6098 24.785 79.0837 24.8974 79.4264 25.1143L79.1175 25.6676H79.1177ZM87.9239 25.4353C87.777 25.4353 87.6411 25.4603 87.5145 25.5093C87.392 25.5569 87.2808 25.6276 87.1875 25.7173C87.0937 25.8092 87.0199 25.9181 86.9706 26.0377C86.918 26.162 86.892 26.2991 86.892 26.4484C86.892 26.5984 86.918 26.7347 86.9706 26.8591C87.0233 26.9835 87.0956 27.0906 87.1875 27.1794C87.2808 27.2691 87.392 27.3399 87.5145 27.3874C87.6411 27.4372 87.777 27.4613 87.9239 27.4613C88.0708 27.4613 88.2077 27.4373 88.3333 27.3874C88.4563 27.3401 88.5681 27.2693 88.6619 27.1794C88.7555 27.0906 88.8278 26.9835 88.8812 26.8591C88.9339 26.7347 88.9598 26.5984 88.9598 26.4484C88.9598 26.2991 88.9339 26.162 88.8812 26.0377C88.8278 25.9133 88.7555 25.8063 88.6619 25.7173C88.5682 25.6274 88.4564 25.5567 88.3334 25.5093C88.2033 25.4594 88.0642 25.4343 87.9241 25.4355L87.9239 25.4353ZM87.9239 24.785C88.1786 24.785 88.4144 24.8272 88.6312 24.9124C88.841 24.9924 89.0322 25.1112 89.1941 25.2621C89.3534 25.4118 89.4798 25.5907 89.5658 25.788C89.6553 25.9909 89.7001 26.211 89.7001 26.4484C89.7001 26.6857 89.6553 26.9058 89.5658 27.1086C89.4797 27.3062 89.3533 27.4854 89.1939 27.6354C89.0361 27.7839 88.8481 27.9 88.6314 27.9851C88.4142 28.0696 88.1786 28.1117 87.9239 28.1117C87.6692 28.1117 87.4334 28.0696 87.2166 27.9851C86.9997 27.9 86.8134 27.7839 86.6562 27.6354C86.4978 27.4849 86.372 27.3059 86.2859 27.1086C86.1964 26.9058 86.1516 26.6857 86.1516 26.4484C86.1516 26.211 86.1964 25.9909 86.2859 25.7882C86.372 25.5911 86.4978 25.4123 86.6562 25.2621C86.817 25.1111 87.0075 24.9922 87.2166 24.9124C87.4334 24.8272 87.6692 24.785 87.9239 24.785ZM69.3634 26.4377C69.3634 25.8847 69.7416 25.4302 70.3592 25.4302C70.9495 25.4302 71.348 25.865 71.348 26.4379C71.348 27.0106 70.9495 27.4448 70.3592 27.4448C69.7416 27.4448 69.3634 26.9911 69.3634 26.4379V26.4377ZM72.0208 26.4377V24.8641H71.307V25.2462C71.08 24.9629 70.7373 24.785 70.2705 24.785C69.3502 24.785 68.6294 25.4761 68.6294 26.4377C68.6294 27.3988 69.3502 28.0906 70.2705 28.0906C70.7373 28.0906 71.0798 27.9128 71.307 27.6294V28.0115H72.0208V26.4379V26.4377ZM67.9973 28.0117V26.0363C67.9973 25.2924 67.503 24.7919 66.7069 24.7851C66.288 24.7784 65.8548 24.9035 65.5531 25.3451C65.3267 24.9961 64.9692 24.7851 64.4678 24.7851C64.118 24.7851 63.7745 24.8839 63.5066 25.2523V24.8643H62.793V28.0117H63.5136V26.2669C63.5136 25.7204 63.8295 25.4304 64.3167 25.4304C64.7908 25.4304 65.0312 25.7264 65.0312 26.2602V28.0117H65.752V26.2668C65.752 25.7203 66.082 25.4302 66.5552 25.4302C67.0433 25.4302 67.2767 25.7263 67.2767 26.26V28.0117H67.9973Z" fill="white"/>
<path d="M19.2716 39.8506V37.865C19.2716 37.1037 18.7912 36.6074 17.968 36.6074C17.5564 36.6074 17.1105 36.7398 16.8017 37.17C16.5617 36.806 16.2187 36.6074 15.7042 36.6074C15.3611 36.6074 15.0183 36.7066 14.7438 37.0707V36.6736H14.0234V39.8506H14.7438V38.0966C14.7438 37.5341 15.0525 37.2692 15.5328 37.2692C16.0128 37.2692 16.2531 37.5671 16.2531 38.0966V39.8506H16.9734V38.0966C16.9734 37.5341 17.3162 37.2692 17.7622 37.2692C18.2425 37.2692 18.4825 37.5671 18.4825 38.0966V39.8506H19.2716ZM29.9389 36.6736H28.7728V35.7139H28.0525V36.6736H27.4008V37.3022H28.0523V38.7585C28.0523 39.4867 28.3611 39.9168 29.1844 39.9168C29.4931 39.9168 29.8359 39.8176 30.0763 39.6852L29.8703 39.0894C29.6645 39.2218 29.4245 39.255 29.253 39.255C28.91 39.255 28.7728 39.0564 28.7728 38.7254V37.3022H29.9389V36.6736ZM36.0445 36.6073C35.633 36.6073 35.3586 36.806 35.187 37.0707V36.6736H34.4667V39.8506H35.187V38.0636C35.187 37.5341 35.427 37.2362 35.873 37.2362C36.0102 37.2362 36.1817 37.2694 36.3189 37.3024L36.5247 36.6406C36.3875 36.6074 36.1817 36.6074 36.0445 36.6074V36.6073ZM26.8177 36.9383C26.4745 36.7066 25.9944 36.6074 25.4798 36.6074C24.6567 36.6074 24.108 37.0045 24.108 37.6333C24.108 38.1629 24.5195 38.4606 25.2398 38.56L25.5828 38.5931C25.9602 38.6592 26.1659 38.7585 26.1659 38.9241C26.1659 39.1556 25.8916 39.3211 25.4112 39.3211C24.9311 39.3211 24.5537 39.1556 24.3136 38.9902L23.9706 39.5197C24.348 39.7844 24.8625 39.9168 25.3769 39.9168C26.3373 39.9168 26.8862 39.4867 26.8862 38.8909C26.8862 38.3283 26.4403 38.0304 25.7542 37.9312L25.4112 37.898C25.1025 37.8649 24.8625 37.7988 24.8625 37.6003C24.8625 37.3686 25.1025 37.2362 25.4798 37.2362C25.8916 37.2362 26.3031 37.4016 26.5089 37.5009L26.8177 36.9383ZM45.9575 36.6074C45.5458 36.6074 45.2714 36.806 45.0998 37.0707V36.6736H44.3795V39.8506H45.0998V38.0636C45.0998 37.5341 45.34 37.2362 45.7858 37.2362C45.9231 37.2362 46.0947 37.2694 46.2319 37.3024L46.4377 36.6406C46.3005 36.6074 46.0947 36.6074 45.9575 36.6074ZM36.7648 38.2621C36.7648 39.2218 37.4508 39.9168 38.5142 39.9168C38.9944 39.9168 39.3373 39.8176 39.6803 39.5528L39.3373 38.9902C39.063 39.1888 38.7886 39.288 38.4798 39.288C37.8967 39.288 37.4852 38.8909 37.4852 38.2621C37.4852 37.6665 37.8967 37.2692 38.4798 37.2362C38.7886 37.2362 39.063 37.3354 39.3373 37.5341L39.6803 36.9715C39.3373 36.7066 38.9944 36.6074 38.5142 36.6074C37.4508 36.6074 36.7648 37.3024 36.7648 38.2621ZM43.4192 38.2621V36.6736H42.6989V37.0707C42.4587 36.7729 42.1158 36.6074 41.6698 36.6074C40.7437 36.6074 40.0234 37.3024 40.0234 38.2621C40.0234 39.2218 40.7437 39.9168 41.6698 39.9168C42.15 39.9168 42.4931 39.7514 42.6989 39.4535V39.8506H43.4192V38.2621ZM40.778 38.2621C40.778 37.6995 41.1553 37.2362 41.7727 37.2362C42.3558 37.2362 42.7675 37.6665 42.7675 38.2621C42.7675 38.8247 42.3558 39.288 41.7727 39.288C41.1553 39.2548 40.778 38.8247 40.778 38.2621ZM32.1686 36.6074C31.2081 36.6074 30.522 37.2692 30.522 38.2621C30.522 39.255 31.208 39.9168 32.2028 39.9168C32.683 39.9168 33.1633 39.7844 33.5406 39.4867L33.1975 38.9902C32.9231 39.1888 32.5802 39.3211 32.2372 39.3211C31.7913 39.3211 31.3453 39.1226 31.2423 38.5598H33.6778V38.2953C33.7122 37.2692 33.0947 36.6074 32.1684 36.6074H32.1686ZM32.1686 37.2031C32.6144 37.2031 32.9233 37.4679 32.9917 37.9644H31.2767C31.3453 37.5341 31.6541 37.2031 32.1686 37.2031ZM50.0392 38.2621V35.416H49.3189V37.0707C49.0787 36.7729 48.7358 36.6074 48.2898 36.6074C47.3637 36.6074 46.6434 37.3024 46.6434 38.2621C46.6434 39.2218 47.3637 39.9168 48.2898 39.9168C48.7702 39.9168 49.1131 39.7514 49.3189 39.4535V39.8506H50.0392V38.2621ZM47.3981 38.2621C47.3981 37.6995 47.7753 37.2362 48.3928 37.2362C48.9759 37.2362 49.3875 37.6665 49.3875 38.2621C49.3875 38.8247 48.9759 39.288 48.3928 39.288C47.7753 39.2548 47.3981 38.8247 47.3981 38.2621ZM23.3189 38.2621V36.6736H22.5986V37.0707C22.3584 36.7729 22.0155 36.6074 21.5695 36.6074C20.6434 36.6074 19.9231 37.3024 19.9231 38.2621C19.9231 39.2218 20.6434 39.9168 21.5695 39.9168C22.0498 39.9168 22.3928 39.7514 22.5986 39.4535V39.8506H23.3189V38.2621ZM20.6434 38.2621C20.6434 37.6995 21.0208 37.2362 21.6381 37.2362C22.2212 37.2362 22.633 37.6665 22.633 38.2621C22.633 38.8247 22.2212 39.288 21.6381 39.288C21.0208 39.2548 20.6434 38.8247 20.6434 38.2621Z" fill="black"/>
<path d="M26.5781 12.5479H37.3828V31.2792H26.5781V12.5479Z" fill="#FF5F00"/>
<path d="M27.2639 21.9139C27.2639 18.1081 29.1161 14.7325 31.963 12.5482C29.8708 10.9597 27.2297 10 24.3484 10C17.5223 10 12 15.3281 12 21.9139C12 28.4996 17.5223 33.8278 24.3483 33.8278C27.2295 33.8278 29.8706 32.8681 31.963 31.2795C29.1161 29.1284 27.2639 25.7197 27.2639 21.9139Z" fill="#EB001B"/>
<path d="M51.961 21.9139C51.961 28.4996 46.4387 33.8278 39.6127 33.8278C36.7315 33.8278 34.0904 32.8681 31.998 31.2795C34.8793 29.0954 36.6973 25.7197 36.6973 21.9139C36.6973 18.1081 34.8449 14.7325 31.998 12.5482C34.0902 10.9597 36.7315 10 39.6127 10C46.4387 10 51.9612 15.3613 51.9612 21.9139H51.961Z" fill="#F79E1B"/>
<defs>
<linearGradient id="paint0_linear_203_1485" x1="132.182" y1="37.3677" x2="132.854" y2="13.8414" gradientUnits="userSpaceOnUse">
<stop stop-color="#222357"/>
<stop offset="1" stop-color="#254AA5"/>
</linearGradient>
</defs>
</svg>
