<?xml version="1.0" encoding="UTF-8" standalone="no"?>
<svg
   width="20"
   height="20"
   viewBox="0 0 20 20"
   fill="none"
   version="1.1"
   id="svg22"
   sodipodi:docname="season_half.svg"
   inkscape:version="1.1 (c68e22c387, 2021-05-23)"
   xmlns:inkscape="http://www.inkscape.org/namespaces/inkscape"
   xmlns:sodipodi="http://sodipodi.sourceforge.net/DTD/sodipodi-0.dtd"
   xmlns="http://www.w3.org/2000/svg"
   xmlns:svg="http://www.w3.org/2000/svg">
  <defs
     id="defs26" />
  <sodipodi:namedview
     id="namedview24"
     pagecolor="#ffffff"
     bordercolor="#666666"
     borderopacity="1.0"
     inkscape:pageshadow="2"
     inkscape:pageopacity="0.0"
     inkscape:pagecheckerboard="0"
     showgrid="false"
     inkscape:zoom="43.65"
     inkscape:cx="4.7193585"
     inkscape:cy="10.320733"
     inkscape:window-width="2560"
     inkscape:window-height="1411"
     inkscape:window-x="2391"
     inkscape:window-y="-9"
     inkscape:window-maximized="1"
     inkscape:current-layer="svg22" />
  <g
     id="g1204">
    <path
       style="color:#000000;fill:#ffa300;-inkscape-stroke:none"
       d="M 9.45455,16 C 6.44691,16 4,13.3084 4,10 4,6.6916 6.44691,4 9.45455,4 9.59921,4 9.73795,4.06321 9.84024,4.17574 9.94253,4.28826 10,4.44087 10,4.6 V 15.4 C 10,15.5591 9.94253,15.7117 9.84024,15.8243 9.73795,15.9368 9.59921,16 9.45455,16 Z"
       id="path2" />
    <path
       style="color:#000000;fill:#367de7;stroke-width:0.983193;-inkscape-stroke:none"
       d="m 19.412953,9.41408 h -0.914759 l 0.448341,-0.7732 c 0.07685,-0.13451 0.09715,-0.2938 0.05636,-0.44312 C 18.962195,8.04843 18.863788,7.92121 18.729228,7.84384 18.594667,7.76648 18.43478,7.74525 18.284463,7.7848 c -0.15022,0.03955 -0.27869,0.13666 -0.35728,0.27014 l -0.788222,1.35914 h -5.76125 l 4.073833,-4.0557 1.522696,0.40625 c 0.07482,0.02036 0.152927,0.0258 0.229778,0.01602 0.07695,-0.00979 0.151187,-0.0346 0.21837,-0.07303 0.06728,-0.03842 0.126247,-0.0897 0.173517,-0.15088 0.04727,-0.06118 0.08197,-0.13106 0.10208,-0.20562 0.02001,-0.07457 0.02513,-0.15234 0.01489,-0.22886 C 17.702625,5.04573 17.677395,4.97198 17.638445,4.90522 17.599485,4.83846 17.547675,4.78002 17.486001,4.73326 17.424331,4.68649 17.353954,4.65232 17.27894,4.63272 L 16.412709,4.40162 17.00402,3.81287 c 0.0551,-0.05432 0.09879,-0.11893 0.128663,-0.19012 0.02997,-0.0712 0.04543,-0.14756 0.04563,-0.22473 9.7e-5,-0.07716 -0.01498,-0.15359 -0.04456,-0.22492 -0.02958,-0.07132 -0.07308,-0.13612 -0.12789,-0.19068 -0.05481,-0.05456 -0.119867,-0.09781 -0.191498,-0.12726 -0.07163,-0.02945 -0.14848,-0.04452 -0.22591,-0.04436 -0.07753,1.7e-4 -0.15428,0.01558 -0.225717,0.04534 -0.07153,0.02977 -0.136494,0.0733 -0.191014,0.1281 L 15.580304,3.57295 15.348013,2.71053 C 15.328293,2.63587 15.293977,2.56581 15.246997,2.5044 15.200016,2.44298 15.14134,2.39141 15.074253,2.35265 15.007166,2.31389 14.933119,2.2887 14.856269,2.27853 14.779419,2.26836 14.701312,2.27342 14.626395,2.2934 c -0.07492,0.01998 -0.145097,0.0545 -0.206577,0.10158 -0.06148,0.04707 -0.112907,0.10577 -0.151574,0.17272 -0.03857,0.06695 -0.06351,0.14083 -0.07337,0.2174 -0.0098,0.07658 -0.0044,0.15433 0.01614,0.22879 l 0.40803,1.51593 -4.073735,4.05563 V 2.84982 l 1.365226,-0.78468 c 0.06747,-0.0382 0.12673,-0.0893 0.17429,-0.15037 0.04756,-0.06107 0.08246,-0.1309 0.102854,-0.20548 0.0203,-0.07457 0.02562,-0.15241 0.01566,-0.22904 C 12.19329,1.40362 12.168156,1.32972 12.129393,1.2628 12.090533,1.19588 12.038816,1.13726 11.977143,1.09032 11.915469,1.04338 11.845096,1.00905 11.770082,0.989298 11.695069,0.969547 11.616865,0.964768 11.539918,0.975236 11.462971,0.985704 11.388925,1.01121 11.322031,1.05029 L 10.545313,1.4967 V 0.585958 c 0,-0.155401 -0.06196,-0.304436 -0.172357,-0.414321 C 10.262562,0.0617525 10.112854,2e-5 9.956766,2e-5 9.8006683,2e-5 9.6509603,0.0617525 9.5405861,0.171637 9.4302118,0.281522 9.3682,0.430557 9.3682,0.585958 V 19.41412 c 0,0.1554 0.062012,0.3044 0.1723861,0.4143 0.1103742,0.1099 0.2600822,0.1716 0.4161799,0.1716 0.156088,0 0.305796,-0.0617 0.41619,-0.1716 0.110393,-0.1099 0.172357,-0.2589 0.172357,-0.4143 v -0.9107 l 0.776718,0.4464 c 0.135044,0.0764 0.295124,0.0966 0.445054,0.0561 0.150027,-0.0406 0.277821,-0.1385 0.355541,-0.2725 0.07772,-0.134 0.09899,-0.2932 0.05926,-0.4428 -0.03973,-0.1496 -0.137267,-0.2774 -0.271344,-0.3557 l -1.365226,-0.7847 v -5.7356 l 4.073832,4.0556 -0.408031,1.516 c -0.04041,0.1501 -0.01924,0.3101 0.05877,0.4446 0.07801,0.1346 0.206577,0.2328 0.357377,0.273 0.150801,0.0402 0.311461,0.0192 0.446601,-0.0585 0.135237,-0.0777 0.233837,-0.2057 0.274244,-0.3558 l 0.232097,-0.8624 0.591408,0.5888 c 0.05433,0.0555 0.119287,0.0997 0.191014,0.1301 0.07173,0.0303 0.14877,0.0462 0.226684,0.0467 0.07791,5e-4 0.15515,-0.0144 0.227167,-0.0439 0.07211,-0.0294 0.137654,-0.0729 0.192657,-0.1277 0.0551,-0.0549 0.0987,-0.1201 0.128277,-0.1918 0.02968,-0.0718 0.04456,-0.1487 0.04408,-0.2263 -4.83e-4,-0.0775 -0.01643,-0.1542 -0.04698,-0.2256 -0.03045,-0.0714 -0.07492,-0.136 -0.130693,-0.1902 l -0.591312,-0.5888 0.866329,-0.2312 c 0.07501,-0.0196 0.145387,-0.0538 0.20706,-0.1006 0.06167,-0.0467 0.113487,-0.1052 0.152444,-0.1719 0.03896,-0.0668 0.06428,-0.1405 0.07443,-0.2171 0.01025,-0.0765 0.0051,-0.1543 -0.01489,-0.2288 -0.02011,-0.0746 -0.05481,-0.1445 -0.10208,-0.2056 -0.04727,-0.0612 -0.106237,-0.1125 -0.173518,-0.1509 -0.06718,-0.0384 -0.141423,-0.0633 -0.21837,-0.073 -0.07685,-0.0098 -0.154957,-0.0044 -0.229777,0.016 l -1.522697,0.4062 -4.073736,-4.0556 h 5.76125 l 0.788222,1.3592 c 0.03838,0.0672 0.08971,0.1261 0.15109,0.1735 0.06129,0.0473 0.131467,0.0821 0.206384,0.1023 0.07492,0.0203 0.153023,0.0256 0.230067,0.0156 0.07695,-0.0099 0.151187,-0.035 0.21837,-0.0736 0.06728,-0.0386 0.126151,-0.0901 0.173324,-0.1515 0.04708,-0.0614 0.08159,-0.1315 0.101404,-0.2062 0.01991,-0.0747 0.02465,-0.1525 0.01411,-0.2291 -0.01044,-0.0766 -0.03606,-0.1503 -0.0754,-0.217 l -0.448341,-0.7732 h 0.914759 c 0.156117,0 0.305854,-0.0617 0.416247,-0.1716 0.110394,-0.1099 0.172357,-0.2589 0.172357,-0.4143 0,-0.1554 -0.06196,-0.30444 -0.172357,-0.41432 C 19.718807,9.47581 19.56907,9.41408 19.412953,9.41408 Z"
       id="path4" />
    <path
       style="color:#000000;fill:#ffa300;-inkscape-stroke:none"
       d="M 2.42348,10 H 0.576524 C 0.42362,10 0.276979,9.94732 0.16886,9.85355 0.0607407,9.75979 0,9.63261 0,9.5 0,9.36739 0.0607407,9.24022 0.16886,9.14645 0.276979,9.05268 0.42362,9 0.576524,9 H 2.42348 C 2.57638,9 2.72302,9.05268 2.83114,9.14645 2.93926,9.24022 3,9.36739 3,9.5 3,9.63261 2.93926,9.75979 2.83114,9.85355 2.72302,9.94732 2.57638,10 2.42348,10 Z"
       id="path6" />
    <path
       style="color:#000000;fill:#ffa300;-inkscape-stroke:none"
       d="M 4.53073,5 C 4.4691,5.00009 4.40806,4.98799 4.35112,4.9644 4.29418,4.94081 4.24246,4.90619 4.19895,4.86254 L 3.13599,3.79959 C 3.04862,3.71146 2.99973,3.59231 3,3.46821 3.00027,3.34412 3.04969,3.22519 3.13744,3.13744 3.22519,3.04969 3.34412,3.00027 3.46821,3 3.59231,2.99973 3.71146,3.04862 3.79959,3.13599 L 4.86255,4.19894 C 4.92818,4.26457 4.97287,4.34818 4.99098,4.43921 5.00909,4.53024 4.9998,4.62459 4.96428,4.71033 4.92876,4.79608 4.86861,4.86937 4.79144,4.92093 4.71427,4.97249 4.62354,5 4.53073,5 Z"
       id="path8" />
    <path
       style="color:#000000;fill:#ffa300;-inkscape-stroke:none"
       d="M 3.46924,17 C 3.37643,17 3.2857,16.9725 3.20854,16.9209 3.13137,16.8694 3.07123,16.7961 3.03571,16.7103 3.0002,16.6246 2.99091,16.5302 3.00902,16.4392 3.02713,16.3482 3.07182,16.2646 3.13745,16.1989 L 4.20041,15.136 C 4.28854,15.0486 4.40769,14.9997 4.53179,15 c 0.12409,3e-4 0.24302,0.0497 0.33077,0.1374 0.08775,0.0878 0.13717,0.2067 0.13744,0.3308 2.7e-4,0.1241 -0.04863,0.2433 -0.13599,0.3314 l -1.0628,1.0629 C 3.75767,16.9062 3.70592,16.9408 3.64895,16.9644 3.59197,16.988 3.5309,17.0001 3.46924,17 Z"
       id="path10" />
    <path
       style="color:#000000;fill:#ffa300;-inkscape-stroke:none"
       d="M 7.37482,3.9998 C 7.25015,3.99982 7.1283,3.96384 7.02494,3.89647 6.92157,3.8291 6.84139,3.73342 6.7947,3.62171 L 6.04363,1.82629 C 5.98309,1.67798 5.98564,1.51256 6.05072,1.36606 6.11579,1.21955 6.23813,1.10382 6.39108,1.04407 6.54404,0.984311 6.71523,0.985366 6.86738,1.047 7.01954,1.10864 7.14033,1.22587 7.20347,1.37316 L 7.95454,3.16878 C 7.99284,3.26053 8.00727,3.35996 7.99657,3.45836 7.98586,3.55675 7.95035,3.65111 7.89313,3.73315 7.83591,3.8152 7.75875,3.88243 7.66839,3.92895 7.57803,3.97547 7.47721,3.99967 7.37482,3.9998 Z"
       id="path12" />
    <path
       style="color:#000000;fill:#ffa300;-inkscape-stroke:none"
       d="M 1.60309,13.9999 C 1.46317,14 1.32757,13.9497 1.21955,13.8576 1.11153,13.7655 1.03783,13.6373 1.0111,13.495 0.984368,13.3527 1.00627,13.2052 1.07304,13.0779 1.13982,12.9505 1.2473,12.8512 1.37705,12.7969 L 3.16686,12.0475 C 3.24037,12.016 3.31917,11.9998 3.39873,12 c 0.07956,2e-4 0.1583,0.0167 0.23167,0.0485 0.07337,0.0319 0.13993,0.0785 0.19583,0.1371 0.05589,0.0587 0.10002,0.1282 0.12984,0.2046 0.02982,0.0764 0.04474,0.1582 0.0439,0.2406 -8.5e-4,0.0824 -0.01744,0.1638 -0.04882,0.2396 -0.03138,0.0757 -0.07693,0.1442 -0.13402,0.2016 -0.05709,0.0574 -0.12458,0.1026 -0.19859,0.1328 l -1.78961,0.7494 c -0.07166,0.0302 -0.14848,0.0457 -0.22584,0.0457 z"
       id="path14" />
    <path
       style="color:#000000;fill:#ffa300;-inkscape-stroke:none"
       d="M 6.62191,19 C 6.51981,18.9999 6.4193,18.9754 6.32924,18.9287 6.23919,18.8819 6.16234,18.8144 6.10548,18.732 6.04862,18.6497 6.01349,18.555 6.00318,18.4563 5.99287,18.3576 6.00771,18.258 6.04638,18.1662 l 0.75594,-1.7918 c 0.06275,-0.1481 0.18344,-0.2659 0.33557,-0.3277 0.15214,-0.0617 0.32328,-0.0623 0.47584,-0.0015 0.15256,0.0607 0.27407,0.1778 0.33784,0.3255 0.06377,0.1477 0.06459,0.3139 0.00228,0.4622 L 7.19791,18.6248 C 7.15104,18.7358 7.07125,18.8307 6.96868,18.8975 6.86611,18.9643 6.74541,19 6.62191,19 Z"
       id="path16" />
    <path
       style="color:#000000;fill:#ffa300;-inkscape-stroke:none"
       d="M 3.39441,8 C 3.31578,7.99997 3.23792,7.98412 3.16521,7.95335 L 1.37159,7.197 C 1.22424,7.13358 1.10724,7.01279 1.0461,6.86097 0.984952,6.70914 0.984624,6.5386 1.04518,6.38653 1.10574,6.23446 1.22228,6.11319 1.36938,6.04918 1.51648,5.98516 1.68221,5.98359 1.83043,6.0448 L 3.62405,6.80114 C 3.75386,6.85579 3.86119,6.95515 3.92768,7.08222 3.99418,7.2093 4.0157,7.3562 3.98858,7.49779 3.96145,7.63939 3.88737,7.7669 3.77899,7.8585 3.67061,7.95011 3.53466,8.00013 3.39441,8 Z"
       id="path18" />
  </g>
</svg>
