<svg width="20" height="20" viewBox="0 0 20 20" fill="none" xmlns="http://www.w3.org/2000/svg">
<path d="M20 9.6923H17.3932L19.8652 7.4802L19.281 6.796L16.0224 9.6923H13.9775L12.4495 6.97844L13.4383 5.29082L17.9776 4.31028L17.7978 3.42088L14.0674 4.21914L15.4832 1.80183L14.7192 1.34577L13.3484 3.6947L12.4496 0.0230664L11.5732 0.251183L12.6968 4.81222L11.708 6.49984L8.47185 6.49953L7.48305 4.8119L8.74143 0.250865L7.86503 0L6.83125 3.71729L5.43803 1.3227L4.67403 1.77876L6.02242 4.10493L2.42685 3.10146L2.17965 3.99087L6.67401 5.24519L7.66282 6.93282L6.04484 9.64667H4.08983L1.01123 6.68196L0.382021 7.34323L2.80898 9.69216L0 9.69232V10.6044H2.83141L0.404453 12.9534L1.03366 13.6147L4.13482 10.6043H6.0674L7.64038 13.4322L6.8314 14.8233L2.22467 15.8496L2.40447 16.739L6.17965 15.9181L4.69663 18.4949L5.46064 18.951L6.94382 16.4198L7.88763 19.9773L8.76404 19.7492L7.59546 15.325L8.47186 13.8198H11.6853L12.5617 15.3478L11.5279 19.7948L12.4043 20L13.2133 16.4881L14.6738 18.9967L15.4378 18.5407L13.9547 15.9865L17.7748 16.9216L17.977 16.0322L13.3029 14.8919L12.4265 13.3867L13.9545 10.6502H15.9995L19.2579 13.6832L19.8646 13.022L17.3483 10.6045H19.9999L20 9.6923ZM12.9438 9.6923H10.8764L11.9326 7.86785L12.9438 9.6923ZM11.1461 7.41178L10.0674 9.25896L8.98884 7.41178H11.1461ZM8.22484 7.86785L9.28102 9.6923H7.12364L8.22484 7.86785ZM7.10125 10.6044H9.28102L8.15742 12.52L7.10125 10.6044ZM9.01127 12.8849L10.0899 11.0378L11.1685 12.8849H9.01127ZM11.9327 12.4289L10.854 10.6044H12.9438L11.9327 12.4289Z" fill="#367DE7"/>
</svg>
