<svg width="174" height="32" viewBox="0 0 174 32" fill="none" xmlns="http://www.w3.org/2000/svg">
<g opacity="0.6" clip-path="url(#clip0_461_958)">
<path d="M41.6543 17.7378C40.9333 17.8902 40.0485 17.9817 39.2948 17.9817C36.7714 17.9817 35.1001 16.9146 35.1001 14.5061V11H37.4596V14.2622C37.4596 15.5122 38.1478 16.061 39.5569 16.061C40.3106 16.061 41.0316 15.9695 41.687 15.8171V11H44.0465V21H41.687V17.7378H41.6543Z" fill="white"/>
<path d="M88.4061 21V14.3232L82.9204 21H80.8262V11H83.1867V17.4634L88.5059 11H90.7666V21H88.4061Z" fill="white"/>
<path d="M103.689 16C103.689 12.6824 106.214 10 109.67 10C113.126 10 115.618 12.6471 115.618 15.9647V16C115.618 19.2823 113.093 22 109.637 22C106.181 21.9294 103.689 19.2823 103.689 16ZM113.126 16C113.126 13.9176 111.664 12.2235 109.637 12.2235C107.61 12.2235 106.181 13.8823 106.181 15.9294V15.9647C106.181 18.0117 107.643 19.7059 109.67 19.7059C111.697 19.7059 113.126 18.0117 113.126 16Z" fill="white"/>
<path d="M128.541 16C128.541 12.6824 131.066 10 134.522 10C137.977 10 140.469 12.6471 140.469 15.9647V16C140.469 19.2823 137.944 22 134.488 22C131.033 21.9294 128.541 19.2823 128.541 16ZM137.977 16C137.977 13.9176 136.515 12.2235 134.488 12.2235C132.462 12.2235 131.033 13.8823 131.033 15.9294V15.9647C131.033 18.0117 132.495 19.7059 134.522 19.7059C136.548 19.7059 137.977 18.0117 137.977 16Z" fill="white"/>
<path d="M49.203 19.1098V15.0549C49.2342 16.0914 50.0728 16.9146 51.129 16.9146H54.2976V15.0244H49.203V12.8902H54.9809V11H47.0286V21H54.9809V19.1098H49.203Z" fill="white"/>
<path d="M99.5048 15.3215C100.651 14.8673 101.383 14.2183 101.383 12.8555C101.383 11.1033 99.9185 10 97.3714 10C95.4611 10 94.124 10.7139 92.946 11.7522L94.3151 13.2773C95.2065 12.531 96.1934 12.0118 97.3398 12.0118C98.4223 12.0118 99.0907 12.4661 99.0907 13.2124C99.0907 13.9911 98.4539 14.5103 97.3079 14.5103H94.6017C94.6017 15.5487 95.4295 16.3924 96.448 16.3924H97.2443C98.5494 16.3924 99.3773 16.8466 99.3773 17.6578C99.3773 18.5339 98.4859 18.9882 97.2759 18.9882C96.0343 18.9882 95.0154 18.469 94.0924 17.7552L92.7549 19.3776C93.8058 20.3186 95.2704 21 97.2123 21C100.046 21 101.701 19.6372 101.701 17.8525C101.67 16.3274 100.778 15.646 99.5048 15.3215Z" fill="white"/>
<path d="M124.581 15.7866C125.331 15.3903 125.988 14.75 125.988 13.6219V13.5915C125.988 12.8902 125.769 12.3414 125.269 11.8841C124.643 11.3353 123.705 11 122.485 11H117.606V21H122.61C124.987 21 126.551 20.0854 126.551 18.2561V18.2256C126.583 16.8842 125.801 16.2134 124.581 15.7866ZM122.172 12.8597C123.204 12.8597 123.768 13.2561 123.768 13.9268V13.9573C123.768 14.75 123.111 15.0854 122.047 15.0854H119.795V12.8597H122.172ZM124.362 18.0122C124.362 18.7744 123.705 19.1403 122.642 19.1403H119.795V15.1158C119.827 16.061 120.609 16.8232 121.609 16.8232H122.548C123.799 16.8537 124.362 17.2805 124.362 18.0122Z" fill="white"/>
<path d="M63.2464 11H57.9631V21H60.2646V17.9512H63.2143C65.2565 17.9512 66.9096 16.3963 66.9096 14.4756C66.9096 12.5549 65.2886 11 63.2464 11ZM63.2464 16.061C63.2464 16.061 61.1395 16.061 60.2646 16.061V12.8902H63.2143C63.2143 12.8902 63.2143 12.8902 63.2464 12.8902C64.1865 12.8902 64.9321 13.5915 64.9321 14.4756C64.9321 15.3598 64.1865 16.061 63.2464 16.061Z" fill="white"/>
<path d="M68.8977 11H71.2042V15.5122L75.7845 11H78.6432L74.1278 15.2683L78.8382 21H76.0443L72.5685 16.7012L71.2042 17.9817V21H68.8977V11Z" fill="white"/>
<path d="M35.1001 26.5C35.1001 25.6478 35.7911 25 36.773 25C37.3913 25 37.7186 25.1705 38.0458 25.4432L37.6095 25.8864C37.3549 25.6818 37.1003 25.5455 36.773 25.5455C36.2275 25.5455 35.8275 25.9546 35.8275 26.4659C35.8275 26.9773 36.2275 27.4205 36.773 27.4205C37.1367 27.4205 37.3913 27.2841 37.6458 27.0796L38.0822 27.4887C37.7549 27.7955 37.3913 28 36.773 28C35.7911 28 35.1001 27.3523 35.1001 26.5Z" fill="white"/>
<path d="M40.5673 25.6279L40.175 25.7674L40.0703 25.2441L40.7243 25H41.0644V28H40.5935V25.6279H40.5673Z" fill="white"/>
<path d="M43.5202 26.7045C43.4033 26.8409 43.1986 26.9432 42.9647 26.9432C42.4092 26.9432 42.0583 26.6022 42.0583 26.0227C42.0583 25.4432 42.4677 25 43.0232 25C43.374 25 43.5787 25.1023 43.7541 25.3068C43.9295 25.5113 44.0464 25.8523 44.0464 26.3977C44.0464 27.3522 43.6372 28 42.9354 28C42.5554 28 42.3215 27.8636 42.0876 27.6591L42.3799 27.1818C42.5554 27.3522 42.7308 27.4545 42.9354 27.4545C43.4033 27.4204 43.5202 26.9773 43.5202 26.7045ZM43.5202 25.9545C43.5202 25.6818 43.3448 25.4772 43.0524 25.4772C42.7601 25.4772 42.6138 25.6818 42.6138 25.9545C42.6138 26.2273 42.7893 26.3977 43.0817 26.3977C43.374 26.3977 43.5202 26.2273 43.5202 25.9545Z" fill="white"/>
<path d="M46.3658 25.5581H45.0405V25H47.0286V25.4883L45.798 28H45.1352L46.3658 25.5581Z" fill="white"/>
<path d="M48.2163 27.3448H47.106L47.0286 26.8965L48.2938 25H48.7068V26.8276H49.0167V27.3448H48.6812V28H48.2163V27.3448ZM48.2163 26.8276V25.8621L47.5709 26.8276H48.2163Z" fill="white"/>
<path d="M13.0151 15.01C12.2218 14.4874 11.016 14.4548 9.36597 16.5125C8.60443 17.4924 7.84284 18.8317 6.95436 19.9749C6.06588 21.0854 5.01872 21.9673 3.62255 21.9673C1.8773 21.9673 1.02055 20.5955 0.639769 18.897C0.449379 18.0477 0.354184 17.1005 0.322453 16.2186C0.290721 15.3367 0.322453 14.4874 0.322453 13.8015C0.322453 13.4422 0.417648 12.8543 0.576307 12.495C1.2744 10.5678 3.33696 9.48993 5.14565 10.0779C6.54185 10.5351 7.46209 11.8744 7.39862 13.3442C7.36687 14.0955 7.33515 14.8794 7.3034 15.5327C7.27169 16.1859 7.27169 16.7085 7.3034 16.9045C7.36687 17.1985 7.68419 17.1985 7.84284 17.0351C7.93806 16.9372 8.16017 16.6759 8.41403 16.3819C8.66789 16.0553 8.98518 15.696 9.23904 15.4346C9.74677 14.8467 10.9208 13.7035 13.0786 13.7035C15.4267 13.7035 17.2989 15.5653 17.2037 17.8518C17.1085 20.1382 15.6806 22 12.793 22C10.3814 22 9.0804 20.4322 9.71501 18.4724C10.3179 16.6759 12.7295 16.1533 13.7449 16.4799C13.8401 16.4146 13.8401 15.5 13.0151 15.01ZM11.1747 12.0703C9.55637 12.0703 8.25534 11.3844 8.2871 10.5352C8.31881 9.68591 9.65155 9 11.2699 9C12.8882 9 14.1892 9.68591 14.1574 10.5352C14.1574 11.3518 12.8247 12.0703 11.1747 12.0703Z" fill="white"/>
</g>
<defs>
<clipPath id="clip0_461_958">
<rect width="173.614" height="32" fill="white" transform="translate(0.121338)"/>
</clipPath>
</defs>
</svg>
