<svg width="383" height="89" viewBox="0 0 383 89" fill="none" xmlns="http://www.w3.org/2000/svg">
<g opacity="0.4">
<g clip-path="url(#clip0_1219_1692)">
<path d="M71.2625 0V88.4797H72.0731V0H71.2625Z" fill="black"/>
<path d="M113.225 49.2901C111.097 49.7635 108.925 50.0115 106.746 50.03C99.8099 50.03 95.2161 46.8838 95.2161 39.7872V29.4414H101.701V39.0473C101.701 42.7339 103.593 44.3489 107.492 44.3489C109.464 44.3479 111.428 44.1059 113.34 43.6283V29.4414H119.8V58.9025H113.315V49.2901H113.225Z" fill="black"/>
<path d="M240.096 58.9933V39.3183L225.24 58.9933H219.571V29.5322H225.96V48.5703L240.372 29.5322H246.497V58.9933H240.096Z" fill="black"/>
<path d="M281.607 44.3488C281.607 35.9075 288.453 29.0811 297.815 29.0811C307.176 29.0811 313.932 35.8174 313.932 44.2587V44.3488C313.932 52.7129 307.092 59.623 297.724 59.623C288.363 59.4429 281.607 52.7065 281.607 44.3488ZM307.182 44.3488C307.215 43.0906 306.994 41.8386 306.533 40.6677C306.071 39.4967 305.378 38.4309 304.495 37.5337C303.612 36.6365 302.558 35.9264 301.395 35.4458C300.231 34.9652 298.983 34.724 297.724 34.7365C296.483 34.7135 295.249 34.9422 294.098 35.409C292.948 35.8758 291.903 36.5709 291.028 37.4523C290.154 38.3338 289.466 39.3833 289.008 40.5377C288.55 41.692 288.331 42.9272 288.363 44.1687V44.2394C288.34 45.4904 288.568 46.7332 289.034 47.8944C289.499 49.0556 290.194 50.1115 291.075 50.9994C291.956 51.8874 293.007 52.5894 294.165 53.0639C295.322 53.5384 296.563 53.7757 297.815 53.7617C299.053 53.7774 300.282 53.5443 301.428 53.0762C302.575 52.6082 303.616 51.9147 304.49 51.0369C305.363 50.159 306.052 49.1148 306.514 47.9659C306.977 46.8171 307.204 45.5871 307.182 44.3488Z" fill="black"/>
<path d="M350.669 44.3488C350.669 35.9075 357.515 29.0811 366.883 29.0811C376.251 29.0811 382.968 35.8174 382.968 44.2587V44.3488C382.968 52.7129 376.122 59.623 366.761 59.623C357.425 59.4429 350.669 52.7065 350.669 44.3488ZM376.244 44.3488C376.277 43.0911 376.056 41.8397 375.595 40.6692C375.134 39.4987 374.442 38.4331 373.559 37.536C372.677 36.6389 371.624 35.9287 370.461 35.4477C369.298 34.9667 368.051 34.7248 366.793 34.7365C365.551 34.7135 364.317 34.9423 363.166 35.409C362.015 35.8757 360.97 36.5706 360.095 37.452C359.219 38.3334 358.532 39.3828 358.073 40.5372C357.614 41.6916 357.394 42.9269 357.425 44.1687V44.2394C357.402 45.4909 357.63 46.7343 358.096 47.8959C358.562 49.0575 359.257 50.1137 360.139 51.0018C361.021 51.8898 362.073 52.5917 363.231 53.0658C364.39 53.5399 365.631 53.7765 366.883 53.7617C368.121 53.7765 369.349 53.5428 370.495 53.0743C371.641 52.6059 372.681 51.9123 373.554 51.0345C374.427 50.1568 375.115 49.1128 375.577 47.9644C376.039 46.816 376.266 45.5865 376.244 44.3488Z" fill="black"/>
<path d="M133.305 53.4215V41.4736C133.332 42.9369 133.932 44.331 134.977 45.3562C136.021 46.3814 137.426 46.9556 138.89 46.9553H148.071V41.3835H133.305V35.0976H150.033V29.5322H127V58.9933H150.053V53.4215H133.305Z" fill="black"/>
<path d="M270.715 43.8083C273.932 42.5537 276.029 40.7587 276.029 36.9819C276.029 32.1307 271.886 29.0811 264.68 29.0811C259.275 29.0811 255.499 31.0563 252.166 33.9323L256.026 38.1529C258.548 36.0876 261.334 34.6464 264.577 34.6464C267.639 34.6464 269.531 35.9332 269.531 37.9728C269.531 40.0123 267.729 41.5629 264.487 41.5629H256.85C256.851 42.9457 257.402 44.2712 258.38 45.2484C259.359 46.2255 260.685 46.7744 262.068 46.7744H264.32C268.013 46.7744 270.355 48.0612 270.355 50.2809C270.355 52.7065 267.832 53.9611 264.41 53.9611C260.987 53.9611 258.021 52.5263 255.402 50.5447L251.619 55.0485C255.117 58.0601 259.609 59.6651 264.223 59.5522C272.24 59.5522 276.924 55.7755 276.924 50.8342C276.84 46.5943 274.318 44.7091 270.715 43.8083Z" fill="black"/>
<path d="M340.317 43.5453C342.479 42.3743 344.371 40.4891 344.371 37.1628V37.0727C344.411 36.1339 344.247 35.1976 343.889 34.3288C343.531 33.4599 342.989 32.6794 342.299 32.0414C340.497 30.4264 337.795 29.4678 334.282 29.4678H320.237V58.9288H334.642C341.488 58.9288 345.985 56.233 345.985 50.8413V50.7513C346.076 46.7751 343.83 44.7999 340.317 43.5453ZM333.381 34.9173C336.354 34.9173 337.975 36.0883 337.975 38.0635V38.1536C337.975 40.4891 336.084 41.4735 333.021 41.4735H326.542V34.9173H333.381ZM339.687 50.1014C339.687 52.3469 337.795 53.4213 334.732 53.4213H326.542V41.5636C326.581 42.9181 327.149 44.2036 328.124 45.1442C329.1 46.0848 330.405 46.6056 331.76 46.5949H334.462C338.065 46.685 339.687 47.9461 339.687 50.1014Z" fill="black"/>
<path d="M171.214 29.5322H156.538V58.9933H162.927V50.0308H171.124C173.796 49.9766 176.341 48.88 178.216 46.9751C180.091 45.0702 181.147 42.5079 181.159 39.8351C181.17 37.1623 180.137 34.5908 178.279 32.6695C176.421 30.7481 173.885 29.6292 171.214 29.5515V29.5322ZM171.214 44.4397H162.927V35.0976H171.214C172.453 35.0976 173.641 35.5897 174.517 36.4657C175.393 37.3417 175.885 38.5298 175.885 39.7686C175.885 41.0075 175.393 42.1956 174.517 43.0716C173.641 43.9475 172.453 44.4397 171.214 44.4397Z" fill="black"/>
<path d="M186.7 29.5322H193.096V42.8247L205.79 29.5322H213.716L201.196 42.1041L214.257 58.9933H206.536L196.885 46.3248L193.102 50.1015V58.9933H186.707L186.7 29.5322Z" fill="black"/>
<path d="M95.0358 72.5495C95.0314 72.013 95.1371 71.4813 95.3463 70.9872C95.5555 70.4932 95.8638 70.0473 96.2521 69.6771C96.6404 69.3069 97.1005 69.0202 97.604 68.8348C98.1074 68.6493 98.6436 68.5691 99.1792 68.599C99.7564 68.5676 100.334 68.6548 100.876 68.8551C101.418 69.0553 101.914 69.3645 102.332 69.7636L101.251 70.9345C100.698 70.3845 99.9585 70.0629 99.1792 70.0338C98.8648 70.0345 98.5537 70.0983 98.2644 70.2215C97.975 70.3447 97.7134 70.5248 97.495 70.751C97.2766 70.9772 97.1058 71.245 96.9928 71.5385C96.8798 71.8319 96.827 72.1451 96.8373 72.4594C96.8253 72.7785 96.8763 73.0968 96.9876 73.3962C97.0989 73.6955 97.2682 73.9699 97.4858 74.2036C97.7034 74.4373 97.965 74.6258 98.2556 74.7582C98.5462 74.8906 98.8601 74.9643 99.1792 74.9751C99.9889 74.9642 100.763 74.6416 101.341 74.0743L102.422 75.1552C102.014 75.5976 101.515 75.9467 100.96 76.1788C100.405 76.4109 99.8064 76.5204 99.205 76.4999C98.6672 76.5335 98.1283 76.456 97.6218 76.2722C97.1153 76.0885 96.652 75.8024 96.2609 75.4318C95.8698 75.0612 95.5592 74.614 95.3484 74.1181C95.1376 73.6222 95.0312 73.0883 95.0358 72.5495Z" fill="black"/>
<path d="M109.441 70.31L108.09 70.6703L107.73 69.3192L109.982 68.6758H111.153V76.3965H109.531V70.2907L109.441 70.31Z" fill="black"/>
<path d="M117.818 73.1929C117.352 73.6189 116.739 73.8492 116.107 73.8363C114.396 73.8363 113.315 72.942 113.315 71.4107C113.325 71.0362 113.411 70.6677 113.568 70.3274C113.724 69.9871 113.948 69.6821 114.226 69.4308C114.504 69.1794 114.83 68.987 115.184 68.865C115.538 68.7431 115.914 68.6942 116.287 68.7213C116.698 68.6864 117.112 68.7401 117.5 68.8789C117.889 69.0176 118.243 69.2381 118.539 69.5255C119.08 70.066 119.44 70.9667 119.44 72.4015C119.44 74.9172 118.153 76.6222 116.017 76.6222C115.068 76.6428 114.142 76.3259 113.405 75.7278L114.306 74.4411C114.77 74.8807 115.378 75.1368 116.017 75.1617C116.266 75.1543 116.51 75.0972 116.737 74.9935C116.963 74.8899 117.166 74.7419 117.334 74.5583C117.502 74.3747 117.632 74.1592 117.715 73.9247C117.798 73.6901 117.833 73.4413 117.818 73.1929ZM117.818 71.2176C117.82 71.0348 117.782 70.8539 117.708 70.6868C117.634 70.5196 117.525 70.3702 117.389 70.2485C117.252 70.1267 117.092 70.0354 116.917 69.9807C116.743 69.9259 116.559 69.9089 116.377 69.9309C116.2 69.9095 116.021 69.9276 115.851 69.9838C115.682 70.04 115.528 70.1329 115.398 70.2559C115.269 70.3788 115.169 70.5288 115.105 70.6951C115.04 70.8614 115.013 71.0398 115.026 71.2176C115.026 71.9318 115.567 72.3822 116.467 72.3822C117.368 72.3822 117.818 71.9061 117.818 71.2112V71.2176Z" fill="black"/>
<path d="M125.108 70.1297H121.344V68.6885H127.013V69.9753L123.487 76.4092H121.602L125.108 70.1297Z" fill="black"/>
<path d="M131.684 74.7113H127.823L127.553 73.5467L131.967 68.6055H133.408V73.3666H134.489V74.7113H133.318V76.4098H131.696L131.684 74.7113ZM131.684 73.3666V70.8509L129.432 73.3666H131.684Z" fill="black"/>
<path d="M36.0558 41.4736C33.8039 40.0388 30.3875 39.9487 25.7036 45.6106C23.5418 48.3 21.38 51.9866 18.8579 55.1328C16.3358 58.279 13.3697 60.6081 9.4064 60.6081C4.45226 60.6081 2.02022 56.8378 0.939321 52.1668C0.4124 49.7442 0.110862 47.2781 0.0385686 44.7999C-0.0515067 42.3743 0.0385686 40.0388 0.0385686 38.1536C0.0641082 36.932 0.308159 35.7248 0.759171 34.5892C2.74083 29.2941 8.59572 26.3281 13.73 27.943C15.6389 28.5301 17.3003 29.7317 18.4557 31.3607C19.6111 32.9897 20.1958 34.9548 20.1189 36.9505C20.0288 39.0158 19.9388 41.1776 19.8487 42.9727C19.7526 44.2276 19.7526 45.488 19.8487 46.743C19.887 46.9014 19.9685 47.0461 20.0841 47.161C20.1997 47.2759 20.3449 47.3565 20.5036 47.3938C20.6622 47.4312 20.8281 47.4238 20.9829 47.3725C21.1376 47.3212 21.275 47.228 21.38 47.1033C21.6502 46.833 22.2807 46.1124 23.0013 45.3082C23.7366 44.3999 24.5183 43.5302 25.3433 42.7024C26.6984 41.1582 28.3767 39.9312 30.2592 39.1083C32.1417 38.2855 34.1822 37.8871 36.236 37.9413C42.9015 37.9413 48.216 43.0885 47.9457 49.3487C47.6755 55.6089 43.6221 60.7561 35.4253 60.7561C28.586 60.7561 24.8929 56.4453 26.6944 51.0537C28.4058 46.1124 35.2451 44.6777 38.1275 45.5784C38.3978 45.3403 38.3978 42.8247 36.0558 41.4736ZM30.8379 33.3925C26.244 33.3925 22.5509 31.5074 22.641 29.1718C22.7311 26.8363 26.5014 24.9512 31.1081 24.9512C35.7148 24.9512 39.3886 26.8363 39.2985 29.1718C39.2084 31.5074 35.5154 33.3925 30.8379 33.3925Z" fill="black"/>
</g>
</g>
<defs>
<clipPath id="clip0_1219_1692">
<rect width="383" height="88.4796" fill="white"/>
</clipPath>
</defs>
</svg>
