<svg width="117" height="21" viewBox="0 0 117 21" fill="none" xmlns="http://www.w3.org/2000/svg">
<g clip-path="url(#clip0_1412_1765)">
<path d="M99 20.412V0H102.408V6.20483L106.623 11.3669V0H110.031V20.412H106.623V15.8606L102.408 10.6986V20.412H99Z" fill="white"/>
<path d="M3.41504 11.1886V17.7218H4.88684C5.44559 17.7436 6.00241 17.6545 6.50861 17.4625C6.88556 17.3009 7.19404 17.0521 7.39452 16.7481C7.60612 16.4088 7.73008 16.0384 7.75889 15.6593C7.80176 15.2387 7.83036 14.7778 7.83036 14.2823C7.83558 13.8315 7.79974 13.3809 7.72318 12.9342C7.6729 12.5912 7.53679 12.2599 7.32309 11.9606C7.10062 11.7007 6.78723 11.5001 6.42288 11.3844C5.93877 11.2486 5.4277 11.1861 4.9154 11.2001L3.41504 11.1886ZM3.41504 2.99035V8.60753H4.95112C6.08709 8.60753 6.85156 8.36557 7.24451 7.87587C7.68328 7.22143 7.88622 6.48104 7.83036 5.73844C7.89345 5.01172 7.66281 4.28809 7.17304 3.67594C6.87048 3.42471 6.50091 3.23239 6.09239 3.1136C5.68386 2.9948 5.24713 2.95266 4.81537 2.99035H3.41504ZM0 20.6485V0.236489H5.00113C5.95791 0.214658 6.90901 0.362147 7.7875 0.66858C8.51817 0.932761 9.16535 1.32665 9.68076 1.82082C10.1733 2.30297 10.5315 2.86491 10.731 3.46852C10.9467 4.09901 11.0548 4.75026 11.0525 5.4043V6.1475C11.0621 6.61898 11.0118 7.09 10.9025 7.55322C10.8159 7.90374 10.6642 8.24172 10.4524 8.55569C10.0253 9.12631 9.42544 9.60009 8.70912 9.93261C9.48622 10.2328 10.1117 10.7393 10.4809 11.3672C10.9053 12.1809 11.1005 13.0605 11.0525 13.9424V15.0947C11.0525 16.8922 10.5453 18.2691 9.53075 19.2255C8.51624 20.1818 6.8944 20.66 4.66532 20.66L0 20.6485Z" fill="white"/>
<path d="M26.1488 2.98989C25.8863 2.98415 25.6248 3.01734 25.3772 3.08782C25.1578 3.17074 24.9648 3.29291 24.8128 3.44503C24.6287 3.62973 24.5015 3.84686 24.4413 4.07875C24.377 4.32649 24.3198 4.60303 24.2769 4.90837L23.9769 7.28776C23.9769 7.53549 23.9197 7.76594 23.8768 7.97911C23.834 8.19227 23.784 8.36511 23.7411 8.55523C23.7011 8.73775 23.6339 8.9157 23.5411 9.08525C23.4201 9.3347 23.2566 9.56935 23.0552 9.78237C22.8976 9.95981 22.7127 10.1205 22.5051 10.2605L26.0773 20.6307H22.598L19.5902 11.5395H17.6826V20.6307H14.2747V0.21875H17.6826V8.96427H18.8186C19.1516 8.97375 19.4832 8.9246 19.7902 8.82024C20.0277 8.72686 20.2336 8.58848 20.3903 8.41695C20.5486 8.2448 20.6628 8.04895 20.7261 7.84083C20.7996 7.5996 20.8568 7.35536 20.8976 7.10916L21.2263 4.67216C21.2263 4.59726 21.2763 4.44172 21.312 4.19975C21.3543 3.9244 21.4164 3.65124 21.4978 3.38165C21.5905 3.05996 21.7122 2.74419 21.8621 2.43682C22.0191 2.11438 22.2205 1.80711 22.4622 1.52077C22.8575 1.08044 23.3967 0.737383 24.0197 0.529861C24.7045 0.322448 25.4317 0.220807 26.1631 0.230266L26.1488 2.98989Z" fill="white"/>
<path d="M28.4921 17.8945C28.8494 17.8906 29.2056 17.8617 29.5567 17.808C29.9118 17.7712 30.2413 17.6393 30.4926 17.4336C30.73 17.2155 30.9273 16.971 31.0784 16.7076C31.3415 16.2532 31.5381 15.7757 31.6643 15.2846L31.9643 14.1669L26.8203 0.236328H30.3926L33.6219 9.84027H33.6933L36.201 0.236328H39.7733L34.8221 15.7455C34.5495 16.5921 34.2155 17.4251 33.8219 18.2401C33.507 18.909 32.9886 19.5033 32.3144 19.9685C31.8465 20.3271 31.2617 20.5709 30.6283 20.6714C29.982 20.7625 29.3269 20.8068 28.6708 20.8039H28.2063V17.8772L28.4921 17.8945Z" fill="white"/>
<path d="M52.2978 14.8293V16.091C52.3002 16.7044 52.1571 17.3126 51.8762 17.8827C51.6042 18.4341 51.215 18.943 50.726 19.3864C50.2421 19.8214 49.6571 20.1757 49.0042 20.4292C48.3369 20.6916 47.6032 20.8257 46.8608 20.8209C46.1936 20.8162 45.5303 20.7387 44.8889 20.5905C44.2201 20.4365 43.604 20.1605 43.0885 19.7839C42.5233 19.3734 42.0727 18.8707 41.7668 18.309C41.3874 17.5805 41.2094 16.7941 41.2452 16.0046V4.77018C41.2389 4.13555 41.3744 3.50518 41.6453 2.90931C41.8995 2.35687 42.2854 1.84994 42.7813 1.41715C43.2787 0.995077 43.8765 0.658072 44.5389 0.426223C45.2531 0.183741 46.0216 0.0621664 46.7965 0.0690307C47.5319 0.0476265 48.2641 0.15736 48.9408 0.390391C49.6176 0.623423 50.2223 0.974008 50.7117 1.41715C51.2123 1.87528 51.6025 2.4048 51.862 2.97846C52.1475 3.60761 52.2903 4.27307 52.2835 4.94301V6.09526H48.8684V5.12161C48.8855 4.58808 48.6874 4.06448 48.304 3.62946C48.1323 3.42918 47.9011 3.26678 47.6315 3.15709C47.3619 3.04739 47.0626 2.99389 46.7608 3.00149C46.4287 2.96752 46.0915 3.01337 45.7915 3.13328C45.4916 3.25319 45.2422 3.44183 45.0747 3.67556C44.7706 4.21754 44.6286 4.80958 44.6603 5.40392V15.8375C44.6401 16.3585 44.7957 16.8742 45.1104 17.3296C45.2917 17.5343 45.5379 17.6958 45.8233 17.7971C46.1087 17.8985 46.4226 17.936 46.7322 17.9057C46.975 17.9018 47.2158 17.8688 47.4466 17.8078C47.7094 17.7348 47.952 17.6213 48.1611 17.4737C48.3814 17.2955 48.552 17.0814 48.6612 16.8457C48.8069 16.5249 48.8748 16.1846 48.8613 15.8432V14.8408L52.2978 14.8293Z" fill="white"/>
<path d="M85.1394 0.00453145C86.9139 -0.0294697 88.677 0.283058 90.3211 0.923035C91.7368 1.48302 93.0147 2.31993 94.073 3.38016C95.0191 4.35023 95.7599 5.48664 96.2545 6.72654C96.7425 7.92998 96.9952 9.20907 97 10.5C96.9952 11.7909 96.7425 13.07 96.2545 14.2735C95.7496 15.5277 95.0103 16.6834 94.073 17.6842C92.9977 18.7088 91.723 19.5217 90.3211 20.077C88.677 20.7169 86.9139 21.0295 85.1394 20.9955H65.8667C64.0694 21.042 62.2817 20.7292 60.6177 20.077C59.2539 19.5243 58.0227 18.71 57.0003 17.6842C56.0282 16.6966 55.2646 15.5385 54.7516 14.2735C54.2593 13.071 54.0044 11.7915 54 10.5C54.0044 9.20848 54.2593 7.92896 54.7516 6.72654C55.2543 5.47558 56.0196 4.33664 57.0003 3.38016C58.0059 2.31979 59.2402 1.4814 60.6177 0.923035C62.2817 0.270791 64.0694 -0.0420397 65.8667 0.00453145H85.1394Z" fill="white"/>
<path d="M96 10.497C96 13.0163 94.9993 15.4325 93.2179 17.2145C91.4365 18.9965 89.0201 19.9984 86.5 20C85.2519 20 84.0161 19.7541 82.8631 19.2765C81.7101 18.7989 80.6626 18.0988 79.7804 17.2163C78.8981 16.3338 78.1985 15.2861 77.7214 14.1332C77.2443 12.9803 76.9992 11.7447 77 10.497C77 7.97824 78.0009 5.56263 79.7825 3.7816C81.5641 2.00056 83.9804 1 86.5 1C89.0191 1.00159 91.4345 2.00266 93.2158 3.78335C94.997 5.56404 95.9984 7.97873 96 10.497Z" fill="#DA0C39"/>
</g>
<defs>
<clipPath id="clip0_1412_1765">
<rect width="116.569" height="20.821" fill="white"/>
</clipPath>
</defs>
</svg>
