<svg width="132" height="30" viewBox="0 0 132 30" fill="none" xmlns="http://www.w3.org/2000/svg">
<g clip-path="url(#clip0_1409_1140)">
<path d="M119.509 28.6636V0H123.368V8.71317L128.141 15.962V0H132V28.6636H128.141V22.2724L123.368 15.0235V28.6636H119.509Z" fill="white"/>
<path d="M3.85905 15.6953V24.8696H5.52563C6.15849 24.9022 6.78956 24.7771 7.36213 24.5055C7.78898 24.2785 8.13829 23.9292 8.36531 23.5023C8.60505 23.0254 8.74805 22.5057 8.78602 21.9733C8.83456 21.3827 8.8588 20.7355 8.8588 20.0397C8.8634 19.4069 8.82555 18.7744 8.74552 18.1466C8.6897 17.6647 8.5355 17.1993 8.29247 16.7794C8.04512 16.4102 7.68877 16.1274 7.2731 15.9703C6.72556 15.777 6.14633 15.6891 5.56607 15.7115L3.85905 15.6953ZM3.85905 4.1748V12.0709H5.60652C6.89286 12.0709 7.75852 11.723 8.1954 11.0434C8.69513 10.1255 8.92512 9.08496 8.8588 8.04193C8.93264 7.02232 8.67437 6.00623 8.12261 5.14564C7.78372 4.78739 7.36596 4.5131 6.90251 4.34457C6.43906 4.17604 5.94265 4.11791 5.4528 4.1748H3.85905ZM0 28.9713V0.323864H5.66315C6.7482 0.295638 7.82677 0.499765 8.82646 0.922544C9.65107 1.29432 10.3812 1.84741 10.9623 2.54059C11.5227 3.22013 11.931 4.01186 12.1596 4.86248C12.4018 5.74533 12.5216 6.65726 12.5156 7.57271V8.62442C12.5258 9.28648 12.4689 9.94787 12.3457 10.5984C12.2476 11.0907 12.0758 11.5653 11.836 12.0061C11.3557 12.8073 10.6791 13.4728 9.87008 13.9397C10.7461 14.363 11.4531 15.0701 11.8764 15.9461C12.3528 17.0927 12.571 18.3301 12.5156 19.5705V21.1885C12.5156 23.7127 11.9412 25.6462 10.7924 26.9892C9.64356 28.3322 7.80709 28.9956 5.29103 28.9956L0 28.9713Z" fill="white"/>
<path d="M29.6105 4.19845C29.3131 4.18601 29.016 4.23277 28.7368 4.336C28.4842 4.44931 28.2623 4.62127 28.0896 4.83759C27.8808 5.0957 27.7391 5.4014 27.677 5.7275C27.6068 6.07808 27.5421 6.46641 27.4828 6.8925L27.143 10.2338C27.1245 10.5566 27.0867 10.8781 27.0297 11.1965C26.9812 11.4662 26.9327 11.7358 26.8841 12.0055C26.8377 12.2615 26.7616 12.5113 26.6576 12.7498C26.5173 13.1011 26.3324 13.4328 26.1075 13.7368C25.9241 13.9821 25.7122 14.2048 25.4764 14.4002L29.5215 28.9626H25.5816L22.1756 16.1962H20.0155V28.9626H16.1565V0.323242H20.0155V12.5961H21.2533C21.6297 12.6102 22.0048 12.544 22.3536 12.4019C22.6225 12.2708 22.8557 12.0765 23.0332 11.8356C23.2089 11.5918 23.3378 11.3175 23.4134 11.0266C23.4936 10.6876 23.5557 10.3447 23.5995 9.99915L23.9797 6.57698C23.9797 6.4718 24.0363 6.25338 24.0768 5.91359C24.121 5.52692 24.1885 5.14328 24.2791 4.76478C24.3895 4.31362 24.5301 3.87037 24.6998 3.43798C24.8776 2.98519 25.1055 2.55372 25.3793 2.15163C25.824 1.53057 26.4355 1.04812 27.143 0.760109C27.9172 0.464226 28.7415 0.321365 29.5701 0.339426L29.6105 4.19845Z" fill="white"/>
<path d="M32.2554 25.1279C32.6627 25.1229 33.0687 25.0823 33.4689 25.0065C33.87 24.9512 34.2421 24.7666 34.5287 24.4806C34.7946 24.1692 35.0177 23.8236 35.1921 23.4532C35.4866 22.8165 35.7091 22.149 35.8555 21.463L36.1953 19.8935L30.3623 0.323242H34.4074L38.048 13.8096H38.1208L41.0009 0.323242H45.0865L39.488 22.1021C39.1731 23.2901 38.7923 24.4596 38.3473 25.6052C37.9936 26.5439 37.4094 27.3786 36.6484 28.0322C36.1143 28.5298 35.4538 28.8712 34.7391 29.0192C34.0069 29.1444 33.2651 29.2039 32.5224 29.1972H31.9884V25.0955L32.2554 25.1279Z" fill="white"/>
<path d="M59.2122 20.8162V22.588C59.2191 23.449 59.0598 24.3033 58.743 25.104C58.4353 25.8827 57.9915 26.6005 57.4323 27.2237C56.8838 27.8339 56.2215 28.3313 55.4826 28.688C54.7269 29.0555 53.8957 29.2411 53.0555 29.23C52.3004 29.2262 51.5492 29.1201 50.8226 28.9145C50.0628 28.6983 49.3626 28.3109 48.7758 27.7819C48.14 27.2016 47.6305 26.4966 47.2791 25.7108C46.8576 24.6856 46.6591 23.5825 46.6966 22.4747V6.69878C46.6895 5.80759 46.8429 4.92239 47.1497 4.08563C47.4312 3.30681 47.8689 2.59376 48.436 1.99027C48.9993 1.39756 49.6761 0.924322 50.4262 0.598747C51.2348 0.257352 52.1051 0.0865925 52.9827 0.0971579C53.8141 0.068303 54.6416 0.222975 55.4065 0.550171C56.1713 0.877367 56.8548 1.36905 57.4081 1.99027C57.9804 2.63109 58.4252 3.37521 58.7187 4.18272C59.0393 5.06672 59.1982 6.00119 59.1879 6.94148V8.55952H55.3289V7.19228C55.3453 6.44223 55.1182 5.70705 54.6817 5.09691C54.4885 4.8163 54.2281 4.58857 53.9242 4.43453C53.6204 4.28048 53.2828 4.20504 52.9422 4.21508C52.567 4.1666 52.1858 4.22976 51.8462 4.39667C51.5067 4.56357 51.2238 4.82683 51.033 5.15354C50.6867 5.91424 50.5232 6.74543 50.5556 7.58061V22.1673C50.5305 22.8966 50.7069 23.6188 51.0653 24.2545C51.2705 24.5419 51.5494 24.7687 51.8726 24.911C52.1957 25.0534 52.5512 25.1061 52.9018 25.0636C53.1775 25.0582 53.4506 25.009 53.7108 24.9179C54.0091 24.8209 54.2843 24.6639 54.5198 24.4568C54.7694 24.2066 54.9625 23.906 55.0862 23.575C55.2465 23.1234 55.3232 22.6464 55.3127 22.1673V20.7515L59.2122 20.8162Z" fill="white"/>
<path d="M101.929 0.185825C104.278 0.139485 106.613 0.571633 108.79 1.45598C110.663 2.22839 112.352 3.38608 113.749 4.85388C115 6.19372 115.98 7.76219 116.637 9.47339C117.288 11.1392 117.626 12.9111 117.632 14.6997C117.626 16.4856 117.288 18.2549 116.637 19.9179C115.968 21.6498 114.99 23.2453 113.749 24.6264C112.333 26.0508 110.647 27.1784 108.79 27.9434C106.612 28.8238 104.278 29.2558 101.929 29.2135H76.4045C74.0253 29.2732 71.6594 28.8408 69.455 27.9434C67.6507 27.1772 66.0232 26.0482 64.6737 24.6264C63.3816 23.2677 62.37 21.6677 61.6965 19.9179C61.0453 18.2549 60.708 16.4856 60.7014 14.6997C60.7079 12.9111 61.0453 11.1392 61.6965 9.47339C62.358 7.74383 63.3718 6.1707 64.6737 4.85388C66.0036 3.38946 67.6347 2.23027 69.455 1.45598C71.6582 0.554701 74.0249 0.122136 76.4045 0.185825H101.929Z" fill="#FDC62C"/>
<path d="M115.634 14.595C115.634 16.2818 115.302 17.952 114.656 19.5102C114.01 21.0685 113.064 22.4842 111.871 23.6766C110.678 24.8689 109.261 25.8145 107.703 26.4592C106.144 27.104 104.473 27.4353 102.787 27.4342C99.3816 27.4342 96.1159 26.0815 93.708 23.6737C91.3002 21.2659 89.9475 18.0002 89.9475 14.595C89.9497 11.1905 91.3031 7.92608 93.7104 5.51873C96.1178 3.11138 99.3822 1.758 102.787 1.75586C106.193 1.75586 109.459 3.10829 111.868 5.51587C114.277 7.92345 115.632 11.1891 115.634 14.595Z" fill="#CE0037"/>
</g>
<defs>
<clipPath id="clip0_1409_1140">
<rect width="132" height="29.238" fill="white"/>
</clipPath>
</defs>
</svg>
