<svg width="184" height="184" viewBox="0 0 184 184" fill="none" xmlns="http://www.w3.org/2000/svg">
<circle cx="91.6601" cy="91.6603" r="91.66" transform="rotate(180 91.6601 91.6603)" fill="#DA0C39"/>
<path d="M45.0288 32.3301L52.0107 27.4434L60.2036 39.1293L57.8453 40.7794L51.1386 31.2132L48.8776 32.7998L55.5843 42.366L53.2259 44.0161L45.0288 32.3301Z" fill="white"/>
<path d="M57.8539 29.3581C57.3755 28.3426 56.7785 26.8745 57.5025 25.2963C57.9848 24.3494 58.7689 23.5899 59.7311 23.1379C60.6933 22.6858 61.7789 22.567 62.8162 22.8001C64.5098 23.2528 65.2423 24.649 65.7208 25.6644L67.8759 30.2466C68.3544 31.262 68.9471 32.7302 68.2273 34.3083C67.7451 35.2553 66.961 36.0148 65.9987 36.4668C65.0365 36.9188 63.951 37.0377 62.9136 36.8046C61.22 36.3519 60.4833 34.9557 60.0091 33.9402L57.8539 29.3581ZM63.0406 26.7307C62.8551 26.249 62.4997 25.8517 62.0414 25.6137C61.6753 25.4992 61.2795 25.526 60.9322 25.689C60.5849 25.8519 60.3114 26.1391 60.1657 26.4937C60.055 26.999 60.1333 27.5273 60.3859 27.9788L62.685 32.874C62.8746 33.3546 63.2308 33.751 63.6885 33.991C64.0546 34.1055 64.4504 34.0786 64.7977 33.9157C65.145 33.7528 65.4184 33.4656 65.5641 33.111C65.6749 32.6057 65.5965 32.0774 65.3439 31.6259L63.0406 26.7307Z" fill="white"/>
<path d="M74.6128 22.6014L74.562 22.4067C74.4661 22.0723 74.2677 21.7764 73.9946 21.5606C73.8178 21.4213 73.6091 21.3283 73.3874 21.2899C73.1656 21.2515 72.9377 21.2689 72.7244 21.3406C72.5189 21.3902 72.327 21.485 72.1629 21.6183C71.9988 21.7515 71.8666 21.9197 71.776 22.1106C71.5895 22.5706 71.5819 23.0838 71.7548 23.5491L73.2367 28.8717C73.3323 29.2919 73.5628 29.6692 73.893 29.9464C74.0789 30.0673 74.2901 30.1439 74.5104 30.1703C74.7306 30.1967 74.9539 30.1722 75.1632 30.0987C75.378 30.0601 75.5799 29.9687 75.7506 29.8328C75.9213 29.6969 76.0556 29.5208 76.1412 29.3202C76.283 29.0055 76.3011 28.6491 76.1921 28.3217L76.1328 28.1017L78.9061 27.3316L78.9781 27.577C79.1588 28.1653 79.2062 28.7864 79.1169 29.3953C79.0275 30.0042 78.8037 30.5855 78.4615 31.0972C77.8458 31.9366 76.9564 32.5351 75.9465 32.7896C75.3687 32.9729 74.7602 33.0399 74.1563 32.9869C73.5524 32.9339 72.965 32.7619 72.428 32.4807C71.0012 31.6557 70.6582 30.3145 70.311 29.1256L69.0154 24.3953C68.7105 23.2868 68.4269 21.8567 69.2991 20.4647C69.893 19.5519 70.8141 18.9009 71.8733 18.6454C72.4502 18.4562 73.0595 18.386 73.6643 18.4391C74.2691 18.4922 74.8569 18.6674 75.3919 18.9543C76.3709 19.6128 77.0732 20.6083 77.3649 21.751L77.3903 21.8313L74.6128 22.6014Z" fill="white"/>
<path d="M86.7089 24.3393H86.7682L89.1858 16.1566L91.8278 15.9492L92.9456 30.178L90.2443 30.3896L89.6092 22.2788L87.6743 28.5195L86.4675 28.6125L83.5842 22.7526L84.2193 30.8423L81.5222 31.0538L80.4001 16.825L83.0422 16.6177L86.7089 24.3393Z" fill="white"/>
<path d="M95.9605 20.7323C96.0875 19.6153 96.3542 18.0541 97.798 17.0894C98.7059 16.5367 99.7721 16.3015 100.828 16.421C101.885 16.5405 102.871 17.0079 103.633 17.7495C104.822 19.0188 104.729 20.5969 104.602 21.7139L104.026 26.7445C103.899 27.8573 103.637 29.4227 102.193 30.3874C101.285 30.9411 100.218 31.1764 99.1617 31.0561C98.1049 30.9358 97.1184 30.4667 96.3585 29.7232C95.1687 28.4539 95.2619 26.8757 95.3889 25.7629L95.9605 20.7323ZM101.761 21.2146C101.856 20.7064 101.761 20.1811 101.494 19.738C101.242 19.4488 100.89 19.2645 100.509 19.2215C100.127 19.1784 99.743 19.2797 99.4324 19.5053C99.0743 19.8779 98.865 20.3685 98.8439 20.8846L98.2299 26.258C98.137 26.7676 98.2317 27.2936 98.4967 27.7388C98.7484 28.0277 99.0994 28.2119 99.4803 28.255C99.8612 28.2981 100.244 28.1969 100.554 27.9715C100.914 27.5996 101.125 27.1089 101.147 26.5922L101.761 21.2146Z" fill="white"/>
<path d="M112.99 21.7343L109.899 32.9972L107.122 32.2398L110.213 20.9727L107.435 20.2111L108.121 17.7148L116.449 19.9953L115.764 22.4916L112.99 21.7343Z" fill="white"/>
<path d="M121.691 23.4735H121.716C122.115 23.2204 122.56 23.0466 123.025 22.9616C123.639 22.8824 124.263 22.9793 124.824 23.2408C125.25 23.41 125.628 23.6783 125.929 24.0235C126.229 24.3687 126.443 24.7807 126.552 25.2252C126.768 26.2745 126.306 27.3407 125.925 28.1869L122.855 34.9564C122.701 35.3675 122.466 35.7435 122.164 36.0625C121.863 36.3815 121.5 36.6369 121.098 36.8138C120.73 36.9564 120.336 37.0192 119.942 36.998C119.548 36.9769 119.162 36.8723 118.812 36.6911C118.194 36.4291 117.67 35.9867 117.309 35.4218C117.073 35.0696 116.897 34.6807 116.788 34.271L113.883 40.664L111.262 39.4709L119.591 21.1338L122.212 22.3227L121.691 23.4735ZM118.168 31.2247C118.039 31.4501 117.956 31.6994 117.925 31.9575C117.895 32.2156 117.917 32.4773 117.99 32.7267C118.059 32.9191 118.166 33.0955 118.305 33.2453C118.444 33.3951 118.612 33.5152 118.799 33.5983C118.97 33.6801 119.158 33.7226 119.347 33.7226C119.537 33.7226 119.724 33.6801 119.896 33.5983C120.084 33.5107 120.253 33.3867 120.393 33.2335C120.534 33.0803 120.642 32.9009 120.713 32.7055L123.101 27.4422C123.226 27.2459 123.309 27.0252 123.342 26.7946C123.376 26.5641 123.36 26.3291 123.296 26.1052C123.241 25.9242 123.146 25.7576 123.019 25.6178C122.891 25.478 122.734 25.3684 122.559 25.2971C122.374 25.2116 122.173 25.1648 121.969 25.1598C121.765 25.1547 121.563 25.1913 121.373 25.2675C121.137 25.3748 120.925 25.5292 120.75 25.7213C120.575 25.9133 120.442 26.139 120.357 26.3845L118.168 31.2247Z" fill="white"/>
<path d="M134.096 28.7324L129.54 35.2736L135.997 32.1976L137.001 30.7549L139.363 32.4007L131.208 44.1121L128.842 42.4704L133.402 35.9293L126.941 39.0053L125.937 40.448L123.574 38.8022L131.733 27.0908L134.096 28.7324Z" fill="white"/>
<path d="M144.279 40.4218L136.149 48.8118L134.066 46.819L142.195 38.429L140.129 36.4277L141.929 34.5703L148.136 40.5741L146.332 42.4315L144.279 40.4218Z" fill="white"/>
<path d="M143.978 51.2948C143.787 51.4087 143.621 51.56 143.49 51.7396C143.359 51.9192 143.266 52.1233 143.216 52.3398C143.192 52.5386 143.21 52.7402 143.268 52.9318C143.327 53.1234 143.424 53.3007 143.555 53.4526C143.683 53.6424 143.86 53.7942 144.067 53.8917C144.274 53.9893 144.504 54.0291 144.732 54.0068C145.072 53.964 145.394 53.8327 145.668 53.626L147.404 55.9192L147.315 55.9869C146.468 56.63 145.198 57.3197 143.563 56.8035C142.66 56.4974 141.872 55.9215 141.307 55.1534C140.927 54.6675 140.651 54.1087 140.497 53.5119C140.343 52.9151 140.313 52.2929 140.409 51.684C140.697 50.2032 141.853 49.2977 142.526 48.7731L146.891 45.4772C147.384 45.0618 147.963 44.7607 148.586 44.5954C149.209 44.43 149.86 44.4046 150.494 44.521C151.507 44.762 152.397 45.3637 152.997 46.2134C153.679 47.065 154.027 48.1362 153.975 49.2258C153.869 50.8928 152.823 51.8998 151.93 52.5767L148.966 54.8319L145.447 50.2032L143.978 51.2948ZM148.987 51.189L150.482 50.0593C150.654 49.9475 150.801 49.8009 150.913 49.629C151.026 49.457 151.101 49.2635 151.134 49.0608C151.171 48.6691 151.056 48.2781 150.812 47.9692C150.69 47.7965 150.531 47.6534 150.346 47.5501C150.161 47.4469 149.956 47.3863 149.745 47.3726C149.33 47.3744 148.929 47.5244 148.615 47.7957L147.217 48.8535L148.987 51.189Z" fill="white"/>
<path d="M163.15 64.8722C163.565 65.8263 163.589 66.9045 163.218 67.8762C162.799 68.6858 162.106 69.3201 161.262 69.6659L160.618 69.9156C159.925 70.2329 159.138 70.2782 158.412 70.0425C157.988 69.8842 157.614 69.6154 157.328 69.264C157.365 69.8188 157.226 70.371 156.93 70.8422C156.523 71.451 155.928 71.9112 155.237 72.1537L154.623 72.3949C154.158 72.5862 153.657 72.6768 153.154 72.6608C152.651 72.6447 152.158 72.5224 151.706 72.3018C150.592 71.7518 150.101 70.7406 149.711 69.7632L148.107 65.693L161.397 60.4678L163.15 64.8722ZM151.587 67.4108L152.074 68.642C152.14 68.8626 152.256 69.065 152.413 69.2331C152.57 69.4013 152.764 69.5306 152.98 69.6109C153.328 69.7244 153.706 69.6986 154.034 69.539L154.517 69.3486C154.72 69.2966 154.908 69.1985 155.067 69.062C155.226 68.9255 155.351 68.7542 155.433 68.5614C155.515 68.3686 155.552 68.1596 155.54 67.9505C155.528 67.7414 155.467 67.5379 155.364 67.3558L154.877 66.1246L151.587 67.4108ZM156.998 65.2953L157.464 66.4758C157.516 66.6857 157.622 66.8786 157.77 67.0363C157.918 67.1941 158.104 67.3113 158.311 67.377C158.709 67.4921 159.135 67.4574 159.509 67.2796L159.776 67.1739C160.125 67.0586 160.416 66.811 160.584 66.4842C160.659 66.2889 160.691 66.0801 160.678 65.8715C160.666 65.6629 160.609 65.4593 160.512 65.2742L160.051 64.098L156.998 65.2953Z" fill="white"/>
<path d="M166.431 75.6837L158.624 77.2238L165.398 79.4958L167.122 79.1574L167.68 81.9794L153.666 84.738L153.12 81.9371L160.944 80.397L154.17 78.125L152.446 78.4635L151.887 75.6414L165.902 72.8828L166.431 75.6837Z" fill="white"/>
<path d="M156.604 97.2263L151.134 97.3109L151.091 94.5819L153.97 94.5354L153.864 88.0324L150.985 88.0789L150.939 85.3457L156.409 85.2568L156.434 86.7546C157.718 87.3276 159.084 87.6932 160.482 87.8378C162.436 88.0387 164.4 88.1221 166.363 88.0874L168.146 88.062L168.264 95.3943L156.578 95.5847L156.604 97.2263ZM165.597 90.719H164.564C162.945 90.7691 161.324 90.6799 159.72 90.4525C158.558 90.2818 157.421 89.9722 156.333 89.5301L156.384 92.6949L165.622 92.5426L165.597 90.719Z" fill="white"/>
<path d="M157.523 101.437C157.311 101.379 157.088 101.364 156.87 101.394C156.652 101.423 156.442 101.497 156.253 101.611C156.092 101.73 155.958 101.882 155.859 102.056C155.76 102.23 155.698 102.423 155.677 102.622C155.629 102.847 155.643 103.081 155.717 103.298C155.792 103.516 155.924 103.709 156.1 103.857C156.366 104.076 156.684 104.222 157.023 104.28L156.562 107.124H156.447C155.397 106.954 154.034 106.527 153.268 104.979C152.864 104.114 152.735 103.147 152.899 102.207C152.99 101.597 153.205 101.011 153.531 100.487C153.857 99.963 154.288 99.5116 154.796 99.1609C156.066 98.3486 157.519 98.5559 158.374 98.6913L163.772 99.5671C164.414 99.6358 165.033 99.8461 165.583 100.183C166.134 100.519 166.603 100.974 166.956 101.513C167.478 102.407 167.658 103.459 167.464 104.475C167.32 105.556 166.785 106.548 165.961 107.263C164.691 108.338 163.23 108.279 162.121 108.109L158.429 107.509L159.361 101.771L157.523 101.437ZM161.063 104.987L162.909 105.283C163.108 105.331 163.316 105.337 163.518 105.3C163.72 105.262 163.912 105.183 164.081 105.067C164.393 104.826 164.596 104.472 164.649 104.082C164.69 103.874 164.685 103.659 164.633 103.453C164.581 103.248 164.483 103.056 164.348 102.893C164.06 102.596 163.676 102.41 163.264 102.368L161.533 102.089L161.063 104.987Z" fill="white"/>
<path d="M161.126 111.358C162.185 111.722 163.667 112.319 164.285 113.935C164.629 114.941 164.628 116.033 164.281 117.039C163.935 118.044 163.263 118.905 162.371 119.486C160.877 120.37 159.352 119.935 158.29 119.571L153.501 117.921C152.438 117.553 150.961 116.956 150.338 115.34C149.997 114.333 150 113.241 150.347 112.236C150.694 111.232 151.366 110.37 152.256 109.789C153.747 108.904 155.275 109.34 156.334 109.704L161.126 111.358ZM159.391 116.905C159.867 117.107 160.401 117.13 160.894 116.969C161.231 116.786 161.487 116.483 161.613 116.121C161.738 115.758 161.723 115.362 161.571 115.01C161.282 114.582 160.85 114.271 160.352 114.134L155.237 112.37C154.76 112.167 154.225 112.146 153.734 112.31C153.398 112.493 153.142 112.795 153.017 113.157C152.893 113.519 152.908 113.914 153.061 114.265C153.346 114.698 153.779 115.011 154.28 115.145L159.391 116.905Z" fill="white"/>
<path d="M153.505 129.04C154.428 129.675 155.681 130.644 155.859 132.37C155.92 133.431 155.626 134.483 155.023 135.359C154.419 136.234 153.541 136.884 152.527 137.206C150.834 137.659 149.5 136.834 148.573 136.199L144.398 133.326C143.475 132.691 142.217 131.723 142.044 129.996C141.98 128.934 142.274 127.882 142.877 127.006C143.481 126.13 144.36 125.48 145.376 125.16C147.069 124.708 148.403 125.533 149.33 126.167L153.505 129.04ZM150.347 133.927C150.753 134.246 151.261 134.408 151.778 134.384C152.154 134.305 152.484 134.082 152.696 133.762C152.92 133.448 153.013 133.06 152.955 132.679C152.791 132.189 152.457 131.774 152.015 131.507L147.552 128.439C147.147 128.12 146.64 127.958 146.125 127.982C145.753 128.066 145.425 128.286 145.207 128.599C144.989 128.913 144.896 129.297 144.948 129.675C145.107 130.167 145.442 130.584 145.888 130.847L150.347 133.927Z" fill="white"/>
<path d="M139.198 148.58L131.535 139.763L133.711 137.876L141.375 146.693L143.547 144.811L145.24 146.765L138.724 152.422L137.03 150.467L139.198 148.58Z" fill="white"/>
<path d="M133.838 150.33C134.435 151.282 135.205 152.666 134.684 154.32C134.322 155.32 133.637 156.17 132.736 156.736C131.836 157.303 130.772 157.553 129.714 157.447C127.995 157.202 127.08 155.907 126.479 154.959L123.782 150.673C123.181 149.725 122.41 148.342 122.935 146.688C123.297 145.688 123.983 144.838 124.883 144.271C125.784 143.705 126.847 143.455 127.906 143.561C129.625 143.802 130.539 145.097 131.136 146.044L133.838 150.33ZM129.007 153.571C129.253 154.027 129.656 154.379 130.141 154.561C130.519 154.63 130.908 154.555 131.233 154.35C131.557 154.146 131.793 153.827 131.894 153.457C131.942 152.942 131.799 152.427 131.492 152.01L128.609 147.432C128.363 146.978 127.962 146.628 127.478 146.446C127.101 146.378 126.711 146.453 126.387 146.658C126.062 146.862 125.826 147.181 125.725 147.551C125.679 148.065 125.82 148.579 126.123 148.998L129.007 153.571Z" fill="white"/>
<path d="M116.618 155.688H116.568V164.222L114.095 165.174L108.963 151.855L111.504 150.886L114.421 158.455L114.493 151.922L115.623 151.499L120.061 156.297L117.143 148.728L119.684 147.755L124.815 161.074L122.343 162.022L116.618 155.688Z" fill="white"/>
<path d="M104.309 155.978L103.649 152.881L106.147 149.407L107.417 155.331L104.309 155.978Z" fill="white"/>
<path d="M89.7615 159.638C90.5546 159.295 91.4124 159.126 92.2766 159.143C92.7041 159.123 93.1314 159.187 93.5339 159.332C93.9365 159.478 94.3063 159.701 94.6222 159.989C95.3843 160.751 95.3971 161.682 95.3801 162.448L95.27 168.261L92.3909 168.206L92.4883 163.129C92.5185 162.942 92.5049 162.75 92.4483 162.569C92.3918 162.388 92.294 162.223 92.1626 162.087C92.0312 161.95 91.8698 161.846 91.6912 161.782C91.5126 161.718 91.3216 161.697 91.1334 161.72C90.6431 161.692 90.1541 161.792 89.715 162.012L89.5964 168.168L86.7173 168.113L86.9925 153.842L89.8716 153.897L89.7615 159.638Z" fill="white"/>
<path d="M78.2202 164.298L80.1932 152.785L83.03 153.272L81.057 164.784L83.8938 165.271L83.4704 167.809L74.96 166.35L75.3834 163.811L78.2202 164.298Z" fill="white"/>
<path d="M73.4646 161.258C73.1089 162.324 72.5204 163.796 70.9241 164.435C69.9202 164.787 68.8274 164.794 67.8189 164.455C66.8104 164.117 65.9438 163.451 65.3564 162.565C64.4587 161.08 64.8821 159.552 65.242 158.49L66.8552 153.688C67.2109 152.626 67.7994 151.15 69.3957 150.511C70.3998 150.161 71.4918 150.155 72.4998 150.494C73.5078 150.832 74.3745 151.496 74.9634 152.381C75.861 153.866 75.4376 155.393 75.0778 156.46L73.4646 161.258ZM67.8968 159.565C67.6978 160.043 67.6813 160.578 67.8502 161.067C68.0355 161.403 68.3402 161.657 68.7039 161.779C69.0677 161.902 69.4641 161.883 69.8148 161.727C70.2334 161.431 70.5335 160.996 70.6616 160.5L72.3849 155.372C72.5822 154.895 72.6002 154.364 72.4357 153.875C72.2552 153.537 71.9522 153.281 71.5889 153.159C71.2261 153.032 70.8279 153.052 70.4795 153.214C70.0503 153.503 69.7405 153.938 69.6074 154.437L67.8968 159.565Z" fill="white"/>
<path d="M52.6507 147.619L52.6041 147.585L45.4867 152.303L43.3315 150.767L51.6218 139.148L53.8277 140.718L49.111 147.323L54.6153 143.786L55.6018 144.488L54.0437 150.834L58.7562 144.23L60.9621 145.8L52.6676 157.418L50.5125 155.878L52.6507 147.619Z" fill="white"/>
<path d="M32.4492 139.477L30.5481 137.315L41.2814 127.901L43.1782 130.063L32.4492 139.477ZM37.4072 145.121L41.3872 141.631L40.4007 140.505C39.6979 139.706 39.0204 138.813 39.0416 137.544C39.0535 137.04 39.173 136.545 39.392 136.091C39.6111 135.637 39.9247 135.235 40.3118 134.912L41.5269 133.85C41.9069 133.48 42.3634 133.197 42.8645 133.021C43.3655 132.846 43.899 132.782 44.4273 132.835C45.6975 133 46.4681 133.761 47.1709 134.561L50.0585 137.848L39.3253 147.262L37.4072 145.121ZM46.1886 137.417L45.3164 136.423C45.1795 136.236 45.0011 136.084 44.7954 135.979C44.5897 135.873 44.3622 135.816 44.1309 135.813C43.7666 135.825 43.421 135.977 43.1656 136.236L42.5601 136.769C42.2578 137.008 42.0543 137.35 41.9885 137.73C41.977 137.951 42.013 138.172 42.0941 138.377C42.1751 138.583 42.2994 138.769 42.4585 138.923L43.3349 139.917L46.1886 137.417Z" fill="white"/>
<path d="M30.6415 112.197L35.6631 110.03L36.747 112.539L34.105 113.682L36.6835 119.652L39.3298 118.509L40.4137 121.018L35.3921 123.184L34.7951 121.814C33.3909 121.772 31.9888 121.953 30.6415 122.351C28.7595 122.911 26.9129 123.583 25.1119 124.365L23.4733 125.071L20.5603 118.323L31.2936 113.69L30.6415 112.197ZM24.8282 121.64L25.7809 121.217C27.2576 120.553 28.789 120.018 30.3579 119.618C31.4964 119.335 32.6652 119.193 33.8382 119.195L32.568 116.288L24.1 119.952L24.8282 121.64Z" fill="white"/>
<path d="M28.1899 108.728C28.4109 108.701 28.6241 108.629 28.8163 108.517C29.0085 108.405 29.1758 108.255 29.3077 108.076C29.4102 107.904 29.4759 107.712 29.5007 107.514C29.5254 107.315 29.5088 107.113 29.4517 106.921C29.4118 106.696 29.3121 106.487 29.1631 106.314C29.0141 106.141 28.8213 106.012 28.6049 105.939C28.2757 105.842 27.9267 105.834 27.593 105.914L26.9324 103.113L27.0425 103.084C28.0799 102.842 29.5025 102.711 30.8066 103.854C31.5081 104.499 31.9956 105.344 32.2038 106.274C32.3554 106.872 32.3816 107.495 32.2811 108.103C32.1806 108.712 31.9553 109.293 31.6195 109.811C30.7727 111.05 29.3374 111.414 28.4948 111.613L23.1684 112.882C22.5498 113.065 21.8983 113.108 21.2612 113.008C20.624 112.907 20.0172 112.667 19.4848 112.303C18.6597 111.678 18.0883 110.777 17.8758 109.764C17.5952 108.711 17.7097 107.591 18.1976 106.616C18.9724 105.131 20.3146 104.632 21.4282 104.374L25.0694 103.528L26.4032 109.189L28.1899 108.728ZM23.5579 106.803L21.7372 107.226C21.5343 107.258 21.3404 107.333 21.1682 107.445C20.9961 107.557 20.8495 107.705 20.738 107.877C20.6395 108.048 20.576 108.236 20.5513 108.432C20.5266 108.627 20.5411 108.826 20.5941 109.015C20.6358 109.223 20.7232 109.419 20.8499 109.588C20.9765 109.758 21.1394 109.898 21.3266 109.997C21.7067 110.16 22.1321 110.186 22.529 110.069L24.2226 109.646L23.5579 106.803Z" fill="white"/>
<path d="M30.1928 91.7695L30.3748 94.6424L18.7058 95.3701L18.8202 97.2064L19.7474 97.1683C21.8163 97.0838 23.8883 97.1093 25.9545 97.2444C27.1739 97.3714 28.749 97.6464 29.7355 98.6533C30.3712 99.37 30.7431 100.282 30.7898 101.238L30.8321 101.899L28.4187 102.051V101.704C28.3815 101.41 28.2755 101.13 28.1092 100.885C27.9429 100.64 27.7211 100.438 27.4618 100.295C26.9537 99.9819 26.1366 99.8719 23.973 99.8211C23.0203 99.7915 20.0819 99.8592 19.2436 99.8846L16.4237 99.9988L15.9368 92.6581L30.1928 91.7695Z" fill="white"/>
<path d="M29.4858 83.7093V83.7643C29.8655 84.0779 30.1953 84.4474 30.4639 84.8601C30.7898 85.3695 30.9178 85.9806 30.8238 86.5779C30.7724 87.3745 30.4197 88.1217 29.8372 88.668C28.9057 89.4634 27.6016 89.4634 26.45 89.3365C25.4211 89.218 23.8799 88.9895 22.9993 88.0672C21.9916 86.9967 22.0551 85.3847 22.1525 84.5555C22.2119 84.0109 22.301 83.4699 22.4192 82.935L20.9331 82.77C20.7203 82.7237 20.5003 82.7209 20.2864 82.7616C20.0725 82.8023 19.8691 82.8858 19.6882 83.0069C19.5202 83.1382 19.3814 83.3032 19.2808 83.4911C19.1802 83.6791 19.1199 83.886 19.1039 84.0985C19.0753 84.3148 19.095 84.5347 19.1616 84.7425C19.2283 84.9503 19.3402 85.1407 19.4892 85.3001C19.7238 85.5468 20.0307 85.7127 20.3657 85.774L20.0608 88.4903C19.4966 88.4436 18.9471 88.2857 18.4443 88.0257C17.9414 87.7657 17.495 87.4088 17.1308 86.9756C16.4369 86.0118 16.144 84.8167 16.3137 83.6416C16.4106 82.5089 16.9434 81.4578 17.7999 80.7095C18.9473 79.7956 20.3064 79.8041 21.2802 79.9141L31.209 81.0184L30.8873 83.8785L29.4858 83.7093ZM24.7098 83.1762C24.6155 83.4999 24.5489 83.8312 24.5108 84.1662C24.4499 84.462 24.4563 84.7677 24.5296 85.0606C24.6029 85.3536 24.7412 85.6263 24.9342 85.8586C25.3288 86.2201 25.8389 86.43 26.3738 86.4509C26.7813 86.517 27.1993 86.4626 27.5762 86.2944C27.7931 86.2064 27.9814 86.0603 28.1203 85.8722C28.2593 85.684 28.3435 85.4612 28.3638 85.2282C28.4611 84.382 27.97 83.5612 26.7125 83.4216L24.7098 83.1762Z" fill="white"/>
<path d="M28.3721 74.9394C28.576 75.0273 28.7958 75.0726 29.0178 75.0726C29.2399 75.0726 29.4596 75.0273 29.6635 74.9394C29.8378 74.839 29.9893 74.7038 30.1088 74.5422C30.2283 74.3805 30.3131 74.196 30.3579 74.0001C30.4329 73.7848 30.4485 73.5534 30.403 73.33C30.3576 73.1067 30.2527 72.8997 30.0996 72.7308C29.8663 72.4871 29.575 72.3066 29.2528 72.2062L30.0615 69.4476L30.1716 69.4814C31.192 69.7776 32.4918 70.3657 33.0592 72.02C33.3517 72.928 33.3606 73.9035 33.0846 74.8167C32.9189 75.4108 32.6327 75.9646 32.2438 76.4435C31.8548 76.9225 31.3714 77.3163 30.8237 77.6007C29.4645 78.2522 28.0461 77.8672 27.2205 77.626L21.9703 76.0902C21.3991 75.9759 20.8591 75.7408 20.3863 75.4008C19.9135 75.0608 19.5189 74.6237 19.229 74.1189C18.9391 73.614 18.7606 73.053 18.7054 72.4736C18.6502 71.8941 18.7197 71.3096 18.9091 70.7592C19.1867 69.704 19.8401 68.7863 20.7466 68.1783C22.1523 67.2686 23.5834 67.5098 24.6589 67.8229L28.2536 68.8764L26.6192 74.4528L28.3721 74.9394ZM25.2982 70.9834L23.503 70.4588C23.3162 70.384 23.1154 70.3506 22.9145 70.3608C22.7135 70.371 22.5172 70.4246 22.3389 70.5179C22.1607 70.6112 22.0048 70.7419 21.8819 70.9012C21.7591 71.0604 21.6722 71.2444 21.6273 71.4404C21.5603 71.6413 21.5393 71.8546 21.5656 72.0648C21.592 72.2749 21.6652 72.4765 21.7798 72.6546C22.0267 72.9855 22.3843 73.2167 22.7875 73.3062L24.4811 73.8012L25.2982 70.9834Z" fill="white"/>
<path d="M31.7091 60.7809L31.7346 60.7301L26.099 54.3287L27.3227 51.9805L39.9825 58.5808L38.7123 60.9798L31.5144 57.2269L35.7823 62.1771L35.2234 63.2476L28.7199 62.5833L35.9177 66.3362L34.6475 68.7351L21.9878 62.1348L23.2114 59.7866L31.7091 60.7809Z" fill="white"/>
<path d="M109.773 89.3869C112.546 90.9885 112.546 94.9923 109.773 96.5939L86.3884 110.095C83.6144 111.696 80.147 109.694 80.147 106.491L80.147 79.4895C80.147 76.2865 83.6144 74.2845 86.3884 75.8861L109.773 89.3869Z" fill="#FDC62C"/>
</svg>
