<svg width="537" height="119" viewBox="0 0 537 119" fill="none" xmlns="http://www.w3.org/2000/svg">
<g clip-path="url(#clip0_846_7126)">
<path d="M486.184 116.609V0H501.883V35.4467L521.301 64.9363V0H537V116.609H521.301V90.6081L501.883 61.1185V116.609H486.184Z" fill="#DA0C39"/>
<path d="M15.6993 63.8499V101.173H22.4793C25.0539 101.305 27.6211 100.796 29.9505 99.6916C31.687 98.768 33.108 97.3469 34.0316 95.6104C35.0069 93.6702 35.5886 91.556 35.7431 89.3899C35.9406 86.9873 36.0392 84.3543 36.0392 81.5238C36.0579 78.9493 35.9039 76.3763 35.5784 73.8223C35.3513 71.8616 34.724 69.9685 33.7353 68.2601C32.729 66.7584 31.2793 65.6078 29.5883 64.9689C27.3608 64.1822 25.0044 63.8248 22.6438 63.9157L15.6993 63.8499ZM15.6993 16.9825V49.1051H22.8083C28.0414 49.1051 31.5631 47.6898 33.3404 44.9252C35.3734 41.1909 36.309 36.9579 36.0392 32.7146C36.3396 28.5667 35.2889 24.433 33.0443 20.932C31.6656 19.4746 29.9661 18.3587 28.0807 17.6731C26.1953 16.9875 24.1758 16.751 22.183 16.9825H15.6993ZM0 117.859V1.31614H23.0387C27.4529 1.20131 31.8407 2.03173 35.9076 3.75168C39.2623 5.26414 42.2324 7.5142 44.5966 10.3342C46.8764 13.0987 48.5373 16.3196 49.4676 19.78C50.4527 23.3717 50.94 27.0816 50.9157 30.8057V35.0843C50.9573 37.7777 50.7256 40.4683 50.2245 43.115C49.8256 45.1174 49.1266 47.0481 48.151 48.8418C46.1972 52.1011 43.4446 54.8085 40.1533 56.7079C43.7169 58.4299 46.5934 61.3065 48.3155 64.8701C50.2534 69.5348 51.1412 74.5688 50.9157 79.6149V86.1974C50.9157 96.4661 48.5789 104.332 43.9053 109.796C39.2318 115.259 31.7607 117.958 21.5249 117.958L0 117.859Z" fill="#DA0C39"/>
<path d="M120.461 17.0815C119.251 17.0308 118.043 17.2211 116.906 17.641C115.879 18.102 114.976 18.8016 114.273 19.6816C113.424 20.7316 112.848 21.9753 112.595 23.3019C112.31 24.7281 112.046 26.3079 111.805 28.0413L110.423 41.6342C110.348 42.9478 110.194 44.2556 109.962 45.5508C109.764 46.6479 109.567 47.745 109.37 48.842C109.18 49.8836 108.871 50.8997 108.448 51.87C107.877 53.2989 107.125 54.6484 106.21 55.8853C105.464 56.8832 104.602 57.7891 103.643 58.5841L120.099 117.827H104.07L90.2144 65.8907H81.4267V117.827H65.7275V1.31641H81.4267V51.2446H86.4624C87.9935 51.302 89.5193 51.0327 90.9384 50.4547C92.0325 49.9213 92.9812 49.1308 93.7031 48.1509C94.4181 47.159 94.9425 46.043 95.2499 44.8596C95.576 43.4807 95.8288 42.0855 96.0071 40.6798L97.5539 26.7577C97.5539 26.3299 97.7842 25.4413 97.9488 24.0589C98.1284 22.4859 98.4032 20.9252 98.7716 19.3854C99.221 17.55 99.7929 15.7468 100.483 13.9877C101.207 12.1457 102.134 10.3904 103.248 8.75461C105.057 6.22804 107.545 4.26535 110.423 3.09366C113.572 1.88995 116.926 1.30877 120.296 1.38225L120.461 17.0815Z" fill="#DA0C39"/>
<path d="M131.221 102.226C132.878 102.206 134.53 102.041 136.158 101.732C137.789 101.507 139.303 100.756 140.469 99.5931C141.551 98.326 142.458 96.9203 143.168 95.4132C144.366 92.8231 145.271 90.1075 145.867 87.3167L147.249 80.9317L123.52 1.31641H139.976L154.786 56.1815H155.082L166.799 1.31641H183.42L160.645 89.9168C159.363 94.7496 157.814 99.5073 156.004 104.168C154.565 107.987 152.188 111.382 149.093 114.042C146.92 116.066 144.233 117.455 141.325 118.057C138.347 118.566 135.329 118.808 132.307 118.781H130.135V102.094L131.221 102.226Z" fill="#DA0C39"/>
<path d="M240.886 84.6836V91.8914C240.914 95.3944 240.266 98.8699 238.977 102.127C237.726 105.295 235.92 108.215 233.645 110.75C231.414 113.233 228.719 115.256 225.713 116.707C222.639 118.202 219.258 118.957 215.84 118.913C212.767 118.897 209.712 118.465 206.756 117.629C203.664 116.749 200.816 115.173 198.429 113.021C195.842 110.66 193.77 107.792 192.34 104.596C190.625 100.425 189.818 95.9373 189.97 91.4306V27.2513C189.941 23.6258 190.566 20.0247 191.813 16.6206C192.959 13.4522 194.739 10.5513 197.046 8.09623C199.338 5.68501 202.092 3.75978 205.143 2.43528C208.432 1.04642 211.973 0.351741 215.543 0.394723C218.926 0.277336 222.292 0.90657 225.404 2.23766C228.515 3.56876 231.296 5.56901 233.546 8.09623C235.875 10.7032 237.684 13.7304 238.878 17.0155C240.183 20.6118 240.829 24.4134 240.787 28.2386V34.8211H225.088V29.259C225.155 26.2076 224.231 23.2168 222.455 20.7346C221.669 19.593 220.61 18.6666 219.374 18.0399C218.138 17.4132 216.764 17.1063 215.379 17.1472C213.852 16.95 212.301 17.2069 210.92 17.8859C209.539 18.5649 208.388 19.6359 207.611 20.965C206.203 24.0597 205.537 27.4411 205.669 30.8388V90.18C205.567 93.1472 206.285 96.0851 207.743 98.6714C208.578 99.8404 209.712 100.763 211.027 101.342C212.342 101.921 213.788 102.136 215.214 101.963C216.336 101.941 217.447 101.741 218.505 101.37C219.719 100.975 220.839 100.337 221.797 99.4942C222.812 98.4765 223.597 97.2533 224.101 95.9067C224.753 94.0695 225.065 92.129 225.022 90.18V84.4203L240.886 84.6836Z" fill="#DA0C39"/>
<path d="M414.665 0.757391C424.223 0.568872 433.719 2.32693 442.575 5.92462C450.195 9.06692 457.069 13.7766 462.751 19.7479C467.839 25.1986 471.828 31.5794 474.5 38.5409C477.15 45.3177 478.522 52.5262 478.548 59.8024C478.522 67.0679 477.149 74.2655 474.5 81.0309C471.78 88.0766 467.798 94.5677 462.751 100.186C456.99 105.981 450.131 110.568 442.575 113.68C433.714 117.262 424.221 119.019 414.665 118.847H310.826C301.147 119.09 291.522 117.331 282.555 113.68C275.214 110.563 268.593 105.97 263.103 100.186C257.847 94.6586 253.731 88.1496 250.992 81.0309C248.342 74.2655 246.97 67.0679 246.943 59.8024C246.97 52.5262 248.342 45.3177 250.992 38.5409C253.682 31.5047 257.807 25.105 263.103 19.7479C268.513 13.7904 275.149 9.07457 282.555 5.92462C291.518 2.25805 301.146 0.498291 310.826 0.757391H414.665Z" fill="#FDC62C"/>
<path d="M470.42 59.3737C470.42 66.2357 469.068 73.0304 466.441 79.3697C463.814 85.7089 459.964 91.4684 455.11 96.319C450.256 101.17 444.494 105.016 438.154 107.639C431.813 110.262 425.017 111.61 418.155 111.606C404.302 111.606 391.017 106.103 381.221 96.3074C371.426 86.512 365.923 73.2265 365.923 59.3737C365.932 45.5236 371.438 32.2432 381.231 22.4497C391.025 12.6561 404.305 7.15032 418.155 7.1416C432.011 7.1416 445.3 12.6435 455.1 22.438C464.901 32.2325 470.411 45.5178 470.42 59.3737Z" fill="#CE0037"/>
</g>
<defs>
<clipPath id="clip0_846_7126">
<rect width="537" height="118.946" fill="white"/>
</clipPath>
</defs>
</svg>
