<svg width="32" height="45" viewBox="0 0 32 45" fill="none" xmlns="http://www.w3.org/2000/svg">
<path d="M0.916012 1.8177H5.51939V7.29094C5.52578 9.96228 6.61743 12.5179 8.54763 14.3802L15.9996 21.5405L23.4516 14.3821C25.3818 12.5198 26.4734 9.96382 26.4798 7.29281V1.81762H31.0832C31.589 1.81762 31.9993 1.4106 31.9993 0.908812C31.9993 0.406689 31.589 0 31.0832 0H0.916176C0.410303 0 0 0.406705 0 0.908812C0 1.41062 0.410319 1.81762 0.916176 1.81762L0.916012 1.8177ZM8.26792 4.54454H8.26824C8.26824 4.04242 8.67825 3.63541 9.18442 3.63541C9.69029 3.63541 10.1006 4.04243 10.1006 4.54454V10.9267C10.1006 11.4288 9.69028 11.8355 9.18442 11.8355C8.67823 11.8355 8.26824 11.4288 8.26824 10.9267L8.26792 4.54454Z" fill="url(#paint0_linear_401_8764)"/>
<path d="M31.0841 43.1824H26.6294V38.4915C26.6262 35.7203 25.4518 33.0771 23.3916 31.2053L16.009 24.51L8.8117 31.2091C6.81025 33.0775 5.6736 35.6816 5.66943 38.4081V43.1824H0.917154C0.411281 43.1824 0.000976562 43.5894 0.000976562 44.0912C0.000976562 44.5933 0.411297 45 0.917154 45H31.0841C31.59 45 32.0003 44.5933 32.0003 44.0912C32.0003 43.5894 31.59 43.1824 31.0841 43.1824ZM23.8805 40.4556C23.8805 40.9577 23.4702 41.3647 22.9643 41.3647C22.4581 41.3647 22.0481 40.9577 22.0481 40.4556V34.8561C22.0481 34.354 22.4581 33.947 22.9643 33.947C23.4702 33.947 23.8805 34.354 23.8805 34.8561V40.4556Z" fill="url(#paint1_linear_401_8764)"/>
<defs>
<linearGradient id="paint0_linear_401_8764" x1="11.7604" y1="-7.87675" x2="42.7913" y2="12.3661" gradientUnits="userSpaceOnUse">
<stop stop-color="#BD2F2F"/>
<stop offset="1" stop-color="#FF4848"/>
</linearGradient>
<linearGradient id="paint1_linear_401_8764" x1="11.7614" y1="17.0174" x2="41.8478" y2="37.6504" gradientUnits="userSpaceOnUse">
<stop stop-color="#BD2F2F"/>
<stop offset="1" stop-color="#FF4848"/>
</linearGradient>
</defs>
</svg>
