<svg width="52" height="45" viewBox="0 0 52 45" fill="none" xmlns="http://www.w3.org/2000/svg">
<path d="M40.2687 21.9115C40.2675 21.9131 40.2659 21.9147 40.2647 21.9164C38.8297 23.6717 37.7119 26.1345 37.7119 28.3995C37.7119 31.3181 39.6123 32.3137 42.0306 30.8994C44.0399 29.7101 45.8561 27.1411 46.5482 24.5082C48.1322 18.825 43.8196 17.4965 40.2687 21.9115L40.2687 21.9115ZM44.3358 20.1884C45.9618 20.1884 46.2799 22.143 46.0007 23.7778C46.0007 23.7791 46.0003 23.7795 46.0003 23.7807C45.8774 24.4793 45.6627 25.1807 45.3611 25.866C44.6458 27.5044 43.403 29.1722 41.9075 30.056C39.9198 31.2205 38.492 30.4653 38.492 28.0782C38.4804 26.4678 39.1765 24.5355 40.3544 22.9138C40.3556 22.9121 40.3568 22.9109 40.358 22.9097C40.3584 22.9093 40.3584 22.9093 40.3584 22.9089C41.2775 21.6728 42.8283 20.1885 44.3358 20.1885L44.3358 20.1884Z" fill="url(#paint0_linear_401_8766)"/>
<path d="M37.7186 31.9201C37.7579 31.9038 37.7979 31.8773 37.8372 31.8623C37.5941 31.6373 37.2849 31.2048 37.1567 30.9582L7.92249 13.704C6.9821 13.156 5.77419 13.5132 4.83738 14.0617C2.15962 15.6428 -0.0111327 19.4638 4.29592e-05 22.5768C0.00925461 23.9663 0.442201 24.9819 1.21881 25.4343L31.6752 43.4187C31.5514 42.9597 31.4821 42.2656 31.4821 41.8383C31.4821 37.7325 34.5956 33.167 37.7184 31.9207L37.7186 31.9201Z" fill="url(#paint1_linear_401_8766)"/>
<path d="M6.80241 12.2827C7.31265 12.2677 7.99636 12.4203 8.48973 12.7087L36.6433 29.3265C36.3942 26.2892 37.5849 23.4003 39.3916 21.1894C40.0813 20.3264 40.9872 19.4927 41.9645 18.9137C41.9673 18.912 41.9701 18.9092 41.9733 18.9076C41.9745 18.9067 41.9761 18.9063 41.9773 18.9055C41.9801 18.9039 41.9825 18.9019 41.9857 18.9002C42.3021 18.7017 43.0142 18.3815 43.5024 18.2594L13.0235 0.267802C12.2297 -0.188711 11.1307 -0.0589174 9.93796 0.636842C7.26143 2.218 5.08986 6.0336 5.10063 9.14059C5.11825 11.7963 6.61252 12.0864 6.80313 12.2837L6.80241 12.2827Z" fill="url(#paint2_linear_401_8766)"/>
<path d="M41.6729 23.1009L44.5525 24.7967C44.5661 24.7577 44.5826 24.7194 44.5958 24.6804C44.7179 24.3146 44.8221 23.9452 44.8853 23.5863C44.8857 23.5847 44.8861 23.583 44.8865 23.5814C45.0091 22.8657 45.0572 21.3379 44.3358 21.3379C43.4215 21.3383 42.2825 22.3856 41.6729 23.1009L41.6729 23.1009Z" fill="url(#paint3_linear_401_8766)"/>
<path d="M46.8145 31.0677L49.6853 32.7627C49.936 32.0442 50.0914 31.3232 50.0886 30.6628V30.6604C50.089 28.2233 48.0613 29.6 46.8145 31.0677L46.8145 31.0677Z" fill="url(#paint4_linear_401_8766)"/>
<path d="M36.5894 36.4943C36.5818 36.5033 36.575 36.5131 36.5674 36.522L39.437 38.2125C39.5431 37.9074 39.8587 37.2319 39.8587 36.1184C39.8587 33.6706 37.7724 35.1297 36.5894 36.4943L36.5894 36.4943Z" fill="url(#paint5_linear_401_8766)"/>
<path d="M48.1271 27.6397C46.8932 28.2224 45.7746 29.314 44.9964 30.4041C41.5856 35.005 42.3394 41.7096 47.1595 38.8606C49.8297 37.2986 52 33.4784 52 30.3427C51.9792 27.5096 50.1961 26.5893 48.1272 27.6398L48.1271 27.6397ZM47.0409 38.0289C45.4212 38.983 43.9999 38.6726 43.6995 36.9064C43.1912 34.2291 45.1653 30.2507 47.8078 28.6969C49.6722 27.556 51.2182 28.2318 51.219 30.6584C51.2294 33.3239 49.2982 36.7054 47.0409 38.029V38.0289Z" fill="url(#paint6_linear_401_8766)"/>
<path d="M40.3943 32.8857C39.5172 32.4678 38.381 32.7754 37.4514 33.3203C34.9351 34.7634 32.6133 38.5934 32.6133 41.8374C32.6133 44.9814 34.5349 45.7206 36.9336 44.3255C38.8148 43.2119 40.5385 40.8903 41.3223 38.412C41.9359 36.6071 42.0985 33.6736 40.3944 32.8858L40.3943 32.8857ZM40.6359 38.2695C40.0203 40.3145 38.5512 42.4652 36.8082 43.4934C34.8986 44.6172 33.3823 43.9397 33.3823 41.5156C33.3823 39.9024 34.0824 37.9684 35.2551 36.3417C35.2559 36.3405 35.2571 36.3393 35.2583 36.3381C35.2587 36.3377 35.2587 36.3369 35.2591 36.3365C35.8819 35.4938 36.6725 34.6866 37.5788 34.1617C40.3656 32.369 41.6504 34.9014 40.6359 38.2696L40.6359 38.2695Z" fill="url(#paint7_linear_401_8766)"/>
<defs>
<linearGradient id="paint0_linear_401_8766" x1="41.0835" y1="14.8005" x2="52.5283" y2="18.5631" gradientUnits="userSpaceOnUse">
<stop stop-color="#BD2F2F"/>
<stop offset="1" stop-color="#FF4848"/>
</linearGradient>
<linearGradient id="paint1_linear_401_8766" x1="13.906" y1="2.46491" x2="53.9265" y2="24.6391" gradientUnits="userSpaceOnUse">
<stop stop-color="#BD2F2F"/>
<stop offset="1" stop-color="#FF4848"/>
</linearGradient>
<linearGradient id="paint2_linear_401_8766" x1="19.2141" y1="-10.7239" x2="59.1097" y2="12.217" gradientUnits="userSpaceOnUse">
<stop stop-color="#BD2F2F"/>
<stop offset="1" stop-color="#FF4848"/>
</linearGradient>
<linearGradient id="paint3_linear_401_8766" x1="42.8804" y1="20.0731" x2="46.7494" y2="21.687" gradientUnits="userSpaceOnUse">
<stop stop-color="#BD2F2F"/>
<stop offset="1" stop-color="#FF4848"/>
</linearGradient>
<linearGradient id="paint4_linear_401_8766" x1="48.0178" y1="28.0722" x2="51.8692" y2="29.6845" gradientUnits="userSpaceOnUse">
<stop stop-color="#BD2F2F"/>
<stop offset="1" stop-color="#FF4848"/>
</linearGradient>
<linearGradient id="paint5_linear_401_8766" x1="37.777" y1="33.5519" x2="41.635" y2="35.1858" gradientUnits="userSpaceOnUse">
<stop stop-color="#BD2F2F"/>
<stop offset="1" stop-color="#FF4848"/>
</linearGradient>
<linearGradient id="paint6_linear_401_8766" x1="46.241" y1="22.7121" x2="57.6298" y2="26.4071" gradientUnits="userSpaceOnUse">
<stop stop-color="#BD2F2F"/>
<stop offset="1" stop-color="#FF4848"/>
</linearGradient>
<linearGradient id="paint7_linear_401_8766" x1="35.972" y1="28.1904" x2="47.3916" y2="31.9136" gradientUnits="userSpaceOnUse">
<stop stop-color="#BD2F2F"/>
<stop offset="1" stop-color="#FF4848"/>
</linearGradient>
</defs>
</svg>
