<svg width="58" height="33" viewBox="0 0 58 33" fill="none" xmlns="http://www.w3.org/2000/svg">
<path d="M13.2973 32.6579C12.0291 32.6579 10.9971 31.5669 10.9971 30.2258C10.9971 28.8852 12.0292 27.7942 13.2973 27.7942C14.5658 27.7942 15.5979 28.8852 15.5979 30.2258C15.5979 31.5669 14.5658 32.6579 13.2973 32.6579Z" fill="url(#paint0_linear_401_8767)"/>
<path d="M13.2988 28.1363C14.3898 28.1363 15.2771 29.074 15.2771 30.2269C15.2771 31.3798 14.3897 32.3175 13.2988 32.3175C12.2078 32.3175 11.3205 31.3798 11.3205 30.2269C11.32 29.074 12.2078 28.1363 13.2988 28.1363ZM13.2988 27.4534C11.8499 27.4534 10.6758 28.695 10.6758 30.227C10.6758 31.7585 11.8499 33.0001 13.2988 33.0001C14.7476 33.0001 15.9218 31.7585 15.9218 30.227C15.9218 28.6954 14.7472 27.4534 13.2988 27.4534Z" fill="url(#paint1_linear_401_8767)"/>
<path d="M8.05261 32.6579C6.7841 32.6579 5.75195 31.5669 5.75195 30.2258C5.75195 28.8852 6.78407 27.7942 8.05261 27.7942C9.32112 27.7942 10.3533 28.8852 10.3533 30.2258C10.3533 31.5669 9.32114 32.6579 8.05261 32.6579Z" fill="url(#paint2_linear_401_8767)"/>
<path d="M8.05268 28.1363C9.14368 28.1363 10.031 29.074 10.031 30.2269C10.031 31.3798 9.14364 32.3175 8.05268 32.3175C6.96167 32.3175 6.07436 31.3798 6.07436 30.2269C6.07436 29.074 6.96172 28.1363 8.05268 28.1363ZM8.05268 27.4534C6.60384 27.4534 5.42969 28.695 5.42969 30.227C5.42969 31.7585 6.60384 33.0001 8.05268 33.0001C9.50152 33.0001 10.6757 31.7585 10.6757 30.227C10.6757 28.6954 9.50106 27.4534 8.05268 27.4534Z" fill="url(#paint3_linear_401_8767)"/>
<path d="M51.9643 32.6579C50.6961 32.6579 49.6641 31.5669 49.6641 30.2258C49.6641 28.8852 50.6962 27.7942 51.9643 27.7942C53.2328 27.7942 54.2649 28.8852 54.2649 30.2258C54.2649 31.5669 53.2328 32.6579 51.9643 32.6579Z" fill="url(#paint4_linear_401_8767)"/>
<path d="M51.9648 28.1363C53.0558 28.1363 53.9431 29.074 53.9431 30.2269C53.9431 31.3798 53.0557 32.3175 51.9648 32.3175C50.8738 32.3175 49.9865 31.3798 49.9865 30.2269C49.986 29.074 50.8738 28.1363 51.9648 28.1363ZM51.9648 27.4534C50.5159 27.4534 49.3418 28.695 49.3418 30.227C49.3418 31.7585 50.5159 33.0001 51.9648 33.0001C53.4136 33.0001 54.5878 31.7585 54.5878 30.227C54.5878 28.6954 53.4132 27.4534 51.9648 27.4534Z" fill="url(#paint5_linear_401_8767)"/>
<path d="M46.7186 32.6579C45.4501 32.6579 44.418 31.5669 44.418 30.2258C44.418 28.8852 45.4501 27.7942 46.7186 27.7942C47.9871 27.7942 49.0193 28.8852 49.0193 30.2258C49.0193 31.5669 47.9872 32.6579 46.7186 32.6579Z" fill="url(#paint6_linear_401_8767)"/>
<path d="M46.7187 28.1363C47.8097 28.1363 48.697 29.074 48.697 30.2269C48.697 31.3798 47.8097 32.3175 46.7187 32.3175C45.6277 32.3175 44.7404 31.3798 44.7404 30.2269C44.7404 29.074 45.6277 28.1363 46.7187 28.1363ZM46.7187 27.4534C45.2699 27.4534 44.0957 28.695 44.0957 30.227C44.0957 31.7585 45.2699 33.0001 46.7187 33.0001C48.1675 33.0001 49.3417 31.7585 49.3417 30.227C49.3417 28.6954 48.1671 27.4534 46.7187 27.4534Z" fill="url(#paint7_linear_401_8767)"/>
<path d="M55.4806 29.0982C55.2131 28.1515 54.6179 27.3538 53.8348 26.8533C54.635 27.3624 55.2181 28.1663 55.4806 29.0982ZM4.49148 29.0982C4.754 28.1663 5.33749 27.3624 6.13722 26.8533C5.35459 27.3538 4.75892 28.1514 4.49148 29.0982ZM43.1579 29.0982C43.4209 28.1663 44.0044 27.3619 44.8037 26.8533C44.0211 27.3538 43.4254 28.1514 43.1579 29.0982ZM16.8141 29.0982C16.5466 28.1515 15.9515 27.3538 15.1684 26.8533C15.9676 27.3619 16.5512 28.1663 16.8141 29.0982ZM0.402731 26.6266V25.9485L0.322266 25.948V24.9198H0.402731V23.9121H2.32489V24.9198H55.756V23.9121H57.6777V26.5128H55.7555V25.948H51.9228L53.3118 26.5752C52.8821 26.3909 52.4123 26.289 51.921 26.289H46.7191C46.2277 26.289 45.758 26.3909 45.3282 26.5752L46.7172 25.948H13.2569L14.6459 26.5752C14.2162 26.3909 13.7464 26.289 13.2551 26.289H8.05317C7.56184 26.289 7.09208 26.3909 6.66232 26.5752L8.05133 25.948H2.32524V26.6266H0.402731Z" fill="url(#paint8_linear_401_8767)"/>
<path d="M57.3554 24.2531V26.1713H56.0778V25.6065H50.3467L51.1024 25.9479H47.5368L48.2924 25.6065H11.6813L12.4369 25.9479H8.87132L9.62698 25.6065H2.00255V26.2851H0.725402V25.6065H0.644937V25.2607H0.725402V24.253H2.00301V25.2612H56.0785V24.5783L56.0781 24.253H57.3552L57.3554 24.2531ZM57.9998 23.5706H55.4335V24.5783H2.64684V23.5706H0.0804661V24.5783H0V26.2894H0.0804661V26.9675H2.64684V26.2889H6.47321C5.02931 26.9413 4.01478 28.4601 4.01478 30.2254H4.6594C4.6594 28.2433 6.1819 26.6304 8.05285 26.6304H13.2548C15.1257 26.6304 16.6482 28.2433 16.6482 30.2254H17.2928C17.2928 28.4601 16.2782 26.9413 14.8344 26.2889H45.1404C43.6965 26.9413 42.682 28.4601 42.682 30.2254H43.3266C43.3266 28.2433 44.8491 26.6304 46.72 26.6304H51.9219C53.7929 26.6304 55.3154 28.2433 55.3154 30.2254H55.96C55.96 28.4601 54.9454 26.9413 53.5016 26.2889H55.435V26.8537H58L57.9998 23.5706Z" fill="url(#paint9_linear_401_8767)"/>
<path d="M3.43652 23.2291V0.341797H27.5064V23.2291H3.43652ZM25.7376 20.1402C25.1159 20.1402 24.6098 20.6765 24.6098 21.3351C24.6098 21.9937 25.1159 22.53 25.7376 22.53C26.3593 22.53 26.8655 21.9937 26.8655 21.3351C26.8655 20.6765 26.3598 20.1402 25.7376 20.1402ZM15.4268 20.1402C14.8051 20.1402 14.2989 20.6765 14.2989 21.3351C14.2989 21.9937 14.8051 22.53 15.4268 22.53C16.0485 22.53 16.5547 21.9937 16.5547 21.3351C16.5547 20.6765 16.0485 20.1402 15.4268 20.1402ZM5.11552 20.1402C4.49383 20.1402 3.98766 20.6765 3.98766 21.3351C3.98766 21.9937 4.49382 22.53 5.11552 22.53C5.73721 22.53 6.24339 21.9937 6.24339 21.3351C6.24339 20.6765 5.73722 20.1402 5.11552 20.1402ZM25.7376 10.5823C25.1159 10.5823 24.6098 11.1185 24.6098 11.7771C24.6098 12.4358 25.1159 12.972 25.7376 12.972C26.3593 12.972 26.8655 12.4358 26.8655 11.7771C26.8655 11.1185 26.3598 10.5823 25.7376 10.5823ZM5.11552 10.5823C4.49383 10.5823 3.98766 11.1185 3.98766 11.7771C3.98766 12.4358 4.49382 12.972 5.11552 12.972C5.73721 12.972 6.24339 12.4358 6.24339 11.7771C6.24339 11.1185 5.73722 10.5823 5.11552 10.5823ZM25.7376 1.02428C25.1159 1.02428 24.6098 1.56052 24.6098 2.21916C24.6098 2.8778 25.1159 3.41403 25.7376 3.41403C26.3593 3.41403 26.8655 2.8778 26.8655 2.21916C26.8655 1.56006 26.3598 1.02428 25.7376 1.02428ZM15.4268 1.02428C14.8051 1.02428 14.2989 1.56052 14.2989 2.21916C14.2989 2.8778 14.8051 3.41403 15.4268 3.41403C16.0485 3.41403 16.5547 2.8778 16.5547 2.21916C16.5547 1.56006 16.0485 1.02428 15.4268 1.02428ZM5.11552 1.02428C4.49383 1.02428 3.98766 1.56052 3.98766 2.21916C3.98766 2.8778 4.49382 3.41403 5.11552 3.41403C5.73721 3.41403 6.24339 2.8778 6.24339 2.21916C6.24339 1.56006 5.73722 1.02428 5.11552 1.02428Z" fill="url(#paint10_linear_401_8767)"/>
<path d="M27.1838 0.683002V2.11649C27.1339 1.31689 26.5042 0.683002 25.7368 0.683002H27.1838ZM25.7368 0.683002C24.9371 0.683002 24.2866 1.37211 24.2866 2.21939C24.2866 3.06661 24.9371 3.75577 25.7368 3.75577C26.5037 3.75577 27.1336 3.12143 27.1838 2.32229V11.6756C27.1339 10.876 26.5042 10.2421 25.7368 10.2421C24.9371 10.2421 24.2866 10.9312 24.2866 11.7785C24.2866 12.6257 24.9371 13.3148 25.7368 13.3148C26.5037 13.3148 27.1336 12.6805 27.1838 11.8814V21.2346C27.1339 20.435 26.5042 19.8011 25.7368 19.8011C24.9371 19.8011 24.2866 20.4903 24.2866 21.3375C24.2866 22.1848 24.9371 22.8739 25.7368 22.8739C26.5037 22.8739 27.1336 22.2396 27.1838 21.4404V22.8906L3.75956 22.8882V21.8801C3.96724 22.4592 4.49678 22.872 5.11576 22.872C5.91547 22.872 6.56599 22.1829 6.56599 21.3357C6.56599 20.4884 5.91553 19.7993 5.11576 19.7993C4.49722 19.7993 3.96767 20.2122 3.75956 20.7913V12.3214C3.96724 12.9005 4.49678 13.3134 5.11576 13.3134C5.91547 13.3134 6.56599 12.6243 6.56599 11.777C6.56599 10.9297 5.91553 10.2406 5.11576 10.2406C4.49722 10.2406 3.96767 10.6535 3.75956 11.2326V2.76323C3.96724 3.34233 4.49678 3.75522 5.11576 3.75522C5.91547 3.75522 6.56599 3.06612 6.56599 2.21884C6.56599 1.37162 5.91553 0.68245 5.11576 0.68245H15.4271C14.6273 0.68245 13.9768 1.37156 13.9768 2.21884C13.9768 3.06606 14.6273 3.75522 15.4271 3.75522C16.2268 3.75522 16.8773 3.06612 16.8773 2.21884C16.8773 1.37162 16.2268 0.68245 15.4271 0.68245L25.7374 0.682926L25.7368 0.683002ZM15.4266 22.8716C16.2263 22.8716 16.8768 22.1825 16.8768 21.3353C16.8768 20.488 16.2264 19.7989 15.4266 19.7989C14.6268 19.7989 13.9764 20.488 13.9764 21.3353C13.9764 22.1825 14.6268 22.8716 15.4266 22.8716ZM5.1153 0.682926C4.49676 0.682926 3.96721 1.09582 3.7591 1.67492V0.682926H5.1153ZM27.8295 0H3.11523V23.5713H27.8284L27.8295 0ZM25.7379 3.07216C25.2928 3.07216 24.9323 2.69022 24.9323 2.21875C24.9323 1.74728 25.2928 1.36534 25.7379 1.36534C26.1829 1.36534 26.5434 1.74728 26.5434 2.21875C26.5434 2.69022 26.1829 3.07216 25.7379 3.07216ZM15.4271 3.07216C14.982 3.07216 14.6215 2.69022 14.6215 2.21875C14.6215 1.74728 14.982 1.36534 15.4271 1.36534C15.8721 1.36534 16.2326 1.74728 16.2326 2.21875C16.2326 2.69022 15.8721 3.07216 15.4271 3.07216ZM5.11576 3.07216C4.67073 3.07216 4.31021 2.69022 4.31021 2.21875C4.31021 1.74728 4.67073 1.36534 5.11576 1.36534C5.5608 1.36534 5.92132 1.74728 5.92132 2.21875C5.92132 2.69022 5.5608 3.07216 5.11576 3.07216ZM25.7379 12.6306C25.2928 12.6306 24.9323 12.2487 24.9323 11.7772C24.9323 11.3057 25.2928 10.9238 25.7379 10.9238C26.1829 10.9238 26.5434 11.3057 26.5434 11.7772C26.5434 12.2487 26.1829 12.6306 25.7379 12.6306ZM5.11576 12.6306C4.67073 12.6306 4.31021 12.2487 4.31021 11.7772C4.31021 11.3057 4.67073 10.9238 5.11576 10.9238C5.5608 10.9238 5.92132 11.3057 5.92132 11.7772C5.92132 12.2487 5.5608 12.6306 5.11576 12.6306ZM25.7379 22.1886C25.2928 22.1886 24.9323 21.8067 24.9323 21.3352C24.9323 20.8637 25.2928 20.4818 25.7379 20.4818C26.1829 20.4818 26.5434 20.8637 26.5434 21.3352C26.5434 21.8067 26.1829 22.1886 25.7379 22.1886ZM15.4271 22.1886C14.982 22.1886 14.6215 21.8067 14.6215 21.3352C14.6215 20.8637 14.982 20.4818 15.4271 20.4818C15.8721 20.4818 16.2326 20.8637 16.2326 21.3352C16.2326 21.8067 15.8721 22.1886 15.4271 22.1886ZM5.11576 22.1886C4.67073 22.1886 4.31021 21.8067 4.31021 21.3352C4.31021 20.8637 4.67073 20.4818 5.11576 20.4818C5.5608 20.4818 5.92132 20.8637 5.92132 21.3352C5.92132 21.8067 5.5608 22.1886 5.11576 22.1886Z" fill="url(#paint11_linear_401_8767)"/>
<path d="M30.5039 23.2291V0.341797H54.5738V23.2291H30.5039ZM52.805 20.1402C52.1833 20.1402 51.6772 20.6765 51.6772 21.3351C51.6772 21.9937 52.1833 22.53 52.805 22.53C53.4267 22.53 53.9329 21.9937 53.9329 21.3351C53.9324 20.6765 53.4267 20.1402 52.805 20.1402ZM42.4937 20.1402C41.872 20.1402 41.3659 20.6765 41.3659 21.3351C41.3659 21.9937 41.872 22.53 42.4937 22.53C43.1154 22.53 43.6216 21.9937 43.6216 21.3351C43.6216 20.6765 43.1154 20.1402 42.4937 20.1402ZM32.1824 20.1402C31.5608 20.1402 31.0546 20.6765 31.0546 21.3351C31.0546 21.9937 31.5607 22.53 32.1824 22.53C32.8041 22.53 33.3103 21.9937 33.3103 21.3351C33.3103 20.6765 32.8046 20.1402 32.1824 20.1402ZM52.8046 10.5823C52.1829 10.5823 51.6767 11.1185 51.6767 11.7771C51.6767 12.4358 52.1829 12.972 52.8046 12.972C53.4263 12.972 53.9324 12.4358 53.9324 11.7771C53.932 11.1185 53.4263 10.5823 52.8046 10.5823ZM32.1824 10.5823C31.5608 10.5823 31.0546 11.1185 31.0546 11.7771C31.0546 12.4358 31.5607 12.972 32.1824 12.972C32.8041 12.972 33.3103 12.4358 33.3103 11.7771C33.3103 11.1185 32.8046 10.5823 32.1824 10.5823ZM52.8046 1.02428C52.1829 1.02428 51.6767 1.56052 51.6767 2.21916C51.6767 2.8778 52.1829 3.41403 52.8046 3.41403C53.4263 3.41403 53.9324 2.8778 53.9324 2.21916C53.932 1.56006 53.4263 1.02428 52.8046 1.02428ZM42.4933 1.02428C41.8716 1.02428 41.3654 1.56052 41.3654 2.21916C41.3654 2.8778 41.8716 3.41403 42.4933 3.41403C43.115 3.41403 43.6211 2.8778 43.6211 2.21916C43.6211 1.56006 43.115 1.02428 42.4933 1.02428ZM32.182 1.02428C31.5603 1.02428 31.0541 1.56052 31.0541 2.21916C31.0541 2.8778 31.5603 3.41403 32.182 3.41403C32.8037 3.41403 33.3098 2.8778 33.3098 2.21916C33.3098 1.56006 32.8041 1.02428 32.182 1.02428Z" fill="url(#paint12_linear_401_8767)"/>
<path d="M54.2509 0.683002V2.11649C54.201 1.31689 53.5713 0.683002 52.8039 0.683002H54.2509ZM52.8044 0.683002C52.0047 0.683002 51.3542 1.37211 51.3542 2.21939C51.3542 3.06661 52.0046 3.75577 52.8044 3.75577C53.5713 3.75577 54.2011 3.12143 54.2514 2.32229V11.6756C54.2015 10.876 53.5717 10.2421 52.8044 10.2421C52.0047 10.2421 51.3542 10.9312 51.3542 11.7785C51.3542 12.6257 52.0046 13.3148 52.8044 13.3148C53.5713 13.3148 54.2011 12.6805 54.2514 11.8814V21.2346C54.2015 20.435 53.5717 19.8011 52.8044 19.8011C52.0047 19.8011 51.3542 20.4903 51.3542 21.3375C51.3542 22.1848 52.0046 22.8739 52.8044 22.8739C53.5713 22.8739 54.2011 22.2396 54.2514 21.4404V22.8906L30.826 22.8882V21.8801C31.0336 22.4592 31.5632 22.872 32.1822 22.872C32.9819 22.872 33.6324 22.1829 33.6324 21.3357C33.6324 20.4884 32.9819 19.7993 32.1822 19.7993C31.5636 19.7993 31.0341 20.2122 30.826 20.7913V12.3214C31.0336 12.9005 31.5632 13.3134 32.1822 13.3134C32.9819 13.3134 33.6324 12.6243 33.6324 11.777C33.6324 10.9297 32.9819 10.2406 32.1822 10.2406C31.5636 10.2406 31.0341 10.6535 30.826 11.2326V2.76323C31.0336 3.34233 31.5632 3.75522 32.1822 3.75522C32.9819 3.75522 33.6324 3.06612 33.6324 2.21884C33.6324 1.37162 32.9819 0.68245 32.1822 0.68245H42.4935C41.6938 0.68245 41.0432 1.37156 41.0432 2.21884C41.0432 3.06606 41.6937 3.75522 42.4935 3.75522C43.2932 3.75522 43.9437 3.06612 43.9437 2.21884C43.9437 1.37162 43.2932 0.68245 42.4935 0.68245L52.8043 0.682926L52.8044 0.683002ZM42.493 22.8716C43.2927 22.8716 43.9432 22.1825 43.9432 21.3353C43.9432 20.488 43.2928 19.7989 42.493 19.7989C41.6932 19.7989 41.0428 20.488 41.0428 21.3353C41.0428 22.1825 41.6932 22.8716 42.493 22.8716ZM32.1817 0.682926C31.5632 0.682926 31.0336 1.09582 30.8255 1.67492V0.682926H32.1817ZM54.896 0H30.1816V23.5713H54.8948L54.896 0ZM52.8047 3.07216C52.3597 3.07216 51.9992 2.69022 51.9992 2.21875C51.9992 1.74728 52.3597 1.36534 52.8047 1.36534C53.2498 1.36534 53.6103 1.74728 53.6103 2.21875C53.6103 2.69022 53.2493 3.07216 52.8047 3.07216ZM42.4935 3.07216C42.0484 3.07216 41.6879 2.69022 41.6879 2.21875C41.6879 1.74728 42.0484 1.36534 42.4935 1.36534C42.9385 1.36534 43.299 1.74728 43.299 2.21875C43.299 2.69022 42.9385 3.07216 42.4935 3.07216ZM32.1822 3.07216C31.7371 3.07216 31.3766 2.69022 31.3766 2.21875C31.3766 1.74728 31.7371 1.36534 32.1822 1.36534C32.6272 1.36534 32.9877 1.74728 32.9877 2.21875C32.9877 2.69022 32.6272 3.07216 32.1822 3.07216ZM52.8043 12.6306C52.3592 12.6306 51.9987 12.2487 51.9987 11.7772C51.9987 11.3057 52.3592 10.9238 52.8043 10.9238C53.2493 10.9238 53.6098 11.3057 53.6098 11.7772C53.6098 12.2487 53.2489 12.6306 52.8043 12.6306ZM32.1822 12.6306C31.7371 12.6306 31.3766 12.2487 31.3766 11.7772C31.3766 11.3057 31.7371 10.9238 32.1822 10.9238C32.6272 10.9238 32.9877 11.3057 32.9877 11.7772C32.9877 12.2487 32.6272 12.6306 32.1822 12.6306ZM52.8043 22.1886C52.3592 22.1886 51.9987 21.8067 51.9987 21.3352C51.9987 20.8637 52.3592 20.4818 52.8043 20.4818C53.2493 20.4818 53.6098 20.8637 53.6098 21.3352C53.6098 21.8067 53.2489 22.1886 52.8043 22.1886ZM42.493 22.1886C42.048 22.1886 41.6874 21.8067 41.6874 21.3352C41.6874 20.8637 42.048 20.4818 42.493 20.4818C42.938 20.4818 43.2985 20.8637 43.2985 21.3352C43.2985 21.8067 42.938 22.1886 42.493 22.1886ZM32.1817 22.1886C31.7367 22.1886 31.3762 21.8067 31.3762 21.3352C31.3762 20.8637 31.7367 20.4818 32.1817 20.4818C32.6267 20.4818 32.9873 20.8637 32.9873 21.3352C32.9873 21.8067 32.6267 22.1886 32.1817 22.1886Z" fill="url(#paint13_linear_401_8767)"/>
<defs>
<linearGradient id="paint0_linear_401_8767" x1="12.688" y1="26.0157" x2="18.1123" y2="28.2689" gradientUnits="userSpaceOnUse">
<stop stop-color="#BD2F2F"/>
<stop offset="1" stop-color="#FF4848"/>
</linearGradient>
<linearGradient id="paint1_linear_401_8767" x1="12.6038" y1="25.4251" x2="18.789" y2="27.994" gradientUnits="userSpaceOnUse">
<stop stop-color="#BD2F2F"/>
<stop offset="1" stop-color="#FF4848"/>
</linearGradient>
<linearGradient id="paint2_linear_401_8767" x1="7.44303" y1="26.0157" x2="12.8677" y2="28.2693" gradientUnits="userSpaceOnUse">
<stop stop-color="#BD2F2F"/>
<stop offset="1" stop-color="#FF4848"/>
</linearGradient>
<linearGradient id="paint3_linear_401_8767" x1="7.3577" y1="25.4251" x2="13.5429" y2="27.994" gradientUnits="userSpaceOnUse">
<stop stop-color="#BD2F2F"/>
<stop offset="1" stop-color="#FF4848"/>
</linearGradient>
<linearGradient id="paint4_linear_401_8767" x1="51.355" y1="26.0157" x2="56.7793" y2="28.2689" gradientUnits="userSpaceOnUse">
<stop stop-color="#BD2F2F"/>
<stop offset="1" stop-color="#FF4848"/>
</linearGradient>
<linearGradient id="paint5_linear_401_8767" x1="51.2698" y1="25.4251" x2="57.455" y2="27.994" gradientUnits="userSpaceOnUse">
<stop stop-color="#BD2F2F"/>
<stop offset="1" stop-color="#FF4848"/>
</linearGradient>
<linearGradient id="paint6_linear_401_8767" x1="46.109" y1="26.0157" x2="51.5337" y2="28.2693" gradientUnits="userSpaceOnUse">
<stop stop-color="#BD2F2F"/>
<stop offset="1" stop-color="#FF4848"/>
</linearGradient>
<linearGradient id="paint7_linear_401_8767" x1="46.0237" y1="25.4251" x2="52.2089" y2="27.994" gradientUnits="userSpaceOnUse">
<stop stop-color="#BD2F2F"/>
<stop offset="1" stop-color="#FF4848"/>
</linearGradient>
<linearGradient id="paint8_linear_401_8767" x1="21.4016" y1="22.0157" x2="24.6266" y2="37.6779" gradientUnits="userSpaceOnUse">
<stop stop-color="#BD2F2F"/>
<stop offset="1" stop-color="#FF4848"/>
</linearGradient>
<linearGradient id="paint9_linear_401_8767" x1="21.3162" y1="21.1371" x2="26.4404" y2="40.7482" gradientUnits="userSpaceOnUse">
<stop stop-color="#BD2F2F"/>
<stop offset="1" stop-color="#FF4848"/>
</linearGradient>
<linearGradient id="paint10_linear_401_8767" x1="12.2827" y1="-8.02744" x2="39.708" y2="4.6381" gradientUnits="userSpaceOnUse">
<stop stop-color="#BD2F2F"/>
<stop offset="1" stop-color="#FF4848"/>
</linearGradient>
<linearGradient id="paint11_linear_401_8767" x1="12.1983" y1="-8.61933" x2="40.3877" y2="4.3598" gradientUnits="userSpaceOnUse">
<stop stop-color="#BD2F2F"/>
<stop offset="1" stop-color="#FF4848"/>
</linearGradient>
<linearGradient id="paint12_linear_401_8767" x1="39.3501" y1="-8.02744" x2="66.7754" y2="4.6381" gradientUnits="userSpaceOnUse">
<stop stop-color="#BD2F2F"/>
<stop offset="1" stop-color="#FF4848"/>
</linearGradient>
<linearGradient id="paint13_linear_401_8767" x1="39.2647" y1="-8.61933" x2="67.4541" y2="4.3598" gradientUnits="userSpaceOnUse">
<stop stop-color="#BD2F2F"/>
<stop offset="1" stop-color="#FF4848"/>
</linearGradient>
</defs>
</svg>
