<svg width="45" height="45" viewBox="0 0 45 45" fill="none" xmlns="http://www.w3.org/2000/svg">
<path d="M6.42829 39.7769C6.42829 40.4427 5.88871 40.9822 5.22294 40.9822C4.55716 40.9822 4.01758 40.4427 4.01758 39.7769C4.01758 39.1111 4.55716 38.5715 5.22294 38.5715C5.88871 38.5715 6.42829 39.1111 6.42829 39.7769Z" fill="url(#paint0_linear_401_8768)"/>
<path d="M40.982 39.7769C40.982 40.4427 40.4424 40.9822 39.7766 40.9822C39.1109 40.9822 38.5713 40.4427 38.5713 39.7769C38.5713 39.1111 39.1109 38.5715 39.7766 38.5715C40.4424 38.5715 40.982 39.1111 40.982 39.7769Z" fill="url(#paint1_linear_401_8768)"/>
<path d="M6.42829 5.22294C6.42829 5.88871 5.88871 6.42829 5.22294 6.42829C4.55716 6.42829 4.01758 5.88871 4.01758 5.22294C4.01758 4.55716 4.55716 4.01758 5.22294 4.01758C5.88871 4.01758 6.42829 4.55716 6.42829 5.22294Z" fill="url(#paint2_linear_401_8768)"/>
<path d="M40.982 5.22294C40.982 5.88871 40.4424 6.42829 39.7766 6.42829C39.1109 6.42829 38.5713 5.88871 38.5713 5.22294C38.5713 4.55716 39.1109 4.01758 39.7766 4.01758C40.4424 4.01758 40.982 4.55716 40.982 5.22294Z" fill="url(#paint3_linear_401_8768)"/>
<path d="M40.9821 0H4.01786C1.79984 0.00251116 0.00249107 1.79984 0 4.01786V40.9821C0.00251116 43.2002 1.79984 44.9975 4.01786 45H40.9821C43.2002 44.9975 44.9975 43.2002 45 40.9821V4.01786C44.9975 1.79984 43.2002 0.00249107 40.9821 0ZM39.7768 2.41071C41.3299 2.41071 42.5893 3.67007 42.5893 5.22321C42.5893 6.77636 41.3299 8.03571 39.7768 8.03571C38.2236 8.03571 36.9643 6.77636 36.9643 5.22321C36.9662 3.67071 38.2243 2.41256 39.7768 2.41071ZM5.22321 2.41071C6.77636 2.41071 8.03571 3.67007 8.03571 5.22321C8.03571 6.77636 6.77636 8.03571 5.22321 8.03571C3.67007 8.03571 2.41071 6.77636 2.41071 5.22321C2.4126 3.67071 3.67071 2.41256 5.22321 2.41071ZM1.84259 16.3069L16.3069 1.84259C16.6214 1.53371 17.1261 1.53591 17.4381 1.84761C17.7498 2.15962 17.752 2.66436 17.4432 2.97888L2.97888 17.4432C2.66435 17.752 2.15964 17.7498 1.84761 17.4381C1.53591 17.1261 1.53372 16.6214 1.84259 16.3069ZM1.84259 21.9319L21.9319 1.84259C22.2464 1.53371 22.7511 1.53591 23.0631 1.84761C23.3748 2.15962 23.377 2.66436 23.0682 2.97888L2.97888 23.0682C2.66435 23.377 2.15964 23.3748 1.84761 23.0631C1.53591 22.7511 1.53372 22.2464 1.84259 21.9319ZM5.22321 42.5893C3.67007 42.5893 2.41071 41.3299 2.41071 39.7768C2.41071 38.2236 3.67007 36.9643 5.22321 36.9643C6.77636 36.9643 8.03571 38.2236 8.03571 39.7768C8.03383 41.3293 6.77571 42.5874 5.22321 42.5893ZM39.7768 42.5893C38.2236 42.5893 36.9643 41.3299 36.9643 39.7768C36.9643 38.2236 38.2236 36.9643 39.7768 36.9643C41.3299 36.9643 42.5893 38.2236 42.5893 39.7768C42.5874 41.3293 41.3293 42.5874 39.7768 42.5893ZM43.1574 28.6931L28.6931 43.1574C28.3786 43.4663 27.8739 43.4641 27.5619 43.1524C27.2502 42.8404 27.248 42.3356 27.5568 42.0211L42.0211 27.5568C42.3356 27.248 42.8404 27.2502 43.1524 27.5619C43.4641 27.8739 43.4663 28.3786 43.1574 28.6931ZM43.1574 23.0681L23.0681 43.1574C22.7536 43.4663 22.2489 43.4641 21.9369 43.1524C21.6252 42.8404 21.623 42.3356 21.9318 42.0211L42.0211 21.9318C42.3356 21.623 42.8404 21.6252 43.1524 21.9369C43.4641 22.2489 43.4663 22.7536 43.1574 23.0681Z" fill="url(#paint4_linear_401_8768)"/>
<defs>
<linearGradient id="paint0_linear_401_8768" x1="4.90357" y1="37.69" x2="7.69742" y2="38.9169" gradientUnits="userSpaceOnUse">
<stop stop-color="#BD2F2F"/>
<stop offset="1" stop-color="#FF4848"/>
</linearGradient>
<linearGradient id="paint1_linear_401_8768" x1="39.4573" y1="37.69" x2="42.2511" y2="38.9169" gradientUnits="userSpaceOnUse">
<stop stop-color="#BD2F2F"/>
<stop offset="1" stop-color="#FF4848"/>
</linearGradient>
<linearGradient id="paint2_linear_401_8768" x1="4.90357" y1="3.13605" x2="7.69742" y2="4.36291" gradientUnits="userSpaceOnUse">
<stop stop-color="#BD2F2F"/>
<stop offset="1" stop-color="#FF4848"/>
</linearGradient>
<linearGradient id="paint3_linear_401_8768" x1="39.4573" y1="3.13605" x2="42.2511" y2="4.36291" gradientUnits="userSpaceOnUse">
<stop stop-color="#BD2F2F"/>
<stop offset="1" stop-color="#FF4848"/>
</linearGradient>
<linearGradient id="paint4_linear_401_8768" x1="16.5385" y1="-16.4552" x2="68.6903" y2="6.44623" gradientUnits="userSpaceOnUse">
<stop stop-color="#BD2F2F"/>
<stop offset="1" stop-color="#FF4848"/>
</linearGradient>
</defs>
</svg>
