<svg width="46" height="45" viewBox="0 0 46 45" fill="none" xmlns="http://www.w3.org/2000/svg">
<path d="M44.1576 35.4069L41.9985 37.5655C41.887 37.6771 41.7048 37.6771 41.5936 37.5655C41.538 37.5096 41.51 37.4367 41.51 37.3627C41.51 37.2899 41.5377 37.2162 41.5936 37.1599L43.7527 35.0008L43.1212 34.3697L41.9709 35.5196C41.8597 35.6312 41.6772 35.6312 41.5668 35.5196C41.5108 35.4636 41.4832 35.3908 41.4832 35.3168C41.4832 35.2428 41.51 35.1703 41.5668 35.1139L42.7167 33.9618L42.0867 33.3318L39.9292 35.5116C39.8188 35.6231 39.6359 35.6231 39.5243 35.5116C39.4695 35.4556 39.4407 35.3816 39.4407 35.3087C39.4407 35.2359 39.4683 35.1634 39.5243 35.1059L41.6834 32.9468L41.0522 32.3146L39.9011 33.4667C39.79 33.5772 39.6078 33.5772 39.4963 33.4667C39.4407 33.4108 39.4127 33.3368 39.4127 33.2635C39.4127 33.1907 39.4403 33.1171 39.4963 33.0607L40.6473 31.9096L40.0174 31.2796L37.8583 33.4383C37.7471 33.5499 37.5646 33.5499 37.4542 33.4383C37.3982 33.3823 37.3706 33.3095 37.3706 33.2355C37.3706 33.1626 37.3974 33.089 37.4542 33.0326L39.6132 30.8736L38.9821 30.2425L37.831 31.3935C37.7198 31.5051 37.5377 31.5051 37.4261 31.3935C37.3702 31.3376 37.3425 31.2636 37.3425 31.1907C37.3425 31.1167 37.3705 31.0442 37.4261 30.9879L38.5772 29.8368L37.9461 29.2057L35.787 31.3647C35.6758 31.4752 35.4933 31.4752 35.3821 31.3647C35.3265 31.3088 35.2986 31.2359 35.2986 31.1619C35.2986 31.0891 35.3254 31.0154 35.3821 30.9591L37.5412 28.8L36.9112 28.1689L35.7609 29.32C35.6497 29.4316 35.4672 29.4316 35.356 29.32C35.3004 29.2652 35.2724 29.1912 35.2724 29.1171C35.2724 29.0443 35.2993 28.9707 35.356 28.9143L36.5063 27.7632L35.876 27.1321L33.7169 29.2912C33.6053 29.4016 33.4232 29.4016 33.312 29.2912C33.256 29.2352 33.2284 29.1623 33.2284 29.0883C33.2284 29.0155 33.256 28.9419 33.312 28.8855L35.4711 26.7264L34.8396 26.0942L33.6885 27.2463C33.5769 27.3568 33.3952 27.3568 33.2836 27.2463C33.2288 27.1904 33.2 27.1164 33.2 27.0435C33.2 26.9707 33.2276 26.8959 33.2836 26.8403L34.4347 25.6892L33.8055 25.0604L31.6464 27.2195C31.5352 27.331 31.3531 27.331 31.2415 27.2195C31.1855 27.1635 31.1579 27.0906 31.1579 27.0162C31.1579 26.9434 31.1859 26.8698 31.2415 26.8134L33.4006 24.6544L32.7691 24.0232L31.618 25.1743C31.5068 25.2859 31.3247 25.2859 31.2131 25.1743C31.1575 25.1183 31.1295 25.0443 31.1295 24.9715C31.1295 24.8986 31.1571 24.8262 31.2131 24.7687L32.3642 23.6187L31.7342 22.9876L29.5751 25.1467C29.4639 25.2583 29.2818 25.2583 29.1702 25.1467C29.1143 25.0907 29.0867 25.0167 29.0867 24.9439C29.0867 24.8699 29.1146 24.7974 29.1702 24.7406L31.3293 22.5816L30.6978 21.9505L29.5464 23.0996C29.436 23.2112 29.2531 23.2112 29.1415 23.0996C29.0867 23.0436 29.0579 22.9708 29.0579 22.8968C29.0579 22.8239 29.0855 22.7503 29.1415 22.6939L30.2929 21.5436L29.6625 20.9133L27.5035 23.0723C27.3919 23.1828 27.209 23.1828 27.0986 23.0723C27.0426 23.0163 27.015 22.9423 27.015 22.8695C27.015 22.7955 27.0418 22.7223 27.0986 22.6667L29.2577 20.5076L28.6277 19.8776L27.4774 21.0279C27.3662 21.1395 27.1837 21.1395 27.0725 21.0279C27.0169 20.9719 26.9889 20.8987 26.9889 20.8251C26.9889 20.7519 27.0157 20.6779 27.0725 20.6223L28.2228 19.472L27.5917 18.8408L25.4326 20.9999C25.321 21.1115 25.1393 21.1115 25.0277 20.9999C24.9729 20.9439 24.9441 20.8707 24.9441 20.7971C24.9441 20.7238 24.9717 20.6506 25.0277 20.5942L27.1868 18.4352L26.5568 17.8052L25.4057 18.9555C25.2941 19.0671 25.1124 19.0671 25.0008 18.9555C24.946 18.8995 24.9172 18.8263 24.9172 18.7527C24.9172 18.6794 24.9452 18.6062 25.0008 18.5498L26.1519 17.3995L25.5208 16.7692L23.3617 18.9283C23.2505 19.0398 23.0684 19.0398 22.9568 18.9283C22.9012 18.8723 22.8732 18.799 22.8732 18.7254C22.8732 18.6522 22.9008 18.579 22.9568 18.5226L25.1159 16.3635L24.4848 15.7332L23.3348 16.8835C23.2233 16.995 23.0411 16.995 22.9299 16.8835C22.874 16.8275 22.8464 16.7543 22.8464 16.6806C22.8464 16.6074 22.874 16.5342 22.9299 16.4778L24.0799 15.3275L23.4495 14.6972L21.2904 16.8562C21.1789 16.9678 20.9971 16.9678 20.8855 16.8562C20.8299 16.8002 20.802 16.727 20.802 16.6534C20.802 16.5801 20.8296 16.5069 20.8855 16.4506L23.0446 14.2915L22.4223 13.6769L21.2709 14.8279C21.1597 14.9391 20.9776 14.9391 20.866 14.8279C20.8104 14.7712 20.7824 14.698 20.7824 14.6251C20.7824 14.5523 20.81 14.4786 20.866 14.4223L22.0171 13.2712L21.3871 12.642L19.2281 14.8011C19.1165 14.9122 18.9348 14.9122 18.8232 14.8011C18.7676 14.7443 18.7396 14.6711 18.7396 14.5982C18.7396 14.5254 18.7672 14.4518 18.8232 14.3954L20.9822 12.2363L20.3511 11.606L19.2 12.7563C19.0885 12.8678 18.9067 12.8678 18.7951 12.7563C18.7395 12.7003 18.7116 12.6263 18.7116 12.5534C18.7116 12.4806 18.7392 12.407 18.7951 12.3506L19.9462 11.2003L19.3151 10.57L17.156 12.7298C17.0449 12.841 16.8627 12.841 16.7512 12.7298C16.6956 12.6731 16.6676 12.5998 16.6676 12.527C16.6676 12.4541 16.6944 12.3805 16.7512 12.3241L18.9102 10.1643L18.2799 9.53393L17.1296 10.685C17.018 10.7966 16.8362 10.7966 16.7247 10.685C16.6691 10.629 16.6411 10.5558 16.6411 10.4822C16.6411 10.409 16.6687 10.335 16.7247 10.2794L17.875 9.12827L17.245 8.49792L15.0859 10.657C14.9743 10.7686 14.7922 10.7686 14.681 10.657C14.6254 10.601 14.5974 10.5278 14.5974 10.4541C14.5974 10.3809 14.6243 10.3077 14.681 10.2513L16.8401 8.09225L16.2097 7.4619L15.059 8.61446C14.9478 8.72604 14.7657 8.72604 14.6541 8.61446C14.5985 8.55848 14.5706 8.48524 14.5706 8.41163C14.5706 8.33839 14.5982 8.26516 14.6541 8.20879L15.8063 7.05849L15.1752 6.42814L13.0161 8.5872C12.9049 8.69878 12.7228 8.69878 12.6112 8.5872C12.5556 8.53122 12.5276 8.45799 12.5276 8.38437C12.5276 8.31114 12.5552 8.23713 12.6112 8.18154L14.7703 6.02247L14.1392 5.39212L12.9893 6.54321C12.8777 6.65478 12.6956 6.65478 12.5844 6.54321C12.5288 6.48723 12.5008 6.41399 12.5008 6.34038C12.5008 6.26714 12.5276 6.19391 12.5844 6.13754L13.7343 4.98646L13.1039 4.3561L10.9449 6.51516C10.8333 6.62674 10.6515 6.62674 10.54 6.51516C10.4844 6.45918 10.4564 6.38595 10.4564 6.31233C10.4564 6.2391 10.484 6.16586 10.54 6.1095L12.699 3.95044L12.069 3.32008L10.9177 4.47117C10.8065 4.58236 10.6243 4.58236 10.5128 4.47117C10.4579 4.41442 10.4292 4.34119 10.4292 4.26834C10.4292 4.19549 10.4568 4.12187 10.5128 4.06551L11.6641 2.91442L11.0338 2.28445L8.87512 4.44773C8.76355 4.55892 8.5818 4.55892 8.47023 4.44773C8.41463 4.39098 8.38664 4.31775 8.38664 4.2449C8.38664 4.17205 8.41425 4.09843 8.47023 4.04207L10.6301 1.88301L9.99895 1.25265L8.84865 2.40374C8.73708 2.51531 8.55495 2.51531 8.44375 2.40374C8.38816 2.34776 8.36017 2.27376 8.36017 2.20091C8.36017 2.12806 8.38701 2.05444 8.44375 1.99808L9.59406 0.846988L8.74707 0L0 8.74864L36.2494 45L45.0049 36.2525L44.1576 35.4069ZM36.9806 43.8549C36.8691 43.9664 36.6873 43.9664 36.5757 43.8549L1.14301 8.42212C1.08741 8.36614 1.05942 8.29291 1.05942 8.21929C1.05942 8.14605 1.08626 8.07282 1.14301 8.01646C1.2542 7.90412 1.43633 7.90412 1.54791 8.01646L36.9806 43.4492C37.0914 43.5611 37.0914 43.7429 36.9806 43.8545V43.8549Z" fill="url(#paint0_linear_401_8765)"/>
<defs>
<linearGradient id="paint0_linear_401_8765" x1="16.5403" y1="-16.4552" x2="68.6959" y2="6.45042" gradientUnits="userSpaceOnUse">
<stop stop-color="#BD2F2F"/>
<stop offset="1" stop-color="#FF4848"/>
</linearGradient>
</defs>
</svg>
