<svg xmlns="http://www.w3.org/2000/svg" viewBox="0 0 43.63 35.43"><defs><style>.cls-1{fill:#1a1a1a;}</style></defs><g id="Layer_2" data-name="Layer 2"><g id="svg8"><g id="g1656"><g id="g1618"><g id="g1616"><path id="path1614" class="cls-1" d="M41.63,34.16H40.9v-19a5.91,5.91,0,0,0,2.73-5,.65.65,0,0,0-.08-.31L38.47,1a2,2,0,0,0-1.74-1H6.9A2,2,0,0,0,5.16,1L.08,9.89A.65.65,0,0,0,0,10.2a5.91,5.91,0,0,0,2.73,5v19H2a.64.64,0,1,0,0,1.27H41.63a.64.64,0,0,0,0-1.27ZM1.32,10.84H3.37A.64.64,0,0,0,4,10.2a.64.64,0,0,0-.64-.64H1.74L6.27,1.64a.72.72,0,0,1,.63-.36H36.73a.75.75,0,0,1,.64.36l4.52,7.92H40.26a.64.64,0,0,0-.64.64.64.64,0,0,0,.64.64h2.05a4.65,4.65,0,0,1-9.22,0h4.44a.64.64,0,0,0,.64-.64.64.64,0,0,0-.64-.64H6.1a.64.64,0,0,0-.64.64.64.64,0,0,0,.64.64h4.44a4.65,4.65,0,0,1-9.22,0Zm30.4,0a4.65,4.65,0,0,1-9.22,0Zm-10.59,0a4.65,4.65,0,0,1-9.22,0ZM36.2,34.16H29.29V32H36.2Zm0-3.42H29.29V19H36.2Zm3.42,3.42H37.48V18.4a.64.64,0,0,0-.64-.64H28.65a.64.64,0,0,0-.64.64V34.16H4V15.81a5.82,5.82,0,0,0,1.92.33,6,6,0,0,0,5.3-3.26,5.93,5.93,0,0,0,10.59,0,5.92,5.92,0,0,0,10.58,0,6,6,0,0,0,5.3,3.26,5.82,5.82,0,0,0,1.92-.33Z"/></g></g><g id="g1624"><g id="g1622"><path id="path1620" class="cls-1" d="M25.23,17.76H6.79a.64.64,0,0,0-.64.64v13a.64.64,0,0,0,.64.64H25.23a.64.64,0,0,0,.64-.64v-13A.64.64,0,0,0,25.23,17.76Zm-.64,13H7.43V19H24.59Z"/></g></g></g></g></g></svg>