<svg xmlns="http://www.w3.org/2000/svg" viewBox="0 0 40.9 40.9"><defs><style>.cls-1{fill:#1a1a1a;}</style></defs><g id="Layer_2" data-name="Layer 2"><g id="svg8"><g id="g1676"><path id="path1668" class="cls-1" d="M39.74,33.32,32.8,26.39A3.94,3.94,0,0,0,30,25.22a3.72,3.72,0,0,0-.81.09,13.2,13.2,0,0,1-2.6-7.82,19.85,19.85,0,0,0-5.81-14A11.66,11.66,0,0,0,12.45,0,11.77,11.77,0,0,0,3.61,19.54l1-.9A10.41,10.41,0,0,1,19.8,4.41a18.49,18.49,0,0,1,5.42,13.08A7,7,0,0,1,20.87,24a.68.68,0,0,0-.37.89l.05.1.68,1.08a.69.69,0,0,0,.4.29A13.09,13.09,0,0,1,26,28.51a3.89,3.89,0,0,0,0,1.63l1.33-.29A2.59,2.59,0,0,1,28,27.47l.12-.12a2.6,2.6,0,0,1,3.61-.07,3.89,3.89,0,0,0-2.53,1.15l-.12.12a4,4,0,0,0-.81,1.16l1.24.57a2.58,2.58,0,0,1,.53-.77l.12-.11a2.61,2.61,0,0,1,3.69,0l.61.61A3.94,3.94,0,0,0,32,31.16l-.11.12a3.17,3.17,0,0,0-.34.39l1.08.83a2.75,2.75,0,0,1,.22-.26l.12-.12a2.6,2.6,0,0,1,3.61-.07A4,4,0,0,0,34,33.2l-.12.12a4,4,0,0,0,0,5.62l.12.12a4,4,0,0,0,5.62,0l.12-.12A4,4,0,0,0,39.74,33.32ZM27.18,26.39l-.11.11a4.1,4.1,0,0,0-.56.7,14.51,14.51,0,0,0-4.26-2.07l-.13-.21a8.34,8.34,0,0,0,3.59-3.7,14.65,14.65,0,0,0,2.17,4.61A4.2,4.2,0,0,0,27.18,26.39ZM38.77,38l-.12.11a2.61,2.61,0,0,1-3.69,0L34.85,38a2.61,2.61,0,0,1,0-3.69h0l.11-.12a2.61,2.61,0,0,1,3.69,0l.12.12h0A2.61,2.61,0,0,1,38.77,38Z"/><path id="path1670" class="cls-1" d="M5.93,16.16l.88-.88,1.08,1.08L6.33,17.92l1,1,1.56-1.56.88.88,1-1-.88-.88,1.08-1.08L12,16.36l-.88.88,1,1,.88-.88L14,18.41l-.2.2,1,1,.2-.2.89.88,1-1L16,18.41,17,17.33l1.08,1.08-.88.88,1,1,.88-.88,2.25,2.25,1-1-2.24-2.24,1.08-1.08,1.56,1.56,1-1-1.57-1.56.88-.88-1-1-.88.88-1.08-1.08,1.08-1.08.88.88,1-1-.88-.88.88-.88-1-1-.88.88-1.08-1.08.88-.89-1-1-.89.88L18,8.18l1.57-1.56-1-1L17,7.22,16,6.14l.88-.89-1-1L15,5.17,13.91,4.09l.88-.88-1-1L13,3.13l-.88-.89-1,1,.88.88L10.9,5.17,9.34,3.61l-1,1L9.94,6.14,8.86,7.22,7.3,5.65l-1,1L7.89,8.18,6.81,9.26,5.25,7.7l-1,1,1.56,1.57L4.77,11.31l-.88-.88-1,1,.88.88-.88.88,1,1,.88-.88,1.08,1.08L5,15.2Zm2.93-.76L7.78,14.32l1.08-1.08,1.08,1.08ZM15,13.35l-1.08-1.08L15,11.19l1.08,1.08Zm2-.11,1.08,1.08L17,15.4,16,14.32ZM13,11.31l-1.08-1.08L13,9.14,14,10.23Zm-1,1L10.9,13.35,9.82,12.27l1.08-1.08Zm-.11,2.05L13,13.24,14,14.32,13,15.4ZM15,17.44l-1.08-1.08L15,15.28l1.08,1.08Zm5.18-1.08-1.09,1.08L18,16.36l1.08-1.08Zm0-4.09-1.09,1.08L18,12.27l1.08-1.08Zm-2.05-2L17,11.31,16,10.23,17,9.14ZM16.07,8.18,15,9.26,13.91,8.18,15,7.1ZM13,5.05,14,6.14,13,7.22,11.87,6.14Zm-2,2.05L12,8.18,10.9,9.26,9.82,8.18Zm-2,2,1.08,1.09L8.86,11.31,7.78,10.23ZM5.73,12.27l1.08-1.08,1.08,1.08L6.81,13.35Z"/><path id="path1672" class="cls-1" d="M12.22,27.33a5.72,5.72,0,0,1,4.67-.62l1.75.53A8.62,8.62,0,0,1,19.08,30h1.37a10.21,10.21,0,1,0-4.38,8.39l-.78-1.12a9.05,9.05,0,0,1-2.8,1.3l-1-1.1a8.07,8.07,0,0,1-2-5.3,5.69,5.69,0,0,1,.7-2.73A17.44,17.44,0,0,1,13.45,31L16,32.62l.72-1.16-2.55-1.59a20.14,20.14,0,0,0-3.11-1.57A5.69,5.69,0,0,1,12.22,27.33Zm5.69-1.74-.63-.19a7.1,7.1,0,0,0-7.6,2.41c-.59-.18-1.19-.33-1.8-.46a16,16,0,0,1,5.82-5.51A8.93,8.93,0,0,1,17.91,25.59ZM12,21.3a17.21,17.21,0,0,0-5.51,5.81C5.83,27,5.23,27,4.62,27a22.08,22.08,0,0,0,.82-4.42A8.88,8.88,0,0,1,12,21.3ZM1.36,30a8.47,8.47,0,0,1,.13-1.51c.4-.06.81-.1,1.21-.13A21.2,21.2,0,0,1,1.42,31,9.2,9.2,0,0,1,1.36,30Zm2.57-6.24A20.75,20.75,0,0,1,3.19,27c-.44,0-.89.05-1.33.1A8.82,8.82,0,0,1,3.93,23.76ZM1.86,32.93a22,22,0,0,0,2.32-4.62c.52,0,1.05,0,1.57.09a17.24,17.24,0,0,0-1.69,8A8.91,8.91,0,0,1,1.86,32.93Zm8.64,5.44.41.46q-.35,0-.69,0A8.77,8.77,0,0,1,5.5,37.49,16,16,0,0,1,7.17,28.6,17.11,17.11,0,0,1,8.92,29a7.05,7.05,0,0,0-.74,3.16A9.42,9.42,0,0,0,10.5,38.37Z"/><path id="path1674" class="cls-1" d="M26.58,31.36A4.74,4.74,0,0,0,24.2,32a4.77,4.77,0,1,0,0,8.26,4.77,4.77,0,1,0,2.38-8.9ZM30,35.84l-.19-.19a2.61,2.61,0,0,0-3.69,0h0a1.24,1.24,0,0,1-1.76,0h0l-.88-.88A3.41,3.41,0,0,1,30,35.84Zm-8.17-3.12A3.39,3.39,0,0,1,23,33a4.74,4.74,0,0,0-1.13,2.27,2.37,2.37,0,0,0-.57.43,1.24,1.24,0,0,1-1.76,0h0l-.88-.88A3.41,3.41,0,0,1,21.81,32.72Zm-3.39,3.71.18.18a2.61,2.61,0,0,0,3.28.34A4.84,4.84,0,0,0,23,39.32a3.41,3.41,0,0,1-4.4-2A3.32,3.32,0,0,1,18.42,36.43Zm8.16,3.11a3.4,3.4,0,0,1-3.39-3.11l.18.18a2.61,2.61,0,0,0,3.69,0h0a1.26,1.26,0,0,1,1.76,0h0l.88.88A3.41,3.41,0,0,1,26.58,39.54Z"/></g></g></g></svg>