<svg xmlns="http://www.w3.org/2000/svg" viewBox="0 0 33.49 43.63"><defs><style>.cls-1{fill:#1a1a1a;}</style></defs><g id="Layer_2" data-name="Layer 2"><g id="svg8"><g id="g1602"><g id="g1522"><g id="g1520"><path id="path1518" class="cls-1" d="M33.3,18.13a14.35,14.35,0,0,1-3.37-8.46A19.87,19.87,0,0,1,30.08,5l.12-.65-6.28-1L16.74,14.9,9.57,3.39l-5.63.86-.66.1L3.41,5a19.87,19.87,0,0,1,.15,4.67A14.35,14.35,0,0,1,.19,18.13L0,18.34,2.37,43.63H31.11l2.38-25.29ZM16.1,42.35H3.54L1.33,18.78a15.55,15.55,0,0,0,3.51-9,20.83,20.83,0,0,0-.08-4.32l4.17-.63,7.17,11.5Zm13.85,0H17.38V16.29l7.18-11.5,4.17.63a20.83,20.83,0,0,0-.08,4.32,15.55,15.55,0,0,0,3.51,9Z"/></g></g><g id="g1528"><g id="g1526"><path id="path1524" class="cls-1" d="M16.74,1.92,11.45,0V5.21l5.29-1.93L22,5.21V0Zm-4,1.46V1.83l2.14.77Zm8,0L18.62,2.6l2.14-.77Z"/></g></g><g id="g1534"><g id="g1532"><path id="path1530" class="cls-1" d="M13.21,25.94a1.52,1.52,0,1,0,1.51,1.51A1.52,1.52,0,0,0,13.21,25.94Zm0,1.75a.24.24,0,0,1-.24-.24.23.23,0,0,1,.24-.23.23.23,0,0,1,.23.23A.23.23,0,0,1,13.21,27.69Z"/></g></g><g id="g1540"><g id="g1538"><path id="path1536" class="cls-1" d="M13.21,31.37a1.52,1.52,0,1,0,1.51,1.51A1.52,1.52,0,0,0,13.21,31.37Zm0,1.75a.24.24,0,0,1-.24-.24.23.23,0,0,1,.24-.23.23.23,0,0,1,.23.23A.23.23,0,0,1,13.21,33.12Z"/></g></g><g id="g1546"><g id="g1544"><path id="path1542" class="cls-1" d="M13.21,36.8a1.52,1.52,0,1,0,1.51,1.52A1.52,1.52,0,0,0,13.21,36.8Zm0,1.75a.23.23,0,0,1-.24-.23.24.24,0,0,1,.24-.24.23.23,0,0,1,.23.24A.23.23,0,0,1,13.21,38.55Z"/></g></g><g id="g1552"><g id="g1550"><path id="path1548" class="cls-1" d="M28.29,21.36l-3.66-2.87-3.7,2.87h-1.6v1.28H29.81V21.36Zm-5.27,0,1.61-1.25,1.59,1.25Z"/></g></g><g id="g1558"><g id="g1556"><rect id="rect1554" class="cls-1" x="2.31" y="20.13" width="1.28" height="6.46" transform="translate(-2.17 0.38) rotate(-5.37)"/></g></g><g id="g1564"><g id="g1562"><rect id="rect1560" class="cls-1" x="2.91" y="27.44" width="1.28" height="3.4" transform="translate(-2.71 0.46) rotate(-5.37)"/></g></g><g id="g1570"><g id="g1568"><polygon id="polygon1566" class="cls-1" points="28.3 40.62 26.06 40.62 26.06 41.9 29.47 41.9 29.97 36.57 28.7 36.45 28.3 40.62"/></g></g></g></g></g></svg>