<svg xmlns="http://www.w3.org/2000/svg" viewBox="0 0 42.68 43.63"><g id="Layer_2" data-name="Layer 2"><g id="svg8"><path id="path1688" class="cls-1" d="M42.66,2.56a1.42,1.42,0,0,0-.47-1.17c-.45-.3-1-.09-1.48.1a15.94,15.94,0,0,1-3.86,1A.64.64,0,1,0,37,3.73a17,17,0,0,0,4.16-1l.2-.07a3.25,3.25,0,0,1-.85,2.5c-1,1-2.82,1.55-5.5,1.6A.64.64,0,0,0,35,8h0a14.21,14.21,0,0,0,3.82-.52,2.94,2.94,0,0,1-.65,2.1,3.58,3.58,0,0,1-1.26.9h0a10.15,10.15,0,0,1-3.81.66.64.64,0,0,0,0,1.28h0a12.73,12.73,0,0,0,3.48-.47A3,3,0,0,1,36,13.62a5.71,5.71,0,0,1-3.59,1.88,6.48,6.48,0,0,0-.49-.79,7.67,7.67,0,0,0-3.37-2.66c-1.41-.55-2.59-.44-3.22.29A3.16,3.16,0,0,0,25,15.13c-.54-.08-1.08-.18-1.63-.29v-5a7.51,7.51,0,0,0,4.87-3.08l0,0C29.92,4.5,31.73,4.19,34.11,4A.64.64,0,0,0,34,2.72c-2.54.21-4.8.6-6.73,3.28l0,0A6.23,6.23,0,0,1,23.4,8.56V6.83a3.72,3.72,0,1,0-4.1,0V8.56A6.23,6.23,0,0,1,15.47,6l0,0c-2.1-2.93-4.55-3.11-7.38-3.33A20,20,0,0,1,2,1.49c-.51-.2-1-.41-1.49-.1A1.33,1.33,0,0,0,0,2.55,4.6,4.6,0,0,0,1.21,6,5,5,0,0,0,2.54,7a4.55,4.55,0,0,0,.92,3.42,4.58,4.58,0,0,0,1.29,1,4.42,4.42,0,0,0,.94,3,6.76,6.76,0,0,0,4.06,2.28,5.37,5.37,0,0,0-.13,3.06A5.44,5.44,0,0,0,13,23.22l3.32,1.45a12.42,12.42,0,0,0-2.57,1.76.65.65,0,0,0,0,.91.63.63,0,0,0,.47.2.65.65,0,0,0,.43-.17,12.22,12.22,0,0,1,3.24-2l1.87.81-1.43.62c-2.2,1-3.23,2-3.16,3.11s1.21,2,3.29,2.62l1.29.38h0l6.39,1.88c2.08.61,3.34,1.85,3.48,3.42A3,3,0,0,1,28,41.06a3,3,0,0,1-1.9.44,1.89,1.89,0,0,1,.44-.89,3.24,3.24,0,0,0,.8-3,3.05,3.05,0,0,0-2.24-1.76l-7.77-2.3c-.16,0-.5-.16-.53-.17-2.5-.86-3.84-2.26-3.61-3.79A.64.64,0,1,0,12,29.45c-.27,1.81.81,3.44,3,4.55a5.05,5.05,0,0,0-3.12,4.06,4.21,4.21,0,0,0,2.28,4.15,5.3,5.3,0,0,0,2.2.6,1.57,1.57,0,0,0,1.25-.49c.34-.4.54-1.15-.4-2.45-.55-.78-.76-1.38-.62-1.8s.85-.78,1.4-.94l1.37-.41v4.85a2.06,2.06,0,1,0,4.11,0V36.72l1.37.41c.55.16,1.24.46,1.4.94s-.07,1-.63,1.8c-.93,1.3-.73,2.05-.39,2.45a1.55,1.55,0,0,0,1.25.49,5.34,5.34,0,0,0,2.2-.6,4.22,4.22,0,0,0,2.28-4.15A5,5,0,0,0,27.73,34c1.83-1,2.88-2.34,2.94-3.88.08-2-1.45-3.93-4.25-5.49l3.25-1.41a5.44,5.44,0,0,0,3.39-3.45,5.36,5.36,0,0,0-.13-3.06A6.88,6.88,0,0,0,37,14.4a4.38,4.38,0,0,0,.92-3,4.31,4.31,0,0,0,1.29-1A4.46,4.46,0,0,0,40.14,7a4.78,4.78,0,0,0,1.33-1,4.56,4.56,0,0,0,1.21-3.43ZM17.53,35.91a3.05,3.05,0,0,0-2.25,1.76,3.24,3.24,0,0,0,.8,2.95,2,2,0,0,1,.44.89,3.12,3.12,0,0,1-1.9-.44,3,3,0,0,1-1.57-2.89c.14-1.57,1.41-2.81,3.48-3.42l.1,0,2.44.73Zm4.56,5.67a.77.77,0,0,1-.77.78.78.78,0,0,1-.78-.78V36.35l.78-.23.77.23Zm3.53-25.06a3.46,3.46,0,0,0,1.76,1.26c.89.3,1.14.6,1.15.72s-.65.95-2.16,1.62l-3,1.31V16.15c.77.14,1.52.27,2.25.37ZM21.32,1.29a2.45,2.45,0,1,1-2.45,2.44A2.44,2.44,0,0,1,21.32,1.29Zm0,6.16a3.3,3.3,0,0,0,.77-.08V9.31h0v6h0V22l-.77.34L20.54,22V15.36h0v-6h0V7.37a3.33,3.33,0,0,0,.78.08ZM17,16.52c.74-.1,1.49-.23,2.24-.37v5.28l-3-1.31c-1.51-.67-2.17-1.35-2.16-1.62s.25-.42,1.15-.72A3.5,3.5,0,0,0,17,16.52ZM6.67,13.65A3.11,3.11,0,0,1,6,12a12.82,12.82,0,0,0,3.48.46h0a.64.64,0,1,0,0-1.27C7,11.09,5.27,10.56,4.44,9.57a3,3,0,0,1-.65-2.1A14.15,14.15,0,0,0,7.61,8h0a.64.64,0,0,0,0-1.28c-2.69,0-4.54-.59-5.5-1.6A3.36,3.36,0,0,1,1.3,2.6l.22.08A20.56,20.56,0,0,0,8,4c2.72.21,4.68.36,6.44,2.8l0,0a7.52,7.52,0,0,0,4.86,3.08v5l-1.62.3a3.19,3.19,0,0,0-.31-2.79c-.64-.74-1.81-.84-3.22-.29a7.69,7.69,0,0,0-3.38,2.65c-.18.26-.34.52-.49.79a5.55,5.55,0,0,1-3.57-1.85ZM22.09,27.19v4.6l-.77.23-.78-.23v-4.6l.78-.34Zm1.75.75c1.8.79,2.42,1.47,2.39,1.85s-.76,1-2.37,1.48l-.49.15V27.74ZM16.4,29.79c0-.38.6-1.06,2.4-1.85l.46-.2v3.68l-.49-.15c-1.6-.47-2.34-1.08-2.37-1.47Zm13,.28c-.06,1.35-1.3,2.55-3.41,3.32l-2.38-.7.63-.19c2.09-.61,3.22-1.52,3.29-2.63s-1-2.15-3.16-3.1L13.49,22.06a4.26,4.26,0,0,1-2.67-2.63,4.91,4.91,0,0,1,1-4h0a6.3,6.3,0,0,1,2.79-2.2c.81-.32,1.55-.35,1.79-.07a2.89,2.89,0,0,1-.25,2.39,2.22,2.22,0,0,1-1.26,1c-1.3.44-2,1.07-2,1.87-.05,1.27,1.56,2.25,2.92,2.84l8.63,3.79c3.2,1.4,5.07,3.27,5,5Zm2.43-10.63a4.25,4.25,0,0,1-2.66,2.62L24.9,23.9h0l-2-.87,4-1.74c1.36-.6,3-1.58,2.92-2.85,0-.8-.72-1.43-2-1.87a2.11,2.11,0,0,1-1.25-1,2.86,2.86,0,0,1-.26-2.39c.25-.29,1-.26,1.8.06a6.43,6.43,0,0,1,2.79,2.2,4.88,4.88,0,0,1,.95,4Z"/></g></g></svg>