<svg xmlns="http://www.w3.org/2000/svg" viewBox="0 0 48.11 33.73"><defs><style>.cls-1{fill:#1a1a1a;}</style></defs><g id="Layer_2" data-name="Layer 2"><g id="svg8"><path id="path1402" class="cls-1" d="M47.18,7.57,37,4.14a.7.7,0,0,0-.45,1.33l10.06,3.4L41.9,11.18a2.47,2.47,0,0,0-.66-.3L27,7.17a3,3,0,0,0-6,.57v0a1.8,1.8,0,0,0,1.81,1.78h2.45a1.78,1.78,0,0,0,1.59-.95l13.25,3.46-14.78,7.2a2.87,2.87,0,0,1-2.57,0L1.48,8.88,23.11,1.56a3.05,3.05,0,0,1,1.89,0l8.44,2.86a.71.71,0,1,0,.45-1.34L25.45.23a4.3,4.3,0,0,0-2.79,0L.93,7.57A1.37,1.37,0,0,0,.77,10.1l11.15,5.44a66.21,66.21,0,0,1-2.57,8.84,2.79,2.79,0,0,0,.89,3.16,35.6,35.6,0,0,0,10.92,5.74,9.5,9.5,0,0,0,5.78,0,35.49,35.49,0,0,0,10.92-5.74,2.79,2.79,0,0,0,.9-3.16,65.91,65.91,0,0,1-2.57-8.84L41.43,13v10.6a1.74,1.74,0,0,0-1.6,1.74v2.05a1,1,0,0,0,.34.77l-.26,4a1.34,1.34,0,0,0,1.34,1.43H43a1.35,1.35,0,0,0,1.34-1.43l-.26-4a1,1,0,0,0,.34-.77V25.32a1.75,1.75,0,0,0-1.61-1.74V13a2.58,2.58,0,0,0-.09-.62l4.59-2.24a1.37,1.37,0,0,0-.16-2.53Zm-21.9.56H22.83a.41.41,0,0,1-.41-.38v0a1.63,1.63,0,0,1,3.26-.08.39.39,0,0,1-.4.47ZM36.64,22.57A33.18,33.18,0,0,1,25.57,28a.71.71,0,0,0,.26,1.39A34.86,34.86,0,0,0,37.12,24c.09.28.21.6.31.88A1.35,1.35,0,0,1,37,26.42a33.76,33.76,0,0,1-10.48,5.51,8,8,0,0,1-4.91,0,33.76,33.76,0,0,1-10.48-5.51,1.36,1.36,0,0,1-.44-1.56s0,0,0,0c.11-.28.22-.6.31-.85A34.85,34.85,0,0,0,22.3,29.42.71.71,0,0,0,22.57,28a33.32,33.32,0,0,1-11.08-5.46,63.53,63.53,0,0,0,1.76-6.4l8.92,4.35a4.32,4.32,0,0,0,3.81,0l8.93-4.35c.52,2.4,1.18,4.65,1.75,6.4Zm4.68,9.55.24-3.71h1.15L43,32.12ZM43,25.31V27h-1.8V25.31a.33.33,0,0,1,.33-.33h1.14a.34.34,0,0,1,.33.33Z"/></g></g></svg>