<svg xmlns="http://www.w3.org/2000/svg" viewBox="0 0 42.61 38.49"><defs><style>.cls-1{fill:#1a1a1a;}</style></defs><g id="Layer_2" data-name="Layer 2"><g id="svg8"><g id="g1506"><path id="path1492" class="cls-1" d="M41.33,11.75V4.19A2.43,2.43,0,0,0,39.65,0,2.41,2.41,0,0,0,37.9.75H19.31a1.69,1.69,0,1,0,0,3.37h.1v5.6h-.66a1,1,0,0,0-1,1v2.48a1,1,0,0,0,1,1h5.11a1,1,0,0,0,1-1V10.76a1,1,0,0,0-1-1H23.2V4.12h7.17a.63.63,0,1,0,0-1.25H19.31a.44.44,0,0,1-.44-.44A.44.44,0,0,1,19.31,2h18a2,2,0,0,0,0,.43,2.12,2.12,0,0,0,0,.44h-4a.63.63,0,1,0,0,1.25H37.9l.06.07v7.56a1.46,1.46,0,0,0-1.27,1.44v4.26H29.28a.87.87,0,0,0-.88.87V26h-2V18.32a.88.88,0,0,0-.88-.87H17.1a.87.87,0,0,0-.88.87V26h-2V23.24a.63.63,0,1,0-1.25,0V26H5.29V18.7H13v1.63a.63.63,0,0,0,1.25,0v-2a.88.88,0,0,0-.88-.87H4.91a.87.87,0,0,0-.87.87v7.73a4.42,4.42,0,0,0-4,4.4V31a4.44,4.44,0,0,0,3.18,4.25v2.2a1,1,0,0,0,1.05,1h25a.63.63,0,0,0,0-1.25H4.43V35.43H38.18v1.81H32.12a.63.63,0,0,0,0,1.25h6.26a1,1,0,0,0,1-1v-2.2A4.44,4.44,0,0,0,42.61,31V13.19A1.46,1.46,0,0,0,41.33,11.75ZM23.65,13H19V11h4.69ZM22,9.72h-1.3V4.12H22Zm18.14,2h-.88V4.83a3.13,3.13,0,0,0,.44,0,3.27,3.27,0,0,0,.44,0Zm.74-9.31a1.19,1.19,0,1,1-1.18-1.18A1.18,1.18,0,0,1,40.83,2.43ZM32.76,18.7h1.46v2.66H32.76Zm-3.11,0h1.86v3a.87.87,0,0,0,.87.88h2.21a.87.87,0,0,0,.87-.88v-3h1.86V26H29.65V18.7Zm-9.08,0H22v2.66H20.57Zm-3.1,0h1.86v3a.87.87,0,0,0,.87.88h2.21a.87.87,0,0,0,.87-.88v-3h1.86V26H17.47V18.7ZM41.36,31a3.18,3.18,0,0,1-3.18,3.18H4.42A3.17,3.17,0,0,1,1.25,31v-.55a3.17,3.17,0,0,1,3.17-3.17H38.18a3.17,3.17,0,0,1,3.18,3.17Zm0-3.62a4.36,4.36,0,0,0-2.79-1.33V18.32a.89.89,0,0,0-.63-.84V13.19a.21.21,0,0,1,.21-.21h3a.21.21,0,0,1,.21.21Z"/><path id="path1494" class="cls-1" d="M5,28.3a2.43,2.43,0,1,0,2.43,2.43A2.43,2.43,0,0,0,5,28.3Zm0,3.61a1.19,1.19,0,0,1,0-2.37,1.19,1.19,0,1,1,0,2.37Z"/><path id="path1496" class="cls-1" d="M18,28.3a2.43,2.43,0,1,0,2.43,2.43A2.43,2.43,0,0,0,18,28.3Zm0,3.61a1.19,1.19,0,1,1,1.18-1.18A1.19,1.19,0,0,1,18,31.91Z"/><path id="path1498" class="cls-1" d="M24.57,28.3A2.43,2.43,0,1,0,27,30.73,2.43,2.43,0,0,0,24.57,28.3Zm0,3.61a1.19,1.19,0,1,1,1.18-1.18A1.19,1.19,0,0,1,24.57,31.91Z"/><path id="path1500" class="cls-1" d="M31.1,28.3a2.43,2.43,0,1,0,2.43,2.43A2.44,2.44,0,0,0,31.1,28.3Zm0,3.61a1.19,1.19,0,1,1,1.18-1.18A1.18,1.18,0,0,1,31.1,31.91Z"/><path id="path1502" class="cls-1" d="M11.51,28.3a2.43,2.43,0,1,0,2.43,2.43A2.43,2.43,0,0,0,11.51,28.3Zm0,3.61a1.19,1.19,0,0,1,0-2.37,1.19,1.19,0,1,1,0,2.37Z"/><path id="path1504" class="cls-1" d="M37.63,28.3a2.43,2.43,0,1,0,2.43,2.43A2.44,2.44,0,0,0,37.63,28.3Zm0,3.61a1.19,1.19,0,1,1,1.18-1.18A1.18,1.18,0,0,1,37.63,31.91Z"/></g></g></g></svg>