<svg xmlns="http://www.w3.org/2000/svg" viewBox="0 0 43.63 39.09"><defs><style>.cls-1{fill:#1a1a1a;}</style></defs><g id="Layer_2" data-name="Layer 2"><g id="svg8"><g id="g1480"><g id="g1418"><g id="g1416"><path id="path1414" class="cls-1" d="M16.87,14.68A2,2,0,0,0,15.43,14a2,2,0,0,0-2,2,.64.64,0,0,0,.63.65h0a.63.63,0,0,0,.64-.62.71.71,0,0,1,.72-.7.7.7,0,0,1,.52.23.64.64,0,1,0,.94-.86Z"/></g></g><g id="g1424"><g id="g1422"><path id="path1420" class="cls-1" d="M20.27,16.76a1.87,1.87,0,0,0-1.05-1,1.83,1.83,0,0,0-2.34,1.08.63.63,0,0,0,.38.82.54.54,0,0,0,.22,0,.65.65,0,0,0,.6-.41.55.55,0,0,1,.7-.33.54.54,0,0,1,.31.3.65.65,0,0,0,.84.34A.64.64,0,0,0,20.27,16.76Z"/></g></g><g id="g1430"><g id="g1428"><path id="path1426" class="cls-1" d="M24.39,11.1a.63.63,0,0,0-.9,0l-.61.6a.65.65,0,0,0,0,.91.67.67,0,0,0,.91,0l.6-.61A.63.63,0,0,0,24.39,11.1Z"/></g></g><g id="g1436"><g id="g1434"><path id="path1432" class="cls-1" d="M20.41,19.35h-.85a.64.64,0,0,0,0,1.28h.85a.64.64,0,0,0,0-1.28Z"/></g></g><g id="g1442"><g id="g1440"><path id="path1438" class="cls-1" d="M26.94,19.35h-.85a.64.64,0,1,0,0,1.28h.85a.64.64,0,0,0,0-1.28Z"/></g></g><g id="g1448"><g id="g1446"><path id="path1444" class="cls-1" d="M43.61,30.87,43.44,30a1.19,1.19,0,0,0-1.19-1A.82.82,0,0,0,42,29l-3.39.62,1.54-1a1.22,1.22,0,0,0,.52-1.22,1.24,1.24,0,0,0-.14-.38l-.46-.82a1.28,1.28,0,0,0-.75-.58,1.23,1.23,0,0,0-.47,0,16.15,16.15,0,0,0,.26-2.88,1.07,1.07,0,0,0-.63-1,4.91,4.91,0,0,0,0-3.71.83.83,0,0,0-.17-.26.78.78,0,0,0-.26-.17,4.9,4.9,0,0,0-1.81-.35h-.23A3.38,3.38,0,0,0,32.7,14a3.84,3.84,0,0,0-.69.07,5.32,5.32,0,0,0-.3-2.81.8.8,0,0,0-.18-.27.68.68,0,0,0-.26-.18,5.44,5.44,0,0,0-1.95-.37,5.17,5.17,0,0,0-2.8.81A6.28,6.28,0,0,0,25,8.86a1.07,1.07,0,0,0-.76-.32,1.1,1.1,0,0,0-.77.32L20.38,12a3.19,3.19,0,0,0-2.14-.81,2.65,2.65,0,0,0-.56,0,3.21,3.21,0,0,0-1.75.92A3.08,3.08,0,0,0,13.55,12V9.56a3,3,0,0,0-3-3V5.18a1.05,1.05,0,0,0,.88-1V1.07A1.06,1.06,0,0,0,10.41,0H5.21A1.06,1.06,0,0,0,4.15,1.07V4.14a1.05,1.05,0,0,0,.88,1V6.54a3,3,0,0,0-3,3V28.21A6.09,6.09,0,0,0,0,32.75a6.61,6.61,0,0,0,6.84,6.34H32.42a2.92,2.92,0,0,0,2.9-3.38l5.11.92.21,0a1.2,1.2,0,0,0,.71-.23,1.23,1.23,0,0,0,.49-.8l.14-.93a1.07,1.07,0,0,0,0-.4,1.2,1.2,0,0,0-.92-1l-1.8-.41,3.39-.63a1.17,1.17,0,0,0,.78-.5A1.22,1.22,0,0,0,43.61,30.87ZM36.3,18.5a3.56,3.56,0,0,1,1.13.18,3.6,3.6,0,0,1-.31,2.94H35.4l.55-.55a.64.64,0,0,0-.9-.9l-.29.29a3,3,0,0,0-.69-1.18A3.52,3.52,0,0,1,36.3,18.5Zm-3.6-3.2a2.1,2.1,0,0,1,2.09,2.1v.06A5,5,0,0,0,33,18.54l-.26-.08a3,3,0,0,0-1.77-2.2A2.09,2.09,0,0,1,32.7,15.3Zm-3.38-3.56a3.89,3.89,0,0,1,1.27.21,4,4,0,0,1-.16,3A3.39,3.39,0,0,0,29.62,16l-.34,0a3,3,0,0,0-1.36.62,3.6,3.6,0,0,0-.49-.67l1.47-1.47a.63.63,0,0,0,0-.9.65.65,0,0,0-.91,0l-1.6,1.61a3.2,3.2,0,0,0-1-.3,4,4,0,0,1,3.91-3.22Zm-4.9,9.88h-.55a.64.64,0,0,0-1.19,0H22a.64.64,0,0,0-1-.79l-.6.61a.59.59,0,0,0-.13.18H19A5.18,5.18,0,0,1,18.18,19H28.32a5,5,0,0,1-.82,2.58H26.15a.46.46,0,0,0-.13-.18l-.6-.61a.64.64,0,0,0-1,.79Zm-1.48-3.86a2.09,2.09,0,0,1,4,0Zm1.3-7.86a5.09,5.09,0,0,1,1.21,2.26,5.28,5.28,0,0,0-.81,1.16.63.63,0,0,0-.33-.09h-.85a.64.64,0,1,0,0,1.28h.74c0,.17-.07.35-.1.53a3.19,3.19,0,0,0-.72.29,3.2,3.2,0,0,0-2-1.51h0a3.13,3.13,0,0,0-.25-.82ZM12.69,15.67a1.67,1.67,0,0,1-.08-.32,1.94,1.94,0,0,1,1.58-2.25l.34,0a2,2,0,0,1,1.16.39.69.69,0,0,0,.5.12.64.64,0,0,0,.42-.28,2,2,0,0,1,1.29-.85A2,2,0,0,1,20.15,14a1.69,1.69,0,0,1,0,.33.64.64,0,0,0,.59.63,2,2,0,0,1,1.6,1.15,3.36,3.36,0,0,0-.74,1.61H18a1.08,1.08,0,0,0-1,.68,4.79,4.79,0,0,0-2.73-.84,4.67,4.67,0,0,0-1.81.35.56.56,0,0,0-.26.17.68.68,0,0,0-.18.26,5,5,0,0,0-.29,1.14,2.06,2.06,0,0,1-.46-.95,2,2,0,0,1,1.11-2.1A.65.65,0,0,0,12.69,15.67Zm1.91,5.78.17.17H13.24a3.58,3.58,0,0,1-.12-2.56,3.61,3.61,0,0,1,3.68.88,3.33,3.33,0,0,1,.25.28,6.63,6.63,0,0,0,.49,1.4h-1L15.5,20.54a.63.63,0,0,0-.9,0A.65.65,0,0,0,14.6,21.45Zm-2.73.17H9.6a2.09,2.09,0,0,1,1-1.46,3.21,3.21,0,0,0,1.16,1A4.37,4.37,0,0,0,11.87,21.62ZM5.42,1.28H10.2V3.92H5.42ZM9.31,5.2V6.54h-3V5.2Zm-6,7H7.5a.64.64,0,0,0,0-1.28H3.35V9.56A1.74,1.74,0,0,1,5.08,7.82h5.46a1.74,1.74,0,0,1,1.73,1.74v1.31H11.08a.64.64,0,0,0,0,1.28h1.19v.56a3.24,3.24,0,0,0-.92,2.86h0A3.23,3.23,0,0,0,10,18.78c0,.08,0,.15,0,.22a3.27,3.27,0,0,0-.85.67H3.35Zm0,8.8h5.1a3,3,0,0,0-.14.67H8.2a1.07,1.07,0,0,0-1.07,1.07,16.36,16.36,0,0,0,.28,3l-.56,0A5.7,5.7,0,0,0,4.77,26c-.86.34-1.1.82-1.15,1.16l-.27.14Zm8.09,7.85a2.32,2.32,0,0,1,.45.45h0a3.94,3.94,0,0,1-1.75-.55,4.23,4.23,0,0,1-.73-.5.65.65,0,0,0-.83,0,4.66,4.66,0,0,1-.73.5,3.94,3.94,0,0,1-1.75.55h0a2.32,2.32,0,0,1,.45-.45.62.62,0,0,0,.22-.67.63.63,0,0,0-.54-.46A3.25,3.25,0,0,1,5,27.32a3.66,3.66,0,0,1,1.87-.39,4,4,0,0,1,1.81.35.64.64,0,0,0,.63,0,4,4,0,0,1,1.81-.35,3.69,3.69,0,0,1,1.87.39,3.25,3.25,0,0,1-1.2.35.64.64,0,0,0-.33,1.13Zm-1.28,7.78,0,.12a2.67,2.67,0,0,0,.46,1.11H6.84a5.33,5.33,0,0,1-5.56-5.06,5,5,0,0,1,2.88-4.44,3,3,0,0,0,.74.38,1.44,1.44,0,0,0-.22.63,1.08,1.08,0,0,0,.26.79,1.45,1.45,0,0,0,1.14.42,5.26,5.26,0,0,0,2.37-.71c.18-.11.36-.21.52-.33.17.12.34.22.53.33a5.26,5.26,0,0,0,2.37.71h0A1.45,1.45,0,0,0,13,30.11a1,1,0,0,0,.25-.79,1.31,1.31,0,0,0-.21-.63,2.77,2.77,0,0,0,.73-.38,5.15,5.15,0,0,1,2.74,3.29L12,33.32A2.93,2.93,0,0,0,10.16,36.58Zm23.54.63a1.66,1.66,0,0,1-1.28.6h-.67l-.42-2.27a.64.64,0,1,0-1.25.24l.37,2h-2.2L28,36.28a.64.64,0,0,0-.74-.52.65.65,0,0,0-.52.75l.24,1.3H21.84l-.39-2.08A.64.64,0,0,0,20.2,36l.34,1.85H13.07a1.65,1.65,0,0,1-1.63-1.35l0-.11a1.65,1.65,0,0,1,1-1.84L15,33.56l.19,1a.63.63,0,0,0,.62.52h.12a.64.64,0,0,0,.51-.75l-.23-1.23,3.73-1.42a.64.64,0,0,0,.37-.83.64.64,0,0,0-.82-.37l-1.74.66a6.43,6.43,0,0,0-3.39-4c-.05-.34-.29-.82-1.16-1.16a5.64,5.64,0,0,0-2.07-.35,6.35,6.35,0,0,0-1.49.17v-.39A.64.64,0,0,0,9,24.79a.6.6,0,0,0-.39.14,15.3,15.3,0,0,1-.17-2H29.23a.64.64,0,1,0,0-1.28H29a6.43,6.43,0,0,0,.63-2.77,1.09,1.09,0,0,0-1-1.08,1.68,1.68,0,0,1,.87-.44,1.51,1.51,0,0,1,.3,0,1.7,1.7,0,0,1,1.67,1.4,2.64,2.64,0,0,1,0,.29.62.62,0,0,0,.58.63A1.7,1.7,0,0,1,33.58,21a1.67,1.67,0,0,1,0,.59h-.69a.64.64,0,1,0,0,1.28h5a15.07,15.07,0,0,1-.45,3.43l-3.46,2a2.93,2.93,0,0,0-3.86-1.92L23,29.16a.64.64,0,0,0-.37.82.64.64,0,0,0,.83.37l.94-.36.29,1.58a.62.62,0,0,0,.62.52h.12a.63.63,0,0,0,.51-.74l-.33-1.81,5-1.89a1.66,1.66,0,0,1,2.22,1.24l1.29,7A1.65,1.65,0,0,1,33.7,37.21Zm2.28-5a.64.64,0,0,0,0,1.25l4.76,1.09-.12.8-5.52-1-.86-4.66L39,26.87l.4.7-4,2.71a.64.64,0,0,0-.23.78.62.62,0,0,0,.7.38l6.37-1.17.14.77Z"/></g></g></g></g></g></svg>