<svg xmlns="http://www.w3.org/2000/svg" viewBox="0 0 132.53 79.1"><defs><style>.cls-1{fill:#1a1a1a;}</style></defs><g id="Layer_2" data-name="Layer 2"><g id="svg8"><path id="path2185" class="cls-1" d="M115.08,72.75c0-5.52-.15-6.61-1.11-8.4-3.65-6.76-11.8-8.91-24.6-6.5-7.48,1.41-11.23,1.81-12.92,1.39-1.26-.32-1.09-.46,1.92-1.51,4.67-1.64,5.86-2.33,5.16-3-.86-.86-.68-4.44.45-9.2,2-8.28,1.2-11.77-2.82-12.53-1-.18-1.8-.49-1.8-.68a13.72,13.72,0,0,1,2.32-2.62C83,28.42,84,27,84,26.46c0-1.27-1.71-4.54-3-5.67-3.37-3.05-27.85-3.1-45.71-.1-9,1.51-11.41,2.13-22.66,5.73A77.6,77.6,0,0,1,3.53,29c-.39-.39,7.8-4,14.57-6.37,16.82-6,29.56-8.35,46.73-8.77,9.22-.23,12.63-.11,17.73.61a103.37,103.37,0,0,1,17,3.81l1.4.54-2.79,4.09c-5,7.3-8.32,15.49-8.86,21.67-.27,3.09-.19,3.49.89,4.5a4.24,4.24,0,0,0,2.26,1.12,9.75,9.75,0,0,1,2.21.32c2,.53,1.37-1.2-1-2.75l-2.13-1.4L93.3,46a7.54,7.54,0,0,0,2.38-1c.8-.66.84-3.08.07-3.85-.43-.43-.22-1,.78-2,1.48-1.6,3.19-5.71,3.7-8.91.19-1.13.53-2.05.77-2.05,1,0,8.24-5.33,10.17-7.52,1.16-1.32,2.11-2.17,2.11-1.89a1.36,1.36,0,0,1-.36.85c-.63.64-1.65,4.11-1.35,4.6.17.27,1.47.34,2.93.17a24.81,24.81,0,0,1,6,.29c3.14.56,3.24.62,1.62,1-2.56.55-3,1.25-1.42,2.29A2.83,2.83,0,0,1,122,29.72c0,.53,1.85,2.78,4.11,5,2.53,2.48,4.11,4.44,4.11,5.1,0,1.34-2.55,3.53-4.66,4-1.39.3-1.81.11-3.29-1.5s-1.9-1.85-4.73-1.85c-1.68,0-3.32-.28-3.66-.62-1.35-1.35-.57,1.48,1.45,5.24,6.79,12.68,7.87,16.18,6.72,21.74A21.7,21.7,0,0,1,117,76.89l-1.9,2.21Zm4.22-12c-.21-3.15-.67-4.47-3.63-10.51a66.39,66.39,0,0,1-4-9.68c-.75-3.34-2.49-5-3.87-3.58-.73.73-.72,1.16,0,4.58a69.43,69.43,0,0,0,2.56,8.14c2.61,6.71,2.6,6.78-.2,1.38-2.91-5.61-5.66-13.26-5.66-15.75,0-1.4-.17-1.61-1.16-1.47-1.55.22-3.61,5.9-3.2,8.83s1.27,4.25,7.95,11.09a91.47,91.47,0,0,1,8.37,9.64c2,3,2.18,3.17,2.59,2.09a17,17,0,0,0,.21-4.76ZM129,39.43c.18-.28.08-.51-.22-.51a.53.53,0,0,0-.55.51c0,.28.1.52.23.52S128.78,39.71,129,39.43Zm-7.06-.82c1.77-1.78-1.91-4.47-5.27-3.84l-2.06.38,1.42.68c1,.5,1.34,1,1.13,1.63a1.91,1.91,0,0,0,0,1.45c.5.82,3.84.61,4.75-.3Zm-13.18-5.35c-.36-1.65-.42-1.7-.78-.61a2.08,2.08,0,0,0,.24,1.94C109,35.63,109.15,35.35,108.71,33.26ZM120,32c1-.88,1-.93-.41-2.87a6.81,6.81,0,0,0-1.81-2c-.53,0,0,.93,1.35,2.43.91,1,.93,1.16.18,1.16-.47,0-.86.23-.86.51,0,.93-1.88.54-2.88-.6s-1-1.1.21-.81c1.86.47,1.06-.81-.85-1.36-1.36-.39-1.77-.3-2.39.51-1.11,1.46-.93,2.43.64,3.44,1.74,1.12,5.37.89,6.82-.42Zm-7.72-5.13a2.2,2.2,0,0,0-1.48-.75c-.7,0-.67.13.17.77,1.3,1,2.13,1,1.31,0Zm4.49-.05a1,1,0,0,0-1,0c-.41.17-.29.29.31.31s.85-.1.68-.27ZM2.41,73.64.74,72.88V68.53c0-3-.2-4.43-.64-4.61s.28-.26,1.41-.26,1.77.12,1.41.26c-.79.33-.88,7-.11,8.43.58,1.08,3.23,1.37,4.59.51,1.18-.75,1.41-7.3.29-8.42-.8-.8-.71-.85,1.36-.82,1.23,0,1.94.16,1.58.3s-.64,1.5-.64,4c0,2.82-.22,4-.9,4.87-1.17,1.43-4.43,1.84-6.68.83Zm11.31.18c.74-.43.9-1.27.9-4.88,0-4-.09-4.39-1.16-4.83s-1-.46.63-.49,2.2.41,5.25,3.69L22.79,71l0-3.43c0-2.28-.19-3.51-.62-3.68s.12-.28,1.06-.3c1.58,0,1.65,0,.87.8s-.81,1.69-.68,5.14c.09,2.36,0,4.3-.15,4.3a36,36,0,0,1-3.85-4.08,33.69,33.69,0,0,0-3.93-4.11c-.21,0-.38,1.69-.38,3.79,0,3.1.17,3.93.9,4.35s.48.53-1.16.53-1.87-.11-1.16-.53Zm13.37,0c.74-.41.89-1.27.89-5,0-3.16-.2-4.63-.65-4.82s.36-.27,1.58-.29c2.08,0,2.17,0,1.36.81s-.82,1.64-.67,4.91c.13,2.77.41,4.18.91,4.49s-.14.45-1.79.45c-1.89,0-2.3-.12-1.63-.5Zm9.3-.15a5.14,5.14,0,0,1-3.28-4.92c0-3.65,3.28-6,7.5-5.36,1.9.28,2.26.52,2.21,1.44s-.11.91-.3.2c-.35-1.33-4.23-1.23-6,.17s-1.93,5.08-.09,6.92a4.77,4.77,0,0,0,5.45.73c1.11-.59,1.34,0,.38,1-.81.81-3.86.75-5.87-.13Zm11.28-.09a5.22,5.22,0,0,1-1.59-8.28c3.58-3.85,10.16-1.64,10.16,3.41a5.1,5.1,0,0,1-3.39,5c-2.18.91-3.15.89-5.18-.11Zm5-.72c1.39-.75,2.18-4,1.47-6.1-1.56-4.46-7.65-2.94-7.65,1.9C46.48,72.37,49.57,74.47,52.66,72.82Zm5.78,1c.73-.41.88-1.27.88-5,0-3.16-.19-4.63-.64-4.81s.79-.28,2.54-.3c2.73,0,3.3.12,4,1.1,1,1.45,1,2.4,0,3.54-.75.84-.71,1,.65,2.86a11.48,11.48,0,0,0,1.85,2.13.58.58,0,0,1-.23,1.12,11.2,11.2,0,0,1-3-2.63c-1.33-1.44-2.68-2.47-3-2.28-.92.56-.67,3.77.33,4.33.66.37.25.49-1.66.49s-2.32-.12-1.66-.49Zm4.69-5.38c1-.4,1.07-3,0-3.79-1.32-1.1-2.32-.23-2.32,2,0,2.11.45,2.46,2.27,1.76Zm7.63,5.41c.74-.43.9-1.27.9-4.88,0-4-.09-4.39-1.16-4.82s-1-.47.64-.51,2.19.39,5.25,3.7L79.83,71l0-3.43c0-2.28-.19-3.51-.62-3.68s.17-.26,1.16-.26,1.51.11,1.15.26-.64,1.7-.64,5.1c0,2.66-.19,4.83-.43,4.83a27.1,27.1,0,0,1-3.92-4,41.61,41.61,0,0,0-3.95-4.15c-.24-.1-.44,1.57-.44,3.7,0,3.14.17,4,.9,4.39s.49.53-1.15.53-1.88-.11-1.16-.53Zm15.93-.18C85.05,72.89,85,72.8,85,69.54a18.41,18.41,0,0,0-.5-4.65c-.49-1.27-.44-1.31,1.41-1.28,1,0,1.62.16,1.27.3-.86.35-.88,8,0,8.81s3.76.77,4.53-.17.72-8-.16-8.57c-.34-.21.42-.38,1.69-.36s2,.15,1.67.29-.64,1.49-.64,4c0,2.82-.22,4-.9,4.88-1.17,1.43-4.43,1.83-6.68.82Zm10.6,0A15,15,0,0,0,98.2,69c.3-3.54.23-4.09-.61-4.7s-.84-.7.56-.69,1.72.4,3.53,3.85c1.11,2.12,2.21,3.85,2.45,3.85s1.28-1.73,2.33-3.85c1.62-3.29,2.1-3.86,3.21-3.85.94,0,1.1.13.59.46-1.06.67-.31,9.11.87,9.77.6.33.12.47-1.68.47-1.64,0-2.27-.16-1.79-.45s.68-1.32.56-3.68a19.39,19.39,0,0,0-.34-3.41,16,16,0,0,0-2.14,3.45,20.17,20.17,0,0,1-2.23,3.64,22.82,22.82,0,0,1-2.31-3.71l-2-3.72L99,70c-.11,2.49,0,3.68.51,4s0,.43-1.06.44c-1.4,0-1.62-.13-1.16-.69Zm-20-19.81c2.72-2.54,2-3.91-2.46-5-5.49-1.28-8.28-3.17-12.5-8.45-1.46-1.84-3.94-4.84-5.51-6.67l-2.85-3.32,2,1.24c6,3.58,13.05,8.38,19,12.85l6.68,5-.18,2.9-.18,2.9H75.65ZM79.88,47c-5.39-4.59-18.32-13.29-28.24-19-2.39-1.38-4.07-2.5-3.73-2.5,1.26,0,14.43,4.58,19.89,6.91,3.11,1.33,7.91,3.58,10.66,5,4.45,2.28,5,2.72,5,3.93s-1.26,6.67-1.63,7a7,7,0,0,1-2-1.38Zm-3.6-11.8c-11-5.53-21.85-9.52-29.76-11l-3.9-.71,5.16,0a106.43,106.43,0,0,1,11.51.74c6.66.83,18.43,3.53,19.83,4.56.75.54.73.72-.19,1.89-1.3,1.65-1.63,3.36-.61,3.14a7.26,7.26,0,0,1,4.88,1.25c.79.79,1.13,3.87.4,3.7-.21-.05-3.5-1.66-7.32-3.58Zm2.83-7.42c-9.06-4.12-29.72-6.33-46-4.92a57.87,57.87,0,0,1-6.58.38C26.29,23,34.81,21.5,42,20.55c8-1.05,25-1.17,32.05-.22,5.72.76,5.67.74,7.29,2.85,1.37,1.78,1.43,2.94.24,4.31-.82.93-1,1-2.44.33Zm33.66-4.06A10.24,10.24,0,0,1,114.31,22c1.34-1.37,1.54-1.45,1.54-.57A2.92,2.92,0,0,1,113.5,24c-.4,0-.73-.11-.73-.23Zm3.44-1.27c.17-.68,2.76-2.25,8-4.88,4.29-2.14,8-3.88,8.26-3.88s-2.17,1.63-5.4,3.64-6.6,4.19-7.5,4.88c-2,1.55-3.78,1.67-3.4.24ZM98.12,16.74c-6.62-2.69-19.64-5.07-27.69-5.07-3.62,0-4-.11-11.15-3.75A92.24,92.24,0,0,0,39.28.4c-3.77-.85,11.14-.22,17.47.74a173.79,173.79,0,0,1,41,12.25c6.6,3,7.11,3.24,6.65,3.7-.77.77-4,.59-6.32-.35Z"/></g></g></svg>