<svg xmlns="http://www.w3.org/2000/svg" viewBox="0 0 75.24 93.28"><defs><style>.cls-1{fill:#1a1a1a;}</style></defs><g id="Layer_2" data-name="Layer 2"><g id="svg8"><path id="path2187" class="cls-1" d="M75.17,1.1A1.1,1.1,0,0,0,74.07,0H1.1A1.1,1.1,0,0,0,0,1.1v74C0,78.7,2.18,85.49,10.4,85.49H30.52c6,0,6.11,6.42,6.11,6.7a1.09,1.09,0,0,0,1.1,1.09h0a1.1,1.1,0,0,0,1.1-1.1h0a8.12,8.12,0,0,1,2-5.2,5.45,5.45,0,0,1,3.92-1.44c5.21,0,12.57,0,17,0h3.07c8.24,0,10.46-6.74,10.49-10.32Zm-28.3,55c-1.51-1.74-1.53-3.88-.07-6.34a1,1,0,0,0,.2-.61c-.59-3.47,1.77-4.36,2.54-4.64a1.63,1.63,0,0,0,.35-.17L50,44.2a1.68,1.68,0,0,1,1.3-.88c.81,0,1.61.85,1.86,1.19l.16.2.25,0a2.27,2.27,0,0,1,.76.2l.2.1a2.58,2.58,0,0,1,.52.38l0,0a1.76,1.76,0,0,1,.37.49V46a1.93,1.93,0,0,1,.23.65,3.23,3.23,0,0,1,.09.81v.22l.15.16a4.15,4.15,0,0,1,1.33,3.37v.88l.17.15a6.1,6.1,0,0,1,.24,3.28A2.2,2.2,0,0,1,56.86,57l-.14.09-.07.14c-.11.22-.06.43,0,.8.3,1.26.47,2.65-1.2,3.28l-.44.18.1.46a1.9,1.9,0,0,1,.05.4v.09a.73.73,0,0,1,0,.29v.07c0,.09-.06.19-.1.27a.07.07,0,0,1,0,.06,1.14,1.14,0,0,1-.18.25l-.09.1,0,0a3.42,3.42,0,0,1-1.56.74l-.46.07V74.65H51.06V64.42l-.42-.11A3.55,3.55,0,0,1,48,61.07a1.18,1.18,0,0,0-.42-1c-.48-.55-1.2-1.38-.6-3.48l.09-.29Zm6.94,9.11a4.87,4.87,0,0,0,1.44-.73,5.34,5.34,0,0,0,1.33.75V67.8l-2.77.76ZM56,63.64v0a2.45,2.45,0,0,0,.26-.68v0a2.88,2.88,0,0,0,0-.78,3.33,3.33,0,0,0,1.56-4,.85.85,0,0,0-.05-.24c0-.07,0-.12,0-.18v-.06A3.9,3.9,0,0,0,58.88,55a6.69,6.69,0,0,0-.5-3.35v-.44a5.22,5.22,0,0,0-1.49-4A3.79,3.79,0,0,0,56.2,45l0,0a2.33,2.33,0,0,0-.36-.4l.33-.14a1.2,1.2,0,0,0,.34-.16l.12-.12a1.67,1.67,0,0,1,1.29-.88c.81,0,1.62.85,1.86,1.19l.16.2.25,0a2.3,2.3,0,0,1,.77.2l.19.1a2,2,0,0,1,.53.38l0,0a2.09,2.09,0,0,1,.37.5v0a2.28,2.28,0,0,1,.23.65,3.37,3.37,0,0,1,.08.81v.22l.15.16a4.15,4.15,0,0,1,1.33,3.37v.88l.17.15a6.17,6.17,0,0,1,.25,3.28A2.18,2.18,0,0,1,63.44,57l-.13.09-.08.15c-.11.22-.06.43.05.8.29,1.26.47,2.65-1.2,3.28l-.44.17.09.47a1.94,1.94,0,0,1,.06.4v.09a.7.7,0,0,1,0,.29v.07c0,.09-.06.19-.1.27a.07.07,0,0,1,0,.06,1.14,1.14,0,0,1-.18.25l-.09.1,0,0a3.31,3.31,0,0,1-1.56.74l-.46.08V74.64H57.65V64.41l-.41-.11A4.38,4.38,0,0,1,56,63.67Zm4.42,1.55a4.65,4.65,0,0,0,1.44-.73,5.71,5.71,0,0,0,1.33.75v.93l-2.77.3Zm2.18-1.55v0a2.42,2.42,0,0,0,.25-.68v0a2.52,2.52,0,0,0,.06-.78,3.34,3.34,0,0,0,1.56-4,1.44,1.44,0,0,0,0-.24c0-.07,0-.12,0-.18v-.06A3.89,3.89,0,0,0,65.47,55a6.58,6.58,0,0,0-.5-3.35v-.44a5.24,5.24,0,0,0-1.48-4,3.79,3.79,0,0,0-.7-2.16h0a3.19,3.19,0,0,0-.37-.43l.32-.14a1.2,1.2,0,0,0,.34-.16l.11-.12a1.71,1.71,0,0,1,1.29-.88c.8-.05,1.62.85,1.87,1.19l.16.2.25,0A2.44,2.44,0,0,1,69,47.45v.22l.15.16a4.15,4.15,0,0,1,1.33,3.37v.88l.17.15a6.17,6.17,0,0,1,.25,3.28A2.18,2.18,0,0,1,70.07,57l-.13.09-.08.14c-.11.22-.06.43,0,.8.29,1.26.46,2.65-1.21,3.28l-.44.17.1.47a1.54,1.54,0,0,1-.2,1.28,3,3,0,0,1-1.8,1l-.46.07V74.61H64.28V64.39l-.42-.11a4.27,4.27,0,0,1-1.28-.64ZM67,65.19a3.85,3.85,0,0,0,2.06-1.37,2.54,2.54,0,0,0,.44-1.69C71.73,61,71.16,58.58,71,57.75v-.07A3.87,3.87,0,0,0,72.08,55a6.67,6.67,0,0,0-.49-3.35V51.2a5.2,5.2,0,0,0-1.49-4,3.54,3.54,0,0,0-3-3.56,3.91,3.91,0,0,0-2.6-1.44,2.62,2.62,0,0,0-2.09,1.22h0a7.23,7.23,0,0,0-1,.47,3.6,3.6,0,0,0-.87-.27,4,4,0,0,0-2.6-1.44,2.6,2.6,0,0,0-2.09,1.23h0a6,6,0,0,0-1,.46,3.55,3.55,0,0,0-.87-.26,3.74,3.74,0,0,0-2.58-1.45h0a2.6,2.6,0,0,0-2.09,1.23h0a4.78,4.78,0,0,0-3.27,5.67.05.05,0,0,1,0,.05c-2,3.46-1.19,5.9,0,7.4a4.16,4.16,0,0,0,.9,4.22l.16.18h0A4.57,4.57,0,0,0,50,65.16v3.17c-3-1.07-6.75-2.92-6.86-4.17h0L42.48,36H44.3V31.6H42.61V29.8h-9.8v1.8h-1.7V36h1.83l-.6,28.51h-.12c-.1,1.26-3.93,3.12-6.92,4.19V65.17a4.57,4.57,0,0,0,3.08-4.23h0c.05-.06.1-.13.16-.19a4.17,4.17,0,0,0,.89-4.22c1.19-1.49,2.05-3.94,0-7.39a0,0,0,0,0,0,0,4.81,4.81,0,0,0-3.27-5.68h0A2.66,2.66,0,0,0,24,42.19h0a3.78,3.78,0,0,0-2.59,1.44,3.2,3.2,0,0,0-.86.26,7.46,7.46,0,0,0-1-.46h0a2.66,2.66,0,0,0-2.1-1.24h0a3.79,3.79,0,0,0-2.59,1.45,3.16,3.16,0,0,0-.86.25,7.46,7.46,0,0,0-1-.46h0a2.65,2.65,0,0,0-2.1-1.23h0a3.73,3.73,0,0,0-2.58,1.44,3.53,3.53,0,0,0-3,3.56,5.13,5.13,0,0,0-1.48,4v.44A6.69,6.69,0,0,0,3.12,55a3.89,3.89,0,0,0,1.11,2.7v.06C4,58.55,3.47,61,5.7,62.11a2.61,2.61,0,0,0,.43,1.69A3.82,3.82,0,0,0,8.2,65.16V68.4C7.09,71,3.82,72.59,2.09,73.3V20.46L27,20.32l10.63-7,10.62,6.91,24.62.1,0,52.53c-1.79-.74-5-2.37-6-4.9h0V65.15ZM43.9,72.91h.22v.83H31.46v-.83H43.9ZM32.7,71.82V71H42.8v.83Zm8.84-40.16h-7.6V31h7.6Zm1.1,1.1h.58V35h-11V32.76H42.64ZM33.36,69.89l.7-33.84h7.35l.71,33.84ZM9,64.21a3.05,3.05,0,0,1-1.8-1A1.6,1.6,0,0,1,7,61.91l.1-.46-.44-.17c-1.67-.63-1.49-2-1.2-3.28.09-.38.14-.58,0-.8l-.07-.15L5.24,57a2.2,2.2,0,0,1-.81-1.47,6.46,6.46,0,0,1,.22-3.25l.17-.14V51.2a4.22,4.22,0,0,1,1.32-3.38l.16-.16v-.22a2.45,2.45,0,0,1,2.24-2.7h.25l.15-.21a2.86,2.86,0,0,1,1.85-1.19h0a1.69,1.69,0,0,1,1.29.88l.11.13a1.2,1.2,0,0,0,.34.16l.33.13a3.25,3.25,0,0,0-.35.39l0,0a3.83,3.83,0,0,0-.69,2.17,5.15,5.15,0,0,0-1.49,4v.44A6.69,6.69,0,0,0,9.8,55a3.85,3.85,0,0,0,1.11,2.7v.06c0,.06,0,.11,0,.18a4.91,4.91,0,0,0,0,2.54s0,.08.05.13,0,.13.08.19a2.84,2.84,0,0,0,1.37,1.35,1.8,1.8,0,0,0,.05.77v0a2.34,2.34,0,0,0,.26.68v0a4,4,0,0,1-1.28.63l-.41.11V74.66H9.36V64.34Zm3.19,1a5.49,5.49,0,0,0,1.32-.75,4.57,4.57,0,0,0,1.45.73v1.59l-2.77-.31ZM14,63.47h0a.6.6,0,0,1-.11-.12,1.44,1.44,0,0,1-.18-.25.07.07,0,0,0,0-.06,1.07,1.07,0,0,1-.09-.27V62.7c0-.09-.05-.2-.05-.29v-.08a1,1,0,0,1,.06-.41l.1-.46-.45-.16c-1.67-.64-1.49-2-1.2-3.29a1.18,1.18,0,0,0,0-.8L12,57.07,11.85,57A2.2,2.2,0,0,1,11,55.52a6.44,6.44,0,0,1,.22-3.25l.17-.15v-.9a4.2,4.2,0,0,1,1.33-3.38l.15-.16v-.22a4.77,4.77,0,0,1,.09-.81,2.78,2.78,0,0,1,.23-.65h0a2.12,2.12,0,0,1,.38-.51l0,0a2.23,2.23,0,0,1,.53-.38l.19-.1a2.32,2.32,0,0,1,.76-.2h.26l.15-.21a2.86,2.86,0,0,1,1.85-1.19h0a1.7,1.7,0,0,1,1.29.89l.11.12a1.2,1.2,0,0,0,.34.16l.33.13a2.63,2.63,0,0,0-.35.39l0,0a3.85,3.85,0,0,0-.7,2.17,5.17,5.17,0,0,0-1.48,4v.45a6.76,6.76,0,0,0-.5,3.34,3.9,3.9,0,0,0,1.12,2.7v.06c0,.06-.05.11-.05.18a5.06,5.06,0,0,0,0,2.55s.05.08.06.13a1.07,1.07,0,0,1,.07.19A3,3,0,0,0,19,62.2,2.2,2.2,0,0,0,19,63v0a3,3,0,0,0,.26.68v0a4.26,4.26,0,0,1-1.28.63l-.41.11V74.7H16V64.38l-.46-.08a3.48,3.48,0,0,1-1.57-.74Zm4.75,1.74a5.52,5.52,0,0,0,1.33-.75,4.44,4.44,0,0,0,1.44.73v3.7l-2.77-.77Zm3.41-1a3.48,3.48,0,0,1-1.57-.74h0l-.11-.12a2,2,0,0,1-.18-.25s0,0,0-.06a2.15,2.15,0,0,1-.1-.27V62.7c0-.09,0-.2,0-.29v-.08a1,1,0,0,1,.06-.41l.09-.46-.44-.17c-1.67-.63-1.49-2-1.2-3.28a1.26,1.26,0,0,0,.05-.8l-.08-.14L18.45,57a2.2,2.2,0,0,1-.81-1.46,6.44,6.44,0,0,1,.22-3.25l.17-.15v-.9a4.22,4.22,0,0,1,1.32-3.38l.15-.16v-.22a3.93,3.93,0,0,1,.09-.81,2.78,2.78,0,0,1,.23-.65h0a2.12,2.12,0,0,1,.38-.51l0,0a2,2,0,0,1,.53-.38L21,45a2.32,2.32,0,0,1,.76-.2H22l.15-.21A2.89,2.89,0,0,1,24,43.37h0a1.66,1.66,0,0,1,1.29.89l.12.12a1.15,1.15,0,0,0,.35.16c.77.29,3.13,1.17,2.54,4.74a.9.9,0,0,0,.2.51c1.46,2.47,1.44,4.6-.07,6.34l-.2.22.08.29c.61,2.1-.11,2.93-.59,3.48a1.22,1.22,0,0,0-.43,1,3.55,3.55,0,0,1-2.65,3.25l-.42.1V74.66H22.57V64.34Zm2.64-51.48.09,0-.09,0Zm4.07.08-.1,0,.1,0Zm.43.48h6.56L27.7,18.62Zm-2.46,4.44-1.48-5L26.9,7.81l1.39,5Zm19.66-5h0Zm4.13,0v.12l-.2-.06Zm-4.59.6,1.53,5.13-7.9-5.14Zm1-.57,1.56-4.94,1.39,5-1.47,4.95Zm3.94.53,22,0v6l-23.79-.1Zm22-1.12-22.06,0-1.66-6H73Zm-27,.06H39.51l8.2-5.36Zm-16.76,0L27.79,6.91l8.15,5.31Zm-4.91.08-22.15,0v-6l24,0Zm0,1.1,1.76,5.88L2.21,19.4v-6ZM73,2.22V5.15H48.34l-10.6,6.94L27.24,5.26l-.19-.09L2.2,5.21v-3Zm-8.22,81.1H61.68c-4.4,0-11.76.07-17,0a7.21,7.21,0,0,0-5.49,2.08,7.79,7.79,0,0,0-1.52,2.16,7.55,7.55,0,0,0-7.19-4.28H10.4c-8.06,0-8.19-7.86-8.2-8.19v-.61a15.19,15.19,0,0,0,6.12-4v5.22h3.83V67.59l2.77.3v7.82h3.82V69.27l2.77.76v5.68h3.83V69.92c1.35-.47,5.17-1.88,7-3.6l-.07,3.58h-.66v1.92H30.37v3H45.23v-3H43.91V69.9h-.68l-.08-3.83c1.84,1.65,5.46,3,6.84,3.49v6.15h3.83v-6L56.59,69v6.76h3.82V67.55l2.77-.3v8.47H67V70.08a14.9,14.9,0,0,0,6,4v1.06c0,.34-.14,8.13-8.28,8.13Z"/></g></g></svg>