<svg xmlns="http://www.w3.org/2000/svg" viewBox="0 0 70.87 80.19"><defs><style>.cls-1{fill:#1a1a1a;}</style></defs><g id="Layer_2" data-name="Layer 2"><g id="svg8"><path id="path2162" class="cls-1" d="M.33,80c0-.12,0-1.73-.1-3.57L.15,73.05H9.92c5.37,0,9.77-.09,9.77-.2a18.79,18.79,0,0,0-.71-2,16.51,16.51,0,0,1-.92-3.52l-.2-1.71H0l.1-.67.09-.67L9,64.19l8.84-.08.21-1.7a21.36,21.36,0,0,1,1.47-5.21c.19-.49-.38-.52-9.67-.52H0L.09,56l.1-.67,11.65-.08,11.66-.07.84.7c2.17,1.78,10.81,8.23,11,8.23s2.92-2,6.16-4.46l5.89-4.47H70.87v1.49H51.31L52,58.54a20.25,20.25,0,0,1,.88,3.72l.21,1.86H62c8.7,0,8.9,0,8.9.6s-.19.59-8.89.59H53.09l-.21,1.86A16.62,16.62,0,0,1,52,70.84a20.06,20.06,0,0,0-.72,2c0,.11,4.4.2,9.78.2h9.77l0,3.57,0,3.57H47.16l-3.85-3-5.55-4.32a8.14,8.14,0,0,0-2.1-1.33c-.33,0-4.45,3.22-7.36,5.75-.41.36-1.36,1.15-2.12,1.77l-1.37,1.11H12.57C5.83,80.19.32,80.09.31,80Zm24-7.69c2.57-3.37,2.45-12.14-.2-15.15-1.7-1.94-3.44-1.07-4.62,2.3C19.07,60.65,19,61.88,19,65c0,3.81,0,4.11.86,5.89,1.43,3.09,2.86,3.53,4.5,1.37Zm25.85.22c2.72-2.84,2.66-12.84-.09-15.79-1.08-1.16-1.94-1.16-3,0-1.3,1.4-1.84,3.31-2,7.15s.28,6.31,1.55,8.32c.63,1,.91,1.2,1.74,1.2a2.32,2.32,0,0,0,1.8-.86ZM29.21,69.2c.58-.42,1.19-.89,1.36-1.06s.95-.76,1.71-1.34a6.12,6.12,0,0,0,1.39-1.26,13.56,13.56,0,0,0-3.42-.22H26.83v1.12a14.74,14.74,0,0,1-.44,2.85c-.63,2.38-.59,2.45.67,1.51l2.15-1.6ZM45,71a17.6,17.6,0,0,0-.45-2,14.74,14.74,0,0,1-.45-2.85V65H40.67a13.62,13.62,0,0,0-3.42.22,11.5,11.5,0,0,0,2.12,1.86c1.16.9,2.8,2.2,3.64,2.89,1.56,1.29,2,1.49,2,1ZM34,64.31c0-.19-7.15-5.57-7.65-5.76-.33-.12-.41,0-.28.4a18.4,18.4,0,0,1,.78,4.36l0,1.11h3.57A29.26,29.26,0,0,0,34,64.31Zm10.13-1a17.53,17.53,0,0,1,.45-3,8.48,8.48,0,0,0,.34-2A21.47,21.47,0,0,0,42,60.34c-1.54,1.19-3.24,2.47-3.77,2.85s-1,.8-1,1a10.36,10.36,0,0,0,3.42.28h3.42V63.31Zm-10.27-4.9c-.07-.21-.18-2.75-.22-5.65a36.5,36.5,0,0,0-.31-5.48c-.13-.13-.81,0-1.53.4a3.68,3.68,0,0,0-1.95,2c-.86,1.76-.64,2.62,1.07,4.26,1,.92,1.2,1.31.89,1.43-.62.24-2-.58-3.12-1.81-1.62-1.85-1.22-4.47,1-6.17s2.24-1.62,4.77-.23l2.28,1.25-.08,5.11-.09,5.1-1.27.09c-.84.06-1.31,0-1.4-.3Zm4.48-2.85c-.31-.31-.17-.53.67-1A3.64,3.64,0,0,0,40.71,51c-.29-1.56-1.72-2.71-6.26-5-2.26-1.15-4.68-2.48-5.37-3-4.84-3.32-5.31-8.55-1-10.76,1.45-.74,1.49-.73,6.4,1.56l3.11,1.45L37.39,39c-.13,2.29-.1,3.72.07,3.72a11.82,11.82,0,0,0,3.66-2.6,3.28,3.28,0,0,0,.6-2c0-1-.19-1.38-1.25-2.39A11,11,0,0,0,37.87,34c-5.64-2.45-11-5.35-12.64-6.8-3.54-3.19-3.76-6.36-.58-8.33,2-1.23,6.31-.79,6.59.67.13.68-.87.94-2.19.58-1.83-.51-3.37.45-3.39,2.1,0,.58.36,1.12,1.36,2,1.35,1.18,2.8,2,10.59,5.63,4.21,2,5.79,3.1,6.72,4.76,2.17,3.85.13,7.77-4.94,9.51-.89.31-1.19.25-3-.65-3.36-1.7-3.29-1.58-3.39-5.59a20.16,20.16,0,0,0-.3-3.68c-.25-.26-2,.8-3,1.84-1.45,1.44-.85,3.92,1.34,5.53.55.41,2.74,1.72,4.86,2.92,5.54,3.12,6.82,4.67,6.27,7.6-.31,1.62-3.16,4.18-3.87,3.47ZM36.43,27.73l-3.94-1.84v-7.6h5.67L38,21.49c-.1,1.76-.23,3.84-.32,4.61s-.07,1.42,0,1.42A23.07,23.07,0,0,0,40,26.47c4.48-2.26,6-5,3.53-6.26a2.39,2.39,0,0,0-2.08-.13c-2.1.57-3.18-.34-1.63-1.36a5.37,5.37,0,0,1,4.52-.3c3.4,1.15,4.64,3.81,3.12,6.65-.72,1.34-5.54,4.57-6.73,4.51-.17,0-2.07-.84-4.24-1.85Zm-15.29-11a5.77,5.77,0,0,1,1.52-.94c1.19-.53,1.2-.55,1.2-2.2a5.15,5.15,0,0,1,1.05-3.29,8.34,8.34,0,0,0,1-2c0-.65-1.75-1.51-4.14-2-4.13-.89-8-2.25-8.8-3.11S11.67.31,12.3.06a17.67,17.67,0,0,1,4.19,1.58c2.08,1,5.62,2.35,7.88,3.1a32.33,32.33,0,0,1,4.82,1.92c.7.54.71.58.33,2.38a5.06,5.06,0,0,0-.19,2c.11.11.57,0,1-.32a8.15,8.15,0,0,1,9.65,0c1.09.71,1.32.35.86-1.32-.22-.78-.41-1.6-.44-1.83C40.35,6.91,42,6,45.17,4.93a71.22,71.22,0,0,0,9.59-3.81c3.17-1.52,3.78-1.5,3.52.1-.35,2.16-2,3.07-8.56,4.7-4.1,1-5.33,1.59-5.33,2.45a7.29,7.29,0,0,0,1.06,2,4,4,0,0,1,1,2.9c0,.74,0,1.51,0,1.71a2.9,2.9,0,0,0,1.33.93,4.67,4.67,0,0,1,1.5.91c.15.24-3.68.33-14.13.33-12,0-14.29-.07-14-.4Zm-1.6-2.39c-1.09-.48-1.83-1.31-1.46-1.63s4,.53,4,1a1.26,1.26,0,0,1-1.18,1.07,6.84,6.84,0,0,1-1.35-.4Zm29.09.21a.78.78,0,0,1-.37-.69c0-.42.36-.63,1.5-.87,2.57-.55,3.29-.35,2.14.61a3.59,3.59,0,0,1-3.27.95ZM18.75,11.61c-1.34-.5-2.63-1.33-2.63-1.69s1.42-.28,3.72.32c1.64.42,2.08.66,2.08,1.1,0,.71-1.62.85-3.17.27Zm29.47.13a6,6,0,0,1-.08-.63c0-.43,5.52-1.82,5.86-1.48s-.91,1.44-2.42,1.95-3.3.61-3.37.17ZM19.41,9.18A18.24,18.24,0,0,1,16.48,8.1C15.16,7.44,13.81,6,14.27,5.68a6.36,6.36,0,0,1,2.17.44c1,.33,2.91.79,4.13,1a7.72,7.72,0,0,1,2.68.9c.41.42.39.52-.24,1-.83.68-1.41.69-3.6.1Zm28,.17a1,1,0,0,1-.67-.85c0-.63.93-1,3.25-1.38a25.93,25.93,0,0,0,3.4-.92C56,5.34,56,5.34,56,6.09s-2.26,2.22-4.72,3c-2.06.64-2.81.69-3.84.28Z"/></g></g></svg>