<svg xmlns="http://www.w3.org/2000/svg" viewBox="0 0 34.38 26.46"><defs><style>.cls-1{fill:#1a1a1a;}</style></defs><g id="Layer_2" data-name="Layer 2"><g id="svg8"><path id="path7167" class="cls-1" d="M.78,26.36C.17,26.14,0,25.78,0,24.68v-.8l1.38-2.7,1.37-2.71V9.62c0-10,0-9.17.54-9.47L3.59,0h27.2l.3.15c.58.3.54-.54.54,9.47v8.85L33,21.18l1.38,2.7v.8c0,1.1-.17,1.46-.79,1.68-.38.13-32.42.13-32.8,0ZM33.36,25l0-.45H1v.42a2,2,0,0,0,.05.47s7.3,0,16.16,0l16.12,0ZM12.65,22.54c.31-1.16.41-1.38.7-1.57l.23-.16h7.21L21,21c.29.19.39.41.7,1.57l.26,1h5.53c3,0,5.52,0,5.51-.05s-.51-1-1.12-2.22l-1.09-2.16H3.56L2.47,21.23c-.6,1.19-1.11,2.19-1.12,2.22s2.47.05,5.51.05H12.4Zm8.26.81c0-.08-.13-.45-.23-.82l-.18-.67H13.87l-.18.67c-.1.37-.2.74-.23.82l-.05.15H21ZM30.62,9.53V1H3.76v17H30.62ZM5.2,16.86a.75.75,0,0,1-.29-.35,26.53,26.53,0,0,1-.07-3c0-2.7,0-2.77.14-2.95a.45.45,0,0,1,.7,0l.17.17V16H28.54V10.74l.17-.17a.45.45,0,0,1,.7,0c.14.18.14.25.14,3,0,3.06,0,3.14-.4,3.34-.18.1-1.42.11-12,.11-11.45,0-11.77,0-12-.13ZM5.09,8.62a.38.38,0,0,1-.22-.25c0-.08,0-1.42,0-3,0-2.72,0-2.84.15-3,.31-.35-.29-.34,12.19-.34s11.87,0,12.18.34c.13.14.14.26.16,3v3a.63.63,0,0,1-.23.26.5.5,0,0,1-.67-.21,20.34,20.34,0,0,1-.08-2.75V3.09H5.88V5.67A22.63,22.63,0,0,1,5.8,8.42a.52.52,0,0,1-.28.24l-.2.07-.19-.11Z"/></g></g></svg>