<svg width="119" height="112" viewBox="0 0 119 112" fill="none" xmlns="http://www.w3.org/2000/svg">
<path opacity="0.5" d="M16.9052 108.444C24.1324 111.1 32.5524 111.864 39.7801 111.614C54.341 111.111 68.5028 108.399 81.7728 104.104C93.9835 100.152 108.396 94.9164 114.686 84.3137C121.133 73.4486 119.064 59.6096 113.71 47.5476C109.173 37.3234 102.059 27.9169 94.0873 19.2407C89.3305 14.0625 84.1488 9.03268 77.8482 5.41102C70.7739 1.34451 61.8357 -0.875844 54.3379 1.5707C42.5461 5.41832 38.5181 17.0546 35.4025 26.9956C31.8228 38.4178 26.0537 48.6817 17.8571 57.7171C12.3344 63.802 6.17541 69.7676 2.6575 77.1105C0.454545 81.7092 -0.584945 86.9566 0.672414 92.1418C2.70302 100.514 9.1111 105.579 16.9052 108.444Z" fill="#6FDE9B"/>
</svg>
