<svg width="115" height="131" viewBox="0 0 115 131" fill="none" xmlns="http://www.w3.org/2000/svg">
<path opacity="0.5" d="M108.776 113.099C112.185 105.29 113.729 96.1046 114.11 88.1864C114.879 72.2345 113.311 56.6371 110.015 41.9568C106.982 28.4483 102.808 12.483 92.3202 5.20557C81.5731 -2.25308 66.9713 -0.503591 53.9291 4.90709C42.8743 9.49162 32.4425 16.9267 22.6953 25.3268C16.878 30.3394 11.1776 35.8224 6.84488 42.5822C1.97996 50.1721 -1.12708 59.8701 0.755929 68.1656C3.71729 81.2119 15.4827 86.0521 25.5629 89.8309C37.145 94.1726 47.326 100.867 56.0114 110.172C61.8604 116.441 67.5287 123.403 74.8664 127.525C79.4618 130.107 84.8364 131.439 90.3502 130.256C99.2527 128.345 105.099 121.522 108.776 113.099Z" fill="#6FDE9B"/>
</svg>
