<svg width="76" height="76" viewBox="0 0 76 76" fill="none" xmlns="http://www.w3.org/2000/svg">
<path d="M49.75 1H5.875C4.58207 1 3.34209 1.51361 2.42785 2.42785C1.51361 3.34209 1 4.58207 1 5.875V35.125C1 36.4179 1.51361 37.6579 2.42785 38.5721C3.34209 39.4864 4.58207 40 5.875 40H13.1875V49.75L22.9375 40H49.75C51.0429 40 52.2829 39.4864 53.1971 38.5721C54.1114 37.6579 54.625 36.4179 54.625 35.125V5.875C54.625 4.58207 54.1114 3.34209 53.1971 2.42785C52.2829 1.51361 51.0429 1 49.75 1Z" stroke="#1C1B1F" stroke-width="2" stroke-linecap="round" stroke-linejoin="round"/>
<path d="M25.375 47.3126C25.375 48.1089 25.375 48.9214 25.375 49.7501C25.3764 56.2142 27.9454 62.4131 32.5169 66.9832L25.375 74.1251H49.75C55.1156 74.1249 60.3311 72.3542 64.5879 69.0878C68.8446 65.8214 71.9046 61.2416 73.2933 56.0589C74.6821 50.8762 74.3219 45.38 72.2687 40.4228C70.2156 35.4656 66.5841 31.3244 61.9375 28.6414" stroke="#1C1B1F" stroke-width="2" stroke-linecap="round" stroke-linejoin="round"/>
<path d="M10.75 15.625H44.875" stroke="#1C1B1F" stroke-width="2" stroke-linecap="round" stroke-linejoin="round"/>
<path d="M10.75 25.375H44.875" stroke="#1C1B1F" stroke-width="2" stroke-linecap="round" stroke-linejoin="round"/>
<path d="M59.9375 65.1875L53.8125 52.9375L47.6875 65.1875" stroke="#1C1B1F" stroke-width="2" stroke-linecap="round" stroke-linejoin="round"/>
<path d="M49.4375 61.6875H58.1875" stroke="#1C1B1F" stroke-width="2" stroke-linecap="round" stroke-linejoin="round"/>
<path d="M44.1875 45.0625V47.6875" stroke="#1C1B1F" stroke-width="2" stroke-linecap="round" stroke-linejoin="round"/>
<path d="M37.1875 47.6875H51.1875" stroke="#1C1B1F" stroke-width="2" stroke-linecap="round" stroke-linejoin="round"/>
<path d="M47.6875 47.6875C47.6875 50.4723 46.5813 53.143 44.6121 55.1121C42.643 57.0813 39.9723 58.1875 37.1875 58.1875" stroke="#1C1B1F" stroke-width="2" stroke-linecap="round" stroke-linejoin="round"/>
<path d="M41.2781 51.1875C42.0038 53.2354 43.3463 55.008 45.1208 56.2616C46.8954 57.5151 49.0148 58.1879 51.1875 58.1875" stroke="#1C1B1F" stroke-width="2" stroke-linecap="round" stroke-linejoin="round"/>
</svg>
