<svg width="109" height="125" viewBox="0 0 109 125" fill="none" xmlns="http://www.w3.org/2000/svg">
<path opacity="0.5" d="M19.1555 8.01126C14.1112 13.0934 10.4675 20.1863 8.20782 26.7303C3.65463 39.9133 1.35659 53.8529 0.883845 67.7966C0.44863 80.6272 0.481802 96.0582 8.46748 106.976C16.6503 118.165 30.6282 123.287 44.0392 124.599C55.4062 125.711 66.8808 124.124 77.952 121.409C84.5594 119.789 91.1715 117.717 96.821 113.944C103.164 109.707 108.383 102.886 108.631 94.9978C109.022 82.5917 99.2631 73.163 90.8137 65.3971C81.1054 56.4742 73.2642 46.1895 67.4398 34.367C63.5182 26.4028 59.9309 17.9335 54.1105 11.1169C50.4653 6.84801 45.796 3.28604 40.3921 1.79496C31.6668 -0.612052 24.5962 2.53077 19.1555 8.01126Z" fill="#6FDE9B"/>
</svg>
