<svg width="133" height="123" viewBox="0 0 133 123" fill="none" xmlns="http://www.w3.org/2000/svg">
<path opacity="0.5" d="M130.537 106.309C133.063 99.012 133.274 90.4107 132.393 82.9885C130.621 68.036 126.291 53.3982 120.178 39.6073C114.553 26.9172 107.245 11.9147 94.3058 5.01114C81.0459 -2.06435 64.9918 -0.534438 51.2878 4.44044C39.6716 8.65569 29.2234 15.5487 19.7008 23.3517C14.0173 28.008 8.54242 33.1064 4.80905 39.4123C0.617078 46.4926 -1.25937 55.563 2.21769 63.3561C7.68602 75.6122 21.6534 80.24 33.5595 83.8598C47.2394 88.0188 59.7395 94.3734 70.9969 103.165C78.5784 109.088 86.0718 115.658 94.965 119.58C100.535 122.035 106.77 123.326 112.746 122.258C122.395 120.534 127.812 114.179 130.537 106.309Z" fill="#6FDE9B"/>
</svg>
