<svg width="32" height="32" viewBox="0 0 32 32" fill="none" xmlns="http://www.w3.org/2000/svg">
<path d="M12.8311 30.6296C12.672 30.6296 12.5195 30.5664 12.4071 30.454C12.2947 30.3415 12.2315 30.189 12.2314 30.03C12.2314 21.449 10.2588 19.4753 1.67773 19.4753C1.51871 19.4753 1.3662 19.4122 1.25375 19.2997C1.1413 19.1873 1.07812 19.0348 1.07812 18.8757C1.07812 18.7167 1.1413 18.5642 1.25375 18.4517C1.3662 18.3393 1.51871 18.2761 1.67773 18.2761C10.2588 18.2761 12.2314 16.3035 12.2314 7.72241C12.2314 7.56339 12.2946 7.41087 12.4071 7.29842C12.5195 7.18598 12.672 7.1228 12.8311 7.1228C12.9901 7.1228 13.1426 7.18598 13.255 7.29842C13.3675 7.41087 13.4307 7.56339 13.4307 7.72241C13.4307 16.3035 15.4033 18.2761 23.9844 18.2761C24.1434 18.2761 24.2959 18.3393 24.4084 18.4517C24.5208 18.5642 24.584 18.7167 24.584 18.8757C24.584 19.0348 24.5208 19.1873 24.4084 19.2997C24.2959 19.4122 24.1434 19.4753 23.9844 19.4753C15.4033 19.4753 13.4307 21.449 13.4307 30.03C13.4306 30.189 13.3674 30.3415 13.255 30.454C13.1426 30.5664 12.9901 30.6296 12.8311 30.6296ZM7.64258 18.8757C8.92004 19.1384 10.0924 19.7699 11.0146 20.6921C11.9369 21.6143 12.5684 22.7867 12.8311 24.0642C13.0937 22.7867 13.7253 21.6143 14.6475 20.6921C15.5697 19.7699 16.7421 19.1384 18.0195 18.8757C16.7421 18.6131 15.5697 17.9815 14.6475 17.0593C13.7253 16.1371 13.0937 14.9647 12.8311 13.6873C12.5684 14.9647 11.9369 16.1371 11.0146 17.0593C10.0924 17.9815 8.92004 18.6131 7.64258 18.8757Z" fill="white"/>
<path d="M30.3223 6.97632C25.959 6.97632 25.0762 6.0935 25.0762 1.73023C25.0762 1.5712 25.013 1.41869 24.9006 1.30624C24.7881 1.19379 24.6356 1.13062 24.4766 1.13062C24.3175 1.13062 24.165 1.19379 24.0526 1.30624C23.9401 1.41869 23.877 1.5712 23.877 1.73023C23.877 6.0935 22.9941 6.97632 18.6299 6.97632C18.4709 6.97632 18.3183 7.03949 18.2059 7.15194C18.0934 7.26439 18.0303 7.4169 18.0303 7.57593C18.0303 7.73495 18.0934 7.88747 18.2059 7.99991C18.3183 8.11236 18.4709 8.17554 18.6299 8.17554C22.9941 8.17554 23.877 9.05836 23.877 13.4216C23.877 13.5807 23.9401 13.7332 24.0526 13.8456C24.165 13.9581 24.3175 14.0212 24.4766 14.0212C24.6356 14.0212 24.7881 13.9581 24.9006 13.8456C25.013 13.7332 25.0762 13.5807 25.0762 13.4216C25.0762 9.05836 25.959 8.17554 30.3223 8.17554C30.4813 8.17554 30.6338 8.11236 30.7463 7.99991C30.8587 7.88747 30.9219 7.73495 30.9219 7.57593C30.9219 7.4169 30.8587 7.26439 30.7463 7.15194C30.6338 7.03949 30.4813 6.97632 30.3223 6.97632Z" fill="white"/>
</svg>
