<svg width="26" height="26" viewBox="0 0 26 26" fill="none" xmlns="http://www.w3.org/2000/svg">
<g clip-path="url(#clip0_104_774)">
<path d="M25.9898 13.0406C25.9898 13.0254 26 13.0152 26 13C26 12.9848 25.9949 12.9746 25.9898 12.9594C25.9848 11.0652 25.5531 9.17617 24.7254 7.4293H24.7559V5.5707C24.7559 3.18398 22.8109 1.23906 20.4242 1.23906H18.5656V1.26953C16.8289 0.446875 14.9398 0.0152344 13.0457 0.0101563C13.0305 0.0101563 13.0152 0 13 0C12.9848 0 12.9695 0.0101563 12.9543 0.0101563C11.0602 0.0152344 9.17109 0.446875 7.4293 1.26953V1.23906H5.5707C3.18398 1.23906 1.23906 3.18398 1.23906 5.5707V7.4293H1.26953C0.441797 9.17617 0.0152344 11.0652 0.0101563 12.9594C0.0101563 12.9746 0 12.9848 0 13C0 13.0152 0.00507813 13.0254 0.0101563 13.0406C0.0152344 14.9348 0.446875 16.8238 1.27461 18.5707H1.24414V20.4293C1.24414 22.816 3.18906 24.7609 5.57578 24.7609H7.43437V24.7305C9.18125 25.5582 11.0703 25.9848 12.9645 25.9949C12.9797 25.9949 12.9898 26.0051 13.0051 26.0051C13.0203 26.0051 13.0305 26 13.0457 25.9949C14.9398 25.9898 16.8289 25.5582 18.5758 24.7305V24.7609H20.4344C22.8211 24.7609 24.766 22.816 24.766 20.4293V18.5707H24.7305C25.5582 16.8238 25.9848 14.9348 25.9898 13.0406ZM20.3988 12.3805C20.2566 10.6285 19.5102 9.00352 18.2508 7.74922C16.9609 6.45938 15.3055 5.77891 13.6195 5.63672V1.27461C16.4227 1.42188 19.1801 2.54922 21.318 4.68711C23.4559 6.825 24.5832 9.58242 24.7305 12.3855H20.3988V12.3805ZM8.62266 17.3773C6.21055 14.9652 6.21055 11.0348 8.62266 8.62266C9.83125 7.41406 11.4156 6.81484 13 6.81484C14.5844 6.81484 16.1688 7.41914 17.3773 8.62266C18.5453 9.79063 19.1902 11.3445 19.1902 13C19.1902 14.6555 18.5453 16.2094 17.3773 17.3773C14.9652 19.7895 11.0348 19.7895 8.62266 17.3773ZM12.3805 5.63164C10.6895 5.77383 9.03906 6.4543 7.74922 7.74414C6.45938 9.03398 5.77891 10.6895 5.63672 12.3754H1.27461C1.42188 9.57227 2.54922 6.81484 4.68711 4.67695C6.825 2.53906 9.58242 1.41172 12.3855 1.26445V5.63164H12.3805ZM5.63164 13.6195C5.77383 15.3105 6.4543 16.9609 7.74414 18.2559C9.03398 19.5457 10.6895 20.2262 12.3754 20.3684V24.7305C9.57227 24.5832 6.81484 23.4559 4.67695 21.318C2.53906 19.1801 1.41172 16.4227 1.26445 13.6195H5.63164ZM13.6195 20.3633C15.3105 20.2211 16.9609 19.5406 18.2508 18.2508C19.5051 16.9965 20.2516 15.3664 20.3988 13.6145H24.7254C24.5781 16.4176 23.4508 19.175 21.3129 21.3129C19.175 23.4508 16.4176 24.5781 13.6145 24.7254V20.3633H13.6195ZM23.5016 5.3625C23.1105 4.82422 22.684 4.29609 22.1914 3.80859C21.7039 3.32109 21.1758 2.89453 20.6324 2.49844C22.1762 2.6 23.4 3.82383 23.5016 5.3625ZM5.36758 2.49844C4.82422 2.88945 4.29609 3.32109 3.80859 3.80859C3.32109 4.29609 2.89453 4.82422 2.49844 5.36758C2.6 3.82383 3.82383 2.6 5.36758 2.49844ZM2.49844 20.6375C2.89453 21.1809 3.32109 21.7039 3.80859 22.1965C4.29609 22.684 4.82422 23.1105 5.36758 23.5066C3.82383 23.4 2.6 22.1762 2.49844 20.6375ZM20.6375 23.5016C21.1809 23.1055 21.7039 22.6789 22.1965 22.1914C22.6891 21.7039 23.1105 21.1758 23.5066 20.6324C23.4 22.1762 22.1762 23.4 20.6375 23.5016Z" fill="white"/>
</g>
<defs>
<clipPath id="clip0_104_774">
<rect width="26" height="26" fill="white"/>
</clipPath>
</defs>
</svg>
