<svg width="32" height="32" viewBox="0 0 32 32" fill="none" xmlns="http://www.w3.org/2000/svg">
<path d="M28 22.1653V9.83496C28 9.65752 27.9528 9.48328 27.8632 9.33011C27.7736 9.17695 27.6449 9.05038 27.4903 8.96339L16.4903 2.77589C16.3406 2.69169 16.1717 2.64746 16 2.64746C15.8283 2.64746 15.6594 2.69169 15.5097 2.77589L4.50974 8.96339C4.35509 9.05038 4.22637 9.17695 4.13679 9.33011C4.04721 9.48328 4 9.65752 4 9.83496V22.1653C4 22.3427 4.04721 22.5169 4.13679 22.6701C4.22637 22.8233 4.35509 22.9498 4.50974 23.0368L15.5097 29.2243C15.6594 29.3085 15.8283 29.3528 16 29.3528C16.1717 29.3528 16.3406 29.3085 16.4903 29.2243L27.4903 23.0368C27.6449 22.9498 27.7736 22.8233 27.8632 22.6701C27.9528 22.5169 28 22.3427 28 22.1653Z" stroke="#565656" stroke-linecap="round" stroke-linejoin="round"/>
<path d="M22.1278 19.0639V12.5639L10 5.875" stroke="#565656" stroke-linecap="round" stroke-linejoin="round"/>
<path d="M27.8623 9.3284L16.1188 16L4.13867 9.32715" stroke="#565656" stroke-linecap="round" stroke-linejoin="round"/>
<path d="M16.1193 16L16.002 29.3527" stroke="#565656" stroke-linecap="round" stroke-linejoin="round"/>
</svg>
