<svg width="137" height="14" viewBox="0 0 137 14" fill="none" xmlns="http://www.w3.org/2000/svg">
<path d="M8.05436 14H6.94595L0 0.0744681H2.29069L7.46321 10.5L12.5618 0.0744681H14.9264L7.98047 14H8.05436ZM17.6605 14V0.0744681H30.6657V2.08511H19.8034V5.58511H26.8971V7.59575H19.8034V11.9894H31.2568V14H17.6605ZM36.5032 5.88298H43.8925C44.6315 5.88298 45.2226 5.73404 45.5921 5.3617C45.9615 5.06383 46.1832 4.54256 46.1832 3.94681C46.1832 3.35106 45.9615 2.90425 45.5921 2.53192C45.2226 2.23404 44.6315 2.01064 43.8925 2.01064H36.5032V5.80851V5.88298ZM36.5032 7.89359V14H34.3603V0.0744681H43.8925C45.2965 0.0744681 46.4049 0.446808 47.2177 1.11702C48.0305 1.78723 48.4 2.75532 48.4 3.94681C48.4 4.91489 48.1044 5.80852 47.4394 6.55319C46.7743 7.29787 45.9615 7.74468 45.0009 7.89359L48.8434 14H46.4788L42.5624 7.89359H36.5032ZM55.7154 14V6.85106L49.4345 0H52.2424L56.8238 4.98936L61.3313 0H64.2131L57.8583 6.7766V13.9256H55.7154V14ZM77.6617 14V0.0744681H78.7702L87.563 9.90422V0.0744681H89.7066V14H88.5982L79.8047 4.24468V14H77.6617ZM94.4354 14V0.0744681H107.441V2.08511H96.5782V5.58511H103.672V7.59575H96.5782V11.9894H108.032V14H94.4354ZM113.5 8.63831H118.894L116.234 3.2766L113.5 8.63831ZM108.475 14L115.495 0.0744681H116.825L123.919 14H121.628L119.855 10.4256H112.539L110.766 14H108.475ZM128.13 14V2.01064H122.293V0.0744681H136.111V2.01064H130.274V14H128.13Z" fill="white"/>
</svg>
