<svg width="122" height="36" viewBox="0 0 122 36" fill="none" xmlns="http://www.w3.org/2000/svg">
<path d="M42.8358 9.17996C42.8358 9.89996 42.6551 10.53 42.2032 10.98C41.661 11.52 41.0284 11.79 40.2151 11.79C39.4017 11.79 38.7691 11.52 38.2269 10.98C37.6847 10.44 37.4136 9.80996 37.4136 8.99996C37.4136 8.18996 37.6847 7.55996 38.2269 7.01996C38.7691 6.47996 39.4017 6.20996 40.2151 6.20996C40.5765 6.20996 41.0284 6.29996 41.2995 6.38996C41.661 6.56996 41.9321 6.74996 42.2032 7.01996L41.661 7.55996C41.4802 7.37996 41.2995 7.19996 41.0284 7.10996C40.7573 7.01996 40.4862 6.92996 40.2151 6.92996C39.5825 6.92996 39.1306 7.10996 38.6788 7.55996C38.3173 8.00996 38.0462 8.45996 38.0462 9.08996C38.0462 9.71996 38.2269 10.26 38.6788 10.62C39.1306 11.07 39.5825 11.25 40.2151 11.25C40.7573 11.25 41.2091 11.07 41.5706 10.8C41.9321 10.53 42.1128 10.08 42.2032 9.53996H40.2151V8.90996H42.8358C42.8358 8.90996 42.8358 9.08996 42.8358 9.17996Z" fill="white" stroke="white" stroke-width="0.2" stroke-miterlimit="10"/>
<path d="M46.993 6.2998V6.9298H44.553V8.63981H46.8123V9.2698H44.553V10.9798H46.993V11.6998H43.8301V6.2998H46.993Z" fill="white" stroke="white" stroke-width="0.2" stroke-miterlimit="10"/>
<path d="M49.9751 6.9298V11.6998H49.2521V6.9298H47.7158V6.2998H51.5114V6.9298H49.9751Z" fill="white" stroke="white" stroke-width="0.2" stroke-miterlimit="10"/>
<path d="M54.8553 11.6998H54.1323V6.2998H54.8553V11.6998Z" fill="white" stroke="white" stroke-width="0.2" stroke-miterlimit="10"/>
<path d="M57.9277 6.9298V11.6998H57.2048V6.9298H55.6685V6.2998H59.3736V6.9298H57.9277Z" fill="white" stroke="white" stroke-width="0.2" stroke-miterlimit="10"/>
<path d="M67.3261 8.99996C67.3261 9.80996 67.055 10.44 66.5128 10.98C65.9705 11.52 65.338 11.79 64.5246 11.79C63.7113 11.79 63.0787 11.52 62.5365 10.98C61.9943 10.44 61.7231 9.80996 61.7231 8.99996C61.7231 8.18996 61.9943 7.55996 62.5365 7.01996C63.0787 6.47996 63.7113 6.20996 64.5246 6.20996C65.338 6.20996 65.9705 6.47996 66.5128 7.01996C67.055 7.55996 67.3261 8.18996 67.3261 8.99996ZM62.4461 8.99996C62.4461 9.62996 62.6268 10.17 63.0787 10.53C63.4402 10.98 63.9824 11.16 64.5246 11.16C65.1572 11.16 65.6091 10.98 65.9706 10.53C66.332 10.17 66.6031 9.62996 66.6031 8.99996C66.6031 8.36996 66.4224 7.82996 65.9706 7.46996C65.6091 7.01996 65.0668 6.83996 64.5246 6.83996C63.892 6.83996 63.4402 7.01996 63.0787 7.46996C62.6268 7.82996 62.4461 8.36996 62.4461 8.99996Z" fill="white" stroke="white" stroke-width="0.2" stroke-miterlimit="10"/>
<path d="M68.9529 11.6998H68.23V6.2998H69.0433L71.6641 10.5298V9.4498V6.2998H72.387V11.6998H71.6641L68.8626 7.28981V8.3698L68.9529 11.6998Z" fill="white" stroke="white" stroke-width="0.2" stroke-miterlimit="10"/>
<path d="M61.5421 19.6201C59.3732 19.6201 57.6562 21.2401 57.6562 23.4901C57.6562 25.6501 59.3732 27.3601 61.5421 27.3601C63.711 27.3601 65.428 25.7401 65.428 23.4901C65.428 21.1501 63.711 19.6201 61.5421 19.6201ZM61.5421 25.7401C60.3673 25.7401 59.3732 24.7501 59.3732 23.4001C59.3732 22.0501 60.3673 21.0601 61.5421 21.0601C62.7169 21.0601 63.711 21.9601 63.711 23.4001C63.711 24.7501 62.7169 25.7401 61.5421 25.7401ZM53.1376 19.6201C50.9688 19.6201 49.2517 21.2401 49.2517 23.4901C49.2517 25.6501 50.9688 27.3601 53.1376 27.3601C55.3065 27.3601 57.0236 25.7401 57.0236 23.4901C57.0236 21.1501 55.3065 19.6201 53.1376 19.6201ZM53.1376 25.7401C51.9628 25.7401 50.9688 24.7501 50.9688 23.4001C50.9688 22.0501 51.9628 21.0601 53.1376 21.0601C54.3125 21.0601 55.3065 21.9601 55.3065 23.4001C55.3065 24.7501 54.3125 25.7401 53.1376 25.7401ZM43.1065 20.7901V22.4101H46.9925C46.9021 23.3101 46.5406 24.0301 46.0888 24.4801C45.5465 25.0201 44.6428 25.6501 43.1065 25.6501C40.6665 25.6501 38.8591 23.7601 38.8591 21.3301C38.8591 18.9001 40.7569 17.0101 43.1065 17.0101C44.3717 17.0101 45.3658 17.5501 46.0888 18.1801L47.2636 17.0101C46.2695 16.1101 45.0043 15.3901 43.1969 15.3901C39.9436 15.3901 37.1421 18.0901 37.1421 21.3301C37.1421 24.5701 39.9436 27.2701 43.1969 27.2701C45.0043 27.2701 46.2695 26.7301 47.3539 25.5601C48.4384 24.4801 48.7999 22.9501 48.7999 21.7801C48.7999 21.4201 48.7999 21.0601 48.7095 20.7901H43.1065ZM84.1347 22.0501C83.7732 21.1501 82.8695 19.6201 80.8814 19.6201C78.8932 19.6201 77.2665 21.1501 77.2665 23.4901C77.2665 25.6501 78.8932 27.3601 81.0621 27.3601C82.7791 27.3601 83.8636 26.2801 84.2251 25.6501L82.9599 24.7501C82.508 25.3801 81.9658 25.8301 81.0621 25.8301C80.1584 25.8301 79.6162 25.4701 79.1643 24.6601L84.3154 22.5001L84.1347 22.0501ZM78.8932 23.3101C78.8932 21.8701 80.068 21.0601 80.8814 21.0601C81.5139 21.0601 82.1465 21.4201 82.3273 21.8701L78.8932 23.3101ZM74.6458 27.0001H76.3628V15.7501H74.6458V27.0001ZM71.9347 20.4301C71.4828 19.9801 70.7599 19.5301 69.8562 19.5301C67.9584 19.5301 66.151 21.2401 66.151 23.4001C66.151 25.5601 67.868 27.1801 69.8562 27.1801C70.7599 27.1801 71.4828 26.7301 71.8443 26.2801H71.9347V26.8201C71.9347 28.2601 71.1214 29.0701 69.8562 29.0701C68.8621 29.0701 68.1391 28.3501 67.9584 27.7201L66.5125 28.3501C66.9643 29.3401 68.0488 30.6001 69.9465 30.6001C71.9347 30.6001 73.5614 29.4301 73.5614 26.6401V19.8001H71.9347V20.4301ZM69.9465 25.7401C68.7717 25.7401 67.7776 24.7501 67.7776 23.4001C67.7776 22.0501 68.7717 21.0601 69.9465 21.0601C71.1214 21.0601 72.0251 22.0501 72.0251 23.4001C72.0251 24.7501 71.1214 25.7401 69.9465 25.7401ZM91.9969 15.7501H87.9302V27.0001H89.6473V22.7701H91.9969C93.8947 22.7701 95.7021 21.4201 95.7021 19.2601C95.7021 17.1001 93.8947 15.7501 91.9969 15.7501ZM92.0873 21.1501H89.6473V17.2801H92.0873C93.3525 17.2801 94.0754 18.3601 94.0754 19.1701C93.9851 20.1601 93.2621 21.1501 92.0873 21.1501ZM102.48 19.5301C101.215 19.5301 99.9495 20.0701 99.4976 21.2401L101.034 21.8701C101.395 21.2401 101.938 21.0601 102.57 21.0601C103.474 21.0601 104.287 21.6001 104.378 22.5001V22.5901C104.107 22.4101 103.384 22.1401 102.661 22.1401C101.034 22.1401 99.4073 23.0401 99.4073 24.6601C99.4073 26.1901 100.763 27.1801 102.209 27.1801C103.384 27.1801 103.926 26.6401 104.378 26.1001H104.468V27.0001H106.095V22.6801C105.914 20.7001 104.378 19.5301 102.48 19.5301ZM102.299 25.7401C101.757 25.7401 100.944 25.4701 100.944 24.7501C100.944 23.8501 101.938 23.5801 102.751 23.5801C103.474 23.5801 103.835 23.7601 104.287 23.9401C104.107 25.0201 103.203 25.7401 102.299 25.7401ZM111.788 19.8001L109.89 24.6601H109.8L107.812 19.8001H106.004L108.987 26.6401L107.269 30.4201H108.987L113.595 19.8001H111.788ZM96.6058 27.0001H98.3228V15.7501H96.6058V27.0001Z" fill="white"/>
<path d="M18.7067 17.46L9.12744 27.63C9.39855 28.71 10.3926 29.52 11.6578 29.52C12.1097 29.52 12.5615 29.43 13.0134 29.16L23.8578 22.95L18.7067 17.46Z" fill="#EA4335"/>
<path d="M28.4666 15.7498L23.7674 13.0498L18.5259 17.7298L23.7674 22.9498L28.3762 20.2498C29.1896 19.7998 29.7318 18.9898 29.7318 17.9998C29.8222 17.0098 29.28 16.1998 28.4666 15.7498Z" fill="#FBBC04"/>
<path d="M9.12748 8.37012C9.03711 8.55012 9.03711 8.82012 9.03711 9.00012V27.0001C9.03711 27.2701 9.03711 27.4501 9.12748 27.6301L19.0682 17.7301L9.12748 8.37012Z" fill="#4285F4"/>
<path d="M18.7971 18L23.7675 13.05L12.923 6.83998C12.5616 6.56998 12.1097 6.47998 11.5675 6.47998C10.3927 6.47998 9.30822 7.28998 9.03711 8.36998L18.7971 18Z" fill="#34A853"/>
</svg>
