<svg width="44" height="60" viewBox="0 0 44 60" fill="none" xmlns="http://www.w3.org/2000/svg">
<path d="M27.5864 0H25.2461V10.2871C25.9702 10.7192 26.8177 11.2162 27.5864 11.6651V0Z" fill="url(#paint0_linear_401_8759)"/>
<path d="M43.58 53.047C42.6836 52.2534 40.9986 52.5108 39.9012 52.55C38.3537 52.5987 36.6124 52.6384 35.7313 51.1243C34.6259 49.218 35.2571 45.9408 35.558 43.8979C36.258 39.0748 33.5926 38.233 29.1739 38.233C24.7541 38.233 23.142 35.9258 23.142 35.9258C21.8109 40.3318 25.0807 42.7359 28.0113 45.6519C29.5551 47.19 29.27 49.1687 27.8953 50.6597C27.2079 51.3963 26.3106 51.7647 25.3055 51.7008C24.1754 51.6286 22.9734 51.0521 21.896 51.6684C20.766 52.3171 19.9778 54.0802 21.707 54.504C23.3232 54.8969 24.9847 54.6489 26.6204 54.6567C27.417 54.6651 29.008 54.7038 28.4015 55.9625C27.7903 57.2202 25.044 57.1799 24.9312 58.6302C24.7868 60.4728 34.457 59.9203 35.6065 59.9276C36.9691 59.9349 38.4377 59.9517 39.7364 59.4709C41.5212 58.7981 40.5246 57.26 39.0643 56.683C37.2553 55.9616 37.2795 54.031 39.4187 54.031C40.3802 54.0227 41.36 54.3994 42.3383 54.4239C43.1659 54.4485 44.758 54.0959 43.5802 53.047L43.58 53.047Z" fill="url(#paint1_linear_401_8759)"/>
<path d="M15.311 7.66016C15.0695 7.66016 14.8285 7.66748 14.5869 7.69259V8.86187C15.1335 8.49356 15.7889 8.11688 16.545 7.75695C16.1427 7.69992 15.729 7.66016 15.311 7.66016L15.311 7.66016Z" fill="url(#paint2_linear_401_8759)"/>
<path d="M20.1068 9.13432L19.8011 8.94964C19.6158 8.82879 19.4231 8.71787 19.2298 8.62109C17.7905 9.1406 16.2268 9.93424 14.5869 11.0722V12.7782C14.683 12.2267 16.7457 10.3757 20.1067 9.13432H20.1068Z" fill="url(#paint3_linear_401_8759)"/>
<path d="M17.4172 7.92383C16.513 8.30051 15.5678 8.78914 14.5869 9.39023V10.616C15.4271 9.91078 16.8022 9.0371 18.5834 8.32459C18.2043 8.16398 17.8183 8.01959 17.4171 7.92384L17.4172 7.92383Z" fill="url(#paint4_linear_401_8759)"/>
<path d="M12.2961 29.3644C13.8725 29.3644 15.1499 27.9858 15.1499 26.2876C15.1499 25.0372 14.4584 23.9642 13.4654 23.4834L13.4649 0H11.1293V23.4834C10.1363 23.9641 9.44531 25.0372 9.44531 26.2876C9.44531 27.9858 10.7224 29.3644 12.2961 29.3644H12.2961Z" fill="url(#paint5_linear_401_8759)"/>
<path d="M26.6698 48.5607C27.0673 48.5607 27.4653 48.5366 27.8639 48.4885C28.0119 47.8795 27.9321 47.1502 27.2211 46.4455C26.9833 46.2132 26.7501 45.9888 26.5091 45.7565C25.2105 45.7324 23.9955 45.3798 22.971 44.6584C19.0559 41.8862 19.3247 34.804 23.5702 28.8506C27.8161 22.8896 34.4344 20.3104 38.3503 23.0737C42.267 25.846 41.9976 32.9207 37.7516 38.8816C37.3536 39.4424 36.9272 39.964 36.4883 40.4605C36.8185 41.4383 36.8784 42.6242 36.6694 44.0582L36.6332 44.29C37.8677 43.2003 39.0219 41.9342 40.039 40.5002C42.4072 37.1755 43.7825 33.4098 43.9153 29.8835C44.0607 25.9902 42.6251 22.6727 39.9707 20.7977C39.5848 20.5256 39.1741 20.2844 38.7488 20.0767L35.0931 17.9297C32.8052 17.7858 28.1655 18.1704 22.9869 22.4567C22.9869 21.7039 27.3416 17.8015 33.963 17.2653L33.2951 16.8724C30.8109 16.8891 26.6404 17.6095 22.049 21.3832C22.0527 20.6544 26.1138 17.0326 32.3336 16.3122L31.5817 15.8711C29.0533 16.0234 25.261 16.9368 21.116 20.318C21.1207 19.6128 24.8915 16.2405 30.7253 15.3673L29.9297 14.9032C27.4282 15.1674 23.9552 16.185 20.1792 19.2461C20.1865 18.5728 23.6884 15.4395 29.1447 14.4465L28.325 13.9574C25.8927 14.3262 22.7001 15.3998 19.2466 18.1715C19.2586 17.5228 22.4948 14.6223 27.5941 13.5242L26.745 13.0278C24.4052 13.4756 21.4705 14.5816 18.314 17.1053C18.3224 16.4806 21.3181 13.7963 26.0619 12.6265L25.1971 12.1217C22.9659 12.6349 20.2643 13.7482 17.3762 16.0312C17.3882 15.4379 20.1424 12.9623 24.5448 11.7361L23.6768 11.2312C21.5654 11.7842 19.0849 12.8818 16.4435 14.9645C16.4551 14.388 18.9803 12.1122 23.0493 10.8629L22.1729 10.3418C20.1855 10.9435 17.9154 12.0081 15.5062 13.891C15.522 13.3464 17.8262 11.2631 21.5738 9.98867L20.6974 9.47545C18.8469 10.0928 16.777 11.1182 14.5858 12.8086V22.8638C15.627 23.6323 16.2703 24.9151 16.2703 26.2848C16.2703 28.6003 14.4891 30.4753 12.2942 30.4753C10.1019 30.4753 8.32073 28.6003 8.32073 26.2848C8.32073 24.9147 8.96451 23.6328 10.0052 22.8638V9.02075C7.57668 10.2465 5.2772 12.2419 3.44673 14.8053C1.34794 17.7529 0.125474 21.0948 0.0094648 24.2271C-0.103431 27.1516 0.797643 29.6993 2.49795 31.4295L2.50268 31.4378C2.81196 31.7423 3.14539 32.0384 3.50825 32.2869C3.56391 32.3356 3.6285 32.367 3.68889 32.4078L20.4034 46.1557C20.6979 46.4361 21.0099 46.6925 21.3443 46.9337C22.8535 47.9994 24.6945 48.5603 26.6693 48.5603L26.6698 48.5607Z" fill="url(#paint6_linear_401_8759)"/>
<defs>
<linearGradient id="paint0_linear_401_8759" x1="26.1062" y1="-4.26558" x2="29.3166" y2="-3.98274" gradientUnits="userSpaceOnUse">
<stop stop-color="#BD2F2F"/>
<stop offset="1" stop-color="#FF4848"/>
</linearGradient>
<linearGradient id="paint1_linear_401_8759" x1="29.2626" y1="27.1226" x2="56.5449" y2="38.7181" gradientUnits="userSpaceOnUse">
<stop stop-color="#BD2F2F"/>
<stop offset="1" stop-color="#FF4848"/>
</linearGradient>
<linearGradient id="paint2_linear_401_8759" x1="15.3065" y1="7.22072" x2="17.0968" y2="8.50169" gradientUnits="userSpaceOnUse">
<stop stop-color="#BD2F2F"/>
<stop offset="1" stop-color="#FF4848"/>
</linearGradient>
<linearGradient id="paint3_linear_401_8759" x1="16.6156" y1="7.10097" x2="22.3102" y2="10.4214" gradientUnits="userSpaceOnUse">
<stop stop-color="#BD2F2F"/>
<stop offset="1" stop-color="#FF4848"/>
</linearGradient>
<linearGradient id="paint4_linear_401_8759" x1="16.0557" y1="6.93938" x2="19.9329" y2="9.46683" gradientUnits="userSpaceOnUse">
<stop stop-color="#BD2F2F"/>
<stop offset="1" stop-color="#FF4848"/>
</linearGradient>
<linearGradient id="paint5_linear_401_8759" x1="11.5419" y1="-10.7377" x2="19.371" y2="-10.0698" gradientUnits="userSpaceOnUse">
<stop stop-color="#BD2F2F"/>
<stop offset="1" stop-color="#FF4848"/>
</linearGradient>
<linearGradient id="paint6_linear_401_8759" x1="16.1435" y1="-5.43787" x2="65.1934" y2="18.4904" gradientUnits="userSpaceOnUse">
<stop stop-color="#BD2F2F"/>
<stop offset="1" stop-color="#FF4848"/>
</linearGradient>
</defs>
</svg>
