<svg width="71" height="60" viewBox="0 0 71 60" fill="none" xmlns="http://www.w3.org/2000/svg">
<path d="M26.8523 55.8721L0 44.9385V49.0689L26.8523 59.9998V55.8721Z" fill="url(#paint0_linear_401_8757)"/>
<path d="M27.9238 55.7284V59.8582L71.0003 16.8711V12.6943L27.9238 55.7284Z" fill="url(#paint1_linear_401_8757)"/>
<path d="M54.3414 27.347L35.2291 8.25088L34.0957 9.38475L53.48 28.7502L70.9989 11.2485L43.4892 0L36.1674 7.3157L54.3414 27.347Z" fill="url(#paint2_linear_401_8757)"/>
<path d="M43.5991 38.6195L48.8418 33.382L29.4575 14.0166L24.2148 19.2541L43.5991 38.6195Z" fill="url(#paint3_linear_401_8757)"/>
<path d="M15.5735 30.2512L33.7748 48.4338L35.8649 46.3452L16.4806 26.9814L0 43.4452L27.5097 54.693L32.8827 49.3262L15.5735 30.2512Z" fill="url(#paint4_linear_401_8757)"/>
<defs>
<linearGradient id="paint0_linear_401_8757" x1="9.8688" y1="39.431" x2="32.8832" y2="57.4491" gradientUnits="userSpaceOnUse">
<stop stop-color="#BD2F2F"/>
<stop offset="1" stop-color="#FF4848"/>
</linearGradient>
<linearGradient id="paint1_linear_401_8757" x1="43.7554" y1="-4.55212" x2="95.0531" y2="16.0221" gradientUnits="userSpaceOnUse">
<stop stop-color="#BD2F2F"/>
<stop offset="1" stop-color="#FF4848"/>
</linearGradient>
<linearGradient id="paint2_linear_401_8757" x1="47.6584" y1="-10.5131" x2="86.3736" y2="11.309" gradientUnits="userSpaceOnUse">
<stop stop-color="#BD2F2F"/>
<stop offset="1" stop-color="#FF4848"/>
</linearGradient>
<linearGradient id="paint3_linear_401_8757" x1="33.2658" y1="5.02003" x2="61.7976" y2="17.5615" gradientUnits="userSpaceOnUse">
<stop stop-color="#BD2F2F"/>
<stop offset="1" stop-color="#FF4848"/>
</linearGradient>
<linearGradient id="paint4_linear_401_8757" x1="13.1811" y1="16.8481" x2="50.6566" y2="38.1466" gradientUnits="userSpaceOnUse">
<stop stop-color="#BD2F2F"/>
<stop offset="1" stop-color="#FF4848"/>
</linearGradient>
</defs>
</svg>
