<svg width="100" height="60" viewBox="0 0 100 60" fill="none" xmlns="http://www.w3.org/2000/svg">
<path fill-rule="evenodd" clip-rule="evenodd" d="M6.6018 58.8209L1.67032 51.7851L0 46.9901L3.60354 45.3349L3.30143 44.0151L5.27497 43.1163L6.14835 41.3211L3.60356 37.9234L4.51826 34.7657L2.99819 33.5196L3.30142 31.9157H4.51823L5.27491 28.7827L4.51823 26.1153L6.6017 22.6309L8.97109 22.1233L9.27487 20.5039L11.9999 19.423L12.8867 16.9073L15.0434 13.6346L16.416 12.3154L16.5668 10.7542L18.2566 10.2466L19.5979 12.3155L19.9994 14.5353V15.727H18.5329L16.7181 15.4911L16.416 19.4231L18.2566 20.5039L19.5979 19.4231H21.5184L23.521 16.0524L24.7143 16.9073L23.521 19.423L26.407 18.4307H28.5681L31.6886 20.5038L32.7485 19.1067L35.7646 22.1232V18.4307L38.9214 16.0523L39.8897 18.4307L42.5719 17.9231L44.1249 16.5692L46.4714 16.9072L47.0974 15.2079L50.1643 13.8034L52.4818 14.142L54.2051 11.9779L56.4892 12.9912L59.1623 12.8229V15.5454H61.9237L63.6067 16.0524L64.8152 14.3111H67.1175L68.379 16.9073L70.1079 15.7151L72.7973 14.3111L73.6964 12.1464L77.0553 10.5852L79.1305 10.9226L81.3609 9.13852H82.8541L83.3075 9.90922L84.9952 8.79992L86.7508 6.79495L89.1861 3.75373L94.7592 1.82118L96.4987 1.31358L97.5742 0H99.6979L99.3947 1.82115L100 3.58414L97.5741 3.75375L96.3478 5.45794V7.66481L99.3946 9.13871L97.5741 12.3156V16.9076L94.9104 19.107V22.1235L96.4985 24.7538L98.4223 28.7831V36.7852L93.8957 31.0426L92.5588 27.1V18.4311L90.5339 19.4234L89.1859 23.5807L90.2301 26.1156L89.034 27.0999H86.7505L83.3072 31.0425L81.3606 39.5628L83.3072 41.3215L83.7618 39.5628H86.7505L88.2671 40.6455L91.5569 45.3353L89.8865 46.3146L91.8601 51.447L89.7905 46.652L88.2671 46.3146L89.0339 48.8508L87.6623 60H84.9947L83.7617 57.7827L84.9947 56.4078L84.6915 51.1095L82.8538 53.2489L79.7356 50.9393L77.6598 51.1095L75.1721 46.6519L72.4945 45.9759L71.0777 48.8508V53.249L67.1174 54.0017L63.6065 56.4079L59.1619 54.0017L57.7317 55.2787L54.2047 51.7856L53.3648 55.7857L48.6466 54.5093L44.1244 56.4077L41.3842 53.2488L38.921 53.0798L36.6018 46.3145L34.2313 46.9905L31.6882 43.509H25.5443L23.5206 48.8506L18.2563 46.9905L16.4157 44.0155L11.6975 44.5231L10.622 48.8508V51.447L7.47307 53.0801L6.6018 58.8209Z" fill="url(#paint0_linear_401_8758)"/>
<defs>
<linearGradient id="paint0_linear_401_8758" x1="36.7521" y1="-21.9403" x2="126.773" y2="43.9447" gradientUnits="userSpaceOnUse">
<stop stop-color="#BD2F2F"/>
<stop offset="1" stop-color="#FF4848"/>
</linearGradient>
</defs>
</svg>
