<?xml version="1.0" standalone="no"?>
<!DOCTYPE svg PUBLIC "-//W3C//DTD SVG 1.1//EN" "http://www.w3.org/Graphics/SVG/1.1/DTD/svg11.dtd">
<svg xmlns="http://www.w3.org/2000/svg">
<metadata>Copyright (C) 2023 by original authors @ fontello.com</metadata>
<defs>
<font id="fontello" horiz-adv-x="1000" >
<font-face font-family="fontello" font-weight="400" font-stretch="normal" units-per-em="1000" ascent="850" descent="-150" />
<missing-glyph horiz-adv-x="1000" />
<glyph glyph-name="air" unicode="&#xe800;" d="M477 316c62-42 123-71 181-85 55-14 106-15 153-4 63 14 108 50 142 100 9 14 9 32 0 46-16 24-33 47-52 67-2-33-10-55-19-69-18-32-50-54-90-64-34-7-72-6-114 4-49 12-101 37-155 73-62 42-123 71-181 85-55 14-106 15-153 4-63-14-108-50-142-100-9-14-9-32 0-46 16-24 33-47 52-67 2 33 10 55 18 69 19 32 51 54 91 64 34 7 72 6 114-4 49-12 101-37 155-73z m90 133c80-54 156-78 207-66 19 4 34 14 41 26 7 12 10 33 7 57 0 2 0 3 0 4-16-5-39-9-68-9-12 0-22 1-29 2-22 4-60 17-113 53-64 42-127 74-190 95-59-9-115-27-167-53 34 0 69-4 106-14 67-16 136-49 205-95l1 0z m-134-198c-80 54-156 78-207 66-19-4-34-14-41-26-7-12-10-33-7-57 0-2 0-3 0-4 16 5 39 9 68 9 12 0 22-1 29-2 22-4 60-17 113-53 64-42 127-74 190-95 59 9 115 27 167 53-34 0-69 4-106 14-67 16-136 49-205 95l-1 0z" horiz-adv-x="1000" />

<glyph glyph-name="appfacebook" unicode="&#xe801;" d="M620 670h-240c-110 0-200-90-200-200v-240c0-110 90-200 200-200h240c110 0 200 90 200 200v240c0 110-90 200-200 200z m120-440c0-66-54-120-120-120h-80v180h70l20 80h-90v40c0 21 5 40 40 40h40v80h-40c-73 0-120-47-120-120v-40h-80v-80h80v-180h-80c-66 0-120 54-120 120v240c0 66 54 120 120 120h240c66 0 120-54 120-120v-240z" horiz-adv-x="1000" />

<glyph glyph-name="appinstagram" unicode="&#xe802;" d="M620 30h-240c-110 0-200 90-200 200v240c0 110 90 200 200 200h240c110 0 200-90 200-200v-240c0-110-90-200-200-200z m-240 560c-66 0-120-54-120-120v-240c0-66 54-120 120-120h240c66 0 120 54 120 120v240c0 66-54 120-120 120h-240z m120-400c-88 0-160 72-160 160 0 88 72 160 160 160 88 0 160-72 160-160 0-88-72-160-160-160z m0 240c-44 0-80-36-80-80 0-44 36-80 80-80 44 0 80 36 80 80 0 44-36 80-80 80z m160 40c22 0 40 18 40 40 0 22-18 40-40 40-22 0-40-18-40-40 0-22 18-40 40-40z" horiz-adv-x="1000" />

<glyph glyph-name="applinkedin" unicode="&#xe803;" d="M360 450c22 0 40 18 40 40 0 22-18 40-40 40-22 0-40-18-40-40 0-22 18-40 40-40z m260 220h-240c-110 0-200-90-200-200v-240c0-110 90-200 200-200h240c110 0 200 90 200 200v240c0 110-90 200-200 200z m120-440c0-66-54-120-120-120h-240c-66 0-120 54-120 120v240c0 66 54 120 120 120h240c66 0 120-54 120-120v-240z m-140 200c-60 0-80-60-80-60v60h-80v-240h80v140c0 0 0 40 40 40 40 0 40-40 40-40v-140h80v140c0 40-20 100-80 100z m-200 0h-80v-240h80v240z" horiz-adv-x="1000" />

<glyph glyph-name="apptwitter" unicode="&#xe804;" d="M639 464c-15 16-36 26-59 26-44 0-80-36-80-79-3 0-7-1-10-1-48 0-92 20-123 53-4-14-7-28-7-43 0-59 39-108 92-124-29-28-68-46-112-46 0 0 0 0 0 0 33-26 75-41 121-41 110 0 199 89 199 199h0c0 0 0 1 0 2 0 7-1 13-3 20 7 6 13 12 19 20 2 2 3 6 2 9-3 16-22 12-39 5z m-19 206h-240c-110 0-200-90-200-200v-240c0-110 90-200 200-200h240c110 0 200 90 200 200v240c0 110-90 200-200 200z m120-440c0-66-54-120-120-120h-240c-66 0-120 54-120 120v240c0 66 54 120 120 120h240c66 0 120-54 120-120v-240z" horiz-adv-x="1000" />

<glyph glyph-name="appyoutube" unicode="&#xe805;" d="M620 30h-240c-110 0-200 90-200 200v240c0 110 90 200 200 200h240c110 0 200-90 200-200v-240c0-110-90-200-200-200z m-240 560c-66 0-120-54-120-120v-240c0-66 54-120 120-120h240c66 0 120 54 120 120v240c0 66-54 120-120 120h-240z m240-120h-240c-33 0-60-27-60-60v-120c0-33 27-60 60-60h240c33 0 60 27 60 60v120c0 33-27 60-60 60z m-160-180v120l100-60-100-60z" horiz-adv-x="1000" />

<glyph glyph-name="aqua" unicode="&#xe806;" d="M523 723c0 0-1 1-1 1-13 8-31 8-44 0 0 0-1-1-1-1-18-12-36-25-52-39 26-13 51-28 75-46 115-87 184-222 184-368 0-101-82-184-184-184-102 0-184 82-184 184h0c0 84 22 162 61 229 74-49 123-133 123-229 0-30-3-58-8-83h8c46 0 83 37 83 83 0 154-97 286-233 337-75-95-117-213-117-337h0c0-147 120-266 267-266 147 0 267 119 267 266 0 183-92 352-244 453v0z" horiz-adv-x="1000" />

<glyph glyph-name="arrow---down" unicode="&#xe808;" d="M647 470c-31-74-81-139-147-188-66 49-116 114-147 188h-89c39-110 113-207 213-273 7-5 15-7 23-7 8 0 16 2 23 7 101 66 175 163 213 273h-88-1z" horiz-adv-x="1000" />

<glyph glyph-name="arrow---forward" unicode="&#xe809;" d="M380 586v-89c74-31 139-81 188-147-49-66-114-116-188-147v-89c110 39 207 113 273 213 9 14 9 32 0 46-66 101-163 174-273 213z" horiz-adv-x="1000" />

<glyph glyph-name="arrow---back" unicode="&#xe80a;" d="M620 203c-73 31-138 82-188 147 49 66 114 116 188 147v89c-110-39-206-112-273-213-9-14-9-32 0-46 67-100 163-174 273-213v89z" horiz-adv-x="1000" />

<glyph glyph-name="arrow---up" unicode="&#xe80b;" d="M523 503c-14 9-32 9-46 0-100-66-174-163-213-273h89c31 74 81 139 147 188 66-49 116-114 147-188h89c-39 110-113 207-213 273h0z" horiz-adv-x="1000" />

<glyph glyph-name="arrowlong-down" unicode="&#xe80c;" d="M628 267c-22-42-51-79-86-112 1 32 2 64 3 97-2 140 1 280-29 418-4 16-28 16-31 0-22-92-25-185-28-279-1-78-2-157 1-236-34 33-63 71-86 112l-59-59c41-67 97-126 165-171 2-1 3-2 5-2 5-3 11-5 18-5 6 0 12 2 18 5 1 0 2 1 4 2 68 45 124 104 165 171l-59 59-1 0z" horiz-adv-x="1000" />

<glyph glyph-name="attachment" unicode="&#xe80d;" d="M570 560c-72 0-130-58-130-130 0 0 2-101 3-143 1-48 10-109 50-143 10-10 27-2 27 12v274c0 28 22 50 50 50 28 0 50-22 50-50v-260c0-66-54-120-120-120-66 0-120 54-120 120v360c0 66 54 120 120 120 31 0 58-12 80-30 44-3 84-20 115-47-19 89-99 157-195 157-110 0-200-90-200-200v-360c0-110 90-200 200-200 110 0 200 90 200 200v260c0 72-59 130-130 130h0z" horiz-adv-x="1000" />

<glyph glyph-name="blog" unicode="&#xe80e;" d="M892 638c-38-36-75-73-112-110v102c0 22-18 40-40 40h-480c-22 0-40-18-40-40v-560c0-22 18-40 40-40h480c22 0 40 18 40 40v230l-80-80v-110h-400v480h400v-143c-60-61-121-120-162-198-7-13 8-28 21-21 81 42 141 105 204 168 63 61 124 123 185 186 36 38-19 92-56 56v0z" horiz-adv-x="1000" />

<glyph glyph-name="cloud" unicode="&#xe80f;" d="M879 288c-10 147-196 221-295 105-20-24-32-54-34-83 0-6 3-11 8-14 7-4 16-2 21 5 50 99 204 89 220-21 8-57-42-111-99-110h-420c-44 0-80 36-80 80 0 44 36 80 80 80h49l1 38c5 91 79 162 170 162 33 0 64-10 90-26 29 14 61 23 94 25-46 50-112 81-184 81-121 0-223-86-245-202-77-12-135-79-135-158 0-88 72-160 160-160h420c0 0 0 0 0 0 103-2 191 95 179 197v1z" horiz-adv-x="1000" />

<glyph glyph-name="bottle" unicode="&#xe810;" d="M752 421l-28 83c-3 8-4 17-4 25v121c0 55-45 100-100 100h-80c-55 0-100-45-100-100v-117l-122-74c-48-29-78-81-78-137v-292c0-22 18-40 40-40h440c22 0 40 18 40 40v341c0 17-3 34-8 50z m-212 249h80c11 0 20-9 20-20v-20h-120v20c0 11 9 20 20 20z m140-600h-360v252c0 28 15 54 39 69l142 85c12 7 19 20 19 34v40h120v-21c0-17 3-34 8-50l28-83c3-9 4-17 4-26v-300 0z m-161 314l-80-48c-24-15-39-41-39-69v-57c0-22 18-40 40-40 22 0 40 18 40 40v57l81 49c19 11 25 36 13 54-11 19-36 25-54 14h-1z" horiz-adv-x="1000" />

<glyph glyph-name="bulb" unicode="&#xe811;" d="M640 150h-280c-22 0-40 18-40 40 0 27-9 53-26 71-47 51-73 117-74 186-1 150 119 277 269 283 77 3 150-25 205-78 56-53 86-125 86-202 0-70-26-137-74-189-17-18-26-44-26-71 0-22-18-40-40-40z m-244 80h208c7 32 21 61 43 85 34 37 53 85 53 135 0 55-22 106-61 144-40 38-92 58-147 56-107-4-193-95-192-202 0-49 19-96 53-133 21-24 36-53 43-85h0z m244-240h-280c-22 0-40 18-40 40 0 22 18 40 40 40h280c22 0 40-18 40-40 0-22-18-40-40-40z m-91 471c-8 58-69 74-122 58-7-2-15 3-17 11-1 3 0 7 2 10 12 21 34 37 58 45 50 15 109-6 137-50 24-33 39-110-19-112-22 0-37 18-39 38z" horiz-adv-x="1000" />

<glyph glyph-name="camera" unicode="&#xe812;" d="M820 90h-640c-22 0-40 18-40 40v400c0 22 18 40 40 40h134l52 81c8 12 20 19 34 19h200c14 0 26-7 34-19l52-81h134c22 0 40-18 40-40v-400c0-22-18-40-40-40z m-600 80h560v320h-116c-14 0-27 7-34 19l-52 81h-156l-52-81c-7-12-20-19-34-19h-116v-320z m280 50c-74 0-135 61-135 135 0 74 61 135 135 135 74 0 135-61 135-135 0-74-61-135-135-135z m0 190c-30 0-55-25-55-55 0-30 25-55 55-55 30 0 55 25 55 55 0 30-25 55-55 55z" horiz-adv-x="1000" />

<glyph glyph-name="check_border" unicode="&#xe813;" d="M853-3h-706v706h706c0-48 0-234 0-262 0-44 102 52 117 130 0 87 2 154 1 191 0 11-4 22-10 31-4 6-8 11-14 15 0 0-1 1-1 1-2 1-3 2-5 3-11 7-25 11-38 8h-815c-33 0-59-26-59-59v-823c0-33 26-59 59-59h823c33 0 59 26 59 59v633c-32-33-72-77-117-130v-444 0z" horiz-adv-x="1000" />

<glyph glyph-name="check_ok" unicode="&#xe814;" d="M824-3h-706v706h625c-116-123-222-255-312-399-46 40-98 72-154 94-23 9-41-21-24-37 52-59 94-129 142-189l55-66c124 227 287 434 473 613 0 0 0 0 0 0 2 2 4 4 5 6 19 22 17 49 4 68-4 6-8 11-14 15 0 0-1 1-1 1-2 1-3 2-5 3-11 7-25 11-38 8h-815c-32 0-59-26-59-58v-824c0-32 27-59 59-59h823c33 0 59 27 59 59v633c-32-33-72-77-117-130v-444 0z" horiz-adv-x="971" />

<glyph glyph-name="droplet" unicode="&#xe815;" d="M575 684c0 0 0 0 0 0-16 14-34 27-52 39 0 0-1 0-1 0-7 5-14 7-22 7-8 0-16-2-22-7-1 0-1 0-1 0-19-12-36-25-53-39 0 0 1 0 1 0-121-103-192-253-192-414 0-147 120-267 267-267 147 0 267 120 267 267 0 161-71 311-192 414h0z m-75-598c-101 0-184 82-184 184 0 145 68 281 184 368 115-87 183-223 183-368 0-101-82-184-183-184h0z" horiz-adv-x="1000" />

<glyph glyph-name="cloudlocal" unicode="&#xe816;" d="M734 447c-35 97-128 163-234 163-121 0-223-86-245-202-77-12-135-78-135-158 0-88 72-160 160-160h420c99 0 180 81 180 180 0 88-62 161-146 177z m-34-277h-420c-44 0-80 36-80 80 0 44 36 80 80 80h49l1 38c5 91 79 162 170 162 79 0 146-53 165-130l7-29 31-1c54-1 97-45 97-100 0-54-45-100-100-100v0z m-148 258l-52-52-52 52c-38 37-93-19-56-56l51-52-51-52c-37-38 18-93 56-57l52 52 52-52c38-36 93 19 56 57 0 0-23 23-51 52l51 52c37 37-18 93-56 56z" horiz-adv-x="1000" />

<glyph glyph-name="co2" unicode="&#xe817;" d="M230 570c28 0 50 22 50 50 0 28-22 50-50 50-28 0-50-22-50-50 0-28 22-50 50-50z m540-540c28 0 50 22 50 50 0 28-22 50-50 50-28 0-50-22-50-50 0-28 22-50 50-50z m-550 0c22 0 40 18 40 40 0 22-18 40-40 40-22 0-40-18-40-40 0-22 18-40 40-40z m560 560c22 0 40 18 40 40 0 22-18 40-40 40-22 0-40-18-40-40 0-22 18-40 40-40z m-85-49c-19 75-86 129-165 129-90 0-165-71-170-160h0c-99 0-180-81-180-180 0-79 52-148 125-171 19-75 86-129 165-129 90 0 165 71 170 160h0c99 0 180 81 180 180 0 79-52 148-125 171z m-55-271c-11 0-22 2-33 6-14 4-30 1-40-9-11-11-15-26-11-41 3-8 4-17 4-26 0-50-41-90-90-90-50 0-87 37-90 84-1 19-15 35-34 37-49 7-86 50-86 99 0 55 45 100 100 100 11 0 22-2 32-6 15-4 30-1 41 9 11 11 15 26 11 41-3 8-4 17-4 26 0 50 40 90 90 90 50 0 87-37 90-84 1-19 15-35 34-37 49-7 86-50 86-99 0-55-45-100-100-100z" horiz-adv-x="1000" />

<glyph glyph-name="cold" unicode="&#xe818;" d="M762 301l-66-18-116 67 116 67 66-18c4-1 7-1 11-1 17 0 33 12 38 30 6 21-7 43-28 49l-43 11 11 44c6 21-7 43-28 49-21 5-43-7-49-29l-18-66-116-67v135l48 48c16 15 16 41 0 56-15 16-41 16-56 0l-32-31-32 31c-15 16-41 16-56 0-16-15-16-41 0-56l48-48v-135l-116 67-18 66c-6 22-28 34-49 29-21-6-34-28-28-49l11-44-43-11c-21-6-34-28-28-49 5-18 21-30 38-30 4 0 7 0 11 1l66 18 116-67-116-67-66 18c-22 5-43-7-49-29-6-21 7-43 28-49l43-11-11-44c-6-21 7-43 28-49 3-1 7-1 10-1 18 0 34 12 39 30l18 66 116 67v-135l-48-48c-16-15-16-41 0-56 7-8 18-12 28-12 10 0 20 4 28 12l32 31 32-31c7-8 18-12 28-12 10 0 20 4 28 12 16 15 16 41 0 56l-48 48v135l116-67 18-66c4-18 21-30 38-30 4 0 7 0 11 1 21 6 34 28 28 49l-12 44 44 11c21 6 34 28 28 49-6 22-28 34-49 29h0z" horiz-adv-x="1000" />

<glyph glyph-name="config" unicode="&#xe819;" d="M600 450c-22 0-40-18-40-40v-20h-340c-22 0-40-18-40-40 0-22 18-40 40-40h340v-20c0-22 18-40 40-40 22 0 40 18 40 40v120c0 22-18 40-40 40z m180-60h-60v-80h60c22 0 40 18 40 40 0 22-18 40-40 40z m-460-160c-22 0-40-18-40-40v-20h-60c-22 0-40-18-40-40 0-22 18-40 40-40h60v-20c0-22 18-40 40-40 22 0 40 18 40 40v120c0 22-18 40-40 40z m460-60h-340v-80h340c22 0 40 18 40 40 0 22-18 40-40 40z m-320 500c-22 0-40-18-40-40v-20h-200c-22 0-40-18-40-40 0-22 18-40 40-40h200v-20c0-22 18-40 40-40 22 0 40 18 40 40v120c0 22-18 40-40 40z m320-60h-200v-80h200c22 0 40 18 40 40 0 22-18 40-40 40z" horiz-adv-x="1000" />

<glyph glyph-name="cross" unicode="&#xe81a;" d="M748 158l-192 192c63 65 127 129 189 195 31 33-17 81-50 50-66-62-130-126-195-189l-192 192c-15 16-41 16-56 0-16-15-16-41 0-56l191-192c-64-64-128-128-191-192-36-38 19-92 56-56 64 63 128 127 192 191l192-191c38-37 93 19 56 56z" horiz-adv-x="1000" />

<glyph glyph-name="dash" unicode="&#xe81b;" d="M700 310h-400c-22 0-40 18-40 40 0 22 18 40 40 40h400c22 0 40-18 40-40 0-22-18-40-40-40z" horiz-adv-x="1000" />

<glyph glyph-name="devices" unicode="&#xe81c;" d="M780 670c0 0 0 0 0 0h-426c-22 0-40-18-40-40v-126h-94c-22 0-40-18-40-40v-394c0-22 18-40 40-40h260c22 0 40 18 40 40v394c0 22-18 40-40 40h-86v86h346v-273c-47-2-94-11-140-25-14-4-14-26 0-30 58-18 119-28 180-25 2 0 4 1 5 1 18 2 34 15 35 39v353c-1 27-21 40-40 40z m-340-560h-180v314h180v-314z" horiz-adv-x="1000" />

<glyph glyph-name="drainage" unicode="&#xe81e;" d="M660 470c0 110-72 200-160 200h-320v-80h192c-20-33-32-75-32-120 0-45 12-87 32-120h-192v-80h380c11 0 20-9 20-20v-20c-228 0-400-86-400-200h80c0 49 125 120 320 120v-120h80v220c0 55-45 100-100 100h-60c-29 0-55 24-69 60h129c99 0 180-81 180-180v-200h80v200c0 108-66 201-160 240z m-100 20h-139c7 56 40 100 79 100 39 0 73-45 79-101-6 0-13 1-19 1z" horiz-adv-x="1000" />

<glyph glyph-name="folder" unicode="&#xe81f;" d="M816 559c0 0 0 0 0 0-77 36-168 41-250 16l-75 65c-7 6-16 10-26 10h-265c0 0 0 0 0-1-20 0-39-13-40-39v-480c0-22 18-40 40-40h600c22 0 40 18 40 40v392c0 17-10 31-24 37v0z m-330-20c-24-14-46-32-65-53-10-11 4-30 17-22 84 46 171 56 262 40 21-4 41-8 60-12v-322h-520v400h210l36-31h0z" horiz-adv-x="1000" />

<glyph glyph-name="droplettick" unicode="&#xe820;" d="M788 599c-16 15-42 14-57-2-80-86-155-177-219-278-30 27-66 49-104 64-14 5-27-13-17-24 8-11 18-22 26-33 35-47 70-99 109-142 70 130 160 250 264 358 15 17 14 42-2 57z m-33-217c-24-29-48-61-72-95 0-5 1-11 1-17 0-101-82-184-184-184-102 0-184 83-184 184 0 146 68 281 184 368 32-24 61-53 85-84 19 23 38 44 56 64-34 40-73 76-119 105 0 0 0 1 0 1-14 8-31 8-45 0 0 0 0 0 0-1-19-12-36-25-53-39 0 0 0 0 1 0-121-102-192-253-192-413 0-148 120-267 267-267 147 0 266 119 266 267 0 38-4 75-11 111l0 0z" horiz-adv-x="1000" />

<glyph glyph-name="ec" unicode="&#xe821;" d="M277 210v264h198v-44h-143v-66h113v-42h-113v-68h149v-44h-204z m468 73c-5-17-13-31-24-43-11-11-24-20-39-26-15-5-31-8-49-8-26 0-49 6-68 16-19 11-34 27-44 47-10 21-15 45-15 73 0 28 5 53 15 73 10 20 25 36 44 47 19 11 41 16 67 16 18 0 34-2 49-8 15-4 27-12 37-22 11-10 18-23 23-38l-50-22c-4 16-11 28-21 34-9 7-21 11-36 11-14 0-27-4-38-11-10-6-19-17-24-30-6-14-9-30-9-50 0-19 2-36 8-50 5-13 13-23 24-30 11-7 24-11 39-11 15 0 27 4 38 12 10 8 18 19 22 35l51-15z" horiz-adv-x="1000" />

<glyph glyph-name="edit" unicode="&#xe822;" d="M808 518l-140 140c-15 16-41 16-56 0l-400-400c-6-5-9-12-11-19l-40-180c-3-14 1-28 11-37 7-8 18-12 28-12 3 0 6 0 9 1l180 40c7 1 14 5 19 11l400 400c16 15 16 41 0 56z m-448-392l-107-23 23 107 244 243 83-83-243-244z m300 300l-84 84 64 63 83-83-63-64z" horiz-adv-x="1000" />

<glyph glyph-name="export" unicode="&#xe823;" d="M660 290v-180h-400v400h180v80h-220c-22 0-40-18-40-40v-480c0-22 18-40 40-40h480c22 0 40 18 40 40v220h-80z m150 338c-3 16-15 29-32 32-87 18-175 14-258-9v-87c50 17 103 25 157 24-15-13-29-27-44-42-94-96-191-188-264-305-9-14 8-31 22-22 79 48 144 109 209 170 47 45 94 91 138 138 1-54-7-107-24-157h87c23 82 27 171 9 258v0z" horiz-adv-x="1000" />

<glyph glyph-name="farms" unicode="&#xe824;" d="M954 372c0 0-1 1-1 1-101 153-270 244-453 244-183 0-352-91-453-244-9-14-9-32 0-46 101-153 270-244 453-244 124 0 242 42 337 117-51 136-183 233-337 233-98 0-166-54-205-99-11-13 3-31 19-24 42 19 106 40 186 40 96 0 180-49 229-123-67-39-145-61-229-61-146 0-281 68-368 184 87 116 222 184 368 184 146 0 281-68 368-184 18-23 33-49 46-75 14 16 27 34 39 52 0 0 1 1 1 1 8 13 8 31 0 44h0z" horiz-adv-x="1000" />

<glyph glyph-name="filter" unicode="&#xe825;" d="M420-10c-8 0-16 2-23 7-11 8-17 20-17 33v269l-194 310c-8 12-8 28-1 40 7 13 20 21 35 21h560c15 0 28-8 35-21 7-12 7-28-1-40l-194-310v-209c0-17-10-32-26-37l-160-60c-5-2-9-3-14-3z m-128 600l162-259c4-6 6-13 6-21v-222l80 30v192c0 8 2 15 6 21l162 259h-416z" horiz-adv-x="1000" />

<glyph glyph-name="fingerprint" unicode="&#xe826;" d="M774 535c-11 19-36 25-55 14-19-12-25-36-13-55 22-38 34-80 34-124v-180c0-22 18-40 40-40 22 0 40 18 40 40v180c0 58-16 115-46 165h0z m-554-125c-22 0-40-18-40-40v-180c0-22 18-40 40-40 22 0 40 18 40 40v180c0 22-18 40-40 40z m420-140c-22 0-40-18-40-40v-140c0-22 18-40 40-40 22 0 40 18 40 40v140c0 22-18 40-40 40z m-140 280c-99 0-180-81-180-180v-280c0-22 18-40 40-40 22 0 40 18 40 40v280c0 55 45 100 100 100 55 0 100-45 100-100v-20c0-22 18-40 40-40 22 0 40 18 40 40v20c0 99-81 180-180 180z m0-380c-22 0-40-18-40-40v-80c0-22 18-40 40-40 22 0 40 18 40 40v80c0 22-18 40-40 40z m0 240c-22 0-40-18-40-40v-120c0-22 18-40 40-40 22 0 40 18 40 40v120c0 22-18 40-40 40z m165 234c-50 30-107 46-165 46-123 0-236-72-289-183-10-20-1-44 19-53 5-3 11-4 17-4 15 0 29 8 36 23 40 83 125 137 217 137 44 0 87-12 124-34 6-4 13-6 20-6 14 0 27 7 35 19 11 19 5 44-14 55v0z" horiz-adv-x="1000" />

<glyph glyph-name="flask" unicode="&#xe827;" d="M747 298c-49 23-101 7-151 5-45-4-90-9-134-18-17-3-17-27 0-30 44-9 89-14 134-18 33-6 88-1 114-15 58-27 37-111-25-112-29 0-372 0-372 0-34-1-61 30-60 63 0 27 26 48 41 68l137 164c6 7 9 16 9 26v159h120v-160c0-9 3-18 9-25l28-35h103l-60 74v146h20c22 0 40 18 40 40 0 22-18 40-40 40h-320c-22 0-40-18-40-40 0-22 18-40 40-40h20v-145c-33-40-143-172-145-174-63-64-53-173 26-221 34-24 85-20 125-20 69 0 249 0 321 0 0 0 1 0 1 0 145 4 190 202 59 267l0 1z" horiz-adv-x="1000" />

<glyph glyph-name="flaskleaf" unicode="&#xe828;" d="M458 491v-61c0-23 18-41 41-41 23 0 42 18 42 41v59c38 33 60 80 60 131 0 58-29 112-78 145-7 4-15 6-23 6-8 0-16-2-23-6-49-33-78-87-78-145 0-50 22-97 59-129z m42 183c11-16 18-34 18-54 0-19-7-38-18-53-11 15-18 34-18 53 0 20 7 39 18 54z m245-465c-8 14-48 83-65 112v69c22 0 40 18 40 40 0 22-18 40-40 40h-40v0c-20 0-39-13-40-40v-117c-47-1-94-10-140-28-13-5-13-25 0-30 59-23 120-32 182-27 15-25 29-51 34-58 12-21 1-50-22-57-8-4-33-2-42-3-56 0-168 0-224 0-22 0-50-4-63 20-7 13-7 27 0 40l14 23 56 97c3 6 5 13 5 20v120c0 27-20 40-40 40v0h-40c-22 0-40-18-40-40 0-22 18-40 40-40v-69c-8-15-50-87-50-87-11-19-26-42-29-64-13-71 48-142 120-140h28c69 0 182 0 251 0 90-3 152 102 106 179l-1 0z" horiz-adv-x="1000" />

<glyph glyph-name="wifi" unicode="&#xe829;" d="M153 495l52-61c83 60 185 96 295 96 110 0 212-36 295-96l52 61c-97 72-217 115-347 115-130 0-250-43-347-115z m92-107l52-61c58 40 128 63 203 63 75 0 145-23 203-63l52 61c-72 52-160 82-255 82-95 0-183-30-255-82z m91-107l53-61c32 19 70 30 111 30 40 0 78-11 111-30l52 61c-47 31-103 49-163 49-61 0-117-18-164-49h0z m99-115l65-76 65 76c-18 15-40 24-65 24-25 0-47-9-65-24z" horiz-adv-x="1000" />

<glyph glyph-name="graph" unicode="&#xe82a;" d="M780 190c0 40 0 80-2 120-4 41-11 81-23 120-2 5-5 9-10 10-9 3-18-2-20-10-25-78-26-159-25-240v-60c1-53 79-53 80 0v60 0z m-185 360c-3 15-27 16-30 0-25-106-26-212-25-320v-100c1-53 78-53 80 0v100c0 108 0 214-25 320z m-160 60c-3 16-27 16-30 0-25-119-26-239-25-360v-120c1-53 79-53 80 0v120c1 121 0 241-25 360z m-135-395c-1 46-7 92-25 135-2 4-5 7-9 9-8 3-18-1-21-9-24-57-26-119-25-180 0-5 0-40 0-40 1-53 79-53 80 0 0 0 0 51-1 85h1z" horiz-adv-x="1000" />

<glyph glyph-name="heart" unicode="&#xe82b;" d="M795 605c-77 80-210 85-295 18-88 68-214 62-295-18-86-87-86-228 0-315 0 0 0 0 0-1l267-259c8-7 18-11 28-11 10 0 20 4 27 11l267 259c86 83 86 233 0 316h1z m-295-491l-238 232c-56 56-56 146 0 202 51 51 130 55 186 14-17-36-22-78-9-115 2-4 5-7 9-9 8-4 18 1 21 9 16 41 39 71 67 101 138 129 331-63 202-202l-238-232h0z" horiz-adv-x="1000" />

<glyph glyph-name="home" unicode="&#xe82c;" d="M808 418l-280 280c-15 16-41 16-56 0l-280-280c-8-7-12-17-12-28v-300c0-22 18-40 40-40h377c20 0 36 15 39 34 0 1 0 1 0 1 14 71 4 147-28 212-16 32-39 60-66 84-27 23-58 41-92 50-6 1-11 0-15-5-6-6-6-16 0-21 79-74 132-169 126-275h-301v244l240 240c60-61 199-199 240-240v-324h40c22 0 40 18 40 40v298c1 10-3 21-12 30l0 0z" horiz-adv-x="1000" />

<glyph glyph-name="humidity" unicode="&#xe82d;" d="M220 30c-7 0-13 2-19 5-20 11-27 35-16 54l59 107c19 34 20 76 2 112l-24 49c-30 59-28 128 4 186l59 106c11 20 35 27 54 16 19-11 26-35 16-54l-59-107c-19-34-20-76-3-112l25-49c30-59 28-128-4-186l-59-106c-7-14-21-21-35-21z m230 0c-7 0-13 2-19 5-20 11-27 35-16 54l59 107c19 34 20 76 2 112l-24 49c-30 59-28 128 4 186l59 106c11 20 35 27 54 16 19-11 26-35 16-54l-59-107c-19-34-20-76-3-112l25-49c30-59 28-128-4-186l-59-106c-7-14-21-21-35-21z m230 0c-7 0-13 2-19 5-20 11-27 35-16 54l59 107c19 34 20 76 2 112l-24 49c-30 59-28 128 4 186l59 106c11 20 35 27 54 16 19-11 26-35 16-54l-59-107c-19-34-20-76-3-112l25-49c30-59 28-128-4-186l-59-106c-7-14-21-21-35-21z" horiz-adv-x="1000" />

<glyph glyph-name="ignis" unicode="&#xe82e;" d="M716 128l40-80c10-20 2-44-18-54-20-10-44-2-54 18l-40 80c-22 48 47 82 72 36h0z m-360-36l-40-80c-25-46-94-12-72 36l40 80c25 47 94 12 72-36z m184 18v-100c0-22-18-40-40-40-22 0-40 18-40 40v100c1 53 79 53 80 0z m140 317c-79-46-182-5-218 73-8 14 12 30 24 19 31-26 69-46 108-41 34 4 66 22 83 51 12 21 12 46 0 67-13 21-34 34-58 34h-238c-24 0-46-13-58-34-12-21-12-46 0-67l119-205c12-21 33-34 58-34 24 0 46 13 58 34l15 26h92l-38-66c-27-46-74-74-128-74-53 0-100 27-127 74l-119 205c-26 46-26 101 0 147 27 46 74 74 128 74h237c54 0 101-27 128-74 14-24 20-51 20-77 0-22-7-86-86-132h0z" horiz-adv-x="1000" />

<glyph glyph-name="ignismounting" unicode="&#xe82f;" d="M746 396c-26 46-74 74-127 74h-59v60c0 17-9 28-20 35v125c-1 53-79 53-80 0v-125c-11-6-20-18-20-35v-60h-59c-53 0-101-27-127-74-27-46-27-101 0-147l119-205c26-46 74-74 127-74 53 0 101 27 127 74l39 66h-93l-15-26c-12-21-34-34-58-34-24 0-46 13-58 34l-119 205c-12 21-12 46 0 67 13 21 34 34 58 34h238c24 0 46-13 58-34 12-21 12-46 0-67-17-29-49-47-82-51-40-5-77 15-109 41-12 11-32-4-24-19 37-78 140-119 219-73 79 46 85 110 85 132 0 26-5 53-19 77h-1z" horiz-adv-x="1000" />

<glyph glyph-name="info" unicode="&#xe830;" d="M460 188c-3 75-1 149 24 220 4 16 28 16 32 0 25-71 27-145 24-220-1-22-20-39-42-38-21 1-37 18-38 39v-1z m40 260c-28 0-50 23-50 50 0 28 22 50 50 50 28 0 50-22 50-50 0-27-22-50-50-50z m0-438c-187 0-340 153-340 340 0 187 153 340 340 340 187 0 340-153 340-340 0-187-153-340-340-340z m0 600c-143 0-260-117-260-260 0-143 117-260 260-260 143 0 260 117 260 260 0 143-117 260-260 260z" horiz-adv-x="1000" />

<glyph glyph-name="input" unicode="&#xe831;" d="M820 530v-460c0-22-18-40-40-40h-560c-22 0-40 18-40 40v460c0 22 18 40 40 40h160v-80h-120v-380h480v380h-120v80h160c22 0 40-18 40-40z m-518-164c41-75 101-140 175-189 14-9 32-9 46 0 74 49 134 114 175 189l-61 62c-24-49-57-94-97-132v414h-80v-414c-40 38-73 83-97 132l-61-62z" horiz-adv-x="1000" />

<glyph glyph-name="larger" unicode="&#xe832;" d="M806 310h-86c13-44 19-91 19-138-57 63-119 124-198 159-70 6 48-130 64-146 23-26 47-50 72-73-46-1-92 5-137 18v-86c42-10 85-16 129-16 36 0 73 4 109 11 17 4 30 17 33 34 16 80 14 160-5 237h0z m-612 80h86c-13 44-19 91-18 138 57-63 118-124 197-159 70-6-48 130-64 146-23 26-47 50-72 73 47 1 93-5 137-18v86c-42 10-85 16-129 16-36 0-72-4-109-11-16-4-30-17-33-34-16-80-14-160 5-237h0z" horiz-adv-x="1000" />

<glyph glyph-name="lightingangled" unicode="&#xe833;" d="M780 470c-68 0-143 4-210-9-23-4-47-9-70-16-5-1-9-5-11-11-2-8 3-17 11-19 56-17 114-23 173-25l-239-208 42 91c6 13 5 27-2 39-8 11-20 18-34 18h-157l142 300h230l-40-80h90l51 102c6 13 5 27-2 39-7 12-20 19-34 19h-320c-15 0-30-9-36-23l-180-380c-6-12-5-27 2-38 8-12 20-19 34-19h157l-93-203c-8-17-3-37 12-49 7-5 16-8 24-8 9 0 19 4 26 10l460 401c22 22 14 68-26 69v0z" horiz-adv-x="1000" />

<glyph glyph-name="lightingstraight" unicode="&#xe834;" d="M835 489c-7 13-20 21-35 21h-140v-80h64l-224-330v130c0 22-18 40-40 40h-184l226 333c2-78 9-172 23-233 3-16 27-16 30 0 28 117 26 241 25 360 0 0 0 20-18 33-17 13-43 8-55-10l-340-501c-8-12-9-28-2-41 7-13 20-21 35-21h220v-220c0-18 12-33 28-38 4-1 8-2 12-2 13 0 26 6 33 18l340 500c9 12 9 28 2 41z" horiz-adv-x="1000" />

<glyph glyph-name="lock" unicode="&#xe836;" d="M720 450h-40v80c0 99-81 180-180 180-99 0-180-81-180-180v-80h-40c-22 0-40-18-40-40v-380c0-22 18-40 40-40h440c22 0 40 18 40 40v380c0 22-18 40-40 40z m-320 80c0 55 45 100 100 100 55 0 100-45 100-100v-80h-200v80z m280-460h-360v300h360v-300z m-180 240c-39 0-70-31-70-70 0-24 12-45 30-57v-33c0-22 18-40 40-40 22 0 40 18 40 40v33c18 12 30 33 30 57 0 39-31 70-70 70z" horiz-adv-x="1000" />

<glyph glyph-name="manual" unicode="&#xe837;" d="M520 230h160c22 0 40 18 40 40 0 22-18 40-40 40h-160c-22 0-40-18-40-40 0-22 18-40 40-40z m-228 12c8-8 18-12 28-12 10 0 20 4 28 12l80 80c16 15 16 41 0 56l-80 80c-15 16-41 16-56 0-16-15-16-41 0-56l51-52-51-52c-16-15-16-41 0-56l0 0z m528 368h-640c-22 0-40-18-40-40v-440c0-22 18-40 40-40h640c22 0 40 18 40 40v440c0 22-18 40-40 40z m-40-440h-560v360h560v-360z" horiz-adv-x="1000" />

<glyph glyph-name="notifications" unicode="&#xe838;" d="M780 170h-560v360h502l-220-214c-23 23-48 45-74 66-36 29-72 58-110 86-13 10-31-7-22-21 55-75 106-153 175-216 16-16 41-17 57-1l320 312c2 2 4 4 5 6 7 10 8 20 6 30 0 0 0 0 0 0 0 1 0 1-1 1-3 14-14 26-28 29-1 0-1 1-1 1-1 0-2 0-3 0-3 1-6 1-9 1h-637c-22 0-40-18-40-40v-440c0-22 18-40 40-40h640c11 0 20 4 26 10 1 0 2 1 2 1 1 1 2 2 3 3 1 1 2 3 3 5 0 0 0 0 0 0 4 6 6 13 6 21v311l-80-78v-193 0z" horiz-adv-x="1000" />

<glyph glyph-name="output" unicode="&#xe839;" d="M780 30h-560c-22 0-40 18-40 40v400c0 22 18 40 40 40h160v-80h-120v-320h480v320h-120v80h160c22 0 40-18 40-40v-400c0-22-18-40-40-40z m-82 584c-41 75-101 140-175 189-14 9-32 9-46 0-74-49-134-114-175-189l61-62c24 49 57 94 97 132v-414h80v414c40-38 73-83 97-132l61 62z" horiz-adv-x="1000" />

<glyph glyph-name="pause" unicode="&#xe83a;" d="M350 70v560c0 22 18 40 40 40 22 0 40-18 40-40v-560c0-22-18-40-40-40-22 0-40 18-40 40z m220 0v560c0 22 18 40 40 40 22 0 40-18 40-40v-560c0-22-18-40-40-40-22 0-40 18-40 40z" horiz-adv-x="1000" />

<glyph glyph-name="ph" unicode="&#xe83b;" d="M261 166v284h49l3-64-6 8c2 11 6 22 13 31 6 9 15 16 25 21 10 5 21 8 34 8 16 0 31-4 44-12 12-9 22-20 30-36 7-15 11-34 11-56 0-21-4-40-11-56-8-15-18-27-31-36-13-8-28-12-44-12-18 0-32 5-44 15-12 10-20 22-24 37l5 8v-140h-54z m101 122c14 0 26 5 34 16 9 10 13 26 13 46 0 20-4 36-12 46-8 11-20 16-34 16-10 0-18-2-25-8-7-4-13-11-17-21-4-9-6-20-6-33 0-13 2-24 6-33 4-9 9-17 16-22 7-5 15-7 25-7z m372 226v-264h-55v264h55z m-172 0v-264h-55v264h55z m145-108v-45h-172v45h172z" horiz-adv-x="1000" />

<glyph glyph-name="pin" unicode="&#xe83c;" d="M500 530c39 0 70-31 70-70 0-39-31-70-70-70-39 0-70 31-70 70 0 39 31 70 70 70z m1-460c0 0 0 0 0 0-127 94-202 242-202 399 0 111 90 201 201 201 111 0 201-90 201-201 0-130-50-253-139-345 23-16 47-29 72-40 94 105 147 241 147 385 0 155-126 281-281 281-155 0-281-126-281-281 0-193 97-374 259-482 7-4 15-7 23-7 7 0 15 2 22 7 17 12 34 24 50 38-25 13-50 27-72 44v1z m-1 433c31 0 57-25 57-56 0-32-26-57-57-57-31 0-57 25-57 57 0 31 26 56 57 56z" horiz-adv-x="1000" />

<glyph glyph-name="play" unicode="&#xe83d;" d="M340 30c-6 0-12 1-18 4-13 7-22 21-22 36v560c0 15 8 29 22 36 13 7 30 5 42-4l380-280c10-7 16-19 16-32 0-13-6-24-16-32l-380-280c-7-5-16-8-24-8v0z m40 521v-402l273 201-273 201z" horiz-adv-x="1000" />

<glyph glyph-name="plus" unicode="&#xe83e;" d="M780 386c-80 2-160 3-240 3v241c-1 53-79 53-80 0v-240c-80 0-160 0-240 0-52-2-52-78 0-80 80-1 160-1 240 0v-240c1-53 79-53 80 0v240c80 1 160 2 240 4 46 2 46 69 0 71v1z" horiz-adv-x="1000" />

<glyph glyph-name="power" unicode="&#xe83f;" d="M620 646v-89c72-41 120-119 120-207 0-133-108-240-240-240-132 0-240 107-240 240 0 88 48 166 120 207v89c-117-47-200-162-200-296 0-176 144-320 320-320 176 0 320 144 320 320 0 134-83 249-200 296z m-120-216c-22 0-40 18-40 40v240c0 22 18 40 40 40 22 0 40-18 40-40v-240c0-22-18-40-40-40z" horiz-adv-x="1000" />

<glyph glyph-name="profile" unicode="&#xe840;" d="M500 429c-77 0-140 63-140 140 0 77 63 140 140 140 77 0 140-63 140-140 0-77-63-140-140-140z m0 200c-33 0-60-27-60-60 0-33 27-60 60-60 33 0 60 27 60 60 0 33-27 60-60 60z m337-491c7-15 2-35-13-45-93-66-206-103-324-103-118 0-231 37-325 103-14 11-19 30-12 46 7 15 17 34 29 50 13-11 26-21 40-30 78-53 171-83 268-83 86 0 167 23 237 63-51 77-138 127-237 127-83 0-149-21-193-41-16-8-31 12-19 25 41 46 111 102 212 102 80 0 153-25 214-67 52-38 95-88 123-147z" horiz-adv-x="1000" />

<glyph glyph-name="qr-code" unicode="&#xe841;" d="M440 330h-220c-22 0-40-18-40-40v-220c0-22 18-40 40-40h220c22 0 40 18 40 40v220c0 22-18 40-40 40z m-40-220h-140v140h140v-140z m40 560h-220c-22 0-40-18-40-40v-220c0-22 18-40 40-40h220c22 0 40 18 40 40v220c0 22-18 40-40 40z m-40-220h-140v140h140v-140z m220-120h-60c-22 0-40-18-40-40v-20c0-22 18-40 40-40h60c22 0 40 18 40 40v20c0 22-18 40-40 40z m160 0h-60c-22 0-40-18-40-40v-140h-60v20c0 22-18 40-40 40h-20c-22 0-40-18-40-40v-100c0-22 18-40 40-40h20c22 0 40 18 40 40h100c0-22 18-40 40-40h20c22 0 40 18 40 40v40c0 22-18 40-40 40h-20v60h20c22 0 40 18 40 40v40c0 22-18 40-40 40z m0 340h-220c-22 0-40-18-40-40v-220c0-22 18-40 40-40h220c22 0 40 18 40 40v220c0 22-18 40-40 40z m-40-220h-140v140h140v-140z m-49 100h-42c-5 0-9-4-9-9v-42c0-5 4-9 9-9h42c5 0 9 4 9 9v42c0 5-4 9-9 9z m-340-340h-42c-5 0-9-4-9-9v-42c0-5 4-9 9-9h42c5 0 9 4 9 9v42c0 5-4 9-9 9z m0 340h-42c-5 0-9-4-9-9v-42c0-5 4-9 9-9h42c5 0 9 4 9 9v42c0 5-4 9-9 9z" horiz-adv-x="1000" />

<glyph glyph-name="question" unicode="&#xe842;" d="M506 550c26 0 50-4 71-12 21-7 37-19 49-34 12-15 18-34 18-56 0-22-5-41-14-56-10-15-23-26-39-34-16-7-34-12-54-15l-4-53h-71l0 86c24 2 43 6 58 12 14 5 25 12 31 20 6 9 10 19 10 30 0 15-5 26-15 34-10 9-25 13-45 13-20 0-35-6-47-17-12-11-19-27-22-48l-74 29c5 19 13 37 25 52 13 16 29 28 49 36 20 9 45 13 74 13z m-6-540c-187 0-340 153-340 340 0 187 153 340 340 340 187 0 340-153 340-340 0-187-153-340-340-340z m0 600c-143 0-260-117-260-260 0-143 117-260 260-260 143 0 260 117 260 260 0 143-117 260-260 260z m0-360c28 0 50-22 50-50 0-28-22-50-50-50-28 0-50 22-50 50 0 28 22 50 50 50z" horiz-adv-x="1000" />

<glyph glyph-name="refresh" unicode="&#xe843;" d="M739 350c0-133-107-240-239-240-132 0-240 107-240 240 0 132 108 239 240 239 73 0 139-33 183-85-50-4-100 1-147 14v-85c38-9 77-13 117-13 37 0 74 4 111 11 13 3 24 13 29 25 1 2 1 4 2 7 16 76 14 153-2 227h-85c9-37 15-74 15-113-58 57-136 92-223 92-176 0-320-143-320-320 0-176 144-319 320-319 176 0 319 143 319 319h-80v1z" horiz-adv-x="1000" />

<glyph glyph-name="scope" unicode="&#xe844;" d="M820 390h-63c-18 111-106 199-217 217v63c0 22-18 40-40 40-22 0-40-18-40-40v-63c-111-18-199-106-217-217h-63c-22 0-40-18-40-40 0-22 18-40 40-40h63c18-111 106-199 217-217v-63c0-22 18-40 40-40 22 0 40 18 40 40v63c111 18 199 106 217 217h63c22 0 40 18 40 40 0 22-18 40-40 40z m-280-215v55c0 22-18 40-40 40-22 0-40-18-40-40v-55c-67 15-120 68-135 135h55c22 0 40 18 40 40 0 22-18 40-40 40h-55c15 67 68 120 135 135v-55c0-22 18-40 40-40 22 0 40 18 40 40v55c67-15 120-68 135-135h-55c-22 0-40-18-40-40 0-22 18-40 40-40h55c-15-67-68-120-135-135z" horiz-adv-x="1000" />

<glyph glyph-name="search" unicode="&#xe845;" d="M828 78l-144 144c82 110 74 266-26 366-109 109-287 109-396 0-109-109-109-287 0-396 55-55 126-82 198-82 59 0 118 19 167 56l145-144c7-8 18-12 28-12 10 0 20 4 28 12 16 15 16 41 0 56h0z m-227 170c-78-78-204-78-282 0-78 78-78 205 0 283 39 39 90 59 141 59 51 0 102-20 141-59 78-78 78-205 0-283z m-171 277c-24-7-46-24-58-44-2-4-3-7-2-11 2-8 10-13 17-11 53 16 114 1 122-57 3-21 17-38 39-39 59 2 44 80 19 112-29 44-87 66-137 50z" horiz-adv-x="1000" />

<glyph glyph-name="send" unicode="&#xe846;" d="M792 668c-18-4-619-145-619-145-3-1-6-2-9-3-1 0-1 0-1-1 0 0 0 0 0 0-14-6-22-19-23-34 0-1 0-1 0-2 0-1 0-1 0-2 0-7 3-15 8-21 0 0 0-1 1-1 1-2 2-3 3-4 2-2 3-3 5-4 1-1 1-1 1-1 22-14 77-50 98-63 109-83 264-71 332 54 8 14-11 30-23 20-73-58-156-70-237-26-8 6-26 18-47 31l452 106-210-439c-16 44-36 97-51 137-25-9-53-13-80-12l89-242c3-9 10-17 20-22 20-9 44-1 53 19l287 600c7 16 4 30-4 40-9 13-26 20-45 16v-1z" horiz-adv-x="1000" />

<glyph glyph-name="settings" unicode="&#xe847;" d="M854 385l-40 126c-5 14-17 25-32 27l-124 18-55 112c-7 13-21 22-36 22h-132c-15 0-29-9-35-22l-56-112-123-18c-15-2-28-13-32-27l-41-126c-5-14-1-30 10-41l90-87-22-123c-2-15 4-30 16-39l107-77c7-5 15-8 23-8 7 0 13 2 19 5l111 58 110-58c14-7 30-6 42 3l107 77c10 7 18 21 16 38-19 175-180 324-359 274-16-4-13-29 4-29 132-14 246-103 272-233l-67-48-107 57c-11 6-25 6-37 0l-107-57-66 48 20 120c2 13-2 26-12 35l-86 85 25 78 120 17c13 2 24 10 30 22l54 108h82l53-108c6-12 17-20 30-22l120-17 53-163 46 45c11 10 15 26 10 41l-1-1z" horiz-adv-x="1000" />

<glyph glyph-name="shield" unicode="&#xe848;" d="M720 650c-101 0-191 87-192 88-15 16-41 16-56 0-1-1-91-88-192-88-22 0-40-18-40-40v-338c0-77 37-150 99-195l137-100c7-5 15-7 24-7 8 0 16 2 23 7l138 100c62 45 99 118 99 195v338c0 22-18 40-40 40h0z m-40-378c0-51-25-100-66-130l-114-83-114 83c-41 30-66 79-66 130v301c79 12 144 56 180 84 36-28 101-72 180-84v-301z m-90-35c14 24 9 63 10 90v183c1 14-20 19-26 7l-4-7c-39-70-49-151-50-230v-103c0 0 1 0 2 1 24 18 54 31 68 59z" horiz-adv-x="1000" />

<glyph glyph-name="smaller" unicode="&#xe849;" d="M466 650h-86c13-44 19-90 19-136-58 62-121 120-198 157-74 8 58-140 74-156 20-22 40-43 61-63-46-1-92 5-136 18v-86c42-10 85-15 129-15 36 0 72 3 109 11 16 3 30 16 33 33 16 80 14 161-5 237l0 0z m257-463c-19 21-38 42-59 61 47 1 92-5 136-18v86c-77 19-157 21-237 4-17-3-30-16-34-33-16-80-14-161 5-237h86c-13 44-19 90-19 136 58-62 122-120 198-157 74-8-60 141-76 158h0z" horiz-adv-x="1000" />

<glyph glyph-name="sparkle" unicode="&#xe84a;" d="M500-10c-17 0-32 11-38 27l-58 164c-12 34-39 61-73 73l-164 58c-16 6-27 21-27 38 0 17 11 32 27 37l164 59c34 12 61 38 73 73l58 164c6 16 21 27 38 27 17 0 32-11 38-27l58-164c12-35 39-61 73-73l164-59c16-5 27-20 27-37 0-17-11-32-27-38l-164-58c-34-12-61-39-73-73l-58-164c-6-16-21-27-38-27z m-200 360l58-21c57-20 101-64 122-121l20-58 21 58c20 57 64 101 122 121l58 21-58 21c-58 20-102 64-122 121l-21 58-20-58c-21-57-65-101-122-121l-58-21z" horiz-adv-x="1000" />

<glyph glyph-name="sparkles" unicode="&#xe84b;" d="M540-10c-17 0-32 11-38 27l-48 134c-12 35-38 61-73 73l-134 48c-16 6-27 21-27 38 0 17 11 32 27 38l134 48c35 12 61 38 73 73l48 134c6 16 21 27 38 27 17 0 32-11 38-27l48-134c12-35 38-61 73-73l134-48c16-6 27-21 27-38 0-17-11-32-27-38l-134-48c-35-12-61-38-73-73l-48-134c-6-16-21-27-38-27z m-160 320l28-10c57-20 102-65 122-122l10-28 10 28c20 57 65 102 122 122l28 10-28 10c-57 20-102 65-122 122l-10 28-10-28c-20-57-65-102-122-122l-28-10z m-80 120c-17 0-32 11-38 27l-8 23c-4 11-13 20-24 24l-23 8c-16 6-27 21-27 38 0 17 11 32 27 38l23 8c11 4 20 13 24 25l8 23c6 16 21 26 38 26 17 0 32-10 38-26l8-23c4-12 13-21 25-25l23-8c16-6 26-21 26-38 0-17-10-32-26-38l-24-8c-11-4-20-13-24-24l-8-23c-6-16-21-27-38-27z" horiz-adv-x="1000" />

<glyph glyph-name="sun" unicode="&#xe84c;" d="M500 30c-22 0-40 18-40 40v40c0 22 18 40 40 40 22 0 40-18 40-40v-40c0-22-18-40-40-40z m-198 82c-10 0-20 4-28 12-16 15-16 41 0 56l28 29c16 15 41 15 57 0 15-16 15-41 0-57l-29-28c-7-8-18-12-28-12h0z m-42 198h-40c-22 0-40 18-40 40 0 22 18 40 40 40h40c22 0 40-18 40-40 0-22-18-40-40-40z m70 170c-10 0-20 4-28 12l-28 28c-16 15-16 41 0 56 15 16 41 16 56 0l29-28c15-15 15-41 0-56-8-8-18-12-29-12h0z m170 70c-22 0-40 18-40 40v40c0 22 18 40 40 40 22 0 40-18 40-40v-40c0-22-18-40-40-40z m170-70c-10 0-21 4-28 12-16 15-16 41 0 56l28 28c15 16 41 16 56 0 16-15 16-41 0-56l-28-28c-8-8-18-12-28-12h0z m110-170h-40c-22 0-40 18-40 40 0 22 18 40 40 40h40c22 0 40-18 40-40 0-22-18-40-40-40z m-82-198c-10 0-20 4-28 12l-28 28c-16 16-16 41 0 57 15 15 41 15 56 0l28-29c16-15 16-41 0-56-7-8-18-12-28-12h0z m-198 98c-77 0-140 63-140 140 0 77 63 140 140 140 77 0 140-63 140-140 0-77-63-140-140-140z m0 200c-33 0-60-27-60-60 0-33 27-60 60-60 33 0 60 27 60 60 0 33-27 60-60 60z" horiz-adv-x="1000" />

<glyph glyph-name="sunrise" unicode="&#xe84d;" d="M456 170c-10 11-16 25-16 40 0 33 27 60 60 60 33 0 60-27 60-60 0-15-6-29-16-40h90c4 13 6 26 6 40 0 77-63 140-140 140-77 0-140-63-140-140 0-14 2-27 6-40h90z m-196 0h-40c-22 0-40 18-40 40 0 22 18 40 40 40h40c22 0 40-18 40-40 0-22-18-40-40-40z m70 170c-10 0-20 4-28 12l-28 28c-16 15-16 41 0 56 15 16 41 16 56 0l29-28c15-15 15-41 0-56-8-8-18-12-29-12h0z m340 0c-10 0-21 4-28 12-16 15-16 41 0 56l28 28c15 16 41 16 56 0 16-15 16-41 0-56l-28-28c-8-8-18-12-28-12h0z m110-170h-40c-22 0-40 18-40 40 0 22 18 40 40 40h40c22 0 40-18 40-40 0-22-18-40-40-40z m0-140h-560c-22 0-40 18-40 40 0 22 18 40 40 40h560c22 0 40-18 40-40 0-22-18-40-40-40z m-257 672c-14 9-32 9-46 0-59-39-109-89-148-145l60-60c20 31 44 60 71 85v-132c1-53 79-53 80 0v132c27-25 51-54 71-85l60 60c-39 56-89 106-148 145z" horiz-adv-x="1000" />

<glyph glyph-name="tasks" unicode="&#xe84e;" d="M540 530h240c22 0 40 18 40 40 0 22-18 40-40 40h-240c-22 0-40-18-40-40 0-22 18-40 40-40z m-168 128l-92-92-32 32c-15 16-41 16-56 0-16-15-16-41 0-56l60-60c7-8 18-12 28-12 10 0 20 4 28 12l120 120c16 15 16 41 0 56-16 16-41 16-57 0h1z m408-268h-240c-22 0-40-18-40-40 0-22 18-40 40-40h240c22 0 40 18 40 40 0 22-18 40-40 40z m-408 48l-92-92-32 32c-15 16-41 16-56 0-16-15-16-41 0-56l60-60c7-8 18-12 28-12 10 0 20 4 28 12l120 120c16 15 16 41 0 56-16 16-41 16-57 0h1z m408-268h-240c-22 0-40-18-40-40 0-22 18-40 40-40h240c22 0 40 18 40 40 0 22-18 40-40 40z m-408 48l-92-92-32 32c-15 16-41 16-56 0-16-15-16-41 0-56l60-60c7-8 18-12 28-12 10 0 20 4 28 12l120 120c16 15 16 41 0 56-16 16-41 16-57 0h1z" horiz-adv-x="1000" />

<glyph glyph-name="testtube" unicode="&#xe84f;" d="M805 235c-12 12-44 48-55 61-15 18-45 18-60 0-12-13-43-49-55-61-47-47-47-123 0-170 24-23 54-35 85-35 31 0 61 12 85 35 47 47 47 123 0 170z m-57-113c-15-16-41-16-56 0-16 15-16 41 0 56 7 7 17 19 28 31 10-12 21-24 28-31 16-15 16-41 0-56h0z m-36 280c8-8 18-12 28-12 10 0 20 4 28 12 16 15 16 41 0 56l-220 220c-15 16-41 16-56 0-16-15-16-41 0-56l12-13-304-304c-53-54-53-141 0-195 27-27 62-40 97-40 36 0 71 13 98 40l304 304 13-12 0 0z m-192 28c17-18 34-26 51-30l-233-233c-22-22-59-22-81 0-22 22-22 59 0 81l304 305 82-82c-49 2-166 3-123-41l0 0z" horiz-adv-x="1000" />

<glyph glyph-name="thermometer" unicode="&#xe850;" d="M620 550c0 99-81 180-180 180-99 0-180-81-180-180v-233c-61-87-52-206 24-282 43-43 100-65 156-65 56 0 113 22 156 65 76 76 85 195 24 282v233z m-81-459c-55-55-143-55-198 0-51 51-55 131-10 187 6 7 9 16 9 25v247c0 55 45 100 100 100 55 0 100-45 100-100v-247c0-9 3-18 9-25 45-56 41-136-10-187z m221 299h-60c-22 0-40-18-40-40 0-22 18-40 40-40h60c53 1 53 79 0 80z m0 140h-60c-22 0-40-18-40-40 0-22 18-40 40-40h60c53 1 53 79 0 80z m-60 60h60c53 1 53 79 0 80h-60c-22 0-40-18-40-40 0-22 18-40 40-40z m-220-343v203c-1 53-79 53-80 0v-203c-18-12-30-33-30-57 0-39 31-70 70-70 39 0 70 31 70 70 0 24-12 45-30 57z" horiz-adv-x="1000" />

<glyph glyph-name="tick" unicode="&#xe851;" d="M746 551c-10 16-31 22-48 13-34-19-67-41-99-64-32-24-62-49-91-77-29-27-56-56-81-87-12-14-24-29-35-44l-103 72c-8 6-20 6-29 0-11-8-14-24-6-35l147-197c0 0 133 252 336 374 14 9 17 29 9 45l0 0z" horiz-adv-x="1000" />

<glyph glyph-name="tickbox" unicode="&#xe852;" d="M740 110h-480v480h425c-79-84-151-174-212-271-31 27-67 49-105 64-15 5-27-14-16-26 35-40 64-87 97-128l37-45c84 154 195 295 321 417 0 0 1 0 1 0 1 1 2 3 3 4 13 15 12 33 3 46-3 4-6 8-10 11 0 0 0 0-1 0-1 1-2 2-3 2-7 5-17 7-26 6h-554c-22 0-40-18-40-40v-560c0-22 18-40 40-40h560c22 0 40 18 40 40v430c-22-22-49-52-80-88v-302 0z" horiz-adv-x="1000" />

<glyph glyph-name="timer" unicode="&#xe853;" d="M472 322c-49 45-90 96-122 155-4 8 0 17 7 21 5 2 10 2 14 0 31-15 58-34 84-54 26-20 51-41 73-66 33-37-19-89-56-57v1z m48 368c250-11 402-296 274-511-77-136-252-203-400-152-229 69-320 399-117 546 14 10 31-7 21-21-111-161-74-382 121-449 221-72 420 165 310 370-42 78-125 132-214 137-52 5-48 82 5 80h0z" horiz-adv-x="1000" />

<glyph glyph-name="transfer" unicode="&#xe854;" d="M780 670h-560c-22 0-40-18-40-40v-560c0-22 18-40 40-40h160v80h-120v480h480v-480h-120v-80h160c22 0 40 18 40 40v560c0 22-18 40-40 40z m-257-165c-14 9-32 9-46 0-74-49-134-114-175-189l61-62c24 49 57 94 97 132v-356h80v356c40-38 73-83 97-132l61 62c-41 75-101 140-175 189z" horiz-adv-x="1000" />

<glyph glyph-name="usbc" unicode="&#xe855;" d="M660 150h-320c-110 0-200 90-200 200 0 110 90 200 200 200h320c110 0 200-90 200-200 0-110-90-200-200-200z m-320 320c-66 0-120-54-120-120 0-66 54-120 120-120h320c66 0 120 54 120 120 0 66-54 120-120 120h-320z m320-160h-320c-22 0-40 18-40 40 0 22 18 40 40 40h320c22 0 40-18 40-40 0-22-18-40-40-40z" horiz-adv-x="1000" />

<glyph glyph-name="warning" unicode="&#xe856;" d="M540 510c3-74 1-149-24-220-4-16-28-15-32 0-25 71-27 146-24 220 1 22 20 39 42 38 21-1 37-18 38-38v0z m-40-260c28 0 50-22 50-50 0-28-22-50-50-50-28 0-50 22-50 50 0 28 22 50 50 50z m0-240c-187 0-340 153-340 340 0 187 153 340 340 340 187 0 340-153 340-340 0-187-153-340-340-340z m0 600c-143 0-260-117-260-260 0-143 117-260 260-260 143 0 260 117 260 260 0 143-117 260-260 260z" horiz-adv-x="1000" />

<glyph glyph-name="moon" unicode="&#xe857;" d="M88 740l-25-43c-16 9-25 25-25 43 0 18 9 34 25 43l25-43z m0-780l-25-43c-16 9-25 25-25 43 0 18 9 34 25 44l25-44z m175 390c0 148-81 277-200 347l50 86c149-86 250-248 250-433h-100z m-200-346c119 69 200 198 200 346h100c0-185-101-347-250-433l-50 87z m50 0c58-35 127-54 200-54v-100c-91 0-177 24-250 67l50 87z m200-54c220 0 400 179 400 400h100c0-276-224-500-500-500v100z m400 400c0 221-180 400-400 400v100c276 0 500-224 500-500h-100z m-400 400c-73 0-142-19-200-53l-50 86c73 43 159 67 250 67v-100z" horiz-adv-x="850" />
</font>
</defs>
</svg>
