<svg width="135" height="28" viewBox="0 0 135 28" fill="none" xmlns="http://www.w3.org/2000/svg">
<path d="M14.9436 1.43454C12.998 3.40371 12.6 4.17034 12.5263 6.10945C12.4673 7.5976 12.3936 7.53748 13.6907 7.22181C15.5037 6.78588 16.3881 5.83887 16.7714 3.89976C16.963 2.93772 16.8745 0.262051 16.624 0.0065093C16.5503 -0.0686502 15.8722 0.517593 14.9436 1.43454Z" fill="#20E4A4"/>
<path d="M0.019814 0.848797C-0.0233132 0.933547 0.00543825 1.3573 0.0916927 1.8093C0.738601 5.00157 1.78803 6.68245 3.98752 7.98196C4.93632 8.56108 7.00642 9.49334 7.10705 9.39446C7.13581 9.36621 6.94892 9.06959 6.66141 8.73058C6.38827 8.39158 5.97137 7.79833 5.72698 7.41695C5.28134 6.69657 4.72068 5.01569 4.87881 4.86032C5.0082 4.73319 6.93455 5.34057 7.92647 5.82082C8.40087 6.06095 9.32092 6.5977 9.9822 7.00733C10.6291 7.43108 11.2041 7.77008 11.2473 7.77008C11.276 7.77008 11.0748 7.40283 10.7872 6.95083C8.63088 3.64556 6.31639 1.99293 2.66495 1.15955C0.939861 0.764047 0.13482 0.665171 0.019814 0.848797Z" fill="#20E4A4"/>
<path d="M13.4854 9.38978C8.46845 10.1726 4.75 12.1441 2.78749 15.0435C2.03494 16.1597 1.75458 16.7976 1.45947 18.0443C1.1496 19.32 1.17911 20.0448 1.57751 21.364C2.16774 23.3935 3.36296 24.7852 5.60584 26.0754C6.72727 26.7278 9.78172 27.873 10.1211 27.7715C10.1949 27.7425 10.0178 27.5396 9.69318 27.3221C7.84871 26.0754 6.68301 24.0024 6.24033 21.2625C5.93046 19.2185 6.63874 16.3482 7.92249 14.4346C9.32429 12.3761 11.9951 10.4915 14.961 9.47676L15.625 9.25931L14.8872 9.27381C14.4888 9.27381 13.8543 9.3318 13.4854 9.38978Z" fill="#20E4A4"/>
<path d="M16.2353 12.4905C14.5392 12.7646 12.8865 13.8885 12.5676 14.985C12.2921 15.9444 12.4661 16.7119 13.075 17.2327C13.7273 17.7947 13.9593 17.8221 13.6693 17.2738C13.162 16.3418 13.5244 15.6428 14.7276 15.218C15.7279 14.8616 16.3513 14.9164 17.598 15.4784C18.6708 15.9581 19.2651 16.5063 19.758 17.5068C20.0915 18.151 20.1495 18.4663 20.1495 19.3846C20.135 22.7425 17.2646 25.4563 12.959 26.169C12.4806 26.2512 11.7703 26.3197 11.3643 26.3334L10.625 26.3471L11.0889 26.539C12.4516 27.101 16.5542 27.3751 18.2939 27.0187C19.4246 26.7857 21.1497 26.0319 22.092 25.3603C22.9763 24.7299 24.0636 23.4552 24.4695 22.5506C24.9334 21.5364 25.1219 19.6587 24.9189 18.2607C24.2956 14.1215 20.7873 11.7778 16.2353 12.4905Z" fill="#20E4A4"/>
<path d="M38.8287 22.0303H37.698C37.525 22.0303 37.42 21.9438 37.3829 21.7708L35.0104 12.8368C34.9734 12.6638 35.0351 12.5773 35.1958 12.5773H36.1411C36.3017 12.5773 36.4006 12.6638 36.4376 12.8368L38.2356 20.3992H38.3468L40.2559 12.8368C40.293 12.6638 40.3918 12.5773 40.5525 12.5773H41.4051C41.5781 12.5773 41.6893 12.6638 41.7387 12.8368L43.5922 20.3992H43.7034L45.5199 12.8368C45.557 12.6638 45.6558 12.5773 45.8165 12.5773H46.7618C46.9224 12.5773 46.9842 12.6638 46.9471 12.8368L44.5746 21.7708C44.5375 21.9438 44.4325 22.0303 44.2595 22.0303H43.1103C42.9497 22.0303 42.8508 21.9438 42.8138 21.7708L41.0158 14.3937H40.9232L39.1438 21.7708C39.1067 21.9438 39.0017 22.0303 38.8287 22.0303Z" fill="#212425"/>
<path d="M55.0942 22.0303H51.1647C50.3121 22.0303 49.6387 21.7893 49.1444 21.3074C48.6625 20.8255 48.4215 20.152 48.4215 19.287V15.3205C48.4215 14.4555 48.6625 13.7821 49.1444 13.3002C49.6387 12.8183 50.3121 12.5773 51.1647 12.5773H52.7217C53.5743 12.5773 54.2416 12.8183 54.7235 13.3002C55.2054 13.7821 55.4464 14.4555 55.4464 15.3205V17.6745C55.4464 17.8598 55.3599 17.9525 55.1869 17.9525H49.9414C49.8178 17.9525 49.7561 18.0081 49.7561 18.1193V19.25C49.7561 20.325 50.275 20.8625 51.313 20.8625H55.0942C55.2672 20.8625 55.3537 20.949 55.3537 21.122V21.7893C55.3537 21.9499 55.2672 22.0303 55.0942 22.0303ZM49.9414 16.9701H53.945C54.0686 16.9701 54.1304 16.9084 54.1304 16.7848V15.3576C54.1304 14.2949 53.6114 13.7635 52.5734 13.7635H51.313C50.275 13.7635 49.7561 14.2949 49.7561 15.3576V16.7848C49.7561 16.9084 49.8178 16.9701 49.9414 16.9701Z" fill="#212425"/>
<path d="M59.2681 20.844H61.9001C62.9504 20.844 63.4756 20.3065 63.4756 19.2314V15.2649C63.4756 14.1899 62.9504 13.6523 61.9001 13.6523H60.8065C60.2505 13.6523 59.8242 13.8006 59.5276 14.0972C59.231 14.3937 59.0827 14.8077 59.0827 15.339V20.6772C59.0827 20.7884 59.1445 20.844 59.2681 20.844ZM57.7297 21.7708V9.25949C57.7297 9.0865 57.8162 9 57.9892 9H58.8232C58.9962 9 59.0827 9.0865 59.0827 9.25949V13.4485H59.1569C59.4658 12.7935 60.096 12.4661 61.0475 12.4661H62.0854C62.9257 12.4661 63.5868 12.707 64.0687 13.189C64.563 13.6709 64.8101 14.3381 64.8101 15.1908V19.287C64.8101 20.152 64.563 20.8255 64.0687 21.3074C63.5868 21.7893 62.9257 22.0303 62.0854 22.0303H57.9892C57.8162 22.0303 57.7297 21.9438 57.7297 21.7708Z" fill="#212425"/>
<path d="M67.03 19.1388V18.6568C67.03 18.4468 67.135 18.3417 67.3451 18.3417H68.5314C68.7414 18.3417 68.8465 18.4468 68.8465 18.6568V18.9905C68.8465 19.5095 68.9577 19.8863 69.1801 20.1211C69.4149 20.3435 69.7979 20.4548 70.3293 20.4548H71.6082C72.1395 20.4548 72.5226 20.3374 72.7574 20.1026C72.9922 19.8555 73.1096 19.46 73.1096 18.9163V18.49C73.1096 18.0946 72.9551 17.7857 72.6462 17.5633C72.3496 17.3285 71.9789 17.1802 71.5341 17.1184C71.0892 17.0443 70.6011 16.9454 70.0698 16.8219C69.5384 16.6983 69.0503 16.5562 68.6055 16.3955C68.1607 16.2349 67.7838 15.9322 67.4748 15.4873C67.1783 15.0425 67.03 14.4741 67.03 13.7821V13.0036C67.03 12.1016 67.2833 11.3972 67.7899 10.8906C68.3089 10.3716 69.0194 10.1121 69.9215 10.1121H71.8862C72.8006 10.1121 73.5111 10.3716 74.0178 10.8906C74.5368 11.3972 74.7963 12.1016 74.7963 13.0036V13.4114C74.7963 13.6214 74.6912 13.7265 74.4812 13.7265H73.2949C73.0848 13.7265 72.9798 13.6214 72.9798 13.4114V13.1704C72.9798 12.6391 72.8624 12.2622 72.6276 12.0398C72.4052 11.805 72.0283 11.6876 71.497 11.6876H70.3293C69.7979 11.6876 69.4149 11.8112 69.1801 12.0583C68.9577 12.2931 68.8465 12.7009 68.8465 13.2816V13.8562C68.8465 14.4123 69.2481 14.7892 70.0512 14.9869C70.4096 15.0734 70.7988 15.1475 71.219 15.2093C71.6514 15.2711 72.0839 15.3638 72.5164 15.4873C72.9489 15.6109 73.3443 15.7777 73.7027 15.9878C74.061 16.1855 74.3514 16.4944 74.5738 16.9145C74.7963 17.3223 74.9075 17.8228 74.9075 18.4159V19.1388C74.9075 20.0408 74.648 20.7513 74.129 21.2703C73.6224 21.7769 72.918 22.0303 72.016 22.0303H69.94C69.038 22.0303 68.3275 21.7769 67.8085 21.2703C67.2895 20.7513 67.03 20.0408 67.03 19.1388Z" fill="#212425"/>
<path d="M80.6321 22.0303H79.9092C78.9948 22.0303 78.2843 21.7769 77.7777 21.2703C77.2834 20.7637 77.0363 20.0593 77.0363 19.1573V15.4503C77.0363 14.5358 77.2834 13.8315 77.7777 13.3372C78.2843 12.8306 78.9948 12.5773 79.9092 12.5773H84.0611C84.2835 12.5773 84.3947 12.6823 84.3947 12.8924V21.7152C84.3947 21.9252 84.2835 22.0303 84.0611 22.0303H82.8934C82.6833 22.0303 82.5783 21.9252 82.5783 21.7152V21.0479H82.5042C82.2076 21.7028 81.5836 22.0303 80.6321 22.0303ZM82.5783 18.8793V14.3381C82.5783 14.2146 82.5103 14.1528 82.3744 14.1528H80.1687C79.279 14.1528 78.8342 14.61 78.8342 15.5244V19.0832C78.8342 19.9976 79.279 20.4548 80.1687 20.4548H81.0584C82.0717 20.4548 82.5783 19.9296 82.5783 18.8793Z" fill="#212425"/>
<path d="M90.2281 22.0303H89.2828C88.3931 22.0303 87.7073 21.7831 87.2254 21.2888C86.7559 20.7822 86.5211 20.0717 86.5211 19.1573V15.4503C86.5211 14.5235 86.7559 13.813 87.2254 13.3187C87.7073 12.8244 88.3931 12.5773 89.2828 12.5773H90.2281C91.1796 12.5773 91.7974 12.9048 92.0816 13.5597H92.1558V9.3151C92.1558 9.10503 92.2608 9 92.4709 9H93.6571C93.8672 9 93.9722 9.10503 93.9722 9.3151V21.7152C93.9722 21.9252 93.8672 22.0303 93.6571 22.0303H92.4709C92.2608 22.0303 92.1558 21.9252 92.1558 21.7152V21.0479H92.0816C91.7974 21.7028 91.1796 22.0303 90.2281 22.0303ZM92.1558 18.8793V15.7283C92.1558 14.678 91.6492 14.1528 90.6359 14.1528H89.6535C88.7638 14.1528 88.319 14.61 88.319 15.5244V19.0832C88.319 19.9976 88.7638 20.4548 89.6535 20.4548H90.6359C91.6492 20.4548 92.1558 19.9296 92.1558 18.8793Z" fill="#212425"/>
<path d="M100.619 22.0303H98.9875C98.0731 22.0303 97.3625 21.7769 96.8559 21.2703C96.3616 20.7637 96.1145 20.0593 96.1145 19.1573V15.4503C96.1145 14.5358 96.3616 13.8315 96.8559 13.3372C97.3625 12.8306 98.0731 12.5773 98.9875 12.5773H100.619C101.521 12.5773 102.225 12.8306 102.732 13.3372C103.251 13.8315 103.51 14.5358 103.51 15.4503V19.1573C103.51 20.0593 103.251 20.7637 102.732 21.2703C102.225 21.7769 101.521 22.0303 100.619 22.0303ZM99.2469 20.4548H100.378C101.267 20.4548 101.712 20.0037 101.712 19.1017V15.5059C101.712 14.6038 101.267 14.1528 100.378 14.1528H99.2469C98.7774 14.1528 98.4376 14.264 98.2275 14.4864C98.0174 14.6965 97.9124 15.0363 97.9124 15.5059V19.1017C97.9124 19.5712 98.0174 19.9172 98.2275 20.1397C98.4376 20.3497 98.7774 20.4548 99.2469 20.4548Z" fill="#212425"/>
<path d="M105.047 12.5773H106.289C106.486 12.5773 106.604 12.6823 106.641 12.8924L108.568 20.3435H108.698L110.589 12.8924C110.638 12.6823 110.768 12.5773 110.978 12.5773H112.201C112.424 12.5773 112.498 12.6823 112.424 12.8924L109.921 21.6966C109.872 21.919 109.736 22.0303 109.514 22.0303H107.734C107.512 22.0303 107.376 21.919 107.327 21.6966L104.824 12.8924C104.775 12.6823 104.849 12.5773 105.047 12.5773Z" fill="#212425"/>
<path d="M115.431 22.0303H114.263C114.053 22.0303 113.948 21.9252 113.948 21.7152V12.8924C113.948 12.6823 114.053 12.5773 114.263 12.5773H115.431C115.641 12.5773 115.746 12.6823 115.746 12.8924V13.5597H115.82C116.117 12.9048 116.741 12.5773 117.692 12.5773H118.508C119.41 12.5773 120.102 12.8244 120.584 13.3187C121.066 13.813 121.307 14.5235 121.307 15.4503V21.7152C121.307 21.9252 121.195 22.0303 120.973 22.0303H119.805C119.595 22.0303 119.49 21.9252 119.49 21.7152V15.5244C119.49 14.61 119.039 14.1528 118.137 14.1528H117.266C116.253 14.1528 115.746 14.678 115.746 15.7283V21.7152C115.746 21.9252 115.641 22.0303 115.431 22.0303Z" fill="#212425"/>
<path d="M123.616 11.0018V9.3151C123.616 9.11739 123.715 9.01853 123.913 9.01853H125.117C125.315 9.01853 125.414 9.11739 125.414 9.3151V11.0018C125.414 11.2119 125.315 11.3169 125.117 11.3169H123.913C123.715 11.3169 123.616 11.2119 123.616 11.0018ZM123.616 21.7152V12.8924C123.616 12.6823 123.715 12.5773 123.913 12.5773H125.099C125.309 12.5773 125.414 12.6823 125.414 12.8924V21.7152C125.414 21.8387 125.389 21.9252 125.34 21.9746C125.303 22.0117 125.229 22.0303 125.117 22.0303H123.931C123.721 22.0303 123.616 21.9252 123.616 21.7152Z" fill="#212425"/>
<path d="M133.225 12.5773H134.559C134.67 12.5773 134.745 12.6144 134.782 12.6885C134.831 12.7503 134.819 12.8368 134.745 12.948L132.131 17.0999V17.174L134.949 21.6595C135.01 21.7584 135.016 21.8449 134.967 21.919C134.93 21.9932 134.843 22.0303 134.708 22.0303H133.503C133.219 22.0303 133.008 21.9252 132.873 21.7152L130.259 17.4335C130.173 17.2729 130.173 17.1061 130.259 16.9331L132.687 12.8739C132.798 12.6761 132.978 12.5773 133.225 12.5773ZM129.332 22.0303H128.165C127.955 22.0303 127.85 21.9252 127.85 21.7152V9.3151C127.85 9.10503 127.955 9 128.165 9H129.332C129.542 9 129.647 9.10503 129.647 9.3151V21.7152C129.647 21.9252 129.542 22.0303 129.332 22.0303Z" fill="#212425"/>
</svg>
