<svg width="48" height="60" viewBox="0 0 48 60" fill="none" xmlns="http://www.w3.org/2000/svg">
<path d="M33.4444 0.093036C34.4944 0.144302 34.6093 0.49497 34.4488 1.55575C33.0489 10.6572 33.1509 21.0008 35.2275 30.0829L32.0178 30.088C31.214 30.0931 31.2822 30.0147 31.1494 29.5395C30.8226 28.3701 30.4179 27.0894 29.5709 26.5023C28.7368 25.92 27.8011 25.6252 26.966 25.8041L16.7649 27.9911C14.2319 21.6704 12.3934 15.0523 11.9691 7.01313C11.8921 5.53257 11.9137 4.91271 12.9935 4.14677C19.2923 0.190034 26.6929 -0.248321 33.4442 0.0930445L33.4444 0.093036Z" fill="url(#paint0_linear_401_8778)"/>
<path d="M43.1851 5.82564C43.9925 6.11479 43.8315 6.33114 43.5504 6.96582C40.2816 14.4077 39.0814 22.6691 37.861 30.0765L36.6858 30.0817C35.1053 22.3065 34.6256 12.764 35.294 5.05217C37.9497 4.65895 40.6351 4.90656 43.1851 5.82527V5.82564Z" fill="url(#paint1_linear_401_8778)"/>
<path d="M42.9884 12.0439C44.7633 12.2613 46.4945 13.1749 47.7421 14.3649C48.1889 14.8001 47.9545 15.0411 47.7836 15.1913C45.1074 17.523 42.7534 20.8978 40.7076 24.6429H39.9192C40.7461 19.8356 41.8828 15.6122 42.9883 12.0441L42.9884 12.0439Z" fill="url(#paint2_linear_401_8778)"/>
<path d="M27.1205 27.229C28.6527 26.9465 29.5545 28.2482 29.6909 29.4346L31.0472 41.4162C31.0472 42.3318 30.4901 43.2039 29.5068 43.7068C28.524 44.2041 27.2728 44.2041 26.294 43.7099C25.3697 43.2428 25.0465 42.3697 24.7448 41.2434L23.0977 34.5479C22.855 33.5656 21.8337 33.6543 22.0127 34.6248L23.8763 44.5229C24.3021 46.7848 21.5828 50.353 16.2745 49.5282C15.2752 49.2985 15.4409 50.7447 16.4658 50.8298C19.811 51.3533 22.1727 50.1839 23.7563 48.6141C23.7358 49.5661 23.9958 50.5233 24.4124 51.34C24.7443 51.9911 25.2214 52.5299 25.7867 52.9251C25.2219 53.322 24.7402 53.8587 24.4048 54.5119C23.6851 55.9074 23.6645 57.6125 24.3996 58.9952C24.7013 59.5694 24.8598 59.9995 24.2124 59.9995L15.7129 59.9944C14.6751 59.9892 14.058 59.7421 13.5547 59.3387C13.0541 58.9403 12.6606 58.3528 12.262 57.654C12.1348 57.4325 11.8953 57.2962 11.6393 57.2962H10.3933C9.4658 57.2962 9.39707 56.8676 9.533 56.0996C10.6615 49.7856 10.9802 44.0513 9.4658 37.9683C9.23957 37.0716 9.26984 37.0465 9.85207 36.3785L14.3765 31.1693C15.4532 29.9297 16.317 29.2217 18.3264 28.85L27.1205 27.229Z" fill="url(#paint3_linear_401_8778)"/>
<path d="M40.971 31.5073C41.9031 31.5073 42.7793 32.0543 43.2769 33.0238C43.7745 33.9948 43.7714 35.2232 43.2738 36.1931C42.9625 36.7976 42.5157 37.3979 41.6011 37.4015L32.0336 37.4348L31.3652 31.5175L40.971 31.5073Z" fill="url(#paint4_linear_401_8778)"/>
<path d="M0.140954 36.1811C2.6945 43.9823 2.14519 50.8174 0.171222 59.2603C-0.00421075 60.0067 0.332301 60.0001 0.784231 60.0001H6.14688C7.0492 60.0001 7.11281 59.9601 7.2703 59.2685C9.16776 51.0335 9.70434 44.3605 7.44933 36.7943C7.03074 35.3906 6.77579 35.4675 5.27897 35.4675H0.660656C-0.195495 35.467 -0.0380144 35.6296 0.141016 36.1812L0.140954 36.1811Z" fill="url(#paint5_linear_401_8778)"/>
<path d="M39.7965 38.8399C40.7285 38.8348 41.6099 39.3884 42.1023 40.3564C42.5999 41.3264 42.5999 42.5517 42.0993 43.5272C41.5966 44.4998 40.7158 45.1001 39.7883 45.0586L31.8721 44.6823C31.5356 44.6695 31.4155 44.1481 31.6074 43.8143C32.046 43.0582 32.582 42.2978 32.4799 41.4151L32.1937 38.8518L39.7965 38.8399Z" fill="url(#paint6_linear_401_8778)"/>
<path d="M27.7993 45.9207C31.5013 46.0765 35.2071 46.3339 38.9103 46.4933C39.8392 46.5364 40.72 47.0419 41.2176 48.0129C41.7152 48.9813 41.7111 50.2061 41.2078 51.1822C40.7102 52.1547 39.8212 52.7068 38.8938 52.7114L28.0803 52.2069C28.05 52.2069 28.0249 52.2018 27.9946 52.2069C27.0625 52.2069 26.1812 51.6584 25.6887 50.689C25.165 49.6682 25.0121 48.3573 25.4794 47.4509C25.9816 46.4773 26.8675 45.8832 27.7991 45.9206L27.7993 45.9207Z" fill="url(#paint7_linear_401_8778)"/>
<path d="M27.9935 53.6362L38.3269 54.1166C38.7183 54.3766 39.0625 54.7421 39.3098 55.223C39.8033 56.1914 39.8033 57.4254 39.3016 58.3954C38.804 59.3679 37.8971 59.9134 37.0928 59.9134L28.3219 59.9354C27.1631 59.9385 26.1166 59.1859 25.6745 58.339C25.1687 57.3736 25.1769 56.1417 25.6796 55.1665C26.1808 54.194 27.0615 53.6413 27.9936 53.6362L27.9935 53.6362Z" fill="url(#paint8_linear_401_8778)"/>
<defs>
<linearGradient id="paint0_linear_401_8778" x1="20.5001" y1="-11.0024" x2="49.357" y2="-1.19569" gradientUnits="userSpaceOnUse">
<stop stop-color="#BD2F2F"/>
<stop offset="1" stop-color="#FF4848"/>
</linearGradient>
<linearGradient id="paint1_linear_401_8778" x1="38.2273" y1="-4.34636" x2="50.0857" y2="-2.533" gradientUnits="userSpaceOnUse">
<stop stop-color="#BD2F2F"/>
<stop offset="1" stop-color="#FF4848"/>
</linearGradient>
<linearGradient id="paint2_linear_401_8778" x1="42.889" y1="7.43685" x2="53.2387" y2="10.3518" gradientUnits="userSpaceOnUse">
<stop stop-color="#BD2F2F"/>
<stop offset="1" stop-color="#FF4848"/>
</linearGradient>
<linearGradient id="paint3_linear_401_8778" x1="17.3147" y1="15.1924" x2="44.9926" y2="23.2357" gradientUnits="userSpaceOnUse">
<stop stop-color="#BD2F2F"/>
<stop offset="1" stop-color="#FF4848"/>
</linearGradient>
<linearGradient id="paint4_linear_401_8778" x1="35.8796" y1="29.3398" x2="45.1683" y2="37.7925" gradientUnits="userSpaceOnUse">
<stop stop-color="#BD2F2F"/>
<stop offset="1" stop-color="#FF4848"/>
</linearGradient>
<linearGradient id="paint5_linear_401_8778" x1="3.28139" y1="26.4957" x2="15.3168" y2="28.4191" gradientUnits="userSpaceOnUse">
<stop stop-color="#BD2F2F"/>
<stop offset="1" stop-color="#FF4848"/>
</linearGradient>
<linearGradient id="paint6_linear_401_8778" x1="35.5436" y1="36.5651" x2="45.0214" y2="43.8974" gradientUnits="userSpaceOnUse">
<stop stop-color="#BD2F2F"/>
<stop offset="1" stop-color="#FF4848"/>
</linearGradient>
<linearGradient id="paint7_linear_401_8778" x1="31.2231" y1="43.4351" x2="41.8968" y2="54.7436" gradientUnits="userSpaceOnUse">
<stop stop-color="#BD2F2F"/>
<stop offset="1" stop-color="#FF4848"/>
</linearGradient>
<linearGradient id="paint8_linear_401_8778" x1="30.5838" y1="51.3328" x2="40.4989" y2="61.2724" gradientUnits="userSpaceOnUse">
<stop stop-color="#BD2F2F"/>
<stop offset="1" stop-color="#FF4848"/>
</linearGradient>
</defs>
</svg>
