<?xml version="1.0" encoding="UTF-8" standalone="no"?>
<svg
   width="70"
   height="70"
   viewBox="0 0 70 70"
   fill="none"
   version="1.1"
   id="svg12"
   sodipodi:docname="about_icon3.svg"
   inkscape:version="1.1 (c68e22c387, 2021-05-23)"
   xmlns:inkscape="http://www.inkscape.org/namespaces/inkscape"
   xmlns:sodipodi="http://sodipodi.sourceforge.net/DTD/sodipodi-0.dtd"
   xmlns="http://www.w3.org/2000/svg"
   xmlns:svg="http://www.w3.org/2000/svg">
  <defs
     id="defs16" />
  <sodipodi:namedview
     id="namedview14"
     pagecolor="#ffffff"
     bordercolor="#666666"
     borderopacity="1.0"
     inkscape:pageshadow="2"
     inkscape:pageopacity="0.0"
     inkscape:pagecheckerboard="0"
     showgrid="false"
     width="70px"
     inkscape:zoom="13.640625"
     inkscape:cx="31.963345"
     inkscape:cy="32"
     inkscape:window-width="2560"
     inkscape:window-height="1411"
     inkscape:window-x="2391"
     inkscape:window-y="-9"
     inkscape:window-maximized="1"
     inkscape:current-layer="svg12" />
  <g
     id="g838"
     transform="translate(3.0003398,3.0000225)">
    <path
       fill-rule="evenodd"
       clip-rule="evenodd"
       d="m 29.614,13.8184 c -2.09,0 -3.7693,1.6771 -3.7693,3.7274 v 21.2733 c 0,2.0503 1.6793,3.7274 3.7693,3.7274 h 21.4616 c 2.09,0 3.7693,-1.6771 3.7693,-3.7274 V 17.5458 c 0,-2.0503 -1.6793,-3.7274 -3.7693,-3.7274 z m -5.7693,3.7274 c 0,-3.1715 2.5913,-5.7274 5.7693,-5.7274 h 21.4616 c 3.1779,0 5.7693,2.5559 5.7693,5.7274 v 21.2733 c 0,3.1715 -2.5914,5.7274 -5.7693,5.7274 H 29.614 c -3.178,0 -5.7693,-2.5559 -5.7693,-5.7274 z"
       fill="#ff4b12"
       id="path2" />
    <path
       fill-rule="evenodd"
       clip-rule="evenodd"
       d="m 16.6914,55.3654 c 0,-0.5523 0.4477,-1 1,-1 h 36.2982 c 1.5107,0.0063 2.9601,0.6007 4.0354,1.6578 l 0.0088,0.0087 5.6754,5.7203 c 0.389,0.392 0.3865,1.0252 -0.0056,1.4142 -0.392,0.3889 -1.0252,0.3865 -1.4142,-0.0056 L 56.6186,57.4452 C 55.918,56.7587 54.9721,56.37 53.9832,56.3654 H 17.6914 c -0.5523,0 -1,-0.4478 -1,-1 z"
       fill="#ffffff"
       id="path4" />
    <path
       fill-rule="evenodd"
       clip-rule="evenodd"
       d="M 0,1 C 0,0.447715 0.447715,0 1,0 H 5.76925 C 7.29652,0 8.763,0.601301 9.8456,1.67441 c 1.0829,1.07341 1.6929,2.53114 1.6929,4.053 V 45.9104 c 0,0.5523 -0.4477,1 -1,1 -0.55228,0 -1,-0.4477 -1,-1 V 5.72741 C 9.5385,4.7417 9.14355,3.79456 8.43764,3.09484 7.73143,2.39483 6.77175,2 5.76925,2 H 1 C 0.447715,2 0,1.55228 0,1 Z"
       fill="#ffffff"
       id="path6" />
    <path
       fill-rule="evenodd"
       clip-rule="evenodd"
       d="M 14.2931,49.3999 C 12.8868,48.1487 11.0438,47.4858 9.15206,47.5533 7.26031,47.6207 5.47053,48.413 4.1589,49.7608 c -1.31137,1.3474 -2.04269,3.1448 -2.04269,5.0135 0,1.8686 0.73132,3.666 2.04269,5.0135 1.31163,1.3477 3.10141,2.1401 4.99316,2.2075 1.89174,0.0674 3.73474,-0.5954 5.14104,-1.8466 1.4045,-1.2496 2.2639,-2.9881 2.4008,-4.8496 0.0207,-0.3496 0.0207,-0.7 0,-1.0496 -0.1369,-1.8615 -0.9963,-3.6 -2.4008,-4.8496 z m 3.3987,4.7835 0.9973,-0.0725 c -0.1733,-2.3859 -1.2737,-4.6101 -3.0666,-6.2052 -1.7926,-1.5949 -4.1377,-2.4369 -6.54169,-2.3512 -2.40398,0.0857 -4.68244,1.0926 -6.35519,2.8114 -1.67301,1.719 -2.609409,4.0162 -2.609409,6.4084 0,2.3921 0.936399,4.6893 2.609409,6.4084 1.67275,1.7188 3.95121,2.7256 6.35519,2.8113 2.40399,0.0857 4.74909,-0.7563 6.54169,-2.3511 1.7929,-1.5951 2.8933,-3.8193 3.0666,-6.2052 h 10e-5 l 8e-4,-0.0127 c 0.0259,-0.4334 0.0259,-0.868 0,-1.3014 z"
       fill="#ffffff"
       id="path8" />
    <path
       fill-rule="evenodd"
       clip-rule="evenodd"
       d="m 38.1533,31.7286 c 0,-0.5522 0.4477,-1 1,-1 h 4.7693 c 0.5523,0 1,0.4478 1,1 0,0.5523 -0.4477,1 -1,1 h -4.7693 c -0.5523,0 -1,-0.4477 -1,-1 z"
       fill="#ff4b12"
       id="path10" />
  </g>
</svg>
