<?xml version="1.0" encoding="UTF-8" standalone="no"?>
<svg
   width="70"
   height="70"
   viewBox="0 0 70 70"
   fill="none"
   version="1.1"
   id="svg8"
   sodipodi:docname="about_icon1.svg"
   inkscape:version="1.1 (c68e22c387, 2021-05-23)"
   xmlns:inkscape="http://www.inkscape.org/namespaces/inkscape"
   xmlns:sodipodi="http://sodipodi.sourceforge.net/DTD/sodipodi-0.dtd"
   xmlns="http://www.w3.org/2000/svg"
   xmlns:svg="http://www.w3.org/2000/svg">
  <defs
     id="defs12" />
  <sodipodi:namedview
     id="namedview10"
     pagecolor="#ffffff"
     bordercolor="#666666"
     borderopacity="1.0"
     inkscape:pageshadow="2"
     inkscape:pageopacity="0.0"
     inkscape:pagecheckerboard="0"
     showgrid="false"
     width="70px"
     inkscape:zoom="13.857143"
     inkscape:cx="31.463918"
     inkscape:cy="31.5"
     inkscape:window-width="2560"
     inkscape:window-height="1411"
     inkscape:window-x="2391"
     inkscape:window-y="-9"
     inkscape:window-maximized="1"
     inkscape:current-layer="svg8" />
  <g
     id="g832"
     transform="translate(3.6325982,3.6326919)">
    <path
       fill-rule="evenodd"
       clip-rule="evenodd"
       d="m 62.3343,35.2388 c 0.442,0.3311 0.5319,0.9578 0.2008,1.3999 L 43.2868,62.3341 c -0.159,0.2123 -0.3958,0.3527 -0.6583,0.3904 -0.2626,0.0376 -0.5293,-0.0305 -0.7416,-0.1895 L 29.0392,52.9108 c -0.442,-0.3311 -0.5319,-0.9578 -0.2008,-1.3999 0.3311,-0.442 0.9578,-0.5319 1.3999,-0.2008 l 12.0474,9.0246 18.6487,-24.8951 c 0.3311,-0.442 0.9578,-0.5319 1.3999,-0.2008 z"
       fill="#ff4b12"
       id="path2" />
    <path
       fill-rule="evenodd"
       clip-rule="evenodd"
       d="m 22.0235,2 c -5.2532,0 -9.5118,4.25857 -9.5118,9.5118 0,5.2532 4.2586,9.5118 9.5118,9.5118 5.2532,0 9.5118,-4.2586 9.5118,-9.5118 C 31.5353,6.25857 27.2767,2 22.0235,2 Z M 10.5117,11.5118 C 10.5117,5.154 15.6657,0 22.0235,0 c 6.3578,0 11.5118,5.154 11.5118,11.5118 0,6.3578 -5.154,11.5118 -11.5118,11.5118 -6.3578,0 -11.5118,-5.154 -11.5118,-11.5118 z"
       fill="#ffffff"
       id="path4" />
    <path
       fill-rule="evenodd"
       clip-rule="evenodd"
       d="M 25.9251,30.4336 C 22.0433,29.6624 18.0199,30.0589 14.3633,31.573 10.7066,33.0871 7.58064,35.6509 5.38019,38.9405 3.1798,42.23 2.00356,46.0978 2,50.0554 v 6.0074 h 10.6798 c 0.5523,0 1,0.4477 1,1 0,0.5523 -0.4477,1 -1,1 H 1 c -0.552285,0 -1,-0.4477 -1,-1 v -7.0079 c 0.00382882,-4.353 1.29756,-8.6082 3.71781,-12.2264 2.42024,-3.6182 5.85843,-6.438 9.88029,-8.1033 4.0219,-1.6653 8.4471,-2.1015 12.7167,-1.2533 4.2696,0.8482 8.1921,2.9426 11.2721,6.0188 0.3908,0.3903 0.3912,1.0234 9e-4,1.4142 -0.3903,0.3908 -1.0235,0.3912 -1.4142,9e-4 -2.8003,-2.7968 -6.3666,-4.701 -10.2485,-5.4722 z"
       fill="#ffffff"
       id="path6" />
  </g>
</svg>
