<?xml version="1.0" encoding="UTF-8" standalone="no"?>
<svg
   width="70"
   height="70"
   viewBox="0 0 70 70"
   fill="none"
   version="1.1"
   id="svg12"
   sodipodi:docname="about_icon2.svg"
   inkscape:version="1.1 (c68e22c387, 2021-05-23)"
   xmlns:inkscape="http://www.inkscape.org/namespaces/inkscape"
   xmlns:sodipodi="http://sodipodi.sourceforge.net/DTD/sodipodi-0.dtd"
   xmlns="http://www.w3.org/2000/svg"
   xmlns:svg="http://www.w3.org/2000/svg">
  <defs
     id="defs16" />
  <sodipodi:namedview
     id="namedview14"
     pagecolor="#ffffff"
     bordercolor="#666666"
     borderopacity="1.0"
     inkscape:pageshadow="2"
     inkscape:pageopacity="0.0"
     inkscape:pagecheckerboard="0"
     showgrid="false"
     inkscape:zoom="12.471429"
     inkscape:cx="34.959908"
     inkscape:cy="35"
     inkscape:window-width="2560"
     inkscape:window-height="1411"
     inkscape:window-x="2391"
     inkscape:window-y="-9"
     inkscape:window-maximized="1"
     inkscape:current-layer="svg12" />
  <g
     id="g838">
    <path
       d="M7.5 12.5C6.17392 12.5 4.90215 13.0268 3.96447 13.9645C3.02678 14.9021 2.5 16.1739 2.5 17.5V62.5C2.5 63.8261 3.02678 65.0979 3.96447 66.0355C4.90215 66.9732 6.17392 67.5 7.5 67.5H62.5C63.8261 67.5 65.0979 66.9732 66.0355 66.0355C66.9732 65.0979 67.5 63.8261 67.5 62.5V17.5C67.5 16.1739 66.9732 14.9021 66.0355 13.9645C65.0979 13.0268 63.8261 12.5 62.5 12.5H52.5"
       stroke="white"
       stroke-width="2.14286"
       stroke-linecap="round"
       stroke-linejoin="round"
       id="path2" />
    <path
       d="M17.5 2.5V22.5"
       stroke="white"
       stroke-width="2.14286"
       stroke-linecap="round"
       stroke-linejoin="round"
       id="path4" />
    <path
       d="M52.5 2.5V22.5"
       stroke="white"
       stroke-width="2.14286"
       stroke-linecap="round"
       stroke-linejoin="round"
       id="path6" />
    <path
       d="M17.5 12.5H42.5"
       stroke="white"
       stroke-width="2.14286"
       stroke-linecap="round"
       stroke-linejoin="round"
       id="path8" />
    <path
       d="M35 37.5C40 27.5 50 32.5 50 40C50 50 35 55 35 55C35 55 20 50 20 40C20 32.5 30 27.5 35 37.5Z"
       stroke="#FF4B12"
       stroke-width="2.14286"
       stroke-linecap="round"
       stroke-linejoin="round"
       id="path10" />
  </g>
</svg>
