<svg width="65" height="65" viewBox="0 0 65 65" fill="none" xmlns="http://www.w3.org/2000/svg">
<path fill-rule="evenodd" clip-rule="evenodd" d="M38.2457 2.5092C41.5113 1.27526 45.0578 0.983018 48.4813 1.66574C48.5126 1.67199 48.5437 1.67974 48.5743 1.68896C49.2096 1.88041 49.7951 2.20914 50.2893 2.6519C50.7836 3.09466 51.1745 3.64063 51.4344 4.25118C51.5942 4.62659 51.5099 5.06145 51.2214 5.34997L41.9427 14.6286C41.9417 14.6297 41.9406 14.6307 41.9395 14.6318C41.2741 15.3125 40.9014 16.2266 40.9014 17.1786C40.9014 18.1218 41.2673 19.0279 41.9213 19.7065L45.424 22.8405C45.4423 22.8569 45.4601 22.874 45.4772 22.8917C45.817 23.2443 46.2244 23.5247 46.675 23.7163C47.1257 23.9078 47.6103 24.0065 48.1 24.0065C48.5897 24.0065 49.0743 23.9078 49.525 23.7163C49.9756 23.5247 50.3831 23.2443 50.7229 22.8917L50.7358 22.8786L60.0215 13.5929C60.3485 13.2658 60.8572 13.2057 61.2515 13.4476C61.7927 13.7796 62.2581 14.2218 62.6174 14.7453C62.9758 15.2676 63.2207 15.8593 63.3362 16.4821C63.989 19.8758 63.6881 23.3841 62.4669 26.6171C61.2452 29.8511 59.1505 32.6829 56.4156 34.7976C53.6808 36.9123 50.4129 38.227 46.9755 38.5955C43.774 38.9387 40.5422 38.4486 37.5922 37.1783L12.7356 61.9893C12.211 62.5247 11.585 62.9502 10.894 63.2409C10.2012 63.5325 9.45707 63.6826 8.70538 63.6826C7.95368 63.6826 7.20957 63.5325 6.51672 63.2409C5.82572 62.9501 5.1996 62.5246 4.67494 61.9891L3.01096 60.3252C2.47548 59.8005 2.04991 59.1743 1.75912 58.4833C1.46757 57.7905 1.31738 57.0463 1.31738 56.2946C1.31738 55.543 1.46757 54.7988 1.75912 54.106C2.05026 53.4141 2.47649 52.7873 3.01286 52.2623C3.01363 52.2615 3.01441 52.2608 3.01518 52.26L27.856 27.6466C26.5186 24.6967 25.971 21.445 26.2736 18.2118C26.5988 14.736 27.8934 11.4214 30.01 8.64529C32.1266 5.86918 34.9801 3.74313 38.2457 2.5092ZM62.3536 16.6678L61.3702 16.8492C61.3059 16.5005 61.169 16.1693 60.9684 15.877C60.9141 15.7979 60.8555 15.7221 60.7928 15.65L52.1562 24.2866C51.6312 24.8295 51.0024 25.2615 50.3073 25.5569C49.6093 25.8536 48.8585 26.0065 48.1 26.0065C47.3415 26.0065 46.5908 25.8536 45.8927 25.5569C45.2065 25.2653 44.5851 24.8406 44.0642 24.3075L40.5618 21.1738C40.5455 21.1593 40.5297 21.1442 40.5144 21.1286C39.4805 20.0738 38.9014 18.6556 38.9014 17.1786C38.9014 15.7015 39.4805 14.2834 40.5144 13.2286L40.5215 13.2214L49.2666 4.47638C49.1733 4.35594 49.069 4.24383 48.9548 4.14158C48.69 3.9043 48.3782 3.72567 48.0399 3.61717C44.9992 3.02053 41.8519 3.28457 38.9526 4.38009C36.0374 5.48165 33.49 7.37962 31.6004 9.85791C29.7109 12.3362 28.5552 15.2952 28.2649 18.3981C27.9745 21.501 28.5612 24.6231 29.9582 27.4089C30.1521 27.7955 30.0754 28.263 29.7682 28.5675L4.41815 53.6854L4.41343 53.69C4.06646 54.0293 3.79077 54.4344 3.60256 54.8817C3.41434 55.329 3.31738 55.8094 3.31738 56.2946C3.31738 56.7799 3.41434 57.2603 3.60256 57.7076C3.79077 58.1549 4.06646 58.56 4.41343 58.8993L4.42146 58.9071L6.10078 60.5865C6.44004 60.9335 6.84516 61.2092 7.29245 61.3975C7.73973 61.5857 8.22011 61.6826 8.70538 61.6826C9.19064 61.6826 9.67102 61.5857 10.1183 61.3975C10.5656 61.2092 10.9708 60.9336 11.31 60.5866L11.3185 60.5779L36.6686 35.2744C36.968 34.9755 37.4232 34.8974 37.8051 35.0794C40.5921 36.4072 43.6928 36.936 46.7623 36.6069C49.8319 36.2778 52.75 35.1038 55.1922 33.2154C57.6344 31.327 59.505 28.7983 60.5959 25.9103C61.6869 23.0223 61.9554 19.8884 61.3716 16.8569L62.3536 16.6678Z" fill="white"/>
</svg>
