<svg width="65" height="65" viewBox="0 0 65 65" fill="none" xmlns="http://www.w3.org/2000/svg">
<path fill-rule="evenodd" clip-rule="evenodd" d="M6.96512 3.32147C4.95323 3.32147 3.32227 4.95244 3.32227 6.96433V58.0358C3.32227 60.0477 4.95323 61.6786 6.96512 61.6786H58.0366C60.0485 61.6786 61.6794 60.0477 61.6794 58.0358V6.96433C61.6794 4.95244 60.0485 3.32147 58.0366 3.32147H6.96512ZM1.32227 6.96433C1.32227 3.84787 3.84866 1.32147 6.96512 1.32147H58.0366C61.153 1.32147 63.6794 3.84787 63.6794 6.96433V58.0358C63.6794 61.1522 61.153 63.6786 58.0366 63.6786H6.96512C3.84866 63.6786 1.32227 61.1522 1.32227 58.0358V6.96433Z" fill="white"/>
<path fill-rule="evenodd" clip-rule="evenodd" d="M1.32227 18.5715C1.32227 18.0192 1.76998 17.5715 2.32227 17.5715H62.6794C63.2317 17.5715 63.6794 18.0192 63.6794 18.5715C63.6794 19.1238 63.2317 19.5715 62.6794 19.5715H2.32227C1.76998 19.5715 1.32227 19.1238 1.32227 18.5715Z" fill="white"/>
<path fill-rule="evenodd" clip-rule="evenodd" d="M17.8652 31.793C18.2557 31.4024 18.8888 31.4024 19.2794 31.793L26.2437 38.7572C26.6342 39.1478 26.6342 39.7809 26.2437 40.1715L19.2794 47.1357C18.8888 47.5263 18.2557 47.5263 17.8652 47.1357C17.4746 46.7452 17.4746 46.1121 17.8652 45.7215L24.1223 39.4643L17.8652 33.2072C17.4746 32.8166 17.4746 32.1835 17.8652 31.793Z" fill="#FF4B12"/>
<path fill-rule="evenodd" clip-rule="evenodd" d="M38.4648 39.4645C38.4648 38.9122 38.9126 38.4645 39.4648 38.4645H48.7506C49.3028 38.4645 49.7506 38.9122 49.7506 39.4645C49.7506 40.0168 49.3028 40.4645 48.7506 40.4645H39.4648C38.9126 40.4645 38.4648 40.0168 38.4648 39.4645Z" fill="white"/>
</svg>
