<svg width="62" height="62" viewBox="0 0 62 62" fill="none" xmlns="http://www.w3.org/2000/svg">
<path fill-rule="evenodd" clip-rule="evenodd" d="M30.9993 0C31.5516 0 31.9993 0.447715 31.9993 1V19.4617C31.9993 20.014 31.5516 20.4617 30.9993 20.4617C30.447 20.4617 29.9993 20.014 29.9993 19.4617V1C29.9993 0.447715 30.447 0 30.9993 0Z" fill="white"/>
<path fill-rule="evenodd" clip-rule="evenodd" d="M36.9221 49.462C36.9221 48.9097 37.3698 48.462 37.9221 48.462H49.4606C50.0129 48.462 50.4606 48.9097 50.4606 49.462C50.4606 50.0143 50.0129 50.462 49.4606 50.462H37.9221C37.3698 50.462 36.9221 50.0143 36.9221 49.462Z" fill="#FF4B12"/>
<path fill-rule="evenodd" clip-rule="evenodd" d="M0.000244141 19.461C0.000244141 18.9087 0.447959 18.461 1.00024 18.461H61.0002C61.5525 18.461 62.0002 18.9087 62.0002 19.461V56.3845C62.0002 57.8738 61.4086 59.3021 60.3555 60.3552C59.3025 61.4083 57.8742 61.9999 56.3849 61.9999H5.61563C4.12633 61.9999 2.69804 61.4083 1.64495 60.3552C0.591861 59.3021 0.000244141 57.8738 0.000244141 56.3845V19.461ZM2.00024 20.461V56.3845C2.00024 57.3433 2.38115 58.2629 3.05917 58.941C3.73719 59.619 4.65677 59.9999 5.61563 59.9999H56.3849C57.3437 59.9999 58.2633 59.619 58.9413 58.941C59.6193 58.2629 60.0002 57.3433 60.0002 56.3845V20.461H2.00024Z" fill="white"/>
<path fill-rule="evenodd" clip-rule="evenodd" d="M15.9284 0.00033015C15.9369 0.00011009 15.9455 0 15.9541 0H46.0464C47.9497 0.00101012 49.8156 0.532967 51.4332 1.53606C53.05 2.5387 54.3553 3.97231 55.2023 5.67583C55.2027 5.6766 55.203 5.67736 55.2034 5.67813L61.894 19.0133C62.1417 19.5069 61.9423 20.1079 61.4487 20.3555C60.955 20.6032 60.3541 20.4038 60.1064 19.9102L53.4141 6.57157L53.4124 6.56812C52.7309 5.19681 51.6805 4.04278 50.3791 3.23578C49.0779 2.42887 47.5774 2.00091 46.0464 2C46.0463 2 46.0465 2 46.0464 2H15.9673C14.4755 2.04061 13.0228 2.48601 11.7646 3.28868C10.5029 4.09358 9.48448 5.22728 8.81898 6.56779L8.81085 6.5838L1.88778 19.9224C1.63335 20.4126 1.02973 20.6037 0.539535 20.3493C0.0493431 20.0949 -0.141786 19.4912 0.112637 19.001L7.03168 5.67023C7.85896 4.00758 9.12323 2.6014 10.689 1.60256C12.2573 0.602071 14.0687 0.0481293 15.9284 0.00033015Z" fill="white"/>
</svg>
