<svg width="65" height="65" viewBox="0 0 65 65" fill="none" xmlns="http://www.w3.org/2000/svg">
<path fill-rule="evenodd" clip-rule="evenodd" d="M8.59536 10.8838C15.0352 4.73701 23.5982 1.31173 32.5006 1.32143C38.667 1.32153 44.6948 3.15012 49.822 6.57597C54.9493 10.0019 58.9455 14.8713 61.3054 20.5685C63.6652 26.2656 64.2826 32.5346 63.0796 38.5826C61.8766 44.6307 58.9071 50.1862 54.5467 54.5466C50.1863 58.907 44.6308 61.8765 38.5827 63.0795C32.5347 64.2825 26.2657 63.6651 20.5686 61.3053C14.8714 58.9454 10.002 54.9492 6.57607 49.8219C3.15012 44.6946 1.32153 38.6665 1.32153 32.5C1.32153 31.9477 1.76925 31.5 2.32153 31.5C2.87382 31.5 3.32153 31.9477 3.32153 32.5C3.32153 38.271 5.03283 43.9124 8.23901 48.7108C11.4452 53.5091 16.0023 57.249 21.334 59.4575C26.6656 61.666 32.5325 62.2438 38.1926 61.1179C43.8527 59.9921 49.0518 57.2131 53.1325 53.1324C57.2132 49.0517 59.9922 43.8526 61.118 38.1925C62.2439 32.5324 61.666 26.6655 59.4576 21.3338C57.2491 16.0022 53.5092 11.4451 48.7109 8.23891C43.9125 5.03273 38.2711 3.32143 32.5001 3.32143L32.499 3.32143C24.1114 3.31215 16.0436 6.53926 9.97628 12.3305C9.57677 12.7119 8.94377 12.6971 8.56245 12.2976C8.18112 11.8981 8.19585 11.2651 8.59536 10.8838Z" fill="white"/>
<path fill-rule="evenodd" clip-rule="evenodd" d="M11.8498 1.35128C12.3856 1.48523 12.7114 2.02816 12.5775 2.56395L10.4986 10.8795L18.8141 12.9584C19.3499 13.0924 19.6757 13.6353 19.5417 14.1711C19.4078 14.7069 18.8649 15.0327 18.3291 14.8987L9.04335 12.5773C8.50755 12.4433 8.18179 11.9004 8.31574 11.3646L10.6372 2.07888C10.7711 1.54309 11.3141 1.21733 11.8498 1.35128Z" fill="white"/>
<path fill-rule="evenodd" clip-rule="evenodd" d="M32.4996 15.25C33.0519 15.25 33.4996 15.6977 33.4996 16.25V34.8214C33.4996 35.2002 33.2856 35.5465 32.9468 35.7159L20.8754 41.7516C20.3814 41.9986 19.7808 41.7983 19.5338 41.3044C19.2868 40.8104 19.487 40.2097 19.981 39.9627L31.4996 34.2034V16.25C31.4996 15.6977 31.9473 15.25 32.4996 15.25Z" fill="#FF4B12"/>
</svg>
