<svg width="142" height="72" viewBox="0 0 142 72" fill="none" xmlns="http://www.w3.org/2000/svg">
<g clip-path="url(#clip0_103_1857)">
<path d="M57.233 16.0319C57.0733 15.2578 56.7196 14.5473 56.5415 13.7697C56.0981 11.8444 56.5623 10.0168 56.9763 8.17334C57.0696 7.75215 57.3141 7.9426 57.5192 8.08055C58.4318 8.69097 59.3198 9.34291 60.2692 9.90449C61.6288 10.6929 63.0418 11.3863 64.4981 11.9799C64.6627 12.0483 64.8482 12.1813 65.0079 12.0226C65.1675 11.8639 65.0079 11.7089 64.9464 11.5746C63.9147 9.16099 64.1788 6.73032 64.8236 4.28987C64.9342 3.86746 65.1159 3.89676 65.4156 4.12262C66.9497 5.27753 68.5563 6.32012 70.3041 7.12587C71.0644 7.47625 71.8357 7.80344 72.6034 8.13917C72.7262 8.19411 72.8773 8.3174 72.9903 8.17578C73.0861 8.0537 72.9719 7.91087 72.9129 7.7839C71.7952 5.3288 72.0531 2.83463 72.698 0.336804C72.779 0.0242698 72.9154 -0.119789 73.247 0.137807C75.9983 2.27915 79.1709 3.63794 82.3557 4.97476C83.4612 5.43989 84.5752 5.91114 85.672 6.41413C86.0282 6.57772 86.2235 6.49226 86.4471 6.21635C87.184 5.29828 87.9591 4.40341 88.6948 3.48168C88.9589 3.15083 89.1861 3.04705 89.6221 3.21308C92.226 4.20318 93.3548 6.26518 92.7112 8.97299C92.6277 9.32826 92.7284 9.51626 93.0612 9.61149C94.8754 10.1279 96.197 11.3451 97.5284 12.5989C101.045 15.9134 104.614 19.1719 108.161 22.4522C108.311 22.5914 108.448 22.7452 108.605 22.8746C108.886 23.1078 108.876 23.341 108.655 23.6071C107.319 25.2235 105.985 26.8424 104.655 28.4636C104.578 28.5594 104.475 28.6313 104.358 28.6711C104.241 28.7109 104.115 28.7168 103.995 28.6883C102.175 28.4356 100.355 28.1804 98.5344 27.9338C98.2469 27.8959 98.1659 27.714 98.1339 27.4772C98.0713 27.0352 97.9816 26.5945 97.9558 26.1489C97.9337 25.7741 97.7827 25.624 97.4068 25.5727C95.18 25.2711 92.9568 24.9464 90.7325 24.629C89.5791 24.4642 88.4258 24.3104 87.2749 24.1321C86.8438 24.0662 86.5613 24.1907 86.2776 24.5374C83.0972 28.4303 79.907 32.3158 76.707 36.194C74.2357 39.1956 71.7653 42.1976 69.2957 45.2001C69.0378 45.515 68.8044 45.6054 68.4126 45.4333C62.9673 43.0599 57.5183 40.6952 52.0657 38.339C48.8268 36.9362 46.9439 34.4787 46.3224 31.0469C46.1995 30.3632 46.2254 29.6637 46.2745 28.9715C46.3064 28.5088 46.1099 28.3147 45.7279 28.1572C44.3154 27.5724 42.8525 27.0731 41.5874 26.1978C39.0683 24.4568 37.6791 22.0591 37.5232 18.9948C37.501 18.5517 37.4126 18.111 37.5232 17.6617C37.6263 17.2527 37.2775 17.1514 36.9987 17.0342C35.9289 16.5764 34.8591 16.121 33.8126 15.6107C30.9102 14.1982 29.2791 11.8688 28.7153 8.74714C28.3997 6.99891 28.7927 5.31903 29.1857 3.63428C29.295 3.16548 29.483 3.25826 29.7753 3.46581C30.7383 4.14703 31.7184 4.80139 32.733 5.40937C34.1553 6.26395 35.6808 6.90124 37.1891 7.55805C40.4292 8.96079 43.6755 10.3501 46.9169 11.7504C50.2151 13.1755 53.5122 14.6023 56.808 16.0306C56.9233 16.0682 57.0423 16.0932 57.163 16.1051C57.1924 16.1259 57.2367 16.171 57.2477 16.1649C57.3288 16.1137 57.287 16.0685 57.233 16.0319ZM48.2925 30.2009C48.6118 32.8257 49.818 34.8767 52.2426 36.1146C52.9316 36.4662 53.6514 36.7592 54.3625 37.0669C58.8236 38.9982 63.2838 40.9304 67.7432 42.8634C68.1854 43.0563 68.404 42.9672 68.7012 42.5997C70.9452 39.8333 73.2175 37.0901 75.4824 34.3395C78.7189 30.4109 81.9664 26.492 85.1783 22.5426C85.6057 22.0176 86.0184 21.8259 86.6817 21.9224C90.5838 22.4913 94.4897 23.0211 98.3919 23.5852C99.77 23.7829 99.7663 23.8025 99.9554 25.2052C99.9879 25.3438 100.013 25.484 100.032 25.6252C100.043 25.928 100.195 26.0354 100.49 26.0696C101.341 26.1709 102.191 26.293 103.037 26.4261C103.185 26.4612 103.341 26.4511 103.483 26.397C103.625 26.343 103.747 26.2476 103.834 26.1233C104.377 25.436 104.94 24.7694 105.496 24.0882C106.162 23.2641 106.163 23.4777 105.406 22.777C101.96 19.5654 98.5073 16.3603 95.0486 13.1617C94.4786 12.6318 93.8817 12.1728 93.13 11.8932C92.1941 11.5453 91.2876 11.1094 90.3726 10.7054C89.4035 10.2768 89.4059 10.2744 90.0385 9.46987C90.1527 9.32581 90.267 9.18175 90.3677 9.02915C91.0223 8.04515 90.9707 6.89146 90.2449 6.03443C89.8334 5.55342 89.7056 5.54611 89.3065 6.02712C88.5621 6.91711 87.8055 7.79854 87.0833 8.70684C86.8377 9.02182 86.6104 9.0841 86.2493 8.91806C85.451 8.55181 84.6329 8.22828 83.8346 7.86569C80.7897 6.48126 77.6184 5.35932 74.7455 3.61719C74.2235 3.30099 74.1608 3.52074 74.1719 3.96268C74.2443 6.64852 75.351 8.78621 77.6785 10.2134C79.0751 11.068 80.6374 11.5844 82.1371 12.2253C83.6958 12.8919 83.6896 12.8723 82.567 14.1445C82.2808 14.4692 82.0401 14.4753 81.6704 14.3117C79.6536 13.4193 77.6171 12.5671 75.604 11.6686C72.6243 10.3403 69.5463 9.21228 66.752 7.49456C66.3098 7.22232 66.2902 7.47014 66.2951 7.81075C66.3393 10.8421 67.6461 13.1617 70.3999 14.4912C72.8797 15.69 75.4529 16.6984 77.9832 17.7874C79.2986 18.3575 79.1721 18.1976 78.3516 19.1633C78.2699 19.2543 78.196 19.3519 78.1306 19.4551C77.8849 19.858 77.584 19.9251 77.1479 19.7212C76.1653 19.261 75.1692 18.8459 74.1842 18.3991C69.0722 16.0868 63.7563 14.2189 58.8592 11.4403C58.53 11.2547 58.4232 11.3548 58.4207 11.7028C58.4011 13.6952 59.0275 15.4312 60.4007 16.9133C61.4201 18.0121 62.7343 18.5883 64.0719 19.1596C67.247 20.5099 70.4024 21.9053 73.5774 23.2555C74.6153 23.6963 74.6313 23.6584 73.882 24.5484C73.8124 24.6239 73.7499 24.7057 73.6953 24.7926C73.4202 25.2589 73.0812 25.3322 72.5751 25.1002C70.8286 24.3067 69.0623 23.5546 67.301 22.7928C62.2668 20.6165 57.2309 18.4414 52.1934 16.2675C48.4645 14.6535 44.7269 13.0591 41.0163 11.4098C37.7172 9.94477 34.3039 8.71662 31.1829 6.87194C30.7358 6.60702 30.6609 6.6998 30.6523 7.17593C30.5982 10.123 32.319 12.7918 35.1158 14.0126C39.4933 15.9196 43.874 17.82 48.2581 19.7139C55.0422 22.6439 61.8279 25.5678 68.6152 28.4856C70.1567 29.1485 70.1444 29.1339 69.0329 30.3913C68.7663 30.6941 68.5686 30.7442 68.205 30.5842C65.7952 29.5197 63.3796 28.4677 60.9583 27.4284C57.1916 25.8006 53.425 24.1728 49.6583 22.545C46.4907 21.174 43.3291 19.792 40.1614 18.4223C39.5608 18.1634 39.4687 18.2159 39.5154 18.8556C39.7144 21.5207 40.9414 23.5949 43.323 24.8573C45.4859 26.0049 47.7951 26.8521 50.0415 27.8263C54.9488 29.9571 59.8619 32.0773 64.7806 34.1869C65.552 34.5202 65.5544 34.5165 65.0263 35.1892C64.8764 35.3809 64.7057 35.5555 64.5694 35.7593C64.3127 36.1341 64.0191 36.1525 63.6187 35.9693C62.5427 35.481 61.4496 35.022 60.3638 34.5507C56.5972 32.9164 52.8305 31.2829 49.0639 29.6503C48.3453 29.3439 48.2618 29.4208 48.2925 30.2009Z" fill="black"/>
<path d="M76.1875 61.1124C78.1736 59.2507 80.3636 58.9711 82.7575 59.8916C83.4268 60.1582 83.9999 60.6189 84.4021 61.2138C84.5827 61.4701 84.6883 61.5947 84.9573 61.2662C86.5614 59.3068 89.8556 58.91 91.9829 59.9368C93.77 60.7999 94.4468 62.3784 94.5021 64.2219C94.5733 66.6391 94.5156 69.0601 94.534 71.4798C94.534 71.8265 94.4038 71.8814 94.1078 71.8692C93.6169 71.84 93.1246 71.842 92.6339 71.8753C92.2187 71.9119 92.1782 71.7386 92.1807 71.387C92.1942 69.2114 92.204 67.0347 92.1807 64.8592C92.1684 63.8935 91.9964 62.951 91.2275 62.249C89.5682 60.734 86.5319 61.4921 85.709 63.6188C85.4913 64.2322 85.3909 64.8806 85.413 65.5306C85.413 67.4632 85.397 69.3946 85.413 71.3259C85.413 71.752 85.3049 71.9009 84.8713 71.8655C84.4217 71.8288 83.9698 71.8288 83.5202 71.8655C83.1272 71.8973 83.0437 71.7508 83.0461 71.3858C83.0609 69.2924 83.0609 67.1983 83.0461 65.1033C83.0478 64.6568 83.0029 64.2112 82.9122 63.7738C82.4995 61.8816 80.9618 61.2931 79.3503 61.5239C77.3691 61.8083 76.3263 63.078 76.2686 65.2755C76.2158 67.2667 76.2367 69.2603 76.2526 71.2576C76.2526 71.6983 76.1937 71.9278 75.6717 71.868C75.1079 71.8069 74.3537 72.0377 74.0172 71.7459C73.6807 71.4541 73.9104 70.6777 73.9091 70.1149C73.8993 66.8418 73.9177 63.5675 73.8895 60.2945C73.8895 59.6963 73.9939 59.4008 74.6669 59.5009C75.0541 59.5394 75.4442 59.5394 75.8313 59.5009C76.1028 59.4863 76.1998 59.5888 76.1851 59.8476C76.1777 60.2456 76.1875 60.6302 76.1875 61.1124Z" fill="#0B0C0D"/>
<path d="M10.3074 62.7056L8.57559 67.1506C8.00813 68.6046 7.42962 70.0538 6.88673 71.5163C6.77742 71.8118 6.63251 71.8752 6.35492 71.8655C5.7629 71.8447 5.06771 72.0376 4.60588 71.7898C4.14406 71.542 4.11456 70.7753 3.91067 70.2332C2.62837 66.8417 1.37065 63.4417 0.0858916 60.0527C-0.0750101 59.6266 -0.0369341 59.4764 0.454369 59.5131C1.00217 59.5534 1.68261 59.3458 2.06828 59.6034C2.45396 59.861 2.5117 60.5544 2.69963 61.0623C3.63392 63.5894 4.56576 66.117 5.49514 68.6449C5.54427 68.7755 5.60444 68.9037 5.69779 69.1259C6.31192 67.5388 6.88676 66.0274 7.46404 64.5173C8.05115 62.9827 8.64316 61.4505 9.21308 59.9111C9.31993 59.6229 9.44522 59.5131 9.77071 59.5106C11.3159 59.4935 11.3195 59.4801 11.8649 60.9366C12.8524 63.5752 13.8379 66.2142 14.8213 68.8537C14.8471 68.9196 14.8729 68.9867 14.9539 69.1992C15.4809 67.8025 15.9562 66.5451 16.4279 65.2864C17.096 63.5028 17.7703 61.7216 18.4225 59.9318C18.5368 59.6181 18.678 59.4862 19.0281 59.5094C19.5574 59.5436 20.0905 59.518 20.6997 59.518C20.2355 60.7717 19.792 61.9804 19.3388 63.1805C18.3046 65.9273 17.2508 68.6742 16.2375 71.4211C16.1048 71.7873 15.9353 71.885 15.5803 71.8655C15.0104 71.8337 14.3017 72.0401 13.9075 71.7727C13.5132 71.5053 13.4309 70.7863 13.2282 70.2589C12.3333 67.9368 11.4415 65.6136 10.5531 63.2891C10.488 63.1328 10.418 62.9741 10.3074 62.7056Z" fill="#0B0C0D"/>
<path d="M25.157 61.1365C26.5388 59.752 28.1281 59.337 29.8919 59.4041C32.5941 59.5079 34.4831 61.2634 34.5887 63.9566C34.6858 66.4532 34.6342 68.9547 34.6612 71.455C34.6612 71.7748 34.5642 71.8823 34.2412 71.8652C33.7717 71.8322 33.3006 71.8322 32.8311 71.8652C32.3804 71.9055 32.3005 71.7248 32.3018 71.317C32.3018 69.0206 32.3177 66.723 32.2588 64.4279C32.2145 62.6467 31.0366 61.5394 29.2532 61.482C26.7365 61.399 25.2122 62.8542 25.1729 65.4277C25.1422 67.3811 25.1533 69.3344 25.1729 71.2816C25.1729 71.6967 25.1324 71.9323 24.6264 71.8652C24.0466 71.7895 23.2642 72.1093 22.9277 71.7431C22.639 71.4232 22.827 70.6651 22.827 70.0999C22.827 65.1396 22.827 60.1806 22.8159 55.2203C22.8159 54.7625 22.9043 54.5562 23.4116 54.6099C23.8397 54.6514 24.2708 54.6514 24.6988 54.6099C25.0833 54.5769 25.1729 54.7027 25.1693 55.0799C25.141 57.054 25.157 59.0244 25.157 61.1365Z" fill="#0B0C0D"/>
<path d="M122.191 66.4816C122.514 68.7902 124.518 70.1087 126.964 69.9561C128.069 69.8865 129.077 69.5215 129.878 68.7255C130.086 68.5204 130.213 68.4813 130.395 68.7402C130.577 68.999 130.783 69.2102 130.984 69.4409C131.503 70.0391 131.508 70.0428 130.879 70.558C129.77 71.4724 128.375 71.9752 126.934 71.9803C125.738 72.0047 124.571 71.9143 123.459 71.4272C120.735 70.2332 119.569 67.65 119.862 64.98C120.17 62.1721 121.802 60.2444 124.378 59.6083C128.677 58.5535 132.405 61.3981 132.23 66.0787C132.214 66.5317 131.959 66.478 131.669 66.4767C128.743 66.4767 125.818 66.4767 122.892 66.4767L122.191 66.4816ZM126.085 64.7724C127.212 64.7724 128.337 64.7492 129.462 64.7834C129.931 64.7981 129.953 64.6137 129.868 64.2511C129.451 62.5115 127.86 61.3309 125.965 61.3639C125.099 61.3682 124.261 61.6647 123.588 62.2049C122.914 62.745 122.445 63.4967 122.258 64.3366C122.154 64.7822 122.306 64.7883 122.649 64.7847C123.795 64.7663 124.941 64.7749 126.085 64.7749V64.7724Z" fill="#0B0C0D"/>
<path d="M39.0498 62.7494C38.8299 62.3611 38.6506 61.9448 38.3841 61.5944C38.0021 61.0951 38.1925 60.8619 38.6678 60.5897C40.7939 59.3689 43.0576 59.0917 45.4023 59.6924C47.3565 60.1929 48.473 61.6714 48.5553 63.9018C48.6425 66.4399 48.5835 68.9842 48.5958 71.5259C48.5958 71.786 48.5148 71.8995 48.2445 71.869C48.1018 71.8611 47.9587 71.8611 47.8159 71.869C47.3651 71.869 46.8149 72.0265 46.4918 71.8251C46.1381 71.6029 46.466 71.001 46.3051 70.4956C45.6197 71.2868 44.6581 71.7906 43.614 71.9056C42.5798 72.0277 41.537 72.0741 40.5163 71.7713C38.6039 71.2036 37.6717 69.9181 37.7737 67.9867C37.8572 66.407 39.0461 65.2093 40.8762 64.8846C42.4595 64.6038 44.0599 64.7381 45.6517 64.7357C46.143 64.7357 46.2867 64.6136 46.2523 64.1252C46.143 62.554 45.2107 61.5871 43.6251 61.465C41.8576 61.332 40.6785 61.6579 39.0498 62.7494ZM46.2535 67.3373C46.2535 67.1541 46.2425 66.971 46.2535 66.7891C46.2719 66.5449 46.1933 66.4058 45.9182 66.4131C44.5733 66.4509 43.2222 66.3423 41.8809 66.4949C40.7288 66.6255 40.0533 67.3019 40.0557 68.2541C40.0557 69.2308 40.762 69.9633 41.8662 70.133C42.4319 70.2186 43.0072 70.2207 43.5735 70.1391C45.0007 69.9267 46.4918 68.6301 46.2535 67.3312V67.3373Z" fill="#0B0C0D"/>
<path d="M107.33 61.1517C108.772 59.6318 110.543 59.224 112.462 59.4425C115.235 59.7563 116.799 61.5582 116.853 64.4541C116.897 66.7737 116.853 69.0932 116.87 71.4128C116.87 71.7327 116.819 71.9012 116.444 71.8719C115.818 71.8169 115.007 72.1246 114.622 71.7498C114.321 71.4531 114.529 70.6364 114.528 70.0516C114.523 68.4238 114.523 66.796 114.528 65.1683C114.536 64.6604 114.476 64.1537 114.348 63.6617C113.923 62.1113 112.497 61.2762 110.715 61.5143C108.627 61.7926 107.459 63.0391 107.416 65.139C107.374 67.1924 107.385 69.2459 107.406 71.2993C107.406 71.7437 107.319 71.9305 106.84 71.8767C106.258 71.8108 105.474 72.1209 105.139 71.7547C104.849 71.436 105.042 70.673 105.04 70.1065C105.04 66.7724 105.053 63.4371 105.029 60.103C105.029 59.6147 105.174 59.4486 105.644 59.5292C105.664 59.5304 105.685 59.5304 105.705 59.5292C106.213 59.5402 106.866 59.3644 107.19 59.6135C107.53 59.8686 107.23 60.5523 107.33 61.1517Z" fill="#0B0C0D"/>
<path d="M65.8776 71.9713C64.2358 72.0377 62.6067 71.6606 61.1635 70.8799C60.7877 70.6797 60.6575 70.4795 60.9179 70.0827C61.1783 69.6859 61.2863 69.0621 61.6548 68.8619C62.0233 68.6617 62.4397 69.2171 62.8708 69.3697C64.4331 69.9203 66.0127 70.25 67.661 69.7812C68.5404 69.5309 68.8966 69.0963 68.8892 68.3442C68.8819 67.7412 68.4458 67.2833 67.6008 67.0966C66.3885 66.8267 65.1578 66.6339 63.9492 66.3494C61.9668 65.8818 61.0923 64.8038 61.1242 62.9518C61.1475 61.5601 62.14 60.2892 63.6864 59.8033C66.009 59.0708 68.2739 59.3272 70.4811 60.3087C70.8422 60.4686 70.8581 60.6322 70.669 60.9387C70.4135 61.3525 70.3005 61.9239 69.9406 62.1851C69.5132 62.4989 69.1079 61.9153 68.6694 61.7847C67.3723 61.3989 66.0765 61.2463 64.7513 61.6016C64.3505 61.6942 63.9911 61.9145 63.7281 62.2291C63.2368 62.8395 63.3498 63.6489 64.0254 64.0689C64.9355 64.6341 66.0016 64.6537 67.0063 64.8881C67.6782 65.0443 68.3574 65.1628 69.0158 65.3764C70.1691 65.7585 71.0289 66.4532 71.2008 67.7424C71.3912 69.161 70.938 70.3061 69.695 71.0875C68.4987 71.8297 67.1844 72.0361 65.8776 71.9713Z" fill="#0B0C0D"/>
<path d="M52.9464 65.1415C52.9464 64.1038 52.9169 63.0661 52.9611 62.0308C52.982 61.5242 52.7916 61.3862 52.3396 61.4546C52.3192 61.4558 52.2987 61.4558 52.2782 61.4546C50.6938 61.4546 50.7011 61.4546 50.8276 59.8517C50.8497 59.5806 50.9431 59.5062 51.1961 59.5159C51.6248 59.533 52.0559 59.4939 52.4846 59.5281C52.8813 59.5611 52.9759 59.406 52.9537 59.0398C52.9243 58.4294 52.9538 57.819 52.9304 57.2085C52.9194 56.9168 53.0078 56.7874 53.3063 56.8313C53.3267 56.8325 53.3472 56.8325 53.3677 56.8313C53.9818 56.8399 54.7777 56.6201 55.1548 56.9204C55.5319 57.2207 55.2592 58.0607 55.2776 58.6613C55.2997 59.5159 55.285 59.5159 56.1595 59.5159C56.9173 59.5159 57.6739 59.5281 58.4306 59.5159C58.7167 59.5086 58.8076 59.5806 58.8236 59.8822C58.9047 61.4595 58.9145 61.4595 57.3657 61.4595C56.8142 61.4595 56.2602 61.4754 55.7087 61.4595C55.4029 61.4485 55.2776 61.5242 55.2801 61.8599C55.2948 63.9537 55.2604 66.0498 55.301 68.1436C55.3317 69.81 56.8301 70.5852 58.4183 69.749C58.8875 69.5048 59.0877 69.5292 59.1921 70.0371C59.1995 70.0563 59.209 70.0747 59.2203 70.092C59.7583 71.3043 59.7178 71.4349 58.3986 71.8012C56.7417 72.2517 54.693 72.0124 53.7165 70.7183C53.1171 69.926 52.9611 69.0274 52.9501 68.0813C52.9378 67.0936 52.9464 66.117 52.9464 65.1415Z" fill="#0B0C0D"/>
<path d="M137.451 61.177C138.556 59.9195 139.94 59.5008 141.479 59.3994C141.808 59.3775 141.996 59.4324 141.929 59.806C141.927 59.8263 141.927 59.8467 141.929 59.867C141.929 60.4152 142.119 61.0793 141.875 61.481C141.643 61.8606 140.909 61.6214 140.401 61.7154C138.904 61.9913 137.772 63.2158 137.63 64.8578C137.449 66.9466 137.564 69.0428 137.572 71.1353C137.572 71.775 137.387 71.9521 136.791 71.8678C136.274 71.7958 135.575 72.0973 135.277 71.7323C135.023 71.4247 135.202 70.763 135.2 70.2575C135.2 66.8819 135.213 63.5075 135.184 60.1319C135.184 59.6094 135.328 59.4519 135.826 59.5215C136.364 59.5911 137.089 59.2773 137.398 59.657C137.656 59.9635 137.451 60.6532 137.451 61.177Z" fill="#0B0C0D"/>
<path d="M98.5516 65.6859C98.5516 63.7949 98.5602 61.9014 98.543 60.0115C98.543 59.6355 98.6106 59.4633 99.0343 59.5134C99.6362 59.5842 100.446 59.2619 100.791 59.6477C101.089 59.981 100.889 60.7672 100.889 61.3569C100.889 64.6714 100.882 67.9872 100.901 71.3018C100.901 71.7559 100.796 71.9183 100.326 71.8768C99.7602 71.8255 99.0122 72.0514 98.6683 71.7681C98.3244 71.4849 98.5614 70.7048 98.5565 70.1432C98.5442 68.655 98.5529 67.1705 98.5516 65.6859Z" fill="#0B0C0D"/>
<path d="M99.6963 57.2414C98.78 57.2316 98.1303 56.5992 98.1438 55.7288C98.1585 54.8742 98.8488 54.2638 99.7614 54.2736C100.631 54.287 101.286 54.9255 101.281 55.7544C101.275 56.6102 100.593 57.2561 99.6963 57.2414Z" fill="#0B0C0D"/>
<path d="M57.2331 16.0322C57.2871 16.0689 57.3289 16.1104 57.2503 16.1604C57.2392 16.1604 57.195 16.1214 57.1655 16.1006C57.1876 16.0774 57.2098 16.0542 57.2331 16.0322Z" fill="#FEFEFE"/>
<path d="M93.7221 15.2967C93.4568 15.619 93.1227 15.9547 92.8758 16.3442C92.5074 16.9143 92.1315 16.6445 91.7188 16.4565C91.2177 16.227 90.7092 16.0133 90.2007 15.8021C89.8887 15.6715 89.8101 15.5348 90.0373 15.2173C90.9942 13.8744 90.9843 13.8744 92.5135 14.5202C92.8329 14.6557 93.1498 14.7986 93.4691 14.9329C93.5481 14.9534 93.617 15.0015 93.6634 15.0682C93.7098 15.1349 93.7307 15.216 93.7221 15.2967Z" fill="black"/>
</g>
<defs>
<clipPath id="clip0_103_1857">
<rect width="142" height="72" fill="white"/>
</clipPath>
</defs>
</svg>
