<svg width="185" height="19" viewBox="0 0 185 19" fill="none" xmlns="http://www.w3.org/2000/svg">
<g clip-path="url(#clip0_103_1856)">
<path d="M10.7726 0.102295L27.2938 9.14558V0.693557L27.8758 0.587422C28.0147 1.1332 28.2851 1.68278 28.2776 2.23235C28.2288 5.68897 28.1011 9.14937 28.0372 12.606C27.9997 14.6223 28.0372 16.6349 28.0372 18.8294L11.8239 9.99077V18.3556L11.3133 18.4921C11.1331 18.1131 10.8026 17.7113 10.7989 17.3209C10.7613 11.6926 10.7726 6.0604 10.7726 0.102295Z" fill="black"/>
<path d="M30.643 0.102295L47.1642 9.14558V0.693557L47.7461 0.587422C47.885 1.13699 48.1554 1.68657 48.1479 2.23235C48.0991 5.69276 47.9715 9.14937 47.9076 12.6098C47.8701 14.6223 47.9076 16.6349 47.9076 18.8294L31.6905 9.99077V18.3556L31.1799 18.4921C31.0034 18.1131 30.6692 17.7113 30.6692 17.3171C30.6316 11.6888 30.643 6.0604 30.643 0.102295Z" fill="black"/>
<path d="M184.752 18.8294L168.505 9.97184V18.3556L168.013 18.4921C167.84 18.1434 167.521 17.7985 167.518 17.446C167.487 11.7608 167.495 6.07558 167.495 0.0947266L183.888 9.07358V0.735262L184.587 0.591235C184.733 1.15218 185.007 1.72828 184.996 2.27406C184.951 5.42367 184.816 8.57328 184.76 11.7229C184.718 14.0387 184.752 16.3544 184.752 18.8294Z" fill="black"/>
<path d="M83.9878 2.60394C82.6924 2.11122 81.4308 1.49342 80.0941 1.17884C79.4107 1.01965 78.5922 1.40625 77.8412 1.55785C78.0477 2.2704 78.0665 3.13835 78.4983 3.66897C80.1842 5.73081 82.0654 7.63346 83.7551 9.68772C86.8978 13.4779 85.5536 17.6091 80.7099 18.6438C77.7586 19.273 74.7284 19.2768 72.1714 17.1998C71.7342 16.7735 71.3394 16.3051 70.9924 15.8012L71.3679 15.3729C71.8083 15.7075 72.2741 16.0066 72.7609 16.2674C74.075 16.9231 75.434 17.483 76.8274 17.9426C77.3418 18.0905 78.0477 17.6015 78.6635 17.4044C78.4833 16.8549 78.4382 16.1916 78.0928 15.7747C76.6734 14.0578 75.1527 12.4204 73.6846 10.7376C73.1855 10.1899 72.7286 9.60456 72.3179 8.98655C69.9111 5.19641 71.1238 1.63746 75.5282 0.57622C77.5971 0.079711 79.9326 0.49283 82.1217 0.7354C82.8952 0.822573 83.5899 1.62607 84.322 2.09984L83.9878 2.60394Z" fill="black"/>
<path d="M155.964 0.16294C161.442 0.16294 165.561 4.21082 165.569 9.59282C165.569 14.899 161.363 18.9204 155.851 18.9014C150.422 18.9014 146.292 14.7323 146.355 9.37299C146.416 4.08574 150.535 0.140199 155.964 0.16294ZM155.055 17.9766C158.589 18.0752 161.378 16.9609 163.207 14.141C165.163 11.1089 165.223 7.92136 163.207 4.89303C161.33 2.09212 158.581 0.96644 155.055 1.07635V17.9766Z" fill="black"/>
<path d="M59.8556 18.886C54.4074 18.886 50.0931 14.8343 50.202 9.48261C50.3371 3.38806 55.1771 0.105794 59.7167 0.079263C64.4666 0.052732 69.2802 3.29708 69.4792 9.6342C69.6407 14.7774 65.2475 18.8822 59.8556 18.886ZM58.7592 9.4106C58.7592 11.8249 58.7968 14.2392 58.7592 16.6536C58.7329 17.7338 59.1648 18.0483 60.2011 18.0104C62.4203 17.9495 64.5289 17.0196 66.081 15.4174C67.6332 13.8153 68.5071 11.6666 68.518 9.42575C68.518 4.92306 64.7632 1.15565 60.2199 1.01542C59.2061 0.981306 58.7179 1.25042 58.7592 2.35335C58.7968 4.71082 58.7592 7.05692 58.7592 9.4106Z" fill="black"/>
<path d="M107.027 17.7833H115.318L115.284 18.3253H99.0972V0.674561H107.027V17.7833Z" fill="black"/>
<path d="M7.88122 0.701172V18.3557H-0.00390625V0.704966L7.88122 0.701172Z" fill="black"/>
<path d="M144.542 4.77562C144.14 4.39661 143.734 4.0176 143.336 3.63858C141.746 2.11386 139.681 1.1924 137.494 1.03096C136.367 0.913464 135.955 1.33797 135.97 2.48638C136.02 7.18869 136.02 11.891 135.97 16.5933C135.97 17.7986 136.484 18.1094 137.55 18.007C140.13 17.7228 142.36 16.798 143.956 14.6565C144.362 14.1145 144.846 13.637 145.612 12.7615C145.06 16.4606 141.181 18.9243 136.796 18.8864C131.738 18.8371 128.066 15.5245 127.536 10.0856C127.161 6.20072 129.29 1.81552 134.494 0.344943C138.68 -0.833792 143.505 1.12951 144.883 4.42314L144.542 4.77562Z" fill="black"/>
<path d="M88.0281 0.65918H95.7255V18.3743H88.0281V0.65918Z" fill="black"/>
<path d="M124.994 18.4354H117.323V0.727783H124.994V18.4354Z" fill="black"/>
</g>
<defs>
<clipPath id="clip0_103_1856">
<rect width="185" height="19" fill="white"/>
</clipPath>
</defs>
</svg>
