<svg width="134" height="23" viewBox="0 0 134 23" fill="none" xmlns="http://www.w3.org/2000/svg">
<path fill-rule="evenodd" clip-rule="evenodd" d="M48.7373 7.9209H41.3142L37.2989 16.6333L33.505 7.9209H26.1557L33.7815 22.6189H41.1122L48.7373 7.9209ZM30.2261 22.6189C25.0684 17.3703 21.5696 6.6682 18.2169 0H7.86504L8.41726 0.810781L18.5112 20.4265C20.5561 24.4797 26.3397 21.864 30.2261 22.6189ZM120.111 7.9209L112.209 7.90228L112.486 22.6189H119.43L119.301 15.2509L126.632 22.6189H134V7.90228H126.908L126.964 14.8835L120.111 7.9209ZM16.0617 17.4247C15.1406 17.3703 14.1465 17.4426 13.2068 17.4627C11.8624 17.5171 10.5918 17.4992 9.52313 16.8725C10.5359 14.9938 11.8438 13.2075 12.5249 11.1619L9.52313 4.88118H8.9702L0 22.6189H18.5112L16.0617 17.4247ZM77.6004 18.807V7.90228H70.2704V22.6189H87.4C87.0125 21.4407 86.8477 20.2252 85.7784 19.3593L77.6004 18.807ZM98.1737 7.35006C92.8326 7.36797 88.3382 9.61553 86.827 12.709C86.1272 14.1651 86.1093 15.859 86.827 17.2958C88.3375 20.3541 92.9609 22.6003 98.3019 22.6189C104.914 22.6189 110.312 19.1745 110.312 14.9938C110.312 10.7758 104.787 7.35006 98.1737 7.35006ZM98.1737 19.2676C95.853 19.2676 93.9378 17.4433 93.9378 15.1965C93.9378 12.9482 95.853 11.144 98.1737 11.144C100.494 11.144 102.411 12.9683 102.411 15.1965C102.411 17.4433 100.495 19.2676 98.1737 19.2676ZM60.7286 7.90228H52.8449L45.2198 22.6189H51.9432L53.3427 20.6857L59.3842 20.6299L61.0051 22.6189H68.3537L60.7286 7.90228ZM54.8712 17.3703L56.492 14.3864L58.2053 17.3703H54.8712Z" fill="black"/>
</svg>
