<svg width="151" height="19" viewBox="0 0 151 19" fill="none" xmlns="http://www.w3.org/2000/svg">
<g clip-path="url(#clip0_103_1855)">
<path d="M19.2984 9.12155C19.5937 9.30939 19.791 9.44484 19.9978 9.56404C20.2961 9.72733 20.5519 9.95921 20.7444 10.2408C20.9369 10.5224 21.0606 10.8458 21.1056 11.1847C21.3444 12.6786 21.3671 14.1994 21.1731 15.6999C20.9938 17.0743 20.069 17.9274 18.8417 18.4885C18.1667 18.7961 17.4535 18.8353 16.7392 18.8497C14.4675 18.8931 12.197 18.9246 9.9277 18.9442C6.71148 18.9707 3.49466 18.9816 0.277833 18.9978C0.190553 18.9978 0.103859 18.987 -0.00195312 18.9798V-0.000976562H0.300543C5.10037 0.0423695 9.9008 0.0790949 14.7006 0.136288C15.635 0.147124 16.5766 0.18144 17.499 0.316896C18.0753 0.400578 18.6444 0.644998 19.1764 0.90086C20.1395 1.36382 20.6823 2.18619 20.8928 3.22228C21.1235 4.35831 21.1725 5.50397 20.9777 6.65384C20.8684 7.37299 20.5142 8.03149 19.9757 8.51651C19.7653 8.70916 19.5513 8.8988 19.2984 9.12155ZM3.70926 10.7085C3.69714 10.7641 3.68876 10.8204 3.68416 10.8771C3.68416 12.5381 3.68416 14.1991 3.67818 15.8594C3.67818 16.0864 3.79774 16.0894 3.96154 16.0888C7.64466 16.0702 11.3284 16.0575 15.0121 16.0322C15.4799 16.0313 15.9468 15.991 16.408 15.9118C16.8701 15.83 17.3406 15.6253 17.4302 15.1165C17.6139 14.0196 17.6394 12.9018 17.5062 11.7976C17.4494 11.2901 16.8486 10.8042 16.3398 10.7994C12.7063 10.7689 9.07283 10.7386 5.43933 10.7085C4.86483 10.7049 4.29094 10.7085 3.70926 10.7085ZM3.70926 3.09405V7.81334H3.9723C6.46218 7.81334 8.95148 7.82238 11.4408 7.80251C12.9353 7.79107 14.4268 7.74231 15.9196 7.69053C16.717 7.66465 17.2347 7.32932 17.2945 6.66709C17.3712 5.81253 17.3822 4.95329 17.3274 4.09703C17.2939 3.52932 16.6937 3.09224 16.1318 3.09224H3.70926V3.09405Z" fill="black"/>
<path d="M72.2372 15.2724C72.4524 14.9907 72.6389 14.7589 72.8135 14.5175C76.2349 9.78152 79.6538 5.04376 83.0701 0.304199C83.2196 0.0964994 83.369 0.00318592 83.6285 0.0116143C84.5031 0.0302772 85.3783 0.0188383 86.2762 0.0188383V18.9628H82.9003V6.29137L82.7856 6.26307C82.7126 6.35939 82.6379 6.45512 82.5668 6.55325C79.6518 10.6069 76.7385 14.6626 73.8268 18.7202C73.6887 18.9135 73.547 18.9851 73.3132 18.9821C72.4871 18.9701 71.6605 18.9721 70.8335 18.9881C70.6213 18.9923 70.4958 18.9279 70.3696 18.7533C67.4312 14.6909 64.4889 10.6312 61.5429 6.57432C61.4556 6.45391 61.3636 6.33351 61.2781 6.21732L61.183 6.22996V18.9671H57.8108V0.119376C58.017 0.104927 58.1641 0.0892741 58.3112 0.0850599C59.1176 0.0597748 59.9253 0.0507439 60.7299 0.00559183C61.0157 -0.0106629 61.1699 0.0904798 61.3337 0.31624C64.7285 4.99761 68.129 9.67476 71.5354 14.3477C71.7506 14.6469 71.9789 14.9353 72.2372 15.2724Z" fill="black"/>
<path d="M147.88 0.105585L151.001 0.00805664V18.9816C150.403 18.9816 149.809 18.9876 149.216 18.9755C149.13 18.9755 149.041 18.8919 148.962 18.8341C142.578 14.1503 136.195 9.46551 129.811 4.77973C129.717 4.7111 129.621 4.64487 129.439 4.51664V18.9653H126.228V0.133878C126.404 0.115818 126.527 0.0959499 126.652 0.0917357C127.409 0.0646445 128.165 0.0315338 128.924 0.0249115C129.106 0.0269229 129.284 0.0846402 129.434 0.190469C135.041 4.3842 140.644 8.58214 146.245 12.7843C146.705 13.1293 147.177 13.4574 147.722 13.8493C147.866 9.2245 147.831 4.68822 147.88 0.105585Z" fill="black"/>
<path d="M88.5713 18.9668C88.661 18.8235 88.7315 18.7067 88.8068 18.5929C92.8444 12.4879 96.8815 6.38257 100.918 0.2768C101.028 0.109436 101.145 0.0245525 101.35 0.0305728C101.926 0.0474296 102.503 0.0516427 103.083 0.0558569C103.491 0.0558569 103.756 0.262352 103.98 0.597682C105.846 3.43384 107.731 6.25675 109.595 9.09531C111.667 12.2499 113.73 15.4104 115.785 18.5766C115.849 18.6754 115.908 18.7783 115.999 18.9276C115.73 18.9439 115.508 18.9686 115.281 18.9692C114.276 18.9746 113.27 18.9637 112.265 18.9806C111.997 18.9848 111.846 18.906 111.696 18.673C109.114 14.5996 106.525 10.5307 103.928 6.46625C103.493 5.78415 103.037 5.1165 102.589 4.44283C102.53 4.35313 102.464 4.26885 102.375 4.14182C102.277 4.27246 102.195 4.36878 102.128 4.47294C99.4582 8.56111 96.79 12.6503 94.1238 16.7405C93.682 17.4177 93.2498 18.1016 92.8008 18.7741C92.741 18.865 92.6089 18.9613 92.5091 18.9631C91.2447 18.9782 89.9797 18.977 88.7154 18.9788C88.6672 18.9772 88.6191 18.9732 88.5713 18.9668Z" fill="black"/>
<path d="M45.3105 18.9747H41.6155V3.09745H31.9482V0.0361328H54.8217V3.08721H45.3105V18.9747Z" fill="black"/>
<path d="M122.118 0.0400391V18.969H118.454V0.0400391H122.118Z" fill="black"/>
<path d="M28.8384 18.9706H25.3376V0.0410156H28.8384V18.9706Z" fill="black"/>
</g>
<defs>
<clipPath id="clip0_103_1855">
<rect width="151" height="19" fill="white"/>
</clipPath>
</defs>
</svg>
