<?xml version="1.0" encoding="UTF-8" standalone="no"?>
<svg
   width="70"
   height="70"
   viewBox="0 0 70 70"
   fill="none"
   version="1.1"
   id="svg10"
   sodipodi:docname="service_icon5.svg"
   inkscape:version="1.1 (c68e22c387, 2021-05-23)"
   xmlns:inkscape="http://www.inkscape.org/namespaces/inkscape"
   xmlns:sodipodi="http://sodipodi.sourceforge.net/DTD/sodipodi-0.dtd"
   xmlns="http://www.w3.org/2000/svg"
   xmlns:svg="http://www.w3.org/2000/svg">
  <defs
     id="defs14" />
  <sodipodi:namedview
     id="namedview12"
     pagecolor="#ffffff"
     bordercolor="#666666"
     borderopacity="1.0"
     inkscape:pageshadow="2"
     inkscape:pageopacity="0.0"
     inkscape:pagecheckerboard="0"
     showgrid="false"
     width="70px"
     inkscape:zoom="13.029851"
     inkscape:cx="33.461627"
     inkscape:cy="33.5"
     inkscape:window-width="2560"
     inkscape:window-height="1411"
     inkscape:window-x="2391"
     inkscape:window-y="-9"
     inkscape:window-maximized="1"
     inkscape:current-layer="svg10" />
  <g
     id="g835"
     transform="translate(1.094191,1.49975)">
    <path
       fill-rule="evenodd"
       clip-rule="evenodd"
       d="M 4.32904,2 C 3.93683,2 3.56068,2.15804 3.28334,2.43934 3.00601,2.72064 2.8502,3.10218 2.8502,3.5 v 15 c 0,0.3978 0.15581,0.7794 0.43314,1.0607 C 3.56068,19.842 3.93683,20 4.32904,20 c 0.54449,0 0.98589,0.4477 0.98589,1 0,0.5523 -0.4414,1 -0.98589,1 C 3.41388,22 2.5362,21.6313 1.88908,20.9749 1.24196,20.3185 0.878418,19.4283 0.878418,18.5 V 3.5 C 0.878418,2.57174 1.24196,1.6815 1.88908,1.02513 2.5362,0.368749 3.41388,0 4.32904,0 H 63.4826 c 0.9151,0 1.7928,0.368748 2.4399,1.02513 0.6471,0.65637 1.0107,1.54661 1.0107,2.47487 v 15 c 0,0.9283 -0.3636,1.8185 -1.0107,2.4749 C 65.2754,21.6313 64.3977,22 63.4826,22 c -0.5445,0 -0.9859,-0.4477 -0.9859,-1 0,-0.5523 0.4414,-1 0.9859,-1 0.3922,0 0.7683,-0.158 1.0457,-0.4393 0.2773,-0.2813 0.4331,-0.6629 0.4331,-1.0607 v -15 c 0,-0.39783 -0.1558,-0.77936 -0.4331,-1.06066 C 64.2509,2.15804 63.8748,2 63.4826,2 Z"
       fill="#000000"
       id="path2" />
    <path
       fill-rule="evenodd"
       clip-rule="evenodd"
       d="m 19.1196,14.5005 c -0.8168,0 -1.4789,0.6716 -1.4789,1.5 v 35 c 0,0.8284 0.6621,1.5 1.4789,1.5 h 29.5767 c 0.8168,0 1.4789,-0.6716 1.4789,-1.5 v -35 c 0,-0.8284 -0.6621,-1.5 -1.4789,-1.5 z m -3.4507,1.5 c 0,-1.933 1.5449,-3.5 3.4507,-3.5 h 29.5767 c 1.9058,0 3.4506,1.567 3.4506,3.5 v 35 c 0,1.933 -1.5448,3.5 -3.4506,3.5 H 19.1196 c -1.9058,0 -3.4507,-1.567 -3.4507,-3.5 z"
       fill="#000000"
       id="path4" />
    <path
       fill-rule="evenodd"
       clip-rule="evenodd"
       d="m 33.906,27 c -3.5392,0 -6.4083,2.9101 -6.4083,6.5 0,3.5899 2.8691,6.5 6.4083,6.5 3.5392,0 6.4083,-2.9101 6.4083,-6.5 0,-3.5899 -2.8691,-6.5 -6.4083,-6.5 z m -8.3801,6.5 c 0,-4.6944 3.7519,-8.5 8.3801,-8.5 4.6282,0 8.38,3.8056 8.38,8.5 0,4.6944 -3.7518,8.5 -8.38,8.5 -4.6282,0 -8.3801,-3.8056 -8.3801,-8.5 z"
       fill="#ff4b12"
       id="path6" />
    <path
       fill-rule="evenodd"
       clip-rule="evenodd"
       d="m 15.6689,66.0005 c 0,-0.5523 0.4414,-1 0.9859,-1 h 34.5063 c 0.5445,0 0.9858,0.4477 0.9858,1 0,0.5523 -0.4413,1 -0.9858,1 H 16.6548 c -0.5445,0 -0.9859,-0.4477 -0.9859,-1 z"
       fill="#ff4b12"
       id="path8" />
  </g>
</svg>
