<?xml version="1.0" encoding="UTF-8" standalone="no"?>
<svg
   width="70"
   height="70"
   viewBox="0 0 70 70"
   fill="none"
   version="1.1"
   id="svg10"
   sodipodi:docname="service_icon1.svg"
   inkscape:version="1.1 (c68e22c387, 2021-05-23)"
   xmlns:inkscape="http://www.inkscape.org/namespaces/inkscape"
   xmlns:sodipodi="http://sodipodi.sourceforge.net/DTD/sodipodi-0.dtd"
   xmlns="http://www.w3.org/2000/svg"
   xmlns:svg="http://www.w3.org/2000/svg">
  <defs
     id="defs14" />
  <sodipodi:namedview
     id="namedview12"
     pagecolor="#ffffff"
     bordercolor="#666666"
     borderopacity="1.0"
     inkscape:pageshadow="2"
     inkscape:pageopacity="0.0"
     inkscape:pagecheckerboard="0"
     showgrid="false"
     width="70px"
     inkscape:zoom="7.6578947"
     inkscape:cx="54.19244"
     inkscape:cy="45.378007"
     inkscape:window-width="2560"
     inkscape:window-height="1411"
     inkscape:window-x="2391"
     inkscape:window-y="-9"
     inkscape:window-maximized="1"
     inkscape:current-layer="svg10" />
  <g
     id="g835"
     transform="translate(1.4999873,6.49985)">
    <path
       fill-rule="evenodd"
       clip-rule="evenodd"
       d="m 35.71,0.157872 c 0.4651,-0.297728 1.0836,-0.16199584 1.3813,0.303167 L 49.2359,19.4354 c 0.1764,0.2756 0.2068,0.6201 0.0813,0.9224 L 34.4239,56.2484 c -0.2117,0.5101 -0.7968,0.752 -1.3069,0.5404 -0.5101,-0.2117 -0.752,-0.7968 -0.5404,-1.3069 L 47.2698,20.0736 35.4068,1.53921 C 35.1091,1.07405 35.2448,0.455601 35.71,0.157872 Z"
       fill="#ff4b12"
       id="path2" />
    <path
       fill-rule="evenodd"
       clip-rule="evenodd"
       d="m 31.4403,0.158878 c 0.4646,0.298596 0.5992,0.917292 0.3006,1.381902 L 19.8285,20.076 34.423,55.4841 c 0.2105,0.5106 -0.0328,1.0951 -0.5434,1.3056 -0.5107,0.2104 -1.0952,-0.0329 -1.3057,-0.5435 L 17.7805,20.3556 C 17.6559,20.0532 17.687,19.709 17.8638,19.4338 L 30.0584,0.459466 c 0.2986,-0.4646061 0.9173,-0.599184 1.3819,-0.300588 z"
       fill="#ff4b12"
       id="path4" />
    <path
       fill-rule="evenodd"
       clip-rule="evenodd"
       d="m 15.2805,0.0509172 c 0.0092,-2.534e-4 0.0184,-3.801e-4 0.0276,-3.801e-4 H 51.6919 V 1.05054 l 0.0276,-0.9996228 c 0.9964,0.0274802 1.9721,0.2900908 2.8484,0.7663568 0.8732,0.474646 1.623,1.148126 2.1893,1.965966 l 9.0962,12.64996 c 0.8035,1.1404 1.2044,2.5171 1.1399,3.9117 -0.0646,1.3946 -0.5911,2.7281 -1.4967,3.7889 L 65.4927,23.1384 38.222,54.6923 c -0.5577,0.7147 -1.2695,1.2939 -2.0825,1.6938 -0.8215,0.4041 -1.7244,0.6142 -2.6395,0.6142 -0.9151,0 -1.818,-0.2101 -2.6395,-0.6142 -0.813,-0.3999 -1.5248,-0.9791 -2.0825,-1.6938 L 1.50338,23.1338 C 0.59776,22.073 0.0713213,20.7395 0.00674053,19.3449 -0.0578397,17.9503 0.343093,16.5736 1.1466,15.4332 L 1.15214,15.4253 10.2427,2.78328 c 0.5664,-0.81786 1.3162,-1.49135 2.1894,-1.966006 0.8763,-0.476266 1.852,-0.7388766 2.8484,-0.7663568 z M 51.6774,2.05054 H 15.3226 C 14.6459,2.07125 13.9832,2.25056 13.3873,2.57447 12.7875,2.90048 12.2721,3.36391 11.883,3.92762 L 11.8719,3.94339 2.77892,16.5888 C 2.23334,17.365 1.9606,18.3022 2.0046,19.2524 c 0.04402,0.9507 0.40259,1.8588 1.01803,2.5807 6.2e-4,7e-4 0.00124,0.0014 0.00185,0.0022 L 30.3084,53.4044 c 0.0119,0.0138 0.0235,0.028 0.0347,0.0424 0.374,0.4841 0.853,0.8755 1.4001,1.1446 0.5471,0.2691 1.148,0.4089 1.7568,0.4089 0.6088,0 1.2097,-0.1398 1.7568,-0.4089 0.5471,-0.2691 1.0261,-0.6605 1.4001,-1.1446 0.0112,-0.0144 0.0228,-0.0286 0.0348,-0.0424 L 63.9755,21.8353 c 7e-4,-8e-4 0.0013,-0.0016 0.0019,-0.0023 0.6154,-0.7219 0.974,-1.63 1.018,-2.5806 0.044,-0.9501 -0.2287,-1.8874 -0.7742,-2.6634 -9e-4,-0.0013 -0.0018,-0.0026 -0.0027,-0.0039 L 55.1281,3.94339 55.117,3.92762 C 54.7279,3.36391 54.2125,2.90048 53.6127,2.57447 53.0168,2.25056 52.3541,2.07125 51.6774,2.05054 Z"
       fill="#000000"
       id="path6" />
    <path
       fill-rule="evenodd"
       clip-rule="evenodd"
       d="m 0.115234,19.9746 c 0,-0.5523 0.447716,-1 0.999996,-1 H 65.8863 c 0.5523,0 1,0.4477 1,1 0,0.5523 -0.4477,1 -1,1 H 1.11523 c -0.55228,0 -0.999996,-0.4477 -0.999996,-1 z"
       fill="#000000"
       id="path8" />
  </g>
</svg>
