<?xml version="1.0" encoding="UTF-8" standalone="no"?>
<svg
   width="70"
   height="70"
   viewBox="0 0 70 70"
   fill="none"
   version="1.1"
   id="svg6"
   sodipodi:docname="service_icon3.svg"
   inkscape:version="1.1 (c68e22c387, 2021-05-23)"
   xmlns:inkscape="http://www.inkscape.org/namespaces/inkscape"
   xmlns:sodipodi="http://sodipodi.sourceforge.net/DTD/sodipodi-0.dtd"
   xmlns="http://www.w3.org/2000/svg"
   xmlns:svg="http://www.w3.org/2000/svg">
  <defs
     id="defs10" />
  <sodipodi:namedview
     id="namedview8"
     pagecolor="#ffffff"
     bordercolor="#666666"
     borderopacity="1.0"
     inkscape:pageshadow="2"
     inkscape:pageopacity="0.0"
     inkscape:pagecheckerboard="0"
     showgrid="false"
     width="70px"
     inkscape:zoom="14.080645"
     inkscape:cx="30.96449"
     inkscape:cy="31"
     inkscape:window-width="2560"
     inkscape:window-height="1411"
     inkscape:window-x="2391"
     inkscape:window-y="-9"
     inkscape:window-maximized="1"
     inkscape:current-layer="svg6" />
  <g
     id="g829"
     transform="translate(3.749502,4.0043767)">
    <path
       d="m 59.5583,41.9257 -17.532,17.7828 c -0.6338,0.6421 -1.4929,1.0027 -2.3887,1.0027 -0.8957,0 -1.7548,-0.3606 -2.3886,-1.0027 L 2.45543,24.4171 C 2.2806,24.2476 2.14535,24.0406 2.05957,23.8112 1.97379,23.5818 1.93966,23.3359 1.95966,23.0914 L 4.61875,5.58281 C 4.64045,5.1656 4.8136,4.7713 5.10486,4.47587 5.39611,4.18045 5.78486,4.00482 6.19618,3.98281 L 23.4577,1.28567 c 0.2411,-0.02029 0.4835,0.01433 0.7097,0.10134 0.2261,0.087 0.4302,0.22419 0.5974,0.40152 L 59.5583,37.08 c 0.633,0.6428 0.9886,1.5142 0.9886,2.4228 0,0.9086 -0.3556,1.78 -0.9886,2.4229 z"
       stroke="#000000"
       stroke-width="2.13037"
       stroke-linecap="round"
       stroke-linejoin="round"
       id="path2" />
    <path
       d="m 18.2298,20.0741 c 1.2445,0 2.2535,-1.0233 2.2535,-2.2857 0,-1.2624 -1.009,-2.2857 -2.2535,-2.2857 -1.2446,0 -2.2535,1.0233 -2.2535,2.2857 0,1.2624 1.0089,2.2857 2.2535,2.2857 z"
       stroke="#ff4b12"
       stroke-width="2.13037"
       stroke-linecap="round"
       stroke-linejoin="round"
       id="path4" />
  </g>
</svg>
