<?xml version="1.0" encoding="UTF-8" standalone="no"?>
<svg
   width="70"
   height="70"
   viewBox="0 0 70 70"
   fill="none"
   version="1.1"
   id="svg16"
   sodipodi:docname="service_icon4.svg"
   inkscape:version="1.1 (c68e22c387, 2021-05-23)"
   xmlns:inkscape="http://www.inkscape.org/namespaces/inkscape"
   xmlns:sodipodi="http://sodipodi.sourceforge.net/DTD/sodipodi-0.dtd"
   xmlns="http://www.w3.org/2000/svg"
   xmlns:svg="http://www.w3.org/2000/svg">
  <defs
     id="defs20" />
  <sodipodi:namedview
     id="namedview18"
     pagecolor="#ffffff"
     bordercolor="#666666"
     borderopacity="1.0"
     inkscape:pageshadow="2"
     inkscape:pageopacity="0.0"
     inkscape:pagecheckerboard="0"
     showgrid="false"
     inkscape:zoom="13.029851"
     inkscape:cx="33.461627"
     inkscape:cy="33.5"
     inkscape:window-width="2560"
     inkscape:window-height="1411"
     inkscape:window-x="2391"
     inkscape:window-y="-9"
     inkscape:window-maximized="1"
     inkscape:current-layer="svg16" />
  <g
     id="g844"
     transform="translate(1.7792705,1.5001)">
    <path
       fill-rule="evenodd"
       clip-rule="evenodd"
       d="m 8.57354,24.5898 c 0.54449,0 0.98589,0.4478 0.98589,1 v 27.7821 c 0,0.5522 -0.4414,1 -0.98589,1 -0.54449,0 -0.98589,-0.4478 -0.98589,-1 V 25.5898 c 0,-0.5522 0.4414,-1 0.98589,-1 z"
       fill="#ff4b12"
       id="path2" />
    <path
       fill-rule="evenodd"
       clip-rule="evenodd"
       d="m 20.899,24.5898 c 0.5445,0 0.9859,0.4478 0.9859,1 v 27.7821 c 0,0.5522 -0.4414,1 -0.9859,1 -0.5445,0 -0.9859,-0.4478 -0.9859,-1 V 25.5898 c 0,-0.5522 0.4414,-1 0.9859,-1 z"
       fill="#ff4b12"
       id="path4" />
    <path
       fill-rule="evenodd"
       clip-rule="evenodd"
       d="m 33.2208,24.5898 c 0.5444,0 0.9858,0.4478 0.9858,1 v 27.7821 c 0,0.5522 -0.4414,1 -0.9858,1 -0.5445,0 -0.9859,-0.4478 -0.9859,-1 V 25.5898 c 0,-0.5522 0.4414,-1 0.9859,-1 z"
       fill="#ff4b12"
       id="path6" />
    <path
       fill-rule="evenodd"
       clip-rule="evenodd"
       d="m 45.5445,24.5898 c 0.5445,0 0.9859,0.4478 0.9859,1 v 27.7821 c 0,0.5522 -0.4414,1 -0.9859,1 -0.5445,0 -0.9859,-0.4478 -0.9859,-1 V 25.5898 c 0,-0.5522 0.4414,-1 0.9859,-1 z"
       fill="#ff4b12"
       id="path8" />
    <path
       fill-rule="evenodd"
       clip-rule="evenodd"
       d="m 57.868,24.5898 c 0.5445,0 0.9859,0.4478 0.9859,1 v 27.7821 c 0,0.5522 -0.4414,1 -0.9859,1 -0.5445,0 -0.9859,-0.4478 -0.9859,-1 V 25.5898 c 0,-0.5522 0.4414,-1 0.9859,-1 z"
       fill="#ff4b12"
       id="path10" />
    <path
       fill-rule="evenodd"
       clip-rule="evenodd"
       d="M 31.9685,2.34363 2.85931,21.876 c -3.8e-4,3e-4 -7.6e-4,5e-4 -0.00114,8e-4 -0.69106,0.4673 -0.79132,1.1016 -0.58904,1.6232 0.21322,0.5499 0.82054,1.0898 1.81838,1.0898 H 62.3537 c 0.9979,0 1.6052,-0.5399 1.8184,-1.0898 0.2023,-0.5216 0.102,-1.1559 -0.5891,-1.6233 -4e-4,-2e-4 -7e-4,-4e-4 -0.0011,-7e-4 L 34.4728,2.34364 C 34.0914,2.1183 33.6597,2 33.2206,2 32.7816,2 32.3498,2.1183 31.9685,2.34363 Z M 30.9423,0.635561 C 31.6322,0.219716 32.4188,0 33.2206,0 c 0.8018,0 1.5885,0.219716 2.2783,0.635561 0.0136,0.008212 0.0271,0.016757 0.0403,0.025627 L 64.6748,20.2113 c 1.4768,0.9974 1.8693,2.6359 1.3323,4.0208 -0.5262,1.357 -1.8907,2.3577 -3.6534,2.3577 H 4.08751 c -1.76267,0 -3.127132,-1.0007 -3.653332,-2.3577 C -0.102849,22.8472 0.289617,21.2087 1.76649,20.2113 L 1.76895,20.2096 30.9021,0.661188 c 0.0132,-0.00887 0.0266,-0.017415 0.0402,-0.025627 z"
       fill="#000000"
       id="path12" />
    <path
       fill-rule="evenodd"
       clip-rule="evenodd"
       d="m 3.64398,54.3716 c -0.80728,0 -1.47884,0.6734 -1.47884,1.5256 v 7.5769 c 0,0.8523 0.67156,1.5257 1.47884,1.5257 H 62.7975 c 0.8073,0 1.4788,-0.6734 1.4788,-1.5257 v -7.5769 c 0,-0.8522 -0.6715,-1.5256 -1.4788,-1.5256 z m -3.450621,1.5256 c 0,-1.9375 1.535441,-3.5256 3.450621,-3.5256 H 62.7975 c 1.9152,0 3.4506,1.5881 3.4506,3.5256 v 7.5769 c 0,1.9375 -1.5354,3.5257 -3.4506,3.5257 H 3.64398 c -1.91518,0 -3.450621,-1.5882 -3.450621,-3.5257 z"
       fill="#000000"
       id="path14" />
  </g>
</svg>
