<?xml version="1.0" encoding="UTF-8" standalone="no"?>
<svg
   width="70"
   height="70"
   viewBox="0 0 70 70"
   fill="none"
   version="1.1"
   id="svg10"
   sodipodi:docname="service_icon2.svg"
   inkscape:version="1.1 (c68e22c387, 2021-05-23)"
   xmlns:inkscape="http://www.inkscape.org/namespaces/inkscape"
   xmlns:sodipodi="http://sodipodi.sourceforge.net/DTD/sodipodi-0.dtd"
   xmlns="http://www.w3.org/2000/svg"
   xmlns:svg="http://www.w3.org/2000/svg">
  <defs
     id="defs14" />
  <sodipodi:namedview
     id="namedview12"
     pagecolor="#ffffff"
     bordercolor="#666666"
     borderopacity="1.0"
     inkscape:pageshadow="2"
     inkscape:pageopacity="0.0"
     inkscape:pagecheckerboard="0"
     showgrid="false"
     inkscape:zoom="13.857143"
     inkscape:cx="31.030928"
     inkscape:cy="31.5"
     inkscape:window-width="2560"
     inkscape:window-height="1411"
     inkscape:window-x="2391"
     inkscape:window-y="-9"
     inkscape:window-maximized="1"
     inkscape:current-layer="svg10" />
  <g
     id="g835"
     transform="translate(4.1756535,3.1338945)">
    <path
       fill-rule="evenodd"
       clip-rule="evenodd"
       d="m 30.8233,0.866211 c 0.5445,0 0.9859,0.447719 0.9859,0.999999 V 20.3279 c 0,0.5523 -0.4414,1 -0.9859,1 -0.5445,0 -0.9859,-0.4477 -0.9859,-1 V 1.86621 c 0,-0.55228 0.4414,-0.999999 0.9859,-0.999999 z"
       fill="#000000"
       id="path2" />
    <path
       fill-rule="evenodd"
       clip-rule="evenodd"
       d="m 36.6626,50.3281 c 0,-0.5523 0.4414,-1 0.9859,-1 h 11.3757 c 0.5445,0 0.9859,0.4477 0.9859,1 0,0.5523 -0.4414,1 -0.9859,1 H 37.6485 c -0.5445,0 -0.9859,-0.4477 -0.9859,-1 z"
       fill="#ff4b12"
       id="path4" />
    <path
       fill-rule="evenodd"
       clip-rule="evenodd"
       d="m 0.261719,20.3271 c 0,-0.5522 0.441399,-1 0.985891,-1 H 60.4011 c 0.5445,0 0.9859,0.4478 0.9859,1 v 36.9235 c 0,1.4893 -0.5832,2.9176 -1.6215,3.9707 -1.0382,1.0531 -2.4463,1.6447 -3.9146,1.6447 H 5.79788 C 4.3296,62.866 2.92145,62.2744 1.88322,61.2213 0.844989,60.1682 0.261719,58.7399 0.261719,57.2506 Z m 1.971781,1 v 35.9235 c 0,0.9588 0.37554,1.8784 1.04399,2.5565 0.66845,0.678 1.57506,1.0589 2.52039,1.0589 H 55.8509 c 0.9453,0 1.8519,-0.3809 2.5204,-1.0589 0.6684,-0.6781 1.0439,-1.5977 1.0439,-2.5565 V 21.3271 Z"
       fill="#000000"
       id="path6" />
    <path
       fill-rule="evenodd"
       clip-rule="evenodd"
       d="m 15.9651,0.866541 c 0.0085,-2.2e-4 0.0169,-3.3e-4 0.0253,-3.3e-4 h 29.6678 c 1.8765,0.00101 3.7161,0.532969 5.3108,1.536059 1.5941,1.00264 2.8809,2.43625 3.716,4.13977 3e-4,7.7e-4 7e-4,0.00153 0.0011,0.0023 l 6.5962,13.33516 c 0.2442,0.4936 0.0476,1.0946 -0.4391,1.3422 -0.4867,0.2477 -1.0791,0.0483 -1.3233,-0.4453 L 52.922,7.43778 52.9203,7.43433 C 52.2485,6.06302 51.2129,4.90899 49.9299,4.10199 48.647,3.29508 47.1677,2.86712 45.6582,2.86621 c -1e-4,0 10e-5,0 0,0 H 16.0035 C 14.5328,2.90682 13.1006,3.35222 11.8601,4.15489 10.6162,4.9598 9.61214,6.09349 8.95604,7.434 L 8.94803,7.45001 2.12262,20.7886 C 1.87179,21.2788 1.27667,21.4699 0.793398,21.2155 0.310122,20.9611 0.121689,20.3574 0.372522,19.8673 L 7.19395,6.53644 C 8.00956,4.87379 9.25599,3.46761 10.7996,2.46877 12.3458,1.46828 14.1317,0.91434 15.9651,0.866541 Z"
       fill="#000000"
       id="path8" />
  </g>
</svg>
