<?xml version="1.0" standalone="no"?>
<!DOCTYPE svg PUBLIC "-//W3C//DTD SVG 1.1//EN" "http://www.w3.org/Graphics/SVG/1.1/DTD/svg11.dtd">
<svg xmlns="http://www.w3.org/2000/svg">
<metadata>Copyright (C) 2022 by original authors @ fontello.com</metadata>
<defs>
<font id="fontello" horiz-adv-x="1000" >
<font-face font-family="fontello" font-weight="400" font-stretch="normal" units-per-em="1000" ascent="850" descent="-150" />
<missing-glyph horiz-adv-x="1000" />
<glyph glyph-name="bell" unicode="&#xe801;" d="M500 725c-41 0-82-8-119-24-38-15-73-38-102-68-29-29-52-63-67-101-16-38-24-78-24-119 0 0 0-1 0-1 0-135-28-210-50-249-6-10-9-20-9-31 0-11 3-22 8-32 6-9 14-17 23-23 10-5 20-8 31-8a31 31 0 0 1 0 0h618c11 0 22 3 31 8a31 31 0 0 1 0 0c10 6 17 14 23 23 5 10 8 21 8 32 0 11-3 21-8 31v0c-23 39-51 114-51 249v1c0 41-8 81-24 119-15 38-38 72-67 101-29 30-64 53-101 68-38 16-79 24-120 24z m0-62c33 0 65-7 96-19 30-13 57-31 81-55 23-23 41-50 54-81 12-30 18-63 18-95a31 31 0 0 1 0 0c0-145 31-232 60-282a31 31 0 0 1 0 0h-618a31 31 0 0 1 1 0c29 50 59 137 59 282a31 31 0 0 1 0 0c0 32 6 65 19 95 12 31 31 58 54 81 23 24 50 42 81 55 30 12 62 19 95 19z m-125-532a31 31 0 0 1-31-31v-31c0-42 16-81 46-111 29-29 69-46 110-46 41 0 81 17 111 46 29 30 45 69 45 111v31a31 31 0 0 1-31 31 31 31 0 0 1-31-31v-31c0-25-10-49-28-66-17-18-41-28-66-28-25 0-49 10-66 28-18 17-28 41-28 66v31a31 31 0 0 1-31 31z m335 656a31 31 0 0 1-20-14 31 31 0 0 1 10-43c59-37 106-90 137-152a31 31 0 0 1 41-14 31 31 0 0 1 15 42c-36 72-91 134-160 177a31 31 0 0 1-23 4z m-420 0a31 31 0 0 1-23-4c-69-43-124-105-160-177a31 31 0 0 1 15-42 31 31 0 0 1 41 14c31 62 79 115 137 152a31 31 0 0 1 10 43 31 31 0 0 1-20 14z" horiz-adv-x="1000" />

<glyph glyph-name="calendar" unicode="&#xe802;" d="M188 731c-38 0-69-31-69-68v-625c0-38 31-69 69-69h625c37 0 68 31 68 69v625c0 37-31 68-68 68z m6-75h612v-612h-612z m494 138a38 38 0 0 1-38-38v-125a38 38 0 0 1 38-37 38 38 0 0 1 37 37v125a38 38 0 0 1-37 38z m-375 0a38 38 0 0 1-38-38v-125a38 38 0 0 1 38-37 38 38 0 0 1 37 37v125a38 38 0 0 1-37 38z m-157-250a38 38 0 0 1-37-38 38 38 0 0 1 37-37h688a38 38 0 0 1 37 37 38 38 0 0 1-37 38z" horiz-adv-x="1000" />

<glyph glyph-name="cart" unicode="&#xe803;" d="M152 626c-17 0-33-7-45-19-12-11-19-26-21-42l-61-593c-1-9 0-18 3-27 2-9 7-17 13-25 6-7 13-13 22-17 8-4 18-6 27-6h820c9 0 19 2 27 6 9 4 16 10 22 17a31 31 0 0 1 0 0c6 8 11 16 13 25a31 31 0 0 1 0 0c3 9 4 18 3 27l-61 593c-2 16-9 31-21 42-12 12-28 19-45 19z m0-63h696c1 0 1 0 2-1 0 0 1-2 2-4l61-592c0-1 0-2 0-3-1-1-1-2-2-3 0 0 0 0-1-1 0 0 0 0 0 0h-820c0 0 0 0 0 0 0 1-1 1-1 1-1 1-1 2-1 3-1 1-1 2-1 3l62 592c0 2 1 4 1 4 1 1 1 1 2 1z m348 240c-52 0-103-21-140-58-37-37-58-87-58-140a31 31 0 0 1 32-31 31 31 0 0 1 31 31c0 36 14 71 39 96 26 25 60 40 96 40 36 0 70-15 96-40 25-25 39-60 39-96a31 31 0 0 1 32-31 31 31 0 0 1 31 31c0 53-21 103-58 140-37 37-87 58-140 58z" horiz-adv-x="1000" />

<glyph glyph-name="cart_fill" unicode="&#xe804;" d="M827 558h-654c-8 0-15-3-21-8-6-6-10-14-11-23l-57-555c-1-5 0-10 1-15 1-4 4-9 7-12 3-4 6-7 11-9 4-2 8-3 13-3h768c5 0 9 1 14 3 4 2 7 5 10 9 4 3 6 8 7 12 2 5 2 10 2 15l-58 555c-1 9-5 17-11 23-5 5-13 8-21 8z m-654 21c-13 0-26-5-36-14-9-10-15-22-17-35l-57-556c-1-8 0-15 2-22 2-8 6-15 11-21 5-5 11-10 17-14h1c6-3 14-5 22-5h768c8 0 16 2 23 5 7 4 13 9 17 14 5 6 9 13 11 21 2 7 3 14 2 22l-57 556c-2 13-8 25-17 35-10 9-23 14-36 14z m0-41h654c2 0 5-1 7-3 2-3 4-6 4-10l58-555c0-2 0-5-1-7 0-2-1-3-3-5-1-1-2-2-3-3-2-1-3-1-5-1h-768c-2 0-3 0-4 1-2 1-3 2-4 3-2 2-3 3-3 5-1 2-1 5-1 7l58 555c0 4 2 7 4 10 2 2 5 3 7 3z m327 208c-47 0-92-19-125-52-33-33-52-78-52-125a21 21 0 0 1 21-21 21 21 0 0 1 21 21c0 36 14 70 39 96 26 25 60 39 96 39 36 0 70-14 96-39 25-26 39-60 39-96a21 21 0 0 1 21-21 21 21 0 0 1 21 21c0 47-19 92-52 125-33 33-78 52-125 52z" horiz-adv-x="1000" />

<glyph glyph-name="check" unicode="&#xe805;" d="M844 631a63 63 0 0 1-44-18l-394-393-174 174a63 63 0 0 1-89 0 63 63 0 0 1 0-88l219-219a63 63 0 0 1 89 0l437 438a63 63 0 0 1 0 88 63 63 0 0 1-44 18z" horiz-adv-x="1000" />

<glyph glyph-name="close" unicode="&#xe806;" d="M773 682l-30-30-545-545-30-30 59-59 30 30 545 545 30 30z m-546 0l-59-59 30-30 545-545 30-30 59 59-30 30-545 545z" horiz-adv-x="1000" />

<glyph glyph-name="count_arrow" unicode="&#xe807;" d="M11 350l692 473v-946z" horiz-adv-x="714" />

<glyph glyph-name="eye_close" unicode="&#xe808;" d="M792 452a25 25 0 0 1-18-2 25 25 0 0 1-10-35l89-154a25 25 0 0 1 35-9 25 25 0 0 1 9 34l-89 154a25 25 0 0 1-16 12z m-194-85a25 25 0 0 1-20-29l28-158a25 25 0 0 1 29-20 25 25 0 0 1 20 29l-28 157a25 25 0 0 1-29 21z m-196 0a25 25 0 0 1-29-20l-28-158a25 25 0 0 1 21-29 25 25 0 0 1 29 20l27 158a25 25 0 0 1-20 29z m-175 83a25 25 0 0 1-34-9l-90-156a25 25 0 0 1 9-34 25 25 0 0 1 34 9l90 156a25 25 0 0 1-9 34z m-99 90a25 25 0 0 1-18-5 25 25 0 0 1-4-35c68-85 196-194 394-194 198 0 326 109 395 194a25 25 0 0 1-4 35 25 25 0 0 1-35-4c-63-77-176-175-356-175-180 0-293 98-355 175a25 25 0 0 1-17 9z" horiz-adv-x="1000" />

<glyph glyph-name="eye_open" unicode="&#xe809;" d="M500 673c-288 0-444-309-444-309a31 31 0 0 1 0-28c0 0 156-309 444-309 288 0 444 309 444 309a31 31 0 0 1 0 28c0 0-156 309-444 309z m0-63c230 0 364-234 378-260-14-26-148-260-378-260-230 0-364 234-378 260 14 26 148 260 378 260z m0-104c-86 0-156-70-156-156 0-86 70-156 156-156 86 0 156 70 156 156 0 86-70 156-156 156z m0-62c52 0 94-42 94-94 0-52-42-94-94-94-52 0-94 42-94 94 0 52 42 94 94 94z" horiz-adv-x="1000" />

<glyph glyph-name="filter" unicode="&#xe80a;" d="M156 216a38 38 0 0 1-37-38 38 38 0 0 1 37-37h375a38 38 0 0 1 38 37 38 38 0 0 1-38 38z m500 0a38 38 0 0 1-37-38 38 38 0 0 1 37-37h188a38 38 0 0 1 37 37 38 38 0 0 1-37 38z m-500 343a38 38 0 0 1-37-37 38 38 0 0 1 37-38h125a38 38 0 0 1 38 38 38 38 0 0 1-38 37z m250 0a38 38 0 0 1-37-37 38 38 0 0 1 37-38h438a38 38 0 0 1 37 38 38 38 0 0 1-37 37z m0 94a38 38 0 0 1-37-37v-188a38 38 0 0 1 37-37 38 38 0 0 1 38 37v188a38 38 0 0 1-38 37z m250-344a38 38 0 0 1-37-37v-188a38 38 0 0 1 37-37 38 38 0 0 1 38 37v188a38 38 0 0 1-38 37z" horiz-adv-x="1000" />

<glyph glyph-name="gallery_arrow" unicode="&#xe80b;" d="M188 373a23 23 0 0 1-24-23 23 23 0 0 1 24-23h1500a23 23 0 0 1 23 23 23 23 0 0 1-23 23z m250 282a23 23 0 0 1-17-7l-281-281a23 23 0 0 1 0-34l281-281a23 23 0 0 1 33 0 23 23 0 0 1 0 33l-264 265 264 265a23 23 0 0 1 0 33 23 23 0 0 1-16 7z" horiz-adv-x="1844" />

<glyph glyph-name="heart" unicode="&#xe80c;" d="M345 702c-25 4-51 3-76-2-51-10-97-38-130-78-32-40-50-90-50-142 0-143 102-267 202-357 99-90 199-145 199-145a21 21 0 0 1 20 0c0 0 100 55 199 145 100 90 203 214 203 357 0 52-18 102-51 142-33 40-79 68-129 78-51 10-104 2-150-22-35-19-61-48-82-81-21 33-47 62-82 81-23 12-48 20-73 24z m-6-41c21-3 41-10 59-20 37-20 67-52 83-91a21 21 0 0 1 38 0c17 39 46 71 83 91 37 20 80 26 121 18 42-8 79-31 106-63 26-33 41-74 41-116 0-122-93-240-189-326-90-82-172-127-181-132-9 5-91 50-181 132-96 86-189 204-189 326 0 42 15 83 42 116 26 32 64 55 105 63 20 4 42 5 62 2z" horiz-adv-x="1000" />

<glyph glyph-name="heart_fill" unicode="&#xe80d;" d="M500-15c0 0-411 232-411 514 0 50 17 98 48 137 31 38 75 65 124 74 48 10 98 3 142-21 44-23 78-61 97-107h0c19 46 53 84 97 107 44 24 94 31 143 21 48-9 92-36 123-74 31-39 48-87 49-137 0-282-412-514-412-514z" horiz-adv-x="1000" />

<glyph glyph-name="info" unicode="&#xe80e;" d="M500 763c-227 0-412-186-412-413 0-227 185-413 412-413 227 0 413 186 413 413 0 227-186 413-413 413z m0-75c187 0 338-151 338-338 0-187-151-337-338-337-187 0-337 150-337 337 0 187 150 338 337 338z m-31-269a38 38 0 0 1-38-38 38 38 0 0 1 32-35v-183a38 38 0 0 1 37-38h31a38 38 0 0 1 38 38 38 38 0 0 1-31 36v182a38 38 0 0 1-38 38z m23 64c22 0 39 17 39 39 0 21-17 39-39 39-21 0-39-18-39-39 0-22 18-39 39-39z" horiz-adv-x="1000" />

<glyph glyph-name="info_marker" unicode="&#xe80f;" d="M219-26a30 30 0 0 1-30-30 30 30 0 0 1 30-30h562a30 30 0 0 1 30 30 30 30 0 0 1-30 30z m281 625c-85 0-155-70-155-155 0-85 70-155 155-155 85 0 155 70 155 155 0 85-70 155-155 155z m0-60c53 0 95-42 95-95 0-53-42-95-95-95-53 0-95 42-95 95 0 53 42 95 95 95z m0 247c-91 0-178-36-242-100-64-64-100-151-100-242 0-304 325-525 325-525a30 30 0 0 1 34 0c0 0 326 221 326 525 0 91-37 178-101 242-64 64-151 100-242 100z m0-60c75 0 147-29 200-82 53-53 83-125 83-200 0-244-252-437-283-460-30 23-282 216-282 460 0 75 29 147 82 200 53 53 125 82 200 82z" horiz-adv-x="1000" />

<glyph glyph-name="info_phone" unicode="&#xe810;" d="M631 723a30 30 0 0 1-37-21 30 30 0 0 1 21-37c48-13 92-38 127-73 35-35 60-79 73-127a30 30 0 0 1 37-21 30 30 0 0 1 21 37c-16 58-46 111-89 153-42 43-95 73-153 89z m-33-121a30 30 0 0 1-37-21 30 30 0 0 1 22-37c26-7 51-21 70-41 20-19 34-44 41-70a30 30 0 0 1 37-22 30 30 0 0 1 21 37c-10 37-29 71-56 98-27 27-61 46-98 56z m-282 151a30 30 0 0 1 0 0c-52-6-101-32-135-72-35-39-55-91-55-143 0-149 59-292 165-397 105-106 248-165 397-165 52 0 104 19 143 55 40 34 66 83 72 135a30 30 0 0 1 0 0c2 14-1 27-7 38-7 12-17 21-29 26h0l-183 78c-10 4-20 6-30 5-10-1-20-4-28-10l-98-65a30 30 0 0 1 0 0c-1 0-1 0-1 0 0 0 0 0 0 0l0 0c-61 29-109 77-139 137 0 0 0 1 0 1 0 0 0 0 0 0 0 0 0 0 0 0 0 0 0 0 0 0a30 30 0 0 1 1 1l64 99c6 8 9 18 10 28 1 10 0 20-4 30l-79 183 0 0c-5 12-14 22-26 29-11 6-24 9-38 7z m8-59c0 0 0 0 0 0 1-1 1-1 1-1a30 30 0 0 1 0 0l78-183c0 0 0-1 0-1 0 0 0 0 0 0l-65-100c-5-8-9-18-10-29 0-10 2-21 6-31a30 30 0 0 1 0 0c36-72 94-130 167-165a30 30 0 0 1 0 0c10-5 20-7 31-6 10 1 20 4 29 10l0 0 98 65c0 0 0 0 0 0 1 0 1 0 1 0l183-78a30 30 0 0 1 0 0c0 0 0 0 1-1 0 0 0 0 0 0-5-38-24-73-52-98-29-26-66-40-104-40-133 0-261 53-355 147-94 94-147 222-147 355 0 38 14 75 40 104 25 28 60 47 98 52z" horiz-adv-x="1000" />

<glyph glyph-name="inst" unicode="&#xe811;" d="M0 350c0 276 224 500 500 500 276 0 500-224 500-500 0-276-224-500-500-500-276 0-500 224-500 500z m500 267c-72 0-81-1-110-2-28-1-48-6-65-12-17-7-32-16-47-31-15-15-24-30-31-47-6-17-11-37-12-65-1-28-2-38-2-110 0-72 1-81 2-110 1-28 6-48 12-65 7-17 16-32 31-47 15-15 30-24 47-31 17-6 37-11 65-12 29-1 38-2 110-2 72 0 82 1 110 2 28 1 48 6 65 12 17 7 32 16 47 31 15 15 24 30 31 47 6 17 11 37 12 65 1 29 2 38 2 110 0 72-1 82-2 110-1 28-6 48-12 65-7 17-16 32-31 47-15 15-30 24-47 31-17 6-37 11-65 12-29 1-38 2-110 2z m-24-48c7 0 15 0 24 0 71 0 80-1 108-2 26-1 40-5 49-9 13-5 22-11 31-20 9-9 15-18 20-31 4-9 8-23 9-49 1-28 2-37 2-108 0-71-1-80-2-108-1-26-5-40-9-49-5-13-11-21-20-31-9-9-18-15-31-20-9-3-23-8-49-9-28-1-37-1-108-1-71 0-80 0-108 1-26 1-40 6-49 9-13 5-22 11-31 20-9 10-15 18-20 31-3 9-8 23-9 49-1 29-2 37-2 108 0 71 1 80 2 108 1 26 6 40 9 49 5 13 11 22 20 31 9 9 18 15 31 20 9 4 23 8 49 9 25 1 34 2 84 2z m166-45c-17 0-32-14-32-32 0-17 15-32 32-32 18 0 32 15 32 32 0 18-14 32-32 32z m-142-37c-76 0-137-61-137-137 0-76 61-137 137-137 76 0 137 61 137 137 0 76-61 137-137 137z m0-48c49 0 89-40 89-89 0-49-40-89-89-89-49 0-89 40-89 89 0 49 40 89 89 89z" horiz-adv-x="1000" />

<glyph glyph-name="link_arrow" unicode="&#xe812;" d="M583-67l-555 834h1111z" horiz-adv-x="1167" />

<glyph glyph-name="marker" unicode="&#xe813;" d="M429 826c-200 0-381-153-381-390 0-158 127-345 381-562 253 217 381 404 381 562 0 237-181 390-381 390z m0-476c-53 0-96 43-96 95 0 53 43 96 96 96 52 0 95-43 95-96 0-52-43-95-95-95z" horiz-adv-x="857" />

<glyph glyph-name="pagination_arrow" unicode="&#xe814;" d="M344 709a47 47 0 0 1-33-13 47 47 0 0 1 0-67l279-279-279-279a47 47 0 0 1 0-67 47 47 0 0 1 66 0l313 313a47 47 0 0 1 0 66l-313 313a47 47 0 0 1-33 13z" horiz-adv-x="1000" />

<glyph glyph-name="play" unicode="&#xe815;" d="M703 350l-692 500v-1000z" horiz-adv-x="714" />

<glyph glyph-name="search" unicode="&#xe816;" d="M453 746c-192 0-349-157-349-349 0-193 157-349 349-349 193 0 349 156 349 349 0 192-156 349-349 349z m0-42c170 0 307-137 307-307 0-170-137-307-307-307-170 0-307 137-307 307 0 170 137 307 307 307z m217-524a21 21 0 0 1 0-30l190-190a21 21 0 0 1 30 0 21 21 0 0 1 0 30l-190 190a21 21 0 0 1-30 0z" horiz-adv-x="1000" />

<glyph glyph-name="search_arrow" unicode="&#xe817;" d="M156 371a21 21 0 0 1-21-21 21 21 0 0 1 21-21h688a21 21 0 0 1 21 21 21 21 0 0 1-21 21z m392 275a21 21 0 0 1 0-29l266-267-266-266a21 21 0 0 1 0-30 21 21 0 0 1 29 0l282 281a21 21 0 0 1 0 30l-282 281a21 21 0 0 1-29 0z" horiz-adv-x="1000" />

<glyph glyph-name="select_arrow" unicode="&#xe818;" d="M877 473l33 33-66 67-33-34z m-346-279l-33-33 33-33 33 33z m-279 345l-33 34-66-67 33-33z m559 0l-313-312 66-66 313 312z m-247-312l-312 312-66-66 312-312z" horiz-adv-x="1063" />

<glyph glyph-name="size" unicode="&#xe819;" d="M656 774c-16 0-32-6-44-18l-518-518c-24-24-24-64 0-88l206-206c24-24 64-24 88 0l518 518c24 24 24 64 0 88l-206 206c-12 12-28 18-44 18z m0-62l206-206-518-518-206 206z m-162-74a31 31 0 0 1 0-44l125-125a31 31 0 0 1 44 0 31 31 0 0 1 0 44l-125 125a31 31 0 0 1-44 0z m-119-132a31 31 0 0 1-22-9 31 31 0 0 1 0-44l125-125a31 31 0 0 1 44 0 31 31 0 0 1 0 44l-125 125a31 31 0 0 1-22 9z m-141-140a31 31 0 0 1-22-9 31 31 0 0 1 0-45l125-125a31 31 0 0 1 45 0 31 31 0 0 1 0 45l-125 125a31 31 0 0 1-23 9z" horiz-adv-x="1000" />

<glyph glyph-name="slider_arrow" unicode="&#xe81a;" d="M656 716l-26-27-339-339 339-339 26-27 53 54-26 26-286 286 286 286 26 27z" horiz-adv-x="1000" />

<glyph glyph-name="sort" unicode="&#xe81b;" d="M188 200a38 38 0 0 1-27-11 38 38 0 0 1 0-53l125-125a38 38 0 0 1 53 0l125 125a38 38 0 0 1 0 53 38 38 0 0 1-53 0l-98-98-99 98a38 38 0 0 1-26 11z m125 500a38 38 0 0 1-38-37v-625a38 38 0 0 1 38-38 38 38 0 0 1 37 38v625a38 38 0 0 1-37 37z m348-11l-125-125a38 38 0 0 1 0-53 38 38 0 0 1 53 0l99 98 98-98a38 38 0 0 1 53 0 38 38 0 0 1 0 53l-125 125a38 38 0 0 1-53 0z m27 11a38 38 0 0 1-38-37v-625a38 38 0 0 1 38-38 38 38 0 0 1 37 38v625a38 38 0 0 1-37 37z" horiz-adv-x="1000" />

<glyph glyph-name="tab_arrow" unicode="&#xe81c;" d="M830 489l18 17-35 36-18-18z m-330-295l-18-18 18-18 18 18z m-295 330l-17 18-36-36 18-17z m590 0l-313-313 36-35 312 313z m-277-313l-313 313-35-35 312-313z" horiz-adv-x="1000" />

<glyph glyph-name="tg" unicode="&#xe81d;" d="M1000 350c0-276-224-500-500-500-276 0-500 224-500 500 0 276 224 500 500 500 276 0 500-224 500-500z m-665 46c-50-22-102-44-149-70-24-18 8-31 39-43 5-2 10-4 14-6 4-1 8-2 12-3 34-11 72-23 105-5 54 31 105 67 157 103 17 12 33 24 50 36 1 0 2 1 3 1 14 10 47 31 35 2-29-31-59-59-89-86-21-19-42-37-62-57-17-14-35-43-16-63 45-32 91-63 137-93 15-11 30-21 45-31 25-20 65-3 70 28 3 15 5 29 8 44 13 80 27 160 39 240 2 13 4 25 6 38 4 30 9 61 10 92-4 30-41 24-62 17-106-41-211-84-316-128-12-6-24-11-36-16z" horiz-adv-x="1000" />

<glyph glyph-name="trash" unicode="&#xe81e;" d="M156 638a38 38 0 0 1-37-38 38 38 0 0 1 37-37h688a38 38 0 0 1 37 37 38 38 0 0 1-37 38z m250-188a38 38 0 0 1-37-37v-250a38 38 0 0 1 37-38 38 38 0 0 1 38 38v250a38 38 0 0 1-38 37z m188 0a38 38 0 0 1-38-37v-250a38 38 0 0 1 38-38 38 38 0 0 1 37 38v250a38 38 0 0 1-37 37z m-375 188a38 38 0 0 1-38-38v-594c0-18 8-36 20-48 13-13 31-21 49-21h500c18 0 36 8 49 21 13 12 20 30 20 48v594a38 38 0 0 1-38 38 38 38 0 0 1-37-38v-587h-488v587a38 38 0 0 1-37 38z m187 125c-26 0-52-11-70-30-19-18-30-44-30-70v-63a38 38 0 0 1 38-37 38 38 0 0 1 37 37v63c0 6 3 13 8 17 4 5 11 8 17 8h188c6 0 13-3 17-8 5-4 8-11 8-17v-63a38 38 0 0 1 37-37 38 38 0 0 1 38 37v63c0 26-11 52-29 70-19 19-45 30-71 30z" horiz-adv-x="1000" />

<glyph glyph-name="user" unicode="&#xe81f;" d="M500 730c-149 0-271-121-271-271 0-149 122-270 271-270 149 0 271 121 271 270 0 150-122 271-271 271z m0-41c127 0 229-103 229-230 0-126-102-229-229-229-127 0-229 103-229 229 0 127 102 230 229 230z m0-459c-80 0-159-21-229-61-70-40-128-98-168-168a21 21 0 0 1 8-28 21 21 0 0 1 28 7c37 64 89 116 153 153 63 36 135 56 208 56 73 0 145-20 208-56 64-37 116-89 153-153a21 21 0 0 1 28-7 21 21 0 0 1 8 28c-40 70-98 128-168 168-69 40-148 61-229 61z" horiz-adv-x="1000" />

<glyph glyph-name="vk" unicode="&#xe820;" d="M0 350c0 276 224 500 500 500 276 0 500-224 500-500 0-276-224-500-500-500-276 0-500 224-500 500z m526-164c0 0 10 1 15 6 4 5 4 14 4 14 0 0 0 42 19 48 20 6 45-40 72-58 20-14 35-11 35-11l71 1c0 0 38 2 20 31-1 2-10 21-53 60-45 41-39 34 15 105 33 42 46 69 42 80-4 11-28 8-28 8l-80-1c0 0-6 1-11-2-4-2-7-8-7-8 0 0-12-33-29-61-36-60-50-63-56-59-14 8-10 34-10 53 0 57 9 81-18 88-8 2-15 3-37 3-29 1-53 0-67-6-9-5-16-15-12-15 6-1 18-3 24-12 8-11 8-35 8-35 0 0 5-68-11-77-11-6-26 6-57 60-17 28-29 59-29 59 0 0-2 5-7 8-5 4-12 5-12 5l-76 0c0 0-12-1-16-6-4-4 0-13 0-13 0 0 59-137 127-206 62-63 132-59 132-59z" horiz-adv-x="1000" />

<glyph glyph-name="youtube" unicode="&#xe821;" d="M0 350c0 276 224 500 500 500 276 0 500-224 500-500 0-276-224-500-500-500-276 0-500 224-500 500z m756 124c-7 23-25 42-48 48-41 11-208 11-208 11 0 0-167 0-208-11-23-6-41-25-47-48-12-43-12-132-12-132 0 0 0-89 12-132 6-24 24-42 47-49 41-11 208-11 208-11 0 0 167 0 208 11 23 7 41 25 48 49 11 43 11 132 11 132 0 0 0 89-11 132z m-306-224v167l133-84z" horiz-adv-x="1000" />

<glyph glyph-name="zoom" unicode="&#xe822;" d="M328 413a16 16 0 0 1-15-16 16 16 0 0 1 15-16h250a16 16 0 0 1 16 16 16 16 0 0 1-16 16z m125 125a16 16 0 0 1-15-16v-250a16 16 0 0 1 15-16 16 16 0 0 1 16 16v250a16 16 0 0 1-16 16z m0 203c-189 0-344-154-344-344 0-190 155-344 344-344 190 0 344 154 344 344 0 190-154 344-344 344z m0-32c173 0 313-139 313-312 0-173-140-313-313-313-173 0-312 140-312 313 0 173 139 312 312 312z m221-533a16 16 0 0 1 0-22l190-190a16 16 0 0 1 22 0 16 16 0 0 1 0 22l-190 190a16 16 0 0 1-22 0z" horiz-adv-x="1000" />

<glyph glyph-name="size_backarrow" unicode="&#xe823;" d="M156 381a31 31 0 0 1-31-31 31 31 0 0 1 31-31h688a31 31 0 0 1 31 31 31 31 0 0 1-31 31z m282 282a31 31 0 0 1-23-10l-281-281a31 31 0 0 1 0-44l281-281a31 31 0 0 1 45 0 31 31 0 0 1 0 44l-259 259 259 259a31 31 0 0 1 0 44 31 31 0 0 1-22 10z" horiz-adv-x="1000" />
</font>
</defs>
</svg>
