<svg width="48" height="48" viewBox="0 0 48 48" fill="none" xmlns="http://www.w3.org/2000/svg">
<path d="M39.1329 7.43916C38.9025 7.25277 38.6332 7.12039 38.3449 7.05174C38.0566 6.9831 37.7566 6.97994 37.4669 7.04249C35.3476 7.48665 33.1597 7.49231 31.0382 7.05912C28.9166 6.62593 26.9061 5.76307 25.1305 4.52366C24.7985 4.29334 24.4041 4.16992 24 4.16992C23.596 4.16992 23.2015 4.29334 22.8695 4.52366C21.094 5.76307 19.0835 6.62593 16.9619 7.05912C14.8403 7.49231 12.6525 7.48665 10.5332 7.04249C10.2435 6.97994 9.94349 6.9831 9.65519 7.05174C9.36688 7.12039 9.09762 7.25277 8.86721 7.43916C8.6371 7.62583 8.45174 7.86168 8.32475 8.12939C8.19776 8.3971 8.13237 8.68986 8.13337 8.98616V23.762C8.13161 26.6056 8.80924 29.4085 10.1098 31.9372C11.4104 34.466 13.2963 36.6474 15.6105 38.2998L22.8497 43.4565C23.1856 43.6957 23.5877 43.8242 24 43.8242C24.4124 43.8242 24.8145 43.6957 25.1504 43.4565L32.3895 38.2998C34.7037 36.6474 36.5897 34.466 37.8902 31.9372C39.1908 29.4085 39.8685 26.6056 39.8667 23.762V8.98616C39.8677 8.68986 39.8023 8.3971 39.6753 8.12939C39.5483 7.86168 39.363 7.62583 39.1329 7.43916ZM35.9 23.762C35.9016 25.9729 35.375 28.1523 34.3642 30.1186C33.3535 32.085 31.8877 33.7815 30.0889 35.067L24 39.4105L17.9112 35.067C16.1124 33.7815 14.6466 32.085 13.6358 30.1186C12.6251 28.1523 12.0985 25.9729 12.1 23.762V11.267C16.258 11.6229 20.4222 10.6582 24 8.51016C27.5779 10.6582 31.7421 11.6229 35.9 11.267V23.762Z" fill="white"/>
</svg>
