<svg width="48" height="48" viewBox="0 0 48 48" fill="none" xmlns="http://www.w3.org/2000/svg">
<path d="M23.0083 39.867H11.1083C10.5823 39.867 10.0778 39.658 9.7059 39.2861C9.33395 38.9141 9.12499 38.4097 9.12499 37.8837V10.117C9.12499 9.59098 9.33395 9.08651 9.7059 8.71456C10.0778 8.34262 10.5823 8.13366 11.1083 8.13366H21.025V14.0837C21.025 15.6617 21.6519 17.1751 22.7677 18.2909C23.8835 19.4068 25.397 20.0337 26.975 20.0337H32.925V29.9503C32.925 30.4763 33.1339 30.9808 33.5059 31.3528C33.8778 31.7247 34.3823 31.9337 34.9083 31.9337C35.4343 31.9337 35.9388 31.7247 36.3108 31.3528C36.6827 30.9808 36.8917 30.4763 36.8917 29.9503V18.0503C36.8917 18.0503 36.8917 18.0503 36.8917 17.9313C36.871 17.7491 36.8311 17.5696 36.7727 17.3958V17.2173C36.6773 17.0134 36.5501 16.8259 36.3958 16.662L24.4958 4.76199C24.3319 4.60772 24.1444 4.48052 23.9405 4.38516C23.8749 4.37367 23.8078 4.37367 23.7422 4.38516C23.5493 4.28203 23.342 4.20849 23.1273 4.16699H11.1083C9.53029 4.16699 8.01688 4.79387 6.90104 5.90971C5.7852 7.02555 5.15833 8.53895 5.15833 10.117V37.8837C5.15833 39.4617 5.7852 40.9751 6.90104 42.0909C8.01688 43.2068 9.53029 43.8337 11.1083 43.8337H23.0083C23.5343 43.8337 24.0388 43.6247 24.4108 43.2528C24.7827 42.8808 24.9917 42.3763 24.9917 41.8503C24.9917 41.3243 24.7827 40.8198 24.4108 40.4479C24.0388 40.0759 23.5343 39.867 23.0083 39.867ZM24.9917 10.9302L30.1285 16.067H26.975C26.449 16.067 25.9445 15.858 25.5726 15.4861C25.2006 15.1141 24.9917 14.6097 24.9917 14.0837V10.9302ZM15.075 27.967H26.975C27.501 27.967 28.0055 27.758 28.3774 27.3861C28.7494 27.0141 28.9583 26.5097 28.9583 25.9837C28.9583 25.4576 28.7494 24.9532 28.3774 24.5812C28.0055 24.2093 27.501 24.0003 26.975 24.0003H15.075C14.549 24.0003 14.0445 24.2093 13.6726 24.5812C13.3006 24.9532 13.0917 25.4576 13.0917 25.9837C13.0917 26.5097 13.3006 27.0141 13.6726 27.3861C14.0445 27.758 14.549 27.967 15.075 27.967ZM23.0083 31.9337H15.075C14.549 31.9337 14.0445 32.1426 13.6726 32.5146C13.3006 32.8865 13.0917 33.391 13.0917 33.917C13.0917 34.443 13.3006 34.9475 13.6726 35.3194C14.0445 35.6914 14.549 35.9003 15.075 35.9003H23.0083C23.5343 35.9003 24.0388 35.6914 24.4108 35.3194C24.7827 34.9475 24.9917 34.443 24.9917 33.917C24.9917 33.391 24.7827 32.8865 24.4108 32.5146C24.0388 32.1426 23.5343 31.9337 23.0083 31.9337ZM15.075 20.0337H17.0583C17.5843 20.0337 18.0888 19.8247 18.4608 19.4528C18.8327 19.0808 19.0417 18.5763 19.0417 18.0503C19.0417 17.5243 18.8327 17.0198 18.4608 16.6479C18.0888 16.2759 17.5843 16.067 17.0583 16.067H15.075C14.549 16.067 14.0445 16.2759 13.6726 16.6479C13.3006 17.0198 13.0917 17.5243 13.0917 18.0503C13.0917 18.5763 13.3006 19.0808 13.6726 19.4528C14.0445 19.8247 14.549 20.0337 15.075 20.0337ZM42.2665 32.5088C42.0821 32.3229 41.8628 32.1754 41.6211 32.0747C41.3794 31.974 41.1201 31.9222 40.8583 31.9222C40.5965 31.9222 40.3373 31.974 40.0956 32.0747C39.8539 32.1754 39.6345 32.3229 39.4502 32.5088L32.925 39.0538L30.3665 36.4755C30.1816 36.2906 29.962 36.1439 29.7204 36.0438C29.4788 35.9437 29.2198 35.8922 28.9583 35.8922C28.6968 35.8922 28.4378 35.9437 28.1962 36.0438C27.9546 36.1439 27.7351 36.2906 27.5502 36.4755C27.3652 36.6604 27.2185 36.88 27.1185 37.1216C27.0184 37.3632 26.9669 37.6221 26.9669 37.8837C26.9669 38.1452 27.0184 38.4041 27.1185 38.6458C27.2185 38.8874 27.3652 39.1069 27.5502 39.2918L31.5168 43.2585C31.7012 43.4444 31.9206 43.5919 32.1622 43.6926C32.4039 43.7933 32.6632 43.8452 32.925 43.8452C33.1868 43.8452 33.446 43.7933 33.6877 43.6926C33.9294 43.5919 34.1488 43.4444 34.3332 43.2585L42.2665 35.3252C42.4524 35.1408 42.5999 34.9214 42.7006 34.6797C42.8013 34.438 42.8532 34.1788 42.8532 33.917C42.8532 33.6552 42.8013 33.3959 42.7006 33.1542C42.5999 32.9126 42.4524 32.6932 42.2665 32.5088Z" fill="white"/>
</svg>
