<svg width="48" height="48" viewBox="0 0 48 48" fill="none" xmlns="http://www.w3.org/2000/svg">
<path d="M23.8889 4.02417C19.9662 4.02417 16.1316 5.18646 12.8701 7.36406C9.6085 9.54166 7.06641 12.6368 5.56527 16.258C4.06414 19.8792 3.67137 23.8639 4.43664 27.7081C5.20192 31.5524 7.09086 35.0836 9.8646 37.8551C12.6383 40.6267 16.1723 42.5142 20.0196 43.2788C23.8669 44.0435 27.8547 43.6511 31.4788 42.1511C35.1028 40.6511 38.2004 38.111 40.3797 34.852C42.559 31.593 43.7222 27.7615 43.7222 23.8419C43.7222 21.2394 43.2092 18.6624 42.2125 16.258C41.2158 13.8536 39.7549 11.6689 37.9132 9.82865C36.0715 7.9884 33.8851 6.52864 31.4788 5.5327C29.0725 4.53677 26.4934 4.02417 23.8889 4.02417ZM23.8889 39.6961C20.7508 39.6961 17.6831 38.7662 15.0738 37.0242C12.4646 35.2821 10.4309 32.806 9.23 29.909C8.02909 27.0121 7.71487 23.8243 8.32709 20.7489C8.93931 17.6735 10.4505 14.8485 12.6695 12.6313C14.8884 10.4141 17.7156 8.90409 20.7935 8.29235C23.8713 7.68061 27.0615 7.99458 29.9608 9.19454C32.86 10.3945 35.3381 12.4266 37.0815 15.0338C38.825 17.641 39.7555 20.7062 39.7555 23.8419C39.7555 28.0467 38.0839 32.0793 35.1083 35.0525C32.1327 38.0257 28.097 39.6961 23.8889 39.6961ZM28.0539 19.1451L25.8722 20.4134V13.933C25.8722 13.4074 25.6633 12.9034 25.2913 12.5317C24.9194 12.1601 24.4149 11.9513 23.8889 11.9513C23.3629 11.9513 22.8584 12.1601 22.4865 12.5317C22.1145 12.9034 21.9056 13.4074 21.9056 13.933V23.8419C21.9056 23.8419 21.9056 23.8419 21.9056 23.9608C21.8962 24.0928 21.8962 24.2252 21.9056 24.3572C21.9363 24.4789 21.976 24.5981 22.0246 24.7139C22.0246 24.7139 22.0246 24.7139 22.0246 24.8328C22.1193 24.9734 22.2254 25.1059 22.3419 25.2291C22.5021 25.3879 22.6904 25.5156 22.8972 25.6057H23.0559C23.3142 25.7384 23.5986 25.8128 23.8889 25.8237C24.12 25.8171 24.3483 25.7701 24.5632 25.6849H24.7417H24.8806L30.0372 22.7123C30.4948 22.4495 30.8293 22.0158 30.9669 21.5066C31.1045 20.9975 31.0341 20.4545 30.7711 19.9973C30.508 19.54 30.074 19.2058 29.5644 19.0683C29.0549 18.9308 28.5115 19.0012 28.0539 19.264V19.1451Z" fill="white"/>
</svg>
