<svg width="160" height="64" viewBox="0 0 160 64" fill="none" xmlns="http://www.w3.org/2000/svg">
<path d="M71.26 29V16.04H76.732C76.858 16.04 77.026 16.046 77.236 16.058C77.452 16.064 77.644 16.082 77.812 16.112C78.586 16.232 79.219 16.487 79.711 16.877C80.209 17.267 80.575 17.759 80.809 18.353C81.043 18.941 81.16 19.598 81.16 20.324C81.16 21.05 81.04 21.71 80.8 22.304C80.566 22.892 80.2 23.381 79.702 23.771C79.21 24.161 78.58 24.416 77.812 24.536C77.644 24.56 77.452 24.578 77.236 24.59C77.02 24.602 76.852 24.608 76.732 24.608H73.708V29H71.26ZM73.708 22.322H76.624C76.75 22.322 76.888 22.316 77.038 22.304C77.188 22.292 77.326 22.268 77.452 22.232C77.782 22.142 78.037 21.992 78.217 21.782C78.397 21.566 78.52 21.329 78.586 21.071C78.658 20.807 78.694 20.558 78.694 20.324C78.694 20.09 78.658 19.844 78.586 19.586C78.52 19.322 78.397 19.085 78.217 18.875C78.037 18.659 77.782 18.506 77.452 18.416C77.326 18.38 77.188 18.356 77.038 18.344C76.888 18.332 76.75 18.326 76.624 18.326H73.708V22.322ZM82.967 29V16.04H88.439C88.565 16.04 88.733 16.046 88.943 16.058C89.159 16.064 89.351 16.082 89.519 16.112C90.293 16.232 90.926 16.487 91.418 16.877C91.916 17.267 92.282 17.759 92.516 18.353C92.75 18.941 92.867 19.598 92.867 20.324C92.867 21.41 92.597 22.34 92.057 23.114C91.517 23.882 90.671 24.356 89.519 24.536L88.439 24.608H85.415V29H82.967ZM90.275 29L87.719 23.726L90.239 23.24L93.047 29H90.275ZM85.415 22.322H88.331C88.457 22.322 88.595 22.316 88.745 22.304C88.895 22.292 89.033 22.268 89.159 22.232C89.489 22.142 89.744 21.992 89.924 21.782C90.104 21.566 90.227 21.329 90.293 21.071C90.365 20.807 90.401 20.558 90.401 20.324C90.401 20.09 90.365 19.844 90.293 19.586C90.227 19.322 90.104 19.085 89.924 18.875C89.744 18.659 89.489 18.506 89.159 18.416C89.033 18.38 88.895 18.356 88.745 18.344C88.595 18.332 88.457 18.326 88.331 18.326H85.415V22.322ZM100.588 29.27C99.2916 29.27 98.1726 28.988 97.2306 28.424C96.2946 27.86 95.5716 27.071 95.0616 26.057C94.5576 25.043 94.3056 23.864 94.3056 22.52C94.3056 21.176 94.5576 19.997 95.0616 18.983C95.5716 17.969 96.2946 17.18 97.2306 16.616C98.1726 16.052 99.2916 15.77 100.588 15.77C101.884 15.77 103 16.052 103.936 16.616C104.878 17.18 105.601 17.969 106.105 18.983C106.615 19.997 106.87 21.176 106.87 22.52C106.87 23.864 106.615 25.043 106.105 26.057C105.601 27.071 104.878 27.86 103.936 28.424C103 28.988 101.884 29.27 100.588 29.27ZM100.588 26.966C101.41 26.978 102.094 26.801 102.64 26.435C103.186 26.069 103.594 25.55 103.864 24.878C104.14 24.206 104.278 23.42 104.278 22.52C104.278 21.62 104.14 20.84 103.864 20.18C103.594 19.52 103.186 19.007 102.64 18.641C102.094 18.275 101.41 18.086 100.588 18.074C99.7656 18.062 99.0816 18.239 98.5356 18.605C97.9896 18.971 97.5786 19.49 97.3026 20.162C97.0326 20.834 96.8976 21.62 96.8976 22.52C96.8976 23.42 97.0326 24.2 97.3026 24.86C97.5786 25.52 97.9896 26.033 98.5356 26.399C99.0816 26.765 99.7656 26.954 100.588 26.966ZM75.994 49.27C75.076 49.27 74.269 49.135 73.573 48.865C72.883 48.595 72.301 48.25 71.827 47.83C71.353 47.404 70.984 46.96 70.72 46.498L72.79 45.058C72.934 45.358 73.138 45.655 73.402 45.949C73.666 46.243 74.017 46.486 74.455 46.678C74.893 46.87 75.442 46.966 76.102 46.966C76.726 46.966 77.227 46.876 77.605 46.696C77.989 46.516 78.265 46.285 78.433 46.003C78.607 45.721 78.694 45.424 78.694 45.112C78.694 44.698 78.571 44.38 78.325 44.158C78.085 43.936 77.773 43.783 77.389 43.699C77.005 43.609 76.6 43.558 76.174 43.546C75.76 43.534 75.46 43.525 75.274 43.519C75.094 43.513 74.971 43.51 74.905 43.51C74.845 43.51 74.788 43.51 74.734 43.51V41.206C74.812 41.206 74.926 41.206 75.076 41.206C75.232 41.206 75.388 41.206 75.544 41.206C75.706 41.2 75.838 41.194 75.94 41.188C76.57 41.158 77.095 41.02 77.515 40.774C77.941 40.528 78.154 40.144 78.154 39.622C78.154 39.142 77.965 38.761 77.587 38.479C77.215 38.197 76.714 38.056 76.084 38.056C75.49 38.056 74.959 38.185 74.491 38.443C74.029 38.695 73.69 38.974 73.474 39.28L71.8 37.48C72.25 37.012 72.853 36.61 73.609 36.274C74.365 35.938 75.214 35.77 76.156 35.77C76.726 35.77 77.284 35.845 77.83 35.995C78.376 36.139 78.868 36.364 79.306 36.67C79.744 36.97 80.092 37.357 80.35 37.831C80.614 38.305 80.746 38.872 80.746 39.532C80.746 40.09 80.647 40.618 80.449 41.116C80.251 41.608 79.966 42.022 79.594 42.358C80.134 42.598 80.551 42.946 80.845 43.402C81.139 43.858 81.286 44.428 81.286 45.112C81.286 45.97 81.046 46.711 80.566 47.335C80.092 47.953 79.453 48.43 78.649 48.766C77.851 49.102 76.966 49.27 75.994 49.27ZM82.3659 49L86.3259 36.04H89.9799L93.9399 49H91.4199L87.8919 37.57H88.3599L84.8859 49H82.3659ZM84.7419 46.3V44.014H91.5819V46.3H84.7419ZM95.553 49V36.04H97.749L102.033 44.644L106.317 36.04H108.513V49H106.227V41.26L102.465 49H101.601L97.839 41.26V49H95.553ZM116.601 49.27C115.305 49.27 114.186 48.988 113.244 48.424C112.308 47.86 111.585 47.071 111.075 46.057C110.571 45.043 110.319 43.864 110.319 42.52C110.319 41.176 110.571 39.997 111.075 38.983C111.585 37.969 112.308 37.18 113.244 36.616C114.186 36.052 115.305 35.77 116.601 35.77C117.897 35.77 119.013 36.052 119.949 36.616C120.891 37.18 121.614 37.969 122.118 38.983C122.628 39.997 122.883 41.176 122.883 42.52C122.883 43.864 122.628 45.043 122.118 46.057C121.614 47.071 120.891 47.86 119.949 48.424C119.013 48.988 117.897 49.27 116.601 49.27ZM116.601 46.966C117.423 46.978 118.107 46.801 118.653 46.435C119.199 46.069 119.607 45.55 119.877 44.878C120.153 44.206 120.291 43.42 120.291 42.52C120.291 41.62 120.153 40.84 119.877 40.18C119.607 39.52 119.199 39.007 118.653 38.641C118.107 38.275 117.423 38.086 116.601 38.074C115.779 38.062 115.095 38.239 114.549 38.605C114.003 38.971 113.592 39.49 113.316 40.162C113.046 40.834 112.911 41.62 112.911 42.52C112.911 43.42 113.046 44.2 113.316 44.86C113.592 45.52 114.003 46.033 114.549 46.399C115.095 46.765 115.779 46.954 116.601 46.966ZM124.68 49V36.04H127.128V42.016L132.06 36.04H135.048L129.63 42.43L135.39 49H132.294L127.128 43.096V49H124.68Z" fill="#232323"/>
<path d="M32.0002 60.8C32.0002 60.8 54.4002 49.28 54.4002 32V11.84L32.0002 3.20003L9.60022 11.84V32C9.60022 49.28 32.0002 60.8 32.0002 60.8Z" fill="#3A3A3A" stroke="#3A3A3A" stroke-width="2" stroke-linecap="round" stroke-linejoin="round"/>
<path d="M41.3957 28.1987C41.396 28.1666 41.4003 28.1351 41.4003 28.1033L41.4005 23.1343C41.4005 20.6255 40.4204 18.2625 38.6411 16.4796C36.8618 14.6965 34.5031 13.7143 31.9996 13.7143C26.8159 13.7143 22.5989 17.9403 22.5989 23.1341V28.1029C22.5989 28.135 22.6032 28.1662 22.6034 28.1983C20.8591 30.3119 19.8096 33.0209 19.8096 35.9711C19.8096 42.7069 25.2778 48.1863 32 48.1863C38.7223 48.1863 44.1905 42.7067 44.1905 35.9711C44.1905 33.0203 43.141 30.3111 41.3964 28.1976L41.3957 28.1987ZM31.9998 17.4403C33.5098 17.4403 34.9344 18.0348 36.0116 19.1145C37.0883 20.1933 37.6816 21.6207 37.6816 23.134V25.1694C35.9836 24.269 34.0505 23.7568 31.9998 23.7568C29.9491 23.7568 28.016 24.2693 26.318 25.1694V23.134C26.318 19.9947 28.8668 17.4404 31.9998 17.4404V17.4403ZM31.9998 44.4604C27.3285 44.4604 23.5288 40.6528 23.5288 35.9722C23.5288 31.2914 27.3287 27.4832 31.9998 27.4832C36.6709 27.4832 40.4708 31.2914 40.4708 35.9722C40.4708 40.6529 36.6709 44.4611 31.9998 44.4611V44.4604Z" fill="#017BFF"/>
<path d="M31.9992 29.7602C28.5815 29.7602 25.8009 32.5463 25.8009 35.9711C25.8009 39.3959 28.5814 42.182 31.9992 42.182C35.417 42.182 38.1975 39.3959 38.1975 35.9711C38.1975 32.5467 35.417 29.7602 31.9992 29.7602ZM33.1311 36.4857V38.7471C33.1311 39.3736 32.6242 39.8812 31.9992 39.8812C31.3742 39.8812 30.8673 39.3733 30.8673 38.7471V36.4857C30.0429 36.0309 29.5187 35.0961 29.6736 34.0564C29.8269 33.0246 30.6831 32.1985 31.7172 32.0777C33.1429 31.9115 34.3523 33.0238 34.3523 34.4187C34.3521 35.3095 33.8588 36.0846 33.1311 36.4857Z" fill="white"/>
</svg>
