<svg width="34" height="34" viewBox="0 0 34 34" fill="none" xmlns="http://www.w3.org/2000/svg">
<path d="M5.88898 4.5H28.1112C28.8479 4.5 29.5545 4.79266 30.0754 5.31359C30.5963 5.83453 30.889 6.54107 30.889 7.27778V15.6111C30.889 19.2947 29.4257 22.8274 26.821 25.432C24.2163 28.0367 20.6837 29.5 17.0001 29.5C15.1762 29.5 13.3701 29.1408 11.685 28.4428C9.99997 27.7448 8.46887 26.7217 7.17917 25.432C4.5745 22.8274 3.11121 19.2947 3.11121 15.6111V7.27778C3.11121 6.54107 3.40386 5.83453 3.9248 5.31359C4.44573 4.79266 5.15227 4.5 5.88898 4.5V4.5Z" stroke="white" stroke-width="3" stroke-linecap="round" stroke-linejoin="round"/>
<path d="M11.4445 14.2222L17 19.7778L22.5556 14.2222" stroke="white" stroke-width="3" stroke-linecap="round" stroke-linejoin="round"/>
</svg>
