<svg width="60" height="60" viewBox="0 0 60 60" fill="none" xmlns="http://www.w3.org/2000/svg">
<rect width="60" height="60" rx="30" fill="url(#paint0_linear_102_3)"/>
<path fill-rule="evenodd" clip-rule="evenodd" d="M38.5419 34.192C40.3808 35.2138 42.2207 36.2359 44.0594 37.2578C44.8508 37.6973 45.198 38.6298 44.8865 39.4802C43.3044 43.8023 38.6709 46.0837 34.3111 44.4925C25.3837 41.234 18.7664 34.6163 15.5076 25.6889C13.9163 21.3292 16.1977 16.6956 20.5198 15.1136C21.3703 14.802 22.3028 15.1491 22.7433 15.9406C23.7641 17.7795 24.7862 19.6194 25.808 21.4581C26.2871 22.3207 26.1745 23.3447 25.5188 24.0813C24.6602 25.0475 23.8018 26.0135 22.9431 26.9786C24.7759 31.4418 28.5581 35.2241 33.0213 37.0568C33.9865 36.1982 34.9524 35.3397 35.9186 34.4811C36.6563 33.8255 37.6794 33.7129 38.5418 34.1919L38.5419 34.192Z" fill="white"/>
<defs>
<linearGradient id="paint0_linear_102_3" x1="5" y1="52.5" x2="60" y2="4.16667" gradientUnits="userSpaceOnUse">
<stop stop-color="#017BFF"/>
<stop offset="1" stop-color="#69B1FF"/>
</linearGradient>
</defs>
</svg>
