<svg width="48" height="38" viewBox="0 0 48 38" fill="none" xmlns="http://www.w3.org/2000/svg">
<path d="M45.7575 19.3627L41.3322 18.7727L38.6277 10.6596C38.3327 9.77467 37.4968 9.18435 36.5625 9.18435H28.9902L28.9899 2.05456C28.9899 1.07121 28.2031 0.333374 27.2687 0.333374H2.38787C1.40452 0.333374 0.666687 1.1202 0.666687 2.05456V29.5907C0.666687 30.8199 1.65003 31.8033 2.87932 31.8033H6.37068C6.37068 35.1962 9.17364 37.9988 12.5662 37.9988C15.9591 37.9988 18.7618 35.1959 18.7618 31.8033H29.5795C29.5795 35.1962 32.3825 37.9988 35.775 37.9988C39.168 37.9988 41.9706 35.1959 41.9706 31.8033H45.4619C46.4947 31.8033 47.3305 30.9674 47.3305 29.9347L47.3309 21.2312C47.3799 20.2969 46.6916 19.5104 45.7572 19.3626L45.7575 19.3627ZM12.6158 34.7534C10.9932 34.7534 9.66535 33.4257 9.66535 31.8029C9.66535 30.1802 10.9931 28.8524 12.6158 28.8524C14.2386 28.8524 15.5663 30.1802 15.5663 31.8029C15.5663 33.4257 14.1895 34.7534 12.6158 34.7534ZM24.8596 25.0174H4.84671C4.35485 25.0174 3.96179 24.624 3.96179 24.1325V4.46386C3.96179 3.972 4.35521 3.57895 4.84671 3.57895H24.8596C25.3514 3.57895 25.7445 3.97236 25.7445 4.46386V24.1325C25.7445 24.624 25.351 25.0174 24.8592 25.0174H24.8596ZM29.9736 19.0675C29.4817 19.0675 29.0887 18.6741 29.0887 18.1826V13.3145C29.0887 12.8226 29.4821 12.4296 29.9736 12.4296H35.1857C35.5791 12.4296 35.8741 12.6755 36.0215 13.0195L37.7427 18.1332C37.8902 18.5757 37.5462 18.9691 37.1034 18.9691L29.9736 18.9694L29.9736 19.0675ZM35.8247 34.7532C34.2021 34.7532 32.8743 33.4255 32.8743 31.8027C32.8743 30.18 34.202 28.8523 35.8247 28.8523C37.4474 28.8523 38.7752 30.18 38.7752 31.8027C38.7752 33.4255 37.3984 34.7532 35.8247 34.7532Z" fill="white"/>
<path d="M20.8273 13.4129C20.4339 13.2164 19.9914 13.0685 19.5489 12.921L19.5486 10.8068C19.5486 8.24982 17.4344 6.13562 14.8774 6.13562C12.3203 6.13562 10.2061 8.24982 10.2061 10.8068V12.872C9.76367 13.0195 9.32123 13.2164 8.92776 13.3639C8.53435 13.5604 8.23938 13.9539 8.23938 14.4457V21.3295C8.23938 21.9689 8.78028 22.5097 9.41959 22.5097H20.3849C21.0242 22.5097 21.5651 21.9688 21.5651 21.3295V14.4457C21.5157 14.0029 21.2204 13.5604 20.8273 13.4129ZM12.8612 10.8068C12.8612 9.72503 13.7461 8.84011 14.8279 8.84011C15.9097 8.84011 16.7946 9.72503 16.7946 10.8068V12.282C15.4669 12.0855 14.1395 12.0855 12.8118 12.282L12.8121 10.8068H12.8612ZM17.7784 16.6583L14.8279 19.6088C14.6314 19.8053 14.3854 19.9038 14.1395 19.9038C13.8936 19.9038 13.6477 19.8053 13.4511 19.6088L11.9759 18.1335C11.5825 17.7401 11.5825 17.1008 11.9759 16.7567C12.3693 16.3633 13.0087 16.3633 13.3527 16.7567L14.1395 17.5436L16.4016 15.2815C16.795 14.8881 17.4344 14.8881 17.7784 15.2815C18.1718 15.6255 18.1718 16.2648 17.7784 16.6583L17.7784 16.6583Z" fill="#017BFF"/>
</svg>
