<svg width="46" height="46" viewBox="0 0 46 46" fill="none" xmlns="http://www.w3.org/2000/svg">
<path d="M12.1037 41.8615V42.7534C12.1037 44.088 11.0163 45.1666 9.68604 45.1666H7.13689C5.80696 45.1666 4.72632 44.088 4.72632 42.7534V41.8615H12.1037Z" fill="white"/>
<path d="M41.2733 41.8615V42.7534C41.2733 44.088 40.1858 45.1666 38.8556 45.1666H36.3064C34.9765 45.1666 33.8887 44.088 33.8887 42.7534V41.8615H41.2733Z" fill="white"/>
<path d="M35.1777 25.4199C34.9005 25.4823 34.6095 25.5237 34.3256 25.5443C34.1177 25.5582 33.9031 25.565 33.6881 25.565H27.1975C27.2807 23.4284 29.0402 21.7205 31.1876 21.7205C32.2615 21.7205 33.2657 22.1422 34.0211 22.8961C34.7067 23.5805 35.1085 24.4657 35.1778 25.4199L35.1777 25.4199Z" fill="white"/>
<path d="M18.7811 25.5646H12.2905C12.0759 25.5646 11.868 25.5578 11.6463 25.5439C11.3623 25.5232 11.0781 25.4815 10.8013 25.4263C10.9538 23.3588 12.6855 21.7201 14.7915 21.7201C15.8582 21.7201 16.8627 22.1418 17.6178 22.8957C18.3378 23.6079 18.7463 24.5483 18.7813 25.5646L18.7811 25.5646Z" fill="white"/>
<path d="M43.9544 27.0033C43.8019 26.7751 43.6287 26.5677 43.4487 26.3602C44.46 25.8693 45.1665 24.8391 45.1665 23.6428C45.1665 21.9696 43.8019 20.6076 42.1188 20.6076H39.334C38.9397 20.064 37.7143 14.081 31.1809 13.3613V14.7512C33.7825 15.0831 36.1759 16.6875 37.2073 19.1624L39.6458 24.8459C38.0028 26.1641 35.9085 26.948 33.6886 26.948H12.2905C10.081 26.948 7.9931 26.1715 6.34011 24.853L8.78533 19.1624C9.79187 16.7502 12.1493 15.0921 14.8189 14.7441V13.3613C8.20518 14.0897 7.13847 19.9444 6.65902 20.6076H3.86738C2.19781 20.6076 0.833313 21.9696 0.833313 23.65C0.833313 24.8391 1.53292 25.8625 2.5304 26.3605C1.42614 27.6377 0.833313 29.2763 0.833313 30.9515V35.8607C0.833313 38.3845 2.88387 40.452 5.41229 40.4794H40.5955C43.1164 40.4449 45.1666 38.3706 45.1666 35.8604V30.9443C45.1666 29.6014 44.7794 28.2241 43.9546 27.0032L43.9544 27.0033ZM39.1193 33.2607C39.1193 32.7973 39.4657 32.4173 39.9228 32.3756L43.7812 31.9746V34.1526H40.0199C39.5003 34.1526 39.1193 33.738 39.1193 33.2607L39.1193 33.2607ZM29.0331 35.5217H27.5992V32.597H29.0331C29.8366 32.597 30.4948 33.2539 30.4948 34.056C30.4948 34.8648 29.8366 35.5218 29.0331 35.5218V35.5217ZM16.9935 34.0559C16.9935 33.2539 17.6516 32.5969 18.4552 32.5969H19.8891V35.5217H18.4552C17.6517 35.5217 16.9935 34.8647 16.9935 34.0558V34.0559ZM26.2136 32.5969V35.5217H21.2746V32.5969H26.2136ZM5.97989 34.1526H2.21833V31.9746L6.07669 32.3756C6.53381 32.417 6.87342 32.7973 6.87342 33.2607C6.87342 33.7308 6.49918 34.1525 5.97992 34.1525L5.97989 34.1526ZM12.422 36.9045H9.24932V35.5217H12.422V36.9045ZM36.7498 36.9045H33.5772V35.5217H36.7498V36.9045Z" fill="white"/>
<path d="M27.993 7.8921V5.81884C27.993 3.06657 25.7579 0.833313 22.9986 0.833313C20.244 0.833313 18.0036 3.06979 18.0036 5.81884V7.89243C16.9744 8.11799 16.2046 9.02825 16.2046 10.1179V16.237C16.2046 17.4954 17.2299 18.5187 18.4973 18.5187H27.5028C28.7634 18.5187 29.7958 17.4954 29.7958 16.237V10.1179C29.7958 9.02792 29.0202 8.11695 27.9933 7.8921H27.993ZM23.6915 13.5737V14.8783H22.3062V13.5743C21.5849 13.2754 21.1738 12.5984 21.1738 11.8953C21.1738 10.8906 21.9922 10.0731 22.999 10.0731C24.0055 10.0731 24.8242 10.8903 24.8242 11.8953C24.8235 12.5958 24.4166 13.2731 23.6914 13.5737H23.6915ZM26.6078 7.83527H19.389V5.81884C19.389 3.83244 21.0083 2.21607 22.9987 2.21607C24.9907 2.21607 26.6078 3.82888 26.6078 5.81884V7.83527Z" fill="#017BFF"/>
</svg>
