<svg width="48" height="36" viewBox="0 0 48 36" fill="none" xmlns="http://www.w3.org/2000/svg">
<rect x="1.83325" y="20.3333" width="44.3333" height="14" fill="#017BFF"/>
<path d="M43.1543 0.5H21.3882C20.4474 0.5 19.5821 0.814604 18.8832 1.33961V1.339L18.8818 1.33992C18.6035 1.55 1.81 17.7219 1.59767 17.9851L1.59615 17.986C1.01569 18.7037 0.666626 19.6165 0.666626 20.6119V31.7559C0.666626 34.0641 2.538 35.9353 4.84563 35.9353H43.1543C45.462 35.9353 47.3333 34.064 47.3333 31.7559V4.67916C47.3333 2.3715 45.4619 0.500166 43.1543 0.500166L43.1543 0.5ZM41.269 31.2214C41.269 32.1836 40.4888 32.9626 39.5269 32.9626L33.8954 32.9625L31.4575 30.0607L9.28577 30.0608C9.28577 30.0608 6.73217 28.7257 6.73217 26.1136C6.73217 25.5336 8.58896 24.7206 8.58896 24.7206H11.0576L13.2907 27.3904L15.5238 24.7206H20.2865L22.5196 27.3904L24.7527 24.7206H31.4575L33.8954 21.8184H39.5265C40.4887 21.8184 41.2686 22.5981 41.2686 23.5605L41.2684 31.2212L41.269 31.2214ZM44.9239 18.7692H4.46779L20.8902 2.93522H44.9227L44.9226 18.7692H44.9239Z" fill="white"/>
<path d="M38.3654 23.0669C37.7886 23.0669 37.3206 23.5345 37.3206 24.1117V30.6707C37.3206 31.2475 37.7886 31.7155 38.3654 31.7155C38.9427 31.7155 39.4097 31.2475 39.4097 30.6707V24.1117C39.4102 23.5345 38.9431 23.0669 38.3654 23.0669Z" fill="white"/>
</svg>
