<svg width="50" height="35" viewBox="0 0 50 35" fill="none" xmlns="http://www.w3.org/2000/svg">
<path fill-rule="evenodd" clip-rule="evenodd" d="M13.4537 3.96387C9.30843 3.96387 5.95149 7.31444 5.90659 11.4646L6.95281 11.8044C7.52871 11.9915 8.13361 12.0881 8.74159 12.0881H28.5874V8.99625C28.5874 7.45782 28.98 6.00619 29.6635 4.7326C28.6746 4.25475 27.5809 3.96397 26.4095 3.96397L13.4537 3.96387ZM4.32597 12.7288L4.27694 12.7672C2.57902 14.0454 1.58069 16.0522 1.58069 18.1827V22.4893C2.09625 23.8214 3.4415 24.7895 5.07531 24.7895H24.3641L24.3471 21.8426H15.615L14.5326 17.5061H24.3633V15.2421C24.3633 14.7107 24.5051 14.2137 24.7363 13.7769H8.74088C7.95604 13.7769 7.17571 13.6516 6.43083 13.411L4.32597 12.7288ZM8.05821 17.5072C9.25079 17.5076 10.217 18.4784 10.2163 19.6754C10.2167 20.8725 9.2504 21.8429 8.05821 21.8437C6.86562 21.8433 5.89945 20.8725 5.89983 19.6754C5.89946 18.4784 6.86572 17.5076 8.05821 17.5072ZM1.65608 25.2787C2.00267 27.324 3.76357 28.8857 5.89974 28.8857H24.363V26.4799H5.07423C3.77834 26.4799 2.59522 26.0175 1.6554 25.2787H1.65608Z" fill="white"/>
<path d="M27.1126 15.157C26.4107 15.157 25.8453 15.7223 25.8453 16.4242V33.192C25.8453 33.8939 26.4107 34.4592 27.1126 34.4592H48.2329C48.9347 34.4592 49.5001 33.8939 49.5001 33.192V16.4242C49.5001 15.722 48.9347 15.157 48.2329 15.157H27.1126ZM37.6732 20.1633C39.0728 20.1633 40.2076 21.2981 40.2076 22.6977C40.2069 23.5131 39.8139 24.278 39.1516 24.7536V29.4562H36.1947V24.7536C35.5324 24.278 35.1394 23.5127 35.1387 22.6977C35.1387 21.2981 36.2735 20.1633 37.6731 20.1633H37.6732Z" fill="#017BFF"/>
<path fill-rule="evenodd" clip-rule="evenodd" d="M37.6696 0.666626C33.4802 0.666626 30.0663 4.11529 30.0663 8.34611V13.7612H31.7559V8.34611C31.7548 5.03735 34.3933 2.37324 37.6696 2.37324C40.9455 2.37324 43.5833 5.03744 43.5833 8.34611V13.7612H45.2729V8.34611C45.2714 4.11529 41.8586 0.666626 37.6696 0.666626Z" fill="#017BFF"/>
<path fill-rule="evenodd" clip-rule="evenodd" d="M5.99097 28.4622V33.2926C5.99097 33.8912 6.47409 34.3758 7.0704 34.3758H9.22954C9.82582 34.3758 10.3094 33.8912 10.3094 33.2926V28.4622" fill="white"/>
<path fill-rule="evenodd" clip-rule="evenodd" d="M2.65808 9.38232C1.4655 9.38232 0.5 10.3504 0.5 11.5472V12.633C0.5 13.1783 0.908078 13.6101 1.4308 13.6856C1.949 12.8864 2.60823 12.1736 3.38787 11.5868L4.59551 10.6759C4.63926 10.2317 4.74072 9.80624 4.84632 9.38236L2.65808 9.38232Z" fill="white"/>
</svg>
