<svg width="60" height="60" viewBox="0 0 60 60" fill="none" xmlns="http://www.w3.org/2000/svg">
<circle cx="30" cy="30" r="30" fill="url(#paint0_linear_102_5)"/>
<path fill-rule="evenodd" clip-rule="evenodd" d="M38.3028 33.4777C37.854 33.2531 35.6473 32.1676 35.2358 32.0179C34.8244 31.8682 34.5253 31.7933 34.2261 32.2425C33.9269 32.6917 33.0667 33.7023 32.8049 34.0018C32.5431 34.3012 32.2813 34.3387 31.8325 34.114C31.3836 33.8895 29.9375 33.4156 28.2231 31.887C26.8889 30.6974 25.9881 29.2279 25.7263 28.7787C25.4645 28.3295 25.6984 28.0867 25.9231 27.863C26.125 27.6621 26.3719 27.339 26.5963 27.077C26.8207 26.815 26.8955 26.6278 27.0451 26.3284C27.1948 26.0289 27.12 25.7669 27.0077 25.5423C26.8955 25.3177 25.998 23.1093 25.6239 22.2109C25.2596 21.336 24.8896 21.4544 24.6141 21.4407C24.3526 21.4276 24.0531 21.4249 23.7539 21.4249C23.4546 21.4249 22.9684 21.5372 22.557 21.9863C22.1456 22.4355 20.9861 23.5211 20.9861 25.7295C20.9861 27.9379 22.5944 30.0715 22.8188 30.371C23.0432 30.6704 25.9837 35.2024 30.486 37.1459C31.5569 37.6082 32.3929 37.8842 33.0447 38.0911C34.12 38.4326 35.0984 38.3844 35.8717 38.2689C36.734 38.1401 38.5272 37.1834 38.9012 36.1353C39.2752 35.0873 39.2752 34.1889 39.163 34.0018C39.0508 33.8146 38.7516 33.7023 38.3028 33.4777ZM30.1139 44.6559H30.1079C27.4288 44.6549 24.8012 43.9355 22.509 42.5756L21.9638 42.252L16.3131 43.7339L17.8214 38.2263L17.4664 37.6617C15.9719 35.2853 15.1826 32.5387 15.1837 29.7186C15.187 21.4895 21.8846 14.7945 30.1199 14.7945C34.1076 14.796 37.8562 16.3505 40.675 19.1716C43.4938 21.9927 45.0453 25.7427 45.0438 29.7307C45.0404 37.9605 38.3429 44.6559 30.1139 44.6559ZM42.8202 17.0279C39.4288 13.6337 34.9187 11.7635 30.1135 11.7616C20.2127 11.7616 12.1547 19.8166 12.1507 29.7174C12.1494 32.8823 12.9765 35.9717 14.5484 38.6947L12.0001 48L21.5224 45.503C24.1461 46.9336 27.1 47.6874 30.1064 47.6887H30.1137H30.1138C40.0136 47.6887 48.0724 39.6327 48.0764 29.7318C48.0782 24.9337 46.2116 20.422 42.8202 17.0279Z" fill="white"/>
<defs>
<linearGradient id="paint0_linear_102_5" x1="-6.43731e-05" y1="-6.16392e-06" x2="-6.43731e-05" y2="60.0001" gradientUnits="userSpaceOnUse">
<stop stop-color="#61FD7D"/>
<stop offset="1" stop-color="#25CF43"/>
</linearGradient>
</defs>
</svg>
