<svg width="66" height="66" viewBox="0 0 66 66" fill="none" xmlns="http://www.w3.org/2000/svg">
<path fill-rule="evenodd" clip-rule="evenodd" d="M7.67997 22.7239C5.66807 22.7239 4.03711 24.3548 4.03711 26.3667V58.8667C4.03711 60.8786 5.66807 62.5096 7.67997 62.5096H58.7514C60.7633 62.5096 62.3943 60.8786 62.3943 58.8667V26.3667C62.3943 24.3548 60.7633 22.7239 58.7514 22.7239H7.67997ZM2.03711 26.3667C2.03711 23.2503 4.5635 20.7239 7.67997 20.7239H58.7514C61.8679 20.7239 64.3943 23.2503 64.3943 26.3667V58.8667C64.3943 61.9832 61.8679 64.5096 58.7514 64.5096H7.67997C4.5635 64.5096 2.03711 61.9832 2.03711 58.8667V26.3667Z" fill="black"/>
<path fill-rule="evenodd" clip-rule="evenodd" d="M2.03711 40.2953C2.03711 39.743 2.48482 39.2953 3.03711 39.2953H63.3943C63.9465 39.2953 64.3943 39.743 64.3943 40.2953C64.3943 40.8476 63.9465 41.2953 63.3943 41.2953H3.03711C2.48482 41.2953 2.03711 40.8476 2.03711 40.2953Z" fill="black"/>
<path fill-rule="evenodd" clip-rule="evenodd" d="M33.2148 34.6525C33.7671 34.6525 34.2148 35.1002 34.2148 35.6525V44.9382C34.2148 45.4905 33.7671 45.9382 33.2148 45.9382C32.6626 45.9382 32.2148 45.4905 32.2148 44.9382V35.6525C32.2148 35.1002 32.6626 34.6525 33.2148 34.6525Z" fill="#FF4B12"/>
<path fill-rule="evenodd" clip-rule="evenodd" d="M22.6596 11.1678C25.4592 8.36812 29.2564 6.79529 33.2157 6.79529C37.175 6.79529 40.9721 8.36812 43.7718 11.1678C46.5714 13.9674 48.1443 17.7646 48.1443 21.7239C48.1443 22.2761 47.6965 22.7239 47.1443 22.7239C46.592 22.7239 46.1443 22.2761 46.1443 21.7239C46.1443 18.295 44.7821 15.0066 42.3576 12.582C39.933 10.1574 36.6446 8.79529 33.2157 8.79529C29.7868 8.79529 26.4984 10.1574 24.0738 12.582C21.6492 15.0066 20.2871 18.295 20.2871 21.7239C20.2871 22.2761 19.8394 22.7239 19.2871 22.7239C18.7348 22.7239 18.2871 22.2761 18.2871 21.7239C18.2871 17.7646 19.8599 13.9674 22.6596 11.1678Z" fill="black"/>
</svg>
