<svg width="66" height="66" viewBox="0 0 66 66" fill="none" xmlns="http://www.w3.org/2000/svg">
<path fill-rule="evenodd" clip-rule="evenodd" d="M8.83438 11.7148C15.2742 5.56806 23.8372 2.14279 32.7396 2.15249C38.906 2.15259 44.9339 3.98117 50.061 7.40702C55.1883 10.833 59.1845 15.7024 61.5444 21.3995C63.9042 27.0967 64.5216 33.3656 63.3186 39.4137C62.1156 45.4618 59.1461 51.0172 54.7857 55.3776C50.4253 59.738 44.8698 62.7075 38.8218 63.9105C32.7737 65.1136 26.5047 64.4961 20.8076 62.1363C15.1105 59.7765 10.241 55.7802 6.81508 50.6529C3.38914 45.5257 1.56055 39.4976 1.56055 33.3311C1.56055 32.7788 2.00826 32.3311 2.56055 32.3311C3.11283 32.3311 3.56055 32.7788 3.56055 33.3311C3.56055 39.102 5.27184 44.7434 8.47802 49.5418C11.6842 54.3402 16.2413 58.0801 21.573 60.2885C26.9046 62.497 32.7715 63.0748 38.4316 61.949C44.0917 60.8231 49.2908 58.0441 53.3715 53.9634C57.4522 49.8827 60.2312 44.6836 61.357 39.0235C62.4829 33.3634 61.9051 27.4966 59.6966 22.1649C57.4881 16.8332 53.7483 12.2761 48.9499 9.06996C44.1515 5.86378 38.5101 4.15249 32.7391 4.15249L32.738 4.15249C24.3504 4.1432 16.2827 7.37032 10.2153 13.1616C9.81578 13.5429 9.18279 13.5282 8.80146 13.1287C8.42013 12.7291 8.43487 12.0962 8.83438 11.7148Z" fill="black"/>
<path fill-rule="evenodd" clip-rule="evenodd" d="M12.0896 2.18232C12.6254 2.31626 12.9511 2.8592 12.8172 3.39499L10.7383 11.7106L19.0539 13.7895C19.5897 13.9234 19.9154 14.4663 19.7815 15.0021C19.6475 15.5379 19.1046 15.8637 18.5688 15.7297L9.28309 13.4083C8.7473 13.2744 8.42154 12.7314 8.55548 12.1956L10.8769 2.90992C11.0109 2.37413 11.5538 2.04837 12.0896 2.18232Z" fill="black"/>
<path fill-rule="evenodd" clip-rule="evenodd" d="M32.7396 16.0811C33.2919 16.0811 33.7396 16.5288 33.7396 17.0811V35.6525C33.7396 36.0313 33.5256 36.3775 33.1868 36.5469L21.1154 42.5826C20.6214 42.8296 20.0207 42.6294 19.7738 42.1354C19.5268 41.6414 19.727 41.0408 20.221 40.7938L31.7396 35.0345V17.0811C31.7396 16.5288 32.1873 16.0811 32.7396 16.0811Z" fill="#FF4B12"/>
</svg>
