<svg width="65" height="66" viewBox="0 0 65 66" fill="none" xmlns="http://www.w3.org/2000/svg">
<path fill-rule="evenodd" clip-rule="evenodd" d="M41.7874 4.15247C30.8009 4.15247 21.8945 13.0588 21.8945 24.0453C21.8945 35.0318 30.8009 43.9382 41.7874 43.9382C52.7739 43.9382 61.6802 35.0318 61.6802 24.0453C61.6802 13.0588 52.7739 4.15247 41.7874 4.15247ZM19.8945 24.0453C19.8945 11.9542 29.6963 2.15247 41.7874 2.15247C53.8785 2.15247 63.6802 11.9542 63.6802 24.0453C63.6802 36.1364 53.8785 45.9382 41.7874 45.9382C29.6963 45.9382 19.8945 36.1364 19.8945 24.0453Z" fill="black"/>
<path fill-rule="evenodd" clip-rule="evenodd" d="M39.1109 14.2261C40.2214 13.8293 41.4062 13.6841 42.5798 13.8009C43.7533 13.9177 44.8862 14.2938 45.8967 14.9018C46.9072 15.5098 47.7701 16.3346 48.423 17.3167C48.7288 17.7766 48.6038 18.3973 48.1439 18.7031C47.684 19.0088 47.0632 18.8839 46.7575 18.424C46.2685 17.6885 45.6223 17.0708 44.8656 16.6155C44.1088 16.1601 43.2604 15.8786 42.3816 15.7911C41.5028 15.7036 40.6155 15.8123 39.7838 16.1095C38.9521 16.4067 38.1969 16.8848 37.5725 17.5094C37.182 17.9 36.5489 17.9001 36.1583 17.5097C35.7677 17.1193 35.7675 16.4861 36.158 16.0955C36.9917 15.2614 38.0003 14.6229 39.1109 14.2261Z" fill="#FF4B12"/>
<path fill-rule="evenodd" clip-rule="evenodd" d="M28.9695 39.2979C29.3409 39.7066 29.3106 40.3391 28.9019 40.7105L2.99475 64.2497C2.58599 64.6211 1.95355 64.5909 1.58215 64.1821C1.21076 63.7733 1.24104 63.1409 1.6498 62.7695L27.5569 39.2302C27.9657 38.8588 28.5981 38.8891 28.9695 39.2979Z" fill="black"/>
</svg>
