<svg width="66" height="66" viewBox="0 0 66 66" fill="none" xmlns="http://www.w3.org/2000/svg">
<path fill-rule="evenodd" clip-rule="evenodd" d="M38.7213 3.3403C41.9869 2.10636 45.5333 1.81412 48.9569 2.49684C48.9882 2.50309 49.0192 2.51084 49.0498 2.52006C49.6852 2.71151 50.2707 3.04024 50.7649 3.48301C51.2592 3.92577 51.6501 4.47173 51.91 5.08228C52.0698 5.45769 51.9855 5.89255 51.697 6.18107L42.4183 15.4597C42.4173 15.4608 42.4162 15.4618 42.4151 15.4629C41.7497 16.1436 41.377 17.0577 41.377 18.0097C41.377 18.9529 41.7428 19.859 42.3969 20.5376L45.8995 23.6716C45.9179 23.688 45.9356 23.7051 45.9527 23.7228C46.2926 24.0754 46.7 24.3558 47.1506 24.5474C47.6013 24.7389 48.0859 24.8377 48.5756 24.8377C49.0653 24.8377 49.5499 24.7389 50.0006 24.5474C50.4512 24.3558 50.8586 24.0754 51.1985 23.7228L51.2114 23.7097L60.4971 14.424C60.8241 14.0969 61.3328 14.0368 61.7271 14.2787C62.2683 14.6107 62.7337 15.0529 63.093 15.5764C63.4514 16.0987 63.6963 16.6904 63.8118 17.3132C64.4646 20.7069 64.1637 24.2152 62.9425 27.4482C61.7208 30.6822 59.6261 33.514 56.8912 35.6287C54.1563 37.7434 50.8885 39.0581 47.4511 39.4266C44.2496 39.7698 41.0178 39.2797 38.0677 38.0094L13.2112 62.8204C12.6866 63.3558 12.0605 63.7813 11.3696 64.072C10.6768 64.3636 9.93266 64.5137 9.18096 64.5137C8.42927 64.5137 7.68515 64.3636 6.99231 64.072C6.30131 63.7812 5.67519 63.3557 5.15052 62.8202L3.48655 61.1563C2.95107 60.6316 2.5255 60.0054 2.23471 59.3144C1.94316 58.6216 1.79297 57.8774 1.79297 57.1257C1.79297 56.3741 1.94316 55.6299 2.23471 54.9371C2.52584 54.2452 2.95208 53.6184 3.48844 53.0934C3.48922 53.0926 3.48999 53.0919 3.49077 53.0911L28.3316 28.4777C26.9942 25.5278 26.4466 22.2761 26.7491 19.0429C27.0744 15.5671 28.369 12.2525 30.4856 9.47639C32.6022 6.70028 35.4557 4.57423 38.7213 3.3403ZM62.8292 17.499L61.8458 17.6803C61.7815 17.3316 61.6446 17.0004 61.444 16.7081C61.3897 16.629 61.331 16.5532 61.2684 16.4811L52.6318 25.1177C52.1067 25.6606 51.478 26.0926 50.7829 26.388C50.0848 26.6847 49.3341 26.8377 48.5756 26.8377C47.8171 26.8377 47.0664 26.6847 46.3683 26.388C45.6821 26.0964 45.0607 25.6717 44.5398 25.1386L41.0374 22.0049C41.0211 21.9904 41.0053 21.9753 40.99 21.9597C39.9561 20.9049 39.377 19.4867 39.377 18.0097C39.377 16.5326 39.9561 15.1145 40.99 14.0597L40.997 14.0525L49.7422 5.30748C49.6488 5.18704 49.5446 5.07493 49.4304 4.97268C49.1656 4.7354 48.8537 4.55677 48.5154 4.44827C45.4748 3.85163 42.3275 4.11567 39.4282 5.21119C36.513 6.31275 33.9655 8.21072 32.076 10.689C30.1865 13.1673 29.0308 16.1263 28.7404 19.2292C28.4501 22.3321 29.0368 25.4542 30.4338 28.24C30.6277 28.6266 30.551 29.0941 30.2437 29.3986L4.89374 54.5165L4.88902 54.5211C4.54205 54.8604 4.26636 55.2655 4.07814 55.7128C3.88992 56.1601 3.79297 56.6405 3.79297 57.1257C3.79297 57.611 3.88992 58.0914 4.07814 58.5387C4.26636 58.986 4.54205 59.3911 4.88902 59.7304L4.89704 59.7382L6.57636 61.4176C6.91563 61.7646 7.32075 62.0403 7.76803 62.2286C8.21532 62.4168 8.69569 62.5137 9.18096 62.5137C9.66623 62.5137 10.1466 62.4168 10.5939 62.2286C11.0412 62.0403 11.4463 61.7647 11.7856 61.4177L11.7941 61.409L37.1441 36.1055C37.4436 35.8066 37.8988 35.7285 38.2807 35.9105C41.0677 37.2383 44.1684 37.7671 47.2379 37.438C50.3075 37.1089 53.2256 35.9349 55.6678 34.0465C58.11 32.1581 59.9806 29.6294 61.0715 26.7414C62.1624 23.8534 62.431 20.7195 61.8472 17.688L62.8292 17.499Z" fill="black"/>
</svg>
