<svg width="151" height="16" viewBox="0 0 151 16" fill="none" xmlns="http://www.w3.org/2000/svg">
<g clip-path="url(#clip0_103_1871)">
<path d="M8.7923 0.0861816L22.2772 7.70158V0.584086L22.7522 0.494709C22.8656 0.954314 23.0863 1.41712 23.0802 1.87992C23.0403 4.79075 22.9361 7.70477 22.884 10.6156C22.8533 12.3136 22.884 14.0084 22.884 15.8564L9.65045 8.41332V15.4574L9.23368 15.5723C9.08657 15.2531 8.81684 14.9148 8.81378 14.5861C8.78313 9.8464 8.7923 5.10354 8.7923 0.0861816Z" fill="white"/>
<path d="M25.0111 0.0861816L38.496 7.70158V0.584086L38.9709 0.494709C39.0843 0.957506 39.305 1.42031 39.2989 1.87992C39.259 4.79394 39.1549 7.70477 39.1028 10.6188C39.0721 12.3136 39.1028 14.0084 39.1028 15.8564L25.8661 8.41332V15.4574L25.4493 15.5723C25.3053 15.2531 25.0325 14.9148 25.0325 14.5829C25.0018 9.84321 25.0111 5.10354 25.0111 0.0861816Z" fill="white"/>
<path d="M150.797 15.8564L137.536 8.39741V15.4574L137.135 15.5723C136.994 15.2787 136.733 14.9883 136.73 14.6914C136.706 9.90388 136.712 5.11634 136.712 0.079834L150.092 7.64098V0.619232L150.662 0.497946C150.782 0.970318 151.006 1.45546 150.996 1.91506C150.96 4.56737 150.849 7.21967 150.803 9.87197C150.77 11.8221 150.797 13.7722 150.797 15.8564Z" fill="white"/>
<path d="M68.5524 2.19271C67.495 1.77779 66.4653 1.25754 65.3743 0.99263C64.8165 0.858579 64.1484 1.18413 63.5354 1.3118C63.704 1.91184 63.7193 2.64274 64.0717 3.08958C65.4478 4.82587 66.9832 6.4281 68.3624 8.158C70.9276 11.3497 69.8304 14.8287 65.8768 15.7C63.4679 16.2298 60.9947 16.233 58.9076 14.484C58.5508 14.1249 58.2285 13.7305 57.9453 13.3062L58.2518 12.9456C58.6112 13.2273 58.9914 13.4791 59.3888 13.6988C60.4614 14.251 61.5706 14.7224 62.7079 15.1095C63.1278 15.234 63.7039 14.8223 64.2066 14.6563C64.0595 14.1935 64.0227 13.635 63.7407 13.2839C62.5822 11.838 61.341 10.4592 60.1427 9.04211C59.7353 8.58093 59.3624 8.08797 59.0272 7.56755C57.0627 4.37585 58.0525 1.37884 61.6475 0.485161C63.3361 0.0670479 65.2424 0.414938 67.0292 0.619207C67.6605 0.692616 68.2275 1.36925 68.8252 1.76821L68.5524 2.19271Z" fill="white"/>
<path d="M127.3 0.137289C131.772 0.137289 135.134 3.54603 135.14 8.07824C135.14 12.5466 131.707 15.933 127.208 15.9171C122.777 15.9171 119.406 12.4062 119.458 7.89312C119.507 3.4407 122.869 0.118139 127.3 0.137289ZM126.559 15.1383C129.443 15.2213 131.72 14.2829 133.212 11.9083C134.809 9.35493 134.858 6.6707 133.212 4.12053C131.68 1.76186 129.436 0.813922 126.559 0.906481V15.1383Z" fill="white"/>
<path d="M48.8557 15.9043C44.4088 15.9043 40.8874 12.4923 40.9763 7.98564C41.0866 2.85338 45.0371 0.0893724 48.7423 0.0670305C52.6193 0.0446885 56.5483 2.77677 56.7107 8.1133C56.8425 12.4444 53.2567 15.9011 48.8557 15.9043ZM47.9608 7.925C47.9608 9.95811 47.9915 11.9912 47.9608 14.0243C47.9394 14.934 48.2918 15.1989 49.1377 15.167C50.949 15.1156 52.6701 14.3325 53.937 12.9834C55.2039 11.6342 55.9172 9.82478 55.9261 7.93776C55.9261 4.14602 52.8614 0.973464 49.1531 0.855371C48.3256 0.826646 47.9271 1.05327 47.9608 1.98205C47.9915 3.96729 47.9608 5.94295 47.9608 7.925Z" fill="white"/>
<path d="M87.3575 14.9755H94.1245L94.0969 15.4319H80.8848V0.568115H87.3575V14.9755Z" fill="white"/>
<path d="M6.43206 0.590576V15.4575H-0.00390625V0.593771L6.43206 0.590576Z" fill="white"/>
<path d="M117.977 4.02162C117.649 3.70245 117.318 3.38328 116.993 3.06411C115.695 1.78013 114.01 1.00416 112.224 0.868214C111.305 0.769271 110.968 1.12675 110.98 2.09384C111.021 6.05367 111.021 10.0135 110.98 13.9733C110.98 14.9883 111.4 15.25 112.27 15.1639C114.376 14.9245 116.196 14.1457 117.499 12.3424C117.83 11.886 118.225 11.4838 118.85 10.7465C118.4 13.8616 115.234 15.9363 111.654 15.9043C107.526 15.8628 104.529 13.0733 104.097 8.49319C103.79 5.2217 105.528 1.5289 109.776 0.290517C113.193 -0.702102 117.131 0.951202 118.256 3.72479L117.977 4.02162Z" fill="white"/>
<path d="M71.8496 0.55542H78.1323V15.4734H71.8496V0.55542Z" fill="white"/>
<path d="M102.023 15.5244H95.7617V0.612793H102.023V15.5244Z" fill="white"/>
</g>
<defs>
<clipPath id="clip0_103_1871">
<rect width="151" height="16" fill="white"/>
</clipPath>
</defs>
</svg>
