<svg width="108" height="55" viewBox="0 0 108 55" fill="none" xmlns="http://www.w3.org/2000/svg">
<g clip-path="url(#clip0_103_1873)">
<path d="M43.5289 12.2467C43.4075 11.6555 43.1384 11.1127 43.0029 10.5187C42.6657 9.04798 43.0188 7.6519 43.3336 6.2437C43.4046 5.92196 43.5906 6.06744 43.7466 6.17282C44.4406 6.63911 45.116 7.13712 45.8382 7.56611C46.8722 8.16834 47.9469 8.69808 49.0545 9.1515C49.1797 9.20372 49.3207 9.30537 49.4422 9.18414C49.5636 9.0629 49.4422 8.94446 49.3955 8.84187C48.6108 6.99816 48.8116 5.14139 49.3021 3.27716C49.3861 2.95449 49.5244 2.97687 49.7523 3.1494C50.9191 4.03162 52.141 4.82804 53.4703 5.44355C54.0485 5.7112 54.6352 5.96114 55.2191 6.2176C55.3125 6.25956 55.4274 6.35375 55.5133 6.24557C55.5862 6.15231 55.4993 6.0432 55.4545 5.94621C54.6044 4.07079 54.8005 2.16552 55.291 0.257457C55.3526 0.0187157 55.4563 -0.0913295 55.7086 0.105445C57.8011 1.7412 60.214 2.77916 62.6363 3.80034C63.4771 4.15565 64.3244 4.51563 65.1586 4.89986C65.4295 5.02482 65.578 4.95954 65.7481 4.74878C66.3086 4.04748 66.898 3.36389 67.4576 2.65979C67.6584 2.40706 67.8312 2.32778 68.1629 2.45462C70.1433 3.21094 71.0018 4.78608 70.5123 6.85455C70.4488 7.12593 70.5254 7.26954 70.7785 7.34229C72.1583 7.73677 73.1635 8.66655 74.1761 9.62431C76.8506 12.1563 79.5653 14.6453 82.2632 17.1512C82.3772 17.2575 82.4809 17.375 82.6004 17.4739C82.8144 17.652 82.8069 17.8301 82.6387 18.0334C81.6224 19.2682 80.6082 20.5048 79.5962 21.7432C79.5374 21.8164 79.4591 21.8713 79.3703 21.9017C79.2815 21.9321 79.1858 21.9366 79.0945 21.9148C77.7101 21.7218 76.3256 21.5269 74.9412 21.3385C74.7226 21.3096 74.6609 21.1706 74.6367 20.9897C74.589 20.6521 74.5208 20.3154 74.5012 19.975C74.4844 19.6887 74.3695 19.574 74.0836 19.5349C72.39 19.3045 70.6991 19.0565 69.0074 18.814C68.1302 18.6881 67.253 18.5706 66.3777 18.4344C66.0498 18.3841 65.8349 18.4792 65.6191 18.744C63.2003 21.7177 60.7739 24.6858 58.3401 27.6483C56.4606 29.9412 54.5816 32.2345 52.7033 34.528C52.5072 34.7686 52.3297 34.8376 52.0317 34.7061C47.8902 32.8932 43.7459 31.0868 39.5988 29.2869C37.1354 28.2154 35.7034 26.3381 35.2307 23.7166C35.1373 23.1943 35.1569 22.66 35.1943 22.1312C35.2185 21.7777 35.0691 21.6295 34.7786 21.5092C33.7043 21.0624 32.5917 20.681 31.6295 20.0124C29.7135 18.6825 28.657 16.8509 28.5383 14.5101C28.5215 14.1716 28.4542 13.8349 28.5383 13.4917C28.6168 13.1793 28.3515 13.1019 28.1394 13.0124C27.3258 12.6627 26.5121 12.3148 25.7162 11.925C23.5088 10.846 22.2682 9.06663 21.8394 6.68202C21.5993 5.34656 21.8982 4.06333 22.1972 2.77636C22.2803 2.41825 22.4233 2.48913 22.6456 2.64767C23.378 3.16805 24.1234 3.6679 24.8951 4.13233C25.9768 4.78514 27.1371 5.27196 28.2842 5.77369C30.7486 6.84522 33.2176 7.9065 35.6828 8.97617C38.1914 10.0648 40.699 11.1547 43.2057 12.2458C43.2933 12.2745 43.3838 12.2936 43.4756 12.3027C43.4981 12.3186 43.5317 12.3531 43.5401 12.3484C43.6017 12.3092 43.57 12.2747 43.5289 12.2467ZM36.7291 23.0703C36.972 25.0753 37.8893 26.6421 39.7334 27.5877C40.2574 27.8563 40.8049 28.0801 41.3457 28.3151C44.7386 29.7905 48.1309 31.2665 51.5226 32.743C51.8589 32.8904 52.0251 32.8223 52.2512 32.5416C53.9579 30.4284 55.6861 28.3329 57.4087 26.2318C59.8703 23.2307 62.3402 20.2371 64.7831 17.2202C65.1082 16.8192 65.422 16.6728 65.9265 16.7464C68.8943 17.181 71.865 17.5858 74.8328 18.0166C75.881 18.1677 75.8782 18.1826 76.022 19.2542C76.0467 19.3601 76.0661 19.4671 76.0799 19.575C76.0884 19.8063 76.2042 19.8883 76.4284 19.9144C77.0758 19.9918 77.7222 20.0851 78.3658 20.1867C78.4785 20.2136 78.5966 20.2058 78.7048 20.1646C78.8129 20.1233 78.9061 20.0504 78.9721 19.9555C79.385 19.4304 79.8129 18.9212 80.2361 18.4008C80.7424 17.7714 80.7433 17.9346 80.1679 17.3993C77.5466 14.9459 74.9207 12.4976 72.29 10.0542C71.8566 9.64949 71.4026 9.29885 70.8309 9.08529C70.119 8.8195 69.4296 8.48656 68.7337 8.17788C67.9966 7.85054 67.9985 7.84867 68.4796 7.2341C68.5664 7.12406 68.6533 7.01401 68.7299 6.89744C69.2278 6.14578 69.1886 5.26449 68.6365 4.60981C68.3236 4.24238 68.2264 4.23679 67.9228 4.60422C67.3567 5.28408 66.7813 5.9574 66.232 6.65124C66.0451 6.89184 65.8723 6.93942 65.5977 6.81258C64.9905 6.53281 64.3683 6.28566 63.7611 6.00869C61.4453 4.95114 59.0333 4.0941 56.8482 2.76331C56.4512 2.52177 56.4036 2.68963 56.412 3.02722C56.4671 5.0789 57.3088 6.71186 59.079 7.80205C60.1412 8.45486 61.3295 8.84934 62.4701 9.33895C63.6555 9.84814 63.6509 9.83321 62.797 10.805C62.5794 11.053 62.3963 11.0577 62.1151 10.9327C60.5812 10.251 59.0323 9.60007 57.5012 8.91368C55.2349 7.89903 52.8939 7.03733 50.7687 5.72519C50.4324 5.51722 50.4174 5.70653 50.4212 5.96673C50.4548 8.28233 51.4488 10.0542 53.5432 11.0698C55.4292 11.9856 57.3863 12.7559 59.3107 13.5878C60.3112 14.0233 60.215 13.9011 59.591 14.6388C59.5288 14.7083 59.4726 14.7829 59.4228 14.8617C59.236 15.1695 59.0071 15.2207 58.6755 15.065C57.9282 14.7134 57.1705 14.3963 56.4213 14.055C52.5333 12.2887 48.4903 10.8619 44.7657 8.73929C44.5154 8.59754 44.4341 8.67401 44.4322 8.9398C44.4173 10.4618 44.8937 11.7879 45.9381 12.9201C46.7135 13.7594 47.713 14.1996 48.7303 14.636C51.1452 15.6674 53.545 16.7334 55.9599 17.7648C56.7492 18.1015 56.7614 18.0726 56.1915 18.7524C56.1386 18.8101 56.0911 18.8726 56.0495 18.9389C55.8403 19.2952 55.5824 19.3512 55.1976 19.174C53.8692 18.5678 52.5259 17.9933 51.1863 17.4114C47.3574 15.7489 43.5273 14.0873 39.696 12.4267C36.8599 11.1939 34.0172 9.9759 31.1951 8.71598C28.6859 7.59688 26.0899 6.65871 23.7161 5.24957C23.3761 5.0472 23.3191 5.11808 23.3126 5.48179C23.2715 7.73304 24.5802 9.77167 26.7073 10.7043C30.0367 12.1609 33.3686 13.6127 36.7029 15.0594C41.8626 17.2976 47.0236 19.5311 52.1858 21.76C53.3582 22.2664 53.3489 22.2552 52.5034 23.2158C52.3007 23.4471 52.1503 23.4853 51.8738 23.3631C50.041 22.5499 48.2038 21.7463 46.3622 20.9524C43.4974 19.709 40.6327 18.4655 37.7679 17.2221C35.3587 16.1748 32.9541 15.1191 30.5449 14.0727C30.0881 13.875 30.018 13.9151 30.0535 14.4038C30.2049 16.4396 31.1381 18.0241 32.9495 18.9884C34.5945 19.865 36.3507 20.5122 38.0593 21.2564C41.7917 22.8841 45.5283 24.5037 49.2693 26.1152C49.856 26.3698 49.8579 26.367 49.4562 26.8808C49.3422 27.0272 49.2124 27.1606 49.1087 27.3163C48.9134 27.6026 48.6902 27.6166 48.3856 27.4767C47.5673 27.1037 46.7359 26.7531 45.9101 26.3931C43.0453 25.1447 40.1805 23.8969 37.3157 22.6497C36.7693 22.4156 36.7057 22.4744 36.7291 23.0703Z" fill="white"/>
<path d="M57.9445 46.6833C59.4551 45.2611 61.1207 45.0476 62.9414 45.7507C63.4505 45.9543 63.8863 46.3063 64.1922 46.7607C64.3295 46.9566 64.4099 47.0517 64.6145 46.8008C65.8345 45.304 68.3399 45.0009 69.9579 45.7852C71.3171 46.4446 71.8318 47.6504 71.8739 49.0586C71.9281 50.9051 71.8841 52.7544 71.8982 54.6028C71.8982 54.8677 71.7991 54.9096 71.574 54.9003C71.2006 54.878 70.8262 54.8795 70.453 54.905C70.1373 54.9329 70.1064 54.8005 70.1083 54.5319C70.1186 52.8701 70.1261 51.2073 70.1083 49.5454C70.099 48.8077 69.9682 48.0878 69.3834 47.5515C68.1213 46.3942 65.8121 46.9733 65.1862 48.5979C65.0206 49.0664 64.9443 49.5618 64.961 50.0583C64.961 51.5346 64.9489 53.0099 64.961 54.4853C64.961 54.8108 64.8788 54.9245 64.5491 54.8975C64.2071 54.8695 63.8634 54.8695 63.5215 54.8975C63.2226 54.9217 63.159 54.8098 63.1609 54.531C63.1721 52.9319 63.1721 51.3322 63.1609 49.7319C63.1621 49.3908 63.128 49.0505 63.0591 48.7163C62.7452 47.2708 61.5756 46.8213 60.35 46.9976C58.8432 47.2149 58.0501 48.1848 58.0062 49.8634C57.966 51.3845 57.9819 52.9074 57.994 54.4331C57.994 54.7697 57.9492 54.9451 57.5522 54.8994C57.1234 54.8527 56.5498 55.029 56.2938 54.8061C56.0379 54.5832 56.2126 53.9901 56.2116 53.5602C56.2042 51.0599 56.2182 48.5587 56.1967 46.0585C56.1967 45.6015 56.2761 45.3758 56.788 45.4523C57.0825 45.4817 57.3791 45.4817 57.6736 45.4523C57.88 45.4411 57.9538 45.5194 57.9426 45.7171C57.937 46.0212 57.9445 46.3149 57.9445 46.6833Z" fill="white"/>
<path d="M7.83891 47.9003L6.52172 51.2958C6.09014 52.4065 5.65014 53.5135 5.23724 54.6308C5.1541 54.8564 5.04388 54.9049 4.83276 54.8975C4.38249 54.8816 3.85376 55.029 3.50251 54.8397C3.15126 54.6503 3.12883 54.0647 2.97376 53.6506C1.99848 51.0599 1.04191 48.4627 0.0647689 45.8738C-0.057607 45.5483 -0.0286478 45.4336 0.345019 45.4616C0.761658 45.4924 1.27918 45.3338 1.5725 45.5306C1.86583 45.7274 1.90975 46.2571 2.05268 46.645C2.76327 48.5755 3.47199 50.5063 4.17884 52.4373C4.21621 52.5371 4.26198 52.635 4.33297 52.8048C4.80006 51.5924 5.23726 50.4379 5.67632 49.2843C6.12285 48.112 6.57312 46.9416 7.00657 45.7656C7.08784 45.5455 7.18313 45.4616 7.43069 45.4597C8.60587 45.4467 8.60865 45.4364 9.02342 46.549C9.77449 48.5646 10.524 50.5805 11.272 52.5968C11.2916 52.6472 11.3112 52.6984 11.3729 52.8607C11.7736 51.7938 12.1351 50.8333 12.4939 49.8718C13.0021 48.5093 13.5149 47.1486 14.011 45.7815C14.0978 45.5418 14.2053 45.4411 14.4715 45.4588C14.8741 45.4849 15.2796 45.4653 15.7429 45.4653C15.3898 46.4231 15.0525 47.3464 14.7078 48.2631C13.9213 50.3614 13.1198 52.4597 12.3491 54.558C12.2482 54.8378 12.1193 54.9124 11.8493 54.8975C11.4158 54.8732 10.8768 55.0308 10.577 54.8266C10.2771 54.6224 10.2145 54.0731 10.0604 53.6702C9.37966 51.8964 8.70145 50.1217 8.02574 48.3461C7.97623 48.2267 7.92298 48.1055 7.83891 47.9003Z" fill="white"/>
<path d="M19.1323 46.7019C20.1832 45.6444 21.392 45.3273 22.7335 45.3786C24.7887 45.4578 26.2254 46.7989 26.3058 48.8562C26.3796 50.7633 26.3403 52.6742 26.3609 54.5841C26.3609 54.8284 26.2871 54.9105 26.0414 54.8974C25.6844 54.8723 25.326 54.8723 24.969 54.8974C24.6261 54.9282 24.5654 54.7902 24.5664 54.4787C24.5664 52.7245 24.5785 50.9694 24.5336 49.2162C24.5 47.8555 23.6042 47.0097 22.2477 46.9658C20.3336 46.9024 19.1743 48.0141 19.1444 49.9799C19.1211 51.4721 19.1295 52.9642 19.1444 54.4517C19.1444 54.7688 19.1136 54.9487 18.7287 54.8974C18.2878 54.8396 17.6927 55.084 17.4368 54.8042C17.2173 54.5599 17.3602 53.9807 17.3602 53.5489C17.3602 49.7599 17.3602 45.9717 17.3518 42.1826C17.3518 41.8329 17.419 41.6753 17.8048 41.7163C18.1304 41.748 18.4583 41.748 18.7838 41.7163C19.0762 41.6911 19.1444 41.7872 19.1416 42.0754C19.1202 43.5834 19.1323 45.0885 19.1323 46.7019Z" fill="white"/>
<path d="M92.9334 50.7847C93.1791 52.5482 94.7037 53.5554 96.5636 53.4389C97.4044 53.3857 98.1713 53.1069 98.7804 52.4988C98.9383 52.3421 99.0354 52.3123 99.1737 52.51C99.3119 52.7077 99.4689 52.8691 99.6211 53.0453C100.016 53.5023 100.02 53.5051 99.5417 53.8986C98.698 54.5971 97.6373 54.9812 96.5412 54.9851C95.6313 55.0037 94.7439 54.9347 93.8984 54.5626C91.8264 53.6506 90.9399 51.6772 91.1623 49.6377C91.3967 47.4927 92.6382 46.0202 94.5972 45.5343C97.8668 44.7285 100.702 46.9015 100.569 50.477C100.557 50.823 100.363 50.7819 100.142 50.781C97.9172 50.781 95.692 50.781 93.4668 50.781L92.9334 50.7847ZM95.8957 49.4791C96.7523 49.4791 97.608 49.4614 98.4637 49.4875C98.8206 49.4987 98.8374 49.3579 98.7729 49.0809C98.4553 47.752 97.2456 46.8502 95.8041 46.8754C95.1459 46.8786 94.5083 47.1052 93.996 47.5178C93.4838 47.9304 93.1272 48.5046 92.9848 49.1462C92.9054 49.4866 93.0213 49.4912 93.2819 49.4884C94.1535 49.4745 95.025 49.481 95.8957 49.481V49.4791Z" fill="white"/>
<path d="M29.699 47.9339C29.5318 47.6374 29.3954 47.3193 29.1927 47.0517C28.9021 46.6703 29.0469 46.4921 29.4084 46.2842C31.0255 45.3516 32.7472 45.1399 34.5305 45.5987C36.0168 45.9811 36.8659 47.1104 36.9285 48.8143C36.9948 50.7531 36.95 52.6966 36.9593 54.6383C36.9593 54.8369 36.8977 54.9236 36.6922 54.9003C36.5836 54.8943 36.4747 54.8943 36.3661 54.9003C36.0233 54.9003 35.6048 55.0206 35.3591 54.8667C35.0901 54.697 35.3395 54.2372 35.2171 53.8512C34.6958 54.4556 33.9645 54.8404 33.1703 54.9283C32.3838 55.0215 31.5907 55.057 30.8144 54.8257C29.3599 54.3921 28.6509 53.41 28.7284 51.9347C28.7919 50.7279 29.6962 49.8131 31.0881 49.565C32.2922 49.3505 33.5095 49.4531 34.7201 49.4512C35.0938 49.4512 35.2031 49.358 35.1769 48.9849C35.0938 47.7847 34.3848 47.0461 33.1788 46.9528C31.8345 46.8512 30.9377 47.1002 29.699 47.9339ZM35.1779 51.4386C35.1779 51.2987 35.1695 51.1588 35.1779 51.0198C35.1919 50.8333 35.1321 50.727 34.9228 50.7326C33.8999 50.7615 32.8724 50.6785 31.8522 50.7951C30.976 50.8949 30.4622 51.4115 30.4641 52.1389C30.4641 52.885 31.0012 53.4445 31.841 53.5742C32.2713 53.6396 32.7088 53.6412 33.1395 53.5788C34.225 53.4166 35.3591 52.4262 35.1779 51.4339V51.4386Z" fill="white"/>
<path d="M81.63 46.7132C82.7267 45.5522 84.0738 45.2407 85.533 45.4076C87.6423 45.6473 88.8315 47.0238 88.8726 49.2359C88.9063 51.0078 88.8726 52.7797 88.8857 54.5516C88.8857 54.7959 88.8474 54.9246 88.5615 54.9022C88.0861 54.8603 87.4686 55.0953 87.1762 54.809C86.9473 54.5824 87.1052 53.9585 87.1042 53.5118C87.1005 52.2683 87.1005 51.0249 87.1042 49.7814C87.1106 49.3935 87.0647 49.0064 86.9679 48.6306C86.6446 47.4462 85.5601 46.8084 84.2046 46.9902C82.6165 47.2028 81.7281 48.155 81.6954 49.759C81.6637 51.3277 81.6721 52.8963 81.6879 54.4649C81.6879 54.8043 81.6216 54.947 81.2573 54.906C80.8145 54.8556 80.2185 55.0925 79.9635 54.8127C79.743 54.5693 79.8897 53.9864 79.8887 53.5537C79.8887 51.0068 79.8981 48.459 79.8803 45.9121C79.8803 45.5391 79.9906 45.4123 80.3474 45.4738C80.363 45.4748 80.3786 45.4748 80.3941 45.4738C80.7809 45.4822 81.2769 45.3479 81.5235 45.5382C81.7823 45.7331 81.5544 46.2553 81.63 46.7132Z" fill="white"/>
<path d="M50.1042 54.9786C48.8556 55.0293 47.6165 54.7411 46.5189 54.1448C46.233 53.9919 46.134 53.8389 46.3321 53.5359C46.5301 53.2328 46.6123 52.7562 46.8926 52.6033C47.1728 52.4503 47.4895 52.8747 47.8174 52.9912C49.0056 53.4118 50.207 53.6636 51.4606 53.3055C52.1295 53.1143 52.4004 52.7823 52.3948 52.2079C52.3892 51.7472 52.0576 51.3974 51.4148 51.2548C50.4928 51.0487 49.5568 50.9013 48.6376 50.684C47.1298 50.3268 46.4647 49.5034 46.489 48.0886C46.5067 47.0255 47.2616 46.0547 48.4377 45.6835C50.2042 45.124 51.9268 45.3198 53.6055 46.0696C53.8801 46.1918 53.8923 46.3167 53.7484 46.5508C53.5541 46.867 53.4682 47.3034 53.1944 47.503C52.8694 47.7427 52.5611 47.2969 52.2276 47.1971C51.2411 46.9024 50.2556 46.7858 49.2476 47.0572C48.9428 47.1279 48.6695 47.2963 48.4694 47.5366C48.0958 48.0028 48.1817 48.6211 48.6955 48.942C49.3877 49.3737 50.1986 49.3887 50.9627 49.5677C51.4737 49.6871 51.9903 49.7776 52.491 49.9408C53.3682 50.2327 54.0221 50.7633 54.1529 51.7481C54.2977 52.8318 53.953 53.7065 53.0076 54.3034C52.0977 54.8704 51.0982 55.028 50.1042 54.9786Z" fill="white"/>
<path d="M40.269 49.7609C40.269 48.9682 40.2466 48.1755 40.2802 47.3846C40.2961 46.9976 40.1513 46.8922 39.8075 46.9445C39.792 46.9454 39.7764 46.9454 39.7608 46.9445C38.5558 46.9445 38.5614 46.9445 38.6576 45.72C38.6744 45.5129 38.7454 45.4561 38.9378 45.4635C39.2638 45.4766 39.5918 45.4467 39.9178 45.4728C40.2195 45.498 40.2914 45.3796 40.2746 45.0998C40.2522 44.6335 40.2746 44.1672 40.2569 43.7009C40.2485 43.4781 40.3157 43.3792 40.5427 43.4128C40.5583 43.4137 40.5739 43.4137 40.5894 43.4128C41.0565 43.4193 41.6619 43.2514 41.9487 43.4809C42.2355 43.7103 42.0281 44.3519 42.0421 44.8107C42.0589 45.4635 42.0477 45.4635 42.7128 45.4635C43.2892 45.4635 43.8646 45.4728 44.4401 45.4635C44.6577 45.4579 44.7269 45.5129 44.739 45.7433C44.8007 46.9482 44.8081 46.9482 43.6302 46.9482C43.2107 46.9482 42.7894 46.9603 42.37 46.9482C42.1374 46.9398 42.0421 46.9976 42.0439 47.2541C42.0551 48.8535 42.029 50.4547 42.0598 52.0541C42.0832 53.3271 43.2229 53.9193 44.4307 53.2804C44.7876 53.0939 44.9399 53.1126 45.0193 53.5005C45.0249 53.5152 45.0321 53.5293 45.0407 53.5425C45.4499 54.4685 45.4191 54.5683 44.4158 54.8481C43.1556 55.1922 41.5974 55.0094 40.8547 54.0209C40.3989 53.4157 40.2802 52.7293 40.2718 52.0065C40.2625 51.2521 40.269 50.506 40.269 49.7609Z" fill="white"/>
<path d="M104.54 46.7326C105.381 45.772 106.434 45.4522 107.604 45.3748C107.854 45.358 107.997 45.3999 107.946 45.6853C107.945 45.7008 107.945 45.7164 107.946 45.7319C107.946 46.1507 108.091 46.658 107.905 46.9648C107.728 47.2549 107.171 47.0721 106.784 47.1439C105.645 47.3546 104.785 48.29 104.676 49.5443C104.539 51.14 104.626 52.7412 104.633 54.3397C104.633 54.8284 104.491 54.9636 104.038 54.8992C103.645 54.8442 103.114 55.0746 102.887 54.7957C102.694 54.5607 102.83 54.0552 102.829 53.6692C102.829 51.0906 102.838 48.5129 102.816 45.9343C102.816 45.5352 102.926 45.4149 103.304 45.468C103.713 45.5212 104.265 45.2815 104.5 45.5715C104.696 45.8056 104.54 46.3325 104.54 46.7326Z" fill="white"/>
<path d="M74.9538 50.1767C74.9538 48.7321 74.9603 47.2857 74.9472 45.8421C74.9472 45.5548 74.9986 45.4233 75.3209 45.4616C75.7786 45.5156 76.3942 45.2694 76.6568 45.5641C76.8838 45.8187 76.7315 46.4193 76.7315 46.8698C76.7315 49.4017 76.7259 51.9346 76.7408 54.4666C76.7408 54.8135 76.6605 54.9375 76.3036 54.9058C75.873 54.8667 75.3041 55.0392 75.0425 54.8228C74.7809 54.6065 74.9612 54.0105 74.9575 53.5816C74.9482 52.4447 74.9547 51.3107 74.9538 50.1767Z" fill="white"/>
<path d="M75.8255 43.7259C75.1286 43.7185 74.6344 43.2354 74.6447 42.5705C74.6559 41.9177 75.1809 41.4514 75.875 41.4588C76.5364 41.4691 77.0343 41.9568 77.0306 42.5901C77.0259 43.2438 76.5074 43.7371 75.8255 43.7259Z" fill="white"/>
<path d="M43.5279 12.2468C43.569 12.2748 43.6008 12.3065 43.541 12.3448C43.5326 12.3448 43.499 12.3149 43.4766 12.2991C43.4934 12.2813 43.5102 12.2636 43.5279 12.2468Z" fill="#FEFEFE"/>
<path d="M71.2807 11.6852C71.079 11.9314 70.8249 12.1879 70.6371 12.4853C70.3568 12.9209 70.071 12.7148 69.7571 12.5711C69.376 12.3958 68.9892 12.2326 68.6025 12.0713C68.3652 11.9715 68.3054 11.867 68.4782 11.6246C69.206 10.5987 69.1985 10.5987 70.3615 11.0921C70.6044 11.1956 70.8454 11.3047 71.0883 11.4073C71.1484 11.423 71.2008 11.4597 71.2361 11.5106C71.2714 11.5616 71.2872 11.6236 71.2807 11.6852Z" fill="white"/>
</g>
<defs>
<clipPath id="clip0_103_1873">
<rect width="108" height="55" fill="white"/>
</clipPath>
</defs>
</svg>
