<svg width="118" height="15" viewBox="0 0 118 15" fill="none" xmlns="http://www.w3.org/2000/svg">
<g clip-path="url(#clip0_103_1869)">
<path d="M15.0804 7.20151C15.3112 7.3498 15.4654 7.45674 15.627 7.55084C15.8601 7.67975 16.06 7.86282 16.2104 8.08514C16.3608 8.30747 16.4575 8.56278 16.4927 8.83031C16.6793 10.0097 16.6971 11.2104 16.5455 12.3949C16.4053 13.48 15.6826 14.1535 14.7235 14.5965C14.1961 14.8393 13.6388 14.8702 13.0805 14.8816C11.3053 14.9159 9.531 14.9407 7.75764 14.9563C5.2443 14.9772 2.7305 14.9857 0.216688 14.9986C0.148482 14.9986 0.0807349 14.99 -0.00195312 14.9843V-0.000488281H0.234435C3.98529 0.0337323 7.73663 0.062726 11.4875 0.107878C12.2177 0.116433 12.9534 0.143525 13.6743 0.250464C14.1246 0.316528 14.5694 0.509492 14.9851 0.711488C15.7377 1.07698 16.1619 1.72622 16.3264 2.54419C16.5067 3.44105 16.545 4.34552 16.3927 5.25331C16.3073 5.82106 16.0305 6.34093 15.6097 6.72385C15.4453 6.87594 15.278 7.02565 15.0804 7.20151ZM2.8982 8.45436C2.88873 8.49822 2.88218 8.54268 2.87859 8.58744C2.87859 9.89875 2.87858 11.2101 2.87391 12.5209C2.87391 12.7001 2.96734 12.7025 3.09535 12.702C5.97354 12.6873 8.85221 12.6773 11.7309 12.6573C12.0965 12.6566 12.4613 12.6248 12.8217 12.5622C13.1828 12.4976 13.5505 12.336 13.6206 11.9344C13.7641 11.0684 13.784 10.1859 13.6799 9.31415C13.6355 8.91349 13.166 8.52993 12.7684 8.52613C9.92902 8.50205 7.0896 8.47812 4.25017 8.45436C3.80123 8.45151 3.35275 8.45436 2.8982 8.45436ZM2.8982 2.44295V6.16871H3.10375C5.04949 6.16871 6.99477 6.17584 8.94004 6.16016C10.1079 6.15113 11.2735 6.11263 12.44 6.07176C13.0632 6.05132 13.4678 5.78658 13.5145 5.26377C13.5745 4.58912 13.583 3.91077 13.5402 3.23478C13.514 2.78658 13.045 2.44153 12.6059 2.44153H2.8982V2.44295Z" fill="white"/>
<path d="M56.4494 12.0575C56.6176 11.8351 56.7633 11.6521 56.8997 11.4615C59.5735 7.72259 62.2452 3.98225 64.9149 0.240491C65.0317 0.0765178 65.1484 0.00284929 65.3512 0.00950328C66.0347 0.0242371 66.7186 0.0152065 67.4203 0.0152065V14.971H64.7822V4.9672L64.6925 4.94486C64.6355 5.02091 64.5771 5.09648 64.5215 5.17395C62.2436 8.3742 59.967 11.576 57.6916 14.7795C57.5837 14.932 57.4729 14.9886 57.2903 14.9862C56.6447 14.9767 55.9987 14.9783 55.3525 14.991C55.1866 14.9943 55.0885 14.9434 54.99 14.8056C52.6937 11.5984 50.3945 8.39337 48.0923 5.19058C48.0241 5.09553 47.9521 5.00047 47.8853 4.90874L47.811 4.91872V14.9743H45.1758V0.0945783C45.337 0.0831714 45.4519 0.0708137 45.5668 0.0674867C46.197 0.0475247 46.8281 0.0403951 47.4569 0.00474869C47.6803 -0.00808401 47.8008 0.0717655 47.9288 0.249997C50.5816 3.94582 53.239 7.6383 55.9009 11.3275C56.0691 11.5637 56.2476 11.7913 56.4494 12.0575Z" fill="white"/>
<path d="M115.56 0.0835878L117.999 0.0065918V14.9857C117.532 14.9857 117.068 14.9904 116.605 14.9809C116.538 14.9809 116.468 14.9149 116.406 14.8692C111.418 11.1715 106.429 7.473 101.441 3.7737C101.367 3.71952 101.292 3.66724 101.15 3.566V14.9728H98.6406V0.105925C98.778 0.0916662 98.8742 0.0759812 98.9718 0.0726542C99.5633 0.0512664 100.154 0.0251264 100.747 0.0198983C100.89 0.0214862 101.029 0.0670525 101.146 0.150602C105.527 3.46144 109.906 6.7756 114.283 10.0931C114.642 10.3654 115.011 10.6245 115.438 10.9339C115.55 7.28273 115.523 3.70146 115.56 0.0835878Z" fill="white"/>
<path d="M69.2148 14.9738C69.2849 14.8607 69.34 14.7685 69.3989 14.6786C72.5541 9.85892 75.7089 5.03889 78.8632 0.218552C78.9496 0.0864228 79.0407 0.0194092 79.2005 0.0241621C79.6513 0.0374701 80.1021 0.0407963 80.5552 0.0441233C80.8743 0.0441233 81.0813 0.207146 81.256 0.47188C82.7145 2.71095 84.1874 4.93956 85.6436 7.18053C87.2631 9.67103 88.8756 12.1661 90.4811 14.6658C90.5315 14.7437 90.5773 14.825 90.6483 14.9429C90.4386 14.9557 90.2648 14.9752 90.0877 14.9757C89.302 14.98 88.5157 14.9714 87.7304 14.9847C87.5211 14.988 87.4034 14.9258 87.2857 14.7418C85.2682 11.5261 83.2449 8.31377 81.2158 5.10496C80.8757 4.56646 80.5193 4.03937 80.1694 3.50753C80.1227 3.43671 80.0717 3.37017 80.0017 3.26988C79.9255 3.37302 79.8615 3.44907 79.8092 3.53129C77.7225 6.75879 75.6374 9.98709 73.5539 13.2162C73.2086 13.7509 72.8709 14.2908 72.52 14.8217C72.4733 14.8935 72.3701 14.9695 72.292 14.9709C71.304 14.9828 70.3155 14.9819 69.3274 14.9833C69.2898 14.982 69.2522 14.9789 69.2148 14.9738Z" fill="white"/>
<path d="M35.4088 14.9801H32.5213V2.44539H24.9668V0.0285645H42.8414V2.43731H35.4088V14.9801Z" fill="white"/>
<path d="M95.4297 0.0322266V14.9761H92.5664V0.0322266H95.4297Z" fill="white"/>
<path d="M22.5365 14.9771H19.8008V0.0327148H22.5365V14.9771Z" fill="white"/>
</g>
<defs>
<clipPath id="clip0_103_1869">
<rect width="118" height="15" fill="white"/>
</clipPath>
</defs>
</svg>
