<svg width="168" height="23" viewBox="0 0 168 23" fill="none" xmlns="http://www.w3.org/2000/svg">
<path fill-rule="evenodd" clip-rule="evenodd" d="M60.9216 7.9209H51.6427L46.6237 16.6333L41.8813 7.9209H32.6946L42.2269 22.6189H51.3903L60.9216 7.9209ZM37.7826 22.6189C31.3355 17.3703 26.962 6.6682 22.7711 0H9.8313L10.5216 0.810781L23.139 20.4265C25.6951 24.4797 32.9247 21.864 37.7826 22.6189ZM150.139 7.9209L140.261 7.90228L140.608 22.6189H149.288L149.127 15.2509L158.29 22.6189H167.5V7.90228H158.635L158.705 14.8835L150.139 7.9209ZM20.0771 17.4247C18.9258 17.3703 17.6831 17.4426 16.5084 17.4627C14.828 17.5171 13.2397 17.4992 11.9039 16.8725C13.1699 14.9938 14.8047 13.2075 15.6561 11.1619L11.9039 4.88118H11.2127L0 22.6189H23.139L20.0771 17.4247ZM97.0005 18.807V7.90228H87.8379V22.6189H109.25C108.766 21.4407 108.56 20.2252 107.223 19.3593L97.0005 18.807ZM122.717 7.35006C116.041 7.36797 110.423 9.61553 108.534 12.709C107.659 14.1651 107.637 15.859 108.534 17.2958C110.422 20.3541 116.201 22.6003 122.877 22.6189C131.143 22.6189 137.89 19.1745 137.89 14.9938C137.891 10.7758 130.983 7.35006 122.717 7.35006ZM122.717 19.2676C119.816 19.2676 117.422 17.4433 117.422 15.1965C117.422 12.9482 119.816 11.144 122.717 11.144C125.618 11.144 128.014 12.9683 128.014 15.1965C128.014 17.4433 125.619 19.2676 122.717 19.2676ZM75.9108 7.90228H66.0562L56.5248 22.6189H64.929L66.6784 20.6857L74.2303 20.6299L76.2563 22.6189H85.4421L75.9108 7.90228ZM68.589 17.3703L70.615 14.3864L72.7566 17.3703H68.589Z" fill="white"/>
</svg>
