<svg width="75" height="75" viewBox="0 0 75 75" fill="none" xmlns="http://www.w3.org/2000/svg">
<path fill-rule="evenodd" clip-rule="evenodd" d="M8.36328 14.3633C8.36328 11.0496 11.0496 8.36328 14.3633 8.36328H60.6367C63.9504 8.36328 66.6367 11.0496 66.6367 14.3633V60.6367C66.6367 63.9504 63.9504 66.6367 60.6367 66.6367H14.3633C11.0496 66.6367 8.36328 63.9504 8.36328 60.6367V14.3633ZM14.3633 10.3633C12.1541 10.3633 10.3633 12.1541 10.3633 14.3633V60.6367C10.3633 62.8459 12.1541 64.6367 14.3633 64.6367H60.6367C62.8459 64.6367 64.6367 62.8459 64.6367 60.6367V14.3633C64.6367 12.1541 62.8459 10.3633 60.6367 10.3633H14.3633Z" fill="#323232"/>
<path fill-rule="evenodd" clip-rule="evenodd" d="M48.5421 45.4284C49.4862 44.9973 50.512 44.7746 51.5498 44.7754C51.5639 44.7754 51.578 44.7757 51.5921 44.7763L54.1498 44.8868C54.7016 44.9106 55.1296 45.3772 55.1058 45.929C55.0819 46.4808 54.6153 46.9088 54.0635 46.8849L51.528 46.7754C50.7842 46.7777 50.0494 46.9387 49.3727 47.2478L36.2194 53.2382C35.7168 53.4671 35.1238 53.2452 34.8949 52.7426C34.666 52.24 34.8878 51.647 35.3905 51.4181L48.5421 45.4284C48.5422 45.4283 48.542 45.4284 48.5421 45.4284Z" fill="#FF4B12"/>
<path fill-rule="evenodd" clip-rule="evenodd" d="M27.6958 25.6142C29.7125 24.9071 31.9389 25.1304 33.775 26.2239C34.2495 26.5065 34.405 27.1202 34.1224 27.5947C33.8398 28.0692 33.2261 28.2248 32.7516 27.9422C31.4256 27.1525 29.8181 26.9907 28.3615 27.5001L21.1753 30.0903C20.6557 30.2776 20.0827 30.0082 19.8955 29.4886C19.7082 28.9691 19.9776 28.396 20.4971 28.2088L27.6958 25.6142Z" fill="#FF4B12"/>
<path fill-rule="evenodd" clip-rule="evenodd" d="M39.2225 22.036C41.272 20.7083 43.852 20.5012 46.0871 21.4848L55.0784 25.4427C55.5839 25.6652 55.8133 26.2554 55.5907 26.7609C55.3682 27.2663 54.7781 27.4957 54.2726 27.2732L45.2814 23.3154C45.2814 23.3153 45.2815 23.3154 45.2814 23.3154C43.6628 22.603 41.7942 22.753 40.3099 23.7145C40.3099 23.7145 40.3099 23.7145 40.3099 23.7145L32.1504 29.001C31.1846 29.627 30.5642 30.6658 30.4712 31.813C30.3781 32.9598 30.8227 34.0849 31.6746 34.8583C32.7809 35.86 34.3796 36.1016 35.7325 35.4716C35.7323 35.4716 35.7326 35.4715 35.7325 35.4716L40.597 33.2019C41.0975 32.9683 41.6925 33.1848 41.926 33.6853C42.1595 34.1857 41.9431 34.7808 41.4426 35.0143L36.5781 37.284C34.4959 38.2541 32.0346 37.8825 30.3319 36.3405L30.3311 36.3398C29.0192 35.1493 28.3345 33.417 28.4777 31.6512C28.621 29.8854 29.576 28.2862 31.0626 27.3227L39.2225 22.036Z" fill="#FF4B12"/>
<path fill-rule="evenodd" clip-rule="evenodd" d="M39.8678 33.3168C40.7343 32.6319 41.9921 32.779 42.677 33.6455L44.167 35.5303C45.7099 36.9563 46.6021 38.9474 46.608 41.0499C46.6141 43.2172 45.6775 45.2715 44.0534 46.7139L38.203 51.906C35.2401 54.5357 30.7214 54.5468 27.745 51.9326L27.744 51.9318L23.7505 48.4198C23.7609 48.4297 23.7498 48.4243 23.7103 48.4048C23.6251 48.3629 23.4077 48.2559 22.9877 48.0981C22.4288 47.8881 21.7224 47.6628 20.9607 47.4361C20.3519 47.255 19.6703 47.0635 19.0301 46.8835C20.5567 47.3299 19.7848 47.113 19.3459 46.9667C18.298 46.6174 19.127 45.9792 19.4763 44.9313C19.8256 43.8834 19.5629 42.8227 20.6108 43.172C20.997 43.3007 19.213 42.7809 19.9312 42.9816C20.1465 43.0417 20.3737 43.1052 20.6108 43.172L19.9784 45.0693C20.3903 45.2067 20.0899 45.2066 19.4763 44.9313C21.5409 45.5099 24.3524 46.2978 25.0449 46.8947L29.0648 50.4299C31.2835 52.3787 34.6671 52.3701 36.8754 50.4102L42.7253 45.2185C43.929 44.1495 44.6124 42.6382 44.608 41.0555C44.6036 39.4727 43.9117 37.965 42.7021 36.9023L41.1081 34.8858L39.2534 35.6356C38.9285 34.8331 39.1543 33.8808 39.8678 33.3168Z" fill="#FF4B12"/>
<path fill-rule="evenodd" clip-rule="evenodd" d="M9.36503 47.2236L9.36328 49.2236H16.6601C17.7656 49.2243 18.8261 48.7857 19.6082 48.0043C20.3895 47.2222 20.8281 46.1617 20.8274 45.0562V28.3805C20.8281 27.275 20.3895 26.2145 19.6082 25.4324C18.8261 24.651 17.7656 24.2124 16.6601 24.2131H9.38517L9.38342 26.2131C9.384 26.2131 9.38458 26.2131 9.38517 26.2131L16.6613 26.2131C17.236 26.2128 17.7873 26.4406 18.194 26.8466C18.5999 27.2533 18.8278 27.8046 18.8274 28.3792V45.0575C18.8278 45.6321 18.5999 46.1834 18.194 46.5901C17.7873 46.9961 17.236 47.2239 16.6614 47.2236H9.36503Z" fill="#323232"/>
<path fill-rule="evenodd" clip-rule="evenodd" d="M58.3419 26.2131C57.7672 26.2128 57.2159 26.4406 56.8093 26.8466C56.4033 27.2533 56.1754 27.8046 56.1758 28.3792L56.1758 45.0575C56.1754 45.6322 56.4033 46.1835 56.8093 46.5902C57.216 46.9961 57.7672 47.2239 58.3419 47.2236L58.3431 47.2236H65.6149V49.2236H58.3431C57.2376 49.2243 56.1771 48.7857 55.395 48.0043C54.6137 47.2222 54.1751 46.1617 54.1758 45.0562V28.3805C54.1751 27.275 54.6137 26.2145 55.395 25.4324C56.1771 24.651 57.2376 24.2124 58.3431 24.2131H65.6149V26.2131H58.3419Z" fill="#323232"/>
</svg>
