<svg width="61" height="59" viewBox="0 0 61 59" fill="none" xmlns="http://www.w3.org/2000/svg">
<path fill-rule="evenodd" clip-rule="evenodd" d="M7.40786 2.36328C4.5456 2.36328 2.22529 4.71495 2.22529 7.61589V51.3841C2.22529 54.285 4.5456 56.6367 7.40786 56.6367H19.7463C20.2912 56.6367 20.733 57.0844 20.733 57.6367C20.733 58.189 20.2912 58.6367 19.7463 58.6367H7.40786C3.45576 58.6367 0.251953 55.3896 0.251953 51.3841V7.61589C0.251953 3.61038 3.45576 0.363281 7.40786 0.363281H44.4233C48.3754 0.363281 51.5792 3.61038 51.5792 7.61589V16.9948C51.5792 17.5471 51.1374 17.9948 50.5925 17.9948C50.0476 17.9948 49.6058 17.5471 49.6058 16.9948V7.61589C49.6058 4.71495 47.2855 2.36328 44.4233 2.36328H7.40786Z" fill="#323232"/>
<path fill-rule="evenodd" clip-rule="evenodd" d="M58.8793 27.2933C58.8967 27.3086 58.9134 27.3245 58.9297 27.3411C61.4756 29.9347 61.4661 34.1286 58.9088 36.7105C58.9085 36.7108 58.9082 36.7111 58.9079 36.7114L39.2974 56.5869C38.7359 57.155 38.0028 57.5176 37.2155 57.6163L29.1213 58.6293C28.8161 58.6675 28.5108 58.5593 28.2956 58.3367C28.0804 58.1141 27.9799 57.8025 28.0238 57.4941L29.223 49.064C29.2232 49.0631 29.2233 49.0623 29.2234 49.0615C29.3304 48.2872 29.6845 47.5696 30.2316 47.0183C30.232 47.0178 30.2325 47.0174 30.2329 47.0169L49.5596 27.429C49.5912 27.3844 49.6265 27.3423 49.6655 27.303C52.2143 24.733 56.3295 24.7323 58.8793 27.2933ZM58.2117 28.0307L58.0467 28.2313L57.5307 28.7516C59.3085 30.5628 59.3017 33.4915 57.5155 35.2942L57.514 35.2957L37.9026 55.1721C37.9028 55.1719 37.9024 55.1723 37.9026 55.1721M58.2117 28.0307L57.5125 28.7363C55.7657 26.9584 52.9474 26.9199 51.1543 28.6258C51.1255 28.6653 51.0937 28.7027 51.059 28.7378L31.6259 48.4335L31.6235 48.4359C31.3813 48.6798 31.2246 48.9974 31.1775 49.3401L31.1768 49.3447L30.1612 56.4839L36.9733 55.6314C36.9734 55.6314 36.9732 55.6314 36.9733 55.6314" fill="black"/>
<path fill-rule="evenodd" clip-rule="evenodd" d="M16.6624 36.7527C14.652 36.7527 13.0222 38.4045 13.0222 40.4421C13.0222 42.4798 14.652 44.1316 16.6624 44.1316C18.6729 44.1316 20.3027 42.4798 20.3027 40.4421C20.3027 38.4045 18.6729 36.7527 16.6624 36.7527ZM11.0488 40.4421C11.0488 37.2999 13.5621 34.7527 16.6624 34.7527C19.7627 34.7527 22.276 37.2999 22.276 40.4421C22.276 43.5843 19.7627 46.1316 16.6624 46.1316C13.5621 46.1316 11.0488 43.5843 11.0488 40.4421Z" fill="#FF4B12"/>
<path fill-rule="evenodd" clip-rule="evenodd" d="M11.0488 13.8684C11.0488 13.3161 11.4906 12.8684 12.0355 12.8684H36.7124C37.2574 12.8684 37.6991 13.3161 37.6991 13.8684C37.6991 14.4207 37.2574 14.8684 36.7124 14.8684H12.0355C11.4906 14.8684 11.0488 14.4207 11.0488 13.8684Z" fill="#FF4B12"/>
<path fill-rule="evenodd" clip-rule="evenodd" d="M11.0488 24.8105C11.0488 24.2583 11.4906 23.8105 12.0355 23.8105H24.374C24.9189 23.8105 25.3606 24.2583 25.3606 24.8105C25.3606 25.3628 24.9189 25.8105 24.374 25.8105H12.0355C11.4906 25.8105 11.0488 25.3628 11.0488 24.8105Z" fill="#FF4B12"/>
</svg>
