<svg width="74" height="75" viewBox="0 0 74 75" fill="none" xmlns="http://www.w3.org/2000/svg">
<path fill-rule="evenodd" clip-rule="evenodd" d="M51.5345 42.5552L65.4153 35.0521C66.4271 34.5052 67.056 33.4346 67.0483 32.2724C67.0405 31.1103 66.3973 30.0484 65.3783 29.5154L28.187 10.0604C26.3895 9.12051 24.2515 9.13336 22.4651 10.0948L8.58427 17.598C7.57249 18.1449 6.94354 19.2155 6.95124 20.3776C6.95908 21.5398 7.60228 22.6017 8.62129 23.1346L45.8033 42.5959C47.6043 43.5371 49.7466 43.5219 51.5345 42.5552ZM46.7077 40.8183C46.708 40.8185 46.7084 40.8186 46.7087 40.8188C47.9335 41.4584 49.39 41.4479 50.6057 40.7906L64.4866 33.2874C64.8511 33.0904 65.0778 32.7046 65.075 32.2858C65.0721 31.8672 64.8403 31.4847 64.4733 31.2927L27.2823 11.8378C26.0602 11.1988 24.6068 11.2073 23.3921 11.8604C23.3916 11.8607 23.3911 11.8609 23.3906 11.8612L9.5129 19.3627C9.14847 19.5596 8.92185 19.9453 8.92453 20.364M46.7077 40.8183L9.52675 21.3576C9.15972 21.1656 8.92744 20.7826 8.92453 20.364" fill="black"/>
<path fill-rule="evenodd" clip-rule="evenodd" d="M65.4153 17.598L51.5345 10.0948C49.7481 9.13336 47.6101 9.12051 45.8125 10.0604L8.62129 29.5154C7.60228 30.0484 6.95908 31.1103 6.95124 32.2724C6.94354 33.4346 7.57249 34.5052 8.58427 35.0521L22.4651 42.5552C24.2529 43.5219 26.3952 43.5371 28.1963 42.5959L65.3783 23.1346C66.3973 22.6017 67.0405 21.5398 67.0483 20.3776C67.056 19.2155 66.4271 18.1449 65.4153 17.598ZM65.075 20.3642C65.0778 19.9454 64.8511 19.5597 64.4866 19.3627L50.609 11.8612C50.6087 11.8611 50.6093 11.8614 50.609 11.8612C49.3942 11.2078 47.9398 11.1987 46.7176 11.8377C46.7175 11.8377 46.7177 11.8376 46.7176 11.8377L9.52634 31.2927C9.15931 31.4846 8.92745 31.8672 8.92453 32.2858M65.075 20.3642C65.0721 20.7829 64.8403 21.1654 64.4733 21.3573L27.2919 40.8183C27.2922 40.8181 27.2916 40.8184 27.2919 40.8183C26.0671 41.458 24.6096 41.448 23.3939 40.7906L9.5129 33.2874C9.14847 33.0904 8.92185 32.7045 8.92453 32.2858" fill="black"/>
<path fill-rule="evenodd" clip-rule="evenodd" d="M15.1136 37.5662C15.6585 37.5662 16.1003 38.0139 16.1003 38.5662V50.8713C16.1003 52.8117 17.1553 54.594 18.8445 55.5068L34.576 64.0197C36.0999 64.8433 37.9284 64.8433 39.4523 64.02M39.4523 64.02L55.1839 55.5071C56.873 54.5942 57.9285 52.8117 57.9285 50.8713V38.5662C57.9285 38.0139 58.3703 37.5662 58.9152 37.5662C59.4601 37.5662 59.9019 38.0139 59.9019 38.5662V50.8713C59.9019 53.5501 58.4453 56.0111 56.1128 57.2716L40.3817 65.7843C38.2774 66.9215 35.7519 66.9217 33.6476 65.7845L17.916 57.2716C15.5835 56.0111 14.127 53.5501 14.127 50.8713V38.5662C14.127 38.0139 14.5687 37.5662 15.1136 37.5662" fill="black"/>
<path fill-rule="evenodd" clip-rule="evenodd" d="M37.0003 36.9814C37.5453 36.9814 37.987 37.4292 37.987 37.9814V65.6367C37.987 66.189 37.5453 66.6367 37.0003 66.6367C36.4554 66.6367 36.0137 66.189 36.0137 65.6367V37.9814C36.0137 37.4292 36.4554 36.9814 37.0003 36.9814Z" fill="black"/>
<path fill-rule="evenodd" clip-rule="evenodd" d="M38.4129 20.663C38.6048 21.0301 38.4627 21.4832 38.0956 21.6751L27.0956 27.4251C26.7286 27.617 26.2754 27.4749 26.0835 27.1078C25.8916 26.7408 26.0337 26.2876 26.4008 26.0957L37.4008 20.3457C37.7678 20.1539 38.221 20.2959 38.4129 20.663Z" fill="#FF4B12"/>
<path fill-rule="evenodd" clip-rule="evenodd" d="M43.9033 23.5202C44.105 23.8821 43.9751 24.3388 43.6133 24.5405L35.9883 28.7905C35.6265 28.9922 35.1697 28.8623 34.9681 28.5005C34.7664 28.1387 34.8962 27.6819 35.258 27.4803L42.883 23.2303C43.2448 23.0286 43.7016 23.1584 43.9033 23.5202Z" fill="#FF4B12"/>
</svg>
