<svg width="65" height="66" viewBox="0 0 65 66" fill="none" xmlns="http://www.w3.org/2000/svg">
<path fill-rule="evenodd" clip-rule="evenodd" d="M4.64369 10.4821C4.29323 10.4821 3.95712 10.6213 3.7093 10.8691C3.46149 11.1169 3.32227 11.453 3.32227 11.8035V48.9463C3.32227 49.2968 3.46149 49.6329 3.7093 49.8807C3.95712 50.1285 4.29323 50.2678 4.64369 50.2678H60.358C60.7085 50.2678 61.0446 50.1285 61.2924 49.8807C61.5402 49.6329 61.6794 49.2968 61.6794 48.9463V11.8035C61.6794 11.453 61.5402 11.1169 61.2924 10.8691C61.0446 10.6213 60.7085 10.4821 60.358 10.4821H55.7151C55.1628 10.4821 54.7151 10.0343 54.7151 9.48206C54.7151 8.92977 55.1628 8.48206 55.7151 8.48206H60.358C61.2389 8.48206 62.0837 8.83199 62.7066 9.45488C63.3295 10.0778 63.6794 10.9226 63.6794 11.8035V48.9463C63.6794 49.8272 63.3295 50.6721 62.7066 51.2949C62.0837 51.9178 61.2389 52.2678 60.358 52.2678H4.64369C3.7628 52.2678 2.91798 51.9178 2.29509 51.2949C1.6722 50.6721 1.32227 49.8272 1.32227 48.9463V11.8035C1.32227 10.9226 1.6722 10.0778 2.29509 9.45488C2.91798 8.83199 3.7628 8.48206 4.64369 8.48206H9.28655C9.83884 8.48206 10.2866 8.92977 10.2866 9.48206C10.2866 10.0343 9.83884 10.4821 9.28655 10.4821H4.64369Z" fill="black"/>
<path fill-rule="evenodd" clip-rule="evenodd" d="M28.2294 50.3392C28.7421 50.5444 28.9916 51.1263 28.7864 51.6391L24.1436 63.2463C23.9385 63.759 23.3565 64.0085 22.8437 63.8033C22.3309 63.5982 22.0815 63.0163 22.2866 62.5035L26.9295 50.8963C27.1346 50.3835 27.7166 50.1341 28.2294 50.3392Z" fill="black"/>
<path fill-rule="evenodd" clip-rule="evenodd" d="M36.7715 50.3392C37.2842 50.1341 37.8662 50.3835 38.0713 50.8963L42.7142 62.5035C42.9193 63.0163 42.6699 63.5982 42.1571 63.8033C41.6443 64.0085 41.0623 63.759 40.8572 63.2463L36.2144 51.6391C36.0093 51.1263 36.2587 50.5444 36.7715 50.3392Z" fill="black"/>
<path fill-rule="evenodd" clip-rule="evenodd" d="M17.5723 62.8749C17.5723 62.3226 18.02 61.8749 18.5723 61.8749H46.4294C46.9817 61.8749 47.4294 62.3226 47.4294 62.8749C47.4294 63.4272 46.9817 63.8749 46.4294 63.8749H18.5723C18.02 63.8749 17.5723 63.4272 17.5723 62.8749Z" fill="black"/>
<path fill-rule="evenodd" clip-rule="evenodd" d="M32.6406 8.48206C33.1929 8.48206 33.6406 8.92977 33.6406 9.48206V16.4463C33.6406 16.9986 33.1929 17.4463 32.6406 17.4463C32.0883 17.4463 31.6406 16.9986 31.6406 16.4463V9.48206C31.6406 8.92977 32.0883 8.48206 32.6406 8.48206Z" fill="#6E42FF"/>
<path fill-rule="evenodd" clip-rule="evenodd" d="M17.7062 17.1074C17.9822 16.629 18.5938 16.4649 19.0722 16.7409L25.1079 20.2231C25.5863 20.499 25.7503 21.1106 25.4743 21.589C25.1983 22.0673 24.5868 22.2314 24.1084 21.9554L18.0727 18.4733C17.5943 18.1973 17.4303 17.5858 17.7062 17.1074Z" fill="#6E42FF"/>
<path fill-rule="evenodd" clip-rule="evenodd" d="M25.4743 29.8752C25.7503 30.3536 25.5863 30.9651 25.1079 31.2411L19.0722 34.7233C18.5938 34.9992 17.9822 34.8352 17.7062 34.3568C17.4303 33.8784 17.5943 33.2669 18.0727 32.9909L24.1084 29.5087C24.5868 29.2327 25.1983 29.3968 25.4743 29.8752Z" fill="#6E42FF"/>
<path fill-rule="evenodd" clip-rule="evenodd" d="M32.6406 34.0178C33.1929 34.0178 33.6406 34.4655 33.6406 35.0178V41.9821C33.6406 42.5344 33.1929 42.9821 32.6406 42.9821C32.0883 42.9821 31.6406 42.5344 31.6406 41.9821V35.0178C31.6406 34.4655 32.0883 34.0178 32.6406 34.0178Z" fill="#6E42FF"/>
<path fill-rule="evenodd" clip-rule="evenodd" d="M39.8059 29.8752C40.0818 29.3968 40.6934 29.2327 41.1718 29.5087L47.2075 32.9909C47.6859 33.2669 47.8499 33.8784 47.5739 34.3568C47.298 34.8352 46.6864 34.9992 46.208 34.7233L40.1723 31.2411C39.6939 30.9651 39.5299 30.3536 39.8059 29.8752Z" fill="#6E42FF"/>
<path fill-rule="evenodd" clip-rule="evenodd" d="M47.5739 17.1074C47.8499 17.5858 47.6859 18.1973 47.2075 18.4733L41.1718 21.9554C40.6934 22.2314 40.0818 22.0673 39.8059 21.589C39.5299 21.1106 39.6939 20.499 40.1723 20.2231L46.208 16.7409C46.6864 16.4649 47.298 16.629 47.5739 17.1074Z" fill="#6E42FF"/>
<path fill-rule="evenodd" clip-rule="evenodd" d="M32.6392 17.4463C28.0632 17.4463 24.3535 21.1559 24.3535 25.732C24.3535 30.3081 28.0632 34.0177 32.6392 34.0177C37.2153 34.0177 40.9249 30.3081 40.9249 25.732C40.9249 21.1559 37.2153 17.4463 32.6392 17.4463ZM22.3535 25.732C22.3535 20.0514 26.9586 15.4463 32.6392 15.4463C38.3199 15.4463 42.9249 20.0514 42.9249 25.732C42.9249 31.4126 38.3199 36.0177 32.6392 36.0177C26.9586 36.0177 22.3535 31.4126 22.3535 25.732Z" fill="#6E42FF"/>
</svg>
