<svg width="63" height="63" viewBox="0 0 63 63" fill="none" xmlns="http://www.w3.org/2000/svg">
<path fill-rule="evenodd" clip-rule="evenodd" d="M5.96512 2.51782C3.95323 2.51782 2.32227 4.14879 2.32227 6.16068V57.2321C2.32227 59.244 3.95323 60.875 5.96512 60.875H57.0366C59.0485 60.875 60.6794 59.244 60.6794 57.2321V6.16068C60.6794 4.14879 59.0485 2.51782 57.0366 2.51782H5.96512ZM0.322266 6.16068C0.322266 3.04422 2.84866 0.517822 5.96512 0.517822H57.0366C60.153 0.517822 62.6794 3.04422 62.6794 6.16068V57.2321C62.6794 60.3486 60.153 62.875 57.0366 62.875H5.96512C2.84866 62.875 0.322266 60.3486 0.322266 57.2321V6.16068Z" fill="black"/>
<path fill-rule="evenodd" clip-rule="evenodd" d="M0.322266 17.7678C0.322266 17.2155 0.769981 16.7678 1.32227 16.7678H61.6794C62.2317 16.7678 62.6794 17.2155 62.6794 17.7678C62.6794 18.3201 62.2317 18.7678 61.6794 18.7678H1.32227C0.769981 18.7678 0.322266 18.3201 0.322266 17.7678Z" fill="black"/>
<path fill-rule="evenodd" clip-rule="evenodd" d="M16.8652 30.9893C17.2557 30.5988 17.8888 30.5988 18.2794 30.9893L25.2437 37.9536C25.6342 38.3441 25.6342 38.9773 25.2437 39.3678L18.2794 46.3321C17.8888 46.7226 17.2557 46.7226 16.8652 46.3321C16.4746 45.9416 16.4746 45.3084 16.8652 44.9179L23.1223 38.6607L16.8652 32.4035C16.4746 32.013 16.4746 31.3798 16.8652 30.9893Z" fill="#6E42FF"/>
<path fill-rule="evenodd" clip-rule="evenodd" d="M37.4648 38.6609C37.4648 38.1086 37.9126 37.6609 38.4648 37.6609H47.7506C48.3028 37.6609 48.7506 38.1086 48.7506 38.6609C48.7506 39.2132 48.3028 39.6609 47.7506 39.6609H38.4648C37.9126 39.6609 37.4648 39.2132 37.4648 38.6609Z" fill="black"/>
</svg>
