<svg width="139" height="122" viewBox="0 0 139 122" fill="none" xmlns="http://www.w3.org/2000/svg">
<path d="M3 18.2362C13.749 9.38408 36.3034 -0.844111 50.1391 4.45468C71.7112 12.7163 68.5667 55.9313 49.1616 63.9465C41.6381 67.054 27.637 60.359 34.3635 46.4578C38.2691 38.3861 47.6333 27.1754 64.7651 27.1754C81.8968 27.1754 89.4514 29.6965 97.1434 35.2471C125.687 55.8444 126.955 85.3953 126.955 118.309" stroke="#6FDE9B" stroke-width="4.48428" stroke-linecap="round"/>
<path d="M118.22 112.377C118.59 113.006 125.396 118.72 126.051 119.094C127.045 119.662 126.354 119.752 127.335 119.174C130.327 116.861 133.018 114.17 136 111.151" stroke="#6FDE9B" stroke-width="4.48428" stroke-linecap="round"/>
</svg>
