<svg width="46" height="15" viewBox="0 0 46 15" fill="none" xmlns="http://www.w3.org/2000/svg">
<g clip-path="url(#clip0_467_4944)">
<path fill-rule="evenodd" clip-rule="evenodd" d="M5.00679 3.12482C5.36152 3.12264 6.41576 3.02526 6.86232 4.57103C7.16312 5.61228 7.64229 7.31789 8.29981 9.68787H8.56759C9.27273 7.18927 9.75712 5.48366 10.0208 4.57103C10.472 3.00916 11.6 3.12485 12.0512 3.12485L15.5324 3.12486V14.2315H11.9843V7.68616H11.7463L9.76845 14.2315H7.09895L5.12106 7.68131H4.88313V14.2315H1.33502V3.12486L5.00679 3.12482ZM20.6274 3.12486V9.67505H20.9104L23.3164 4.28887C23.7834 3.21701 24.7788 3.12486 24.7788 3.12486H28.2123V14.2315H24.5901V7.68131H24.3071L21.9483 13.0675C21.4813 14.1345 20.4387 14.2315 20.4387 14.2315H17.0052V3.12486H20.6274ZM40.7323 8.40281C40.227 9.87131 38.6403 10.923 36.8836 10.923H33.085V14.2315H29.6405V8.40281H40.7323Z" fill="#454447"/>
<path fill-rule="evenodd" clip-rule="evenodd" d="M37.0497 3.12488H29.4599C29.6405 5.5976 31.7167 7.7144 33.866 7.7144H40.9716C41.3817 5.65928 39.9701 3.12488 37.0497 3.12488Z" fill="#454447"/>
</g>
<defs>
<clipPath id="clip0_467_4944">
<rect width="45.1208" height="13.8833" fill="white" transform="translate(0.44104 0.751099)"/>
</clipPath>
</defs>
</svg>
