<svg width="706" height="850" viewBox="0 0 706 850" fill="none" xmlns="http://www.w3.org/2000/svg">
<path opacity="0.32" fill-rule="evenodd" clip-rule="evenodd" d="M418.5 425.264L274.804 0.754883H179.922L418.5 425.264ZM418.5 425.264L657.078 0.754883H562.196L418.5 425.264ZM418.5 425.264L375.294 0.754883H418.5H461.706L418.5 425.264ZM418.5 425.264L837 256.598V136.717L418.5 425.264ZM418.5 425.264L837 25.8858V0.754883H749.132L418.5 425.264ZM418.5 425.264L87.8683 0.754883H0V25.8858L418.5 425.264ZM418.5 425.264L837 348.156V425.264V502.372L418.5 425.264ZM418.5 425.264L837 713.812V593.93L418.5 425.264ZM418.5 425.264L749.132 849.773H837V824.643L418.5 425.264ZM418.5 425.264L274.804 849.773H179.922L418.5 425.264ZM418.5 425.264L657.078 849.773H562.196L418.5 425.264ZM418.5 425.264L375.294 849.773H418.5H461.706L418.5 425.264ZM418.5 425.264L87.8683 849.773H0V824.643L418.5 425.264ZM418.5 425.264L0 593.93V713.812L418.5 425.264ZM418.5 425.264L0 348.156V425.264V502.372L418.5 425.264ZM0 136.717L418.5 425.264L0 256.598V136.717Z" fill="url(#paint0_radial_1206_4746)"/>
<defs>
<radialGradient id="paint0_radial_1206_4746" cx="0" cy="0" r="1" gradientUnits="userSpaceOnUse" gradientTransform="translate(418.5 425.264) rotate(90) scale(424.509 418.5)">
<stop stop-color="white"/>
<stop offset="1" stop-color="white" stop-opacity="0"/>
</radialGradient>
</defs>
</svg>
