<svg width="48" height="64" viewBox="0 0 48 64" fill="none" xmlns="http://www.w3.org/2000/svg">
<path d="M16.4865 25.0904C8.75789 24.5953 8.32749 14.9419 8.32749 14.9419C8.32749 14.9419 7.72866 24.5953 0 24.9381C7.72866 25.4331 8.15906 35.0866 8.15906 35.0866C8.15906 35.0866 8.75789 25.4331 16.4865 25.0904Z" fill="white"/>
<path d="M47.9811 47.3295C35.4805 46.5489 34.7881 30.9358 34.7881 30.9358C34.7881 30.9358 33.8338 46.5298 21.3145 47.101C33.815 47.8817 34.5074 63.4948 34.5074 63.4948C34.5074 63.4948 35.4618 47.9007 47.9811 47.3295Z" fill="white"/>
<path d="M46.3907 7.82078C40.889 7.47806 40.5708 0.604492 40.5708 0.604492C40.5708 0.604492 40.1404 7.47806 34.6387 7.72558C40.1404 8.06831 40.4586 14.9419 40.4586 14.9419C40.4586 14.9419 40.889 8.06831 46.3907 7.82078Z" fill="white"/>
</svg>
