<svg width="28" height="18" viewBox="0 0 28 18" fill="none" xmlns="http://www.w3.org/2000/svg">
<path fill-rule="evenodd" clip-rule="evenodd" d="M12.2213 0.147827H5.94476C4.9881 0.147827 4.03194 0.926633 3.80905 1.88529L0.620916 15.5674C0.398018 16.5228 0.993635 17.3022 1.94779 17.3022H8.2237H8.79204H15.785H16.0952H22.6268C23.5834 17.3022 24.5407 16.5228 24.7656 15.5674L27.9519 1.88529C28.1767 0.926633 27.5824 0.147827 26.6256 0.147827H20.0928H19.7807H12.7897H12.2213ZM6.75545 4.51687C6.82185 4.53255 7.02974 4.53973 7.73363 4.53255C7.72964 4.5389 7.72814 4.54577 7.72554 4.55767C7.7252 4.55922 7.72484 4.56086 7.72445 4.56258C7.6372 4.83236 7.12367 6.90618 7.12367 6.90618L7.06627 7.12957L7.06586 7.13103C6.94217 7.56612 6.80308 8.05538 6.27312 8.36852C5.96747 8.55555 5.51517 8.65799 5.033 8.65799C4.65878 8.65799 3.99726 8.59726 3.76536 8.19201C3.69295 8.06421 3.65658 7.91305 3.65658 7.72786L3.74117 7.10355L3.78488 6.91268L4.2939 4.66219C4.2939 4.66219 4.31793 4.53839 4.32444 4.51687C4.33628 4.53255 4.50829 4.54106 5.47863 4.53255C5.47746 4.53973 5.47613 4.54757 5.47146 4.56258C5.3822 4.82652 4.88368 6.82326 4.88368 6.82326C4.88368 6.82659 4.78858 7.42037 4.78858 7.42037L4.79442 7.52131C4.82495 7.81528 5.00681 7.97028 5.31897 7.97028C5.51317 7.97028 5.68067 7.91305 5.82415 7.79443C6.07692 7.59038 6.15133 7.27439 6.2536 6.8311C6.25493 6.82926 6.72993 4.63816 6.75545 4.51687ZM8.92765 6.33515C9.13086 6.23555 9.35709 6.20552 9.48089 6.20552C9.67058 6.20552 9.87713 6.25824 9.96322 6.47663C10.0446 6.6715 9.99058 6.91075 9.88297 7.38257L9.82758 7.62365C9.71747 8.14836 9.69928 8.24479 9.63722 8.60517L9.59684 8.63637C9.25349 8.63053 9.13086 8.63053 8.72878 8.65205L8.71376 8.62135C8.73038 8.54742 8.74777 8.47419 8.76518 8.40083C8.78397 8.32172 8.80279 8.24247 8.82071 8.16204L8.87026 7.95216C8.9445 7.62699 9.01691 7.24826 9.02542 7.13231C9.02559 7.13073 9.02578 7.12909 9.02597 7.1274C9.03408 7.05539 9.05273 6.88989 8.85858 6.88989C8.77516 6.88989 8.68773 6.93027 8.59914 6.97131C8.56116 7.10787 8.49242 7.43901 8.44203 7.68172C8.42846 7.74709 8.41622 7.80604 8.40628 7.85306C8.33337 8.19454 8.31062 8.31535 8.28608 8.44569C8.27704 8.49372 8.26775 8.54304 8.25562 8.60517L8.22692 8.63637C7.87239 8.63053 7.7486 8.63053 7.34067 8.65205L7.32232 8.61685C7.39022 8.33989 7.45796 8.0596 7.5232 7.78198C7.69454 7.0287 7.73558 6.74057 7.7818 6.35734L7.81516 6.33515C7.8412 6.33149 7.86594 6.32801 7.88957 6.32469C8.22729 6.27724 8.33786 6.26171 8.74062 6.18016L8.77699 6.22053L8.71059 6.46028C8.72755 6.45025 8.7443 6.4402 8.76094 6.43022C8.81652 6.3969 8.8709 6.3643 8.92765 6.33515ZM11.3619 6.71314C11.3846 6.70878 11.4082 6.70424 11.4328 6.69951L11.4406 6.7177L11.4465 6.73738C11.4291 6.80981 11.4113 6.88226 11.3935 6.95495C11.3713 7.04571 11.3489 7.13683 11.3272 7.22873C11.3096 7.3062 11.2914 7.38284 11.2733 7.45909C11.2526 7.54638 11.232 7.63315 11.2125 7.72007C11.1813 7.86081 11.1576 7.96581 11.1392 8.04716C11.1123 8.16621 11.0969 8.23463 11.0861 8.29033C11.075 8.34325 11.0689 8.38181 11.0592 8.44376C11.0529 8.48414 11.045 8.53445 11.0332 8.60515L11.0137 8.6215L10.9955 8.63635C10.9284 8.63597 10.869 8.63523 10.8149 8.63456C10.7014 8.63314 10.6115 8.63202 10.5237 8.63518C10.405 8.63625 10.2893 8.64178 10.1229 8.64972C10.1073 8.65047 10.0911 8.65124 10.0745 8.65203L10.0642 8.63518L10.0518 8.61683C10.0981 8.44268 10.1258 8.3681 10.1495 8.30448C10.1528 8.29551 10.1561 8.28676 10.1593 8.27798C10.186 8.20691 10.2102 8.1365 10.2571 7.93446C10.3176 7.67052 10.3548 7.48683 10.379 7.32516C10.4 7.21005 10.4137 7.1076 10.4281 7.00017C10.4332 6.9617 10.4384 6.92259 10.4441 6.88203L10.4591 6.87019L10.4755 6.85534C10.682 6.82664 10.813 6.80712 10.9473 6.7856C11.0672 6.76995 11.1877 6.74672 11.3619 6.71314ZM10.6729 6.11354C10.9023 5.95521 11.2431 5.91884 11.4373 6.03346C11.6289 6.14691 11.6003 6.36513 11.3721 6.52363C11.1447 6.6833 10.8025 6.7165 10.6116 6.60505C10.4181 6.48893 10.4441 6.2687 10.6729 6.11354ZM13.7106 8.25834C13.4074 8.57967 13.0047 8.68795 12.6118 8.68795C12.458 8.68795 12.2194 8.66843 12.0539 8.59736C11.5175 8.3803 11.6029 7.79703 11.6772 7.47303C11.7507 7.15503 11.8727 6.82336 12.1366 6.57894C12.5042 6.24009 12.9747 6.22057 13.1722 6.22057C13.5007 6.22057 13.8174 6.29414 13.9966 6.52355C14.1145 6.67404 14.2084 6.92112 14.0878 7.45034C14.0508 7.61 13.9438 7.99774 13.7106 8.25834ZM13.0516 6.76013C12.7786 6.76013 12.6717 7.09647 12.5811 7.49722C12.5499 7.63603 12.5244 7.76383 12.5257 7.88896C12.5284 8.14239 12.6991 8.14239 12.7277 8.14239C12.8242 8.14239 12.9114 8.07916 12.9852 7.97488C13.0908 7.83357 13.1689 7.50173 13.1859 7.41247C13.281 7.01038 13.2655 6.76013 13.0516 6.76013ZM15.1007 8.60522L15.07 8.63642C14.7161 8.63058 14.5942 8.63058 14.1856 8.6521L14.1674 8.6169C14.2351 8.33994 14.3029 8.05965 14.3681 7.78203C14.5395 7.02859 14.5787 6.74062 14.6269 6.35739L14.6574 6.3352C14.687 6.33104 14.7149 6.32711 14.7414 6.32339C15.0715 6.27699 15.1854 6.26097 15.5842 6.18004L15.6174 6.22058L15.5555 6.46033C15.6266 6.41662 15.699 6.37307 15.7712 6.3352C15.9733 6.23543 16.2007 6.20557 16.3246 6.20557C16.5117 6.20557 16.7195 6.25829 16.8081 6.47668C16.8882 6.67155 16.8335 6.91063 16.7254 7.38245L16.6713 7.6237C16.5579 8.14824 16.5415 8.24468 16.481 8.60522L16.4393 8.63642C16.0939 8.63058 15.9759 8.63058 15.5725 8.6521L15.5575 8.6214C15.5766 8.53642 15.597 8.45246 15.6176 8.36816C15.6342 8.29987 15.6509 8.23137 15.667 8.16193L15.7138 7.95204C15.7894 7.62687 15.8618 7.24831 15.869 7.13219L15.8695 7.12782C15.8777 7.05609 15.8968 6.88978 15.7035 6.88978C15.6184 6.88978 15.5335 6.9292 15.4459 6.9699L15.4427 6.97136C15.4079 7.10007 15.3439 7.4016 15.2936 7.63905C15.2761 7.72141 15.2603 7.79605 15.2479 7.85311C15.173 8.21579 15.1519 8.32958 15.1259 8.47032C15.1184 8.51085 15.1104 8.55362 15.1007 8.60522ZM18.2113 7.79446C18.21 7.79446 18.0593 8.52822 18.034 8.65202C17.9219 8.63967 17.6554 8.63967 17.0056 8.64751L17.6736 5.89667C17.6736 5.89466 17.9402 4.65905 17.9402 4.65905C17.9402 4.65905 17.9597 4.56262 17.9701 4.5084C18.0927 4.52341 18.3912 4.52608 19.1355 4.5169L19.4221 4.51424C20.0035 4.5169 20.5072 4.52341 20.7601 4.87728C20.8599 5.01025 20.8944 5.18042 20.8944 5.35244C20.8944 5.4834 20.8748 5.61437 20.8481 5.72449C20.7451 6.17362 20.5144 6.54317 20.1769 6.79343C19.6809 7.1583 19.048 7.1583 18.4876 7.1583H18.4282C18.3879 7.18049 18.3475 7.23655 18.3475 7.23655C18.3396 7.25607 18.2113 7.79446 18.2113 7.79446ZM18.8101 5.22864C18.8115 5.22397 18.528 6.45708 18.528 6.45708L18.5163 6.51898H18.6701C18.9079 6.51898 19.1386 6.51113 19.327 6.4167C19.5557 6.30525 19.7337 6.07452 19.7943 5.80007C19.8607 5.49975 19.7656 5.26968 19.5349 5.18042C19.5212 5.17909 18.9366 5.12887 18.9366 5.12887L18.8233 5.11719L18.8193 5.16541L18.8101 5.22864ZM20.6656 8.63054C20.1319 8.42266 20.218 7.83939 20.2929 7.52006C20.364 7.20323 20.4891 6.87289 20.7497 6.63181C21.1206 6.29413 21.552 6.20103 21.7357 6.27327C21.8794 6.3285 21.9725 6.41709 22.0367 6.52086C22.0387 6.50513 22.0407 6.48941 22.0428 6.47352C22.0449 6.45721 22.0471 6.44074 22.0492 6.42393L22.0806 6.3984C22.4937 6.33984 22.6085 6.32282 23.0379 6.24324L23.0502 6.27911C22.9713 6.60495 22.8946 6.92895 22.8177 7.25612C22.6659 7.91277 22.6072 8.25856 22.5489 8.60154L22.5419 8.64289L22.5042 8.67159C22.0882 8.66842 21.9691 8.66842 21.5852 8.6846L21.561 8.6534L21.5991 8.50758C21.4586 8.6257 21.3069 8.70779 21.1433 8.71663C20.9883 8.72447 20.8358 8.70295 20.6656 8.63054ZM21.666 6.813C21.3924 6.813 21.2868 7.14601 21.1948 7.53958C21.163 7.67973 21.1374 7.80736 21.1388 7.93132C21.1446 8.18024 21.3134 8.18024 21.3408 8.18024C21.4372 8.18024 21.6047 8.11835 21.6752 8.01858C21.7127 7.96869 21.7469 7.89378 21.7763 7.81437C21.7836 7.78502 21.7909 7.75569 21.7983 7.72636C21.82 7.63958 21.8417 7.55274 21.8622 7.46534C21.881 7.38442 21.8969 7.31285 21.9116 7.24494C21.9301 6.97266 21.839 6.813 21.666 6.813ZM25.8716 6.20218L25.9048 6.24005C25.9048 6.24005 24.194 9.17476 23.9691 9.65892L23.9339 9.6993H23.9392L23.6049 10.2722C23.4993 10.4684 23.3031 10.6144 22.9909 10.6157L22.4592 10.6066L22.6142 10.091H22.7185C22.7727 10.091 22.8117 10.0884 22.8418 10.0735C22.8691 10.0643 22.8887 10.0428 22.9102 10.0115L23.0984 9.71381L23.0965 9.70981C23.2522 9.47569 23.3395 9.31912 23.44 9.13873C23.5122 9.00931 23.5912 8.86762 23.7072 8.67624C23.6656 8.24558 23.6429 8.05981 23.6127 7.81239C23.6069 7.76507 23.6009 7.7155 23.5944 7.66152C23.5826 7.56334 23.569 7.46429 23.5553 7.36492C23.541 7.26098 23.5266 7.1567 23.5143 7.05273C23.5034 6.96507 23.4954 6.89858 23.489 6.84573C23.4651 6.6487 23.4642 6.64132 23.4237 6.43425L23.421 6.42842C23.422 6.42266 23.4226 6.41707 23.4232 6.41165C23.4243 6.40166 23.4253 6.39224 23.4282 6.38337L23.4603 6.35467C23.7592 6.31633 23.8463 6.29864 24.0428 6.25873C24.1165 6.24376 24.2056 6.22566 24.327 6.20218L24.3642 6.24005L24.4234 7.3844C24.4241 7.39684 24.4244 7.40678 24.4247 7.41648C24.4251 7.42669 24.4254 7.43665 24.4261 7.44897C24.5338 7.20866 24.5907 7.10773 24.6481 7.00581C24.7169 6.88385 24.7865 6.76049 24.9448 6.39521L24.9461 6.40172C24.9481 6.39521 24.9493 6.38804 24.9506 6.38337L24.9793 6.35467C25.3697 6.30195 25.4466 6.28827 25.8716 6.20218ZM20.0673 13.0108H20.2929L20.1182 13.5809H19.8953L19.8426 13.7569H19.0481L19.1021 13.5809H17.4898L17.6508 13.053H17.815L18.661 10.2495L18.8297 9.68437H19.6392L19.5544 9.96916C19.5544 9.96916 19.7702 9.814 19.9749 9.76128C20.1441 9.71623 20.9796 9.69521 21.2594 9.68937V9.6877H22.1248L22.1333 10.0095C22.1274 10.0643 22.1743 10.0898 22.2754 10.0898H22.4513L22.2904 10.6215H21.8231C21.419 10.6502 21.2652 10.4769 21.2756 10.2813L21.267 9.96499L21.1791 10.2495H20.9022L20.0673 13.0108ZM19.2605 10.9552C19.2605 10.9552 19.5017 10.8464 19.6314 10.8105C19.7643 10.7753 19.963 10.7637 19.963 10.7637L20.1182 10.2495H19.475L19.2605 10.9552ZM19.3087 11.8741C19.4417 11.8441 19.6437 11.8187 19.6437 11.8187L19.8002 11.3045H19.1537L18.9321 12.039C18.9321 12.039 19.1777 11.9138 19.3087 11.8741ZM18.6382 13.0173H19.2833L19.4684 12.3975H18.8252L18.6382 13.0173ZM21.767 11.3045H20.837L20.9954 10.7708H23.5834L23.4224 11.3045H22.5543L22.4187 11.7373H23.2894L23.1448 12.2105H22.2043L22.0368 12.4099H22.4187L22.5119 13.0061C22.5147 13.0216 22.5167 13.0358 22.5186 13.0486C22.5238 13.085 22.5275 13.1112 22.542 13.1299C22.5615 13.1508 22.6761 13.162 22.7427 13.162H22.8586L22.6821 13.7419H22.3881C22.3483 13.7419 22.2907 13.7394 22.213 13.7361L22.1816 13.7347C22.1166 13.729 22.0657 13.6991 22.0193 13.6717C22.0033 13.6623 21.9878 13.6532 21.9724 13.6455C21.9182 13.6201 21.8381 13.5549 21.8186 13.4434L21.7266 12.8485L21.2985 13.4344C21.1629 13.6201 20.9792 13.7616 20.6682 13.7616H20.0699L20.2271 13.2434H20.4558C20.5222 13.2434 20.5796 13.2174 20.6233 13.1952C20.6669 13.177 20.7061 13.1541 20.7498 13.0896L21.3741 12.2105H20.5496L20.6911 11.7373H21.6334L21.767 11.3045ZM13.1996 12.4157L12.9825 13.1378C12.9565 13.2174 13.1949 13.2277 13.281 13.2277L13.7268 13.1665L13.5476 13.7615H12.5419C12.4605 13.7615 12.4006 13.7498 12.3132 13.7303C12.2284 13.7087 12.1907 13.6709 12.1535 13.6137C12.1478 13.6044 12.1415 13.5953 12.1352 13.5862C12.1014 13.5377 12.0659 13.4867 12.0988 13.3802L12.3881 12.4249H11.8923L12.0571 11.8787H12.5544L12.6867 11.4342H12.1907L12.3491 10.9142H14.5323L14.3706 11.4342H13.4981L13.3618 11.8787H14.2547L14.0917 12.4157H13.1996ZM12.8588 10.0897L13.0849 9.68111H13.9738L13.8175 9.97825H14.7129L14.5506 10.5225H13.3273L13.195 10.6371C13.1613 10.6697 13.1406 10.6752 13.1142 10.6824C13.0957 10.6874 13.0744 10.6931 13.0438 10.7095C12.9748 10.744 12.8301 10.8131 12.6417 10.8131H12.25L12.4077 10.2904H12.5256C12.6247 10.2904 12.6931 10.2814 12.7277 10.2599C12.7669 10.2344 12.8104 10.179 12.8588 10.0897ZM14.9168 12.9553C14.885 13.0654 14.8699 13.1183 14.8908 13.1483C14.9077 13.1737 14.9482 13.2037 15.0043 13.2037L15.5288 13.1542L15.3489 13.7615H14.763C14.576 13.7615 14.4405 13.7569 14.3452 13.7498C14.3257 13.7481 14.3059 13.7471 14.2863 13.7462C14.2152 13.7427 14.1464 13.7394 14.0963 13.7016C14.09 13.6959 14.0833 13.6901 14.0764 13.6841C14.024 13.6385 13.9591 13.5819 13.9608 13.5249C13.9667 13.465 13.992 13.3652 14.0299 13.2277L15.0973 9.68757H15.8598L15.7484 10.0715C15.7484 10.0715 15.9896 9.8786 16.1584 9.80953C16.3258 9.74763 16.7058 9.69158 16.7058 9.69158L17.9401 9.6844L17.5199 11.0849C17.4488 11.3241 17.366 11.4793 17.3145 11.5502C17.2683 11.6212 17.2135 11.6831 17.1066 11.7419C17.003 11.7979 16.9079 11.8291 16.8205 11.8383C16.739 11.8441 16.6139 11.8461 16.4406 11.8486H15.2512L14.9168 12.9553ZM16.7162 11.1012H15.4669L15.39 11.3528H16.4718C16.5574 11.3427 16.5975 11.3476 16.6179 11.3502C16.6278 11.3514 16.6331 11.352 16.6368 11.3501L16.7162 11.1012ZM16.977 10.2663H15.7172L15.5346 10.8738C15.5346 10.8738 15.7791 10.6502 16.1975 10.5778C16.2926 10.5603 16.8864 10.5661 16.8864 10.5661L16.977 10.2663ZM16.6152 12.2606C16.638 12.2436 16.6544 12.2209 16.6647 12.1837L16.739 11.9465H17.3211L17.25 12.2828C17.22 12.3884 17.194 12.4665 17.1144 12.5344C17.031 12.6053 16.9332 12.6797 16.7044 12.6797L16.2808 12.6972L16.2777 13.0771C16.2739 13.1628 16.2916 13.1732 16.3075 13.1826C16.3115 13.1849 16.3153 13.1872 16.3187 13.1906C16.3377 13.2096 16.3548 13.2169 16.3727 13.2245L16.3741 13.2251L16.5084 13.2173L16.9123 13.1951L16.7448 13.7498H16.2808C15.9563 13.7498 15.7153 13.742 15.637 13.6801C15.5588 13.6305 15.5484 13.5686 15.5496 13.4617L15.5796 11.9797H16.32L16.3095 12.2828H16.4876C16.5488 12.2828 16.5898 12.277 16.6152 12.2606Z" fill="#454447"/>
</svg>
