<svg width="34" height="12" viewBox="0 0 34 12" fill="none" xmlns="http://www.w3.org/2000/svg">
<path d="M14.0001 0.683838L12.3081 10.9662H14.9763L16.6683 0.683838H14.0001Z" fill="#454447"/>
<path d="M29.4236 0.683838C28.7728 0.683838 28.3173 0.879072 28.057 1.52985L24.0872 11.0312H26.8855C26.8855 11.0312 27.3411 9.72968 27.4712 9.46937C27.7966 9.46937 30.4648 9.46937 30.8553 9.46937C30.9204 9.85984 31.1807 11.0312 31.1807 11.0312H33.6537L31.5061 0.683838H29.4236ZM28.1871 7.3218C28.3823 6.7361 29.2284 4.45836 29.2284 4.45836C29.2284 4.45836 29.4236 3.87266 29.5537 3.48219L29.749 4.39329C29.749 4.39329 30.2696 6.86625 30.3998 7.38688H28.1871V7.3218Z" fill="#454447"/>
<path d="M22.0047 4.84888C21.0936 4.39333 20.5079 4.06794 20.5079 3.54732C20.5079 3.09177 20.9634 2.63622 22.0047 2.63622C22.8507 2.63622 23.5015 2.83146 24.0221 3.02669L24.2824 3.15685L24.6729 0.944194C24.1523 0.74896 23.3062 0.488647 22.265 0.488647C19.6619 0.488647 17.7746 1.92036 17.7746 3.87271C17.7746 5.3695 19.0762 6.21552 20.1174 6.67106C21.1587 7.19169 21.4841 7.51708 21.4841 7.97262C21.4841 8.68848 20.638 8.94879 19.8571 8.94879C18.8159 8.94879 18.2302 8.81864 17.3191 8.42817L16.9937 8.23294L16.6032 10.5107C17.254 10.771 18.3603 11.0313 19.5968 11.0313C22.3952 11.0313 24.2173 9.66465 24.2173 7.51708C24.2824 6.47583 23.5666 5.56474 22.0047 4.84888Z" fill="#454447"/>
<path d="M10.0954 0.683838L7.4923 7.71227L7.23199 6.28055L6.32089 1.52985C6.19074 0.879072 5.67011 0.683838 5.08441 0.683838H0.854338C0.78926 0.683838 0.78926 0.748916 0.724182 0.748916C0.724182 0.813994 0.724182 0.879072 0.78926 0.879072C1.44004 1.07431 2.02574 1.26954 2.54637 1.52985C3.13207 1.79016 3.52254 2.31079 3.71777 2.89649L5.86535 10.9662H8.6637L12.8287 0.683838H10.0954Z" fill="#454447"/>
</svg>
