<svg width="119" height="40" viewBox="0 0 119 40" fill="none" xmlns="http://www.w3.org/2000/svg">
<circle cx="18.1728" cy="18.048" r="17.895" fill="white"/>
<circle cx="39.9707" cy="33.8479" r="6.15209" fill="white"/>
<mask id="mask0_103_1104" style="mask-type:alpha" maskUnits="userSpaceOnUse" x="6" y="10" width="20" height="16">
<path d="M23.1176 20.4971L25.4614 11.4997L25.771 10.7753C25.2256 10.7245 23.9313 10.5542 23.1176 10.2797C22.1004 9.93662 18.474 10.2416 15.511 10.2797C12.548 10.3179 12.946 10.8516 11.9288 11.3091C10.9117 11.7666 9.27537 12.8722 7.46218 15.9221C5.64898 18.9721 7.59485 23.6995 7.6833 24.157C7.77175 24.6145 23.1176 26.7494 21.2601 25.682C19.4027 24.6145 21.2159 23.9664 21.9677 23.0514C22.5692 22.3194 22.9849 21.0435 23.1176 20.4971Z" fill="#D9D9D9"/>
</mask>
<g mask="url(#mask0_103_1104)">
<path d="M23.0207 11.4927H25.84L24.1318 18.112C23.8002 19.3701 23.5735 20.1422 23.4519 20.4281C23.8941 22.1818 24.5354 23.0587 25.3757 23.0587C26.3707 23.0587 26.8848 22.4677 26.918 21.2859H27.515C27.4818 22.3915 27.2441 23.2874 26.8019 23.9737C26.3707 24.6504 25.8013 24.9887 25.0937 24.9887C24.5077 24.9887 24.071 24.7838 23.7836 24.374C23.4961 23.9641 23.1866 23.1254 22.8549 21.8578C21.705 23.9451 19.8255 24.9887 17.2163 24.9887C15.4363 24.9887 14.0211 24.393 12.9708 23.2016C11.9204 22.0007 11.3953 20.2851 11.3953 18.0548C11.3953 15.8627 11.9702 14.1566 13.12 12.9367C14.2698 11.7167 15.6518 11.1067 17.266 11.1067C18.4048 11.1067 19.339 11.4546 20.0687 12.1503C20.7984 12.8461 21.4452 13.9803 22.0091 15.5529L23.0207 11.4927ZM21.5613 17.097C21.0417 15.5625 20.4612 14.3663 19.82 13.5085C19.1787 12.6412 18.4103 12.2075 17.5148 12.2075C15.4915 12.2075 14.4799 14.2472 14.4799 18.3265C14.4799 22.1961 15.4473 24.1309 17.3821 24.1309C19.0626 24.1309 20.3064 22.4249 21.1135 19.0127L21.5613 17.097Z" fill="black"/>
</g>
<path fill-rule="evenodd" clip-rule="evenodd" d="M24.3195 24.4048H25.2871L25.3922 24.3677L22.5619 16.3616L21.5967 16.7028L24.3195 24.4048Z" fill="black"/>
<path d="M59.689 16.9907L58.8134 14.1163H54.4109L53.5354 16.9907H50.7766L55.0387 4.86523H58.1692L62.4478 16.9907H59.689ZM58.2022 11.9687C57.3927 9.3641 56.9357 7.89109 56.8311 7.54969C56.732 7.20828 56.6604 6.93846 56.6163 6.74022C56.4346 7.44506 55.9142 9.18789 55.0552 11.9687H58.2022Z" fill="white"/>
<path d="M63.2511 10.2073H65.5686V12.6432C65.5686 14.5378 65.9238 15.5359 66.702 16.1956C67.4971 16.8554 68.4274 16.9907 70.4743 16.9907H72.7241V14.4702H70.9987C69.7977 14.4702 69.2563 14.4363 68.9349 14.0304C68.6981 13.7259 68.6135 13.2691 68.6135 12.5756V10.2073H72.6903V8.05895H68.6135V5.35237H66.3129C66.2622 5.96135 66.1945 6.45192 66.093 6.84099C65.8562 7.73755 65.3825 8.05895 63.9785 8.05895H63.2511V10.2073Z" fill="white"/>
<path d="M88.1785 12.0681V16.9907H91.2234V11.4591C91.2234 8.68485 89.8532 7.61913 87.5695 7.61913C86.0302 7.61913 84.8291 8.22812 84.1863 9.27692C83.6112 8.05895 82.4609 7.61913 80.9553 7.61913C79.4159 7.61913 78.2487 8.24503 77.6397 9.22617L77.5044 7.95746H74.9839V16.9907H78.0288V12.2372C78.0288 11.2899 78.2318 10.8501 78.5194 10.5625C78.8239 10.2581 79.2975 10.1058 79.8727 10.1058C80.9892 10.1058 81.5812 10.5625 81.5812 12.0681V16.9907H84.6261V12.2372C84.6261 11.2899 84.8291 10.8501 85.1167 10.5625C85.4212 10.2581 85.8948 10.1058 86.47 10.1058C87.5865 10.1058 88.1785 10.5625 88.1785 12.0681Z" fill="white"/>
<path d="M99.6324 7.56838C95.9954 7.56838 93.8301 9.07392 93.8301 12.4741C93.8301 15.8742 95.9954 17.3798 99.6324 17.3798C103.269 17.3798 105.435 15.8742 105.435 12.4741C105.435 9.07392 103.269 7.56838 99.6324 7.56838ZM99.6324 14.9608C97.5347 14.9608 96.875 14.0473 96.875 12.4741C96.875 10.884 97.5347 9.9874 99.6324 9.9874C101.73 9.9874 102.39 10.884 102.39 12.4741C102.39 14.0473 101.73 14.9608 99.6324 14.9608Z" fill="white"/>
<path d="M107.388 14.2164C108.081 16.5847 110.027 17.3967 112.886 17.3967C114.07 17.3967 115.423 17.2106 116.404 16.6355C117.267 16.128 117.859 15.3329 117.859 14.1826C117.859 13.1846 117.504 12.4572 116.725 12.0004C115.998 11.5775 114.899 11.3745 113.444 11.3745H113.258C111.617 11.3745 110.805 11.3576 110.805 10.6302C110.805 9.90282 111.955 9.71674 112.716 9.71674C113.731 9.71674 114.594 9.95357 115.034 10.7317H118.011C117.233 8.14354 115.034 7.5853 112.716 7.5853C109.604 7.5853 107.997 9.04009 107.997 10.681C107.997 12.0173 108.572 12.7447 109.604 13.1169C110.297 13.3706 111.346 13.4721 112.378 13.4721H112.869C114.391 13.4721 115.017 13.6075 115.017 14.2164C115.017 14.9438 114.002 15.1807 112.886 15.1807C112.175 15.1807 111.651 15.0961 111.245 14.9269C110.889 14.7747 110.636 14.5378 110.483 14.2164H107.388Z" fill="white"/>
<path d="M51.0811 24.2816V23.5034H52.9588V20.8307H53.8215V23.5034H57.0863V24.2816H53.8215L53.8384 28.8828C53.8384 29.176 53.8892 29.4579 53.9907 29.7286C54.1035 29.9992 54.2501 30.2361 54.4305 30.439C54.6222 30.642 54.8365 30.8056 55.0733 30.9296C55.3214 31.0537 55.5808 31.1157 55.8515 31.1157C56.1108 31.1157 56.3759 31.0706 56.6465 30.9804C56.9172 30.8901 57.1709 30.7943 57.4077 30.6928L57.8307 31.3694C57.5374 31.5273 57.2273 31.6514 56.9003 31.7416C56.5732 31.8318 56.2462 31.8769 55.9191 31.8769C55.5131 31.8769 55.1297 31.8036 54.7688 31.657C54.4079 31.5104 54.0922 31.3074 53.8215 31.048C53.5509 30.7774 53.3366 30.4616 53.1787 30.1007C53.0321 29.7286 52.9588 29.3226 52.9588 28.8828V24.2816H51.0811Z" fill="white"/>
<path d="M59.9403 27.9524C59.9741 28.4711 60.1151 28.9335 60.3632 29.3395C60.6113 29.7342 60.9214 30.0669 61.2936 30.3375C61.677 30.6082 62.1112 30.8168 62.5961 30.9634C63.0923 31.0988 63.6055 31.1664 64.1355 31.1664C64.3723 31.1664 64.6486 31.1495 64.9644 31.1157C65.2802 31.0706 65.6072 31.0142 65.9455 30.9465C66.2838 30.8789 66.6109 30.7999 66.9267 30.7097C67.2537 30.6082 67.53 30.5067 67.7556 30.4052L68.1785 31.0819C67.9078 31.2059 67.592 31.3187 67.2312 31.4202C66.8816 31.5217 66.5207 31.6119 66.1485 31.6908C65.7764 31.7698 65.4098 31.8262 65.049 31.86C64.6994 31.9051 64.3949 31.9277 64.1355 31.9277C63.4927 31.9277 62.8668 31.8375 62.2578 31.657C61.6488 31.4653 61.1075 31.1946 60.6338 30.845C60.1602 30.4842 59.7768 30.0443 59.4835 29.5256C59.2016 28.9955 59.0606 28.3922 59.0606 27.7155C59.0606 26.9938 59.1847 26.3622 59.4328 25.8209C59.6922 25.2796 60.0474 24.8285 60.4985 24.4676C60.9609 24.1068 61.5078 23.8361 62.1394 23.6557C62.7709 23.4639 63.4701 23.3681 64.237 23.3681C65.8609 23.3681 67.0902 23.7741 67.9247 24.5861C68.7705 25.3867 69.1991 26.5089 69.2103 27.9524H59.9403ZM68.3138 27.1911C68.2687 26.7513 68.1559 26.3453 67.9755 25.9732C67.795 25.601 67.5356 25.2796 67.1973 25.009C66.8703 24.7383 66.4586 24.524 65.9624 24.3661C65.4662 24.2083 64.8911 24.1293 64.237 24.1293C63.6506 24.1293 63.1092 24.1913 62.613 24.3154C62.1168 24.4394 61.6826 24.6255 61.3105 24.8736C60.9383 25.1217 60.6338 25.4431 60.397 25.8378C60.1715 26.2213 60.0305 26.6724 59.9741 27.1911H68.3138Z" fill="white"/>
<path d="M80.1021 26.5483C80.1021 26.2213 80.0683 25.9168 80.0006 25.6349C79.9329 25.3416 79.792 25.0879 79.5777 24.8736C79.3747 24.6594 79.0815 24.4902 78.6981 24.3661C78.3146 24.2421 77.8071 24.1801 77.1756 24.1801C76.6005 24.1801 76.0986 24.197 75.6701 24.2308C75.2415 24.2646 74.8468 24.3267 74.4859 24.4169C74.1363 24.4958 73.798 24.603 73.471 24.7383C73.1552 24.8736 72.8112 25.0371 72.4391 25.2289L71.9823 24.5861C72.3996 24.3718 72.7887 24.1913 73.1496 24.0447C73.5104 23.8981 73.8882 23.7797 74.2829 23.6895C74.6777 23.588 75.1062 23.5203 75.5686 23.4865C76.031 23.4414 76.5666 23.4188 77.1756 23.4188C77.965 23.4188 78.6078 23.5091 79.1041 23.6895C79.6003 23.8699 79.9893 24.1124 80.2713 24.4169C80.5532 24.7101 80.7393 25.0484 80.8295 25.4319C80.931 25.804 80.9817 26.1874 80.9817 26.5822V30.3375C80.9817 30.5293 81.0099 30.6815 81.0663 30.7943C81.134 30.8958 81.1791 30.9578 81.2017 30.9804C81.2242 30.9916 81.275 31.0029 81.3539 31.0142C81.4328 31.0255 81.54 31.0255 81.6753 31.0142C81.8106 31.0029 81.9742 30.9747 82.1659 30.9296C82.3576 30.8845 82.5719 30.7999 82.8087 30.6759L83.2485 31.3356C82.6508 31.6288 82.132 31.7811 81.6922 31.7923C81.2637 31.7923 80.9423 31.736 80.728 31.6232C80.5814 31.533 80.463 31.4258 80.3728 31.3018C80.2938 31.1664 80.2318 31.0198 80.1867 30.8619C79.8822 31.0649 79.5833 31.2341 79.2901 31.3694C78.9969 31.4935 78.6981 31.595 78.3936 31.6739C78.0891 31.7416 77.7677 31.7867 77.4294 31.8093C77.1023 31.8431 76.7471 31.86 76.3636 31.86C75.7321 31.86 75.1344 31.798 74.5705 31.6739C74.0179 31.5499 73.5274 31.3751 73.0988 31.1495C72.6815 30.9127 72.3489 30.6364 72.1008 30.3206C71.8639 30.0049 71.7455 29.6609 71.7455 29.2887C71.7455 28.8828 71.847 28.4937 72.05 28.1215C72.253 27.7494 72.5519 27.428 72.9466 27.1573C73.3413 26.8754 73.8206 26.6498 74.3844 26.4807C74.9596 26.3115 75.6193 26.2269 76.3636 26.2269C77.0177 26.2269 77.6436 26.2495 78.2413 26.2946C78.8503 26.3284 79.4706 26.413 80.1021 26.5483ZM80.1021 27.3434C79.4818 27.1968 78.8729 27.1009 78.2752 27.0558C77.6775 27.0107 77.0403 26.9881 76.3636 26.9881C75.7095 26.9881 75.1457 27.0615 74.672 27.2081C74.1984 27.3434 73.8093 27.5238 73.5048 27.7494C73.2003 27.9636 72.9748 28.2061 72.8282 28.4768C72.6928 28.7474 72.6252 29.0181 72.6252 29.2887C72.6252 29.4917 72.7041 29.7004 72.862 29.9146C73.0312 30.1289 73.268 30.3263 73.5725 30.5067C73.8882 30.6759 74.2773 30.8168 74.7397 30.9296C75.2133 31.0424 75.7547 31.0988 76.3636 31.0988C76.8373 31.0988 77.2997 31.0706 77.7508 31.0142C78.2019 30.9578 78.6248 30.8281 79.0195 30.6251C79.2225 30.5236 79.4142 30.4165 79.5946 30.3037C79.7863 30.1797 79.9555 30.0443 80.1021 29.8977V27.3434Z" fill="white"/>
<path d="M101.018 31.7754V26.413C101.018 26.1536 100.956 25.8886 100.832 25.6179C100.708 25.3473 100.511 25.1048 100.24 24.8905C99.9696 24.665 99.6257 24.4846 99.2084 24.3492C98.7911 24.2026 98.2949 24.1293 97.7198 24.1293C97.0318 24.1293 96.389 24.2759 95.7913 24.5691C95.1936 24.8623 94.6128 25.195 94.049 25.5672C94.1505 25.8378 94.2012 26.1198 94.2012 26.413V31.7754H93.3216V26.413C93.3216 26.1536 93.2595 25.8886 93.1355 25.6179C93.0114 25.3473 92.8141 25.1048 92.5434 24.8905C92.2728 24.665 91.9288 24.4846 91.5115 24.3492C91.0943 24.2026 90.5981 24.1293 90.0229 24.1293C89.2786 24.1293 88.5399 24.3098 87.8069 24.6706C87.0739 25.0202 86.3408 25.4431 85.6078 25.9393V31.7923H84.7281V23.4865H85.6078V24.9751C85.9236 24.7721 86.2506 24.5748 86.5889 24.3831C86.9385 24.1913 87.2994 24.0222 87.6716 23.8756C88.0437 23.7177 88.4272 23.5936 88.8219 23.5034C89.2166 23.4132 89.6169 23.3681 90.0229 23.3681C90.9025 23.3681 91.6469 23.5091 92.2558 23.791C92.8648 24.0729 93.3328 24.4282 93.6599 24.8567C93.9418 24.6763 94.235 24.4958 94.5395 24.3154C94.8553 24.135 95.1823 23.9771 95.5207 23.8417C95.859 23.6951 96.2086 23.5824 96.5695 23.5034C96.9416 23.4132 97.3251 23.3681 97.7198 23.3681C98.4077 23.3681 99.011 23.4583 99.5298 23.6387C100.049 23.8079 100.483 24.0391 100.832 24.3323C101.182 24.6142 101.447 24.9357 101.627 25.2965C101.808 25.6574 101.898 26.0296 101.898 26.413V31.7754H101.018Z" fill="white"/>
</svg>
