<svg width="42" height="42" viewBox="0 0 42 42" fill="none" xmlns="http://www.w3.org/2000/svg">
<path d="M15.8624 1.66505C12.419 2.56735 9.41744 4.29829 6.85787 6.85787C4.29829 9.41745 2.56735 12.419 1.66505 15.8624C0.744338 19.2875 0.735131 22.7217 1.63743 26.1652C2.55814 29.5902 4.29829 32.5826 6.85787 35.1421C9.41744 37.7017 12.4098 39.4419 15.8348 40.3626C19.2783 41.2649 22.7217 41.2649 26.1652 40.3626C29.5902 39.4419 32.5826 37.7017 35.1421 35.1421C37.7017 32.5826 39.4419 29.5902 40.3626 26.1652C41.2649 22.7217 41.2557 19.2875 40.335 15.8624C39.4327 12.419 37.7017 9.41745 35.1421 6.85787C32.5826 4.29829 29.581 2.56735 26.1376 1.66505C22.7125 0.74434 19.2875 0.74434 15.8624 1.66505ZM12.686 5.61491C13.975 4.91517 15.3284 4.39036 16.7463 4.04049C18.1642 3.69062 19.5821 3.52489 21 3.5433C22.4179 3.52489 23.8358 3.69062 25.2537 4.04049C26.6716 4.39036 28.025 4.91517 29.314 5.61491L23.5688 11.3601C21.8563 10.8998 20.1437 10.8998 18.4312 11.3601L12.686 5.61491ZM26.3033 15.6967C27.7764 17.1698 28.5038 18.9468 28.4854 21.0276C28.4854 23.09 27.758 24.8486 26.3033 26.3033C25.3458 27.2608 24.2317 27.9145 22.9611 28.2644C21.6721 28.5959 20.3831 28.5959 19.0941 28.2644C17.7867 27.9145 16.6542 27.2608 15.6967 26.3033C14.242 24.8486 13.5146 23.09 13.5146 21.0276C13.5146 18.9284 14.242 17.1514 15.6967 15.6967C16.6542 14.7392 17.7775 14.0947 19.0665 13.7632C20.3555 13.4318 21.6445 13.4318 22.9335 13.7632C24.2225 14.0947 25.3458 14.7392 26.3033 15.6967ZM6.99597 10.5315C7.49316 9.85018 8.03638 9.21489 8.62563 8.62563C9.21489 8.03638 9.85018 7.49316 10.5315 6.99597L15.9453 12.4098C15.1903 12.8333 14.5182 13.3397 13.9289 13.9289C13.3581 14.4998 12.8517 15.1719 12.4098 15.9453L6.99597 10.5315ZM5.6149 12.686L11.3601 18.4312C11.1392 19.2783 11.0287 20.1437 11.0287 21.0276C11.0287 21.8747 11.1392 22.7217 11.3601 23.5688L5.6149 29.314C3.66299 25.7048 3.06453 21.8839 3.81952 17.8512C4.15097 16.0097 4.74943 14.288 5.6149 12.686ZM8.62563 33.3744C8.47832 33.2271 8.331 33.0797 8.18369 32.9324C8.05479 32.7667 7.91668 32.6102 7.76937 32.4629C7.64047 32.2971 7.51157 32.1314 7.38267 31.9657C7.25377 31.8 7.12487 31.6342 6.99597 31.4685L12.4098 26.0547C12.8333 26.8097 13.3397 27.4818 13.9289 28.0711C14.5182 28.6603 15.1811 29.1759 15.9177 29.6179L10.5315 35.004C9.81335 34.47 9.17806 33.9268 8.62563 33.3744ZM29.314 36.3851C26.736 37.7846 23.9647 38.4935 21 38.5119C18.0353 38.4935 15.264 37.7846 12.686 36.3851L18.4312 30.6399C20.1437 31.1002 21.8563 31.1002 23.5688 30.6399L29.314 36.3851ZM35.004 31.4685C34.5068 32.1498 33.9636 32.7851 33.3744 33.3744C32.7851 33.9636 32.1498 34.5068 31.4685 35.004L26.0823 29.6179C26.8373 29.1575 27.5002 28.6419 28.0711 28.0711C28.6603 27.4818 29.1759 26.8189 29.6179 26.0823L35.004 31.4685ZM36.3851 29.314L30.6399 23.5688C31.1002 21.8563 31.1002 20.1437 30.6399 18.4312L36.3851 12.686C37.3058 14.4169 37.9319 16.2399 38.2634 18.155C38.5764 20.0517 38.5764 21.9668 38.2634 23.9002C37.9503 25.7969 37.3242 27.6015 36.3851 29.314ZM29.6179 15.9177C29.3969 15.5494 29.1575 15.1995 28.8997 14.8681C28.6419 14.5366 28.3657 14.2236 28.0711 13.9289C27.4818 13.3397 26.8097 12.8333 26.0547 12.4098L31.4685 6.99597C32.1867 7.52999 32.8219 8.07321 33.3744 8.62563C33.9268 9.17806 34.47 9.81335 35.004 10.5315L29.6179 15.9177Z" fill="white"/>
</svg>
