<svg width="40" height="40" viewBox="0 0 40 40" fill="none" xmlns="http://www.w3.org/2000/svg">
<path d="M37.5 0H2.5C1.82292 0 1.23698 0.247396 0.742188 0.742188C0.247396 1.23698 0 1.82292 0 2.5V37.5C0 38.1771 0.247396 38.763 0.742188 39.2578C1.23698 39.7526 1.82292 40 2.5 40H37.5C38.1771 40 38.763 39.7526 39.2578 39.2578C39.7526 38.763 40 38.1771 40 37.5V2.5C40 2.05729 39.8828 1.64062 39.6484 1.25C39.4401 0.859375 39.1406 0.559896 38.75 0.351562C38.3594 0.117188 37.9427 0 37.5 0ZM37.5 37.5H2.5V2.5H37.5V37.5ZM8.75 13.75H11.25V16.25C11.25 16.6146 11.3672 16.9141 11.6016 17.1484C11.862 17.3828 12.1615 17.5 12.5 17.5C12.8385 17.5 13.125 17.3828 13.3594 17.1484C13.6198 16.9141 13.75 16.6146 13.75 16.25V13.75H16.25C16.5885 13.75 16.875 13.6328 17.1094 13.3984C17.3698 13.1641 17.5 12.8776 17.5 12.5391C17.5 12.1745 17.3698 11.875 17.1094 11.6406C16.875 11.3802 16.5885 11.25 16.25 11.25H13.75V8.75C13.75 8.41146 13.6198 8.125 13.3594 7.89062C13.125 7.63021 12.8385 7.5 12.5 7.5C12.1615 7.5 11.862 7.63021 11.6016 7.89062C11.3672 8.125 11.25 8.41146 11.25 8.75V11.25H8.75C8.41146 11.25 8.11198 11.3802 7.85156 11.6406C7.61719 11.875 7.5 12.1745 7.5 12.5391C7.5 12.8776 7.61719 13.1641 7.85156 13.3984C8.11198 13.6328 8.41146 13.75 8.75 13.75ZM17.3047 23.9844C17.3047 23.6458 17.1745 23.3594 16.9141 23.125C16.6797 22.8646 16.3802 22.7344 16.0156 22.7344C15.6771 22.7344 15.3906 22.8516 15.1562 23.0859L12.5 25.7422L9.84375 23.0859C9.60938 22.8516 9.3099 22.7344 8.94531 22.7344C8.60677 22.7344 8.30729 22.8646 8.04688 23.125C7.8125 23.3594 7.69531 23.6458 7.69531 23.9844C7.69531 24.3229 7.82552 24.6094 8.08594 24.8438L10.7422 27.5L8.08594 30.1562C7.92969 30.3125 7.8125 30.5078 7.73438 30.7422C7.68229 30.9505 7.68229 31.1589 7.73438 31.3672C7.8125 31.5755 7.92969 31.7578 8.08594 31.9141C8.1901 32.0443 8.32031 32.1484 8.47656 32.2266C8.63281 32.2786 8.78906 32.3047 8.94531 32.3047C9.1276 32.3047 9.29688 32.2786 9.45312 32.2266C9.60938 32.1484 9.73958 32.0443 9.84375 31.9141L12.5 29.2969L15.1562 31.9141C15.2604 32.0443 15.3906 32.1484 15.5469 32.2266C15.7031 32.2786 15.8594 32.3047 16.0156 32.3047C16.1979 32.3047 16.3672 32.2786 16.5234 32.2266C16.6797 32.1484 16.8099 32.0443 16.9141 31.9141C17.513 31.3411 17.513 30.7552 16.9141 30.1562L14.2578 27.5L16.9141 24.8438C17.1745 24.6094 17.3047 24.3229 17.3047 23.9844ZM23.75 13.75H31.25C31.5885 13.75 31.875 13.6328 32.1094 13.3984C32.3698 13.1641 32.5 12.8776 32.5 12.5391C32.5 12.1745 32.3698 11.875 32.1094 11.6406C31.875 11.3802 31.5885 11.25 31.25 11.25H23.75C23.4115 11.25 23.112 11.3802 22.8516 11.6406C22.6172 11.875 22.5 12.1745 22.5 12.5391C22.5 12.8776 22.6172 13.1641 22.8516 13.3984C23.112 13.6328 23.4115 13.75 23.75 13.75ZM23.75 26.25H31.25C31.5885 26.25 31.875 26.1328 32.1094 25.8984C32.3698 25.6641 32.5 25.3776 32.5 25.0391C32.5 24.6745 32.3698 24.375 32.1094 24.1406C31.875 23.8802 31.5885 23.75 31.25 23.75H23.75C23.4115 23.75 23.112 23.8802 22.8516 24.1406C22.6172 24.375 22.5 24.6745 22.5 25.0391C22.5 25.3776 22.6172 25.6641 22.8516 25.8984C23.112 26.1328 23.4115 26.25 23.75 26.25ZM23.75 31.25H31.25C31.5885 31.25 31.875 31.1328 32.1094 30.8984C32.3698 30.6641 32.5 30.3776 32.5 30.0391C32.5 29.6745 32.3698 29.375 32.1094 29.1406C31.875 28.8802 31.5885 28.75 31.25 28.75H23.75C23.4115 28.75 23.112 28.8802 22.8516 29.1406C22.6172 29.375 22.5 29.6745 22.5 30.0391C22.5 30.3776 22.6172 30.6641 22.8516 30.8984C23.112 31.1328 23.4115 31.25 23.75 31.25Z" fill="white"/>
</svg>
