<svg width="21" height="19" viewBox="0 0 21 19" fill="none" xmlns="http://www.w3.org/2000/svg">
<path d="M13.9998 0.818277C12.7734 0.272759 11.4818 0 10.125 0C8.76818 0 7.47008 0.272759 6.23068 0.818277C5.00432 1.35049 3.94105 2.07563 3.04085 2.9937C2.1537 3.89846 1.44268 4.98284 0.907779 6.24685C0.385926 7.51085 0.125 8.83473 0.125 10.2185C0.125 11.9748 0.535959 13.618 1.35788 15.1481C2.19284 16.6782 3.34744 17.9156 4.82167 18.8603C4.96518 18.9534 5.12174 18.98 5.29134 18.9401C5.46094 18.9002 5.59141 18.8071 5.68273 18.6607C5.77405 18.5144 5.80015 18.3547 5.76101 18.1817C5.72187 18.0088 5.63054 17.8757 5.48704 17.7826C4.43028 17.104 3.55618 16.2458 2.86473 15.208L3.53009 14.8088C3.6736 14.729 3.76492 14.6026 3.80406 14.4296C3.85625 14.2567 3.83668 14.097 3.74535 13.9506C3.66707 13.791 3.54313 13.6912 3.37353 13.6513C3.20393 13.598 3.04737 13.618 2.90386 13.7111L2.2385 14.0903C2.00367 13.5847 1.8145 13.0592 1.67099 12.5137C1.52748 11.9681 1.43615 11.4093 1.39702 10.8372H2.08195C2.2646 10.8372 2.41463 10.7773 2.53204 10.6576C2.64946 10.5245 2.70817 10.3715 2.70817 10.1985C2.70817 10.0256 2.64946 9.8792 2.53204 9.75945C2.41463 9.6264 2.2646 9.55987 2.08195 9.55987H1.39702C1.47529 8.40231 1.76884 7.30462 2.27764 6.26681L2.90386 6.64601C2.99519 6.69923 3.09956 6.72584 3.21698 6.72584C3.45181 6.72584 3.62794 6.6194 3.74535 6.40651C3.83668 6.26015 3.85625 6.10049 3.80406 5.92752C3.76492 5.75455 3.6736 5.62815 3.53009 5.54832L2.90386 5.16912C3.54313 4.22444 4.32591 3.43277 5.2522 2.79412L5.60445 3.41282C5.72187 3.6257 5.90452 3.73214 6.1524 3.73214C6.25677 3.73214 6.36114 3.70553 6.46551 3.65231C6.53074 3.6124 6.58945 3.55917 6.64163 3.49265C6.69382 3.41282 6.72644 3.33964 6.73948 3.27311C6.76557 3.19328 6.7721 3.11345 6.75905 3.03361C6.75905 2.94048 6.73296 2.85399 6.68077 2.77416L6.32852 2.15546C6.82428 1.91597 7.33309 1.72969 7.85494 1.59664C8.38984 1.45028 8.93126 1.35049 9.47921 1.29727V2.09559C9.47921 2.28186 9.53792 2.43487 9.65533 2.55462C9.7858 2.67437 9.93583 2.73424 10.1054 2.73424C10.2881 2.73424 10.4381 2.67437 10.5555 2.55462C10.6729 2.43487 10.7317 2.28186 10.7317 2.09559V1.29727C11.8667 1.3771 12.943 1.66982 13.9606 2.17542L13.6084 2.77416C13.5953 2.81408 13.5823 2.85399 13.5692 2.89391C13.5562 2.92052 13.5431 2.95378 13.5301 2.9937C13.5301 3.03361 13.5301 3.07353 13.5301 3.11345C13.5301 3.14006 13.5301 3.17332 13.5301 3.21324C13.5431 3.25315 13.5562 3.29307 13.5692 3.33298C13.5823 3.35959 13.5953 3.39286 13.6084 3.43277C13.6345 3.45938 13.654 3.48599 13.6671 3.51261C13.6932 3.53922 13.7193 3.56583 13.7454 3.59244C13.7714 3.61905 13.8041 3.63901 13.8432 3.65231C13.8693 3.66562 13.8954 3.67892 13.9215 3.69223C13.9476 3.70553 13.9737 3.71884 13.9998 3.73214C14.0258 3.73214 14.0519 3.73214 14.078 3.73214C14.1041 3.73214 14.1302 3.73214 14.1563 3.73214C14.2085 3.73214 14.2607 3.72549 14.3129 3.71219C14.3651 3.69888 14.4107 3.67892 14.4499 3.65231C14.502 3.6257 14.5477 3.59244 14.5868 3.55252C14.639 3.51261 14.6782 3.46604 14.7043 3.41282L15.0369 2.81408C15.9632 3.46604 16.7395 4.2577 17.3657 5.18908L16.7786 5.54832C16.7003 5.58824 16.6351 5.64146 16.5829 5.70798C16.5438 5.77451 16.5112 5.84769 16.4851 5.92752C16.459 6.00735 16.4525 6.09384 16.4655 6.18698C16.4786 6.26681 16.5046 6.33999 16.5438 6.40651C16.609 6.51296 16.6873 6.59279 16.7786 6.64601C16.883 6.69923 16.9874 6.72584 17.0917 6.72584C17.1439 6.72584 17.1961 6.71919 17.2483 6.70588C17.3005 6.69258 17.3527 6.67262 17.4048 6.64601L17.9919 6.30672C18.4877 7.33123 18.7747 8.42227 18.853 9.57983H18.1681C17.9985 9.57983 17.8484 9.64636 17.718 9.77941C17.6005 9.89916 17.5418 10.0455 17.5418 10.2185C17.5418 10.3915 17.6005 10.5445 17.718 10.6775C17.8484 10.7973 17.9985 10.8571 18.1681 10.8571H18.853C18.7747 11.9881 18.5007 13.0592 18.0311 14.0704L17.4048 13.7111C17.2483 13.618 17.0852 13.598 16.9156 13.6513C16.7591 13.6912 16.6351 13.791 16.5438 13.9506C16.5046 14.0172 16.4786 14.097 16.4655 14.1901C16.4525 14.27 16.459 14.3498 16.4851 14.4296C16.5112 14.5095 16.5438 14.5826 16.5829 14.6492C16.6351 14.7157 16.7003 14.7689 16.7786 14.8088L17.4048 15.188C16.7003 16.2525 15.8001 17.1306 14.7043 17.8225C14.5607 17.9156 14.4694 18.0487 14.4303 18.2216C14.3911 18.3813 14.4172 18.541 14.5086 18.7006C14.5477 18.7539 14.5934 18.8004 14.6455 18.8403C14.7108 18.8936 14.776 18.9335 14.8412 18.9601C14.9065 18.9867 14.9717 19 15.0369 19C15.1544 19 15.2652 18.9667 15.3696 18.9002C16.8569 17.9688 18.018 16.7381 18.853 15.208C19.701 13.6646 20.125 11.9947 20.125 10.1985C20.125 8.82808 19.8575 7.51085 19.3227 6.24685C18.8008 4.98284 18.0898 3.89846 17.1896 2.9937C16.3024 2.07563 15.2392 1.35049 13.9998 0.818277ZM14.7434 8.22269C14.8478 8.15616 14.926 8.07633 14.9782 7.98319C15.0304 7.87675 15.0565 7.77031 15.0565 7.66387C15.0565 7.55742 15.0304 7.45098 14.9782 7.34454C14.8869 7.19818 14.7564 7.10504 14.5868 7.06513C14.4303 7.01191 14.2737 7.02521 14.1172 7.10504L10.7121 9.1208C10.5164 9.00105 10.3142 8.94118 10.1054 8.94118C9.76623 8.94118 9.47268 9.06758 9.2248 9.32038C8.97692 9.57318 8.85298 9.87255 8.85298 10.2185C8.85298 10.4447 8.90517 10.6576 9.00954 10.8571C9.12696 11.0567 9.28351 11.2164 9.47921 11.3361C9.6749 11.4426 9.88364 11.4958 10.1054 11.4958C10.4446 11.4958 10.7382 11.3694 10.9861 11.1166C11.2339 10.8638 11.3579 10.5644 11.3579 10.2185L14.7434 8.22269Z" fill="white"/>
</svg>
