<svg width="20" height="20" viewBox="0 0 20 20" fill="none" xmlns="http://www.w3.org/2000/svg">
<path d="M18.75 8.10547L17.1484 7.75391C17.0312 7.3763 16.875 6.99219 16.6797 6.60156L17.5391 5.15625C17.6562 4.97396 17.7409 4.78516 17.793 4.58984C17.8581 4.38151 17.8711 4.16667 17.832 3.94531C17.793 3.72396 17.6953 3.53516 17.5391 3.37891L16.6602 2.5C16.543 2.38281 16.3997 2.29818 16.2305 2.24609C16.0742 2.18099 15.9115 2.15495 15.7422 2.16797C15.5859 2.16797 15.4297 2.19401 15.2734 2.24609C15.1172 2.29818 14.974 2.36328 14.8438 2.44141L13.4375 3.33984C13.3854 3.3138 13.3333 3.28776 13.2812 3.26172C13.2292 3.23568 13.1771 3.20964 13.125 3.18359C13.0729 3.15755 13.0208 3.13802 12.9688 3.125C12.9167 3.09896 12.8581 3.07292 12.793 3.04688C12.7409 3.02083 12.6888 3.0013 12.6367 2.98828C12.5846 2.96224 12.526 2.94271 12.4609 2.92969C12.4089 2.90365 12.3568 2.88411 12.3047 2.87109L11.9531 1.23047C11.888 0.917969 11.7318 0.638021 11.4844 0.390625C11.237 0.130208 10.9505 0 10.625 0H9.375C9.04948 0 8.77604 0.123698 8.55469 0.371094C8.34635 0.61849 8.20312 0.911458 8.125 1.25L7.71484 2.85156C7.50651 2.91667 7.29818 2.99479 7.08984 3.08594C6.89453 3.16406 6.69922 3.25521 6.50391 3.35938L5.05859 2.44141C4.88932 2.32422 4.69401 2.24609 4.47266 2.20703C4.26432 2.15495 4.04948 2.15495 3.82812 2.20703C3.60677 2.24609 3.41797 2.34375 3.26172 2.5L2.36328 3.37891C2.14193 3.66536 2.03776 3.95833 2.05078 4.25781C2.07682 4.55729 2.18099 4.85677 2.36328 5.15625L3.28125 6.67969C3.09896 7.05729 2.95573 7.41536 2.85156 7.75391L1.25 8.10547C0.924479 8.17057 0.63151 8.32682 0.371094 8.57422C0.123698 8.80859 0 9.09505 0 9.43359V10.6836C0 10.9961 0.123698 11.263 0.371094 11.4844C0.61849 11.7057 0.911458 11.8555 1.25 11.9336L2.87109 12.3242C2.97526 12.6497 3.11198 12.9818 3.28125 13.3203L2.36328 14.8438C2.18099 15.1432 2.07682 15.4427 2.05078 15.7422C2.03776 16.0417 2.14193 16.3346 2.36328 16.6211L3.26172 17.5C3.52214 17.7344 3.82161 17.8516 4.16016 17.8516C4.4987 17.8385 4.79818 17.7409 5.05859 17.5586L6.50391 16.6406C6.58203 16.6797 6.66016 16.7188 6.73828 16.7578C6.81641 16.7969 6.89453 16.8359 6.97266 16.875C7.0638 16.901 7.14844 16.9336 7.22656 16.9727C7.31771 16.9987 7.40234 17.0312 7.48047 17.0703C7.57161 17.0964 7.65625 17.1224 7.73438 17.1484L8.125 18.75C8.20312 19.0885 8.35286 19.3815 8.57422 19.6289C8.79557 19.8763 9.0625 20 9.375 20H10.625C10.8464 20 11.0547 19.9349 11.25 19.8047C11.4453 19.6875 11.6016 19.5312 11.7188 19.3359C11.8359 19.1536 11.9141 18.9583 11.9531 18.75L12.3047 17.1289C12.6953 17.0117 13.0729 16.8555 13.4375 16.6602L14.8438 17.5586C15.1172 17.7409 15.4232 17.8385 15.7617 17.8516C16.1003 17.8516 16.3997 17.7344 16.6602 17.5L17.5391 16.6211C17.7604 16.3346 17.8581 16.0417 17.832 15.7422C17.819 15.4427 17.7214 15.1432 17.5391 14.8438L16.6797 13.3984C16.862 13.0469 17.0117 12.6888 17.1289 12.3242L18.75 11.9336C19.0885 11.8555 19.3815 11.7057 19.6289 11.4844C19.8763 11.263 20 10.9961 20 10.6836V9.43359C20 8.92578 19.7331 8.53516 19.1992 8.26172C19.056 8.18359 18.9062 8.13151 18.75 8.10547ZM18.75 10.5859C18.737 10.599 18.7174 10.612 18.6914 10.625C18.6654 10.638 18.6328 10.651 18.5938 10.6641C18.5547 10.6771 18.5156 10.6901 18.4766 10.7031L16.1523 11.2891L15.9375 11.9336C15.8854 12.0898 15.8268 12.2461 15.7617 12.4023C15.7096 12.5456 15.6445 12.6888 15.5664 12.832L15.2539 13.457L16.4844 15.4883C16.5495 15.6055 16.5885 15.7096 16.6016 15.8008L15.7812 16.6211C15.7292 16.6081 15.6836 16.5951 15.6445 16.582C15.6055 16.556 15.5794 16.5365 15.5664 16.5234L13.5156 15.2148L12.8711 15.5469C12.7669 15.599 12.6628 15.651 12.5586 15.7031C12.4544 15.7422 12.3503 15.7878 12.2461 15.8398C12.1419 15.8789 12.0378 15.9115 11.9336 15.9375L11.25 16.1719L10.7422 18.4961C10.7292 18.5482 10.7096 18.6003 10.6836 18.6523C10.6576 18.6914 10.6315 18.724 10.6055 18.75H9.47266C9.42057 18.6719 9.38151 18.5807 9.35547 18.4766L8.76953 16.1719L8.10547 15.957C8.06641 15.944 8.02734 15.931 7.98828 15.918C7.96224 15.9049 7.92969 15.8919 7.89062 15.8789C7.85156 15.8659 7.8125 15.8529 7.77344 15.8398C7.73438 15.8268 7.69531 15.8138 7.65625 15.8008C7.61719 15.7747 7.57812 15.7552 7.53906 15.7422C7.5 15.7292 7.46094 15.7161 7.42188 15.7031C7.38281 15.6771 7.34375 15.6576 7.30469 15.6445C7.27865 15.6315 7.24609 15.6185 7.20703 15.6055C7.16797 15.5794 7.12891 15.5534 7.08984 15.5273L6.44531 15.1953L4.39453 16.5039C4.30339 16.569 4.21875 16.6016 4.14062 16.6016L3.32031 15.8008C3.33333 15.7096 3.3724 15.612 3.4375 15.5078L4.70703 13.3789L4.41406 12.7734C4.27083 12.487 4.15365 12.2135 4.0625 11.9531L3.84766 11.2891L1.5625 10.7031C1.43229 10.6771 1.32812 10.638 1.25 10.5859V9.43359C1.26302 9.43359 1.27604 9.42708 1.28906 9.41406C1.3151 9.40104 1.34115 9.38802 1.36719 9.375C1.40625 9.34896 1.4388 9.33594 1.46484 9.33594L3.82812 8.80859L4.04297 8.125C4.12109 7.85156 4.23828 7.55208 4.39453 7.22656L4.70703 6.62109L3.4375 4.51172C3.41146 4.45964 3.38542 4.40755 3.35938 4.35547C3.33333 4.29036 3.32031 4.23828 3.32031 4.19922L4.14062 3.37891L4.35547 3.47656L6.44531 4.80469L7.08984 4.47266C7.41536 4.30339 7.75391 4.16016 8.10547 4.04297L8.76953 3.82812L9.33594 1.5625C9.36198 1.43229 9.40755 1.32812 9.47266 1.25H10.625C10.625 1.25 10.6315 1.26953 10.6445 1.30859C10.6576 1.32161 10.6641 1.33464 10.6641 1.34766C10.6771 1.36068 10.6836 1.38021 10.6836 1.40625C10.6966 1.43229 10.7096 1.45182 10.7227 1.46484L11.2305 3.82812L11.9141 4.0625C12.2396 4.16667 12.5586 4.29688 12.8711 4.45312L13.5156 4.78516L15.5273 3.49609C15.6185 3.44401 15.7031 3.41797 15.7812 3.41797L16.6016 4.21875C16.5885 4.24479 16.5755 4.28385 16.5625 4.33594C16.5495 4.38802 16.5234 4.4401 16.4844 4.49219L15.2539 6.54297L15.5664 7.16797C15.6576 7.33724 15.7357 7.5 15.8008 7.65625C15.8659 7.8125 15.918 7.96875 15.957 8.125L16.1719 8.80859L18.4961 9.33594C18.6393 9.36198 18.7305 9.40755 18.7695 9.47266L18.75 10.5859ZM12.6562 7.34375C11.9271 6.61458 11.0417 6.25 10 6.25C8.97135 6.25 8.08594 6.61458 7.34375 7.34375C6.61458 8.07292 6.25 8.95833 6.25 10C6.25 11.0417 6.61458 11.9271 7.34375 12.6562C8.08594 13.3854 8.97135 13.75 10 13.75C10.5208 13.75 11.0091 13.6523 11.4648 13.457C11.9336 13.2617 12.3372 12.9948 12.6758 12.6562C13.0143 12.3177 13.2812 11.9206 13.4766 11.4648C13.6719 10.9961 13.7695 10.5078 13.7695 10C13.7695 8.95833 13.3984 8.07292 12.6562 7.34375ZM11.7578 11.7773C11.276 12.2591 10.6901 12.5 10 12.5C9.3099 12.5 8.71745 12.2591 8.22266 11.7773C7.74089 11.2826 7.5 10.6901 7.5 10C7.5 9.3099 7.74089 8.72396 8.22266 8.24219C8.71745 7.7474 9.3099 7.5 10 7.5C10.6901 7.5 11.276 7.7474 11.7578 8.24219C12.2526 8.72396 12.5 9.3099 12.5 10C12.5 10.6901 12.2526 11.2826 11.7578 11.7773Z" fill="white"/>
</svg>
