<svg width="14" height="20" viewBox="0 0 14 20" fill="none" xmlns="http://www.w3.org/2000/svg">
<path d="M6.84931 20C5.60992 20 4.46184 19.6934 3.40509 19.0802C2.36138 18.4801 1.53294 17.6647 0.919765 16.6341C0.306588 15.5903 0 14.4553 0 13.229C0 10.9589 1.52642 7.49511 4.57926 2.83757C5.23157 1.83301 5.82518 0.97195 6.36008 0.254403C6.47749 0.084801 6.64057 0 6.84931 0C7.05806 0 7.22766 0.084801 7.35812 0.254403C7.44945 0.37182 7.56686 0.534899 7.71037 0.74364C7.85388 0.939335 8.10176 1.28506 8.45401 1.78082C8.81931 2.27658 9.17156 2.79191 9.51076 3.32681C9.84997 3.86171 10.2283 4.47489 10.6458 5.16634C11.0763 5.85779 11.4677 6.54925 11.82 7.2407C12.1722 7.93216 12.4984 8.63014 12.7984 9.33464C13.1115 10.0261 13.3529 10.711 13.5225 11.3894C13.6921 12.0678 13.7769 12.681 13.7769 13.229C13.7769 13.9596 13.6595 14.6706 13.4247 15.362C13.1898 16.0535 12.8571 16.6797 12.4266 17.2407C12.0091 17.7886 11.5134 18.2714 10.9393 18.6888C10.3783 19.1063 9.7456 19.426 9.0411 19.6477C8.33659 19.8826 7.606 20 6.84931 20ZM6.86888 1.70254C6.36008 2.42009 5.85127 3.17678 5.34247 3.9726C4.83366 4.76843 4.23353 5.75995 3.54207 6.94716C2.86367 8.12133 2.3092 9.27593 1.87867 10.411C1.46119 11.5329 1.25245 12.4723 1.25245 13.229C1.25245 14.7423 1.80039 16.0404 2.89628 17.1233C3.99217 18.2061 5.30985 18.7476 6.84931 18.7476C8.41487 18.7476 9.75212 18.2061 10.8611 17.1233C11.97 16.0404 12.5245 14.7423 12.5245 13.229C12.5245 12.6941 12.4201 12.0744 12.2113 11.3699C12.0157 10.6523 11.7352 9.92172 11.3699 9.17808C11.0176 8.4214 10.6458 7.6908 10.2544 6.9863C9.86301 6.26875 9.43248 5.55121 8.96282 4.83366C8.5062 4.10307 8.11481 3.50946 7.78865 3.05284C7.47554 2.58317 7.16895 2.13307 6.86888 1.70254Z" fill="white"/>
</svg>
