<svg width="20" height="20" viewBox="0 0 20 20" fill="none" xmlns="http://www.w3.org/2000/svg">
<path d="M17.6154 2.79843C17.5 2.69406 17.3654 2.61579 17.2115 2.5636C17.0705 2.49837 16.9231 2.46575 16.7692 2.46575C16.7564 2.46575 16.7436 2.46575 16.7308 2.46575C16.7179 2.46575 16.7051 2.46575 16.6923 2.46575C16.6923 2.46575 16.6859 2.47228 16.6731 2.48532C16.6603 2.48532 16.641 2.48532 16.6154 2.48532C16.6026 2.48532 16.5833 2.48532 16.5577 2.48532C16.5449 2.48532 16.5192 2.48532 16.4808 2.48532C16.4551 2.48532 16.4231 2.48532 16.3846 2.48532C16.359 2.48532 16.3269 2.48532 16.2885 2.48532C16.25 2.48532 16.2115 2.48532 16.1731 2.48532C15.25 2.48532 14.4295 2.394 13.7115 2.21135C13.3397 2.12003 12.9423 1.93738 12.5192 1.66341C12.0962 1.38943 11.6859 1.08937 11.2885 0.763209C10.9038 0.424005 10.6923 0.241357 10.6538 0.215264C10.4487 0.0717547 10.2244 0 9.98077 0C9.85256 0 9.73077 0.0195695 9.61538 0.0587084C9.5 0.084801 9.39103 0.136986 9.28846 0.215264C9.28846 0.215264 9.25641 0.24788 9.19231 0.313112C9.12821 0.378343 9.03846 0.463144 8.92308 0.567515C8.82051 0.658839 8.69872 0.769733 8.55769 0.900196C8.41667 1.03066 8.25641 1.16112 8.07692 1.29159C7.89744 1.42205 7.71154 1.54599 7.51923 1.66341C7.33974 1.78082 7.14103 1.89172 6.92308 1.99609C6.71795 2.08741 6.51282 2.15916 6.30769 2.21135C5.58974 2.394 4.76282 2.48532 3.82692 2.48532C3.77564 2.48532 3.71795 2.48532 3.65385 2.48532C3.60256 2.48532 3.55769 2.48532 3.51923 2.48532C3.48077 2.48532 3.44231 2.48532 3.40385 2.48532C3.37821 2.48532 3.35897 2.48532 3.34615 2.48532C3.33333 2.47228 3.32051 2.46575 3.30769 2.46575C3.29487 2.46575 3.28205 2.46575 3.26923 2.46575C3.25641 2.46575 3.24359 2.46575 3.23077 2.46575C3.07692 2.46575 2.92308 2.49837 2.76923 2.5636C2.62821 2.61579 2.5 2.70059 2.38462 2.818C2.12821 3.06588 2 3.36595 2 3.7182V6.84932C2 8.42792 2.14103 9.88258 2.42308 11.2133C2.70513 12.544 3.05128 13.6464 3.46154 14.5205C3.88462 15.3816 4.38462 16.1644 4.96154 16.8689C5.53846 17.5603 6.07051 18.0887 6.55769 18.454C7.04487 18.8063 7.55128 19.1129 8.07692 19.3738C8.61538 19.6347 8.99359 19.7913 9.21154 19.8434C9.42949 19.9087 9.60897 19.9543 9.75 19.9804C9.78846 19.9935 9.82692 20 9.86538 20C9.90385 20 9.94231 20 9.98077 20C10.0449 20 10.1154 19.9935 10.1923 19.9804C10.2821 19.9674 10.3974 19.9413 10.5385 19.9022C10.6795 19.863 10.9295 19.7717 11.2885 19.6282C11.6603 19.4847 12.0192 19.3151 12.3654 19.1194C12.7115 18.9367 13.1154 18.6628 13.5769 18.2975C14.0385 17.9322 14.4615 17.5277 14.8462 17.0841C15.2436 16.6275 15.641 16.06 16.0385 15.3816C16.4359 14.7032 16.7756 13.9661 17.0577 13.1703C17.3397 12.3744 17.5641 11.4351 17.7308 10.3523C17.9103 9.25636 18 8.08871 18 6.84932V3.7182C18 3.3529 17.8718 3.04631 17.6154 2.79843ZM16.7692 6.84932C16.7692 11.5068 15.5385 14.9185 13.0769 17.0841C12.0385 17.9713 11.0064 18.5258 9.98077 18.7476C9.87821 18.7345 9.74359 18.7084 9.57692 18.6693C9.42308 18.6171 9.10897 18.4801 8.63462 18.2583C8.17308 18.0235 7.73077 17.7495 7.30769 17.4364C6.88462 17.1102 6.41026 16.6341 5.88462 16.0078C5.37179 15.3816 4.92949 14.6771 4.55769 13.8943C4.1859 13.0985 3.87179 12.0939 3.61538 10.8806C3.35897 9.65427 3.23077 8.3105 3.23077 6.84932V3.7182C3.24359 3.7182 3.25641 3.72472 3.26923 3.73777C3.29487 3.73777 3.32051 3.73777 3.34615 3.73777C3.37179 3.73777 3.40385 3.73777 3.44231 3.73777C3.48077 3.73777 3.51923 3.73777 3.55769 3.73777C3.59615 3.73777 3.63462 3.73777 3.67308 3.73777C3.72436 3.73777 3.77564 3.73777 3.82692 3.73777C4.85256 3.73777 5.78205 3.6334 6.61538 3.42466C7.11538 3.30724 7.64103 3.06588 8.19231 2.70059C8.75641 2.33529 9.19872 2.00261 9.51923 1.70254L9.98077 1.25245C10.109 1.38291 10.2821 1.55251 10.5 1.76125C10.7308 1.95695 11.1474 2.25701 11.75 2.66145C12.3526 3.05284 12.9038 3.30724 13.4038 3.42466C14.2372 3.6334 15.1603 3.73777 16.1731 3.73777C16.2756 3.73777 16.3782 3.73777 16.4808 3.73777C16.5833 3.73777 16.6603 3.73125 16.7115 3.7182H16.7692C16.7692 3.99217 16.7692 5.03588 16.7692 6.84932Z" fill="#C78E66"/>
</svg>
