<svg width="20" height="20" viewBox="0 0 20 20" fill="none" xmlns="http://www.w3.org/2000/svg">
<path d="M9.96023 20C8.70076 20 7.53409 19.6934 6.46023 19.0802C5.39962 18.4801 4.55777 17.6647 3.93466 16.6341C3.31155 15.5903 3 14.4553 3 13.229C3 10.9589 4.55114 7.49511 7.65341 2.83757C8.31629 1.83301 8.91951 0.97195 9.46307 0.254403C9.58239 0.084801 9.74811 0 9.96023 0C10.1723 0 10.3447 0.084801 10.4773 0.254403C10.5701 0.37182 10.6894 0.534899 10.8352 0.74364C10.9811 0.939335 11.233 1.28506 11.5909 1.78082C11.9621 2.27658 12.3201 2.79191 12.6648 3.32681C13.0095 3.86171 13.3939 4.47489 13.8182 5.16634C14.2557 5.8578 14.6534 6.54925 15.0114 7.2407C15.3693 7.93216 15.7008 8.63014 16.0057 9.33464C16.3239 10.0261 16.5691 10.711 16.7415 11.3894C16.9138 12.0678 17 12.681 17 13.229C17 13.9596 16.8807 14.6706 16.642 15.362C16.4034 16.0535 16.0653 16.6797 15.6278 17.2407C15.2036 17.7887 14.6998 18.2714 14.1165 18.6888C13.5464 19.1063 12.9034 19.426 12.1875 19.6477C11.4716 19.8826 10.7292 20 9.96023 20ZM9.98011 1.70254C9.46307 2.42009 8.94602 3.17678 8.42898 3.9726C7.91193 4.76843 7.30208 5.75995 6.59943 6.94716C5.91004 8.12133 5.34659 9.27593 4.90909 10.411C4.48485 11.5329 4.27273 12.4723 4.27273 13.229C4.27273 14.7423 4.82955 16.0404 5.94318 17.1233C7.05682 18.2061 8.39583 18.7476 9.96023 18.7476C11.5511 18.7476 12.91 18.2061 14.0369 17.1233C15.1638 16.0404 15.7273 14.7423 15.7273 13.229C15.7273 12.6941 15.6212 12.0744 15.4091 11.3699C15.2102 10.6523 14.9252 9.92172 14.554 9.17808C14.196 8.4214 13.8182 7.6908 13.4205 6.9863C13.0227 6.26875 12.5852 5.55121 12.108 4.83366C11.6439 4.10307 11.2462 3.50946 10.9148 3.05284C10.5966 2.58317 10.285 2.13307 9.98011 1.70254Z" fill="#C78E66"/>
</svg>
