<svg width="70" height="70" viewBox="0 0 70 70" fill="none" xmlns="http://www.w3.org/2000/svg">
<path d="M12.072 52.4607C12.072 56.9057 15.6887 60.5209 20.1337 60.5209H52.9287C53.3312 60.5209 53.6579 60.1942 53.6579 59.7917V57.5605C53.6579 57.4088 53.601 57.2761 53.5222 57.1609C53.5135 57.1478 53.5164 57.1303 53.5076 57.1172C52.4795 55.7755 51.9356 54.1655 51.9356 52.4607C51.9356 50.7559 52.4795 49.1459 53.5076 47.8028C53.5164 47.7911 53.5135 47.7736 53.5222 47.7605C53.601 47.6438 53.6579 47.5111 53.6579 47.3595V45.8574H56.9201C57.3226 45.8574 57.6493 45.5307 57.6493 45.1282V42.897C57.6493 42.7453 57.5924 42.6126 57.5137 42.4959C57.5049 42.4828 57.5093 42.4653 57.4991 42.4536C56.471 41.1105 55.9285 39.5005 55.9285 37.7957C55.9285 36.0909 56.4724 34.4809 57.4991 33.1378C57.5079 33.1261 57.5049 33.1086 57.5137 33.0955C57.5924 32.9788 57.6493 32.8461 57.6493 32.6945V30.4632C57.6493 30.0607 57.3226 29.734 56.9201 29.734H49.2974V22.9397L55.0535 20.2243V25.2234C54.2324 25.5238 53.6404 26.3055 53.6404 27.2301C53.6404 28.4113 54.6014 29.3724 55.7826 29.3724C56.9654 29.3724 57.9264 28.4113 57.9264 27.2301C57.9264 26.3055 57.3343 25.5238 56.5118 25.2234V19.0751C56.5118 18.9468 56.4695 18.833 56.4126 18.728C56.3981 18.7003 56.3806 18.6784 56.3616 18.6536C56.2989 18.5676 56.2231 18.4976 56.1297 18.4465C56.1181 18.4393 56.1122 18.4247 56.0991 18.4188L37.7037 9.55217C37.5024 9.45592 37.2706 9.45592 37.0693 9.55217L18.6724 18.4188C18.4201 18.5399 18.2583 18.798 18.2597 19.078C18.2612 19.3595 18.4231 19.6147 18.6783 19.7343L25.4756 22.9397V29.734H24.1251C21.9668 29.734 19.9397 30.5711 18.4201 32.0907C16.9006 33.6103 16.0649 35.6359 16.0649 37.7957C16.0649 40.5578 17.462 42.9976 19.5868 44.4515C17.637 44.5828 15.817 45.3659 14.4301 46.7543C12.9091 48.2738 12.072 50.2995 12.072 52.4607ZM50.5341 51.7315H19.177C18.7745 51.7315 18.4479 52.0582 18.4479 52.4607C18.4479 52.8632 18.7745 53.1899 19.177 53.1899H50.5341C50.6347 54.479 50.992 55.7113 51.606 56.8313H20.3758C17.9651 56.8313 16.0037 54.8713 16.0037 52.4607C16.0037 51.2897 16.4587 50.1915 17.2783 49.3705C18.1168 48.5436 19.2164 48.0886 20.3758 48.0886H51.6074C50.992 49.2101 50.6362 50.4409 50.5341 51.7315ZM54.527 37.0665H23.1685C22.766 37.0665 22.4393 37.3932 22.4393 37.7957C22.4393 38.1982 22.766 38.5249 23.1685 38.5249H54.527C54.6276 39.8155 54.9849 41.0463 55.5989 42.1678H24.3672C21.9566 42.1678 19.9951 40.2063 19.9951 37.7957C19.9951 36.6261 20.4501 35.5265 21.2697 34.7055C22.1083 33.8786 23.2079 33.4236 24.3672 33.4236H55.5974C54.9835 34.5451 54.6276 35.7774 54.527 37.0665ZM55.7841 27.9155C55.4064 27.9155 55.1001 27.6093 55.1001 27.2315C55.1001 26.8538 55.4064 26.5476 55.7841 26.5476C56.1618 26.5476 56.4695 26.8538 56.4695 27.2315C56.4695 27.6093 56.1618 27.9155 55.7841 27.9155ZM20.6849 19.0678L37.3887 11.0178L54.091 19.0678L49.2989 21.3282V19.2165C49.2989 19.1218 49.2785 19.0313 49.2449 18.9467C49.2333 18.9161 49.2129 18.8928 49.1968 18.8636C49.1691 18.814 49.1414 18.7645 49.102 18.7236C49.0772 18.6974 49.0466 18.677 49.0189 18.6536C48.9781 18.6215 48.9372 18.5895 48.8891 18.5661C48.8541 18.5486 48.8162 18.5384 48.7783 18.5268C48.7462 18.5165 48.7185 18.499 48.6849 18.4947L46.0322 18.0703C40.2966 17.1486 34.4808 17.1472 28.7451 18.0703L26.091 18.4947C26.0574 18.5005 26.0297 18.518 25.9976 18.5268C25.9597 18.5384 25.9218 18.5486 25.8868 18.5661C25.8387 18.5895 25.7993 18.6201 25.757 18.6536C25.7279 18.677 25.6987 18.6959 25.6739 18.7236C25.6345 18.7659 25.6068 18.814 25.5791 18.8636C25.5631 18.8913 25.5426 18.9161 25.531 18.9467C25.4974 19.0313 25.477 19.1203 25.477 19.2165V21.3282L20.6849 19.0678ZM26.9339 22.4788V19.8393L28.9756 19.5126C34.5566 18.6157 40.2164 18.6157 45.8004 19.5126L47.8391 19.8378V22.4788V29.7355H26.9339V22.4788ZM17.5233 37.7957C17.5233 36.0253 18.2087 34.3643 19.4512 33.1217C20.6966 31.8778 22.3562 31.1924 24.1251 31.1924H26.2047H48.5683H56.191V31.9653H24.3672C22.8229 31.9653 21.3587 32.5705 20.2431 33.6701C19.1435 34.7711 18.5383 36.2353 18.5383 37.7943C18.5383 41.0084 21.1531 43.6247 24.3687 43.6247H56.1924V44.3976H52.9301H24.1251C20.4837 44.399 17.5233 41.4372 17.5233 37.7957ZM20.1337 45.8574H24.1251H52.1995V46.6303H20.3758C18.8314 46.6303 17.3687 47.2355 16.2516 48.3351C15.152 49.4347 14.5468 50.8988 14.5468 52.4593C14.5468 55.6734 17.1616 58.2882 20.3772 58.2882H52.201V59.0611H20.1337C16.4922 59.0611 13.5304 56.0993 13.5304 52.4593C13.5304 50.6888 14.2158 49.0278 15.4597 47.7853C16.7037 46.5428 18.3633 45.8574 20.1337 45.8574Z" fill="#010101"/>
</svg>
