<svg width="64" height="64" viewBox="0 0 64 64" fill="none" xmlns="http://www.w3.org/2000/svg">
<path d="M41 21H50.25C51.003 20.9966 51.7393 21.2212 52.3622 21.6442C52.9852 22.0672 53.4655 22.6689 53.74 23.37C53.8141 23.5561 53.9424 23.7156 54.1082 23.8279C54.274 23.9403 54.4697 24.0002 54.67 24C54.7967 24.0003 54.9222 23.9766 55.04 23.93C55.1622 23.8815 55.2736 23.8094 55.368 23.7178C55.4623 23.6262 55.5376 23.5169 55.5896 23.3961C55.6416 23.2754 55.6693 23.1456 55.6711 23.0141C55.6729 22.8827 55.6487 22.7521 55.6 22.63C55.1761 21.5575 54.439 20.6376 53.4847 19.9901C52.5304 19.3427 51.4032 18.9976 50.25 19H41C40.7348 19 40.4804 19.1054 40.2929 19.2929C40.1054 19.4804 40 19.7348 40 20C40 20.2652 40.1054 20.5196 40.2929 20.7071C40.4804 20.8947 40.7348 21 41 21Z" fill="black"/>
<path d="M33 21H38C38.2652 21 38.5196 20.8946 38.7071 20.7071C38.8946 20.5196 39 20.2652 39 20C39 19.7348 38.8946 19.4804 38.7071 19.2929C38.5196 19.1054 38.2652 19 38 19H33C32.7348 19 32.4804 19.1054 32.2929 19.2929C32.1054 19.4804 32 19.7348 32 20C32 20.2652 32.1054 20.5196 32.2929 20.7071C32.4804 20.8946 32.7348 21 33 21Z" fill="black"/>
<path d="M24 21H29C29.2652 21 29.5196 20.8946 29.7071 20.7071C29.8946 20.5196 30 20.2652 30 20C30 19.7348 29.8946 19.4804 29.7071 19.2929C29.5196 19.1054 29.2652 19 29 19H24C23.7348 19 23.4804 19.1054 23.2929 19.2929C23.1054 19.4804 23 19.7348 23 20C23 20.2652 23.1054 20.5196 23.2929 20.7071C23.4804 20.8946 23.7348 21 24 21Z" fill="black"/>
<path d="M60.76 46.35C59.2177 44.554 57.9229 42.5596 56.91 40.42C55.0348 36.4781 54.3402 32.0778 54.91 27.75C56.0918 27.3937 57.1275 26.6665 57.8641 25.676C58.6006 24.6855 58.9989 23.4843 59 22.25V21.75C58.9973 20.2258 58.3907 18.7648 57.3129 17.6871C56.2352 16.6093 54.7742 16.0026 53.25 16H10.75C9.22581 16.0026 7.76481 16.6093 6.68705 17.6871C5.60929 18.7648 5.00264 20.2258 4.99999 21.75V22.25C5.00045 23.4831 5.39728 24.6833 6.13192 25.6736C6.86656 26.6639 7.90009 27.3919 9.07999 27.75C9.64522 32.0778 8.95083 36.4768 7.07999 40.42C6.05983 42.5579 4.76196 44.5518 3.21999 46.35C3.09457 46.4966 3.01421 46.6763 2.9886 46.8675C2.963 47.0587 2.99324 47.2532 3.07568 47.4276C3.15812 47.602 3.28925 47.7488 3.45325 47.8504C3.61725 47.9519 3.80713 48.0039 3.99999 48H9.99999C10.0663 48.0094 10.1337 48.0094 10.2 48H10.34C10.4619 47.9554 10.574 47.8875 10.67 47.8L12 46.53L13.33 47.74C13.4208 47.8217 13.5259 47.8861 13.64 47.93C13.7541 47.9773 13.8765 48.0011 14 48H18C18.0663 48.0094 18.1337 48.0094 18.2 48H18.34C18.4619 47.9554 18.574 47.8875 18.67 47.8L20 46.53L21.33 47.74C21.4208 47.8217 21.5259 47.8861 21.64 47.93C21.7541 47.9773 21.8765 48.0011 22 48H26C26.0663 48.0094 26.1337 48.0094 26.2 48H26.34C26.4619 47.9554 26.574 47.8875 26.67 47.8L28 46.53L29.33 47.74C29.4208 47.8217 29.5259 47.8861 29.64 47.93C29.7541 47.9773 29.8765 48.0011 30 48H34C34.0663 48.0094 34.1337 48.0094 34.2 48H34.34C34.4619 47.9554 34.574 47.8875 34.67 47.8L36 46.53L37.33 47.74C37.4208 47.8217 37.5259 47.8861 37.64 47.93C37.7541 47.9773 37.8765 48.0011 38 48H42C42.0663 48.0094 42.1337 48.0094 42.2 48H42.34C42.4619 47.9554 42.574 47.8875 42.67 47.8L44 46.53L45.33 47.74C45.4208 47.8217 45.5259 47.8861 45.64 47.93C45.7541 47.9773 45.8765 48.0011 46 48H50C50.0663 48.0094 50.1337 48.0094 50.2 48H50.34C50.4619 47.9554 50.574 47.8875 50.67 47.8L52 46.53L53.33 47.74C53.4208 47.8217 53.5259 47.8861 53.64 47.93C53.7541 47.9773 53.8765 48.0011 54 48H60C60.1912 48 60.3783 47.9452 60.5393 47.8421C60.7003 47.7391 60.8284 47.592 60.9083 47.4184C60.9883 47.2447 61.0168 47.0518 60.9906 46.8625C60.9643 46.6731 60.8842 46.4953 60.76 46.35ZM6.99999 22.25V21.75C6.99999 20.7554 7.39508 19.8016 8.09834 19.0983C8.8016 18.3951 9.75543 18 10.75 18H53.25C54.2446 18 55.1984 18.3951 55.9016 19.0983C56.6049 19.8016 57 20.7554 57 21.75V22.25C57 23.2446 56.6049 24.1984 55.9016 24.9017C55.1984 25.6049 54.2446 26 53.25 26H10.75C9.75543 26 8.8016 25.6049 8.09834 24.9017C7.39508 24.1984 6.99999 23.2446 6.99999 22.25ZM54.39 46L52.67 44.44C52.4862 44.2742 52.2475 44.1824 52 44.1824C51.7525 44.1824 51.5137 44.2742 51.33 44.44L49.61 46H46.39L44.67 44.44C44.4862 44.2742 44.2475 44.1824 44 44.1824C43.7525 44.1824 43.5137 44.2742 43.33 44.44L41.61 46H38.39L36.67 44.44C36.4862 44.2742 36.2475 44.1824 36 44.1824C35.7525 44.1824 35.5137 44.2742 35.33 44.44L33.61 46H30.39L28.67 44.44C28.4862 44.2742 28.2475 44.1824 28 44.1824C27.7525 44.1824 27.5137 44.2742 27.33 44.44L25.61 46H22.39L20.67 44.44C20.4862 44.2742 20.2475 44.1824 20 44.1824C19.7525 44.1824 19.5137 44.2742 19.33 44.44L17.61 46H14.39L12.67 44.44C12.4862 44.2742 12.2475 44.1824 12 44.1824C11.7525 44.1824 11.5137 44.2742 11.33 44.44L9.60999 46H6.06999C7.16662 44.5184 8.11769 42.9344 8.90999 41.27C10.8742 37.1405 11.6465 32.5447 11.14 28H52.86C52.3517 32.5458 53.1277 37.143 55.1 41.27C55.885 42.9362 56.833 44.5205 57.93 46H54.39Z" fill="black"/>
<path d="M17.91 29C17.7785 29.0113 17.6505 29.0485 17.5334 29.1095C17.4164 29.1705 17.3126 29.2541 17.228 29.3555C17.1434 29.4568 17.0797 29.5739 17.0405 29.6999C17.0014 29.826 16.9876 29.9586 17 30.09C17.27 33.02 17.48 41.09 15.29 43.29C15.1963 43.383 15.1219 43.4936 15.0711 43.6154C15.0203 43.7373 14.9942 43.868 14.9942 44C14.9942 44.132 15.0203 44.2627 15.0711 44.3846C15.1219 44.5064 15.1963 44.617 15.29 44.71C15.383 44.8037 15.4936 44.8781 15.6154 44.9289C15.7373 44.9797 15.868 45.0058 16 45.0058C16.132 45.0058 16.2627 44.9797 16.3846 44.9289C16.5064 44.8781 16.617 44.8037 16.71 44.71C19.94 41.47 19.1 31.08 19 29.91C18.9887 29.7785 18.9515 29.6505 18.8905 29.5334C18.8295 29.4164 18.7459 29.3126 18.6445 29.228C18.5432 29.1434 18.4261 29.0797 18.3001 29.0405C18.174 29.0014 18.0414 28.9876 17.91 29Z" fill="black"/>
<path d="M25.86 29C25.7281 29.0172 25.601 29.0604 25.4861 29.1273C25.3711 29.1942 25.2707 29.2833 25.1906 29.3894C25.1105 29.4956 25.0524 29.6166 25.0197 29.7455C24.987 29.8744 24.9803 30.0085 25 30.14C25.4 32.92 25.86 40.71 23.28 43.29C23.1863 43.383 23.1119 43.4936 23.0611 43.6154C23.0103 43.7373 22.9842 43.868 22.9842 44C22.9842 44.132 23.0103 44.2627 23.0611 44.3846C23.1119 44.5065 23.1863 44.6171 23.28 44.71C23.373 44.8037 23.4836 44.8781 23.6054 44.9289C23.7273 44.9797 23.858 45.0058 23.99 45.0058C24.122 45.0058 24.2527 44.9797 24.3746 44.9289C24.4964 44.8781 24.607 44.8037 24.7 44.71C28.51 40.9 27.04 30.31 26.98 29.86C26.9451 29.5976 26.8077 29.3598 26.5977 29.1986C26.3878 29.0373 26.1225 28.966 25.86 29Z" fill="black"/>
<path d="M46.32 30.0901C46.3318 29.9588 46.3176 29.8265 46.2783 29.7006C46.239 29.5748 46.1752 29.4579 46.0907 29.3567C46.0062 29.2555 45.9026 29.1719 45.7858 29.1107C45.669 29.0495 45.5413 29.012 45.41 29.0001C45.2787 28.9883 45.1463 29.0025 45.0205 29.0418C44.8946 29.0812 44.7777 29.1449 44.6765 29.2294C44.5753 29.3139 44.4917 29.4175 44.4306 29.5343C44.3694 29.6511 44.3318 29.7788 44.32 29.9101C44.22 31.0801 43.32 41.4701 46.61 44.7101C46.703 44.8039 46.8136 44.8783 46.9354 44.929C47.0573 44.9798 47.188 45.0059 47.32 45.0059C47.452 45.0059 47.5827 44.9798 47.7046 44.929C47.8264 44.8783 47.937 44.8039 48.03 44.7101C48.1237 44.6172 48.1981 44.5066 48.2489 44.3847C48.2996 44.2629 48.3258 44.1321 48.3258 44.0001C48.3258 43.8681 48.2996 43.7374 48.2489 43.6156C48.1981 43.4937 48.1237 43.3831 48.03 43.2901C45.84 41.1101 46.05 33.0001 46.32 30.0901Z" fill="black"/>
<path d="M38.31 30.14C38.3471 29.8748 38.2774 29.6057 38.1161 29.3919C37.9548 29.1781 37.7152 29.0371 37.45 29C37.1848 28.9629 36.9157 29.0326 36.7019 29.1939C36.4881 29.3552 36.3471 29.5948 36.31 29.86C36.25 30.31 34.78 40.86 38.59 44.71C38.683 44.8037 38.7936 44.8781 38.9154 44.9289C39.0373 44.9796 39.168 45.0058 39.3 45.0058C39.432 45.0058 39.5627 44.9796 39.6846 44.9289C39.8064 44.8781 39.917 44.8037 40.01 44.71C40.1037 44.617 40.1781 44.5064 40.2289 44.3846C40.2797 44.2627 40.3058 44.132 40.3058 44C40.3058 43.868 40.2797 43.7373 40.2289 43.6154C40.1781 43.4936 40.1037 43.383 40.01 43.29C37.45 40.72 37.91 32.93 38.31 30.14Z" fill="black"/>
</svg>
