<svg width="52" height="52" viewBox="0 0 52 52" fill="none" xmlns="http://www.w3.org/2000/svg">
<path d="M29.3147 8.54564V6.26676H31.4382C31.8526 6.26676 32.2151 5.90421 32.2151 5.48986V1.76078C32.2151 1.34644 31.8526 0.983887 31.4382 0.983887H22.3745C21.9601 0.983887 21.5976 1.34644 21.5976 1.76078V5.48986C21.5976 5.90421 21.9601 6.26676 22.3745 6.26676H24.498V8.54564C19.4741 9.11536 15.0199 11.446 11.6534 14.8644L10.7729 13.9839L12.2231 12.5337C12.5338 12.2229 12.5338 11.7568 12.2231 11.446L9.21911 8.44206C8.90835 8.1313 8.44222 8.1313 8.13146 8.44206L4.03983 12.4301C3.72907 12.7409 3.72907 13.207 4.03983 13.5178L7.04381 16.5217C7.19919 16.6771 7.40636 16.7289 7.61353 16.7289C7.8207 16.7289 8.02788 16.6771 8.18325 16.5217L9.68525 15.0197L10.6693 16.0038C7.56174 19.6811 5.6972 24.446 5.6972 29.6253C5.6972 41.3305 15.2271 50.8604 26.9322 50.8604C38.6374 50.8604 48.1673 41.3305 48.1673 29.6253C48.1155 18.7488 39.8804 9.73688 29.3147 8.54564ZM7.61353 14.9162L5.6972 12.948L8.5976 10.0476L10.5139 11.964L9.37449 13.1034C9.21911 13.2588 9.01194 13.466 8.80477 13.6731L7.61353 14.9162ZM25.2749 4.71297H23.1514V2.53767H30.6613V4.71297H28.5378C28.1235 4.71297 27.7609 5.07552 27.7609 5.48986V8.44206C27.502 8.44206 27.1912 8.44206 26.9322 8.44206C26.6733 8.44206 26.3625 8.44206 26.1036 8.44206V5.48986C26.0518 5.02373 25.6892 4.71297 25.2749 4.71297ZM26.8805 49.3066C16.0558 49.3066 7.19919 40.5018 7.19919 29.6253C7.19919 18.7488 16.004 9.94405 26.8805 9.94405C27.2948 9.94405 27.7091 9.94405 28.1235 9.99584C28.3307 9.99584 28.5378 10.0476 28.745 10.0476C38.741 10.9799 46.5617 19.4221 46.5617 29.6253C46.5617 40.5018 37.7569 49.3066 26.8805 49.3066Z" fill="black"/>
<path d="M38.0678 16.8842C38.016 16.8324 37.9642 16.7806 37.9124 16.7288C34.9602 14.191 31.1275 12.689 26.9323 12.689C17.5578 12.689 9.99603 20.3025 9.99603 29.6252C9.99603 38.9479 17.5578 46.6133 26.8805 46.6133C36.2032 46.6133 43.8168 38.9997 43.8168 29.677C43.8686 24.5495 41.5897 19.9918 38.0678 16.8842ZM26.8805 45.0595C18.3865 45.0595 11.498 38.1711 11.498 29.677C11.498 21.183 18.3865 14.2945 26.8805 14.2945C30.4542 14.2945 33.7172 15.5376 36.3068 17.5575L27.9164 27.191C27.6056 27.0874 27.2431 26.9838 26.9323 26.9838C25.4821 26.9838 24.2909 28.175 24.2909 29.6252C24.2909 31.0754 25.4821 32.2667 26.9323 32.2667C28.3825 32.2667 29.5219 31.0754 29.5219 29.6252C29.5219 29.1073 29.3666 28.5894 29.1076 28.175L37.5498 18.4898C40.502 21.2866 42.3148 25.2228 42.3148 29.6252C42.3148 38.1193 35.3745 45.0595 26.8805 45.0595ZM27.9682 29.6252C27.9682 30.2467 27.502 30.7129 26.8805 30.7129C26.259 30.7129 25.7929 30.2467 25.7929 29.6252C25.7929 29.0555 26.259 28.5376 26.8805 28.5376C27.502 28.5376 27.9682 29.0555 27.9682 29.6252Z" fill="black"/>
</svg>
