<svg width="55" height="55" viewBox="0 0 55 55" fill="none" xmlns="http://www.w3.org/2000/svg">
<path d="M52.3714 2.90349C51.8168 2.24578 50.9712 1.93869 49.9629 2.10599C49.7864 2.13578 45.6248 2.83015 42.5218 4.40682L41.596 4.8789C41.211 5.10807 40.9337 5.44494 40.7183 5.82536C40.4593 5.72224 40.1614 5.72224 39.9048 5.88036C33.5477 9.76474 29.8398 13.6766 29.6885 13.8416C28.7948 14.7904 27.4862 16.461 26.7689 17.5633L25.905 18.8947L17.8452 18.4754C16.3693 18.3837 14.3114 19.1697 13.2389 20.2399L2.93559 30.4974C2.46579 30.9627 1.68204 31.7441 2.28475 32.5004C2.89204 33.2658 3.82475 32.6699 4.38392 32.3193L6.26996 31.1322C7.25309 30.5112 9.03371 29.7756 10.2758 29.496C11.2085 29.2852 12.6133 29.6908 13.2848 30.3622L16.2937 33.3597L15.3702 34.7416C14.976 35.3352 13.7614 37.3472 14.7354 38.3349L16.4931 40.1064C16.7658 40.3791 17.1164 40.4845 17.4968 40.4845C18.4845 40.4845 19.6579 39.7764 20.0864 39.4922L21.4568 38.587L24.6033 41.7243C25.2748 42.3935 25.6758 43.7914 25.4283 44.8364C25.1648 45.9639 24.4177 47.7445 23.7966 48.7185L22.5912 50.6137C22.236 51.1706 21.6425 52.1033 22.3987 52.7106C22.5958 52.8687 22.7929 52.9329 22.9877 52.9329C23.54 52.9329 24.0579 52.4149 24.4039 52.0712L34.7073 41.8091C35.7775 40.7412 36.5635 38.7199 36.497 37.212L36.1258 28.8589L37.2166 28.121C38.296 27.3922 39.9575 26.0974 40.9223 25.2381C41.0918 25.0891 45.1114 21.4774 49.0439 15.1181C49.1975 14.8706 49.2043 14.5841 49.1127 14.3297C49.5 14.1052 49.8323 13.7866 50.0775 13.3718L50.5266 12.501C52.1308 9.39349 52.8595 5.21807 52.8893 5.04161C53.0291 4.23036 52.8458 3.46724 52.3714 2.90349ZM14.5773 29.0629C13.4658 27.956 11.401 27.367 9.75329 27.7314C9.12538 27.8758 8.35996 28.1279 7.60371 28.4349L14.5291 21.537C15.2418 20.8289 16.775 20.2445 17.7489 20.3041L24.75 20.6708L24.4406 21.1474V21.1497L17.3318 31.8014L14.5773 29.0629ZM34.6637 37.2991C34.7073 38.3029 34.1229 39.8085 33.4102 40.5166L26.4893 47.4099C26.8079 46.6331 27.076 45.831 27.241 45.1389C27.5985 43.6081 27.0073 41.541 25.8958 40.4295L23.0175 37.5581L34.1435 30.2156C34.1527 30.2087 34.1573 30.1972 34.1687 30.1904L34.3429 30.0712L34.6637 37.2991ZM39.7031 23.8768C38.7887 24.6904 37.212 25.9187 36.19 26.6108L32.7983 28.9093C32.7983 28.9093 32.7983 28.9116 32.796 28.9116L19.0781 37.9637C18.4433 38.3831 17.8887 38.5847 17.6183 38.6374L16.2158 37.2212C16.2685 36.9508 16.4748 36.3962 16.8987 35.7568L25.9737 22.1535C25.9737 22.1512 25.9737 22.1512 25.976 22.1489C25.9783 22.1466 25.9783 22.1466 25.9806 22.1443L28.3043 18.5624C28.9598 17.5541 30.2041 15.9683 31.0223 15.0997C31.0566 15.0585 34.5537 11.3987 40.3929 7.74349C40.48 8.20411 40.661 8.65786 40.9475 9.06578C40.9818 9.1139 41.8068 10.2827 43.2368 11.731C44.6668 13.1816 45.8218 14.0158 45.87 14.0524C46.2802 14.3481 46.7385 14.5062 47.206 14.5933C43.5073 20.4324 39.7398 23.8402 39.7031 23.8768ZM51.0835 4.7414C51.0766 4.78265 50.3708 8.81369 48.8973 11.6668L48.4733 12.4895C48.2854 12.8058 47.9531 12.8516 47.772 12.8516C47.4948 12.8516 47.1991 12.7485 46.9379 12.5606C46.9264 12.5514 45.8516 11.7722 44.5385 10.4385C43.2254 9.10932 42.4531 8.01849 42.4462 8.00932C42.2079 7.67015 42.1116 7.28286 42.185 6.94828C42.2331 6.72369 42.3477 6.55869 42.4783 6.48078L43.3514 6.03619C46.1977 4.59244 50.2195 3.9164 50.4693 3.89119C50.6229 3.89119 50.836 3.92557 50.9666 4.07911C51.0904 4.22807 51.1316 4.45953 51.0835 4.7414Z" fill="black"/>
<path d="M10.8716 38.6443C10.3147 38.6443 9.28806 38.7199 8.66244 39.2401C5.70848 41.6876 2.71098 49.4701 2.58723 49.8001C2.19764 50.8199 2.41994 51.4753 2.67431 51.8466C2.98369 52.2957 3.48785 52.5455 4.09744 52.5455C4.40681 52.5455 4.7391 52.4814 5.09202 52.353C6.85889 51.716 15.7024 48.3564 16.2708 44.8547C16.5779 42.5974 15.8422 41.2064 15.1708 40.4364C14.1876 39.3135 12.5812 38.6443 10.8716 38.6443ZM14.4535 44.582C14.1647 46.3672 8.43785 49.1928 4.46639 50.6297C4.36556 50.6664 4.28535 50.6847 4.22348 50.6962C4.23723 50.6343 4.26014 50.5518 4.29681 50.4555C5.10806 48.3312 7.68619 42.4324 9.82431 40.6587C9.9091 40.6014 10.2781 40.4799 10.8716 40.4799C11.3162 40.4799 12.8447 40.5624 13.7866 41.6441C14.4008 42.3453 14.6231 43.3399 14.4535 44.582Z" fill="black"/>
<path d="M32.5714 21.0237L25.8499 27.7452C25.4924 28.1027 25.4924 28.6848 25.8499 29.0423C26.0287 29.221 26.2624 29.3104 26.4985 29.3104C26.7345 29.3104 26.9682 29.221 27.147 29.0423L33.8685 22.3208C34.226 21.9633 34.226 21.3812 33.8685 21.0237C33.511 20.6662 32.9312 20.6662 32.5714 21.0237Z" fill="black"/>
</svg>
