<svg width="50" height="32" viewBox="0 0 50 32" fill="none" xmlns="http://www.w3.org/2000/svg">
<path d="M25.0144 11.3757C24.4625 11.3757 24.0847 11.7437 24.0847 12.3054V21.5636C24.0847 22.1156 24.4527 22.4933 25.0144 22.4933C25.5762 22.4933 25.9442 22.1253 25.9442 21.5636V12.3054C25.9344 11.7438 25.5664 11.3757 25.0144 11.3757Z" fill="black"/>
<path d="M25.0144 24.3333C24.4625 24.3333 24.0847 24.7013 24.0847 25.263C24.0847 25.8247 24.4527 26.1927 25.0144 26.1927C25.5762 26.1927 25.9442 25.8247 25.9442 25.263C25.9442 24.7013 25.5664 24.3333 25.0144 24.3333Z" fill="black"/>
<path d="M44.4606 13.9615C44.4606 8.40277 39.8314 3.95769 34.2727 3.95769C32.239 3.95769 30.5733 4.5097 28.898 5.43939C26.4963 2.292 22.7872 0.258301 18.5261 0.258301C11.3016 0.258301 5.55887 6.00108 5.55887 13.2255C5.55887 13.4095 5.55887 13.7775 5.55887 13.9615C2.22738 15.4431 0 18.5905 0 22.4837C0 27.6648 4.07708 31.7419 9.25816 31.7419H40.7417C45.9228 31.7419 49.9999 27.6648 49.9999 22.4837C50.0193 18.5905 47.7919 15.4431 44.4606 13.9615ZM40.7514 29.8922H9.26785C5.19077 29.8922 1.85938 26.5608 1.85938 22.4837C1.85938 18.9683 4.27076 16.0049 7.60215 15.2592C7.41815 14.5136 7.41815 13.9615 7.41815 13.2255C7.41815 7.11477 12.4152 2.108 18.5357 2.108C22.7968 2.108 26.6802 4.51938 28.5396 8.21877C30.0212 6.73708 32.0549 5.80739 34.2823 5.80739C38.9114 5.80739 42.6206 9.50678 42.6206 14.1455C42.6206 14.5136 42.6206 14.8816 42.6206 15.2592C45.768 15.9952 48.1793 18.9585 48.1793 22.4837C48.1599 26.5607 44.8285 29.8922 40.7514 29.8922Z" fill="black"/>
</svg>
