<svg width="70" height="70" viewBox="0 0 70 70" fill="none" xmlns="http://www.w3.org/2000/svg">
<path d="M18.6094 66.0801C17.8481 66.0801 17.0586 66.0293 16.2891 65.8408C14.8223 65.4814 13.6416 64.6367 13.0493 63.5215C12.502 62.4893 12.4805 61.3057 12.4629 60.3545L11.8472 27.2676C11.8394 26.8535 12.1689 26.5117 12.583 26.5039C13.0127 26.4824 13.3394 26.8262 13.3472 27.2402L13.9629 60.3271C13.978 61.1592 13.9951 62.1025 14.3745 62.8184C14.7661 63.5557 15.5937 64.126 16.6455 64.3838C17.6768 64.6367 18.8027 64.5898 19.8931 64.5449C21.2969 64.4873 22.7324 64.3584 23.5137 63.4795C24.2217 62.6855 24.2734 61.4268 24.2651 60.0977L24.0737 26.917C24.0713 26.5029 24.4053 26.165 24.8193 26.1631C24.8208 26.1631 24.8223 26.1631 24.8237 26.1631C25.2358 26.1631 25.5713 26.4961 25.5737 26.9092L25.7651 60.0889C25.7744 61.6562 25.6953 63.2861 24.6343 64.4775C23.4624 65.7949 21.604 65.9766 19.9541 66.043C19.5239 66.0615 19.0723 66.0801 18.6094 66.0801Z" fill="black"/>
<path d="M19.0103 65.75C19.0078 65.75 19.0049 65.75 19.002 65.75C18.5879 65.7451 18.2559 65.4062 18.2603 64.9922L18.4775 45.1611C18.4819 44.749 18.8169 44.4189 19.2275 44.4189C19.23 44.4189 19.2329 44.4189 19.2358 44.4189C19.6499 44.4238 19.9819 44.7627 19.9775 45.1768L19.7603 65.0078C19.7559 65.4199 19.4209 65.75 19.0103 65.75Z" fill="black"/>
<path d="M11.4102 43.708C9.99511 43.708 8.57275 43.0108 7.76513 41.8438C6.9414 40.6533 6.79736 39.2002 6.72021 37.8145C6.45312 32.9834 6.58056 28.0987 7.09961 23.294C7.25293 21.8701 7.48926 20.3887 8.52002 19.2949C9.40429 18.3574 10.6504 17.9707 11.8647 17.6924C15.0962 16.9541 18.4141 16.667 21.7241 16.8379C23.3076 16.9209 25.3535 17.1348 27.1348 18.0576C29.0596 19.0557 30.3862 20.8223 30.5977 22.669C30.6724 23.3242 30.6191 23.9815 30.5679 24.6172C30.4834 25.6651 30.4102 26.5713 30.8955 27.2129C31.4194 27.9053 32.4629 28.0313 33.0376 28.044C33.4712 28.0498 33.9028 28.0205 34.3359 27.9893C34.9126 27.9463 35.5083 27.9014 36.1216 27.9463C37.5879 28.0488 38.75 28.6895 39.3096 29.7031C39.6831 30.3779 39.7559 31.1924 39.5137 31.9981C39.2104 33.0069 38.4634 33.9053 37.5146 34.4014C35.9907 35.1983 34.2241 35.1084 32.8032 35.0362C32.2895 35.0108 31.75 35.0088 31.2017 35.0069C29.1338 35 26.7905 34.9922 25.0518 33.6953C24.7197 33.4473 24.6514 32.9776 24.8989 32.6455C25.146 32.3135 25.6167 32.2471 25.9482 32.4922C27.2905 33.4942 29.2812 33.501 31.2065 33.5069C31.7793 33.5088 32.3418 33.5108 32.8784 33.5381C34.1797 33.6045 35.6582 33.6787 36.8203 33.0713C37.3999 32.7686 37.8936 32.1778 38.0771 31.5664C38.1655 31.2725 38.2231 30.8369 37.9971 30.4287C37.6919 29.877 36.9517 29.5078 36.0161 29.4424C35.5117 29.4092 34.9937 29.4453 34.4458 29.4854C33.98 29.5196 33.5 29.5518 33.0039 29.544C31.543 29.5098 30.3696 29.0039 29.6992 28.1172C28.8691 27.0196 28.9775 25.6787 29.0728 24.4961C29.1206 23.9063 29.1655 23.3496 29.1074 22.8389C28.9521 21.4824 27.9316 20.1602 26.4443 19.3897C24.9272 18.6026 23.1675 18.4151 21.646 18.336C18.4702 18.169 15.2944 18.4463 12.1997 19.1553C11.0625 19.4151 10.187 19.7139 9.61181 20.3242C8.8999 21.0791 8.71728 22.2842 8.59082 23.4541C8.08056 28.1787 7.95508 32.9815 8.21826 37.7315C8.28564 38.9522 8.39648 40.1201 8.99853 40.9903C9.66406 41.9522 10.9678 42.4287 12.0967 42.1182C12.4961 42.0127 12.9082 42.2442 13.0176 42.6446C13.1265 43.044 12.8911 43.4561 12.4912 43.5654C12.1387 43.6621 11.7744 43.708 11.4102 43.708Z" fill="black"/>
<path d="M19.1206 15.9152C17.7861 15.9152 16.4961 15.4669 15.4873 14.6535C13.9932 13.4474 13.1875 11.5128 13.3848 9.60267C13.6021 7.49427 15.0801 5.57533 17.0635 4.8263C19.0122 4.09193 21.4546 4.56947 22.9805 5.9806C24.5366 7.41908 25.1855 9.75306 24.5947 11.7882C24.0747 13.5831 22.647 15.0597 20.8691 15.6408C20.312 15.8234 19.7236 15.9152 19.1206 15.9152ZM19.0439 5.97181C18.5356 5.97181 18.0474 6.05873 17.5933 6.22962C16.1289 6.78236 15.0371 8.20033 14.877 9.75697C14.7334 11.1456 15.3428 12.6095 16.4292 13.4855C17.4951 14.3439 19.0991 14.6398 20.4033 14.215C21.6958 13.7921 22.7759 12.6759 23.1543 11.3702C23.5903 9.86732 23.1113 8.14466 21.9619 7.08216C21.1987 6.37611 20.1353 5.97181 19.0439 5.97181Z" fill="black"/>
<path d="M49.7905 38.8643C42.6152 38.8643 34.2998 38.7031 33.7085 37.9717C33.2402 37.3926 33.2065 36.4785 33.1733 35.5938C33.1587 35.2002 33.145 34.8281 33.0952 34.5479C33.0225 34.1396 33.2949 33.751 33.7026 33.6787C34.1113 33.6094 34.5 33.8789 34.5718 34.2861C34.6396 34.6689 34.6562 35.1104 34.6724 35.5371C34.6875 35.9473 34.7114 36.5898 34.8105 36.8955C36.8149 37.3086 50.7895 37.5215 60.2495 37.2656C61.5732 37.2314 63.0459 37.1172 63.7725 36.1992C64.3022 35.5303 64.356 34.5439 64.3686 33.418L64.4936 22.1943C64.5137 20.4385 64.4346 18.4795 63.2393 17.4512C62.3032 16.6465 60.8633 16.5674 59.3457 16.5537L38.4311 16.3691C37.1909 16.3652 35.9702 16.4521 35.4253 17.2021C35.0723 17.6875 35.0351 18.4102 35.0254 19.2344L34.9185 28.2578C34.9136 28.6689 34.5786 28.999 34.1685 28.999C34.1655 28.999 34.1626 28.999 34.1597 28.999C33.7456 28.9941 33.4136 28.6543 33.4185 28.2402L33.5254 19.2168C33.5356 18.3789 33.5493 17.2314 34.2124 16.3193C35.1567 15.0225 36.8003 14.876 38.4443 14.8691L59.3594 15.0537C61.166 15.0693 62.8975 15.1787 64.2173 16.3145C65.9014 17.7617 66.0171 20.1172 65.9936 22.2119L65.8686 33.4355C65.8564 34.5205 65.8398 36.0059 64.9482 37.1309C63.7256 38.6748 61.4902 38.7334 60.2891 38.7656C60.1787 38.7686 55.3232 38.8643 49.7905 38.8643Z" fill="black"/>
<path d="M60.2495 20.6133C60.2471 20.6133 60.2441 20.6133 60.2412 20.6133L37.4941 20.3604C37.0801 20.3555 36.748 20.0166 36.7524 19.6016C36.7568 19.1904 37.0918 18.8604 37.5024 18.8604C37.5049 18.8604 37.5078 18.8604 37.5107 18.8604L60.2578 19.1133C60.6719 19.1182 61.0039 19.457 60.9995 19.8721C60.9951 20.2832 60.6602 20.6133 60.2495 20.6133Z" fill="black"/>
<path d="M37.6685 24.9268C37.2632 24.9268 36.9292 24.6035 36.919 24.1953C36.9087 23.7812 37.2363 23.4375 37.6504 23.4268L46.4824 23.207C46.8735 23.2158 47.2402 23.5244 47.251 23.9385C47.2612 24.3525 46.9336 24.6963 46.5195 24.707L37.6875 24.9268C37.6812 24.9268 37.6748 24.9268 37.6685 24.9268Z" fill="black"/>
<path d="M39.2295 32.0224C38.915 32.0224 38.6221 31.8232 38.5176 31.5087C38.3872 31.1152 38.6001 30.6913 38.9932 30.5605L53.8496 25.6298C54.2436 25.4951 54.667 25.7128 54.7978 26.1054C54.9282 26.499 54.7153 26.9228 54.3223 27.0537L39.4658 31.9843C39.3872 32.0107 39.3076 32.0224 39.2295 32.0224Z" fill="black"/>
</svg>
