<svg width="32" height="32" viewBox="0 0 32 32" fill="none" xmlns="http://www.w3.org/2000/svg">
<path d="M10.9185 15.9184L10.2544 20.7065C10.23 20.8831 10.2539 21.0629 10.3238 21.2269C10.3936 21.3908 10.5066 21.5328 10.6508 21.6375C10.795 21.7422 10.9649 21.8058 11.1424 21.8215C11.3199 21.8372 11.4984 21.8044 11.6587 21.7265L15.9932 19.6157L20.3418 21.727C20.5022 21.8047 20.6807 21.8374 20.8581 21.8215C21.0356 21.8057 21.2055 21.742 21.3496 21.6372C21.4937 21.5323 21.6067 21.3904 21.6764 21.2264C21.7462 21.0624 21.7701 20.8825 21.7456 20.706L21.0777 15.9316L24.4287 12.4487C24.5523 12.3203 24.6386 12.1607 24.6786 11.987C24.7185 11.8134 24.7105 11.6321 24.6555 11.4626C24.6005 11.2931 24.5004 11.1417 24.366 11.0246C24.2317 10.9076 24.068 10.8292 23.8926 10.7978L19.145 9.95798L16.8677 5.69433C16.7838 5.53709 16.6588 5.40561 16.5059 5.31393C16.3531 5.22225 16.1782 5.17383 16 5.17383C15.8218 5.17383 15.6469 5.22225 15.4941 5.31393C15.3413 5.40561 15.2162 5.53709 15.1323 5.69433L12.8662 9.94968L8.1074 10.7978C7.93196 10.8292 7.76832 10.9076 7.63396 11.0246C7.4996 11.1417 7.39955 11.2931 7.34451 11.4626C7.28947 11.6321 7.28149 11.8134 7.32144 11.987C7.36138 12.1607 7.44774 12.3203 7.5713 12.4487L10.9185 15.9184ZM13.043 10.9341C13.1894 10.908 13.328 10.849 13.4482 10.7614C13.5684 10.6739 13.6671 10.5601 13.7368 10.4287L15.9854 6.16453L16.4268 5.92953L15.9859 6.16488L18.2632 10.4285C18.333 10.5601 18.4319 10.674 18.5523 10.7615C18.6727 10.8491 18.8116 10.9081 18.9582 10.9339L23.7082 11.7552L20.3576 15.2381C20.2538 15.3451 20.1759 15.4745 20.1298 15.6162C20.0837 15.758 20.0706 15.9084 20.0915 16.056L20.7781 20.827L16.4299 18.7161C16.2961 18.6506 16.1492 18.6165 16.0002 18.6165C15.8512 18.6165 15.7043 18.6506 15.5705 18.7161L11.2449 20.8436L11.9094 16.0545C11.93 15.9072 11.9167 15.7571 11.8706 15.6156C11.8245 15.4741 11.7467 15.345 11.6433 15.2381L8.28325 11.7821L13.043 10.9341Z" fill="#EDB40D"/>
<path d="M28.15 16.3994C28.3811 15.4502 28.4986 14.4769 28.5 13.5C28.5 10.1848 27.183 7.00537 24.8388 4.66117C22.4946 2.31696 19.3152 1 16 1C12.6848 1 9.50537 2.31696 7.16116 4.66117C4.81696 7.00537 3.5 10.1848 3.5 13.5C3.50129 14.4769 3.6189 15.4501 3.85035 16.3992C2.88325 17.2542 2.24842 18.4226 2.05743 19.6992C1.86644 20.9759 2.13151 22.279 2.80605 23.3795C3.48059 24.4801 4.52144 25.3077 5.74569 25.7169C6.96993 26.1261 8.29924 26.0907 9.5 25.617V30.5C9.50001 30.5726 9.51582 30.6443 9.54635 30.7102C9.57688 30.7761 9.62139 30.8345 9.67678 30.8814C9.73217 30.9283 9.79711 30.9626 9.8671 30.9819C9.93708 31.0012 10.0104 31.0051 10.082 30.9932L16 30.0068L21.9179 30.9932C21.9451 30.9976 21.9725 30.9999 22 31C22.1326 31 22.2598 30.9473 22.3535 30.8536C22.4473 30.7598 22.5 30.6326 22.5 30.5V25.617C23.7006 26.0897 25.0293 26.1243 26.2529 25.7148C27.4765 25.3054 28.5167 24.478 29.191 23.3779C29.8653 22.2778 30.1306 20.9754 29.9402 19.6992C29.7498 18.4231 29.116 17.2548 28.15 16.3994ZM16 2C19.0489 2.00339 21.972 3.21608 24.128 5.37201C26.2839 7.52795 27.4966 10.451 27.5 13.5C27.5009 14.4956 27.3704 15.4869 27.1118 16.4482C26.4248 19.0245 24.867 21.2834 22.7031 22.8412C22.3959 23.0623 22.0778 23.2678 21.75 23.4571L21.7492 23.4576L21.7456 23.4599C21.5019 23.604 21.2446 23.7334 21.0256 23.8408C19.4602 24.6035 17.7418 24.9999 16.0005 25C14.2592 25.0001 12.5407 24.6038 10.9753 23.8413C10.7555 23.7334 10.4982 23.604 10.2503 23.4571C9.9216 23.2673 9.60264 23.0612 9.29465 22.8395C7.13107 21.2811 5.57386 19.0216 4.8877 16.445C4.6293 15.4847 4.49894 14.4945 4.49999 13.5C4.50338 10.451 5.71607 7.52795 7.87201 5.37201C10.0279 3.21608 12.951 2.00339 16 2ZM7.5 25C6.62997 25.0001 5.77857 24.748 5.0489 24.2741C4.31923 23.8003 3.74258 23.1251 3.3888 22.3302C3.03501 21.5354 2.91926 20.655 3.05556 19.7957C3.19186 18.9364 3.57436 18.1351 4.15675 17.4888C4.1671 17.5196 4.18125 17.5487 4.19175 17.5797C4.2977 17.8864 4.41289 18.1897 4.54239 18.4863C4.55339 18.5116 4.56585 18.5363 4.57705 18.5613C4.70838 18.8568 4.851 19.1467 5.00489 19.4309C5.0185 19.4559 5.03084 19.4818 5.04489 19.5068C5.20175 19.7918 5.37174 20.0696 5.55019 20.3416C5.57774 20.3837 5.6047 20.4261 5.6328 20.4678C5.81066 20.732 5.99841 20.9891 6.19605 21.2391C6.228 21.2796 6.2604 21.3195 6.2929 21.3596C6.49655 21.6113 6.70855 21.8562 6.9311 22.0917C6.95505 22.117 6.98005 22.1413 7.0042 22.1667C7.47492 22.6565 7.98481 23.1071 8.5288 23.514C8.56105 23.5382 8.59249 23.5632 8.62504 23.587C8.88391 23.7767 9.15058 23.9559 9.42505 24.1245C9.4507 24.1404 9.47429 24.1593 9.50004 24.175V24.5315C8.87831 24.8395 8.19385 24.9998 7.5 25ZM10.5 24.83V24.7216L10.535 24.7391C12.0844 25.4979 13.7759 25.9227 15.5 25.9861V29.0765L10.5 29.9097V24.83ZM21.5 29.9097L16.5 29.0765V25.9861C18.2242 25.9227 19.9159 25.4977 21.4653 24.7388C21.4765 24.7334 21.4883 24.7276 21.5 24.7217V29.9097ZM24.5 25C23.8061 24.9998 23.1217 24.8393 22.5 24.5312V24.175C22.5246 24.16 22.547 24.1421 22.5715 24.1269C22.8456 23.9573 23.1126 23.7779 23.3724 23.5888C23.4074 23.5632 23.441 23.5364 23.4757 23.5105C23.7451 23.3087 24.0079 23.0989 24.2595 22.8766L24.2637 22.8727C24.5164 22.6493 24.7576 22.4138 24.9912 22.1712C25.0175 22.1438 25.0447 22.1173 25.0709 22.0898C25.2924 21.8554 25.5032 21.6117 25.7059 21.3612C25.7389 21.3205 25.7718 21.28 25.8043 21.2388C26.0022 20.9882 26.1904 20.7305 26.3688 20.4658C26.3955 20.4261 26.4211 20.3858 26.4474 20.3458C26.6278 20.0708 26.7995 19.7908 26.9579 19.5024C26.9686 19.483 26.9781 19.463 26.9887 19.4435C27.1481 19.1497 27.2956 18.8497 27.4314 18.5435C27.4388 18.5267 27.4471 18.5103 27.4545 18.4935C27.587 18.1904 27.7049 17.8808 27.8127 17.5673C27.8219 17.5407 27.8342 17.5154 27.8431 17.4887C28.4255 18.135 28.8081 18.9364 28.9444 19.7957C29.0807 20.6549 28.9649 21.5353 28.6112 22.3302C28.2574 23.125 27.6807 23.8003 26.9511 24.2741C26.2214 24.748 25.37 25.0001 24.5 25Z" fill="#EDB40D"/>
</svg>
