<svg width="46" height="46" viewBox="0 0 46 46" fill="none" xmlns="http://www.w3.org/2000/svg">
<g clip-path="url(#clip0_303_28)">
<path d="M45.9593 10.3618C45.8609 10.0592 45.6003 9.83833 45.2859 9.79259L36.4047 8.49878L32.4326 0.428081C32.1524 -0.142694 31.2177 -0.142694 30.9376 0.428081L26.9655 8.49878L18.0843 9.79259C17.7699 9.83833 17.5094 10.0592 17.4109 10.3618C17.3131 10.6647 17.3945 10.9967 17.6217 11.2192L21.3388 14.8524C8.96903 18.8835 0 30.5478 0 44.2792C0 44.7409 0.372946 45.1154 0.833819 45.1154C1.29465 45.1154 1.66764 44.7409 1.66764 44.2792C1.66764 30.979 10.5641 19.7301 22.7004 16.1832L24.0488 17.5011L24.0052 17.7561C14.9292 20.6685 8.33819 29.2066 8.33819 39.2621C8.33819 39.7239 8.71113 40.0983 9.172 40.0983C9.63284 40.0983 10.0058 39.7239 10.0058 39.2621C10.0058 30.2594 15.7102 22.5678 23.6846 19.631L22.5318 26.3721C22.4781 26.6856 22.6067 27.0029 22.8632 27.1898C23.1214 27.3772 23.4617 27.4013 23.7418 27.2536L31.6851 23.0653L39.6284 27.2536C39.7505 27.3176 39.884 27.3495 40.0168 27.3495C40.1894 27.3495 40.3612 27.2956 40.507 27.1898C40.7635 27.0029 40.8921 26.6856 40.8383 26.3721L39.3214 17.5011L45.7484 11.2192C45.9757 10.9967 46.057 10.6647 45.9593 10.3618ZM37.8434 16.6103C37.6472 16.8025 37.5577 17.0794 37.604 17.3505L38.9094 24.9847L32.0735 21.3802C31.9513 21.3162 31.8187 21.2843 31.6851 21.2843C31.5515 21.2843 31.4188 21.3162 31.2967 21.3802L24.4608 24.9847L25.4726 19.067C27.1896 18.6068 28.9916 18.3577 30.8513 18.3577C31.3121 18.3577 31.6851 17.9833 31.6851 17.5215C31.6851 17.0598 31.3121 16.6854 30.8513 16.6854C29.1035 16.6854 27.4041 16.8927 25.7699 17.2724C25.7885 17.0271 25.7041 16.784 25.5268 16.6103L24.5933 15.6977C26.6106 15.2539 28.7029 15.013 30.8513 15.013C31.3121 15.013 31.6851 14.6386 31.6851 14.1768C31.6851 13.7151 31.3121 13.3407 30.8513 13.3407C28.2018 13.3407 25.6295 13.6779 23.1743 14.3108L19.9961 11.2041L27.639 10.0907C27.9109 10.0511 28.1454 9.87997 28.2668 9.63297L31.6851 2.6876L35.1034 9.63297C35.2247 9.87997 35.4593 10.0511 35.7312 10.0907L43.3741 11.2041L37.8434 16.6103Z" fill="#EDB40D"/>
</g>
<defs>
<clipPath id="clip0_303_28">
<rect width="46" height="45.1154" fill="white"/>
</clipPath>
</defs>
</svg>
