<svg width="40" height="40" viewBox="0 0 40 40" fill="none" xmlns="http://www.w3.org/2000/svg">
<path d="M19.3333 0C13.8186 0 9.33325 4.48533 9.33325 10V14C9.33325 14.876 10.6666 14.8907 10.6666 14V10C10.6666 5.20533 14.5386 1.33333 19.3333 1.33333C24.1279 1.33333 27.9999 5.20533 27.9999 10V14C27.9999 14.9013 29.3333 14.8587 29.3333 14V10C29.3333 4.48533 24.8479 0 19.3333 0ZM19.3333 22.6667C17.4999 22.6667 15.9999 24.1667 15.9999 26C15.9999 27.0267 16.5413 27.9267 17.3333 28.552V31.3333C17.3333 32.4293 18.2373 33.3333 19.3333 33.3333C20.4293 33.3333 21.3333 32.4293 21.3333 31.3333V28.5493C22.1253 27.9227 22.6666 27.0253 22.6666 26C22.6666 24.1667 21.1666 22.6667 19.3333 22.6667ZM19.3333 24C20.4453 24 21.3333 24.888 21.3333 26C21.3333 26.7147 20.9519 27.3693 20.3333 27.7267C20.1266 27.8467 19.9999 28.0667 19.9999 28.3053V31.332C19.9999 31.7133 19.7146 31.9987 19.3333 31.9987C18.9519 31.9987 18.6666 31.7133 18.6666 31.332V28.3053C18.6666 28.068 18.5399 27.8467 18.3333 27.728C17.7146 27.3707 17.3333 26.7147 17.3333 25.9987C17.3333 24.8867 18.2213 23.9987 19.3333 23.9987V24ZM7.33325 16C6.23725 16 5.33325 16.904 5.33325 18V38C5.33325 39.096 6.23725 40 7.33325 40H31.3333C32.4293 40 33.3333 39.096 33.3333 38V18C33.3333 16.904 32.4293 16 31.3333 16H7.33325ZM7.33325 17.3333H31.3333C31.7146 17.3333 31.9999 17.6187 31.9999 18V38C31.9999 38.3813 31.7146 38.6667 31.3333 38.6667H7.33325C6.95192 38.6667 6.66659 38.3813 6.66659 38V18C6.66659 17.6187 6.95192 17.3333 7.33325 17.3333Z" fill="#EDB40D"/>
</svg>
