<svg width="33" height="32" viewBox="0 0 33 32" fill="none" xmlns="http://www.w3.org/2000/svg">
<g clip-path="url(#clip0_303_10)">
<path fill-rule="evenodd" clip-rule="evenodd" d="M16.8802 0.393921L20.995 11.231L32.6062 12.0594L23.7926 19.3927L26.6037 30.9495L17.0432 24.6482L7.17035 30.9495L10.0765 19.7186L1.1543 12.0594L12.5074 11.4211L16.8802 0.393921Z" fill="white"/>
<path d="M20.6284 11.3667L16.8803 1.46671L12.8741 11.5704C12.8462 11.6389 12.7995 11.6982 12.7395 11.7414C12.6794 11.7847 12.6084 11.8101 12.5346 11.8149L2.1457 12.3988L10.2938 19.4334C10.3486 19.4813 10.389 19.5435 10.4106 19.613C10.4322 19.6825 10.4341 19.7567 10.4161 19.8272L7.70002 30.1075L16.7445 24.3359C16.8068 24.2944 16.8801 24.2723 16.955 24.2723C17.0299 24.2723 17.1031 24.2944 17.1655 24.3359L25.8975 30.0939L23.3173 19.5013C23.3009 19.4295 23.3049 19.3546 23.3289 19.2849C23.3529 19.2153 23.3959 19.1538 23.4531 19.1075L31.5334 12.3852L20.8729 11.6112C20.799 11.6064 20.728 11.581 20.668 11.5377C20.6079 11.4945 20.5613 11.4352 20.5334 11.3667M17.2605 0.271652L21.3346 10.8507L32.5926 11.6791C32.6719 11.686 32.7472 11.7167 32.8086 11.7673C32.8701 11.8178 32.9147 11.8858 32.9368 11.9622C32.9588 12.0387 32.9572 12.12 32.9321 12.1955C32.9071 12.271 32.8597 12.3372 32.7963 12.3852L24.1864 19.5556L26.9025 30.8679C26.925 30.945 26.9225 31.0272 26.8954 31.1028C26.8683 31.1784 26.818 31.2434 26.7517 31.2887C26.6853 31.3339 26.6064 31.357 26.5262 31.3546C26.4459 31.3522 26.3685 31.3244 26.305 31.2754L16.9753 25.1235L7.37409 31.2346C7.3123 31.2752 7.24 31.297 7.16604 31.2971C7.09209 31.2973 7.0197 31.2759 6.95772 31.2355C6.89575 31.1952 6.84689 31.1376 6.81713 31.0699C6.78736 31.0022 6.77798 30.9273 6.79014 30.8544L9.64199 19.8544L0.909893 12.3581C0.848067 12.3094 0.80286 12.2428 0.780504 12.1673C0.758148 12.0919 0.759744 12.0114 0.785071 11.9369C0.810399 11.8624 0.858211 11.7976 0.921916 11.7514C0.985621 11.7052 1.06208 11.68 1.14076 11.6791L12.2222 11.0544L16.5 0.190171C16.5289 0.116455 16.5794 0.0531601 16.6448 0.00854421C16.7102 -0.0360717 16.7875 -0.0599365 16.8667 -0.0599365C16.9459 -0.0599365 17.0232 -0.0360717 17.0886 0.00854421C17.154 0.0531601 17.2045 0.116455 17.2334 0.190171L17.2605 0.271652Z" fill="#EDB40D"/>
<path fill-rule="evenodd" clip-rule="evenodd" d="M4.9704 25.5445V17.0296C5.4693 16.8895 5.93238 16.6441 6.32842 16.3099C8.78645 14.3136 9.5062 11.2988 9.88645 8.37903C11.2445 7.021 12.5074 7.021 13.0099 9.1531C13.3821 11.3192 13.1325 13.5465 12.2902 15.5766H16.7852C17.558 15.484 18.3414 15.6012 19.0531 15.9161C19.549 16.136 19.9523 16.5226 20.1929 17.0088C20.4335 17.495 20.4963 18.0501 20.3704 18.5778C19.9216 20.4378 19.213 22.2254 18.2655 23.8877C17.9926 24.7338 17.4415 25.4627 16.7018 25.9558C15.9621 26.4489 15.0773 26.6773 14.1914 26.6037L8.14818 26.5358C7.7249 26.5857 7.29595 26.5228 6.90482 26.3535C6.51369 26.1841 6.17429 25.9144 5.92102 25.5716L4.9704 25.5445Z" fill="white"/>
<path d="M5.43212 17.3148V25.1642H5.96175C6.01747 25.1614 6.07312 25.1709 6.12475 25.1921C6.17638 25.2132 6.22273 25.2454 6.26052 25.2864C6.48976 25.57 6.77679 25.8015 7.10249 25.9655C7.454 26.0951 7.82851 26.1505 8.20249 26.1284H14.205C14.994 26.1794 15.78 25.99 16.4593 25.5852C17.1106 25.0952 17.6173 24.4383 17.926 23.684L18.1976 23.1408C19.0146 21.6962 19.6184 20.141 19.9902 18.5235C20.0382 18.0643 19.9825 17.6002 19.8272 17.1655C19.6497 16.7883 19.3406 16.4889 18.9581 16.3235C18.4429 16.0761 17.8704 15.9729 17.3013 16.0247H16.8531H12.3581H12.2358C12.1872 16.0094 12.1421 15.9844 12.1033 15.9514C12.0645 15.9183 12.0328 15.8777 12.01 15.8321C11.9872 15.7865 11.9738 15.7367 11.9706 15.6859C11.9674 15.635 11.9745 15.5839 11.9914 15.5358C12.3569 14.5224 12.6252 13.4766 12.7926 12.4124C12.9592 11.3837 12.9269 10.3326 12.6976 9.31608C12.6204 8.87565 12.4283 8.46341 12.1408 8.12102C12.0522 8.02534 11.9397 7.95503 11.8148 7.91731C11.6858 7.88336 11.5501 7.88336 11.421 7.91731C10.9961 8.06155 10.6135 8.30883 10.3074 8.63706C10.1406 10.0929 9.80327 11.5241 9.3025 12.9013C8.76416 14.3691 7.85123 15.6706 6.65435 16.6766C6.43942 16.8571 6.20747 17.0163 5.96175 17.1519C5.7956 17.2413 5.62312 17.3185 5.4457 17.3827M4.61731 25.5309V17.0297C4.61764 16.9456 4.64581 16.8641 4.6974 16.7977C4.749 16.7314 4.82112 16.684 4.90249 16.663C5.12407 16.6007 5.33812 16.5141 5.54077 16.405C5.74286 16.2972 5.9339 16.1698 6.11114 16.0247C7.20919 15.0991 8.04311 13.8998 8.52842 12.5482C9.01968 11.1885 9.3479 9.77532 9.5062 8.3383C9.52299 8.26564 9.56077 8.19953 9.61484 8.14818C10.0406 7.67832 10.5846 7.33128 11.1901 7.14324C11.4439 7.07709 11.7104 7.07709 11.9642 7.14324C12.2216 7.21164 12.4561 7.34761 12.6432 7.53706C13.0328 7.97964 13.2955 8.51922 13.4037 9.09879C13.6553 10.2087 13.6922 11.3565 13.5124 12.4803C13.3669 13.4026 13.1443 14.3112 12.8469 15.1963H16.8124H17.2469C17.9347 15.1375 18.6253 15.2691 19.2432 15.5766C19.791 15.8188 20.2308 16.2537 20.479 16.7988C20.6909 17.3522 20.7699 17.9476 20.7099 18.5371C20.3389 20.2615 19.7069 21.9193 18.8358 23.4531L18.5642 23.9963C18.1974 24.8788 17.5963 25.6443 16.826 26.2099C16.0111 26.7071 15.0623 26.9396 14.1099 26.8753L8.14817 26.9161C7.6855 26.9355 7.22365 26.8616 6.79015 26.6988C6.41147 26.5213 6.07386 26.2669 5.79879 25.9519H5.02472C4.92264 25.9484 4.82592 25.9053 4.75498 25.8318C4.68403 25.7584 4.64441 25.6602 4.64447 25.5581L4.61731 25.5309Z" fill="#EDB40D"/>
<path fill-rule="evenodd" clip-rule="evenodd" d="M1.50741 16.2964H4.07408C4.37302 16.2964 4.65972 16.4151 4.8711 16.6265C5.08248 16.8379 5.20124 17.1246 5.20124 17.4235V25.1371C5.20124 25.4361 5.08248 25.7228 4.8711 25.9342C4.65972 26.1455 4.37302 26.2643 4.07408 26.2643H1.50741C1.20847 26.2643 0.92177 26.1455 0.710387 25.9342C0.499003 25.7228 0.380249 25.4361 0.380249 25.1371V17.3556C0.39757 17.0686 0.523928 16.7991 0.733464 16.6022C0.943 16.4053 1.21987 16.2959 1.50741 16.2964Z" fill="white"/>
<path d="M4.07408 16.6222H1.50741C1.31292 16.6222 1.12639 16.6995 0.988865 16.837C0.851339 16.9745 0.774077 17.1611 0.774077 17.3556V25.0691C0.775294 25.2565 0.848182 25.4363 0.977781 25.5716C1.11429 25.7094 1.29985 25.7876 1.49383 25.7889H4.07408C4.26806 25.7876 4.45362 25.7094 4.59013 25.5716C4.72796 25.4351 4.80609 25.2495 4.80741 25.0556V17.3556C4.80609 17.1616 4.72796 16.976 4.59013 16.8395C4.45362 16.7017 4.26806 16.6235 4.07408 16.6222ZM1.50741 15.8481H4.07408C4.47277 15.8517 4.85413 16.0116 5.13606 16.2936C5.41799 16.5755 5.57794 16.9569 5.58148 17.3556V25.0691C5.58153 25.2687 5.54194 25.4663 5.46501 25.6505C5.38808 25.8347 5.27534 26.0017 5.13334 26.142C4.99308 26.284 4.82603 26.3967 4.64186 26.4736C4.4577 26.5506 4.26009 26.5902 4.0605 26.5901H1.50741C1.30782 26.5902 1.11021 26.5506 0.926044 26.4736C0.741878 26.3967 0.574822 26.284 0.434571 26.142C0.295019 26.0006 0.184785 25.833 0.110206 25.6489C0.035628 25.4648 -0.00182427 25.2678 2.72601e-06 25.0691V17.3556C0.00354687 16.9569 0.163501 16.5755 0.44543 16.2936C0.727359 16.0116 1.10872 15.8517 1.50741 15.8481Z" fill="#EDB40D"/>
<path d="M21.6062 22.4482C21.5946 22.3992 21.5928 22.3483 21.6008 22.2986C21.6089 22.2488 21.6267 22.2012 21.6531 22.1583C21.6796 22.1154 21.7143 22.0782 21.7552 22.0487C21.796 22.0192 21.8423 21.9981 21.8914 21.9865C21.9404 21.9749 21.9913 21.9731 22.041 21.9811C22.0907 21.9892 22.1384 22.007 22.1813 22.0335C22.2242 22.0599 22.2614 22.0946 22.2909 22.1355C22.3204 22.1763 22.3415 22.2226 22.3531 22.2717L22.8827 24.4445C22.8832 24.5336 22.8535 24.6202 22.7984 24.6902C22.7433 24.7601 22.6662 24.8094 22.5795 24.8299C22.4928 24.8504 22.4018 24.8409 22.3212 24.803C22.2406 24.765 22.1753 24.7009 22.1358 24.6211L21.6062 22.4482Z" fill="#EDB40D"/>
<path d="M16.5272 6.96677C16.5143 6.87794 16.5321 6.78737 16.5776 6.71004C16.6232 6.63272 16.6939 6.57329 16.7779 6.5416C16.8618 6.50991 16.9541 6.50785 17.0394 6.53578C17.1247 6.56371 17.1979 6.61994 17.2469 6.69517L19.5284 12.7248L26.0062 13.1865C26.0631 13.1758 26.1216 13.1778 26.1777 13.1923C26.2337 13.2068 26.2859 13.2335 26.3304 13.2704C26.375 13.3074 26.4108 13.3537 26.4355 13.4061C26.4601 13.4585 26.4728 13.5157 26.4728 13.5736C26.4728 13.6314 26.4601 13.6886 26.4355 13.741C26.4108 13.7934 26.375 13.8397 26.3304 13.8767C26.2859 13.9136 26.2337 13.9403 26.1777 13.9548C26.1216 13.9693 26.0631 13.9713 26.0062 13.9606L19.284 13.4717C19.2101 13.467 19.1391 13.4415 19.0791 13.3983C19.019 13.3551 18.9724 13.2958 18.9445 13.2273L16.5272 6.96677Z" fill="#EDB40D"/>
</g>
<defs>
<clipPath id="clip0_303_10">
<rect width="33" height="31.3296" fill="white"/>
</clipPath>
</defs>
</svg>
