<svg width="47" height="47" viewBox="0 0 47 47" fill="none" xmlns="http://www.w3.org/2000/svg">
<path d="M29.6687 15.1061C29.6199 14.9594 29.5263 14.8317 29.4012 14.7408C29.2761 14.6499 29.1257 14.6005 28.9711 14.5994H25.3212L24.1977 11.1331C24.1494 10.9862 24.0559 10.8583 23.9306 10.7676C23.8054 10.6769 23.6547 10.6281 23.5 10.6281C23.3453 10.6281 23.1946 10.6769 23.0694 10.7676C22.9441 10.8583 22.8506 10.9862 22.8023 11.1331L21.6787 14.5994H18.0289C17.8743 14.6005 17.7239 14.6499 17.5988 14.7408C17.4737 14.8317 17.3801 14.9594 17.3312 15.1061C17.2824 15.2542 17.2825 15.4141 17.3314 15.5622C17.3803 15.7102 17.4755 15.8387 17.603 15.9286L20.5478 18.073L19.4242 21.5392C19.3757 21.6867 19.3752 21.8457 19.4227 21.9935C19.4702 22.1412 19.5633 22.2701 19.6886 22.3617C19.8153 22.4513 19.9667 22.4994 20.1219 22.4994C20.2771 22.4994 20.4284 22.4513 20.5552 22.3617L23.5 20.2173L26.4448 22.3617C26.5726 22.4493 26.7232 22.4978 26.8781 22.5012C27.0334 22.5 27.1846 22.4514 27.3114 22.3617C27.4367 22.2701 27.5298 22.1412 27.5773 21.9935C27.6248 21.8457 27.6243 21.6867 27.5758 21.5392L26.4522 18.073L29.397 15.9286C29.5245 15.8387 29.6197 15.7102 29.6686 15.5622C29.7175 15.4141 29.7176 15.2542 29.6687 15.1061ZM25.1597 17.1991C25.0336 17.2901 24.9394 17.4186 24.8906 17.5663C24.8418 17.714 24.8409 17.8733 24.888 18.0216L25.4828 19.8428L23.9333 18.7119C23.807 18.6211 23.6555 18.5723 23.5 18.5723C23.3445 18.5723 23.193 18.6211 23.0667 18.7119L21.5172 19.8428L22.112 18.0216C22.1591 17.8733 22.1581 17.714 22.1094 17.5663C22.0606 17.4186 21.9664 17.2901 21.8403 17.1991L20.2908 16.0681H22.2075C22.3626 16.069 22.5139 16.0204 22.6394 15.9292C22.7649 15.838 22.858 15.7092 22.9052 15.5614L23.5 13.7401L24.0948 15.5614C24.1419 15.7092 24.235 15.838 24.3605 15.9292C24.486 16.0204 24.6374 16.069 24.7925 16.0681H26.7092L25.1597 17.1991Z" fill="#EDB40D"/>
<path d="M23.5 7.53467C20.9929 7.53397 18.5824 8.5018 16.7719 10.2361C14.9614 11.9703 13.8909 14.3369 13.7838 16.8418C13.6767 19.3466 14.5414 21.7959 16.1972 23.6784C17.8531 25.5609 20.1721 26.7309 22.6702 26.9442C22.9492 26.9662 23.2209 26.9809 23.5 26.9809C23.7497 26.9809 24.0067 26.9662 24.2564 26.9442H24.3298V26.9369C26.8269 26.7236 29.1451 25.554 30.8003 23.6722C32.4555 21.7904 33.3198 19.342 33.2127 16.8381C33.1056 14.3342 32.0354 11.9685 30.2256 10.2349C28.4157 8.50136 26.0062 7.53393 23.5 7.53467ZM30.7042 21.2822C30.7023 21.2822 30.7004 21.2829 30.699 21.2843C30.6976 21.2857 30.6969 21.2876 30.6969 21.2895C30.04 22.4668 29.1036 23.4644 27.9702 24.1944C26.8368 24.9243 25.5412 25.3643 24.1977 25.4754L24.1903 25.4828H24.183C23.7237 25.528 23.2611 25.5256 22.8023 25.4754C21.0271 25.3242 19.3486 24.6024 18.0176 23.418C16.6867 22.2337 15.7748 20.6503 15.4183 18.9047C15.0619 17.1591 15.28 15.345 16.04 13.7337C16.8001 12.1223 18.0613 10.8002 19.635 9.96508C21.2088 9.12993 23.0106 8.82659 24.771 9.1004C26.5315 9.3742 28.1561 10.2105 29.4018 11.4841C30.6476 12.7578 31.4477 14.4005 31.6824 16.1666C31.9172 17.9327 31.574 19.7273 30.7042 21.2822Z" fill="#EDB40D"/>
<path d="M43.2399 38.7236L40.4786 34.4422C38.5032 31.3945 36.5302 28.342 34.5596 25.2845C34.7138 25.2258 34.89 25.1597 35.0663 25.1009C35.4643 25.0212 35.8425 24.8633 36.1791 24.6364C36.5157 24.4095 36.8039 24.1181 37.0271 23.7791C37.1519 23.3957 37.1999 22.9914 37.1684 22.5895C37.1369 22.1875 37.0265 21.7957 36.8435 21.4364C36.6709 21.0606 36.5783 20.6529 36.5718 20.2394C36.7537 19.8859 37.0061 19.5735 37.3135 19.3214C37.6404 19.0738 37.9151 18.7641 38.1218 18.4099C38.3285 18.0557 38.4631 17.6642 38.5179 17.2578C38.4639 16.8522 38.3296 16.4614 38.1228 16.1084C37.916 15.7553 37.6409 15.447 37.3135 15.2016C37.0072 14.9455 36.7551 14.6309 36.5718 14.2762C36.5783 13.8627 36.6709 13.4551 36.8435 13.0792C37.0263 12.7212 37.1367 12.3306 37.1682 11.9299C37.1997 11.5291 37.1517 11.1261 37.0271 10.7439C36.8033 10.4054 36.5149 10.1144 36.1784 9.88758C35.8419 9.66075 35.464 9.50254 35.0663 9.42202C34.6708 9.32197 34.2989 9.14478 33.9721 8.90061C33.8095 8.5269 33.7198 8.12561 33.7077 7.71827C33.7188 7.31355 33.6499 6.91062 33.5049 6.53256C33.36 6.15451 33.1419 5.80877 32.8632 5.51514C32.1613 5.10193 31.3244 4.98313 30.5352 5.18468C30.1355 5.26718 29.7232 5.26718 29.3235 5.18468C29.0159 4.927 28.7636 4.60975 28.5818 4.25202C28.4148 3.87726 28.1749 3.53947 27.8761 3.25832C27.5773 2.97716 27.2255 2.75826 26.8413 2.61436C26.4434 2.58016 26.0427 2.62482 25.6621 2.7458C25.2815 2.86678 24.9286 3.06169 24.6235 3.31936C24.2899 3.57359 23.9074 3.75611 23.4999 3.85546C23.0924 3.75611 22.7099 3.57359 22.3763 3.31936C22.0723 3.06226 21.7206 2.86765 21.3413 2.74668C20.962 2.6257 20.5625 2.58074 20.1658 2.61436C19.78 2.757 19.4266 2.97536 19.1265 3.25661C18.8263 3.53785 18.5854 3.87629 18.418 4.25202C18.2359 4.60752 17.9865 4.92427 17.6836 5.18468C17.2815 5.26706 16.8668 5.26706 16.4646 5.18468C15.6778 4.98304 14.8432 5.10189 14.144 5.51514C13.8621 5.80842 13.6415 6.15498 13.4953 6.53454C13.349 6.9141 13.2799 7.31903 13.2921 7.72561C13.2846 8.13196 13.192 8.53223 13.0204 8.90061C12.7002 9.14519 12.3325 9.32027 11.9408 9.41468C11.1357 9.57748 10.428 10.0528 9.9727 10.7366C9.84791 11.12 9.7999 11.5242 9.8314 11.9261C9.8629 12.3281 9.9733 12.7199 10.1563 13.0792C10.3289 13.4551 10.4214 13.8627 10.428 14.2762C10.2447 14.6309 9.99256 14.9455 9.68629 15.2016C9.35891 15.447 9.08377 15.7553 8.87697 16.1084C8.67017 16.4614 8.53587 16.8522 8.48192 17.2578C8.53668 17.6642 8.67128 18.0557 8.87798 18.4099C9.08468 18.7641 9.35939 19.0738 9.68629 19.3214C9.99368 19.5735 10.2461 19.8859 10.428 20.2394C10.4214 20.6529 10.3289 21.0606 10.1563 21.4364C9.97344 21.7944 9.8631 22.185 9.83159 22.5857C9.80008 22.9865 9.84804 23.3895 9.9727 23.7717C10.1947 24.1118 10.4826 24.404 10.8194 24.631C11.1561 24.858 11.535 25.0153 11.9335 25.0936C12.1024 25.1597 12.2786 25.2184 12.4402 25.2845C10.4647 28.3395 8.49171 31.3921 6.52114 34.4422L3.75989 38.7236C3.68024 38.8435 3.63837 38.9846 3.63968 39.1286C3.64099 39.2726 3.68542 39.4129 3.76723 39.5314C3.84702 39.6499 3.95986 39.7422 4.09174 39.7971C4.22361 39.8519 4.3687 39.8668 4.50895 39.8398L9.52473 38.9072L10.7438 43.8716C10.7792 44.0103 10.8544 44.1356 10.96 44.2321C11.0657 44.3287 11.1973 44.3922 11.3386 44.415C11.3773 44.4235 11.4166 44.4284 11.4561 44.4297C11.5792 44.4305 11.7004 44.3999 11.8084 44.3408C11.9163 44.2817 12.0074 44.196 12.073 44.0919L19.9896 31.8351C20.0483 31.8498 20.0997 31.8866 20.1585 31.9012C20.2788 31.9299 20.402 31.9447 20.5257 31.9453C21.1998 31.871 21.8403 31.6118 22.3763 31.1962C22.7099 30.942 23.0924 30.7595 23.4999 30.6601C23.9074 30.7595 24.2899 30.942 24.6235 31.1962C24.9288 31.4559 25.2829 31.6521 25.665 31.7731C26.0471 31.8942 26.4495 31.9377 26.8486 31.9012C26.9074 31.8866 26.9588 31.8498 27.0102 31.8351L34.9268 44.0919C34.9924 44.196 35.0834 44.2817 35.1914 44.3408C35.2993 44.3999 35.4206 44.4305 35.5436 44.4297C35.5832 44.4284 35.6225 44.4235 35.6611 44.415C35.8025 44.3922 35.9341 44.3287 36.0397 44.2321C36.1454 44.1356 36.2206 44.0103 36.256 43.8716L37.475 38.9072L42.4908 39.8398C42.6311 39.866 42.7759 39.8508 42.9076 39.796C43.0393 39.7412 43.1522 39.6493 43.2325 39.5314C43.3144 39.4129 43.3588 39.2726 43.3601 39.1286C43.3614 38.9846 43.3195 38.8435 43.2399 38.7236ZM11.7646 41.8594L10.7879 37.8864C10.744 37.7041 10.6321 37.5456 10.475 37.4432C10.318 37.3408 10.1278 37.3023 9.94333 37.3356L5.91895 38.0847L7.75489 35.2426C9.59083 32.3933 11.4317 29.5439 13.2774 26.6945C13.2854 26.7283 13.2903 26.7627 13.2921 26.7973C13.281 27.2021 13.3499 27.605 13.4948 27.983C13.6398 28.3611 13.8578 28.7068 14.1366 29.0005C14.8387 29.4133 15.6754 29.5321 16.4646 29.3309C16.8643 29.2484 17.2766 29.2484 17.6763 29.3309C17.9856 29.5869 18.2383 29.9045 18.418 30.2636C18.5575 30.4766 18.6971 30.6895 18.844 30.8951L11.7646 41.8594ZM26.7311 30.3223C26.6718 30.3897 26.5958 30.4403 26.5108 30.4692C26.3052 30.5133 25.7618 30.1828 25.4093 29.9551C24.8571 29.5264 24.1954 29.2617 23.4999 29.1914C22.8044 29.2617 22.1427 29.5264 21.5905 29.9551C21.238 30.1828 20.6946 30.5206 20.4963 30.4766C20.4063 30.4421 20.3257 30.3867 20.2613 30.315C20.0339 30.0605 19.8344 29.7823 19.6665 29.4851C19.3626 28.879 18.8976 28.3683 18.3225 28.0091C17.9887 27.8571 17.6243 27.7842 17.2577 27.7961C16.9383 27.8023 16.6196 27.8268 16.303 27.8695C15.8477 27.9209 15.2308 27.9944 15.0546 27.8548C14.8783 27.7153 14.8049 27.0911 14.7535 26.6358C14.7445 25.9481 14.5436 25.2766 14.1733 24.697C14.1149 24.6237 14.0484 24.5572 13.975 24.4987C13.947 24.475 13.9176 24.4529 13.8869 24.4326L13.8796 24.4253H13.8722C13.4332 24.1042 12.941 23.8631 12.4182 23.713C11.9849 23.5587 11.3974 23.3531 11.2946 23.1328C11.1918 22.9272 11.3974 22.347 11.5443 21.9211C11.8384 21.2966 11.948 20.601 11.86 19.9162C11.6444 19.2731 11.2495 18.7049 10.7218 18.2786C10.3986 17.9555 9.95067 17.5075 9.95067 17.2578C9.95067 17.0081 10.3986 16.5601 10.7218 16.237C11.2495 15.8107 11.6444 15.2425 11.86 14.5994C11.948 13.9146 11.8384 13.2191 11.5443 12.5945C11.3974 12.1686 11.1918 11.5884 11.2946 11.3755C11.3974 11.1625 11.9922 10.9569 12.4255 10.8026C13.0875 10.647 13.6913 10.3056 14.166 9.81858C14.5417 9.24385 14.7455 8.57378 14.7535 7.88718C14.8049 7.43186 14.871 6.81499 15.0546 6.66811C15.2382 6.52124 15.8477 6.59468 16.303 6.64608C16.976 6.78944 17.6757 6.7411 18.3225 6.50655C18.8993 6.14939 19.3648 5.63812 19.6665 5.03046C19.9088 4.63389 20.2466 4.0978 20.489 4.04639C20.6946 3.99499 21.238 4.34014 21.5905 4.56046C22.1427 4.98921 22.8044 5.25388 23.4999 5.32421C24.1954 5.25388 24.8571 4.98921 25.4093 4.56046C25.7618 4.34014 26.2979 4.00233 26.5108 4.04639C26.7532 4.0978 27.091 4.63389 27.3333 5.03046C27.635 5.63812 28.1004 6.14939 28.6772 6.50655C29.3241 6.7411 30.0238 6.78944 30.6968 6.64608C31.1521 6.59468 31.769 6.52124 31.9452 6.66077C32.1215 6.8003 32.1949 7.42452 32.2463 7.87983C32.2552 8.56752 32.4562 9.23902 32.8265 9.81858C33.3081 10.3056 33.9159 10.6489 34.5816 10.81C35.0149 10.9569 35.6024 11.1625 35.7052 11.3828C35.808 11.5884 35.6024 12.1686 35.4555 12.5945C35.1613 13.2191 35.0518 13.9146 35.1397 14.5994C35.3554 15.2425 35.7503 15.8107 36.278 16.237C36.6011 16.5601 37.0491 17.0081 37.0491 17.2578C37.0491 17.5075 36.6011 17.9555 36.278 18.2786C35.7503 18.7049 35.3554 19.2731 35.1397 19.9162C35.0518 20.601 35.1613 21.2966 35.4555 21.9211C35.6024 22.347 35.808 22.9272 35.7052 23.1401C35.6024 23.3531 35.0075 23.5661 34.5816 23.713C34.0317 23.8632 33.5156 24.1175 33.0615 24.462C32.98 24.5348 32.904 24.6133 32.8338 24.697C32.4581 25.2718 32.2542 25.9418 32.2463 26.6284C32.1949 27.0837 32.1288 27.7006 31.9452 27.8475C31.7616 27.9944 31.1521 27.9209 30.6968 27.8695C30.0241 27.7225 29.3233 27.7709 28.6772 28.0091C28.1022 28.3683 27.6372 28.879 27.3333 29.4851C27.1636 29.7852 26.9617 30.066 26.7311 30.3223ZM37.0564 37.3356C36.872 37.3023 36.6817 37.3408 36.5247 37.4432C36.3677 37.5456 36.2558 37.7041 36.2119 37.8864L35.2352 41.8594L28.1558 30.8951C28.3027 30.6895 28.4422 30.4766 28.5818 30.2636C28.7617 29.9067 29.0115 29.5896 29.3161 29.3309C29.7183 29.2485 30.133 29.2485 30.5352 29.3309C31.322 29.5326 32.1566 29.4137 32.8558 29.0005C33.137 28.7082 33.3572 28.3629 33.5035 27.9846C33.6497 27.6064 33.7192 27.2027 33.7077 26.7973C33.709 26.7626 33.7139 26.7282 33.7224 26.6945C35.5657 29.5439 37.4065 32.3933 39.2449 35.2426L41.0808 38.0847L37.0564 37.3356Z" fill="#EDB40D"/>
</svg>
