<svg width="32" height="32" viewBox="0 0 32 32" fill="none" xmlns="http://www.w3.org/2000/svg">
<path d="M30.46 17C30.4363 16.9388 30.3987 16.884 30.35 16.84L29.08 15.56L16.29 2.8C16.2295 2.73656 16.1528 2.69091 16.0681 2.66799C15.9835 2.64507 15.8943 2.64577 15.81 2.67L5.59 5.22C5.50158 5.24439 5.42101 5.2913 5.35616 5.35615C5.2913 5.42101 5.24439 5.50158 5.22 5.59L4.71 7.65C4.55811 7.51033 4.43276 7.34432 4.34 7.16C4.02261 6.51696 3.95837 5.77816 4.16 5.09C4.36 4.01 4.58 2.78 2.23 1.56C2.11561 1.51654 1.98926 1.51654 1.87487 1.55999C1.76049 1.60345 1.666 1.68734 1.60932 1.79578C1.55263 1.90422 1.53768 2.02968 1.56729 2.14841C1.59691 2.26713 1.66903 2.37088 1.77 2.44C3.46 3.33 3.35 3.92 3.18 4.91C2.93801 5.81947 3.03393 6.78584 3.45 7.63C3.6758 8.07903 4.02204 8.45643 4.45 8.72L2.67 15.81C2.64577 15.8942 2.64508 15.9835 2.66799 16.0681C2.69091 16.1528 2.73656 16.2295 2.8 16.29L15.58 29.08L16.86 30.35C16.904 30.3987 16.9588 30.4363 17.02 30.46C17.0825 30.4742 17.1475 30.4742 17.21 30.46C17.2725 30.4749 17.3375 30.4749 17.4 30.46C17.4643 30.4367 17.5224 30.3991 17.57 30.35L30.35 17.57C30.3991 17.5224 30.4367 17.4643 30.46 17.4C30.4875 17.3369 30.5017 17.2688 30.5017 17.2C30.5017 17.1312 30.4875 17.0631 30.46 17ZM5.37 9.11C5.65829 9.17835 5.95373 9.21192 6.25 9.21C6.38649 9.21991 6.52351 9.21991 6.66 9.21C6.78823 9.44223 6.9649 9.64417 7.17804 9.80212C7.39118 9.96007 7.63579 10.0703 7.89529 10.1254C8.15479 10.1805 8.42311 10.1792 8.68204 10.1215C8.94096 10.0637 9.18445 9.95101 9.39598 9.79091C9.60751 9.63081 9.78214 9.4271 9.90801 9.19358C10.0339 8.96006 10.1081 8.7022 10.1255 8.43749C10.143 8.17278 10.1033 7.90741 10.0092 7.65939C9.91504 7.41136 9.76868 7.18648 9.58 7C9.32802 6.74618 9.00786 6.57084 8.65828 6.49521C8.30871 6.41959 7.9447 6.44692 7.61034 6.57389C7.27597 6.70086 6.98558 6.92204 6.77432 7.21064C6.56306 7.49924 6.43999 7.84289 6.42 8.2C6.15133 8.21698 5.88164 8.19338 5.62 8.13L6.12 6.13L15.78 3.7L28 15.94L15.94 28L3.7 15.78L5.37 9.11ZM8.62 7.91L8.14 7.43H8.26C8.4286 7.43119 8.59313 7.48192 8.73313 7.57588C8.87313 7.66983 8.98243 7.80286 9.04743 7.95844C9.11243 8.11401 9.13026 8.28525 9.09872 8.45088C9.06717 8.61651 8.98764 8.76921 8.87 8.89C8.7298 9.02564 8.54809 9.11022 8.35404 9.13017C8.15999 9.15012 7.96486 9.10428 7.8 9C8.02955 8.93856 8.25365 8.85829 8.47 8.76C8.54403 8.72697 8.60892 8.67643 8.65908 8.61275C8.70924 8.54906 8.74316 8.47414 8.75792 8.39443C8.77268 8.31472 8.76784 8.23261 8.74381 8.15519C8.71979 8.07777 8.67729 8.00735 8.62 7.95V7.91ZM17.21 29.29L16.64 28.72L28.72 16.64L29.29 17.21L17.21 29.29Z" fill="#EDB40D"/>
<path d="M16.07 20.13H16.21C16.273 20.1116 16.3318 20.081 16.383 20.0399C16.4342 19.9988 16.4768 19.948 16.5084 19.8904C16.54 19.8329 16.5599 19.7696 16.567 19.7044C16.5742 19.6391 16.5684 19.573 16.55 19.51L13.74 9.54001C13.7223 9.47435 13.6918 9.41282 13.6503 9.35894C13.6088 9.30506 13.5571 9.25989 13.4981 9.226C13.4391 9.1921 13.3741 9.17016 13.3066 9.16141C13.2392 9.15266 13.1707 9.15728 13.105 9.17501C13.0394 9.19274 12.9778 9.22323 12.9239 9.26473C12.8701 9.30624 12.8249 9.35795 12.791 9.41692C12.7571 9.47588 12.7352 9.54094 12.7264 9.60839C12.7177 9.67584 12.7223 9.74435 12.74 9.81001L15.56 19.81C15.5973 19.9125 15.6677 19.9996 15.7601 20.0576C15.8524 20.1155 15.9615 20.141 16.07 20.13Z" fill="#EDB40D"/>
<path d="M9.77003 13.73C9.446 14.0527 9.22504 14.4643 9.13512 14.9126C9.04521 15.361 9.09039 15.8259 9.26494 16.2486C9.4395 16.6713 9.73557 17.0326 10.1157 17.2869C10.4957 17.5411 10.9427 17.6768 11.4 17.6768C11.8573 17.6768 12.3043 17.5411 12.6844 17.2869C13.0645 17.0326 13.3606 16.6713 13.5351 16.2486C13.7097 15.8259 13.7548 15.361 13.6649 14.9126C13.575 14.4643 13.3541 14.0527 13.03 13.73C12.5933 13.306 12.0087 13.0689 11.4 13.0689C10.7914 13.0689 10.2067 13.306 9.77003 13.73ZM12.33 16.28C12.1784 16.4337 11.9911 16.5476 11.7849 16.6114C11.5786 16.6753 11.3598 16.6871 11.1478 16.646C10.9358 16.6049 10.7373 16.5119 10.57 16.3756C10.4026 16.2392 10.2715 16.0635 10.1884 15.8642C10.1053 15.665 10.0727 15.4482 10.0936 15.2333C10.1145 15.0184 10.1882 14.812 10.3081 14.6325C10.428 14.4529 10.5904 14.3058 10.7809 14.2042C10.9714 14.1025 11.1841 14.0496 11.4 14.05C11.7476 14.0513 12.081 14.1875 12.33 14.43C12.5701 14.6781 12.7044 15.0098 12.7044 15.355C12.7044 15.7002 12.5701 16.0319 12.33 16.28Z" fill="#EDB40D"/>
<path d="M17.91 16.26C18.2914 16.2628 18.6675 16.171 19.0048 15.9931C19.3421 15.8151 19.6301 15.5563 19.843 15.2399C20.056 14.9235 20.1873 14.5593 20.2252 14.1798C20.2631 13.8003 20.2065 13.4174 20.0604 13.0651C19.9143 12.7128 19.6832 12.4022 19.3879 12.1609C19.0925 11.9197 18.7419 11.7553 18.3676 11.6825C17.9932 11.6097 17.6066 11.6308 17.2424 11.7438C16.8781 11.8567 16.5475 12.0581 16.28 12.33C16.0613 12.5487 15.8893 12.8094 15.7741 13.0965C15.659 13.3835 15.6031 13.6908 15.61 14C15.6113 14.6101 15.8519 15.1954 16.28 15.63C16.7187 16.0472 17.3048 16.2737 17.91 16.26ZM17 13C17.2447 12.7572 17.5753 12.6207 17.92 12.62C18.2678 12.6202 18.6016 12.7566 18.85 13C19.0993 13.2453 19.2409 13.5797 19.2438 13.9294C19.2466 14.2792 19.1103 14.6157 18.865 14.865C18.6197 15.1143 18.2854 15.256 17.9356 15.2588C17.5859 15.2616 17.2493 15.1253 17 14.88C16.8775 14.7605 16.7806 14.6173 16.7153 14.4591C16.65 14.301 16.6175 14.1311 16.62 13.96C16.6144 13.7825 16.6453 13.6058 16.7106 13.4407C16.776 13.2756 16.8745 13.1256 17 13Z" fill="#EDB40D"/>
</svg>
