<svg width="30" height="30" viewBox="0 0 30 30" fill="none" xmlns="http://www.w3.org/2000/svg">
<path d="M28.125 2.5H1.875C1.18464 2.5 0.625 3.05964 0.625 3.75V22.5C0.625 23.1904 1.18464 23.75 1.875 23.75H28.125C28.8154 23.75 29.375 23.1904 29.375 22.5V3.75C29.375 3.05964 28.8154 2.5 28.125 2.5Z" stroke="#EDB40D" stroke-linecap="round" stroke-linejoin="round"/>
<path d="M8.75 27.5H21.25" stroke="#EDB40D" stroke-linecap="round" stroke-linejoin="round"/>
<path d="M13.125 23.75V27.5" stroke="#EDB40D" stroke-linecap="round" stroke-linejoin="round"/>
<path d="M16.875 23.75V27.5" stroke="#EDB40D" stroke-linecap="round" stroke-linejoin="round"/>
<path d="M16.1175 14.1637L23.035 11.2C23.1477 11.1519 23.2439 11.0718 23.3115 10.9696C23.379 10.8674 23.4151 10.7475 23.4151 10.625C23.4151 10.5024 23.379 10.3826 23.3115 10.2803C23.2439 10.1781 23.1477 10.098 23.035 10.05L16.1175 7.08622C15.9619 7.01951 15.7943 6.98511 15.625 6.98511C15.4557 6.98511 15.2881 7.01951 15.1325 7.08622L6.875 10.625L15.1325 14.1637C15.2881 14.2304 15.4557 14.2648 15.625 14.2648C15.7943 14.2648 15.9619 14.2304 16.1175 14.1637V14.1637Z" stroke="#EDB40D" stroke-linecap="round" stroke-linejoin="round"/>
<path d="M10.625 12.2325V16.4887C10.625 16.6047 10.6573 16.7184 10.7182 16.8171C10.7791 16.9157 10.8663 16.9955 10.97 17.0475L15.0663 19.095C15.2398 19.1817 15.431 19.2268 15.625 19.2268C15.819 19.2268 16.0102 19.1817 16.1837 19.095L20.28 17.0475C20.3837 16.9955 20.4709 16.9157 20.5318 16.8171C20.5927 16.7184 20.625 16.6047 20.625 16.4887V12.2325" stroke="#EDB40D" stroke-linecap="round" stroke-linejoin="round"/>
<path d="M6.875 10.625V15" stroke="#EDB40D" stroke-linecap="round" stroke-linejoin="round"/>
<path d="M6.875 15L5.15875 19.5775C5.14065 19.6248 5.13436 19.6758 5.14042 19.726C5.14648 19.7763 5.16471 19.8243 5.19353 19.8659C5.22234 19.9075 5.26087 19.9415 5.30578 19.9649C5.35069 19.9882 5.40062 20.0003 5.45125 20H8.29875C8.34937 20.0003 8.3993 19.9882 8.44421 19.9649C8.48912 19.9415 8.52765 19.9075 8.55647 19.8659C8.58528 19.8243 8.60351 19.7763 8.60957 19.726C8.61563 19.6758 8.60934 19.6248 8.59125 19.5775L6.875 15Z" stroke="#EDB40D" stroke-linecap="round" stroke-linejoin="round"/>
</svg>
