<svg width="31" height="31" viewBox="0 0 31 31" fill="none" xmlns="http://www.w3.org/2000/svg">
<path d="M23.744 10.498V9.66432C24.7938 9.04679 25.4731 7.90436 25.4731 6.6693V5.18723C25.4731 3.27289 23.9293 1.72906 22.015 1.72906C20.1006 1.72906 18.5259 3.27289 18.5259 5.18723V6.6693C18.5259 7.87349 19.1434 8.98504 20.1933 9.60257V10.498C19.7301 10.6215 19.2978 10.8068 18.8656 11.0538C18.1863 9.47906 16.6116 8.36751 14.7899 8.36751C12.999 8.36751 11.4861 9.41731 10.7759 10.9611C10.3745 10.7759 9.97313 10.5906 9.57174 10.498V9.66432C10.6215 9.04679 11.3008 7.90436 11.3008 6.6693V5.18723C11.3008 3.27289 9.757 1.72906 7.84265 1.72906C5.92831 1.72906 4.38449 3.27289 4.38449 5.18723V6.6693C4.38449 7.87349 5.00202 8.98504 6.05182 9.60257V10.498C3.27293 11.3008 1.38947 13.8018 1.38947 16.7042C1.38947 16.9512 1.6056 17.1673 1.85261 17.1673H10.9921C11.0229 17.1673 11.0538 17.1673 11.0847 17.1673C11.4552 17.754 11.9801 18.248 12.5976 18.6185V20.0079C8.92333 20.996 6.42233 24.2998 6.42233 28.1285C6.42233 28.3755 6.63847 28.5916 6.88548 28.5916H22.7869C23.0339 28.5916 23.25 28.3755 23.25 28.1285C23.25 24.3307 20.6255 20.9651 16.9821 20.0079V18.6803C17.6305 18.3097 18.1554 17.8157 18.5568 17.1982H28.0359C28.2829 17.1982 28.499 16.9821 28.499 16.735C28.4682 13.8327 26.4921 11.2699 23.744 10.498ZM2.31576 16.2719C2.50102 13.8635 4.2301 11.8874 6.60759 11.3317C6.82373 11.2699 6.97811 11.0846 6.97811 10.8685V9.32468C6.97811 9.13942 6.88548 8.98504 6.7311 8.92329C5.86656 8.49102 5.31078 7.62648 5.31078 6.6693V5.18723C5.31078 3.79779 6.45321 2.65536 7.84265 2.65536C9.23209 2.65536 10.3745 3.79779 10.3745 5.18723V6.6693C10.3745 7.62648 9.78787 8.52189 8.92333 8.95416C8.76895 9.01592 8.64544 9.20118 8.64544 9.38644V10.8685C8.64544 11.0846 8.79982 11.2699 9.01596 11.3317C9.54086 11.4552 10.0349 11.6404 10.498 11.8874C10.4363 12.1962 10.4054 12.505 10.4054 12.8446V14.8207C10.4054 15.3147 10.498 15.8087 10.6524 16.2719H2.31576ZM16.3028 17.9701C16.1484 18.0319 16.0249 18.2171 16.0249 18.4024V20.3785C16.0249 20.5946 16.1793 20.7799 16.3954 20.8416C19.6683 21.5518 22.0767 24.3924 22.2929 27.6962H7.34863C7.53389 24.3924 9.8805 21.6135 13.1534 20.8725C13.3695 20.8107 13.5239 20.6255 13.5239 20.4093V18.3715C13.5239 18.1862 13.4313 18.0319 13.2769 17.9701C12.0727 17.3834 11.3317 16.1793 11.3317 14.8516V12.8755C11.3317 10.9303 12.9064 9.38644 14.8207 9.38644C16.7351 9.38644 18.3098 10.9611 18.3098 12.8755V14.8207C18.3098 16.1484 17.5379 17.3834 16.3028 17.9701ZM18.9891 16.2719C19.1434 15.8087 19.2361 15.3147 19.2361 14.8207V12.8446C19.2361 12.5667 19.2052 12.2579 19.1434 12.0109C19.6375 11.7022 20.1932 11.486 20.749 11.3625C20.9652 11.3008 21.1195 11.1155 21.1195 10.8994V9.35556C21.1195 9.1703 21.0269 9.01592 20.8725 8.95416C20.008 8.52189 19.4522 7.65735 19.4522 6.70018V5.21811C19.4522 3.82867 20.5946 2.68624 21.9841 2.68624C23.3735 2.68624 24.516 3.82867 24.516 5.21811V6.70018C24.516 7.65735 23.9293 8.55277 23.0648 8.98504C22.9104 9.04679 22.7869 9.23205 22.7869 9.41731V10.8994C22.7869 11.1155 22.9413 11.3008 23.1574 11.3625C25.5349 11.8874 27.2948 13.9253 27.511 16.3028L18.9891 16.2719Z" fill="#EDB40D"/>
</svg>
