<svg width="40" height="37" viewBox="0 0 40 37" fill="none" xmlns="http://www.w3.org/2000/svg">
<g clip-path="url(#clip0_303_29)">
<path fill-rule="evenodd" clip-rule="evenodd" d="M11.875 13.75H2.4375C0.6875 13.75 0.625 15.0625 0.625 16.75V31.9375C0.625 33.5625 0.6875 34.9375 2.4375 34.9375H11.875C13.625 34.9375 13.6875 33.625 13.6875 31.9375V16.75C13.6875 15.125 13.625 13.75 11.875 13.75Z" stroke="#EDB40D" stroke-width="2"/>
<path d="M13.5625 32.6875H14.4375C16.8125 32.625 18.375 36.25 20.1875 36.25H34.3125C36.0625 36.25 36.4375 33.625 36.375 32.5C36.375 32.5 38.5625 31.5 37.5625 27.5C37.6875 27.4375 38.8125 26.375 38.8125 24.3125C38.8125 22.25 37.625 21.25 37.625 21.25C37.625 21.25 38.8125 19.9375 38.8125 18C38.8125 16.0625 37.125 15 35.375 15H30.1875C25.6875 15 26.0625 12.5625 26.0625 12.5625C26.0625 12.5625 25.5625 6.24999 23.9375 3.31249C21.9375 -0.312509 17.9375 0.874992 19.4375 5.62499C20.5625 9.12499 15.5 14.375 13.625 16.125" stroke="#EDB40D" stroke-width="2"/>
</g>
<defs>
<clipPath id="clip0_303_29">
<rect width="40" height="36.875" fill="white"/>
</clipPath>
</defs>
</svg>
