<svg width="32" height="32" viewBox="0 0 32 32" fill="none" xmlns="http://www.w3.org/2000/svg">
<g clip-path="url(#clip0_303_7)">
<path d="M14.5 32H2.5C2.37284 32.0003 2.25035 31.9521 2.15746 31.8652C2.06458 31.7784 2.00827 31.6594 2 31.5325L1 15.5325C0.995553 15.4642 1.00519 15.3956 1.02832 15.3312C1.05144 15.2667 1.08756 15.2077 1.13445 15.1577C1.18133 15.1078 1.23796 15.0681 1.30085 15.0409C1.36373 15.0138 1.43152 14.9999 1.5 15H15.5C15.5685 14.9999 15.6363 15.0138 15.6992 15.0409C15.762 15.0681 15.8187 15.1078 15.8656 15.1577C15.9124 15.2077 15.9486 15.2667 15.9717 15.3312C15.9948 15.3956 16.0045 15.4642 16 15.5325L15 31.5325C14.9917 31.6594 14.9354 31.7784 14.8425 31.8652C14.7497 31.9521 14.6272 32.0003 14.5 32ZM2.97 31H14.03L14.9675 16H2.0325L2.97 31Z" fill="#EDB40D"/>
<path d="M16.5 16H0.5C0.367392 16 0.240215 15.9473 0.146447 15.8536C0.0526784 15.7598 0 15.6326 0 15.5C0 15.3674 0.0526784 15.2402 0.146447 15.1464C0.240215 15.0527 0.367392 15 0.5 15H16.5C16.6326 15 16.7598 15.0527 16.8536 15.1464C16.9473 15.2402 17 15.3674 17 15.5C17 15.6326 16.9473 15.7598 16.8536 15.8536C16.7598 15.9473 16.6326 16 16.5 16Z" fill="#EDB40D"/>
<path d="M15 20.8975C14.1641 20.9166 13.3363 20.7294 12.59 20.3525C11.9721 20.0352 11.2843 19.8788 10.59 19.8975C9.89564 19.8781 9.20765 20.0346 8.59 20.3525C7.84324 20.7283 7.01579 20.9154 6.18 20.8975C5.34421 20.9154 4.51676 20.7283 3.77 20.3525C3.15213 20.0352 2.4643 19.8788 1.77 19.8975C1.6374 19.8975 1.51022 19.8448 1.41645 19.751C1.32268 19.6573 1.27 19.5301 1.27 19.3975C1.27 19.2649 1.32268 19.1377 1.41645 19.0439C1.51022 18.9502 1.6374 18.8975 1.77 18.8975C2.60579 18.8796 3.43324 19.0667 4.18 19.4425C4.7972 19.7616 5.48551 19.9181 6.18 19.8975C6.87443 19.9175 7.56258 19.7609 8.18 19.4425C8.92676 19.0667 9.75421 18.8796 10.59 18.8975C11.4258 18.8796 12.2532 19.0667 13 19.4425C13.6174 19.7609 14.3056 19.9175 15 19.8975C15.1326 19.8975 15.2598 19.9502 15.3536 20.0439C15.4473 20.1377 15.5 20.2649 15.5 20.3975C15.5 20.5301 15.4473 20.6573 15.3536 20.751C15.2598 20.8448 15.1326 20.8975 15 20.8975Z" fill="#EDB40D"/>
<path d="M23.5 18.25H20.5C20.3674 18.25 20.2402 18.1973 20.1464 18.1036C20.0527 18.0098 20 17.8826 20 17.75V2C20 1.46957 20.2107 0.960859 20.5858 0.585786C20.9609 0.210714 21.4696 0 22 0C22.5304 0 23.0391 0.210714 23.4142 0.585786C23.7893 0.960859 24 1.46957 24 2V17.75C24 17.8826 23.9473 18.0098 23.8536 18.1036C23.7598 18.1973 23.6326 18.25 23.5 18.25ZM21 17.25H23V2C23 1.73478 22.8946 1.48043 22.7071 1.29289C22.5196 1.10536 22.2652 1 22 1C21.7348 1 21.4804 1.10536 21.2929 1.29289C21.1054 1.48043 21 1.73478 21 2V17.25Z" fill="#EDB40D"/>
<path d="M19.75 23.25C19.6174 23.25 19.4902 23.1973 19.3964 23.1036C19.3027 23.0098 19.25 22.8826 19.25 22.75V17.75C19.25 17.6174 19.3027 17.4902 19.3964 17.3964C19.4902 17.3027 19.6174 17.25 19.75 17.25H24.25C24.3826 17.25 24.5098 17.3027 24.6036 17.3964C24.6973 17.4902 24.75 17.6174 24.75 17.75V20.5C24.75 20.6326 24.6973 20.7598 24.6036 20.8536C24.5098 20.9473 24.3826 21 24.25 21C24.1174 21 23.9902 20.9473 23.8964 20.8536C23.8027 20.7598 23.75 20.6326 23.75 20.5V18.25H20.25V22.75C20.25 22.8826 20.1973 23.0098 20.1036 23.1036C20.0098 23.1973 19.8826 23.25 19.75 23.25Z" fill="#EDB40D"/>
<path d="M30.655 30.4575H30.6175C30.47 30.4575 26.99 30.1825 25.01 29.6875C22.9225 29.165 20.9175 26.9375 20.8325 26.835C20.7443 26.7356 20.6993 26.6052 20.7072 26.4725C20.7112 26.4068 20.728 26.3425 20.7568 26.2833C20.7856 26.2241 20.8258 26.1712 20.875 26.1275C20.9243 26.0839 20.9816 26.0503 21.0438 26.0288C21.106 26.0073 21.1719 25.9983 21.2376 26.0022C21.3702 26.0102 21.4943 26.0706 21.5825 26.17C21.6025 26.1925 23.4675 28.27 25.255 28.7175C27.1525 29.19 30.66 29.4675 30.695 29.4675C30.8276 29.4725 30.9528 29.5299 31.0431 29.6272C31.1333 29.7245 31.1812 29.8537 31.1763 29.9863C31.1713 30.1189 31.1138 30.2441 31.0166 30.3343C30.9193 30.4246 30.7901 30.4725 30.6575 30.4675L30.655 30.4575Z" fill="#EDB40D"/>
<path d="M28.565 26.75C28.4767 26.7483 28.3905 26.7233 28.315 26.6775C24.6575 24.4275 19.5175 24.055 19.465 24.0525C19.3337 24.0435 19.2112 23.983 19.1241 23.8843C19.037 23.7855 18.9925 23.6564 19 23.525C19.0048 23.4595 19.0224 23.3956 19.0518 23.3369C19.0813 23.2782 19.122 23.2259 19.1717 23.1829C19.2214 23.14 19.279 23.1072 19.3414 23.0866C19.4037 23.0659 19.4695 23.0577 19.535 23.0625C19.755 23.0775 24.975 23.465 28.8375 25.8325C28.929 25.8891 28.9998 25.9738 29.0394 26.0739C29.079 26.174 29.0852 26.2842 29.0571 26.3881C29.029 26.492 28.9681 26.5841 28.8835 26.6506C28.7989 26.7172 28.6951 26.7547 28.5875 26.7575L28.565 26.75Z" fill="#EDB40D"/>
<path d="M30.1175 28.735C30.0356 28.7351 29.9549 28.7151 29.8826 28.6768C29.8102 28.6384 29.7484 28.5829 29.7025 28.515C29.675 28.4725 26.855 24.33 23.98 23.295C22.8528 22.9292 21.6983 22.6534 20.5275 22.47C20.4618 22.4602 20.3988 22.4375 20.3419 22.4032C20.285 22.369 20.2354 22.3239 20.1959 22.2705C20.1565 22.2171 20.1279 22.1565 20.1119 22.0921C20.0958 22.0276 20.0927 21.9607 20.1025 21.895C20.1124 21.8294 20.135 21.7663 20.1693 21.7094C20.2035 21.6525 20.2486 21.6029 20.302 21.5634C20.3554 21.524 20.416 21.4954 20.4805 21.4794C20.5449 21.4633 20.6118 21.4602 20.6775 21.47C21.9133 21.663 23.1314 21.9556 24.32 22.345C27.5 23.5 30.41 27.775 30.5325 27.955C30.5834 28.0303 30.6128 28.118 30.6176 28.2087C30.6223 28.2994 30.6023 28.3897 30.5597 28.4699C30.517 28.5501 30.4533 28.6171 30.3754 28.6638C30.2975 28.7105 30.2083 28.7351 30.1175 28.735Z" fill="#EDB40D"/>
<path d="M27.1875 32C24.6875 32 21.8275 31.515 19.995 29.6825C18.9587 28.6451 18.3766 27.2388 18.3766 25.7725C18.3766 24.3062 18.9587 22.8999 19.995 21.8625C21.033 20.8275 22.4391 20.2462 23.905 20.2462C25.3709 20.2462 26.777 20.8275 27.815 21.8625C29.395 23.4425 29.9475 25.5875 30.4375 27.48C30.48 27.6425 30.52 27.8075 30.5625 27.9675L31.8125 28.9675C31.869 29.0127 31.9151 29.0697 31.9475 29.1344C31.9798 29.1992 31.9978 29.2702 32 29.3425C31.9961 29.5486 31.9323 29.749 31.8164 29.9195C31.7006 30.0899 31.5376 30.223 31.3475 30.3025C31.4374 30.4905 31.5392 30.6726 31.6525 30.8475C31.6942 30.9162 31.7188 30.994 31.7241 31.0743C31.7294 31.1545 31.7152 31.2348 31.6828 31.3085C31.6504 31.3821 31.6008 31.4468 31.538 31.4971C31.4753 31.5474 31.4014 31.5819 31.3225 31.5975C29.9587 31.8534 28.575 31.9881 27.1875 32ZM20.7025 22.565C19.8534 23.4145 19.3764 24.5664 19.3764 25.7675C19.3764 26.9686 19.8534 28.1205 20.7025 28.97C23.17 31.4375 27.925 31.1225 30.4525 30.7375C30.36 30.5525 30.275 30.3525 30.2025 30.14C30.1737 30.0669 30.1626 29.9881 30.17 29.9099C30.1774 29.8318 30.2031 29.7564 30.245 29.69C30.2871 29.624 30.3441 29.5688 30.4114 29.5289C30.4787 29.4889 30.5544 29.4654 30.6325 29.46C30.6931 29.4552 30.7532 29.446 30.8125 29.4325L29.8125 28.64C29.7314 28.5762 29.672 28.4889 29.6425 28.39L29.47 27.735C28.9925 25.88 28.4975 23.9625 27.11 22.575C26.2605 21.7259 25.1086 21.2489 23.9075 21.2489C22.7064 21.2489 21.5545 21.7259 20.705 22.575L20.7025 22.565Z" fill="#EDB40D"/>
<path d="M30.1225 28.75H30.0775C28.9661 28.6494 27.8643 28.4614 26.7825 28.1875C25.45 27.795 24.825 27.2225 24.76 27.1575C24.7092 27.1129 24.668 27.0585 24.6389 26.9976C24.6097 26.9366 24.5933 26.8704 24.5904 26.8029C24.5876 26.7354 24.5984 26.668 24.6224 26.6048C24.6463 26.5416 24.6828 26.484 24.7296 26.4353C24.7764 26.3866 24.8327 26.3479 24.8949 26.3215C24.9571 26.2951 25.024 26.2817 25.0915 26.2819C25.1591 26.2821 25.2259 26.296 25.288 26.3227C25.35 26.3495 25.406 26.3885 25.4525 26.4375C25.9286 26.8111 26.478 27.0803 27.065 27.2275C28.0845 27.4796 29.1217 27.6543 30.1675 27.75C30.2332 27.753 30.2976 27.7688 30.3571 27.7967C30.4167 27.8246 30.4701 27.8639 30.5145 27.9124C30.5588 27.9609 30.5932 28.0177 30.6156 28.0795C30.638 28.1413 30.648 28.2069 30.645 28.2725C30.6421 28.3382 30.6262 28.4026 30.5983 28.4622C30.5705 28.5217 30.5312 28.5752 30.4827 28.6195C30.4341 28.6638 30.3774 28.6982 30.3156 28.7206C30.2538 28.743 30.1882 28.753 30.1225 28.75Z" fill="#EDB40D"/>
</g>
<defs>
<clipPath id="clip0_303_7">
<rect width="32" height="32" fill="white"/>
</clipPath>
</defs>
</svg>
