<svg width="186" height="51" viewBox="0 0 186 51" fill="none" xmlns="http://www.w3.org/2000/svg">
<path d="M66.3467 38.2046L67.8985 38.2465L70.7644 38.885L70.9415 38.9036L70.9974 39.0481L71.2071 41.7555L71.0766 41.8301L70.55 41.886L70.14 40.7396L69.6507 40.0639L69.5575 39.9661L68.8724 39.4861L68.4624 39.3137L67.8286 39.1646L66.9199 39.118L66.2162 39.1972L65.6104 39.3696L65.2143 39.5467L64.6318 39.9474L64.0633 40.5486L63.2944 41.9046L63.0428 42.6176L62.8144 43.955L62.8843 45.4276L63.0754 46.2105L63.4808 47.1611L63.6253 47.4034L64.0354 47.9766L64.4175 48.3587L64.8695 48.6896L65.6943 49.0251L66.5238 49.1696H67.2834L67.782 49.0857L68.0616 48.9832L68.3086 48.8387L68.509 48.6523L68.5835 48.5358L68.7559 48.1164L68.8119 46.1732L68.7746 45.2272L68.714 44.8964L67.6655 44.3977L67.2414 44.2393L67.069 44.2207L66.9339 44.1647L66.7615 44.1368H66.5704L66.4073 44.1647L66.0904 44.2393L65.7409 44.463L65.6431 44.5702L65.5778 44.6867L65.5266 44.8358L65.5033 45.0129L65.5499 45.3437L65.6104 45.4789L65.7596 45.7119L65.9739 45.8889L66.2395 46.0194L66.5564 46.0893H66.9385L67.2834 46.0427L67.8379 45.8284L67.9125 45.9262L67.9358 46.0054L67.6189 46.1732L67.1529 46.2897L66.7754 46.3083L66.4259 46.2757L65.9739 46.1452L65.8434 46.0753L65.5359 45.7957L65.4613 45.6792L65.3448 45.409L65.2842 45.0828L65.2889 44.696L65.4101 44.2393L65.6943 43.7407L66.3094 43.1908L66.6962 42.9904L67.316 42.8273L67.8379 42.8133L68.3505 42.9112L70.8669 43.8898L71.03 43.9317L71.2071 43.9178L71.3655 43.8758L71.496 43.8059L71.5566 43.6848L71.538 43.5123L71.4774 43.3912L71.291 43.1768L70.9974 42.9811L71.016 42.8972C71.0254 42.8537 71.0533 42.8304 71.0999 42.8273L71.3329 42.9811L71.6405 43.2607L71.7896 43.5077L71.8921 43.7873L71.9201 44.1042L71.8875 44.3139L71.7896 44.6028L71.5426 44.943L71.2164 45.1993L70.9601 45.3297L70.9135 45.4789L70.9974 49.3001L70.9741 49.3327L69.0076 49.8965L66.878 50.1016L65.2842 49.9525L63.8117 49.4818L62.4789 48.6756L61.7753 48.0092L61.3559 47.464L60.8992 46.5507L60.6802 45.8051L60.5357 44.0016L60.7967 42.3101L61.0483 41.5971L61.4584 40.8375L62.3578 39.7937L62.8843 39.351L63.8723 38.7731L65.5172 38.2885L66.3467 38.2046Z" fill="#FFDD59"/>
<path d="M78.8309 38.2232L80.2755 38.1627L81.7294 38.419L82.8059 38.871L83.6027 39.4022L84.2971 40.0406L84.9728 40.8934L85.4201 41.7695L85.7696 43.1395L85.8022 44.4071L85.5692 45.9029L85.0753 47.1145L84.5301 47.9067L83.6493 48.7362L82.461 49.4538L81.1795 49.8826L79.6604 50.0783L78.2158 49.9944L77.8896 49.9431L77.0135 49.6729L75.9044 49.0717L74.8885 48.191L73.9472 46.8396L73.5045 45.5627L73.4486 45.2412L73.3694 43.9923L73.4998 42.79L73.8121 41.7648L74.4318 40.6744L75.266 39.803L76.2772 39.09L77.4422 38.5448L78.8309 38.2232ZM80.4106 39.1366L79.6464 39.0667L79.1151 39.0993L78.4208 39.2531L77.6612 39.6119L77.3397 39.8496L76.8084 40.4414L76.0442 41.9233L75.7646 43.0463L75.718 44.6447L75.937 45.8284L76.4123 47.0353L76.9576 47.9067L77.4888 48.4799L77.8103 48.7222L78.1692 48.9226L79.0359 49.1742L80.1031 49.1929L81.0024 48.9878L81.7247 48.5871L82.2746 48.0232L82.9084 46.9514L83.3371 45.7072L83.5002 43.9504L83.3231 42.6782L83.1414 42.0165L82.8059 41.2336L82.1441 40.1991L81.7434 39.7704L81.2448 39.4209L80.8533 39.2531L80.4106 39.1366Z" fill="#FFDD59"/>
<path d="M87.2608 38.9362V38.2931H92.1352L92.1491 38.9642L91.3243 39.0667L91.054 39.2205L90.9562 39.337L90.8956 39.4954L90.8257 39.8449L90.7791 40.4321L90.8071 48.3121L90.8863 48.643L91.0401 48.9273L91.2824 49.109L91.4501 49.1556L91.6226 49.123L92.2517 48.8946L94.0038 48.0745L94.6469 47.8601L94.8333 47.8322L95.2294 47.8741L95.7047 48.0419L95.9703 48.205L96.2732 48.5405L96.427 48.8108L96.5156 49.1556L96.4876 49.5564L96.3571 49.8686L96.1847 50.1016L95.6441 50.5256L95.5882 50.3439L95.6581 50.302L95.8958 50.1156L96.1008 49.8965L96.1567 49.6822L96.1288 49.5564L96.0123 49.4678L95.8445 49.4166L95.6581 49.3979L95.3133 49.4818L92.8481 50.4418L92.2936 50.5256L91.8882 50.4977L91.3663 50.3765L90.9236 50.1761L90.6719 49.9991L90.5275 49.9292L87.2608 50.013V49.356L87.8899 49.2861L88.1881 49.1556L88.3046 49.0577L88.4025 48.9412L88.533 48.643L88.5889 48.2749V40.1758L88.5703 39.9847L88.4398 39.4721L88.3699 39.3323L88.258 39.2205L87.9878 39.0667L87.8153 39.0201L87.2748 38.9735L87.2608 38.9362Z" fill="#FFDD59"/>
<path d="M98.333 38.2605L105.966 38.3584L107.369 38.7498L108.529 39.3789L109.568 40.3435L109.885 40.8189L110.412 42.0864L110.621 43.4564L110.598 44.6168L110.496 45.3158L109.899 46.9141L109.438 47.6504L109.079 48.0885L107.998 49.0018L107.355 49.356L106.157 49.7521L104.559 49.9525H98.3469L98.333 49.3001L98.8456 49.2674L99.1531 49.1836L99.2883 49.109L99.4886 48.9086L99.5492 48.7781L99.6331 48.4566L99.689 47.9254V40.1758L99.5725 39.5001L99.5073 39.3556L99.4327 39.2345L99.3209 39.1413L99.0599 39.0061L98.8922 38.9735L98.3469 38.9316L98.333 38.2605ZM102.984 39.1879L101.889 39.2624V47.2683L101.991 48.1817L102.117 48.5638L102.205 48.7269L102.49 48.9552L102.685 49.0158L103.114 49.0997L104.088 49.0857L105.37 48.8527L106.26 48.4566L106.842 48.0139L107.094 47.7669L107.7 46.8396L108.044 45.9122L108.259 44.3325L108.184 42.8832L108.012 42.0538L107.811 41.4852L107.439 40.8422L107.084 40.4321L106.497 39.9847L105.645 39.57L104.643 39.3044L102.984 39.1879Z" fill="#FFDD59"/>
<path d="M119.037 38.9688V38.2931H123.888C123.919 38.3366 123.937 38.3894 123.94 38.4516V38.9688L123.502 38.9828L123.171 39.0387L122.924 39.1692L122.812 39.2671L122.742 39.3836L122.626 39.8449L122.565 40.3622L122.593 42.0491L122.742 41.9978L123.241 41.9186H123.427L123.93 41.9978L124.35 42.1516L124.471 42.2355L124.42 42.4266L124.047 42.2635L123.739 42.1796L123.269 42.1283L123.04 42.1516L122.728 42.2262L122.593 42.2821L122.579 43.8199L122.598 43.9877L122.887 44.0855L123.255 44.1042L123.418 44.0855L124.289 43.8013L126.139 42.9392L126.582 42.7947L126.745 42.7667L127.113 42.7947L127.276 42.8273L127.56 42.9252L127.929 43.1442L128.129 43.3259L128.339 43.6288L128.362 43.4098L128.339 40.1432L128.292 39.7983L128.162 39.3556L128.078 39.2391L127.845 39.0853L127.533 39.0061L127.015 38.9549V38.2931H131.89V38.9688L131.335 38.9921L131.177 39.0248L130.911 39.1552L130.813 39.2391L130.729 39.3556L130.673 39.5001L130.603 39.8123L130.543 40.3296V47.9999L130.687 48.8341L130.841 49.0531L131.074 49.2069L131.219 49.2535L131.386 49.2814L131.89 49.3047V49.9431L131.848 49.9525H127.029L127.015 49.3047L127.327 49.2907L127.644 49.2348L127.929 49.123L128.129 48.9506L128.236 48.6616L128.362 47.6597V44.7333L128.208 44.9616L127.915 45.2412L127.607 45.4462L127.547 45.2925L127.807 45.0921L127.999 44.901L128.073 44.7799L128.12 44.6307L128.078 44.4723L127.975 44.3884L127.831 44.3465L127.658 44.3185L127.477 44.3325L124.825 45.3624L124.345 45.4462L123.8 45.409L123.334 45.2925L122.928 45.1014L122.593 44.8637L122.556 47.7157L122.626 48.4286L122.709 48.7362L122.84 48.9832L122.928 49.0764L123.194 49.2069L123.516 49.2814L123.94 49.3047V49.9525H119.037V49.3373L119.196 49.2907H119.354L119.844 49.1742L120.081 49.0205L120.23 48.7781L120.328 48.4939L120.389 47.7902L120.356 40.0826L120.258 39.584L120.142 39.323L120.044 39.2158L119.927 39.1413L119.652 39.0248L119.037 38.9688Z" fill="#FFDD59"/>
<path d="M138.763 38.2232L140.212 38.1627L141.662 38.419L142.738 38.871L143.54 39.4022L144.229 40.0406L144.905 40.8934L145.352 41.7695L145.702 43.1395L145.734 44.4071L145.501 45.9029L145.008 47.1145L144.467 47.9067L143.582 48.7362L142.398 49.4538L141.112 49.8826L139.593 50.0783L138.148 49.9944L137.826 49.9431L136.95 49.6729L135.841 49.0717L134.821 48.191L133.879 46.8396L133.441 45.5627L133.381 45.2412L133.306 43.9923L133.432 42.79L133.744 41.7648L134.369 40.6744L135.198 39.803L136.209 39.09L137.379 38.5448L138.763 38.2232ZM140.348 39.1366L139.583 39.0667L139.052 39.0993L138.358 39.2531L137.598 39.6119L137.272 39.8496L136.741 40.4414L135.976 41.9233L135.697 43.0463L135.65 44.6447L135.874 45.8284L136.345 47.0353L136.89 47.9067L137.421 48.4799L137.747 48.7222L138.101 48.9226L138.973 49.1742L140.035 49.1929L140.939 48.9878L141.657 48.5871L142.207 48.0232L142.845 46.9514L143.269 45.7072L143.432 43.9504L143.26 42.6782L143.078 42.0165L142.738 41.2336L142.076 40.1991L141.676 39.7704L141.177 39.4209L140.786 39.2531L140.348 39.1366Z" fill="#FFDD59"/>
<path d="M147.16 38.9036V38.3258H151.862L151.848 38.9735H151.415L151.052 39.0387L150.856 39.1413L150.721 39.295L150.665 39.3836L150.558 39.7191L150.502 40.241L150.516 45.7445L150.641 46.7837L150.767 47.245L151.066 47.8089L151.313 48.1444L151.625 48.424L151.979 48.6523L152.603 48.8946L153.069 49.0018L154.048 48.9739L154.877 48.7921L155.274 48.6057L155.618 48.3634L155.898 48.0652L156.164 47.5992L156.434 46.8675L156.732 45.1247L156.774 40.6558L156.713 39.9847L156.597 39.528L156.494 39.337L156.415 39.2624L156.15 39.0993L155.931 39.0248L155.409 38.9642V38.3724L155.437 38.3258H159.109C159.149 38.3351 159.172 38.3615 159.179 38.405V38.843L159.151 38.9735H158.866L158.615 39.0061L158.405 39.0853L158.233 39.2018L158.107 39.3649L158.018 39.57L157.958 39.7983L157.888 40.46L157.785 46.3083L157.576 47.2823L157.221 48.0745L156.76 48.6383L156.182 49.0764L154.742 49.6729L152.99 49.9525L152.263 49.9431L151.401 49.794L150.339 49.4026L149.695 49.0205L149.178 48.5265L148.833 47.9953L148.661 47.5805L148.479 46.9002L148.395 46.2571L148.372 40.46L148.321 39.9148L148.246 39.57L148.167 39.351L148.037 39.1879L147.855 39.0853L147.393 38.9735H147.174L147.16 38.9036Z" fill="#FFDD59"/>
<path d="M164.333 38.2745L165.572 38.1953L166.718 38.3537L167.329 38.5261C167.394 38.5603 167.428 38.6162 167.431 38.6939L167.781 40.8748L166.989 41.0565L166.961 40.9214L166.458 39.8636L166.234 39.5607L165.968 39.2997L165.614 39.1226L165.195 39.0248L164.831 39.0015L164.468 39.0341L164.058 39.1506L163.731 39.3463L163.452 39.5793L163.223 39.8915L163.088 40.2597L163.046 40.6138L163.093 40.968L163.154 41.1684L163.242 41.3408L163.456 41.6483L164.347 42.3427L166.15 43.4052L167.296 44.3558L167.748 44.9476L167.916 45.2971L168.079 45.9262L168.126 46.6578L168.079 47.1518L167.911 47.7623L167.739 48.1118L167.278 48.6943L166.369 49.3653L165.446 49.7474L164.813 49.8965L163.82 49.9525L162.865 49.8499L161.453 49.4399C161.397 49.4057 161.358 49.3544 161.336 49.2861L160.744 46.7743H160.791L161.606 46.5507L161.984 47.4873L162.361 48.1584L162.697 48.6057L162.995 48.8341L163.345 49.0018L163.769 49.1043L164.253 49.137L164.719 49.0764L165.129 48.9552L165.605 48.657L165.875 48.396L165.992 48.2469L166.159 47.9114L166.266 47.478L166.238 46.9887L166.127 46.5833L165.922 46.2524L165.675 45.9915L165.083 45.5394L162.823 44.1321L162.086 43.5543L161.821 43.2933L161.532 42.7994L161.383 42.4172L161.271 41.4852L161.304 40.9959L161.457 40.3762L161.728 39.8449L162.198 39.2717L162.813 38.843L163.708 38.4376L164.333 38.2745Z" fill="#FFDD59"/>
<path d="M169.985 38.9362V38.2605H178.434L178.462 38.2931L178.681 41.1078L177.968 41.1777L177.949 41.1497L177.721 40.2923L177.464 39.7937L177.236 39.5467L177.05 39.4209L176.719 39.295L175.791 39.1366L174.119 39.118L173.844 39.1506L173.643 39.2624L173.578 39.351L173.522 39.6026L173.508 43.4518L173.578 43.4797L175.279 42.7015L175.778 42.5803L176.206 42.6176L176.439 42.6922L176.761 42.832L177.106 43.1069L177.176 43.1908L177.353 43.4751L177.474 43.8246L177.483 44.1228L177.436 44.3884L177.348 44.5981L177.208 44.7938L176.891 45.0921L176.621 45.2505L176.574 45.148L176.621 45.0501L176.793 44.9197L177.036 44.696L177.082 44.5888L177.134 44.3791L177.059 44.2486L176.966 44.1974L176.719 44.1368H176.56L174.119 45.0967L173.508 45.2645V47.4267L173.573 47.9813L173.704 48.4706L173.746 48.5778L173.876 48.7548L174.058 48.8853L174.277 48.9832L174.533 49.0251L176.015 49.0158L177.222 48.8247L177.679 48.671L177.963 48.4799L178.327 48.0791L178.671 47.4966L178.946 46.8396C178.953 46.8054 178.977 46.7821 179.021 46.7697L179.683 46.9514L179.026 49.6356L178.993 49.9105L178.876 49.9525H169.985V49.4212L170.018 49.3001L170.46 49.2674L170.712 49.2069L170.926 49.109L171.09 48.9692L171.22 48.6523L171.304 48.2655L171.346 47.5432L171.327 44.4676L171.127 44.2067L170.959 43.9084L170.875 43.6894L170.805 43.2793L170.791 42.9904L170.861 42.5943L170.959 42.38L171.09 42.2029L171.327 41.9792V41.2056L171.346 40.6092L171.313 40.0313L171.159 39.4162L171.043 39.2205L170.959 39.1506L170.759 39.0481L170.512 38.9875L169.985 38.9362ZM171.327 43.5077L171.313 42.2961L171.131 42.5337L171.076 42.6922L171.043 42.8506L171.029 43.0463L171.057 43.2374L171.104 43.3912L171.187 43.5077L171.29 43.6195L171.327 43.5077Z" fill="#FFDD59"/>
<path d="M32.4238 0.43808L18.5557 14.3062L19.7015 15.4519L21.6238 13.5288V28.9924H43.2238V13.5288L45.1462 15.4519L46.2919 14.3062L43.2238 11.238V2.97488H38.274V6.24755L32.4238 0.43808ZM32.4238 2.72959L39.9104 10.2153V4.61121H41.5874V11.8517V11.8924V27.3561H23.2602V11.8924L32.4238 2.72959ZM0.924377 29.5653V47.6057H11.7651V45.8879L25.1834 50.1417C25.2652 50.1826 27.2694 50.7554 29.5602 50.7554C30.9511 50.7554 32.1784 50.551 33.242 50.101C35.9419 48.9965 46.7825 43.1878 50.0552 41.4287C50.9551 40.9378 52.1824 39.5465 51.4869 37.8692C50.9551 36.642 50.0553 36.0284 48.7872 36.0284C48.3372 36.0284 47.805 36.1108 47.2323 36.2744L38.5193 39.301V39.2195V39.0965V38.8919V38.8104V38.7697V38.7289C38.5193 38.6471 38.4786 38.5239 38.4786 38.4421V38.4014C38.1104 36.8059 36.6372 35.6193 34.9191 35.6193H28.0054C24.8145 31.5693 17.4104 31.5284 17.0832 31.5284H11.7651V29.5653H0.924377ZM2.56071 31.1609H10.1288V31.4469V45.2743V45.9287H2.56071V31.1609ZM11.7243 33.0833H17.0424C17.1242 33.0833 24.3241 33.1239 26.8604 36.8465L27.1057 37.2149H34.8376C35.8603 37.2149 36.7195 37.9517 36.8422 38.9335V38.9742V39.1788C36.8422 39.2606 36.8416 39.3423 36.8007 39.4241V39.5471C36.8007 39.6289 36.7601 39.7106 36.7192 39.7924C36.7192 39.8333 36.7194 39.8739 36.6784 39.8739C36.6375 39.9966 36.5965 40.0789 36.5147 40.1607C36.1874 40.6516 35.6143 40.9789 34.9598 40.9789H24.3236V42.6152H34.9598C36.0643 42.6152 37.0874 42.0831 37.7419 41.2649L47.683 37.8285C48.092 37.7058 48.4599 37.6647 48.7872 37.6647C49.4008 37.6647 49.6875 37.8694 49.9329 38.4421C50.2602 39.2194 49.4824 39.8335 49.237 39.9562C46.0052 41.7153 35.2057 47.4424 32.5876 48.547C31.7694 48.8742 30.7466 49.0783 29.5602 49.0783C27.4739 49.0783 25.6332 48.547 25.6332 48.547L11.7243 44.1693V33.0833Z" fill="url(#paint0_linear_301_2)"/>
<path d="M64.1277 27.8897L64.6449 27.8198L65.2041 27.8571L66.8444 28.2439L67.0541 28.2532L67.1753 28.2299L67.2545 28.1926L67.2778 28.1646L67.2638 28.1041L67.2126 28.0435L67.1427 27.9922L66.9143 27.8711C66.9205 27.8431 66.9392 27.8291 66.9702 27.8291L67.2265 27.9316L67.3664 28.0295L67.4735 28.1646L67.5108 28.2532L67.5015 28.3277L67.4642 28.4442L67.357 28.5747L67.2172 28.6772L67.138 28.7192L66.8677 28.8077C66.846 28.8233 66.8336 28.8481 66.8304 28.8823L66.8165 32.4425L66.8444 32.7734L66.891 32.9598L66.933 33.039L66.9935 33.0996L67.0681 33.1369L67.2172 33.1788V33.0856H67.5341L67.5388 34.3624L67.5248 34.3764L67.2172 34.3671L67.2126 33.752L67.1799 33.6401L67.1287 33.5796L67.0541 33.533L66.9563 33.5143H62.4267L62.3382 33.5469L62.2823 33.6122L62.2497 33.6914V34.3671L61.9328 34.3764L61.9281 33.0856L62.5759 33.0483L62.8601 32.9738L63.1164 32.8712L63.4613 32.6289L63.5824 32.5124L63.7082 32.2794L63.7688 32.0977L63.848 30.8721L63.8341 29.1572L63.5964 29.092L63.4333 29.0221L63.3634 28.9708L63.3028 28.9102L63.2516 28.8357L63.2189 28.7565L63.2096 28.6446L63.2283 28.5374L63.2516 28.4489L63.3494 28.3044L63.4706 28.1926L63.6943 28.0528L64.1277 27.8897ZM63.5219 28.4536L63.438 28.5141L63.3774 28.5887L63.3587 28.7052L63.3867 28.8124L63.4473 28.8963L63.6104 28.9988L63.8201 29.0687L63.8341 29.05L63.8154 28.8357L63.7549 28.626L63.6989 28.5468L63.6197 28.4908C63.5917 28.4753 63.5591 28.4629 63.5219 28.4536ZM65.6934 28.7099L65.013 28.5048L64.9525 28.5607L64.9105 28.6353L64.8593 28.8077L64.8034 30.97L64.6962 31.4266L64.4166 32.0418L63.8853 32.7361L63.382 33.1974L65.2927 33.1928L65.4884 33.1648L65.6375 33.0949L65.6934 33.039L65.768 32.8899L65.7866 32.8013L65.8099 32.601L65.8052 29.0454L65.7587 28.7565C65.7431 28.7316 65.7214 28.7161 65.6934 28.7099Z" fill="#FFDD59"/>
<path d="M71.2202 31.3614H69.5659L69.2117 32.3027C69.2055 32.3089 69.2008 32.3152 69.1977 32.3214C69.1946 32.3307 69.1931 32.3416 69.1931 32.354C69.1713 32.4068 69.148 32.4627 69.1232 32.5218C69.1014 32.5839 69.0874 32.6445 69.0812 32.7035C69.075 32.7252 69.0703 32.7485 69.0672 32.7734C69.0641 32.7951 69.0626 32.8184 69.0626 32.8433C69.0626 32.9862 69.1107 33.0794 69.207 33.1229C69.3033 33.1664 69.409 33.1912 69.5239 33.1975C69.5426 33.2037 69.5581 33.2068 69.5705 33.2068C69.5798 33.2068 69.5938 33.2068 69.6125 33.2068C69.6218 33.2068 69.6327 33.2083 69.6451 33.2114C69.6575 33.2145 69.6699 33.2161 69.6824 33.2161V33.5376C69.5022 33.519 69.322 33.5066 69.1418 33.5004C68.9616 33.4941 68.7814 33.491 68.6012 33.491C68.4397 33.491 68.2766 33.4941 68.1119 33.5004C67.9442 33.5066 67.7842 33.519 67.632 33.5376L67.618 33.2161C67.6988 33.2099 67.7795 33.1975 67.8603 33.1788C67.938 33.1633 68.0094 33.126 68.0747 33.067C68.1182 33.0266 68.1648 32.9691 68.2145 32.8946C68.2642 32.8231 68.3139 32.7408 68.3636 32.6476C68.4102 32.5637 68.4568 32.4736 68.5034 32.3773C68.5469 32.281 68.5888 32.1831 68.6292 32.0837C68.7038 31.9097 68.7737 31.7435 68.8389 31.5851C68.901 31.4235 68.9523 31.2931 68.9927 31.1937L69.7243 29.4322C69.833 29.1774 69.9371 28.9196 70.0365 28.6586C70.1359 28.3945 70.2322 28.132 70.3254 27.8711L71.0431 27.5589C71.1363 27.8602 71.2326 28.1631 71.332 28.4676C71.4314 28.7689 71.5293 29.0702 71.6256 29.3716L72.3619 31.5012C72.3898 31.5944 72.4224 31.7047 72.4597 31.8321C72.497 31.9594 72.5389 32.093 72.5855 32.2328C72.6663 32.4689 72.775 32.6895 72.9117 32.8946C73.0484 33.1027 73.2302 33.2099 73.457 33.2161V33.5376C73.3576 33.5314 73.2597 33.5252 73.1634 33.519C73.0671 33.5128 72.9708 33.5066 72.8745 33.5004C72.7751 33.5004 72.6772 33.4988 72.5809 33.4957C72.4846 33.4926 72.3883 33.491 72.292 33.491C72.1863 33.491 72.0807 33.4926 71.9751 33.4957C71.8695 33.4988 71.7685 33.5004 71.6722 33.5004C71.5697 33.5066 71.4656 33.5128 71.36 33.519C71.2574 33.5252 71.1518 33.5314 71.0431 33.5376V33.2161C71.0679 33.2161 71.0912 33.2161 71.113 33.2161C71.1378 33.2161 71.1611 33.2161 71.1829 33.2161C71.2947 33.2099 71.3957 33.185 71.4858 33.1415C71.5759 33.098 71.6209 33.0095 71.6209 32.8759C71.6209 32.7827 71.61 32.6895 71.5883 32.5963C71.5634 32.5031 71.5401 32.413 71.5184 32.326C71.5091 32.3043 71.5029 32.2825 71.4998 32.2608C71.4935 32.2422 71.4873 32.2235 71.4811 32.2049L71.2202 31.3614ZM71.0431 30.8908L70.4699 28.9802L69.7429 30.8908H71.0431Z" fill="#FFDD59"/>
<path d="M73.5921 27.7919L76.6025 27.8012L77.0452 27.9037L77.3853 28.0948L77.5345 28.2206L77.6603 28.365L77.7954 28.5841L77.8653 28.7891L77.9212 29.0967L77.8793 29.763L77.7395 30.1591L77.5997 30.3782L77.4273 30.5692L77.1756 30.7696L76.705 31.0119L76.43 31.1005L75.3443 31.1843V32.6755L75.3909 32.9039L75.4421 33.025L75.4841 33.081L75.5866 33.1509L75.7264 33.1928L76.0013 33.2161V33.4584L75.992 33.5376H73.5921V33.2254L73.9696 33.1648L74.0861 33.0949L74.1653 32.9924L74.1839 32.9272L74.2538 32.4565L74.2445 28.6959L74.1839 28.4023L74.128 28.2765L74.0814 28.2346L73.9649 28.1647L73.7505 28.1227L73.5921 28.1134V27.7919ZM75.3955 28.2206L75.3349 28.2252V30.8395H75.7683L76.0852 30.7696L76.2669 30.6997L76.4207 30.5972L76.5512 30.4667L76.6025 30.3921L76.7562 30.0287L76.8122 29.7025L76.8261 29.3623L76.7795 28.9895L76.7516 28.8916L76.6724 28.7192L76.5652 28.5654L76.4999 28.5048L76.3508 28.4023L76.1691 28.3184L75.745 28.2346L75.3955 28.2206Z" fill="#FFDD59"/>
<path d="M84.585 27.8291V28.16L84.3241 28.1926L84.1889 28.2346L84.0678 28.2998L83.9839 28.393L83.9559 28.4536L83.9093 28.6773L83.9 29.0174L83.928 32.7454L83.9606 32.8852L84.0258 33.0064L84.1097 33.0996L84.2216 33.1648L84.3614 33.1975L84.585 33.2161V33.5237L84.5711 33.5376L84.352 33.5237L82.6838 33.5376V33.2907L82.6931 33.2161L83.1265 33.1136L83.1731 33.0716L83.215 33.0204L83.2616 32.8946L83.3082 32.6662L83.3781 28.9569L79.4078 33.5609L79.3612 33.5982H79.007C78.9791 33.5982 78.9558 33.5904 78.9371 33.5749L78.8905 28.7052L78.8532 28.4722L78.8253 28.407L78.7554 28.2998L78.6668 28.2159L78.6063 28.188L78.5317 28.1693L78.2521 28.16V27.9084L78.2661 27.8291H80.1254L80.1534 27.8338V28.16L79.8831 28.188L79.7526 28.2346L79.6408 28.3045L79.5662 28.407L79.5103 28.5375L79.4684 28.7565L79.4497 31.7762L79.459 31.8414L82.9121 27.8711L82.9587 27.8291L83.0426 27.8431L84.585 27.8291Z" fill="#FFDD59"/>
<path d="M85.3493 27.8198L85.3539 27.8105H86.9337L87.6653 29.4089L87.7026 29.4788L88.8955 31.9299L88.9188 31.9579L90.8434 27.8105L92.0457 27.8385L92.4278 27.8105L92.4325 28.1414L92.1669 28.1553L91.9851 28.188L91.836 28.2625L91.7941 28.3231L91.7568 28.4023L91.7148 28.5841L91.6915 28.8916L91.8034 32.5311L91.8453 32.8153L91.9012 32.9878L91.9432 33.0483L91.9991 33.0996L92.0737 33.1369L92.2461 33.1881L92.4837 33.2208V33.5376H90.0745V33.2161L90.3914 33.1648L90.5452 33.0996L90.6104 33.0483L90.6524 32.9878L90.6803 32.9039L90.699 32.8107L90.7223 31.9672L90.7176 29.4322L88.7511 33.5376H88.5321L88.4808 33.4724L86.5376 29.4508L86.5236 29.5021L86.4351 32.7035L86.505 32.9598L86.5469 33.0297L86.5982 33.0856L86.7426 33.1648L86.9244 33.2068L87.0315 33.2114C87.0626 33.2114 87.0813 33.2285 87.0875 33.2627V33.5376L85.6335 33.5004L85.1769 33.5376V33.2161H85.2561L85.4425 33.1835L85.5217 33.1555L85.5916 33.1136L85.6522 33.0577L85.764 32.8386L85.7827 32.7548L86.0157 29.0128L86.011 28.5747L85.9597 28.407L85.8619 28.2858L85.7221 28.2019L85.545 28.16L85.3493 28.132V27.8198Z" fill="#FFDD59"/>
<path d="M98.6303 30.3735L99.2641 29.0128C99.2703 28.9941 99.2765 28.977 99.2827 28.9615C99.2889 28.9491 99.2967 28.9367 99.306 28.9242C99.3246 28.8776 99.3464 28.8295 99.3712 28.7798C99.393 28.7301 99.4101 28.6788 99.4225 28.626C99.4318 28.5949 99.4396 28.5623 99.4458 28.5281C99.452 28.494 99.4551 28.4613 99.4551 28.4303C99.4551 28.3184 99.4054 28.2454 99.306 28.2113C99.2035 28.1802 99.0916 28.1647 98.9705 28.1647C98.9612 28.1647 98.9518 28.1647 98.9425 28.1647C98.9301 28.1647 98.9208 28.1647 98.9146 28.1647V27.8291C99.0854 27.8416 99.2594 27.8509 99.4365 27.8571C99.6104 27.8602 99.7875 27.8618 99.9677 27.8618C100.132 27.8618 100.294 27.8602 100.452 27.8571C100.614 27.8509 100.774 27.8416 100.932 27.8291V28.1647C100.671 28.1709 100.466 28.247 100.317 28.393C100.171 28.5421 100.052 28.7037 99.9584 28.8776C99.9491 28.9025 99.9382 28.9242 99.9258 28.9429C99.9165 28.9615 99.9071 28.9786 99.8978 28.9941L98.579 31.5665C98.52 31.6721 98.4594 31.7917 98.3973 31.9253C98.3383 32.0558 98.2715 32.1893 98.1969 32.326C98.0292 32.6243 97.8241 32.9008 97.5818 33.1555C97.3395 33.4103 97.021 33.5376 96.6265 33.5376C96.4712 33.5376 96.3329 33.5035 96.2118 33.4351C96.0906 33.3668 96.0222 33.2674 96.0067 33.1369C96.0067 32.9008 96.0906 32.7579 96.2584 32.7082C96.423 32.6584 96.628 32.6336 96.8735 32.6336C97.0692 32.6336 97.2494 32.5777 97.414 32.4658C97.5818 32.3571 97.7123 32.222 97.8055 32.0604C97.8428 31.9921 97.8769 31.9237 97.908 31.8554C97.9391 31.787 97.967 31.7233 97.9919 31.6643L96.6032 28.845C96.597 28.8326 96.5908 28.8217 96.5846 28.8124C96.5814 28.8031 96.5799 28.7953 96.5799 28.7891C96.5022 28.6431 96.4106 28.5079 96.305 28.3837C96.1993 28.2625 96.0424 28.1895 95.8343 28.1647L95.8203 27.8291C95.9228 27.8353 96.0269 27.8416 96.1325 27.8478C96.2351 27.8509 96.3422 27.8524 96.4541 27.8524C96.5535 27.8586 96.656 27.8618 96.7616 27.8618C96.8642 27.8618 96.9667 27.8618 97.0692 27.8618C97.2773 27.8618 97.487 27.8602 97.6983 27.8571C97.9095 27.8509 98.1161 27.8416 98.3181 27.8291V28.1647C98.3119 28.1647 98.3056 28.1647 98.2994 28.1647C98.2963 28.1647 98.2917 28.1647 98.2855 28.1647C98.1705 28.1647 98.0633 28.1786 97.9639 28.2066C97.8676 28.2377 97.8148 28.3091 97.8055 28.421C97.8055 28.4613 97.8101 28.5002 97.8195 28.5375C97.8257 28.5778 97.8396 28.6182 97.8614 28.6586C97.8707 28.6835 97.88 28.7068 97.8894 28.7285C97.8987 28.7534 97.9111 28.7798 97.9266 28.8077L98.6303 30.3735Z" fill="#FFDD59"/>
<path d="M107.181 27.6707L107.82 27.6754L108.384 27.7872L108.528 27.8338L108.924 28.0155L109.278 28.2392L109.591 28.5048L109.982 28.9708L110.276 29.544L110.42 30.1685L110.439 30.8069L110.322 31.5571L110.196 31.916L109.926 32.4099L109.661 32.7221L109.181 33.1089L108.687 33.3792L107.941 33.5936L107.037 33.6541L106.361 33.5609L105.807 33.3466L105.499 33.1742L105.033 32.7781L104.651 32.2981L104.343 31.641L104.26 31.3381L104.204 30.8209L104.124 30.9234L104.027 31.0119L103.957 31.0399L103.873 31.0585L103.798 31.0399L103.621 30.928L103.309 30.6624L103.141 30.5413L103.011 30.476L102.922 30.4714L102.852 30.4947L102.796 30.5366L102.792 31.203L102.81 31.2729L102.876 31.3102L102.945 31.3335H103.011L103.109 31.3102L103.174 31.2822L103.272 31.2123L103.281 31.3008L103.211 31.3568L103.081 31.422H102.899L102.792 31.3707L102.796 32.5451L102.852 32.8806L102.904 33.0157L103.006 33.1089L103.062 33.1369L103.216 33.1788L103.453 33.1975V33.5143L103.43 33.519H101.077V33.1975L101.286 33.1835L101.436 33.1462L101.501 33.1182L101.557 33.0763L101.608 33.0344L101.641 32.9738L101.697 32.834L101.729 32.5823L101.72 28.7472L101.697 28.5794L101.631 28.365L101.594 28.3045L101.547 28.2532L101.417 28.1833L101.273 28.1414L101.091 28.132L101.077 28.0435V27.8012L103.453 27.8105V28.132L103.132 28.1647L103.062 28.1833L102.936 28.2532L102.894 28.3045L102.848 28.4443L102.806 28.6912L102.792 30.1265L102.917 30.0007L102.978 29.9588L103.099 29.8935L103.188 29.8842L103.276 29.8889L103.346 29.9122L104.036 30.3688H104.12L104.18 30.3269L104.199 30.2523L104.185 30.1731L104.162 30.0986L104.124 30.0426L104.078 29.9867L104.064 29.9261V29.8842L104.143 29.9588L104.246 30.1172L104.292 29.8749L104.437 29.4415L104.6 29.1246L104.842 28.7891L105.289 28.3744L105.825 28.0388L106.594 27.7592L107.181 27.6707ZM107.638 28.132L107.228 28.1227L106.855 28.1786L106.641 28.2439L106.277 28.4443L106.124 28.5747L105.928 28.8031L105.672 29.2504L105.457 29.8749L105.378 30.3642L105.415 31.1657L105.634 31.9299L105.937 32.4705L106.343 32.9132L106.604 33.0716L107.037 33.2021L107.433 33.2254L107.815 33.1788L108.221 33.0204L108.393 32.9085L108.668 32.6196L109.031 31.9998L109.25 31.2263L109.283 30.8395L109.232 30.0566L109.036 29.4135L108.738 28.859L108.556 28.6213L108.253 28.3557L108.071 28.2532L107.866 28.1786L107.638 28.132Z" fill="#FFDD59"/>
<path d="M110.821 29.2504L111.245 27.8105H111.473L111.566 27.8291L111.636 27.8711L111.725 27.9037L112.214 27.9643H114.642L115.052 27.9037L115.141 27.8804L115.294 27.8152L115.569 27.8105L115.989 29.2458L115.658 29.2504C115.63 29.2442 115.608 29.2271 115.593 29.1992L115.569 29.12L115.369 28.7565L115.159 28.5142L115.099 28.4676L114.959 28.379L114.791 28.3231L114.605 28.2858L113.934 28.2765L113.943 32.6336L113.971 32.834L114.022 33.0064L114.064 33.0763L114.125 33.1276L114.199 33.1648L114.376 33.2114L114.586 33.2254L114.591 33.5376H112.219L112.224 33.2254L112.391 33.2161L112.578 33.1788L112.657 33.1415L112.722 33.0949L112.773 33.0344L112.806 32.9598L112.853 32.7827L112.876 32.5777V28.2765L112.27 28.2858L112.06 28.3138L111.888 28.3697L111.739 28.4443L111.566 28.6027L111.333 28.9336L111.198 29.2458L110.821 29.2504Z" fill="#FFDD59"/>
<path d="M119.307 27.8944L119.316 27.8105H122.005L122.513 27.8804L122.722 27.955L122.974 28.0808L123.133 28.2113L123.268 28.3604L123.338 28.4862L123.394 28.6167L123.449 28.8497L123.463 29.1246L123.445 29.2924L123.324 29.6465L123.207 29.8143L122.965 30.0566L122.681 30.2477L122.345 30.3875L122.359 30.4015L122.746 30.49L123.216 30.6904L123.496 30.8861L123.631 31.0352L123.757 31.2915L123.822 31.5152L123.85 31.7668L123.846 32.135L123.804 32.382L123.734 32.5917L123.641 32.7874L123.366 33.0856L123.193 33.1928L122.718 33.3885L122 33.5237L119.33 33.5376C119.314 33.5159 119.307 33.4895 119.307 33.4584L119.316 33.2161L119.53 33.2068L119.61 33.1881L119.749 33.1415L119.857 33.0577L119.922 32.9318L119.973 32.6942L119.992 32.4332L119.973 28.6633L119.922 28.4303L119.857 28.3045L119.81 28.2579L119.745 28.2252L119.61 28.1693L119.307 28.1414V27.8944ZM121.516 28.2252H121.059V30.2989H121.199L121.571 30.2477L121.893 30.1265L122.089 30.0147L122.196 29.9075L122.289 29.7817L122.35 29.6279L122.392 29.4555L122.41 29.2598L122.392 28.9569L122.373 28.8683L122.317 28.7099L122.275 28.64L122.182 28.5188L121.996 28.3837L121.856 28.3091L121.693 28.2579L121.516 28.2252ZM121.352 30.6764L121.059 30.6904V32.4425L121.082 32.6988L121.133 32.9085L121.18 32.9878L121.25 33.053L121.338 33.0949L121.562 33.1276H121.693L121.926 33.0996L122.117 33.0344L122.289 32.9505L122.364 32.8899L122.489 32.7641L122.55 32.6849L122.681 32.4332L122.713 32.3307L122.75 32.1117L122.76 31.9905L122.713 31.5199L122.648 31.3241L122.555 31.1517L122.499 31.0818L122.364 30.9607L122.196 30.8628L121.921 30.751L121.352 30.6764Z" fill="#FFDD59"/>
<path d="M127.904 31.3614H126.25L125.891 32.3027C125.888 32.3089 125.885 32.3152 125.882 32.3214C125.879 32.3307 125.877 32.3416 125.877 32.354C125.856 32.4068 125.832 32.4627 125.807 32.5218C125.783 32.5839 125.767 32.6445 125.761 32.7035C125.758 32.7252 125.755 32.7485 125.751 32.7734C125.748 32.7951 125.747 32.8184 125.747 32.8433C125.747 32.9862 125.795 33.0794 125.891 33.1229C125.988 33.1664 126.093 33.1912 126.208 33.1975C126.227 33.2037 126.241 33.2068 126.25 33.2068C126.263 33.2068 126.278 33.2068 126.297 33.2068C126.306 33.2068 126.317 33.2083 126.329 33.2114C126.342 33.2145 126.354 33.2161 126.367 33.2161V33.5376C126.186 33.519 126.006 33.5066 125.826 33.5004C125.646 33.4941 125.466 33.491 125.285 33.491C125.124 33.491 124.961 33.4941 124.796 33.5004C124.628 33.5066 124.467 33.519 124.312 33.5376L124.302 33.2161C124.383 33.2099 124.464 33.1975 124.545 33.1788C124.622 33.1633 124.692 33.126 124.754 33.067C124.801 33.0266 124.849 32.9691 124.899 32.8946C124.948 32.8231 124.998 32.7408 125.048 32.6476C125.094 32.5637 125.139 32.4736 125.183 32.3773C125.226 32.281 125.268 32.1831 125.309 32.0837C125.386 31.9097 125.456 31.7435 125.518 31.5851C125.584 31.4235 125.637 31.2931 125.677 31.1937L126.409 29.4322C126.517 29.1774 126.621 28.9196 126.721 28.6586C126.82 28.3945 126.916 28.132 127.01 27.8711L127.727 27.5589C127.821 27.8602 127.917 28.1631 128.016 28.4676C128.116 28.7689 128.214 29.0702 128.31 29.3716L129.046 31.5012C129.071 31.5944 129.104 31.7047 129.144 31.8321C129.181 31.9594 129.223 32.093 129.27 32.2328C129.351 32.4689 129.459 32.6895 129.596 32.8946C129.733 33.1027 129.914 33.2099 130.141 33.2161V33.5376C130.042 33.5314 129.944 33.5252 129.848 33.519C129.751 33.5128 129.655 33.5066 129.559 33.5004C129.456 33.5004 129.358 33.4988 129.265 33.4957C129.169 33.4926 129.073 33.491 128.976 33.491C128.871 33.491 128.765 33.4926 128.659 33.4957C128.554 33.4988 128.453 33.5004 128.356 33.5004C128.251 33.5066 128.147 33.5128 128.044 33.519C127.939 33.5252 127.833 33.5314 127.727 33.5376V33.2161C127.752 33.2161 127.775 33.2161 127.797 33.2161C127.822 33.2161 127.845 33.2161 127.867 33.2161C127.979 33.2099 128.08 33.185 128.17 33.1415C128.26 33.098 128.305 33.0095 128.305 32.8759C128.305 32.7827 128.293 32.6895 128.268 32.5963C128.246 32.5031 128.223 32.413 128.198 32.326C128.192 32.3043 128.187 32.2825 128.184 32.2608C128.178 32.2422 128.172 32.2235 128.165 32.2049L127.904 31.3614ZM127.727 30.8908L127.154 28.9802L126.427 30.8908H127.727Z" fill="#FFDD59"/>
<path d="M130.286 28.0482V27.8245H132.658V28.1414L132.49 28.146L132.308 28.188L132.229 28.2252L132.164 28.2718L132.117 28.3324L132.075 28.407L132.047 28.4862L132.015 28.7891L132.019 32.5823L132.047 32.7781L132.108 32.9738H133.869C133.897 32.9738 133.919 32.9598 133.934 32.9318L133.958 32.834L133.986 32.5357V28.7705L133.958 28.5468L133.906 28.3744L133.865 28.2998L133.809 28.2485L133.734 28.2066L133.655 28.1786L133.352 28.1414L133.333 28.0435L133.343 27.8245H135.733V28.1414L135.579 28.146L135.393 28.1833L135.253 28.2625L135.197 28.3184L135.155 28.3883L135.104 28.5654L135.081 28.859L135.085 32.5451L135.113 32.7641L135.179 32.9738H136.996L137.061 32.5544L137.071 28.8823L137.047 28.654L136.987 28.3837L136.949 28.3138L136.889 28.2532L136.828 28.2159L136.651 28.16L136.409 28.1414V27.8431L136.507 27.8245H138.781V28.1414L138.627 28.146L138.441 28.1833L138.366 28.2206L138.301 28.2625L138.245 28.3231L138.208 28.393L138.156 28.5654L138.138 28.7518V32.4425L138.166 32.7641L138.189 32.8573L138.254 33.0157L138.301 33.0763L138.366 33.1276L138.441 33.1602L138.627 33.2021L138.795 33.2068V33.5376H130.295C130.279 33.5097 130.272 33.4771 130.272 33.4398V33.2161L130.579 33.1835L130.668 33.1602L130.747 33.1276L130.808 33.0763L130.859 33.0157L130.887 32.9318L130.943 32.4332L130.933 28.7472L130.905 28.5468L130.859 28.3744L130.817 28.3045L130.761 28.2485L130.691 28.2066L130.607 28.1786L130.309 28.1414C130.293 28.1165 130.286 28.0854 130.286 28.0482Z" fill="#FFDD59"/>
<path d="M139.349 28.1227V27.7919H143.501L143.511 27.8105L143.623 29.1899L143.268 29.2271L143.259 29.2085L143.147 28.7891L143.021 28.5468L142.91 28.4256L142.816 28.365L142.658 28.2998L142.201 28.2252L141.376 28.2159L141.246 28.2299L141.148 28.2858L141.116 28.3278L141.088 28.4536L141.078 30.3409L141.116 30.3595L141.95 29.9774L142.192 29.9168L142.406 29.9355L142.518 29.9681L142.677 30.038L142.849 30.1731L142.882 30.2151L142.97 30.3549L143.031 30.5273V30.6717L143.007 30.8022L142.966 30.9047L142.896 31.0026L142.742 31.1471L142.607 31.2263L142.583 31.175L142.607 31.1284L142.695 31.0632L142.812 30.9513L142.835 30.9001L142.858 30.7976L142.826 30.7323L142.779 30.709L142.658 30.6811H142.579L141.376 31.1517L141.078 31.2356V32.2934L141.111 32.5684L141.176 32.806L141.195 32.8619L141.26 32.9458L141.349 33.0111L141.46 33.0577L141.582 33.081L142.313 33.0763L142.905 32.9831L143.129 32.9039L143.268 32.8153L143.446 32.615L143.613 32.3307L143.753 32.0092C143.753 31.9905 143.764 31.9781 143.786 31.9719L144.112 32.0604L143.79 33.3792L143.772 33.5143L143.716 33.5376H139.349V33.2767L139.363 33.2161L139.582 33.1975L139.708 33.1695L139.811 33.1229L139.89 33.053L139.955 32.8946L139.997 32.7082L140.02 32.3493L140.006 30.8395L139.909 30.7137L139.829 30.5692L139.787 30.4574L139.75 30.257L139.745 30.1172L139.778 29.9215L139.829 29.8143L139.89 29.7304L140.006 29.6186V29.2411L140.02 28.9475L140.002 28.6633L139.927 28.3604L139.867 28.2625L139.829 28.2299L139.727 28.1786L139.606 28.1507L139.349 28.1227ZM140.006 30.3688L140.002 29.7724L139.913 29.8935L139.885 29.9681L139.867 30.0473L139.862 30.1452L139.876 30.2384L139.899 30.3129L139.937 30.3688L139.988 30.4248L140.006 30.3688Z" fill="#FFDD59"/>
<path d="M144.82 27.8198L144.825 27.8105H146.405L147.136 29.4089L147.174 29.4788L148.366 31.9299L148.39 31.9579L150.314 27.8105L151.517 27.8385L151.899 27.8105L151.903 28.1414L151.638 28.1553L151.456 28.188L151.307 28.2625L151.265 28.3231L151.228 28.4023L151.186 28.5841L151.162 28.8916L151.274 32.5311L151.316 32.8153L151.372 32.9878L151.414 33.0483L151.47 33.0996L151.545 33.1369L151.717 33.1881L151.955 33.2208V33.5376H149.545V33.2161L149.862 33.1648L150.016 33.0996L150.081 33.0483L150.123 32.9878L150.151 32.9039L150.17 32.8107L150.193 31.9672L150.189 29.4322L148.222 33.5376H148.003L147.952 33.4724L146.009 29.4508L145.995 29.5021L145.906 32.7035L145.976 32.9598L146.018 33.0297L146.069 33.0856L146.214 33.1648L146.395 33.2068L146.502 33.2114C146.534 33.2114 146.552 33.2285 146.558 33.2627V33.5376L145.104 33.5004L144.648 33.5376V33.2161H144.727L144.913 33.1835L144.993 33.1555L145.063 33.1136L145.123 33.0577L145.235 32.8386L145.254 32.7548L145.487 29.0128L145.482 28.5747L145.431 28.407L145.333 28.2858L145.193 28.2019L145.016 28.16L144.82 28.132V27.8198Z" fill="#FFDD59"/>
<path d="M155.063 30.3735L155.692 29.0128C155.701 28.9941 155.709 28.977 155.715 28.9615C155.722 28.9491 155.728 28.9367 155.734 28.9242C155.756 28.8776 155.777 28.8295 155.799 28.7798C155.824 28.7301 155.843 28.6788 155.855 28.626C155.861 28.5949 155.869 28.5623 155.878 28.5281C155.885 28.494 155.888 28.4613 155.888 28.4303C155.888 28.3184 155.836 28.2454 155.734 28.2113C155.635 28.1802 155.524 28.1647 155.403 28.1647C155.394 28.1647 155.383 28.1647 155.37 28.1647C155.361 28.1647 155.353 28.1647 155.347 28.1647V27.8291C155.518 27.8416 155.69 27.8509 155.864 27.8571C156.038 27.8602 156.217 27.8618 156.4 27.8618C156.565 27.8618 156.727 27.8602 156.885 27.8571C157.043 27.8509 157.203 27.8416 157.365 27.8291V28.1647C157.104 28.1709 156.899 28.247 156.75 28.393C156.604 28.5421 156.484 28.7037 156.391 28.8776C156.382 28.9025 156.371 28.9242 156.358 28.9429C156.349 28.9615 156.34 28.9786 156.33 28.9941L155.012 31.5665C154.953 31.6721 154.892 31.7917 154.83 31.9253C154.768 32.0558 154.701 32.1893 154.63 32.326C154.462 32.6243 154.257 32.9008 154.014 33.1555C153.772 33.4103 153.452 33.5376 153.054 33.5376C152.902 33.5376 152.766 33.5035 152.644 33.4351C152.523 33.3668 152.455 33.2674 152.439 33.1369C152.439 32.9008 152.523 32.7579 152.691 32.7082C152.856 32.6584 153.061 32.6336 153.306 32.6336C153.502 32.6336 153.682 32.5777 153.847 32.4658C154.014 32.3571 154.145 32.222 154.238 32.0604C154.275 31.9921 154.31 31.9237 154.341 31.8554C154.372 31.787 154.4 31.7233 154.424 31.6643L153.036 28.845C153.03 28.8326 153.023 28.8217 153.017 28.8124C153.014 28.8031 153.012 28.7953 153.012 28.7891C152.935 28.6431 152.843 28.5079 152.738 28.3837C152.632 28.2625 152.475 28.1895 152.267 28.1647L152.253 27.8291C152.355 27.8353 152.46 27.8416 152.565 27.8478C152.668 27.8509 152.775 27.8524 152.887 27.8524C152.986 27.8586 153.089 27.8618 153.194 27.8618C153.297 27.8618 153.399 27.8618 153.502 27.8618C153.71 27.8618 153.92 27.8602 154.131 27.8571C154.342 27.8509 154.547 27.8416 154.746 27.8291V28.1647C154.74 28.1647 154.735 28.1647 154.732 28.1647C154.729 28.1647 154.724 28.1647 154.718 28.1647C154.603 28.1647 154.496 28.1786 154.397 28.2066C154.3 28.2377 154.247 28.3091 154.238 28.421C154.238 28.4613 154.241 28.5002 154.247 28.5375C154.257 28.5778 154.272 28.6182 154.294 28.6586C154.3 28.6835 154.31 28.7068 154.322 28.7285C154.331 28.7534 154.344 28.7798 154.359 28.8077L155.063 30.3735Z" fill="#FFDD59"/>
<path d="M162.757 27.8897L163.274 27.8198L163.838 27.8571L165.478 28.2439L165.683 28.2532L165.804 28.2299L165.883 28.1926L165.907 28.1646L165.893 28.1041L165.841 28.0435L165.772 27.9922L165.543 27.8711C165.553 27.8431 165.571 27.8291 165.599 27.8291L165.855 27.9316L166 28.0295L166.102 28.1646L166.14 28.2532L166.135 28.3277L166.093 28.4442L165.991 28.5747L165.851 28.6772L165.767 28.7192L165.501 28.8077C165.48 28.8233 165.466 28.8481 165.459 28.8823L165.445 32.4425L165.473 32.7734L165.52 32.9598L165.562 33.039L165.622 33.0996L165.702 33.1369L165.851 33.1788V33.0856H166.163L166.172 34.3624L166.154 34.3764L165.851 34.3671L165.841 33.752L165.814 33.6401L165.758 33.5796L165.683 33.533L165.585 33.5143H161.06L160.972 33.5469L160.916 33.6122L160.879 33.6914V34.3671L160.566 34.3764L160.557 33.0856L161.209 33.0483L161.494 32.9738L161.745 32.8712L162.095 32.6289L162.211 32.5124L162.337 32.2794L162.398 32.0977L162.482 30.8721L162.468 29.1572L162.23 29.092L162.062 29.0221L161.997 28.9708L161.936 28.9102L161.885 28.8357L161.853 28.7565L161.839 28.6446L161.857 28.5374L161.885 28.4489L161.978 28.3044L162.099 28.1926L162.323 28.0528L162.757 27.8897ZM162.151 28.4536L162.067 28.5141L162.006 28.5887L161.988 28.7052L162.016 28.8124L162.076 28.8963L162.239 28.9988L162.449 29.0687L162.468 29.05L162.444 28.8357L162.384 28.626L162.328 28.5468L162.249 28.4908C162.221 28.4753 162.188 28.4629 162.151 28.4536ZM164.322 28.7099L163.642 28.5048L163.581 28.5607L163.544 28.6353L163.493 28.8077L163.432 30.97L163.325 31.4266L163.05 32.0418L162.519 32.7361L162.011 33.1974L163.926 33.1928L164.122 33.1648L164.271 33.0949L164.322 33.039L164.397 32.8899L164.42 32.8013L164.443 32.601L164.434 29.0454L164.392 28.7565C164.377 28.7316 164.353 28.7161 164.322 28.7099Z" fill="#FFDD59"/>
<path d="M168.978 27.7732L169.691 27.7453L170.404 27.8711L170.93 28.0948L171.322 28.3557L171.662 28.6679L171.993 29.0873L172.216 29.5161L172.389 30.1871L172.403 30.8115L172.286 31.5478L172.044 32.1396L171.778 32.5311L171.345 32.9365L170.762 33.2907L170.133 33.5004L169.388 33.5982L168.675 33.5563L168.516 33.5283L168.088 33.3978L167.542 33.1043L167.039 32.6709L166.578 32.0092L166.363 31.3801L166.335 31.2216L166.293 30.6112L166.359 30.0147L166.513 29.5114L166.82 28.9802L167.225 28.5514L167.724 28.2019L168.297 27.9317L168.978 27.7732ZM169.756 28.2252L169.378 28.188L169.117 28.2019L168.777 28.2812L168.404 28.4536L168.246 28.5747L167.985 28.8637L167.608 29.5953L167.472 30.1452L167.449 30.928L167.556 31.5105L167.789 32.1024L168.06 32.5311L168.321 32.8153L168.479 32.9318L168.651 33.0297L169.08 33.1555L169.602 33.1648L170.045 33.0623L170.399 32.8666L170.669 32.587L170.981 32.0604L171.191 31.45L171.27 30.5879L171.186 29.9634L171.098 29.6372L170.93 29.2504L170.604 28.7472L170.408 28.5375L170.161 28.365L169.97 28.2812L169.756 28.2252Z" fill="#FFDD59"/>
<path d="M172.817 27.8198L172.822 27.8105H174.402L175.134 29.4089L175.171 29.4788L176.364 31.9299L176.387 31.9579L178.312 27.8105L179.514 27.8385L179.896 27.8105L179.901 28.1414L179.635 28.1553L179.453 28.188L179.304 28.2625L179.262 28.3231L179.225 28.4023L179.183 28.5841L179.164 28.8916L179.272 32.5311L179.314 32.8153L179.369 32.9878L179.411 33.0483L179.467 33.0996L179.547 33.1369L179.714 33.1881L179.952 33.2208V33.5376H177.543V33.2161L177.86 33.1648L178.013 33.0996L178.079 33.0483L178.121 32.9878L178.149 32.9039L178.167 32.8107L178.19 31.9672L178.186 29.4322L176.219 33.5376H176L175.949 33.4724L174.006 29.4508L173.992 29.5021L173.903 32.7035L173.973 32.9598L174.015 33.0297L174.066 33.0856L174.211 33.1648L174.393 33.2068L174.5 33.2114C174.531 33.2114 174.549 33.2285 174.556 33.2627V33.5376L173.102 33.5004L172.65 33.5376V33.2161H172.724L172.911 33.1835L172.99 33.1555L173.06 33.1136L173.12 33.0577L173.232 32.8386L173.251 32.7548L173.484 29.0128L173.479 28.5747L173.428 28.407L173.33 28.2858L173.19 28.2019L173.013 28.16L172.817 28.132V27.8198Z" fill="#FFDD59"/>
<path d="M183.06 30.3735L183.694 29.0128C183.7 28.9941 183.706 28.977 183.713 28.9615C183.719 28.9491 183.725 28.9367 183.731 28.9242C183.753 28.8776 183.775 28.8295 183.796 28.7798C183.821 28.7301 183.84 28.6788 183.852 28.626C183.862 28.5949 183.869 28.5623 183.876 28.5281C183.882 28.494 183.885 28.4613 183.885 28.4303C183.885 28.3184 183.834 28.2454 183.731 28.2113C183.632 28.1802 183.522 28.1647 183.4 28.1647C183.391 28.1647 183.382 28.1647 183.372 28.1647C183.36 28.1647 183.351 28.1647 183.344 28.1647V27.8291C183.515 27.8416 183.689 27.8509 183.866 27.8571C184.04 27.8602 184.217 27.8618 184.398 27.8618C184.562 27.8618 184.724 27.8602 184.882 27.8571C185.044 27.8509 185.204 27.8416 185.362 27.8291V28.1647C185.101 28.1709 184.896 28.247 184.747 28.393C184.601 28.5421 184.481 28.7037 184.388 28.8776C184.379 28.9025 184.368 28.9242 184.356 28.9429C184.346 28.9615 184.337 28.9786 184.328 28.9941L183.009 31.5665C182.95 31.6721 182.889 31.7917 182.827 31.9253C182.768 32.0558 182.701 32.1893 182.627 32.326C182.459 32.6243 182.254 32.9008 182.012 33.1555C181.769 33.4103 181.451 33.5376 181.056 33.5376C180.901 33.5376 180.763 33.5035 180.642 33.4351C180.52 33.3668 180.452 33.2674 180.437 33.1369C180.437 32.9008 180.52 32.7579 180.688 32.7082C180.853 32.6584 181.058 32.6336 181.303 32.6336C181.499 32.6336 181.679 32.5777 181.844 32.4658C182.012 32.3571 182.142 32.222 182.235 32.0604C182.273 31.9921 182.307 31.9237 182.338 31.8554C182.369 31.787 182.397 31.7233 182.422 31.6643L181.033 28.845C181.027 28.8326 181.021 28.8217 181.014 28.8124C181.011 28.8031 181.01 28.7953 181.01 28.7891C180.932 28.6431 180.84 28.5079 180.735 28.3837C180.629 28.2625 180.472 28.1895 180.264 28.1647L180.25 27.8291C180.353 27.8353 180.457 27.8416 180.562 27.8478C180.665 27.8509 180.772 27.8524 180.884 27.8524C180.983 27.8586 181.086 27.8618 181.192 27.8618C181.294 27.8618 181.397 27.8618 181.499 27.8618C181.707 27.8618 181.917 27.8602 182.128 27.8571C182.339 27.8509 182.546 27.8416 182.748 27.8291V28.1647C182.742 28.1647 182.736 28.1647 182.729 28.1647C182.726 28.1647 182.722 28.1647 182.715 28.1647C182.6 28.1647 182.493 28.1786 182.394 28.2066C182.297 28.2377 182.245 28.3091 182.235 28.421C182.235 28.4613 182.24 28.5002 182.249 28.5375C182.256 28.5778 182.27 28.6182 182.291 28.6586C182.301 28.6835 182.31 28.7068 182.319 28.7285C182.329 28.7534 182.341 28.7798 182.357 28.8077L183.06 30.3735Z" fill="#FFDD59"/>
<defs>
<linearGradient id="paint0_linear_301_2" x1="0.924377" y1="0.43808" x2="51.6916" y2="50.7554" gradientUnits="userSpaceOnUse">
<stop stop-color="#FBB040"/>
<stop offset="1" stop-color="#F9ED32"/>
</linearGradient>
</defs>
</svg>
