<svg width="113" height="113" viewBox="0 0 113 113" fill="none" xmlns="http://www.w3.org/2000/svg">
<path d="M19.8791 91.2952H17.1448V93.5022H19.8791V91.2952Z" fill="#EDB40D"/>
<path d="M75.507 64.4536H44.0029V66.6606H75.507V64.4536Z" fill="#EDB40D"/>
<path d="M41.7774 64.4536H39.2532V66.6606H41.7774V64.4536Z" fill="#EDB40D"/>
<path d="M59.864 76.0513H39.2532V78.2583H59.864V76.0513Z" fill="#EDB40D"/>
<path d="M75.5069 70.2527H71.4409V72.4597H75.5069V70.2527Z" fill="#EDB40D"/>
<path d="M68.597 70.2527H39.2532V72.4597H68.597V70.2527Z" fill="#EDB40D"/>
<path d="M90.7717 65.5571H88.5647V73.577H90.7717V65.5571Z" fill="#EDB40D"/>
<path d="M90.7716 51.1714H10.6785V89.2718H74.9461V87.0648H12.8855V53.3784H88.5646V62.3513H90.7716V51.1714Z" fill="#EDB40D"/>
<path d="M13.3619 38.1143L14.7402 44.5602L16.8985 44.0987L15.9817 39.8109L98.7056 22.1175L104.404 48.7588L95.1267 50.7434V46.9409H66.3764L85.3414 42.8851L84.8797 40.7268L55.823 46.9409H22.1719L21.3271 42.9934L95.3311 27.1648L97.2079 35.9402L99.3664 35.4785L97.0278 24.5451L18.7073 41.2969L19.915 46.9409H6.11646V93.5022H14.2004V91.2952H8.32349V49.1479H92.9197V76.3902H79.2619V86.4902H81.4689V78.5972H91.5151L79.8801 91.2952H22.7182V93.5022H80.8512L95.1267 77.9228V53.0001L103.465 51.2166L96.512 62.8353L98.4057 63.9686L106.884 49.801L100.402 19.4978L13.3619 38.1143Z" fill="#EDB40D"/>
<path d="M101.71 46.4555L100.033 38.613L97.8742 39.0746L99.5512 46.917L101.71 46.4555Z" fill="#EDB40D"/>
<path d="M25.8081 69.1202H25.731V64.5057H30.2813V62.2987H25.731V57.8396H23.524V62.2985H23.4178C20.887 62.2985 18.8277 64.3236 18.8277 66.8125C18.8277 69.3018 20.887 71.327 23.4178 71.327H23.524V76.242H18.791V78.4491H23.524V82.6034H25.731V78.4491H25.8081C28.4238 78.4491 30.5516 76.3566 30.5516 73.7845C30.5516 71.2124 28.4236 69.1202 25.8081 69.1202ZM23.4176 69.1202C22.1035 69.1202 21.0345 68.0853 21.0345 66.8127C21.0345 65.5406 22.1035 64.5057 23.4176 64.5057H23.5238V69.1202H23.4176ZM25.8081 76.242H25.731V71.327H25.8081C27.2066 71.327 28.3446 72.4294 28.3446 73.7845C28.3446 75.1396 27.2064 76.242 25.8081 76.242Z" fill="#EDB40D"/>
</svg>
