<svg width="134" height="134" viewBox="0 0 134 134" fill="none" xmlns="http://www.w3.org/2000/svg">
<path d="M100.118 101.131H33.9606C33.5442 101.131 33.1447 100.965 32.8502 100.671C32.5558 100.376 32.3903 99.9768 32.3903 99.5604C32.3653 91.8022 34.9707 84.2647 39.7813 78.1779C44.2295 72.5052 50.3363 68.3612 57.251 66.3231C64.1656 64.285 71.5438 64.4543 78.3577 66.8075C85.1716 69.1607 91.0818 73.5805 95.2651 79.4514C99.4484 85.3222 101.696 92.3516 101.696 99.5604C101.696 99.7673 101.655 99.9721 101.576 100.163C101.496 100.354 101.38 100.528 101.233 100.674C101.087 100.819 100.913 100.935 100.721 101.013C100.53 101.092 100.325 101.132 100.118 101.131ZM35.5702 97.9901H98.5083C98.1926 91.5739 95.9229 85.4076 92.0036 80.3179C88.0842 75.2281 82.7026 71.4582 76.5801 69.5135C70.4576 67.5688 63.8869 67.5424 57.7489 69.4376C51.6109 71.3329 46.199 75.0593 42.2388 80.1173C38.2012 85.2307 35.8689 91.4816 35.5702 97.9901Z" fill="#EDB40D"/>
<path d="M67.0391 66.8743C63.6745 66.8743 60.3854 65.8766 57.5879 64.0073C54.7903 62.138 52.6099 59.4811 51.3223 56.3727C50.0347 53.2642 49.6978 49.8437 50.3542 46.5437C51.0106 43.2438 52.6308 40.2126 55.01 37.8335C57.3891 35.4543 60.4203 33.8341 63.7203 33.1777C67.0202 32.5213 70.4407 32.8582 73.5492 34.1458C76.6577 35.4334 79.3145 37.6138 81.1838 40.4113C83.0531 43.2089 84.0508 46.498 84.0508 49.8626C84.0508 54.3743 82.2585 58.7013 79.0682 61.8917C75.8779 65.082 71.5509 66.8743 67.0391 66.8743ZM67.0391 36.0098C64.2956 36.0098 61.6138 36.8233 59.3327 38.3475C57.0516 39.8717 55.2737 42.038 54.2239 44.5726C53.174 47.1073 52.8993 49.8963 53.4345 52.587C53.9697 55.2777 55.2908 57.7493 57.2307 59.6892C59.1706 61.6291 61.6422 62.9502 64.333 63.4854C67.0237 64.0207 69.8127 63.746 72.3473 62.6961C74.8819 61.6462 77.0483 59.8683 78.5725 57.5872C80.0966 55.3062 80.9102 52.6243 80.9102 49.8809C80.9102 46.202 79.4487 42.6739 76.8474 40.0725C74.2461 37.4712 70.7179 36.0098 67.0391 36.0098Z" fill="#EDB40D"/>
<path d="M41.0086 80.7192H17.9145C17.4981 80.7192 17.0987 80.5538 16.8042 80.2593C16.5097 79.9648 16.3442 79.5654 16.3442 79.1489C16.3482 74.044 18.0151 69.0793 21.0926 65.0064C24.1701 60.9334 28.4907 57.9739 33.4004 56.5758C38.3102 55.1777 43.5417 55.4172 48.3032 57.2579C53.0647 59.0986 57.0969 62.4404 59.7896 66.7775C59.9209 66.9861 60.0014 67.2227 60.0243 67.4682C60.0473 67.7137 60.0121 67.9611 59.9216 68.1905C59.8311 68.4199 59.6879 68.6247 59.5036 68.7884C59.3192 68.9522 59.0989 69.0702 58.8604 69.1329C52.2821 70.9161 46.4529 74.7704 42.2361 80.1251C42.0893 80.31 41.9027 80.4595 41.6902 80.5624C41.4777 80.6652 41.2447 80.7188 41.0086 80.7192ZM19.5477 77.5786H40.2575C44.3835 72.5745 49.8207 68.8173 55.9606 66.7277C53.4503 63.4655 50.0098 61.0413 46.0931 59.7752C42.1764 58.5091 37.9679 58.4605 34.023 59.636C30.0782 60.8114 26.5826 63.1556 23.9978 66.359C21.4129 69.5624 19.8604 73.4745 19.5451 77.5786H19.5477Z" fill="#EDB40D"/>
<path d="M39.8308 58.0203C37.4976 58.0208 35.2166 57.3294 33.2765 56.0334C31.3363 54.7375 29.824 52.8953 28.9309 50.7398C28.0378 48.5844 27.8039 46.2124 28.259 43.924C28.7141 41.6357 29.8375 39.5336 31.4873 37.8838C33.1372 36.234 35.2392 35.1105 37.5276 34.6555C39.8159 34.2004 42.1879 34.4342 44.3434 35.3274C46.4988 36.2205 48.341 37.7327 49.637 39.6729C50.9329 41.6131 51.6243 43.8941 51.6238 46.2272C51.6203 49.3539 50.3768 52.3515 48.1659 54.5624C45.955 56.7732 42.9574 58.0168 39.8308 58.0203ZM39.8308 37.5722C38.1188 37.5717 36.4452 38.0789 35.0216 39.0296C33.5979 39.9803 32.4882 41.3318 31.8327 42.9133C31.1772 44.4947 31.0054 46.2351 31.3391 47.9141C31.6727 49.5932 32.4969 51.1357 33.7072 52.3463C34.9175 53.557 36.4597 54.3816 38.1387 54.7158C39.8176 55.05 41.558 54.8787 43.1397 54.2237C44.7213 53.5687 46.0732 52.4594 47.0244 51.036C47.9755 49.6126 48.4832 47.9392 48.4832 46.2272C48.4811 43.9329 47.5689 41.733 45.9468 40.1104C44.3247 38.4878 42.1251 37.575 39.8308 37.5722Z" fill="#EDB40D"/>
<path d="M116.085 80.3764H92.7922C92.5579 80.3765 92.3265 80.3241 92.115 80.2231C91.9035 80.1221 91.7173 79.9751 91.57 79.7927C87.3206 74.5378 81.5033 70.7781 74.9666 69.0623C74.7302 69.0008 74.5115 68.885 74.3277 68.7241C74.144 68.5633 74.0003 68.3618 73.908 68.1356C73.8158 67.9095 73.7776 67.665 73.7964 67.4215C73.8153 67.178 73.8906 66.9422 74.0165 66.733C76.6572 62.3257 80.6702 58.9059 85.4404 56.9977C90.2107 55.0894 95.4751 54.798 100.427 56.1681C105.379 57.5382 109.744 60.4943 112.855 64.5832C115.966 68.6721 117.651 73.6683 117.65 78.8061C117.65 79.2216 117.486 79.6203 117.192 79.9146C116.899 80.2089 116.501 80.375 116.085 80.3764ZM93.5381 77.2357H114.455C114.135 73.1075 112.563 69.1751 109.949 65.9636C107.335 62.7522 103.804 60.4145 99.8267 59.2629C95.8494 58.1112 91.6155 58.2003 87.6901 59.5182C83.7648 60.8361 80.335 63.3202 77.8586 66.6388C83.9598 68.6628 89.385 72.3294 93.5381 77.2357Z" fill="#EDB40D"/>
<path d="M94.169 57.6802C91.836 57.6802 89.5554 56.9884 87.6156 55.6923C85.6759 54.3961 84.164 52.5539 83.2712 50.3985C82.3784 48.2432 82.1448 45.8715 82.5999 43.5833C83.0551 41.2952 84.1785 39.1934 85.8282 37.5437C87.4778 35.8941 89.5796 34.7707 91.8677 34.3155C94.1559 33.8604 96.5276 34.094 98.683 34.9868C100.838 35.8795 102.681 37.3914 103.977 39.3312C105.273 41.271 105.965 43.5516 105.965 45.8845C105.962 49.0121 104.718 52.0107 102.507 54.2223C100.295 56.4338 97.2965 57.6774 94.169 57.6802ZM94.169 37.2295C92.4572 37.2295 90.7838 37.7371 89.3605 38.6881C87.9372 39.6392 86.8278 40.9909 86.1727 42.5724C85.5177 44.1539 85.3463 45.8941 85.6802 47.573C86.0142 49.252 86.8385 50.7941 88.0489 52.0046C89.2593 53.215 90.8015 54.0393 92.4804 54.3733C94.1594 54.7072 95.8996 54.5358 97.4811 53.8807C99.0626 53.2257 100.414 52.1163 101.365 50.693C102.316 49.2697 102.824 47.5963 102.824 45.8845C102.822 43.5897 101.909 41.3895 100.287 39.7668C98.664 38.1441 96.4638 37.2316 94.169 37.2295Z" fill="#EDB40D"/>
</svg>
