<svg width="36" height="36" viewBox="0 0 36 36" fill="none" xmlns="http://www.w3.org/2000/svg">
<path d="M24 31.5V28.5C24 26.9087 23.3679 25.3826 22.2426 24.2574C21.1174 23.1321 19.5913 22.5 18 22.5H7.5C5.9087 22.5 4.38258 23.1321 3.25736 24.2574C2.13214 25.3826 1.5 26.9087 1.5 28.5V31.5" stroke="black" stroke-width="2" stroke-linecap="round" stroke-linejoin="round"/>
<path d="M12.75 16.5C16.0637 16.5 18.75 13.8137 18.75 10.5C18.75 7.18629 16.0637 4.5 12.75 4.5C9.43629 4.5 6.75 7.18629 6.75 10.5C6.75 13.8137 9.43629 16.5 12.75 16.5Z" stroke="black" stroke-width="2" stroke-linecap="round" stroke-linejoin="round"/>
<path d="M25.5 16.5L28.5 19.5L34.5 13.5" stroke="black" stroke-width="2" stroke-linecap="round" stroke-linejoin="round"/>
</svg>
