<svg width="43" height="43" viewBox="0 0 43 43" fill="none" xmlns="http://www.w3.org/2000/svg">
<path d="M40.3125 20.1563C40.0324 20.1545 39.76 20.0652 39.5331 19.901L21.5 7.02783L3.46687 19.901C3.17756 20.0723 2.83453 20.129 2.50549 20.0597C2.17645 19.9905 1.88532 19.8005 1.68957 19.5271C1.49381 19.2537 1.40766 18.9169 1.44812 18.5831C1.48858 18.2493 1.65272 17.9428 1.90812 17.7241L20.7206 4.28658C20.9482 4.12455 21.2206 4.03748 21.5 4.03748C21.7794 4.03748 22.0518 4.12455 22.2794 4.28658L41.0919 17.7241C41.3213 17.8902 41.4924 18.1245 41.5807 18.3936C41.669 18.6627 41.67 18.9529 41.5835 19.2226C41.4971 19.4923 41.3277 19.7278 41.0994 19.8955C40.8711 20.0632 40.5957 20.1545 40.3125 20.1563Z" fill="#101820"/>
<path d="M6.71875 12.0938C6.36237 12.0938 6.02058 11.9522 5.76858 11.7002C5.51657 11.4482 5.375 11.1064 5.375 10.75V5.375C5.375 5.01862 5.51657 4.67683 5.76858 4.42483C6.02058 4.17282 6.36237 4.03125 6.71875 4.03125H12.0938C12.4501 4.03125 12.7919 4.17282 13.0439 4.42483C13.2959 4.67683 13.4375 5.01862 13.4375 5.375C13.4375 5.73138 13.2959 6.07317 13.0439 6.32517C12.7919 6.57718 12.4501 6.71875 12.0938 6.71875H8.0625V10.75C8.0625 11.1064 7.92093 11.4482 7.66892 11.7002C7.41692 11.9522 7.07513 12.0938 6.71875 12.0938Z" fill="#101820"/>
<path d="M33.5938 38.9688H26.875C26.5186 38.9688 26.1768 38.8272 25.9248 38.5752C25.6728 38.3232 25.5312 37.9814 25.5312 37.625V28.2188H17.4688V37.625C17.4688 37.9814 17.3272 38.3232 17.0752 38.5752C16.8232 38.8272 16.4814 38.9688 16.125 38.9688H9.40625C8.3371 38.9688 7.31173 38.544 6.55573 37.788C5.79972 37.032 5.375 36.0067 5.375 34.9375V21.5C5.375 21.1436 5.51657 20.8018 5.76858 20.5498C6.02058 20.2978 6.36237 20.1562 6.71875 20.1562C7.07513 20.1562 7.41692 20.2978 7.66892 20.5498C7.92093 20.8018 8.0625 21.1436 8.0625 21.5V34.9375C8.0625 35.2939 8.20407 35.6357 8.45608 35.8877C8.70808 36.1397 9.04987 36.2812 9.40625 36.2812H14.7812V26.875C14.7812 26.5186 14.9228 26.1768 15.1748 25.9248C15.4268 25.6728 15.7686 25.5312 16.125 25.5312H26.875C27.2314 25.5312 27.5732 25.6728 27.8252 25.9248C28.0772 26.1768 28.2188 26.5186 28.2188 26.875V36.2812H33.5938C33.9501 36.2812 34.2919 36.1397 34.5439 35.8877C34.7959 35.6357 34.9375 35.2939 34.9375 34.9375V21.5C34.9375 21.1436 35.0791 20.8018 35.3311 20.5498C35.5831 20.2978 35.9249 20.1562 36.2812 20.1562C36.6376 20.1562 36.9794 20.2978 37.2314 20.5498C37.4834 20.8018 37.625 21.1436 37.625 21.5V34.9375C37.625 36.0067 37.2003 37.032 36.4443 37.788C35.6883 38.544 34.6629 38.9688 33.5938 38.9688Z" fill="#101820"/>
</svg>
