<svg height="400pt" viewBox="0 0 400 400" width="400pt" xmlns="http://www.w3.org/2000/svg"><path d="m392 144h-32v-128c-.007812-8.832031-7.167969-15.9921875-16-16h-288c-8.832031.0078125-15.992188 7.167969-16 16v128h-32c-4.417969 0-8 3.582031-8 8v64c0 4.417969 3.582031 8 8 8h32v72c0 2.148438.871094 4.207031 2.414062 5.703125-1.570312 3.207031-2.394531 6.726563-2.414062 10.296875v16c.015625 13.25 10.75 23.984375 24 24v24c.015625 13.25 10.75 23.984375 24 24h32c13.25-.015625 23.984375-10.75 24-24v-24h112v24c.015625 13.25 10.75 23.984375 24 24h32c13.25-.015625 23.984375-10.75 24-24v-24c13.25-.015625 23.984375-10.75 24-24v-16c-.019531-3.570312-.84375-7.089844-2.410156-10.296875 1.539062-1.496094 2.410156-3.554687 2.410156-5.703125v-72h32c4.417969 0 8-3.582031 8-8v-64c0-4.417969-3.582031-8-8-8zm-56 144v-51.71875l8-5.332031v57.050781zm-224 0v-24c0-2.121094-.84375-4.15625-2.34375-5.65625l-16-16c-1.5-1.5-3.535156-2.34375-5.65625-2.34375h-8v-136c.015625-13.25 10.75-23.984375 24-24h192c13.25.015625 23.984375 10.75 24 24v136h-8c-2.121094 0-4.15625.84375-5.65625 2.34375l-16 16c-1.5 1.5-2.34375 3.535156-2.34375 5.65625v24zm-56 0v-57.050781l8 5.332031v51.71875zm24-32h4.6875l11.3125 11.3125v20.6875h-16zm224 11.3125 11.3125-11.3125h4.6875v32h-16zm-248-251.3125h288v195.71875l-8 5.332031v-113.050781c-.027344-22.082031-17.917969-39.972656-40-40h-192c-22.082031.027344-39.972656 17.917969-40 40v113.050781l-8-5.332031zm-40 192v-48h24v48zm112 168c-.003906 4.414062-3.585938 7.996094-8 8h-32c-4.414062-.003906-7.996094-3.585938-8-8v-24h48zm192 0c-.003906 4.414062-3.585938 7.996094-8 8h-32c-4.414062-.003906-7.996094-3.585938-8-8v-24h48zm24-48c-.003906 4.414062-3.585938 7.996094-8 8h-272c-4.414062-.003906-7.996094-3.585938-8-8v-16c.003906-4.414062 3.585938-7.996094 8-8h272c4.414062.003906 7.996094 3.585938 8 8zm40-120h-24v-48h24zm0 0"/><path d="m133.144531 224h133.710938c1.089843 0 2.164062-.222656 3.164062-.652344l37.144531-16c2.933594-1.265625 4.835938-4.152344 4.835938-7.347656v-88c.144531-8.675781-6.753906-15.832031-15.429688-16h-193.140624c-8.675782.167969-15.574219 7.324219-15.429688 16v88c0 3.195312 1.902344 6.082031 4.835938 7.347656l37.144531 16c1 .429688 2.074219.652344 3.164062.652344zm-29.714843-112h192.570312v82.734375l-30.792969 13.265625h-24.566406l4.570313-8h22.789062c4.417969 0 8-3.582031 8-8s-3.582031-8-8-8h-48c-4.417969 0-8 3.582031-8 8s3.582031 8 8 8h6.785156l-4.570312 8h-61.574219l4.570313-8h22.789062c4.417969 0 8-3.582031 8-8s-3.582031-8-8-8h-48c-4.417969 0-8 3.582031-8 8s3.582031 8 8 8h6.785156l-4.570312 8h-7.421875l-30.828125-13.28125zm0 0"/><path d="m176 312h-32c-4.417969 0-8 3.582031-8 8s3.582031 8 8 8h32c4.417969 0 8-3.582031 8-8s-3.582031-8-8-8zm0 0"/><path d="m256 312h-32c-4.417969 0-8 3.582031-8 8s3.582031 8 8 8h32c4.417969 0 8-3.582031 8-8s-3.582031-8-8-8zm0 0"/><path d="m264 264h-128c-4.417969 0-8 3.582031-8 8s3.582031 8 8 8h128c4.417969 0 8-3.582031 8-8s-3.582031-8-8-8zm0 0"/><path d="m264 240h-128c-4.417969 0-8 3.582031-8 8s3.582031 8 8 8h128c4.417969 0 8-3.582031 8-8s-3.582031-8-8-8zm0 0"/></svg>