<svg id="Capa_1" enable-background="new 0 0 512 512" height="512" viewBox="0 0 512 512" width="512" xmlns="http://www.w3.org/2000/svg"><g><g id="Page-1_7_"><g id="_x30_08---Organised-Warehouse"><path id="Shape_49_" d="m494.933 0h-25.6c-9.426 0-17.067 7.641-17.067 17.067v170.667h-17.066v-128c0-14.138-11.462-25.6-25.6-25.6h-119.467c-14.138 0-25.6 11.462-25.6 25.6v128h-17.067v-128c0-14.138-11.462-25.6-25.6-25.6h-119.466c-14.138 0-25.6 11.462-25.6 25.6v128h-17.067v-170.667c0-9.426-7.641-17.067-17.066-17.067h-25.6c-9.426 0-17.067 7.641-17.067 17.067v477.867c0 9.425 7.641 17.066 17.067 17.066h25.6c9.426 0 17.067-7.641 17.067-17.067v-17.067h392.533v17.067c0 9.426 7.641 17.067 17.067 17.067h25.6c9.426 0 17.067-7.641 17.067-17.067v-477.866c-.001-9.426-7.642-17.067-17.068-17.067zm-128 51.2v47.889l-6.656-6.656c-5.758-5.738-15.072-5.738-20.83 0l-6.647 6.656v-47.889zm-85.333 8.533c0-4.713 3.821-8.533 8.533-8.533h25.6v53.521c-.004 5.96 3.585 11.335 9.091 13.616s11.844 1.019 16.057-3.197l8.986-8.986 8.986 8.986c4.212 4.216 10.551 5.478 16.057 3.197s9.095-7.656 9.091-13.616v-53.521h25.6c4.713 0 8.533 3.821 8.533 8.533v128h-136.534zm-102.4-8.533v47.889l-6.656-6.656c-5.758-5.738-15.072-5.738-20.83 0l-6.647 6.656v-47.889zm-85.333 8.533c0-4.713 3.821-8.533 8.533-8.533h25.6v53.521c-.004 5.96 3.585 11.335 9.091 13.616s11.844 1.019 16.057-3.197l8.986-8.986 8.986 8.986c4.212 4.216 10.551 5.478 16.057 3.197s9.095-7.656 9.091-13.616v-53.521h25.6c4.713 0 8.533 3.821 8.533 8.533v128h-136.534zm-8.534 145.067h366.933v17.067h-392.533v-17.067zm247.467 85.333h34.133v47.889l-6.656-6.656c-5.758-5.738-15.072-5.738-20.83 0l-6.647 6.656zm-7.979 67.132c5.505 2.296 11.851 1.035 16.06-3.191l8.986-8.986 8.986 8.986c4.212 4.216 10.551 5.478 16.057 3.197s9.095-7.656 9.091-13.616v-53.521h25.6c4.713 0 8.533 3.82 8.533 8.533v128h-136.534v-128c0-4.713 3.821-8.533 8.533-8.533h25.6v53.521c-.013 5.96 3.578 11.338 9.088 13.61zm84.779-84.198h-119.467c-14.138 0-25.6 11.462-25.6 25.6v128h-17.067v-128c0-14.138-11.462-25.6-25.6-25.6h-119.466c-14.138 0-25.6 11.462-25.6 25.6v128h-17.067v-187.734h392.533v187.733h-17.066v-128c0-14.138-11.462-25.599-25.6-25.599zm-264.533 17.066h34.133v47.889l-6.656-6.656c-5.758-5.738-15.072-5.738-20.83 0l-6.647 6.656zm-7.979 67.132c5.505 2.296 11.851 1.035 16.06-3.191l8.986-8.986 8.986 8.986c4.212 4.216 10.551 5.478 16.057 3.197s9.095-7.656 9.091-13.616v-53.521h25.6c4.713 0 8.533 3.82 8.533 8.533v128h-136.534v-128c0-4.713 3.821-8.533 8.533-8.533h25.6v53.521c-.014 5.96 3.577 11.338 9.088 13.61zm-120.021 137.668v-477.866h25.6v477.867h-25.6zm42.666-34.133v-17.067h392.533v17.067zm409.6 34.133v-477.866h25.6v477.867h-25.6z"/><path id="Shape_48_" d="m119.467 136.533c-4.713 0-8.533 3.821-8.533 8.533v17.067c0 4.713 3.821 8.533 8.533 8.533 4.713 0 8.533-3.821 8.533-8.533v-17.067c0-4.712-3.821-8.533-8.533-8.533z"/><path id="Shape_47_" d="m153.6 136.533c-4.713 0-8.533 3.821-8.533 8.533v17.067c0 4.713 3.82 8.533 8.533 8.533s8.533-3.821 8.533-8.533v-17.067c0-4.712-3.82-8.533-8.533-8.533z"/><path id="Shape_46_" d="m307.2 136.533c-4.713 0-8.533 3.821-8.533 8.533v17.067c0 4.713 3.82 8.533 8.533 8.533s8.533-3.821 8.533-8.533v-17.067c0-4.712-3.82-8.533-8.533-8.533z"/><path id="Shape_45_" d="m341.333 136.533c-4.713 0-8.533 3.821-8.533 8.533v17.067c0 4.713 3.82 8.533 8.533 8.533s8.533-3.821 8.533-8.533v-17.067c.001-4.712-3.82-8.533-8.533-8.533z"/><path id="Shape_44_" d="m119.467 375.467c-4.713 0-8.533 3.821-8.533 8.533v17.067c0 4.713 3.821 8.533 8.533 8.533 4.713 0 8.533-3.821 8.533-8.533v-17.067c0-4.713-3.821-8.533-8.533-8.533z"/><path id="Shape_43_" d="m153.6 409.6c4.713 0 8.533-3.821 8.533-8.533v-17.067c0-4.713-3.821-8.533-8.533-8.533s-8.533 3.821-8.533 8.533v17.067c0 4.713 3.82 8.533 8.533 8.533z"/><path id="Shape_42_" d="m307.2 375.467c-4.713 0-8.533 3.821-8.533 8.533v17.067c0 4.713 3.82 8.533 8.533 8.533s8.533-3.821 8.533-8.533v-17.067c0-4.713-3.82-8.533-8.533-8.533z"/><path id="Shape_41_" d="m341.333 409.6c4.713 0 8.533-3.821 8.533-8.533v-17.067c0-4.713-3.821-8.533-8.533-8.533s-8.533 3.82-8.533 8.533v17.067c0 4.713 3.821 8.533 8.533 8.533z"/></g></g></g></svg>