<?xml version="1.0"?>
<svg xmlns="http://www.w3.org/2000/svg" id="Icons" viewBox="0 0 60 60" width="512" height="512"><path d="M60,28a1,1,0,0,0-1-1H47.858a3.981,3.981,0,0,0-7.716,0H29a1,1,0,0,0,0,2h2.277l-3.145,5.5.013.008A.971.971,0,0,0,28,35v.535a8.931,8.931,0,0,0-2.633-.509L22,32.5V29.633a10.122,10.122,0,0,0,5.014-7.762,3.991,3.991,0,0,0,2.971-3.69A38.42,38.42,0,0,0,31,10a12.379,12.379,0,0,0-.22-2.334A5.854,5.854,0,0,0,25.605,3.03a5.146,5.146,0,0,0-1.428-1.361C22.522.562,20.107,0,17,0,11.228,0,9.115,1.957,8.39,3.032A6.03,6.03,0,0,0,5.276,4.3,5.719,5.719,0,0,0,3.218,7.673,12.416,12.416,0,0,0,3,10a38.468,38.468,0,0,0,1.015,8.181,3.926,3.926,0,0,0,3.02,3.662A10.022,10.022,0,0,0,12,29.631V32.5L8.643,35.018A9,9,0,0,0,0,44V56a4,4,0,0,0,4,4H30a4,4,0,0,0,4-4V44a8.964,8.964,0,0,0-.95-4H34a4,4,0,0,0,4-4V35a.971.971,0,0,0-.145-.488l.013-.008L34.723,29h5.419A3.977,3.977,0,0,0,41,30.618V50.142A4,4,0,0,0,38,54v.184A3,3,0,0,0,36,57v1a2,2,0,0,0,2,2H50a2,2,0,0,0,2-2V57a3,3,0,0,0-2-2.816V54a4,4,0,0,0-3-3.858V30.618A3.977,3.977,0,0,0,47.858,29h5.419l-3.145,5.5.013.008A.971.971,0,0,0,50,35v1a4,4,0,0,0,4,4h2a4,4,0,0,0,4-4V35a.971.971,0,0,0-.145-.488l.013-.008L56.723,29H59A1,1,0,0,0,60,28ZM33,30.016,35.277,34H30.723ZM15.509,58,6,44.915l2.381-5.171c.681,3.975,2.593,10.308,7.965,15.009a1,1,0,0,0,1.316,0c5.382-4.709,7.291-11.057,7.969-15.031l2.392,5.149L18.49,58Zm.413-16h2.156l.714,8.673A19.92,19.92,0,0,1,17,52.644a19.938,19.938,0,0,1-1.792-1.973Zm4.661,6.033-.548-6.654.467-.467a1.539,1.539,0,0,0,1.644-.407l1.586-1.692A26.832,26.832,0,0,1,20.583,48.033Zm-2-8.033H15.414L15,39.59l2-2.128,2,2.128ZM13,41a1.543,1.543,0,0,0,.5-.089l.468.468-.547,6.648a26.97,26.97,0,0,1-3.146-9.208l1.592,1.7A1.572,1.572,0,0,0,13,41Zm8-2.2L18.493,36.13,21,34.25l2.507,1.88ZM5.183,8.049A3.7,3.7,0,0,1,6.521,5.864,3.96,3.96,0,0,1,9,5a1.047,1.047,0,0,0,.937-.653C9.947,4.323,10.972,2,17,2c3.369,0,5.157.724,6.067,1.333a2.729,2.729,0,0,1,.985.983A1,1,0,0,0,25,5a3.861,3.861,0,0,1,3.817,3.047A10.475,10.475,0,0,1,29,10a32.755,32.755,0,0,1-.428,4.961,3.983,3.983,0,0,0-1.617-.825A7.208,7.208,0,0,0,21.6,8.061a1.446,1.446,0,0,0-1.58.544A3.483,3.483,0,0,1,17,10a3.493,3.493,0,0,1-3.044-1.423A1.431,1.431,0,0,0,12.4,8.06,7.292,7.292,0,0,0,7,14.125a3.962,3.962,0,0,0-1.578.825A32.743,32.743,0,0,1,5,10,10.437,10.437,0,0,1,5.183,8.049ZM9.028,21.678A1.987,1.987,0,0,0,7.49,19.935,2,2,0,0,1,7.5,16.063a2,2,0,0,0,1.534-1.714A5.137,5.137,0,0,1,12.6,10.1,5.539,5.539,0,0,0,17,12a5.539,5.539,0,0,0,4.4-1.9,5.138,5.138,0,0,1,3.567,4.249A2,2,0,0,0,26.5,16.063a2,2,0,0,1,.009,3.872,1.985,1.985,0,0,0-1.537,1.741,8,8,0,0,1-15.945,0ZM17,31a9.846,9.846,0,0,0,3-.475V32.5l-3,2.25L14,32.5V30.525A9.841,9.841,0,0,0,17,31Zm-4,3.25,2.507,1.88L13,38.8,10.493,36.13ZM2,56V44a7.008,7.008,0,0,1,5.344-6.794L4.178,44.083a1.98,1.98,0,0,0,.184,1.962L13.039,58H4A2,2,0,0,1,2,56Zm30,0a2,2,0,0,1-2,2H20.961l8.693-11.979a1.968,1.968,0,0,0,.166-1.942l-3.161-6.867a6.755,6.755,0,0,1,1.887.77A4.006,4.006,0,0,0,30.5,39.7,6.97,6.97,0,0,1,32,44Zm2-18H32a2,2,0,0,1-2-2h6A2,2,0,0,1,34,38Zm21-7.984L57.277,34H52.723ZM56,38H54a2,2,0,0,1-2-2h6A2,2,0,0,1,56,38ZM43,31.858a3.592,3.592,0,0,0,2,0V50H43ZM44,26a2,2,0,1,1-2,2A2,2,0,0,1,44,26ZM38,58V57a1,1,0,0,1,1-1H49a1,1,0,0,1,1,1l0,1Zm10-4H40a2,2,0,0,1,2-2h4A2,2,0,0,1,48,54Z"/></svg>
