<svg id="Capa_1" enable-background="new 0 0 512 512" height="512" viewBox="0 0 512 512" width="512" xmlns="http://www.w3.org/2000/svg"><g><g><path d="m230.333 337.809h-66.667c-4.142 0-7.5 3.358-7.5 7.5s3.358 7.5 7.5 7.5h66.667c4.142 0 7.5-3.358 7.5-7.5s-3.357-7.5-7.5-7.5z"/><path d="m230.333 369.143h-66.667c-4.142 0-7.5 3.358-7.5 7.5s3.358 7.5 7.5 7.5h66.667c4.142 0 7.5-3.358 7.5-7.5s-3.357-7.5-7.5-7.5z"/><path d="m490.894 289.043h-10.152c-8.128 0-15.185 4.626-18.711 11.376h-7.258c-21.878 0-18.697-29.568-54.903-36.202v-50.964c0-4.142-3.358-7.5-7.5-7.5s-7.5 3.358-7.5 7.5v66.293c0 9.237-7.515 16.752-16.752 16.752h-24.532c-13.606 0-24.675 11.069-24.675 24.675s11.069 24.676 24.675 24.676h36.085c1.802 0 3.558.329 5.2.965v65.782c0 8.094-6.582 15.149-15.149 15.149h-226.887c-8.354 0-15.149-6.796-15.149-15.149v-129.167c10.7.931 33.343.808 52.075.703 12.845 0 23.294-10.45 23.294-23.294 0-4.511-1.289-8.727-3.518-12.298 6.181-4.193 10.25-11.276 10.25-19.291 0-4.375-1.212-8.472-3.318-11.973 6.456-4.146 10.743-11.39 10.743-19.616 0-5.88-2.175-11.262-5.781-15.366 4.211-4.353 6.531-10.064 6.546-16.133 0-.03 0-.061 0-.091 0-12.845-10.45-23.295-23.295-23.295l-60.237-.003c-3.724-.002-6.754-3.034-6.754-6.758-.001-3.702.002 13.413-.006-36.21 0-8.353 6.796-15.149 15.149-15.149h170.467v41.418c0 16.625 13.525 30.149 30.149 30.149h41.418v22.169c0 4.142 3.358 7.5 7.5 7.5s7.5-3.358 7.5-7.5v-23.732c0-6.046-2.497-11.54-6.394-15.438 0 0 0 0-.001-.001l-63.172-63.171c-3.823-3.823-9.288-6.395-15.438-6.395h-172.03c-16.625 0-30.149 13.525-30.149 30.149v19.619c-36.503 6.355-33.642 36.293-55.459 36.293h-7.257c-3.525-6.75-10.582-11.375-18.71-11.375h-10.152c-11.638 0-21.106 9.468-21.106 21.106v91.99c0 11.638 9.468 21.106 21.106 21.106h10.152c8.263 0 15.412-4.784 18.875-11.717h18.443c6.455 0 8.793 2.356 30.087 10.435.118.047.236.091.356.131 4.793 1.634 9.298 2.867 13.666 3.807v131.398c0 16.624 13.525 30.149 30.149 30.149h226.885c11.536 0 21.574-6.516 26.642-16.057 17.357-3.261 23.96-7.798 39.551-13.519 5.845-2.33 8.996-1.092 25.953-1.441 3.463 6.933 10.612 11.717 18.875 11.717h10.152c11.638 0 21.106-9.468 21.106-21.106v-91.99c.002-11.637-9.466-21.106-21.104-21.106zm-162.592-163.171v-30.811c7.2 7.2 38.756 38.755 45.961 45.961h-30.812c-8.353-.001-15.149-6.796-15.149-15.15zm-259.725 125.753h-16.212v-34.062c0-4.142-3.358-7.5-7.5-7.5s-7.5 3.358-7.5 7.5v39.673c0 .21-.011.418-.032.623-.007.041-.013.083-.019.124-.37 3.015-2.942 5.359-6.056 5.359h-10.152c-3.367 0-6.106-2.739-6.106-6.106v-91.99c0-3.367 2.739-6.106 6.106-6.106h10.152c3.367 0 6.106 2.739 6.106 6.106v17.255c0 4.142 3.358 7.5 7.5 7.5s7.5-3.358 7.5-7.5v-11.985h4.861c31.76 0 27.585-29.335 55.465-36.006v1.304c0 11.991 9.755 21.751 21.746 21.758l60.246.003c4.542 0 8.242 3.669 8.294 8.198 0 .039-.001.077-.001.115s0 .076.001.113c-.053 4.537-3.742 8.198-8.297 8.198-.003 0-.006 0-.009 0-.011 0-.022.002-.034.002-.73-.07 3.082-.022-59.138-.036-4.142 0-7.5 3.358-7.5 7.5s3.358 7.5 7.5 7.5c14.283.006 57.698-.023 58.817.03 4.427.209 7.896 3.84 7.896 8.265 0 4.574-3.721 8.294-8.294 8.294-12.643 0-44.894 0-58.418 0-4.142 0-7.5 3.358-7.5 7.5s3.358 7.5 7.5 7.5h50.994c4.574 0 8.294 3.721 8.294 8.295s-3.721 8.294-8.294 8.294c-11.232 0-33.297 0-50.994 0-4.142 0-7.5 3.358-7.5 7.5s3.358 7.5 7.5 7.5h44.261c4.574 0 8.294 3.721 8.294 8.295s-3.721 8.294-8.294 8.294c-42.159.273-56.081.785-75.725-5.878-19.793-7.306-24.771-11.429-35.458-11.429zm361.784 147.41c-18.489 7.078-20.382 8.755-30.491 11.33v-46.809c6.152 5.73 14.298 9.04 23.076 9.04 4.142 0 7.5-3.358 7.5-7.5s-3.358-7.5-7.5-7.5c-7.292 0-13.819-4.085-17.033-10.661-4.934-10.093-15.23-16.284-26.243-16.284h-36.085c-5.335 0-9.675-4.34-9.675-9.676 0-5.335 4.34-9.675 9.675-9.675h24.532c17.507 0 31.75-14.241 31.752-31.748 27.268 6.839 23.311 35.868 54.903 35.868h4.862v81.109c-13.346.448-19.72-1.302-29.273 2.506zm66.639 3.105c0 3.367-2.739 6.106-6.106 6.106h-10.152c-3.114 0-5.686-2.344-6.056-5.359-.006-.041-.012-.083-.019-.124-.021-.205-.032-.413-.032-.623v-91.99c0-3.367 2.739-6.106 6.106-6.106h10.152c3.367 0 6.106 2.739 6.106 6.106v91.99z"/></g></g></svg>