<svg id="_x33_0" enable-background="new 0 0 62 62" height="512" viewBox="0 0 62 62" width="512" xmlns="http://www.w3.org/2000/svg"><g><path d="m37 52c-1.654 0-3 1.346-3 3s1.346 3 3 3 3-1.346 3-3-1.346-3-3-3zm0 4c-.551 0-1-.448-1-1s.449-1 1-1 1 .448 1 1-.449 1-1 1z"/><path d="m13 52c-1.654 0-3 1.346-3 3s1.346 3 3 3 3-1.346 3-3-1.346-3-3-3zm0 4c-.551 0-1-.448-1-1s.449-1 1-1 1 .448 1 1-.449 1-1 1z"/><path d="m15 16c1.654 0 3-1.346 3-3s-1.346-3-3-3-3 1.346-3 3 1.346 3 3 3zm0-4c.551 0 1 .448 1 1s-.449 1-1 1-1-.448-1-1 .449-1 1-1z"/><path d="m55 36c-1.654 0-3 1.346-3 3s1.346 3 3 3 3-1.346 3-3-1.346-3-3-3zm0 4c-.551 0-1-.448-1-1s.449-1 1-1 1 .448 1 1-.449 1-1 1z"/><path d="m55.956 32.073c.015-.358.044-.716.044-1.073 0-4.558-1.244-8.989-3.58-12.87 1.023-1.8 1.58-3.853 1.58-5.934v-.196c0-6.617-5.383-12-12-12-4.438 0-8.313 2.428-10.389 6.02-3.877-.089-7.813.738-11.327 2.403-1.285-1.481-3.175-2.423-5.284-2.423-3.86 0-7 3.141-7 7 0 1.506.498 2.997 1.4 4.199l.414.552c-2.311 3.689-3.605 7.888-3.777 12.249h-2.037c-1.103 0-2 .897-2 2v20c-1.103 0-2 .897-2 2v2c0 1.103.897 2 2 2h4.685c1.126 2.361 3.53 4 6.315 4s5.189-1.639 6.315-4h11.37c1.126 2.361 3.53 4 6.315 4s5.189-1.639 6.315-4h2.685c1.103 0 2-.897 2-2v-2.754c0-.244-.03-.488-.089-.728l-.64-2.56c1.49-1.279 2.819-2.721 3.968-4.307l3.761 5.016 5.6-7.467c.903-1.203 1.4-2.695 1.4-4.2 0-3.534-2.636-6.458-6.044-6.927zm-13.956-30.073c5.514 0 10 4.486 10 10v.195c0 2.23-.759 4.425-2.137 6.178l-7.863 10.009-7.863-10.009c-1.378-1.753-2.137-3.947-2.137-6.178v-.195c0-5.514 4.486-10 10-10zm-27 6c2.757 0 5 2.243 5 5 0 1.075-.355 2.141-1 2.999l-4 5.334-4-5.334c-.645-.858-1-1.924-1-2.999 0-2.757 2.243-5 5-5zm-11 24h8v7.618l5-2.5 5 2.5v-7.618h8v20h-10.685c-1.126-2.361-3.53-4-6.315-4s-5.189 1.639-6.315 4h-2.685zm10 0h6v4.382l-3-1.5-3 1.5zm18 6h9.438c.459 0 .859.312.97.757l.311 1.243h-4.719c-1.103 0-2 .897-2 2v2c0 1.103.897 2 2 2h6.219l1.5 6h-2.404c-1.126-2.361-3.53-4-6.315-4-1.958 0-3.728.81-5 2.111zm11.719 6h-5.719v-2h5.219zm-41.719 12v-2h4.08c-.047.328-.08.66-.08 1s.033.672.08 1zm11 4c-2.757 0-5-2.243-5-5s2.243-5 5-5 5 2.243 5 5-2.243 5-5 5zm6.92-4c.047-.328.08-.66.08-1s-.033-.672-.08-1h10.16c-.047.328-.08.66-.08 1s.033.672.08 1zm17.08 4c-2.757 0-5-2.243-5-5s2.243-5 5-5 5 2.243 5 5-2.243 5-5 5zm6.92-4c.047-.328.08-.66.08-1s-.033-.672-.08-1h2.08v2zm2.805-8.225-2.376-9.503c-.335-1.337-1.532-2.272-2.911-2.272h-9.438v-4c0-1.103-.897-2-2-2h-21.964c.16-3.726 1.204-7.322 3.067-10.529l3.897 5.196 5.6-7.467c.903-1.203 1.4-2.695 1.4-4.2 0-1.029-.229-2.004-.63-2.885 2.93-1.357 6.06-2.065 9.326-2.106-.442 1.251-.696 2.59-.696 3.991v.195c0 2.677.911 5.311 2.564 7.414l9.436 12.009 9.17-11.671c1.853 3.376 2.83 7.166 2.83 11.053 0 .361-.028.724-.044 1.087-3.365.507-5.956 3.409-5.956 6.913 0 1.506.498 2.997 1.4 4.199l.577.77c-.947 1.383-2.03 2.661-3.252 3.806zm12.275-5.776-4 5.334-4-5.334c-.645-.858-1-1.924-1-2.999 0-2.757 2.243-5 5-5s5 2.243 5 5c0 1.075-.355 2.141-1 2.999z"/><path d="m42 20c4.411 0 8-3.589 8-8s-3.589-8-8-8-8 3.589-8 8 3.589 8 8 8zm0-14c3.309 0 6 2.691 6 6s-2.691 6-6 6-6-2.691-6-6 2.691-6 6-6z"/><path d="m24 26h2v2h-2z"/><path d="m28 26h2v2h-2z"/><path d="m32 26h2v2h-2z"/></g></svg>