<?xml version="1.0"?>
<svg xmlns="http://www.w3.org/2000/svg" id="Outline" viewBox="0 0 512 512" width="512" height="512"><path d="M128.015,312a8,8,0,1,0,8.005-8h-.01A8,8,0,0,0,128.015,312Z"/><path d="M16.081,246.868a8,8,0,0,0,5.679,8.812l88.456,25.8A39.974,39.974,0,1,0,174.2,300.142l24.894,7.26C213.608,325.046,233.757,336,256,336s42.393-10.954,56.907-28.6l24.894-7.26a40.008,40.008,0,1,0,63.983-18.662l88.456-25.8A8,8,0,0,0,488,240H336a114.851,114.851,0,0,0-1.491-18.469l91.344-21.749a8,8,0,0,0-3.706-15.564L330.8,205.967c-10.564-33.322-36.163-57.821-66.8-61.488V64a8,8,0,0,0-16,0v80.479c-30.639,3.667-56.238,28.166-66.8,61.488L89.853,184.218a8,8,0,1,0-3.706,15.564l91.344,21.749A114.851,114.851,0,0,0,176,240H24A8,8,0,0,0,16.081,246.868ZM160,312a24,24,0,1,1-26.852-23.832l18.04,5.262A23.984,23.984,0,0,1,160,312Zm240,0a24,24,0,1,1-39.188-18.57l18.04-5.262A24.07,24.07,0,0,1,400,312Zm32-56-78.357,22.855-.013-.019c-.018.012-.035.026-.052.038l-27.841,8.12A108.342,108.342,0,0,0,334.883,256ZM256,160c35.29,0,64,35.888,64,80s-28.71,80-64,80c-18.651,0-35.46-10.029-47.168-25.994l.115-.4-.509-.148C198.227,279.282,192,260.535,192,240,192,195.888,220.71,160,256,160Zm-78.883,96a108.342,108.342,0,0,0,9.146,30.994l-27.841-8.12c-.017-.012-.034-.026-.052-.038l-.013.019L80,256Z"/><path d="M216,256h80a8,8,0,0,0,8-8V216a8,8,0,0,0-8-8H216a8,8,0,0,0-8,8v32A8,8,0,0,0,216,256Zm72-16H264V224h24Zm-64-16h24v16H224Z"/><path d="M376.02,320a8,8,0,0,0,0-16h-.01a8,8,0,0,0,.01,16Z"/><path d="M24,88a40.026,40.026,0,0,0,57.5,35.985,64.028,64.028,0,0,0,93,0,40,40,0,1,0,9.4-75.165,64.022,64.022,0,0,0-111.808,0A40.035,40.035,0,0,0,24,88ZM64,64a23.833,23.833,0,0,1,9.223,1.838,8,8,0,0,0,10.462-4.3,48.014,48.014,0,0,1,88.63,0,8,8,0,0,0,10.462,4.3,24,24,0,1,1-5.172,41.366,8,8,0,0,0-11.2,1.592,48,48,0,0,1-76.808,0A8,8,0,0,0,78.4,107.2,23.781,23.781,0,0,1,64,112a24,24,0,0,1,0-48Z"/><path d="M456,400a40.018,40.018,0,0,0-8.1.82,64.022,64.022,0,0,0-111.808,0,40,40,0,1,0,9.4,75.165,64.028,64.028,0,0,0,93,0A40.006,40.006,0,1,0,456,400Zm0,64a23.781,23.781,0,0,1-14.395-4.8,8,8,0,0,0-11.2,1.592,48,48,0,0,1-76.808,0,8,8,0,0,0-11.2-1.592A23.781,23.781,0,0,1,328,464a24,24,0,1,1,9.223-46.162,8,8,0,0,0,10.462-4.3,48.014,48.014,0,0,1,88.63,0,8,8,0,0,0,10.462,4.3A24,24,0,1,1,456,464Z"/></svg>
