<?xml version="1.0" encoding="iso-8859-1"?>
<!-- Generator: Adobe Illustrator 19.0.0, SVG Export Plug-In . SVG Version: 6.00 Build 0)  -->
<svg version="1.1" id="Capa_1" xmlns="http://www.w3.org/2000/svg" xmlns:xlink="http://www.w3.org/1999/xlink" x="0px" y="0px"
	 viewBox="0 0 511.999 511.999" style="enable-background:new 0 0 511.999 511.999;" xml:space="preserve">
<g>
	<g>
		<path d="M331.359,239.762h-16.333c-4.142,0-7.5,3.357-7.5,7.5c0.001,4.142,3.358,7.5,7.5,7.5h16.333c4.142,0,7.5-3.357,7.5-7.5
			C338.859,243.12,335.502,239.762,331.359,239.762z"/>
	</g>
</g>
<g>
	<g>
		<path d="M280.13,239.762h-99.488c-4.143,0-7.5,3.358-7.5,7.5c0,4.142,3.357,7.5,7.5,7.5h99.488c4.142,0,7.5-3.357,7.5-7.5
			C287.63,243.12,284.273,239.762,280.13,239.762z"/>
	</g>
</g>
<g>
	<g>
		<path d="M315.667,270.766H196.334c-4.142,0-7.5,3.357-7.5,7.5s3.357,7.5,7.5,7.5h119.332c4.142,0,7.5-3.357,7.5-7.5
			S319.809,270.766,315.667,270.766z"/>
	</g>
</g>
<g>
	<g>
		<path d="M436.182,50.017l-30.672-37.22C398.81,4.664,388.922,0,378.383,0h-188.94c-4.142,0-7.5,3.357-7.5,7.5s3.357,7.5,7.5,7.5
			h188.94c6.041,0,11.71,2.674,15.551,7.336l30.672,37.22c3.704,4.495,5.744,10.178,5.744,16.003V190.18l-160.295-17.372
			c-1.709-0.184-26.402-0.185-28.115,0.001L81.651,190.18V75.559c0-5.825,2.04-11.508,5.744-16.003l30.672-37.22
			c3.842-4.662,9.51-7.336,15.551-7.336h20.931c4.142,0,7.5-3.357,7.5-7.5s-3.357-7.5-7.5-7.5h-20.931
			c-10.538,0-20.425,4.664-27.127,12.796l-30.672,37.22c-5.912,7.175-9.168,16.246-9.168,25.542c0,0.002,0,0,0,0.002v235.213
			c0,0.278,0.018,0.551,0.047,0.82c0.007,0.064,0.021,0.128,0.029,0.192c0.028,0.207,0.061,0.411,0.105,0.612
			c0.005,0.023,0.007,0.047,0.012,0.07l21.534,92.884v11.978c0,11.625,9.458,21.082,21.082,21.082h19.131l-5.57,8.405h-15.678
			c-4.142,0-7.5,3.357-7.5,7.5s3.357,7.5,7.5,7.5h5.739l-9.608,14.5H88.779c-4.142,0-7.5,3.357-7.5,7.5c0,4.142,3.357,7.5,7.5,7.5
			h4.755l-2.029,3.061c-2.32,3.502-2.526,7.977-0.538,11.681c1.968,3.665,5.762,5.941,9.9,5.941h20.369
			c3.77,0,7.27-1.885,9.362-5.042l10.365-15.642h230.074l10.365,15.642c2.092,3.157,5.592,5.042,9.362,5.042h20.369
			c4.139,0,7.932-2.276,9.9-5.941c1.988-3.704,1.782-8.179-0.538-11.68l-2.029-3.062h4.754c4.142,0,7.5-3.357,7.5-7.5
			c0-4.142-3.357-7.5-7.5-7.5h-14.693l-9.608-14.5h5.737c4.142,0,7.5-3.357,7.5-7.5s-3.357-7.5-7.5-7.5h-15.676l-5.57-8.405h19.129
			c11.625,0,21.082-9.458,21.082-21.082v-11.978l21.534-92.884c0.005-0.023,0.007-0.047,0.012-0.07
			c0.044-0.201,0.077-0.406,0.105-0.612c0.009-0.064,0.022-0.128,0.029-0.192c0.029-0.27,0.047-0.543,0.047-0.82V75.561
			c0-0.003,0,0,0-0.002C445.351,66.262,442.094,57.191,436.182,50.017z M119.204,497.001h-11.442l38.823-58.588h11.442
			L119.204,497.001z M150.904,476.317l9.608-14.5H351.49l9.608,14.5H150.904z M170.451,446.818l5.569-8.405h159.962l5.569,8.405
			H170.451z M404.24,497.001h-11.442l-38.823-58.588h11.442L404.24,497.001z M408.622,417.33c0.001,3.355-2.728,6.083-6.082,6.083
			h-293.08c-3.354,0-6.083-2.728-6.083-6.083v-5.337h305.245V417.33z M410.162,396.994H101.839l-18.251-78.72h12.496
			c3.463,16.335,17.992,28.632,35.343,28.632c17.352,0,31.881-12.296,35.344-28.632h178.46
			c3.463,16.335,17.992,28.632,35.344,28.632c17.351,0,31.88-12.296,35.343-28.632h12.496L410.162,396.994z M110.295,310.774
			c0-11.652,9.479-21.131,21.131-21.131c11.652,0,21.132,9.479,21.132,21.131c0,11.652-9.48,21.132-21.132,21.132
			C119.774,331.906,110.295,322.426,110.295,310.774z M359.443,310.774c0-11.652,9.48-21.131,21.132-21.131
			s21.131,9.479,21.131,21.131c0,11.652-9.479,21.132-21.131,21.132C368.922,331.906,359.443,322.426,359.443,310.774z
			 M430.352,303.275L430.352,303.275h-14.435c-3.463-16.335-17.992-28.631-35.343-28.631c-17.352,0-31.881,12.296-35.344,28.631
			H166.771c-3.463-16.335-17.992-28.631-35.344-28.631c-17.351,0-31.88,12.296-35.343,28.631H81.651v-98.008l161.719-17.526
			c2.535-0.092,22.726-0.092,25.263,0l161.719,17.526V303.275z"/>
	</g>
</g>
<g>
	<g>
		<path d="M131.225,355.98c-4.142,0-7.5,3.357-7.5,7.5v17.592c0,4.142,3.357,7.5,7.5,7.5c4.142,0,7.5-3.357,7.5-7.5V363.48
			C138.725,359.337,135.367,355.98,131.225,355.98z"/>
	</g>
</g>
<g>
	<g>
		<path d="M172.816,355.98c-4.142,0-7.5,3.357-7.5,7.5v17.592c0,4.142,3.357,7.5,7.5,7.5s7.5-3.357,7.5-7.5V363.48
			C180.316,359.337,176.959,355.98,172.816,355.98z"/>
	</g>
</g>
<g>
	<g>
		<path d="M214.409,355.98c-4.142,0-7.5,3.357-7.5,7.5v17.592c0,4.142,3.357,7.5,7.5,7.5c4.142,0,7.5-3.357,7.5-7.5V363.48
			C221.907,359.337,218.55,355.98,214.409,355.98z"/>
	</g>
</g>
<g>
	<g>
		<path d="M256,355.98c-4.142,0-7.5,3.357-7.5,7.5v17.592c0,4.142,3.357,7.5,7.5,7.5c4.142,0,7.5-3.357,7.5-7.5V363.48
			C263.5,359.337,260.143,355.98,256,355.98z"/>
	</g>
</g>
<g>
	<g>
		<path d="M297.593,355.98c-4.142,0-7.5,3.357-7.5,7.5v17.592c0,4.142,3.357,7.5,7.5,7.5c4.142,0,7.5-3.357,7.5-7.5V363.48
			C305.093,359.337,301.735,355.98,297.593,355.98z"/>
	</g>
</g>
<g>
	<g>
		<path d="M339.185,355.98c-4.142,0-7.5,3.357-7.5,7.5v17.592c0,4.142,3.357,7.5,7.5,7.5c4.142,0,7.5-3.357,7.5-7.5V363.48
			C346.685,359.337,343.328,355.98,339.185,355.98z"/>
	</g>
</g>
<g>
	<g>
		<path d="M380.776,355.98c-4.142,0-7.5,3.357-7.5,7.5v17.592c0,4.142,3.357,7.5,7.5,7.5c4.142,0,7.5-3.357,7.5-7.5V363.48
			C388.276,359.337,384.919,355.98,380.776,355.98z"/>
	</g>
</g>
<g>
	<g>
		<path d="M221.936,67.492h-117.12c-7.929,0-14.38,6.451-14.38,14.379V150.5c0,4.078,1.741,7.978,4.775,10.702
			c2.649,2.378,6.083,3.678,9.608,3.678c0.514,0,1.03-0.027,1.545-0.084l117.12-12.693c0.001,0,0.001,0,0.001,0
			c7.314-0.793,12.83-6.939,12.83-14.295V81.871C236.315,73.943,229.864,67.492,221.936,67.492z M221.316,137.251l-115.88,12.558
			V82.491h115.88V137.251z"/>
	</g>
</g>
<g>
	<g>
		<path d="M404.739,67.492h-117.12c-7.928,0-14.379,6.451-14.379,14.379v55.937c0,7.356,5.515,13.502,12.83,14.295l117.119,12.693
			c0.516,0.057,1.031,0.084,1.545,0.084c3.526,0,6.96-1.301,9.609-3.678c3.034-2.724,4.775-6.624,4.775-10.702V81.871
			C419.117,73.943,412.667,67.492,404.739,67.492z M404.119,149.809l-115.88-12.558v-54.76h115.88V149.809z"/>
	</g>
</g>
<g>
</g>
<g>
</g>
<g>
</g>
<g>
</g>
<g>
</g>
<g>
</g>
<g>
</g>
<g>
</g>
<g>
</g>
<g>
</g>
<g>
</g>
<g>
</g>
<g>
</g>
<g>
</g>
<g>
</g>
</svg>
