<svg height="480pt" viewBox="0 -10 480 480" width="480pt" xmlns="http://www.w3.org/2000/svg"><path d="m449.191406 427.753906c-5.992187 9.582032-9.992187 15.445313-17.246094 15.445313-7.257812 0-11.25-5.863281-17.242187-15.4375-5.992187-9.578125-13.398437-21.121094-27.703125-22.65625l52.480469-138.265625c.8125-2.144532.664062-4.539063-.40625-6.566406-1.074219-2.03125-2.964844-3.5-5.195313-4.042969l-5.144531-1.285157 10.707031-28.097656c.8125-2.136718.671875-4.523437-.386718-6.550781-1.0625-2.027344-2.9375-3.503906-5.160157-4.058594l-33.894531-8.484375v-47.753906c0-13.253906-10.746094-24-24-24h-40v-40c0-13.253906-10.746094-24-24-24h-8v-24c0-4.417969-3.582031-8-8-8h-6.503906c.425781-.742188.964844-1.414062 1.601562-1.992188 1.4375-1.253906 3.382813-1.765624 5.253906-1.382812.761719.136719 1.464844.496094 2.023438 1.03125 4.574219 5.160156 11.863281 6.953125 18.304688 4.496094 7.007812-3.308594 11.433593-10.40625 11.320312-18.152344v-24h-16v24c-.101562 1.167969-.449219 2.304688-1.023438 3.328125-.503906-.234375-.953124-.566406-1.320312-.984375-2.742188-2.714844-6.207031-4.578125-9.984375-5.367188-6.597656-1.367187-13.460937.320313-18.671875 4.589844-4.441406 3.660156-7.453125 8.773438-8.496094 14.433594h-8.503906c-4.417969 0-8 3.582031-8 8v24h-32v-24c0-4.417969-3.582031-8-8-8h-6.503906c.425781-.742188.964844-1.414062 1.601562-1.992188 1.4375-1.253906 3.382813-1.765624 5.253906-1.382812.761719.136719 1.464844.496094 2.023438 1.03125 4.574219 5.160156 11.863281 6.953125 18.304688 4.496094 7.007812-3.308594 11.433593-10.40625 11.320312-18.152344v-24h-16v24c-.101562 1.167969-.449219 2.304688-1.023438 3.328125-.503906-.234375-.953124-.566406-1.320312-.984375-2.742188-2.714844-6.207031-4.578125-9.984375-5.367188-6.597656-1.367187-13.460937.320313-18.671875 4.589844-4.441406 3.660156-7.453125 8.773438-8.496094 14.433594h-8.503906c-4.417969 0-8 3.582031-8 8v24h-8c-13.253906 0-24 10.746094-24 24v40h-40c-13.253906 0-24 10.746094-24 24v47.753906l-33.9375 8.484375c-2.257812.566407-4.160156 2.085938-5.207031 4.164063s-1.136719 4.511718-.246094 6.660156l11.480469 27.664062-6.027344 1.511719c-2.253906.566407-4.15625 2.082031-5.203125 4.160157-1.046875 2.078124-1.140625 4.507812-.25 6.65625l57.078125 137.921874c-.609375-.039062-1.144531-.175781-1.777344-.175781-16.421875 0-24.382812 12.726563-30.757812 22.960938-5.984375 9.597656-10.007813 15.4375-17.207032 15.4375-7.203124 0-11.203124-5.863281-17.175781-15.429688-6.394531-10.234375-14.335937-22.96875-30.769531-22.96875v16c7.199219 0 11.199219 5.863281 17.183594 15.4375 6.402344 10.234375 14.335937 22.960938 30.761718 22.960938 16.421876 0 24.382813-12.726563 30.765626-22.960938 5.984374-9.597656 10.007812-15.4375 17.199218-15.4375 4.429688.183594 8.492188 2.496094 10.914063 6.207031l.070312.160157h.058594c2.230469 2.910156 4.296875 5.949219 6.183594 9.097656 6.398437 10.230469 14.34375 22.957031 30.765625 22.957031 16.425781 0 24.394531-12.726562 30.785156-22.957031 5.984375-9.601563 10.015625-15.441406 17.207031-15.441406 7.195313 0 11.242188 5.863281 17.226563 15.441406 6.398437 10.230469 14.34375 22.957031 30.765625 22.957031 16.425781 0 24.394531-12.726562 30.785156-22.957031 5.984375-9.601563 10.023437-15.441406 17.222656-15.441406 7.203125 0 11.203125 5.863281 17.203125 15.433593 6.398438 10.238282 14.351563 22.964844 30.773438 22.964844 16.425781 0 24.402344-12.726562 30.792968-22.957031 5.984376-9.601563 10.023438-15.441406 17.222657-15.441406 7.203125 0 11.265625 5.863281 17.257812 15.449219 6.398438 10.222656 14.398438 22.949218 30.800781 22.949218 16.398438 0 24.414063-12.726562 30.816407-22.957031 5.992187-9.601563 10.03125-15.441406 17.238281-15.441406v-16c-16.449219-.023438-24.40625 12.703125-30.808594 22.929687zm-177.191406-371.753906h16v16h-16zm-80 0h16v16h-16zm-32 40c0-4.417969 3.582031-8 8-8h144c4.417969 0 8 3.582031 8 8v40h-160zm-64 64c0-4.417969 3.582031-8 8-8h272c4.417969 0 8 3.582031 8 8v43.753906l-142.0625-35.515625c-1.273438-.316406-2.601562-.316406-3.875 0l-142.0625 35.515625zm-37.054688 69.503906 181.054688-45.257812 181.320312 45.355468-8.175781 21.4375-171.199219-42.800781c-1.273437-.316406-2.609374-.316406-3.882812 0l-170.277344 42.570313zm165.054688-1.257812 16-4 16 4v64.441406l-16 16-16-16zm129.105469 199.515625c-5.984375 9.597656-10.027344 15.4375-17.234375 15.4375-7.207032 0-11.199219-5.863281-17.207032-15.4375-6.398437-10.234375-14.335937-22.960938-30.769531-22.960938-16.429687 0-24.390625 12.726563-30.78125 22.960938-5.984375 9.597656-10.015625 15.4375-17.226562 15.4375-7.207031 0-11.199219-5.863281-17.207031-15.4375-6.398438-10.234375-14.34375-22.960938-30.785157-22.960938-16.4375 0-24.382812 12.726563-30.765625 22.960938-5.984375 9.597656-10.015625 15.4375-17.226562 15.4375-7.207032 0-11.199219-5.863281-17.207032-15.4375-1.773437-2.839844-3.703124-5.867188-5.863281-8.761719l-61.894531-149.488281 149.0625-37.265625v63.753906c0 2.121094.84375 4.15625 2.34375 5.65625l24 24c3.125 3.121094 8.1875 3.121094 11.3125 0l24-24c1.5-1.5 2.34375-3.535156 2.34375-5.65625v-63.742188l144.160156 36.070313 5.152344 1.273437-53.222656 140.183594c-6.136719 4.941406-11.230469 11.050782-14.984375 17.976563zm0 0"/><path d="m344 392h16v16h-16zm0 0"/><path d="m320 392h16v16h-16zm0 0"/><path d="m344 368h16v16h-16zm0 0"/><path d="m184 104h16v16h-16zm0 0"/><path d="m208 104h16v16h-16zm0 0"/><path d="m232 104h16v16h-16zm0 0"/><path d="m256 104h16v16h-16zm0 0"/><path d="m280 104h16v16h-16zm0 0"/></svg>