<svg width="108" height="32" viewBox="0 0 108 32" fill="none" xmlns="http://www.w3.org/2000/svg">
<g clip-path="url(#clip0_1206_4753)">
<path d="M104.158 31.25H3.7832C2.11284 31.25 0.75 29.8844 0.75 28.2136V3.7808C0.75 2.11073 2.1113 0.75 3.7832 0.75H104.158C105.844 0.75 107.25 2.12585 107.25 3.7808V28.2136C107.25 29.8693 105.842 31.25 104.158 31.25Z" stroke="white" stroke-width="1.5"/>
<path d="M24.1024 15.8272C24.0792 13.2488 26.2136 11.9944 26.3112 11.936C25.1024 10.1736 23.2288 9.93281 22.5704 9.91361C20.9968 9.74801 19.4704 10.8552 18.6688 10.8552C17.8512 10.8552 16.6168 9.92961 15.2864 9.95681C13.5744 9.98321 11.9728 10.9744 11.0944 12.5136C9.2816 15.652 10.6336 20.264 12.3704 22.8008C13.2392 24.0432 14.2544 25.4304 15.5832 25.3816C16.8832 25.328 17.3688 24.5528 18.9376 24.5528C20.492 24.5528 20.948 25.3816 22.3032 25.3504C23.6984 25.328 24.5768 24.1024 25.4152 22.8488C26.4192 21.4248 26.8224 20.0224 26.8384 19.9504C26.8056 19.9392 24.1288 18.9176 24.1024 15.8272Z" fill="white"/>
<path d="M21.5424 8.24483C22.2416 7.37043 22.72 6.18083 22.5872 4.97363C21.5752 5.01843 20.3096 5.67363 19.5808 6.52883C18.936 7.28243 18.36 8.51763 18.5088 9.67923C19.6456 9.76403 20.8128 9.10563 21.5424 8.24483Z" fill="white"/>
<path d="M42.916 25.2032H41.0992L40.104 22.076H36.6448L35.6968 25.2032H33.928L37.3552 14.5568H39.472L42.916 25.2032ZM39.804 20.764L38.904 17.984C38.8088 17.7 38.6304 17.0312 38.3672 15.9784H38.3352C38.2304 16.4312 38.0616 17.1 37.8296 17.984L36.9456 20.764H39.804Z" fill="white"/>
<path d="M51.7296 21.2704C51.7296 22.576 51.3768 23.608 50.6712 24.3656C50.0392 25.04 49.2544 25.3768 48.3176 25.3768C47.3064 25.3768 46.58 25.0136 46.1376 24.2872H46.1056V28.3312H44.4V20.0536C44.4 19.2328 44.3784 18.3904 44.3368 17.5264H45.8368L45.932 18.7432H45.964C46.5328 17.8264 47.396 17.3688 48.5544 17.3688C49.46 17.3688 50.216 17.7264 50.8208 18.4424C51.4272 19.1592 51.7296 20.1016 51.7296 21.2704ZM49.992 21.3328C49.992 20.5856 49.824 19.9696 49.4864 19.4848C49.1176 18.9792 48.6224 18.7264 48.0016 18.7264C47.5808 18.7264 47.1984 18.8672 46.8568 19.1448C46.5144 19.4248 46.2904 19.7904 46.1856 20.2432C46.1328 20.4544 46.1064 20.6272 46.1064 20.7632V22.0432C46.1064 22.6016 46.2776 23.0728 46.62 23.4576C46.9624 23.8424 47.4072 24.0344 47.9544 24.0344C48.5968 24.0344 49.0968 23.7864 49.4544 23.292C49.8128 22.7968 49.992 22.144 49.992 21.3328Z" fill="white"/>
<path d="M60.5592 21.2704C60.5592 22.576 60.2064 23.608 59.5 24.3656C58.8688 25.04 58.084 25.3768 57.1472 25.3768C56.136 25.3768 55.4096 25.0136 54.968 24.2872H54.936V28.3312H53.2304V20.0536C53.2304 19.2328 53.2088 18.3904 53.1672 17.5264H54.6672L54.7624 18.7432H54.7944C55.3624 17.8264 56.2256 17.3688 57.3848 17.3688C58.2896 17.3688 59.0456 17.7264 59.652 18.4424C60.256 19.1592 60.5592 20.1016 60.5592 21.2704ZM58.8216 21.3328C58.8216 20.5856 58.6528 19.9696 58.3152 19.4848C57.9464 18.9792 57.4528 18.7264 56.8312 18.7264C56.4096 18.7264 56.028 18.8672 55.6856 19.1448C55.3432 19.4248 55.12 19.7904 55.0152 20.2432C54.9632 20.4544 54.936 20.6272 54.936 20.7632V22.0432C54.936 22.6016 55.1072 23.0728 55.448 23.4576C55.7904 23.8416 56.2352 24.0344 56.784 24.0344C57.4264 24.0344 57.9264 23.7864 58.284 23.292C58.6424 22.7968 58.8216 22.144 58.8216 21.3328Z" fill="white"/>
<path d="M70.4312 22.2176C70.4312 23.1232 70.1168 23.86 69.4856 24.4288C68.792 25.0504 67.8264 25.3608 66.5856 25.3608C65.44 25.3608 64.5216 25.14 63.8264 24.6976L64.2216 23.276C64.9704 23.7288 65.792 23.956 66.6872 23.956C67.3296 23.956 67.8296 23.8104 68.1888 23.5208C68.5464 23.2312 68.7248 22.8424 68.7248 22.3576C68.7248 21.9256 68.5776 21.5616 68.2824 21.2664C67.9888 20.9712 67.4984 20.6968 66.8136 20.4432C64.9496 19.748 64.0184 18.7296 64.0184 17.3904C64.0184 16.5152 64.3448 15.7976 64.9984 15.2392C65.6496 14.68 66.5184 14.4008 67.6048 14.4008C68.5736 14.4008 69.3784 14.5696 70.0208 14.9064L69.5944 16.2968C68.9944 15.9704 68.316 15.8072 67.5568 15.8072C66.9568 15.8072 66.488 15.9552 66.152 16.2496C65.868 16.5128 65.7256 16.8336 65.7256 17.2136C65.7256 17.6344 65.888 17.9824 66.2144 18.256C66.4984 18.5088 67.0144 18.7824 67.7632 19.0776C68.6792 19.4464 69.352 19.8776 69.7848 20.372C70.216 20.8648 70.4312 21.4816 70.4312 22.2176Z" fill="white"/>
<path d="M76.0704 18.8063H74.1904V22.5335C74.1904 23.4815 74.5216 23.9551 75.1856 23.9551C75.4904 23.9551 75.7432 23.9287 75.9432 23.8759L75.9904 25.1711C75.6544 25.2967 75.212 25.3599 74.664 25.3599C73.9904 25.3599 73.464 25.1543 73.084 24.7439C72.7056 24.3327 72.5152 23.6431 72.5152 22.6743V18.8047H71.3952V17.5247H72.5152V16.1191L74.1904 15.6135V17.5247H76.0704V18.8063Z" fill="white"/>
<path d="M84.5528 21.3015C84.5528 22.4815 84.2152 23.4503 83.5416 24.2079C82.8352 24.9879 81.8976 25.3767 80.7288 25.3767C79.6024 25.3767 78.7056 25.0031 78.0368 24.2559C77.368 23.5087 77.0336 22.5655 77.0336 21.4287C77.0336 20.2391 77.3776 19.2647 78.068 18.5071C78.7568 17.7487 79.6864 17.3695 80.8552 17.3695C81.9816 17.3695 82.888 17.7431 83.572 18.4911C84.2264 19.2167 84.5528 20.1535 84.5528 21.3015ZM82.7832 21.3567C82.7832 20.6487 82.632 20.0415 82.3256 19.5351C81.968 18.9223 81.4568 18.6167 80.7944 18.6167C80.1088 18.6167 79.588 18.9231 79.2304 19.5351C78.924 20.0423 78.7728 20.6591 78.7728 21.3887C78.7728 22.0967 78.924 22.7039 79.2304 23.2095C79.5992 23.8223 80.1144 24.1279 80.7792 24.1279C81.4304 24.1279 81.9416 23.8159 82.3104 23.1935C82.6248 22.6775 82.7832 22.0639 82.7832 21.3567Z" fill="white"/>
<path d="M90.0968 19.0264C89.928 18.9952 89.748 18.9792 89.5592 18.9792C88.9592 18.9792 88.4952 19.2056 88.1688 19.6592C87.8848 20.0592 87.7424 20.5648 87.7424 21.1752V25.2032H86.0376L86.0536 19.944C86.0536 19.0592 86.032 18.2536 85.9896 17.5272H87.4752L87.5376 18.996H87.5848C87.7648 18.4912 88.0488 18.0848 88.4376 17.78C88.8176 17.5056 89.228 17.3688 89.6704 17.3688C89.828 17.3688 89.9704 17.38 90.0968 17.4V19.0264Z" fill="white"/>
<path d="M97.7248 21.0016C97.7248 21.3072 97.7048 21.5648 97.6624 21.7752H92.5456C92.5656 22.5336 92.8128 23.1136 93.288 23.5136C93.7192 23.8712 94.2768 24.0504 94.9616 24.0504C95.7192 24.0504 96.4104 23.9296 97.032 23.6872L97.2992 24.8712C96.5728 25.188 95.7152 25.3456 94.7256 25.3456C93.5352 25.3456 92.6008 24.9952 91.9208 24.2952C91.2424 23.5952 90.9024 22.6552 90.9024 21.476C90.9024 20.3184 91.2184 19.3544 91.8512 18.5856C92.5136 17.7648 93.4088 17.3544 94.5352 17.3544C95.6416 17.3544 96.4792 17.7648 97.048 18.5856C97.4984 19.2376 97.7248 20.044 97.7248 21.0016ZM96.0984 20.5592C96.1096 20.0536 95.9984 19.6168 95.7672 19.248C95.472 18.7736 95.0184 18.5368 94.408 18.5368C93.8504 18.5368 93.3968 18.768 93.0504 19.232C92.7664 19.6008 92.5976 20.0432 92.5456 20.5584H96.0984V20.5592Z" fill="white"/>
<path d="M39.24 8.00721C39.24 8.94881 38.9576 9.65761 38.3936 10.1336C37.8712 10.5728 37.1288 10.7928 36.1672 10.7928C35.6904 10.7928 35.2824 10.772 34.9408 10.7304V5.58561C35.3864 5.51361 35.8664 5.47681 36.3848 5.47681C37.3008 5.47681 37.9912 5.67601 38.4568 6.07441C38.9784 6.52481 39.24 7.16881 39.24 8.00721ZM38.356 8.03041C38.356 7.42001 38.1944 6.95201 37.8712 6.62561C37.548 6.30001 37.076 6.13681 36.4544 6.13681C36.1904 6.13681 35.9656 6.15441 35.7792 6.19121V10.1024C35.8824 10.1184 36.0712 10.1256 36.3456 10.1256C36.9872 10.1256 37.4824 9.94721 37.8312 9.59041C38.18 9.23361 38.356 8.71361 38.356 8.03041Z" fill="white"/>
<path d="M43.9272 8.82951C43.9272 9.40951 43.7616 9.88471 43.4304 10.2575C43.0832 10.6407 42.6232 10.8319 42.0488 10.8319C41.4952 10.8319 41.0544 10.6487 40.7256 10.2807C40.3976 9.91352 40.2336 9.45031 40.2336 8.89191C40.2336 8.30791 40.4024 7.82872 40.7416 7.45672C41.0808 7.08472 41.5368 6.89832 42.1112 6.89832C42.6648 6.89832 43.1096 7.08152 43.4464 7.44872C43.7664 7.80552 43.9272 8.26631 43.9272 8.82951ZM43.0576 8.85672C43.0576 8.50872 42.9824 8.21031 42.8328 7.96151C42.6568 7.66071 42.4064 7.51031 42.0808 7.51031C41.744 7.51031 41.488 7.66071 41.312 7.96151C41.1616 8.21031 41.0872 8.51352 41.0872 8.87192C41.0872 9.21992 41.1624 9.51831 41.312 9.76711C41.4936 10.0679 41.7464 10.2183 42.0728 10.2183C42.3928 10.2183 42.644 10.0655 42.8248 9.75912C42.98 9.50552 43.0576 9.20472 43.0576 8.85672Z" fill="white"/>
<path d="M50.212 6.9751L49.032 10.7463H48.264L47.7752 9.1087C47.6512 8.6999 47.5504 8.2935 47.472 7.8903H47.4568C47.384 8.3047 47.2832 8.7103 47.1536 9.1087L46.6344 10.7463H45.8576L44.748 6.9751H45.6096L46.036 8.7679C46.1392 9.1919 46.224 9.5959 46.292 9.9783H46.3072C46.3696 9.6631 46.4728 9.2615 46.6184 8.7759L47.1536 6.9759H47.8368L48.3496 8.7375C48.4736 9.1671 48.5744 9.5807 48.652 9.9791H48.6752C48.732 9.5911 48.8176 9.1775 48.9312 8.7375L49.3888 6.9759H50.212V6.9751Z" fill="white"/>
<path d="M54.5584 10.7464H53.72V8.5864C53.72 7.9208 53.4672 7.588 52.96 7.588C52.7112 7.588 52.5104 7.6792 52.3544 7.8624C52.2 8.0456 52.1216 8.2616 52.1216 8.5088V10.7456H51.2832V8.0528C51.2832 7.7216 51.2728 7.3624 51.2528 6.9736H51.9896L52.0288 7.5632H52.052C52.1496 7.38 52.2952 7.2288 52.4864 7.108C52.7136 6.9672 52.968 6.896 53.2464 6.896C53.5984 6.896 53.8912 7.0096 54.124 7.2376C54.4136 7.5168 54.5584 7.9336 54.5584 8.4872V10.7464Z" fill="white"/>
<path d="M56.8704 10.7464H56.0328V5.24475H56.8704V10.7464Z" fill="white"/>
<path d="M61.8064 8.82951C61.8064 9.40951 61.6408 9.88471 61.3096 10.2575C60.9624 10.6407 60.5016 10.8319 59.928 10.8319C59.3736 10.8319 58.9328 10.6487 58.6048 10.2807C58.2768 9.91352 58.1128 9.45031 58.1128 8.89191C58.1128 8.30791 58.2816 7.82872 58.6208 7.45672C58.96 7.08472 59.416 6.89832 59.9896 6.89832C60.544 6.89832 60.988 7.08152 61.3256 7.44872C61.6456 7.80552 61.8064 8.26631 61.8064 8.82951ZM60.936 8.85672C60.936 8.50872 60.8608 8.21031 60.7112 7.96151C60.536 7.66071 60.2848 7.51031 59.96 7.51031C59.6224 7.51031 59.3664 7.66071 59.1912 7.96151C59.0408 8.21031 58.9664 8.51352 58.9664 8.87192C58.9664 9.21992 59.0416 9.51831 59.1912 9.76711C59.3728 10.0679 59.6256 10.2183 59.952 10.2183C60.272 10.2183 60.5224 10.0655 60.7032 9.75912C60.8592 9.50552 60.936 9.20472 60.936 8.85672Z" fill="white"/>
<path d="M65.864 10.7463H65.1112L65.0488 10.3119H65.0256C64.768 10.6583 64.4008 10.8319 63.924 10.8319C63.568 10.8319 63.28 10.7175 63.0632 10.4903C62.8664 10.2839 62.768 10.0271 62.768 9.72232C62.768 9.26152 62.96 8.91031 63.3464 8.66711C63.732 8.42391 64.2744 8.30471 64.9728 8.31031V8.23992C64.9728 7.74312 64.712 7.49512 64.1896 7.49512C63.8176 7.49512 63.4896 7.58872 63.2064 7.77432L63.036 7.22392C63.3864 7.00712 63.8192 6.89832 64.3296 6.89832C65.3152 6.89832 65.8096 7.41832 65.8096 8.45832V9.84712C65.8096 10.2239 65.828 10.5239 65.864 10.7463ZM64.9936 9.45031V8.86872C64.0688 8.85272 63.6064 9.10632 63.6064 9.62872C63.6064 9.82552 63.6592 9.97271 63.7672 10.0711C63.8752 10.1695 64.0128 10.2183 64.1768 10.2183C64.3608 10.2183 64.5328 10.1599 64.6896 10.0439C64.8472 9.92712 64.944 9.77911 64.98 9.59751C64.9888 9.55672 64.9936 9.50711 64.9936 9.45031Z" fill="white"/>
<path d="M70.628 10.7464H69.884L69.8448 10.1408H69.8216C69.584 10.6016 69.1792 10.832 68.6104 10.832C68.156 10.832 67.7776 10.6536 67.4776 10.2968C67.1776 9.93995 67.028 9.47675 67.028 8.90795C67.028 8.29755 67.1904 7.80315 67.5168 7.42555C67.8328 7.07355 68.22 6.89755 68.6808 6.89755C69.1872 6.89755 69.5416 7.06795 69.7432 7.40955H69.7592V5.24475H70.5984V9.73035C70.5984 10.0976 70.608 10.436 70.628 10.7464ZM69.7592 9.15595V8.52715C69.7592 8.41835 69.7512 8.33035 69.736 8.26315C69.6888 8.06155 69.5872 7.89195 69.4328 7.75515C69.2768 7.61835 69.0888 7.54955 68.872 7.54955C68.5592 7.54955 68.3144 7.67355 68.1344 7.92235C67.956 8.17115 67.8656 8.48875 67.8656 8.87675C67.8656 9.24955 67.9512 9.55195 68.1232 9.78475C68.3048 10.0328 68.5496 10.1568 68.856 10.1568C69.1312 10.1568 69.3512 10.0536 69.5184 9.84635C69.68 9.65515 69.7592 9.42475 69.7592 9.15595Z" fill="white"/>
<path d="M77.7984 8.82951C77.7984 9.40951 77.6328 9.88471 77.3016 10.2575C76.9544 10.6407 76.4952 10.8319 75.92 10.8319C75.3672 10.8319 74.9264 10.6487 74.5968 10.2807C74.2688 9.91352 74.1048 9.45031 74.1048 8.89191C74.1048 8.30791 74.2736 7.82872 74.6128 7.45672C74.952 7.08472 75.408 6.89832 75.9832 6.89832C76.536 6.89832 76.9816 7.08152 77.3176 7.44872C77.6376 7.80552 77.7984 8.26631 77.7984 8.82951ZM76.9296 8.85672C76.9296 8.50872 76.8544 8.21031 76.7048 7.96151C76.528 7.66071 76.2784 7.51031 75.952 7.51031C75.616 7.51031 75.36 7.66071 75.1832 7.96151C75.0328 8.21031 74.9584 8.51352 74.9584 8.87192C74.9584 9.21992 75.0336 9.51831 75.1832 9.76711C75.3648 10.0679 75.6176 10.2183 75.944 10.2183C76.264 10.2183 76.516 10.0655 76.6968 9.75912C76.8512 9.50552 76.9296 9.20472 76.9296 8.85672Z" fill="white"/>
<path d="M82.3064 10.7464H81.4688V8.5864C81.4688 7.9208 81.216 7.588 80.708 7.588C80.4592 7.588 80.2584 7.6792 80.1032 7.8624C79.948 8.0456 79.8704 8.2616 79.8704 8.5088V10.7456H79.0312V8.0528C79.0312 7.7216 79.0216 7.3624 79.0016 6.9736H79.7376L79.7768 7.5632H79.8C79.8984 7.38 80.044 7.2288 80.2344 7.108C80.4624 6.9672 80.716 6.896 80.9952 6.896C81.3464 6.896 81.6392 7.0096 81.872 7.2376C82.1624 7.5168 82.3064 7.9336 82.3064 8.4872V10.7464Z" fill="white"/>
<path d="M87.9488 7.60321H87.0256V9.43521C87.0256 9.90081 87.1896 10.1336 87.5144 10.1336C87.6648 10.1336 87.7896 10.1208 87.888 10.0944L87.9096 10.7304C87.744 10.7928 87.5264 10.824 87.2584 10.824C86.9272 10.824 86.6696 10.7232 86.4832 10.5216C86.296 10.32 86.2032 9.98081 86.2032 9.50481V7.60321H85.652V6.97521H86.2032V6.28401L87.0248 6.03601V6.97441H87.948V7.60321H87.9488Z" fill="white"/>
<path d="M92.3872 10.7464H91.548V8.60235C91.548 7.92635 91.2952 7.58795 90.7888 7.58795C90.4 7.58795 90.1344 7.78395 89.9888 8.17595C89.964 8.25835 89.9496 8.35915 89.9496 8.47755V10.7456H89.112V5.24475H89.9496V7.51755H89.9656C90.2296 7.10395 90.608 6.89755 91.0984 6.89755C91.4456 6.89755 91.7328 7.01115 91.9608 7.23915C92.2448 7.52315 92.3872 7.94555 92.3872 8.50395V10.7464Z" fill="white"/>
<path d="M96.9656 8.68231C96.9656 8.83271 96.9544 8.95911 96.9344 9.06231H94.42C94.4312 9.43511 94.5512 9.71911 94.784 9.91591C94.9968 10.0919 95.2712 10.1799 95.6072 10.1799C95.9792 10.1799 96.3184 10.1207 96.624 10.0015L96.7552 10.5839C96.3976 10.7391 95.9768 10.8167 95.4896 10.8167C94.9056 10.8167 94.4456 10.6447 94.1128 10.3007C93.7784 9.95671 93.6128 9.49511 93.6128 8.91591C93.6128 8.34711 93.7672 7.87351 94.0784 7.49591C94.4032 7.09271 94.8424 6.89111 95.3968 6.89111C95.9392 6.89111 96.3512 7.09271 96.6296 7.49591C96.8544 7.81591 96.9656 8.21191 96.9656 8.68231ZM96.1656 8.46551C96.172 8.21671 96.1168 8.00231 96.0032 7.82151C95.8576 7.58871 95.636 7.47191 95.336 7.47191C95.0624 7.47191 94.8392 7.58551 94.6688 7.81351C94.5296 7.99511 94.4472 8.21191 94.42 8.46551H96.1656Z" fill="white"/>
</g>
<defs>
<clipPath id="clip0_1206_4753">
<rect width="108" height="32" fill="white"/>
</clipPath>
</defs>
</svg>
