<svg width="108" height="32" viewBox="0 0 108 32" fill="none" xmlns="http://www.w3.org/2000/svg">
<g clip-path="url(#clip0_1206_4754)">
<path d="M104.158 31.25H3.7832C2.11284 31.25 0.75 29.8844 0.75 28.2136V3.7808C0.75 2.11073 2.1113 0.75 3.7832 0.75H104.158C105.844 0.75 107.25 2.12585 107.25 3.7808V28.2136C107.25 29.8693 105.842 31.25 104.158 31.25Z" stroke="white" stroke-width="1.5"/>
<path d="M33.9642 9.16133H31.0424L30.4018 10.5688H30.006L32.3232 5.56836H32.69L35.0072 10.5688H34.6113L33.9637 9.16133H33.9642ZM33.8275 8.85428L32.5033 5.9683L31.1865 8.85428H33.8275Z" fill="white"/>
<path d="M38.635 6.83972L36.9364 10.5688H36.5696L34.8785 6.83972H35.2598L36.7567 10.1758L38.2681 6.83972H38.635Z" fill="white"/>
<path d="M41.6428 7.16468C41.8924 7.40063 42.0172 7.74693 42.0172 8.20401V10.5688H41.6718V9.90455C41.5519 10.1235 41.3766 10.294 41.1464 10.4153C40.9161 10.5365 40.6402 10.5976 40.3186 10.5976C39.9012 10.5976 39.5713 10.4999 39.3292 10.3045C39.0866 10.1091 38.9658 9.85221 38.9658 9.53295C38.9658 9.21369 39.0774 8.97207 39.3006 8.77929C39.5238 8.58651 39.8801 8.49013 40.3691 8.49013H41.6573V8.19006C41.6573 7.84245 41.5624 7.57815 41.3731 7.39715C41.1837 7.21614 40.9065 7.12586 40.5418 7.12586C40.2922 7.12586 40.0537 7.1686 39.8256 7.25453C39.5976 7.34045 39.4047 7.45472 39.2461 7.59734L39.0664 7.34001C39.2536 7.1734 39.479 7.04343 39.743 6.95053C40.0067 6.85763 40.2826 6.8114 40.5708 6.8114C41.0361 6.8114 41.3937 6.92916 41.6433 7.16512L41.6428 7.16468ZM41.1644 10.0899C41.3827 9.94685 41.5471 9.73968 41.6573 9.4684V8.76839H40.3762C40.0067 8.76839 39.7391 8.83512 39.5739 8.96858C39.4083 9.10204 39.3257 9.28522 39.3257 9.51856C39.3257 9.75189 39.4166 9.95339 39.5989 10.0938C39.7813 10.2343 40.0379 10.3045 40.3691 10.3045C40.6811 10.3045 40.946 10.233 41.1644 10.0903V10.0899Z" fill="white"/>
<path d="M43.471 5.85004C43.4134 5.79552 43.3844 5.72748 43.3844 5.64636C43.3844 5.56524 43.4134 5.49633 43.471 5.43919C43.5286 5.38206 43.598 5.35327 43.6797 5.35327C43.7614 5.35327 43.8308 5.38075 43.8884 5.43527C43.9459 5.49022 43.9749 5.55782 43.9749 5.63895C43.9749 5.72007 43.9459 5.78898 43.8884 5.84612C43.8308 5.90325 43.7614 5.93204 43.6797 5.93204C43.598 5.93204 43.5286 5.90456 43.471 5.85004ZM43.4996 6.83966H43.8594V10.5687H43.4996V6.83966Z" fill="white"/>
<path d="M45.3778 5.26782H45.7376V10.5683H45.3778V5.26782Z" fill="white"/>
<path d="M49.5948 7.16468C49.8443 7.40063 49.9691 7.74693 49.9691 8.20401V10.5688H49.6238V9.90455C49.5038 10.1235 49.3285 10.294 49.0983 10.4153C48.8681 10.5365 48.5922 10.5976 48.2705 10.5976C47.8532 10.5976 47.5232 10.4999 47.2811 10.3045C47.0386 10.1091 46.9178 9.85221 46.9178 9.53295C46.9178 9.21369 47.0294 8.97207 47.2525 8.77929C47.4757 8.58651 47.8321 8.49013 48.3211 8.49013H49.6093V8.19006C49.6093 7.84245 49.5144 7.57815 49.325 7.39715C49.1352 7.21614 48.8584 7.12586 48.4937 7.12586C48.2442 7.12586 48.0056 7.1686 47.7776 7.25453C47.5496 7.34045 47.3567 7.45472 47.1985 7.59734L47.0188 7.34001C47.206 7.1734 47.4314 7.04343 47.6954 6.95053C47.959 6.85763 48.235 6.8114 48.5232 6.8114C48.9885 6.8114 49.3461 6.92916 49.5956 7.16512L49.5948 7.16468ZM49.1163 10.0899C49.3347 9.94685 49.499 9.73968 49.6093 9.4684V8.76839H48.3281C47.9586 8.76839 47.691 8.83512 47.5258 8.96858C47.3602 9.10204 47.2776 9.28522 47.2776 9.51856C47.2776 9.75189 47.3685 9.95339 47.5509 10.0938C47.7332 10.2343 47.9898 10.3045 48.3211 10.3045C48.633 10.3045 48.8979 10.233 49.1163 10.0903V10.0899Z" fill="white"/>
<path d="M54.2867 7.05035C54.5696 7.20998 54.7915 7.43372 54.9523 7.72201C55.1131 8.01031 55.1935 8.33741 55.1935 8.70421C55.1935 9.07101 55.1131 9.39725 54.9523 9.68292C54.7915 9.9686 54.5696 10.1928 54.2867 10.3546C54.0037 10.5164 53.6869 10.5975 53.3368 10.5975C52.9866 10.5975 52.6975 10.5177 52.4264 10.3581C52.1553 10.1984 51.9453 9.97601 51.7968 9.69034V10.5692H51.4515V5.26782H51.8113V7.68974C51.9598 7.41366 52.1685 7.1982 52.4374 7.04337C52.7059 6.88854 53.0059 6.81134 53.3368 6.81134C53.6869 6.81134 54.0037 6.89116 54.2867 7.05079V7.05035ZM54.0925 10.0759C54.3227 9.94243 54.5037 9.75707 54.636 9.5185C54.7678 9.28036 54.8337 9.00908 54.8337 8.70421C54.8337 8.39935 54.7678 8.12806 54.636 7.88993C54.5042 7.65179 54.3231 7.466 54.0925 7.33254C53.8622 7.19907 53.603 7.13234 53.3152 7.13234C53.0275 7.13234 52.7696 7.19907 52.5415 7.33254C52.3135 7.466 52.1338 7.65179 52.002 7.88993C51.8702 8.12806 51.8043 8.39978 51.8043 8.70421C51.8043 9.00864 51.8702 9.28036 52.002 9.5185C52.1338 9.75663 52.3139 9.94243 52.5415 10.0759C52.7696 10.2094 53.0275 10.2761 53.3152 10.2761C53.603 10.2761 53.8622 10.2094 54.0925 10.0759Z" fill="white"/>
<path d="M56.3086 5.26782H56.6684V10.5683H56.3086V5.26782Z" fill="white"/>
<path d="M61.3603 8.78965H58.1293C58.139 9.08013 58.2132 9.33876 58.3525 9.56468C58.4918 9.79104 58.6798 9.96594 58.9175 10.0898C59.1552 10.2137 59.4223 10.2756 59.7198 10.2756C59.9645 10.2756 60.1912 10.2316 60.3999 10.1434C60.6086 10.0553 60.7826 9.92538 60.9219 9.75397L61.1306 9.98993C60.9676 10.1853 60.7624 10.3354 60.5155 10.44C60.2685 10.5447 60.001 10.597 59.7132 10.597C59.3389 10.597 59.0054 10.5159 58.7128 10.3541C58.4202 10.1923 58.1908 9.96812 58.0256 9.68244C57.86 9.39677 57.7774 9.07053 57.7774 8.70373C57.7774 8.33693 57.8551 8.0168 58.0111 7.72851C58.1671 7.44022 58.3819 7.21517 58.6552 7.05336C58.9285 6.89155 59.2356 6.81042 59.5761 6.81042C59.9166 6.81042 60.2224 6.89024 60.4935 7.04987C60.7646 7.2095 60.9781 7.43193 61.1341 7.71761C61.29 8.00328 61.3678 8.32734 61.3678 8.68934L61.3608 8.78922L61.3603 8.78965ZM58.863 7.30022C58.6517 7.4171 58.4825 7.58109 58.3556 7.79306C58.2286 8.00503 58.1552 8.24447 58.1359 8.51096H61.0146C61.0001 8.24447 60.928 8.00634 60.7988 7.79655C60.6692 7.5872 60.4988 7.42277 60.2879 7.30371C60.0765 7.18464 59.8393 7.12532 59.5752 7.12532C59.3112 7.12532 59.0739 7.18377 58.863 7.30022Z" fill="white"/>
<path d="M64.8396 10.3541C64.554 10.1923 64.33 9.96725 64.167 9.67895C64.004 9.39066 63.9222 9.06573 63.9222 8.70373C63.9222 8.34173 64.004 8.0168 64.167 7.72851C64.33 7.44022 64.5545 7.21517 64.8396 7.05336C65.1252 6.89155 65.4451 6.81042 65.8005 6.81042C66.1559 6.81042 66.4758 6.89155 66.7614 7.05336C67.047 7.21517 67.271 7.44022 67.4345 7.72851C67.5975 8.0168 67.6792 8.34173 67.6792 8.70373C67.6792 9.06573 67.5975 9.39066 67.4345 9.67895C67.2715 9.96725 67.047 10.1923 66.7614 10.3541C66.4758 10.5159 66.1555 10.597 65.8005 10.597C65.4455 10.597 65.1252 10.5159 64.8396 10.3541ZM66.5738 10.0754C66.8014 9.94195 66.9815 9.75659 67.1133 9.51802C67.2451 9.27988 67.311 9.0086 67.311 8.70373C67.311 8.39887 67.2451 8.12758 67.1133 7.88945C66.9815 7.65131 66.8014 7.46552 66.5738 7.33206C66.3457 7.19859 66.0878 7.13186 65.8001 7.13186C65.5123 7.13186 65.2544 7.19859 65.0263 7.33206C64.7983 7.46552 64.6186 7.65131 64.4868 7.88945C64.355 8.12758 64.2891 8.3993 64.2891 8.70373C64.2891 9.00816 64.355 9.27988 64.4868 9.51802C64.6186 9.75615 64.7988 9.94195 65.0263 10.0754C65.2544 10.2089 65.5123 10.2756 65.8001 10.2756C66.0878 10.2756 66.3457 10.2089 66.5738 10.0754Z" fill="white"/>
<path d="M71.7446 7.21827C72.0179 7.48956 72.1549 7.88034 72.1549 8.38976V10.5687H71.7951V8.41855C71.7951 7.99941 71.6883 7.68059 71.4748 7.46121C71.2613 7.24226 70.9625 7.13279 70.579 7.13279C70.1374 7.13279 69.7899 7.26363 69.5355 7.52576C69.2811 7.78788 69.1541 8.14028 69.1541 8.58297V10.5687H68.7943V6.8397H69.1396V7.647C69.2692 7.38532 69.4621 7.18033 69.7191 7.03248C69.9757 6.88506 70.2793 6.81091 70.6295 6.81091C71.0996 6.81091 71.4713 6.94655 71.745 7.21827H71.7446Z" fill="white"/>
<path d="M77.3503 10.3328C77.259 10.4187 77.1452 10.4841 77.0085 10.529C76.8719 10.5744 76.7291 10.5971 76.5801 10.5971C76.2537 10.5971 76.0019 10.5077 75.8244 10.3293C75.6469 10.1505 75.5582 9.90185 75.5582 9.58259V7.14672H74.8675V6.83967H75.5582V6.02539H75.918V6.83967H77.1126V7.14672H75.918V9.54683C75.918 9.78976 75.9769 9.97425 76.0942 10.1003C76.2115 10.2263 76.3855 10.2896 76.6162 10.2896C76.8468 10.2896 77.0454 10.2207 77.1992 10.0824L77.3503 10.3323V10.3328Z" fill="white"/>
<path d="M81.3011 7.21827C81.5743 7.48955 81.7114 7.88033 81.7114 8.38975V10.5687H81.3516V8.41854C81.3516 7.9994 81.2448 7.68058 81.0313 7.4612C80.8178 7.24225 80.519 7.13278 80.1354 7.13278C79.6939 7.13278 79.3464 7.26362 79.092 7.52575C78.8376 7.78787 78.7106 8.14028 78.7106 8.58296V10.5687H78.3508V5.26782H78.7106V7.61821C78.8402 7.36088 79.0318 7.16244 79.2862 7.02156C79.5405 6.88112 79.8402 6.81091 80.1855 6.81091C80.6556 6.81091 81.0273 6.94655 81.3011 7.21827Z" fill="white"/>
<path d="M86.3743 8.78965H83.1433C83.1529 9.08013 83.2272 9.33876 83.3665 9.56468C83.5057 9.79104 83.6938 9.96594 83.9315 10.0898C84.1692 10.2137 84.4363 10.2756 84.7338 10.2756C84.9785 10.2756 85.2052 10.2316 85.4139 10.1434C85.6226 10.0553 85.7966 9.92538 85.9358 9.75397L86.1445 9.98993C85.9815 10.1853 85.7764 10.3354 85.5294 10.44C85.2825 10.5447 85.0149 10.597 84.7272 10.597C84.3528 10.597 84.0194 10.5159 83.7267 10.3541C83.4341 10.1923 83.2048 9.96812 83.0396 9.68244C82.874 9.39677 82.7914 9.07053 82.7914 8.70373C82.7914 8.33693 82.8691 8.0168 83.0251 7.72851C83.1811 7.44022 83.3959 7.21517 83.6692 7.05336C83.9425 6.89155 84.2496 6.81042 84.5901 6.81042C84.9306 6.81042 85.2364 6.89024 85.5075 7.04987C85.7786 7.2095 85.9921 7.43193 86.148 7.71761C86.304 8.00328 86.3818 8.32734 86.3818 8.68934L86.3748 8.78922L86.3743 8.78965ZM83.877 7.30022C83.6657 7.4171 83.4965 7.58109 83.3695 7.79306C83.2426 8.00503 83.1692 8.24447 83.1499 8.51096H86.0285C86.014 8.24447 85.942 8.00634 85.8128 7.79655C85.6832 7.5872 85.5127 7.42277 85.3018 7.30371C85.0905 7.18464 84.8533 7.12532 84.5892 7.12532C84.3252 7.12532 84.0879 7.18377 83.877 7.30022Z" fill="white"/>
<path d="M35.7387 19.33H37.2172V22.6586C36.7844 23.0006 36.2796 23.2631 35.7027 23.4459C35.1258 23.6286 34.5327 23.7202 33.9237 23.7202C33.0661 23.7202 32.2933 23.5353 31.6044 23.1654C30.915 22.7956 30.3742 22.2844 29.9818 21.6324C29.589 20.9803 29.3931 20.2446 29.3931 19.425C29.3931 18.6055 29.5895 17.8702 29.9818 17.2177C30.3742 16.5657 30.9172 16.0545 31.6105 15.6847C32.3034 15.3148 33.0828 15.1299 33.9483 15.1299C34.6535 15.1299 35.2945 15.2455 35.8714 15.4757C36.4483 15.7065 36.9329 16.0445 37.3257 16.4898L36.3402 17.4441C35.6992 16.8077 34.9259 16.4898 34.0208 16.4898C33.4277 16.4898 32.9009 16.6132 32.4405 16.8596C31.9796 17.1061 31.6189 17.4524 31.3588 17.8977C31.0982 18.3434 30.9682 18.8519 30.9682 19.4246C30.9682 19.9973 31.0982 20.4827 31.3588 20.928C31.6189 21.3737 31.9796 21.7235 32.4405 21.9778C32.9009 22.2325 33.4238 22.3594 34.009 22.3594C34.6658 22.3594 35.2427 22.2164 35.7396 21.9298V19.3291L35.7387 19.33Z" fill="white"/>
<path d="M40.2575 23.267C39.7365 22.9888 39.33 22.601 39.0374 22.1038C38.7448 21.6071 38.599 21.044 38.599 20.4155C38.599 19.787 38.7453 19.2266 39.0374 18.7333C39.3296 18.24 39.7365 17.8545 40.2575 17.5762C40.7782 17.2979 41.3634 17.1588 42.0123 17.1588C42.6613 17.1588 43.2579 17.2979 43.779 17.5762C44.2996 17.8549 44.7065 18.2405 44.9991 18.7333C45.2913 19.2266 45.4376 19.7875 45.4376 20.4155C45.4376 21.0436 45.2913 21.6066 44.9991 22.1038C44.7065 22.601 44.3001 22.9888 43.779 23.267C43.2579 23.5457 42.6692 23.6844 42.0123 23.6844C41.3555 23.6844 40.7782 23.5453 40.2575 23.267ZM43.3822 21.8592C43.743 21.4932 43.9231 21.0122 43.9231 20.4155C43.9231 19.8189 43.743 19.3378 43.3822 18.9719C43.0215 18.6059 42.565 18.4232 42.0123 18.4232C41.4596 18.4232 41.0044 18.6064 40.6481 18.9719C40.2914 19.3378 40.1134 19.8189 40.1134 20.4155C40.1134 21.0122 40.2918 21.4932 40.6481 21.8592C41.0044 22.2251 41.4592 22.4078 42.0123 22.4078C42.5655 22.4078 43.022 22.2251 43.3822 21.8592Z" fill="white"/>
<path d="M48.0096 23.267C47.4885 22.9888 47.0821 22.601 46.7895 22.1038C46.4968 21.6071 46.351 21.044 46.351 20.4155C46.351 19.787 46.4973 19.2266 46.7895 18.7333C47.0816 18.24 47.4885 17.8545 48.0096 17.5762C48.5302 17.2979 49.1154 17.1588 49.7644 17.1588C50.4133 17.1588 51.0099 17.2979 51.531 17.5762C52.0517 17.8549 52.4585 18.2405 52.7511 18.7333C53.0433 19.2266 53.1896 19.7875 53.1896 20.4155C53.1896 21.0436 53.0433 21.6066 52.7511 22.1038C52.4585 22.601 52.0521 22.9888 51.531 23.267C51.0099 23.5457 50.4212 23.6844 49.7644 23.6844C49.1075 23.6844 48.5302 23.5453 48.0096 23.267ZM51.1343 21.8592C51.495 21.4932 51.6751 21.0122 51.6751 20.4155C51.6751 19.8189 51.495 19.3378 51.1343 18.9719C50.7736 18.6059 50.3171 18.4232 49.7644 18.4232C49.2116 18.4232 48.7565 18.6064 48.4002 18.9719C48.0434 19.3378 47.8655 19.8189 47.8655 20.4155C47.8655 21.0122 48.0438 21.4932 48.4002 21.8592C48.7565 22.2251 49.2112 22.4078 49.7644 22.4078C50.3175 22.4078 50.774 22.2251 51.1343 21.8592Z" fill="white"/>
<path d="M61.0014 17.2299V22.6346C61.0014 24.8777 59.8476 25.999 57.5401 25.999C56.9233 25.999 56.338 25.9214 55.7853 25.7666C55.2326 25.6113 54.7757 25.3867 54.415 25.0923L55.0881 23.971C55.3684 24.2017 55.7229 24.3866 56.1518 24.5257C56.5801 24.6649 57.0151 24.7347 57.4558 24.7347C58.1605 24.7347 58.6776 24.5755 59.0063 24.2575C59.3349 23.9391 59.4988 23.4541 59.4988 22.8021V22.468C59.2422 22.7467 58.9298 22.9574 58.5612 23.1004C58.1926 23.2435 57.7879 23.315 57.3472 23.315C56.7383 23.315 56.1873 23.1859 55.6948 22.9273C55.2023 22.6691 54.8135 22.3049 54.5292 21.8356C54.2449 21.3663 54.1026 20.8294 54.1026 20.2249C54.1026 19.6204 54.2449 19.0857 54.5292 18.6203C54.8135 18.155 55.2023 17.7951 55.6948 17.5404C56.1878 17.2862 56.7383 17.1588 57.3472 17.1588C57.8116 17.1588 58.2347 17.2347 58.6152 17.3856C58.9957 17.537 59.3142 17.7672 59.5708 18.0778V17.2308H61.0009L61.0014 17.2299ZM58.9764 21.5429C59.341 21.2049 59.5234 20.7657 59.5234 20.2245C59.5234 19.6832 59.341 19.258 58.9764 18.9239C58.6117 18.5898 58.1451 18.4228 57.5761 18.4228C57.0072 18.4228 56.5283 18.5898 56.1641 18.9239C55.7994 19.258 55.6171 19.6915 55.6171 20.2245C55.6171 20.7574 55.7994 21.2049 56.1641 21.5429C56.5283 21.881 56.9993 22.0502 57.5761 22.0502C58.153 22.0502 58.6117 21.8814 58.9764 21.5429Z" fill="white"/>
<path d="M62.9724 14.7483H64.4745V23.6007H62.9724V14.7483Z" fill="white"/>
<path d="M72.455 20.8927H67.4191C67.507 21.3619 67.7376 21.734 68.1102 22.0083C68.4828 22.2827 68.9454 22.42 69.4981 22.42C70.2033 22.42 70.7841 22.1893 71.2406 21.7279L72.046 22.6464C71.7578 22.9883 71.3927 23.247 70.9524 23.4219C70.5117 23.5968 70.0148 23.6844 69.4621 23.6844C68.7569 23.6844 68.1361 23.5453 67.5992 23.267C67.0623 22.9888 66.6476 22.601 66.3554 22.1038C66.0628 21.6071 65.9169 21.044 65.9169 20.4155C65.9169 19.787 66.0593 19.2366 66.3435 18.7394C66.6278 18.2422 67.0228 17.8545 67.5276 17.5762C68.0324 17.2979 68.6014 17.1588 69.2341 17.1588C69.8668 17.1588 70.4177 17.2962 70.9107 17.5705C71.4032 17.8449 71.7881 18.2309 72.0644 18.7276C72.3408 19.2248 72.4792 19.7997 72.4792 20.4517C72.4792 20.5551 72.4713 20.7021 72.455 20.8931V20.8927ZM68.014 18.7752C67.6814 19.0578 67.4793 19.4333 67.4072 19.9026H71.0491C70.9849 19.4416 70.7885 19.0674 70.4603 18.7813C70.1317 18.4952 69.7231 18.3517 69.2345 18.3517C68.746 18.3517 68.347 18.493 68.0144 18.7752H68.014Z" fill="white"/>
<path d="M82.7487 15.6075C83.2896 15.8461 83.7043 16.188 83.9926 16.6333C84.2812 17.0791 84.4253 17.6077 84.4253 18.22C84.4253 18.8324 84.2812 19.3514 83.9926 19.8011C83.7043 20.2503 83.2896 20.5944 82.7487 20.833C82.2079 21.0715 81.5726 21.1911 80.8437 21.1911H78.9448V23.6012H77.3824V15.2499H80.8437C81.5726 15.2499 82.2079 15.3694 82.7487 15.608V15.6075ZM82.3221 19.4491C82.6745 19.1625 82.8511 18.753 82.8511 18.22C82.8511 17.6871 82.6749 17.2775 82.3221 16.991C81.9693 16.7044 81.4526 16.5614 80.7716 16.5614H78.9448V19.8783H80.7716C81.4526 19.8783 81.9693 19.7352 82.3221 19.4487V19.4491Z" fill="white"/>
<path d="M85.9635 14.7483H87.4657V23.6007H85.9635V14.7483Z" fill="white"/>
<path d="M94.0578 17.8327C94.5587 18.2823 94.8091 18.9601 94.8091 19.8668V23.6011H93.3909V22.8257C93.2064 23.1043 92.9441 23.3168 92.6035 23.4637C92.263 23.6107 91.8522 23.6844 91.3716 23.6844C90.8909 23.6844 90.47 23.6029 90.1098 23.4397C89.749 23.2766 89.4709 23.0503 89.2745 22.7598C89.0781 22.4698 88.9802 22.1413 88.9802 21.7754C88.9802 21.2028 89.1946 20.7435 89.6229 20.3976C90.0513 20.0518 90.7266 19.8786 91.6479 19.8786H93.3065V19.7831C93.3065 19.3378 93.1721 18.9959 92.9041 18.7573C92.6356 18.5187 92.2371 18.3992 91.7081 18.3992C91.3474 18.3992 90.9929 18.455 90.6445 18.5663C90.296 18.6779 90.0017 18.8327 89.7609 19.0316L89.1722 17.9461C89.5087 17.6918 89.9134 17.4968 90.3861 17.3616C90.8589 17.2264 91.3597 17.1588 91.8883 17.1588C92.8338 17.1588 93.557 17.3834 94.0578 17.8331V17.8327ZM92.6879 22.3424C92.9805 22.1714 93.1866 21.9268 93.307 21.6088V20.8691H91.7565C90.8909 20.8691 90.4586 21.1517 90.4586 21.7161C90.4586 21.9865 90.5667 22.2015 90.7833 22.3603C90.9995 22.5195 91.3 22.5989 91.6849 22.5989C92.0697 22.5989 92.3957 22.5134 92.6884 22.3424H92.6879Z" fill="white"/>
<path d="M102.621 17.23L99.6161 24.1141C99.3354 24.8063 98.9953 25.293 98.5946 25.5756C98.1939 25.8578 97.7093 25.9991 97.1403 25.9991C96.8196 25.9991 96.5033 25.9472 96.1909 25.8439C95.8785 25.7405 95.6219 25.5974 95.4216 25.4143L96.0226 24.3165C96.1667 24.4517 96.3368 24.559 96.5336 24.6388C96.73 24.7182 96.9281 24.7583 97.1285 24.7583C97.393 24.7583 97.6113 24.6907 97.7836 24.5555C97.9558 24.4203 98.114 24.1935 98.2585 23.8755L98.3666 23.6252L95.5661 17.2304H97.1285L99.1478 21.943L101.179 17.2304H102.621L102.621 17.23Z" fill="white"/>
<path d="M26.5061 15.5914L22.4675 13.2781L19.1459 16.4654L22.1815 19.3784L26.5061 16.9007C26.7442 16.7646 26.8865 16.5195 26.8865 16.2465C26.8865 15.9735 26.7442 15.7283 26.5061 15.5918V15.5914Z" fill="white"/>
<path d="M21.7821 12.8851L17.3375 10.3384L7.59784 5.38379L18.5985 15.9398L21.7821 12.8851Z" fill="white"/>
<path d="M7.75952 27.3913L17.3542 22.1445L21.4961 19.7714L18.5985 16.991L7.75952 27.3913Z" fill="white"/>
<path d="M6.94803 5.81079L6.93748 27.1296L18.0511 16.465L6.94803 5.81079Z" fill="white"/>
</g>
<defs>
<clipPath id="clip0_1206_4754">
<rect width="108" height="32" fill="white"/>
</clipPath>
</defs>
</svg>
