<svg width="63" height="64" viewBox="0 0 63 64" fill="none" xmlns="http://www.w3.org/2000/svg">
<path d="M41.2289 23.2889L20.3909 39.8489C19.9769 40.1939 19.8389 40.8839 20.2529 41.2979C20.4599 41.5739 20.7359 41.7119 21.0809 41.7119C21.2879 41.7119 21.5639 41.6429 21.7019 41.5049L42.5399 24.9449C42.9539 24.5999 43.0919 23.9099 42.6779 23.4959C42.3329 23.0129 41.7119 22.9439 41.2289 23.2889Z" fill="#1C1B1F"/>
<path d="M25.9803 30.6719C26.2563 30.6719 26.5323 30.6719 26.8083 30.6029C29.6373 30.1889 31.6383 27.4979 31.1553 24.5999C30.9483 23.2199 30.1893 21.9779 29.0853 21.1499C27.9813 20.3219 26.6013 19.9769 25.2213 20.1839C23.8413 20.3909 22.5993 21.1499 21.7713 22.2539C20.9433 23.3579 20.5983 24.7379 20.8053 26.1179C21.2193 28.8089 23.4963 30.6719 25.9803 30.6719ZM25.4973 22.3229C25.6353 22.3229 25.8423 22.2539 25.9803 22.2539C27.4983 22.2539 28.8783 23.3579 29.0853 24.9449C29.3613 26.6699 28.1883 28.2569 26.4633 28.5329C24.7383 28.8089 23.1513 27.6359 22.8753 25.9109C22.5993 24.1859 23.8413 22.5989 25.4973 22.3229Z" fill="#1C1B1F"/>
<path d="M37.0204 34.1218C34.1224 34.1218 31.7764 36.4678 31.7764 39.3658C31.7764 42.2638 34.1224 44.6098 37.0204 44.6098C39.9184 44.6098 42.2644 42.2638 42.2644 39.3658C42.1954 36.4678 39.8494 34.1218 37.0204 34.1218ZM37.0204 42.4708C35.2954 42.4708 33.8464 41.0218 33.8464 39.2968C33.8464 37.5718 35.2954 36.1228 37.0204 36.1228C38.7454 36.1228 40.1944 37.5718 40.1944 39.2968C40.1254 41.0908 38.7454 42.4708 37.0204 42.4708Z" fill="#1C1B1F"/>
<path d="M62.8261 31.7069C62.8261 31.6379 62.8951 31.4999 62.8951 31.4309C62.8951 28.4639 59.7901 26.9459 57.0991 25.6349C55.1671 24.6689 53.0971 23.6339 52.5451 22.3919C51.9931 21.0809 52.7521 18.9419 53.5111 16.9409C54.5461 14.1119 55.5811 11.2139 53.6491 9.28189C51.7171 7.34989 48.9571 8.03989 46.1971 8.66089C44.2651 9.07489 42.2641 9.55789 40.9531 9.00589C39.6421 8.45389 38.5381 6.72889 37.5031 5.07289C35.9851 2.72689 34.3291 0.0358887 31.4311 0.0358887C28.5331 0.0358887 26.8771 2.72689 25.4281 5.14189C24.3931 6.86689 23.3581 8.59189 22.0471 9.14389C20.7361 9.69589 18.6661 9.21289 16.7341 8.72989C13.9741 8.03989 11.1451 7.34989 9.28213 9.21289C7.35013 11.1449 8.31613 14.0429 9.21313 16.8719C9.90313 18.9419 10.5241 21.0119 9.97213 22.3919C9.42013 23.7029 7.48813 24.6689 5.62513 25.6349C3.00313 27.0149 0.0361328 28.5329 0.0361328 31.4309C0.0361328 31.4999 0.0361327 31.6379 0.105133 31.7069C0.105133 31.7759 0.0361328 31.9139 0.0361328 31.9829C0.0361328 34.8809 3.00313 36.4679 5.62513 37.7789C7.48813 38.7449 9.42013 39.7109 9.97213 41.0219C10.5241 42.3329 9.83413 44.4719 9.21313 46.5419C8.31613 49.3709 7.35013 52.2689 9.28213 54.2009C11.2141 56.1329 14.0431 55.3739 16.7341 54.6839C18.6661 54.2009 20.7361 53.7179 22.0471 54.2699C23.3581 54.8219 24.3931 56.5469 25.4281 58.2719C26.8771 60.6869 28.5331 63.3779 31.4311 63.3779C34.3291 63.3779 36.0541 60.6869 37.5031 58.3409C38.5381 56.6849 39.6421 54.9599 40.9531 54.4079C42.3331 53.8559 44.2651 54.2699 46.1971 54.7529C48.8881 55.3739 51.7171 56.0639 53.6491 54.1319C55.5811 52.1999 54.5461 49.3019 53.5111 46.4729C52.7521 44.4029 51.9931 42.3329 52.5451 41.0219C53.0971 39.7109 55.0981 38.7449 57.0991 37.7789C59.7901 36.3989 62.8951 34.8809 62.8951 31.9829C62.8951 31.8449 62.8261 31.7759 62.8261 31.7069ZM56.1331 35.9159C53.8561 37.0889 51.4411 38.2619 50.6131 40.2629C49.7161 42.3329 50.6821 44.8169 51.5101 47.2319C52.3381 49.5089 53.1661 51.7169 52.1311 52.6829C51.0271 53.7869 48.8881 53.3039 46.6111 52.7519C44.3341 52.1999 42.0571 51.7169 40.0561 52.5449C38.1241 53.3729 36.8821 55.3049 35.7091 57.2369C34.3981 59.3069 33.1561 61.3079 31.3621 61.3079C29.6371 61.3079 28.3951 59.3069 27.0841 57.1679C25.9111 55.1669 24.6691 53.1659 22.7371 52.3379C20.7361 51.5099 18.3901 52.0619 16.1131 52.6829C13.8361 53.2349 11.6971 53.7869 10.5931 52.7519C9.55813 51.7169 10.2481 49.5089 11.0071 47.2319C11.7661 44.8169 12.5941 42.3329 11.6971 40.3319C10.8691 38.3309 8.59213 37.1579 6.38413 36.0539C4.10713 34.8809 1.96813 33.7769 1.96813 32.0519C1.96813 31.9829 1.96813 31.8449 1.89913 31.7759C1.89913 31.7069 1.96813 31.5689 1.96813 31.4999C1.96813 29.8439 4.10713 28.7399 6.38413 27.4979C8.59213 26.3939 10.8691 25.2209 11.6971 23.2199C12.5251 21.1499 11.7661 18.6659 11.0071 16.3199C10.2481 13.9739 9.55813 11.7659 10.5931 10.7999C11.6971 9.69589 13.8361 10.2479 16.1131 10.8689C18.3901 11.4209 20.7361 12.0419 22.7371 11.2139C24.6691 10.3859 25.9111 8.38489 27.0841 6.38389C28.3951 4.24489 29.5681 2.24389 31.3621 2.24389C33.1561 2.24389 34.3981 4.24489 35.7091 6.31489C36.9511 8.24689 38.1931 10.1789 40.0561 11.0069C42.0571 11.8349 44.3341 11.2829 46.6111 10.7999C48.8881 10.2479 51.0271 9.76489 52.1311 10.8689C53.1661 11.8349 52.3381 14.0429 51.5101 16.3199C50.6131 18.7349 49.7161 21.2189 50.6131 23.2889C51.4411 25.2899 53.8561 26.4629 56.1331 27.6359C58.5481 28.8089 60.7561 29.9819 60.7561 31.6379C60.7561 31.7069 60.7561 31.8449 60.8251 31.9139C60.8251 31.9829 60.7561 32.1209 60.7561 32.1899C60.8251 33.5699 58.5481 34.7429 56.1331 35.9159Z" fill="#1C1B1F"/>
</svg>
