<svg width="110" height="74" viewBox="0 0 110 74" fill="none" xmlns="http://www.w3.org/2000/svg">
<path fill-rule="evenodd" clip-rule="evenodd" d="M47.217 58.3928C47.217 58.3928 47.0277 55.8786 47.7464 52.1862C48.4654 48.4668 49.7897 43.9711 51.3629 41.5039C52.5496 39.6536 55.6126 37.3654 57.8442 39.1465C58.6239 39.7766 59.5832 41.3271 58.7152 43.8023C57.8471 46.2775 55.8194 48.1452 54.6715 48.9425C53.5507 49.7401 50.7975 50.9784 50.7975 50.9784C50.7975 50.9784 50.4634 51.7579 50.1524 52.9159C50.1524 52.9159 51.3859 51.7414 52.3944 51.2936C53.4029 50.8459 54.108 50.8539 54.7833 51.1047C55.4315 51.3552 57.0438 52.724 57.1184 53.3461C57.1927 53.9952 56.5099 54.4197 55.9368 54.7373C55.5547 54.9491 54.6559 55.29 53.4593 55.5735L53.513 55.6281C55.2618 56.9175 56.333 58.1722 57.3921 58.0492C58.1524 57.9768 58.867 57.1205 60.3717 55.9491C60.7378 49.7947 63.5901 41.9939 68.0956 39.2629C69.1879 38.6 70.4103 38.4248 71.4856 39.3014C72.7487 40.3692 72.6713 42.4752 72.1376 44.1438C71.6879 45.5703 71.35 46.701 68.8166 50.1566C66.2835 53.5853 62.9767 55.8437 62.9767 55.8437C62.9767 55.8437 62.9767 55.8437 62.8617 56.4366C62.7467 57.0295 62.7157 57.3804 62.6859 57.623C62.6561 57.8658 62.82 57.7596 62.82 57.7596C62.82 57.7596 62.8203 57.7326 63.2063 57.1698C63.6192 56.6072 64.5302 55.159 66.1155 54.0695C69.9146 51.4386 72.1123 53.8405 73.6997 57.4781C74.2555 58.7269 74.7663 59.1378 75.1183 59.1959C75.6595 59.3101 75.7436 59.068 75.9334 59.0701C76.0419 59.0713 76.1509 59.0185 76.4186 59.3457C76.8197 59.8634 76.1101 60.2606 75.7284 60.4454C75.3464 60.6571 74.7759 60.7317 73.9647 60.5063C71.18 59.6914 71.6399 54.8616 69.121 54.5359C68.3357 54.4189 67.4625 54.8951 66.6963 55.5077C65.8204 56.2271 64.6359 57.8883 63.8098 59.0134C63.4241 59.5493 62.4026 61.1853 61.8319 61.2869C61.6143 61.3385 61.2636 61.1724 60.9399 61.0066C60.6434 60.8412 60.6189 60.5979 60.6189 60.5979C60.4374 59.8395 60.3381 59.001 60.2937 58.1091C55.8226 62.6503 56.3217 59.1985 51.6384 55.904L51.5845 55.8763C51.5303 55.8757 51.4486 55.9018 51.3943 55.9012C50.3626 55.9975 49.7925 56.0451 49.4939 56.0686C49.3085 58.1194 49.3589 58.4712 49.3259 59.011C49.2925 59.5778 49.1298 59.576 48.8055 59.4643C48.5617 59.4345 47.1843 58.9056 47.217 58.3928ZM83.044 26.6293C85.2235 28.2208 88.4947 29.2034 91.5863 29.2114C91.8293 31.7802 92.5177 35.8398 92.6523 38.3533C92.7208 39.5155 94.8178 41.2411 95.7795 40.0905L99.3801 35.8096C99.8742 35.221 98.9924 34.0766 98.2251 34.7701L95.8691 36.8772C95.4031 37.3041 95.3277 36.8171 95.3058 36.3035C95.0895 33.7621 94.9552 31.2215 94.7917 28.7886C97.6206 28.0645 100.731 26.371 102.193 24.1727C105.089 19.8569 104.351 12.9606 100.619 14.4309C99.9907 14.7748 98.9989 16.1952 99.8581 16.9612C100.718 17.7004 102.135 17.1222 102.464 19.2598C102.64 20.5042 101.722 22.6008 100.596 23.8845C99.0854 25.6231 96.9314 26.625 94.6493 26.9502C94.2557 20.8413 93.7162 15.5949 92.0915 12.9024C91.3721 11.7328 89.5368 10.9016 88.0098 11.6405C87.328 11.984 86.7489 12.8417 86.2768 13.8358C85.7771 14.8835 85.2476 16.1741 84.7437 17.5999C84.1843 19.1332 83.5964 20.8013 82.9813 22.4689C81.4101 22.289 81.3083 24.1516 81.7819 25.4806C80.8074 27.7655 79.7274 29.779 78.4937 30.9805C77.2047 32.2624 75.914 31.2484 76.3115 29.6322C76.822 27.6121 78.511 24.4711 78.736 23.7443C78.9613 22.9905 79.4304 22.2665 78.3715 22.3625C77.2855 22.4583 75.8493 22.334 75.4565 23.518C75.0918 24.6212 74.2616 26.1245 73.7568 27.6314L71.3986 29.9545C71.3986 29.9545 70.1115 31.0744 69.2415 31.2536C68.3716 31.4328 67.9133 31.1845 67.8101 30.6972C67.7069 30.2098 68.1203 29.6202 68.7015 28.5734C69.3096 27.5268 70.0865 25.942 70.0865 25.942C70.0865 25.942 70.4513 24.8386 69.5408 23.7749C68.6303 22.7111 68.0075 22.623 67.2481 22.6144C66.489 22.5788 64.9429 22.5882 64.9429 22.5882C64.9429 22.5882 64.7268 22.5047 64.9461 22.2911L66.4957 19.4996C66.4957 19.4996 66.9147 18.3969 66.3491 18.0393C65.7834 17.6817 64.5389 17.3975 63.4404 18.6276C62.3419 19.8575 61.6488 21.2273 61.6935 22.0921C61.7147 22.6326 61.8983 23.2019 62.4911 23.5598C62.2709 23.8544 61.9952 24.2564 61.6647 24.7119C60.894 25.7296 59.1248 28.7617 58.3153 28.3743C57.533 27.9873 57.4126 26.6084 57.504 25.6911C57.5955 24.7737 57.2613 23.0952 56.4227 22.8966C55.584 22.698 55.2824 22.9917 55.3694 22.4795C55.4564 21.9673 55.6394 20.1326 55.268 19.3721C53.2539 15.0815 48.674 19.6483 48.1549 22.4516C48.1549 22.4516 47.9583 23.0706 47.8668 23.9879C47.1256 24.7898 45.2333 26.6862 42.9042 28.8206C42.8494 28.8741 41.973 29.6474 42.0338 29.0539L42.4344 24.6825C42.4979 23.8459 42.5932 22.5775 42.6588 21.5518C42.7606 19.6892 42.5713 17.175 40.2166 16.7161C37.9161 16.2578 36.0473 18.4785 34.9753 19.7629C34.2881 20.5924 33.2671 22.1745 32.6593 23.194C32.6646 22.7079 32.6431 22.1944 32.6214 21.708C32.4833 19.4645 31.829 14.8381 28.8505 14.372C27.7132 14.1971 26.5135 14.7777 25.4197 15.5757C24.1612 16.5608 23.2553 17.5499 22.5671 18.4604C21.4456 14.396 19.1479 11.2097 14.0461 11.4488C10.3283 11.6227 5.62856 14.7567 5.79501 19.3505C5.85884 20.9449 6.28623 21.5439 6.74757 21.5221C7.20891 21.5004 7.62463 20.6948 8.09696 19.6737C8.59641 18.6529 8.70965 18.222 8.35916 18.029C8.17051 17.9188 7.9887 17.1874 8.2691 16.3533C8.91456 14.3887 11.2626 12.9838 13.1095 12.7618C18.1341 12.1435 20.731 17.7103 20.6822 22.1396C18.6868 26.0065 16.7275 31.5216 17.2235 35.741C17.3967 37.2555 18.394 37.8341 19.1542 37.7617C20.6202 37.6433 21.85 34.3349 22.1877 33.2313C23.1734 29.9201 23.3338 25.1949 23.1252 21.9782L23.1255 21.9512C23.1022 21.5998 23.0792 21.2214 23.0288 20.8697C23.0032 20.7343 23.005 20.5723 22.9793 20.4369C22.9793 20.4369 24.8011 17.5675 26.2509 16.4494C27.7011 15.3045 28.8642 15.5877 29.3421 18.9966C29.8197 22.4324 29.4017 28.3702 29.4017 28.3702C29.4017 28.3702 28.0425 31.1098 27.6763 32.3482C27.3101 33.5865 27.4081 34.5331 28.3019 34.6513C29.1685 34.7692 30.1434 34.9152 30.6971 33.8951C31.0851 33.1432 32.0711 29.805 32.4915 26.1093C33.1823 24.9556 35.7798 20.6093 36.7674 19.5941C37.8927 18.3914 39.8587 17.1982 39.8552 19.9803C39.8514 22.7895 38.7778 29.1519 38.7778 29.1519C38.7778 29.1519 38.4614 30.796 39.16 31.3982C39.8586 32.0004 41.2036 33.015 42.9064 31.0896C44.3348 29.4581 47.1072 26.4643 47.9577 25.5826C48.1041 27.0699 48.679 29.0483 49.8071 30.0605C50.9084 31.0454 51.4832 30.5657 52.0622 29.7079C52.8895 28.4748 54.351 26.3035 54.7097 25.7403C55.2065 24.9626 55.2888 24.8826 55.4655 26.073C55.6152 27.2633 56.2671 29.6476 57.8352 30.0976C59.4035 30.5476 60.8914 28.4306 61.5256 27.4925C62.0495 26.715 63.3199 24.6496 63.7615 23.9523C63.8429 23.9533 63.9514 23.9545 64.0328 23.9554C65.8227 23.9758 67.207 23.8835 67.207 23.8835C67.207 23.8835 67.7503 23.8085 67.6075 24.4552C67.438 25.0746 65.6872 28.8903 65.6872 28.8903C65.6872 28.8903 65.1565 30.2889 65.9597 31.2434C66.7629 32.1979 67.9497 32.8056 69.0091 32.6555C70.0689 32.4785 71.2467 31.4384 72.2334 30.5042C72.5624 30.1839 73.0282 29.757 73.4665 29.3568C73.2895 30.6513 73.5748 31.843 74.8143 32.5864C75.3803 32.917 76.3006 33.0895 77.2236 33.0189C79.3153 32.7186 81.3532 29.9325 83.044 26.6293ZM91.3951 26.9133C89.7701 26.6787 88.1763 26.0935 86.8027 25.2135C85.995 24.6641 85.1608 24.0604 84.4888 23.5125C85.7141 20.6092 86.64 17.8105 87.1442 16.3577C87.8162 14.4475 88.4 13.1576 89.041 14.0563C89.2547 14.3558 89.7059 15.2523 89.8607 15.9834C90.7414 19.7479 91.1293 23.9391 91.3951 26.9133ZM20.5045 25.9732C20.5045 25.9732 19.6881 31.15 19.1234 33.1694C18.5587 35.1889 18.1757 35.4817 18.2424 34.3479C18.3089 33.2412 19.3989 27.8514 20.5045 25.9732ZM77.5087 21.8935C78.1312 22.0087 79.0325 21.4517 79.5024 20.6467C80.2766 19.3049 79.5902 17.5954 77.6325 18.0324C76.9799 18.1871 76.2154 18.6375 76.0939 19.8247C75.9735 20.9037 76.2633 21.6904 77.5087 21.8935ZM53.5697 23.3505C53.5697 23.3505 54.0457 22.0052 54.059 20.79C54.0724 19.5746 54 18.7634 53.0665 19.7793C52.1332 20.7951 51.1736 21.7295 50.4965 24.0988C49.3967 27.9219 50.6863 29.044 51.0996 28.4545C51.816 27.4362 54.2394 24.1143 54.2394 24.1143C54.2394 24.1143 54.2952 23.9799 53.9986 23.8145C53.6746 23.6757 53.5125 23.6199 53.5697 23.3505ZM86.5946 61.3791C86.5946 61.3791 87.6743 61.8505 88.7766 60.2964C89.8511 58.7419 90.9704 55.6484 91.0782 53.2726C91.1852 50.8968 91.5539 49.4695 91.5539 49.4695C92.0533 48.4217 93.1864 46.5438 94.4712 45.64C95.8376 44.683 98.3057 44.7111 98.7892 47.5798C99.376 50.9358 98.5213 54.6537 97.861 57.9955C97.6596 59.0467 97.2648 60.3928 97.6656 60.9375C98.254 61.7546 99.4106 62.578 100.417 62.3464C101.45 62.115 103.045 60.2154 103.045 60.2154C103.045 60.2154 103.866 59.5224 103.6 59.0331C103.333 58.5439 102.824 58.0249 101.808 59.1208C100.848 60.1634 100.362 59.9689 100.12 59.6959C99.6657 59.1506 104.662 48.754 99.7707 44.6467C96.7611 42.1005 93.189 43.8427 91.2849 46.8194C91.2849 46.8194 91.606 44.689 90.2495 42.2426C88.7868 39.6329 85.583 37.4627 82.2728 37.5601C78.1217 37.6751 73.9387 40.6798 73.6822 44.2694C73.5839 45.8079 73.9839 46.4337 74.4449 46.439C74.9331 46.4445 75.4293 45.7208 76.0638 44.7557C76.6979 43.8174 76.8379 43.4138 76.5149 43.1941C76.1918 42.9743 76.1586 41.0562 78.5312 39.8946C84.1766 37.0955 89.0661 41.3919 89.3033 46.9319C89.3698 48.2561 89.4408 49.2023 89.4408 49.2023C89.4408 49.2023 87.4047 51.8263 86.4326 53.9222C84.8135 55.6325 82.4314 57.6582 82.2594 56.0356C82.1861 55.3055 82.3815 54.7945 82.3091 53.9834C82.2131 52.8478 80.889 52.4006 80.9447 52.2661C81.0579 51.8352 81.2099 50.3514 80.837 49.7259C77.1598 43.7417 72.1581 52.1394 74.2545 56.3499C75.3692 58.5775 76.2674 58.2905 76.4871 58.0499C76.7067 57.8094 79.1719 55.6224 79.6672 54.9798C80.1625 54.3371 80.2447 54.2571 80.3151 55.2572C80.3855 56.2575 80.8028 57.7748 82.2088 58.169C82.993 58.394 84.4425 57.3029 85.5937 56.2085C85.0845 58.1205 84.9251 60.2796 86.5946 61.3791ZM88.7173 53.3268C88.6344 53.488 87.2819 58.1186 86.9236 58.5736C86.5662 59.0287 86.6046 57.9757 86.7468 57.4371C86.8878 56.9256 87.059 56.1442 87.6152 54.935C88.1435 53.7255 88.6408 52.8667 88.7173 53.3268ZM78.6922 52.3756C78.6922 52.3756 79.3509 51.6808 79.3625 50.6275C79.3847 48.6019 78.0687 49.8835 77.1321 51.1964C76.1683 52.5091 75.3047 54.5791 75.6952 56.0691C75.7992 56.4755 75.7906 57.2587 76.5055 56.3755C77.2202 55.5192 79.2546 53.0303 79.2546 53.0303C79.2546 53.0303 79.3101 52.9229 79.0404 52.7848C78.7706 52.6466 78.6085 52.5908 78.6922 52.3756ZM63.4093 53.4986C63.4093 53.4986 63.407 53.7146 63.626 53.528C63.845 53.3414 68.0372 49.4995 69.6214 46.033C71.2053 42.5936 71.126 42.4036 71.2151 41.7023C71.2767 41.0278 70.9298 40.5106 69.8671 40.9577C68.7769 41.4315 65.2628 45.2812 63.4093 53.4986ZM29.5603 55.8693C30.6493 57.9615 31.4933 57.674 31.713 57.4334C31.9054 57.1925 34.2071 55.0848 34.6478 54.4685C35.0886 53.8523 35.1708 53.7721 35.2686 54.7457C35.3666 55.6922 35.7849 57.1285 37.1099 57.4947C38.462 57.8612 40.0566 55.9075 40.6076 55.1304C40.8279 54.8358 41.2135 54.3 41.5994 53.7371C41.3694 54.923 41.2234 55.8667 41.2175 56.4069C41.1487 57.7297 40.7193 59.7776 41.0936 60.268C41.4408 60.7582 43.9738 62.2726 43.7404 61.2976C43.507 60.3225 44.0894 59.1676 44.368 58.4955C44.6463 57.8504 46.0034 55.2997 46.0034 55.2997C46.0034 55.2997 46.1411 55.1122 45.8448 54.9198C45.5486 54.7273 45.36 54.6172 45.0566 55.0729C44.7532 55.5287 43.7355 56.8136 43.7355 56.8136C43.7355 56.8136 43.4631 56.9186 43.5212 56.5681C43.5793 56.2176 44.0959 51.1724 46.8085 43.7481C48.4303 39.3367 49.2939 37.2666 49.5784 36.0543C49.6869 36.0556 49.7686 36.0295 49.877 36.0307C55.7392 35.7192 61.646 36.2725 63.0532 36.5586C64.4334 36.8443 65.5409 37.2621 65.1585 37.5008C64.7765 37.7126 64.4472 38.06 63.4139 38.2914C62.3809 38.4957 62.2179 38.5209 62.5405 38.7946C62.89 39.0687 63.1592 39.2608 64.1375 39.0829C65.0889 38.9046 66.9411 38.1963 66.5405 37.6246C66.1399 37.0528 65.742 36.2379 64.0665 35.6787C62.7695 35.2318 56.626 34.0005 49.3269 34.2688C48.5254 33.1522 47.4961 33.0325 47.0198 34.4046C45.6081 34.5237 44.1687 34.6964 42.7286 34.9232C32.7828 36.62 34.976 36.969 34.976 36.969C34.976 36.969 34.4866 37.0715 34.655 36.5602C34.8233 36.0489 35.0451 35.6192 35.0451 35.6192C35.0451 35.6192 35.1025 35.3228 34.7527 35.0756C34.4027 34.8286 34.1074 34.5551 34.1074 34.5551C34.1074 34.5551 33.8922 34.3906 33.7549 34.5511C33.6175 34.7116 30.438 37.7278 30.1075 38.1832C29.7773 38.6117 29.5046 38.7436 29.7957 39.3952L30.7897 40.2708C30.7897 40.2708 31.3566 40.5204 31.6006 40.5231C31.8447 40.5259 35.466 39.2705 36.8542 38.8271C37.9699 38.4886 41.8364 37.1279 46.3196 36.4226C45.3388 39.2746 43.6001 44.468 42.9987 47.3514C42.6838 48.8604 42.3694 50.3155 42.1111 51.6091C41.8652 51.7683 41.6718 52.0903 41.2042 52.6792C40.9294 53.0002 37.5712 57.473 37.2138 55.4431C37.0856 54.7663 37.3083 54.2556 37.2352 53.4985C37.1386 52.4169 35.8681 52.0243 35.8967 51.8896C36.0099 51.4587 36.1065 50.0822 35.7333 49.4838C34.88 48.1505 34.1868 47.0622 32.472 47.61C31.6012 47.8702 30.7533 48.5088 30.1713 49.6367C29.1754 51.4081 28.6575 54.1034 29.5603 55.8693ZM33.6711 52.0264C33.6711 52.0264 34.2752 51.358 34.2591 50.3583C34.2533 48.4136 33.019 49.669 32.1643 50.9289C31.2822 52.2153 30.5014 54.1513 30.8925 55.5873C30.9965 55.9936 31.0158 56.6962 31.6759 55.8664C32.3361 55.0365 34.2067 52.6537 34.2067 52.6537C34.2067 52.6537 34.2621 52.5463 34.0195 52.4085C33.7498 52.2704 33.6148 52.2148 33.6711 52.0264ZM18.3308 55.9038C18.3308 55.9038 18.9625 55.1818 20.4795 55.361C22.0236 55.5406 23.4005 56.1235 23.7456 56.8027C24.1182 57.4552 24.0287 58.1834 23.3451 58.6889C22.6615 59.1944 21.2727 59.6918 20.4308 59.7903C19.5889 59.8888 18.372 59.5508 18.2415 59.0902C18.1107 58.6565 18.4673 58.2824 17.9273 58.0602C17.3873 57.838 16.9773 58.1304 17.1298 59.0505C17.2554 59.9703 17.8219 60.2469 18.5765 60.6877C19.3311 61.1283 20.8728 61.524 22.6651 61.3283C24.4574 61.1326 25.9087 59.8795 25.9725 59.0159C26.0091 58.152 25.667 57.2026 24.4861 56.0548C23.2779 54.9336 23.0085 54.7685 23.0085 54.7685C23.0085 54.7685 23.7712 54.4801 24.7239 54.1667C25.6767 53.8534 28.5522 51.347 28.7214 48.2967C28.8634 45.246 27.2701 42.1486 24.5786 40.2543C21.8871 38.36 17.4397 38.2824 13.676 40.1575C9.91266 42.0055 6.83659 45.482 6.30713 49.2306C5.77765 52.9792 7.51194 55.5919 8.3458 56.2227C9.17974 56.8534 10.4019 56.7052 10.8692 56.1433C11.3362 55.6084 11.7882 53.9658 10.7884 53.6303C9.78875 53.2678 9.07263 54.2591 8.14305 52.4658C7.21346 50.6725 7.59187 48.3268 9.26728 46.4281C10.6131 44.9037 13.3489 42.7739 16.046 41.6971C15.9026 42.3977 13.9673 53.1262 13.8548 55.9611C13.7681 58.9043 13.8588 60.526 14.288 60.9631C14.7171 61.4001 16.9521 62.8841 16.7786 61.3965C16.6051 59.9089 16.5877 59.0173 16.2676 58.5275C15.9202 58.0644 15.9556 57.3084 16.084 55.5002C16.2395 53.6922 17.2976 48.7341 17.8313 47.0655C18.3922 45.3972 19.3341 43.5982 18.7476 42.6731C18.508 42.2652 18.0541 41.6118 17.5974 41.2014C17.7333 41.176 17.8692 41.1505 18.0323 41.1253C21.3203 40.5685 23.8366 41.1373 25.0976 42.3941C26.3585 43.6509 26.9087 45.4129 26.071 47.5913C25.2334 49.7696 23.9162 51.1593 22.1668 52.3819C20.4174 53.6046 20.4473 53.3619 19.5765 53.6221C18.7056 53.8823 17.5928 53.9506 17.1273 54.3506C16.6618 54.7504 16.6318 55.0202 16.7367 55.3456C16.9229 55.6718 17.35 56.2979 18.3308 55.9038ZM50.7298 54.6782C50.7298 54.6782 53.1884 53.0854 53.7325 52.9295C54.2496 52.7734 54.6039 52.6153 54.9532 52.9164C55.3026 53.2174 55.5979 53.4909 55.189 53.6753C54.7259 53.8592 50.0705 55.427 50.7298 54.6782ZM51.1965 49.2272C51.1965 49.2272 52.5915 45.7046 53.1753 44.4146C53.759 43.1248 54.8358 41.4083 55.5468 40.8761C56.285 40.3443 57.1588 39.814 57.5262 40.9256C57.8938 42.0372 57.4441 43.4637 56.7805 44.6177C56.1167 45.7716 54.0608 47.7471 53.1593 48.3311C52.2846 48.9424 51.1915 49.6864 51.1965 49.2272Z" fill="#F96791"/>
</svg>
