<svg width="34" height="20" viewBox="0 0 34 20" fill="none" xmlns="http://www.w3.org/2000/svg">
<path d="M7.32806 11.0101C7.32806 11.2672 7.4597 11.3958 7.72292 11.3958C8.18355 11.3958 8.44678 11.0101 8.51259 10.4316C8.38098 10.4316 8.38096 10.4316 8.24935 10.4316C7.6571 10.4316 7.32806 10.6245 7.32806 11.0101Z" fill="#454447"/>
<path d="M24.1742 11.0101C24.1742 11.2672 24.3058 11.3958 24.569 11.3958C25.0296 11.3958 25.2928 11.0101 25.3586 10.4316C25.227 10.4316 25.227 10.4316 25.0954 10.4316C24.4374 10.4316 24.1742 10.6245 24.1742 11.0101Z" fill="#454447"/>
<path d="M16.1459 9.08191C15.8169 9.08191 15.5537 9.33899 15.4879 9.78891H16.6724C16.6724 9.66036 16.804 9.08191 16.1459 9.08191Z" fill="#454447"/>
<path d="M30.4256 9.21045C29.965 9.21045 29.5702 9.7889 29.5702 10.5602C29.5702 11.0744 29.7676 11.3315 30.0966 11.3315C30.623 11.3315 30.952 10.753 30.952 9.98175C31.0179 9.46756 30.8204 9.21045 30.4256 9.21045Z" fill="#454447"/>
<path d="M23.5819 0.0834961C21.0813 0.0834961 18.7781 0.983333 17.0014 2.52592C15.2905 0.983333 12.9873 0.0834961 10.4867 0.0834961C5.09073 0.0834961 0.681778 4.38991 0.681778 9.66043C0.681778 14.9309 5.09073 19.2373 10.4867 19.2373C12.9873 19.2373 15.2905 18.3375 17.0014 16.7949C18.7123 18.3375 21.0155 19.2373 23.5819 19.2373C28.9779 19.2373 33.3868 14.9309 33.3868 9.66043C33.3868 4.38991 28.9779 0.0834961 23.5819 0.0834961ZM4.82748 12.2314L5.41974 8.50345L4.03781 12.2314H3.31398L3.24819 8.50345L2.59014 12.2314H1.60306L2.45852 7.34652H3.97203L4.03781 10.3674L5.09072 7.34652H6.73584L5.88039 12.2314H4.82748ZM8.38097 12.2314V11.8457C8.11775 12.1671 7.72291 12.2957 7.26227 12.2957C6.67003 12.2957 6.2752 11.8457 6.2752 11.203C6.2752 10.2389 6.93324 9.66043 8.11773 9.66043C8.24934 9.66043 8.38096 9.66043 8.57837 9.66043C8.64418 9.53188 8.64416 9.46759 8.64416 9.40331C8.64416 9.14622 8.44675 9.01768 7.98611 9.01768C7.45967 9.01768 7.06487 9.14622 6.86746 9.2105C6.86746 9.14622 6.99904 8.31064 6.99904 8.31064C7.52548 8.18209 7.85452 8.11782 8.24935 8.11782C9.17062 8.11782 9.63124 8.50346 9.63124 9.27476C9.63124 9.46758 9.63125 9.72469 9.56545 10.0461C9.49964 10.6245 9.30223 11.8457 9.23642 12.1671C9.10481 12.2314 8.38097 12.2314 8.38097 12.2314ZM11.5396 9.85324C12.066 10.1103 12.2634 10.4317 12.2634 10.9459C12.2634 11.8458 11.737 12.2957 10.6183 12.2957C9.96026 12.2957 9.76288 12.2314 9.49966 12.1671C9.49966 12.1028 9.63124 11.2673 9.63124 11.2673C9.96026 11.3958 10.2893 11.3958 10.6183 11.3958C11.0131 11.3958 11.2106 11.2673 11.2106 11.0102C11.2106 10.8174 11.1448 10.7531 10.6841 10.5602C10.0919 10.3032 9.89447 9.98177 9.89447 9.46757C9.89447 8.76055 10.2893 8.11782 11.4738 8.11782C11.737 8.11782 12.1318 8.18208 12.3951 8.18208L12.2634 9.08194C12.0002 9.01767 11.737 9.01768 11.4738 9.01768C11.1448 9.01768 10.9473 9.14623 10.9473 9.33906C11.0131 9.59615 11.079 9.66042 11.5396 9.85324ZM13.8428 11.3316C13.9744 11.3316 14.0402 11.3316 14.106 11.2673L13.9744 12.1671C13.7112 12.2314 13.4479 12.2957 13.1847 12.2957C12.6583 12.2957 12.3293 11.9743 12.3293 11.3958C12.3293 11.203 12.3951 10.7531 12.4609 10.3674C12.5267 9.98179 12.9215 7.66789 12.9215 7.66789H13.9744L13.8428 8.24638H14.3692L14.2376 9.2105H13.7112C13.5795 9.98179 13.3821 10.8816 13.3821 11.0102C13.5137 11.203 13.6454 11.3316 13.8428 11.3316ZM16.3433 11.3958C16.7382 11.3958 17.0672 11.3316 17.462 11.1387L17.2646 12.1029C16.8698 12.2314 16.5408 12.2314 16.1459 12.2314C14.9615 12.2314 14.3692 11.6529 14.3692 10.496C14.3692 9.14622 15.1589 8.11782 16.2117 8.11782C17.0672 8.11782 17.6594 8.6963 17.6594 9.53187C17.6594 9.85324 17.5936 10.1103 17.5278 10.496H15.4221C15.3563 11.1387 15.7511 11.3958 16.3433 11.3958ZM18.7124 12.2314H17.6594L17.7253 11.9743C17.9227 10.7531 18.1201 9.53186 18.2517 8.31064H19.2388C19.2388 8.50346 19.173 8.6963 19.173 8.88913C19.502 8.4392 19.7652 8.18211 20.2259 8.24638C20.0942 8.4392 19.8968 8.88912 19.831 9.40331C19.173 9.33904 19.1072 9.78898 18.7124 12.2314ZM22.7922 12.1671C22.3974 12.2957 22.1342 12.2957 21.871 12.2957C20.7523 12.2957 20.0285 11.4601 20.0285 10.1746C20.0285 8.4392 21.0155 7.21796 22.4632 7.21796C22.9238 7.21796 23.4503 7.4108 23.6477 7.47508L23.4503 8.50345C23.0554 8.31063 22.7922 8.24638 22.529 8.24638C21.7394 8.24638 21.1471 9.01767 21.1471 10.0461C21.1471 10.7531 21.5419 11.203 22.1342 11.203C22.3974 11.203 22.6606 11.1387 23.0555 10.9459L22.7922 12.1671ZM26.0825 12.2314C25.9509 12.2314 25.227 12.2314 25.227 12.2314V11.8457C24.9638 12.1671 24.569 12.2957 24.1083 12.2957C23.5161 12.2957 23.1213 11.8457 23.1213 11.203C23.1213 10.2389 23.7793 9.66043 24.9638 9.66043C25.0954 9.66043 25.227 9.66043 25.4244 9.66043C25.4902 9.53188 25.4903 9.46759 25.4903 9.40331C25.4903 9.14622 25.2928 9.01768 24.8322 9.01768C24.3058 9.01768 23.9109 9.14622 23.7135 9.2105C23.7135 9.14622 23.8451 8.31064 23.8451 8.31064C24.3716 8.18209 24.7006 8.11782 25.0954 8.11782C26.0167 8.11782 26.4773 8.50346 26.4773 9.27476C26.4773 9.46758 26.4773 9.72469 26.4115 10.0461C26.2799 10.6888 26.0825 11.91 26.0825 12.2314ZM27.5302 12.2314H26.4773L26.5431 11.9743C26.7405 10.7531 26.9379 9.53186 27.0695 8.31064H28.0566C28.0566 8.50346 27.9908 8.6963 27.9908 8.88913C28.3199 8.4392 28.5831 8.18211 29.0437 8.24638C28.9121 8.4392 28.7147 8.88912 28.6489 9.40331C27.9908 9.33904 27.8592 9.78898 27.5302 12.2314ZM30.6888 12.2314L30.7547 11.8457C30.4914 12.1671 30.1624 12.2957 29.7676 12.2957C28.9779 12.2957 28.4515 11.6529 28.4515 10.6245C28.4515 9.33906 29.2411 8.18208 30.1624 8.18208C30.5572 8.18208 30.8862 8.37494 31.1495 8.69631L31.4127 7.28226H32.4656L31.6759 12.1671H30.6888V12.2314Z" fill="#454447"/>
</svg>
