<svg width="46" height="15" viewBox="0 0 46 15" fill="none" xmlns="http://www.w3.org/2000/svg">
<path fill-rule="evenodd" clip-rule="evenodd" d="M2.18447 0.933778C2.17793 0.96066 1.68678 3.24909 1.09302 6.01917C0.49927 8.78926 0.00801049 11.0729 0.00136065 11.0939C-0.0101948 11.1304 0.0322334 11.1319 0.923138 11.1258C1.76758 11.1201 1.86537 11.1158 1.94423 11.0811C2.12726 11.0007 2.21371 10.8758 2.28145 10.5936C2.30463 10.4971 2.60448 9.10806 2.94779 7.50683C3.29111 5.90561 3.5759 4.59171 3.58065 4.58708C3.58541 4.58243 3.59419 4.59197 3.60015 4.60825C3.86812 5.34009 5.92279 10.7049 5.96243 10.7762C6.04175 10.9189 6.20706 11.0585 6.34357 11.098C6.43459 11.1243 6.61512 11.1301 7.3529 11.1301H8.25139L8.26352 11.0823C8.27019 11.056 8.75159 8.81582 9.33329 6.10418C9.91499 3.39253 10.405 1.10889 10.4221 1.02941L10.4533 0.8849L9.5346 0.892359C8.87009 0.897757 8.59282 0.907256 8.53256 0.926701C8.41474 0.964762 8.29118 1.08164 8.23552 1.20777C8.19623 1.29681 7.75037 3.33511 6.96573 7.01262C6.91399 7.25512 6.86674 7.45343 6.86075 7.45328C6.85475 7.45313 6.33476 6.09761 5.7052 4.44098C5.07565 2.78435 4.53422 1.3744 4.50204 1.30778C4.42752 1.15356 4.2928 1.0109 4.16165 0.947357C4.05966 0.897927 4.05397 0.897608 3.12772 0.891275L2.19633 0.884921L2.18447 0.933778ZM24.0962 0.932928C24.0842 0.981486 23.8147 2.23722 22.5463 8.15491C22.2043 9.75034 21.9192 11.073 21.9127 11.0941C21.9014 11.1309 21.9422 11.1323 22.8348 11.126C23.7676 11.1194 23.7689 11.1194 23.873 11.069C24.0025 11.0063 24.0974 10.8967 24.1421 10.7582C24.161 10.6997 24.3307 9.93469 24.5192 9.05808L24.862 7.46425L25.8852 7.45118C26.8824 7.43845 26.9972 7.43114 27.3732 7.35629C28.8011 7.07221 29.9057 6.17095 30.2884 4.97787C30.3976 4.63727 30.4326 4.41146 30.445 3.96844C30.4615 3.373 30.3883 2.91959 30.2107 2.51694C29.838 1.67179 29.1035 1.17064 27.9658 0.985184C27.4951 0.908446 27.376 0.903516 25.7483 0.893379L24.1086 0.883179L24.0962 0.932928ZM19.6334 1.37535C19.4511 1.42899 19.3232 1.54991 19.258 1.73023C19.2404 1.77906 19.1707 2.08986 19.1032 2.42089C19.0357 2.75192 18.9757 3.03872 18.97 3.05823C18.9606 3.08973 18.9041 3.09449 18.4644 3.1008C18.015 3.10726 17.9602 3.11206 17.8711 3.15278C17.7479 3.20914 17.6256 3.32882 17.5669 3.45048C17.5342 3.51836 17.2607 4.61893 17.2607 4.68277C17.2607 4.68696 17.5677 4.69291 17.943 4.69599L18.6254 4.7016L18.1504 6.87984C17.8891 8.07787 17.6556 9.16691 17.6315 9.29992C17.433 10.3957 17.895 11.0066 19.0408 11.1633C19.2488 11.1918 19.4034 11.1964 19.8334 11.187C20.3159 11.1765 20.8544 11.1407 20.878 11.1177C20.8877 11.1083 21.2267 9.62683 21.228 9.58853C21.2285 9.57387 21.1758 9.57164 21.0707 9.5819C20.8367 9.60477 20.2047 9.60288 20.1168 9.57905C20.0102 9.55013 19.8788 9.43833 19.8311 9.33586C19.7735 9.21241 19.7779 8.97714 19.8431 8.68257C19.8724 8.55016 20.074 7.6146 20.291 6.60358C20.508 5.59256 20.6904 4.74944 20.6964 4.73001C20.7061 4.69848 20.7679 4.69389 21.2678 4.68751L21.8283 4.68035L21.9522 4.62106C22.0904 4.55493 22.1966 4.44948 22.2552 4.32017C22.2767 4.27282 22.3493 3.995 22.4166 3.7028C22.4838 3.4106 22.544 3.1548 22.5503 3.13433C22.561 3.09942 22.5156 3.09714 21.808 3.09714C21.3935 3.09714 21.0543 3.09442 21.0543 3.09109C21.0543 3.08775 21.1328 2.70317 21.2288 2.23647C21.3247 1.76978 21.4032 1.38041 21.4032 1.37123C21.4032 1.34924 19.7088 1.35317 19.6334 1.37535ZM27.2425 2.69014C27.5258 2.75015 27.8139 2.8899 27.972 3.04406C28.2185 3.28426 28.3061 3.56207 28.2863 4.04061C28.2732 4.35676 28.24 4.52979 28.1498 4.75178C27.9697 5.19499 27.5869 5.50513 27.0584 5.63599C26.8099 5.69751 26.6181 5.7102 25.9304 5.71061L25.2357 5.71103L25.2473 5.66322C25.2536 5.63691 25.3976 4.95555 25.5672 4.14907C25.7369 3.34259 25.8801 2.66959 25.8855 2.6535C25.9018 2.60471 26.9762 2.6337 27.2425 2.69014ZM13.794 3.11164C11.8736 3.19704 10.7623 4.07986 10.1109 6.03743C9.94669 6.531 9.77508 7.26923 9.71761 7.72933C9.66914 8.11729 9.69692 8.66251 9.78581 9.06871C10.0312 10.1897 10.8664 10.9523 12.0679 11.1525C12.279 11.1877 12.4215 11.1938 13.0276 11.1936C14.0179 11.1933 14.5397 11.1536 15.1194 11.0343C15.6426 10.9266 15.7672 10.8068 15.9592 10.2267C16.0434 9.97228 16.2141 9.32831 16.2141 9.2653C16.2141 9.22737 16.2072 9.22737 15.9798 9.26496C15.5318 9.339 14.5436 9.47208 14.0993 9.51817C13.509 9.57941 12.8074 9.58473 12.584 9.52964C12.3411 9.46976 12.137 9.36012 11.9898 9.21049C11.7459 8.96254 11.6512 8.66685 11.662 8.18679L11.6683 7.91052L13.9903 7.8999L16.3122 7.88927L16.4144 7.84022C16.6269 7.7382 16.7558 7.53055 16.8658 7.11288C17.0722 6.32988 17.0621 5.59124 16.8361 4.935C16.6005 4.25101 16.1255 3.70684 15.5019 3.40649C15.1593 3.24148 14.8486 3.15934 14.4154 3.11933C14.1863 3.09816 14.1163 3.09729 13.794 3.11164ZM34.4521 3.5353C34.18 3.56292 33.8527 3.61694 33.6153 3.67343C32.4625 3.94765 31.4559 4.59724 30.7213 5.54102C30.1366 6.29227 29.7607 7.19113 29.6435 8.11906C29.6046 8.42673 29.6278 9.04856 29.6869 9.28122C29.9377 10.2692 30.7 10.9373 31.7873 11.1219C32.0817 11.1719 32.5696 11.153 32.8541 11.0806C33.2281 10.9854 33.5358 10.8232 33.756 10.605C33.8308 10.531 33.8772 10.4987 33.8826 10.5169C33.8873 10.5327 33.9026 10.5865 33.9165 10.6364C33.9757 10.8487 34.2471 11.0613 34.5175 11.1072C34.5932 11.1201 34.9383 11.1301 35.307 11.1301C35.8515 11.1301 35.9665 11.1249 35.9882 11.0994C36.0092 11.0748 36.0052 11.061 35.9681 11.0303C35.8928 10.968 35.799 10.8092 35.7633 10.6838C35.6719 10.363 35.6958 10.135 35.9015 9.36622C36.6138 6.70373 37.1021 4.62814 37.1007 4.26929C37.0998 4.05504 36.9994 3.90972 36.7827 3.80918C36.6331 3.7398 36.205 3.63588 35.8522 3.5833C35.5742 3.54189 34.6869 3.51145 34.4521 3.5353ZM37.4795 3.62096C37.4861 3.64259 37.6594 4.38709 37.8646 5.27538C38.1829 6.65311 38.4326 7.73276 39.1088 10.6544L39.2176 11.1243L38.4073 12.8113C37.9617 13.7392 37.569 14.5587 37.5348 14.6324L37.4725 14.7665L38.4042 14.7599C39.2969 14.7537 39.3401 14.7515 39.4341 14.7088C39.5799 14.6426 39.7086 14.5035 39.8041 14.3087C39.8505 14.2143 40.0548 13.7976 40.2583 13.3827C40.7663 12.3468 43.169 7.50405 44.6735 4.48378L45.1208 3.58592H44.2974C43.8445 3.58592 43.4133 3.5921 43.3391 3.59967C43.1592 3.61799 43.0063 3.70824 42.901 3.85831C42.8574 3.92047 42.322 4.96473 41.7113 6.17889C41.1007 7.39306 40.5947 8.37501 40.587 8.361C40.5793 8.347 40.5524 8.24948 40.5273 8.14428C40.5021 8.03909 40.4024 7.62788 40.3056 7.23049C40.2088 6.83309 39.9921 5.93899 39.8241 5.24359C39.656 4.54819 39.5008 3.94094 39.4791 3.89414C39.4244 3.77641 39.3204 3.68112 39.1988 3.63743C39.1101 3.60555 38.985 3.59922 38.2818 3.59106C37.4971 3.58197 37.4679 3.58305 37.4795 3.62096ZM14.2545 4.65778C14.5644 4.72181 14.8503 4.92499 14.9714 5.16724C15.0823 5.38914 15.1078 5.53161 15.0987 5.87959C15.0942 6.04988 15.0828 6.20114 15.0733 6.21574C15.0597 6.23659 14.7185 6.24231 13.4871 6.24231H11.9182L11.9324 6.18387C11.974 6.01286 12.0644 5.76639 12.1389 5.62033C12.412 5.08512 12.7966 4.78489 13.358 4.6686C13.5887 4.62081 14.0487 4.61526 14.2545 4.65778ZM35.1258 5.20236C35.1508 5.22678 34.8671 6.22471 34.4526 7.5705C34.305 8.04972 34.1516 8.55583 34.1117 8.6952L34.0391 8.94862L33.8205 9.04899C33.4182 9.23366 33.1106 9.3173 32.7624 9.33662C32.1263 9.37194 31.7005 9.09568 31.5715 8.56399C31.545 8.45485 31.5398 8.36211 31.5497 8.17616C31.5893 7.43785 31.9513 6.69064 32.5542 6.10307C33.037 5.63242 33.6166 5.32169 34.2144 5.21286C34.382 5.18237 35.0969 5.17412 35.1258 5.20236Z" fill="#454447"/>
</svg>
