<svg width="20" height="20" viewBox="0 0 20 20" fill="none" xmlns="http://www.w3.org/2000/svg">
<path d="M17.7056 3.90662C18.159 4.5007 18.5428 5.14612 18.8493 5.82992L10.155 12.3253L6.52136 10.0168V7.23972L10.155 9.54813L17.7056 3.90662Z" fill="#454447"/>
<path d="M2.81264 9.82069C2.81264 9.69607 2.81564 9.57228 2.82163 9.4492L0.619567 9.33984C0.612072 9.49936 0.607577 9.66041 0.607577 9.82293C0.60664 11.0929 0.853115 12.3505 1.33287 13.5236C1.81262 14.6968 2.5162 15.7624 3.40325 16.6593L4.96524 15.0771C4.28241 14.3879 3.74073 13.5687 3.37131 12.6666C3.00189 11.7645 2.81204 10.7973 2.81264 9.82069Z" fill="#454447"/>
<path d="M10.1511 2.38203C10.274 2.38203 10.3962 2.38659 10.5176 2.39266L10.6278 0.160204C10.4699 0.152608 10.311 0.148811 10.1511 0.148811C8.89746 0.147261 7.6559 0.396693 6.49765 0.882782C5.33939 1.36887 4.2873 2.08205 3.40176 2.98136L4.96374 4.56436C5.64384 3.87212 6.45225 3.32295 7.34249 2.94842C8.23273 2.5739 9.18721 2.38141 10.1511 2.38203Z" fill="#454447"/>
<path d="M10.1543 17.2597C10.0314 17.2597 9.9092 17.2597 9.78707 17.2498L9.67688 19.4815C9.83527 19.4896 9.99443 19.4937 10.1543 19.4937C11.4074 19.495 12.6484 19.2454 13.806 18.7592C14.9637 18.2729 16.0151 17.5596 16.9 16.6604L15.341 15.0781C14.6607 15.77 13.8524 16.3189 12.9624 16.6932C12.0723 17.0676 11.118 17.2601 10.1543 17.2597Z" fill="#454447"/>
<path d="M14.2902 3.67997L16.146 2.29371C14.4498 0.901712 12.3324 0.143963 10.1498 0.147842V2.38182C11.6278 2.37996 13.0715 2.83262 14.2902 3.67997Z" fill="#454447"/>
<path d="M19.6964 9.82044C19.6976 9.23929 19.6475 8.65914 19.5465 8.08704L17.4921 9.62142C17.4921 9.68754 17.4921 9.75361 17.4921 9.82044C17.4927 10.8598 17.2777 11.8877 16.8612 12.8374C16.4446 13.7871 15.8358 14.6376 15.0742 15.3336L16.556 16.9934C17.5461 16.0874 18.3374 14.9808 18.8784 13.7451C19.4194 12.5094 19.6981 11.1723 19.6964 9.82044Z" fill="#454447"/>
<path d="M10.1521 17.2593C9.12652 17.2597 8.11225 17.0417 7.17499 16.6196C6.23777 16.1975 5.39846 15.5806 4.71142 14.8088L3.07449 16.3098C3.96825 17.3134 5.06018 18.1154 6.27947 18.6639C7.49875 19.2123 8.81814 19.4949 10.1521 19.4933V17.2593Z" fill="#454447"/>
<path d="M5.23057 4.30731L3.74953 2.64758C2.75911 3.55331 1.96759 4.6599 1.42631 5.89559C0.88504 7.13128 0.606099 8.46847 0.60758 9.82045H2.81264C2.81219 8.78117 3.0272 7.7533 3.44372 6.80356C3.86025 5.85384 4.46901 5.00338 5.23057 4.30731Z" fill="#454447"/>
</svg>
