<svg width="50" height="50" viewBox="0 0 50 50" fill="none" xmlns="http://www.w3.org/2000/svg">
<path d="M43.75 31.5708L6.25 35.8614V45.0414L43.75 32.6981V31.5708Z" fill="url(#paint0_linear_401_8769)"/>
<path d="M2.67798 50.0001L47.3208 35.306V21.5747H2.67798V50.0001ZM4.46369 35.0588C4.46369 34.6016 4.80444 34.2175 5.25541 34.1655L44.5411 29.6708C44.794 29.6402 45.0479 29.7214 45.2369 29.8934C45.4267 30.0641 45.5351 30.3081 45.5351 30.5641V33.3501C45.5351 33.7388 45.2868 34.0837 44.9195 34.2045L5.63383 47.1357C5.36178 47.2253 5.06393 47.1782 4.83234 47.009C4.60076 46.8397 4.46369 46.5693 4.46369 46.2814V35.0588Z" fill="url(#paint1_linear_401_8769)"/>
<path d="M49.1071 14.3833H0.892857C0.400045 14.3837 0.000348214 14.7861 0 15.2822V18.878C0.00034875 19.3742 0.400045 19.7766 0.892857 19.7769H49.1071C49.6 19.7766 49.9997 19.3742 50 18.878V15.2822C49.9997 14.7861 49.6 14.3837 49.1071 14.3833ZM3.57143 17.9791H2.67857C2.18541 17.9791 1.78571 17.5766 1.78571 17.0801C1.78571 16.5836 2.18541 16.1812 2.67857 16.1812H3.57143C4.06459 16.1812 4.46429 16.5836 4.46429 17.0801C4.46429 17.5766 4.06459 17.9791 3.57143 17.9791ZM25.4464 17.9791H24.5536C24.0604 17.9791 23.6607 17.5766 23.6607 17.0801C23.6607 16.5836 24.0604 16.1812 24.5536 16.1812H25.4464C25.9396 16.1812 26.3393 16.5836 26.3393 17.0801C26.3393 17.5766 25.9396 17.9791 25.4464 17.9791ZM47.3214 17.9791H46.4286C45.9354 17.9791 45.5357 17.5766 45.5357 17.0801C45.5357 16.5836 45.9354 16.1812 46.4286 16.1812H47.3214C47.8146 16.1812 48.2143 16.5836 48.2143 17.0801C48.2143 17.5766 47.8146 17.9791 47.3214 17.9791Z" fill="url(#paint2_linear_401_8769)"/>
<path d="M4.46369 2.69682C4.46369 2.2003 4.86339 1.79788 5.35655 1.79788C5.84971 1.79788 6.24941 2.2003 6.24941 2.69682V12.5852H8.03512V2.69682C8.03512 2.2003 8.43482 1.79788 8.92798 1.79788C9.42114 1.79788 9.82084 2.2003 9.82084 2.69682V12.5852H11.6066V2.69682C11.6066 2.2003 12.0062 1.79788 12.4994 1.79788C12.9926 1.79788 13.3923 2.2003 13.3923 2.69682V12.5852H15.178V2.69682C15.178 2.2003 15.5777 1.79788 16.0708 1.79788C16.564 1.79788 16.9637 2.2003 16.9637 2.69682V12.5852H18.7494V2.69682C18.7494 2.2003 19.1491 1.79788 19.6423 1.79788C20.1354 1.79788 20.5351 2.2003 20.5351 2.69682V12.5852H22.3208V2.69682C22.3208 2.2003 22.7205 1.79788 23.2137 1.79788C23.7069 1.79788 24.1066 2.2003 24.1066 2.69682V12.5852H25.8923V2.69682C25.8923 2.2003 26.292 1.79788 26.7851 1.79788C27.2783 1.79788 27.678 2.2003 27.678 2.69682V12.5852H29.4637V2.69682C29.4637 2.2003 29.8634 1.79788 30.3566 1.79788C30.8497 1.79788 31.2494 2.2003 31.2494 2.69682V12.5852H33.0351V2.69682C33.0351 2.2003 33.4348 1.79788 33.928 1.79788C34.4211 1.79788 34.8208 2.2003 34.8208 2.69682V12.5852H36.6066V2.69682C36.6066 2.2003 37.0062 1.79788 37.4994 1.79788C37.9926 1.79788 38.3923 2.2003 38.3923 2.69682V12.5852H40.178V2.69682C40.178 2.2003 40.5777 1.79788 41.0708 1.79788C41.564 1.79788 41.9637 2.2003 41.9637 2.69682V12.5852H43.7494V2.69682C43.7494 2.2003 44.1491 1.79788 44.6423 1.79788C45.1354 1.79788 45.5351 2.2003 45.5351 2.69682V12.5852H47.3208V0.898941C47.3205 0.402771 46.9208 0.000350587 46.428 0H3.57084C3.07802 0.000351144 2.67833 0.402771 2.67798 0.898941V12.5852H4.46369V2.69682Z" fill="url(#paint3_linear_401_8769)"/>
<defs>
<linearGradient id="paint0_linear_401_8769" x1="20.032" y1="26.645" x2="40.8146" y2="52.0509" gradientUnits="userSpaceOnUse">
<stop stop-color="#BD2F2F"/>
<stop offset="1" stop-color="#FF4848"/>
</linearGradient>
<linearGradient id="paint1_linear_401_8769" x1="19.0852" y1="11.1803" x2="60.9076" y2="40.0239" gradientUnits="userSpaceOnUse">
<stop stop-color="#BD2F2F"/>
<stop offset="1" stop-color="#FF4848"/>
</linearGradient>
<linearGradient id="paint2_linear_401_8769" x1="18.3761" y1="12.411" x2="22.3097" y2="28.4243" gradientUnits="userSpaceOnUse">
<stop stop-color="#BD2F2F"/>
<stop offset="1" stop-color="#FF4848"/>
</linearGradient>
<linearGradient id="paint3_linear_401_8769" x1="19.0852" y1="-4.60204" x2="37.0965" y2="23.4543" gradientUnits="userSpaceOnUse">
<stop stop-color="#BD2F2F"/>
<stop offset="1" stop-color="#FF4848"/>
</linearGradient>
</defs>
</svg>
