<svg width="44" height="50" viewBox="0 0 44 50" fill="none" xmlns="http://www.w3.org/2000/svg">
<path d="M0 48.4375H44V50.0001H0V48.4375Z" fill="url(#paint0_linear_401_8777)"/>
<path d="M18.8518 46.8748C17.806 44.8199 16.2236 43.0976 14.2786 41.8957C12.3338 40.6943 10.101 40.06 7.82496 40.0625C7.43537 40.0625 7.04113 40.0625 6.65649 40.1199L6.79982 41.6825C7.13794 41.6513 7.48143 41.6356 7.82454 41.6356L7.8249 41.6353C9.81714 41.6309 11.7723 42.1835 13.4769 43.2327C15.1811 44.2816 16.569 45.7868 17.4887 47.5833L18.8518 46.8748Z" fill="url(#paint1_linear_401_8777)"/>
<path d="M4.47449 42.1873L4.00305 40.6978C3.29499 40.9299 2.60913 41.226 1.95361 41.5831L2.68133 42.9582H2.68097C3.25499 42.6472 3.85511 42.3893 4.47457 42.1873L4.47449 42.1873Z" fill="url(#paint2_linear_401_8777)"/>
<path d="M5.29319 44.9217C5.06766 45.0518 4.84212 45.1924 4.62695 45.3384L5.49299 46.63C5.67063 46.5083 5.85327 46.3938 6.04128 46.2863C7.47382 45.4642 9.14014 45.1651 10.7629 45.4391C12.3859 45.713 13.8679 46.5431 14.9623 47.7915L16.105 46.7499C14.7811 45.2328 12.985 44.2235 11.0174 43.8911C9.04937 43.5583 7.02885 43.922 5.29317 44.9218L5.29319 44.9217Z" fill="url(#paint3_linear_401_8777)"/>
<path d="M33.8796 40.2705C30.1102 40.9615 26.8684 43.3887 25.1023 46.8434L26.4652 47.5675C28.0125 44.5429 30.8508 42.4177 34.1513 41.8124L33.8796 40.2705Z" fill="url(#paint4_linear_401_8777)"/>
<path d="M27.875 46.8747L29.0435 47.9162C30.208 46.536 31.8346 45.6434 33.6089 45.4112L33.4141 43.8486H33.4145C31.2635 44.1266 29.2898 45.2045 27.8751 46.8746L27.875 46.8747Z" fill="url(#paint5_linear_401_8777)"/>
<path d="M38.3288 44.6669C37.1511 44.0943 35.863 43.7935 34.5576 43.7866V45.3492C35.636 45.3536 36.6997 45.6006 37.6729 46.0729L38.3288 44.6669Z" fill="url(#paint6_linear_401_8777)"/>
<path d="M10.2434 14.5835V28.9529C10.2699 29.989 10.6494 30.9837 11.3178 31.7667C11.9862 32.5496 12.9016 33.072 13.907 33.2446V33.3333H30.0889V33.2446C31.0943 33.072 32.0097 32.5496 32.6781 31.7667C33.3465 30.9837 33.7261 29.989 33.7525 28.9529V14.5835H14.8604V23.9585H13.3231V14.5835H10.2434ZM14.8549 25.521V28.6461H13.3176L13.3179 25.521H14.8549Z" fill="url(#paint7_linear_401_8777)"/>
<path d="M39.4547 0H4.6267V1.15094H4.61133V7.81247H39.4548L39.4547 0Z" fill="url(#paint8_linear_401_8777)"/>
<path d="M36.8936 13.0207H37.4111V9.375H6.66138V13.0207H36.8936Z" fill="url(#paint9_linear_401_8777)"/>
<path d="M26.3894 39.5832C27.3455 39.6053 28.2712 39.2424 28.9647 38.5729C29.6577 37.9033 30.062 36.982 30.0891 36.0101V34.8955H13.9072V36.0156C13.9355 36.9864 14.3404 37.9062 15.0335 38.5747C15.7266 39.2432 16.652 39.6058 17.607 39.5833L26.3894 39.5832Z" fill="url(#paint10_linear_401_8777)"/>
<path d="M22.7407 47.209L25.5125 43.9225V41.1465H18.4827V43.9225L21.2545 47.209H22.7407Z" fill="url(#paint11_linear_401_8777)"/>
<defs>
<linearGradient id="paint0_linear_401_8777" x1="16.1709" y1="47.8661" x2="16.5662" y2="52.7533" gradientUnits="userSpaceOnUse">
<stop stop-color="#BD2F2F"/>
<stop offset="1" stop-color="#FF4848"/>
</linearGradient>
<linearGradient id="paint1_linear_401_8777" x1="11.1385" y1="37.3124" x2="22.3253" y2="45.2782" gradientUnits="userSpaceOnUse">
<stop stop-color="#BD2F2F"/>
<stop offset="1" stop-color="#FF4848"/>
</linearGradient>
<linearGradient id="paint2_linear_401_8777" x1="2.88012" y1="39.8712" x2="5.69096" y2="41.2477" gradientUnits="userSpaceOnUse">
<stop stop-color="#BD2F2F"/>
<stop offset="1" stop-color="#FF4848"/>
</linearGradient>
<linearGradient id="paint3_linear_401_8777" x1="8.84538" y1="42.3008" x2="15.0154" y2="50.036" gradientUnits="userSpaceOnUse">
<stop stop-color="#BD2F2F"/>
<stop offset="1" stop-color="#FF4848"/>
</linearGradient>
<linearGradient id="paint4_linear_401_8777" x1="28.428" y1="37.6022" x2="38.0762" y2="42.8563" gradientUnits="userSpaceOnUse">
<stop stop-color="#BD2F2F"/>
<stop offset="1" stop-color="#FF4848"/>
</linearGradient>
<linearGradient id="paint5_linear_401_8777" x1="29.9823" y1="42.3612" x2="35.713" y2="45.9086" gradientUnits="userSpaceOnUse">
<stop stop-color="#BD2F2F"/>
<stop offset="1" stop-color="#FF4848"/>
</linearGradient>
<linearGradient id="paint6_linear_401_8777" x1="35.9436" y1="42.9506" x2="39.3629" y2="45.4274" gradientUnits="userSpaceOnUse">
<stop stop-color="#BD2F2F"/>
<stop offset="1" stop-color="#FF4848"/>
</linearGradient>
<linearGradient id="paint7_linear_401_8777" x1="18.8835" y1="7.72725" x2="43.8224" y2="21.4585" gradientUnits="userSpaceOnUse">
<stop stop-color="#BD2F2F"/>
<stop offset="1" stop-color="#FF4848"/>
</linearGradient>
<linearGradient id="paint8_linear_401_8777" x1="17.4171" y1="-2.8568" x2="27.3778" y2="16.6515" gradientUnits="userSpaceOnUse">
<stop stop-color="#BD2F2F"/>
<stop offset="1" stop-color="#FF4848"/>
</linearGradient>
<linearGradient id="paint9_linear_401_8777" x1="17.9626" y1="8.04186" x2="20.8507" y2="18.7391" gradientUnits="userSpaceOnUse">
<stop stop-color="#BD2F2F"/>
<stop offset="1" stop-color="#FF4848"/>
</linearGradient>
<linearGradient id="paint10_linear_401_8777" x1="19.8544" y1="33.181" x2="26.6397" y2="43.4643" gradientUnits="userSpaceOnUse">
<stop stop-color="#BD2F2F"/>
<stop offset="1" stop-color="#FF4848"/>
</linearGradient>
<linearGradient id="paint11_linear_401_8777" x1="21.0663" y1="38.9296" x2="28.7835" y2="42.8592" gradientUnits="userSpaceOnUse">
<stop stop-color="#BD2F2F"/>
<stop offset="1" stop-color="#FF4848"/>
</linearGradient>
</defs>
</svg>
