<svg width="65" height="50" viewBox="0 0 65 50" fill="none" xmlns="http://www.w3.org/2000/svg">
<path d="M30.1393 24.7647L21.437 29.7027L23.6988 31.095L27.2202 28.7148C27.5466 28.4938 27.9847 28.5876 28.1985 28.9234C28.4122 29.2587 28.3221 29.7094 27.9957 29.9299L25.046 31.9237L34.8011 37.9295L40.3942 34.499L37.2673 32.4887C37.0591 32.3548 36.9329 32.1184 36.9354 31.8644C36.9384 31.611 37.0686 31.3772 37.2803 31.2474L39.1116 30.1255C38.9749 30.0447 30.0033 24.6786 30.1394 24.7647L30.1393 24.7647Z" fill="url(#paint0_linear_401_8774)"/>
<path d="M7.89526 19.158C10.5451 21.5401 12.5436 25.4377 12.929 28.8099L42.1879 11.3267C42.0217 7.40289 39.3494 2.76884 36.0773 0.826429C34.5519 -0.0801006 33.1642 -0.247496 32.1684 0.357196L4.25513 17.0426C5.29142 17.3187 6.56957 17.9759 7.89564 19.158L7.89526 19.158Z" fill="url(#paint1_linear_401_8774)"/>
<path d="M1.80941 24.2281C1.80941 21.676 3.76231 20.2672 6.15929 21.678C8.07771 22.8271 9.59052 25.3937 9.75123 27.6816L11.4924 28.7143C11.0789 25.696 9.2746 22.327 6.96823 20.2543C3.45434 17.1226 0.0286249 17.769 4.51646e-05 22.3146C-0.0129708 26.2498 2.78906 31.2469 6.11917 33.2238L34.3721 50.0002L34.3796 47.8807L5.42693 30.6731C3.3979 29.4673 1.80897 26.636 1.80897 24.228L1.80941 24.2281Z" fill="url(#paint2_linear_401_8774)"/>
<path d="M64.3012 29.1437L39.6688 14.5127L12.6501 30.6575C12.6496 30.658 12.6491 30.6585 12.6486 30.659C12.5099 30.7409 12.195 30.8105 11.9427 30.659L8.70668 28.7393C8.4859 28.6085 8.35074 28.3659 8.35274 28.1047C8.36525 26.2525 7.03756 23.8863 5.45414 22.9371C4.10898 22.1454 3.22339 22.7151 3.22339 24.2278C3.22339 26.1006 4.55651 28.4762 6.13454 29.4136C51.7736 56.5158 26.7311 41.644 35.0885 46.6066L63.7489 29.4742L64.3012 29.1437ZM19.2785 29.2565L29.8162 23.2869C30.0395 23.1607 30.3114 23.1674 30.5281 23.3044L33.1279 24.9505L38.9476 21.5603C39.1639 21.4346 39.4282 21.4341 39.6445 21.5598L51.1484 28.2495C51.3641 28.3752 51.5008 28.608 51.5073 28.8635C51.5133 29.119 51.3887 29.359 51.1789 29.496L46.6658 32.4371L48.1782 33.4219C48.5081 33.6362 48.6067 34.0848 48.3974 34.4243C48.1892 34.7627 47.7496 34.8636 47.4232 34.6499L44.9667 33.0511C44.7619 32.9182 44.6377 32.6864 44.6377 32.4371C44.6377 32.1878 44.7619 31.9566 44.9662 31.8232L49.4257 28.9177L39.2971 23.0273L34.5492 25.7937L40.8655 29.479C41.0843 29.6067 41.221 29.8447 41.2235 30.1038C41.2265 30.3628 41.0943 30.6034 40.8786 30.7363L38.9977 31.888L42.1242 33.8983C42.3324 34.0322 42.4586 34.2686 42.4561 34.5226C42.4531 34.776 42.3229 35.0093 42.1111 35.1396L35.1614 39.4018C34.9396 39.5378 34.6598 39.5383 34.437 39.4013L19.2654 30.1331C18.939 29.9333 18.9465 29.4444 19.2789 29.2565L19.2785 29.2565Z" fill="url(#paint3_linear_401_8774)"/>
<path d="M35.7941 47.8809L35.7866 49.9917L64.993 32.5349L65.0005 30.4092L35.7941 47.8809Z" fill="url(#paint4_linear_401_8774)"/>
<defs>
<linearGradient id="paint0_linear_401_8774" x1="28.4042" y1="19.9493" x2="47.1259" y2="31.787" gradientUnits="userSpaceOnUse">
<stop stop-color="#BD2F2F"/>
<stop offset="1" stop-color="#FF4848"/>
</linearGradient>
<linearGradient id="paint1_linear_401_8774" x1="18.1962" y1="-10.535" x2="57.4969" y2="12.1881" gradientUnits="userSpaceOnUse">
<stop stop-color="#BD2F2F"/>
<stop offset="1" stop-color="#FF4848"/>
</linearGradient>
<linearGradient id="paint2_linear_401_8774" x1="12.6352" y1="6.7299" x2="51.3681" y2="25.1856" gradientUnits="userSpaceOnUse">
<stop stop-color="#BD2F2F"/>
<stop offset="1" stop-color="#FF4848"/>
</linearGradient>
<linearGradient id="paint3_linear_401_8774" x1="25.6708" y1="2.77686" x2="75.3849" y2="44.3232" gradientUnits="userSpaceOnUse">
<stop stop-color="#BD2F2F"/>
<stop offset="1" stop-color="#FF4848"/>
</linearGradient>
<linearGradient id="paint4_linear_401_8774" x1="46.5234" y1="23.2484" x2="74.7814" y2="41.7606" gradientUnits="userSpaceOnUse">
<stop stop-color="#BD2F2F"/>
<stop offset="1" stop-color="#FF4848"/>
</linearGradient>
</defs>
</svg>
