<svg width="30" height="30" viewBox="0 0 30 30" fill="none" xmlns="http://www.w3.org/2000/svg">
<path d="M4.52358 26.2415C4.52358 26.6807 4.17185 27.0367 3.73786 27.0367C3.30388 27.0367 2.95215 26.6807 2.95215 26.2415C2.95215 25.8023 3.30388 25.4463 3.73786 25.4463C4.17185 25.4463 4.52358 25.8023 4.52358 26.2415Z" fill="url(#paint0_linear_401_8771)"/>
<path d="M27.046 26.2415C27.046 26.6807 26.6943 27.0367 26.2603 27.0367C25.8263 27.0367 25.4746 26.6807 25.4746 26.2415C25.4746 25.8023 25.8263 25.4463 26.2603 25.4463C26.6943 25.4463 27.046 25.8023 27.046 26.2415Z" fill="url(#paint1_linear_401_8771)"/>
<path d="M4.52358 3.44558C4.52358 3.8848 4.17185 4.24077 3.73786 4.24077C3.30388 4.24077 2.95215 3.8848 2.95215 3.44558C2.95215 3.00636 3.30388 2.65039 3.73786 2.65039C4.17185 2.65039 4.52358 3.00636 4.52358 3.44558Z" fill="url(#paint2_linear_401_8771)"/>
<path d="M27.046 3.44558C27.046 3.8848 26.6943 4.24077 26.2603 4.24077C25.8263 4.24077 25.4746 3.8848 25.4746 3.44558C25.4746 3.00636 25.8263 2.65039 26.2603 2.65039C26.6943 2.65039 27.046 3.00636 27.046 3.44558Z" fill="url(#paint3_linear_401_8771)"/>
<path d="M27.0473 0H2.95206C1.50624 0.00165665 0.334632 1.18738 0.333008 2.65064V27.0365C0.334645 28.4997 1.50624 29.6855 2.95206 29.6871H27.0473C28.4931 29.6855 29.6647 28.4997 29.6663 27.0365V2.65064C29.6647 1.18738 28.4931 0.00164339 27.0473 0ZM26.2616 1.59038C27.274 1.59038 28.0949 2.4212 28.0949 3.44583C28.0949 4.47046 27.274 5.30127 26.2616 5.30127C25.2492 5.30127 24.4282 4.47046 24.4282 3.44583C24.4295 2.42162 25.2496 1.5916 26.2616 1.59038ZM3.73777 1.59038C4.75019 1.59038 5.5711 2.4212 5.5711 3.44583C5.5711 4.47046 4.75019 5.30127 3.73777 5.30127C2.72535 5.30127 1.90444 4.47046 1.90444 3.44583C1.90566 2.42162 2.72577 1.5916 3.73777 1.59038ZM1.5341 10.7579L10.9627 1.21558C11.1677 1.01181 11.4967 1.01326 11.7001 1.21889C11.9033 1.42473 11.9047 1.75772 11.7034 1.96521L2.2748 11.5075C2.06977 11.7113 1.74077 11.7098 1.53738 11.5042C1.3342 11.2983 1.33277 10.9654 1.5341 10.7579ZM1.5341 14.4688L14.6293 1.21558C14.8344 1.01181 15.1634 1.01326 15.3668 1.21889C15.5699 1.42473 15.5714 1.75772 15.37 1.96521L2.2748 15.2184C2.06977 15.4222 1.74077 15.4207 1.53738 15.2151C1.3342 15.0092 1.33277 14.6763 1.5341 14.4688ZM3.73777 28.0967C2.72535 28.0967 1.90444 27.2659 1.90444 26.2413C1.90444 25.2167 2.72535 24.3859 3.73777 24.3859C4.75019 24.3859 5.5711 25.2167 5.5711 26.2413C5.56988 27.2655 4.74977 28.0955 3.73777 28.0967ZM26.2616 28.0967C25.2492 28.0967 24.4282 27.2659 24.4282 26.2413C24.4282 25.2167 25.2492 24.3859 26.2616 24.3859C27.274 24.3859 28.0949 25.2167 28.0949 26.2413C28.0937 27.2655 27.2736 28.0955 26.2616 28.0967ZM28.4652 18.9293L19.0367 28.4715C18.8317 28.6753 18.5027 28.6739 18.2993 28.4682C18.0961 28.2624 18.0946 27.9294 18.296 27.7219L27.7246 18.1796C27.9296 17.9759 28.2586 17.9773 28.462 18.1829C28.6652 18.3888 28.6666 18.7218 28.4652 18.9293ZM28.4652 15.2184L15.37 28.4715C15.165 28.6753 14.836 28.6739 14.6326 28.4682C14.4294 28.2624 14.428 27.9294 14.6293 27.7219L27.7246 14.4687C27.9296 14.265 28.2586 14.2664 28.462 14.472C28.6652 14.6779 28.6666 15.0109 28.4652 15.2184Z" fill="url(#paint4_linear_401_8771)"/>
<defs>
<linearGradient id="paint0_linear_401_8771" x1="3.52968" y1="24.8647" x2="5.35786" y2="25.658" gradientUnits="userSpaceOnUse">
<stop stop-color="#BD2F2F"/>
<stop offset="1" stop-color="#FF4848"/>
</linearGradient>
<linearGradient id="paint1_linear_401_8771" x1="26.0521" y1="24.8647" x2="27.8803" y2="25.658" gradientUnits="userSpaceOnUse">
<stop stop-color="#BD2F2F"/>
<stop offset="1" stop-color="#FF4848"/>
</linearGradient>
<linearGradient id="paint2_linear_401_8771" x1="3.52968" y1="2.06883" x2="5.35786" y2="2.86207" gradientUnits="userSpaceOnUse">
<stop stop-color="#BD2F2F"/>
<stop offset="1" stop-color="#FF4848"/>
</linearGradient>
<linearGradient id="paint3_linear_401_8771" x1="26.0521" y1="2.06883" x2="27.8803" y2="2.86207" gradientUnits="userSpaceOnUse">
<stop stop-color="#BD2F2F"/>
<stop offset="1" stop-color="#FF4848"/>
</linearGradient>
<linearGradient id="paint4_linear_401_8771" x1="11.1136" y1="-10.8557" x2="45.2396" y2="3.95142" gradientUnits="userSpaceOnUse">
<stop stop-color="#BD2F2F"/>
<stop offset="1" stop-color="#FF4848"/>
</linearGradient>
</defs>
</svg>
