<svg width="63" height="60" viewBox="0 0 63 60" fill="none" xmlns="http://www.w3.org/2000/svg">
<path d="M62.9994 58.5339C62.9994 59.2884 62.4044 59.918 61.6868 59.9974C61.6355 60.0033 1.48474 59.9974 1.43197 59.9974C0.64144 59.9974 0 59.3423 0 58.5339V1.46451C0 0.656581 0.64144 0.0015243 1.43197 0.0015243C1.47224 0.0015243 61.5297 -0.00190538 61.569 0.0015243C62.3039 0.0632583 63 0.697746 63 1.46451L62.9994 58.5339ZM16.5058 34.9561L4.5621 30.0521C4.19536 29.9017 3.77828 30.0835 3.63111 30.4583C3.48346 30.8331 3.66131 31.2594 4.02854 31.4098L15.1425 35.9732L8.08243 41.2386L8.28569 40.8599L7.2521 41.687L7.76936 40.1877L6.70175 41.4656L6.92706 39.4641L6.0464 41.3695L5.68637 39.3812L5.42222 41.1215L4.90975 39.8398L4.91742 41.4626L4.17723 40.3959L4.45001 41.881L3.32247 40.9021L3.95048 42.2632L2.5746 41.5479L3.73906 42.9785L2.08079 42.7992L3.51226 43.6546L1.9988 43.9986L3.55779 44.3553L2.19099 45.1804L3.76054 45.0216L2.84441 46.0544L4.17133 45.54L3.45607 46.9937L4.77059 45.9143L4.53616 47.8418L5.46092 46.1549L5.77828 47.4523L6.12392 46.0736L7.13018 47.7885L6.85213 45.9767L8.5957 47.5185L7.58656 45.7792L9.09622 46.5338L7.95668 45.302L9.29329 45.6283L8.06651 44.7028H10.0291L8.14947 44.0184L9.47307 43.5813L7.93519 43.3888L9.61642 42.1899L9.03155 42.3422L16.7087 36.6167L54.6519 52.196L55.0513 52.4346L53.5378 52.7786L55.0968 53.1353L53.73 53.9604L55.2995 53.8016L54.3834 54.8344L55.7103 54.32L54.9951 55.7737L56.3096 54.6943L56.0752 56.6218L56.9999 54.9349L57.3173 56.2323L57.6629 54.8536L58.6529 56.54L58.3878 54.7565L60.151 56.3259L59.1255 54.5591L60.6352 55.3136L59.4957 54.0819L60.8323 54.4082L59.6055 53.4827H61.5681L59.6884 52.7982L61.0121 52.3612L59.4742 52.1686L61.1636 50.9643L59.3994 51.4264L60.4527 50.1074L59.1842 50.8222L59.8045 49.6566L58.7911 50.467L59.3083 48.9677L58.2407 50.2456L58.466 48.2442L57.5854 50.1495L57.2253 48.1612L56.9617 49.9016L56.4487 48.6198L56.4564 50.2426L55.7162 49.176L55.989 50.661L54.8614 49.6821L55.4439 50.9441L54.7564 50.6619L54.1136 50.3278L54.1989 50.4331L18.072 35.5989L38.323 20.4962L58.5324 25.5877C58.9164 25.6843 59.3042 25.4447 59.3991 25.0522C59.4936 24.6603 59.2591 24.2634 58.8751 24.1669L40.0232 19.4173L54.1845 18.5653L53.7296 18.8402L55.2991 18.6814L54.383 19.7143L55.7099 19.1998L54.9947 20.6535L56.3092 19.5741L56.0748 21.5016L56.9995 19.8147L57.3169 21.1121L57.6625 19.7334L58.6525 21.4198L58.3874 19.6363L60.1506 21.2057L59.1251 19.4389L60.6348 20.1934L59.4953 18.9617L60.8319 19.288L59.6051 18.3625H61.5677L59.6881 17.6781L61.0117 17.241L59.4738 17.0485L61.1632 15.8442L59.399 16.3062L60.4523 14.9872L59.1838 15.702L59.8041 14.5364L58.7907 15.3468L59.3079 13.8476L58.2403 15.1254L58.4656 13.124L57.585 15.0293L57.2249 13.0411L56.9613 14.7814L56.4483 13.4996L56.456 15.1224L55.7158 14.0558L55.9886 15.5408L54.861 14.5619L55.4891 15.9231L54.1132 15.2077L55.2776 16.6384L53.6194 16.459L54.6448 17.072L41.885 17.8397L59.1255 4.98217C59.4448 4.74406 59.5148 4.28644 59.2818 3.95965C59.0488 3.63334 58.6011 3.56181 58.2813 3.79993L39.2428 17.9983L35.3261 18.234L8.90072 11.5765L9.47265 11.3874L7.93476 11.1949L9.61599 9.99595L7.86432 10.4526L8.92475 9.13459L7.64999 9.84845L8.28519 8.66668L7.25161 9.49322L7.76887 7.99399L6.70125 9.27222L6.92657 7.27028L6.04591 9.17564L5.68588 7.18737L5.42174 8.92817L4.90926 7.64593L4.91693 9.26871L4.17674 8.20209L4.44952 9.68765L3.32198 8.70824L3.94999 10.0694L2.57411 9.35454L3.73857 10.7847L2.0803 10.6058L3.51177 11.4613L1.99831 11.8047L3.5573 12.1614L2.1905 12.987L3.76005 12.8278L2.84392 13.8606L4.17084 13.3466L3.45558 14.8003L4.7701 13.7205L4.53567 15.6479L5.46043 13.961L5.77779 15.2584L6.12344 13.8803L7.12969 15.5946L6.85164 13.7828L8.59521 15.3252L7.58607 13.5854L9.09573 14.3399L7.95619 13.1082L9.2928 13.4345L8.79136 13.0562L30.4967 18.5246L4.22103 20.1052C3.82649 20.1293 3.52494 20.4752 3.54843 20.8789C3.57144 21.2821 3.91038 21.5898 4.30493 21.5663L35.1939 19.708L36.5074 20.0392L16.5058 34.9561Z" fill="url(#paint0_linear_401_8779)"/>
<defs>
<linearGradient id="paint0_linear_401_8779" x1="23.1538" y1="-21.9403" x2="94.9763" y2="11.1761" gradientUnits="userSpaceOnUse">
<stop stop-color="#BD2F2F"/>
<stop offset="1" stop-color="#FF4848"/>
</linearGradient>
</defs>
</svg>
