<svg width="50" height="50" viewBox="0 0 50 50" fill="none" xmlns="http://www.w3.org/2000/svg">
<path d="M5.14713 38.6139V6.61766C5.14713 5.80537 5.80526 5.14722 6.61757 5.14722H38.6138L5.14713 38.6139ZM44.8522 11.3864V43.3826C44.8522 44.1949 44.1941 44.8531 43.3818 44.8531H11.3856L44.8522 11.3864ZM2.51054 49.5692C1.93611 50.1436 1.00528 50.1436 0.430819 49.5692C-0.143606 48.9948 -0.143606 48.0639 0.430819 47.4895L47.4895 0.430819C48.0639 -0.143606 48.9947 -0.143606 49.5692 0.430819C50.1436 1.00524 50.1436 1.93608 49.5692 2.51054L2.51054 49.5692Z" fill="url(#paint0_linear_291_6159)"/>
<defs>
<linearGradient id="paint0_linear_291_6159" x1="18.3761" y1="-18.2836" x2="76.3226" y2="7.16248" gradientUnits="userSpaceOnUse">
<stop stop-color="#BD2F2F"/>
<stop offset="1" stop-color="#FF4848"/>
</linearGradient>
</defs>
</svg>
