<svg width="58" height="50" viewBox="0 0 58 50" fill="none" xmlns="http://www.w3.org/2000/svg">
<path fill-rule="evenodd" clip-rule="evenodd" d="M1.45022 50H56.5501C57.3476 50 58 49.3384 58 48.5297C58 47.7209 57.3476 47.0594 56.5501 47.0594H52.2003V42.6482C52.2003 41.8394 51.5479 41.1778 50.7504 41.1778H29.6817C28.8842 41.1778 28.2318 41.8394 28.2318 42.6482V47.0594H26.9268V42.6482C26.9268 41.8394 26.2744 41.1778 25.4769 41.1778L7.24993 41.1771C6.45245 41.1771 5.80007 41.8387 5.80007 42.6475V47.0587L1.44986 47.059C0.652381 47.059 0 47.7206 0 48.5293C0 49.3381 0.652364 49.9996 1.44986 49.9996L1.45022 50ZM21.4749 24.5317L26.1727 29.2959V38.2504C26.1727 39.0592 26.8251 39.7207 27.6226 39.7207C28.4201 39.7207 29.0725 39.0592 29.0725 38.2504V28.6923C29.0725 28.2955 28.9273 27.9275 28.6519 27.6482L23.4753 22.3986L26.6219 19.0311C27.1728 18.4428 27.1439 17.5165 26.5637 16.9578C25.9836 16.3992 25.0702 16.4284 24.5193 17.0168L23.5189 18.0755L7.65662 1.13595C6.23563 -0.37865 3.90101 -0.37865 2.48002 1.13595C1.10243 2.59162 1.11722 4.98846 2.48002 6.44414L19.4014 24.4863C19.6769 24.7803 20.0538 24.9421 20.4454 24.9421C20.8368 24.9421 21.1996 24.7949 21.475 24.5156L21.4749 24.5317ZM40.6007 39.7214H42.0505C42.848 39.7214 43.5004 39.0599 43.5004 38.2511C43.5004 37.4424 42.848 36.7808 42.0505 36.7808H40.6007C39.8032 36.7808 39.1508 37.4424 39.1508 38.2511C39.1508 39.0599 39.8032 39.7214 40.6007 39.7214ZM20.3005 39.7214H23.2005C23.9979 39.7214 24.6503 39.0599 24.6503 38.2511C24.6503 37.4424 23.998 36.7808 23.2005 36.7808H20.3005C19.503 36.7808 18.8506 37.4424 18.8506 38.2511C18.8506 39.0599 19.503 39.7214 20.3005 39.7214ZM31.901 39.7214H36.2508C37.0483 39.7214 37.7007 39.0599 37.7007 38.2511C37.7007 37.4424 37.0483 36.7808 36.2508 36.7808H31.901C31.1035 36.7808 30.4511 37.4424 30.4511 38.2511C30.4511 39.0599 31.1035 39.7214 31.901 39.7214ZM22.4327 32.5457L18.3872 30.34C17.6767 29.9577 16.8067 30.2224 16.4298 30.9429C16.0529 31.6634 16.3139 32.5457 17.0244 32.9279L21.0843 35.1337C21.7948 35.5159 22.6648 35.2512 23.0417 34.5307C23.4186 33.8102 23.1576 32.9279 22.4471 32.5457H22.4327ZM32.6264 35.1191L35.1347 33.6488C35.8307 33.2369 36.0629 32.34 35.6712 31.6341C35.265 30.9283 34.3806 30.6929 33.6846 31.0901L31.1762 32.5604C30.4802 32.9723 30.2481 33.8692 30.6398 34.575C31.0459 35.2809 31.9304 35.5163 32.6264 35.1191Z" fill="url(#paint0_linear_291_6236)"/>
<defs>
<linearGradient id="paint0_linear_291_6236" x1="21.3162" y1="-18.2836" x2="84.9774" y2="14.1449" gradientUnits="userSpaceOnUse">
<stop stop-color="#BD2F2F"/>
<stop offset="1" stop-color="#FF4848"/>
</linearGradient>
</defs>
</svg>
