<svg width="63" height="42" viewBox="0 0 63 42" fill="none" xmlns="http://www.w3.org/2000/svg">
<path d="M40.9505 32.3857H0V35.5904H3.14989V38.7951C3.14989 40.564 4.56108 41.9998 6.29978 41.9998C8.03849 41.9998 9.44968 40.564 9.44968 38.7951H15.75C15.75 40.564 17.1612 41.9998 18.8999 41.9998C20.6386 41.9998 22.0498 40.564 22.0498 38.7951V35.5904H40.9502V38.7951C40.9502 40.564 42.3614 41.9998 44.1001 41.9998C45.8388 41.9998 47.25 40.564 47.25 38.7951H53.5503C53.5503 40.564 54.9615 41.9998 56.7002 41.9998C58.4389 41.9998 59.8501 40.564 59.8501 38.7951V35.5904H63V32.3857H40.9505Z" fill="url(#paint0_linear_438_8720)"/>
<path d="M5.19057 26.2415C5.19057 26.6807 4.83884 27.0367 4.40485 27.0367C3.97087 27.0367 3.61914 26.6807 3.61914 26.2415C3.61914 25.8023 3.97087 25.4463 4.40485 25.4463C4.83884 25.4463 5.19057 25.8023 5.19057 26.2415Z" fill="url(#paint1_linear_438_8720)"/>
<path d="M27.713 26.2415C27.713 26.6807 27.3613 27.0367 26.9273 27.0367C26.4933 27.0367 26.1416 26.6807 26.1416 26.2415C26.1416 25.8023 26.4933 25.4463 26.9273 25.4463C27.3613 25.4463 27.713 25.8023 27.713 26.2415Z" fill="url(#paint2_linear_438_8720)"/>
<path d="M5.19057 3.44558C5.19057 3.8848 4.83884 4.24077 4.40485 4.24077C3.97087 4.24077 3.61914 3.8848 3.61914 3.44558C3.61914 3.00636 3.97087 2.65039 4.40485 2.65039C4.83884 2.65039 5.19057 3.00636 5.19057 3.44558Z" fill="url(#paint3_linear_438_8720)"/>
<path d="M27.713 3.44558C27.713 3.8848 27.3613 4.24077 26.9273 4.24077C26.4933 4.24077 26.1416 3.8848 26.1416 3.44558C26.1416 3.00636 26.4933 2.65039 26.9273 2.65039C27.3613 2.65039 27.713 3.00636 27.713 3.44558Z" fill="url(#paint4_linear_438_8720)"/>
<path d="M27.7143 0H3.61905C2.17323 0.00165665 1.00162 1.18738 1 2.65064V27.0365C1.00164 28.4997 2.17323 29.6855 3.61905 29.6871H27.7143C29.1601 29.6855 30.3317 28.4997 30.3333 27.0365V2.65064C30.3317 1.18738 29.1601 0.00164339 27.7143 0ZM26.9286 1.59038C27.941 1.59038 28.7619 2.4212 28.7619 3.44583C28.7619 4.47046 27.941 5.30127 26.9286 5.30127C25.9162 5.30127 25.0952 4.47046 25.0952 3.44583C25.0965 2.42162 25.9166 1.5916 26.9286 1.59038ZM4.40476 1.59038C5.41718 1.59038 6.2381 2.4212 6.2381 3.44583C6.2381 4.47046 5.41718 5.30127 4.40476 5.30127C3.39234 5.30127 2.57143 4.47046 2.57143 3.44583C2.57266 2.42162 3.39276 1.5916 4.40476 1.59038ZM2.2011 10.7579L11.6297 1.21558C11.8347 1.01181 12.1637 1.01326 12.3671 1.21889C12.5703 1.42473 12.5717 1.75772 12.3704 1.96521L2.94179 11.5075C2.73676 11.7113 2.40776 11.7098 2.20437 11.5042C2.00119 11.2983 1.99976 10.9654 2.2011 10.7579ZM2.2011 14.4688L15.2963 1.21558C15.5014 1.01181 15.8304 1.01326 16.0338 1.21889C16.2369 1.42473 16.2384 1.75772 16.037 1.96521L2.94179 15.2184C2.73676 15.4222 2.40776 15.4207 2.20437 15.2151C2.00119 15.0092 1.99976 14.6763 2.2011 14.4688ZM4.40476 28.0967C3.39234 28.0967 2.57143 27.2659 2.57143 26.2413C2.57143 25.2167 3.39234 24.3859 4.40476 24.3859C5.41718 24.3859 6.2381 25.2167 6.2381 26.2413C6.23687 27.2655 5.41676 28.0955 4.40476 28.0967ZM26.9286 28.0967C25.9162 28.0967 25.0952 27.2659 25.0952 26.2413C25.0952 25.2167 25.9162 24.3859 26.9286 24.3859C27.941 24.3859 28.7619 25.2167 28.7619 26.2413C28.7607 27.2655 27.9406 28.0955 26.9286 28.0967ZM29.1322 18.9293L19.7037 28.4715C19.4986 28.6753 19.1696 28.6739 18.9662 28.4682C18.7631 28.2624 18.7616 27.9294 18.963 27.7219L28.3915 18.1796C28.5966 17.9759 28.9256 17.9773 29.129 18.1829C29.3321 18.3888 29.3336 18.7218 29.1322 18.9293ZM29.1322 15.2184L16.037 28.4715C15.832 28.6753 15.503 28.6739 15.2996 28.4682C15.0964 28.2624 15.095 27.9294 15.2963 27.7219L28.3915 14.4687C28.5966 14.265 28.9256 14.2664 29.129 14.472C29.3321 14.6779 29.3336 15.0109 29.1322 15.2184Z" fill="url(#paint5_linear_438_8720)"/>
<path d="M36.5236 26.2415C36.5236 26.6807 36.1718 27.0367 35.7379 27.0367C35.3039 27.0367 34.9521 26.6807 34.9521 26.2415C34.9521 25.8023 35.3039 25.4463 35.7379 25.4463C36.1718 25.4463 36.5236 25.8023 36.5236 26.2415Z" fill="url(#paint6_linear_438_8720)"/>
<path d="M59.046 26.2415C59.046 26.6807 58.6943 27.0367 58.2603 27.0367C57.8263 27.0367 57.4746 26.6807 57.4746 26.2415C57.4746 25.8023 57.8263 25.4463 58.2603 25.4463C58.6943 25.4463 59.046 25.8023 59.046 26.2415Z" fill="url(#paint7_linear_438_8720)"/>
<path d="M36.5236 3.44558C36.5236 3.8848 36.1718 4.24077 35.7379 4.24077C35.3039 4.24077 34.9521 3.8848 34.9521 3.44558C34.9521 3.00636 35.3039 2.65039 35.7379 2.65039C36.1718 2.65039 36.5236 3.00636 36.5236 3.44558Z" fill="url(#paint8_linear_438_8720)"/>
<path d="M59.046 3.44558C59.046 3.8848 58.6943 4.24077 58.2603 4.24077C57.8263 4.24077 57.4746 3.8848 57.4746 3.44558C57.4746 3.00636 57.8263 2.65039 58.2603 2.65039C58.6943 2.65039 59.046 3.00636 59.046 3.44558Z" fill="url(#paint9_linear_438_8720)"/>
<path d="M59.0473 0H34.9521C33.5062 0.00165665 32.3346 1.18738 32.333 2.65064V27.0365C32.3346 28.4997 33.5062 29.6855 34.9521 29.6871H59.0473C60.4931 29.6855 61.6647 28.4997 61.6663 27.0365V2.65064C61.6647 1.18738 60.4931 0.00164339 59.0473 0ZM58.2616 1.59038C59.274 1.59038 60.0949 2.4212 60.0949 3.44583C60.0949 4.47046 59.274 5.30127 58.2616 5.30127C57.2492 5.30127 56.4282 4.47046 56.4282 3.44583C56.4295 2.42162 57.2496 1.5916 58.2616 1.59038ZM35.7378 1.59038C36.7502 1.59038 37.5711 2.4212 37.5711 3.44583C37.5711 4.47046 36.7502 5.30127 35.7378 5.30127C34.7254 5.30127 33.9044 4.47046 33.9044 3.44583C33.9057 2.42162 34.7258 1.5916 35.7378 1.59038ZM33.5341 10.7579L42.9627 1.21558C43.1677 1.01181 43.4967 1.01326 43.7001 1.21889C43.9033 1.42473 43.9047 1.75772 43.7034 1.96521L34.2748 11.5075C34.0698 11.7113 33.7408 11.7098 33.5374 11.5042C33.3342 11.2983 33.3328 10.9654 33.5341 10.7579ZM33.5341 14.4688L46.6293 1.21558C46.8344 1.01181 47.1634 1.01326 47.3668 1.21889C47.5699 1.42473 47.5714 1.75772 47.37 1.96521L34.2748 15.2184C34.0698 15.4222 33.7408 15.4207 33.5374 15.2151C33.3342 15.0092 33.3328 14.6763 33.5341 14.4688ZM35.7378 28.0967C34.7254 28.0967 33.9044 27.2659 33.9044 26.2413C33.9044 25.2167 34.7254 24.3859 35.7378 24.3859C36.7502 24.3859 37.5711 25.2167 37.5711 26.2413C37.5699 27.2655 36.7498 28.0955 35.7378 28.0967ZM58.2616 28.0967C57.2492 28.0967 56.4282 27.2659 56.4282 26.2413C56.4282 25.2167 57.2492 24.3859 58.2616 24.3859C59.274 24.3859 60.0949 25.2167 60.0949 26.2413C60.0937 27.2655 59.2736 28.0955 58.2616 28.0967ZM60.4652 18.9293L51.0367 28.4715C50.8317 28.6753 50.5027 28.6739 50.2993 28.4682C50.0961 28.2624 50.0946 27.9294 50.296 27.7219L59.7246 18.1796C59.9296 17.9759 60.2586 17.9773 60.462 18.1829C60.6652 18.3888 60.6666 18.7218 60.4652 18.9293ZM60.4652 15.2184L47.37 28.4715C47.165 28.6753 46.836 28.6739 46.6326 28.4682C46.4294 28.2624 46.428 27.9294 46.6293 27.7219L59.7246 14.4687C59.9296 14.265 60.2586 14.2664 60.462 14.472C60.6652 14.6779 60.6666 15.0109 60.4652 15.2184Z" fill="url(#paint10_linear_438_8720)"/>
<defs>
<linearGradient id="paint0_linear_438_8720" x1="23.1538" y1="28.8702" x2="32.5382" y2="55.8746" gradientUnits="userSpaceOnUse">
<stop stop-color="#BD2F2F"/>
<stop offset="1" stop-color="#FF4848"/>
</linearGradient>
<linearGradient id="paint1_linear_438_8720" x1="4.19667" y1="24.8647" x2="6.02485" y2="25.658" gradientUnits="userSpaceOnUse">
<stop stop-color="#BD2F2F"/>
<stop offset="1" stop-color="#FF4848"/>
</linearGradient>
<linearGradient id="paint2_linear_438_8720" x1="26.7191" y1="24.8647" x2="28.5473" y2="25.658" gradientUnits="userSpaceOnUse">
<stop stop-color="#BD2F2F"/>
<stop offset="1" stop-color="#FF4848"/>
</linearGradient>
<linearGradient id="paint3_linear_438_8720" x1="4.19667" y1="2.06883" x2="6.02485" y2="2.86207" gradientUnits="userSpaceOnUse">
<stop stop-color="#BD2F2F"/>
<stop offset="1" stop-color="#FF4848"/>
</linearGradient>
<linearGradient id="paint4_linear_438_8720" x1="26.7191" y1="2.06883" x2="28.5473" y2="2.86207" gradientUnits="userSpaceOnUse">
<stop stop-color="#BD2F2F"/>
<stop offset="1" stop-color="#FF4848"/>
</linearGradient>
<linearGradient id="paint5_linear_438_8720" x1="11.7806" y1="-10.8557" x2="45.9066" y2="3.95142" gradientUnits="userSpaceOnUse">
<stop stop-color="#BD2F2F"/>
<stop offset="1" stop-color="#FF4848"/>
</linearGradient>
<linearGradient id="paint6_linear_438_8720" x1="35.5297" y1="24.8647" x2="37.3579" y2="25.658" gradientUnits="userSpaceOnUse">
<stop stop-color="#BD2F2F"/>
<stop offset="1" stop-color="#FF4848"/>
</linearGradient>
<linearGradient id="paint7_linear_438_8720" x1="58.0521" y1="24.8647" x2="59.8803" y2="25.658" gradientUnits="userSpaceOnUse">
<stop stop-color="#BD2F2F"/>
<stop offset="1" stop-color="#FF4848"/>
</linearGradient>
<linearGradient id="paint8_linear_438_8720" x1="35.5297" y1="2.06883" x2="37.3579" y2="2.86207" gradientUnits="userSpaceOnUse">
<stop stop-color="#BD2F2F"/>
<stop offset="1" stop-color="#FF4848"/>
</linearGradient>
<linearGradient id="paint9_linear_438_8720" x1="58.0521" y1="2.06883" x2="59.8803" y2="2.86207" gradientUnits="userSpaceOnUse">
<stop stop-color="#BD2F2F"/>
<stop offset="1" stop-color="#FF4848"/>
</linearGradient>
<linearGradient id="paint10_linear_438_8720" x1="43.1136" y1="-10.8557" x2="77.2396" y2="3.95142" gradientUnits="userSpaceOnUse">
<stop stop-color="#BD2F2F"/>
<stop offset="1" stop-color="#FF4848"/>
</linearGradient>
</defs>
</svg>
