<svg width="58" height="50" viewBox="0 0 58 50" fill="none" xmlns="http://www.w3.org/2000/svg">
<path d="M36.3073 10.0464C36.3073 8.19884 37.8153 6.58221 39.7873 6.58221H44.6593V5.08105H34.9153V15.0118H36.8873V31.5238H38.6273V38.3367C38.6273 43.5331 34.4513 47.6901 29.2313 47.6901C24.0113 47.6901 19.7193 43.5331 19.7193 38.4522V37.413H25.8673V6.23513H0V37.2981H17.4V38.3374C17.4 44.8039 22.62 50.0002 29.116 50.0002C35.612 50.0002 40.832 44.8039 40.832 38.3374V31.5245H42.572V15.0124H44.66V13.5113H39.788C37.816 13.5113 36.308 12.0101 36.308 10.0471L36.3073 10.0464ZM2.31868 17.8986V10.0464C2.31868 9.46905 2.89867 8.89168 3.47868 8.89168H22.6193C23.3153 8.89168 23.7793 9.46905 23.7793 10.0464V17.8986C23.7793 18.5914 23.3153 19.0533 22.6193 19.0533H3.47868C2.78268 19.0533 2.31868 18.5914 2.31868 17.8986ZM7.30667 33.4869C4.98668 33.4869 3.13068 31.6393 3.13068 29.2143C3.13068 26.7894 4.98668 25.0573 7.30667 25.0573C9.62667 25.0573 11.4827 26.9049 11.4827 29.2143C11.4827 31.5238 9.62667 33.4869 7.30667 33.4869ZM14.3827 29.3298C14.3827 27.0203 16.2387 25.1728 18.5587 25.1728C20.8787 25.1728 22.7347 27.0203 22.7347 29.3298C22.7347 31.6393 20.8787 33.6023 18.5587 33.6023C16.2387 33.4869 14.3827 31.6393 14.3827 29.3298Z" fill="url(#paint0_linear_401_8775)"/>
<path d="M49.8797 8.8916H39.6717C38.9757 8.8916 38.5117 9.3535 38.5117 10.0463C38.5117 10.7392 38.9757 11.2011 39.6717 11.2011H49.8797C50.5757 11.2011 51.0397 10.7392 51.0397 10.0463C51.0397 9.3535 50.5757 8.8916 49.8797 8.8916Z" fill="url(#paint1_linear_401_8775)"/>
<path d="M56.84 8.8916H53.36C52.664 8.8916 52.2 9.3535 52.2 10.0463C52.2 10.7392 52.664 11.2011 53.36 11.2011H56.84C57.536 11.2011 58 10.7392 58 10.0463C58 9.3535 57.536 8.8916 56.84 8.8916Z" fill="url(#paint2_linear_401_8775)"/>
<path d="M53.0119 7.50571H53.2439L56.7239 6.6974C57.3039 6.58193 57.7679 5.88909 57.6519 5.31172C57.5359 4.73435 56.8399 4.27246 56.2599 4.38793L52.7799 5.19624C52.1999 5.31172 51.7359 6.00456 51.8519 6.58193C51.9679 7.15929 52.4319 7.50571 53.0119 7.50571Z" fill="url(#paint3_linear_401_8775)"/>
<path d="M56.6083 13.3942L53.1283 12.5858C52.5483 12.4704 51.8523 12.8168 51.7363 13.5096C51.6203 14.087 51.9683 14.7798 52.6643 14.8953L56.1443 15.7036H56.3763C56.9563 15.7036 57.4203 15.3572 57.5363 14.7798C57.6523 14.2025 57.3043 13.6251 56.6083 13.3942Z" fill="url(#paint4_linear_401_8775)"/>
<path d="M4.87183 0H20.9952V3.9261H4.87183V0Z" fill="url(#paint5_linear_401_8775)"/>
<path d="M7.30839 27.3672C6.26439 27.3672 5.45239 28.1755 5.45239 29.2148C5.45239 30.254 6.26439 31.1778 7.30839 31.1778C8.35239 31.1778 9.16439 30.3695 9.16439 29.2148C9.28039 28.291 8.35239 27.3672 7.30839 27.3672Z" fill="url(#paint6_linear_401_8775)"/>
<path d="M11.8321 13.9725C11.8321 13.3952 12.4121 12.8178 12.9921 12.8178C13.5721 12.8178 14.1521 13.3952 14.1521 13.9725V16.7439H21.3441V11.2012H4.64014V16.7439H11.8321V13.9725Z" fill="url(#paint7_linear_401_8775)"/>
<path d="M20.5316 29.331C20.5316 28.2917 19.7196 27.4834 18.6756 27.4834C17.6316 27.4834 16.8196 28.2917 16.8196 29.331C16.8196 30.3702 17.6316 31.294 18.6756 31.294C19.6036 31.1785 20.5316 30.3702 20.5316 29.331Z" fill="url(#paint8_linear_401_8775)"/>
<defs>
<linearGradient id="paint0_linear_401_8775" x1="16.4135" y1="-11.3446" x2="68.2677" y2="11.2948" gradientUnits="userSpaceOnUse">
<stop stop-color="#BD2F2F"/>
<stop offset="1" stop-color="#FF4848"/>
</linearGradient>
<linearGradient id="paint1_linear_401_8775" x1="43.116" y1="8.04709" x2="45.7108" y2="14.2282" gradientUnits="userSpaceOnUse">
<stop stop-color="#BD2F2F"/>
<stop offset="1" stop-color="#FF4848"/>
</linearGradient>
<linearGradient id="paint2_linear_401_8775" x1="54.3316" y1="8.04709" x2="57.9494" y2="12.037" gradientUnits="userSpaceOnUse">
<stop stop-color="#BD2F2F"/>
<stop offset="1" stop-color="#FF4848"/>
</linearGradient>
<linearGradient id="paint3_linear_401_8775" x1="53.9788" y1="3.22352" x2="58.8155" y2="7.17651" gradientUnits="userSpaceOnUse">
<stop stop-color="#BD2F2F"/>
<stop offset="1" stop-color="#FF4848"/>
</linearGradient>
<linearGradient id="paint4_linear_401_8775" x1="53.8621" y1="11.4159" x2="58.7053" y2="15.3745" gradientUnits="userSpaceOnUse">
<stop stop-color="#BD2F2F"/>
<stop offset="1" stop-color="#FF4848"/>
</linearGradient>
<linearGradient id="paint5_linear_401_8775" x1="10.7975" y1="-1.43566" x2="16.0393" y2="8.01731" gradientUnits="userSpaceOnUse">
<stop stop-color="#BD2F2F"/>
<stop offset="1" stop-color="#FF4848"/>
</linearGradient>
<linearGradient id="paint6_linear_401_8775" x1="6.82025" y1="25.9738" x2="11.1659" y2="27.8376" gradientUnits="userSpaceOnUse">
<stop stop-color="#BD2F2F"/>
<stop offset="1" stop-color="#FF4848"/>
</linearGradient>
<linearGradient id="paint7_linear_401_8775" x1="10.7792" y1="9.17436" x2="19.172" y2="20.2814" gradientUnits="userSpaceOnUse">
<stop stop-color="#BD2F2F"/>
<stop offset="1" stop-color="#FF4848"/>
</linearGradient>
<linearGradient id="paint8_linear_401_8775" x1="18.1838" y1="26.09" x2="22.5216" y2="27.9455" gradientUnits="userSpaceOnUse">
<stop stop-color="#BD2F2F"/>
<stop offset="1" stop-color="#FF4848"/>
</linearGradient>
</defs>
</svg>
