<svg width="56" height="50" viewBox="0 0 56 50" fill="none" xmlns="http://www.w3.org/2000/svg">
<path d="M38.7042 25.4502C38.5584 25.3651 10.3833 8.97655 6.20037 6.54297L6.16846 16.9833L38.6723 35.8894L38.7042 25.4502Z" fill="url(#paint0_linear_401_8776)"/>
<path d="M0.0172405 35.1292L0.0107721 37.3666L5.74406 40.7L5.75182 38.4578C5.63453 38.3897 -0.362662 34.9085 0.0173197 35.1292H0.0172405Z" fill="url(#paint1_linear_401_8776)"/>
<path d="M50.5106 23.9614L50.4929 29.6747L55.3974 26.802L50.5106 23.9614Z" fill="url(#paint2_linear_401_8776)"/>
<path d="M9.73087 36.8402C9.55708 36.9418 6.79854 38.556 6.97142 38.4548L6.96495 40.6878L11.6391 37.9554C11.5205 37.8863 9.60926 36.7689 9.73091 36.8402H9.73087Z" fill="url(#paint3_linear_401_8776)"/>
<path d="M2.78495 32.8045L0.631348 34.0652C0.748643 34.1334 6.74064 37.6154 6.3611 37.3947L8.51603 36.1336C8.39916 36.0658 2.40541 32.5838 2.78495 32.8045Z" fill="url(#paint4_linear_401_8776)"/>
<path d="M15.188 46.1905L20.9315 49.53L20.9333 48.8569V47.2848L15.194 43.9482L15.188 46.1905Z" fill="url(#paint5_linear_401_8776)"/>
<path d="M39.8899 35.8839L49.2718 30.356L49.305 19.9604L39.9213 25.4501L39.8899 35.8839ZM40.9938 26.4333C40.9938 26.2153 41.109 26.0138 41.2957 25.9035L47.3093 22.3724C47.716 22.1318 48.2248 22.4362 48.2248 22.9013C48.2248 23.1133 48.202 29.1787 48.2011 29.4024C48.2054 29.504 48.1933 29.6065 48.1433 29.7025C48.0782 29.8271 47.9751 29.9084 47.86 29.9644L41.8848 33.4598C41.4833 33.6965 40.9676 33.4046 40.9702 32.9269L40.9938 26.4333Z" fill="url(#paint6_linear_401_8776)"/>
<path d="M44.547 15.0599C44.6966 14.9722 49.5079 12.1559 49.2612 12.3006L43.5146 8.96191L38.8008 11.7208C38.9181 11.7885 44.9303 15.2827 44.547 15.0599Z" fill="url(#paint7_linear_401_8776)"/>
<path d="M47.6635 16.8742L49.8562 15.5975L49.8636 13.3662L45.7617 15.7669L47.6635 16.8742Z" fill="url(#paint8_linear_401_8776)"/>
<path d="M39.3124 24.3874C42.0094 22.808 48.8918 18.7818 48.7012 18.8939L16.1974 0L6.80859 5.48185C13.9653 9.64907 32.1521 20.2245 39.3124 24.3869V24.3874Z" fill="url(#paint9_linear_401_8776)"/>
<path d="M46.9877 28.3495L47.0041 23.9707L43.2588 26.1698C43.3774 26.2389 47.2063 28.4776 46.9876 28.3494L46.9877 28.3495Z" fill="url(#paint10_linear_401_8776)"/>
<path d="M46.6288 33.3592L46.5964 43.7908L55.9676 38.3021L55.9995 27.8691C55.8801 27.9391 46.5064 33.4308 46.6288 33.3592H46.6288ZM54.9076 37.2963C54.914 37.3966 54.9046 37.4978 54.858 37.5938C54.795 37.7241 54.6898 37.8092 54.5716 37.8678L48.5904 41.3672C48.1911 41.6026 47.6749 41.3134 47.6762 40.8361L47.6883 34.3398C47.6883 34.1209 47.8043 33.9185 47.9927 33.8087C48.1769 33.701 54.1684 30.2029 54.0188 30.2903C54.2068 30.1813 54.4397 30.1808 54.6285 30.2907C54.817 30.401 54.9321 30.6038 54.9317 30.8236L54.9076 37.2963Z" fill="url(#paint11_linear_401_8776)"/>
<path d="M36.0268 39.5628L36.0052 49.9939L45.3768 44.5052C45.3777 44.1838 45.4105 33.4065 45.4083 34.0731C45.2884 34.1431 35.4227 39.9163 36.0269 39.5628H36.0268ZM44.024 36.4934C44.2124 36.6028 44.3289 36.8056 44.3289 37.0249C44.3284 37.1457 44.3159 43.6441 44.3164 43.5238C44.3155 43.7618 44.1995 43.9138 44.0826 44.008C44.0123 44.0649 44.8295 43.5768 37.9871 47.5708C37.58 47.8079 37.0712 47.51 37.0733 47.0379L37.0979 40.5434C37.0979 40.3237 37.2152 40.1204 37.4045 40.0114L43.4138 36.4956C43.6023 36.3844 43.8338 36.3835 44.024 36.4934L44.024 36.4934Z" fill="url(#paint12_linear_401_8776)"/>
<path d="M17.9484 41.6201L15.8018 42.8813L21.5401 46.2199L23.6915 44.961L17.9484 41.6201Z" fill="url(#paint13_linear_401_8776)"/>
<path d="M22.1546 47.2792L22.1503 48.8708V49.5287L26.8278 46.7849L24.9075 45.668C24.7682 45.7496 21.9816 47.3803 22.1544 47.2791L22.1546 47.2792Z" fill="url(#paint14_linear_401_8776)"/>
<path d="M2.30525 20.6533L2.28369 31.0949C3.05775 31.5453 34.9178 50.0756 34.7864 50L34.8084 39.5622C32.4258 38.176 41.988 43.7386 2.30458 20.6539L2.30525 20.6533Z" fill="url(#paint15_linear_401_8776)"/>
<path d="M49.951 34.0853L53.6941 36.2597L53.7104 31.8857C53.5923 31.9548 49.7104 34.2261 49.9509 34.0853H49.951Z" fill="url(#paint16_linear_401_8776)"/>
<path d="M43.1114 38.0908L39.3613 40.2883L43.1023 42.4623L43.1114 38.0908Z" fill="url(#paint17_linear_401_8776)"/>
<path d="M5.55837 18.0451L2.91406 19.5911C6.28245 21.5505 32.7871 36.9686 35.4179 38.4984L38.0608 36.9533C34.1255 34.6642 13.3753 22.593 5.55925 18.0449L5.55837 18.0451Z" fill="url(#paint18_linear_401_8776)"/>
<defs>
<linearGradient id="paint0_linear_401_8776" x1="18.126" y1="-4.18818" x2="54.4856" y2="13.5136" gradientUnits="userSpaceOnUse">
<stop stop-color="#BD2F2F"/>
<stop offset="1" stop-color="#FF4848"/>
</linearGradient>
<linearGradient id="paint1_linear_401_8776" x1="2.11392" y1="33.0784" x2="8.7135" y2="36.0652" gradientUnits="userSpaceOnUse">
<stop stop-color="#BD2F2F"/>
<stop offset="1" stop-color="#FF4848"/>
</linearGradient>
<linearGradient id="paint2_linear_401_8776" x1="52.2954" y1="21.8722" x2="58.2318" y2="24.11" gradientUnits="userSpaceOnUse">
<stop stop-color="#BD2F2F"/>
<stop offset="1" stop-color="#FF4848"/>
</linearGradient>
<linearGradient id="paint3_linear_401_8776" x1="8.68196" y1="35.4288" x2="13.7148" y2="38.1121" gradientUnits="userSpaceOnUse">
<stop stop-color="#BD2F2F"/>
<stop offset="1" stop-color="#FF4848"/>
</linearGradient>
<linearGradient id="paint4_linear_401_8776" x1="3.52914" y1="31.1086" x2="10.4983" y2="36.3425" gradientUnits="userSpaceOnUse">
<stop stop-color="#BD2F2F"/>
<stop offset="1" stop-color="#FF4848"/>
</linearGradient>
<linearGradient id="paint5_linear_401_8776" x1="17.2995" y1="41.9072" x2="23.8945" y2="44.8881" gradientUnits="userSpaceOnUse">
<stop stop-color="#BD2F2F"/>
<stop offset="1" stop-color="#FF4848"/>
</linearGradient>
<linearGradient id="paint6_linear_401_8776" x1="43.3501" y1="14.1377" x2="55.5436" y2="17.3037" gradientUnits="userSpaceOnUse">
<stop stop-color="#BD2F2F"/>
<stop offset="1" stop-color="#FF4848"/>
</linearGradient>
<linearGradient id="paint7_linear_401_8776" x1="42.6486" y1="6.72833" x2="51.8877" y2="13.6824" gradientUnits="userSpaceOnUse">
<stop stop-color="#BD2F2F"/>
<stop offset="1" stop-color="#FF4848"/>
</linearGradient>
<linearGradient id="paint8_linear_401_8776" x1="47.2692" y1="12.0834" x2="51.7566" y2="14.3876" gradientUnits="userSpaceOnUse">
<stop stop-color="#BD2F2F"/>
<stop offset="1" stop-color="#FF4848"/>
</linearGradient>
<linearGradient id="paint9_linear_401_8776" x1="22.2064" y1="-8.91779" x2="59.1175" y2="18.9282" gradientUnits="userSpaceOnUse">
<stop stop-color="#BD2F2F"/>
<stop offset="1" stop-color="#FF4848"/>
</linearGradient>
<linearGradient id="paint10_linear_401_8776" x1="44.6353" y1="22.3676" x2="49.174" y2="24.0703" gradientUnits="userSpaceOnUse">
<stop stop-color="#BD2F2F"/>
<stop offset="1" stop-color="#FF4848"/>
</linearGradient>
<linearGradient id="paint11_linear_401_8776" x1="50.0523" y1="22.047" x2="62.232" y2="25.2058" gradientUnits="userSpaceOnUse">
<stop stop-color="#BD2F2F"/>
<stop offset="1" stop-color="#FF4848"/>
</linearGradient>
<linearGradient id="paint12_linear_401_8776" x1="39.458" y1="28.2108" x2="51.6462" y2="31.3678" gradientUnits="userSpaceOnUse">
<stop stop-color="#BD2F2F"/>
<stop offset="1" stop-color="#FF4848"/>
</linearGradient>
<linearGradient id="paint13_linear_401_8776" x1="18.7014" y1="39.9381" x2="25.6603" y2="45.1796" gradientUnits="userSpaceOnUse">
<stop stop-color="#BD2F2F"/>
<stop offset="1" stop-color="#FF4848"/>
</linearGradient>
<linearGradient id="paint14_linear_401_8776" x1="23.8671" y1="44.2562" x2="28.909" y2="46.9407" gradientUnits="userSpaceOnUse">
<stop stop-color="#BD2F2F"/>
<stop offset="1" stop-color="#FF4848"/>
</linearGradient>
<linearGradient id="paint15_linear_401_8776" x1="14.2372" y1="9.922" x2="50.5894" y2="27.6139" gradientUnits="userSpaceOnUse">
<stop stop-color="#BD2F2F"/>
<stop offset="1" stop-color="#FF4848"/>
</linearGradient>
<linearGradient id="paint16_linear_401_8776" x1="51.3258" y1="30.2863" x2="55.8847" y2="32.0119" gradientUnits="userSpaceOnUse">
<stop stop-color="#BD2F2F"/>
<stop offset="1" stop-color="#FF4848"/>
</linearGradient>
<linearGradient id="paint17_linear_401_8776" x1="40.7395" y1="36.4923" x2="45.2794" y2="38.2025" gradientUnits="userSpaceOnUse">
<stop stop-color="#BD2F2F"/>
<stop offset="1" stop-color="#FF4848"/>
</linearGradient>
<linearGradient id="paint18_linear_401_8776" x1="15.8313" y1="10.5657" x2="46.7902" y2="33.9271" gradientUnits="userSpaceOnUse">
<stop stop-color="#BD2F2F"/>
<stop offset="1" stop-color="#FF4848"/>
</linearGradient>
</defs>
</svg>
