<svg width="62" height="50" viewBox="0 0 62 50" fill="none" xmlns="http://www.w3.org/2000/svg">
<path d="M61.7546 38.0821C61.4281 37.7468 60.9007 37.7468 60.5741 38.0821L51.3986 47.5059C50.4275 48.5033 48.7362 48.5033 47.7652 47.5059L46.5176 46.2334L47.656 45.0642C48.8449 43.8349 48.8449 41.8484 47.656 40.6277L35.289 27.9249C36.3213 25.6518 35.9308 22.8664 34.1032 20.9892L30.2524 17.0342C29.2061 24.0246 23.7978 29.6394 16.8994 30.7226L22.8267 36.8102C24.0236 38.0395 25.9578 38.0395 27.1548 36.8102L27.7743 36.1739L39.8883 48.6156C41.0772 49.8367 43.0109 49.8367 44.2079 48.6069L45.3382 47.4547L46.5772 48.7272C47.381 49.5528 48.4443 49.9997 49.5826 49.9997C50.713 49.9997 51.7762 49.5527 52.5796 48.7272L57.1674 44.0153L61.7551 39.3034C62.0812 38.968 62.0811 38.4175 61.7546 38.0821Z" fill="url(#paint0_linear_401_8772)"/>
<path d="M45.6896 2.89878L44.6764 1.85822C43.8811 1.0414 42.592 1.0414 41.7967 1.85822L33.8853 9.98375L31.2063 7.23231C30.8798 6.89694 30.3524 6.89694 30.0174 7.23231C29.6908 7.56768 29.6908 8.11804 30.0174 8.45343L31.8338 10.319L30.3434 11.8494C30.4941 12.8555 30.5277 13.8441 30.427 14.79L34.5628 19.0372L37.4424 16.0796L39.2589 17.9452C39.5939 18.2718 40.1043 18.2806 40.4479 17.9452C40.7744 17.6011 40.7744 17.0595 40.4479 16.7241L37.7689 13.9727L45.6804 5.84713C46.4766 5.03122 46.4766 3.70678 45.6893 2.8987L45.6896 2.89878Z" fill="url(#paint1_linear_401_8772)"/>
<path d="M15.4855 0.0010979C14.9831 -0.0246288 14.5645 0.405375 14.5645 0.912558C14.4558 55.238 14.5636 1.58054 14.5059 28.2458C14.5059 28.7617 14.9245 29.2 15.4269 29.166C22.9178 28.6519 28.7626 22.2206 28.7626 14.5579C28.7631 6.71029 22.8417 0.473199 15.4853 0.000415972L15.4855 0.0010979Z" fill="url(#paint2_linear_401_8772)"/>
<path d="M9.05777 18.5361C6.95102 16.3815 6.96934 12.8441 9.0855 10.6706C10.0928 9.63599 11.4012 9.0971 12.7144 9.04241L12.731 1.33545C9.3534 1.39701 6.17839 2.77062 3.7903 5.22298C-1.24812 10.4074 -1.26644 18.8184 3.75362 23.9744C6.14492 26.4304 9.30424 27.7893 12.6741 27.8371L12.6907 20.1365C11.3622 20.0983 10.0641 19.5696 9.05765 18.5359L9.05777 18.5361Z" fill="url(#paint3_linear_401_8772)"/>
<defs>
<linearGradient id="paint0_linear_401_8772" x1="33.4747" y1="4.97962" x2="79.2868" y2="32.5024" gradientUnits="userSpaceOnUse">
<stop stop-color="#BD2F2F"/>
<stop offset="1" stop-color="#FF4848"/>
</linearGradient>
<linearGradient id="paint1_linear_401_8772" x1="35.8388" y1="-5.26027" x2="55.409" y2="2.71268" gradientUnits="userSpaceOnUse">
<stop stop-color="#BD2F2F"/>
<stop offset="1" stop-color="#FF4848"/>
</linearGradient>
<linearGradient id="paint2_linear_401_8772" x1="19.7455" y1="-10.6658" x2="38.5863" y2="-6.62187" gradientUnits="userSpaceOnUse">
<stop stop-color="#BD2F2F"/>
<stop offset="1" stop-color="#FF4848"/>
</linearGradient>
<linearGradient id="paint3_linear_401_8772" x1="4.6789" y1="-8.35544" x2="21.5285" y2="-4.80099" gradientUnits="userSpaceOnUse">
<stop stop-color="#BD2F2F"/>
<stop offset="1" stop-color="#FF4848"/>
</linearGradient>
</defs>
</svg>
