<svg width="52" height="103" viewBox="0 0 52 103" fill="none" xmlns="http://www.w3.org/2000/svg">
<path d="M20.6667 6C20.6667 8.94552 23.0545 11.3333 26 11.3333C28.9455 11.3333 31.3333 8.94552 31.3333 6C31.3333 3.05448 28.9455 0.666667 26 0.666667C23.0545 0.666667 20.6667 3.05448 20.6667 6ZM20.6667 97C20.6667 99.9455 23.0545 102.333 26 102.333C28.9455 102.333 31.3333 99.9455 31.3333 97C31.3333 94.0545 28.9455 91.6667 26 91.6667C23.0545 91.6667 20.6667 94.0545 20.6667 97ZM40.6667 97C40.6667 99.9455 43.0545 102.333 46 102.333C48.9455 102.333 51.3333 99.9455 51.3333 97C51.3333 94.0545 48.9455 91.6667 46 91.6667C43.0545 91.6667 40.6667 94.0545 40.6667 97ZM40.6667 6C40.6667 8.94552 43.0545 11.3333 46 11.3333C48.9455 11.3333 51.3333 8.94552 51.3333 6C51.3333 3.05448 48.9455 0.666667 46 0.666667C43.0545 0.666667 40.6667 3.05448 40.6667 6ZM0.666667 97C0.666667 99.9455 3.05448 102.333 6 102.333C8.94552 102.333 11.3333 99.9455 11.3333 97C11.3333 94.0545 8.94552 91.6667 6 91.6667C3.05448 91.6667 0.666667 94.0545 0.666667 97ZM0.666667 6C0.666667 8.94552 3.05448 11.3333 6 11.3333C8.94552 11.3333 11.3333 8.94552 11.3333 6C11.3333 3.05448 8.94552 0.666667 6 0.666667C3.05448 0.666667 0.666667 3.05448 0.666667 6ZM47 97V6H45V97H47ZM7 97V6H5V97H7ZM27 97V6H25V97H27Z" fill="#012137"/>
<rect x="21" y="45" width="10" height="10" fill="white"/>
<g clip-path="url(#clip0_1948_21644)">
<path d="M29.8271 38.8799C29.0159 40.7935 27.7055 42.4835 25.9999 43.7679C24.2943 42.4887 22.9839 40.7987 22.1727 38.8799H19.8691C20.8779 41.7451 22.7915 44.2515 25.4071 45.9831C25.5891 46.1027 25.7971 46.1599 26.0051 46.1599C26.2131 46.1599 26.4211 46.1027 26.6031 45.9831C29.2187 44.2515 31.1375 41.7503 32.1411 38.8799H29.8375H29.8271Z" fill="#012137"/>
</g>
<defs>
<clipPath id="clip0_1948_21644">
<rect width="26" height="26" fill="white" transform="translate(13 29)"/>
</clipPath>
</defs>
</svg>
