<svg width="368" height="200" viewBox="0 0 368 200" fill="none" xmlns="http://www.w3.org/2000/svg">
<path d="M79.2437 229L95.6273 208.807C97.5345 206.457 101.076 206.326 103.151 208.531L108.928 214.669C111.643 217.553 116.473 216.286 117.423 212.441L130.207 160.699C131.064 157.23 135.177 155.753 138.045 157.886L143.907 162.246C146.154 163.917 149.336 163.417 150.962 161.137L163.651 143.34C165.718 140.441 170.065 140.57 171.957 143.585L180.8 157.678C182.884 160.999 187.804 160.74 189.527 157.219L193.811 148.465C195.009 146.016 197.949 144.979 200.419 146.134L213.581 152.287C215.069 152.983 216.804 152.903 218.222 152.075L227.894 146.422C230.173 145.091 233.094 145.759 234.566 147.95L250.448 171.575C251.377 172.956 252.933 173.785 254.598 173.785H265.595C267.072 173.785 268.473 174.438 269.423 175.568L286.413 195.787C287.363 196.917 288.764 197.57 290.241 197.57H300.329C301.597 197.57 302.818 197.088 303.744 196.222L319.105 181.859C320.93 180.153 323.734 180.055 325.673 181.631L334.503 188.805C335.395 189.529 336.508 189.925 337.656 189.925H352.199C353.977 189.925 355.62 188.981 356.517 187.447L369.204 165.728C369.374 165.437 369.573 165.164 369.798 164.913L385.45 147.452L401.002 130.101C401.293 129.777 401.624 129.492 401.989 129.254L422.227 116.022L437.125 103.789C438.742 102.462 441.014 102.281 442.821 103.337L452.709 109.115C454.56 110.197 456.894 109.978 458.512 108.572L471.983 96.8609C472.893 96.07 474.058 95.6344 475.264 95.6344H488.26C489.498 95.6344 490.692 95.175 491.611 94.3451L504.323 82.8651C505.488 81.8126 507.08 81.3687 508.622 81.6666L521.477 84.1499C522.926 84.4298 524.424 84.0554 525.571 83.1269L537.244 73.678C539.15 72.1344 541.895 72.2022 543.724 73.838L555.188 84.0957C555.555 84.4244 555.872 84.8055 556.128 85.2268L571.732 110.925L591.837 142.966C592.284 143.68 592.905 144.268 593.64 144.678L609.308 153.398" stroke="#1FA4F1" stroke-width="2" stroke-linecap="round"/>
<path d="M462.308 139L445.924 118.807C444.017 116.457 440.475 116.326 438.401 118.531L432.624 124.669C429.909 127.553 425.079 126.286 424.129 122.441L411.345 70.6986C410.488 67.2297 406.374 65.7534 403.507 67.8858L397.645 72.2459C395.398 73.9173 392.216 73.417 390.59 71.1366L377.901 53.3399C375.834 50.4414 371.486 50.5698 369.594 53.5852L360.751 67.6784C358.668 70.9987 353.748 70.7397 352.025 67.2189L347.741 58.4654C346.542 56.0163 343.603 54.9791 341.133 56.1339L327.97 62.2871C326.483 62.9827 324.748 62.9032 323.33 62.0746L313.658 56.4223C311.379 55.0907 308.458 55.7594 306.986 57.9497L291.103 81.5745C290.175 82.9562 288.619 83.785 286.954 83.785H275.957C274.48 83.785 273.079 84.4377 272.129 85.5682L255.139 105.787C254.189 106.917 252.788 107.57 251.311 107.57H241.223C239.955 107.57 238.734 107.088 237.808 106.222L222.446 91.8591C220.621 90.1529 217.817 90.0554 215.878 91.6308L207.048 98.8053C206.157 99.5295 205.044 99.9247 203.895 99.9247H189.352C187.575 99.9247 185.932 98.9814 185.035 97.4468L172.347 75.7281C172.177 75.437 171.978 75.1639 171.753 74.9128L156.102 57.4516L140.55 40.1014C140.259 39.7771 139.927 39.4922 139.563 39.2539L119.325 26.0215L104.427 13.7894C102.81 12.4619 100.537 12.2813 98.731 13.3368L88.8429 19.1153C86.992 20.1968 84.6576 19.9782 83.0398 18.5718L69.5684 6.86092C68.6586 6.06998 67.4936 5.63441 66.2881 5.63441H53.2918C52.0536 5.63441 50.8595 5.17499 49.9406 4.34511L37.2292 -7.13487C36.0637 -8.18742 34.4715 -8.63127 32.9296 -8.3334L20.0747 -5.85008C18.6258 -5.57018 17.1273 -5.9446 15.9804 -6.87309L1.00006 -19" stroke="#B4DBFF" stroke-width="2" stroke-linecap="round"/>
<path d="M469.244 20.9998L452.86 41.1927C450.953 43.5433 447.411 43.6735 445.336 41.4692L439.559 35.3311C436.845 32.447 432.014 33.7137 431.064 37.5587L418.281 89.3012C417.424 92.7701 413.31 94.2464 410.443 92.1139L404.581 87.7539C402.333 86.0825 399.151 86.5827 397.526 88.8631L384.836 106.66C382.77 109.558 378.422 109.43 376.53 106.415L367.687 92.3213C365.604 89.001 360.684 89.2601 358.961 92.7808L354.677 101.534C353.478 103.983 350.538 105.021 348.068 103.866L335.177 97.8392C333.542 97.0748 331.622 97.2509 330.153 98.3L309.936 112.742L290.56 123.383C289.822 123.788 288.994 124 288.153 124H273.72C272.566 124 271.447 124.399 270.554 125.13L257.88 135.5C256.387 136.722 254.324 136.975 252.579 136.151L238.749 129.62C237.891 129.215 237.166 128.574 236.659 127.772L224.524 108.592C223.081 106.311 220.089 105.587 217.763 106.957L209.11 112.05C208.341 112.503 207.465 112.742 206.573 112.742H191.061C189.593 112.742 188.2 113.386 187.25 114.504L180.06 122.969C177.681 125.768 173.196 125.133 171.689 121.782L166.19 109.558C164.707 106.26 160.321 105.579 157.907 108.272L147.485 119.898C147.195 120.223 146.863 120.508 146.498 120.746L127.238 133.339C126.595 133.76 126.058 134.322 125.668 134.984L111.966 158.211C110.567 160.583 107.514 161.377 105.136 159.988L96.5421 154.965C94.6913 153.884 92.3569 154.102 90.739 155.509L77.2677 167.22C76.3579 168.011 75.1929 168.446 73.9873 168.446H62.1323C60.2516 168.446 58.5301 169.502 57.6767 171.177L41.1436 203.645C40.1322 205.632 37.9282 206.709 35.7397 206.286L24.132 204.043C22.6831 203.764 21.1846 204.138 20.0376 205.066L5.05731 217.193" stroke="#00D791" stroke-width="2" stroke-linecap="round"/>
</svg>
