<?xml version="1.0" standalone="no"?>
<!DOCTYPE svg PUBLIC "-//W3C//DTD SVG 20010904//EN"
 "http://www.w3.org/TR/2001/REC-SVG-20010904/DTD/svg10.dtd">
<svg version="1.0" xmlns="http://www.w3.org/2000/svg"
 width="1522.000000pt" height="1522.000000pt" viewBox="0 0 1522.000000 1522.000000"
 preserveAspectRatio="xMidYMid meet">
<metadata>
Created by potrace 1.11, written by Peter Selinger 2001-2013
</metadata>
<g transform="translate(0.000000,1522.000000) scale(0.100000,-0.100000)"
fill="#000000" stroke="none">
<path d="M8060 10507 c3 -3 104 -24 225 -47 2426 -456 3594 -1156 3311 -1986
-177 -520 -894 -1056 -1971 -1474 -477 -185 -1118 -353 -1545 -405 -74 -9
-148 -20 -165 -25 -44 -12 952 -12 1265 0 2306 87 3985 394 4995 914 301 155
486 284 671 470 231 232 354 456 354 644 0 286 -205 582 -575 829 -633 421
-1763 736 -3300 917 -555 66 -1137 110 -1910 146 -246 12 -1363 26 -1355 17z"/>
<path d="M5585 9340 c-270 -11 -543 -27 -770 -46 -1966 -163 -3425 -690 -4314
-1558 -308 -302 -398 -451 -417 -688 -12 -161 42 -319 180 -522 491 -723 1452
-1220 2931 -1515 1465 -292 3451 -364 5655 -205 580 41 1522 133 1539 149 5 6
-30 12 -139 25 -742 90 -1572 456 -2134 940 -628 541 -871 1166 -655 1686 120
289 362 548 721 774 386 242 944 455 1616 616 111 27 202 52 202 55 0 3 -57
14 -127 23 -962 130 -1793 209 -2653 251 -366 18 -1330 27 -1635 15z"/>
</g>
</svg>
