<svg width="837" height="850" viewBox="0 0 837 850" fill="none" xmlns="http://www.w3.org/2000/svg">
<path opacity="0.32" fill-rule="evenodd" clip-rule="evenodd" d="M418.5 424.509L274.804 0H179.922L418.5 424.509ZM418.5 424.509L657.078 0H562.196L418.5 424.509ZM418.5 424.509L375.294 0H418.5H461.706L418.5 424.509ZM418.5 424.509L837 255.843V135.962L418.5 424.509ZM418.5 424.509L837 25.131V0H749.132L418.5 424.509ZM418.5 424.509L87.8683 0H0V25.131L418.5 424.509ZM418.5 424.509L837 347.401V424.509V501.617L418.5 424.509ZM418.5 424.509L837 713.057V593.175L418.5 424.509ZM418.5 424.509L749.132 849.019H837V823.888L418.5 424.509ZM418.5 424.509L274.804 849.019H179.922L418.5 424.509ZM418.5 424.509L657.078 849.019H562.196L418.5 424.509ZM418.5 424.509L375.294 849.019H418.5H461.706L418.5 424.509ZM418.5 424.509L87.8683 849.019H0V823.888L418.5 424.509ZM418.5 424.509L0 593.175V713.057L418.5 424.509ZM418.5 424.509L0 347.401V424.509V501.617L418.5 424.509ZM0 135.962L418.5 424.509L0 255.843V135.962Z" fill="url(#paint0_radial_102_812)"/>
<defs>
<radialGradient id="paint0_radial_102_812" cx="0" cy="0" r="1" gradientUnits="userSpaceOnUse" gradientTransform="translate(418.5 424.509) rotate(90) scale(424.509 418.5)">
<stop stop-color="white"/>
<stop offset="1" stop-color="white" stop-opacity="0"/>
</radialGradient>
</defs>
</svg>
