<?xml version="1.0" encoding="UTF-8" standalone="no"?>
<svg
   width="34"
   height="20"
   fill="none"
   version="1.1"
   id="svg4"
   sodipodi:docname="visa.svg"
   inkscape:version="1.1 (c68e22c387, 2021-05-23)"
   xmlns:inkscape="http://www.inkscape.org/namespaces/inkscape"
   xmlns:sodipodi="http://sodipodi.sourceforge.net/DTD/sodipodi-0.dtd"
   xmlns="http://www.w3.org/2000/svg"
   xmlns:svg="http://www.w3.org/2000/svg">
  <defs
     id="defs8" />
  <sodipodi:namedview
     id="namedview6"
     pagecolor="#ffffff"
     bordercolor="#666666"
     borderopacity="1.0"
     inkscape:pageshadow="2"
     inkscape:pageopacity="0.0"
     inkscape:pagecheckerboard="0"
     showgrid="false"
     inkscape:zoom="37.676471"
     inkscape:cx="16.986729"
     inkscape:cy="6.0117096"
     inkscape:window-width="2560"
     inkscape:window-height="1411"
     inkscape:window-x="7191"
     inkscape:window-y="-9"
     inkscape:window-maximized="1"
     inkscape:current-layer="svg4" />
  <g
     id="g826"
     transform="translate(-0.189,4.239)">
    <path
       d="m 14,0.684 -1.692,10.282 h 2.668 L 16.668,0.684 Z m 15.424,0 c -0.651,0 -1.107,0.195 -1.367,0.846 l -3.97,9.501 h 2.799 c 0,0 0.455,-1.301 0.585,-1.562 h 3.384 c 0.065,0.39 0.326,1.562 0.326,1.562 h 2.473 L 31.506,0.684 Z m -1.237,6.638 c 0.195,-0.586 1.041,-2.864 1.041,-2.864 l 0.326,-0.976 0.195,0.911 c 0,0 0.52,2.473 0.65,2.994 H 28.187 Z M 22.005,4.849 C 21.094,4.393 20.508,4.068 20.508,3.547 c 0,-0.455 0.455,-0.91 1.497,-0.91 0.846,0 1.497,0.194 2.017,0.39 l 0.26,0.13 0.39,-2.213 A 6.846,6.846 0 0 0 22.266,0.49 c -2.603,0 -4.49,1.431 -4.49,3.384 0,1.497 1.301,2.343 2.342,2.798 1.042,0.52 1.367,0.846 1.367,1.302 0,0.715 -0.846,0.976 -1.627,0.976 -1.041,0 -1.627,-0.13 -2.538,-0.52 l -0.325,-0.196 -0.39,2.278 c 0.65,0.26 1.756,0.52 2.993,0.52 2.798,0 4.62,-1.366 4.62,-3.514 C 24.283,6.477 23.568,5.566 22.006,4.85 Z M 10.095,0.684 7.492,7.712 7.232,6.281 6.321,1.53 C 6.19,0.88 5.67,0.684 5.084,0.684 h -4.23 c -0.064,0 -0.064,0.065 -0.13,0.065 0,0.065 0,0.13 0.065,0.13 0.651,0.195 1.237,0.39 1.757,0.65 0.586,0.261 0.977,0.782 1.172,1.367 l 2.147,8.07 H 8.664 L 12.829,0.684 Z"
       fill="#454447"
       id="path2" />
  </g>
</svg>
