<svg width="31" height="16" viewBox="0 0 31 16" fill="none" xmlns="http://www.w3.org/2000/svg">
<g clip-path="url(#clip0_501_27)">
<path d="M0 -1.52588e-05V16H31V-1.52588e-05H0Z" fill="#012169"/>
<path d="M30.3077 17.432L15.5 9.78931L0.692345 17.432L-0.692322 14.568L12.0332 7.99998L-0.692322 1.43198L0.692345 -1.43202L15.5 6.21065L30.3077 -1.43202L31.6923 1.43198L18.9668 7.99998L31.6923 14.568L30.3077 17.432Z" fill="white"/>
<path d="M30.5376 16.9547L15.5 9.19199L0.462431 16.9547L-0.462402 15.0453L13.1905 7.99998L-0.462402 0.954652L0.462431 -0.954681L15.5 6.80799L30.5376 -0.954681L31.4624 0.954652L17.8095 7.99998L31.4624 15.0453L30.5376 16.9547Z" fill="#C8102E"/>
<path d="M18.0833 16H12.9167V10.6667H0V5.33332H12.9167V-1.52588e-05H18.0833V5.33332H31V10.6667H18.0833V16Z" fill="white"/>
<path d="M17.05 16H13.95V9.59999H0V6.39998H13.95V-1.52588e-05H17.05V6.39998H31V9.59999H17.05V16Z" fill="#C8102E"/>
</g>
<defs>
<clipPath id="clip0_501_27">
<rect width="31" height="16" fill="white"/>
</clipPath>
</defs>
</svg>
