<svg width="150" height="22" viewBox="0 0 150 22" fill="none" xmlns="http://www.w3.org/2000/svg">
<path d="M33.7281 14.5545L41.4689 2.07816C41.8422 1.47447 42.326 0.614668 43.805 0.614668V0H38.6214V0.629303H39.1052C39.8862 0.629303 40.7467 0.629303 40.7467 1.36105C40.7412 1.6462 40.6571 1.92342 40.5048 2.15866L37.4948 7.02112L33.4309 0.629303H35.0966V0H22.3103V0.629303H24.1902L32.8952 14.4081C31.9276 15.8716 30.6663 16.6034 29.322 16.6034C28.9808 16.6266 28.6415 16.5329 28.3544 16.3363C28.8581 16.1675 29.2976 15.8325 29.6086 15.3802C29.9195 14.9279 30.0855 14.3821 30.0823 13.8227C30.0823 12.1543 28.8486 10.8482 26.8062 10.8482C24.7639 10.8482 23.3505 12.1543 23.3505 13.8703C23.3505 14.9679 24.0727 17.2802 28.6412 17.2802C30.3691 17.2875 32.3285 16.8302 33.7281 14.5545Z" fill="#2E3233"/>
<path d="M66.6993 10.6542L68.0401 9.73224L69.3844 10.6506L68.9559 9.02976L70.2172 7.99068L68.6034 7.91385L68.0367 6.35522L67.4734 7.91751L65.8665 7.998L67.1278 9.03342L66.6993 10.6542Z" fill="#2E3233"/>
<path d="M20.5859 7.91385L20.0157 6.35522L19.4524 7.91751L17.8489 7.998L19.1103 9.03342L18.6818 10.6542L20.0226 9.73224L21.3669 10.6506L20.9349 9.02976L22.1963 7.99068L20.5859 7.91385Z" fill="#2E3233"/>
<path d="M41.697 7.998L42.9584 9.03342L42.5299 10.6542L43.8707 9.73224L45.215 10.6506L44.7865 9.02976L46.0478 7.99068L44.4374 7.91385L43.8672 6.35522L43.3039 7.91751L41.697 7.998Z" fill="#2E3233"/>
<path d="M46.1135 16.296H45.7126V22H46.4037C46.5385 19.4864 48.0936 16.9253 51.615 16.9253H58.5991C62.1205 16.9253 63.6755 19.4864 63.8103 22H64.5015V16.296H61.9753V0.629303H63.9624V0H47.7204V0.629303H48.7398C49.431 0.629303 50.2984 0.72443 50.2984 2.22451V7.15649C50.3053 14.0239 48.6672 16.296 46.1135 16.296ZM51.1105 7.14918V2.02694C51.1105 0.698819 51.8638 0.625644 52.4547 0.625644H53.8785V16.296H48.4772C50.8444 14.291 51.1105 11.3421 51.1105 7.15649V7.14918Z" fill="#2E3233"/>
<path d="M0 0.629303H1.98705V16.296H0V16.9253H12.5202V16.296H10.1011V0.629303H10.6402C12.1334 0.607995 13.5872 1.1363 14.7532 2.12394C15.9193 3.11158 16.7252 4.49726 17.0334 6.04424H17.7245V0H0V0.629303Z" fill="#2E3233"/>
<path d="M76.5655 16.296H76.0782C75.1659 16.296 73.984 16.1277 73.984 14.2179V1.93547H74.0911L79.7862 16.9363H80.9162L86.6631 2.00865H86.7737V16.296H84.7832V16.9253H96.8783V16.296H94.8913V0.629303H96.8783V0H86.7184L84.0299 6.88941H83.9227L81.3171 0H71.1883V0.629303H73.1788V14.2179C73.1788 16.0765 72.0488 16.3692 71.1883 16.296V16.9253H76.5655V16.296Z" fill="#2E3233"/>
<path d="M100.991 16.9253H106.091V16.296H105.072C104.509 16.296 104.035 16.0033 104.035 15.4252C104.045 15.0749 104.118 14.7298 104.249 14.4081L105.538 11.1701H110.618L112.713 16.2924H110.563V16.9217H122.658V16.296H121.276L114.613 0H109.132L103.41 14.4813C103.088 15.2569 102.549 16.2704 100.991 16.3107V16.9253ZM108.03 4.88442L110.342 10.5408H105.801L108.03 4.88442Z" fill="#2E3233"/>
<path d="M98.0498 10.6542L99.3906 9.73224L100.731 10.6506L100.303 9.02976L101.564 7.99068L99.9539 7.91385L99.3837 6.35522L98.8204 7.91751L97.2135 7.998L98.4748 9.03342L98.0498 10.6542Z" fill="#2E3233"/>
<path d="M124.642 7.91385L124.075 6.35522L123.508 7.91751L121.905 7.998L123.163 9.03342L122.738 10.6542L124.078 9.73224L125.419 10.6506L124.991 9.02976L126.252 7.99068L124.642 7.91385Z" fill="#2E3233"/>
<path d="M138.931 0.629303H139.899V7.97971H136.726V0.629303H137.694V0H126.625V0.629303H128.616V16.296H126.625V16.9253H137.694V16.296H136.726V8.60536H139.899V16.296H138.931V16.9253H150V16.296H148.013V0.629303H150V0H138.931V0.629303Z" fill="#2E3233"/>
</svg>
