<svg width="20" height="22" viewBox="0 0 20 22" fill="none" xmlns="http://www.w3.org/2000/svg">
<g clip-path="url(#clip0_401_130)">
<path d="M11.15 11.84C11.74 11.9 11.64 14.9 11.64 14.9V18.5C11.6064 19.1112 11.3317 19.684 10.876 20.0928C10.4204 20.5015 9.82122 20.7127 9.21 20.68C9.21 20.68 5.88 21.05 5.82 17.68V12.92C5.84428 12.7429 5.91963 12.5767 6.03684 12.4417C6.15405 12.3068 6.30805 12.2089 6.48 12.16C6.35112 12.1205 6.22703 12.0669 6.11 12C5.99133 11.942 5.88841 11.8563 5.81 11.75C5.87891 11.65 5.96735 11.5649 6.07 11.5C6.19437 11.4242 6.32912 11.3669 6.47 11.33C6.25604 11.2544 6.07416 11.1083 5.95422 10.9157C5.83428 10.723 5.78342 10.4954 5.81 10.27V4C5.78171 3.61852 5.8386 3.23552 5.97656 2.87873C6.11451 2.52194 6.33008 2.20029 6.60766 1.93708C6.88523 1.67386 7.21786 1.47566 7.58147 1.35683C7.94508 1.238 8.33055 1.20151 8.71 1.25C9.11065 1.20661 9.51591 1.25517 9.89496 1.39198C10.274 1.52879 10.6169 1.75025 10.8975 2.03951C11.178 2.32877 11.389 2.67822 11.5142 3.06126C11.6394 3.44431 11.6756 3.85086 11.62 4.25V5C11.62 5 13.75 5.18 13.75 6.24H14.75C14.75 6.24 14.59 5 16.8 5V2.11C16.8463 1.73262 16.93 1.36079 17.05 1C16.4521 0.813526 15.9163 0.467836 15.5 0C15.5 0 14.19 1.74 9.56 0.44C9.56 0.44 3.64 -0.66 1.69 1.82C1.69 1.82 0.69 2.61 0.69 6.96V10.44C0.677269 10.6363 0.606912 10.8245 0.487735 10.9811C0.368559 11.1376 0.205858 11.2555 0.02 11.32C0.151426 11.3416 0.27722 11.3892 0.39 11.46C0.497037 11.527 0.597486 11.604 0.69 11.69C0.60391 11.8059 0.503058 11.9102 0.39 12L0 12.2C0.204664 12.2925 0.377439 12.4434 0.496637 12.6338C0.615836 12.8242 0.676147 13.0455 0.67 13.27V17.86C0.67 17.86 0.8 21.86 5.75 21.86H12.26C12.26 21.86 16.82 22.47 16.81 18.19C16.8 13.91 16.81 12.28 16.81 12.28" fill="#362811"/>
<path d="M18.4 13.34H19.26V11.1C19.26 11.1 18.19 10.79 17.54 10.63C17.54 10.63 16.28 10.85 14.98 11.04L16.78 14.31C16.71 12.79 16.91 12.2 17.56 12.13C17.56 12.13 18.17 12.13 18.25 12.39C18.345 12.6982 18.3988 13.0177 18.41 13.34" fill="#362811"/>
<path d="M9.74001 13.31H8.74001V11.08C8.74001 11.08 9.74001 10.76 10.46 10.61C10.46 10.61 11.88 10.82 13.34 11.01L11.8 15C11.88 13.49 11.74 11.93 10.37 12C10.37 12 9.99001 12.05 9.92001 12.32C9.80358 12.6407 9.74271 12.9788 9.74001 13.32" fill="#362811"/>
<path d="M9.47 11C10.421 10.4526 11.5504 10.3052 12.61 10.59C13.2975 10.7176 14.0025 10.7176 14.69 10.59C15.8564 10.3652 17.0609 10.4409 18.19 10.81L16.19 11.76V12.68L12.64 12.13L12.19 11.36L9.47 11Z" fill="#362811"/>
</g>
<defs>
<clipPath id="clip0_401_130">
<rect width="19.26" height="21.88" fill="white"/>
</clipPath>
</defs>
</svg>
