<?xml version="1.0" encoding="UTF-8" standalone="no"?>
<svg
   width="100"
   height="44"
   viewBox="0 0 100 44"
   fill="none"
   version="1.1"
   id="svg4"
   sodipodi:docname="logo_text.svg"
   inkscape:version="1.1 (c68e22c387, 2021-05-23)"
   xmlns:inkscape="http://www.inkscape.org/namespaces/inkscape"
   xmlns:sodipodi="http://sodipodi.sourceforge.net/DTD/sodipodi-0.dtd"
   xmlns="http://www.w3.org/2000/svg"
   xmlns:svg="http://www.w3.org/2000/svg">
  <defs
     id="defs8" />
  <sodipodi:namedview
     id="namedview6"
     pagecolor="#ffffff"
     bordercolor="#666666"
     borderopacity="1.0"
     inkscape:pageshadow="2"
     inkscape:pageopacity="0.0"
     inkscape:pagecheckerboard="0"
     showgrid="false"
     inkscape:zoom="5.0235294"
     inkscape:cx="95.351288"
     inkscape:cy="38.120609"
     inkscape:window-width="2400"
     inkscape:window-height="1321"
     inkscape:window-x="4791"
     inkscape:window-y="-9"
     inkscape:window-maximized="1"
     inkscape:current-layer="svg4" />
  <path
     d="m 1.6804,20.493 v -16.8 h 12.792 v 4.392 h -8.448 l 1.224,-1.224 v 13.632 z m 17.5519,4.896 c -0.72,0 -1.456,-0.112 -2.208,-0.336 -0.736,-0.208 -1.328,-0.488 -1.776,-0.84 l 1.8,-3.72 c 0.272,0.208 0.576,0.376 0.912,0.504 0.352,0.128 0.688,0.192 1.008,0.192 0.48,0 0.848,-0.104 1.104,-0.312 0.256,-0.192 0.464,-0.488 0.624,-0.888 l 0.552,-1.392 0.384,-0.528 4.2003,-10.704 h 5.136 l -5.4,13.392 c -0.48,1.2 -1.04,2.136 -1.68,2.808 -0.624,0.672 -1.328,1.144 -2.1123,1.416 -0.768,0.272 -1.616,0.408 -2.544,0.408 z m 1.272,-4.296 -5.712,-13.728 h 5.568 l 3.9363,10.224 z m 19.6363,-2.928 v -6.576 h -2.712 l -0.024,0.816 c -0.016,0.56 -0.048,1.08 -0.096,1.56 -0.032,0.48 -0.104,0.912 -0.216,1.296 -0.112,0.368 -0.28,0.696 -0.504,0.984 -0.208,0.272 -0.504,0.496 -0.888,0.672 l -5.304,-0.672 c 0.416,0 0.76,-0.104 1.032,-0.312 0.272,-0.224 0.48,-0.528 0.624,-0.912 0.16,-0.4 0.272,-0.856 0.336,-1.368 0.08,-0.512 0.128,-1.064 0.144,-1.656 l 0.168,-4.632 h 12.84 v 10.8 z m -10.128,4.92 v -6.84 h 17.28 v 6.84 h -5.016 v -2.592 h -7.248 v 2.592 z m 18.866,-2.592 V 7.365 h 5.736 l 4.176,8.184 h -2.256 l 4.728,-8.184 h 5.088 l 0.048,13.128 h -4.872 l -0.024,-7.896 0.84,0.576 -3.624,6.288 h -2.28 l -3.624,-6.696 0.936,-0.24 v 7.968 z m 27.695,0 v -2.328 l -0.384,-0.624 v -4.416 c 0,-0.64 -0.2,-1.128 -0.6,-1.464 -0.384,-0.336 -1.016,-0.504 -1.896,-0.504 -0.592,0 -1.192,0.096 -1.8,0.288 -0.608,0.176 -1.128,0.424 -1.56,0.744 l -1.728,-3.576 c 0.768,-0.48 1.688,-0.848 2.76,-1.104 1.072,-0.256 2.12,-0.384 3.144,-0.384 2.256,0 4,0.504 5.232,1.512 1.248,1.008 1.872,2.608 1.872,4.8 v 7.056 z m -3.72,0.24 c -1.072,0 -1.968,-0.184 -2.688,-0.552 -0.72,-0.368 -1.264,-0.856 -1.632,-1.464 -0.368,-0.624 -0.552,-1.312 -0.552,-2.064 0,-0.848 0.216,-1.568 0.648,-2.16 0.432,-0.592 1.088,-1.04 1.968,-1.344 0.896,-0.304 2.024,-0.456 3.384,-0.456 h 2.736 v 2.616 h -1.872 c -0.576,0 -1,0.096 -1.272,0.288 -0.256,0.176 -0.384,0.448 -0.384,0.816 0,0.304 0.112,0.56 0.336,0.768 0.24,0.192 0.56,0.288 0.96,0.288 0.368,0 0.704,-0.096 1.008,-0.288 0.32,-0.208 0.552,-0.528 0.696,-0.96 l 0.696,1.608 c -0.208,0.976 -0.648,1.704 -1.32,2.184 -0.672,0.48 -1.576,0.72 -2.712,0.72 z m 10.97,-0.24 V 7.365 h 5.4 v 4.608 h 3.696 V 7.365 h 5.4 v 13.128 h -5.4 v -4.272 h -3.696 v 4.272 z M 8.9833,37.591 c -0.7747,0 -1.47,-0.1633 -2.086,-0.49 -0.616,-0.3267 -1.0967,-0.7793 -1.442,-1.358 -0.3454,-0.588 -0.518,-1.2507 -0.518,-1.988 0,-0.7373 0.1726,-1.3953 0.518,-1.974 0.3453,-0.5787 0.8213,-1.0313 1.428,-1.358 0.616,-0.3267 1.316,-0.49 2.1,-0.49 0.7373,0 1.3813,0.1493 1.932,0.448 0.56,0.2987 0.98,0.728 1.26,1.288 l -1.344,0.784 c -0.2147,-0.3453 -0.4854,-0.602 -0.812,-0.77 -0.3174,-0.1773 -0.6674,-0.266 -1.05,-0.266 -0.6534,0 -1.1947,0.2147 -1.624,0.644 -0.4294,0.42 -0.644,0.9847 -0.644,1.694 0,0.7093 0.21,1.2787 0.63,1.708 0.4293,0.42 0.9753,0.63 1.638,0.63 0.3826,0 0.7326,-0.084 1.05,-0.252 0.3266,-0.1773 0.5973,-0.4387 0.812,-0.784 l 1.344,0.784 c -0.2894,0.56 -0.714,0.994 -1.274,1.302 -0.5507,0.2987 -1.19,0.448 -1.918,0.448 z m 10.5864,-6.09 h -2.618 v 5.992 h -1.75 v -5.992 h -2.632 v -1.484 h 7 z m 7.9409,2.296 c 0,0.1213 -0.009,0.294 -0.028,0.518 H 21.617 c 0.1026,0.5507 0.3686,0.9893 0.7976,1.316 0.439,0.3173 0.98,0.476 1.624,0.476 0.822,0 1.498,-0.2707 2.03,-0.812 l 0.938,1.078 c -0.336,0.4013 -0.76,0.7047 -1.274,0.91 -0.513,0.2053 -1.092,0.308 -1.736,0.308 -0.821,0 -1.544,-0.1633 -2.1696,-0.49 -0.6254,-0.3267 -1.1107,-0.7793 -1.456,-1.358 -0.336,-0.588 -0.504,-1.2507 -0.504,-1.988 0,-0.728 0.1633,-1.3813 0.49,-1.96 0.336,-0.588 0.798,-1.0453 1.386,-1.372 0.588,-0.3267 1.2506,-0.49 1.9876,-0.49 0.728,0 1.377,0.1633 1.946,0.49 0.579,0.3173 1.027,0.77 1.344,1.358 0.327,0.5787 0.49,1.2507 0.49,2.016 z m -3.78,-2.464 c -0.56,0 -1.036,0.168 -1.4276,0.504 -0.3827,0.3267 -0.616,0.7653 -0.7,1.316 h 4.2416 c -0.074,-0.5413 -0.303,-0.98 -0.686,-1.316 -0.382,-0.336 -0.858,-0.504 -1.428,-0.504 z m 5.694,-1.316 h 1.75 v 4.928 l 4.13,-4.928 h 1.596 v 7.476 h -1.75 v -4.928 l -4.116,4.928 h -1.61 z m 3.626,-0.882 c -0.756,0 -1.334,-0.1727 -1.736,-0.518 -0.392,-0.3547 -0.592,-0.868 -0.602,-1.54 h 1.162 c 0.01,0.336 0.112,0.602 0.308,0.798 0.206,0.196 0.49,0.294 0.854,0.294 0.355,0 0.635,-0.098 0.84,-0.294 0.215,-0.196 0.327,-0.462 0.336,-0.798 h 1.19 c -0.009,0.672 -0.214,1.1853 -0.616,1.54 -0.401,0.3453 -0.98,0.518 -1.736,0.518 z m 9.313,5.362 h -1.358 v 2.996 h -1.75 v -7.476 h 1.75 v 3.024 h 1.4 l 2.212,-3.024 h 1.876 l -2.716,3.598 2.898,3.878 h -2.058 z m 4.784,-1.624 h 3.85 v 1.456 h -3.85 z m 10.114,4.62 -1.918,-2.59 -1.932,2.59 h -1.932 l 2.912,-3.794 -2.786,-3.682 h 1.946 l 1.834,2.45 1.834,-2.45 h 1.89 l -2.8,3.654 2.926,3.822 z m 5.875,-7.56 c 1.102,0 1.942,0.266 2.52,0.798 0.588,0.5227 0.882,1.316 0.882,2.38 v 4.382 h -1.652 v -0.91 c -0.214,0.3267 -0.522,0.5787 -0.924,0.756 -0.392,0.168 -0.868,0.252 -1.428,0.252 -0.56,0 -1.05,-0.0933 -1.47,-0.28 -0.42,-0.196 -0.746,-0.462 -0.98,-0.798 -0.224,-0.3453 -0.336,-0.7327 -0.336,-1.162 0,-0.672 0.248,-1.2087 0.742,-1.61 0.504,-0.4107 1.293,-0.616 2.366,-0.616 h 1.932 v -0.112 c 0,-0.5227 -0.158,-0.924 -0.476,-1.204 -0.308,-0.28 -0.77,-0.42 -1.386,-0.42 -0.42,0 -0.835,0.0653 -1.246,0.196 -0.401,0.1307 -0.742,0.3127 -1.022,0.546 l -0.686,-1.274 c 0.392,-0.2987 0.864,-0.5273 1.414,-0.686 0.551,-0.1587 1.134,-0.238 1.75,-0.238 z m -0.238,6.384 c 0.439,0 0.826,-0.098 1.162,-0.294 0.346,-0.2053 0.588,-0.4947 0.728,-0.868 v -0.868 h -1.806 c -1.008,0 -1.512,0.3313 -1.512,0.994 0,0.3173 0.126,0.5693 0.378,0.756 0.252,0.1867 0.602,0.28 1.05,0.28 z m 12.862,-6.3 -3.5,8.078 c -0.327,0.812 -0.724,1.3813 -1.19,1.708 -0.467,0.336 -1.032,0.504 -1.694,0.504 -0.374,0 -0.742,-0.0607 -1.106,-0.182 -0.364,-0.1213 -0.663,-0.2893 -0.896,-0.504 l 0.7,-1.288 c 0.168,0.1587 0.364,0.2847 0.588,0.378 0.233,0.0933 0.466,0.14 0.7,0.14 0.308,0 0.56,-0.0793 0.756,-0.238 0.205,-0.1587 0.392,-0.4247 0.56,-0.798 l 0.126,-0.294 -3.262,-7.504 h 1.82 l 2.352,5.53 2.366,-5.53 z m 4.412,7.574 c -0.775,0 -1.47,-0.1633 -2.086,-0.49 -0.616,-0.3267 -1.097,-0.7793 -1.442,-1.358 -0.345,-0.588 -0.518,-1.2507 -0.518,-1.988 0,-0.7373 0.173,-1.3953 0.518,-1.974 0.345,-0.5787 0.821,-1.0313 1.428,-1.358 0.616,-0.3267 1.316,-0.49 2.1,-0.49 0.737,0 1.381,0.1493 1.932,0.448 0.56,0.2987 0.98,0.728 1.26,1.288 l -1.344,0.784 c -0.215,-0.3453 -0.485,-0.602 -0.812,-0.77 -0.317,-0.1773 -0.667,-0.266 -1.05,-0.266 -0.653,0 -1.195,0.2147 -1.624,0.644 -0.429,0.42 -0.644,0.9847 -0.644,1.694 0,0.7093 0.21,1.2787 0.63,1.708 0.429,0.42 0.975,0.63 1.638,0.63 0.383,0 0.733,-0.084 1.05,-0.252 0.327,-0.1773 0.597,-0.4387 0.812,-0.784 l 1.344,0.784 c -0.289,0.56 -0.714,0.994 -1.274,1.302 -0.551,0.2987 -1.19,0.448 -1.918,0.448 z m 8.373,-5.11 c 0.952,0 1.68,0.2147 2.184,0.644 0.504,0.4293 0.756,1.036 0.756,1.82 0,0.8213 -0.28,1.456 -0.84,1.904 -0.551,0.448 -1.335,0.6673 -2.352,0.658 l -3.388,-0.014 v -7.476 h 1.75 v 2.45 z m 3.906,-2.464 h 1.75 v 7.476 h -1.75 z m -4.312,6.202 c 0.513,0.0093 0.905,-0.098 1.176,-0.322 0.271,-0.224 0.406,-0.5507 0.406,-0.98 0,-0.42 -0.131,-0.728 -0.392,-0.924 -0.261,-0.196 -0.658,-0.2987 -1.19,-0.308 l -1.484,-0.014 v 2.534 z"
     fill="#2e3233"
     id="path2" />
</svg>
