<svg width="89" height="38" viewBox="0 0 89 38" fill="none" xmlns="http://www.w3.org/2000/svg">
<path fill-rule="evenodd" clip-rule="evenodd" d="M5.19967 0.140865C5.94757 0.140865 6.65986 0.281737 7.33653 0.563471C8.0132 0.845206 8.58303 1.2326 9.08163 1.69041C9.58023 2.18345 9.97199 2.74691 10.2569 3.38082C10.5418 4.01472 10.6843 4.71906 10.6843 5.45861V20.0384C10.6843 20.7779 10.5418 21.4823 10.2569 22.1162C9.97199 22.7501 9.58023 23.3135 9.08163 23.8066C8.58303 24.2996 8.0132 24.687 7.33653 24.9335C6.65986 25.2153 5.94757 25.3561 5.19967 25.3561H1.2465H0.961567H0V0.105657H0.961567H1.2465H5.19967V0.140865ZM9.43778 5.49383C9.43778 4.93036 9.33093 4.4021 9.08163 3.87385C8.86795 3.38082 8.54742 2.923 8.19128 2.57083C7.79952 2.18345 7.37215 1.90172 6.87355 1.69041C6.37495 1.47911 5.84072 1.37345 5.23528 1.37345H1.2821V24.1587H5.23528C5.80511 24.1587 6.33933 24.0531 6.87355 23.8418C7.37215 23.6305 7.83514 23.3488 8.19128 22.9614C8.58303 22.574 8.86795 22.1514 9.08163 21.6583C9.29532 21.1653 9.43778 20.6371 9.43778 20.0384V5.49383ZM42.4166 25.3913L40.6359 17.4676H33.3349L31.5542 25.3913H30.2721L35.9348 0.140865H38.036L43.6987 25.3913H42.4166ZM33.5842 16.235H40.3865L37.0032 1.12694L33.5842 16.235ZM56.5198 0.140865H57.7663V25.3913H56.5198L48.5066 3.5569V25.3913H47.2601V0.140865H48.5066L56.5198 21.9753V0.140865ZM72.1545 11.1637H73.401V12.3963V16.1645V20.1792V20.6018C73.3653 21.3062 73.1873 21.9401 72.8668 22.574C72.5818 23.1727 72.1545 23.7009 71.6915 24.1587C71.1929 24.6166 70.6231 24.9687 69.982 25.2153C69.341 25.4618 68.6643 25.6026 67.952 25.6026C67.2041 25.6026 66.4918 25.4618 65.8151 25.18C65.1385 24.8983 64.5686 24.5109 64.07 24.0179C63.5714 23.5248 63.1797 22.9614 62.8948 22.2923C62.6098 21.6231 62.4674 20.9188 62.4674 20.1792V5.42339C62.4674 4.68384 62.6098 3.9795 62.8948 3.31038C63.1797 2.64126 63.5714 2.07779 64.07 1.58476C64.5686 1.09172 65.1385 0.704341 65.8151 0.422606C66.4918 0.140872 67.2041 0 67.952 0C68.6999 0 69.4122 0.140872 70.0532 0.422606C70.6943 0.704341 71.2641 1.09172 71.7627 1.54954C72.2613 2.04257 72.6531 2.60605 72.938 3.27517C73.2229 3.94429 73.3654 4.64863 73.3654 5.38818H72.1545C72.1545 4.82471 72.0476 4.29646 71.7983 3.7682C71.5846 3.27517 71.2641 2.81735 70.908 2.46518C70.5162 2.07779 70.0888 1.79606 69.5902 1.58476C69.0916 1.37346 68.5574 1.23259 67.952 1.23259C67.3822 1.23259 66.8123 1.33824 66.3137 1.58476C65.8151 1.83128 65.3521 2.11301 64.9604 2.46518C64.5686 2.85256 64.2837 3.27517 64.07 3.7682C63.8563 4.26124 63.7139 4.78949 63.7139 5.38818V20.1792C63.7139 20.7427 63.8207 21.3062 64.07 21.7992C64.2837 22.3275 64.6042 22.7501 64.9604 23.1375C65.3521 23.5248 65.7795 23.8066 66.3137 24.0179C66.8479 24.2292 67.3822 24.3701 67.952 24.3701C68.5218 24.3701 69.056 24.2644 69.5902 24.0179C70.0888 23.8066 70.5518 23.4896 70.908 23.1375C71.2997 22.7501 71.5846 22.3275 71.7983 21.7992C72.012 21.271 72.1545 20.7427 72.1545 20.1792V16.1645V12.3963H67.026V11.1637H72.1545ZM83.5866 25.6026C82.8387 25.6026 82.1264 25.4618 81.4498 25.18C80.7731 24.8983 80.2033 24.5109 79.7047 24.0179C79.2061 23.5248 78.8143 22.9614 78.5294 22.2923C78.2445 21.6231 78.1021 20.9188 78.1021 20.1792V5.42339C78.1021 4.68384 78.2445 3.9795 78.5294 3.31038C78.8143 2.64126 79.2061 2.07779 79.7047 1.58476C80.2033 1.09172 80.7731 0.704341 81.4498 0.422606C82.1264 0.140872 82.8387 0 83.5866 0C84.3345 0 85.0468 0.140872 85.6879 0.422606C86.3289 0.704341 86.8988 1.09172 87.3974 1.58476C87.896 2.07779 88.2877 2.64126 88.5726 3.31038C88.8575 3.9795 89 4.68384 89 5.42339V20.1792C89 20.9188 88.8575 21.6231 88.5726 22.2923C88.2877 22.9614 87.896 23.5248 87.3974 24.0179C86.8988 24.5109 86.3289 24.8983 85.6879 25.18C85.0468 25.4618 84.3345 25.6026 83.5866 25.6026ZM83.5866 1.23259C83.0168 1.23259 82.447 1.33824 81.9484 1.58476C81.4498 1.83128 80.9868 2.11301 80.595 2.46518C80.2033 2.85256 79.9184 3.27517 79.7047 3.7682C79.491 4.26124 79.3485 4.78949 79.3485 5.38818V20.1792C79.3485 20.7427 79.4554 21.3062 79.7047 21.7992C79.9184 22.3275 80.2389 22.7501 80.595 23.1375C80.9868 23.5248 81.4142 23.8066 81.9484 24.0179C82.4826 24.2292 83.0168 24.3701 83.5866 24.3701C84.1565 24.3701 84.6907 24.2644 85.2249 24.0179C85.7235 23.8066 86.1865 23.4896 86.5426 23.1375C86.9344 22.7501 87.2193 22.3275 87.433 21.7992C87.6467 21.3062 87.7891 20.7427 87.7891 20.1792V5.38818C87.7891 4.82471 87.6823 4.29646 87.433 3.7682C87.2193 3.27517 86.8988 2.81735 86.5426 2.46518C86.1509 2.07779 85.7235 1.79606 85.2249 1.58476C84.6907 1.33824 84.1565 1.23259 83.5866 1.23259Z" fill="white"/>
<path fill-rule="evenodd" clip-rule="evenodd" d="M26.319 0.140625V1.40843V7.39529V8.69832V20.179C26.319 20.9186 26.1765 21.6229 25.8916 22.292C25.6067 22.9611 25.2149 23.5246 24.7163 24.0176C24.2177 24.5107 23.6479 24.8981 23.0069 25.1798C22.3658 25.4615 21.6535 25.6024 20.9056 25.6024C20.1577 25.6024 19.4454 25.4615 18.7687 25.1798C18.0921 24.8981 17.5223 24.5107 17.0237 24.0176C16.5251 23.5246 16.1333 22.9611 15.8484 22.292C15.5635 21.6229 15.421 20.9186 15.421 20.179V16.1643H16.6675V20.179C16.6675 20.7425 16.7744 21.3059 17.0237 21.799C17.2373 22.3272 17.5579 22.7498 17.914 23.1372C18.3058 23.5246 18.7331 23.8063 19.2674 24.0176C19.8016 24.2289 20.3358 24.3698 20.9056 24.3698C21.4754 24.3698 22.0097 24.2642 22.5439 24.0176C23.0425 23.8063 23.5055 23.4894 23.8616 23.1372C24.2534 22.7498 24.5383 22.3272 24.752 21.799C24.9656 21.3059 25.1081 20.7425 25.1081 20.179V8.69832V7.39529V1.40843H18.3058V0.175844H25.1081H26.319V0.140625Z" fill="#BF4818"/>
<path fill-rule="evenodd" clip-rule="evenodd" d="M20.7275 34.7238C20.6562 34.5477 20.585 34.4068 20.4782 34.266C20.3713 34.1603 20.2645 34.0546 20.122 33.9842C19.9796 33.9138 19.8727 33.8786 19.7659 33.8434C19.8727 33.8081 19.9796 33.7377 20.0864 33.6673C20.1933 33.5968 20.2645 33.5264 20.3713 33.4207C20.4425 33.3151 20.5138 33.1742 20.5494 33.0334C20.585 32.8925 20.6206 32.7164 20.6206 32.5403C20.6206 32.2586 20.585 32.0473 20.4782 31.836C20.3713 31.6599 20.2645 31.519 20.122 31.4134C19.9796 31.3077 19.8015 31.2373 19.6234 31.2021C19.4454 31.1669 19.2673 31.1317 19.0892 31.1317H17.7715V36.9424H19.2673C19.4454 36.9424 19.6234 36.9072 19.8015 36.872C19.9796 36.8368 20.1577 36.7311 20.3001 36.6255C20.4426 36.4846 20.585 36.3437 20.6563 36.1324C20.7631 35.9211 20.7987 35.6746 20.7987 35.3929C20.8343 35.1464 20.7987 34.9351 20.7275 34.7238ZM20.0152 33.139C19.9439 33.2799 19.8727 33.3855 19.7659 33.456C19.6591 33.5264 19.5522 33.5968 19.4454 33.632C19.3029 33.6673 19.1961 33.7025 19.0892 33.7025H18.3413V31.6599H19.0536C19.1961 31.6599 19.3029 31.6599 19.4098 31.6951C19.5522 31.7303 19.659 31.8008 19.7303 31.8712C19.8371 31.9416 19.9083 32.0473 19.9796 32.1882C20.0508 32.329 20.0508 32.4699 20.0508 32.6812C20.0864 32.8221 20.0508 32.9981 20.0152 33.139ZM20.1932 35.8507C20.122 35.9916 20.0508 36.0972 19.944 36.2029C19.8371 36.3085 19.7303 36.379 19.5878 36.4142C19.4454 36.4494 19.3029 36.4846 19.1604 36.4846H18.3413V34.1603H19.1604C19.2673 34.1603 19.4097 34.1955 19.5522 34.2307C19.6947 34.266 19.8015 34.3364 19.9083 34.442C20.0152 34.5477 20.0864 34.6533 20.1576 34.7942C20.2289 34.9351 20.2645 35.1464 20.2645 35.3577C20.2645 35.5338 20.2289 35.7098 20.1932 35.8507ZM25.7847 36.9424L24.3245 31.1317H23.541L22.0452 36.9424H22.6506L23.0068 35.4985H24.8231L25.1792 36.9424H25.7847ZM24.7519 35.0407H23.1136L23.9327 31.6599H23.9684L24.7519 35.0407ZM30.3789 36.9424L29.2393 34.1603C29.3817 34.1603 29.4886 34.0899 29.631 34.0194C29.7735 33.949 29.8803 33.8786 29.9872 33.7377C30.094 33.6321 30.1652 33.456 30.2365 33.2799C30.3077 33.1038 30.3433 32.8925 30.3433 32.646C30.3433 32.3642 30.3077 32.1177 30.2365 31.9064C30.1296 31.6951 30.0228 31.5543 29.8803 31.4134C29.7379 31.2725 29.5598 31.2021 29.3817 31.1669C29.2037 31.1317 28.99 31.0964 28.8119 31.0964H27.3873V36.9072H27.9572V34.1955H28.7051L29.7735 36.9072H30.3789V36.9424ZM29.453 33.5264C29.2749 33.7025 29.0256 33.8081 28.7051 33.8081H27.9215V31.6247H28.6695C28.8119 31.6247 28.9187 31.6247 29.0612 31.6599C29.2037 31.6951 29.3105 31.7656 29.3817 31.836C29.4886 31.9064 29.5598 32.0121 29.631 32.1529C29.7023 32.2938 29.7023 32.4699 29.7023 32.6812C29.7379 33.0686 29.631 33.3151 29.453 33.5264ZM45.2657 36.9424L43.1644 33.8081L45.1589 31.1317H44.4822L42.6302 33.7377V31.1317H42.0604V36.9424H42.6302V33.949L44.589 36.9424H45.2657ZM47.4382 36.9424V31.1317H46.8683V36.9424H47.4382ZM51.7831 31.6247V31.1317H48.934V31.6247H50.0736V36.9424H50.6434V31.6247H51.7831ZM56.3773 36.3085L56.0212 35.9211C55.9144 36.0972 55.7719 36.2733 55.5938 36.379C55.4158 36.5198 55.2377 36.5551 55.024 36.5551C54.7747 36.5551 54.561 36.4846 54.3829 36.3437C54.2049 36.2029 54.0624 36.0268 53.9199 35.8155C53.7775 35.569 53.7063 35.3225 53.635 35.0055C53.5638 34.6885 53.5282 34.3716 53.5282 34.0194C53.5282 33.6673 53.5638 33.3503 53.635 33.0334C53.7063 32.7164 53.7775 32.4699 53.8843 32.2234C53.9912 31.9769 54.1336 31.8008 54.3473 31.6951C54.5254 31.5543 54.7391 31.4838 54.9884 31.4838C55.1665 31.4838 55.3445 31.519 55.5226 31.6247C55.7007 31.7303 55.8431 31.8712 55.95 32.0473L56.3061 31.6599C56.1637 31.4134 55.95 31.2373 55.7007 31.1317C55.4514 31.026 55.2021 30.9556 54.9171 30.9556C54.5966 30.9556 54.3117 31.026 54.0624 31.2021C53.8131 31.343 53.5994 31.5543 53.4214 31.836C53.2433 32.1177 53.1008 32.4347 53.0296 32.8221C52.9228 33.1742 52.8871 33.5968 52.8871 34.0547C52.8871 34.4773 52.9228 34.8999 53.0296 35.252C53.1364 35.6042 53.2433 35.9564 53.4214 36.2029C53.5994 36.4846 53.8131 36.6959 54.0624 36.8368C54.3117 36.9776 54.5966 37.0833 54.9171 37.0833C55.2021 37.0833 55.487 37.0129 55.7363 36.872C56.0212 36.7663 56.1993 36.555 56.3773 36.3085ZM61.4346 36.9424V31.1317H60.8647V33.6673H58.621V31.1317H58.0512V36.9424H58.621V34.1955H60.8647V36.9424H61.4346ZM66.0644 36.9424V36.4142H64.1768V34.1955H65.8507V33.7025H64.1768V31.6599H65.9932V31.1669H63.607V36.9776H66.0644V36.9424ZM71.2285 36.9424V31.1317H70.6943V35.9564H70.6586L68.6286 31.1317H67.9163V36.9424H68.4506V32.1177H68.4862L70.5162 36.9424H71.2285Z" fill="white"/>
<path d="M36.1484 31.167V36.9426" stroke="#BF4818" stroke-width="1.8422" stroke-miterlimit="22.9256"/>
<path d="M33.1924 34.0544H39.0687" stroke="#BF4818" stroke-width="1.8422" stroke-miterlimit="22.9256"/>
</svg>
