<?xml version="1.0" encoding="UTF-8" standalone="no"?>
<svg
   width="69"
   height="72"
   viewBox="0 0 69 72"
   fill="none"
   version="1.1"
   id="svg6"
   sodipodi:docname="logo_white.svg"
   inkscape:version="1.1 (c68e22c387, 2021-05-23)"
   xmlns:inkscape="http://www.inkscape.org/namespaces/inkscape"
   xmlns:sodipodi="http://sodipodi.sourceforge.net/DTD/sodipodi-0.dtd"
   xmlns="http://www.w3.org/2000/svg"
   xmlns:svg="http://www.w3.org/2000/svg">
  <defs
     id="defs10" />
  <sodipodi:namedview
     id="namedview8"
     pagecolor="#ffffff"
     bordercolor="#666666"
     borderopacity="1.0"
     inkscape:pageshadow="2"
     inkscape:pageopacity="0.0"
     inkscape:pagecheckerboard="0"
     showgrid="false"
     inkscape:zoom="12.125"
     inkscape:cx="34.474227"
     inkscape:cy="36"
     inkscape:window-width="2560"
     inkscape:window-height="1411"
     inkscape:window-x="2391"
     inkscape:window-y="-9"
     inkscape:window-maximized="1"
     inkscape:current-layer="svg6" />
  <g
     id="g829"
     transform="translate(-0.2674,1.5e-4)">
    <path
       fill-rule="evenodd"
       clip-rule="evenodd"
       d="M 13.437,40.6356 H 2.56863 V 52.7084 H 11.4762 V 54.277 H 2.56863 V 70.9717 H 1 V 39.095 H 2.56863 13.409 v 1.5406 z M 34.3333,39.095 H 35.93 V 70.9717 H 34.3613 V 43.5207 L 26.4902,65.1734 18.563,43.5207 v 27.451 H 16.9944 V 39.095 h 1.5966 l 7.8712,21.5126 z m 7.9272,30.3361 h 10.084 v 1.5686 H 42.2605 40.6919 V 39.095 h 1.5686 z M 66.5742,39.095 h 1.7087 l -6.1905,15.8543 -0.056,0.1401 V 70.9717 H 60.4678 V 55.0894 L 60.4118,54.9493 54.2213,39.095 H 55.93 l 5.2941,13.6694 z"
       fill="#ffffff"
       stroke="#010004"
       stroke-width="0.216"
       stroke-miterlimit="22.9256"
       id="path2" />
    <path
       fill-rule="evenodd"
       clip-rule="evenodd"
       d="m 15.0334,1.14006 v 1.59663 7.53501 1.6527 14.4818 c 0,0.9523 -0.168,1.8207 -0.5322,2.661 -0.3641,0.8404 -0.8403,1.5687 -1.4566,2.1569 -0.6162,0.6162 -1.3165,1.0924 -2.1568,1.4566 -0.8124,0.3641 -1.70871,0.5322 -2.63308,0.5322 -0.95238,0 -1.82073,-0.1681 -2.66106,-0.5322 C 4.75332,32.3165 4.02503,31.8403 3.43679,31.2241 2.82055,30.6078 2.34436,29.8795 1.98021,29.0672 1.61607,28.2269 1.448,27.3585 1.448,26.4062 v -5.0421 h 1.56863 v 5.0421 c 0,0.7283 0.14005,1.4005 0.42016,2.0448 0.28012,0.6442 0.67227,1.2045 1.12045,1.6807 0.47619,0.4761 1.03642,0.8403 1.68068,1.1204 0.64425,0.2801 1.31652,0.4202 2.04481,0.4202 0.72829,0 1.40056,-0.1401 2.01677,-0.4202 0.6163,-0.2801 1.1765,-0.6723 1.6527,-1.1204 0.4762,-0.4762 0.8403,-1.0365 1.1204,-1.6807 0.2802,-0.6443 0.4202,-1.3165 0.4202,-2.0448 V 11.8964 10.2437 2.68067 H 5.00542 V 1.11204 h 8.48738 1.5406 z m 18.4034,0 v 13.58544 0.8123 10.8403 c 0,0.9524 -0.1681,1.8208 -0.5322,2.6611 -0.3642,0.8403 -0.8404,1.5686 -1.4566,2.1569 -0.6163,0.6162 -1.3165,1.0924 -2.1569,1.4566 -0.8123,0.3641 -1.7087,0.5322 -2.633,0.5322 -0.9244,0 -1.8207,-0.1681 -2.6611,-0.5322 -0.8403,-0.3642 -1.5686,-0.8404 -2.1568,-1.4566 -0.6163,-0.6163 -1.0925,-1.3446 -1.4566,-2.1569 -0.3642,-0.8403 -0.5322,-1.7087 -0.5322,-2.6611 V 15.5378 14.7255 1.14006 H 21.42 v 13.58544 0.8123 10.8403 c 0,0.7283 0.14,1.4006 0.4202,2.0449 0.2801,0.6442 0.6722,1.2044 1.1204,1.6806 0.4762,0.4762 1.0364,0.8404 1.6807,1.1205 0.6442,0.2801 1.3165,0.4202 2.0448,0.4202 0.7283,0 1.4006,-0.1401 2.0168,-0.4202 0.6162,-0.2801 1.1765,-0.6723 1.6527,-1.1205 0.4761,-0.4762 0.8403,-1.0364 1.1204,-1.6806 0.2801,-0.6443 0.4202,-1.3166 0.4202,-2.0449 V 15.5378 14.7255 1.14006 Z M 45.3696,16.1821 c 0.7843,0.6162 1.5686,1.2885 2.3249,1.9608 0.7843,0.6722 1.4566,1.4285 2.0728,2.2128 0.6163,0.8124 1.1205,1.7087 1.4846,2.6891 0.3642,0.9804 0.5602,2.1009 0.5602,3.3894 0,0.9524 -0.168,1.8207 -0.5322,2.661 -0.3641,0.8404 -0.8403,1.5687 -1.4566,2.1849 -0.6162,0.6163 -1.3165,1.0924 -2.1568,1.4566 -0.8123,0.3641 -1.7087,0.5322 -2.6331,0.5322 -0.9524,0 -1.8207,-0.1681 -2.661,-0.5322 -0.8404,-0.3642 -1.5687,-0.8403 -2.1569,-1.4566 -0.6162,-0.6162 -1.0924,-1.3445 -1.4566,-2.1569 -0.3641,-0.8403 -0.5322,-1.7086 -0.5322,-2.661 h 1.5686 c 0,0.7283 0.1401,1.4005 0.4202,2.0448 0.2801,0.6443 0.6723,1.2045 1.1204,1.6807 0.4762,0.4762 1.0365,0.8403 1.6807,1.1204 0.6443,0.2801 1.3165,0.4202 2.0448,0.4202 0.7283,0 1.4006,-0.1401 2.0168,-0.4202 0.6163,-0.2801 1.1765,-0.6722 1.6527,-1.1204 0.4762,-0.4762 0.8403,-1.0364 1.1205,-1.6807 0.2801,-0.6443 0.4201,-1.3165 0.4201,-2.0448 0,-1.0644 -0.168,-2.0168 -0.5042,-2.8852 C 49.4312,22.7367 48.983,21.9524 48.4508,21.2521 47.8906,20.5518 47.2743,19.8795 46.574,19.2633 45.8738,18.6471 45.1455,18.0308 44.3892,17.4426 43.6329,16.8543 42.8766,16.2381 42.1483,15.5658 41.42,14.9216 40.7477,14.2213 40.1595,13.465 39.5712,12.7087 39.0951,11.8683 38.7309,10.972 38.3668,10.0476 38.1987,9.0112 38.1987,7.80672 c 0,-0.95238 0.1681,-1.82073 0.5322,-2.66106 C 39.0951,4.30532 39.5712,3.57703 40.1875,2.98879 40.8037,2.37255 41.532,1.89636 42.3443,1.53221 43.1847,1.16807 44.053,1 45.0054,1 c 0.9524,0 1.8207,0.16807 2.6331,0.53221 0.8123,0.36415 1.5406,0.84034 2.1568,1.42857 0.6163,0.61625 1.0925,1.31653 1.4566,2.15687 0.3642,0.84033 0.5322,1.70868 0.5322,2.66106 h -1.5126 c 0,-0.72829 -0.14,-1.40056 -0.4201,-2.01681 C 49.5712,5.14566 49.1791,4.58543 48.7309,4.10924 48.2547,3.63305 47.7225,3.26891 47.0782,2.98879 46.462,2.70868 45.7617,2.56863 45.0614,2.56863 c -0.7283,0 -1.4005,0.14005 -2.0448,0.42016 -0.6442,0.28012 -1.2045,0.67227 -1.6807,1.12045 -0.4761,0.47619 -0.8403,1.03642 -1.1204,1.65266 -0.2801,0.61625 -0.4202,1.31653 -0.4202,2.01681 0,1.0084 0.1681,1.90476 0.4762,2.66109 0.3081,0.7843 0.7283,1.4846 1.2605,2.1568 0.5322,0.6723 1.1205,1.2886 1.7927,1.8768 0.6163,0.5602 1.3166,1.1204 2.0449,1.7087 z M 68.5348,1.14006 V 2.70868 H 62.1763 V 33.0448 H 60.6077 V 2.70868 H 54.2491 V 1.14006 h 6.3586 1.5686 z"
       fill="#ffffff"
       stroke="#010004"
       stroke-width="0.216"
       stroke-miterlimit="22.9256"
       id="path4" />
  </g>
</svg>
