<svg width="60" height="60" viewBox="0 0 60 60" fill="none" xmlns="http://www.w3.org/2000/svg">
<path d="M0 0V60H60V0H0ZM14.6667 35.6L14.3332 35.2666C13.7333 34.5997 13.2 33.8663 12.8666 33.0666C13.6664 33.4 14.3998 33.9334 15.0666 34.5332L15.4 34.8667C15.9999 35.5335 16.5333 36.2669 16.8667 37.0667C16.0668 36.7332 15.3335 36.1999 14.6667 35.6ZM15.7334 38.2C14.9336 37.8666 14.2002 37.3332 13.5334 36.7333L13.2 36.3999C12.6001 35.733 12.0667 34.9997 11.7333 34.1999C12.5332 34.5333 13.2666 35.0667 13.9333 35.6666L14.2668 36C14.9336 36.6669 15.4 37.4002 15.7334 38.2ZM17.8665 32.0002C18.2 31.2004 18.7333 30.467 19.3332 29.8002L19.6666 29.4668C20.3335 28.8669 21.0669 28.3335 21.8666 28.0001C21.5332 28.8 20.9998 29.5334 20.4 30.2001L20.0665 30.5336C19.4666 31.2 18.6668 31.6668 17.8665 32.0002ZM18 35.9335C17.2001 35.6 16.4668 35.0666 15.8 34.4668L15.4666 34.1334C14.8667 33.4665 14.3333 32.7331 13.9999 31.9334C14.7998 32.2668 15.5331 32.8002 16.1999 33.4L16.5333 33.7335C17.1337 34.4003 17.6666 35.1337 18 35.9335ZM21.8002 24.0668C22.0002 24.1333 22.2002 24.2668 22.4001 24.3333C23 24.6667 23.5334 25.0666 24.0003 25.533L24.3337 25.8664C24.9336 26.5333 25.467 27.2667 25.8003 28.0664C25.0005 27.733 24.2671 27.1996 23.6003 26.5998L23.2669 26.2663C22.8 25.733 22.4001 25.1996 22.0672 24.6662C22.0002 24.4667 21.9332 24.2668 21.8002 24.0668L21.8002 24.0668ZM26.2669 33.3999L26.6003 33.7333C27.2002 34.4002 27.7336 35.1335 28.067 35.9333C27.2671 35.5999 26.5338 35.0665 25.867 34.4666L25.5336 34.1332C24.9337 33.4664 24.4003 32.733 24.0669 31.9332C24.8668 32.2666 25.6001 32.7335 26.2669 33.3999ZM28.0001 32.0001C28.3335 31.2003 28.8669 30.4669 29.4668 29.8001L29.8002 29.4667C30.4671 28.8668 31.2005 28.3334 32.0002 28C31.6668 28.7999 31.1334 29.5332 30.5335 30.2L30.2001 30.5335C29.5333 31.1998 28.8004 31.6667 28.0001 32.0001ZM31.9333 24.0667C32.7332 24.4001 33.4665 24.9335 34.1333 25.5333L34.4668 25.8668C35.0667 26.5336 35.6 27.267 35.9334 28.0668C35.1336 27.7333 34.4002 27.2 33.7334 26.6001L33.4 26.2667C32.7336 25.5998 32.2667 24.8664 31.9333 24.0667ZM36.3335 33.3998L36.6669 33.7332C37.2668 34.4 37.8002 35.1334 38.1335 35.9332C37.3337 35.5998 36.6003 35.0664 35.9335 34.4665L35.6001 34.1331C35.0002 33.4662 34.4668 32.7329 34.1335 31.9331C34.9338 32.2665 35.6671 32.7334 36.3335 33.3998ZM38.067 32C38.4005 31.2001 38.9338 30.4668 39.5337 29.8L39.8671 29.4666C40.534 28.8667 41.2674 28.3333 42.0671 27.9999C41.7337 28.7998 41.2003 29.5331 40.6005 30.1999L40.267 30.5333C39.6002 31.1997 38.8668 31.6666 38.067 32ZM42.0002 24.0665C42.8001 24.4 43.5335 24.9334 44.2002 25.5332L44.5337 25.8666C45.1336 26.5335 45.6669 27.2669 46.0003 28.0666C45.2005 27.7332 44.4671 27.1998 43.8003 26.6L43.4669 26.2665C42.8666 25.5997 42.3336 24.8663 42.0002 24.0665ZM41.7333 21.1996L41.3999 21.5331C40.733 22.133 39.9996 22.6663 39.1999 22.9997C39.5333 22.1999 40.0667 21.4665 40.6665 20.7997L41 20.4663C41.6668 19.8664 42.4002 19.333 43.2 18.9996C42.8665 19.8 42.4001 20.5333 41.7333 21.1996ZM41 26.8665C40.6665 27.6664 40.1331 28.3998 39.5333 29.0665L39.1999 29.4C38.533 29.9999 37.7996 30.5332 36.9999 30.8666C37.3333 30.0668 37.8667 29.3334 38.4665 28.6666L38.7999 28.3332C39.4668 27.7333 40.2002 27.1999 41 26.8665ZM35.2666 24.4L35.6 24.7334C36.1999 25.4003 36.7333 26.1337 37.0667 26.9334C36.2669 26.6 35.5335 26.0666 34.8667 25.4668L34.5333 25.1333C33.9334 24.4665 33.4 23.7331 33.0666 22.9333C33.8004 23.2668 34.6003 23.8001 35.2666 24.4ZM34.1333 21.8C34.9332 22.1334 35.6666 22.6668 36.3333 23.2667L36.6668 23.6001C37.2667 24.267 37.8 25.0003 38.1334 25.8001C37.3336 25.4667 36.6002 24.9333 35.9334 24.3334L35.6 24C35.0001 23.3331 34.4667 22.5998 34.1333 21.8ZM31.6668 21.1996L31.3334 21.6C30.6665 22.1999 29.9331 22.7333 29.1334 23.0667C29.4668 22.2668 30.0002 21.5335 30.6 20.8667L30.9335 20.5333C31.6003 19.9334 32.3337 19.4 33.1335 19.0666C32.8 19.8 32.2667 20.5333 31.6668 21.1997V21.1996ZM30.9334 26.8665C30.6 27.6664 30.0666 28.3998 29.4668 29.0665L29.1333 29.4C28.4665 29.9999 27.7331 30.5332 26.9333 30.8666C27.2668 30.0668 27.8002 29.3334 28.4 28.6666L28.7334 28.3332C29.3333 27.7333 30.1337 27.1999 30.9334 26.8665ZM24.6002 23.9331C24.8002 24.0666 24.9337 24.1996 25.1336 24.4L25.467 24.7334C26.0669 25.4003 26.6003 26.1337 26.9337 26.9334C26.1339 26.6 25.4005 26.0666 24.7337 25.4667L24.4003 25.1333C23.8004 24.4665 23.267 23.7331 22.9336 22.9333C23.5335 23.1998 24.1334 23.5332 24.6003 23.9331L24.6002 23.9331ZM24.0668 21.8C24.8667 22.1334 25.6 22.6668 26.2668 23.2667L26.6003 23.6001C27.2002 24.267 27.7335 25.0003 28.0669 25.8001C27.2671 25.4667 26.5337 24.9333 25.8669 24.3334L25.5335 24C24.8666 23.3331 24.4002 22.5998 24.0668 21.8ZM21.6003 21.1996L21.2669 21.5331C20.6 22.133 19.8666 22.6663 19.0669 22.9997C19.4003 22.1999 19.9337 21.4665 20.5335 20.7997L20.867 20.4663C21.5338 19.8664 22.2672 19.333 23.067 18.9996C22.6666 19.8 22.2001 20.5333 21.6003 21.1996ZM20.8 26.8665C20.4665 27.6664 19.9332 28.3998 19.3333 29.0665L18.9999 29.4C18.333 29.9999 17.5996 30.5332 16.7999 30.8666C17.1333 30.0668 17.6667 29.3334 18.2665 28.6666L18.6 28.3332C19.2668 27.7333 20.0002 27.1999 20.8 26.8665ZM15.0666 24.4L15.4001 24.7334C16 25.4003 16.5333 26.1337 16.8667 26.9334C16.0669 26.6 15.3335 26.0666 14.6667 25.4668L14.3333 25.1333C13.7334 24.4665 13.2 23.7331 12.8666 22.9333C13.667 23.2668 14.4003 23.8001 15.0666 24.4ZM13.9334 21.8C14.7332 22.1334 15.4666 22.6668 16.1334 23.2667L16.4668 23.6001C17.0667 24.267 17.6001 25.0003 17.9335 25.8001C17.1336 25.4667 16.4002 24.9333 15.7335 24.3334L15.4 24C14.8001 23.3331 14.3333 22.5998 13.9334 21.8ZM13.4 25.0664C13.5999 25.1999 13.7334 25.3329 13.9334 25.5333L14.2668 25.8668C14.8667 26.5336 15.4001 27.267 15.7335 28.0668C14.9336 27.7333 14.2002 27.1999 13.5335 26.6001L13.2 26.2667C12.6001 25.5998 12.0667 24.8664 11.7334 24.0667C12.3337 24.3331 12.8666 24.6665 13.4 25.0665L13.4 25.0664ZM18.267 38.7998L18.6004 38.4663C19.2673 37.8664 20.0007 37.3331 20.8004 36.9997C20.467 37.7995 19.9336 38.5329 19.3337 39.1997L19.0003 39.5331C18.3335 40.133 17.6001 40.6664 16.8003 40.9998C17.1337 40.1994 17.6002 39.4661 18.267 38.7998ZM19.0003 33.1329C19.3338 32.333 19.8672 31.5996 20.467 30.9329L20.8004 30.5994C21.4673 29.9995 22.2007 29.4662 23.0004 29.1328C22.6665 29.8661 22.2001 30.6665 21.6002 31.3328L21.2668 31.6662C20.5334 32.2661 19.8001 32.7995 19.0002 33.1329H19.0003ZM24.7337 35.5994L24.4002 35.266C23.8004 34.5991 23.267 33.8657 22.9336 33.066C23.7334 33.3994 24.4668 33.9328 25.1336 34.5326L25.467 34.8661C26.0669 35.5329 26.6003 36.2663 26.9337 37.0661C26.1999 36.7326 25.4 36.1993 24.7337 35.5994ZM25.867 38.1994C25.0671 37.866 24.3337 37.3326 23.667 36.7327L23.3335 36.3993C22.7336 35.7325 22.2003 34.9991 21.8669 34.1993C22.6667 34.5327 23.4001 35.0661 24.0669 35.666L24.4003 35.9994C25.0002 36.6663 25.5336 37.3996 25.867 38.1994ZM28.3335 38.7998L28.6669 38.4663C29.3338 37.8664 30.0672 37.3331 30.8669 36.9997C30.5335 37.7995 30.0001 38.5329 29.4003 39.1997L29.0668 39.5331C28.4 40.133 27.6666 40.6664 26.8668 40.9998C27.2003 40.1994 27.7336 39.4661 28.3335 38.7998ZM29.0669 33.1329C29.4003 32.333 29.9337 31.5996 30.5335 30.9329L30.867 30.5994C31.5338 29.9995 32.2672 29.4662 33.067 29.1328C32.7335 29.9326 32.2001 30.666 31.6003 31.3328L31.3334 31.6662C30.667 32.2661 29.8667 32.7995 29.0668 33.1329H29.0669ZM34.8667 35.5994L34.5333 35.266C33.9334 34.5991 33.4 33.8657 33.0666 33.066C33.8665 33.3994 34.5999 33.9328 35.2666 34.5326L35.6001 34.8661C36.2 35.5329 36.7333 36.2663 37.0667 37.0661C36.2669 36.7326 35.5335 36.1993 34.8667 35.5994ZM35.9335 38.1994C35.1337 37.866 34.4003 37.3326 33.7335 36.7327L33.4001 36.3993C32.8002 35.7325 32.2668 34.9991 31.9334 34.1993C32.7333 34.5327 33.4666 35.0661 34.1334 35.666L34.4668 35.9994C35.1337 36.6663 35.6001 37.3996 35.9335 38.1994ZM38.4001 38.7998L38.7335 38.4663C39.4003 37.8664 40.1337 37.3331 40.9335 36.9997C40.6001 37.7995 40.0667 38.5329 39.4668 39.1997L39.1334 39.5331C38.4665 40.133 37.7332 40.6664 36.9334 40.9998C37.3338 40.1994 37.8002 39.4661 38.4001 38.7998ZM39.2004 33.1329C39.5338 32.333 40.0672 31.5996 40.667 30.9329L41.0005 30.5994C41.6673 29.9995 42.4007 29.4662 43.2005 29.1328C42.867 29.9326 42.3337 30.666 41.7338 31.3328L41.4004 31.6662C40.7335 32.2661 40.0001 32.7995 39.2004 33.1329ZM44.9337 35.5994L44.6003 35.266C44.0004 34.5991 43.467 33.8657 43.1336 33.066C43.9335 33.3994 44.6668 33.9328 45.3336 34.5326L45.667 34.8661C46.2669 35.5329 46.8003 36.2663 47.1337 37.0661C46.3334 36.7326 45.6 36.1993 44.9337 35.5994ZM46.067 38.1994C45.2671 37.866 44.5338 37.3326 43.867 36.7327L43.5336 36.3993C42.9337 35.7325 42.4003 34.9991 42.0669 34.1993C42.8668 34.5327 43.6001 35.0661 44.2669 35.666L44.6003 35.9994C45.2002 36.6663 45.6671 37.3996 46.067 38.1994ZM46.067 34.4662L45.7336 34.1328C45.1337 33.4659 44.6003 32.7325 44.2669 31.9328C45.0667 32.2662 45.8001 32.7996 46.4669 33.3994L46.8003 33.7329C47.4002 34.3997 47.9336 35.1331 48.267 35.9329C47.4667 35.5994 46.7333 35.133 46.067 34.4662ZM44.9337 25.533L44.6003 25.1995C44.0004 24.5327 43.467 23.7993 43.1336 22.9995C43.9335 23.333 44.6668 23.8664 45.3336 24.4662L45.667 24.7996C46.2669 25.4665 46.8003 26.1999 47.1337 26.9996C46.3334 26.5997 45.6 26.1328 44.9337 25.533ZM46.067 24.3997L45.7336 23.9998C45.1337 23.3329 44.6003 22.5995 44.2669 21.7998C45.0667 22.1332 45.8001 22.6666 46.4669 23.2664L46.8003 23.5999C47.4002 24.2667 47.9336 25.0001 48.267 25.7999C47.4667 25.5329 46.7333 24.9995 46.067 24.3996V24.3997ZM44.9337 15.3995L44.6003 15.066C44.0004 14.3992 43.467 13.6658 43.1336 12.866C43.9335 13.1995 44.6668 13.7328 45.3336 14.3327L45.667 14.6661C46.2669 15.333 46.8003 16.0664 47.1337 16.8661C46.3334 16.5327 45.6 16.0663 44.9337 15.3995ZM44.2004 15.3995L44.5338 15.7329C45.1337 16.3997 45.6671 17.1331 46.0005 17.9329C45.2006 17.5995 44.4672 17.0661 43.8005 16.4662L43.467 16.1328C42.8671 15.4659 42.3338 14.7326 42.0004 13.9328C42.8002 14.3327 43.5336 14.7996 44.2004 15.3995ZM42.1338 17.866C41.8004 18.6659 41.267 19.3992 40.6671 20.066L40.3337 20.3994C39.6669 20.9993 38.9335 21.5327 38.1337 21.8661C38.4671 21.0662 39.0005 20.3329 39.6004 19.6661L39.9338 19.3327C40.5337 18.7328 41.3336 18.2664 42.1338 17.866ZM39.5333 18.9998L39.2004 19.3327C38.5335 19.9326 37.8001 20.466 37.0004 20.7994C37.3338 19.9995 37.8672 19.2662 38.467 18.5994L38.8005 18.266C39.4673 17.6661 40.2007 17.1327 41.0005 16.7993C40.667 17.5996 40.1337 18.333 39.5333 18.9998L39.5333 18.9998ZM34.8668 15.3995L34.5334 15.0661C33.9335 14.3992 33.4001 13.6658 33.0667 12.8661C33.8665 13.1995 34.5999 13.7329 35.2667 14.3327L35.6001 14.6662C36.2 15.333 36.7334 16.0664 37.0668 16.8662C36.2669 16.5328 35.5336 16.0663 34.8668 15.3995ZM34.1334 15.3995L34.4669 15.7329C35.0667 16.3998 35.6001 17.1332 35.9335 17.9329C35.1337 17.5995 34.4003 17.0661 33.7335 16.4663L33.4001 16.1328C32.8002 15.466 32.2668 14.7326 31.9334 13.9328C32.7338 14.3328 33.4671 14.7997 34.1334 15.3995ZM32.0003 17.8661C31.6669 18.6659 31.1335 19.3993 30.5337 20.0661L30.2002 20.3995C29.5334 20.9994 28.8 21.5328 28.0002 21.8662C28.3337 21.0663 28.867 20.3329 29.4669 19.6662L29.8003 19.3327C30.4672 18.7328 31.2001 18.2664 32.0003 17.8661ZM29.4669 18.9998L29.067 19.3328C28.4001 19.9327 27.6667 20.466 26.867 20.7994C27.2004 19.9996 27.7338 19.2662 28.3336 18.5994L28.667 18.266C29.3339 17.6661 30.0673 17.1327 30.867 16.7993C30.5336 17.5997 30.0667 18.333 29.4668 18.9998L29.4669 18.9998ZM24.7338 15.3996L24.4004 15.0661C23.8005 14.3993 23.2671 13.6659 22.9337 12.8661C23.7335 13.1996 24.4669 13.7329 25.1337 14.3328L25.4671 14.6662C26.067 15.3331 26.6004 16.0665 26.9338 16.8662C26.2 16.5328 25.4001 16.0664 24.7338 15.3996ZM24.0004 15.3996L24.3339 15.733C24.9337 16.3998 25.4671 17.1332 25.8005 17.933C25.0007 17.5996 24.2673 17.0662 23.6005 16.4663L23.2671 16.1329C22.6672 15.466 22.1338 14.7327 21.8004 13.9329C22.6003 14.3328 23.3336 14.7997 24.0004 15.3996ZM21.9334 17.8661C21.6 18.666 21.0666 19.3993 20.4667 20.0661L20.1333 20.3995C19.4665 20.9994 18.7331 21.5328 17.9333 21.8662C18.2667 21.0663 18.8001 20.333 19.4 19.6662L19.7334 19.3328C20.4003 18.7329 21.1336 18.2665 21.9334 17.8661ZM19.3334 18.9998L19.0004 19.3328C18.3336 19.9327 17.6002 20.4661 16.8004 20.7995C17.1339 19.9996 17.6672 19.2663 18.2671 18.5995L18.6005 18.266C19.2674 17.6662 20.0008 17.1328 20.8005 16.7994C20.4671 17.5997 20.0002 18.3331 19.3334 18.9999L19.3334 18.9998ZM14.6669 15.3996L14.3334 15.0662C13.7335 14.3993 13.2002 13.6659 12.8668 12.8662C13.6666 13.1996 14.4 13.733 15.0668 14.3328L15.4002 14.6663C16.0001 15.3331 16.5335 16.0665 16.8669 16.8663C16.067 16.5328 15.3336 16.0664 14.6669 15.3996ZM13.9335 15.3996L14.2669 15.733C14.8668 16.3999 15.4002 17.1333 15.7336 17.933C14.9337 17.5996 14.2004 17.0662 13.5336 16.4664L13.2002 16.1329C12.6003 15.4661 12.0669 14.7327 11.7335 13.9329C12.5338 14.3329 13.2672 14.7998 13.9335 15.3996ZM11.867 17.8662C11.5335 18.666 11.0001 19.3994 10.4003 20.0662L10.0004 20.4665C9.3335 21.0664 8.60012 21.5998 7.80036 21.9332C8.13379 21.1334 8.66717 20.4 9.26702 19.7332L9.60045 19.3998C10.2668 18.7329 11.0671 18.2665 11.867 17.8661L11.867 17.8662ZM10.4003 20.7996L10.7337 20.4662C11.4006 19.8663 12.134 19.3329 12.9337 18.9995C12.6003 19.7994 12.0669 20.5327 11.467 21.1995L11.1336 21.5329C10.4668 22.1328 9.73338 22.6662 8.93362 22.9996C9.26705 22.2663 9.73394 21.4664 10.4003 20.7996ZM11.867 27.9996C11.5335 28.7995 11.0001 29.5328 10.4003 30.1996L10.0004 30.533C9.3335 31.1329 8.60012 31.6663 7.80036 31.9997C8.13379 31.1998 8.66717 30.4665 9.26702 29.7997L9.60045 29.4663C10.2668 28.7999 11.0671 28.333 11.867 27.9996H11.867ZM10.4003 30.9331L10.7337 30.5996C11.4006 29.9997 12.134 29.4664 12.9337 29.133C12.6003 29.9328 12.0669 30.6662 11.467 31.333L11.1336 31.6664C10.4668 32.2663 9.73338 32.7997 8.93362 33.1331C9.26705 32.3332 9.73394 31.5998 10.4003 30.9331ZM11.867 38.0666C11.5335 38.8665 11.0001 39.5998 10.4003 40.2666L10.0004 40.6666C9.3335 41.2665 8.60012 41.7998 7.80036 42.1332C8.13379 41.3334 8.66717 40.6 9.26702 39.9332L9.60045 39.5998C10.2668 38.9329 11.0671 38.3996 11.867 38.0666L11.867 38.0666ZM10.4003 40.9996L10.7337 40.6662C11.4006 40.0663 12.134 39.5329 12.9337 39.1995C12.6003 39.9994 12.0669 40.7327 11.467 41.3995L11.1336 41.7329C10.4668 42.3328 9.73338 42.8662 8.93362 43.1996C9.26705 42.4663 9.73394 41.6664 10.4003 40.9996ZM15.0668 44.5998L15.4003 44.9333C16.0002 45.6001 16.5335 46.3335 16.8669 47.1333C16.0671 46.7998 15.3337 46.2665 14.6669 45.6666L14.3335 45.3332C13.7336 44.6663 13.2002 43.9329 12.8668 43.1332C13.6672 43.4666 14.4005 43.933 15.0668 44.5998ZM15.8002 44.5998L15.4668 44.2664C14.8669 43.5996 14.3335 42.8662 14.0001 42.0664C14.8 42.3998 15.5333 42.9332 16.2001 43.5331L16.5335 43.8665C17.1334 44.5334 17.6668 45.2668 18.0002 46.0665C17.2003 45.6666 16.467 45.1997 15.8002 44.5998ZM17.8667 42.1333C18.2002 41.3334 18.7335 40.6001 19.3334 39.9333L19.6668 39.5999C20.3337 39 21.0671 38.4666 21.8668 38.1332C21.5334 38.9331 21 39.6664 20.4002 40.3332L20.1337 40.6666C19.4668 41.2665 18.667 41.7329 17.8667 42.1333H17.8667ZM20.4672 40.9996L20.8006 40.6661C21.4675 40.0662 22.2009 39.5329 23.0006 39.1995C22.6672 39.9993 22.1338 40.7327 21.534 41.3995L21.2005 41.7329C20.5337 42.3328 19.8003 42.8662 19.0005 43.1996C19.3335 42.4662 19.8669 41.6663 20.4672 40.9996ZM25.1338 44.5998L25.4672 44.9332C26.0671 45.6001 26.6005 46.3335 26.9339 47.1332C26.134 46.7998 25.4006 46.2664 24.7339 45.6666L24.4004 45.3331C23.8005 44.6663 23.2672 43.9329 22.9338 43.1331C23.7336 43.4666 24.467 43.933 25.1338 44.5998ZM25.8671 44.5998L25.5337 44.2664C24.9338 43.5995 24.4004 42.8661 24.067 42.0664C24.8669 42.3998 25.6002 42.9332 26.267 43.533L26.6005 43.8665C27.2003 44.5333 27.7337 45.2667 28.0671 46.0665C27.2668 45.6665 26.5334 45.1997 25.8671 44.5998ZM28.0002 42.1333C28.3336 41.3334 28.867 40.6 29.4669 39.9333L29.8003 39.5998C30.4672 38.9999 31.2006 38.4665 32.0003 38.1332C31.6669 38.933 31.1335 39.6664 30.5336 40.3332L30.2002 40.6666C29.5334 41.2665 28.8005 41.7329 28.0002 42.1333ZM30.5337 40.9995L30.8671 40.6661C31.534 40.0662 32.2673 39.5328 33.0671 39.1994C32.7337 39.9993 32.2003 40.7326 31.6004 41.3994L31.3335 41.7328C30.6666 42.3327 29.9333 42.8661 29.1335 43.1995C29.4669 42.4662 29.9338 41.6663 30.5337 40.9995H30.5337ZM35.2668 44.5998L35.6002 44.9332C36.2001 45.6 36.7335 46.3334 37.0669 47.1332C36.267 46.7998 35.5336 46.2664 34.8669 45.6665L34.4669 45.3331C33.867 44.6662 33.3337 43.9328 33.0003 43.1331C33.8006 43.4665 34.6004 43.9329 35.2668 44.5998H35.2668ZM36.0001 44.5998L35.6667 44.2663C35.0668 43.5995 34.5334 42.8661 34.2 42.0663C34.9999 42.3997 35.7332 42.9331 36.4 43.533L36.7335 43.8664C37.3333 44.5333 37.8667 45.2667 38.2001 46.0664C37.4003 45.6665 36.6669 45.1996 36.0001 44.5998ZM38.0671 42.1332C38.4006 41.3333 38.934 40.6 39.5338 39.9332L39.8672 39.5998C40.5341 38.9999 41.2675 38.4665 42.0672 38.1331C41.7338 38.933 41.2004 39.6663 40.6006 40.3331L40.2667 40.6665C39.6003 41.2664 38.8669 41.7328 38.067 42.1332H38.0671ZM40.6671 40.9995L41.0006 40.666C41.6674 40.0661 42.4008 39.5328 43.2006 39.1994C42.8671 39.9992 42.3338 40.7326 41.7339 41.3994L41.4005 41.7328C40.7336 42.3327 40.0002 42.8661 39.2005 43.1995C39.5334 42.4661 40.0003 41.6663 40.6671 40.9995ZM45.3337 44.5997L45.6671 44.9331C46.267 45.6 46.8004 46.3334 47.1338 47.1331C46.3339 46.7997 45.6006 46.2663 44.9338 45.6665L44.6004 45.333C44.0005 44.6662 43.4671 43.9328 43.1337 43.133C43.9335 43.4665 44.6669 43.9329 45.3337 44.5997ZM46.067 44.5997L45.7336 44.2663C45.1337 43.5994 44.6003 42.866 44.267 42.0663C45.0668 42.3997 45.8002 42.9331 46.4669 43.5329L46.8004 43.8664C47.4003 44.5332 47.9337 45.2666 48.267 46.0664C47.4667 45.6664 46.7334 45.1996 46.067 44.5997ZM48.1336 42.1332C48.467 41.3333 49.0004 40.5999 49.6003 39.9332L49.9337 39.5997C50.6005 38.9998 51.3339 38.4664 52.1337 38.1331C51.8003 38.9329 51.2669 39.6663 50.667 40.3331L50.4001 40.6665C49.7337 41.2664 48.9334 41.7328 48.1335 42.1332H48.1336ZM49.6003 39.1997L49.2668 39.5331C48.6 40.133 47.8666 40.6664 47.0668 40.9998C47.4003 40.1999 47.9336 39.4666 48.5335 38.7998L48.8669 38.4664C49.5338 37.8665 50.2672 37.3331 51.0669 36.9997C50.7335 37.7331 50.2666 38.5329 49.6003 39.1997ZM48.1336 31.9997C48.467 31.1998 49.0004 30.4665 49.6003 29.7997L49.9337 29.4663C50.6005 28.8664 51.3339 28.333 52.1337 27.9996C51.8003 28.7995 51.2669 29.5328 50.667 30.1996L50.3336 30.533C49.7337 31.1994 48.9334 31.6663 48.1336 31.9997ZM49.6003 29.0662L49.2668 29.3997C48.6 29.9996 47.8666 30.533 47.0668 30.8663C47.4003 30.0665 47.9336 29.3331 48.5335 28.6663L48.8669 28.3329C49.5338 27.733 50.2672 27.1996 51.0669 26.8662C50.7335 27.6661 50.2666 28.3995 49.6003 29.0662ZM48.1336 21.9327C48.467 21.1328 49.0004 20.3995 49.6003 19.7327L50.0002 19.3328C50.667 18.7329 51.4004 18.1995 52.2002 17.8661C51.8668 18.6659 51.3334 19.3993 50.7335 20.0661L50.4001 20.3995C49.7337 21.0664 48.9334 21.5997 48.1335 21.9327L48.1336 21.9327ZM49.6003 18.9997L49.2668 19.3327C48.6 19.9326 47.8666 20.4659 47.0668 20.7993C47.4003 19.9995 47.9336 19.2661 48.5335 18.5993L48.8669 18.2659C49.5338 17.666 50.2672 17.1326 51.0669 16.7992C50.7335 17.5996 50.2666 18.3329 49.6003 18.9997V18.9997ZM48.1336 11.8661C48.467 11.0663 49.0004 10.3329 49.6003 9.66613L49.9337 9.3327C50.6005 8.73281 51.3339 8.19943 52.1337 7.86604C51.8668 8.59939 51.3334 9.3327 50.7335 9.99961L50.4 10.333C49.7336 10.9994 48.9334 11.4663 48.1335 11.8663L48.1336 11.8661ZM48.5335 8.5328L48.867 8.19937C49.5338 7.59948 50.2672 7.0661 51.067 6.7327C50.7335 7.53256 50.2001 8.26592 49.6003 8.9327L49.2669 9.26613C48.6 9.86602 47.8666 10.3994 47.0669 10.7328C47.4003 9.93294 47.8667 9.19958 48.5335 8.5328ZM46.467 13.1993L46.8004 13.5328C47.4003 14.1996 47.9337 14.933 48.2671 15.7328C47.4672 15.3993 46.7339 14.866 46.0671 14.2661L45.7336 13.9327C45.1338 13.2658 44.6004 12.5324 44.267 11.7327C45.0003 12.0661 45.8002 12.533 46.467 13.1993ZM41.7334 11.1328L41.4 11.4662C40.7331 12.0661 39.9997 12.5995 39.2 12.9329C39.5334 12.133 40.0668 11.3997 40.6666 10.7329L41.0001 10.3995C41.6669 9.79957 42.4003 9.26619 43.2001 8.9328C42.8666 9.73312 42.4002 10.4665 41.7334 11.1328ZM40.6671 9.99952L40.3337 10.333C39.6668 10.9328 38.9334 11.4662 38.1337 11.7996C38.4671 10.9998 39.0005 10.2664 39.6003 9.59962L39.9338 9.26619C40.6006 8.6663 41.334 8.13292 42.1338 7.79952C41.7334 8.59938 41.267 9.33274 40.6671 9.99952ZM38.4001 8.53286L38.7335 8.19943C39.4004 7.59954 40.1337 7.06615 40.9335 6.73276C40.6001 7.53262 40.0667 8.26598 39.4668 8.93276L39.1334 9.26619C38.4665 9.86608 37.7332 10.3995 36.9334 10.7329C37.3338 9.933 37.8002 9.19964 38.4001 8.53286ZM36.3335 13.1994L36.667 13.5328C37.2668 14.1997 37.8002 14.9331 38.1336 15.7328C37.3338 15.3994 36.6004 14.866 35.9336 14.2662L35.6002 13.9327C35.0003 13.2659 34.4669 12.5325 34.1335 11.7327C34.9338 12.0662 35.6672 12.5331 36.3335 13.1994ZM31.667 11.1329L31.3335 11.4663C30.6667 12.0662 29.9333 12.5996 29.1335 12.933C29.467 12.1331 30.0004 11.3997 30.6002 10.733L30.9336 10.3995C31.6005 9.79963 32.3339 9.26625 33.1336 8.93286C32.8002 9.73318 32.2668 10.4665 31.667 11.1329ZM30.5337 9.99958L30.2003 10.333C29.5334 10.9329 28.8 11.4663 28.0003 11.7997C28.3337 10.9998 28.8671 10.2665 29.4669 9.59968L29.8004 9.26625C30.4672 8.66636 31.2006 8.13298 32.0004 7.79958C31.6669 8.59944 31.2 9.3328 30.5337 9.99958ZM28.3337 8.53292L28.6671 8.19949C29.334 7.5996 30.0674 7.06621 30.8671 6.73282C30.5337 7.53268 30.0003 8.26604 29.4005 8.93282L29.067 9.26625C28.4002 9.86614 27.6668 10.3995 26.867 10.7329C27.2005 9.93306 27.7338 9.1997 28.3337 8.53292ZM26.2672 13.1995L26.6006 13.5329C27.2005 14.1997 27.7339 14.9331 28.0672 15.7329C27.2674 15.3995 26.534 14.8661 25.8673 14.2662L25.5338 13.9328C24.9339 13.2659 24.4005 12.5326 24.0672 11.7328C24.867 12.0662 25.6004 12.5331 26.2672 13.1995ZM21.6006 11.1329L21.2672 11.4663C20.6003 12.0662 19.8669 12.5996 19.0672 12.933C19.4006 12.1332 19.934 11.3998 20.5338 10.733L20.8673 10.3996C21.5341 9.79969 22.2675 9.26631 23.0673 8.93292C22.6669 9.73324 22.2005 10.4666 21.6006 11.1329ZM20.4673 9.99964L20.1339 10.3331C19.467 10.933 18.7337 11.4663 17.9339 11.7997C18.2673 10.9999 18.8007 10.2665 19.4006 9.59974L19.734 9.26631C20.4009 8.66642 21.1342 8.13304 21.934 7.79964C21.6006 8.5995 21.0672 9.33286 20.4673 9.99964ZM18.2673 8.53298L18.6008 8.19955C19.2676 7.59965 20.001 7.06627 20.8008 6.73288C20.4673 7.53274 19.934 8.2661 19.3341 8.93288L19.0007 9.26631C18.3338 9.8662 17.6004 10.3996 16.8007 10.733C17.1341 9.93312 17.6005 9.19976 18.2673 8.53298ZM16.2003 13.1995L16.5337 13.533C17.1336 14.1998 17.667 14.9332 18.0004 15.733C17.2005 15.3995 16.4672 14.8661 15.8004 14.2663L15.467 13.9329C14.8671 13.266 14.3337 12.5326 14.0003 11.7329C14.7341 12.0663 15.534 12.5332 16.2003 13.1995ZM11.4672 11.133L11.1338 11.4664C10.4669 12.0663 9.73355 12.5997 8.93378 12.9331C9.26721 12.1332 9.8006 11.3999 10.4005 10.7331L10.7339 10.3996C11.4007 9.79975 12.1341 9.26637 12.9339 8.93298C12.6005 9.7333 12.134 10.4667 11.4672 11.133ZM10.4004 9.9997L10.0005 10.3996C9.33366 10.9995 8.60028 11.5329 7.80051 11.8663C8.13394 11.0664 8.66732 10.3331 9.26718 9.6663L9.60061 9.33287C10.2675 8.73298 11.0008 8.1996 11.8006 7.8662C11.4672 8.59956 11.0003 9.33287 10.4004 9.99977L10.4004 9.9997ZM8.13389 8.53304L8.46732 8.19961C9.13418 7.59971 9.86756 7.06633 10.6673 6.73294C10.3339 7.5328 9.80051 8.26615 9.20066 8.93294L8.86723 9.26637C8.20037 9.86626 7.46699 10.3996 6.66723 10.733C7.00065 9.93318 7.53404 9.19982 8.13389 8.53304ZM8.13389 18.5996L8.46732 18.2662C9.13418 17.6663 9.86756 17.1329 10.6673 16.7995C10.3339 17.5993 9.80051 18.3327 9.20066 18.9995L8.86723 19.3329C8.20037 19.9328 7.46699 20.4662 6.66723 20.7996C7.00065 19.9997 7.53404 19.2664 8.13389 18.5996ZM8.13389 28.6665L8.46732 28.3331C9.13418 27.7332 9.86756 27.1998 10.6673 26.8664C10.3339 27.6663 9.80051 28.3996 9.20066 29.0664L8.86723 29.3998C8.20037 29.9997 7.46699 30.5331 6.66723 30.8665C7.00065 30.1331 7.53404 29.3328 8.13389 28.6665ZM8.13389 38.7999L8.46732 38.4665C9.13418 37.8666 9.86756 37.3332 10.6673 36.9998C10.3339 37.7997 9.80051 38.5331 9.20066 39.1998L8.86723 39.5333C8.20037 40.1332 7.46699 40.6665 6.66723 40.9999C7.00065 40.1996 7.53404 39.4663 8.13389 38.7999ZM8.13389 48.8665L8.46732 48.5331C9.13418 47.9332 9.86756 47.3998 10.6673 47.0664C10.3339 47.8662 9.80051 48.5996 9.20066 49.2664L8.86723 49.5998C8.20037 50.1997 7.46699 50.7331 6.66723 51.0665C7.00065 50.2662 7.53404 49.5328 8.13389 48.8665ZM9.26717 49.9998L9.6006 49.6663C10.2675 49.0664 11.0008 48.5331 11.8006 48.1997C11.4672 48.9995 10.9338 49.7329 10.3339 50.3997L10.0005 50.7331C9.33364 51.333 8.60026 51.8664 7.8005 52.1998C8.13393 51.3999 8.66731 50.6665 9.26717 49.9998ZM11.4672 51.4664L11.1337 51.7999C10.4669 52.3997 9.7335 52.9331 8.93374 53.2665C9.26717 52.4667 9.80055 51.7333 10.4004 51.0665L10.7338 50.7331C11.4007 50.1332 12.1341 49.5998 12.9338 49.2664C12.6004 50.0663 12.134 50.7996 11.4672 51.4664ZM13.5337 46.7999L13.2003 46.4665C12.6004 45.7996 12.067 45.0662 11.7336 44.2665C12.5335 44.5999 13.2668 45.1333 13.9336 45.7331L14.267 46.0666C14.8669 46.7334 15.4003 47.4668 15.7337 48.2665C15.0004 47.9331 14.2005 47.4662 13.5337 46.7999ZM18.2673 48.8664L18.6007 48.533C19.2676 47.9331 20.001 47.3997 20.8007 47.0663C20.4673 47.8662 19.9339 48.5995 19.334 49.2663L19.0006 49.5998C18.3338 50.1997 17.6004 50.733 16.8006 51.0664C17.134 50.2661 17.6005 49.5327 18.2673 48.8664ZM19.3336 49.9997L19.667 49.6663C20.3339 49.0664 21.0673 48.533 21.867 48.1996C21.5336 48.9995 21.0002 49.7328 20.4004 50.3996L20.0669 50.733C19.4001 51.3329 18.6667 51.8663 17.8669 52.1997C18.2673 51.3998 18.7337 50.6665 19.3336 49.9997ZM21.6006 51.4664L21.2672 51.7998C20.6003 52.3997 19.867 52.9331 19.0672 53.2665C19.4006 52.4666 19.934 51.7333 20.5339 51.0665L20.8673 50.733C21.5341 50.1331 22.2675 49.5998 23.0673 49.2664C22.6669 50.0662 22.2005 50.7996 21.6006 51.4664ZM23.6672 46.7998L23.3337 46.4664C22.7338 45.7995 22.2005 45.0662 21.8671 44.2664C22.6669 44.5998 23.4003 45.1332 24.0671 45.7331L24.4005 46.0665C25.0004 46.7333 25.5338 47.4667 25.8672 48.2665C25.0668 47.9331 24.3335 47.4662 23.6672 46.7998ZM28.3337 48.8664L28.6671 48.5329C29.334 47.933 30.0674 47.3997 30.8671 47.0663C30.5337 47.8661 30.0003 48.5995 29.4005 49.2663L29.067 49.5997C28.4002 50.1996 27.6668 50.733 26.867 51.0664C27.2005 50.266 27.7339 49.5327 28.3337 48.8664ZM29.467 49.9996L29.8004 49.6662C30.4673 49.0663 31.2007 48.5329 32.0004 48.1995C31.667 48.9994 31.1336 49.7328 30.5337 50.3995L30.2003 50.733C29.5335 51.3329 28.8001 51.8662 28.0003 52.1996C28.3337 51.3998 28.8006 50.6664 29.467 49.9996ZM31.667 51.4663L31.3336 51.8662C30.6667 52.4661 29.9333 52.9995 29.1336 53.3329C29.467 52.533 30.0004 51.7997 30.6002 51.1329L30.9337 50.7995C31.6005 50.1996 32.3339 49.6662 33.1337 49.3328C32.8002 50.0662 32.2668 50.7995 31.667 51.4664V51.4663ZM33.7335 46.7998L33.4001 46.4663C32.8002 45.7995 32.2668 45.0661 31.9334 44.2663C32.7333 44.5998 33.4667 45.1331 34.1334 45.733L34.4669 46.0664C35.0668 46.7333 35.6001 47.4667 35.9335 48.2664C35.1337 47.933 34.4003 47.4661 33.7335 46.7998ZM38.4001 48.8663L38.7335 48.5329C39.4004 47.933 40.1338 47.3996 40.9335 47.0662C40.6001 47.8661 40.0667 48.5994 39.4668 49.2662L39.1334 49.5996C38.4666 50.1995 37.7332 50.7329 36.9334 51.0663C37.3338 50.266 37.8002 49.5326 38.4001 48.8663ZM39.5334 49.9996L39.8668 49.6662C40.5336 49.0663 41.267 48.5329 42.0668 48.1995C41.7334 48.9993 41.2 49.7327 40.6001 50.3995L40.2667 50.7329C39.5998 51.3328 38.8665 51.8662 38.0667 52.1996C38.4001 51.3997 38.9335 50.6664 39.5334 49.9996ZM41.7334 51.4663L41.3999 51.7997C40.7331 52.3996 39.9997 52.9329 39.1999 53.2663C39.5334 52.4665 40.0667 51.7331 40.6666 51.0663L41 50.7329C41.6669 50.133 42.4003 49.5996 43.2 49.2662C42.8666 50.0661 42.4002 50.7995 41.7334 51.4663ZM43.8004 46.7997L43.467 46.4663C42.8671 45.7994 42.3337 45.066 42.0003 44.2663C42.8001 44.5997 43.5335 45.1331 44.2003 45.7329L44.5337 46.0664C45.1336 46.7332 45.667 47.4666 46.0004 48.2664C45.2666 47.9329 44.4667 47.466 43.8004 46.7997ZM48.5335 48.8662L48.8669 48.5328C49.5338 47.9329 50.2671 47.3995 51.0669 47.0662C50.7335 47.866 50.2001 48.5994 49.6002 49.2662L49.2668 49.5996C48.6 50.1995 47.8666 50.7329 47.0668 51.0662C47.4002 50.2659 47.8667 49.5326 48.5335 48.8662ZM49.6003 49.9995L49.9337 49.6661C50.6005 49.0662 51.3339 48.5328 52.1337 48.1994C51.8003 48.9993 51.2669 49.7326 50.667 50.3994L50.3336 50.7329C49.6667 51.3328 48.9333 51.8661 48.1336 52.1995C48.5335 51.3997 49.0004 50.6663 49.6003 49.9995ZM51.8668 51.4662L51.5334 51.7996C50.8665 52.3995 50.1331 52.9329 49.3334 53.2663C49.6668 52.4664 50.2002 51.7331 50.8 51.0663L51.1335 50.7329C51.8003 50.133 52.5337 49.5996 53.3335 49.2662C53 50.066 52.4667 50.7994 51.8668 51.4662ZM51.8668 41.3996L51.5334 41.7331C50.8665 42.333 50.1331 42.8663 49.3334 43.1997C49.6668 42.3999 50.2002 41.6665 50.8 40.9997L51.1335 40.6663C51.8003 40.0664 52.5337 39.533 53.3335 39.1996C53 39.9995 52.4667 40.7329 51.8668 41.3996ZM51.8668 31.3327L51.5334 31.6662C50.8665 32.2661 50.1331 32.7994 49.3334 33.1328C49.6668 32.333 50.2002 31.5996 50.8 30.9328L51.1335 30.5994C51.8003 29.9995 52.5337 29.4661 53.3335 29.1327C53 29.8661 52.4667 30.6664 51.8668 31.3327ZM51.8668 21.1993L51.5334 21.5327C50.8665 22.1326 50.1331 22.666 49.3334 22.9994C49.6668 22.1995 50.2002 21.4662 50.8 20.7994L51.1335 20.466C51.8003 19.8661 52.5337 19.3327 53.3335 18.9993C53 19.7996 52.4667 20.533 51.8668 21.1993ZM51.8668 11.1327L51.5334 11.4662C50.8665 12.0661 50.1331 12.5994 49.3334 12.9328C49.6668 12.133 50.2002 11.3996 50.8 10.7328L51.1335 10.3994C51.8003 9.79951 52.5337 9.26613 53.3335 8.93274C53 9.73306 52.4667 10.4664 51.8668 11.1327Z" fill="url(#paint0_linear_291_5757)"/>
<defs>
<linearGradient id="paint0_linear_291_5757" x1="22.0513" y1="-21.9403" x2="91.5871" y2="8.59497" gradientUnits="userSpaceOnUse">
<stop stop-color="#BD2F2F"/>
<stop offset="1" stop-color="#FF4848"/>
</linearGradient>
</defs>
</svg>
