<svg width="43" height="60" viewBox="0 0 43 60" fill="none" xmlns="http://www.w3.org/2000/svg">
<path d="M0.046306 38.0097L13.5357 45.644L13.5192 49.9352L0.0322551 42.2888L0.046306 38.0097ZM14.8623 49.9759L14.8821 45.6694C32.4285 35.6647 26.8117 38.8673 28.2318 38.0573C28.2313 38.1857 28.2139 42.616 28.2153 42.3476C26.8445 43.1308 33.161 39.5225 14.862 49.9759H14.8623ZM28.2626 23.1644L14.7768 15.5139L14.7886 8.78618L28.2804 16.4384C28.2794 16.8021 28.2625 23.576 28.2634 23.1643L28.2626 23.1644ZM29.5888 30.5182L29.6015 24.6578L42.9825 17.017L42.9698 22.8774L29.5888 30.5182ZM42.9854 15.4931L29.6044 23.1339L29.619 16.4381L43 8.79316L42.9854 15.4931ZM28.2585 24.6823L28.2439 30.5293L14.763 22.8821L14.7729 17.0324L28.2585 24.6823ZM28.2402 32.8794L28.234 36.5335C26.953 37.264 16.3834 43.2912 14.8843 44.146L14.8961 40.4993C26.5501 33.8437 14.4682 40.7429 28.2398 32.8794H28.2402ZM14.8363 55.7956C14.8367 55.6671 14.8551 51.2345 14.8537 51.5025C18.2433 49.566 24.8232 45.8075 28.2118 43.8714C28.2118 43.9999 28.208 48.4251 28.208 48.1567C27.1095 48.7842 18.1985 53.8743 14.8355 55.7956H14.8363ZM29.6186 32.0241L42.9659 24.4023L42.9532 30.2627L29.595 37.8905L29.6186 32.0241ZM14.1188 24.059C14.3953 24.2156 27.4263 31.6032 27.6081 31.7062C26.3704 32.4136 15.2444 38.7735 14.2235 39.3599C12.6806 38.4847 2.30244 32.5989 0.731749 31.708L14.1188 24.059ZM13.5554 40.5012L13.5413 44.1299L0.0507331 36.4951L0.0624896 32.8485L13.5554 40.5012ZM0.0275213 43.8073L13.5133 51.4527C13.5128 51.5812 13.494 55.9976 13.4949 55.7291L0.0139976 48.0847L0.0275213 43.8073ZM14.8303 57.3219C18.2599 55.3631 24.7797 51.6389 28.2053 49.6825L28.1996 52.3413L14.8198 59.9843L14.8303 57.3219ZM29.5644 45.2836L29.5875 39.4171L42.948 31.7879L42.9353 37.6483L29.5644 45.2836ZM28.8435 0L42.3293 7.65143L28.9435 15.2949L15.4577 7.64351L28.8435 0ZM0.0084647 49.6023L13.487 57.2458C13.4865 57.3743 13.4776 60.1643 13.4785 59.9924L0 52.3405L0.0084647 49.6023ZM29.5418 51.574C29.5422 51.3882 29.5545 48.0003 29.5582 46.8091L42.932 39.1725L42.9217 43.9295L29.5418 51.574Z" fill="url(#paint0_linear_291_5750)"/>
<defs>
<linearGradient id="paint0_linear_291_5750" x1="15.8034" y1="-21.9403" x2="69.8902" y2="-4.91862" gradientUnits="userSpaceOnUse">
<stop stop-color="#BD2F2F"/>
<stop offset="1" stop-color="#FF4848"/>
</linearGradient>
</defs>
</svg>
