<svg width="60" height="60" viewBox="0 0 60 60" fill="none" xmlns="http://www.w3.org/2000/svg">
<path d="M59.3736 34.9998H56.0643C55.6379 33.8025 50.2584 18.6982 49.8322 17.5005H57.4942C57.3795 14.7237 55.0848 12.5005 52.2804 12.5005H33.749V17.5005H47.6758C47.3834 18.3206 42.803 31.1598 41.433 34.9998H38.1236C37.7786 34.9998 37.4986 35.2797 37.4986 35.6248C37.4986 41.8279 42.5455 46.8748 48.7486 46.8748C54.9518 46.8748 59.9987 41.828 59.9987 35.6248C59.9987 35.2798 59.7188 34.9998 59.3737 34.9998H59.3736ZM42.7611 34.9998C42.8174 34.8422 42.0839 36.9017 48.7543 18.1976C48.7851 18.3869 48.4262 17.303 54.7369 34.9998H42.7611Z" fill="url(#paint0_linear_401_8781)"/>
<path d="M22.4995 35.6248C22.4995 35.2798 22.2196 34.9998 21.8745 34.9998H18.5647C18.3093 34.1096 15.0647 25.0914 12.3616 17.5005H26.2496V12.5005H7.71823C4.91379 12.5005 2.61917 14.7237 2.50443 17.5005H10.1777C9.83569 18.4589 5.10396 31.7221 3.93482 34.9998H0.625004C0.279919 34.9998 0 35.2797 0 35.6248C0 41.8279 5.04684 46.8748 11.25 46.8748C17.4532 46.8748 22.5 41.828 22.5 35.6248H22.4995ZM5.26188 34.9998C5.27482 34.9628 4.93509 35.9159 11.2551 18.1976C11.2721 18.3422 10.9131 17.2695 17.2377 34.9998H5.26188Z" fill="url(#paint1_linear_401_8781)"/>
<path d="M19.999 51.25V54.9999H39.9989V51.25H19.999Z" fill="url(#paint2_linear_401_8781)"/>
<path d="M27.1866 10.496C27.3794 10.6076 27.4986 10.8138 27.4986 11.037V50.0003H32.4986V11.037C32.4986 10.8138 32.6173 10.6076 32.8106 10.496C34.546 9.49194 35.6235 7.62546 35.6235 5.62501C35.6235 2.52319 33.1004 0 29.9985 0C26.8967 0 24.3735 2.52319 24.3735 5.62501C24.3735 7.62546 25.4512 9.49196 27.1864 10.496H27.1866Z" fill="url(#paint3_linear_401_8781)"/>
<path d="M12.4995 56.25V59.9999H47.4994V56.25H12.4995Z" fill="url(#paint4_linear_401_8781)"/>
<defs>
<linearGradient id="paint0_linear_401_8781" x1="43.3963" y1="-0.0692319" x2="76.016" y2="10.8694" gradientUnits="userSpaceOnUse">
<stop stop-color="#BD2F2F"/>
<stop offset="1" stop-color="#FF4848"/>
</linearGradient>
<linearGradient id="paint1_linear_401_8781" x1="9.64728" y1="-0.0692319" x2="42.2669" y2="10.8693" gradientUnits="userSpaceOnUse">
<stop stop-color="#BD2F2F"/>
<stop offset="1" stop-color="#FF4848"/>
</linearGradient>
<linearGradient id="paint2_linear_401_8781" x1="27.3494" y1="49.8788" x2="31.6127" y2="59.8635" gradientUnits="userSpaceOnUse">
<stop stop-color="#BD2F2F"/>
<stop offset="1" stop-color="#FF4848"/>
</linearGradient>
<linearGradient id="paint3_linear_401_8781" x1="28.5082" y1="-18.2837" x2="43.91" y2="-16.7619" gradientUnits="userSpaceOnUse">
<stop stop-color="#BD2F2F"/>
<stop offset="1" stop-color="#FF4848"/>
</linearGradient>
<linearGradient id="paint4_linear_401_8781" x1="25.3627" y1="54.8788" x2="28.0811" y2="66.0205" gradientUnits="userSpaceOnUse">
<stop stop-color="#BD2F2F"/>
<stop offset="1" stop-color="#FF4848"/>
</linearGradient>
</defs>
</svg>
