<svg width="69" height="69" fill="none" xmlns="http://www.w3.org/2000/svg">
  <path d="M44.229 26.289 23.39 42.849c-.414.345-.552 1.035-.138 1.449a.984.984 0 0 0 .828.414c.207 0 .483-.07.62-.207l20.839-16.56c.414-.345.552-1.035.138-1.45-.345-.482-.966-.551-1.45-.206ZM28.98 33.672c.276 0 .552 0 .828-.07 2.83-.413 4.83-3.104 4.347-6.002a5.32 5.32 0 0 0-2.07-3.45 5.138 5.138 0 0 0-3.864-.966 5.32 5.32 0 0 0-3.45 2.07 5.138 5.138 0 0 0-.966 3.864c.414 2.69 2.691 4.554 5.175 4.554Zm-.483-8.35c.138 0 .345-.068.483-.068 1.518 0 2.898 1.104 3.105 2.69.276 1.726-.897 3.313-2.622 3.589-1.725.276-3.312-.897-3.588-2.622-.276-1.725.966-3.312 2.622-3.588ZM40.02 37.122a5.242 5.242 0 0 0-5.244 5.244 5.242 5.242 0 0 0 5.244 5.244 5.242 5.242 0 0 0 5.244-5.244c-.069-2.898-2.415-5.244-5.244-5.244Zm0 8.349c-1.725 0-3.174-1.45-3.174-3.174 0-1.725 1.45-3.174 3.174-3.174 1.725 0 3.174 1.449 3.174 3.174-.069 1.794-1.449 3.174-3.174 3.174Z" fill="#1C1B1F"/>
  <path d="M65.826 34.707c0-.07.07-.207.07-.276 0-2.967-3.106-4.485-5.797-5.796-1.932-.966-4.002-2.001-4.554-3.243-.552-1.311.207-3.45.966-5.451 1.035-2.83 2.07-5.727.138-7.66-1.932-1.931-4.692-1.241-7.452-.62-1.932.414-3.933.897-5.244.345-1.31-.552-2.415-2.277-3.45-3.933-1.518-2.346-3.174-5.037-6.072-5.037s-4.554 2.69-6.003 5.106c-1.035 1.725-2.07 3.45-3.38 4.002-1.312.552-3.382.069-5.314-.414-2.76-.69-5.589-1.38-7.452.483-1.932 1.932-.966 4.83-.069 7.659.69 2.07 1.311 4.14.76 5.52-.553 1.31-2.485 2.277-4.348 3.243-2.622 1.38-5.589 2.898-5.589 5.796 0 .069 0 .207.07.276 0 .069-.07.207-.07.276 0 2.898 2.967 4.485 5.59 5.796 1.862.966 3.794 1.932 4.346 3.243.552 1.31-.138 3.45-.759 5.52-.897 2.829-1.863 5.727.07 7.659 1.931 1.932 4.76 1.173 7.451.483 1.932-.483 4.002-.966 5.313-.414s2.346 2.277 3.381 4.002c1.45 2.415 3.105 5.106 6.003 5.106s4.623-2.691 6.072-5.037c1.035-1.656 2.14-3.381 3.45-3.933 1.38-.552 3.312-.138 5.244.345 2.691.62 5.52 1.31 7.452-.621 1.932-1.932.897-4.83-.138-7.66-.759-2.07-1.518-4.14-.966-5.45.552-1.311 2.553-2.277 4.554-3.243 2.691-1.38 5.796-2.898 5.796-5.796 0-.138-.069-.207-.069-.276Zm-6.693 4.209c-2.277 1.173-4.692 2.346-5.52 4.347-.897 2.07.07 4.554.897 6.969.828 2.277 1.656 4.485.621 5.45-1.104 1.105-3.243.622-5.52.07-2.277-.552-4.554-1.035-6.555-.207-1.932.828-3.174 2.76-4.347 4.692-1.31 2.07-2.553 4.07-4.347 4.07-1.725 0-2.967-2-4.278-4.14-1.173-2-2.415-4.001-4.347-4.83-2-.827-4.347-.275-6.624.346-2.277.552-4.416 1.104-5.52.069-1.035-1.035-.345-3.243.414-5.52.76-2.415 1.587-4.9.69-6.9-.828-2.001-3.105-3.174-5.313-4.278-2.277-1.173-4.416-2.277-4.416-4.002 0-.07 0-.207-.069-.276 0-.07.07-.207.07-.276 0-1.656 2.138-2.76 4.415-4.002 2.208-1.104 4.485-2.277 5.313-4.278.828-2.07.07-4.554-.69-6.9-.759-2.346-1.449-4.554-.414-5.52 1.104-1.104 3.243-.552 5.52.069 2.277.552 4.623 1.173 6.624.345 1.932-.828 3.174-2.83 4.347-4.83 1.311-2.14 2.484-4.14 4.278-4.14 1.794 0 3.036 2 4.347 4.07 1.242 1.933 2.484 3.865 4.347 4.693 2.001.828 4.278.276 6.555-.207 2.277-.552 4.416-1.035 5.52.069 1.035.966.207 3.174-.62 5.45-.898 2.416-1.795 4.9-.898 6.97.828 2 3.243 3.174 5.52 4.347 2.415 1.173 4.623 2.346 4.623 4.002 0 .069 0 .207.07.276 0 .069-.07.207-.07.276.07 1.38-2.208 2.553-4.623 3.726Z" fill="#1C1B1F"/>
</svg>
