<svg width="26" height="26" fill="none" xmlns="http://www.w3.org/2000/svg">
  <g clip-path="url(#a)">
    <path d="M25.99 13.04c0-.015.01-.025.01-.04s-.005-.025-.01-.04a13.005 13.005 0 0 0-1.265-5.53h.03V5.57a4.339 4.339 0 0 0-4.33-4.33h-1.86v.03a12.997 12.997 0 0 0-5.52-1.26C13.032.01 13.016 0 13 0s-.03.01-.046.01A13.037 13.037 0 0 0 7.43 1.27v-.03H5.571a4.339 4.339 0 0 0-4.332 4.33v1.86h.03A13 13 0 0 0 .01 12.96c0 .015-.01.025-.01.04s.005.025.01.04a13.006 13.006 0 0 0 1.265 5.53h-.03v1.86a4.339 4.339 0 0 0 4.33 4.33h1.86v-.03a13.081 13.081 0 0 0 5.53 1.265c.015 0 .025.01.04.01s.025-.005.04-.01a13.007 13.007 0 0 0 5.53-1.265v.03h1.86a4.339 4.339 0 0 0 4.331-4.33v-1.86h-.035a13 13 0 0 0 1.259-5.53Zm-5.591-.66a7.333 7.333 0 0 0-2.148-4.63c-1.29-1.29-2.946-1.971-4.632-2.113V1.275a11.701 11.701 0 0 1 7.699 3.412 11.701 11.701 0 0 1 3.412 7.699H20.4v-.005ZM8.623 17.377a6.2 6.2 0 0 1 0-8.754A6.166 6.166 0 0 1 13 6.815c1.584 0 3.169.604 4.377 1.808A6.15 6.15 0 0 1 19.19 13a6.15 6.15 0 0 1-1.813 4.377 6.2 6.2 0 0 1-8.754 0ZM12.38 5.632c-1.691.142-3.342.822-4.632 2.112-1.29 1.29-1.97 2.946-2.112 4.631H1.275a11.701 11.701 0 0 1 3.412-7.698 11.701 11.701 0 0 1 7.699-3.413v4.368h-.005ZM5.63 13.62c.143 1.69.823 3.34 2.113 4.636 1.29 1.29 2.946 1.97 4.631 2.112v4.363a11.701 11.701 0 0 1-7.698-3.413 11.701 11.701 0 0 1-3.413-7.699h4.368Zm7.989 6.743c1.69-.142 3.34-.822 4.63-2.112a7.398 7.398 0 0 0 2.149-4.637h4.326a11.701 11.701 0 0 1-3.412 7.699 11.701 11.701 0 0 1-7.698 3.412v-4.362h.005Zm9.882-15a12.5 12.5 0 0 0-1.31-1.554 13.067 13.067 0 0 0-1.56-1.31 3.073 3.073 0 0 1 2.87 2.863ZM5.368 2.498c-.544.391-1.072.823-1.56 1.31a13.07 13.07 0 0 0-1.31 1.56 3.073 3.073 0 0 1 2.87-2.87Zm-2.87 18.14c.397.543.823 1.066 1.31 1.558a13.07 13.07 0 0 0 1.56 1.31 3.081 3.081 0 0 1-2.87-2.869Zm18.14 2.864a13.485 13.485 0 0 0 1.558-1.31c.493-.488.914-1.016 1.31-1.56a3.081 3.081 0 0 1-2.869 2.87Z" fill="#fff"/>
  </g>
  <defs>
    <clipPath id="a">
      <path fill="#fff" d="M0 0h26v26H0z"/>
    </clipPath>
  </defs>
</svg>
