<svg width="31" height="32" fill="none" xmlns="http://www.w3.org/2000/svg">
  <path d="M21.114 27.75a12.029 12.029 0 0 1-2.809-.355c-3.174-.765-6.443-2.708-9.203-5.47-2.76-2.763-4.705-6.032-5.471-9.204-.807-3.336-.231-6.19 1.618-8.039l.528-.528a2.555 2.555 0 0 1 3.61 0l3.034 3.033a2.554 2.554 0 0 1 0 3.61l-1.793 1.792c.86 1.507 2.028 3.016 3.41 4.397 1.38 1.381 2.89 2.55 4.397 3.41l1.792-1.793a2.553 2.553 0 0 1 3.61 0l3.033 3.034a2.553 2.553 0 0 1 0 3.61l-.529.527c-1.303 1.306-3.107 1.976-5.227 1.976ZM7.582 5.223a.727.727 0 0 0-.52.215l-.53.528C5.149 7.351 4.745 9.6 5.395 12.293c.688 2.853 2.46 5.818 4.99 8.347 2.529 2.528 5.493 4.299 8.347 4.99 2.695.65 4.942.245 6.326-1.14l.528-.527a.736.736 0 0 0 0-1.041l-3.033-3.034a.736.736 0 0 0-1.04 0L19.24 22.16a.909.909 0 0 1-1.06.165c-1.862-.963-3.739-2.364-5.428-4.054-1.69-1.689-3.088-3.564-4.053-5.426a.908.908 0 0 1 .164-1.06l2.272-2.271a.736.736 0 0 0 0-1.04L8.102 5.437a.73.73 0 0 0-.52-.215Z" fill="#fff"/>
  <path d="M22.084 16.831a.908.908 0 0 1-.908-.908 6.017 6.017 0 0 0-6.009-6.01.908.908 0 1 1 0-1.816c4.315 0 7.826 3.511 7.826 7.826a.908.908 0 0 1-.909.908Z" fill="#fff"/>
  <path d="M25.923 16.831a.908.908 0 0 1-.908-.908c0-5.43-4.42-9.848-9.848-9.848a.908.908 0 1 1 0-1.817c6.432 0 11.664 5.233 11.664 11.665a.908.908 0 0 1-.908.908Z" fill="#fff"/>
</svg>
