<svg width="119" height="112" fill="none" xmlns="http://www.w3.org/2000/svg">
  <path opacity=".5" d="M16.905 108.444c7.227 2.656 15.647 3.42 22.875 3.17 14.561-.503 28.723-3.215 41.993-7.51 12.21-3.952 26.623-9.188 32.913-19.79 6.447-10.865 4.378-24.704-.976-36.766-4.537-10.225-11.651-19.631-19.623-28.307C89.33 14.063 84.15 9.033 77.848 5.41c-7.074-4.066-16.012-6.287-23.51-3.84-11.792 3.847-15.82 15.484-18.935 25.425-3.58 11.422-9.35 21.686-17.546 30.721-5.523 6.085-11.682 12.05-15.2 19.394C.456 81.709-.584 86.957.673 92.14c2.031 8.373 8.44 13.438 16.233 16.303Z" fill="#6FDE9B"/>
</svg>
