<svg width="109" height="125" fill="none" xmlns="http://www.w3.org/2000/svg">
  <path opacity=".5" d="M19.155 8.011c-5.044 5.082-8.688 12.175-10.947 18.72C3.655 39.912 1.357 53.852.884 67.796c-.435 12.83-.402 28.261 7.583 39.179 8.183 11.189 22.161 16.311 35.572 17.623 11.367 1.112 22.842-.475 33.913-3.19 6.607-1.62 13.22-3.692 18.869-7.465 6.343-4.237 11.562-11.058 11.81-18.946.391-12.406-9.368-21.835-17.817-29.6-9.709-8.924-17.55-19.208-23.374-31.031-3.922-7.964-7.51-16.433-13.33-23.25-3.645-4.269-8.314-7.831-13.718-9.322-8.725-2.407-15.796.736-21.237 6.216Z" fill="#6FDE9B"/>
</svg>
