<?xml version="1.0" encoding="UTF-8" standalone="no"?>
<svg
   width="90"
   height="90"
   fill="none"
   version="1.1"
   id="svg10"
   sodipodi:docname="icon5.svg"
   inkscape:version="1.1 (c68e22c387, 2021-05-23)"
   xmlns:inkscape="http://www.inkscape.org/namespaces/inkscape"
   xmlns:sodipodi="http://sodipodi.sourceforge.net/DTD/sodipodi-0.dtd"
   xmlns="http://www.w3.org/2000/svg"
   xmlns:svg="http://www.w3.org/2000/svg">
  <defs
     id="defs14" />
  <sodipodi:namedview
     id="namedview12"
     pagecolor="#ffffff"
     bordercolor="#666666"
     borderopacity="1.0"
     inkscape:pageshadow="2"
     inkscape:pageopacity="0.0"
     inkscape:pagecheckerboard="0"
     showgrid="false"
     inkscape:zoom="10.518072"
     inkscape:cx="30.5189"
     inkscape:cy="41.5"
     inkscape:window-width="2560"
     inkscape:window-height="1411"
     inkscape:window-x="7191"
     inkscape:window-y="-9"
     inkscape:window-maximized="1"
     inkscape:current-layer="svg10" />
  <g
     id="g835"
     transform="translate(14.499999,3.5000357)">
    <path
       d="m 45.865,61.557 a 1.1,1.1 0 0 0 -0.68,-0.459 1.186,1.186 0 0 0 -0.834,0.117 l -5.479,3.056 a 1.08,1.08 0 0 0 -0.328,0.284 0.981,0.981 0 0 0 -0.18,0.38 0.93,0.93 0 0 0 0.002,0.414 0.972,0.972 0 0 0 0.181,0.379 l 3.433,4.436 c -1.288,1.37 -5.068,4.968 -11.479,7.675 -6.386,-2.697 -10.187,-6.305 -11.478,-7.675 l 3.443,-4.435 a 0.977,0.977 0 0 0 0.18,-0.38 0.937,0.937 0 0 0 0,-0.413 0.976,0.976 0 0 0 -0.179,-0.38 c -0.087,-0.114 -0.199,-0.21 -0.328,-0.283 l -5.48,-3.058 c -0.25,-0.14 -0.55,-0.182 -0.834,-0.118 a 1.1,1.1 0 0 0 -0.68,0.46 0.945,0.945 0 0 0 -0.128,0.767 c 0.07,0.26 0.249,0.486 0.5,0.625 l 4.462,2.487 -3.241,4.18 a 0.955,0.955 0 0 0 -0.206,0.596 0.957,0.957 0 0 0 0.216,0.593 c 0.177,0.222 4.44,5.455 13.305,9.078 a 1.188,1.188 0 0 0 0.895,0 c 8.864,-3.616 13.128,-8.849 13.304,-9.078 a 0.958,0.958 0 0 0 0.216,-0.593 0.956,0.956 0 0 0 -0.205,-0.596 l -3.242,-4.18 4.463,-2.489 c 0.125,-0.068 0.233,-0.158 0.32,-0.265 a 0.98,0.98 0 0 0 0.185,-0.357 0.933,0.933 0 0 0 -0.124,-0.768 z"
       fill="#1c1b1f"
       id="path2" />
    <path
       d="m 0,81.986 c 0,0.27 0.116,0.527 0.323,0.717 C 0.53,82.893 0.81,83 1.103,83 h 58.795 c 0.292,0 0.573,-0.107 0.78,-0.297 A 0.974,0.974 0 0 0 61,81.986 v -1.891 c 0.002,-4.767 -1.341,-9.453 -3.898,-13.6 -2.556,-4.147 -6.24,-7.614 -10.688,-10.061 A 1.197,1.197 0 0 0 45.579,56.32 c -0.14,0.033 -0.273,0.09 -0.389,0.17 a 1.05,1.05 0 0 0 -0.289,0.293 0.934,0.934 0 0 0 -0.123,0.768 c 0.035,0.129 0.098,0.25 0.184,0.357 0.086,0.107 0.195,0.197 0.319,0.266 4.11,2.28 7.514,5.494 9.88,9.334 2.368,3.84 3.62,8.177 3.634,12.59 v 0.873 H 2.205 v -0.872 c 0.002,-4.585 1.344,-9.086 3.888,-13.03 2.543,-3.943 6.193,-7.186 10.567,-9.387 0.256,-0.13 0.446,-0.347 0.528,-0.605 A 0.941,0.941 0 0 0 17.096,56.305 1.09,1.09 0 0 0 16.437,55.82 1.19,1.19 0 0 0 15.598,55.904 C 10.878,58.28 6.938,61.78 4.195,66.037 1.45,70.293 0.002,75.15 0,80.099 Z M 30.501,0 C 24.575,0.006 18.893,2.174 14.702,6.028 10.512,9.881 8.154,15.106 8.147,20.556 v 19.786 c 0.002,1.495 0.648,2.928 1.798,3.986 1.15,1.057 2.709,1.652 4.335,1.653 h 2.752 c 0.292,0 0.573,-0.107 0.78,-0.297 a 0.974,0.974 0 0 0 0.322,-0.716 0.974,0.974 0 0 0 -0.323,-0.717 1.153,1.153 0 0 0 -0.779,-0.297 H 14.28 c -1.041,-10e-4 -2.04,-0.382 -2.776,-1.06 -0.737,-0.676 -1.151,-1.595 -1.152,-2.552 V 20.556 c 0.061,-4.81 2.153,-9.41 5.834,-12.827 3.682,-3.417 8.663,-5.384 13.893,-5.486 5.23,-0.102 10.298,1.67 14.133,4.94 3.835,3.271 6.138,7.785 6.42,12.588 a 0.983,0.983 0 0 0 0.36,0.697 c 0.214,0.18 0.498,0.274 0.788,0.263 0.29,-0.012 0.563,-0.128 0.761,-0.323 a 0.968,0.968 0 0 0 0.294,-0.722 C 52.606,14.385 50.151,9.372 45.986,5.7 41.821,2.03 36.271,-0.014 30.501,0 Z"
       fill="#1c1b1f"
       id="path4" />
    <path
       d="m 52.858,28.08 v -1.582 c -10e-4,-1.199 -0.52,-2.348 -1.441,-3.196 -0.922,-0.848 -2.171,-1.325 -3.475,-1.326 h -2.077 a 1.22,1.22 0 0 0 -0.401,-0.07 c -13.048,0 -16.643,-8.817 -16.787,-9.19 a 1.03,1.03 0 0 0 -0.399,-0.486 1.172,1.172 0 0 0 -0.63,-0.19 1.171,1.171 0 0 0 -0.628,0.186 c -0.183,0.12 -0.323,0.288 -0.4,0.483 -3.066,7.74 -9.96,9.161 -10.246,9.216 a 1.124,1.124 0 0 0 -0.633,0.353 0.966,0.966 0 0 0 -0.248,0.642 v 8.773 c 0.004,2.483 0.71,4.922 2.05,7.078 1.34,2.155 3.268,3.953 5.593,5.215 v 7.115 c 0,0.522 -0.19,1.029 -0.539,1.44 l -0.86,1.018 a 4.204,4.204 0 0 0 -0.974,2.248 4.09,4.09 0 0 0 0.467,2.38 l 8.282,15.382 c 0.091,0.169 0.232,0.312 0.407,0.411 a 1.174,1.174 0 0 0 1.163,0 c 0.174,-0.1 0.315,-0.242 0.406,-0.411 l 8.285,-15.372 a 4.033,4.033 0 0 0 0.298,-3.183 1.044,1.044 0 0 0 -0.535,-0.572 1.19,1.19 0 0 0 -0.817,-0.073 c -0.272,0.073 -0.503,0.24 -0.645,0.465 a 0.943,0.943 0 0 0 -0.117,0.747 2.164,2.164 0 0 1 -0.16,1.702 L 30.5,70.826 23.203,57.287 a 2.194,2.194 0 0 1 -0.25,-1.278 c 0.049,-0.438 0.23,-0.856 0.524,-1.205 l 0.86,-1.018 a 4.162,4.162 0 0 0 1.003,-2.685 v -6.116 a 16.771,16.771 0 0 0 7.17,0.928 16.442,16.442 0 0 0 6.848,-2.162 c 2.066,-1.208 3.792,-2.847 5.037,-4.784 a 13.465,13.465 0 0 0 2.13,-6.364 h 1.404 c 0.646,0 1.287,-0.116 1.884,-0.343 a 4.972,4.972 0 0 0 1.599,-0.98 c 0.457,-0.42 0.82,-0.918 1.068,-1.467 a 4.214,4.214 0 0 0 0.377,-1.732 z m -8.494,3.503 v 0.104 a 11.491,11.491 0 0 1 -1.654,5.922 c -1.086,1.814 -2.654,3.345 -4.558,4.45 a 14.153,14.153 0 0 1 -6.329,1.873 14.338,14.338 0 0 1 -6.525,-1.172 1.01,1.01 0 0 0 -0.39,-0.543 1.163,1.163 0 0 0 -0.67,-0.213 1.163,1.163 0 0 0 -0.316,0.047 c -1.905,-1.104 -3.475,-2.633 -4.563,-4.446 a 11.494,11.494 0 0 1 -1.66,-5.92 v -7.997 a 17.048,17.048 0 0 0 10.022,-8.233 17.445,17.445 0 0 0 2.788,3.251 c 2.485,2.27 6.87,4.95 13.855,5.207 z m 6.285,-3.508 c 0,0.662 -0.286,1.296 -0.794,1.763 a 2.837,2.837 0 0 1 -1.917,0.732 h -1.37 v -6.565 h 1.37 c 0.719,0 1.408,0.264 1.916,0.73 0.508,0.468 0.794,1.102 0.795,1.763 z"
       fill="#1c1b1f"
       id="path6" />
    <path
       d="M 33.697,47.14 H 32.52 c -1.047,0.002 -2.05,0.384 -2.79,1.065 -0.74,0.68 -1.156,1.603 -1.157,2.565 v 1.239 c 0,0.133 0.029,0.264 0.084,0.388 0.055,0.123 0.137,0.234 0.239,0.328 0.102,0.094 0.224,0.17 0.358,0.22 0.133,0.051 0.277,0.077 0.421,0.077 h 9.98 c 2.69,-0.003 5.268,-0.988 7.17,-2.738 1.9,-1.75 2.968,-4.123 2.967,-6.597 v -6.212 a 0.982,0.982 0 0 0 -0.34,-0.69 1.158,1.158 0 0 0 -0.763,-0.282 c -0.285,0 -0.559,0.1 -0.764,0.282 a 0.981,0.981 0 0 0 -0.34,0.69 v 6.212 c 0,1.935 -0.836,3.79 -2.323,5.159 -1.487,1.369 -3.504,2.139 -5.607,2.141 H 37.639 V 50.77 c -0.001,-0.961 -0.416,-1.883 -1.155,-2.563 -0.739,-0.68 -1.74,-1.064 -2.786,-1.066 z m 1.742,3.847 H 30.777 V 50.77 c 0,-0.425 0.184,-0.832 0.51,-1.132 0.327,-0.3 0.77,-0.47 1.232,-0.47 h 1.178 c 0.462,0 0.905,0.17 1.232,0.47 0.326,0.3 0.51,0.707 0.51,1.132 z"
       fill="#1c1b1f"
       id="path8" />
  </g>
</svg>
