<?xml version="1.0" encoding="UTF-8" standalone="no"?>
<svg
   width="90"
   height="90"
   fill="none"
   version="1.1"
   id="svg43"
   sodipodi:docname="icon4.svg"
   inkscape:version="1.1 (c68e22c387, 2021-05-23)"
   xmlns:inkscape="http://www.inkscape.org/namespaces/inkscape"
   xmlns:sodipodi="http://sodipodi.sourceforge.net/DTD/sodipodi-0.dtd"
   xmlns="http://www.w3.org/2000/svg"
   xmlns:svg="http://www.w3.org/2000/svg">
  <sodipodi:namedview
     id="namedview45"
     pagecolor="#ffffff"
     bordercolor="#666666"
     borderopacity="1.0"
     inkscape:pageshadow="2"
     inkscape:pageopacity="0.0"
     inkscape:pagecheckerboard="0"
     showgrid="false"
     inkscape:zoom="9.9204545"
     inkscape:cx="51.509737"
     inkscape:cy="44"
     inkscape:window-width="2560"
     inkscape:window-height="1411"
     inkscape:window-x="7191"
     inkscape:window-y="-9"
     inkscape:window-maximized="1"
     inkscape:current-layer="svg43" />
  <mask
     id="b"
     fill="#ffffff">
    <path
       d="m 62.177,62.645 a 6.645,6.645 0 1 0 -6.645,6.644 v -1.895 a 4.75,4.75 0 1 1 4.75,-4.75 h 1.895 z"
       id="path14" />
  </mask>
  <mask
     id="c"
     fill="#ffffff">
    <path
       d="m 97.888,62.645 a 6.645,6.645 0 0 0 -11.981,-3.96 l 1.522,1.13 a 4.75,4.75 0 0 1 8.564,2.83 z"
       id="path25" />
  </mask>
  <g
     id="g1003"
     transform="translate(-14.4345,1)">
    <g
       id="g877">
      <g
         clip-path="url(#a)"
         id="g8">
        <path
           d="M 49.403,69 H 21.373 A 5.331,5.331 0 0 1 15.981,63.744 V 5.256 A 5.331,5.331 0 0 1 21.372,0 h 28.031 a 5.331,5.331 0 0 1 5.39,5.256 V 63.744 A 5.33,5.33 0 0 1 49.404,69 Z M 21.373,2.156 a 3.175,3.175 0 0 0 -3.235,3.1 v 58.488 a 3.175,3.175 0 0 0 3.234,3.1 h 28.031 a 3.175,3.175 0 0 0 3.235,-3.1 V 5.256 a 3.175,3.175 0 0 0 -3.235,-3.1 z"
           fill="#1c1b1f"
           id="path2" />
        <path
           d="M 41.344,6.469 H 29.431 c -1.472,0 -2.668,-1.386 -2.668,-3.084 V 1.342 h 2.156 v 2.043 c 0,0.54 0.307,0.928 0.512,0.928 h 11.913 c 0.205,0 0.512,-0.372 0.512,-0.928 V 1.677 h 2.157 v 1.708 c 0,1.698 -1.197,3.084 -2.669,3.084 z"
           fill="#1c1b1f"
           id="path4" />
        <path
           fill="#b7efcd"
           d="m 44.888,42 h 13 v 28 h -13 z"
           id="path6" />
      </g>
      <path
         id="rect10"
         style="stroke:#1c1b1f;stroke-width:2"
         d="m 46.888,42 h 53 c 1.108,0 2,0.892 2,2 v 41 c 0,1.108 -0.892,2 -2,2 h -53 c -1.108,0 -2,-0.892 -2,-2 V 44 c 0,-1.108 0.892,-2 2,-2 z" />
      <path
         d="m 49.888,49 h 18"
         stroke="#000000"
         stroke-width="2"
         stroke-linecap="round"
         id="path12" />
      <path
         d="m 62.177,62.645 a 6.645,6.645 0 1 0 -6.645,6.644 v -1.895 a 4.75,4.75 0 1 1 4.75,-4.75 h 1.895 z"
         stroke="#1c1b1f"
         stroke-width="3.828"
         mask="url(#b)"
         id="path17" />
      <path
         id="circle19"
         style="fill:#1c1b1f"
         d="m 62.176001,62.644001 a 0.949,0.949 0 0 1 -0.949,0.949 0.949,0.949 0 0 1 -0.949,-0.949 0.949,0.949 0 0 1 0.949,-0.949 0.949,0.949 0 0 1 0.949,0.949 z" />
      <path
         id="circle21"
         style="fill:#1c1b1f"
         d="m 56.481001,68.339996 a 0.949,0.949 0 0 1 -0.949,0.949 0.949,0.949 0 0 1 -0.949,-0.949 0.949,0.949 0 0 1 0.949,-0.949 0.949,0.949 0 0 1 0.949,0.949 z" />
      <path
         fill-rule="evenodd"
         clip-rule="evenodd"
         d="m 77.916,66.013 c -0.397,-0.295 -0.952,-0.204 -1.316,0.13 a 4.75,4.75 0 1 1 1.443,-4.44 c 0.104,0.513 0.518,0.941 1.042,0.941 0.523,0 0.954,-0.426 0.88,-0.944 A 6.632,6.632 0 0 0 78.446,58.336 6.644,6.644 0 1 0 77.35,67.978 C 77.388,67.95 77.388,68 77.888,67.5 l 0.148,-0.158 a 0.895,0.895 0 0 0 -0.12,-1.329 z"
         fill="#1c1b1f"
         id="path23" />
      <path
         d="m 97.888,62.645 a 6.645,6.645 0 0 0 -11.981,-3.96 l 1.522,1.13 a 4.75,4.75 0 0 1 8.564,2.83 z"
         stroke="#1c1b1f"
         stroke-width="3.828"
         mask="url(#c)"
         id="path28" />
      <path
         id="circle30"
         style="fill:#1c1b1f"
         d="m 97.887004,62.644001 a 0.949,0.949 0 0 1 -0.949,0.949 0.949,0.949 0 0 1 -0.949,-0.949 0.949,0.949 0 0 1 0.949,-0.949 0.949,0.949 0 0 1 0.949,0.949 z" />
      <path
         id="circle32"
         style="fill:#1c1b1f"
         d="m 87.785998,58.949001 a 0.949,0.949 0 0 1 -0.949,0.949 0.949,0.949 0 0 1 -0.949,-0.949 0.949,0.949 0 0 1 0.949,-0.949 0.949,0.949 0 0 1 0.949,0.949 z" />
      <path
         id="rect34"
         style="stroke:#000000;stroke-width:2"
         d="m 81.888,76 h 12 c 1.662,0 3,1.338 3,3 0,1.662 -1.338,3 -3,3 h -12 c -1.662,0 -3,-1.338 -3,-3 0,-1.662 1.338,-3 3,-3 z" />
      <path
         d="m 50,77 h 8 m -8,4 h 14"
         stroke="#000000"
         stroke-width="2"
         stroke-linecap="round"
         id="path36" />
    </g>
  </g>
  <defs
     id="defs41">
    <clipPath
       id="a">
      <path
         fill="#ffffff"
         d="m 0.888,0 h 69 v 69 h -69 z"
         id="path38" />
    </clipPath>
  </defs>
</svg>
