<?xml version="1.0" encoding="UTF-8" standalone="no"?>
<svg
   width="90"
   height="90"
   fill="none"
   version="1.1"
   id="svg11"
   sodipodi:docname="icon3.svg"
   inkscape:version="1.1 (c68e22c387, 2021-05-23)"
   xmlns:inkscape="http://www.inkscape.org/namespaces/inkscape"
   xmlns:sodipodi="http://sodipodi.sourceforge.net/DTD/sodipodi-0.dtd"
   xmlns="http://www.w3.org/2000/svg"
   xmlns:svg="http://www.w3.org/2000/svg">
  <defs
     id="defs15" />
  <sodipodi:namedview
     id="namedview13"
     pagecolor="#ffffff"
     bordercolor="#666666"
     borderopacity="1.0"
     inkscape:pageshadow="2"
     inkscape:pageopacity="0.0"
     inkscape:pagecheckerboard="0"
     showgrid="false"
     inkscape:zoom="11.337662"
     inkscape:cx="45.512027"
     inkscape:cy="38.5"
     inkscape:window-width="2560"
     inkscape:window-height="1411"
     inkscape:window-x="7191"
     inkscape:window-y="-9"
     inkscape:window-maximized="1"
     inkscape:current-layer="svg11" />
  <mask
     id="a"
     fill="#ffffff">
    <rect
       x="0.875"
       y="40.25"
       width="54.25"
       height="36.75"
       rx="1"
       id="rect4" />
  </mask>
  <g
     id="g835"
     transform="translate(-0.9375,6.5000048)">
    <path
       d="M 90.156,0 H 37.844 A 0.845,0.845 0 0 0 37,0.84 V 36.16 A 0.84,0.84 0 0 0 37.844,37 H 90.156 A 0.845,0.845 0 0 0 91,36.16 V 0.84 A 0.84,0.84 0 0 0 90.156,0 Z m -0.844,30.142 -10.01,-6.596 h 10.01 z m 0,-16.688 h -9.876 l 9.876,-6.588 z m 0,-8.61 -12.912,8.61 H 69.063 V 12.138 L 84.93,1.683 h 4.383 v 3.162 z m -15.5,2.148 -4.75,3.132 V 1.682 h 12.809 l -8.058,5.31 z M 58.938,1.682 v 8.442 l -4.75,-3.132 -8.059,-5.31 z m -20.25,0 h 4.383 l 15.867,10.457 v 1.316 H 51.766 L 38.688,4.838 Z m 0,21.864 h 10.01 l -10.01,6.596 z m 0,-16.688 10.01,6.596 h -10.01 z m 0,28.46 v -3.157 l 13.078,-8.616 h 7.172 v 1.316 L 43.07,35.319 h -4.383 z m 20.25,0 H 46.129 l 12.809,-8.442 z m 1.687,0 V 22.705 A 0.84,0.84 0 0 0 59.781,21.864 H 38.688 V 15.136 H 59.78 a 0.845,0.845 0 0 0 0.844,-0.84 V 1.681 h 6.75 v 12.614 a 0.84,0.84 0 0 0 0.844,0.84 h 21.094 v 6.728 H 68.219 a 0.845,0.845 0 0 0 -0.844,0.84 v 12.614 h -6.75 z m 8.438,-8.442 12.808,8.442 H 69.063 Z m 20.25,8.442 H 84.929 L 69.062,24.862 v -1.316 h 7.172 l 13.079,8.615 z"
       fill="#1c1b1f"
       id="path887" />
    <path
       mask="url(#a)"
       style="stroke:#1c1b1f;stroke-width:4"
       d="m 1.875,40.25 h 52.25 c 0.554,0 1,0.446 1,1 V 76 c 0,0.554 -0.446,1 -1,1 H 1.875 c -0.554,0 -1,-0.446 -1,-1 V 41.25 c 0,-0.554 0.446,-1 1,-1 z"
       id="path889" />
    <path
       d="M 2.625,52.063 H 53.813 M 2.625,64.75 h 51.188"
       stroke="#1c1b1f"
       stroke-width="2"
       stroke-linecap="round"
       id="path891" />
  </g>
</svg>
