<svg width="1235" height="650" viewBox="0 0 7410 3900" xmlns="http://www.w3.org/2000/svg"><path style="fill:#006;stroke-width:1pt" d="M0 0h60v30H0z" transform="matrix(123.5 0 0 129.9999 0 -.005)"/><path style="fill:#fff;stroke-width:1pt" d="M0 0v3.354L53.292 30H60v-3.354L6.708 0H0Zm60 0v3.354L6.708 30H0v-3.354L53.292 0Z" transform="matrix(123.5 0 0 129.9999 0 -.005)"/><path style="fill:#fff;stroke-width:1pt" d="M25 0v30h10V0ZM0 10v10h60V10Z" transform="matrix(123.5 0 0 129.9999 0 -.005)"/><path style="fill:#c00;stroke-width:1pt" d="M0 12v6h60v-6ZM27 0v30h6V0ZM0 30l20-10h4.472l-20 10zM0 0l20 10h-4.472L0 2.236Zm35.528 10 20-10H60L40 10ZM60 30 40 20h4.472L60 27.764Z" transform="matrix(123.5 0 0 129.9999 0 -.005)"/></svg>