<svg width="34" height="34" viewBox="0 0 34 34" fill="none" xmlns="http://www.w3.org/2000/svg">
<g clip-path="url(#clip0_1667_693)">
<path d="M29.0208 4.97917C25.81 1.76833 21.5408 0 17 0C12.459 0 8.19002 1.76833 4.97917 4.97917C1.76833 8.19002 0 12.459 0 17C0 21.5408 1.76833 25.81 4.97917 29.0208C8.19002 32.2317 12.459 34 17 34C21.5408 34 25.81 32.2317 29.0208 29.0208C32.2317 25.81 34 21.5408 34 17C34 12.459 32.2317 8.19002 29.0208 4.97917ZM8.52257 29.3772C9.23358 25.2834 12.7811 22.2637 17 22.2637C21.2191 22.2637 24.7664 25.2834 25.4774 29.3772C23.0637 31.0356 20.1434 32.0078 17 32.0078C13.8566 32.0078 10.9363 31.0356 8.52257 29.3772ZM11.5946 14.8662C11.5946 11.8854 14.0195 9.46082 17 9.46082C19.9805 9.46082 22.4054 11.8857 22.4054 14.8662C22.4054 17.8467 19.9805 20.2715 17 20.2715C14.0195 20.2715 11.5946 17.8467 11.5946 14.8662ZM27.203 27.9954C26.6668 26.0896 25.6019 24.3605 24.1094 23.0098C23.1937 22.181 22.1514 21.527 21.0308 21.0661C23.0562 19.745 24.3978 17.4594 24.3978 14.8662C24.3978 10.7871 21.0791 7.46863 17 7.46863C12.9209 7.46863 9.60245 10.7871 9.60245 14.8662C9.60245 17.4594 10.9441 19.745 12.9692 21.0661C11.8488 21.527 10.8063 22.1807 9.89064 23.0095C8.39832 24.3602 7.33322 26.0894 6.79704 27.9952C3.84378 25.2525 1.99219 21.3387 1.99219 17C1.99219 8.72464 8.72464 1.99219 17 1.99219C25.2754 1.99219 32.0078 8.72464 32.0078 17C32.0078 21.339 30.1562 25.2528 27.203 27.9954Z" fill="white"/>
</g>
<defs>
<clipPath id="clip0_1667_693">
<rect width="34" height="34" fill="white"/>
</clipPath>
</defs>
</svg>
