<svg width="62" height="61" viewBox="0 0 62 61" fill="none" xmlns="http://www.w3.org/2000/svg">
<path fill-rule="evenodd" clip-rule="evenodd" d="M36.6816 32.1035C35.6301 32.1035 34.6216 32.5212 33.8781 33.2648C33.1345 34.0083 32.7168 35.0168 32.7168 36.0683V59.0206C32.7168 59.849 32.0452 60.5206 31.2168 60.5206C30.3884 60.5206 29.7168 59.849 29.7168 59.0206V36.0683C29.7168 34.2212 30.4506 32.4496 31.7567 31.1435C33.0629 29.8373 34.8344 29.1035 36.6816 29.1035C38.5288 29.1035 40.3003 29.8373 41.6065 31.1435C42.9127 32.4496 43.6464 34.2212 43.6464 36.0683V46.591H50.8902C53.607 46.591 56.2125 47.6702 58.1336 49.5913C60.0546 51.5123 61.1339 54.1179 61.1339 56.8347V59.0206C61.1339 59.849 60.4623 60.5206 59.6339 60.5206C58.8055 60.5206 58.1339 59.849 58.1339 59.0206V56.8347C58.1339 54.9135 57.3707 53.0711 56.0123 51.7126C54.6538 50.3541 52.8113 49.591 50.8902 49.591H42.1464C41.318 49.591 40.6464 48.9194 40.6464 48.091V36.0683C40.6464 35.0168 40.2287 34.0083 39.4852 33.2648C38.7416 32.5212 37.7332 32.1035 36.6816 32.1035Z" fill="#FF4B12"/>
<path fill-rule="evenodd" clip-rule="evenodd" d="M0.615234 4.37153C0.615234 1.95701 2.57258 -0.000335693 4.9871 -0.000335693C7.40161 -0.000335693 9.35896 1.95701 9.35896 4.37153C9.35896 6.78604 7.40161 8.74339 4.9871 8.74339C2.57258 8.74339 0.615234 6.78604 0.615234 4.37153Z" fill="black"/>
<path fill-rule="evenodd" clip-rule="evenodd" d="M18.1035 4.37137C18.1035 1.95686 20.0609 -0.000488281 22.4754 -0.000488281C24.8899 -0.000488281 26.8472 1.95686 26.8472 4.37137C26.8472 6.78588 24.8899 8.74323 22.4754 8.74323C20.0609 8.74323 18.1035 6.78588 18.1035 4.37137Z" fill="black"/>
<path fill-rule="evenodd" clip-rule="evenodd" d="M35.5898 4.37153C35.5898 1.95701 37.5472 -0.000335693 39.9617 -0.000335693C42.3762 -0.000335693 44.3336 1.95701 44.3336 4.37153C44.3336 6.78604 42.3762 8.74339 39.9617 8.74339C37.5472 8.74339 35.5898 6.78604 35.5898 4.37153Z" fill="black"/>
<path fill-rule="evenodd" clip-rule="evenodd" d="M0.615234 19.6733C0.615234 17.2588 2.57258 15.3014 4.9871 15.3014C7.40161 15.3014 9.35896 17.2588 9.35896 19.6733C9.35896 22.0878 7.40161 24.0451 4.9871 24.0451C2.57258 24.0451 0.615234 22.0878 0.615234 19.6733Z" fill="black"/>
<path fill-rule="evenodd" clip-rule="evenodd" d="M18.1035 19.6733C18.1035 17.2588 20.0609 15.3014 22.4754 15.3014C24.8899 15.3014 26.8472 17.2588 26.8472 19.6733C26.8472 22.0878 24.8899 24.0451 22.4754 24.0451C20.0609 24.0451 18.1035 22.0878 18.1035 19.6733Z" fill="black"/>
<path fill-rule="evenodd" clip-rule="evenodd" d="M35.5898 19.6733C35.5898 17.2588 37.5472 15.3014 39.9617 15.3014C42.3762 15.3014 44.3336 17.2588 44.3336 19.6733C44.3336 22.0878 42.3762 24.0451 39.9617 24.0451C37.5472 24.0451 35.5898 22.0878 35.5898 19.6733Z" fill="black"/>
<path fill-rule="evenodd" clip-rule="evenodd" d="M0.615234 34.9741C0.615234 32.5596 2.57258 30.6022 4.9871 30.6022C7.40161 30.6022 9.35896 32.5596 9.35896 34.9741C9.35896 37.3886 7.40161 39.3459 4.9871 39.3459C2.57258 39.3459 0.615234 37.3886 0.615234 34.9741Z" fill="black"/>
<path fill-rule="evenodd" clip-rule="evenodd" d="M19.384 31.8827C20.2039 31.0628 21.3159 30.6022 22.4754 30.6022C23.6826 30.6022 24.6613 31.5809 24.6613 32.7881V37.16C24.6613 38.3673 23.6826 39.3459 22.4754 39.3459C21.3159 39.3459 20.2039 38.8853 19.384 38.0654C18.5641 37.2456 18.1035 36.1336 18.1035 34.9741C18.1035 33.8146 18.5641 32.7026 19.384 31.8827Z" fill="black"/>
</svg>
