<svg width="382" height="263" viewBox="0 0 382 263" fill="none" xmlns="http://www.w3.org/2000/svg">
<path fill-rule="evenodd" clip-rule="evenodd" d="M21.1981 47.0181C14.129 47.0181 8.38109 52.7959 8.38109 59.9446V116.909C8.38109 124.058 14.129 129.836 21.1981 129.836H176.646C183.715 129.836 189.463 124.058 189.463 116.909V59.9446C189.463 52.7959 183.715 47.0181 176.646 47.0181H21.1981ZM5.75195 59.9446C5.75195 51.363 12.6579 44.3889 21.1981 44.3889H176.646C185.186 44.3889 192.092 51.363 192.092 59.9446V116.909C192.092 125.491 185.186 132.465 176.646 132.465H21.1981C12.6579 132.465 5.75195 125.491 5.75195 116.909V59.9446Z" fill="white"/>
<path fill-rule="evenodd" clip-rule="evenodd" d="M49.4634 82.6211C46.2966 82.6211 43.7121 85.2109 43.7121 88.4271C43.7121 91.6432 46.2966 94.2331 49.4634 94.2331C52.6301 94.2331 55.2146 91.6432 55.2146 88.4271C55.2146 85.2109 52.6301 82.6211 49.4634 82.6211ZM41.083 88.4271C41.083 83.7781 44.8255 79.9919 49.4634 79.9919C54.1013 79.9919 57.8437 83.7781 57.8437 88.4271C57.8437 93.0761 54.1013 96.8622 49.4634 96.8622C44.8255 96.8622 41.083 93.0761 41.083 88.4271Z" fill="#FF4B12"/>
<path fill-rule="evenodd" clip-rule="evenodd" d="M104.673 88.4271C104.673 87.7011 105.261 87.1125 105.987 87.1125H155.448C156.174 87.1125 156.763 87.7011 156.763 88.4271C156.763 89.1531 156.174 89.7417 155.448 89.7417H105.987C105.261 89.7417 104.673 89.1531 104.673 88.4271Z" fill="white"/>
<path fill-rule="evenodd" clip-rule="evenodd" d="M10.2725 134.395C13.1684 131.477 17.0983 129.836 21.1981 129.836C21.9241 129.836 22.5127 130.424 22.5127 131.15C22.5127 131.876 21.9241 132.465 21.1981 132.465C17.8021 132.465 14.5432 133.824 12.1387 136.247C9.7339 138.671 8.38109 141.96 8.38109 145.391V202.356C8.38109 205.788 9.7339 209.077 12.1387 211.5C14.5432 213.923 17.8021 215.283 21.1981 215.283H176.646C180.042 215.283 183.301 213.923 185.705 211.5C188.11 209.077 189.463 205.788 189.463 202.356V145.391C189.463 141.96 188.11 138.671 185.705 136.247C183.301 133.824 180.042 132.465 176.646 132.465C175.92 132.465 175.331 131.876 175.331 131.15C175.331 130.424 175.92 129.836 176.646 129.836C180.746 129.836 184.676 131.477 187.571 134.395C190.467 137.313 192.092 141.269 192.092 145.391V202.356C192.092 206.478 190.467 210.434 187.571 213.352C184.676 216.27 180.746 217.912 176.646 217.912H21.1981C17.0983 217.912 13.1684 216.27 10.2725 213.352C7.37687 210.434 5.75195 206.478 5.75195 202.356V145.391C5.75195 141.269 7.37687 137.313 10.2725 134.395Z" fill="white"/>
<path fill-rule="evenodd" clip-rule="evenodd" d="M49.4634 168.067C46.2966 168.067 43.7121 170.657 43.7121 173.873C43.7121 177.09 46.2966 179.679 49.4634 179.679C52.6301 179.679 55.2146 177.09 55.2146 173.873C55.2146 170.657 52.6301 168.067 49.4634 168.067ZM41.083 173.873C41.083 169.224 44.8255 165.438 49.4634 165.438C54.1013 165.438 57.8437 169.224 57.8437 173.873C57.8437 178.522 54.1013 182.309 49.4634 182.309C44.8255 182.309 41.083 178.522 41.083 173.873Z" fill="#FF4B12"/>
<path fill-rule="evenodd" clip-rule="evenodd" d="M104.673 173.874C104.673 173.148 105.261 172.559 105.987 172.559H155.448C156.174 172.559 156.763 173.148 156.763 173.874C156.763 174.6 156.174 175.188 155.448 175.188H105.987C105.261 175.188 104.673 174.6 104.673 173.874Z" fill="white"/>
<path fill-rule="evenodd" clip-rule="evenodd" d="M5.53223 21.4414C5.53223 20.5944 6.21887 19.9077 7.06589 19.9077H374.41C375.257 19.9077 375.943 20.5944 375.943 21.4414C375.943 22.2884 375.257 22.975 374.41 22.975H7.06589C6.21887 22.975 5.53223 22.2884 5.53223 21.4414Z" fill="white"/>
<path fill-rule="evenodd" clip-rule="evenodd" d="M5.53223 260.767C5.53223 259.92 6.21887 259.233 7.06589 259.233H374.41C375.257 259.233 375.943 259.92 375.943 260.767C375.943 261.614 375.257 262.301 374.41 262.301H7.06589C6.21887 262.301 5.53223 261.614 5.53223 260.767Z" fill="white"/>
<path fill-rule="evenodd" clip-rule="evenodd" d="M5.53223 1.53366C5.53223 0.686644 6.21887 0 7.06589 0H374.41C375.257 0 375.943 0.686644 375.943 1.53366C375.943 2.38068 375.257 3.06733 374.41 3.06733H7.06589C6.21887 3.06733 5.53223 2.38068 5.53223 1.53366Z" fill="white"/>
<path fill-rule="evenodd" clip-rule="evenodd" d="M5.53223 240.859C5.53223 240.012 6.21887 239.326 7.06589 239.326H374.41C375.257 239.326 375.943 240.012 375.943 240.859C375.943 241.706 375.257 242.393 374.41 242.393H7.06589C6.21887 242.393 5.53223 241.706 5.53223 240.859Z" fill="white"/>
<path fill-rule="evenodd" clip-rule="evenodd" d="M204.829 46.8032C197.883 46.8032 192.231 52.4813 192.231 59.5107V116.475C192.231 123.505 197.883 129.183 204.829 129.183H360.277C367.224 129.183 372.875 123.505 372.875 116.475V59.5107C372.875 52.4813 367.224 46.8032 360.277 46.8032H204.829ZM189.164 59.5107C189.164 50.8097 196.166 43.7358 204.829 43.7358H360.277C368.94 43.7358 375.942 50.8097 375.942 59.5107V116.475C375.942 125.176 368.94 132.25 360.277 132.25H204.829C196.166 132.25 189.164 125.176 189.164 116.475V59.5107Z" fill="white"/>
<path fill-rule="evenodd" clip-rule="evenodd" d="M233.095 82.4062C230.05 82.4062 227.562 84.8964 227.562 87.9931C227.562 91.0899 230.05 93.58 233.095 93.58C236.139 93.58 238.627 91.0899 238.627 87.9931C238.627 84.8964 236.139 82.4062 233.095 82.4062ZM224.495 87.9931C224.495 83.2247 228.334 79.3389 233.095 79.3389C237.855 79.3389 241.694 83.2247 241.694 87.9931C241.694 92.7615 237.855 96.6473 233.095 96.6473C228.334 96.6473 224.495 92.7615 224.495 87.9931Z" fill="#FF4B12"/>
<path fill-rule="evenodd" clip-rule="evenodd" d="M288.085 87.9931C288.085 87.1461 288.772 86.4595 289.619 86.4595H339.079C339.926 86.4595 340.613 87.1461 340.613 87.9931C340.613 88.8402 339.926 89.5268 339.079 89.5268H289.619C288.772 89.5268 288.085 88.8402 288.085 87.9931Z" fill="white"/>
<path fill-rule="evenodd" clip-rule="evenodd" d="M193.748 133.807C196.685 130.848 200.671 129.183 204.829 129.183C205.676 129.183 206.363 129.87 206.363 130.717C206.363 131.564 205.676 132.25 204.829 132.25C201.492 132.25 198.289 133.586 195.925 135.968C193.562 138.35 192.231 141.584 192.231 144.958V201.922C192.231 205.296 193.562 208.53 195.925 210.912C198.289 213.294 201.492 214.63 204.829 214.63H360.277C363.614 214.63 366.817 213.294 369.181 210.912C371.545 208.53 372.875 205.296 372.875 201.922V144.958C372.875 141.584 371.545 138.35 369.181 135.968C366.817 133.586 363.614 132.25 360.277 132.25C359.43 132.25 358.743 131.564 358.743 130.717C358.743 129.87 359.43 129.183 360.277 129.183C364.436 129.183 368.421 130.848 371.358 133.807C374.295 136.767 375.942 140.778 375.942 144.958V201.922C375.942 206.102 374.295 210.113 371.358 213.073C368.421 216.032 364.436 217.697 360.277 217.697H204.829C200.671 217.697 196.685 216.032 193.748 213.073C190.812 210.113 189.164 206.102 189.164 201.922V144.958C189.164 140.778 190.812 136.767 193.748 133.807Z" fill="white"/>
<path fill-rule="evenodd" clip-rule="evenodd" d="M233.095 167.852C230.05 167.852 227.562 170.343 227.562 173.439C227.562 176.536 230.05 179.026 233.095 179.026C236.139 179.026 238.627 176.536 238.627 173.439C238.627 170.343 236.139 167.852 233.095 167.852ZM224.495 173.439C224.495 168.671 228.334 164.785 233.095 164.785C237.855 164.785 241.694 168.671 241.694 173.439C241.694 178.208 237.855 182.094 233.095 182.094C228.334 182.094 224.495 178.208 224.495 173.439Z" fill="#FF4B12"/>
<path fill-rule="evenodd" clip-rule="evenodd" d="M288.085 173.44C288.085 172.593 288.772 171.906 289.619 171.906H339.079C339.926 171.906 340.613 172.593 340.613 173.44C340.613 174.287 339.926 174.974 339.079 174.974H289.619C288.772 174.974 288.085 174.287 288.085 173.44Z" fill="white"/>
</svg>
