<svg width="64" height="66" viewBox="0 0 64 66" fill="none" xmlns="http://www.w3.org/2000/svg">
<path fill-rule="evenodd" clip-rule="evenodd" d="M15.7695 49.2336C16.8741 49.2336 17.7695 50.1291 17.7695 51.2336V58.5924L28.5352 49.6922C28.8937 49.3958 29.3443 49.2336 29.8095 49.2336H56.2695C56.912 49.2336 57.5414 48.9709 58.0154 48.4818C58.4914 47.9907 58.7695 47.3115 58.7695 46.5908V7.1265C58.7695 6.40575 58.4914 5.72663 58.0154 5.23545C57.5414 4.7464 56.912 4.48364 56.2695 4.48364H6.76953C6.12702 4.48364 5.49769 4.7464 5.02369 5.23545C4.54762 5.72663 4.26953 6.40575 4.26953 7.1265V46.5908C4.26953 47.3115 4.54762 47.9907 5.02369 48.4818C5.49769 48.9709 6.12702 49.2336 6.76953 49.2336H15.7695ZM15.7695 62.8408V51.2336H6.76953C5.57606 51.2336 4.43146 50.7445 3.58755 49.8738C2.74364 49.0031 2.26953 47.8222 2.26953 46.5908V7.1265C2.26953 5.89514 2.74364 4.71421 3.58755 3.8435C4.43146 2.9728 5.57606 2.48364 6.76953 2.48364H56.2695C57.463 2.48364 58.6076 2.9728 59.4515 3.8435C60.2954 4.71421 60.7695 5.89514 60.7695 7.1265V46.5908C60.7695 47.8222 60.2954 49.0031 59.4515 49.8738C58.6076 50.7445 57.463 51.2336 56.2695 51.2336H29.8095L15.7695 62.8408Z" fill="black"/>
<path fill-rule="evenodd" clip-rule="evenodd" d="M32.6354 15.2042C31.5262 14.9766 30.3762 15.0931 29.3294 15.5405C28.2822 15.988 27.3821 16.7481 26.7465 17.7295C26.1107 18.7113 25.7695 19.8687 25.7695 21.0551C25.7695 21.6074 25.3218 22.0551 24.7695 22.0551C24.2172 22.0551 23.7695 21.6074 23.7695 21.0551C23.7695 19.4868 24.2202 17.9512 25.0678 16.6424C25.9156 15.3333 27.1238 14.3081 28.5434 13.7014C29.9634 13.0946 31.5278 12.9352 33.0374 13.2451C34.5468 13.5548 35.9289 14.3186 37.0106 15.4346C38.092 16.5504 38.825 17.9682 39.1218 19.5071C39.4184 21.046 39.2664 22.6414 38.6837 24.0928C38.1009 25.5444 37.112 26.7902 35.8372 27.669C34.8401 28.3564 33.7039 28.7945 32.5195 28.9528V30.3408C32.5195 30.8931 32.0718 31.3408 31.5195 31.3408C30.9672 31.3408 30.5195 30.8931 30.5195 30.3408V28.0194C30.5195 27.4671 30.9672 27.0194 31.5195 27.0194C32.6497 27.0194 33.7572 26.6738 34.702 26.0224C35.6473 25.3707 36.3887 24.4411 36.8277 23.3477C37.2668 22.254 37.3821 21.0488 37.1579 19.8858C36.9337 18.7229 36.381 17.6588 35.5744 16.8266C34.7681 15.9947 33.7447 15.4319 32.6354 15.2042Z" fill="#FF4B12"/>
<path d="M31.5186 38.2341C31.18 38.2341 30.849 38.1331 30.5675 37.9439C30.286 37.7547 30.0665 37.4857 29.937 37.171C29.8074 36.8564 29.7735 36.5101 29.8395 36.176C29.9056 35.842 30.0686 35.5351 30.3081 35.2943C30.5475 35.0534 30.8525 34.8894 31.1846 34.823C31.5167 34.7565 31.8609 34.7906 32.1737 34.921C32.4865 35.0513 32.7539 35.272 32.942 35.5552C33.1301 35.8384 33.2305 36.1714 33.2305 36.512C33.2246 36.9669 33.0423 37.4015 32.7226 37.7232C32.4028 38.0448 31.9708 38.2282 31.5186 38.2341Z" fill="#FF4B12"/>
</svg>
