<svg width="66" height="66" viewBox="0 0 66 66" fill="none" xmlns="http://www.w3.org/2000/svg">
<path fill-rule="evenodd" clip-rule="evenodd" d="M63.2048 20.6834V7.12626C63.2048 5.89489 62.7156 4.71396 61.8449 3.84326C60.9742 2.97256 59.7933 2.4834 58.5619 2.4834H7.49051C6.25915 2.4834 5.07822 2.97256 4.20752 3.84326C3.33681 4.71396 2.84766 5.89489 2.84766 7.12626V20.7298C2.85014 29.7529 5.57134 38.5658 10.6564 46.0195C15.7415 53.4732 22.9544 59.2217 31.3548 62.5155C32.4304 62.9306 33.622 62.9306 34.6977 62.5155C43.1054 59.2188 50.3235 53.4632 55.4091 46.0003C60.4948 38.5375 63.2116 29.7144 63.2048 20.6834ZM33.9731 60.6514C42.0039 57.5012 48.8984 52.0028 53.7564 44.874C58.6155 37.7436 61.2113 29.3136 61.2048 20.6849L61.2048 20.6834L61.2048 7.12626C61.2048 6.42533 60.9264 5.75311 60.4307 5.25747C59.9351 4.76184 59.2629 4.4834 58.5619 4.4834H7.49051C6.78958 4.4834 6.11736 4.76184 5.62173 5.25747C5.1261 5.75311 4.84766 6.42533 4.84766 7.12626L4.84766 20.7293C4.84766 20.7295 4.84766 20.7296 4.84766 20.7298C4.85014 29.3507 7.45011 37.7709 12.3085 44.8924C17.1659 52.0123 24.0555 57.5039 32.0792 60.6513C32.6888 60.8853 33.3635 60.8853 33.9731 60.6514Z" fill="black"/>
<path fill-rule="evenodd" clip-rule="evenodd" d="M26.0628 26.6978C24.0509 26.6978 22.4199 28.3287 22.4199 30.3406V39.6263C22.4199 41.6382 24.0509 43.2692 26.0628 43.2692H39.9914C42.0032 43.2692 43.6342 41.6382 43.6342 39.6263V30.3406C43.6342 28.3287 42.0032 26.6978 39.9914 26.6978H26.0628ZM20.4199 30.3406C20.4199 27.2241 22.9463 24.6978 26.0628 24.6978H39.9914C43.1078 24.6978 45.6342 27.2241 45.6342 30.3406V39.6263C45.6342 42.7428 43.1078 45.2692 39.9914 45.2692H26.0628C22.9463 45.2692 20.4199 42.7428 20.4199 39.6263V30.3406Z" fill="#FF4B12"/>
<path fill-rule="evenodd" clip-rule="evenodd" d="M29.979 13.6966C30.9453 13.2963 31.9809 13.0903 33.0268 13.0903C34.0727 13.0903 35.1083 13.2963 36.0746 13.6966C37.0409 14.0968 37.9188 14.6835 38.6584 15.423C39.3979 16.1626 39.9846 17.0405 40.3848 18.0068C40.7851 18.9731 40.9911 20.0087 40.9911 21.0546V25.6975C40.9911 26.2498 40.5434 26.6975 39.9911 26.6975C39.4388 26.6975 38.9911 26.2498 38.9911 25.6975V21.0546C38.9911 20.2714 38.8368 19.4958 38.5371 18.7722C38.2373 18.0486 37.798 17.3911 37.2442 16.8372C36.6903 16.2834 36.0328 15.8441 35.3092 15.5443C34.5856 15.2446 33.81 15.0903 33.0268 15.0903C32.2435 15.0903 31.468 15.2446 30.7444 15.5443C30.0207 15.8441 29.3632 16.2834 28.8094 16.8372C28.2556 17.3911 27.8162 18.0486 27.5165 18.7722C27.2168 19.4958 27.0625 20.2714 27.0625 21.0546V25.6975C27.0625 26.2498 26.6148 26.6975 26.0625 26.6975C25.5102 26.6975 25.0625 26.2498 25.0625 25.6975V21.0546C25.0625 20.0087 25.2685 18.9731 25.6687 18.0068C26.069 17.0405 26.6556 16.1626 27.3952 15.423C28.1347 14.6835 29.0127 14.0968 29.979 13.6966Z" fill="#FF4B12"/>
</svg>
