<svg width="66" height="66" viewBox="0 0 66 66" fill="none" xmlns="http://www.w3.org/2000/svg">
<g clip-path="url(#clip0_103_1867)">
<path fill-rule="evenodd" clip-rule="evenodd" d="M32.986 23.7334C27.1279 23.7334 22.3789 28.4824 22.3789 34.3405C22.3789 40.1987 27.1279 44.9477 32.986 44.9477C38.8442 44.9477 43.5932 40.1987 43.5932 34.3405C43.5932 28.4824 38.8442 23.7334 32.986 23.7334ZM20.3789 34.3405C20.3789 27.3778 26.0233 21.7334 32.986 21.7334C39.9488 21.7334 45.5932 27.3778 45.5932 34.3405C45.5932 41.3033 39.9488 46.9477 32.986 46.9477C26.0233 46.9477 20.3789 41.3033 20.3789 34.3405Z" fill="black"/>
<path fill-rule="evenodd" clip-rule="evenodd" d="M32.9852 3.16211C33.3034 3.16211 33.6025 3.3135 33.791 3.56985L41.4182 13.9465L54.1913 11.995C54.5059 11.947 54.8245 12.0514 55.0495 12.2764C55.2745 12.5014 55.3789 12.82 55.3309 13.1346L53.3794 25.9077L63.756 33.5349C64.0124 33.7234 64.1638 34.0225 64.1638 34.3407C64.1638 34.6588 64.0124 34.958 63.756 35.1464L53.3794 42.7737L55.3309 55.5468C55.3789 55.8613 55.2745 56.18 55.0495 56.4049C54.8245 56.6299 54.5059 56.7344 54.1913 56.6864L41.4182 54.7349L33.791 65.1115C33.6025 65.3679 33.3034 65.5193 32.9852 65.5193C32.6671 65.5193 32.3679 65.3679 32.1795 65.1115L24.5522 54.7349L11.7791 56.6864C11.4646 56.7344 11.1459 56.6299 10.921 56.4049C10.696 56.18 10.5915 55.8613 10.6395 55.5468L12.591 42.7737L2.21438 35.1464C1.95803 34.958 1.80664 34.6588 1.80664 34.3407C1.80664 34.0225 1.95803 33.7234 2.21438 33.5349L12.591 25.9077L10.6395 13.1346C10.5915 12.82 10.696 12.5014 10.921 12.2764C11.1459 12.0514 11.4646 11.947 11.7791 11.995L24.5522 13.9465L32.1795 3.56985C32.3679 3.3135 32.6671 3.16211 32.9852 3.16211ZM32.9852 5.85056L25.8052 15.6187C25.5849 15.9185 25.2163 16.0711 24.8485 16.0149L12.8221 14.1776L14.6595 26.2039C14.7156 26.5718 14.563 26.9403 14.2632 27.1607L4.49509 34.3407L14.2632 41.5207C14.563 41.741 14.7156 42.1096 14.6595 42.4774L12.8221 54.5038L24.8485 52.6664C25.2163 52.6102 25.5849 52.7629 25.8052 53.0627L32.9852 62.8308L40.1652 53.0627C40.3856 52.7629 40.7541 52.6102 41.122 52.6664L53.1483 54.5038L51.311 42.4774C51.2548 42.1096 51.4074 41.741 51.7072 41.5207L61.4753 34.3407L51.7072 27.1607C51.4074 26.9403 51.2548 26.5718 51.311 26.2039L53.1483 14.1776L41.122 16.0149C40.7541 16.0711 40.3856 15.9185 40.1652 15.6187L32.9852 5.85056Z" fill="#FF4B12"/>
</g>
<defs>
<clipPath id="clip0_103_1867">
<rect width="65" height="65" fill="white" transform="translate(0.484375 0.162109)"/>
</clipPath>
</defs>
</svg>
