<svg width="62" height="60" viewBox="0 0 62 60" fill="none" xmlns="http://www.w3.org/2000/svg">
<path fill-rule="evenodd" clip-rule="evenodd" d="M24.7598 48.0003C25.439 48.3385 25.8684 49.0319 25.8684 49.7907V57.5407H36.3541V49.6514C36.3541 48.8926 36.7835 48.1991 37.4628 47.861C39.8089 46.6931 41.7875 44.9008 43.181 42.6812C44.573 40.4641 45.3273 37.9065 45.3613 35.2889C45.3692 32.751 44.6993 30.2569 43.4205 28.0646C42.1404 25.8698 40.2966 24.0571 38.0803 22.8145C35.864 21.5719 33.3558 20.9445 30.8154 20.9972C28.2751 21.05 25.795 21.781 23.6322 23.1146C21.4695 24.4482 19.7026 26.3358 18.5146 28.5819C17.3267 30.828 16.7609 33.3509 16.8759 35.8891C16.9909 38.4274 17.7825 40.8888 19.1687 43.0183C20.5549 45.1477 22.4853 46.8678 24.7598 48.0003ZM47.3612 35.305C47.3721 32.4075 46.608 29.5598 45.1481 27.0569C43.6883 24.554 41.5858 22.487 39.0584 21.07C36.531 19.653 33.6708 18.9375 30.7739 18.9976C27.877 19.0578 25.0489 19.8915 22.5826 21.4122C20.1162 22.933 18.1013 25.0855 16.7467 27.6468C15.392 30.2082 14.7468 33.0851 14.878 35.9797C15.0091 38.8742 15.9118 41.681 17.4926 44.1094C19.0733 46.5377 21.2746 48.4992 23.8684 49.7907V57.7764C23.8805 58.2485 24.0766 58.6973 24.4148 59.0269C24.7531 59.3565 25.2068 59.5408 25.6791 59.5407H36.5434C37.0157 59.5408 37.4693 59.3565 37.8076 59.0269C38.1459 58.6973 38.342 58.2485 38.3541 57.7764V49.6514C41.0295 48.3196 43.2858 46.2758 44.8749 43.7447C46.464 41.2136 47.3243 38.2933 47.3612 35.305Z" fill="black"/>
<path fill-rule="evenodd" clip-rule="evenodd" d="M31.1094 0.922852C31.6617 0.922852 32.1094 1.37057 32.1094 1.92285V8.88714C32.1094 9.43942 31.6617 9.88714 31.1094 9.88714C30.5571 9.88714 30.1094 9.43942 30.1094 8.88714V1.92285C30.1094 1.37057 30.5571 0.922852 31.1094 0.922852Z" fill="#FF4B12"/>
<path fill-rule="evenodd" clip-rule="evenodd" d="M50.385 7.85159C50.7773 8.24028 50.7803 8.87344 50.3916 9.26579L45.4702 14.2336C45.0815 14.626 44.4483 14.629 44.056 14.2403C43.6636 13.8516 43.6607 13.2184 44.0493 12.8261L48.9708 7.85823C49.3595 7.46588 49.9926 7.46291 50.385 7.85159Z" fill="#FF4B12"/>
<path fill-rule="evenodd" clip-rule="evenodd" d="M52.3027 22.9551C52.3027 22.4028 52.7504 21.9551 53.3027 21.9551H60.267C60.8193 21.9551 61.267 22.4028 61.267 22.9551C61.267 23.5074 60.8193 23.9551 60.267 23.9551H53.3027C52.7504 23.9551 52.3027 23.5074 52.3027 22.9551Z" fill="#FF4B12"/>
<path fill-rule="evenodd" clip-rule="evenodd" d="M11.8353 7.85184C12.2276 7.46315 12.8608 7.46612 13.2495 7.85848L18.1709 12.8263C18.5596 13.2187 18.5566 13.8518 18.1643 14.2405C17.7719 14.6292 17.1388 14.6262 16.7501 14.2339L11.8286 9.26604C11.44 8.87368 11.4429 8.24052 11.8353 7.85184Z" fill="#FF4B12"/>
<path fill-rule="evenodd" clip-rule="evenodd" d="M0.953125 22.9551C0.953125 22.4028 1.40084 21.9551 1.95312 21.9551H8.91741C9.4697 21.9551 9.91741 22.4028 9.91741 22.9551C9.91741 23.5074 9.4697 23.9551 8.91741 23.9551H1.95312C1.40084 23.9551 0.953125 23.5074 0.953125 22.9551Z" fill="#FF4B12"/>
</svg>
