<svg width="68" height="68" viewBox="0 0 68 68" fill="none" xmlns="http://www.w3.org/2000/svg">
<g clip-path="url(#clip0_103_1863)">
<path fill-rule="evenodd" clip-rule="evenodd" d="M22.9512 2.125C22.9512 0.744288 24.0705 -0.375 25.4512 -0.375H34.0475C35.4282 -0.375 36.5475 0.744288 36.5475 2.125C36.5475 3.50571 35.4282 4.625 34.0475 4.625H25.4512C24.0705 4.625 22.9512 3.50571 22.9512 2.125Z" fill="#6E42FF"/>
<path fill-rule="evenodd" clip-rule="evenodd" d="M29.75 -0.375C31.1307 -0.375 32.25 0.744288 32.25 2.125V9.49167C32.25 10.8724 31.1307 11.9917 29.75 11.9917C28.3693 11.9917 27.25 10.8724 27.25 9.49167V2.125C27.25 0.744288 28.3693 -0.375 29.75 -0.375Z" fill="#6E42FF"/>
<path fill-rule="evenodd" clip-rule="evenodd" d="M15.0222 5.40817C15.9989 6.38402 15.9997 7.96693 15.0238 8.9437L8.94468 15.0228C7.96791 15.9987 6.385 15.998 5.40914 15.0212C4.43329 14.0444 4.43403 12.4615 5.41079 11.4857L11.4866 5.40982C12.4625 4.43305 14.0454 4.43231 15.0222 5.40817Z" fill="#6E42FF"/>
<path fill-rule="evenodd" clip-rule="evenodd" d="M8.44903 8.44903C9.42534 7.47272 11.0083 7.47272 11.9846 8.44903L17.1922 13.6567C18.1685 14.633 18.1685 16.2159 17.1922 17.1922C16.2159 18.1685 14.633 18.1685 13.6567 17.1922L8.44903 11.9846C7.47272 11.0083 7.47272 9.42534 8.44903 8.44903Z" fill="#6E42FF"/>
<path fill-rule="evenodd" clip-rule="evenodd" d="M2.125 22.9519C3.50571 22.9519 4.625 24.0712 4.625 25.4519V34.0482C4.625 35.4289 3.50571 36.5482 2.125 36.5482C0.744288 36.5482 -0.375 35.4289 -0.375 34.0482V25.4519C-0.375 24.0712 0.744288 22.9519 2.125 22.9519Z" fill="#6E42FF"/>
<path fill-rule="evenodd" clip-rule="evenodd" d="M-0.375 29.75C-0.375 28.3693 0.744288 27.25 2.125 27.25H9.49167C10.8724 27.25 11.9917 28.3693 11.9917 29.75C11.9917 31.1307 10.8724 32.25 9.49167 32.25H2.125C0.744288 32.25 -0.375 31.1307 -0.375 29.75Z" fill="#6E42FF"/>
<path fill-rule="evenodd" clip-rule="evenodd" d="M5.40914 44.4787C6.385 43.5019 7.96791 43.5012 8.94468 44.477L11.9865 47.516L15.0238 50.5562C15.9997 51.5329 15.9989 53.1158 15.0222 54.0917C14.0454 55.0675 12.4625 55.0668 11.4866 54.09L5.41079 48.0142C4.43403 47.0383 4.43329 45.4554 5.40914 44.4787Z" fill="#6E42FF"/>
<path fill-rule="evenodd" clip-rule="evenodd" d="M17.1922 42.3077C18.1685 43.284 18.1685 44.8669 17.1922 45.8432L11.9846 51.0509C11.0083 52.0272 9.42534 52.0272 8.44903 51.0509C7.47272 50.0746 7.47272 48.4916 8.44903 47.5153L13.6567 42.3077C14.633 41.3314 16.2159 41.3314 17.1922 42.3077Z" fill="#6E42FF"/>
<path fill-rule="evenodd" clip-rule="evenodd" d="M44.4792 5.40817C45.4559 4.43231 47.0388 4.43305 48.0147 5.40982L54.0905 11.4857C55.0673 12.4615 55.068 14.0444 54.0922 15.0212C53.1163 15.998 51.5334 15.9987 50.5566 15.0228L44.4775 8.9437C43.5016 7.96693 43.5024 6.38402 44.4792 5.40817Z" fill="#6E42FF"/>
<path fill-rule="evenodd" clip-rule="evenodd" d="M51.0516 8.44903C52.0279 9.42534 52.0279 11.0083 51.0516 11.9846L45.8439 17.1922C44.8676 18.1685 43.2847 18.1685 42.3084 17.1922C41.3321 16.2159 41.3321 14.633 42.3084 13.6567L47.5161 8.44903C48.4924 7.47272 50.0753 7.47272 51.0516 8.44903Z" fill="#6E42FF"/>
<path fill-rule="evenodd" clip-rule="evenodd" d="M18.6543 23.6102C18.6543 19.8556 21.698 16.812 25.4525 16.812C29.207 16.812 32.2506 19.8556 32.2506 23.6102C32.2506 27.3647 29.207 30.4083 25.4525 30.4083C21.698 30.4083 18.6543 27.3647 18.6543 23.6102ZM25.4525 21.812C24.4594 21.812 23.6543 22.6171 23.6543 23.6102C23.6543 24.6033 24.4594 25.4083 25.4525 25.4083C26.4456 25.4083 27.2506 24.6033 27.2506 23.6102C27.2506 22.6171 26.4456 21.812 25.4525 21.812Z" fill="#6E42FF"/>
<path fill-rule="evenodd" clip-rule="evenodd" d="M36.0193 7.86231C32.1845 6.76352 28.1281 6.692 24.257 7.65491L36.0193 7.86231ZM42.5132 17.3922C44.6774 19.6293 46.2158 22.396 46.9741 25.415C47.3104 26.7541 48.6686 27.567 50.0078 27.2306C51.3469 26.8943 52.1598 25.5361 51.8235 24.197C50.8517 20.328 48.8802 16.7824 46.1066 13.9155L46.1065 13.9154C43.3326 11.0486 39.8542 8.9611 36.0193 7.86231M42.5131 17.3921C40.3484 15.155 37.6343 13.5262 34.6421 12.6689L34.6421 12.6689C31.6497 11.8115 28.4846 11.7557 25.4639 12.5071C22.4432 13.2584 19.6731 14.7906 17.4312 16.9499C15.1893 19.1093 13.5543 21.82 12.6902 24.8104C11.8261 27.8008 11.7631 30.9658 12.5077 33.9882C13.2523 37.0106 14.7782 39.7841 16.9325 42.0309C19.0868 44.2776 21.7939 45.9185 24.7823 46.7893C26.1079 47.1756 26.8694 48.5633 26.4831 49.8889C26.0969 51.2145 24.7091 51.9759 23.3836 51.5897C19.5537 50.4737 16.0845 48.3707 13.3235 45.4914C10.5626 42.6121 8.60711 39.0576 7.65289 35.1842C6.69867 31.3109 6.77929 27.2547 7.88671 23.4224L10.275 24.1125L7.88672 23.4224C8.99414 19.5901 11.0894 16.1161 13.9626 13.3487C16.8357 10.5814 20.3858 8.61783 24.257 7.65491" fill="#6E42FF"/>
<path fill-rule="evenodd" clip-rule="evenodd" d="M29.7266 46.0813C29.7266 37.0489 37.0488 29.7263 46.0816 29.7263C55.1143 29.7263 62.4366 37.0489 62.4366 46.0813C62.4366 55.114 55.1143 62.4363 46.0816 62.4363C37.0489 62.4363 29.7266 55.114 29.7266 46.0813ZM46.0816 34.7263C39.8103 34.7263 34.7266 39.8103 34.7266 46.0813C34.7266 52.3526 39.8103 57.4363 46.0816 57.4363C52.3528 57.4363 57.4366 52.3526 57.4366 46.0813C57.4366 39.8103 52.3528 34.7263 46.0816 34.7263Z" fill="#6E42FF"/>
<path fill-rule="evenodd" clip-rule="evenodd" d="M54.1111 54.1111C55.0875 53.1348 56.6704 53.1348 57.6467 54.1111L67.6427 64.1071C68.619 65.0834 68.619 66.6664 67.6427 67.6427C66.6664 68.619 65.0834 68.619 64.1071 67.6427L54.1111 57.6467C53.1348 56.6704 53.1348 55.0875 54.1111 54.1111Z" fill="#6E42FF"/>
</g>
<defs>
<clipPath id="clip0_103_1863">
<rect width="68" height="68" fill="white"/>
</clipPath>
</defs>
</svg>
