<svg width="122" height="36" viewBox="0 0 122 36" fill="none" xmlns="http://www.w3.org/2000/svg">
<path d="M24.2968 18.0481C24.3073 17.2402 24.5228 16.4481 24.9232 15.7454C25.3237 15.0427 25.8961 14.4524 26.5872 14.0292C26.1482 13.4047 25.569 12.8908 24.8956 12.5283C24.2222 12.1657 23.4732 11.9645 22.7081 11.9407C21.076 11.7701 19.4938 12.9133 18.6621 12.9133C17.8144 12.9133 16.5339 11.9576 15.155 11.9859C14.2631 12.0146 13.3938 12.2729 12.632 12.7356C11.8701 13.1983 11.2416 13.8497 10.8076 14.6263C8.92795 17.8674 10.33 22.6306 12.1306 25.2504C13.0315 26.5333 14.0844 27.9663 15.462 27.9155C16.8101 27.8598 17.3136 27.0593 18.9409 27.0593C20.5531 27.0593 21.0255 27.9155 22.4311 27.8832C23.8776 27.8598 24.7891 26.5946 25.6583 25.2996C26.3056 24.3855 26.8037 23.3753 27.1341 22.3062C26.2937 21.9522 25.5765 21.3597 25.0719 20.6025C24.5674 19.8453 24.2978 18.9569 24.2968 18.0481Z" fill="white"/>
<path d="M21.6417 10.2176C22.4305 9.27459 22.819 8.06256 22.7249 6.83887C21.5199 6.96491 20.4068 7.53847 19.6074 8.44526C19.2166 8.88825 18.9172 9.40362 18.7265 9.96189C18.5358 10.5202 18.4574 11.1104 18.4958 11.6989C19.0986 11.7051 19.6948 11.575 20.2398 11.3184C20.7847 11.0618 21.264 10.6854 21.6417 10.2176Z" fill="white"/>
<path d="M43.1456 24.6675H38.5451L37.4403 27.9163H35.4917L39.8492 15.8965H41.8737L46.2312 27.9163H44.2494L43.1456 24.6675ZM39.0215 23.1683H42.6682L40.8705 17.8957H40.8202L39.0215 23.1683Z" fill="white"/>
<path d="M55.6419 23.5351C55.6419 26.2583 54.1783 28.008 51.9697 28.008C51.4102 28.0371 50.8538 27.9088 50.3641 27.6376C49.8745 27.3665 49.4714 26.9635 49.201 26.4748H49.1592V30.8154H47.353V19.1529H49.1014V20.6105H49.1346C49.4174 20.1241 49.8273 19.7232 50.3206 19.4504C50.814 19.1776 51.3724 19.0431 51.9365 19.0612C54.1697 19.0612 55.6419 20.8194 55.6419 23.5351ZM53.7854 23.5351C53.7854 21.7608 52.8647 20.5944 51.46 20.5944C50.0799 20.5944 49.1517 21.7854 49.1517 23.5351C49.1517 25.3008 50.0799 26.4833 51.46 26.4833C52.8647 26.4833 53.7854 25.3254 53.7854 23.5351Z" fill="white"/>
<path d="M65.327 23.5355C65.327 26.2588 63.8634 28.0085 61.6547 28.0085C61.0952 28.0376 60.5388 27.9093 60.0492 27.6381C59.5595 27.3669 59.1564 26.9639 58.8861 26.4753H58.8443V30.8158H57.0381V19.1534H58.7864V20.6109H58.8196C59.1024 20.1246 59.5123 19.7237 60.0057 19.4509C60.499 19.1781 61.0575 19.0436 61.6215 19.0617C63.8548 19.0617 65.327 20.8198 65.327 23.5355ZM63.4704 23.5355C63.4704 21.7613 62.5498 20.5949 61.145 20.5949C59.765 20.5949 58.8367 21.7859 58.8367 23.5355C58.8367 25.3013 59.765 26.4838 61.145 26.4838C62.5498 26.4838 63.4704 25.3258 63.4704 23.5355Z" fill="white"/>
<path d="M71.7283 24.5675C71.8622 25.7595 73.0249 26.5421 74.6137 26.5421C76.1362 26.5421 77.2315 25.7594 77.2315 24.6847C77.2315 23.7517 76.5709 23.1931 75.0067 22.8103L73.4425 22.435C71.2263 21.9019 70.1974 20.8696 70.1974 19.1947C70.1974 17.1208 72.0121 15.6963 74.5891 15.6963C77.1394 15.6963 78.8877 17.1208 78.9466 19.1947H77.1232C77.0141 17.9951 76.0184 17.2711 74.5634 17.2711C73.1084 17.2711 72.1127 18.0037 72.1127 19.0699C72.1127 19.9197 72.7487 20.4197 74.3043 20.8025L75.634 21.1277C78.1103 21.7109 79.1392 22.7015 79.1392 24.4597C79.1392 26.7084 77.3406 28.1168 74.4799 28.1168C71.8033 28.1168 69.9961 26.7415 69.8794 24.5674L71.7283 24.5675Z" fill="white"/>
<path d="M83.0371 17.0791V19.153H84.7104V20.5775H83.0371V25.4086C83.0371 26.1592 83.3721 26.5089 84.1077 26.5089C84.3063 26.5055 84.5047 26.4916 84.7019 26.4673V27.8833C84.3711 27.9448 84.035 27.9727 83.6986 27.9665C81.9171 27.9665 81.2223 27.3001 81.2223 25.6005V20.5775H79.9429V19.153H81.2223V17.0791H83.0371Z" fill="white"/>
<path d="M85.6792 23.5353C85.6792 20.7781 87.3098 19.0454 89.8526 19.0454C92.4039 19.0454 94.0269 20.778 94.0269 23.5353C94.0269 26.3002 92.4124 28.0253 89.8526 28.0253C87.2936 28.0253 85.6792 26.3002 85.6792 23.5353ZM92.1865 23.5353C92.1865 21.6439 91.3161 20.5276 89.8526 20.5276C88.389 20.5276 87.5196 21.6524 87.5196 23.5353C87.5196 25.4344 88.389 26.5422 89.8526 26.5422C91.3161 26.5422 92.1865 25.4344 92.1865 23.5353Z" fill="white"/>
<path d="M95.5161 19.1533H97.2388V20.6449H97.2806C97.3972 20.179 97.6712 19.7673 98.0566 19.479C98.4421 19.1907 98.9155 19.0433 99.3972 19.0616C99.6053 19.0609 99.8129 19.0834 100.016 19.1287V20.8112C99.7532 20.7313 99.4791 20.6946 99.2045 20.7025C98.9421 20.6919 98.6805 20.738 98.4377 20.8376C98.1948 20.9372 97.9765 21.0879 97.7977 21.2795C97.6189 21.471 97.4838 21.6988 97.4018 21.9473C97.3197 22.1957 97.2926 22.4589 97.3223 22.7188V27.9167H95.5161L95.5161 19.1533Z" fill="white"/>
<path d="M108.344 25.3427C108.101 26.9335 106.545 28.0253 104.555 28.0253C101.995 28.0253 100.406 26.3172 100.406 23.5769C100.406 20.8282 102.004 19.0454 104.479 19.0454C106.914 19.0454 108.445 20.7109 108.445 23.368V23.9843H102.23V24.093C102.201 24.4156 102.241 24.7405 102.348 25.0462C102.456 25.3519 102.627 25.6314 102.851 25.8662C103.075 26.101 103.346 26.2856 103.647 26.4079C103.948 26.5301 104.272 26.5872 104.597 26.5753C105.024 26.6151 105.452 26.5166 105.818 26.2946C106.184 26.0725 106.469 25.7386 106.629 25.3427L108.344 25.3427ZM102.238 22.7272H106.637C106.654 22.4372 106.609 22.147 106.508 21.8748C106.406 21.6026 106.249 21.3543 106.046 21.1454C105.843 20.9366 105.6 20.7717 105.33 20.6611C105.06 20.5506 104.771 20.4967 104.479 20.503C104.185 20.5012 103.893 20.5575 103.621 20.6686C103.349 20.7796 103.102 20.9433 102.893 21.1501C102.685 21.3569 102.52 21.6027 102.407 21.8734C102.295 22.1441 102.237 22.4342 102.238 22.7272Z" fill="white"/>
<path d="M38.7949 6.84884C39.1736 6.82178 39.5536 6.87875 39.9075 7.01565C40.2614 7.15254 40.5803 7.36596 40.8414 7.64049C41.1024 7.91502 41.299 8.24382 41.417 8.60319C41.535 8.96256 41.5715 9.34353 41.5237 9.71861C41.5237 11.5637 40.5224 12.6244 38.7949 12.6244H36.7002V6.84884H38.7949ZM37.6009 11.8076H38.6943C38.9649 11.8237 39.2357 11.7795 39.487 11.6782C39.7383 11.577 39.9637 11.4212 40.1469 11.2222C40.3301 11.0232 40.4665 10.7861 40.546 10.528C40.6256 10.27 40.6464 9.99746 40.6068 9.73039C40.6435 9.46436 40.6206 9.19356 40.5398 8.93738C40.459 8.68121 40.3224 8.446 40.1396 8.2486C39.9568 8.05121 39.7324 7.89653 39.4826 7.79563C39.2327 7.69474 38.9635 7.65013 38.6943 7.66501H37.6009V11.8076Z" fill="white"/>
<path d="M42.5415 10.4431C42.514 10.1567 42.5469 9.86768 42.6381 9.59466C42.7293 9.32163 42.8768 9.0706 43.0711 8.85768C43.2654 8.64475 43.5023 8.47462 43.7665 8.3582C44.0308 8.24178 44.3165 8.18164 44.6054 8.18164C44.8943 8.18164 45.1801 8.24178 45.4443 8.3582C45.7085 8.47462 45.9454 8.64475 46.1397 8.85768C46.334 9.0706 46.4815 9.32163 46.5727 9.59466C46.6639 9.86768 46.6968 10.1567 46.6693 10.4431C46.6973 10.7298 46.6648 11.0192 46.5739 11.2927C46.4829 11.5662 46.3355 11.8176 46.1411 12.031C45.9467 12.2443 45.7097 12.4148 45.4452 12.5315C45.1807 12.6482 44.8947 12.7084 44.6054 12.7084C44.3161 12.7084 44.0301 12.6482 43.7656 12.5315C43.5011 12.4148 43.2641 12.2443 43.0697 12.031C42.8753 11.8176 42.7279 11.5662 42.6369 11.2927C42.546 11.0192 42.5135 10.7298 42.5415 10.4431ZM45.7809 10.4431C45.7809 9.49833 45.3547 8.94583 44.6068 8.94583C43.8561 8.94583 43.4337 9.49833 43.4337 10.4431C43.4337 11.3955 43.8561 11.9437 44.6068 11.9437C45.3548 11.9437 45.7809 11.3917 45.7809 10.4431Z" fill="white"/>
<path d="M52.1559 12.6247H51.2599L50.3554 9.41459H50.287L49.3863 12.6247H48.4988L47.2925 8.26611H48.1685L48.9525 11.5919H49.0171L49.9169 8.26611H50.7455L51.6452 11.5919H51.7136L52.4938 8.26611H53.3575L52.1559 12.6247Z" fill="white"/>
<path d="M54.3721 8.26616H55.2035V8.95855H55.2681C55.3776 8.70987 55.5622 8.5014 55.7963 8.36221C56.0304 8.22301 56.3023 8.16002 56.5741 8.18202C56.787 8.16608 57.0008 8.19806 57.1997 8.27558C57.3986 8.35311 57.5773 8.47421 57.7228 8.62989C57.8683 8.78558 57.9767 8.97187 58.0401 9.17496C58.1035 9.37805 58.1202 9.59274 58.0889 9.80312V12.6247H57.2252V10.0191C57.2252 9.3187 56.9196 8.97037 56.2808 8.97037C56.1362 8.96366 55.9919 8.98817 55.8577 9.04221C55.7235 9.09625 55.6027 9.17855 55.5034 9.28346C55.4042 9.38837 55.3288 9.51341 55.2827 9.65001C55.2365 9.78662 55.2205 9.93156 55.2358 10.0749V12.6247H54.3721L54.3721 8.26616Z" fill="white"/>
<path d="M59.4653 6.56445H60.329V12.6244H59.4653V6.56445Z" fill="white"/>
<path d="M61.5298 10.4432C61.5023 10.1567 61.5352 9.86773 61.6264 9.59469C61.7176 9.32166 61.8652 9.07062 62.0595 8.85769C62.2539 8.64475 62.4907 8.47462 62.755 8.3582C63.0192 8.24178 63.305 8.18164 63.5939 8.18164C63.8828 8.18164 64.1686 8.24178 64.4328 8.3582C64.6971 8.47462 64.9339 8.64475 65.1283 8.85769C65.3226 9.07062 65.4702 9.32166 65.5614 9.59469C65.6526 9.86773 65.6855 10.1567 65.658 10.4432C65.686 10.7299 65.6535 11.0193 65.5625 11.2928C65.4715 11.5663 65.3241 11.8177 65.1297 12.0311C64.9353 12.2444 64.6982 12.4149 64.4337 12.5316C64.1692 12.6482 63.8832 12.7085 63.5939 12.7085C63.3046 12.7085 63.0186 12.6482 62.7541 12.5316C62.4896 12.4149 62.2525 12.2444 62.0581 12.0311C61.8637 11.8177 61.7163 11.5663 61.6253 11.2928C61.5343 11.0193 61.5018 10.7299 61.5298 10.4432ZM64.7692 10.4432C64.7692 9.49841 64.343 8.94592 63.5951 8.94592C62.8443 8.94592 62.422 9.49841 62.422 10.4432C62.422 11.3955 62.8443 11.9438 63.5951 11.9438C64.343 11.9438 64.7692 11.3917 64.7692 10.4432Z" fill="white"/>
<path d="M66.5674 11.3917C66.5674 10.6071 67.154 10.1548 68.1952 10.0906L69.3806 10.0225V9.6463C69.3806 9.18596 69.075 8.92602 68.4846 8.92602C68.0025 8.92602 67.6684 9.10231 67.5725 9.41046H66.7363C66.8246 8.66182 67.5317 8.18164 68.5245 8.18164C69.6217 8.18164 70.2406 8.72562 70.2406 9.6463V12.6243H69.4091V12.0118H69.3408C69.2021 12.2315 69.0073 12.4106 68.7763 12.5309C68.5454 12.6511 68.2865 12.7081 68.0262 12.6961C67.8425 12.7152 67.6568 12.6956 67.4811 12.6388C67.3054 12.582 67.1436 12.4892 67.0062 12.3663C66.8688 12.2434 66.7587 12.0931 66.6831 11.9253C66.6075 11.7574 66.5681 11.5757 66.5674 11.3917ZM69.3806 11.0193V10.6549L68.3119 10.7229C67.7092 10.7631 67.4358 10.9673 67.4358 11.3515C67.4358 11.7438 67.7775 11.9721 68.2474 11.9721C68.3851 11.986 68.5241 11.9721 68.6563 11.9314C68.7885 11.8906 68.9111 11.8238 69.0168 11.7349C69.1226 11.646 69.2093 11.5369 69.2718 11.4139C69.3343 11.291 69.3713 11.1568 69.3806 11.0193Z" fill="white"/>
<path d="M71.3755 10.4433C71.3755 9.06607 72.0864 8.19361 73.1921 8.19361C73.4657 8.18105 73.7371 8.2463 73.9748 8.38171C74.2124 8.51711 74.4065 8.7171 74.5342 8.95828H74.5988V6.56445H75.4625V12.6244H74.6348V11.9358H74.5665C74.4289 12.1754 74.2281 12.3729 73.9858 12.5069C73.7436 12.641 73.4691 12.7064 73.1922 12.6963C72.0788 12.6963 71.3755 11.8238 71.3755 10.4433ZM72.2677 10.4433C72.2677 11.3678 72.7053 11.924 73.4371 11.924C74.165 11.924 74.6149 11.3597 74.6149 10.4471C74.6149 9.5387 74.1603 8.96635 73.4371 8.96635C72.71 8.96635 72.2677 9.52641 72.2677 10.4433Z" fill="white"/>
<path d="M79.0361 10.4431C79.0086 10.1567 79.0415 9.86768 79.1327 9.59466C79.2239 9.32163 79.3714 9.0706 79.5658 8.85768C79.7601 8.64475 79.9969 8.47462 80.2612 8.3582C80.5254 8.24178 80.8111 8.18164 81.1 8.18164C81.389 8.18164 81.6747 8.24178 81.9389 8.3582C82.2031 8.47462 82.44 8.64475 82.6343 8.85768C82.8286 9.0706 82.9761 9.32163 83.0673 9.59466C83.1586 9.86768 83.1915 10.1567 83.1639 10.4431C83.192 10.7298 83.1595 11.0192 83.0685 11.2927C82.9775 11.5662 82.8301 11.8176 82.6358 12.031C82.4414 12.2443 82.2043 12.4148 81.9398 12.5315C81.6754 12.6482 81.3893 12.7084 81.1 12.7084C80.8108 12.7084 80.5247 12.6482 80.2602 12.5315C79.9957 12.4148 79.7587 12.2443 79.5643 12.031C79.3699 11.8176 79.2225 11.5662 79.1316 11.2927C79.0406 11.0192 79.0081 10.7298 79.0361 10.4431ZM82.2755 10.4431C82.2755 9.49833 81.8494 8.94583 81.1015 8.94583C80.3507 8.94583 79.9284 9.49833 79.9284 10.4431C79.9284 11.3955 80.3507 11.9437 81.1015 11.9437C81.8494 11.9437 82.2755 11.3917 82.2755 10.4431Z" fill="white"/>
<path d="M84.3228 8.26616H85.1542V8.95855H85.2187C85.3282 8.70987 85.5129 8.5014 85.747 8.36221C85.9811 8.22301 86.253 8.16002 86.5248 8.18202C86.7377 8.16608 86.9515 8.19806 87.1504 8.27558C87.3492 8.35311 87.528 8.47421 87.6735 8.62989C87.819 8.78558 87.9274 8.97187 87.9908 9.17496C88.0542 9.37805 88.0708 9.59274 88.0396 9.80312V12.6247H87.1759V10.0191C87.1759 9.3187 86.8703 8.97037 86.2315 8.97037C86.0869 8.96366 85.9426 8.98817 85.8084 9.04221C85.6742 9.09625 85.5533 9.17855 85.4541 9.28346C85.3548 9.38837 85.2795 9.51341 85.2333 9.65001C85.1871 9.78662 85.1712 9.93156 85.1865 10.0749V12.6247H84.3228V8.26616Z" fill="white"/>
<path d="M92.9203 7.18066V8.28566H93.8685V9.0102H92.9203V11.2514C92.9203 11.7079 93.1092 11.9079 93.5391 11.9079C93.6492 11.9075 93.7592 11.9009 93.8685 11.888V12.6045C93.7134 12.6321 93.5562 12.6468 93.3986 12.6485C92.4381 12.6485 92.0556 12.3119 92.0556 11.4716V9.01016H91.3608V8.28562H92.0556V7.18066H92.9203Z" fill="white"/>
<path d="M95.0483 6.56445H95.9045V8.96634H95.9728C96.0876 8.71533 96.2774 8.50569 96.5161 8.36597C96.7549 8.22625 97.0312 8.16325 97.3072 8.18556C97.5191 8.17408 97.7309 8.2093 97.9275 8.28872C98.1241 8.36813 98.3006 8.48977 98.4446 8.64497C98.5886 8.80016 98.6964 8.98509 98.7603 9.18655C98.8242 9.38801 98.8427 9.60104 98.8145 9.81045V12.6245H97.9499V10.0226C97.9499 9.32647 97.6243 8.97389 97.014 8.97389C96.8656 8.96176 96.7163 8.98209 96.5765 9.03344C96.4368 9.08479 96.31 9.16593 96.2051 9.27118C96.1001 9.37643 96.0195 9.50325 95.9689 9.64277C95.9183 9.78229 95.8989 9.93113 95.9121 10.0789V12.6244H95.0484L95.0483 6.56445Z" fill="white"/>
<path d="M103.85 11.4475C103.733 11.8459 103.479 12.1905 103.132 12.421C102.785 12.6515 102.368 12.7533 101.954 12.7085C101.666 12.7161 101.379 12.6611 101.114 12.5473C100.849 12.4336 100.613 12.2638 100.42 12.0497C100.228 11.8357 100.085 11.5825 100 11.3078C99.916 11.0331 99.8928 10.7434 99.9322 10.4588C99.8938 10.1734 99.9175 9.88308 100.002 9.60753C100.086 9.33199 100.228 9.07765 100.419 8.86172C100.611 8.6458 100.846 8.47334 101.111 8.35602C101.375 8.2387 101.661 8.17926 101.95 8.18171C103.168 8.18171 103.902 9.01027 103.902 10.3789V10.6791H100.812V10.7273C100.799 10.8872 100.819 11.0482 100.871 11.1999C100.924 11.3517 101.008 11.4908 101.118 11.6083C101.227 11.7259 101.36 11.8193 101.509 11.8826C101.657 11.9459 101.816 11.9777 101.978 11.9759C102.184 12.0006 102.394 11.9636 102.579 11.8695C102.764 11.7754 102.917 11.6285 103.019 11.4475L103.85 11.4475ZM100.812 10.0429H103.023C103.034 9.89663 103.014 9.7497 102.964 9.61155C102.914 9.47341 102.836 9.34711 102.735 9.24078C102.634 9.13444 102.511 9.05042 102.375 8.99411C102.239 8.9378 102.093 8.91045 101.945 8.91381C101.796 8.91194 101.648 8.93988 101.509 8.99596C101.371 9.05205 101.245 9.13516 101.14 9.24038C101.034 9.34561 100.951 9.47083 100.894 9.60866C100.838 9.74649 100.81 9.89414 100.812 10.0429Z" fill="white"/>
</svg>
