<svg width="38" height="22" viewBox="0 0 38 22" fill="none" xmlns="http://www.w3.org/2000/svg">
<path d="M37.6254 10.0917C37.6184 10.0806 37.6115 10.0699 37.6041 10.0588C33.4596 3.78844 26.5045 0.0449219 18.9994 0.0449219C11.4943 0.0449219 4.53924 3.78844 0.398502 10.0533C0.0188726 10.6227 0.0174836 11.3695 0.394798 11.9403C4.53924 18.2107 11.4943 21.9542 18.9994 21.9542C24.098 21.9542 28.9416 20.2246 32.824 17.1509L32.8263 17.1505C30.7267 11.5556 25.3286 7.57363 18.9999 7.57363C14.974 7.57363 12.1962 9.79539 10.5809 11.6454C10.1244 12.1681 10.7133 12.9384 11.3434 12.6482C13.0888 11.844 15.7004 11.0042 18.9999 11.0042C22.9277 11.0042 26.3874 13.0033 28.4207 16.0389C25.6476 17.6375 22.4309 18.5523 18.9999 18.5523C13.0249 18.5523 7.461 15.7514 3.89341 11C7.4573 6.25094 13.023 3.44816 18.9999 3.44816C24.9767 3.44816 30.5425 6.25048 34.1064 11C34.1054 11.0014 34.1045 11.0028 34.1031 11.0042C34.8263 11.9658 35.4596 12.9982 35.9911 14.0889C36.5666 13.4107 37.1059 12.6945 37.6041 11.9408C37.611 11.9301 37.6184 11.919 37.6254 11.9079C37.973 11.3546 37.973 10.6449 37.6254 10.0917Z" fill="#00D791"/>
</svg>
