<svg width="187" height="51" viewBox="0 0 187 51" fill="none" xmlns="http://www.w3.org/2000/svg">
<path d="M175.323 29.916V21.0021H176.973L181.069 26.4007L185.043 21.0021H186.632V29.916H184.798V24.3919C184.798 24.2036 184.798 24.078 184.798 24.0153C184.798 23.8897 184.859 23.7014 184.859 23.4503C184.798 23.5759 184.737 23.6386 184.676 23.7642C184.615 23.8897 184.615 23.9525 184.554 24.0153C184.493 24.2036 184.37 24.3291 184.309 24.3919L181.069 28.8488H180.641L177.401 24.3919C177.279 24.2664 177.218 24.078 177.096 23.8897C176.973 23.7014 176.912 23.5759 176.851 23.4503C176.851 23.6386 176.912 23.8269 176.912 23.9525V24.3919V29.916H175.323ZM162.974 29.916V28.2211H167.926H170.738V26.7773H165.114C164.258 26.7773 163.708 26.6518 163.402 26.3379C163.096 26.024 162.974 25.5218 162.974 24.7058V21.0649H164.991V25.2707H170.738V21.0649H172.755V27.8445C172.755 28.6605 172.633 29.2255 172.327 29.4766C172.022 29.7904 171.471 29.916 170.616 29.916H167.804H165.175H162.974ZM159.979 29.916V21.0021H158.573L152.459 26.2751C152.215 26.4634 152.031 26.6518 151.909 26.7773C151.787 26.9029 151.665 27.0284 151.481 27.2795C151.481 27.0912 151.542 26.9029 151.542 26.7145C151.542 26.5262 151.542 26.4007 151.604 26.2124C151.604 26.0868 151.604 25.8985 151.604 25.7102V21.0649H149.77V29.9788H151.176L157.533 24.4547C157.717 24.3291 157.839 24.2036 157.961 24.078C158.084 23.9525 158.206 23.827 158.267 23.7642C158.267 23.8897 158.267 24.0153 158.206 24.1408C158.206 24.3291 158.206 24.4547 158.145 24.5175C158.145 24.7058 158.145 24.8941 158.145 25.1452V29.9788H159.979V29.916ZM137.788 29.916V21.0021H145.185C145.857 21.0021 146.346 21.1277 146.713 21.3788C147.019 21.6299 147.141 22.0693 147.141 22.697V24.7058C147.141 25.3335 147.019 25.7102 146.713 26.024C146.407 26.2751 145.918 26.4634 145.185 26.4634H139.744V29.916H137.788ZM144.329 22.5087H139.805V24.8941H144.329C144.696 24.8941 144.94 24.8313 145.062 24.7686C145.185 24.643 145.246 24.4547 145.246 24.2036V23.262C145.246 23.0109 145.185 22.8226 145.062 22.697C144.94 22.5715 144.696 22.5087 144.329 22.5087ZM126.539 28.2211H133.142V22.5715H126.478V28.2211H126.539ZM124.522 23.0737C124.522 22.2576 124.644 21.6926 124.95 21.4415C125.256 21.1277 125.806 21.0021 126.662 21.0021H133.019C133.875 21.0021 134.425 21.1277 134.731 21.4415C135.037 21.7554 135.159 22.2576 135.159 23.0737V27.7817C135.159 28.5978 135.037 29.1627 134.731 29.4138C134.425 29.7277 133.875 29.8532 133.019 29.8532H126.662C125.806 29.8532 125.256 29.7277 124.95 29.4138C124.644 29.0999 124.522 28.535 124.522 27.7817V23.0737ZM118.898 22.5715V29.8532H116.881V22.5715H112.907V21.0021H122.872V22.5715H118.898ZM100.803 29.916V21.0021H102.82V24.4547H109.117V21.0021H111.134V29.916H109.117V26.0868H102.82V29.916H100.803ZM87.2315 29.916L92.1221 21.0021H94.0783L99.03 29.916H96.7681L95.7289 27.97H90.227L89.1878 29.916H87.2315ZM91.0828 26.3379H94.873L92.9779 22.697L91.0828 26.3379ZM76.1055 29.916V21.0021H83.5025C84.1749 21.0021 84.664 21.1277 84.9696 21.4415C85.2753 21.6926 85.3976 22.1321 85.3976 22.7598V23.827C85.3976 24.2664 85.2753 24.5802 85.0308 24.8313C84.7863 25.0824 84.4195 25.2707 83.9304 25.3335C84.4195 25.3963 84.8474 25.5846 85.0919 25.8985C85.3364 26.2124 85.5198 26.589 85.5198 27.0284V28.1583C85.5198 28.7233 85.3364 29.1627 84.9085 29.4766C84.4806 29.7904 83.8693 29.916 83.0134 29.916H76.1055ZM82.6466 26.024H78.0617V28.2839H82.6466C83.0134 28.2839 83.3191 28.2211 83.4413 28.0956C83.5636 27.97 83.6247 27.7817 83.6247 27.4678V26.7773C83.6247 26.4634 83.5636 26.2751 83.4413 26.1496C83.3191 26.0868 83.0134 26.024 82.6466 26.024ZM82.6466 22.4459H78.0617V24.5802H82.6466C83.0134 24.5802 83.258 24.5175 83.3802 24.4547C83.5025 24.3291 83.5636 24.2036 83.5636 23.9525V23.1364C83.5636 22.8853 83.5025 22.7598 83.3802 22.6343C83.258 22.5087 83.0134 22.4459 82.6466 22.4459ZM63.7568 29.916V21.0021H65.7742V24.7058L70.6036 21.0021H73.538L67.7915 25.208L74.2104 29.916H70.9704L65.7742 26.024V29.916H63.7568Z" fill="#003399"/>
<path fill-rule="evenodd" clip-rule="evenodd" d="M2.1616 23.4579C-1.32292 17.2433 -0.405941 9.58496 4.54575 4.50029C7.60235 1.36161 11.7593 -0.20773 16.0997 0.168912C21.6627 0.671101 26.6755 5.63022 30.4046 9.45941C30.5269 9.58496 30.5269 9.71051 30.4046 9.83605C30.2823 9.9616 30.1601 9.9616 30.0378 9.83605C26.3699 6.06964 21.4793 1.17329 16.0386 0.671101C11.8816 0.294459 7.90801 1.80103 4.91254 4.81416C0.144247 9.71051 -0.772736 17.1178 2.58953 23.1441C2.65066 23.2696 2.65066 23.4579 2.46726 23.5207C2.40613 23.5835 2.22274 23.5835 2.1616 23.4579Z" fill="#003399"/>
<path fill-rule="evenodd" clip-rule="evenodd" d="M46.4216 26.4083C49.9061 32.6229 48.9892 40.2813 44.0375 45.366C40.9809 48.5046 36.8239 50.074 32.4835 49.6973C26.9205 49.1951 21.9077 44.236 18.1786 40.4068C18.0563 40.2813 18.0563 40.1557 18.1786 40.0302C18.3009 39.9046 18.4231 39.9046 18.5454 40.0302C22.2133 43.7966 27.1039 48.693 32.5446 49.1951C36.7016 49.5718 40.6752 48.0652 43.6707 45.0521C48.439 40.1557 49.3559 32.7484 45.9937 26.7222C45.9326 26.5966 45.9325 26.4083 46.1159 26.3455C46.1771 26.22 46.2993 26.2828 46.4216 26.4083Z" fill="#003399"/>
<path fill-rule="evenodd" clip-rule="evenodd" d="M26.1873 1.80107C32.3616 -1.52593 39.8197 -0.14491 44.5269 5.12808C47.4612 8.39231 48.8062 12.7237 48.1948 17.1806C47.4001 22.893 42.3873 27.7894 38.4748 31.4302C38.3526 31.5558 38.1692 31.493 38.108 31.4302C37.9858 31.3047 38.0469 31.1164 38.108 31.0536C41.9594 27.4755 46.9111 22.6419 47.6446 17.1178C48.1948 12.8492 46.9722 8.70617 44.099 5.50472C39.5752 0.420051 32.3616 -0.898194 26.3707 2.30326C26.2484 2.36604 26.065 2.30326 26.0039 2.17771C26.0039 2.05217 26.065 1.86385 26.1873 1.80107Z" fill="#003399"/>
<path fill-rule="evenodd" clip-rule="evenodd" d="M22.1522 48.0024C15.9779 51.3294 8.5198 49.9484 3.81263 44.6754C0.878293 41.4112 -0.466611 37.0798 0.144709 32.6229C0.939425 26.9105 5.95226 22.0141 9.86471 18.3733C9.98697 18.2477 10.1704 18.3105 10.2315 18.3733C10.3538 18.4988 10.2926 18.6871 10.2315 18.7499C6.38017 22.328 1.42848 27.1616 0.694898 32.6857C0.14471 36.9543 1.36735 41.0973 4.24056 44.2988C8.76433 49.3834 15.9779 50.7017 21.9688 47.5002C22.0911 47.4375 22.2745 47.5002 22.3356 47.6258C22.3356 47.8141 22.2745 47.9397 22.1522 48.0024Z" fill="#003399"/>
<mask id="mask0_421_835" style="mask-type:luminance" maskUnits="userSpaceOnUse" x="2" y="2" width="25" height="20">
<path d="M26.5538 9.1456C23.5583 5.94414 19.707 3.1821 15.3055 2.80546C11.821 2.49159 8.581 3.74706 6.13572 6.25801C2.10101 10.4011 1.42856 16.6157 4.1795 21.5748C4.97422 20.7587 5.76893 19.9427 6.56364 19.1894C4.91308 15.6741 5.40214 11.531 8.15308 8.64341C11.8821 4.75144 17.1395 5.44195 21.0519 8.58063C22.947 10.0872 24.7199 10.15 26.5538 9.1456Z" fill="white"/>
</mask>
<g mask="url(#mask0_421_835)">
<path d="M26.4934 2.49158H1.36816V21.5748H26.4934V2.49158Z" fill="url(#paint0_linear_421_835)"/>
</g>
<mask id="mask1_421_835" style="mask-type:luminance" maskUnits="userSpaceOnUse" x="21" y="28" width="25" height="20">
<path d="M21.9082 40.7207C24.9037 43.9221 28.755 46.6842 33.1565 47.0608C36.641 47.3747 39.881 46.1192 42.3263 43.6083C46.361 39.4652 47.0335 33.2506 44.2825 28.2915C43.4878 29.1076 42.6931 29.9236 41.8984 30.6769C43.5489 34.1922 43.0599 38.3353 40.3089 41.2229C36.5799 45.1148 31.3225 44.4243 27.4101 41.2857C25.515 39.8419 23.7422 39.7791 21.9082 40.7207Z" fill="white"/>
</mask>
<g mask="url(#mask1_421_835)">
<path d="M47.0335 28.3543H21.9082V47.4375H47.0335V28.3543Z" fill="url(#paint1_linear_421_835)"/>
</g>
<mask id="mask2_421_835" style="mask-type:luminance" maskUnits="userSpaceOnUse" x="27" y="2" width="19" height="26">
<path d="M39.7584 27.2871C42.8762 24.2112 45.566 20.2565 45.9328 15.7368C46.2384 12.1587 45.0158 8.83166 42.5705 6.32071C38.5358 2.17765 32.4837 1.48714 27.6543 4.31196C28.449 5.12801 29.2437 5.94407 29.9773 6.76013C33.4007 5.06524 37.4354 5.56743 40.2475 8.39224C44.0377 12.2214 43.3652 17.62 40.3086 21.6375C38.9026 23.6462 38.7803 25.4667 39.7584 27.2871Z" fill="white"/>
</mask>
<g mask="url(#mask2_421_835)">
<path d="M46.2384 1.48712H27.6543V27.2871H46.2384V1.48712Z" fill="url(#paint2_linear_421_835)"/>
</g>
<mask id="mask3_421_835" style="mask-type:luminance" maskUnits="userSpaceOnUse" x="2" y="22" width="19" height="26">
<path d="M8.70292 22.5791C5.58518 25.655 2.89537 29.6098 2.52858 34.1295C2.22292 37.7076 3.44556 41.0346 5.89084 43.5455C9.92556 47.6886 15.9776 48.3791 20.8071 45.5543C20.0123 44.7382 19.2176 43.9221 18.484 43.1061C15.0606 44.801 11.0259 44.2988 8.21386 41.474C4.42367 37.6448 5.09613 32.2462 8.15273 28.2287C9.6199 26.2827 9.68103 24.4623 8.70292 22.5791Z" fill="white"/>
</mask>
<g mask="url(#mask3_421_835)">
<path d="M20.8068 22.5791H2.22266V48.3791H20.8068V22.5791Z" fill="url(#paint3_linear_421_835)"/>
</g>
<path d="M13.1289 12.1438L12.1855 13.1282L17.981 18.9841L18.9243 17.9998L13.1289 12.1438Z" fill="#003399"/>
<path d="M36.5019 12.3183L31.0986 17.778L31.656 18.3596L37.0593 12.9L36.5019 12.3183Z" fill="#003399"/>
<path d="M31.416 30.8794L30.4727 31.8638L36.2681 37.7197L37.2114 36.7353L31.416 30.8794Z" fill="#003399"/>
<path d="M17.1728 32.1447L11.7695 37.6044L12.3269 38.1861L17.7302 32.7264L17.1728 32.1447Z" fill="#003399"/>
<path fill-rule="evenodd" clip-rule="evenodd" d="M22.1533 22.1397C22.1533 22.2025 21.7254 22.5791 21.6642 22.6419C21.542 22.5791 21.114 22.3908 21.0529 22.3908C20.9918 22.3908 20.5639 23.2069 20.5639 23.2697L21.0529 23.7091C21.0529 23.8346 20.9306 24.0857 20.8695 24.3996L20.1971 24.5251V25.5923C20.3193 25.5923 20.4416 25.6551 20.5639 25.6551L20.8084 25.7178C20.8695 25.7178 20.8695 25.9061 20.9306 26.0945C20.9306 26.22 20.9918 26.2828 21.0529 26.4083C20.9306 26.5339 20.625 26.7222 20.5639 26.8477L21.0529 27.7266C21.2363 27.7266 21.4808 27.5383 21.6642 27.5383L21.7254 27.601C21.8476 27.7266 22.031 27.9777 22.1533 28.0405L21.9088 28.6682C21.9699 28.731 22.7035 29.1704 22.7646 29.1704L23.1925 28.6682C23.2537 28.6682 23.4371 28.731 23.4982 28.731C23.6205 28.7937 23.7427 28.7937 23.865 28.7937L23.9872 29.4215C24.0484 29.4842 24.782 29.4215 24.9654 29.4215C24.9654 29.2959 25.0265 28.7937 25.1488 28.731H25.271C25.5155 28.6682 25.5767 28.6054 25.7601 28.6054C25.8823 28.7937 26.0657 28.9821 26.188 29.1076L27.0438 28.6054C27.0438 28.4171 26.8604 28.1032 26.8604 27.9149C27.0438 27.7894 27.1661 27.601 27.3495 27.4127L27.9608 27.6638C28.022 27.601 28.1442 27.3499 28.2054 27.2244C28.2665 27.0988 28.3888 26.9105 28.4499 26.785C28.3888 26.7222 28.022 26.4083 27.9608 26.3456C27.9608 26.2828 28.1442 25.6551 28.1442 25.6551C28.2054 25.5923 28.6333 25.5295 28.8167 25.5295V24.4624C28.7555 24.4624 28.2054 24.3368 28.2054 24.3368L28.022 23.6463C28.2054 23.5207 28.3888 23.3952 28.511 23.2069C28.4499 23.0813 28.1442 22.5164 28.022 22.328L27.4106 22.5791C27.2272 22.4536 27.105 22.2653 26.9216 22.077C26.9827 21.8886 27.1661 21.5748 27.1661 21.3864C27.0438 21.3864 26.4937 20.947 26.3103 20.8843L25.8823 21.4492C25.7601 21.4492 25.6989 21.3864 25.5767 21.3237C25.4544 21.2609 25.3933 21.2609 25.271 21.2609L25.2099 20.6959C25.2099 20.6332 25.2099 20.5704 25.1488 20.5704H24.2318C24.1706 20.5704 24.1706 20.6332 24.1706 20.7587L24.0484 21.3237C23.865 21.2609 23.5593 21.4492 23.4371 21.4492C23.3759 21.3237 23.3148 21.2609 23.2537 21.1353C23.1925 21.0726 23.1314 20.8843 23.0091 20.8843C22.948 20.8843 22.8257 20.947 22.7646 21.0098L22.3367 21.2609C22.2144 21.3237 22.2144 21.3237 22.1533 21.3864V22.1397ZM19.4023 24.9645C19.4023 22.077 21.7865 19.7543 24.5986 19.8171C27.4106 19.8799 29.6114 22.2653 29.6114 25.1529C29.6114 26.4711 28.9389 27.9149 28.0831 28.7937C24.6597 31.9952 19.4023 29.6098 19.4023 24.9645Z" fill="#003399"/>
<mask id="mask4_421_835" style="mask-type:luminance" maskUnits="userSpaceOnUse" x="32" y="33" width="8" height="8">
<path d="M36.2738 40.344C34.2564 40.344 32.667 38.7119 32.667 36.7031C32.667 34.6944 34.3176 33.0623 36.2738 33.0623C38.2911 33.0623 39.8806 34.6944 39.8806 36.7031C39.8806 38.7119 38.23 40.344 36.2738 40.344Z" fill="white"/>
</mask>
<g mask="url(#mask4_421_835)">
<path d="M39.8812 33.0623H32.6064V40.344H39.8812V33.0623Z" fill="url(#paint4_linear_421_835)"/>
</g>
<mask id="mask5_421_835" style="mask-type:luminance" maskUnits="userSpaceOnUse" x="34" y="10" width="5" height="6">
<path d="M38.7179 12.9119C38.7179 14.1674 37.7398 15.2345 36.5172 15.2345C35.2945 15.2345 34.3164 14.2302 34.3164 12.9119C34.3164 11.6564 35.2945 10.5893 36.5172 10.5893C37.7398 10.5893 38.7179 11.5937 38.7179 12.9119Z" fill="white"/>
</mask>
<g mask="url(#mask5_421_835)">
<path d="M38.7179 10.5893H34.3164V15.1718H38.7179V10.5893Z" fill="url(#paint5_linear_421_835)"/>
</g>
<mask id="mask6_421_835" style="mask-type:luminance" maskUnits="userSpaceOnUse" x="10" y="35" width="5" height="5">
<path d="M14.5724 37.582C14.5724 38.8375 13.5943 39.9047 12.3716 39.9047C11.149 39.9047 10.1709 38.9003 10.1709 37.582C10.1709 36.3266 11.149 35.2594 12.3716 35.2594C13.5332 35.3222 14.5724 36.3266 14.5724 37.582Z" fill="white"/>
</mask>
<g mask="url(#mask6_421_835)">
<path d="M14.5724 35.3222H10.1709V39.9047H14.5724V35.3222Z" fill="url(#paint6_linear_421_835)"/>
</g>
<mask id="mask7_421_835" style="mask-type:luminance" maskUnits="userSpaceOnUse" x="9" y="9" width="8" height="8">
<path d="M9.13086 13.2258C9.13086 11.1542 10.7203 9.45935 12.7377 9.45935C14.755 9.45935 16.3444 11.1542 16.3444 13.2258C16.3444 15.2973 14.755 16.9922 12.7377 16.9922C10.7203 16.9922 9.13086 15.2973 9.13086 13.2258Z" fill="white"/>
</mask>
<g mask="url(#mask7_421_835)">
<path d="M16.3444 9.45935H9.13086V16.9922H16.3444V9.45935Z" fill="url(#paint7_linear_421_835)"/>
</g>
<path fill-rule="evenodd" clip-rule="evenodd" d="M19.89 19.3149C19.8289 19.3777 19.0341 20.2565 18.973 20.2565C18.7285 20.1937 17.8726 19.7543 17.7504 19.8171C17.6281 19.8799 16.8334 21.3864 16.7111 21.512L17.6892 22.3908C17.6892 22.5791 17.4447 23.1441 17.3224 23.709L15.9775 23.8974V25.9689C16.2221 26.0317 16.4666 26.0317 16.7111 26.0944L17.2002 26.22C17.3224 26.2828 17.3224 26.5966 17.4447 26.9105C17.5058 27.1616 17.567 27.3499 17.6281 27.5382C17.4447 27.7893 16.7722 28.166 16.65 28.4171L17.6281 30.1747C17.9338 30.1747 18.4839 29.8609 18.8507 29.7353L18.973 29.8609C19.1564 30.112 19.5843 30.5514 19.8288 30.6769L19.3398 31.9324C19.5232 32.0579 20.8681 32.874 21.0515 32.9368L21.9073 31.9952C22.0907 31.9952 22.3353 32.1207 22.5187 32.1835C22.7632 32.2463 22.9466 32.309 23.1911 32.3718L23.3745 33.6273C23.5579 33.7528 24.9028 33.6273 25.3307 33.6901C25.3307 33.439 25.453 32.4346 25.6364 32.3718L25.8809 32.309C26.3088 32.2463 26.4922 32.1207 26.859 31.9952C27.1036 32.309 27.4092 32.6857 27.6537 32.9995L29.3654 31.9952C29.3654 31.6185 28.9987 31.0536 28.9987 30.6769C29.3654 30.3631 29.61 30.0492 29.9768 29.7353L31.1383 30.1747C31.2605 30.0492 31.5051 29.547 31.6273 29.2959C31.7496 29.0448 31.9941 28.6682 32.1164 28.4171C32.0553 28.2915 31.3217 27.6638 31.1383 27.601C31.1383 27.4755 31.5051 26.2828 31.5051 26.22C31.6885 26.0944 32.4832 26.0317 32.7888 25.9689V23.8974C32.6054 23.8346 31.5662 23.709 31.5662 23.6463L31.1994 22.328C31.5662 22.0142 31.933 21.8258 32.1775 21.4492C32.0553 21.1981 31.3828 20.0682 31.1994 19.6915L29.9768 20.1309C29.6711 19.8171 29.3654 19.5032 28.9987 19.1893C29.0598 18.8127 29.4266 18.185 29.4877 17.8711C29.3043 17.8083 28.1428 17.055 27.776 16.8667L26.9202 17.9339C26.6145 17.9339 26.5534 17.8083 26.3088 17.7455C26.1255 17.6828 25.8809 17.62 25.6364 17.62L25.453 16.4273C25.453 16.239 25.453 16.1762 25.3307 16.1762H23.5579C23.3745 16.1762 23.4356 16.3018 23.3745 16.4901L23.1911 17.62C22.8854 17.4945 22.213 17.8083 21.9073 17.9339C21.7851 17.7455 21.6628 17.5572 21.4794 17.3689C21.3572 17.2434 21.1738 16.9295 21.0515 16.8667C20.9292 16.9295 20.7458 17.055 20.6236 17.1178L19.7677 17.62C19.5843 17.6828 19.5232 17.7456 19.3398 17.8711L19.89 19.3149ZM18.5451 24.9645C18.5451 21.6375 21.296 18.8755 24.5971 18.9383C27.8371 19.001 30.4658 21.7631 30.4658 25.2156C30.4658 26.785 29.7322 28.4798 28.6319 29.4842C24.6583 33.1879 18.5451 30.3631 18.5451 24.9645Z" fill="#003399"/>
<defs>
<linearGradient id="paint0_linear_421_835" x1="13.9616" y1="18.3743" x2="13.9616" y2="5.9603" gradientUnits="userSpaceOnUse">
<stop stop-color="#990000"/>
<stop offset="1" stop-color="#CC3300"/>
</linearGradient>
<linearGradient id="paint1_linear_421_835" x1="43.3282" y1="37.8936" x2="24.576" y2="37.8936" gradientUnits="userSpaceOnUse">
<stop stop-color="#006633"/>
<stop offset="1" stop-color="#7BD41A"/>
</linearGradient>
<linearGradient id="paint2_linear_421_835" x1="36.9594" y1="2.87057" x2="36.9594" y2="27.0636" gradientUnits="userSpaceOnUse">
<stop stop-color="#003399"/>
<stop offset="1" stop-color="#00B0D9"/>
</linearGradient>
<linearGradient id="paint3_linear_421_835" x1="23.6631" y1="35.5193" x2="-0.377777" y2="35.5193" gradientUnits="userSpaceOnUse">
<stop stop-color="#E33D00"/>
<stop offset="1" stop-color="#FF6600"/>
</linearGradient>
<linearGradient id="paint4_linear_421_835" x1="36.2587" y1="38.54" x2="36.2587" y2="34.8912" gradientUnits="userSpaceOnUse">
<stop stop-color="#990000"/>
<stop offset="1" stop-color="#CC3300"/>
</linearGradient>
<linearGradient id="paint5_linear_421_835" x1="38.7443" y1="12.8978" x2="34.2523" y2="12.8978" gradientUnits="userSpaceOnUse">
<stop stop-color="#E33D00"/>
<stop offset="1" stop-color="#FF6600"/>
</linearGradient>
<linearGradient id="paint6_linear_421_835" x1="12.3459" y1="35.303" x2="12.3459" y2="39.9156" gradientUnits="userSpaceOnUse">
<stop stop-color="#003399"/>
<stop offset="1" stop-color="#00B0D9"/>
</linearGradient>
<linearGradient id="paint7_linear_421_835" x1="16.3871" y1="13.2137" x2="9.03348" y2="13.2137" gradientUnits="userSpaceOnUse">
<stop stop-color="#006633"/>
<stop offset="1" stop-color="#7BD41A"/>
</linearGradient>
</defs>
</svg>
