<svg width="74" height="67" viewBox="0 0 74 67" fill="none" xmlns="http://www.w3.org/2000/svg">
<path d="M16.8469 35.5685C16.6685 35.5685 16.5411 35.4663 16.4902 35.2875C16.4392 35.1086 16.5411 34.9042 16.7195 34.8275C16.7704 34.802 21.7895 32.8089 25.0507 29.5638C25.0507 29.5638 25.0507 29.5638 25.0762 29.5383C28.3118 26.3187 29.2545 23.4313 29.28 23.4058C29.3309 23.2525 29.4838 23.1247 29.6621 23.1502C29.8405 23.1502 29.9679 23.278 30.0188 23.4313C30.0698 23.5846 30.9615 27.5196 26.452 31.0458C22.0443 34.4698 17.1526 35.5174 16.9488 35.543C16.8978 35.5685 16.8723 35.5685 16.8469 35.5685ZM25.5602 30.126C24.5156 31.148 23.3437 32.0424 22.1972 32.8089C23.4201 32.1957 24.7195 31.4291 25.9679 30.4581C28.3628 28.5928 29.1016 26.5998 29.28 25.2711C28.6176 26.4465 27.4965 28.2095 25.5602 30.126Z" fill="white"/>
<path d="M36.0065 18.014C35.8537 18.014 35.7263 17.9374 35.6498 17.7841C35.0893 16.4298 34.2995 15.4333 33.6371 14.539C32.7454 13.3636 31.9556 12.367 31.9556 10.9617C31.9556 9.27523 33.2804 8.53422 33.3568 8.50867C33.5352 8.40646 33.7645 8.48312 33.8664 8.66198C33.9683 8.84085 33.8919 9.07082 33.7135 9.17302C33.6626 9.19858 32.7199 9.73517 32.7199 10.9361C32.7199 12.086 33.3823 12.9547 34.2486 14.0535C34.9619 14.9733 35.7517 16.021 36.3632 17.4519C36.4396 17.6563 36.3632 17.8607 36.1594 17.9629C36.1084 17.9885 36.0575 18.014 36.0065 18.014Z" fill="white"/>
<path d="M33.7131 8.20223C33.5092 8.20223 33.3054 8.12558 33.178 7.97226C33.0252 7.81895 32.9487 7.64009 32.9487 7.43567C32.9487 7.33346 32.9742 7.23125 32.9997 7.12905C33.0506 7.02684 33.1016 6.95018 33.178 6.87353C33.2545 6.79687 33.3309 6.74577 33.4328 6.69466C33.5347 6.66911 33.6112 6.64355 33.7131 6.64355C33.815 6.64355 33.9169 6.66911 33.9933 6.69466C34.0952 6.74577 34.1717 6.79687 34.2481 6.87353C34.3245 6.95018 34.3755 7.02684 34.401 7.12905C34.4264 7.23125 34.4519 7.33346 34.4519 7.43567C34.4519 7.53788 34.4264 7.64009 34.401 7.71674C34.35 7.81895 34.299 7.89561 34.2226 7.97226C34.1462 8.04892 34.0697 8.10002 33.9678 8.15113C33.8914 8.17668 33.815 8.20223 33.7131 8.20223Z" fill="white"/>
<path d="M27.9043 36.5395C27.7514 36.5395 27.5985 36.4373 27.5476 36.284L26.7833 34.0865C26.7068 33.9076 26.8087 33.7032 26.9871 33.601C34.2992 30.3559 36.6431 28.7972 36.9998 25.4499C37.1272 24.1467 36.5922 22.818 36.2355 22.0515C36.1591 21.847 36.0826 21.6682 36.0317 21.5404C35.7769 20.825 35.624 20.0584 35.5731 19.2918C35.5476 19.0108 35.5731 18.7552 35.624 18.4997C35.6495 18.2187 35.675 17.9631 35.6495 17.7332C35.624 17.5543 35.7259 17.3499 35.9043 17.2988C36.0826 17.2477 36.2864 17.3243 36.3629 17.5032C36.3629 17.5032 36.7196 18.2442 37.0253 18.8319L37.0508 18.883C37.0508 18.883 37.0762 18.9086 37.0762 18.9341C37.6113 20.1351 37.917 21.2338 38.0699 21.8726C38.1208 21.4382 38.0954 20.9016 37.9425 20.2373C37.4839 18.1931 34.7323 8.35556 34.7068 8.25335C34.7068 8.20225 34.6813 8.17669 34.6813 8.12559C34.6813 8.10004 34.7833 6.10698 33.5858 5.54483C32.3119 4.95714 31.1399 5.23821 30.4775 5.6726C30.2482 5.82591 29.9935 5.92811 29.7642 5.97922C29.8661 6.00477 29.9425 6.10698 29.9934 6.20919C30.0444 6.33695 30.0189 6.51581 29.8915 6.61802C29.7642 6.74578 29.6368 6.84799 29.5094 6.9502C29.5349 6.9502 29.5348 6.97575 29.5603 6.97575C29.6877 7.0524 29.7642 7.18017 29.7642 7.33348C29.7642 7.35903 29.6877 9.14767 30.6813 10.7063C30.7833 10.8597 30.8852 11.013 30.9871 11.1663C32.1845 12.9805 34.1463 16.0212 33.5348 18.4231C32.8724 21.0038 32.1081 21.5149 29.9934 21.8215C27.9043 22.1281 24.8215 22.7414 22.503 24.6833C20.6431 26.2164 19.1399 30.3559 18.554 32.0423C18.4011 32.5278 18.2992 32.9622 18.2227 33.2944C18.1718 33.4988 17.968 33.6265 17.7641 33.5754C17.5603 33.5243 17.4329 33.3199 17.4839 33.1155C17.5603 32.7578 17.6877 32.2978 17.8406 31.7868C18.5794 29.5893 20.0826 25.6543 22.0189 24.0701C24.5157 22.0259 27.7005 21.3616 29.8915 21.0294C31.7005 20.7739 32.21 20.4672 32.796 18.1931C33.331 16.1234 31.4712 13.2616 30.3501 11.5496C30.2482 11.3707 30.1463 11.2174 30.0444 11.0896C29.2036 9.78647 29.0253 8.38111 28.9998 7.69121C28.6431 7.66565 28.0571 7.43569 27.9552 7.38458C27.7769 7.30793 27.7005 7.12906 27.7259 6.9502C27.7769 6.77133 27.9298 6.64357 28.1081 6.64357C28.2864 6.64357 28.4903 6.61802 28.6431 6.54136C28.6941 6.51581 28.7705 6.46471 28.8215 6.43916C28.796 6.4136 28.7705 6.38805 28.7196 6.3625C28.6941 6.3625 28.6941 6.33695 28.6686 6.33695C28.4903 6.15808 28.3374 5.92811 28.21 5.69814C28.1336 5.57038 28.1591 5.39152 28.261 5.28931C28.3629 5.18711 28.5157 5.136 28.6686 5.16155C28.6686 5.16155 29.4584 5.39152 29.9934 5.00824C30.8342 4.4461 32.2864 4.08837 33.8406 4.80382C35.3947 5.49373 35.3947 7.6401 35.3692 8.04893C35.624 8.94325 38.1463 17.9887 38.6049 20.0073C39.1145 22.2303 38.2227 23.4313 38.1973 23.4824C38.0954 23.6101 37.917 23.6612 37.7641 23.6101C37.6113 23.559 37.5094 23.3802 37.5349 23.2013C37.5349 23.2013 37.5348 23.0224 37.382 22.4858L37.331 22.307C37.2036 21.7704 36.8979 20.5439 36.2864 19.1896C36.2864 19.1641 36.261 19.1641 36.261 19.1385C36.261 19.1641 36.261 19.1896 36.261 19.1896C36.3119 19.8795 36.4648 20.595 36.6686 21.2593C36.7196 21.3616 36.7705 21.5404 36.8469 21.7193C37.2036 22.5625 37.8151 23.9934 37.6622 25.501C37.2801 29.1549 34.7833 30.8925 27.5221 34.1376L28.159 36.0029C28.2355 36.2073 28.1336 36.4117 27.9298 36.4884C28.0062 36.5395 27.9552 36.5395 27.9043 36.5395Z" fill="white"/>
<path fill-rule="evenodd" clip-rule="evenodd" d="M11.9808 42.4929V47.7821C11.9808 49.3408 11.1401 50.3629 9.48403 50.3629C7.82798 50.3629 7.01269 49.3408 7.01269 47.7821V42.4929C7.01269 40.9342 7.82798 39.9121 9.48403 39.9121C11.1656 39.9121 11.9808 40.9342 11.9808 42.4929ZM9.48403 49.3153C10.3757 49.3153 10.7579 48.7787 10.7579 47.8332V42.4162C10.7579 41.4963 10.3503 40.9342 9.48403 40.9342C8.61778 40.9342 8.21014 41.4963 8.21014 42.4162V47.8332C8.21014 48.7787 8.61778 49.3153 9.48403 49.3153ZM57.9681 39.9632C56.312 39.9632 55.4968 40.9853 55.4968 42.544V47.8332C55.4968 49.3919 56.312 50.414 57.9681 50.414C59.6242 50.414 60.4649 49.3919 60.4649 47.8332V42.544C60.4649 40.9853 59.6496 39.9632 57.9681 39.9632ZM59.2675 47.8843C59.2675 48.8298 58.8598 49.3664 57.9681 49.3664C57.0764 49.3664 56.6942 48.8298 56.6942 47.8843V42.4673C56.6942 41.5474 57.1019 40.9853 57.9681 40.9853C58.8343 40.9853 59.2675 41.5474 59.2675 42.4673V47.8843ZM25.2292 50.3118H24.0318V40.0654H29.1273V50.3118H27.9299V41.1131H25.2547V50.3118H25.2292ZM25.9171 55.8055C24.2356 55.8055 23.4458 56.8531 23.4458 58.4118V63.8033C23.4458 65.3875 24.2356 66.4096 25.9171 66.4096C27.5987 66.4096 28.414 65.3619 28.414 63.8033V62.5001H27.242V63.8544C27.242 64.7998 26.8598 65.362 25.9426 65.362C25.0254 65.362 24.6433 64.7998 24.6433 63.8544V58.3607C24.6433 57.4153 25.0509 56.8531 25.9426 56.8531C26.8343 56.8531 27.242 57.4153 27.242 58.3607V59.3572H28.414V58.4118C28.414 56.8531 27.6242 55.8055 25.9171 55.8055ZM2.68148 63.6755L3.64963 60.8137L5.40759 55.9332H6.78339V66.3329H5.68785V58.0541L4.49039 61.5291L2.85982 66.3329H1.58594V55.9332H2.68148V63.6755ZM11.7006 60.5837H14.4012V55.9077H15.6242V66.3074H14.4012V61.6314H11.7006V66.3074H10.4777V55.9077H11.7006V60.5837ZM18.6815 55.9077L16.5668 66.3074H17.6879L18.121 64.2121H20.9235L21.3566 66.3074H22.5796L20.4649 55.9077H18.6815ZM18.2993 63.2156L19.5222 57.2108L20.7706 63.2156H18.2993ZM31.2165 56.9553H29.1783V55.9077H34.4777V56.9553H32.4394V66.3074H31.2165V56.9553ZM37.1783 55.9077L35.0636 66.3074H36.1847L36.6178 64.2121H39.4203L39.8535 66.3074H41.0764L38.9617 55.9077H37.1783ZM36.7707 63.2156L37.9936 57.2108L39.242 63.2156H36.7707ZM46.9108 58.7184C46.9108 59.8172 46.5796 60.5071 45.6114 60.7881C46.6815 61.0692 47.0891 61.8869 47.0891 63.0112V63.8799C47.0891 65.4386 46.2738 66.3074 44.5668 66.3074H42.0191V55.9077H44.4904C46.1974 55.9077 46.8853 56.6743 46.8853 58.2074V58.7184H46.9108ZM44.4904 56.9553H43.2675V60.3026H44.2101C45.1783 60.3026 45.6879 59.996 45.6879 58.9228V58.3096C45.7133 57.4153 45.3821 56.9553 44.4904 56.9553ZM44.5923 65.2597C45.484 65.2597 45.8917 64.7998 45.8917 63.8544V62.9345C45.8917 61.7847 45.4076 61.3758 44.3375 61.3758H43.2675V65.2597H44.5923ZM52.1592 60.5837H49.4585V55.9077H48.2101V66.3074H49.4331V61.6314H52.1337V66.3074H53.3566V55.9077H52.1337V60.5837H52.1592ZM55.7261 63.6755L56.6942 60.8137L58.4522 55.9332H59.828V66.3329H58.7324V58.0541L57.535 61.5291L55.9044 66.3329H54.6305V55.9332H55.7261V63.6755ZM66.5031 55.9077H65.2547L62.3248 60.9414V55.9077H61.1019V66.3074H62.3248V62.8067L62.9617 61.7847L65.3312 66.3074H66.5796L63.7006 60.6348L66.5031 55.9077ZM69.3312 55.9077H71.1146L73.2293 66.3074H72.0063L71.5732 64.2121H68.7707L68.3375 66.3074H67.2165L69.3312 55.9077ZM70.1464 57.2364L68.9235 63.2411H71.3694L70.1464 57.2364ZM30.3503 50.3118H34.8089V49.2642H31.5477V45.6358H34.1974V44.6137H31.5477V41.1131H34.8089V40.0654H30.3503V50.3118ZM42.4522 49.2897V51.7172H41.2802V50.3118H36.8471V51.7172H35.6751V49.2897H36.363C36.7452 48.9064 36.8216 48.4209 36.8471 47.8077L37.2547 40.0654H41.6114V49.2897H42.4522ZM37.535 49.2897H40.414L40.4394 41.0875H38.4267L38.07 47.7821C37.9936 48.5231 37.8917 48.9575 37.535 49.2897ZM47.0382 40.0654H45.2802L43.191 50.3118H44.3121L44.7197 48.2421H47.4713L47.8789 50.3118H49.1019L47.0382 40.0654ZM44.898 47.2711L46.0955 41.3686L47.3184 47.2711H44.898ZM51.2675 50.3118H50.07V40.0654H54.4012V41.1131H51.2675V50.3118ZM62.8344 41.1131H65.9681V40.0654H61.6369V50.3118H62.8344V41.1131ZM71.1146 48.2421H68.363L67.9554 50.3118H66.8089L68.898 40.0654H70.656L72.7452 50.3118H71.5477L71.1146 48.2421ZM70.9363 47.2711L69.7133 41.3686L68.5159 47.2711H70.9363ZM5.91715 41.062H2.78339V50.2607H1.58594V40.0143H5.91715V41.062ZM14.0445 50.2607H18.4777V51.6661H19.6496V49.2386H18.8343V40.0143H14.4777L14.07 47.7566C14.0445 48.3954 13.9681 48.8553 13.5859 49.2386H12.898V51.6661H14.07V50.2607H14.0445ZM15.242 47.7566L15.5987 41.062H17.6114V49.2642H14.7324C15.0891 48.9064 15.191 48.472 15.242 47.7566Z" fill="white"/>
<path d="M72.0572 18.0909C70.9362 16.6599 69.3056 15.7145 67.5222 15.4079L71.4458 10.042H58.2483C57.1528 8.91767 55.6751 8.22776 54.1209 8.15111C53.2802 8.1 52.4394 8.22776 51.6751 8.53439C50.8853 8.84101 50.1719 9.2754 49.5604 9.86309C48.9235 10.4508 48.4394 11.1918 48.1082 11.9839C46.8088 8.48328 44.4649 5.44259 41.4076 3.29622C38.3502 1.14984 34.7069 0 30.9617 0C27.0891 0 23.2929 1.25205 20.1591 3.55174C17.0254 5.85142 14.7069 9.09653 13.5095 12.8016C13.1783 11.524 12.4394 10.3741 11.4203 9.53092C10.4012 8.6877 9.1273 8.20221 7.80246 8.12555C6.96169 8.07445 6.12093 8.20221 5.35659 8.50883C4.56679 8.81546 3.85341 9.24984 3.24195 9.83754C2.63048 10.4252 2.14641 11.1151 1.81519 11.8817C1.48398 12.6483 1.33112 13.4915 1.33112 14.3091H2.55405C2.55405 13.6448 2.68144 12.9549 2.93621 12.3416C3.19099 11.7284 3.59863 11.1662 4.08271 10.7063C4.56679 10.2464 5.15277 9.88865 5.76424 9.63313C6.40118 9.40316 7.06361 9.30095 7.72603 9.3265C8.97443 9.3776 10.1464 9.9142 11.0126 10.8085C11.8789 11.7028 12.3884 12.8782 12.4394 14.1303C12.4394 14.1814 12.4394 14.258 12.4394 14.3091C12.4394 14.9224 12.2865 15.5356 12.0063 16.0978C11.726 16.6599 11.3184 17.1454 10.8343 17.5032L0.312012 25.7054H13.9935V25.3732C14.8343 27.3918 16.0063 29.2315 17.484 30.8158C17.5095 31.7101 17.433 32.2978 17.484 33.141C17.484 33.141 17.7642 33.0388 18.2228 31.5568C18.3502 31.1735 18.5286 30.688 18.7324 30.1259C15.7515 27.0341 13.9171 22.8435 13.9171 18.2186C13.9171 8.76435 21.5604 1.09874 30.9872 1.09874C40.4139 1.09874 48.0572 8.76435 48.0572 18.2186C48.0572 27.6729 40.4139 35.3385 30.9872 35.3385C29.6878 35.3385 28.5158 35.2107 27.3184 34.9297L27.777 36.4372C28.8216 36.6161 29.8916 36.7183 30.9362 36.7183C34.5031 36.7183 37.9935 35.6707 40.949 33.7287C43.9298 31.7612 46.2738 28.976 47.7005 25.7054H59.8279C60.4649 27.0085 61.484 28.1073 62.7324 28.8227C63.9808 29.5382 65.433 29.8703 66.8853 29.7681C68.6177 29.6404 70.2483 28.8738 71.4712 27.6473C72.6942 26.4208 73.4585 24.7855 73.5859 23.048C73.7388 21.336 73.1782 19.5218 72.0572 18.0909ZM3.90437 24.5555L11.5986 18.5508C12.0063 18.2442 12.363 17.8609 12.6432 17.4521C12.6177 17.7842 12.6177 18.0909 12.6177 18.423C12.6177 20.5183 12.9744 22.588 13.6623 24.5555H3.90437ZM48.7961 14.3858H48.8725C48.8725 13.7215 48.9999 13.0315 49.2547 12.4183C49.5095 11.805 49.9171 11.2429 50.4012 10.783C50.8853 10.323 51.4713 9.9653 52.0827 9.70978C52.6942 9.45426 53.3821 9.3776 54.0445 9.40316C55.2929 9.45426 56.4649 9.99085 57.3311 10.8852C58.1974 11.7795 58.7069 12.9549 58.7579 14.2069C58.7579 14.258 58.7579 14.3347 58.7579 14.3858C58.7579 14.9991 58.605 15.6123 58.3248 16.1744C58.0445 16.7366 57.6369 17.2221 57.1528 17.5798L48.1846 24.5811C48.8725 22.6136 49.2292 20.5183 49.2292 18.423C49.2547 17.0688 49.1018 15.7145 48.7961 14.3858ZM70.6305 26.9063C69.5095 28.0306 67.9553 28.6694 66.3757 28.6694C64.7706 28.6694 63.2419 28.0306 62.1209 26.9063C60.9999 25.782 60.363 24.2233 60.363 22.6391H59.14C59.14 23.3035 59.2419 23.9678 59.4203 24.6066H50.2483L57.9426 18.6019C58.5795 18.1164 59.0891 17.4776 59.4458 16.7621C59.8025 16.0467 60.0063 15.2546 60.0063 14.4369C60.0063 14.3603 60.0063 14.2836 60.0063 14.2069C59.9808 13.1849 59.6751 12.2139 59.1655 11.3451H69.0254L65.1782 16.6088H66.3757C67.9808 16.6088 69.5095 17.2476 70.6305 18.3719C71.7515 19.4962 72.3885 21.0549 72.3885 22.6391C72.3885 24.2233 71.7515 25.7565 70.6305 26.9063Z" fill="white"/>
</svg>
