<svg width="66" height="69" viewBox="0 0 66 69" fill="none" xmlns="http://www.w3.org/2000/svg">
<mask id="mask0_204_184" style="mask-type:luminance" maskUnits="userSpaceOnUse" x="0" y="0" width="66" height="69">
<path d="M65.9998 0.714355H0.856934V68.1429H65.9998V0.714355Z" fill="white"/>
</mask>
<g mask="url(#mask0_204_184)">
<path d="M14.3498 58.9779H13.8777V56.8852H11.8715V58.9779H11.3994V54.3857H11.8715V56.4397H13.8777V54.3857H14.3498V58.9779Z" fill="white"/>
<path d="M18.4016 58.9779C18.3623 58.8229 18.3229 58.6098 18.3229 58.3385C18.1852 58.5709 18.0083 58.7454 17.7722 58.8616C17.5362 58.978 17.3001 59.0554 17.0445 59.0554C16.6512 59.0554 16.3364 58.9391 16.12 58.726C15.9037 58.4935 15.7856 58.1835 15.7856 57.7766C15.7856 57.3309 15.9429 56.9628 16.238 56.7109C16.5528 56.4396 16.9658 56.3233 17.5165 56.304H18.3032V55.6646C18.3032 55.3352 18.2246 55.1027 18.0673 54.967C17.9099 54.8314 17.6739 54.7539 17.3592 54.7539C17.0642 54.7539 16.8281 54.8314 16.6512 55.0058C16.4741 55.1802 16.3758 55.3933 16.3758 55.6646H15.9037C15.9037 55.2964 16.0413 54.9671 16.3364 54.7152C16.6117 54.4633 16.9658 54.3276 17.3985 54.3276C17.8509 54.3276 18.2049 54.4439 18.4409 54.6764C18.677 54.9089 18.795 55.2383 18.795 55.684V57.9316C18.795 58.3772 18.8343 58.726 18.913 58.9391V58.9972H18.4016V58.9779ZM17.1035 58.6098C17.3788 58.6098 17.6345 58.5322 17.8312 58.3966C18.0476 58.261 18.2049 58.0672 18.3032 57.8153V56.6915H17.5755C17.1428 56.6915 16.8281 56.7884 16.6117 56.9821C16.3954 57.1759 16.2774 57.4084 16.2774 57.7378C16.2774 58.3191 16.5528 58.6098 17.1035 58.6098Z" fill="white"/>
<path d="M20.4272 54.3857H20.8993V58.5323H22.9055V54.3857H23.3775V58.5323H23.7709L23.7315 60.3342H23.2988V58.9779H20.4272V54.3857Z" fill="white"/>
<path d="M27.6063 54.3857H28.0783V58.9779H27.6063V55.2189L25.5804 58.9779H25.1084V54.3857H25.5804V58.1447L27.6063 54.3857Z" fill="white"/>
<path d="M29.5339 56.4398C29.5339 55.781 29.6912 55.2579 29.9863 54.8704C30.2813 54.4828 30.6943 54.2891 31.2057 54.2891C31.7171 54.2891 32.1302 54.4828 32.4252 54.851C32.7202 55.2385 32.8775 55.7423 32.8775 56.4205V56.9048C32.8775 57.583 32.7202 58.1062 32.4252 58.4743C32.1302 58.8424 31.7171 59.0362 31.2057 59.0362C30.6943 59.0362 30.2813 58.8618 29.9863 58.4937C29.6912 58.1255 29.5339 57.6217 29.5142 56.9824V56.4398H29.5339ZM30.006 56.9242C30.006 57.4473 30.1043 57.8736 30.3206 58.1642C30.537 58.4743 30.832 58.6099 31.2057 58.6099C31.5991 58.6099 31.8941 58.4549 32.0908 58.1642C32.2875 57.8736 32.4055 57.4473 32.4055 56.9048V56.4205C32.4055 55.8973 32.3072 55.471 32.0908 55.1803C31.8745 54.8704 31.5795 54.7154 31.2057 54.7154C30.832 54.7154 30.5567 54.8704 30.3403 55.161C30.1239 55.4517 30.0256 55.8586 30.006 56.3817V56.9242Z" fill="white"/>
<path d="M37.3028 58.9779H36.8308V56.8852H34.8246V58.9779H34.3525V54.3857H34.8246V56.4397H36.8308V54.3857H37.3028V58.9779Z" fill="white"/>
<path d="M41.3546 58.9779C41.3153 58.8229 41.276 58.6098 41.276 58.3385C41.1384 58.5709 40.9613 58.7454 40.7254 58.8616C40.5089 58.978 40.2532 59.0554 39.9975 59.0554C39.6041 59.0554 39.2895 58.9391 39.0731 58.726C38.8568 58.4935 38.7388 58.1835 38.7388 57.7766C38.7388 57.3309 38.8961 56.9628 39.1911 56.7109C39.5058 56.4396 39.9189 56.3233 40.4696 56.304H41.2564V55.6646C41.2564 55.3352 41.1777 55.1027 41.0203 54.967C40.863 54.8314 40.627 54.7539 40.3122 54.7539C40.0172 54.7539 39.7812 54.8314 39.6041 55.0058C39.4272 55.1802 39.3288 55.3933 39.3288 55.6646H38.8568C38.8568 55.2964 38.9944 54.9671 39.2895 54.7152C39.5649 54.4633 39.9189 54.3276 40.3516 54.3276C40.804 54.3276 41.158 54.4439 41.3941 54.6764C41.63 54.9089 41.7481 55.2383 41.7481 55.684V57.9316C41.7481 58.3772 41.7874 58.726 41.8661 58.9391V58.9972H41.3546V58.9779ZM40.0566 58.6098C40.3319 58.6098 40.5876 58.5322 40.7843 58.3966C41.0006 58.261 41.158 58.0672 41.2564 57.8153V56.6915H40.5089C40.0763 56.6915 39.7615 56.7884 39.5452 56.9821C39.3288 57.1759 39.2108 57.4084 39.2108 57.7378C39.2108 58.3191 39.5058 58.6098 40.0566 58.6098Z" fill="white"/>
<path d="M46.3508 54.3857V58.9779H45.8788V54.8315H44.3446L44.2856 56.5365C44.2463 57.4279 44.148 58.0672 43.9906 58.4159C43.8332 58.7648 43.5579 58.9586 43.1842 58.9779H42.9678V58.5128H43.1055C43.3415 58.4935 43.5185 58.3578 43.6169 58.0866C43.7152 57.8153 43.7939 57.3309 43.8136 56.6334L43.8923 54.3857H46.3508Z" fill="white"/>
<path d="M48.4945 56.0521H49.5567C49.9894 56.0521 50.3434 56.1877 50.5991 56.4397C50.8547 56.6915 50.9924 57.0597 50.9924 57.5053C50.9924 57.9509 50.8547 58.2997 50.5991 58.5709C50.3434 58.8422 49.9894 58.9779 49.5567 58.9779H48.0225V54.3857H48.4945V56.0521ZM48.4945 56.4978V58.5517H49.5763C49.8713 58.5517 50.1073 58.4548 50.2647 58.2803C50.422 58.106 50.5204 57.854 50.5204 57.5441C50.5204 57.234 50.4417 56.9822 50.2647 56.8078C50.0877 56.614 49.8713 56.5365 49.5763 56.5365H48.4945V56.4978Z" fill="white"/>
<path d="M55.3786 58.9779H54.9065V56.8852H52.9003V58.9779H52.4282V54.3857H52.9003V56.4397H54.9065V54.3857H55.3786V58.9779Z" fill="white"/>
<path d="M57.5423 56.0521H58.6044C59.0371 56.0521 59.3911 56.1877 59.6469 56.4397C59.9026 56.6915 60.0402 57.0597 60.0402 57.5053C60.0402 57.9509 59.9026 58.2997 59.6469 58.5709C59.3911 58.8422 59.0371 58.9779 58.6044 58.9779H57.0703V54.3857H57.5423V56.0521ZM57.5423 56.4978V58.5517H58.6241C58.9191 58.5517 59.1552 58.4548 59.3125 58.2803C59.4699 58.106 59.5682 57.854 59.5682 57.5441C59.5682 57.234 59.4895 56.9822 59.3125 56.8078C59.1355 56.614 58.9191 56.5365 58.6241 56.5365H57.5423V56.4978ZM61.3383 58.9779H60.8664V54.3857H61.3383V58.9779Z" fill="white"/>
<path d="M64.5444 59.0556C64.0133 59.0556 63.5805 58.8812 63.2855 58.5324C62.9708 58.1836 62.8332 57.6799 62.8135 57.0211V56.4592C62.8135 55.781 62.9512 55.2579 63.2462 54.8704C63.5412 54.4828 63.9346 54.2891 64.4656 54.2891C64.9574 54.2891 65.3507 54.4441 65.6065 54.7735C65.8622 55.1028 65.9998 55.5873 65.9998 56.2655V56.7111H63.2855V56.963C63.2855 57.4861 63.4035 57.893 63.6199 58.1836C63.8363 58.4743 64.1706 58.6099 64.564 58.6099C65.0163 58.6099 65.39 58.4355 65.6654 58.1062L65.9015 58.4161C65.6065 58.8618 65.1541 59.0556 64.5444 59.0556ZM64.4656 54.7348C64.0919 54.7348 63.8166 54.8704 63.6199 55.1222C63.4231 55.3935 63.3052 55.7616 63.2855 56.2655H65.5277V56.1492C65.5081 55.2191 65.154 54.7348 64.4656 54.7348Z" fill="white"/>
<path d="M15.5496 68.0462H14.3105V62.9115H12.4813V68.0462H11.2422V61.8652H15.5692V68.0462H15.5496Z" fill="white"/>
<path d="M18.3031 65.8761V68.0462H17.064V61.8652H19.1488C19.7585 61.8652 20.2503 62.059 20.6043 62.4271C20.9583 62.8147 21.1551 63.2991 21.1551 63.8997C21.1551 64.5004 20.978 64.9848 20.624 65.3336C20.27 65.6823 19.7782 65.8567 19.1292 65.8567H18.3031V65.8761ZM18.3031 64.8492H19.1488C19.3849 64.8492 19.5619 64.7717 19.6996 64.6167C19.8373 64.4616 19.8962 64.2291 19.8962 63.9384C19.8962 63.6285 19.8373 63.3766 19.6996 63.2022C19.5619 63.0278 19.3849 62.9309 19.1685 62.9309H18.3031V64.8492Z" fill="white"/>
<path d="M25.502 61.8843H26.741V68.0653H25.502V63.9769L23.6924 68.0653H22.4336V61.8843H23.6924V65.9727L25.502 61.8843Z" fill="white"/>
<path d="M32.563 65.5272C32.563 66.3603 32.3663 66.9998 31.9729 67.4647C31.5796 67.9298 31.0485 68.143 30.3404 68.143C29.652 68.143 29.1013 67.9105 28.7079 67.4647C28.3146 67.0192 28.1178 66.3798 28.0981 65.566V64.5003C28.0981 63.6477 28.2949 62.9889 28.6882 62.5045C29.0816 62.0201 29.6324 61.7876 30.3207 61.7876C31.0091 61.7876 31.5402 62.0201 31.9336 62.4852C32.3269 62.9502 32.5236 63.609 32.5433 64.4615V65.5272H32.563ZM31.3239 64.4809C31.3239 63.919 31.2452 63.5121 31.0878 63.2409C30.9305 62.9695 30.6748 62.8339 30.3601 62.8339C30.0257 62.8339 29.7897 62.9695 29.6324 63.2214C29.475 63.4927 29.3963 63.8802 29.3963 64.4228V65.5272C29.3963 66.0697 29.475 66.4573 29.6324 66.7285C29.7897 66.9804 30.0454 67.116 30.3797 67.116C30.6945 67.116 30.9502 66.9998 31.1075 66.7479C31.2648 66.496 31.3435 66.1085 31.3435 65.5853V64.4809H31.3239Z" fill="white"/>
<path d="M35.1986 65.8761V68.0462H33.9595V61.8652H36.064C36.6737 61.8652 37.1655 62.059 37.5195 62.4271C37.8735 62.8147 38.0702 63.2991 38.0702 63.8997C38.0702 64.5004 37.8932 64.9848 37.5392 65.3336C37.1851 65.6823 36.6934 65.8567 36.0443 65.8567H35.1986V65.8761ZM35.1986 64.8492H36.0443C36.2803 64.8492 36.4574 64.7717 36.595 64.6167C36.7328 64.4616 36.7917 64.2291 36.7917 63.9384C36.7917 63.6285 36.7328 63.3766 36.595 63.2022C36.4574 63.0278 36.2803 62.9309 36.064 62.9309H35.1986V64.8492Z" fill="white"/>
<path d="M42.3974 61.8843H43.6366V68.0653H42.3974V63.9769L40.5879 68.0653H39.3291V61.8843H40.5879V65.9727L42.3974 61.8843Z" fill="white"/>
<path d="M49.006 62.9115H47.4718V68.0462H46.2131V62.9115H44.7183V61.8652H48.9864V62.9115H49.006Z" fill="white"/>
<path d="M53.3923 65.3723H51.4451V67.0193H53.7659V68.0462H50.2256V61.8652H53.7659V62.9115H51.4844V64.3647H53.4316V65.3723H53.3923Z" fill="white"/>
<path d="M59.0374 62.9115H57.5031V68.0462H56.2443V62.9115H54.7495V61.8652H59.0176V62.9115H59.0374Z" fill="white"/>
<path d="M61.5152 64.0933H62.2429C62.8723 64.0933 63.364 64.2678 63.7377 64.6165C64.1114 64.9653 64.2884 65.4497 64.2884 66.031C64.2884 66.6316 64.1114 67.0966 63.7377 67.4648C63.3837 67.833 62.892 68.0267 62.3019 68.0267H60.2563V61.8457H61.5152V64.0933ZM61.5152 65.1203V66.9998H62.2625C62.4986 66.9998 62.6952 66.9028 62.833 66.7286C62.9706 66.5541 63.0493 66.3023 63.0493 66.031C63.0493 65.7598 62.9903 65.5466 62.8527 65.3721C62.7149 65.1979 62.5182 65.1203 62.2822 65.1203H61.5152ZM65.862 68.0461H64.6228V61.8651H65.862V68.0461Z" fill="white"/>
<path d="M44.7424 23.8716H35.8281V25.2338H44.7424V23.8716Z" fill="white"/>
<path d="M65.3139 23.8716H55.7139V25.2338H65.3139V23.8716Z" fill="white"/>
<path d="M4.92836 58.9781H0.856934L6.61988 49.3096H10.6913L4.92836 58.9781Z" fill="white"/>
<path d="M31.3433 48.6581H21.0566L35.5917 24.6318H45.8785L31.3433 48.6581Z" fill="white"/>
<path d="M51.3463 48.6581H41.0596L55.5751 24.6318H65.8619L51.3463 48.6581Z" fill="white"/>
<path d="M51.3463 0.714355H41.0596L55.5751 24.7407H65.8619L51.3463 0.714355Z" fill="white"/>
<path d="M26.8196 24.1012L36.1425 8.69727H25.8558L21.686 15.5951L26.8196 24.1012Z" fill="white"/>
<path d="M16.533 24.1011L11.3208 32.7234H21.6075L21.6862 32.6072L16.533 24.1011Z" fill="white"/>
<path d="M36.1425 8.65846L31.3434 0.714355H21.0566L31.009 17.1452L36.1425 8.65846Z" fill="white"/>
<path d="M41.4137 17.3584H41.1581H31.127L35.5917 24.7407H45.8785L41.4137 17.3584Z" fill="white"/>
</g>
</svg>
