<svg width="70" height="58" viewBox="0 0 70 58" fill="none" xmlns="http://www.w3.org/2000/svg">
<g clip-path="url(#clip0_204_185)">
<path d="M68.6384 0.00244141H21.4049C21.1829 0.00244141 20.9901 0.137384 20.9083 0.342731L0.797196 56.0559C0.78551 56.0914 0.773824 56.1265 0.767981 56.1617C0.767981 56.1734 0.762139 56.1794 0.762139 56.1911C0.756296 56.2437 0.756295 56.2909 0.767981 56.3377C0.767981 56.3494 0.773824 56.3611 0.779667 56.3789C0.78551 56.414 0.797195 56.4431 0.814723 56.4786C0.820566 56.496 0.832253 56.5077 0.838095 56.5194C0.855624 56.5429 0.86731 56.5723 0.890681 56.5958C0.902367 56.6135 0.914052 56.6252 0.925738 56.6369C0.943266 56.6547 0.966638 56.6721 0.990009 56.6898C1.00754 56.7015 1.01922 56.7132 1.03675 56.7249C1.06597 56.7427 1.09518 56.7544 1.12439 56.7601C1.13608 56.7661 1.15361 56.7718 1.16529 56.7778C1.20619 56.7895 1.25294 56.7952 1.29384 56.7952C1.29968 56.7952 1.29968 56.7952 1.30552 56.7952C1.31721 56.7952 1.32889 56.7952 1.33474 56.7895C1.37564 56.7835 1.41069 56.7778 1.45159 56.7661C1.45744 56.7661 1.46912 56.7661 1.47496 56.7601L62.3807 34.5006C62.591 34.4243 62.7313 34.219 62.7313 33.996V21.8689L68.872 18.3721C69.0533 18.2782 69.17 18.0964 69.17 17.891V0.542209C69.17 0.242991 68.9307 0.00244141 68.6384 0.00244141ZM23.0584 17.2926V14.9868H23.9173V20.3728H23.0584V18.067H22.1002V20.3728H21.2588V14.9868H22.1002V17.2926H23.0584ZM24.449 20.3669L25.3079 14.981H26.5407L27.3996 20.3669H26.5466L26.4005 19.393H25.3663L25.2203 20.3669H24.449ZM29.7309 19.5983V14.981H30.5898V19.6101H30.9579V21.0886H30.1399V20.3669H27.9314V14.981H28.7727V19.5983H29.7309ZM32.5939 17.2046L33.2834 14.981H34.2124V20.3669H33.4528V16.5768L33.1081 17.8969L32.4011 20.3669H31.5364V14.981H32.2901V18.3897L32.5939 17.2046ZM34.8376 19.0761V16.2776C34.8376 15.4151 35.2875 14.9223 36.1171 14.9223C36.9467 14.9223 37.3966 15.4151 37.3966 16.2776V19.0761C37.3966 19.9386 36.9467 20.4315 36.1171 20.4315C35.2875 20.4315 34.8376 19.9386 34.8376 19.0761ZM39.8274 17.2926V14.9868H40.6863V20.3728H39.8274V18.067H38.8692V20.3728H38.0279V14.9868H38.8692V17.2926H39.8274ZM41.5159 26.8324H40.657V22.215H39.6987V26.8324H38.8575V21.4464H41.5159V26.8324ZM42.0008 20.3669H41.2296L42.0885 14.981H43.3214L44.1803 20.3669H43.3274L43.181 19.393H42.1468L42.0008 20.3669ZM43.0351 26.8324H42.1938V21.4464H43.4323C44.2739 21.4464 44.6885 21.9158 44.6885 22.7783V23.4764C44.6885 24.3389 44.2739 24.8082 43.4323 24.8082H43.0351V26.8324ZM47.6626 20.3669H46.8037V15.7495H46.0674L45.9741 19.0058C45.9447 19.9914 45.5885 20.3728 44.7469 20.3728H44.6186V19.6042C45.0042 19.6042 45.1268 19.5514 45.1385 19.0527L45.2788 14.981H47.6626V20.3669ZM47.7619 22.7372V25.5358C47.7619 26.3982 47.3119 26.8911 46.4824 26.8911C45.6528 26.8911 45.2028 26.3982 45.2028 25.5358V22.7372C45.2028 21.8747 45.6528 21.3819 46.4824 21.3819C47.3119 21.3819 47.7619 21.8747 47.7619 22.7372ZM45.6118 29.9361C45.6118 30.7985 45.1968 31.2679 44.3556 31.2679H43.9583V33.292H43.1167V27.9061H44.3556C45.1968 27.9061 45.6118 28.3754 45.6118 29.2379V29.9361ZM48.6851 32.0013C48.6851 32.8637 48.2352 33.3565 47.4056 33.3565C46.5757 33.3565 46.1261 32.8637 46.1261 32.0013V29.2027C46.1261 28.3402 46.5757 27.8474 47.4056 27.8474C48.2352 27.8474 48.6851 28.3402 48.6851 29.2027V32.0013ZM49.585 17.0051C50.4263 17.0051 50.8412 17.4745 50.8412 18.3369V19.0351C50.8412 19.8976 50.4263 20.3669 49.585 20.3669H48.3462V14.981H49.1878V17.0051H49.585ZM50.3913 23.717V24.4856H49.2344V26.0638H50.6893V26.8324H48.3928V21.4464H50.6893V22.215H49.2344V23.717H50.3913ZM51.7818 29.7248H50.9872V29.1499C50.9872 28.7626 50.8179 28.6218 50.5489 28.6218C50.2803 28.6218 50.1106 28.7685 50.1106 29.1499V32.0599C50.1106 32.4471 50.2803 32.5821 50.5489 32.5821C50.8179 32.5821 50.9872 32.4413 50.9872 32.0599V31.2913H51.7818V32.0071C51.7818 32.8695 51.3552 33.3624 50.5256 33.3624C49.696 33.3624 49.2694 32.8695 49.2694 32.0071V29.2085C49.2694 28.3461 49.7017 27.8533 50.5256 27.8533C51.3552 27.8533 51.7818 28.3461 51.7818 29.2085V29.7248ZM52.1381 26.8324H51.2969V21.4464H52.1381V23.7933L53.2427 21.4464H54.0839L52.9093 23.8461L54.0839 26.8324H53.219L52.4011 24.6851L52.1381 25.1779V26.8324ZM53.2427 17.2926V14.9868H54.1016V20.3728H53.2427V18.067H52.2844V20.3728H51.4428V14.9868H52.2844V17.2926H53.2427ZM54.8668 29.7248H54.0722V29.1499C54.0722 28.7626 53.9029 28.6218 53.6339 28.6218C53.3653 28.6218 53.1956 28.7685 53.1956 29.1499V32.0599C53.1956 32.4471 53.3653 32.5821 53.6339 32.5821C53.9029 32.5821 54.0722 32.4413 54.0722 32.0599V31.2913H54.8668V32.0071C54.8668 32.8695 54.4402 33.3624 53.6106 33.3624C52.781 33.3624 52.3544 32.8695 52.3544 32.0071V29.2085C52.3544 28.3461 52.781 27.8533 53.6106 27.8533C54.4402 27.8533 54.8668 28.3461 54.8668 29.2085V29.7248ZM54.5162 22.215V21.4464H57.1222V22.215H56.24V26.8324H55.3984V22.215H54.5162ZM56.012 17.0051C56.8533 17.0051 57.2682 17.4745 57.2682 18.3369V19.0351C57.2682 19.8976 56.8533 20.3669 56.012 20.3669H54.7735V14.981H55.6147V17.0051H56.012ZM58.1388 33.292H57.3792V29.496L57.0346 30.8219L56.3277 33.292H55.4627V27.9061H56.2167V31.3148L56.5263 30.1297L57.2156 27.9061H58.1448V33.292H58.1388ZM58.5011 21.4464V23.4706H58.8984C59.7396 23.4706 60.1546 23.9399 60.1546 24.8024V25.5006C60.1546 26.363 59.7396 26.8324 58.8984 26.8324H57.6599V21.4464H58.5011ZM57.7532 20.3669V14.981H58.5944V20.3669H57.7532ZM61.4808 33.292H60.7212V29.496L60.3766 30.8219L59.6696 33.292H58.8051V27.9061H59.5587V31.3148L59.8626 30.1297L60.5519 27.9061H61.4808V33.292ZM61.4808 26.8324H60.6395V21.4464H61.4808V26.8324ZM61.5684 15.7495H60.1136V17.2515H61.2705V18.0201H60.1136V19.5983H61.5684V20.3669H59.2723V14.981H61.5684V15.7495ZM68.7787 17.891C68.7787 17.9438 68.7493 17.9966 68.7027 18.0201L68.691 18.026L68.6794 18.0318L62.737 21.4171V14.4471C62.737 14.1478 62.4977 13.9073 62.1997 13.9073H20.7096C20.4992 13.9073 20.3123 14.0305 20.2246 14.2183L2.67859 52.002L21.2705 0.495274C21.2939 0.436601 21.3464 0.4014 21.4049 0.4014H68.6384C68.7204 0.4014 68.7843 0.465936 68.7843 0.548076V17.891H68.7787Z" fill="white"/>
<path d="M47.4046 28.6162C47.136 28.6162 46.9663 28.7629 46.9663 29.1442V32.0543C46.9663 32.4415 47.136 32.5823 47.4046 32.5823C47.6736 32.5823 47.8429 32.4356 47.8429 32.0543V29.1442C47.8429 28.7629 47.6736 28.6162 47.4046 28.6162Z" fill="white"/>
<path d="M46.4842 22.1509C46.2152 22.1509 46.0459 22.2975 46.0459 22.6789V25.589C46.0459 25.9762 46.2152 26.117 46.4842 26.117C46.7528 26.117 46.9225 25.9703 46.9225 25.589V22.6789C46.9225 22.2975 46.7528 22.1509 46.4842 22.1509Z" fill="white"/>
<path d="M43.8464 23.5295V22.7199C43.8464 22.3327 43.7005 22.2095 43.4318 22.2095H43.0342V24.0341H43.4318C43.7005 24.04 43.8464 23.9168 43.8464 23.5295Z" fill="white"/>
<path d="M42.2583 18.6598H43.0706L42.6616 15.9375L42.2583 18.6598Z" fill="white"/>
<path d="M25.8792 15.9375L25.4761 18.6598H26.2882L25.8792 15.9375Z" fill="white"/>
<path d="M49.1885 19.5986H49.5858C49.8544 19.5986 50.0004 19.4754 50.0004 19.0882V18.2785C50.0004 17.8913 49.8544 17.7681 49.5858 17.7681H49.1885V19.5986Z" fill="white"/>
<path d="M36.5503 19.1295V16.2194C36.5503 15.8322 36.3807 15.6914 36.1121 15.6914C35.8433 15.6914 35.6738 15.8381 35.6738 16.2194V19.1295C35.6738 19.5167 35.8433 19.6575 36.1121 19.6575C36.3867 19.6634 36.5503 19.5167 36.5503 19.1295Z" fill="white"/>
<path d="M44.3568 28.6748H43.9595V30.4994H44.3568C44.6254 30.4994 44.7714 30.3762 44.7714 29.989V29.1794C44.7714 28.798 44.6254 28.6748 44.3568 28.6748Z" fill="white"/>
<path d="M59.3147 25.5535V24.7439C59.3147 24.3566 59.1687 24.2334 58.8997 24.2334H58.5024V26.0581H58.8997C59.1687 26.0639 59.3147 25.9407 59.3147 25.5535Z" fill="white"/>
<path d="M55.6152 19.5986H56.0125C56.2815 19.5986 56.4275 19.4754 56.4275 19.0882V18.2785C56.4275 17.8913 56.2815 17.7681 56.0125 17.7681H55.6152V19.5986Z" fill="white"/>
<path d="M29.8956 5.97538C29.6735 5.83458 29.4223 5.77002 29.136 5.77002C28.8497 5.77002 28.5985 5.84044 28.3764 5.98124C28.1544 6.12207 27.985 6.32154 27.8623 6.58557C27.7396 6.84956 27.6812 7.15465 27.6812 7.49495V7.69442C27.6812 8.03472 27.7454 8.32807 27.8681 8.5862C27.9908 8.84434 28.1603 9.04384 28.3823 9.18464C28.6043 9.32544 28.8614 9.39586 29.1419 9.39586C29.4282 9.39586 29.6852 9.32544 29.9073 9.18464C30.1293 9.04384 30.2987 8.84434 30.4156 8.5862C30.5325 8.32807 30.5967 8.02297 30.5967 7.67682V7.48321C30.5967 7.13705 30.5325 6.83785 30.4156 6.57967C30.287 6.31568 30.1176 6.11618 29.8956 5.97538ZM29.9832 7.67682C29.9832 8.07579 29.9131 8.37499 29.767 8.58035C29.621 8.78567 29.4165 8.8913 29.1419 8.8913C28.8731 8.8913 28.6686 8.78567 28.5167 8.57446C28.3647 8.36328 28.2888 8.06404 28.2888 7.67682V7.47146C28.2947 7.09013 28.3706 6.79678 28.5167 6.59142C28.6627 6.38606 28.8731 6.28047 29.136 6.28047C29.4048 6.28047 29.6151 6.38606 29.7612 6.59142C29.9073 6.79678 29.9832 7.10184 29.9832 7.48906V7.67682Z" fill="white"/>
<path d="M33.196 7.30122C33.0032 7.21324 32.7811 7.16628 32.5241 7.16628H31.8054V6.30971H33.4239V5.81689H31.1919V9.34296H32.5358C32.9214 9.33711 33.2252 9.23737 33.4472 9.03787C33.6692 8.8384 33.7803 8.57437 33.7803 8.24582C33.7803 8.02875 33.7335 7.84099 33.6283 7.67673C33.529 7.51833 33.383 7.38925 33.196 7.30122ZM32.9973 8.68586C32.8804 8.79734 32.7227 8.85601 32.5182 8.85601H31.7995V7.65913H32.5299C32.7286 7.66499 32.8863 7.7178 32.9973 7.81753C33.1083 7.92316 33.1668 8.0581 33.1668 8.23996C33.1726 8.42772 33.1142 8.57437 32.9973 8.68586Z" fill="white"/>
<path d="M36.5611 6.12785C36.3271 5.92249 36.0175 5.82275 35.626 5.82275H34.2822V9.34882H34.8899V8.03461H35.6144C36.0234 8.03461 36.3387 7.94073 36.5611 7.74712C36.7887 7.55351 36.8997 7.28362 36.8997 6.93747C36.9057 6.60306 36.7887 6.33317 36.5611 6.12785ZM36.1228 7.38925C36.0058 7.48898 35.8423 7.5418 35.626 7.5418H34.8899V6.30971H35.6377C35.8423 6.31557 36 6.37424 36.1168 6.48572C36.2338 6.5972 36.2921 6.74975 36.2921 6.94336C36.2921 7.13697 36.2394 7.28951 36.1228 7.38925Z" fill="white"/>
<path d="M38.2098 5.81689L36.8833 9.34296H37.5202L37.8065 8.5216H39.1677L39.454 9.34296H40.091L38.7648 5.81689H38.2098ZM37.9758 8.02875L38.4841 6.56788L38.9928 8.02875H37.9758Z" fill="white"/>
<path d="M42.3209 7.53602C42.4962 7.45975 42.6305 7.35412 42.7242 7.21918C42.8235 7.08424 42.8701 6.93758 42.8701 6.77914C42.8701 6.46234 42.7592 6.21591 42.5372 6.03991C42.3149 5.8639 41.9996 5.77588 41.6023 5.77588C41.3743 5.77588 41.1696 5.81698 40.977 5.89911C40.79 5.98124 40.6441 6.09858 40.5331 6.25112C40.4277 6.40367 40.3751 6.57382 40.3751 6.76743H40.983C40.983 6.62074 41.0413 6.5034 41.158 6.40953C41.275 6.31565 41.421 6.26873 41.5963 6.26873C41.8009 6.26873 41.9646 6.31565 42.0812 6.40953C42.1982 6.5034 42.2625 6.62663 42.2625 6.78504C42.2625 7.13705 42.0462 7.31306 41.6139 7.31306H41.2223V7.80001H41.6373C41.8592 7.80001 42.0286 7.84697 42.1399 7.93496C42.2565 8.02298 42.3149 8.16963 42.3149 8.36914C42.3149 8.53339 42.2509 8.66248 42.1162 8.76807C41.9879 8.86784 41.8126 8.92062 41.5963 8.92062C41.4036 8.92062 41.2456 8.86784 41.1173 8.76221C40.9947 8.65662 40.9304 8.52754 40.9304 8.38085H40.3228C40.3228 8.58035 40.3751 8.75636 40.4744 8.90891C40.5737 9.06145 40.7257 9.18465 40.9243 9.27267C41.123 9.36065 41.351 9.40761 41.5963 9.40761C41.9996 9.40761 42.3209 9.31373 42.5605 9.12598C42.7998 8.93822 42.9228 8.68594 42.9228 8.36914C42.9228 8.16378 42.8701 7.99363 42.7648 7.85283C42.6715 7.70614 42.5195 7.60055 42.3209 7.53602Z" fill="white"/>
<path d="M45.6187 5.97538C45.3968 5.83458 45.1454 5.77002 44.8591 5.77002C44.5728 5.77002 44.3219 5.84044 44.0996 5.98124C43.8776 6.12207 43.7083 6.32154 43.5856 6.58557C43.463 6.84956 43.4043 7.15465 43.4043 7.49495V7.69442C43.4043 8.03472 43.4686 8.32807 43.5913 8.5862C43.7139 8.84434 43.8836 9.04384 44.1056 9.18464C44.3275 9.32544 44.5788 9.39586 44.8652 9.39586C45.1515 9.39586 45.4084 9.32544 45.6304 9.18464C45.8527 9.04384 46.022 8.84434 46.139 8.5862C46.2557 8.32807 46.32 8.02297 46.32 7.67682V7.48321C46.32 7.13705 46.2557 6.83785 46.139 6.57967C46.0104 6.31568 45.8411 6.11618 45.6187 5.97538ZM45.7064 7.67682C45.7064 8.07579 45.6364 8.37499 45.4904 8.58035C45.3441 8.78567 45.1398 8.8913 44.8652 8.8913C44.5965 8.8913 44.3919 8.78567 44.2399 8.57446C44.0879 8.36328 44.0123 8.06404 44.0123 7.67682V7.47146C44.0179 7.09013 44.0939 6.79678 44.2399 6.59142C44.3859 6.38606 44.5965 6.28047 44.8591 6.28047C45.1281 6.28047 45.3384 6.38606 45.4844 6.59142C45.6304 6.79678 45.7064 7.10184 45.7064 7.48906V7.67682Z" fill="white"/>
<path d="M48.8245 7.50658C48.9942 7.43617 49.1168 7.33643 49.2045 7.20738C49.2921 7.0783 49.3331 6.93161 49.3331 6.7732C49.3331 6.4564 49.2278 6.21583 49.0232 6.05743C48.8129 5.89902 48.5149 5.81689 48.1176 5.81689H46.9141V9.34296H48.1936C48.5852 9.34296 48.8889 9.25498 49.0992 9.07894C49.3095 8.90293 49.4148 8.64479 49.4148 8.31624C49.4148 8.11677 49.3621 7.94662 49.2572 7.79993C49.1635 7.65913 49.0175 7.5594 48.8245 7.50658ZM47.5277 6.31556H48.1236C48.3339 6.31556 48.4859 6.35666 48.5852 6.43294C48.6845 6.50918 48.7312 6.63826 48.7312 6.80841C48.7312 6.96681 48.6785 7.09004 48.5736 7.17803C48.4682 7.26605 48.3162 7.30712 48.1293 7.30712H47.5333V6.31556H47.5277ZM48.6552 8.71521C48.5502 8.80909 48.3982 8.85601 48.2053 8.85601H47.5277V7.75301H48.2579C48.6319 7.75886 48.8189 7.94662 48.8189 8.31624C48.8129 8.48639 48.7605 8.61544 48.6552 8.71521Z" fill="white"/>
<path d="M51.035 5.81689L49.7085 9.34296H50.3454L50.6317 8.5216H51.9933L52.2796 9.34296H52.9162L51.59 5.81689H51.035ZM50.7954 8.02875L51.3037 6.56788L51.8119 8.02875H50.7954Z" fill="white"/>
<path d="M55.5336 7.28366H53.9618V5.81689H53.3481V9.34296H53.9618V7.78232H55.5336V9.34296H56.1412V5.81689H55.5336V7.28366Z" fill="white"/>
<path d="M57.4548 8.33384V5.81689H56.8472V9.34296H57.4548L58.9973 6.83187V9.34296H59.6049V5.81689H58.9973L57.4548 8.33384Z" fill="white"/>
<path d="M60.9313 7.77061H62.3745V7.28366H60.9313V6.31556H62.6021V5.81689H60.3237V9.34296H62.6198V8.85601H60.9313V7.77061Z" fill="white"/>
</g>
<defs>
<clipPath id="clip0_204_185">
<rect width="68.5714" height="57.1429" fill="white" transform="translate(0.714355)"/>
</clipPath>
</defs>
</svg>
