<svg width="140" height="140" viewBox="0 0 140 140" fill="none" xmlns="http://www.w3.org/2000/svg">
<path d="M18.2646 119.203H21.8071V123.625H20.9078V119.945H19.1639V123.625H18.2646V119.203Z" fill="#4B415F"/>
<path d="M22.7246 123.625V119.203H26.027V119.951H23.6239V120.932H25.8599V121.677H23.6239V122.88H26.1121V123.625H22.7246Z" fill="#4B415F"/>
<path d="M26.8747 123.625V119.203H28.3178C28.8646 119.203 29.2211 119.225 29.3872 119.27C29.6424 119.336 29.8561 119.481 30.0282 119.704C30.2004 119.925 30.2865 120.212 30.2865 120.564C30.2865 120.835 30.2369 121.063 30.1376 121.248C30.0384 121.433 29.9118 121.579 29.7578 121.686C29.6059 121.79 29.451 121.86 29.293 121.894C29.0783 121.936 28.7674 121.957 28.3603 121.957H27.774V123.625H26.8747ZM27.774 119.951V121.206H28.2661C28.6206 121.206 28.8576 121.183 28.9771 121.137C29.0965 121.09 29.1897 121.018 29.2566 120.92C29.3254 120.821 29.3599 120.706 29.3599 120.576C29.3599 120.415 29.3123 120.282 29.2171 120.178C29.1219 120.073 29.0014 120.008 28.8555 119.981C28.7482 119.961 28.5325 119.951 28.2084 119.951H27.774Z" fill="#4B415F"/>
<path d="M30.9275 123.625V119.203H32.2734L33.0815 122.22L33.8806 119.203H35.2295V123.625H34.394V120.144L33.5099 123.625H32.6441L31.763 120.144V123.625H30.9275Z" fill="#4B415F"/>
<path d="M38.9725 121.999L39.8444 122.274C39.7107 122.757 39.4879 123.116 39.176 123.351C38.8661 123.584 38.4722 123.701 37.9942 123.701C37.4028 123.701 36.9167 123.501 36.5359 123.1C36.1551 122.698 35.9647 122.149 35.9647 121.453C35.9647 120.717 36.1561 120.146 36.5389 119.74C36.9217 119.332 37.425 119.128 38.0489 119.128C38.5937 119.128 39.0363 119.288 39.3765 119.607C39.5791 119.796 39.731 120.068 39.8322 120.422L38.9421 120.633C38.8894 120.404 38.779 120.223 38.6109 120.09C38.4448 119.957 38.2423 119.891 38.0033 119.891C37.6732 119.891 37.4048 120.009 37.1982 120.244C36.9936 120.479 36.8913 120.86 36.8913 121.387C36.8913 121.946 36.9926 122.344 37.1952 122.582C37.3977 122.819 37.661 122.938 37.9851 122.938C38.2241 122.938 38.4296 122.862 38.6018 122.711C38.774 122.56 38.8975 122.323 38.9725 121.999Z" fill="#4B415F"/>
<path d="M40.6343 119.203H41.5336V121.085C41.7341 121.065 41.8698 121.014 41.9407 120.932C42.0116 120.849 42.121 120.62 42.2688 120.244C42.4552 119.765 42.6425 119.468 42.8309 119.351C43.0172 119.234 43.318 119.176 43.7332 119.176C43.7534 119.176 43.797 119.175 43.8638 119.173V119.834L43.7362 119.831C43.5519 119.831 43.4172 119.854 43.3322 119.9C43.2471 119.944 43.1782 120.013 43.1256 120.105C43.0729 120.198 42.9949 120.388 42.8916 120.675C42.8369 120.828 42.7772 120.956 42.7124 121.058C42.6496 121.161 42.5372 121.257 42.3751 121.348C42.5757 121.404 42.7407 121.518 42.8704 121.689C43.002 121.86 43.1458 122.101 43.3018 122.413L43.9094 123.625H42.8521L42.3205 122.482C42.3124 122.466 42.2951 122.435 42.2688 122.389C42.2587 122.372 42.2212 122.303 42.1564 122.18C42.041 121.963 41.9458 121.828 41.8708 121.773C41.7979 121.719 41.6855 121.691 41.5336 121.689V123.625H40.6343V119.203Z" fill="#4B415F"/>
<path d="M44.4289 119.203H45.2705V122.147L47.0751 119.203H47.9714V123.625H47.1298V120.739L45.3282 123.625H44.4289V119.203Z" fill="#4B415F"/>
<path d="M48.901 119.203H49.7426V122.147L51.5472 119.203H52.4435V123.625H51.6019V120.739L49.8003 123.625H48.901V119.203ZM51.21 118.102H51.6262C51.6019 118.376 51.5047 118.591 51.3346 118.748C51.1664 118.903 50.9477 118.98 50.6783 118.98C50.4089 118.98 50.1892 118.903 50.0191 118.748C49.8509 118.591 49.7547 118.376 49.7304 118.102H50.1467C50.1608 118.245 50.2115 118.354 50.2986 118.428C50.3856 118.5 50.5122 118.537 50.6783 118.537C50.8444 118.537 50.971 118.5 51.0581 118.428C51.1452 118.354 51.1958 118.245 51.21 118.102Z" fill="#4B415F"/>
<path d="M53.4066 119.203H56.4234V119.945H54.3058V123.625H53.4066V119.203Z" fill="#4B415F"/>
<path d="M56.6239 121.441C56.6239 120.991 56.6918 120.613 56.8275 120.307C56.9287 120.082 57.0665 119.88 57.2407 119.701C57.4169 119.522 57.6093 119.389 57.8179 119.303C58.0954 119.186 58.4154 119.128 58.7779 119.128C59.4342 119.128 59.9588 119.33 60.3517 119.734C60.7466 120.138 60.9441 120.7 60.9441 121.42C60.9441 122.134 60.7487 122.693 60.3578 123.097C59.9669 123.5 59.4443 123.701 58.7901 123.701C58.1278 123.701 57.6012 123.501 57.2103 123.1C56.8194 122.698 56.6239 122.145 56.6239 121.441ZM57.5505 121.411C57.5505 121.912 57.667 122.292 57.8999 122.551C58.1328 122.809 58.4286 122.938 58.7871 122.938C59.1456 122.938 59.4392 122.81 59.6681 122.554C59.899 122.297 60.0145 121.912 60.0145 121.399C60.0145 120.892 59.902 120.514 59.6772 120.265C59.4544 120.016 59.1577 119.891 58.7871 119.891C58.4164 119.891 58.1177 120.018 57.8908 120.271C57.664 120.522 57.5505 120.902 57.5505 121.411Z" fill="#4B415F"/>
<path d="M64.4987 121.999L65.3707 122.274C65.237 122.757 65.0142 123.116 64.7023 123.351C64.3924 123.584 63.9984 123.701 63.5204 123.701C62.929 123.701 62.4429 123.501 62.0621 123.1C61.6814 122.698 61.491 122.149 61.491 121.453C61.491 120.717 61.6824 120.146 62.0652 119.74C62.448 119.332 62.9513 119.128 63.5751 119.128C64.12 119.128 64.5625 119.288 64.9028 119.607C65.1053 119.796 65.2572 120.068 65.3585 120.422L64.4683 120.633C64.4157 120.404 64.3053 120.223 64.1372 120.09C63.9711 119.957 63.7686 119.891 63.5296 119.891C63.1994 119.891 62.931 120.009 62.7245 120.244C62.5199 120.479 62.4176 120.86 62.4176 121.387C62.4176 121.946 62.5189 122.344 62.7214 122.582C62.924 122.819 63.1873 122.938 63.5113 122.938C63.7503 122.938 63.9559 122.862 64.1281 122.711C64.3002 122.56 64.4238 122.323 64.4987 121.999Z" fill="#4B415F"/>
<path d="M65.6076 119.203H66.6132L67.6523 121.499L68.5394 119.203H69.4782L67.9743 122.564C67.8103 122.927 67.6432 123.205 67.473 123.396C67.3029 123.585 67.0831 123.68 66.8138 123.68C66.5484 123.68 66.3408 123.662 66.1909 123.628V122.965C66.3185 122.973 66.434 122.977 66.5373 122.977C66.7459 122.977 66.8948 122.94 66.9839 122.865C67.075 122.789 67.1621 122.626 67.2452 122.376L65.6076 119.203Z" fill="#4B415F"/>
<path d="M69.9734 119.203H73.051V122.883H73.4429V124.591H72.6956V123.625H69.8914V124.591H69.144V122.883H69.5207C69.705 122.505 69.8266 122.067 69.8853 121.568C69.944 121.067 69.9734 120.435 69.9734 119.671V119.203ZM70.8302 119.945C70.8302 121.289 70.7076 122.268 70.4625 122.883H72.1548V119.945H70.8302Z" fill="#4B415F"/>
<path d="M78.0669 123.625H77.0887L76.6998 122.621H74.9195L74.5518 123.625H73.5979L75.3326 119.203H76.2836L78.0669 123.625ZM76.4112 121.876L75.7975 120.235L75.1959 121.876H76.4112Z" fill="#4B415F"/>
<path d="M78.547 123.625V119.203H79.9901C80.5369 119.203 80.8934 119.225 81.0595 119.27C81.3147 119.336 81.5284 119.481 81.7005 119.704C81.8727 119.925 81.9588 120.212 81.9588 120.564C81.9588 120.835 81.9092 121.063 81.8099 121.248C81.7107 121.433 81.5841 121.579 81.4301 121.686C81.2782 121.79 81.1233 121.86 80.9653 121.894C80.7506 121.936 80.4397 121.957 80.0326 121.957H79.4463V123.625H78.547ZM79.4463 119.951V121.206H79.9384C80.2929 121.206 80.5299 121.183 80.6493 121.137C80.7688 121.09 80.862 121.018 80.9289 120.92C80.9977 120.821 81.0322 120.706 81.0322 120.576C81.0322 120.415 80.9846 120.282 80.8894 120.178C80.7942 120.073 80.6737 120.008 80.5278 119.981C80.4205 119.961 80.2048 119.951 79.8807 119.951H79.4463Z" fill="#4B415F"/>
<path d="M85.3888 121.999L86.2607 122.274C86.1271 122.757 85.9043 123.116 85.5924 123.351C85.2825 123.584 84.8885 123.701 84.4105 123.701C83.8191 123.701 83.333 123.501 82.9522 123.1C82.5715 122.698 82.3811 122.149 82.3811 121.453C82.3811 120.717 82.5725 120.146 82.9553 119.74C83.3381 119.332 83.8414 119.128 84.4652 119.128C85.0101 119.128 85.4526 119.288 85.7929 119.607C85.9954 119.796 86.1473 120.068 86.2486 120.422L85.3584 120.633C85.3058 120.404 85.1954 120.223 85.0273 120.09C84.8612 119.957 84.6586 119.891 84.4196 119.891C84.0895 119.891 83.8211 120.009 83.6145 120.244C83.41 120.479 83.3077 120.86 83.3077 121.387C83.3077 121.946 83.409 122.344 83.6115 122.582C83.8141 122.819 84.0774 122.938 84.4014 122.938C84.6404 122.938 84.846 122.862 85.0182 122.711C85.1903 122.56 85.3139 122.323 85.3888 121.999Z" fill="#4B415F"/>
<path d="M87.8801 123.625V119.951H86.5585V119.203H90.0979V119.951H88.7794V123.625H87.8801Z" fill="#4B415F"/>
<path d="M90.6842 119.203H92.4646C92.817 119.203 93.0793 119.218 93.2515 119.248C93.4256 119.277 93.5806 119.337 93.7163 119.429C93.854 119.522 93.9685 119.646 94.0596 119.8C94.1507 119.953 94.1963 120.125 94.1963 120.316C94.1963 120.523 94.1396 120.713 94.0262 120.886C93.9148 121.059 93.7629 121.189 93.5705 121.276C93.8419 121.354 94.0505 121.488 94.1963 121.677C94.3421 121.866 94.4151 122.088 94.4151 122.343C94.4151 122.544 94.3675 122.74 94.2723 122.932C94.1791 123.121 94.0505 123.272 93.8864 123.387C93.7244 123.5 93.5239 123.569 93.2849 123.595C93.135 123.611 92.7735 123.621 92.2003 123.625H90.6842V119.203ZM91.5835 119.939V120.962H92.1729C92.5233 120.962 92.7411 120.957 92.8261 120.947C92.9801 120.929 93.1006 120.876 93.1877 120.79C93.2768 120.701 93.3213 120.586 93.3213 120.443C93.3213 120.306 93.2829 120.196 93.2059 120.111C93.131 120.025 93.0185 119.972 92.8687 119.954C92.7795 119.944 92.5233 119.939 92.1 119.939H91.5835ZM91.5835 121.698V122.88H92.416C92.74 122.88 92.9456 122.871 93.0327 122.853C93.1664 122.829 93.2747 122.771 93.3578 122.678C93.4429 122.584 93.4854 122.458 93.4854 122.301C93.4854 122.168 93.453 122.056 93.3882 121.963C93.3234 121.871 93.2292 121.803 93.1056 121.761C92.9841 121.719 92.7188 121.698 92.3096 121.698H91.5835Z" fill="#4B415F"/>
<path d="M95.1776 123.625V119.203H98.4801V119.951H96.0769V120.932H98.313V121.677H96.0769V122.88H98.5651V123.625H95.1776Z" fill="#4B415F"/>
<path d="M99.3307 123.625V119.203H100.23V120.944H101.992V119.203H102.891V123.625H101.992V121.692H100.23V123.625H99.3307Z" fill="#4B415F"/>
<path d="M103.827 123.625V119.203H104.726V120.944H106.489V119.203H107.388V123.625H106.489V121.692H104.726V123.625H103.827Z" fill="#4B415F"/>
<path d="M108.345 119.203H109.244V120.971H110.447C110.763 120.971 111.035 121.014 111.261 121.101C111.49 121.185 111.681 121.338 111.833 121.559C111.984 121.778 112.06 122.031 112.06 122.316C112.06 122.616 111.981 122.874 111.823 123.091C111.665 123.307 111.489 123.449 111.295 123.52C111.102 123.59 110.82 123.625 110.447 123.625H108.345V119.203ZM109.244 122.883H110.122C110.402 122.883 110.596 122.87 110.705 122.844C110.817 122.816 110.915 122.754 111 122.657C111.087 122.56 111.131 122.443 111.131 122.304C111.131 122.107 111.06 121.959 110.918 121.861C110.778 121.762 110.525 121.713 110.159 121.713H109.244V122.883ZM112.58 119.203H113.479V123.625H112.58V119.203Z" fill="#4B415F"/>
<path d="M114.427 119.203H115.269V122.147L117.073 119.203H117.97V123.625H117.128V120.739L115.326 123.625H114.427V119.203ZM116.736 118.102H117.152C117.128 118.376 117.031 118.591 116.861 118.748C116.693 118.903 116.474 118.98 116.204 118.98C115.935 118.98 115.715 118.903 115.545 118.748C115.377 118.591 115.281 118.376 115.257 118.102H115.673C115.687 118.245 115.738 118.354 115.825 118.428C115.912 118.5 116.038 118.537 116.204 118.537C116.371 118.537 116.497 118.5 116.584 118.428C116.671 118.354 116.722 118.245 116.736 118.102Z" fill="#4B415F"/>
<path d="M15.791 126.105H18.8079V126.847H16.6903V130.527H15.791V126.105Z" fill="#4B415F"/>
<path d="M18.8231 126.105H19.8287L20.8677 128.4L21.7548 126.105H22.6936L21.1897 129.465C21.0257 129.829 20.8586 130.106 20.6885 130.298C20.5183 130.487 20.2986 130.581 20.0292 130.581C19.7639 130.581 19.5563 130.564 19.4064 130.53V129.866C19.534 129.874 19.6494 129.878 19.7527 129.878C19.9613 129.878 20.1102 129.841 20.1993 129.767C20.2905 129.69 20.3776 129.527 20.4606 129.278L18.8231 126.105Z" fill="#4B415F"/>
<path d="M23.1341 130.527V126.105H24.48L25.2882 129.121L26.0872 126.105H27.4361V130.527H26.6006V127.046L25.7165 130.527H24.8507L23.9696 127.046V130.527H23.1341Z" fill="#4B415F"/>
<path d="M32.3457 130.527H31.3674L30.9786 129.522H29.1982L28.8306 130.527H27.8766L29.6114 126.105H30.5623L32.3457 130.527ZM30.6899 128.777L30.0762 127.136L29.4747 128.777H30.6899Z" fill="#4B415F"/>
<path d="M32.8288 130.527V126.105H33.7281V127.845H35.4902V126.105H36.3895V130.527H35.4902V128.593H33.7281V130.527H32.8288Z" fill="#4B415F"/>
<path d="M37.3343 126.105H38.1759V129.049L39.9805 126.105H40.8767V130.527H40.0352V127.64L38.2336 130.527H37.3343V126.105Z" fill="#4B415F"/>
<path d="M42.7968 130.527V126.853H41.4753V126.105H45.0147V126.853H43.6961V130.527H42.7968Z" fill="#4B415F"/>
<path d="M49.2194 130.527H48.2411L47.8523 129.522H46.0719L45.7043 130.527H44.7503L46.4851 126.105H47.436L49.2194 130.527ZM47.5636 128.777L46.9499 127.136L46.3484 128.777H47.5636Z" fill="#4B415F"/>
<path d="M49.6994 130.527V126.105H51.1425C51.6894 126.105 52.0459 126.127 52.212 126.171C52.4672 126.237 52.6808 126.382 52.853 126.605C53.0252 126.827 53.1112 127.113 53.1112 127.465C53.1112 127.737 53.0616 127.965 52.9624 128.15C52.8631 128.335 52.7365 128.481 52.5826 128.587C52.4307 128.692 52.2758 128.761 52.1178 128.795C51.9031 128.838 51.5922 128.859 51.1851 128.859H50.5987V130.527H49.6994ZM50.5987 126.853V128.108H51.0909C51.4453 128.108 51.6823 128.084 51.8018 128.038C51.9213 127.992 52.0145 127.92 52.0813 127.821C52.1502 127.723 52.1846 127.608 52.1846 127.477C52.1846 127.316 52.137 127.184 52.0418 127.079C51.9466 126.974 51.8261 126.909 51.6803 126.883C51.5729 126.863 51.3572 126.853 51.0332 126.853H50.5987Z" fill="#4B415F"/>
<path d="M53.8525 130.527V126.105H54.7518V127.845H56.5139V126.105H57.4132V130.527H56.5139V128.593H54.7518V130.527H53.8525Z" fill="#4B415F"/>
<path d="M58.1636 128.343C58.1636 127.892 58.2315 127.514 58.3672 127.209C58.4685 126.983 58.6062 126.781 58.7804 126.602C58.9566 126.423 59.149 126.291 59.3576 126.204C59.6351 126.088 59.9551 126.029 60.3177 126.029C60.9739 126.029 61.4985 126.231 61.8914 126.636C62.2864 127.04 62.4838 127.602 62.4838 128.322C62.4838 129.036 62.2884 129.595 61.8975 129.999C61.5066 130.401 60.984 130.602 60.3298 130.602C59.6675 130.602 59.1409 130.402 58.75 130.002C58.3591 129.6 58.1636 129.047 58.1636 128.343ZM59.0903 128.313C59.0903 128.813 59.2067 129.194 59.4396 129.453C59.6726 129.71 59.9683 129.839 60.3268 129.839C60.6853 129.839 60.979 129.711 61.2078 129.456C61.4387 129.199 61.5542 128.813 61.5542 128.301C61.5542 127.794 61.4418 127.416 61.2169 127.166C60.9941 126.917 60.6974 126.792 60.3268 126.792C59.9561 126.792 59.6574 126.919 59.4305 127.173C59.2037 127.424 59.0903 127.804 59.0903 128.313Z" fill="#4B415F"/>
<path d="M63.0664 129.347V128.5H64.7434V129.347H63.0664Z" fill="#4B415F"/>
<path d="M65.2539 126.105H68.7964V130.527H67.8971V126.847H66.1532V130.527H65.2539V126.105Z" fill="#4B415F"/>
<path d="M69.7139 130.527V126.105H73.0163V126.853H70.6131V127.833H72.8492V128.578H70.6131V129.782H73.1014V130.527H69.7139Z" fill="#4B415F"/>
<path d="M74.2224 126.105H77.3V129.785H77.692V131.492H76.9446V130.527H74.1404V131.492H73.393V129.785H73.7697C73.9541 129.407 74.0756 128.968 74.1343 128.47C74.1931 127.969 74.2224 127.336 74.2224 126.572V126.105ZM75.0792 126.847C75.0792 128.19 74.9566 129.169 74.7116 129.785H76.4038V126.847H75.0792Z" fill="#4B415F"/>
<path d="M82.316 130.527H81.3377L80.9488 129.522H79.1685L78.8009 130.527H77.8469L79.5817 126.105H80.5326L82.316 130.527ZM80.6602 128.777L80.0465 127.136L79.445 128.777H80.6602Z" fill="#4B415F"/>
<path d="M82.8416 126.105H85.8584V126.847H83.7409V130.527H82.8416V126.105Z" fill="#4B415F"/>
<path d="M86.0589 128.343C86.0589 127.892 86.1268 127.514 86.2625 127.209C86.3638 126.983 86.5015 126.781 86.6757 126.602C86.8519 126.423 87.0443 126.291 87.2529 126.204C87.5304 126.088 87.8504 126.029 88.213 126.029C88.8692 126.029 89.3938 126.231 89.7867 126.636C90.1817 127.04 90.3791 127.602 90.3791 128.322C90.3791 129.036 90.1837 129.595 89.7928 129.999C89.4019 130.401 88.8793 130.602 88.2251 130.602C87.5628 130.602 87.0362 130.402 86.6453 130.002C86.2544 129.6 86.0589 129.047 86.0589 128.343ZM86.9856 128.313C86.9856 128.813 87.102 129.194 87.3349 129.453C87.5679 129.71 87.8636 129.839 88.2221 129.839C88.5806 129.839 88.8743 129.711 89.1031 129.456C89.334 129.199 89.4495 128.813 89.4495 128.301C89.4495 127.794 89.3371 127.416 89.1122 127.166C88.8894 126.917 88.5927 126.792 88.2221 126.792C87.8514 126.792 87.5527 126.919 87.3258 127.173C87.099 127.424 86.9856 127.804 86.9856 128.313Z" fill="#4B415F"/>
<path d="M91.1296 126.105H94.1464V126.847H92.0288V130.527H91.1296V126.105Z" fill="#4B415F"/>
<path d="M94.6264 126.105H95.468V129.049L97.2726 126.105H98.1689V130.527H97.3273V127.64L95.5257 130.527H94.6264V126.105Z" fill="#4B415F"/>
<path d="M99.0135 126.105H99.9128V127.16C99.9128 127.502 99.9249 127.73 99.9492 127.842C99.9755 127.953 100.051 128.049 100.177 128.132C100.303 128.214 100.487 128.255 100.73 128.255C100.922 128.255 101.094 128.235 101.243 128.195C101.393 128.153 101.523 128.092 101.632 128.011V126.105H102.532V130.527H101.632V128.747C101.45 128.828 101.271 128.889 101.095 128.931C100.918 128.971 100.745 128.991 100.575 128.991C100.131 128.991 99.7598 128.888 99.4601 128.681C99.1623 128.472 99.0135 128.111 99.0135 127.598V126.105Z" fill="#4B415F"/>
<path d="M103.461 130.527V126.105H106.764V126.853H104.361V127.833H106.597V128.578H104.361V129.782H106.849V130.527H103.461Z" fill="#4B415F"/>
<path d="M110.461 128.901L111.333 129.175C111.199 129.658 110.977 130.017 110.665 130.252C110.355 130.486 109.961 130.602 109.483 130.602C108.891 130.602 108.405 130.402 108.025 130.002C107.644 129.6 107.453 129.051 107.453 128.355C107.453 127.619 107.645 127.048 108.028 126.642C108.41 126.233 108.914 126.029 109.538 126.029C110.082 126.029 110.525 126.189 110.865 126.509C111.068 126.698 111.22 126.969 111.321 127.323L110.431 127.534C110.378 127.305 110.268 127.124 110.1 126.992C109.933 126.859 109.731 126.792 109.492 126.792C109.162 126.792 108.893 126.91 108.687 127.145C108.482 127.381 108.38 127.762 108.38 128.289C108.38 128.848 108.481 129.246 108.684 129.483C108.886 129.72 109.15 129.839 109.474 129.839C109.713 129.839 109.918 129.764 110.09 129.613C110.263 129.462 110.386 129.225 110.461 128.901Z" fill="#4B415F"/>
<path d="M112.123 126.105H113.022V127.987C113.223 127.967 113.358 127.916 113.429 127.833C113.5 127.751 113.61 127.521 113.757 127.145C113.944 126.667 114.131 126.369 114.319 126.253C114.506 126.136 114.807 126.078 115.222 126.078C115.242 126.078 115.286 126.077 115.352 126.075V126.735L115.225 126.732C115.041 126.732 114.906 126.755 114.821 126.802C114.736 126.846 114.667 126.914 114.614 127.007C114.562 127.099 114.484 127.289 114.38 127.577C114.326 127.73 114.266 127.857 114.201 127.96C114.138 128.062 114.026 128.159 113.864 128.249C114.064 128.306 114.229 128.419 114.359 128.59C114.491 128.761 114.634 129.002 114.79 129.314L115.398 130.527H114.341L113.809 129.384C113.801 129.367 113.784 129.336 113.757 129.29C113.747 129.274 113.71 129.205 113.645 129.082C113.53 128.865 113.434 128.729 113.359 128.675C113.287 128.62 113.174 128.592 113.022 128.59V130.527H112.123V126.105Z" fill="#4B415F"/>
<path d="M115.918 126.105H116.759V129.049L118.564 126.105H119.46V130.527H118.618V127.64L116.817 130.527H115.918V126.105Z" fill="#4B415F"/>
<path d="M120.39 126.105H121.231V129.049L123.036 126.105H123.932V130.527H123.091V127.64L121.289 130.527H120.39V126.105ZM122.699 125.004H123.115C123.091 125.277 122.993 125.492 122.823 125.649C122.655 125.804 122.436 125.882 122.167 125.882C121.898 125.882 121.678 125.804 121.508 125.649C121.34 125.492 121.243 125.277 121.219 125.004H121.635C121.649 125.147 121.7 125.255 121.787 125.329C121.874 125.402 122.001 125.438 122.167 125.438C122.333 125.438 122.46 125.402 122.547 125.329C122.634 125.255 122.684 125.147 122.699 125.004Z" fill="#4B415F"/>
<path d="M45.876 133.006H46.8816L47.9206 135.302L48.8078 133.006H49.7465L48.2427 136.366C48.0786 136.73 47.9115 137.008 47.7414 137.199C47.5712 137.388 47.3515 137.483 47.0821 137.483C46.8168 137.483 46.6092 137.465 46.4593 137.431V136.768C46.5869 136.776 46.7023 136.78 46.8056 136.78C47.0143 136.78 47.1631 136.743 47.2522 136.668C47.3434 136.592 47.4305 136.429 47.5135 136.179L45.876 133.006Z" fill="#4B415F"/>
<path d="M50.2023 137.428V133.006H51.1015V134.747H52.8636V133.006H53.7629V137.428H52.8636V135.495H51.1015V137.428H50.2023Z" fill="#4B415F"/>
<path d="M54.7078 133.006H55.5493V135.95L57.354 133.006H58.2502V137.428H57.4087V134.542L55.6071 137.428H54.7078V133.006Z" fill="#4B415F"/>
<path d="M59.1708 133.006H60.9511C61.3035 133.006 61.5658 133.021 61.738 133.051C61.9122 133.08 62.0671 133.14 62.2028 133.232C62.3405 133.325 62.455 133.449 62.5461 133.603C62.6373 133.756 62.6828 133.928 62.6828 134.119C62.6828 134.326 62.6261 134.516 62.5127 134.689C62.4013 134.862 62.2494 134.992 62.057 135.078C62.3284 135.157 62.537 135.291 62.6828 135.48C62.8287 135.669 62.9016 135.891 62.9016 136.146C62.9016 136.347 62.854 136.543 62.7588 136.735C62.6656 136.924 62.537 137.075 62.373 137.19C62.2109 137.303 62.0104 137.372 61.7714 137.398C61.6215 137.414 61.26 137.424 60.6868 137.428H59.1708V133.006ZM60.0701 133.742V134.765H60.6595C61.0098 134.765 61.2276 134.76 61.3126 134.75C61.4666 134.732 61.5871 134.679 61.6742 134.593C61.7633 134.504 61.8079 134.389 61.8079 134.246C61.8079 134.109 61.7694 133.999 61.6924 133.914C61.6175 133.828 61.5051 133.775 61.3552 133.757C61.2661 133.747 61.0099 133.742 60.5865 133.742H60.0701ZM60.0701 135.501V136.683H60.9025C61.2266 136.683 61.4321 136.674 61.5192 136.656C61.6529 136.632 61.7613 136.574 61.8443 136.481C61.9294 136.387 61.9719 136.261 61.9719 136.104C61.9719 135.971 61.9395 135.859 61.8747 135.766C61.8099 135.674 61.7157 135.606 61.5922 135.564C61.4706 135.522 61.2053 135.501 60.7962 135.501H60.0701Z" fill="#4B415F"/>
<path d="M63.6642 137.428V133.006H66.9666V133.754H64.5634V134.735H66.7995V135.48H64.5634V136.683H67.0517V137.428H63.6642Z" fill="#4B415F"/>
<path d="M67.8142 137.428V133.006H69.2573C69.8042 133.006 70.1607 133.028 70.3267 133.073C70.5819 133.139 70.7956 133.284 70.9678 133.507C71.1399 133.728 71.226 134.015 71.226 134.367C71.226 134.638 71.1764 134.866 71.0772 135.051C70.9779 135.236 70.8513 135.382 70.6974 135.489C70.5455 135.593 70.3905 135.663 70.2326 135.697C70.0179 135.739 69.707 135.76 69.2999 135.76H68.7135V137.428H67.8142ZM68.7135 133.754V135.009H69.2057C69.5601 135.009 69.7971 134.986 69.9166 134.94C70.0361 134.893 70.1293 134.821 70.1961 134.723C70.265 134.624 70.2994 134.509 70.2994 134.379C70.2994 134.218 70.2518 134.085 70.1566 133.981C70.0614 133.876 69.9409 133.811 69.7951 133.784C69.6877 133.764 69.472 133.754 69.148 133.754H68.7135Z" fill="#4B415F"/>
<path d="M74.6561 135.802L75.528 136.077C75.3943 136.56 75.1715 136.919 74.8596 137.154C74.5497 137.387 74.1558 137.504 73.6778 137.504C73.0864 137.504 72.6003 137.304 72.2195 136.903C71.8387 136.501 71.6483 135.952 71.6483 135.256C71.6483 134.52 71.8397 133.949 72.2225 133.543C72.6053 133.135 73.1086 132.931 73.7325 132.931C74.2773 132.931 74.7199 133.091 75.0601 133.41C75.2627 133.599 75.4146 133.871 75.5158 134.225L74.6257 134.436C74.573 134.207 74.4626 134.026 74.2945 133.893C74.1284 133.76 73.9259 133.694 73.6869 133.694C73.3568 133.694 73.0884 133.812 72.8818 134.047C72.6772 134.282 72.5749 134.663 72.5749 135.19C72.5749 135.749 72.6762 136.147 72.8788 136.385C73.0813 136.622 73.3446 136.741 73.6687 136.741C73.9077 136.741 74.1132 136.665 74.2854 136.514C74.4576 136.363 74.5811 136.126 74.6561 135.802Z" fill="#4B415F"/>
<path d="M76.3149 133.006H77.1564V135.95L78.9611 133.006H79.8573V137.428H79.0158V134.542L77.2142 137.428H76.3149V133.006Z" fill="#4B415F"/>
<path d="M81.7774 137.428V133.754H80.4558V133.006H83.9952V133.754H82.6767V137.428H81.7774Z" fill="#4B415F"/>
<path d="M84.5785 137.428V133.006H87.881V133.754H85.4778V134.735H87.7139V135.48H85.4778V136.683H87.966V137.428H84.5785Z" fill="#4B415F"/>
<path d="M89.7312 137.428V133.754H88.4096V133.006H91.949V133.754H90.6305V137.428H89.7312Z" fill="#4B415F"/>
<path fill-rule="evenodd" clip-rule="evenodd" d="M28.3402 69.1695C28.3402 68.4972 28.5997 67.4218 29.3785 66.8839C29.3785 66.8839 31.1948 65.1366 32.6223 64.8679V68.9003C32.6223 69.9761 31.8435 71.0515 31.4543 71.3203L28.3402 73.7398V69.1695ZM27.0424 69.1695V73.7398L23.9288 71.3203C23.5391 71.0515 22.7607 69.9761 22.7607 68.9003V64.8679C24.1883 65.1366 26.0045 66.8839 26.0045 66.8839C26.9131 67.4218 27.0424 68.4972 27.0424 69.1695ZM28.9889 61.5069C29.1186 60.7002 29.6375 59.6253 30.5461 59.2217C30.5461 59.2217 32.4926 58.012 34.0494 57.8776L33.1413 61.9104C33.0115 62.8515 32.1029 63.9269 31.7142 64.1956L28.2105 66.0777L28.9889 61.5069ZM27.6915 61.2381L27.0424 65.8089L24.1883 62.7171C24.0585 62.3135 23.5391 61.1038 23.5391 60.1628L24.1883 55.9955C25.7451 56.6678 27.0424 58.6838 27.0424 58.6838C27.6915 59.2217 27.8213 60.4315 27.6915 61.2381ZM30.9353 53.8447C31.1948 53.1729 31.8435 52.2319 32.7521 52.097C32.7521 52.097 35.0877 51.1565 36.3851 51.4252L35.2175 55.3232C34.8283 55.9955 33.5305 56.9366 33.0115 57.0709L29.3785 58.2812L30.9353 53.8447ZM29.7677 53.3073L28.2105 57.8776L26.1343 54.2478C25.8748 53.8447 25.6153 52.5006 25.8748 51.6939L27.1726 47.7955C28.5997 48.6021 29.6375 50.7529 29.6375 50.7529C30.1569 51.5596 30.0272 52.9037 29.7677 53.3073ZM34.1791 46.9888C34.5683 46.317 35.3472 45.5103 36.3851 45.5103C36.3851 45.5103 38.7207 44.9724 40.0181 45.5103L38.0721 49.0052C37.5527 49.8119 36.2553 50.3498 35.7364 50.4842L31.8435 50.7529L34.1791 46.9888ZM33.1413 46.1826L30.8056 50.0806L29.3785 46.4513C29.3785 45.9134 29.2483 44.4349 29.6375 43.6283L31.7142 40.1333C32.7521 41.3431 33.4007 43.6283 33.4007 43.6283C33.9197 44.4349 33.5305 45.6447 33.1413 46.1826ZM38.7207 40.6708C39.1099 40.1333 40.1478 39.461 41.0564 39.7298C41.0564 39.7298 43.3916 39.5954 44.5597 40.402L42.0943 43.3595C41.4456 44.1662 40.0181 44.4349 39.6289 44.4349L35.6067 44.1662L38.7207 40.6708ZM37.8126 39.7298L34.8283 43.2251L34.0494 39.1923C34.0494 38.6548 34.0494 37.3102 34.8283 36.5036L37.4229 33.5466C38.2018 34.8907 38.4608 37.3102 38.4608 37.3102C38.7207 38.2513 38.2018 39.1923 37.8126 39.7298ZM44.1705 35.2938C44.6894 34.8907 45.7273 34.4871 46.6359 34.8907C46.6359 34.8907 48.9711 35.1594 50.1391 36.1005L46.8953 38.52C46.3759 39.1923 44.8191 39.3267 44.4299 39.1923L40.6667 38.2513L44.1705 35.2938ZM43.3916 34.2184L39.8883 37.1759V33.0086C39.8883 32.4707 40.2775 31.1266 41.0564 30.5891L44.0407 28.0348C44.6894 29.6481 44.5597 31.9332 44.5597 31.9332C44.5597 32.7399 43.911 33.8153 43.3916 34.2184ZM50.3986 31.1266C51.177 30.7235 52.2149 30.4543 52.9937 31.1266C52.9937 31.1266 55.0699 31.9332 56.2375 33.0086L52.7343 34.8907C51.9559 35.4282 50.3986 35.1594 50.0094 34.8907L46.6359 33.143L50.3986 31.1266ZM49.8797 29.9168L45.857 32.0676L46.6359 28.0348C46.7656 27.6317 47.4143 26.4219 48.1927 25.884L51.6959 24.0019C52.2149 25.4809 51.5662 27.766 51.5662 27.766C51.4365 28.8414 50.5283 29.6481 49.8797 29.9168ZM29.1186 76.966C28.9889 76.1598 29.1186 74.9496 29.7677 74.4121C29.7677 74.4121 31.0651 72.3957 32.6223 71.8577L33.1413 75.8906C33.4007 76.6973 32.8818 78.1762 32.6223 78.4449L29.8975 81.5368L29.1186 76.966ZM27.8213 77.2352L28.5997 81.8055L25.0964 79.7891C24.7072 79.6547 23.7991 78.5793 23.5391 77.6383L22.8905 73.6054C24.318 73.6054 26.3942 74.9496 26.3942 74.9496C27.1726 75.3531 27.6915 76.4285 27.8213 77.2352ZM31.1948 84.4942C30.9353 83.6876 30.8056 82.4778 31.4543 81.9399C31.4543 81.9399 32.4926 79.6547 33.6602 78.7137L35.2175 82.4778C35.3472 83.4184 35.2175 84.8973 34.9575 85.3009L32.7521 88.7958L31.1948 84.4942ZM29.8975 84.8973L31.7142 89.3333L27.8213 88.1235C27.3023 87.8548 26.264 87.0481 25.8748 86.2415L24.4477 82.343C26.0045 82.0742 28.2105 83.1496 28.2105 83.1496C29.1186 83.2845 29.7677 84.225 29.8975 84.8973ZM34.5683 91.3497C34.1791 90.6779 33.9197 89.6025 34.3089 88.6614C34.3089 88.6614 34.9575 86.5102 35.9959 85.3009L38.0721 88.7958C38.591 89.6025 38.4608 91.081 38.2018 91.4841L36.904 95.3826L34.5683 91.3497ZM33.4007 92.022L35.7364 96.0549L31.8435 95.5169C31.4543 95.5169 30.1569 94.9795 29.7677 94.1728L27.5618 90.6779C29.1186 90.1399 31.3245 90.6779 31.3245 90.6779C32.3624 90.543 33.0115 91.4841 33.4007 92.022ZM38.9802 97.5334C38.591 96.9959 38.2018 96.0549 38.3315 95.1138C38.3315 95.1138 38.591 92.6943 39.4991 91.3497L42.0943 94.3072C42.7429 95.1138 42.8727 96.5923 42.8727 96.9959L42.0943 101.028L38.9802 97.5334ZM38.2018 98.4744L41.0564 101.969L37.2932 102.239C36.7743 102.373 35.3472 101.969 34.8283 101.297L32.2331 98.2052C33.4007 97.399 35.7364 97.399 35.7364 97.399C36.6445 97.2646 37.6824 97.8026 38.2018 98.4744ZM44.5597 102.776C44.0407 102.373 43.3916 101.432 43.5218 100.356C43.5218 100.356 43.3916 98.0713 43.911 96.5923L46.8953 99.1467C47.8035 99.6841 48.1927 101.163 48.1927 101.566V105.599L44.5597 102.776ZM43.7808 103.851L47.4143 106.674L43.6515 107.75C43.2619 107.884 41.7051 107.75 41.0564 107.212L37.9419 104.792C39.1099 103.717 41.3159 103.314 41.3159 103.314C42.224 102.91 43.3916 103.448 43.7808 103.851Z" fill="#F47216"/>
<path fill-rule="evenodd" clip-rule="evenodd" d="M110.867 69.2571C110.867 68.5848 110.607 67.5094 109.829 66.9719C109.829 66.9719 108.012 65.2242 106.585 64.9555V68.9883C106.585 70.0637 107.363 71.1391 107.753 71.4079L110.867 73.8274V69.2571ZM112.164 69.2571V73.8274L115.278 71.4079C115.668 71.1391 116.446 70.0637 116.446 68.9883V64.9555C115.019 65.2242 113.202 66.9719 113.202 66.9719C112.294 67.5094 112.164 68.5848 112.164 69.2571ZM110.218 61.5945C110.088 60.7878 109.569 59.7129 108.661 59.3093C108.661 59.3093 106.715 58.0995 105.158 57.9652L106.066 61.998C106.196 62.9391 107.104 64.0145 107.493 64.2832L110.996 66.1653L110.218 61.5945ZM111.516 61.3257L112.164 65.8961L115.019 62.8047C115.149 62.4011 115.668 61.1914 115.668 60.2504L115.019 56.0831C113.462 56.7554 112.164 58.7718 112.164 58.7718C111.516 59.3093 111.386 60.5191 111.516 61.3257ZM108.272 53.9323C108.012 53.26 107.363 52.319 106.455 52.1846C106.455 52.1846 104.12 51.2436 102.822 51.5128L103.99 55.4108C104.379 56.0831 105.677 57.0242 106.196 57.1585L109.829 58.3683L108.272 53.9323ZM109.44 53.3944L110.996 57.9652L113.073 54.3354C113.332 53.9323 113.592 52.5882 113.332 51.7815L112.035 47.883C110.607 48.6897 109.569 50.8405 109.569 50.8405C109.05 51.6472 109.18 52.9913 109.44 53.3944ZM105.028 47.0764C104.638 46.4046 103.86 45.5979 102.822 45.5979C102.822 45.5979 100.487 45.0604 99.1887 45.5979L101.135 49.0928C101.654 49.8995 102.952 50.4374 103.471 50.5718L107.363 50.8405L105.028 47.0764ZM106.066 46.2697L108.402 50.1682L109.829 46.5389C109.829 46.001 109.958 44.5225 109.569 43.7158L107.493 40.2209C106.455 41.4307 105.807 43.7158 105.807 43.7158C105.288 44.5225 105.677 45.7323 106.066 46.2697ZM100.487 40.7584C100.097 40.2209 99.059 39.5486 98.1509 39.8174C98.1509 39.8174 95.8152 39.683 94.6476 40.4896L97.1125 43.4471C97.7617 44.2538 99.1887 44.5225 99.5784 44.5225L103.601 44.2538L100.487 40.7584ZM101.395 39.8174L104.379 43.3127L105.158 39.2799C105.158 38.742 105.158 37.3978 104.379 36.5911L101.784 33.6342C101.005 34.9783 100.746 37.3978 100.746 37.3978C100.487 38.3388 101.005 39.2799 101.395 39.8174ZM95.0368 35.3814C94.5179 34.9783 93.4795 34.5747 92.5714 34.9783C92.5714 34.9783 90.2357 35.247 89.0681 36.1881L92.3119 38.6076C92.8309 39.2799 94.3881 39.4142 94.7773 39.2799L98.5401 38.3389L95.0368 35.3814ZM95.8152 34.306L99.3185 37.2635V33.0962C99.3185 32.5588 98.9293 31.2142 98.1509 30.6762L95.1665 28.1224C94.5179 29.7357 94.6476 32.0208 94.6476 32.0208C94.6476 32.8275 95.2963 33.9029 95.8152 34.306ZM88.8087 31.2142C88.0303 30.8111 86.9919 30.5423 86.2135 31.2142C86.2135 31.2142 84.1373 32.0208 82.9697 33.0962L86.473 34.9783C87.2514 35.5157 88.8087 35.247 89.1979 34.9783L92.5714 33.2306L88.8087 31.2142ZM89.3276 30.0044L93.3503 32.1552L92.5714 28.1224C92.4417 27.7193 91.793 26.5095 91.0141 25.9716L87.5109 24.0895C86.9919 25.5685 87.6411 27.8536 87.6411 27.8536C87.7703 28.929 88.6789 29.7357 89.3276 30.0044ZM110.088 77.0536C110.218 76.2469 110.088 75.0372 109.44 74.4997C109.44 74.4997 108.142 72.4833 106.585 71.9453L106.066 75.9782C105.807 76.7848 106.325 78.2633 106.585 78.5325L109.31 81.6239L110.088 77.0536ZM111.386 77.3223L110.607 81.8931L114.111 79.8767C114.5 79.7423 115.408 78.6669 115.668 77.7259L116.317 73.693C114.889 73.693 112.813 75.0372 112.813 75.0372C112.035 75.4407 111.516 76.5161 111.386 77.3223ZM108.012 84.5818C108.272 83.7752 108.402 82.5654 107.753 82.0275C107.753 82.0275 106.715 79.7423 105.547 78.8013L103.99 82.5654C103.86 83.506 103.99 84.9849 104.249 85.388L106.455 88.8834L108.012 84.5818ZM109.31 84.9849L107.493 89.4209L111.386 88.2111C111.905 87.9424 112.943 87.1357 113.332 86.3291L114.76 82.4306C113.202 82.1618 110.996 83.2372 110.996 83.2372C110.088 83.3721 109.44 84.3126 109.31 84.9849ZM104.638 91.4373C105.028 90.765 105.288 89.6901 104.898 88.7486C104.898 88.7486 104.249 86.5978 103.211 85.388L101.135 88.8834C100.616 89.6901 100.746 91.1686 101.005 91.5717L102.303 95.4702L104.638 91.4373ZM105.807 92.1091L103.471 96.1425L107.363 95.6045C107.753 95.6045 109.05 95.0671 109.44 94.2604L111.645 90.765C110.088 90.2275 107.883 90.765 107.883 90.765C106.844 90.6306 106.196 91.5717 105.807 92.1091ZM100.227 97.6209C100.616 97.0835 101.005 96.1425 100.876 95.2014C100.876 95.2014 100.616 92.7814 99.7077 91.4373L97.1125 94.3948C96.4643 95.2014 96.3341 96.6799 96.3341 97.0835L97.1125 101.116L100.227 97.6209ZM101.005 98.562L98.1509 102.057L101.914 102.326C102.433 102.46 103.86 102.057 104.379 101.385L106.974 98.2932C105.807 97.4866 103.471 97.4866 103.471 97.4866C102.563 97.3522 101.524 97.8897 101.005 98.562ZM94.6476 102.864C95.1665 102.46 95.8152 101.519 95.6855 100.444C95.6855 100.444 95.8152 98.1589 95.2963 96.6799L92.3119 99.2343C91.4038 99.7717 91.0141 101.25 91.0141 101.654V105.687L94.6476 102.864ZM95.426 103.939L91.793 106.762L95.5557 107.837C95.9449 107.972 97.5022 107.837 98.1509 107.3L101.265 104.88C100.097 103.805 97.8914 103.401 97.8914 103.401C96.9833 102.998 95.8152 103.535 95.426 103.939Z" fill="#F47216"/>
<path fill-rule="evenodd" clip-rule="evenodd" d="M68.7725 16.1415L69.5747 1.08035L69.3992 48.5845H39.6553V47.1204L56.4221 45.0952C57.6611 43.7862 58.2981 42.04 58.0559 39.6566C56.3465 37.212 56.6312 35.3077 59.322 34.0572C60.0477 28.9665 61.5046 24.4249 66.4844 22.528C66.5115 21.752 66.8825 21.2692 67.5965 21.0797C67.4457 19.1749 67.6189 17.6872 68.5037 17.1191C68.1341 16.5492 68.3786 16.2425 68.7725 16.1415ZM69.4015 49.3634L69.4029 49.9027H39.6553V49.3634H69.4015ZM69.4085 51.6365L69.4379 58.9312L62.0912 58.9372V92.0665H65.1049V60.3569H69.3698L69.4706 92.079H58.923V55.2292H65.7237V53.2897H55.3992L55.6685 92.079H53.0267V68.6608H42.3227V92.079H39.6553V51.6365H69.4085ZM49.718 92.079H45.5292V69.6643H49.718V92.079Z" fill="#4B415F"/>
<path fill-rule="evenodd" clip-rule="evenodd" d="M83.9561 68.4972L87.0967 68.5097V87.6005L91.1231 87.5921V68.5014L94.1387 68.4972V90.2146C94.1387 90.8429 93.8928 91.3085 93.4009 91.6115C92.9086 91.915 92.2305 92.0661 91.3663 92.0661H83.9561V91.056L91.1231 91.1431V88.7857L86.7285 88.699C85.6263 88.6772 84.853 88.4729 84.4031 88.0258C84.1077 87.7325 83.9561 87.341 83.9561 86.8475V68.4972Z" fill="#4B415F"/>
<path d="M69.4084 51.2227H99.5205V92.3408L99.1014 92.3394L96.223 92.3292L95.4064 92.326L95.4022 91.9164L95.4596 66.0902L84.2661 66.0508L83.8652 66.0494L83.8503 65.6514L83.8046 55.6253L69.421 55.7013L69.0033 55.7041L69.0024 55.2871L68.9912 51.637L68.9902 51.2227H69.4084ZM69.6912 1.07849L70.6646 15.8885C70.6898 15.9015 70.7141 15.9154 70.7379 15.9302C70.8844 16.0242 70.9997 16.1526 71.0669 16.3184C71.1304 16.4774 71.1444 16.6609 71.0907 16.868C71.0776 16.9171 71.0604 16.9681 71.0398 17.0204C71.416 17.3744 71.6507 17.8896 71.7772 18.5276C71.9055 19.174 71.9232 19.9542 71.8686 20.8225C72.3414 21.0171 72.6629 21.3475 72.8328 21.8131V21.815C72.8706 21.9192 72.9004 22.03 72.9214 22.1467C72.9289 22.187 72.935 22.2283 72.9406 22.2695C75.4004 23.2634 77.0071 24.8975 78.0935 26.9223C79.1678 28.9262 79.7231 31.3022 80.0918 33.8121C81.4367 34.4779 82.1894 35.3239 82.399 36.3358C82.6094 37.3566 82.252 38.5112 81.3779 39.7863C81.2766 40.8867 81.3723 41.8402 81.6341 42.6692C81.8866 43.4679 82.2954 44.1537 82.832 44.7463L99.1686 46.7548L99.4958 46.7947V48.9533H69.3052L69.3062 48.5845L69.5745 1.08035L69.6912 1.07849ZM70.148 16.4811L70.1462 17.0955L70.2596 16.9203C70.3207 16.8263 70.3576 16.748 70.3744 16.6836C70.3865 16.6382 70.387 16.6076 70.3795 16.5891C70.3748 16.577 70.3594 16.5635 70.338 16.5492C70.303 16.5274 70.2596 16.5098 70.2101 16.4973L70.148 16.4811ZM70.1457 17.2831L70.0468 48.2162H99.0487V47.4461L82.6094 45.4607L82.4755 45.445L82.3831 45.3472C81.726 44.6527 81.2286 43.8418 80.9271 42.8883C80.6289 41.945 80.5244 40.864 80.6504 39.6204L80.6606 39.525L80.7148 39.4481C81.5104 38.3096 81.846 37.3163 81.6738 36.4827C81.5048 35.6635 80.8282 34.9621 79.5966 34.3894L79.4146 34.3051L79.3862 34.1077C79.0287 31.5987 78.493 29.2297 77.4411 27.2675C76.4042 25.334 74.8553 23.7851 72.459 22.8719L72.2298 22.7847L72.221 22.5396V22.5318C72.2172 22.4409 72.2084 22.3557 72.1939 22.2765C72.1799 22.2005 72.1612 22.1296 72.137 22.0638H72.1365C72.0217 21.7478 71.7702 21.5379 71.3828 21.435L71.0851 21.3558L71.1089 21.0505C71.1822 20.1294 71.1775 19.3139 71.0496 18.6685C70.9334 18.0842 70.7192 17.6515 70.3697 17.4272L70.1457 17.2831ZM69.0178 50.5231L69.0196 49.9833L69.0206 49.615H99.507V50.8915H69.0168L69.0178 50.5231ZM98.6828 52.0507H69.827L69.8354 54.8701L84.2054 54.7941L84.6091 54.7913L84.624 55.194L84.6702 65.2242L96.4872 65.2659L96.2319 91.5003L98.6828 91.5096V52.0507Z" fill="#4B415F"/>
<path fill-rule="evenodd" clip-rule="evenodd" d="M68.9561 52.9931L69.0102 55.6184C69.5319 55.6184 72.8401 55.6457 73.157 55.61C73.6629 55.554 74.2378 55.6063 74.781 55.5618C75.8086 55.4775 76.8852 55.516 77.9674 55.4576L79.534 55.4057C79.8462 55.402 79.9409 55.3478 80.2863 55.3492C80.5737 55.3501 80.8663 55.3561 81.1529 55.3524C81.4646 55.3487 81.5598 55.294 81.9051 55.2954C82.1935 55.2968 82.4829 55.2992 82.7713 55.2987C83.1054 55.2982 83.1894 55.2417 83.5231 55.2412L84.3883 55.2431V55.6184H99.5512V51.7074H68.9561V52.9931Z" fill="#4B415F"/>
<path fill-rule="evenodd" clip-rule="evenodd" d="M84.3887 62.2079L84.5506 62.3682H99.3897L99.5516 62.2079V57.279H84.3887V62.2079Z" fill="#4B415F"/>
<path fill-rule="evenodd" clip-rule="evenodd" d="M69.2803 48.9751H99.4433V46.7785C99.2622 46.7785 96.9555 46.4824 96.4216 46.4569H69.3881C69.3881 47.1097 69.2803 48.2699 69.2803 48.9751Z" fill="#4B415F"/>
<path fill-rule="evenodd" clip-rule="evenodd" d="M84.4424 65.6366L95.7269 65.6894L95.767 69.9025L98.7415 69.8687L99.5512 69.7079V64.1363L99.3892 63.976H84.4424V65.6366Z" fill="#4B415F"/>
<path fill-rule="evenodd" clip-rule="evenodd" d="M69.4424 44.6355H82.7162C82.4498 44.1356 81.9168 43.714 81.6172 42.5658L81.4212 41.6887H69.5502L69.4979 43.8872C69.4974 44.219 69.4424 44.3015 69.4424 44.6355Z" fill="#4B415F"/>
<path fill-rule="evenodd" clip-rule="evenodd" d="M69.6582 39.5996H81.4215C81.6249 39.5996 82.0407 38.7118 82.0925 38.5515L82.4467 37.1351H69.766C69.766 37.7926 69.6582 38.9625 69.6582 39.5996Z" fill="#4B415F"/>
<path fill-rule="evenodd" clip-rule="evenodd" d="M96.0985 90.8697H99.5518V83.2623H95.9902C95.9902 83.9508 96.0444 84.4438 96.0444 85.1374L96.0985 90.8697Z" fill="#4B415F"/>
<path fill-rule="evenodd" clip-rule="evenodd" d="M69.0107 50.4749H99.4976V50.0464C99.4976 49.9162 99.1971 49.6178 99.0659 49.6178H69.0107V50.4749Z" fill="#4B415F"/>
<path fill-rule="evenodd" clip-rule="evenodd" d="M95.9261 77.1013V78.2263H99.3659V72.0116H95.7324C95.7324 73.7662 95.9261 75.3448 95.9261 77.1013Z" fill="#4B415F"/>
<path fill-rule="evenodd" clip-rule="evenodd" d="M69.874 34.4028V35.26H81.9065C81.8641 35.1001 81.6536 34.8963 81.5318 34.7753C81.2252 34.4714 80.9083 34.2601 80.5411 34.0447C80.2844 33.8941 80.0721 33.8084 80.0721 33.4924H69.9277C69.9277 33.8667 69.874 34.015 69.874 34.4028Z" fill="#4B415F"/>
<path fill-rule="evenodd" clip-rule="evenodd" d="M69.9814 31.9921H79.802L79.4781 30.4918H70.0356C70.0356 31.0668 69.9814 31.4315 69.9814 31.9921Z" fill="#4B415F"/>
<path fill-rule="evenodd" clip-rule="evenodd" d="M70.1436 28.7775H78.9388C78.8632 28.6218 78.789 28.4068 78.7232 28.2419C78.6546 28.0709 78.523 27.8397 78.5072 27.653H70.1436V28.7775Z" fill="#4B415F"/>
<path fill-rule="evenodd" clip-rule="evenodd" d="M70.252 26.0452H77.5366C77.4834 25.8191 77.3355 25.6718 77.2128 25.5096C77.1227 25.391 76.9496 25.081 76.7811 25.081H70.252V26.0452Z" fill="#4B415F"/>
<path fill-rule="evenodd" clip-rule="evenodd" d="M70.3594 23.5275H75.1618C75.0428 23.3514 74.8062 23.2305 74.6121 23.1091C74.3988 22.9756 74.256 22.8311 73.921 22.8311H70.3594V23.5275Z" fill="#4B415F"/>
<path fill-rule="evenodd" clip-rule="evenodd" d="M70.4131 21.1167V21.4916H72.6792C72.5672 21.2812 72.3451 20.956 72.0319 20.956H70.575C70.4504 20.956 70.4131 20.9935 70.4131 21.1167Z" fill="#4B415F"/>
<path fill-rule="evenodd" clip-rule="evenodd" d="M70.5215 19.5632H71.7628C72.0088 19.5632 71.8706 19.3969 71.8706 19.1341H70.5215V19.5632Z" fill="#4B415F"/>
<path fill-rule="evenodd" clip-rule="evenodd" d="M70.5752 17.8484H71.5463C71.53 17.6491 71.4619 17.5653 71.3844 17.4198H70.5752V17.8484Z" fill="#4B415F"/>
<path fill-rule="evenodd" clip-rule="evenodd" d="M70.9528 16.134C70.8538 15.9876 70.8524 15.9385 70.6289 15.92C70.6513 16.186 70.6798 16.134 70.9528 16.134Z" fill="#4B415F"/>
<path d="M71.1445 57.6445L82.2736 57.6714L82.5429 91.997L79.1595 92.0512L78.8903 58.8149L74.3463 58.7881L74.6161 92.0239L71.4133 91.9701L71.1445 57.6445Z" fill="#4B415F"/>
<path fill-rule="evenodd" clip-rule="evenodd" d="M51.8906 106.986H87.3167V103.617H51.8906V106.986Z" fill="#4B415F"/>
<path fill-rule="evenodd" clip-rule="evenodd" d="M49.3857 113.299H89.8217V109.93H49.3857V113.299Z" fill="#4B415F"/>
<path fill-rule="evenodd" clip-rule="evenodd" d="M54.6875 100.87H84.5199V97.5014H54.6875V100.87Z" fill="#4B415F"/>
</svg>
