<svg width="13" height="12" viewBox="0 0 13 12" fill="none" xmlns="http://www.w3.org/2000/svg">
<path d="M10.0039 5.82821C10.0039 4.93731 8.92677 4.49114 8.2968 5.12111L2.10393 11.314C1.71345 11.7045 1.08037 11.7045 0.68989 11.314C0.299429 10.9235 0.299411 10.2905 0.689849 9.89998L6.88204 3.70707C7.51195 3.07709 7.06577 2 6.1749 2H2.00391C1.45162 2 1.00391 1.55228 1.00391 1C1.00391 0.447715 1.45163 0 2.00391 0H11.0039C11.5562 0 12.0039 0.447715 12.0039 1V10C12.0039 10.5523 11.5562 11 11.0039 11C10.4516 11 10.0039 10.5523 10.0039 10V5.82821Z" fill="white"/>
</svg>
