<svg width="13" height="9" viewBox="0 0 13 9" fill="none" xmlns="http://www.w3.org/2000/svg">
<path d="M4.45188 3.444C4.95588 3.644 5.35988 3.968 5.66388 4.416C5.97588 4.864 6.13188 5.368 6.13188 5.928C6.13188 6.416 6.00788 6.864 5.75988 7.272C5.51988 7.68 5.19188 8.004 4.77588 8.244C4.35988 8.476 3.89988 8.592 3.39588 8.592C2.89988 8.592 2.44388 8.472 2.02788 8.232C1.61188 7.992 1.27988 7.664 1.03188 7.248C0.791875 6.832 0.671875 6.372 0.671875 5.868C0.671875 5.388 0.787875 4.88 1.01987 4.344C1.25188 3.8 1.64788 3.116 2.20788 2.292L3.73188 0H6.07188L4.45188 3.444ZM10.8359 3.444C11.3399 3.644 11.7439 3.968 12.0479 4.416C12.3599 4.864 12.5159 5.368 12.5159 5.928C12.5159 6.416 12.3919 6.864 12.1439 7.272C11.9039 7.68 11.5759 8.004 11.1599 8.244C10.7439 8.476 10.2839 8.592 9.77988 8.592C9.28388 8.592 8.82788 8.472 8.41188 8.232C7.99588 7.992 7.66388 7.664 7.41588 7.248C7.17588 6.832 7.05587 6.372 7.05587 5.868C7.05587 5.388 7.17188 4.88 7.40388 4.344C7.63588 3.8 8.03188 3.116 8.59188 2.292L10.1159 0H12.4559L10.8359 3.444Z" fill="#292D33"/>
</svg>
