<svg width="120" height="120" viewBox="0 0 120 120" fill="none" xmlns="http://www.w3.org/2000/svg">
<path fill-rule="evenodd" clip-rule="evenodd" d="M40.6364 35.8C40.6364 24.8648 49.5194 16 60.4773 16C71.4351 16 80.3182 24.8648 80.3182 35.8C80.3182 46.7353 71.4351 55.6 60.4773 55.6C49.5194 55.6 40.6364 46.7353 40.6364 35.8ZM60.4773 24.8C54.3896 24.8 49.4545 29.7249 49.4545 35.8C49.4545 41.8751 54.3896 46.8 60.4773 46.8C66.565 46.8 71.5 41.8751 71.5 35.8C71.5 29.7249 66.565 24.8 60.4773 24.8Z" fill="black" fill-opacity="0.85"/>
<path d="M99.2459 34.8887C100.968 33.1704 103.759 33.1704 105.481 34.8887L118.709 48.0887C120.43 49.807 120.43 52.593 118.709 54.3113C116.987 56.0296 114.195 56.0296 112.473 54.3113L102.364 44.2225L92.2541 54.3113C90.5322 56.0296 87.7405 56.0296 86.0187 54.3113C84.2968 52.593 84.2968 49.807 86.0187 48.0887L99.2459 34.8887Z" fill="black" fill-opacity="0.85"/>
<path fill-rule="evenodd" clip-rule="evenodd" d="M55.4386 64.4H65.516C70.2944 64.4 74.1487 64.3999 77.2698 64.6544C80.4833 64.9164 83.3059 65.4699 85.9174 66.7977C90.0655 68.9069 93.4382 72.2727 95.5518 76.4122C96.8824 79.0183 97.4371 81.8352 97.6996 85.0421C97.9546 88.1565 97.9546 92.0024 97.9545 96.7706V99.6C97.9545 102.03 95.9805 104 93.5455 104H27.4091C24.974 104 23 102.03 23 99.6V96.7717C23 92.003 22.9999 88.1568 23.2549 85.0421C23.5175 81.8352 24.0722 79.0183 25.4028 76.4123C27.5163 72.2728 30.8889 68.907 35.037 66.7978C37.6485 65.47 40.4712 64.9164 43.6848 64.6544C46.8058 64.3999 50.6602 64.4 55.4386 64.4ZM33.2599 80.4074C34.528 77.9236 36.5515 75.9042 39.0403 74.6387C40.2015 74.0483 41.7347 73.6427 44.4028 73.4252C47.1225 73.2034 50.6159 73.2 55.6273 73.2H65.3273C70.3386 73.2 73.832 73.2034 76.5517 73.4252C79.2199 73.6427 80.7529 74.0482 81.9141 74.6386C84.4029 75.9041 86.4266 77.9237 87.6948 80.4074C88.2864 81.5662 88.6928 83.096 88.9107 85.7587C89.1059 88.1425 89.1323 91.1218 89.1358 95.2H31.8187C31.8223 91.1218 31.8487 88.1425 32.0438 85.7587C32.2618 83.096 32.6682 81.5661 33.2599 80.4074Z" fill="black" fill-opacity="0.85"/>
<path d="M39.0397 74.6385C36.5509 75.904 34.5274 77.9234 33.2593 80.4072C32.6676 81.5659 32.2612 83.0958 32.0432 85.7585C31.848 88.1423 31.8217 91.1216 31.8181 95.1998H89.1352C89.1317 91.1216 89.1053 88.1423 88.9101 85.7585C88.6921 83.0958 88.2858 81.566 87.6942 80.4072C86.426 77.9235 84.4023 75.9039 81.9135 74.6384C80.7523 74.048 79.2193 73.6425 76.5511 73.425C73.8314 73.2032 70.338 73.1998 65.3267 73.1998H55.6267C50.6153 73.1998 47.1219 73.2032 44.4022 73.425C41.7341 73.6425 40.2009 74.0481 39.0397 74.6385Z" fill="#FDE138"/>
<path d="M49.4539 35.7998C49.4539 29.7247 54.389 24.7998 60.4767 24.7998C66.5644 24.7998 71.4994 29.7247 71.4994 35.7998C71.4994 41.8749 66.5644 46.7998 60.4767 46.7998C54.389 46.7998 49.4539 41.8749 49.4539 35.7998Z" fill="#FDE138"/>
</svg>
