<svg width="120" height="120" viewBox="0 0 120 120" fill="none" xmlns="http://www.w3.org/2000/svg">
<path fill-rule="evenodd" clip-rule="evenodd" d="M98.309 16.2516C99.3842 17.2008 100 18.5659 100 20V34.4137L105.552 35.0306C108.084 35.312 110 37.4523 110 40V100C110 101.422 109.394 102.777 108.335 103.726C107.275 104.674 105.861 105.127 104.448 104.969L14.4478 94.9695C11.9157 94.6881 10 92.5478 10 90.0001V30C10 27.4784 11.8777 25.3514 14.3798 25.0386L94.3798 15.0386C95.8029 14.8608 97.2339 15.3025 98.309 16.2516ZM94.465 43.8602C94.4494 43.8586 94.4339 43.8569 94.4184 43.8551L20 35.5864V85.5248L100 94.4137V44.4753L94.465 43.8602ZM57.6481 29.7079L90 33.3026V25.6639L57.6481 29.7079Z" fill="#333333"/>
<path d="M94.4184 43.8546L94.4649 43.8598L100 44.4748V94.4133L20 85.5244V35.5859L94.4184 43.8546Z" fill="#FDE138"/>
</svg>
