<svg width="120" height="120" viewBox="0 0 120 120" fill="none" xmlns="http://www.w3.org/2000/svg">
<path d="M47.7795 30C45.0181 30 42.7795 32.2386 42.7795 35C42.7795 37.7614 45.0181 40 47.7795 40H92.7795C95.5409 40 97.7795 37.7614 97.7795 35C97.7795 32.2386 95.5409 30 92.7795 30H47.7795Z" fill="#333333"/>
<path d="M22.777 35C22.777 32.2386 25.0156 30 27.777 30H32.777C35.5384 30 37.777 32.2386 37.777 35C37.777 37.7614 35.5384 40 32.777 40H27.777C25.0156 40 22.777 37.7614 22.777 35Z" fill="#333333"/>
<path fill-rule="evenodd" clip-rule="evenodd" d="M17.5 15C10.5965 15 5 20.5965 5 27.5V67.5C5 70.2614 7.23858 72.5 10 72.5C12.7614 72.5 15 70.2614 15 67.5V55H105V92.5C105 93.8808 103.881 95 102.5 95H30C27.2386 95 25 97.2386 25 100C25 102.761 27.2386 105 30 105H102.5C109.404 105 115 99.4037 115 92.5V27.5C115 20.5965 109.404 15 102.5 15H17.5ZM15 45H105V27.5C105 26.1192 103.881 25 102.5 25H17.5C16.1193 25 15 26.1193 15 27.5V45Z" fill="#333333"/>
<path d="M80.7665 61.4198C78.9 59.6001 75.9485 59.5198 73.9858 61.2353L57.3222 75.7999L44.178 63.2121C42.2069 61.3244 39.0862 61.3661 37.1662 63.3059L6.72719 94.0579C4.78458 96.0204 4.80078 99.1862 6.76336 101.129C8.72594 103.071 11.8917 103.055 13.8343 101.093L40.8135 73.8361L53.7097 86.1864C55.5801 87.9776 58.5086 88.0442 60.4585 86.34L77.0912 71.8024L84.9872 79.5002C86.9645 81.4278 90.1301 81.3876 92.0577 79.4103C93.9853 77.433 93.9451 74.2675 91.9678 72.3398L80.7665 61.4198Z" fill="#333333"/>
<path fill-rule="evenodd" clip-rule="evenodd" d="M15 45H105V27.5C105 26.1192 103.881 25 102.5 25H17.5C16.1193 25 15 26.1193 15 27.5V45ZM47.7795 30C45.0181 30 42.7795 32.2386 42.7795 35C42.7795 37.7614 45.0181 40 47.7795 40H92.7795C95.5409 40 97.7795 37.7614 97.7795 35C97.7795 32.2386 95.5409 30 92.7795 30H47.7795ZM22.777 35C22.777 32.2386 25.0156 30 27.777 30H32.777C35.5384 30 37.777 32.2386 37.777 35C37.777 37.7614 35.5384 40 32.777 40H27.777C25.0156 40 22.777 37.7614 22.777 35Z" fill="#FDE138"/>
</svg>
