<svg width="60" height="70" viewBox="0 0 60 70" fill="none" xmlns="http://www.w3.org/2000/svg">
<path fill-rule="evenodd" clip-rule="evenodd" d="M30 17.5C25.8579 17.5 22.5 20.8579 22.5 25C22.5 29.1421 25.8579 32.5 30 32.5C34.1421 32.5 37.5 29.1421 37.5 25C37.5 20.8579 34.1421 17.5 30 17.5ZM17.5 25C17.5 18.0964 23.0964 12.5 30 12.5C36.9036 12.5 42.5 18.0964 42.5 25C42.5 31.9036 36.9036 37.5 30 37.5C23.0964 37.5 17.5 31.9036 17.5 25ZM5 65C5 51.1929 16.1929 40 30 40C43.8071 40 55 51.1929 55 65C55 66.3807 53.8807 67.5 52.5 67.5C51.1193 67.5 50 66.3807 50 65C50 55.1405 42.8655 46.9473 33.4776 45.3013L37.3894 58.0148C37.6328 58.8056 37.4691 59.6656 36.9522 60.3117L31.9522 66.5617C31.4777 67.1548 30.7595 67.5 30 67.5C29.2405 67.5 28.5223 67.1548 28.0478 66.5617L23.0478 60.3117C22.5309 59.6656 22.3672 58.8056 22.6106 58.0148L26.5224 45.3013C17.1345 46.9473 10 55.1405 10 65C10 66.3807 8.88071 67.5 7.5 67.5C6.11929 67.5 5 66.3807 5 65ZM30 51.0009L27.7784 58.2211L30 60.998L32.2216 58.2211L30 51.0009Z" fill="#333333"/>
<path d="M22.5 25C22.5 20.8579 25.8579 17.5 30 17.5C34.1421 17.5 37.5 20.8579 37.5 25C37.5 29.1421 34.1421 32.5 30 32.5C25.8579 32.5 22.5 29.1421 22.5 25Z" fill="#FDE138"/>
<path d="M13 39V25.1692C13 15.6869 20.6112 8 30 8C39.3888 8 47 15.6869 47 25.1692V39" stroke="#333333" stroke-width="5" stroke-linecap="round" stroke-linejoin="round"/>
</svg>
