<svg width="60" height="60" viewBox="0 0 60 60" fill="none" xmlns="http://www.w3.org/2000/svg">
<path fill-rule="evenodd" clip-rule="evenodd" d="M30 7.5C25.8579 7.5 22.5 10.8579 22.5 15C22.5 19.1421 25.8579 22.5 30 22.5C34.1421 22.5 37.5 19.1421 37.5 15C37.5 10.8579 34.1421 7.5 30 7.5ZM17.5 15C17.5 8.09644 23.0964 2.5 30 2.5C36.9036 2.5 42.5 8.09644 42.5 15C42.5 21.9036 36.9036 27.5 30 27.5C23.0964 27.5 17.5 21.9036 17.5 15ZM5 55C5 41.1929 16.1929 30 30 30C43.8071 30 55 41.1929 55 55C55 56.3807 53.8807 57.5 52.5 57.5C51.1193 57.5 50 56.3807 50 55C50 45.1405 42.8655 36.9473 33.4776 35.3013L37.3894 48.0148C37.6328 48.8056 37.4691 49.6656 36.9522 50.3117L31.9522 56.5617C31.4777 57.1548 30.7595 57.5 30 57.5C29.2405 57.5 28.5223 57.1548 28.0478 56.5617L23.0478 50.3117C22.5309 49.6656 22.3672 48.8056 22.6106 48.0148L26.5224 35.3013C17.1345 36.9473 10 45.1405 10 55C10 56.3807 8.88071 57.5 7.5 57.5C6.11929 57.5 5 56.3807 5 55ZM30 41.0009L27.7784 48.2211L30 50.998L32.2216 48.2211L30 41.0009Z" fill="#333333"/>
<path d="M22.5 15C22.5 10.8579 25.8579 7.5 30 7.5C34.1421 7.5 37.5 10.8579 37.5 15C37.5 19.1421 34.1421 22.5 30 22.5C25.8579 22.5 22.5 19.1421 22.5 15Z" fill="#FDE138"/>
</svg>
