<?xml version="1.0" standalone="no"?>
<!DOCTYPE svg PUBLIC "-//W3C//DTD SVG 20010904//EN"
    "http://www.w3.org/TR/2001/REC-SVG-20010904/DTD/svg10.dtd">
<svg version="1.0" xmlns="http://www.w3.org/2000/svg"
     width="604.000000pt" height="226.000000pt" viewBox="0 0 604.000000 226.000000"
     preserveAspectRatio="xMidYMid meet">

    <g transform="translate(0.000000,226.000000) scale(0.100000,-0.100000)"
       fill="#000000" stroke="none">
        <path d="M525 2245 c-189 -38 -363 -172 -450 -347 -76 -154 -76 -161 -73 -802
l3 -561 27 -76 c63 -178 174 -307 331 -384 50 -25 122 -51 158 -59 l66 -13
341 276 c188 152 341 278 342 281 0 3 -164 4 -365 2 l-365 -2 0 138 0 138 364
294 c201 162 365 298 365 303 1 4 -157 7 -349 7 l-351 0 3 128 3 127 570 0
570 0 3 -136 3 -136 -365 -294 c-201 -162 -365 -297 -365 -301 -1 -5 163 -8
364 -8 l365 0 0 -134 0 -134 -337 -273 -337 -274 54 -3 c30 -2 183 -2 340 0
282 4 286 4 365 32 204 71 355 221 422 419 l28 82 0 590 c0 589 0 590 -23 665
-51 165 -172 311 -319 387 -154 81 -120 77 -753 79 -452 2 -579 0 -635 -11z"/>
        <path d="M2820 1636 l0 -206 30 0 30 0 0 79 0 78 83 5 c65 3 90 9 115 26 60
43 65 136 10 189 -28 27 -33 28 -149 31 l-119 4 0 -206z m228 137 c38 -32 30
-102 -13 -121 -14 -7 -55 -12 -90 -12 l-65 0 0 75 0 75 74 0 c56 0 79 -4 94
-17z"/>
        <path d="M4540 1829 c0 -39 62 -74 112 -62 32 8 58 33 58 55 0 24 -32 23 -48
-2 -7 -11 -23 -20 -37 -20 -14 0 -29 8 -35 20 -11 21 -50 28 -50 9z"/>
        <path d="M3242 1710 c-46 -28 -72 -76 -72 -133 0 -113 90 -181 188 -142 111
45 118 220 12 276 -45 24 -87 24 -128 -1z m116 -45 c38 -32 50 -88 29 -136
-19 -46 -42 -63 -84 -63 -54 0 -83 39 -83 110 0 48 4 60 29 85 36 36 70 37
109 4z"/>
        <path d="M3573 1710 c-41 -24 -60 -55 -68 -105 -19 -119 74 -210 180 -175 32
11 75 58 75 83 0 18 -49 5 -64 -18 -36 -55 -116 -35 -137 34 -22 75 8 146 68
157 27 5 37 1 63 -25 18 -17 40 -31 51 -31 22 0 22 0 9 34 -22 59 -116 84
-177 46z"/>
        <path d="M3890 1713 c-47 -25 -73 -73 -73 -137 0 -58 21 -106 55 -128 58 -38
140 -30 178 19 44 56 3 75 -49 22 -26 -25 -37 -30 -59 -24 -64 16 -95 88 -67
160 26 69 111 87 137 30 7 -16 19 -25 35 -25 31 0 29 22 -5 61 -35 40 -100 49
-152 22z"/>
        <path d="M4903 1710 c-76 -46 -92 -168 -32 -243 56 -72 188 -52 213 31 11 33
-25 29 -62 -8 -37 -37 -61 -38 -101 -5 -75 64 -35 205 59 205 10 0 30 -13 43
-30 26 -30 67 -41 67 -17 0 21 -29 56 -60 72 -40 21 -89 19 -127 -5z"/>
        <path d="M5535 1720 c-11 -4 -33 -22 -50 -39 -24 -26 -30 -41 -33 -94 -3 -52
0 -67 20 -97 110 -164 328 7 227 176 -31 52 -108 78 -164 54z m98 -51 c51 -40
55 -141 6 -185 -31 -28 -87 -24 -115 10 -19 21 -24 39 -24 82 0 48 4 60 29 85
35 34 68 37 104 8z"/>
        <path d="M5849 1707 c-119 -79 -73 -282 65 -282 53 0 93 21 112 57 14 26 13
28 -7 28 -12 0 -34 -11 -51 -25 -16 -14 -36 -25 -44 -25 -28 0 -70 28 -82 55
-24 53 -21 55 93 55 l105 0 0 34 c0 39 -35 95 -70 113 -38 19 -83 15 -121 -10z
m116 -42 c45 -44 35 -55 -54 -55 -75 0 -79 1 -74 20 7 28 50 60 80 60 13 0 35
-11 48 -25z"/>
        <path d="M4145 1575 l0 -145 35 0 c34 0 37 3 105 118 l70 117 3 -117 3 -118
24 0 25 0 0 146 0 145 -37 -3 c-35 -3 -40 -7 -99 -107 -34 -57 -67 -108 -73
-114 -8 -8 -11 22 -11 106 0 115 0 117 -22 117 -23 0 -23 -1 -23 -145z"/>
        <path d="M4500 1575 l0 -145 34 0 c33 0 37 4 103 117 l68 117 3 -117 c3 -117
3 -117 27 -117 l25 0 0 145 0 145 -35 0 c-33 0 -36 -4 -102 -114 l-68 -115 -3
115 c-3 114 -3 114 -27 114 l-25 0 0 -145z"/>
        <path d="M5160 1575 l0 -145 25 0 c23 0 25 4 25 43 0 35 6 49 29 71 l28 27 48
-70 c41 -60 53 -71 77 -71 34 0 34 1 -41 105 l-50 70 57 58 56 57 -29 0 c-23
0 -45 -15 -102 -72 l-73 -72 0 72 c0 70 -1 72 -25 72 l-25 0 0 -145z"/>
        <path d="M3370 1325 c0 -12 -13 -15 -60 -15 -131 0 -164 -40 -165 -195 0 -145
35 -195 135 -195 59 0 98 24 121 73 32 71 18 142 -35 185 -44 34 -81 37 -137
9 -53 -26 -56 -24 -35 28 16 38 25 41 130 48 52 4 73 10 83 23 22 30 16 54
-12 54 -16 0 -25 -6 -25 -15z m-56 -165 c35 -13 59 -64 53 -113 -7 -54 -41
-87 -87 -87 -115 0 -118 203 -3 209 6 1 23 -3 37 -9z"/>
        <path d="M2864 1201 c-40 -24 -64 -77 -64 -138 0 -88 55 -143 144 -143 135 0
182 208 63 280 -41 25 -103 25 -143 1z m123 -36 c31 -22 47 -85 33 -135 -16
-58 -68 -85 -125 -64 -39 15 -59 118 -33 167 25 48 82 62 125 32z"/>
        <path d="M3490 1070 l0 -150 205 0 205 0 0 -41 c0 -36 2 -40 23 -37 19 3 22
10 25 61 3 55 2 57 -22 57 l-25 0 -3 128 c-3 123 -4 127 -25 130 -23 3 -23 3
-23 -127 l0 -131 -65 0 -65 0 0 130 0 130 -25 0 -25 0 0 -130 0 -130 -65 0
-65 0 0 130 0 130 -25 0 -25 0 0 -150z"/>
        <path d="M4065 1210 c-99 -40 -108 -218 -15 -274 32 -18 101 -21 133 -5 26 13
56 49 57 67 0 21 -41 13 -62 -13 -39 -49 -118 -25 -137 43 l-10 32 105 0 104
0 0 38 c0 91 -89 148 -175 112z m105 -50 c11 -11 20 -29 20 -40 0 -18 -7 -20
-75 -20 -84 0 -95 11 -50 55 30 31 77 33 105 5z"/>
        <path d="M4364 1201 c-42 -26 -69 -95 -61 -156 12 -84 58 -125 141 -125 36 0
52 6 75 28 16 15 32 37 36 50 5 19 3 22 -19 22 -14 0 -26 -4 -26 -10 0 -22
-41 -50 -73 -50 -54 0 -82 38 -82 112 0 53 3 62 28 84 16 14 41 24 58 24 28 0
69 -30 69 -50 0 -5 12 -10 26 -10 22 0 24 3 19 23 -4 12 -20 34 -36 50 -37 34
-107 37 -155 8z"/>
        <path d="M4590 1200 c0 -17 6 -20 50 -20 l50 0 0 -130 0 -130 25 0 25 0 0 130
0 130 51 0 c43 0 50 3 47 18 -3 15 -18 17 -126 20 -117 2 -122 2 -122 -18z"/>
        <path d="M4890 1069 l0 -151 94 4 c84 3 97 6 120 27 35 33 36 84 1 107 l-26
17 21 14 c17 12 20 24 18 56 -3 37 -7 44 -38 59 -24 13 -59 18 -112 18 l-78 0
0 -151z m176 86 c12 -18 11 -24 -2 -43 -12 -18 -25 -22 -70 -22 l-54 0 0 45 0
46 56 -3 c44 -2 60 -8 70 -23z m2 -117 c7 -7 12 -21 12 -33 0 -34 -20 -45 -82
-45 l-58 0 0 45 0 45 58 0 c32 0 63 -5 70 -12z"/>
        <path d="M5256 1201 c-86 -58 -87 -210 -2 -262 19 -11 50 -19 78 -19 122 0
181 162 94 258 -28 30 -40 36 -87 39 -42 3 -60 0 -83 -16z m121 -36 c72 -51
41 -205 -42 -205 -47 0 -64 8 -80 41 -54 103 36 224 122 164z"/>
        <path d="M2890 822 c-48 -21 -90 -73 -90 -109 0 -20 5 -23 35 -23 28 0 37 5
49 29 18 33 34 41 85 41 26 0 44 -7 57 -21 17 -19 17 -23 3 -47 -12 -22 -23
-28 -64 -32 -48 -5 -50 -6 -53 -37 -3 -33 -3 -33 40 -33 52 0 88 -22 88 -54 0
-57 -98 -78 -145 -31 -14 13 -25 29 -25 35 0 5 -18 10 -40 10 -39 0 -40 -1
-34 -27 16 -71 76 -113 162 -113 99 0 162 47 162 122 0 39 -34 88 -60 88 -6 0
2 11 18 25 38 32 46 65 28 110 -21 50 -68 75 -141 74 -33 0 -67 -3 -75 -7z"/>
        <path d="M3616 709 c-84 -23 -120 -130 -77 -226 32 -70 119 -96 175 -52 l26
20 0 -20 c0 -17 6 -21 35 -21 l35 0 0 150 0 150 -35 0 c-24 0 -35 -5 -35 -15
0 -19 -14 -19 -29 -1 -15 17 -59 24 -95 15z m108 -102 c16 -33 17 -45 7 -78
-29 -95 -131 -68 -131 35 0 60 23 88 68 84 32 -3 40 -9 56 -41z"/>
        <path d="M4692 710 c-117 -27 -139 -207 -33 -277 58 -39 147 -25 185 29 25 35
20 48 -17 48 -20 0 -39 -8 -50 -20 -9 -11 -27 -20 -40 -20 -31 0 -67 27 -67
50 0 17 9 20 98 22 l97 3 -3 39 c-8 97 -76 147 -170 126z m82 -76 c27 -27 18
-34 -44 -34 -61 0 -75 11 -48 38 17 17 74 15 92 -4z"/>
        <path d="M3190 560 l0 -151 38 3 37 3 3 63 3 62 54 0 54 0 3 -62 3 -63 35 0
35 0 3 148 3 147 -41 0 -40 0 0 -55 0 -55 -54 0 -55 0 -3 53 -3 52 -37 3 -38
3 0 -151z"/>
        <path d="M3892 563 l3 -148 35 0 35 0 3 63 3 62 54 0 54 0 3 -62 3 -63 38 -3
37 -3 0 150 0 151 -40 0 -40 0 0 -55 0 -55 -55 0 -55 0 0 55 0 55 -40 0 -41 0
3 -147z"/>
        <path d="M4240 560 l0 -150 50 0 50 0 53 106 52 105 5 -103 5 -103 35 0 35 0
3 148 3 147 -53 0 -53 0 -52 -102 -52 -103 0 103 -1 102 -40 0 -40 0 0 -150z"/>
    </g>
</svg>
