<svg width="114" height="103" viewBox="0 0 114 103" fill="none" xmlns="http://www.w3.org/2000/svg">
<g clip-path="url(#clip0_503_850)">
<path fill-rule="evenodd" clip-rule="evenodd" d="M18.1101 65.8602V74.0803C18.1101 76.4913 16.8061 78.0774 14.2257 78.0774C11.6454 78.0774 10.3651 76.4913 10.3651 74.0803V65.8602C10.3651 63.4294 11.6176 61.8631 14.2257 61.8631C16.8338 61.8631 18.1101 63.4294 18.1101 65.8602ZM14.2337 76.4635C15.6091 76.4635 16.2353 75.6268 16.2353 74.1715V65.765C16.2353 64.3335 15.5853 63.4691 14.2337 63.4691C12.882 63.4691 12.2518 64.3335 12.2518 65.765V74.1715C12.2241 75.6268 12.8503 76.4635 14.2337 76.4635ZM89.651 61.9464C87.0746 61.9464 85.7904 63.5127 85.7904 65.9434V74.1596C85.7904 76.5666 87.0746 78.1567 89.651 78.1567C92.2274 78.1567 93.5394 76.5706 93.5394 74.1596V65.9434C93.5314 63.5325 92.2512 61.9464 89.6431 61.9464H89.651ZM91.6566 74.239C91.6566 75.6942 91.0264 76.5349 89.651 76.5349C88.2756 76.5349 87.6493 75.6942 87.6493 74.239V65.8483C87.6493 64.4207 88.2994 63.5563 89.651 63.5563C91.0026 63.5563 91.6566 64.4207 91.6566 65.8483V74.239ZM38.7254 77.9862H36.8267V62.101H44.7542V77.9981H42.8714V63.7228H38.7174L38.7254 77.9862ZM39.7956 86.5157C37.1756 86.5157 35.9468 88.1296 35.9468 90.5762V98.9233C35.9468 101.37 37.1756 102.984 39.7956 102.984C42.4156 102.984 43.6721 101.37 43.6721 98.9233V96.9406H41.8567V99.0422C41.8567 100.497 41.2423 101.374 39.8471 101.374C38.4519 101.374 37.8335 100.497 37.8335 99.0422V90.4969C37.8335 89.0416 38.4717 88.1653 39.8471 88.1653C41.2225 88.1653 41.8567 89.0416 41.8567 90.4969V92.0394H43.6721V90.596C43.6641 88.1415 42.4394 86.5276 39.7876 86.5276L39.7956 86.5157ZM3.6149 98.729L5.11714 94.2759L7.89173 86.6862H10.0202V102.837H8.2881V89.9854L6.42516 95.3862L3.92803 102.837H1.94618V86.6862H3.63868L3.6149 98.729ZM17.6583 93.9705H21.8717V86.6862H23.7862V102.837H21.8717V95.5686H17.6583V102.837H15.7438V86.6862H17.6583V93.9705ZM28.5386 86.702L25.2527 102.837H27.0166L27.6785 99.5815H32.0386L32.7045 102.837H34.615L31.3331 86.6862L28.5386 86.702ZM27.9243 98.0548L29.815 88.7521L31.7492 98.0548H27.9243ZM48.0242 88.3397H44.8532V86.702H53.0898V88.3397H49.9189V102.853H48.0084L48.0242 88.3397ZM57.2993 86.702L54.0173 102.853H55.7812L56.4391 99.5974H60.7992L61.4572 102.853H63.3677L60.0857 86.702H57.2993ZM56.6849 98.0548L58.5756 88.7521L60.5099 98.0548H56.6849ZM72.4327 91.0441C72.4327 92.7571 71.9174 93.8199 70.4231 94.2481C72.0918 94.6883 72.722 95.9334 72.7379 97.7099V99.07C72.7379 101.493 71.4893 102.853 68.8138 102.853H64.8501V86.6862H68.6989C71.3744 86.6862 72.4248 87.8758 72.4248 90.255L72.4327 91.0441ZM68.6751 88.3397H66.7884V93.5542H68.2589C69.773 93.5542 70.5618 93.0942 70.5618 91.4129V90.4652C70.5618 89.0099 70.0465 88.3239 68.6751 88.3239V88.3397ZM68.8217 101.215C70.217 101.215 70.8591 100.509 70.8591 99.0224V97.5949C70.8591 95.7946 70.0941 95.1919 68.4531 95.1919H66.7884V101.215H68.8217ZM80.5979 93.9705H76.3845V86.6862H74.4819V102.837H76.3964V95.5686H80.6098V102.837H82.5203V86.6862H80.6098L80.5979 93.9705ZM86.1471 98.729L87.6652 94.2759L90.416 86.6862H92.5445V102.837H90.8282V89.9854L88.9653 95.3862L86.4444 102.837H84.4625V86.6862H86.151L86.1471 98.729ZM102.89 86.6862H100.955L96.3932 94.486V86.6862H94.4827V102.837H96.3932V97.4125L97.4 95.8263L101.074 102.841H103.036L98.5614 94.0459L102.89 86.6862ZM107.301 86.6862H110.076L113.374 102.837H111.463L110.805 99.5815H106.445L105.795 102.837H104.031L107.301 86.6862ZM108.574 88.7363L106.687 98.039H110.512L108.574 88.7363ZM46.6765 77.9981H53.6289V76.3842H48.5593V70.7296H52.6816V69.1435H48.5593V63.7149H53.6289V62.101H46.6765V77.9981ZM65.52 76.4318V80.179H63.6848V77.9981H56.784V80.179H54.9765V76.4318H56.0626C56.6413 75.8211 56.7602 75.0915 56.8078 74.116L57.4618 62.101H64.2437V76.4318H65.52ZM57.874 76.4318H62.3332L62.353 63.7149H59.2177L58.6628 74.0922C58.5716 75.2303 58.4012 75.9242 57.874 76.4318ZM72.6388 62.101H69.9118L66.6734 77.9981H68.4135L69.0635 74.7981H73.3364L73.9865 77.9981H75.8851L72.6388 62.101ZM69.3291 73.2674L71.1841 64.0916L73.0907 73.2674H69.3291ZM79.2383 77.9981H77.3794V62.101H84.1177V63.7149H79.2383V77.9981ZM97.2137 63.7228H102.089V62.1089H95.3508V78.006H97.2098L97.2137 63.7228ZM110.096 74.806H105.795L105.141 78.006H103.417L106.651 62.1089H109.362L112.597 78.006H110.714L110.096 74.806ZM109.826 73.2833L107.92 64.1075L106.065 73.2833H109.826ZM8.68447 63.6316H3.80515V77.9069H1.94618V62.0217H8.68447V63.6316ZM21.3207 77.9069H28.2136V80.0878H30.0488V76.3406H28.7685V62.0455H21.9866L21.3406 74.0605C21.289 75.036 21.1701 75.7616 20.5875 76.3763H19.5054V80.1235H21.3128L21.3207 77.9069ZM23.1797 74.005L23.7465 63.6316H26.8818V76.3485H22.3989C22.934 75.8291 23.1044 75.1589 23.1916 74.0129L23.1797 74.005ZM35.7288 54.4281C36.0736 54.5827 36.4225 54.7374 36.7752 54.8801L36.5572 54.1941L35.7328 54.4281M37.9326 53.7619L38.5787 55.5502C39.3358 55.808 40.1047 56.0261 40.8856 56.2164L39.8233 53.0798C39.1772 53.3336 38.547 53.5676 37.9287 53.7738M38.8562 45.8629C33.6201 51.0456 25.6769 54.1663 25.6769 54.1663C30.9409 52.8902 35.8868 50.5458 40.2078 47.2785C47.0254 41.9967 45.5469 36.1002 45.5469 36.1002C45.5469 36.1002 44.0764 40.6921 38.8403 45.8748M52.5666 13.3074C52.7688 14.1322 55.6266 23.8512 55.6266 23.8512L51.6272 12.8989C51.6272 12.8989 49.2767 14.7151 49.2767 17.0031C49.2767 20.5481 54.6515 24.569 55.8842 26.9164C56.832 28.8354 57.6633 30.8097 58.3734 32.8288C58.4146 31.4755 58.257 30.1234 57.9057 28.8158C57.3468 27.0394 53.3911 12.5579 53.3911 12.5579H53.3633C53.1968 12.5579 52.3882 12.5936 52.5706 13.351M51.2943 11.1423C51.3089 11.2903 51.3777 11.4276 51.4875 11.5279C51.5972 11.6281 51.7402 11.6843 51.8888 11.6855C51.9679 11.6859 52.0462 11.6697 52.1187 11.6379C52.1917 11.608 52.2578 11.5635 52.3129 11.5071C52.3689 11.4516 52.4133 11.3855 52.4437 11.3128C52.4722 11.2394 52.487 11.1615 52.4873 11.0828C52.4866 11.0041 52.4719 10.9263 52.4437 10.8528C52.4123 10.7806 52.368 10.7148 52.3129 10.6585C52.1969 10.5531 52.0455 10.4951 51.8888 10.4959C51.8097 10.496 51.7315 10.5122 51.6589 10.5435C51.586 10.5718 51.5199 10.615 51.4646 10.6703C51.4093 10.7256 51.3661 10.7918 51.3379 10.8647C51.3074 10.9389 51.2926 11.0185 51.2943 11.0987V11.1423ZM17.5196 28.7365C18.142 28.2534 18.6931 27.6847 19.1566 27.0473C19.1288 27.543 19.1169 28.0466 19.1169 28.5541C19.113 31.7958 19.6627 35.0144 20.742 38.071H5.54125L17.5196 28.7365ZM89.5678 28.7365C90.5566 27.9732 91.3601 26.9959 91.9182 25.878C92.4762 24.7601 92.7743 23.5304 92.7902 22.281V21.928C92.735 20.3588 92.2924 18.8276 91.502 17.471H106.834L100.833 25.6277H102.707C104.563 25.6277 106.376 26.178 107.919 27.209C109.462 28.24 110.664 29.7054 111.375 31.42C112.085 33.1346 112.271 35.0214 111.91 36.8419C111.548 38.6624 110.656 40.3348 109.344 41.6478C108.033 42.9608 106.362 43.8553 104.543 44.2184C102.723 44.5814 100.837 44.3967 99.1226 43.6875C97.4081 42.9783 95.9422 41.7765 94.9104 40.234C93.8785 38.6916 93.3269 36.8777 93.3253 35.0216H91.4386C91.4398 36.0469 91.5798 37.0674 91.8548 38.0551H77.5855L89.5678 28.7365ZM76.0674 28.5303C76.0696 26.4106 75.8357 24.2973 75.3698 22.2294H75.4728C75.4666 21.1838 75.6744 20.148 76.0834 19.1857C76.4924 18.2235 77.094 17.3552 77.8511 16.6343C78.6031 15.9092 79.496 15.3465 80.4745 14.9809C81.4529 14.6152 82.4959 14.4546 83.539 14.5089C85.4716 14.6066 87.2975 15.4249 88.657 16.8026C90.0164 18.1802 90.8109 20.0173 90.8837 21.9518V22.2373C90.8679 23.2001 90.6351 24.1469 90.2028 25.0071C89.7704 25.8674 89.1496 26.619 88.3866 27.2059L74.4145 38.0789C75.5084 35.0102 76.0675 31.7764 76.0674 28.5184M20.4487 19.87C19.9367 17.8734 18.8009 16.0925 17.2068 14.7866C15.6127 13.4806 13.6434 12.7179 11.5859 12.6095C10.2861 12.546 8.98691 12.7476 7.76738 13.2021C6.54785 13.6565 5.4334 14.3542 4.49176 15.2529C3.55011 16.1515 2.80093 17.2323 2.28974 18.4296C1.77855 19.6268 1.51601 20.9156 1.5181 22.2175H3.44049C3.4351 21.1723 3.6442 20.1371 4.05487 19.1761C4.46666 18.2146 5.06878 17.3466 5.82493 16.6242C6.58107 15.9018 7.47559 15.3401 8.45457 14.9728C9.43251 14.6059 10.4754 14.4439 11.5185 14.497C13.4498 14.5975 15.2737 15.4168 16.632 16.794C17.9903 18.1711 18.7847 20.0067 18.8593 21.9399V22.2294C18.8429 23.1915 18.6098 24.1375 18.1775 24.997C17.7452 25.8566 17.1247 26.6075 16.3622 27.194L0 39.9347H21.2811V39.443C22.577 42.5596 24.4126 45.4228 26.7035 47.9011C26.7502 49.2724 26.8946 50.6386 27.1355 51.9894C27.1355 51.9894 27.1355 51.343 27.8331 49.0471C28.6932 46.4656 31.0833 39.8752 34.1512 37.3453C38.0079 34.173 43.1013 33.2095 46.1177 32.7733C49.134 32.3371 50.1289 31.7423 51.1238 27.9435C52.1187 24.1447 48.4523 19.0413 46.7638 16.444C45.7405 14.7585 45.2078 12.8207 45.2258 10.8488C45.2258 10.8488 45.1466 10.9123 44.6828 10.8964C44.1848 10.8136 43.6989 10.6697 43.2361 10.4682C43.6256 10.4835 44.0135 10.4088 44.3697 10.2501C44.8151 10.0099 45.2236 9.70671 45.5826 9.34994C45.227 9.32012 44.8874 9.18944 44.6035 8.97323C44.3601 8.72451 44.1628 8.43449 44.0209 8.11672C44.0209 8.11672 45.4835 8.5648 46.5854 7.81931C47.3931 7.32017 48.3141 7.034 49.2623 6.98754C50.2106 6.94108 51.1551 7.13584 52.0077 7.55364C54.275 8.58066 54.0451 12.1297 54.0451 12.1297C54.0451 12.1297 58.3417 27.4994 59.079 30.739C59.8162 33.9787 58.5518 35.6561 58.5518 35.6561C58.5295 35.2001 58.4455 34.7492 58.3021 34.3158C58.1396 33.7012 57.2715 31.54 56.1775 29.0815L56.1141 28.9665C55.6583 28.0505 55.0994 26.9125 55.0994 26.9125C55.2467 27.7394 55.3526 28.5732 55.4165 29.4106C55.4987 30.5506 55.7264 31.6754 56.0943 32.7574C56.4391 33.7646 57.9057 36.3976 57.6203 39.102C57.0416 44.5979 53.3712 47.1159 41.1551 52.5009L42.6732 56.5892C48.9627 57.6952 55.4412 56.6545 61.0683 53.6341C66.6954 50.6137 71.1445 45.7889 73.7011 39.9347H92.5762C93.4257 41.6771 94.7096 43.1712 96.304 44.2729C97.8984 45.3747 99.7496 46.047 101.679 46.225C103.609 46.403 105.552 46.0808 107.321 45.2893C109.09 44.4978 110.625 43.2638 111.779 41.7062C112.932 40.1487 113.666 38.32 113.908 36.3966C114.15 34.4732 113.892 32.5198 113.16 30.7248C112.428 28.9298 111.247 27.3537 109.729 26.1483C108.211 24.943 106.409 24.1492 104.495 23.8433L110.599 15.5161H90.0791C88.9689 14.37 87.591 13.5185 86.0696 13.0384C84.5482 12.5583 82.9313 12.4647 81.3648 12.7661C79.7982 13.0675 78.3313 13.7544 77.0965 14.7648C75.8616 15.7752 74.8977 17.0772 74.2917 18.5535C72.2237 12.9955 68.4739 8.22145 63.5648 4.89688C58.6558 1.57231 52.8322 -0.137096 46.9059 0.00694478C40.9795 0.150986 35.2458 2.1413 30.5039 5.70043C25.7621 9.25957 22.2484 14.2102 20.4527 19.8621" fill="url(#paint0_radial_503_850)"/>
</g>
<defs>
<radialGradient id="paint0_radial_503_850" cx="0" cy="0" r="1" gradientUnits="userSpaceOnUse" gradientTransform="translate(57.002 51.4977) scale(54.3106 54.3332)">
<stop stop-color="#4B0D1B"/>
<stop offset="0.99" stop-color="#77151E"/>
</radialGradient>
<clipPath id="clip0_503_850">
<rect width="114" height="103" fill="white"/>
</clipPath>
</defs>
</svg>
