<?xml version="1.0" encoding="UTF-8"?> <svg xmlns="http://www.w3.org/2000/svg" width="136" height="114" viewBox="0 0 136 114" fill="none"> <path d="M1.54238 113.885L135.415 36.8702C135.591 36.7808 135.74 36.6433 135.843 36.4729C135.946 36.3026 136.001 36.1063 136 35.9063V1.07878C136 0.937116 135.973 0.796835 135.919 0.665951C135.866 0.535067 135.787 0.416143 135.688 0.315968C135.59 0.215794 135.472 0.136331 135.343 0.0821175C135.214 0.0279036 135.076 0 134.936 0L41.0443 0C40.8314 0.00198791 40.6239 0.0679388 40.448 0.189514C40.2721 0.311089 40.1357 0.482828 40.056 0.683017L0.0819135 112.519C0.002229 112.722 -0.014911 112.944 0.0327577 113.157C0.0804264 113.37 0.190661 113.563 0.348898 113.711C0.507136 113.859 0.705931 113.955 0.919021 113.986C1.13211 114.017 1.34947 113.982 1.54238 113.885Z" fill="white"></path> <path d="M134.936 0.791534C135.011 0.791534 135.083 0.821797 135.136 0.875667C135.19 0.929537 135.219 1.0026 135.219 1.07878V35.9063C135.22 35.9596 135.205 36.0119 135.177 36.0571C135.149 36.1023 135.109 36.1386 135.062 36.1616L1.18347 113.177C1.14432 113.187 1.10301 113.187 1.06386 113.177C1.01714 113.175 0.971428 113.163 0.930789 113.139C0.890149 113.116 0.855847 113.083 0.830938 113.042C0.804774 112.999 0.790923 112.95 0.790923 112.899C0.790923 112.848 0.804774 112.798 0.830938 112.755L40.7798 0.97665C40.8016 0.923249 40.8382 0.87737 40.8851 0.84453C40.932 0.81169 40.9873 0.793287 41.0442 0.791534H134.936ZM134.936 0H41.0442C40.8314 0.00198791 40.6238 0.0679388 40.4479 0.189514C40.272 0.311089 40.1356 0.482828 40.0559 0.683017L0.0818172 112.519C0.0171157 112.682 -0.00720237 112.859 0.0109839 113.034C0.0291701 113.209 0.0893083 113.377 0.186154 113.523C0.282999 113.669 0.413611 113.789 0.566598 113.872C0.719585 113.955 0.890301 113.999 1.06386 114C1.22981 113.999 1.39331 113.959 1.54229 113.885L135.415 36.8701C135.591 36.7808 135.739 36.6433 135.843 36.4729C135.946 36.3026 136.001 36.1063 136 35.9063V1.07878C136 0.937116 135.972 0.796835 135.919 0.665951C135.866 0.535067 135.787 0.416143 135.688 0.315968C135.59 0.215794 135.472 0.136331 135.343 0.0821175C135.214 0.0279036 135.076 0 134.936 0" fill="#64BDE1"></path> <path d="M38.6961 28.5335L0.100696 112.462C0.011231 112.655 -0.0192921 112.872 0.0130133 113.084C0.0453186 113.295 0.138991 113.492 0.282104 113.65C0.425218 113.807 0.611298 113.918 0.816654 113.968C1.02201 114.018 1.23735 114.004 1.43526 113.93L122.51 69.2464C122.714 69.1696 122.891 69.0312 123.016 68.8498C123.14 68.6684 123.208 68.4526 123.208 68.2314V28.9867C123.208 28.8434 123.18 28.7015 123.126 28.5694C123.071 28.4372 122.991 28.3174 122.89 28.217C122.789 28.1166 122.67 28.0375 122.538 27.9844C122.407 27.9314 122.267 27.9053 122.126 27.9079H39.6593C39.4544 27.909 39.2541 27.9698 39.0823 28.0829C38.9104 28.1961 38.7742 28.3569 38.6898 28.5462" fill="#64BDE1"></path> <path d="M44.3302 34.7062H42.4417V30.0719H40.7483V40.8534H42.4228V36.251H44.3113V40.8534H46.0173V30.0719H44.3302V34.7062ZM114.98 30.0719H113.312V40.8534H114.987L114.98 30.0719ZM48.7998 30.0719L47.0938 40.8534H48.6361L48.9257 38.9384H50.9905L51.2737 40.8534H52.9608L51.2549 30.0719H48.7998ZM49.1397 37.451L49.9455 31.9869L50.7513 37.451H49.1397ZM63.2912 34.5339L62.6616 36.9148V30.0719H61.1886V40.8534H62.9134L64.3173 35.8999L64.9971 33.2444V40.8534H66.508V30.0719H64.6635L63.2912 34.5339ZM89.8881 38.1468L90.0706 31.6167H91.5311V40.8534H93.2371V30.0719H88.5031L88.2262 38.2426C88.1947 39.2448 87.9555 39.3533 87.1938 39.3533V40.898H87.4519C89.1264 40.898 89.8251 40.1257 89.8881 38.1468ZM112.343 38.2107V36.8063C112.343 35.0764 111.518 34.1317 109.825 34.1317H109.038V30.0719H107.357V40.8534H109.825C111.499 40.8534 112.343 39.915 112.343 38.1851V38.2107ZM109.057 35.6318H109.844C110.379 35.6318 110.668 35.8807 110.668 36.6531V38.3C110.668 39.0724 110.379 39.315 109.844 39.315H109.057V35.6318ZM99.57 38.1851V36.7808C99.57 35.0509 98.7453 34.1062 97.0519 34.1062H96.2588V30.0719H94.5842V40.8534H97.0519C98.7264 40.8534 99.57 39.915 99.57 38.1851ZM96.2776 35.6318H97.0708C97.6059 35.6318 97.8892 35.8807 97.8892 36.6531V38.3C97.8892 39.0724 97.6059 39.315 97.0708 39.315H96.2776V35.6318ZM102.434 36.2063H104.323V40.8534H106.029V30.0719H104.323V34.7062H102.434V30.0719H100.76V40.8534H102.434V36.2063ZM59.3063 30.0719H57.6004V39.3341H55.7118V30.0719H54.0184V40.8534H58.425V42.3088H60.0555V39.366H59.3063V30.0719ZM84.6253 40.8534H86.3187L84.6128 30.0464H82.164L80.458 40.8534H81.994L82.2836 38.8937H84.3547L84.6253 40.8534ZM82.4976 37.4255L83.3034 31.9614L84.1091 37.4255H82.4976ZM120.898 31.5911V30.0719H116.328V40.8534H120.866V39.3341H117.971V36.1425H120.275V34.6296H117.971V31.6167L120.898 31.5911ZM70.2976 29.9187C68.6483 29.9187 67.7796 30.9081 67.7796 32.638V38.3C67.7796 40.0299 68.6735 41.0193 70.2976 41.0193C71.9218 41.0193 72.8157 40.0299 72.8157 38.3V32.6635C72.8157 30.9337 71.9155 29.9442 70.2976 29.9442V29.9187ZM71.1349 38.3958C71.1349 39.1682 70.7949 39.4618 70.2662 39.4618C69.7374 39.4618 69.3974 39.1682 69.3974 38.3958V32.555C69.3974 31.7826 69.7311 31.489 70.2662 31.489C70.8012 31.489 71.1349 31.7826 71.1349 32.555V38.3958ZM75.7366 36.251H77.6252V40.8534H79.3248V30.0719H77.6252V34.7062H75.7366V30.0719H74.0621V40.8534H75.7366V36.251ZM99.2363 44.5876V43.0428H94.6661V53.8562H99.2363V52.3434H96.3406V49.1517H98.6446V47.6005H96.3406V44.5876H99.2363ZM104.272 53.8562H105.997L103.674 47.875L106.01 43.0556H104.335L102.138 47.7665V43.0428H100.464V53.8562H102.138V50.5305L102.661 49.5475L104.272 53.8562ZM110.278 53.8562V44.5876H112.053V43.0428H106.872V44.5876H108.622V53.8562H110.278ZM118.059 51.1816V49.79C118.059 48.0601 117.24 47.1154 115.541 47.1154H114.748V43.0428H113.073V53.8562H115.541C117.215 53.8562 118.059 52.9115 118.059 51.1816ZM114.773 48.6283H115.566C116.095 48.6283 116.384 48.8772 116.384 49.6496V51.271C116.384 52.0433 116.095 52.2923 115.566 52.2923H114.773V48.6283ZM87.3134 47.1026V45.6983C87.3134 43.9684 86.495 43.0237 84.7953 43.0237H82.3276V53.8562H84.0021V49.79H84.7953C86.4698 49.79 87.3134 48.8517 87.3134 47.1218V47.1026ZM84.0273 44.5685H84.8205C85.3556 44.5685 85.6389 44.8174 85.6389 45.5898V47.2367C85.6389 48.0091 85.3556 48.258 84.8205 48.258H84.0399L84.0273 44.5685ZM75.7429 53.8562H77.43V44.5876H79.3186V53.8562H81.0308V43.0428H75.7429V53.8562ZM119.035 53.8562H120.709V43.0428H119.035V53.8562ZM90.8953 42.9216C89.2523 42.9216 88.3772 43.911 88.3772 45.6409V51.2582C88.3772 52.9881 89.2774 53.9775 90.8953 53.9775C92.5131 53.9775 93.4133 52.9881 93.4133 51.2582V45.6409C93.4133 43.911 92.5131 42.9216 90.8953 42.9216ZM91.764 51.3667C91.764 52.1391 91.4304 52.4327 90.8953 52.4327C90.3602 52.4327 90.0203 52.1391 90.0203 51.3667V45.526C90.0203 44.76 90.3539 44.4663 90.889 44.4663C91.4241 44.4663 91.7577 44.76 91.7577 45.526L91.764 51.3667ZM117.499 60.4821L116.869 62.8567V56.0138H115.377V66.8272H117.089L118.493 61.8673L119.173 59.2118V66.8272H120.684V56.0138H118.839L117.499 60.4821ZM92.7335 55.8925C91.0904 55.8925 90.2154 56.8819 90.2154 58.6118V64.2291C90.2154 65.9654 91.1156 66.9484 92.7335 66.9484C94.3513 66.9484 95.2515 65.9654 95.2515 64.2291V58.6118C95.2515 56.8819 94.3513 55.8925 92.7335 55.8925ZM93.6022 64.3377C93.6022 65.11 93.2623 65.4037 92.7335 65.4037C92.2047 65.4037 91.8647 65.11 91.8647 64.3377V58.5033C91.8647 57.7309 92.1984 57.4373 92.7335 57.4373C93.2686 57.4373 93.6022 57.7309 93.6022 58.5033V64.3377ZM86.6776 56.0393H84.2036V66.8527H85.8844V62.7673H86.6776C88.3521 62.7673 89.1956 61.8226 89.1956 60.0927V58.6884C89.1956 56.9585 88.3772 56.0138 86.6776 56.0138V56.0393ZM87.4959 60.2012C87.4959 60.9736 87.2064 61.2226 86.6776 61.2226H85.8844V57.5585H86.6776C87.2064 57.5585 87.4959 57.8075 87.4959 58.5799V60.2012ZM98.9405 55.8925C97.2974 55.8925 96.4224 56.8819 96.4224 58.6118V64.2291C96.4224 65.9654 97.2786 66.9484 98.9405 66.9484C100.602 66.9484 101.459 65.9654 101.459 64.2291V62.7993H99.8721V64.3377C99.8721 65.11 99.5385 65.3909 99.0034 65.3909C98.4683 65.3909 98.141 65.11 98.141 64.3377V58.5033C98.141 57.7309 98.4746 57.4373 99.0034 57.4373C99.5322 57.4373 99.8721 57.7309 99.8721 58.5033V59.6587H101.459V58.6118C101.459 56.8819 100.602 55.8925 98.9405 55.8925ZM105.072 55.8925C103.423 55.8925 102.554 56.8819 102.554 58.6118V64.2291C102.554 65.9654 103.404 66.9484 105.072 66.9484C106.74 66.9484 107.59 65.9654 107.59 64.2291V62.7993H106.01V64.3377C106.01 65.11 105.67 65.3909 105.141 65.3909C104.612 65.3909 104.272 65.11 104.272 64.3377V58.5033C104.272 57.7309 104.606 57.4373 105.141 57.4373C105.676 57.4373 106.01 57.7309 106.01 58.5033V59.6587H107.59V58.6118C107.59 56.8819 106.74 55.8925 105.072 55.8925ZM110.863 60.4821L110.234 62.8567V56.0138H108.742V66.8272H110.461L111.864 61.8673L112.551 59.2118V66.8272H114.055V56.0138H112.217L110.863 60.4821Z" fill="white"></path> <path d="M59.3126 15.3965C59.3279 16.0286 59.2053 16.6564 58.9538 17.2349C58.734 17.7299 58.372 18.1459 57.9151 18.4286C57.4569 18.7045 56.9339 18.8501 56.4011 18.8501C55.8683 18.8501 55.3453 18.7045 54.8871 18.4286C54.4452 18.1389 54.0971 17.7238 53.8862 17.2349C53.6312 16.6704 53.5022 16.0557 53.5085 15.4348V15.0391C53.4957 14.4113 53.6181 13.7883 53.8673 13.2134C54.0788 12.7141 54.4343 12.2913 54.8871 12.0006C55.3404 11.716 55.8649 11.5697 56.3979 11.5793C56.9321 11.5701 57.4579 11.7139 57.9151 11.9942C58.3628 12.2825 58.7173 12.6975 58.9349 13.1879C59.1832 13.7609 59.3077 14.3813 59.3 15.0072L59.3126 15.3965ZM58.085 15.0072C58.1243 14.3754 57.9704 13.7468 57.6444 13.2071C57.5008 13.0116 57.3142 12.8529 57.0995 12.7435C56.8847 12.6342 56.6477 12.5772 56.4074 12.5772C56.1671 12.5772 55.9301 12.6342 55.7153 12.7435C55.5005 12.8529 55.3139 13.0116 55.1704 13.2071C54.8448 13.7357 54.6866 14.3527 54.7171 14.9752V15.3838C54.6742 16.0345 54.835 16.6824 55.1767 17.2349C55.3165 17.4403 55.5052 17.6065 55.7254 17.7181C55.9455 17.8297 56.1898 17.883 56.4357 17.8733C56.6822 17.8867 56.9278 17.835 57.1485 17.7231C57.3693 17.6111 57.5575 17.4429 57.6947 17.2349C58.0189 16.6875 58.1704 16.0528 58.1291 15.4157L58.085 15.0072Z" fill="#64BDE1"></path> <path d="M64.9279 12.6645H61.6922V14.3816H63.1212C63.582 14.3715 64.0395 14.463 64.4621 14.6497C64.8202 14.8089 65.1228 15.0736 65.3308 15.4093C65.5312 15.753 65.6336 16.1463 65.6267 16.5455C65.639 16.845 65.5855 17.1436 65.4701 17.4196C65.3547 17.6956 65.1802 17.9421 64.9594 18.1414C64.4572 18.5759 63.8125 18.8037 63.1527 18.7797H60.5024V11.675H64.909L64.9279 12.6645ZM61.6922 15.3774V17.7711H63.1149C63.2885 17.7813 63.4624 17.7567 63.6266 17.6986C63.7908 17.6406 63.9421 17.5503 64.0718 17.4328C64.1883 17.317 64.2794 17.1775 64.3391 17.0235C64.3987 16.8695 64.4256 16.7044 64.418 16.5392C64.4257 16.3826 64.3999 16.2262 64.3423 16.0808C64.2847 15.9353 64.1967 15.8042 64.0844 15.6966C63.8258 15.4726 63.4922 15.3583 63.1527 15.3774H61.6922Z" fill="#64BDE1"></path> <path d="M67.8551 16.1307V18.7543H66.6465V11.6752H69.3156C70.0025 11.635 70.6784 11.8635 71.2041 12.3135C71.431 12.5171 71.6103 12.7694 71.729 13.0521C71.8477 13.3347 71.9028 13.6407 71.8903 13.9476C71.9075 14.2521 71.8558 14.5565 71.739 14.8376C71.6222 15.1186 71.4436 15.3688 71.2167 15.569C70.676 15.9854 70.006 16.1915 69.3282 16.1499L67.8551 16.1307ZM67.8803 15.1541H69.3408C69.6962 15.1787 70.0481 15.0696 70.3291 14.8477C70.4465 14.7328 70.5378 14.5933 70.5965 14.439C70.6552 14.2846 70.68 14.1191 70.6691 13.954C70.6775 13.7848 70.6511 13.6157 70.5915 13.4574C70.5318 13.2992 70.4404 13.1552 70.3228 13.0348C70.0649 12.798 69.7263 12.6721 69.3786 12.6837H67.8803V15.1541Z" fill="#64BDE1"></path> <path d="M76.3473 17.1073H73.653L73.0864 18.7542H71.8274L74.4651 11.675H75.5415L78.1855 18.7542H76.9265L76.3473 17.1073ZM73.9929 16.1115H76.0137L75.0001 13.1751L73.9929 16.1115Z" fill="#64BDE1"></path> <path d="M82.5165 13.603C82.5202 13.4566 82.4896 13.3114 82.4272 13.1794C82.3648 13.0473 82.2724 12.9322 82.1576 12.8434C81.877 12.6423 81.5376 12.5433 81.1945 12.5625C80.8817 12.5525 80.5751 12.6516 80.3258 12.8434C80.2147 12.9265 80.1248 13.0353 80.0635 13.1608C80.0022 13.2862 79.9712 13.4247 79.9732 13.5647H78.7646C78.7586 13.1958 78.8713 12.8351 79.0856 12.537C79.3047 12.2225 79.6085 11.9788 79.9606 11.8348C80.4612 11.6275 81.0033 11.5442 81.542 11.5919C82.0807 11.6397 82.6003 11.817 83.0579 12.1093C83.2781 12.2852 83.4536 12.512 83.5696 12.7707C83.6857 13.0295 83.739 13.3127 83.7251 13.5966C83.7238 13.914 83.6223 14.2227 83.4356 14.4775C83.23 14.7613 82.9511 14.9822 82.6298 15.1158C82.9849 15.2314 83.2967 15.4541 83.5237 15.7542C83.7374 16.0543 83.8459 16.4183 83.8322 16.7883C83.8375 17.079 83.7733 17.3668 83.645 17.627C83.5168 17.8871 83.3283 18.1118 83.0956 18.282C82.5359 18.6823 81.8596 18.8801 81.1756 18.8437C80.7178 18.8495 80.2637 18.7605 79.841 18.582C79.4888 18.435 79.1853 18.1892 78.966 17.8734C78.7661 17.5491 78.6694 17.1702 78.689 16.7883H79.8977C79.8974 16.9372 79.9307 17.0842 79.9951 17.2181C80.0595 17.352 80.1532 17.4691 80.2691 17.5606C80.536 17.7731 80.8679 17.8838 81.2071 17.8734C81.5773 17.8911 81.9427 17.7833 82.2458 17.567C82.3686 17.4753 82.4676 17.3549 82.5345 17.2159C82.6014 17.077 82.6341 16.9237 82.6298 16.7691C82.6448 16.6075 82.6218 16.4445 82.5627 16.2936C82.5036 16.1427 82.4101 16.0082 82.2898 15.901C81.9944 15.7024 81.6426 15.6082 81.2889 15.6329H80.4517V14.6818H81.2071C82.0464 14.6818 82.4661 14.3307 82.4661 13.6285" fill="#64BDE1"></path> <path d="M90.5617 15.3965C90.5751 16.0244 90.4526 16.6475 90.2029 17.2222C89.992 17.7183 89.6389 18.1386 89.1894 18.4286C88.7344 18.7148 88.2075 18.8611 87.6722 18.8499C87.1394 18.8577 86.6154 18.7116 86.1614 18.4286C85.7133 18.139 85.3571 17.7246 85.1353 17.2349C84.8876 16.6684 84.763 16.0545 84.7702 15.4348V15.0391C84.7574 14.4113 84.8798 13.7883 85.129 13.2134C85.3449 12.7149 85.702 12.2927 86.1551 12.0006C86.6084 11.716 87.1329 11.5697 87.6659 11.5793C88.198 11.5706 88.7217 11.7145 89.1768 11.9942C89.6259 12.2808 89.9809 12.6963 90.1966 13.1879C90.4449 13.7609 90.5694 14.3813 90.5617 15.0072V15.3965ZM89.3467 15.0072C89.3846 14.3764 89.2332 13.7488 88.9124 13.2071C88.7738 13.0004 88.5853 12.8332 88.3649 12.7215C88.1445 12.6097 87.8995 12.5571 87.6534 12.5687C87.4122 12.5614 87.1732 12.6161 86.9586 12.7277C86.7439 12.8393 86.5607 13.0042 86.4258 13.2071C86.0971 13.7343 85.9387 14.3524 85.9726 14.9752V15.3838C85.9261 16.0348 86.0872 16.6838 86.4321 17.2349C86.5707 17.4416 86.7591 17.6088 86.9796 17.7205C87.2 17.8323 87.445 17.8849 87.6911 17.8733C87.9376 17.8867 88.1832 17.835 88.404 17.7231C88.6247 17.6111 88.8129 17.4429 88.9502 17.2349C89.2743 16.6875 89.4259 16.0528 89.3845 15.4157L89.3467 15.0072Z" fill="#64BDE1"></path> <path d="M91.7578 18.7543V11.6751H94.15C94.7874 11.6318 95.4215 11.7999 95.9566 12.1539C96.1667 12.3252 96.3335 12.5449 96.443 12.7947C96.5525 13.0445 96.6015 13.3172 96.5861 13.5901C96.5886 13.9013 96.4986 14.206 96.3281 14.4647C96.1386 14.7385 95.8736 14.9494 95.5663 15.0711C95.9178 15.1508 96.2288 15.3572 96.4414 15.652C96.6543 15.9528 96.7648 16.3158 96.7561 16.6861C96.7712 16.9729 96.7225 17.2596 96.6135 17.5248C96.5046 17.79 96.3381 18.0269 96.1266 18.2181C95.6053 18.6067 94.9656 18.7965 94.3199 18.7543H91.7578ZM92.9728 14.6817H94.1625C94.4792 14.6996 94.7923 14.6072 95.0502 14.42C95.1554 14.3295 95.2386 14.2156 95.2932 14.0872C95.3478 13.9587 95.3723 13.8192 95.3649 13.6795C95.3787 13.5391 95.359 13.3974 95.3075 13.2663C95.256 13.1352 95.1742 13.0186 95.069 12.9263C94.7971 12.7461 94.4737 12.663 94.15 12.6901H92.9728V14.6817ZM92.9728 15.5881V17.7968H94.3199C94.6426 17.8156 94.9608 17.7133 95.2138 17.5095C95.3225 17.4091 95.4077 17.2854 95.4633 17.1473C95.5188 17.0093 95.5433 16.8604 95.5349 16.7116C95.5574 16.5576 95.5446 16.4005 95.4973 16.2524C95.45 16.1044 95.3695 15.9694 95.2622 15.8582C95.1549 15.7469 95.0237 15.6623 94.8788 15.611C94.7339 15.5597 94.5792 15.5432 94.4269 15.5626L92.9728 15.5881Z" fill="#64BDE1"></path> <path d="M101.836 17.1073H99.1295L98.563 18.7542H97.304L99.9353 11.675H101.031L103.668 18.7542H102.409L101.836 17.1073ZM99.4632 16.1115H101.484L100.477 13.1751L99.4632 16.1115Z" fill="#64BDE1"></path> <path d="M110.089 18.7542H108.887V15.6136H105.758V18.7542H104.55V11.675H105.758V14.6241H108.887V11.675H110.089" fill="#64BDE1"></path> <path d="M115.774 11.675H116.989V18.7542H115.774V13.7113L112.708 18.7542H111.499V11.675H112.708V16.7243" fill="#64BDE1"></path> <path d="M122.491 15.5944H119.626V17.7711H122.975V18.7542H118.411V11.675H122.938V12.6645H119.626V14.6241H122.491" fill="#64BDE1"></path> </svg> 