<?xml version="1.0" encoding="UTF-8"?> <!-- Generator: Adobe Illustrator 26.0.2, SVG Export Plug-In . SVG Version: 6.00 Build 0) --> <svg xmlns="http://www.w3.org/2000/svg" xmlns:xlink="http://www.w3.org/1999/xlink" id="Layer_1" x="0px" y="0px" viewBox="0 0 218 112" style="enable-background:new 0 0 218 112;" xml:space="preserve"> <style type="text/css"> .st0{clip-path:url(#SVGID_00000174590225584634287440000015170881460638874516_);fill:#978175;} .st1{clip-path:url(#SVGID_00000174590225584634287440000015170881460638874516_);fill:none;stroke:#978175;stroke-width:0.25;} .st2{fill:#978175;} </style> <g> <defs> <rect id="SVGID_1_" width="218" height="112"></rect> </defs> <clipPath id="SVGID_00000111151654980034289020000005016277722522801839_"> <use xlink:href="#SVGID_1_" style="overflow:visible;"></use> </clipPath> <path style="clip-path:url(#SVGID_00000111151654980034289020000005016277722522801839_);fill:#978175;" d="M212.78,80.31 c-0.89-0.08-1.71-0.86-1.71-1.87c0-1.13,0.74-2,2.22-2c0.44,0,0.91,0.03,1.21,0.05v3.82H212.78z M208.49,84.48h1.92l2.32-3.33h1.77 v2.49h-0.86v0.84h3.43v-0.84h-1.06v-7.15h1.06v-0.84h-1.06c-0.64,0-2.05-0.03-2.78-0.03c-2.66,0-3.82,1.3-3.82,2.86 c0,1.21,0.96,2.07,2,2.4l-2.19,2.76h-0.74V84.48z M195.32,84.48h2.32l5.28-7v6.16h-1.08v0.84h3.62v-0.84h-1.03v-7.15h1.06v-0.84 h-2.32l-5.28,7.06v-6.22h1.04v-0.84h-3.62v0.84h1.06v7.15h-1.06V84.48z M181.76,84.48h3.62v-0.82h-1.04v-3.25h4.94v3.25h-1.04v0.82 h3.63v-0.82h-1.08v-7.18h1.08v-0.82h-3.63v0.82h1.04v3.13h-4.94v-3.13h1.04v-0.82h-3.62v0.82h1.06v7.18h-1.06V84.48z M172.06,80.7 l1.09-2.83c0.18-0.47,0.42-1.09,0.5-1.36h0.03c0.1,0.27,0.32,0.89,0.52,1.36l1.13,2.83H172.06z M169.01,84.48h2.98v-0.82h-1.09 l0.82-2.1h3.97l0.86,2.1h-1.04v0.82h3.38v-0.82h-0.74l-3.37-8.01h-1.77l-3.25,8.01h-0.76V84.48z M161.02,79.6v-3.15 c0.34-0.02,0.86-0.03,1.33-0.03c1.31,0,1.87,0.64,1.87,1.56c0,0.94-0.72,1.61-1.8,1.61H161.02z M162.44,80.38 c1.41,0,2.1,0.66,2.1,1.56c0,1.11-0.74,1.77-2.09,1.77c-0.52,0-1.13-0.03-1.43-0.07v-3.26H162.44z M158.45,83.66v0.82h1.06 c0.59,0,2.29,0.03,3.13,0.03c2.05,0,3.5-0.77,3.5-2.57c0-1.19-0.91-1.93-2.2-2.09v-0.03c1.03-0.18,1.87-0.94,1.87-2.02 c0-1.23-0.84-2.19-3.1-2.19c-0.89,0-2.66,0.03-3.2,0.03h-1.06v0.82h1.06v7.18H158.45z M150.11,83.78c-1.85,0-3.25-1.5-3.25-3.7 c0-2.31,1.31-3.72,3.21-3.72c1.9,0,3.23,1.41,3.23,3.72C153.3,82.28,152.13,83.78,150.11,83.78 M150.07,84.65 c2.91,0,4.94-1.8,4.94-4.59c0-2.84-2.05-4.57-4.94-4.57c-2.89,0-4.93,1.87-4.93,4.59C145.14,82.92,147.25,84.65,150.07,84.65 M138.43,80.36c1.28,0,1.97,0.67,1.97,1.6c0,1.16-0.86,1.87-2.1,1.87c-0.74,0-1.45-0.27-1.78-0.69c0.32-0.1,0.54-0.39,0.54-0.71 c0-0.49-0.4-0.79-0.88-0.79c-0.49,0-0.86,0.39-0.86,0.89c0,1.06,1.24,2.1,3.28,2.1c1.95,0,3.48-0.99,3.48-2.62 c0-1.01-0.66-1.92-2.04-2.09v-0.03c1.13-0.32,1.67-1.21,1.67-2.05c0-1.46-1.21-2.32-2.89-2.32c-0.89,0-1.73,0.27-2.24,0.77v-0.64 h-0.93v2.49h0.93l0.05-0.84c0.32-0.56,0.89-0.96,1.72-0.96c0.99,0,1.68,0.59,1.68,1.6c0,1.04-0.74,1.63-1.58,1.63h-0.88v0.79 H138.43z M125.89,80.7l1.09-2.83c0.18-0.47,0.42-1.09,0.5-1.36h0.03c0.1,0.27,0.32,0.89,0.52,1.36l1.13,2.83H125.89z M122.84,84.48 h2.98v-0.82h-1.09l0.82-2.1h3.97l0.86,2.1h-1.04v0.82h3.38v-0.82h-0.74l-3.36-8.01h-1.77l-3.25,8.01h-0.76V84.48z M115.88,80.26 v-3.79c0.37-0.02,0.91-0.03,1.24-0.03c1.43,0,2.12,0.79,2.12,1.9c0,1.13-0.67,1.97-2.17,1.97 C116.68,80.31,116.33,80.31,115.88,80.26 M113.25,84.48h4.07v-0.82h-1.45v-2.59c0.47,0.05,1.13,0.05,1.48,0.05 c2.3,0,3.52-1.21,3.52-2.74c0-1.46-0.89-2.76-3.67-2.76c-0.62,0-2.32,0.03-2.84,0.03h-1.11v0.82h1.11v7.18h-1.11V84.48z M104.64,83.66v-3.58c0.45-0.05,0.91-0.07,1.25-0.07c1.45,0,2.19,0.71,2.19,1.82c0,1.19-0.77,1.88-2.27,1.88 C105.4,83.71,105.03,83.69,104.64,83.66 M102.07,83.66v0.82h1.06c0.71,0,1.65,0.03,2.68,0.03c2.46,0,3.89-0.94,3.89-2.78 c0-1.6-1.18-2.56-3.53-2.56c-0.39,0-1.04,0.02-1.51,0.07v-2.78h3.45l0.08,1.57h0.92v-2.39h-7.03v0.82h1.06v7.18H102.07z M93.73,83.78c-1.85,0-3.25-1.5-3.25-3.7c0-2.31,1.31-3.72,3.21-3.72s3.23,1.41,3.23,3.72C96.92,82.28,95.74,83.78,93.73,83.78 M93.69,84.65c2.91,0,4.94-1.8,4.94-4.59c0-2.84-2.05-4.57-4.94-4.57s-4.93,1.87-4.93,4.59C88.76,82.92,90.87,84.65,93.69,84.65"></path> <path style="clip-path:url(#SVGID_00000111151654980034289020000005016277722522801839_);fill:none;stroke:#978175;stroke-width:0.25;" d=" M212.78,80.31c-0.89-0.08-1.71-0.86-1.71-1.87c0-1.13,0.74-2,2.22-2c0.44,0,0.91,0.03,1.21,0.05v3.82H212.78z M208.49,84.48h1.92 l2.32-3.33h1.77v2.49h-0.86v0.84h3.43v-0.84h-1.06v-7.15h1.06v-0.84h-1.06c-0.64,0-2.05-0.03-2.78-0.03c-2.66,0-3.82,1.3-3.82,2.86 c0,1.21,0.96,2.07,2,2.4l-2.19,2.76h-0.74V84.48z M195.32,84.48h2.32l5.28-7v6.16h-1.08v0.84h3.62v-0.84h-1.03v-7.15h1.06v-0.84 h-2.32l-5.28,7.06v-6.22h1.04v-0.84h-3.62v0.84h1.06v7.15h-1.06V84.48z M181.76,84.48h3.62v-0.82h-1.04v-3.25h4.94v3.25h-1.04v0.82 h3.63v-0.82h-1.08v-7.18h1.08v-0.82h-3.63v0.82h1.04v3.13h-4.94v-3.13h1.04v-0.82h-3.62v0.82h1.06v7.18h-1.06V84.48z M172.06,80.7 l1.09-2.83c0.18-0.47,0.42-1.09,0.5-1.36h0.03c0.1,0.27,0.32,0.89,0.52,1.36l1.13,2.83H172.06z M169.01,84.48h2.98v-0.82h-1.09 l0.82-2.1h3.97l0.86,2.1h-1.04v0.82h3.38v-0.82h-0.74l-3.37-8.01h-1.77l-3.25,8.01h-0.76V84.48z M161.02,79.6v-3.15 c0.34-0.02,0.86-0.03,1.33-0.03c1.31,0,1.87,0.64,1.87,1.56c0,0.94-0.72,1.61-1.8,1.61H161.02z M162.44,80.38 c1.41,0,2.1,0.66,2.1,1.56c0,1.11-0.74,1.77-2.09,1.77c-0.52,0-1.13-0.03-1.43-0.07v-3.26H162.44z M158.45,83.66v0.82h1.06 c0.59,0,2.29,0.03,3.13,0.03c2.05,0,3.5-0.77,3.5-2.57c0-1.19-0.91-1.93-2.2-2.09v-0.03c1.03-0.18,1.87-0.94,1.87-2.02 c0-1.23-0.84-2.19-3.1-2.19c-0.89,0-2.66,0.03-3.2,0.03h-1.06v0.82h1.06v7.18H158.45z M150.11,83.78c-1.85,0-3.25-1.5-3.25-3.7 c0-2.31,1.31-3.72,3.21-3.72c1.9,0,3.23,1.41,3.23,3.72C153.3,82.28,152.13,83.78,150.11,83.78z M150.07,84.65 c2.91,0,4.94-1.8,4.94-4.59c0-2.84-2.05-4.57-4.94-4.57c-2.89,0-4.93,1.87-4.93,4.59C145.14,82.92,147.25,84.65,150.07,84.65z M138.43,80.36c1.28,0,1.97,0.67,1.97,1.6c0,1.16-0.86,1.87-2.1,1.87c-0.74,0-1.45-0.27-1.78-0.69c0.32-0.1,0.54-0.39,0.54-0.71 c0-0.49-0.4-0.79-0.88-0.79c-0.49,0-0.86,0.39-0.86,0.89c0,1.06,1.24,2.1,3.28,2.1c1.95,0,3.48-0.99,3.48-2.62 c0-1.01-0.66-1.92-2.04-2.09v-0.03c1.13-0.32,1.67-1.21,1.67-2.05c0-1.46-1.21-2.32-2.89-2.32c-0.89,0-1.73,0.27-2.24,0.77v-0.64 h-0.93v2.49h0.93l0.05-0.84c0.32-0.56,0.89-0.96,1.72-0.96c0.99,0,1.68,0.59,1.68,1.6c0,1.04-0.74,1.63-1.58,1.63h-0.88v0.79 H138.43z M125.89,80.7l1.09-2.83c0.18-0.47,0.42-1.09,0.5-1.36h0.03c0.1,0.27,0.32,0.89,0.52,1.36l1.13,2.83H125.89z M122.84,84.48 h2.98v-0.82h-1.09l0.82-2.1h3.97l0.86,2.1h-1.04v0.82h3.38v-0.82h-0.74l-3.36-8.01h-1.77l-3.25,8.01h-0.76V84.48z M115.88,80.26 v-3.79c0.37-0.02,0.91-0.03,1.24-0.03c1.43,0,2.12,0.79,2.12,1.9c0,1.13-0.67,1.97-2.17,1.97 C116.68,80.31,116.33,80.31,115.88,80.26z M113.25,84.48h4.07v-0.82h-1.45v-2.59c0.47,0.05,1.13,0.05,1.48,0.05 c2.3,0,3.52-1.21,3.52-2.74c0-1.46-0.89-2.76-3.67-2.76c-0.62,0-2.32,0.03-2.84,0.03h-1.11v0.82h1.11v7.18h-1.11V84.48z M104.64,83.66v-3.58c0.45-0.05,0.91-0.07,1.25-0.07c1.45,0,2.19,0.71,2.19,1.82c0,1.19-0.77,1.88-2.27,1.88 C105.4,83.71,105.03,83.69,104.64,83.66z M102.07,83.66v0.82h1.06c0.71,0,1.65,0.03,2.68,0.03c2.46,0,3.89-0.94,3.89-2.78 c0-1.6-1.18-2.56-3.53-2.56c-0.39,0-1.04,0.02-1.51,0.07v-2.78h3.45l0.08,1.57h0.92v-2.39h-7.03v0.82h1.06v7.18H102.07z M93.73,83.78c-1.85,0-3.25-1.5-3.25-3.7c0-2.31,1.31-3.72,3.21-3.72s3.23,1.41,3.23,3.72C96.92,82.28,95.74,83.78,93.73,83.78z M93.69,84.65c2.91,0,4.94-1.8,4.94-4.59c0-2.84-2.05-4.57-4.94-4.57s-4.93,1.87-4.93,4.59C88.76,82.92,90.87,84.65,93.69,84.65z"></path> <path style="clip-path:url(#SVGID_00000111151654980034289020000005016277722522801839_);fill:#978175;" d="M180.64,59.62 c-0.89-0.08-1.72-0.86-1.72-1.87c0-1.13,0.74-2,2.22-2c0.44,0,0.91,0.03,1.21,0.05v3.82H180.64z M176.35,63.79h1.92l2.32-3.33h1.77 v2.49h-0.86v0.84h3.43v-0.84h-1.06V55.8h1.06v-0.84h-1.06c-0.64,0-2.05-0.03-2.78-0.03c-2.66,0-3.82,1.3-3.82,2.86 c0,1.21,0.96,2.07,2,2.41l-2.19,2.76h-0.74V63.79z M163.18,63.79h2.32l5.28-7v6.16h-1.08v0.84h3.62v-0.84h-1.03V55.8h1.06v-0.84 h-2.32l-5.28,7.07V55.8h1.04v-0.84h-3.62v0.84h1.06v7.15h-1.06V63.79z M148.24,63.79h3.23v-0.82h-1.04v-6.29l3.26,4.59h0.2 l3.26-4.64v6.34h-1.11v0.82h3.68v-0.82h-1.06v-7.18h1.06v-0.82h-2.51l-3.13,4.44l-3.2-4.44h-2.66v0.82h1.11v7.18h-1.11V63.79z M137.47,63.79h7.23v-2.51h-0.93l-0.09,1.68h-3.57v-3.25h2.71v-0.81h-2.71v-3.13h3.38l0.08,1.56h0.93v-2.39h-7.05v0.82h1.11v7.18 h-1.11V63.79z M127.16,62.95c0.71-1.24,1.21-3.67,1.33-6.01c0-0.1,0.05-1.04,0.05-1.14h2.89v7.15H127.16z M125.09,65.43h0.92 l0.08-1.63h7.25l0.08,1.63h0.93v-2.47h-1.38v-7.17h0.99v-0.82h-7.64v0.82h1.18c0,0.08-0.02,0.79-0.03,0.86 c-0.1,2.56-0.66,5.05-1.46,6.31h-0.92V65.43z M115.52,60.01l1.09-2.83c0.18-0.47,0.42-1.09,0.5-1.36h0.03 c0.1,0.27,0.32,0.89,0.52,1.36l1.13,2.83H115.52z M112.48,63.79h2.98v-0.82h-1.09l0.82-2.1h3.97l0.86,2.1h-1.04v0.82h3.38v-0.82 h-0.74l-3.36-8.01h-1.77l-3.25,8.01h-0.76V63.79z M107.84,63.79h2.02v-0.82h-0.81l-3.63-3.95l3.3-3.23h0.81v-0.82h-3.13v0.82h0.89 l-3.4,3.55L107.84,63.79z M100.96,63.79h3.57v-0.82h-0.99v-7.18h0.86v-0.82h-3.43v0.82h1.06v7.18h-1.06V63.79z M91.25,60.01 l1.09-2.83c0.18-0.47,0.42-1.09,0.5-1.36h0.03c0.1,0.27,0.32,0.89,0.52,1.36l1.13,2.83H91.25z M88.21,63.79h2.98v-0.82h-1.09 l0.82-2.1h3.97l0.86,2.1H94.7v0.82h3.38v-0.82h-0.74l-3.36-8.01h-1.77l-3.25,8.01h-0.76V63.79z"></path> <path style="clip-path:url(#SVGID_00000111151654980034289020000005016277722522801839_);fill:none;stroke:#978175;stroke-width:0.25;" d=" M180.64,59.62c-0.89-0.08-1.72-0.86-1.72-1.87c0-1.13,0.74-2,2.22-2c0.44,0,0.91,0.03,1.21,0.05v3.82H180.64z M176.35,63.79h1.92 l2.32-3.33h1.77v2.49h-0.86v0.84h3.43v-0.84h-1.06V55.8h1.06v-0.84h-1.06c-0.64,0-2.05-0.03-2.78-0.03c-2.66,0-3.82,1.3-3.82,2.86 c0,1.21,0.96,2.07,2,2.41l-2.19,2.76h-0.74V63.79z M163.18,63.79h2.32l5.28-7v6.16h-1.08v0.84h3.62v-0.84h-1.03V55.8h1.06v-0.84 h-2.32l-5.28,7.07V55.8h1.04v-0.84h-3.62v0.84h1.06v7.15h-1.06V63.79z M148.24,63.79h3.23v-0.82h-1.04v-6.29l3.26,4.59h0.2 l3.26-4.64v6.34h-1.11v0.82h3.68v-0.82h-1.06v-7.18h1.06v-0.82h-2.51l-3.13,4.44l-3.2-4.44h-2.66v0.82h1.11v7.18h-1.11V63.79z M137.47,63.79h7.23v-2.51h-0.93l-0.09,1.68h-3.57v-3.25h2.71v-0.81h-2.71v-3.13h3.38l0.08,1.56h0.93v-2.39h-7.05v0.82h1.11v7.18 h-1.11V63.79z M127.16,62.95c0.71-1.24,1.21-3.67,1.33-6.01c0-0.1,0.05-1.04,0.05-1.14h2.89v7.15H127.16z M125.09,65.43h0.92 l0.08-1.63h7.25l0.08,1.63h0.93v-2.47h-1.38v-7.17h0.99v-0.82h-7.64v0.82h1.18c0,0.08-0.02,0.79-0.03,0.86 c-0.1,2.56-0.66,5.05-1.46,6.31h-0.92V65.43z M115.52,60.01l1.09-2.83c0.18-0.47,0.42-1.09,0.5-1.36h0.03 c0.1,0.27,0.32,0.89,0.52,1.36l1.13,2.83H115.52z M112.48,63.79h2.98v-0.82h-1.09l0.82-2.1h3.97l0.86,2.1h-1.04v0.82h3.38v-0.82 h-0.74l-3.36-8.01h-1.77l-3.25,8.01h-0.76V63.79z M107.84,63.79h2.02v-0.82h-0.81l-3.63-3.95l3.3-3.23h0.81v-0.82h-3.13v0.82h0.89 l-3.4,3.55L107.84,63.79z M100.96,63.79h3.57v-0.82h-0.99v-7.18h0.86v-0.82h-3.43v0.82h1.06v7.18h-1.06V63.79z M91.25,60.01 l1.09-2.83c0.18-0.47,0.42-1.09,0.5-1.36h0.03c0.1,0.27,0.32,0.89,0.52,1.36l1.13,2.83H91.25z M88.21,63.79h2.98v-0.82h-1.09 l0.82-2.1h3.97l0.86,2.1H94.7v0.82h3.38v-0.82h-0.74l-3.36-8.01h-1.77l-3.25,8.01h-0.76V63.79z"></path> <path style="clip-path:url(#SVGID_00000111151654980034289020000005016277722522801839_);fill:#978175;" d="M205.02,38.93 c-0.89-0.08-1.71-0.86-1.71-1.87c0-1.13,0.74-2,2.22-2c0.44,0,0.91,0.03,1.21,0.05v3.82H205.02z M200.74,43.1h1.92l2.32-3.33h1.77 v2.49h-0.86v0.84h3.43v-0.84h-1.06v-7.15h1.06v-0.84h-1.06c-0.64,0-2.05-0.03-2.77-0.03c-2.66,0-3.82,1.29-3.82,2.86 c0,1.21,0.96,2.07,2,2.4l-2.19,2.76h-0.74V43.1z M191.48,39.32l1.09-2.82c0.18-0.47,0.42-1.09,0.5-1.36h0.03 c0.1,0.27,0.32,0.89,0.52,1.36l1.13,2.82H191.48z M188.44,43.1h2.98v-0.82h-1.09l0.82-2.1h3.97l0.86,2.1h-1.04v0.82h3.38v-0.82 h-0.74l-3.36-8.01h-1.77l-3.25,8.01h-0.76V43.1z M183.8,43.1h2.02v-0.82h-0.81l-3.63-3.95l3.3-3.23h0.81v-0.82h-3.13v0.82h0.89 l-3.4,3.55L183.8,43.1z M176.92,43.1h3.57v-0.82h-0.99V35.1h0.86v-0.82h-3.43v0.82h1.06v7.18h-1.06V43.1z M172.75,41.54 c-0.57,0.49-1.33,0.79-2.2,0.79c-2.05,0-3.45-1.5-3.45-3.65c0-2.14,1.36-3.63,3.35-3.63c0.96,0,1.68,0.3,2.22,0.76l0.05,1.06h0.93 v-2.59h-0.93v0.61c-0.66-0.49-1.5-0.74-2.57-0.74c-2.93,0-4.76,2.02-4.76,4.56c0,2.79,1.97,4.54,4.83,4.54 c1.01,0,1.95-0.3,2.59-0.77v0.64h0.92V40.4h-0.92L172.75,41.54z M154.48,31.52c0,0.84,0.91,1.95,2.52,1.95 c1.61,0,2.52-1.11,2.52-1.95c0-0.49-0.3-0.86-0.82-0.86c-0.49,0-0.79,0.29-0.79,0.71c0,0.37,0.17,0.61,0.52,0.76 c-0.08,0.25-0.6,0.64-1.43,0.64s-1.31-0.35-1.43-0.64c0.35-0.15,0.52-0.39,0.52-0.76c0-0.42-0.3-0.71-0.77-0.71 C154.78,30.66,154.48,31.03,154.48,31.52 M151.79,43.1h2.32l5.28-7v6.16h-1.08v0.84h3.62v-0.84h-1.03v-7.15h1.06v-0.84h-2.32 l-5.28,7.07v-6.22h1.04v-0.84h-3.62v0.84h1.06v7.15h-1.06V43.1z M138.16,43.1h2.32l5.28-7v6.16h-1.08v0.84h3.62v-0.84h-1.03v-7.15 h1.06v-0.84h-2.32l-5.28,7.07v-6.22h1.04v-0.84h-3.62v0.84h1.06v7.15h-1.06V43.1z M133.99,41.54c-0.57,0.49-1.33,0.79-2.2,0.79 c-2.05,0-3.45-1.5-3.45-3.65c0-2.14,1.36-3.63,3.35-3.63c0.96,0,1.68,0.3,2.22,0.76l0.05,1.06h0.93v-2.59h-0.93v0.61 c-0.66-0.49-1.5-0.74-2.57-0.74c-2.93,0-4.76,2.02-4.76,4.56c0,2.79,1.97,4.54,4.83,4.54c1.01,0,1.95-0.3,2.59-0.77v0.64h0.93V40.4 h-0.93L133.99,41.54z M122.22,41.54c-0.57,0.49-1.33,0.79-2.2,0.79c-2.05,0-3.45-1.5-3.45-3.65c0-2.14,1.36-3.63,3.35-3.63 c0.96,0,1.68,0.3,2.22,0.76l0.05,1.06h0.93v-2.59h-0.93v0.61c-0.66-0.49-1.5-0.74-2.57-0.74c-2.93,0-4.76,2.02-4.76,4.56 c0,2.79,1.97,4.54,4.83,4.54c1.01,0,1.95-0.3,2.59-0.77v0.64h0.93V40.4h-0.93L122.22,41.54z M106.54,42.4 c-1.85,0-3.25-1.5-3.25-3.7c0-2.3,1.31-3.72,3.21-3.72c1.9,0,3.23,1.41,3.23,3.72C109.74,40.9,108.56,42.4,106.54,42.4 M106.51,43.27c2.91,0,4.94-1.8,4.94-4.59c0-2.84-2.05-4.57-4.94-4.57c-2.89,0-4.93,1.87-4.93,4.59 C101.58,41.54,103.68,43.27,106.51,43.27 M92.03,37.6v-5.45c0.45-0.02,1.21-0.03,1.65-0.03c2.02,0,2.94,1.16,2.94,2.74 c0,1.58-0.86,2.83-2.99,2.83C93.09,37.69,92.63,37.67,92.03,37.6 M89,43.1h4.84v-0.82h-1.82v-3.85c0.62,0.05,1.48,0.07,1.97,0.07 c2.91,0,4.37-1.6,4.37-3.58c0-1.92-1.04-3.62-4.54-3.62c-0.72,0-2.76,0.03-3.41,0.03H89v0.82h1.41v10.13H89V43.1z"></path> <path style="clip-path:url(#SVGID_00000111151654980034289020000005016277722522801839_);fill:none;stroke:#978175;stroke-width:0.25;" d=" M205.02,38.93c-0.89-0.08-1.71-0.86-1.71-1.87c0-1.13,0.74-2,2.22-2c0.44,0,0.91,0.03,1.21,0.05v3.82H205.02z M200.74,43.1h1.92 l2.32-3.33h1.77v2.49h-0.86v0.84h3.43v-0.84h-1.06v-7.15h1.06v-0.84h-1.06c-0.64,0-2.05-0.03-2.77-0.03 c-2.66,0-3.82,1.29-3.82,2.86c0,1.21,0.96,2.07,2,2.4l-2.19,2.76h-0.74V43.1z M191.48,39.32l1.09-2.82 c0.18-0.47,0.42-1.09,0.5-1.36h0.03c0.1,0.27,0.32,0.89,0.52,1.36l1.13,2.82H191.48z M188.44,43.1h2.98v-0.82h-1.09l0.82-2.1h3.97 l0.86,2.1h-1.04v0.82h3.38v-0.82h-0.74l-3.36-8.01h-1.77l-3.25,8.01h-0.76V43.1z M183.8,43.1h2.02v-0.82h-0.81l-3.63-3.95l3.3-3.23 h0.81v-0.82h-3.13v0.82h0.89l-3.4,3.55L183.8,43.1z M176.92,43.1h3.57v-0.82h-0.99V35.1h0.86v-0.82h-3.43v0.82h1.06v7.18h-1.06 V43.1z M172.75,41.54c-0.57,0.49-1.33,0.79-2.2,0.79c-2.05,0-3.45-1.5-3.45-3.65c0-2.14,1.36-3.63,3.35-3.63 c0.96,0,1.68,0.3,2.22,0.76l0.05,1.06h0.93v-2.59h-0.93v0.61c-0.66-0.49-1.5-0.74-2.57-0.74c-2.93,0-4.76,2.02-4.76,4.56 c0,2.79,1.97,4.54,4.83,4.54c1.01,0,1.95-0.3,2.59-0.77v0.64h0.92V40.4h-0.92L172.75,41.54z M154.48,31.52 c0,0.84,0.91,1.95,2.52,1.95c1.61,0,2.52-1.11,2.52-1.95c0-0.49-0.3-0.86-0.82-0.86c-0.49,0-0.79,0.29-0.79,0.71 c0,0.37,0.17,0.61,0.52,0.76c-0.08,0.25-0.6,0.64-1.43,0.64s-1.31-0.35-1.43-0.64c0.35-0.15,0.52-0.39,0.52-0.76 c0-0.42-0.3-0.71-0.77-0.71C154.78,30.66,154.48,31.03,154.48,31.52z M151.79,43.1h2.32l5.28-7v6.16h-1.08v0.84h3.62v-0.84h-1.03 v-7.15h1.06v-0.84h-2.32l-5.28,7.07v-6.22h1.04v-0.84h-3.62v0.84h1.06v7.15h-1.06V43.1z M138.16,43.1h2.32l5.28-7v6.16h-1.08v0.84 h3.62v-0.84h-1.03v-7.15h1.06v-0.84h-2.32l-5.28,7.07v-6.22h1.04v-0.84h-3.62v0.84h1.06v7.15h-1.06V43.1z M133.99,41.54 c-0.57,0.49-1.33,0.79-2.2,0.79c-2.05,0-3.45-1.5-3.45-3.65c0-2.14,1.36-3.63,3.35-3.63c0.96,0,1.68,0.3,2.22,0.76l0.05,1.06h0.93 v-2.59h-0.93v0.61c-0.66-0.49-1.5-0.74-2.57-0.74c-2.93,0-4.76,2.02-4.76,4.56c0,2.79,1.97,4.54,4.83,4.54 c1.01,0,1.95-0.3,2.59-0.77v0.64h0.93V40.4h-0.93L133.99,41.54z M122.22,41.54c-0.57,0.49-1.33,0.79-2.2,0.79 c-2.05,0-3.45-1.5-3.45-3.65c0-2.14,1.36-3.63,3.35-3.63c0.96,0,1.68,0.3,2.22,0.76l0.05,1.06h0.93v-2.59h-0.93v0.61 c-0.66-0.49-1.5-0.74-2.57-0.74c-2.93,0-4.76,2.02-4.76,4.56c0,2.79,1.97,4.54,4.83,4.54c1.01,0,1.95-0.3,2.59-0.77v0.64h0.93V40.4 h-0.93L122.22,41.54z M106.54,42.4c-1.85,0-3.25-1.5-3.25-3.7c0-2.3,1.31-3.72,3.21-3.72c1.9,0,3.23,1.41,3.23,3.72 C109.74,40.9,108.56,42.4,106.54,42.4z M106.51,43.27c2.91,0,4.94-1.8,4.94-4.59c0-2.84-2.05-4.57-4.94-4.57 c-2.89,0-4.93,1.87-4.93,4.59C101.58,41.54,103.68,43.27,106.51,43.27z M92.03,37.6v-5.45c0.45-0.02,1.21-0.03,1.65-0.03 c2.02,0,2.94,1.16,2.94,2.74c0,1.58-0.86,2.83-2.99,2.83C93.09,37.69,92.63,37.67,92.03,37.6z M89,43.1h4.84v-0.82h-1.82v-3.85 c0.62,0.05,1.48,0.07,1.97,0.07c2.91,0,4.37-1.6,4.37-3.58c0-1.92-1.04-3.62-4.54-3.62c-0.72,0-2.76,0.03-3.41,0.03H89v0.82h1.41 v10.13H89V43.1z"></path> </g> <g> <defs> <rect id="SVGID_00000082354575384530062850000008588664548550171300_" width="218" height="112"></rect> </defs> <clipPath id="SVGID_00000108994440193378065590000003043739161700072336_"> <use xlink:href="#SVGID_00000082354575384530062850000008588664548550171300_" style="overflow:visible;"></use> </clipPath> </g> <g> <defs> <rect id="SVGID_00000025407196864003018120000015283662991921877126_" width="218" height="112"></rect> </defs> <clipPath id="SVGID_00000137811791395457626330000015288803873125454739_"> <use xlink:href="#SVGID_00000025407196864003018120000015283662991921877126_" style="overflow:visible;"></use> </clipPath> </g> <g> <defs> <rect id="SVGID_00000155130867929406986230000011136027184498053024_" width="218" height="112"></rect> </defs> <clipPath id="SVGID_00000062159173892622166750000005702216145159460489_"> <use xlink:href="#SVGID_00000155130867929406986230000011136027184498053024_" style="overflow:visible;"></use> </clipPath> </g> <g> <g> <path class="st2" d="M55.8,75.54c-0.25,0-0.41,0.16-0.41,0.41c0,0.25,0.16,0.41,0.41,0.41s0.41-0.16,0.41-0.41 C56.21,75.79,56.05,75.54,55.8,75.54"></path> <path class="st2" d="M57.21,79.59L57.21,79.59c0,0.25,0.16,0.41,0.41,0.41c0.25,0,0.41-0.16,0.41-0.41c0-0.25-0.16-0.41-0.41-0.41 C57.37,79.18,57.21,79.34,57.21,79.59"></path> <path class="st2" d="M55.8,79.18L55.8,79.18c-0.25,0-0.41,0.16-0.41,0.41c0,0.25,0.16,0.41,0.41,0.41s0.41-0.16,0.41-0.41 C56.21,79.34,56.05,79.18,55.8,79.18"></path> <path class="st2" d="M59.03,79.59L59.03,79.59c0,0.25,0.16,0.41,0.41,0.41c0.25,0,0.41-0.16,0.41-0.41c0-0.25-0.16-0.41-0.41-0.41 C59.19,79.18,59.03,79.34,59.03,79.59"></path> </g> <polygon class="st2" points="55.22,71.49 55.31,72.56 54.4,72.48 54.4,73.64 55.31,73.47 55.22,74.55 56.38,74.55 56.3,73.47 57.21,73.64 57.21,72.48 56.3,72.56 56.38,71.49 "></polygon> <g> <path class="st2" d="M56.55,75.21v3.72h3.56C59.86,77.03,58.37,75.54,56.55,75.21"></path> <path class="st2" d="M55.8,77.36c-0.25,0-0.41,0.16-0.41,0.41c0,0.25,0.16,0.41,0.41,0.41s0.41-0.16,0.41-0.41 C56.21,77.52,56.05,77.36,55.8,77.36"></path> <path class="st2" d="M57.29,82.07c-0.08,0-0.41,0.91-0.08,1.57c0.17,0.33,0.5,0.5,0.83,0.41c0.33-0.08,0.41-0.41,0.41-0.58 C58.37,82.74,57.79,82.07,57.29,82.07"></path> <path class="st2" d="M54.31,82.07c-0.5,0-1.08,0.66-1.08,1.41c0,0.25,0.08,0.5,0.41,0.58c0.33,0.08,0.66-0.08,0.83-0.41 C54.64,82.98,54.4,82.07,54.31,82.07"></path> <path class="st2" d="M55.8,81.58c-0.33,0-1.32,1.9-0.58,2.81c0.17,0.16,0.33,0.25,0.58,0.25s0.5-0.08,0.58-0.25 C57.04,83.48,56.13,81.58,55.8,81.58"></path> <path class="st2" d="M51.42,79.59L51.42,79.59c0-0.41,0.08-0.74,0.08-0.74h3.56v-0.33v-2.65v-0.74c-1.74,0.33-3.14,1.65-3.56,3.39 c-0.08,0.16-0.41,0.25-0.66,0.16c-1.32-0.16-3.97-0.66-3.97-1.24c0-0.83,0.58-1.16,1.08-1.16c0.74,0,1.57,0.41,2.23-0.58 c-2.4,0.08-0.58-3.39-2.56-4.05c0.08,0.91,0,2.48-0.33,3.31c0,0-0.74-0.74-1.49-1.08c0.08,0.66-0.08,1.99-0.33,2.65 c0,0-0.83-0.83-1.74-1.08c0.83,1.16,0.83,2.9,0.58,3.89C44.22,79.68,44.47,80,45.05,80c0.99-0.08,4.3,0.08,5.71,0.66 c0.41,0.16,0.83,0.41,0.99,0.74c0.16,0.41,0.5,1.08,0.99,1.41c0.25-0.74,1.08-1.57,1.65-1.49c0.16,0,0.33,0.33,0.41,0.58 c0.08-0.25,0.5-0.99,0.91-0.99s0.83,0.58,0.99,1.08c0.08-0.33,0.25-0.66,0.41-0.66c0.58,0,1.32,0.5,1.57,1.4 c0.25-0.25,1.24-1.57,1.32-2.48h-8.6V79.59z"></path> <path class="st2" d="M53.57,79.59L53.57,79.59c0,0.25,0.16,0.41,0.41,0.41c0.25,0,0.41-0.16,0.41-0.41c0-0.25-0.16-0.41-0.41-0.41 C53.73,79.18,53.57,79.34,53.57,79.59"></path> <path class="st2" d="M51.83,79.59L51.83,79.59c0,0.25,0.16,0.41,0.41,0.41c0.25,0,0.41-0.16,0.41-0.41c0-0.25-0.16-0.41-0.41-0.41 C52,79.18,51.83,79.34,51.83,79.59"></path> <path class="st2" d="M17.59,81.41c-0.16,0.16-0.5,1.08-0.33,1.65c0.08,0.25,0.17,0.33,0.41,0.33c0.25,0,0.33-0.17,0.41-0.41 C18.17,82.4,17.76,81.49,17.59,81.41"></path> <path class="st2" d="M20.65,83.98L20.65,83.98c-0.16,0.25-0.41,0.33-0.5,0.41c0.08,0.08,0.33,0.25,0.58,0.25 c0.16,0,0.33-0.08,0.41-0.17c0.25-0.5,0-0.91-0.08-1.08C20.98,83.56,20.9,83.81,20.65,83.98"></path> <path class="st2" d="M19.49,82.82L19.49,82.82c0.33-0.33,0.41-0.58,0.33-0.74c-0.08-0.25-0.83-0.99-1.65-1.9 c0,0.16-0.08,0.33-0.08,0.5c0.58,0.83,0.83,1.65,0.66,2.4c0.08,0.08,0.08,0.08,0.16,0.08C19.08,83.31,19.33,83.07,19.49,82.82"></path> <path class="st2" d="M20.65,82.9L20.65,82.9c0-0.16,0-0.25-0.08-0.33h-0.08c-0.08,0-0.17,0.17-0.25,0.25 c-0.08,0.08-0.17,0.25-0.33,0.41c-0.17,0.16-0.25,0.25-0.41,0.41c-0.16,0.08-0.25,0.25-0.25,0.33v0.08 c0.08,0.08,0.08,0.08,0.17,0.08c0.08,0,0.33-0.08,0.74-0.5C20.57,83.23,20.65,83.06,20.65,82.9"></path> <path class="st2" d="M15.19,78.52L15.19,78.52c0,0-0.08,0.08-0.16,0.25c0.16,0,0.41,0,0.58,0.08v-0.58 C15.44,78.27,15.28,78.43,15.19,78.52"></path> <path class="st2" d="M17.43,78.76L17.43,78.76c0,0,1.74,1.49,2.32,2.07c0.17,0.17,0.33,0.17,0.5,0.08 c0.08-0.08,0.25-0.08,0.41-0.16c1.74-0.58,4.55-0.66,5.54-0.66c0.66,0,0.83-0.33,0.75-0.66c-0.17-0.99-0.25-2.73,0.58-3.89 c-0.91,0.33-1.74,1.08-1.74,1.08c-0.33-0.58-0.41-1.99-0.33-2.65c-0.83,0.25-1.49,1.08-1.49,1.08c-0.33-0.83-0.41-2.4-0.33-3.31 c-1.99,0.66-0.17,4.22-2.56,4.05c0.66,0.99,1.49,0.58,2.23,0.58c0.5,0,1.16,0.33,1.08,1.16c-0.08,0.58-3.31,1.24-4.63,1.24 c-0.91,0-1.57-0.25-1.98-0.91c-0.25-0.33-0.41-0.41-0.66-0.41c-0.33,0.08-0.66,0.33-0.66,1.16c0,0.5,0.25,1.65,0.83,1.65 C17.59,80.34,17.59,79.34,17.43,78.76"></path> <path class="st2" d="M14.12,78.27L14.12,78.27h0.25c-0.25,0.33-0.25,0.58-0.16,0.66c0.16,0.16,0.25-0.17,0.66-0.58 c0.41-0.41,0.66-0.58,0.58-0.75c-0.08-0.08-0.33-0.08-0.66,0.17c0-0.08,0.08-0.17,0-0.25c-0.17-0.41-0.75-0.91-1.16-0.91h-0.17 c0.17-0.25,0.08-0.41,0-0.58c-0.08-0.08-0.16,0-0.33,0.17c0-0.08,0-0.25-0.08-0.41c-0.5-0.83-3.31-3.47-3.97-3.72 c-0.41-0.16-0.5,0.08-0.5,0.08s-0.25,0.16-0.08,0.5c0.25,0.66,2.98,3.39,3.72,3.89c0.16,0.08,0.33,0.17,0.41,0.08 c-0.17,0.17-0.25,0.17-0.08,0.33c0.08,0.08,0.25,0.16,0.5,0v0.16C13.21,77.44,13.71,78.1,14.12,78.27"></path> <path class="st2" d="M16.1,80.25c0-0.25-0.5-0.74-1.16-0.74c-0.91,0-1.32,0.58-1.32,0.91c0,0.58,0.58,0.66,0.74,0.66 C14.95,81.08,16.02,80.42,16.1,80.25"></path> <path class="st2" d="M15.28,81.66L15.28,81.66c-0.25,0.33-0.33,0.66-0.25,0.91c0.08,0.33,0.41,0.5,0.74,0.5s0.66-0.17,0.83-0.41 c0.33-0.58,0.33-1.82,0.25-1.9C16.52,80.75,15.69,81.08,15.28,81.66"></path> <path class="st2" d="M5.52,68.92L5.52,68.92c-0.16,0-0.58,0.41-0.74,0.17l-0.91-0.91l0.5-0.5l0.5-0.5l0.91,0.91 C5.85,68.34,5.52,68.76,5.52,68.92 M2.87,66.86L2.87,66.86c0,0-0.25-0.16,0.08-0.58c0.33-0.33,0.5-0.08,0.5-0.08 s0.33,0.66,0.41,0.99C3.53,67.19,2.87,66.86,2.87,66.86 M7.17,68.76L7.17,68.76c-0.25-0.25-0.83,0.16-1.16-0.08 c0.17-0.83,0.75,0,1.24-0.5c0.25-0.25,0.08-0.58,0-0.66c-0.25,0.25-0.58,0.16-0.66,0c0.58-1.49-0.58-3.06-1.74-2.9 c0.25,0.33,0.33,1.41,0.16,1.65c0.41,0.33,0.16,1.08-0.33,0.83c-0.33-0.16-0.91-0.99-0.25-1.49c0-0.25-0.41-0.25-0.74,0.25 c0.25-0.91-1.49-0.66-1.82-0.41c-0.17,0.41-0.41,2.15,0.5,1.82c-0.5,0.41-0.41,0.83-0.25,0.83c0.58-0.66,1.32-0.16,1.49,0.17 c0.25,0.5-0.5,0.83-0.83,0.41c-0.25,0.08-1.32,0.08-1.57-0.16c-0.16,1.16,1.49,2.4,2.89,1.74c0.17,0,0.25,0.41,0,0.66 c0.08,0.16,0.5,0.25,0.66,0c0.58-0.58-0.25-1.16,0.5-1.32c0.16,0.33-0.16,0.91,0.08,1.16c0.41,0.41,0.91-0.41,1.49-0.41 C6.84,69.67,7.58,69.17,7.17,68.76"></path> <path class="st2" d="M7.42,70.41L7.42,70.41c-0.08,0-0.16,0-0.25,0.08c-0.08,0.08-0.08,0.25-0.08,0.41c0,0.17,0.17,0.33,0.33,0.5 c0.08,0.25,0.33,0.33,0.5,0.33c0.08,0,0.17,0,0.25-0.08c0.17-0.16,0.08-0.66-0.16-0.91C7.83,70.58,7.58,70.41,7.42,70.41"></path> <path class="st2" d="M4.77,67.68l-0.25,0.25l-0.25,0.25c0,0,0.5,0.66,0.91,0.41C5.44,68.18,4.77,67.68,4.77,67.68"></path> <path class="st2" d="M53.07,65.2c0,0.16-0.66,0.5-1.16-0.41c-0.5-0.08-0.99-0.25-1.32-0.41c0.58,1.16,1.08,2.15,1.9,2.65 c1.24,0.74,3.14,0.58,3.72-0.25c-1.08-0.58-2.32-2.07-2.98-3.47c-0.16,0.33-0.41,0.91-0.58,1.32 C52.74,64.79,52.91,65.04,53.07,65.2"></path> <path class="st2" d="M53.16,63.22"></path> <path class="st2" d="M64.57,47.09L64.57,47.09c1.32-0.58,3.23-1.9,4.14-2.73c0.08,0.17,0.41,0.91-0.58,1.74 c-0.74,0.58-2.23,1.32-3.31,1.74c-0.5,0.74-1.49,1.57-2.81,2.48c2.65-0.41,5.79-1.49,7.36-2.98c2.89-2.89,1.41-6.37,0.99-7.19 c-1.9,2.4-5.54,4.88-8.93,6.2C62.58,46.51,63.74,46.76,64.57,47.09"></path> <path class="st2" d="M62.42,41.8c1.74-1.41,3.56-4.22,3.89-5.21c0.41,0.25,0.58,1.08,0.08,1.99c-0.91,1.57-2.56,2.98-3.97,4.14 c-0.08,0.99-0.5,2.23-0.99,3.14c2.07-1.41,4.47-3.47,5.54-4.88c1.41-1.82,1.99-3.64,1.74-5.46c0.08-2.07-1.41-4.13-1.99-4.63 c-0.41,2.23-2.65,6.04-4.63,8.19C62.25,39.81,62.42,40.89,62.42,41.8"></path> <path class="st2" d="M61.1,54.86L61.1,54.86c0.41,0.5,0.83,1.08,1.16,1.57c1.57,0.33,3.47,0.25,3.47,0.25s-0.08,0.83-1.16,0.91 c-0.5,0-1.99-0.25-2.56-0.41c-0.25,0.08-1.41,0.41-2.56,0.58c1.65,0.58,4.05,1.16,5.54,1.16h0.41c2.4-0.25,3.64-2.48,3.72-3.72 c-0.74,0.16-1.99,0.25-3.23,0.25C64.73,55.44,62.67,55.36,61.1,54.86"></path> <path class="st2" d="M71.1,48.58c-2.15,1.16-5.96,2.32-9.01,2.32c0.74,0.5,1.49,0.99,1.98,1.49c1.24-0.08,2.98-0.5,3.97-0.83 c0,0.16,0,0.99-1.16,1.32c-0.83,0.25-1.99,0.25-2.89,0.25c-0.75,0.5-1.82,0.91-2.73,1.24c0.83,0.08,1.9,0.17,2.81,0.17 c1.57,0,3.06-0.17,3.97-0.5C68.87,53.79,71.6,52.63,71.1,48.58"></path> <path class="st2" d="M59.52,59.99L59.52,59.99c0.91,0.41,1.9,0.74,2.73,0.83c0,0-0.17,0.83-1.41,0.66 c-0.74-0.08-1.57-0.66-1.74-0.74c-0.58,0.08-1.74,0.08-2.15,0c1.4,0.99,3.56,2.15,5.38,2.32h0.25c1.9,0,3.39-1.9,3.8-2.81 c-1.9,0-5.21-0.83-7.19-1.9C59.28,58.67,59.44,59.33,59.52,59.99"></path> <path class="st2" d="M56.22,62.55c0.5,0.58,1.32,0.91,1.32,0.91s-0.25,0.41-0.74,0.41c-0.17,0-0.33-0.08-0.5-0.16 c-0.33-0.17-0.83-0.75-0.83-0.75c-0.66-0.08-1.24-0.16-1.82-0.33c0.99,1.24,2.65,2.81,4.47,3.23c0.25,0.08,0.5,0.08,0.83,0.08 c1.57,0,2.89-1.16,3.23-1.9c-1.82-0.25-4.47-1.65-5.79-2.98C56.38,61.56,56.3,62.14,56.22,62.55"></path> <path class="st2" d="M44.39,82.82L44.39,82.82c0.91,0,1.49-0.33,1.9-1.24c-1.24,0.58-2.56,0.25-5.04-0.5c0,0-0.91,0.41-1.49,0.5 c1.49,0.41,3.64,1.16,3.97,1.98c0.17,0.66-0.25,0.83-0.25,0.83c-0.83-0.99-1.82-1.57-3.97-2.23c0,0.41-0.08,0.66-0.08,0.66 s-0.41,0.08-1.41-0.08c0.83,0.66,2.81,2.4,3.06,4.22c0.17,1.24-0.74,1.32-0.74,1.32c-0.08-1.9-0.91-3.06-2.73-4.96 c0,0-0.33,0.41-0.66,0.66c0,0-0.66-0.08-1.16-0.5c0.25,2.48,0.33,8.43,0.16,9.35c-0.08,0.66-0.5,0.99-0.5,0.99 s-0.41-0.25-0.5-0.99c-0.16-0.99,0-6.95,0.17-9.35c-0.58,0.33-1.16,0.5-1.16,0.5c-0.41-0.25-0.66-0.66-0.66-0.66 c-1.74,1.9-2.56,3.14-2.73,4.96c0,0-0.83-0.08-0.75-1.32c0.25-1.82,2.23-3.56,3.06-4.22c-0.91,0.17-1.41,0.08-1.41,0.08 s-0.08-0.25-0.08-0.66c-2.15,0.66-3.06,1.24-3.97,2.23c0,0-0.41-0.08-0.25-0.83c0.33-0.83,2.48-1.49,3.97-1.98 c-0.5-0.08-1.49-0.5-1.49-0.5c-2.4,0.75-3.8,1.08-5.04,0.5c0.33,0.91,0.99,1.24,1.9,1.24c-1.16,0.41-2.23,1.57-2.56,2.73 c0.83,3.06,3.47,3.97,3.47,3.97c-0.66-1.49-0.41-4.38,3.56-6.37c-2.4,2.4-3.39,4.63-2.73,6.7c0.58,1.9,2.56,2.65,3.97,2.73 c-0.99-3.14-0.58-6.04,1.57-8.27c-0.91,2.48-2.23,10.17,1.49,11.41c3.72-1.24,2.4-8.93,1.49-11.41c2.15,2.32,2.56,5.13,1.57,8.27 c1.49,0,3.39-0.83,3.97-2.73c0.66-2.07-0.25-4.3-2.73-6.7c3.97,1.98,4.22,4.96,3.56,6.37c0,0,2.65-0.91,3.47-3.97 C46.62,84.39,45.46,83.31,44.39,82.82"></path> <path class="st2" d="M18.75,67.02c0.83-0.5,1.32-1.49,1.9-2.65c-0.33,0.16-0.83,0.33-1.32,0.41c-0.5,0.91-1.16,0.58-1.16,0.41 c0.17-0.17,0.33-0.41,0.41-0.58c-0.17-0.41-0.41-0.99-0.58-1.32c-0.66,1.49-1.99,2.89-2.98,3.47 C15.61,67.6,17.51,67.76,18.75,67.02"></path> <path class="st2" d="M18.01,63.22"></path> <path class="st2" d="M9.16,50.31c-1.41-0.91-2.32-1.74-2.81-2.48c-1.16-0.41-2.65-1.16-3.31-1.74c-0.99-0.83-0.66-1.57-0.58-1.74 c0.83,0.91,2.73,2.15,4.14,2.73c0.83-0.33,1.98-0.58,3.14-0.74c-3.39-1.24-7.03-3.8-8.93-6.12c-0.41,0.74-1.98,4.3,0.99,7.19 C3.29,48.83,6.51,49.9,9.16,50.31"></path> <path class="st2" d="M9.74,45.77c-0.5-0.91-0.91-2.07-0.99-3.14c-1.41-1.08-2.98-2.48-3.97-4.14c-0.5-0.91-0.33-1.74,0.08-1.98 c0.33,0.99,2.15,3.8,3.89,5.21c0-0.91,0.16-1.99,0.41-2.73c-1.98-2.15-4.3-5.96-4.63-8.19c-0.58,0.5-2.07,2.56-1.98,4.63 c-0.25,1.82,0.33,3.64,1.74,5.46C5.27,42.29,7.67,44.44,9.74,45.77"></path> <path class="st2" d="M8.91,56.43c0.25-0.5,0.74-1.08,1.16-1.57c-1.57,0.41-3.64,0.5-4.72,0.5c-1.32,0-2.56-0.08-3.23-0.25 c0.08,1.32,1.32,3.56,3.72,3.72h0.41c1.49,0,3.89-0.58,5.54-1.16c-1.16-0.16-2.32-0.41-2.56-0.58c-0.66,0.33-2.15,0.58-2.65,0.5 c-1.08-0.08-1.16-0.91-1.16-0.91S7.34,56.77,8.91,56.43"></path> <path class="st2" d="M3.12,54.12c0.91,0.33,2.32,0.5,3.97,0.5c0.99,0,1.99-0.08,2.81-0.16c-0.91-0.33-1.99-0.74-2.73-1.24 c-0.91,0-2.15-0.08-2.89-0.25c-1.16-0.33-1.16-1.16-1.16-1.32c0.99,0.41,2.73,0.83,3.97,0.83c0.5-0.41,1.16-0.99,1.99-1.49 c-2.98,0-6.87-1.16-9.02-2.32C-0.44,52.63,2.29,53.79,3.12,54.12"></path> <path class="st2" d="M8.66,62.97h0.25c1.82-0.16,3.97-1.32,5.38-2.32c-0.41,0.08-1.65,0.08-2.15,0c-0.16,0.16-1.08,0.66-1.74,0.74 c-1.32,0.16-1.41-0.66-1.41-0.66c0.83-0.08,1.82-0.41,2.73-0.83c0.08-0.66,0.25-1.32,0.41-1.74c-2.07,1.16-5.38,1.98-7.28,1.98 C5.27,61.07,6.76,62.97,8.66,62.97"></path> <path class="st2" d="M12.22,65.95c0.25,0,0.58,0,0.83-0.08c1.74-0.41,3.47-1.98,4.47-3.23c-0.58,0.17-1.16,0.33-1.82,0.33 c0,0-0.41,0.5-0.83,0.74c-0.16,0.08-0.33,0.17-0.5,0.17c-0.5,0-0.74-0.41-0.74-0.41s0.83-0.41,1.32-0.91 c-0.08-0.41-0.17-0.99-0.17-1.49c-1.4,1.41-3.97,2.73-5.79,2.98C9.32,64.79,10.56,65.95,12.22,65.95"></path> <path class="st2" d="M34.88,20.71L34.88,20.71c0,0.41,0.33,0.66,0.66,0.66c0.33,0,0.66-0.33,0.66-0.66c0-0.41-0.33-0.66-0.66-0.66 C35.21,19.96,34.88,20.29,34.88,20.71"></path> </g> <polygon class="st2" points="35.13,16.32 35.21,17.4 34.22,17.32 34.22,18.23 35.21,18.06 35.13,19.22 36.04,19.22 35.95,18.06 36.94,18.23 36.94,17.32 35.95,17.4 36.04,16.32 "></polygon> <g> <path class="st2" d="M31.9,30.13L31.9,30.13c0.08,0,0.25,0.08,0.33,0.08h6.62c0.16,0,0.25,0,0.33-0.08 c0.25-0.08,0.33-0.25,0.41-0.5h-8.1C31.57,29.97,31.74,30.05,31.9,30.13"></path> <path class="st2" d="M39.18,29.14c0.08,0,0.08-0.08,0.08-0.08v-0.5c0-0.08-0.08-0.08-0.08-0.08h-7.19c-0.08,0-0.08,0.08-0.08,0.08 v0.5c0,0.08,0.08,0.08,0.08,0.08H39.18z"></path> <path class="st2" d="M39.92,27.9c0.16-0.25,1.08-1.99,1.08-3.8c0-1.65-2.07-2.56-3.23-2.56c-0.16,2.32-1.08,5.96-2.23,5.96 c-1.08,0-2.07-3.64-2.23-5.96c-1.24,0-3.23,0.91-3.23,2.56c0,1.82,0.91,3.64,1.08,3.8H39.92z"></path> <path class="st2" d="M35.54,26.33c0.58,0,1.24-1.74,1.49-3.47c0-0.33-0.58-0.83-1.49-0.91c-0.91,0-1.49,0.5-1.49,0.91 C34.3,24.43,35.04,26.33,35.54,26.33"></path> <path class="st2" d="M49.27,33.86"></path> <path class="st2" d="M36.45,67.1"></path> <path class="st2" d="M55.72,48.25c1.16-1.57,1.41-4.8,1.16-6.29c-0.99,3.39-3.97,5.87-5.79,7.03c-0.08,0.08-0.17,0.16-0.25,0.16 c-0.08,0.08-0.41,0.5-0.25,0.99c0,0.16,0.08,0.25,0.08,0.41c0.17,0.66,0.17,1.65-0.83,2.56C49.09,53.75,48.44,54,47.63,54 c-0.93,0-1.48-0.42-1.81-0.98c1.01,0.24,1.75-0.24,1.99-0.68c-1.66,0-2.6-1.28-2.6-1.28h1.24c0.66-0.08,1.41-0.41,1.41-0.41 s-0.75,0-1.08-0.08c-0.41,0.08-1.32-0.33-2.07-1.16c-0.25-0.33-0.5-0.66-0.66-0.99c-0.66-0.58-1.41-1.32-1.9-2.4 c-0.33-0.74-0.5-1.82-0.58-2.48c-0.25,0.17-0.5,0.5-0.83,0.91c-0.58,0.74-0.83,1.82-0.83,1.82l-0.25,0.83l-0.41-0.74 c0,0-0.58-0.99-0.66-2.23c0-0.58,0-1.08,0.08-1.49c-0.17,0.08-0.41,0.25-0.66,0.41c-0.99,0.74-1.57,1.49-1.57,1.49 c-0.5,0.66-0.83,1.24-0.91,1.49c-0.08-0.33-0.41-0.83-0.91-1.49c0,0-0.5-0.83-1.57-1.49c-0.25-0.16-0.5-0.33-0.66-0.41 c0.08,0.41,0.08,0.99,0.08,1.49c-0.08,1.24-0.66,2.15-0.66,2.23l-0.41,0.66l-0.25-0.83c0,0-0.33-1.08-0.83-1.82 c-0.33-0.41-0.58-0.74-0.83-0.91c-0.08,0.66-0.25,1.82-0.58,2.48c-0.5,1.08-1.16,1.9-1.9,2.4c-0.16,0.33-0.41,0.66-0.66,0.99 c-0.74,0.83-1.65,1.24-2.07,1.32c-0.33,0.08-1.08,0.08-1.08,0.08s0.74,0.33,1.4,0.41c0.66,0.08,1.02,0.04,1.24,0 c-0.16,0.41-1.72,1.23-2.48,1.2c0.3,0.42,1.41,0.71,2.05,0.51c-0.13,0.69-1.23,1.03-1.81,1.1c-0.58,0.07-1.65,0-2.4-0.74 c-0.91-0.91-0.99-1.9-0.83-2.56c0.08-0.08,0.08-0.25,0.08-0.41c0.16-0.5-0.17-0.91-0.25-0.99c-0.08-0.08-0.17-0.16-0.25-0.16 c-1.82-1.16-4.72-3.64-5.79-7.03c-0.25,1.49,0.08,4.63,1.16,6.28c-0.83,0.33-1.9,0.83-2.56,1.32c0.41,0.5,1.49,1.41,2.15,1.82 c-0.58,0.5-1.49,1.49-1.9,2.15c0.58,0.33,1.74,0.83,2.65,1.08c-0.41,0.66-1.08,1.9-1.24,2.65c0.99,0.16,2.07,0.16,2.98,0.08 c-0.08,0.83,0,1.99,0.08,2.73c0.91-0.16,1.98-0.5,2.65-0.91c0.16,0.58,0.5,1.74,0.83,2.32c0.74-0.74,1.73-1.18,2.72-1.11 c1.06,0.08,1.78,0.76,2.2,1.56v-9.55c0-0.29,0.18-0.47,0.46-0.47h18.11c0.28,0,0.46,0.18,0.46,0.47v9.39 c0.59-0.92,1.55-1.45,2.52-1.45c0.84,0,1.9,0.33,2.65,1.08c0.33-0.58,0.66-1.65,0.83-2.32c0.66,0.33,1.74,0.74,2.65,0.91 c0.08-0.83,0.17-1.9,0.08-2.73c0.91,0.08,1.9,0.08,2.98-0.08c-0.16-0.74-0.83-1.99-1.24-2.65c0.91-0.25,2.07-0.74,2.65-1.08 c-0.5-0.66-1.32-1.57-1.9-2.15c0.66-0.5,1.74-1.32,2.15-1.82C57.54,49.07,56.55,48.58,55.72,48.25 M61.18,38.24 c-0.66,2.32-2.32,4.22-3.39,5.38c0.08,1.16-0.25,3.14-0.91,4.3c0.91,0.33,1.99,0.83,2.73,1.41c-0.5,0.66-1.57,1.57-2.23,2.15 c0.58,0.58,1.49,1.65,1.99,2.32c-0.66,0.5-1.99,0.99-2.73,1.24c0.33,0.75,0.83,1.99,0.99,2.9c-0.83,0.16-1.9,0.25-3.06,0.25 c0.08,0.83-0.08,2.15-0.25,2.98c-1.08-0.08-2.32-0.5-2.9-0.83c-0.33,1.16-1.08,2.32-1.08,2.4c-0.99-1.16-2.01-1.57-2.89-1.57 c-0.88,0-1.76,0.67-2.52,1.86v7.25c0,1.7-0.67,2.56-1.99,2.56l-3.29,0.01c-2.14,0-3.69,0.84-4.24,1.74 c-0.65-0.96-1.98-1.74-4.24-1.74l-3.29-0.01c-1.32,0-1.98-0.86-1.98-2.56v-5.78c0-1.04-0.97-3.12-2.27-3.25 c-0.89-0.09-1.9,0.41-2.89,1.57c0-0.08-0.74-1.24-1.08-2.4c-0.58,0.25-1.82,0.75-2.89,0.83c-0.17-0.83-0.25-2.15-0.25-2.98 c-1.16,0-2.23-0.08-3.06-0.25c0.16-0.91,0.66-2.15,0.99-2.89c-0.74-0.25-2.07-0.83-2.73-1.24c0.41-0.66,1.41-1.74,1.99-2.32 c-0.66-0.5-1.74-1.49-2.23-2.15c0.75-0.58,1.82-1.08,2.73-1.4c-0.66-1.24-0.99-3.23-0.91-4.3c-1.16-1.16-2.81-3.06-3.39-5.38 c-0.83,2.89-0.66,6.95,2.07,8.77c-1.32,0-3.64,0.33-4.8,0.66c0.83,0.99,2.9,2.32,4.14,2.98c-0.99,0.33-2.73,1.32-3.47,1.99 c0.91,0.58,2.98,1.24,3.97,1.49c-0.58,0.5-1.74,1.82-2.15,2.48c0.83,0.25,2.48,0.5,3.56,0.5c-0.33,0.75-0.74,1.99-0.83,2.73 c0.5,0.08,2.23,0,3.14-0.25c-0.08,0.74-0.08,1.99,0.08,2.56c0.83-0.08,2.07-0.5,2.65-0.66c0.16,0.66,0.74,1.99,0.99,2.32 c0.41-0.08,0.83-0.16,1.24-0.33c1.16-0.41,2.4,0.08,2.89,1.16c0.83,1.9,0.5,4.14-1.08,3.72c-1.82,0.33-0.58,2.65-1.65,3.39 c1.41,0.99,1.82-1.32,3.64-0.91c-0.17,0.83-0.17,2.4,0,3.06c0.58-0.41,1.4-0.74,1.9-0.83c-0.16,0.5-0.25,1.65-0.08,2.4 c0.33-0.25,2.73-0.91,2.73-0.91s-0.91,1.82-0.33,3.64c0.33,0.25,2.48-0.83,2.48-1.41c0.08,0.74-0.83,2.4-2.23,2.73 c1.49,1.49,2.81,1.41,2.98,1.41c0.25,0,0.41,0,0.58-0.17c-0.08,0.41-0.17,0.99-0.08,1.32h0.25c0.41,0,0.74-0.08,0.99-0.16 c0.08,0.41,0.25,0.83,0.5,1.16c0.08,0.08,0.08,0.08,0.17,0.16c0.33,0,1.16-0.41,1.32-0.66c0.16,0.25,0.99,0.66,1.32,0.66 c0.08-0.08,0.16-0.08,0.16-0.16c0.33-0.33,0.5-0.83,0.5-1.16c0.33,0.16,0.66,0.16,0.99,0.16h0.25c0.08-0.33,0.08-0.91-0.08-1.32 c0.17,0.08,0.41,0.17,0.58,0.17c0.16,0,1.49,0.08,2.98-1.41c-1.41-0.33-2.32-1.99-2.23-2.73c0,0.66,2.15,1.65,2.48,1.41 c0.58-1.82-0.33-3.64-0.33-3.64s2.32,0.58,2.73,0.91c0.16-0.74,0.08-1.9-0.08-2.4c0.5,0,1.32,0.41,1.9,0.83 c0.17-0.66,0.17-2.15,0-3.06c1.74-0.41,2.15,1.9,3.64,0.91c-0.99-0.74,0.25-3.06-1.65-3.39c-1.57,0.5-1.9-1.82-1.08-3.72 c0.5-1.08,1.82-1.57,2.89-1.16c0.41,0.16,0.83,0.25,1.24,0.33c0.17-0.33,0.83-1.65,0.99-2.32c0.58,0.25,1.82,0.58,2.65,0.66 c0.08-0.58,0.16-1.82,0.08-2.56c0.83,0.17,2.65,0.25,3.14,0.25c-0.08-0.83-0.5-2.07-0.83-2.73c1.08-0.08,2.73-0.25,3.56-0.5 c-0.41-0.74-1.57-2.07-2.15-2.48c0.99-0.25,3.06-0.91,3.97-1.49c-0.58-0.74-2.32-1.74-3.31-2.07c1.24-0.58,3.31-1.99,4.14-2.98 c-1.16-0.41-3.47-0.66-4.8-0.66C61.84,45.1,61.92,41.13,61.18,38.24"></path> <path class="st2" d="M45.55,27.57"></path> <path class="st2" d="M45.88,29.56c0.33,0,0.5-0.25,0.5-0.58c0-0.33-0.25-0.58-0.5-0.58c-0.33,0-0.5,0.25-0.5,0.58 C45.38,29.31,45.63,29.56,45.88,29.56"></path> <path class="st2" d="M45.88,32.62c0.33,0,0.66-1.41,0.66-2.07c0-0.41-0.33-0.66-0.66-0.66c-0.33,0-0.66,0.25-0.66,0.66 C45.22,31.21,45.55,32.62,45.88,32.62"></path> </g> <polygon class="st2" points="45.55,27.57 46.29,27.57 46.13,26.66 47.03,26.74 47.03,26 46.13,26.16 46.29,25.26 45.55,25.26 45.63,26.16 44.72,26 44.72,26.74 45.63,26.66 "></polygon> <g> <path class="st2" d="M42.65,34.27c0.25,0.08,0.5,0.08,0.74,0.16h0.08h0.08h0.08h0.17h0.25h0.16h0.25c0.66,0,1.32-0.16,1.99-0.33 c0.66-0.17,1.32-0.33,2.07-0.33h0.08h0.08h0.08h0.08h0.08h0.08c0.17-0.74,0.41-1.57,0.41-2.07c0-0.99-0.58-2.07-2.48-2.4 c0,1.24-0.58,4.14-1.24,4.14h-0.08c-0.66,0-1.24-2.89-1.24-4.14c-1.9,0.33-2.48,1.41-2.48,2.4c0,0.58,0.25,1.65,0.5,2.4 C42.65,34.19,42.65,34.19,42.65,34.27"></path> <path class="st2" d="M52.58,29.06L52.58,29.06c0,0-0.5-1.32,0.33-1.74c0.91-0.33-0.33-0.16,0.33-1.98c0.74-2.15,2.4-1.65,2.4-1.65 c-1.16-0.91-2.07-0.83-2.73-0.33c-0.41,0.33-0.99,0.99-1.41,2.32C51.17,27.32,51.75,28.89,52.58,29.06"></path> <path class="st2" d="M56.88,25.83c0.08,2.73,4.63,3.89,4.63,3.89s-2.65-1.9-2.15-3.31c0,0,1.74,0.74,3.72,0.41 c-4.22-0.91-2.81-2.23-3.89-3.31c-1.08-1.16-2.73-1.24-3.14-1.32c-1.08-0.08-1.16-0.08-2.4,0.25 C56.55,22.53,56.88,24.02,56.88,25.83"></path> <path class="st2" d="M56.3,30.96c0.58-2.15-0.5-3.14-0.5-3.14c-0.33-0.41-2.07-0.33-2.73,0.08c0,0,1.65,0,1.41,2.4 c-0.25,2.4-3.56,2.9-4.47,2.98l-0.08,0.33C51.5,33.61,55.64,33.11,56.3,30.96"></path> <path class="st2" d="M39.01,30.88h-1.65c0.83,2.32,3.23,3.06,4.8,3.31l-0.08-0.25C40.42,33.28,39.59,32.62,39.01,30.88"></path> <path class="st2" d="M25.28,29.56c0.33,0,0.5-0.25,0.5-0.58c0-0.33-0.25-0.58-0.5-0.58c-0.33,0-0.5,0.25-0.5,0.58 C24.71,29.31,24.95,29.56,25.28,29.56"></path> <path class="st2" d="M25.28,32.62c0.33,0,0.66-1.41,0.66-2.07c0-0.41-0.33-0.66-0.66-0.66c-0.33,0-0.66,0.25-0.66,0.66 C24.62,31.21,24.87,32.62,25.28,32.62"></path> </g> <polygon class="st2" points="24.87,27.57 25.61,27.57 25.53,26.66 26.44,26.74 26.44,26 25.53,26.16 25.61,25.26 24.87,25.26 25.04,26.16 24.13,26 24.13,26.74 25.04,26.66 "></polygon> <g> <path class="st2" d="M25.62,27.57"></path> <path class="st2" d="M21.98,33.77L21.98,33.77h0.08h0.08h0.17h0.08h0.08c0.74,0.08,1.49,0.16,2.07,0.33 c0.58,0.16,1.32,0.33,1.99,0.33h0.25h0.16h0.25h0.16h0.08h0.08h0.08c0.25,0,0.5-0.08,0.74-0.17c0-0.08,0-0.08,0.08-0.08 c0.25-0.74,0.5-1.82,0.5-2.4c0-0.99-0.5-2.07-2.48-2.4c0,1.16-0.58,4.14-1.24,4.14h-0.08c-0.66,0-1.24-2.89-1.24-4.14 c-1.9,0.33-2.48,1.41-2.48,2.4c0,0.5,0.17,1.32,0.41,2.07C21.89,33.77,21.89,33.77,21.98,33.77"></path> <path class="st2" d="M15.44,23.68c0,0,1.65-0.5,2.4,1.65c0.66,1.82-0.58,1.65,0.33,1.98c0.91,0.33,0.33,1.74,0.33,1.74 c0.91-0.16,1.49-1.74,0.99-3.47c-0.41-1.32-0.99-1.99-1.41-2.32C17.43,22.86,16.6,22.77,15.44,23.68"></path> <path class="st2" d="M11.72,26.41c0.5,1.41-2.15,3.31-2.15,3.31s4.63-1.16,4.63-3.89c0.08-1.82,0.33-3.31,3.14-3.39 c-1.24-0.25-1.32-0.25-2.4-0.25c-0.41,0-2.07,0.16-3.14,1.32c-0.99,1.08,0.33,2.4-3.89,3.31C9.98,27.16,11.72,26.41,11.72,26.41"></path> <path class="st2" d="M16.68,30.3c-0.25-2.4,1.41-2.4,1.41-2.4c-0.58-0.41-2.32-0.41-2.73-0.08c0,0-1.08,0.91-0.5,3.14 c0.58,2.15,4.8,2.65,6.37,2.65l-0.08-0.33C20.24,33.19,16.93,32.7,16.68,30.3"></path> <path class="st2" d="M33.8,30.88h-1.65c-0.58,1.74-1.41,2.4-3.06,3.06l-0.08,0.25C30.66,33.94,32.98,33.19,33.8,30.88"></path> <path class="st2" d="M37.69,41.05c-0.5,0.74-0.91,1.57-1.24,2.4c0.25-0.33,0.66-0.66,1.08-0.99c0.74-0.5,1.4-0.83,1.4-0.83 l0.66-0.25l-0.16,0.66c0,0-0.25,1.08-0.17,1.99c0,0.41,0.17,0.83,0.25,1.08c0.17-0.41,0.41-0.83,0.66-1.24 c0.83-1.08,1.49-1.49,1.49-1.49l0.5-0.25v0.58c0,0,0.17,1.9,0.58,2.89c0.74,1.65,2.15,2.56,2.98,2.98 c-0.08-0.08-0.25-0.25-0.41-0.41c-0.41-0.41-0.83-1.16-1.08-2.73c-0.17-1.32,0.33-2.65,0.5-3.06c0.08,0.33,0.25,0.66,0.41,0.74 c0,0,0-0.33,0.08-0.66c0.16-0.91,1.16-2.32,2.48-3.14c0.25-0.16,0.5-0.33,0.66-0.41c0.25-0.08,0.41-0.25,0.58-0.41 c-0.25,0-0.58,0.08-0.83,0.08h-0.08h-0.74c-0.66,0-1.41-0.08-1.98-0.58c-0.58-0.5-0.83-0.99-0.91-1.32H43.4 c-0.5,0-0.91-0.16-1.16-0.16c-0.66,0.41-1.32,0.58-2.15,0.66h-0.33c0.25,0.25,0.58,0.41,0.83,0.58h0.08l-0.16,0.08 C40.58,37.74,39.43,38.41,37.69,41.05"></path> <path class="st2" d="M48.52,36.42h-0.91v0.5c0.08,0.25,0.17,0.41,0.33,0.58C48.19,37.33,48.44,36.92,48.52,36.42"></path> <path class="st2" d="M49.19,34.52L49.19,34.52C49.1,34.52,49.1,34.52,49.19,34.52H49.1h-0.08h-0.17c-0.66,0-1.32,0.16-1.98,0.33 c-0.66,0.16-1.41,0.33-2.07,0.33h-0.41h-0.25h-0.17h-0.16h-0.08h-0.08c-1.49-0.17-2.48-0.66-2.98-0.91 c0.08,0.16,0.25,0.33,0.5,0.58l0.25,0.25c0.16,0.16,0.41,0.33,0.66,0.5c0.33,0.16,1.74,0.74,3.56,0.5 c2.07-0.33,2.48-0.25,2.98-0.25h0.17c0.74,0.08,1.82,0.5,2.23,0.74c0.17-0.41,0.41-0.83,0.5-1.24c-0.08-0.08-0.25-0.25-0.58-0.41 c-0.08-0.08-0.17-0.08-0.33-0.16c-0.17-0.08-0.41-0.16-0.74-0.16C49.52,34.52,49.35,34.52,49.19,34.52"></path> <path class="st2" d="M54.97,41.3L54.97,41.3c-0.08,0-0.83,0.41-2.4-0.58c-1.57-0.99-2.73-1.41-3.39-1.57 c-0.17,0.08-0.25,0.16-0.41,0.25c-0.16,0.08-0.41,0.25-0.66,0.41c-0.08,0.08-0.17,0.08-0.25,0.16h0.16 c1.49,0.16,2.65,0.99,2.73,1.32h0.08c0.17-0.5-0.08-0.91-0.08-0.91s0.66,0.41,1.98,1.16C54.15,42.46,54.73,41.63,54.97,41.3"></path> <path class="st2" d="M47.12,37.25c-0.08-0.08-0.16-0.25-0.25-0.33c-0.08-0.16-0.08-0.25-0.08-0.33c-0.33,0-0.74,0.08-1.24,0.17 h-0.33c0.25,0.5,0.66,0.99,1.49,1.16h0.16h0.16c0.33,0.08,0.75,0.08,0.99,0.08c0.58,0,1.24-0.08,1.9-0.25 c0.16-0.16,0.25-0.41,0.41-0.58c0,0-0.08-0.08-0.16-0.08c-0.17-0.08-0.58-0.33-0.83-0.41c-0.08,0.25-0.25,0.5-0.41,0.66 c-0.25,0.16-0.58,0.25-0.91,0.25c-0.33,0-0.66-0.08-0.83-0.25C47.12,37.33,47.12,37.25,47.12,37.25"></path> <path class="st2" d="M51.5,37L51.5,37c0.16-0.16,0.25-0.5,0.25-0.5c0.25,0,0.74,0.08,0.74,0.41C52.16,36.83,51.75,36.83,51.5,37 M51.5,36.01c-0.5,1.32-1.32,2.32-1.9,2.81c3.72-0.99,4.38,0.91,4.38,0.99c0,0.08,0,0.08,0.08,0c0.08-0.08,1.32-1.41,0.41-2.65 C53.73,36.17,52.08,36.01,51.5,36.01"></path> <path class="st2" d="M23.55,36.92v-0.5h-0.91c0.08,0.5,0.33,0.91,0.58,1.08C23.38,37.33,23.46,37.16,23.55,36.92"></path> <path class="st2" d="M27.77,35.1L27.77,35.1C27.68,35.1,27.68,35.1,27.77,35.1h-0.08H27.6h-0.17h-0.16h-0.25h-0.41 c-0.74,0-1.4-0.16-2.07-0.33c-0.74-0.08-1.41-0.25-2.07-0.25h-0.17h-0.08h-0.41c-0.33,0-0.58,0.08-0.74,0.17 c-0.08,0.08-0.25,0.08-0.33,0.16c-0.25,0.16-0.41,0.25-0.58,0.41c0.08,0.41,0.33,0.91,0.5,1.24c0.41-0.25,1.49-0.74,2.23-0.74 h0.17c0.5,0,0.91-0.08,2.98,0.25c1.82,0.25,3.14-0.33,3.56-0.5c0.25-0.16,0.5-0.33,0.66-0.5c0.08-0.08,0.16-0.16,0.25-0.25 c0.16-0.25,0.33-0.41,0.5-0.58C30.25,34.43,29.25,34.93,27.77,35.1"></path> <path class="st2" d="M16.19,41.3L16.19,41.3c0.25,0.25,0.83,1.16,2.15,0.41c1.32-0.74,1.99-1.16,1.99-1.16s-0.25,0.41-0.08,0.91 h0.08c0.16-0.33,1.32-1.24,2.73-1.32h0.17c-0.08-0.08-0.17-0.08-0.25-0.16c-0.25-0.16-0.5-0.33-0.66-0.41 c-0.16-0.08-0.25-0.16-0.41-0.25c-0.66,0.08-1.82,0.58-3.39,1.57C17.01,41.71,16.27,41.3,16.19,41.3"></path> <path class="st2" d="M21.81,36.67c-0.16,0.08-0.66,0.33-0.83,0.41c-0.08,0-0.08,0.08-0.16,0.08c0.16,0.25,0.25,0.41,0.41,0.58 c0.66,0.16,1.32,0.25,1.9,0.25c0.33,0,0.66,0,0.99-0.08h0.17h0.16c0.83-0.16,1.32-0.74,1.49-1.16h-0.33 c-0.5-0.08-0.91-0.17-1.24-0.17c0,0.08-0.08,0.25-0.08,0.33c-0.08,0.16-0.17,0.25-0.25,0.33l-0.08,0.08 c-0.25,0.16-0.5,0.25-0.83,0.25c-0.33,0-0.66-0.08-0.91-0.25C21.98,37.16,21.89,36.92,21.81,36.67"></path> <path class="st2" d="M19.66,37c-0.25-0.17-0.66-0.17-0.99-0.08c0-0.33,0.5-0.41,0.75-0.41C19.41,36.5,19.49,36.83,19.66,37 M16.6,37.16c-0.91,1.24,0.33,2.56,0.41,2.65c0.08,0.08,0.08,0,0.08,0c0-0.08,0.66-1.98,4.38-0.99c-0.58-0.5-1.41-1.49-1.9-2.81 C19.08,36.01,17.34,36.17,16.6,37.16"></path> <path class="st2" d="M31.32,37.16h-0.33c-0.83,0-1.49-0.25-2.15-0.66c-0.25,0.08-0.74,0.17-1.16,0.17h-0.99 c-0.08,0.33-0.33,0.91-0.91,1.32c-0.58,0.5-1.32,0.58-1.99,0.58h-0.74h-0.08c-0.16,0-0.5-0.08-0.83-0.08 c0.25,0.16,0.41,0.25,0.58,0.41c0.16,0.08,0.41,0.25,0.66,0.41c1.32,0.91,2.32,2.23,2.48,3.14c0.08,0.33,0.08,0.66,0.08,0.66 c0.16-0.08,0.33-0.41,0.41-0.74c0.17,0.41,0.75,1.74,0.5,3.06c-0.25,1.57-0.66,2.32-1.08,2.73c-0.17,0.16-0.33,0.33-0.41,0.41 c0.83-0.41,2.23-1.32,2.98-2.98c0.41-0.91,0.58-2.81,0.58-2.81v-0.58l0.5,0.25c0,0,0.74,0.41,1.49,1.49 c0.25,0.41,0.5,0.83,0.66,1.24c0.08-0.33,0.16-0.66,0.25-1.08c0.08-0.99-0.16-1.98-0.16-1.98l-0.17-0.66l0.66,0.25 c0,0,0.66,0.25,1.41,0.83c0.5,0.33,0.83,0.66,1.08,0.99c-0.33-0.83-0.66-1.65-1.24-2.4c-1.74-2.65-2.81-3.23-2.81-3.23l-0.17-0.08 h0.08C30.74,37.58,31.07,37.33,31.32,37.16"></path> <path class="st2" d="M41.95,63.84c-0.07,0.19-0.61-0.01-0.7-0.22c-0.03-0.08,0.23-0.62-0.05-0.92v0c-0.17-0.18-0.34-0.36-0.5-0.55 c-0.18-0.2-0.3-0.27-0.48-0.27c-0.4,0-0.84,0.22-1.07,0.38c-0.02,0.01-0.03,0.02-0.03,0.06c0.24-0.02,0.49-0.04,0.74-0.07 c0.22-0.02,0.42-0.02,0.6,0.12c0.15,0.11,0.23,0.24,0.23,0.42c0.02,0.56,0.47,1.74,0.5,2.09c0.03,0.14-0.13,0.18-0.36,0.83 c-0.17,0.19-0.63-0.42-0.56-0.56c0.27-0.35,0.34-0.57,0.27-0.83c-0.05-0.21-0.16-0.59-0.23-0.79c-0.1-0.27-0.33-0.37-0.61-0.28 c-1.11,0.37-1.28-0.12-2.39,0.34l1.27,1.97c0-0.14-0.07-0.4-0.28-0.58c0.04-0.2,0.44-0.28,0.59-0.09 c0.18,0.23,0.54,0.57,0.84,0.62c0.57,0.11,0.52,0.97,2.04,1.25c-0.19,0.2-0.61,0.13-0.79,0.04c0.11,0.17,0.24,0.33,0.46,0.39 c-0.23,0.23-0.91-0.32-0.84,0.24c0.12-0.07,0.28-0.08,0.41-0.04c0.3,0.08,0.8,1.79-0.25,2.55c0.22,0.07,0.46-0.05,0.69-0.05 c0.13,0,0.26,0.13,0.27,0.27c0.1,0.08,0.16,0.17,0.22,0.29c-0.08,0.02-0.23,0-0.31-0.06c0.03,0.1,0.03,0.32-0.01,0.33 c-0.09,0.01-0.17-0.04-0.26-0.1c-0.14,0.07-0.58,0.04-0.7-0.07c-0.33,0.08-0.66,0.19-1.01,0.19c-0.19,0-0.43-0.01-0.43-0.24 c0-0.11,0.06-0.17,0.1-0.29c-0.16-0.16-0.43,0-0.74,0.03c-0.43,0.04-0.61-0.03-0.7-0.11c0.41-0.38,0.16-1.3-0.47-1.38 c0.52,0.5,0.45,1.3-0.13,1.48c0.17,0.06,0.25,0.13,0.31,0.25c0.2,0.08,0.21,0.23,0.19,0.3c-0.11-0.08-0.31-0.16-0.47-0.14 c-0.01,0.07-0.04,0.2-0.1,0.25c-0.07-0.02-0.16-0.08-0.19-0.13c-0.18-0.14-1.34,0.13-1.4-0.06c-0.04-0.17,0.26-0.32,0.54-0.39 c-0.73-0.27-1.36-1.64-2.48-1.88c-0.52-0.11-1.23,0.13-1.23,0.81c0,0.33,0.27,0.59,0.56,0.59c0.27,0,0.4-0.18,0.4-0.37 c-0.04,0.03-0.07,0.05-0.1,0.07c-0.16,0.14-0.37,0.13-0.52-0.02c-0.13-0.13-0.13-0.35,0-0.5c0.1-0.13,0.23-0.2,0.4-0.22 c0.44-0.06,0.8,0.08,1.04,0.43c0.11,0.17,0.18,0.35,0.18,0.52c0,0.78-0.78,0.96-1.21,0.96c-1.09,0-1.73-0.78-1.73-1.69 c0-0.1,0-0.21,0.02-0.32c0.17-1.02,1.08-1.44,1.86-1.57c-0.1-0.35-0.29-0.64-0.57-0.87c-0.14-0.12-0.15-0.21-0.06-0.36 c0.12-0.2,0.24-0.4,0.29-0.63c0.01-0.05,0.02-0.11,0.02-0.16c-0.39,0.35-0.93,0.67-1.69,0.9c-0.24,0.11-0.36,0.33-0.39,0.58 c-0.03,0.29-0.04,0.58-0.05,0.88c0,0.07,0.05,0.14,0.08,0.21c0.14,0.24,0.3,0.48,0.33,0.78c0,0.15-0.73,0.16-0.73,0.04 c-0.01-0.53-0.36-0.74-0.32-1.08c0.1-0.54,0.12-1.09,0.03-1.64c-0.02-0.14,0.05-0.23,0.15-0.3c0.15-0.12,0.32-0.23,0.48-0.34 c0.37-0.28,0.52-0.65,0.43-1.1c-0.01-0.06-0.04-0.12-0.06-0.17c-0.18-0.4-0.32-0.81-0.32-1.27c0-0.5-0.62-0.47-0.58,0.02 c0.01,0.15,0.13,0.37,0.19,0.51c0.63,1.46-0.51,2.51-1.68,2.51c1.24-0.43-0.29-2.02-0.29-3.2c0-0.73,0.56-1.26,1.23-1.26 c0.77,0,1.26,0.5,1.4,0.58c0.37-0.59,1.52-0.7,1.94-0.77c-0.03-0.32,0.01-0.6,0.21-0.85c0.01-0.02,0.02-0.05,0.01-0.07 c-0.06-0.15-0.13-0.3-0.21-0.45c-0.35,0.4-0.44,0.93-0.44,1.2c-1.3-0.02-1.88-0.59-2.26-0.82c0-0.1,0.35-0.72,0.65-1.14 c-0.34,0.29-0.61,0.62-0.82,1.01c-0.19-0.13-0.38-0.26-0.57-0.34c0.29-0.63,0.68-1.12,1.18-1.63c-0.7,0.26-1.31,1.05-1.54,1.55 c-0.2-0.02-0.49-0.03-0.66,0c0.76-0.93,1.11-2.77,2.78-3.18c-0.42,1.7,0.62,2.4,1.34,1.95c-0.09,0-0.16,0.01-0.22,0 c-1.4-0.36-0.57-2.3-0.91-2.7c-0.13-0.15-0.19-0.29-0.17-0.49c0.01-0.07-0.01-0.15-0.04-0.21l-0.74-1.24 c-0.09-0.16,0.2-0.27,0.26-0.2l0.76,1.24c0.02,0.03,0.04,0.08,0.07,0.08c0.28,0.05,0.36,0.28,0.48,0.48 c0.03,0.07,0.06,0.14,0.07,0.22c0,0.06-0.01,0.14-0.05,0.17c-0.12,0.12-0.1,0.24,0,0.4c0.15,0.25,4.64,7.75,4.64,7.75 c-0.98,0.4-2.74,0.43-3.25,0.38c-0.11,0.26-0.27,0.54-0.52,0.8c0.24-0.16,0.43-0.36,0.61-0.58c0.2,0.02,0.49,0.1,0.8,0.12 c-0.18,0.38-0.45,0.77-0.79,1.08c-0.16,0.16-0.36,0.3-0.29,0.56c0.08,0.29,0.62,0.84,0.82,1.2c0.19,0.04,0.52,0.11,0.76,0.21 c0.14,0.3,0.6,0.67,1.16,0.47c-1.12-0.01-1.04-1.17-0.69-1.78c-0.04,0.57,0.24,1.04,0.58,1.09c-0.52-0.47-0.47-1.55,0.04-2.14 c0.07,0.96,0.36,1.46,0.78,1.58c-0.55-0.51-0.88-1.68-0.05-2.53c0.06,2.19,2.07,1.79,2.25,4.33c0.74,0,0.78-1,0.37-1.18 c-0.24-0.09-0.46-0.25-0.58-0.47c-0.05-0.09-0.1-0.25-0.15-0.35c-0.22-0.65-0.84-0.61-0.83-0.77c0.01-0.05,0.11-0.08,0.25-0.08 l-1.17-1.81l-0.06-0.09c0.14-0.03,0.17-0.11,0.03-0.34c0,0-4.4-7.33-4.42-7.37c0.41-0.07,0.8,0.04,1.18,0.19 c-0.1-0.09-0.19-0.23-0.2-0.36c-0.01-0.11-0.01-0.17,0.08-0.24c0.09-0.08,0.18-0.16,0.25-0.26c0.22-0.33,0.62-0.49,0.99-0.39 c0.55,0.16,0.75,0.78,0.34,1.11c-0.22,0.48-0.48,0.42-0.54,0.63c0.11,0.05,0.86,0.63,0.91,0.88c-0.23,0.47-0.34,1.2-0.14,1.61 c0.15-1.94,1.31-2.89,2.45-2.89c0.27,0,0.54,0.05,0.81,0.14c0.15,0.05,0.3,0.12,0.42,0.22c0.18,0.14,0.34,0.29,0.49,0.45 c0.22,0.24,0.43,0.51,0.8,0.52c-0.11,0.16-0.24,0.27-0.36,0.39c-0.09,0.08-0.14,0.18-0.15,0.31c-0.03,0.27-0.11,0.52-0.31,0.72 c-0.03,0.03-0.05,0.06-0.06,0.09c-0.13,0.37-0.25,0.73-0.37,1.1c-0.03,0.09-0.02,0.21-0.14,0.21c-0.1,0-0.23-0.03-0.31-0.1 c-0.17-0.13-0.23-0.33-0.17-0.54c0.06-0.21,0-0.38-0.07-0.58c-0.07-0.19-0.09-0.4-0.14-0.62c-0.31-0.11-0.89,0.56-0.45,1.12 c0.29,0.41,0.55,1.17,0.59,1.48c0.01,0.03-0.26,0.2-0.64,0.15c-1.27-0.16-2.07-1.04-2.32-1.79c-0.02,1.26,1.02,2.19,2.57,2.1 c0.06,0.29,0.3,0.49,0.58,0.5c0.06-0.19,0.06-0.59,0.01-0.84c-0.02-0.11,0.04-0.17,0.14-0.2c0.34-0.08,0.78-0.05,1.16-0.19 c0.33-0.12,0.49-0.05,0.7,0.35c0.16,0.31,0.43,0.63,0.68,0.86c0.11,0.09,0.21,0.19,0.31,0.29c0.13,0.13,0.2,0.28,0.21,0.47 C41.91,63.24,41.95,63.83,41.95,63.84 M30.02,68.15c-0.03,0.36,0.39,1.03,1.09,0.82c-0.02,0.13,0.02,0.5,0.17,0.78 C30.05,70.02,29.52,69.01,30.02,68.15 M44.2,69.65V53.21c0-0.27-0.16-0.44-0.43-0.44H27.05c-0.26,0-0.43,0.17-0.43,0.44v16.43 c0,1.57,0.62,2.36,1.83,2.36l3.04,0.01c2.09,0,3.31,0.72,3.91,1.61c0.51-0.83,1.94-1.61,3.91-1.61l3.04-0.01 C43.58,72.01,44.2,71.21,44.2,69.65"></path> </g> </g> </svg> 