<svg width="100" height="83" viewBox="0 0 100 83" fill="none" xmlns="http://www.w3.org/2000/svg">
<g clip-path="url(#clip0_204_177)">
<path d="M99.0562 0.00390625H30.174C29.8503 0.00390625 29.5691 0.199911 29.4498 0.498176L0.121175 81.4216C0.104133 81.4731 0.0870907 81.5242 0.0785701 81.5752C0.0785701 81.5922 0.0700505 81.601 0.0700505 81.618C0.0615299 81.6943 0.0615283 81.7629 0.0785701 81.8309C0.0785701 81.8479 0.0870912 81.8649 0.0956118 81.8907C0.104133 81.9417 0.121174 81.984 0.146736 82.0356C0.155257 82.0608 0.172299 82.0778 0.18082 82.0949C0.206383 82.1289 0.223425 82.1717 0.257508 82.2057C0.274549 82.2315 0.291591 82.2485 0.308632 82.2655C0.334194 82.2913 0.368278 82.3165 0.402361 82.3423C0.427924 82.3593 0.444965 82.3763 0.470528 82.3933C0.513132 82.4191 0.555737 82.4361 0.59834 82.4444C0.615381 82.4531 0.640943 82.4614 0.657984 82.4702C0.717628 82.4872 0.785798 82.4954 0.845443 82.4954C0.853963 82.4954 0.853963 82.4954 0.862484 82.4954C0.879525 82.4954 0.896567 82.4954 0.905087 82.4872C0.964737 82.4784 1.01586 82.4702 1.0755 82.4531C1.08403 82.4531 1.10107 82.4531 1.10959 82.4444L89.9304 50.1125C90.2371 50.0017 90.4418 49.7034 90.4418 49.3796V31.7649L99.3969 26.6859C99.6614 26.5495 99.8315 26.2854 99.8315 25.9871V0.787919C99.8315 0.353305 99.4825 0.00390625 99.0562 0.00390625ZM32.5854 25.1178V21.7688H33.838V29.5918H32.5854V26.2427H31.1881V29.5918H29.9611V21.7688H31.1881V25.1178H32.5854ZM34.6134 29.5833L35.866 21.7603H37.6638L38.9164 29.5833H37.6724L37.4594 28.1687H35.9512L35.7382 29.5833H34.6134ZM42.3162 28.467V21.7603H43.5688V28.484H44.1056V30.6315H42.9127V29.5833H39.6918V21.7603H40.9188V28.467H42.3162ZM46.4914 24.99L47.4969 21.7603H48.8517V29.5833H47.744V24.0782L47.2413 25.9956L46.2102 29.5833H44.9491V21.7603H46.0483V26.7114L46.4914 24.99ZM49.7634 27.7085V23.6436C49.7634 22.3908 50.4195 21.675 51.6294 21.675C52.8392 21.675 53.4954 22.3908 53.4954 23.6436V27.7085C53.4954 28.9612 52.8392 29.6771 51.6294 29.6771C50.4195 29.6771 49.7634 28.9612 49.7634 27.7085ZM57.0402 25.1178V21.7688H58.2928V29.5918H57.0402V26.2427H55.6428V29.5918H54.416V21.7688H55.6428V25.1178H57.0402ZM59.5026 38.9744H58.25V32.2677H56.8526V38.9744H55.6258V31.1513H59.5026V38.9744ZM60.2098 29.5833H59.0851L60.3377 21.7603H62.1356L63.3882 29.5833H62.1444L61.931 28.1687H60.4227L60.2098 29.5833ZM61.7181 38.9744H60.4913V31.1513H62.2974C63.5248 31.1513 64.1294 31.8331 64.1294 33.0858V34.0999C64.1294 35.3526 63.5248 36.0343 62.2974 36.0343H61.7181V38.9744ZM68.4665 29.5833H67.2139V22.8766H66.1402L66.0042 27.6062C65.9614 29.0379 65.4418 29.5918 64.2145 29.5918H64.0273V28.4755C64.5897 28.4755 64.7686 28.3988 64.7856 27.6744L64.9902 21.7603H68.4665V29.5833ZM68.6114 33.0261V37.0911C68.6114 38.3438 67.9552 39.0596 66.7454 39.0596C65.5356 39.0596 64.8794 38.3438 64.8794 37.0911V33.0261C64.8794 31.7734 65.5356 31.0576 66.7454 31.0576C67.9552 31.0576 68.6114 31.7734 68.6114 33.0261ZM65.4758 43.4825C65.4758 44.7352 64.8706 45.417 63.6438 45.417H63.0645V48.357H61.8371V40.5339H63.6438C64.8706 40.5339 65.4758 41.2157 65.4758 42.4683V43.4825ZM69.9578 46.4822C69.9578 47.7349 69.3016 48.4507 68.0918 48.4507C66.8815 48.4507 66.2258 47.7349 66.2258 46.4822V42.4173C66.2258 41.1645 66.8815 40.4487 68.0918 40.4487C69.3016 40.4487 69.9578 41.1645 69.9578 42.4173V46.4822ZM71.2701 24.7003C72.4969 24.7003 73.1021 25.382 73.1021 26.6347V27.6488C73.1021 28.9016 72.4969 29.5833 71.2701 29.5833H69.4634V21.7603H70.6907V24.7003H71.2701ZM72.4459 34.4493V35.5656H70.7588V37.858H72.8804V38.9744H69.5315V31.1513H72.8804V32.2677H70.7588V34.4493H72.4459ZM74.4737 43.1757H73.315V42.3405C73.315 41.7781 73.0681 41.5736 72.6758 41.5736C72.284 41.5736 72.0366 41.7866 72.0366 42.3405V46.5674C72.0366 47.1298 72.284 47.3258 72.6758 47.3258C73.0681 47.3258 73.315 47.1213 73.315 46.5674V45.451H74.4737V46.4907C74.4737 47.7434 73.8516 48.4592 72.6418 48.4592C71.432 48.4592 70.8098 47.7434 70.8098 46.4907V42.4258C70.8098 41.173 71.4402 40.4572 72.6418 40.4572C73.8516 40.4572 74.4737 41.173 74.4737 42.4258V43.1757ZM74.9933 38.9744H73.7665V31.1513H74.9933V34.5601L76.6041 31.1513H77.831L76.1181 34.6367L77.831 38.9744H76.5696L75.3768 35.8554L74.9933 36.5712V38.9744ZM76.6041 25.1178V21.7688H77.8567V29.5918H76.6041V26.2427H75.2067V29.5918H73.9794V21.7688H75.2067V25.1178H76.6041ZM78.9727 43.1757H77.8139V42.3405C77.8139 41.7781 77.567 41.5736 77.1748 41.5736C76.783 41.5736 76.5356 41.7866 76.5356 42.3405V46.5674C76.5356 47.1298 76.783 47.3258 77.1748 47.3258C77.567 47.3258 77.8139 47.1213 77.8139 46.5674V45.451H78.9727V46.4907C78.9727 47.7434 78.3505 48.4592 77.1407 48.4592C75.931 48.4592 75.3088 47.7434 75.3088 46.4907V42.4258C75.3088 41.173 75.931 40.4572 77.1407 40.4572C78.3505 40.4572 78.9727 41.173 78.9727 42.4258V43.1757ZM78.4614 32.2677V31.1513H82.2619V32.2677H80.9753V38.9744H79.748V32.2677H78.4614ZM80.6428 24.7003C81.8696 24.7003 82.4748 25.382 82.4748 26.6347V27.6488C82.4748 28.9016 81.8696 29.5833 80.6428 29.5833H78.8366V21.7603H80.0634V24.7003H80.6428ZM83.7444 48.357H82.6366V42.8433L82.134 44.7692L81.1031 48.357H79.8418V40.5339H80.9413V45.4851L81.3928 43.7637L82.398 40.5339H83.7531V48.357H83.7444ZM84.2727 31.1513V34.0914H84.8521C86.0789 34.0914 86.6841 34.7731 86.6841 36.0258V37.0399C86.6841 38.2927 86.0789 38.9744 84.8521 38.9744H83.0459V31.1513H84.2727ZM83.182 29.5833V21.7603H84.4088V29.5833H83.182ZM88.6181 48.357H87.5103V42.8433L87.0078 44.7692L85.9768 48.357H84.716V40.5339H85.815V45.4851L86.2583 43.7637L87.2634 40.5339H88.6181V48.357ZM88.6181 38.9744H87.3913V31.1513H88.6181V38.9744ZM88.7459 22.8766H86.6243V25.0582H88.3114V26.1746H86.6243V28.467H88.7459V29.5833H85.3975V21.7603H88.7459V22.8766ZM99.2608 25.9871C99.2608 26.0638 99.2181 26.1405 99.15 26.1746L99.133 26.1831L99.116 26.1916L90.45 31.1087V20.9847C90.45 20.5501 90.1011 20.2007 89.6665 20.2007H29.1601C28.8533 20.2007 28.5807 20.3797 28.4529 20.6524L2.86488 75.5332L29.9781 0.719746C30.0122 0.634524 30.0888 0.583394 30.174 0.583394H99.0562C99.1758 0.583394 99.2691 0.677132 99.2691 0.796441V25.9871H99.2608Z" fill="#64BDE1"/>
<path d="M68.0904 41.5649C67.6986 41.5649 67.4512 41.778 67.4512 42.3319V46.5588C67.4512 47.1212 67.6986 47.3257 68.0904 47.3257C68.4826 47.3257 68.7295 47.1126 68.7295 46.5588V42.3319C68.7295 41.778 68.4826 41.5649 68.0904 41.5649Z" fill="#64BDE1"/>
<path d="M66.7476 32.1738C66.3553 32.1738 66.1084 32.3868 66.1084 32.9408V37.1676C66.1084 37.7301 66.3553 37.9346 66.7476 37.9346C67.1393 37.9346 67.3867 37.7215 67.3867 37.1676V32.9408C67.3867 32.3868 67.1393 32.1738 66.7476 32.1738Z" fill="#64BDE1"/>
<path d="M62.9008 34.1762V33.0002C62.9008 32.4377 62.688 32.2588 62.2962 32.2588H61.7163V34.9091H62.2962C62.688 34.9176 62.9008 34.7386 62.9008 34.1762Z" fill="#64BDE1"/>
<path d="M60.585 27.1036H61.7695L61.1731 23.1494L60.585 27.1036Z" fill="#64BDE1"/>
<path d="M36.6988 23.1494L36.1108 27.1036H37.2952L36.6988 23.1494Z" fill="#64BDE1"/>
<path d="M70.6914 28.4665H71.2708C71.6625 28.4665 71.8754 28.2875 71.8754 27.7251V26.549C71.8754 25.9866 71.6625 25.8076 71.2708 25.8076H70.6914V28.4665Z" fill="#64BDE1"/>
<path d="M52.2607 27.7853V23.5585C52.2607 22.996 52.0133 22.7915 51.6215 22.7915C51.2295 22.7915 50.9824 23.0045 50.9824 23.5585V27.7853C50.9824 28.3478 51.2295 28.5523 51.6215 28.5523C52.022 28.5608 52.2607 28.3478 52.2607 27.7853Z" fill="#64BDE1"/>
<path d="M63.6453 41.6504H63.0659V44.3007H63.6453C64.0371 44.3007 64.2499 44.1217 64.2499 43.5593V42.3833C64.2499 41.8293 64.0371 41.6504 63.6453 41.6504Z" fill="#64BDE1"/>
<path d="M85.4589 37.1162V35.9402C85.4589 35.3777 85.2461 35.1987 84.8538 35.1987H84.2744V37.8491H84.8538C85.2461 37.8576 85.4589 37.6786 85.4589 37.1162Z" fill="#64BDE1"/>
<path d="M80.064 28.4665H80.6433C81.0356 28.4665 81.2485 28.2875 81.2485 27.7251V26.549C81.2485 25.9866 81.0356 25.8076 80.6433 25.8076H80.064V28.4665Z" fill="#64BDE1"/>
<path d="M42.5556 8.67914C42.2317 8.47463 41.8653 8.38086 41.4478 8.38086C41.0303 8.38086 40.6639 8.48314 40.3401 8.68765C40.0163 8.89221 39.7692 9.18194 39.5903 9.56544C39.4114 9.94889 39.3262 10.392 39.3262 10.8863V11.1761C39.3262 11.6703 39.4199 12.0964 39.5988 12.4714C39.7778 12.8463 40.0249 13.1361 40.3486 13.3406C40.6725 13.5451 41.0474 13.6474 41.4564 13.6474C41.8739 13.6474 42.2488 13.5451 42.5726 13.3406C42.8964 13.1361 43.1435 12.8463 43.3139 12.4714C43.4843 12.0964 43.578 11.6533 43.578 11.1505V10.8693C43.578 10.3665 43.4843 9.93188 43.3139 9.55688C43.1264 9.17343 42.8793 8.88365 42.5556 8.67914ZM42.6833 11.1505C42.6833 11.73 42.5811 12.1646 42.3681 12.4629C42.1551 12.7611 41.8568 12.9145 41.4564 12.9145C41.0644 12.9145 40.7662 12.7611 40.5446 12.4543C40.3231 12.1476 40.2123 11.7129 40.2123 11.1505V10.8522C40.2209 10.2983 40.3316 9.87223 40.5446 9.57395C40.7577 9.27566 41.0644 9.12229 41.4478 9.12229C41.8398 9.12229 42.1465 9.27566 42.3596 9.57395C42.5726 9.87223 42.6833 10.3153 42.6833 10.8778V11.1505Z" fill="#64BDE1"/>
<path d="M47.3694 10.6052C47.0882 10.4774 46.7644 10.4092 46.3895 10.4092H45.3415V9.16503H47.7017V8.44922H44.4468V13.5708H46.4066C46.9689 13.5623 47.412 13.4175 47.7358 13.1277C48.0596 12.838 48.2215 12.4545 48.2215 11.9772C48.2215 11.6619 48.1533 11.3892 47.9999 11.1506C47.8551 10.9206 47.6421 10.7331 47.3694 10.6052ZM47.0797 12.6164C46.9093 12.7783 46.6792 12.8635 46.381 12.8635H45.3329V11.1251H46.398C46.6878 11.1336 46.9178 11.2103 47.0797 11.3551C47.2416 11.5086 47.3268 11.7046 47.3268 11.9687C47.3353 12.2414 47.2501 12.4545 47.0797 12.6164Z" fill="#64BDE1"/>
<path d="M52.2764 8.90067C51.9352 8.60238 51.4838 8.45752 50.9129 8.45752H48.9531V13.5791H49.8393V11.6702H50.8959C51.4923 11.6702 51.9522 11.5339 52.2764 11.2527C52.6084 10.9714 52.7702 10.5794 52.7702 10.0766C52.779 9.59091 52.6084 9.1989 52.2764 8.90067ZM51.6372 10.7329C51.4667 10.8777 51.2282 10.9544 50.9129 10.9544H49.8393V9.16482H50.9299C51.2282 9.17333 51.4582 9.25855 51.6285 9.42047C51.7991 9.5824 51.8842 9.80397 51.8842 10.0852C51.8842 10.3664 51.8074 10.588 51.6372 10.7329Z" fill="#64BDE1"/>
<path d="M54.6811 8.44922L52.7466 13.5708H53.6754L54.093 12.3778H56.078L56.4955 13.5708H57.4244L55.4904 8.44922H54.6811ZM54.3399 11.6619L55.0811 9.54002L55.8229 11.6619H54.3399Z" fill="#64BDE1"/>
<path d="M60.6761 10.9458C60.9318 10.835 61.1277 10.6816 61.2643 10.4856C61.4091 10.2896 61.4772 10.0765 61.4772 9.8464C61.4772 9.38624 61.3153 9.02831 60.9916 8.77266C60.6674 8.51701 60.2076 8.38916 59.6282 8.38916C59.2957 8.38916 58.9973 8.44886 58.7163 8.56815C58.4437 8.68744 58.2308 8.85788 58.0689 9.07945C57.9153 9.30103 57.8385 9.54817 57.8385 9.82939H58.7251C58.7251 9.61632 58.8101 9.44589 58.9802 9.30953C59.1509 9.17318 59.3638 9.10502 59.6194 9.10502C59.9179 9.10502 60.1565 9.17318 60.3266 9.30953C60.4973 9.44589 60.5911 9.62488 60.5911 9.85496C60.5911 10.3663 60.2756 10.6219 59.6452 10.6219H59.0741V11.3292H59.6792C60.0029 11.3292 60.2498 11.3974 60.4122 11.5252C60.5823 11.6531 60.6674 11.8661 60.6674 12.1559C60.6674 12.3945 60.5741 12.5819 60.3777 12.7353C60.1906 12.8802 59.9349 12.9569 59.6194 12.9569C59.3385 12.9569 59.1081 12.8802 58.921 12.7268C58.7421 12.5734 58.6483 12.3859 58.6483 12.1729H57.7622C57.7622 12.4627 57.8385 12.7183 57.9833 12.9399C58.1282 13.1615 58.3498 13.3404 58.6395 13.4682C58.9292 13.596 59.2617 13.6642 59.6194 13.6642C60.2076 13.6642 60.6761 13.5279 61.0256 13.2552C61.3746 12.9825 61.554 12.616 61.554 12.1559C61.554 11.8576 61.4772 11.6104 61.3235 11.4059C61.1875 11.1929 60.9658 11.0395 60.6761 10.9458Z" fill="#64BDE1"/>
<path d="M65.4857 8.67914C65.162 8.47463 64.7955 8.38086 64.378 8.38086C63.9605 8.38086 63.5945 8.48314 63.2703 8.68765C62.9466 8.89221 62.6996 9.18194 62.5208 9.56544C62.3419 9.94889 62.2563 10.392 62.2563 10.8863V11.1761C62.2563 11.6703 62.3502 12.0964 62.529 12.4714C62.7079 12.8463 62.9553 13.1361 63.279 13.3406C63.6027 13.5451 63.9692 13.6474 64.3868 13.6474C64.8043 13.6474 65.179 13.5451 65.5027 13.3406C65.827 13.1361 66.0739 12.8463 66.2445 12.4714C66.4146 12.0964 66.5084 11.6533 66.5084 11.1505V10.8693C66.5084 10.3665 66.4146 9.93188 66.2445 9.55688C66.0569 9.17343 65.81 8.88365 65.4857 8.67914ZM65.6136 11.1505C65.6136 11.73 65.5115 12.1646 65.2986 12.4629C65.0852 12.7611 64.7873 12.9145 64.3868 12.9145C63.995 12.9145 63.6966 12.7611 63.4749 12.4543C63.2533 12.1476 63.1429 11.7129 63.1429 11.1505V10.8522C63.1512 10.2983 63.262 9.87223 63.4749 9.57395C63.6878 9.27566 63.995 9.12229 64.378 9.12229C64.7703 9.12229 65.077 9.27566 65.2899 9.57395C65.5027 9.87223 65.6136 10.3153 65.6136 10.8778V11.1505Z" fill="#64BDE1"/>
<path d="M70.1606 10.9035C70.408 10.8012 70.5869 10.6563 70.7147 10.4689C70.8426 10.2814 70.9023 10.0683 70.9023 9.83826C70.9023 9.3781 70.7487 9.02867 70.4503 8.79859C70.1436 8.56851 69.709 8.44922 69.1297 8.44922H67.3745V13.5708H69.2405C69.8116 13.5708 70.2544 13.443 70.5611 13.1873C70.8678 12.9317 71.0214 12.5567 71.0214 12.0795C71.0214 11.7898 70.9446 11.5426 70.7915 11.3296C70.6549 11.1251 70.442 10.9802 70.1606 10.9035ZM68.2694 9.17354H69.1384C69.4451 9.17354 69.6668 9.23323 69.8116 9.34402C69.9565 9.45476 70.0245 9.64225 70.0245 9.8894C70.0245 10.1195 69.9477 10.2985 69.7946 10.4263C69.641 10.5541 69.4194 10.6138 69.1467 10.6138H68.2776V9.17354H68.2694ZM69.9137 12.659C69.7606 12.7954 69.5389 12.8635 69.2575 12.8635H68.2694V11.2614H69.3343C69.8797 11.2699 70.1523 11.5426 70.1523 12.0795C70.1436 12.3267 70.0673 12.5141 69.9137 12.659Z" fill="#64BDE1"/>
<path d="M73.3847 8.44922L71.4502 13.5708H72.3791L72.7966 12.3778H74.7821L75.1997 13.5708H76.128L74.194 8.44922H73.3847ZM73.0352 11.6619L73.7765 9.54002L74.5177 11.6619H73.0352Z" fill="#64BDE1"/>
<path d="M79.9449 10.5797H77.6527V8.44922H76.7578V13.5708H77.6527V11.304H79.9449V13.5708H80.831V8.44922H79.9449V10.5797Z" fill="#64BDE1"/>
<path d="M82.7464 12.1051V8.44922H81.8604V13.5708H82.7464L84.9959 9.92347V13.5708H85.882V8.44922H84.9959L82.7464 12.1051Z" fill="#64BDE1"/>
<path d="M87.8163 11.287H89.9209V10.5797H87.8163V9.17354H90.2529V8.44922H86.9302V13.5708H90.2786V12.8635H87.8163V11.287Z" fill="#64BDE1"/>
</g>
<defs>
<clipPath id="clip0_204_177">
<rect width="100" height="83" fill="white"/>
</clipPath>
</defs>
</svg>
