<svg width="100" height="98" viewBox="0 0 100 98" fill="none" xmlns="http://www.w3.org/2000/svg">
<g clip-path="url(#clip0_204_179)">
<path d="M34.3231 87.9771L35.6968 88.4539L34.3539 92.3613L38.5428 89.4445L39.8364 89.8968L37.7789 95.8906L36.4176 95.42L37.7543 91.5252L33.5716 94.435L32.2656 93.9833L34.3231 87.9771Z" fill="#1E3A75"/>
<path d="M47.1982 91.3201C47.5863 91.5556 47.8696 91.8591 48.0483 92.2241C48.227 92.596 48.2885 93.0106 48.2331 93.4811C48.1776 93.946 48.0175 94.3354 47.7588 94.6514C47.4939 94.9674 47.1489 95.1961 46.7177 95.3261C46.2865 95.4625 45.7937 95.4939 45.2393 95.4254L43.9765 95.2709L43.767 97.0041L42.3193 96.8313L43.0709 90.5342L45.7814 90.8621C46.342 90.9362 46.8101 91.0851 47.1982 91.3201ZM46.3297 94.0697C46.576 93.9083 46.7239 93.6545 46.767 93.3077C46.8101 92.9553 46.73 92.6701 46.5268 92.4534C46.3235 92.2366 46.0031 92.1003 45.5658 92.0507L44.383 91.9087L44.1243 94.0942L45.307 94.2368C45.7383 94.2864 46.0832 94.2305 46.3297 94.0697Z" fill="#1E3A75"/>
<path d="M56.9056 90.5532L57.5771 96.856L56.1356 97.0112L55.5935 91.8963L52.7598 92.1997L53.3019 97.3146L51.8605 97.4691L51.189 91.1657L56.9056 90.5532Z" fill="#1E3A75"/>
<path d="M63.2819 95.0912C62.6906 94.9989 62.1733 94.7696 61.7297 94.404C61.2801 94.0327 60.9536 93.5559 60.7503 92.9742C60.5409 92.3855 60.4977 91.8101 60.6086 91.2403C60.7195 90.6705 60.9783 90.1629 61.3786 89.7169C61.7791 89.2715 62.2842 88.9367 62.9062 88.72C63.5225 88.4969 64.1262 88.4354 64.7112 88.5221C65.2962 88.615 65.8138 88.8437 66.2638 89.2093C66.7131 89.5743 67.04 90.0511 67.2494 90.6398C67.4587 91.2278 67.5019 91.8038 67.385 92.373C67.2675 92.9428 67.0087 93.4503 66.615 93.8964C66.2144 94.3424 65.7094 94.6703 65.0931 94.8933C64.4775 95.1163 63.8737 95.1842 63.2819 95.0912ZM65.5431 93.135C65.7706 92.8686 65.9125 92.5652 65.9681 92.2184C66.0231 91.8717 65.9925 91.5123 65.8569 91.1411C65.7275 90.7698 65.5306 90.4727 65.2656 90.2371C65.0006 90.0021 64.6987 89.8595 64.36 89.7973C64.0212 89.7358 63.6762 89.7665 63.325 89.8966C62.9744 90.0203 62.6844 90.2189 62.4628 90.4783C62.2349 90.7447 62.0932 91.0481 62.0378 91.3949C61.9824 91.7416 62.0131 92.101 62.1487 92.4722C62.2781 92.8441 62.4751 93.1413 62.74 93.3762C63.005 93.6118 63.3069 93.7538 63.6456 93.816C63.9844 93.8781 64.3294 93.8405 64.6806 93.7167C65.0256 93.593 65.315 93.3951 65.5431 93.135Z" fill="#1E3A75"/>
<path d="M50.0022 16.9331C30.9489 16.9331 15.5054 32.1029 15.5054 50.8143C15.5054 69.5254 30.9489 84.6953 50.0022 84.6953C69.0556 84.6953 84.4987 69.5254 84.4987 50.8143C84.4987 32.1029 69.0556 16.9331 50.0022 16.9331ZM50.0022 77.7543C34.8544 77.7543 22.5711 65.6928 22.5711 50.8143C22.5711 35.9356 34.8544 23.874 50.0022 23.874C65.15 23.874 77.4331 35.9356 77.4331 50.8143C77.4331 65.6928 65.15 77.7543 50.0022 77.7543Z" fill="#1E3A75"/>
<path d="M84.4674 62.8945C83.7036 64.281 83.408 66.0462 84.0611 67.978C84.7136 69.8971 85.9086 71.3646 87.5474 71.8973C88.2005 71.2101 88.558 70.2565 88.7242 69.2721C88.878 68.2814 88.8599 67.2593 88.4961 66.2812C87.7136 64.2935 86.1186 63.1665 84.4674 62.8945Z" fill="#1E3A75"/>
<path d="M96.9902 67.52C96.6452 69.6804 94.9877 71.7114 92.9733 72.6525C90.9527 73.5998 88.9014 73.111 87.7002 71.984C88.0702 71.1297 88.5258 70.2565 89.1914 69.5014C89.8439 68.7456 90.7314 68.1143 91.6921 67.6249C93.5589 66.6217 95.5977 66.5538 96.9902 67.52Z" fill="#1E3A75"/>
<path d="M81.7827 68.7212C81.2339 69.3092 80.8583 70.0524 80.6739 70.913C80.4208 71.7303 80.3345 72.6525 80.4827 73.6495C80.7908 75.6559 81.7827 77.3584 83.2733 78.1449C83.9877 77.5443 84.5114 76.6711 84.8689 75.7483C85.2258 74.8261 85.3614 73.8046 85.1333 72.7518C84.7333 70.6711 83.3658 69.2841 81.7827 68.7212Z" fill="#1E3A75"/>
<path d="M93.3163 75.4825C92.9094 76.4795 92.2569 77.4394 91.4494 78.2315C90.575 78.9747 89.54 79.5319 88.4556 79.8102C86.3 80.3926 84.4269 79.5998 83.4106 78.2623C83.8788 77.445 84.4825 76.6711 85.2894 76.0642C86.1025 75.458 87.0575 74.9812 88.0494 74.6344C90.0881 73.9905 92.115 74.2877 93.3163 75.4825Z" fill="#1E3A75"/>
<path d="M78.1268 74.0269C76.8205 74.9616 76.1187 76.6955 75.9768 78.6398C75.903 80.6274 76.6299 82.534 77.9543 83.5498C79.5187 82.5529 80.788 80.7015 80.708 78.5594C80.6955 76.4599 79.593 74.8624 78.1268 74.0269Z" fill="#1E3A75"/>
<path d="M88.3244 82.7012C87.1475 84.5035 85.0837 86.0143 82.78 86.1004C80.5194 86.2555 78.8562 85.2027 78.0737 83.6918C79.2194 82.1873 81.1787 81.2525 83.2669 80.9309C85.4044 80.6645 87.3506 81.3204 88.3244 82.7012Z" fill="#1E3A75"/>
<path d="M73.56 78.6523C72.8644 79.0299 72.2175 79.5381 71.7369 80.2624C71.2562 80.9868 70.905 81.8662 70.665 82.7947C70.2337 84.702 70.6219 86.6896 71.7431 87.9215C72.6056 87.5873 73.425 87.0112 74.0775 86.2869C74.6875 85.4941 75.125 84.5405 75.3037 83.5253C75.6919 81.5195 74.8356 79.7052 73.56 78.6523Z" fill="#1E3A75"/>
<path d="M82.0733 88.9116C81.3708 89.7233 80.3914 90.3421 79.3627 90.7818C78.3339 91.2278 77.2002 91.4446 76.0608 91.2831C73.8058 91.0174 72.3464 89.6919 71.8408 88.0761C72.5433 87.4567 73.4058 86.9988 74.3789 86.7261C75.3033 86.3856 76.3321 86.2185 77.4158 86.2864C79.5846 86.4541 81.3402 87.3763 82.0733 88.9116Z" fill="#1E3A75"/>
<path d="M86.027 56.5235C85.7932 57.2789 85.627 58.09 85.682 58.9507C85.7438 59.8051 86.0395 60.7215 86.5201 61.6069C87.3763 63.3408 88.9288 64.6161 90.5982 64.8391C91.6207 63.2353 91.5345 60.9197 90.5551 59.1426C89.5382 57.3532 87.6532 56.4987 86.027 56.5235Z" fill="#1E3A75"/>
<path d="M99.1604 58.8761C99.1973 59.972 98.846 61.0866 98.2979 62.0896C97.7498 63.0988 97.0229 63.9965 96.111 64.6404C94.1704 65.8912 92.181 65.8107 90.7642 64.9005C91.1704 63.0743 92.1379 61.198 93.9367 59.9039C95.6985 58.6099 97.5773 58.164 99.1604 58.8761Z" fill="#1E3A75"/>
<path d="M86.63 50.0837C86.4206 50.8701 86.4388 51.6998 86.6731 52.5419C86.9319 53.3839 87.3569 54.226 87.9175 55.0124C89.1 56.5789 90.8619 57.5634 92.5313 57.4829C92.8269 56.5975 92.9194 55.5944 92.79 54.6161C92.5994 53.6316 92.125 52.6719 91.4719 51.8794C90.1413 50.2881 88.2869 49.7741 86.63 50.0837Z" fill="#1E3A75"/>
<path d="M99.9674 50.1151C100.146 52.245 99.6224 54.7465 97.8855 56.3068C96.2287 57.8857 94.2693 58.1581 92.7111 57.5142C92.6924 56.5669 92.8955 55.6009 93.3149 54.6722C93.6718 53.7372 94.183 52.8333 94.9349 52.0345C96.4255 50.4556 98.3474 49.694 99.9674 50.1151Z" fill="#1E3A75"/>
<path d="M85.9607 43.8675C85.9176 44.6724 86.1026 45.4835 86.5032 46.2636C86.842 47.05 87.347 47.8178 88.092 48.4865C89.5707 49.8239 91.4926 50.4864 93.1126 50.1211C93.2301 49.1986 93.1188 48.1893 92.7988 47.2543C92.497 46.3132 91.9301 45.4464 91.0863 44.7838C89.4595 43.4526 87.5313 43.2731 85.9607 43.8675Z" fill="#1E3A75"/>
<path d="M99.1014 41.5764C99.422 42.6043 99.5389 43.7621 99.422 44.889C99.2433 46.0221 98.7814 47.1242 98.1345 48.0344C96.8158 49.8733 94.9558 50.4801 93.2983 50.1148C93.0889 49.1861 93.1014 48.2016 93.3295 47.2109C93.582 46.2202 93.9883 45.2357 94.5308 44.3318C95.6826 42.5238 97.4258 41.4402 99.1014 41.5764Z" fill="#1E3A75"/>
<path d="M84.2827 37.7375C84.5902 39.2916 85.4652 40.8457 87.2146 41.8983C88.9271 42.9447 90.7877 43.2977 92.3833 42.6413C92.4446 41.6878 92.1246 40.728 91.6127 39.8674C91.1015 39.0068 90.4177 38.2452 89.5371 37.7251C87.6646 36.7096 85.7177 36.883 84.2827 37.7375Z" fill="#1E3A75"/>
<path d="M96.8296 33.168C97.9502 35.0441 97.9565 37.6817 97.0265 39.7003C96.0715 41.7374 94.199 42.6909 92.5602 42.6042C92.3015 41.7064 92.1046 40.7405 92.1227 39.7374C92.1477 38.7344 92.4002 37.6817 92.8496 36.6725C93.6259 34.7036 95.1415 33.3352 96.8296 33.168Z" fill="#1E3A75"/>
<path d="M81.6479 31.942C81.9498 32.6726 82.3317 33.4094 82.9292 34.0224C83.5205 34.6416 84.3461 35.1369 85.2573 35.5208C87.0255 36.2947 89.0336 36.2638 90.4442 35.3536C90.1917 33.4651 88.6767 31.7376 86.7792 31.0194C84.8698 30.2949 82.8736 30.8646 81.6479 31.942Z" fill="#1E3A75"/>
<path d="M93.2038 25.2363C93.9245 26.0536 94.362 27.1372 94.5895 28.2579C94.8113 29.3848 94.8482 30.5364 94.5345 31.6324C93.8507 33.849 92.2795 35.075 90.6101 35.2917C89.7476 33.6323 89.3163 31.5581 89.8526 29.4096C90.3882 27.2734 91.5401 25.7193 93.2038 25.2363Z" fill="#1E3A75"/>
<path d="M78.0762 26.7842C78.4518 27.49 78.9631 28.1463 79.6837 28.6293C80.4049 29.1123 81.2856 29.4714 82.2093 29.7129C84.1131 30.1463 86.0906 29.7562 87.3224 28.6169C86.9837 27.7439 86.4168 26.9142 85.6962 26.2517C84.9074 25.6325 83.953 25.1929 82.9424 25.0071C80.9405 24.6232 79.1293 25.4901 78.0762 26.7842Z" fill="#1E3A75"/>
<path d="M88.3143 18.1592C89.1212 18.8713 89.7368 19.8619 90.1806 20.9083C90.6243 21.9547 90.84 23.094 90.6793 24.2519C90.415 26.5366 89.09 28.0103 87.4825 28.5242C86.8662 27.8121 86.4043 26.9391 86.1331 25.9546C85.7943 25.0135 85.6281 23.9733 85.6962 22.8835C85.8562 20.6792 86.7799 18.9022 88.3143 18.1592Z" fill="#1E3A75"/>
<path d="M73.5474 22.2091C74.4774 23.528 76.1961 24.2338 78.1242 24.3762C80.0955 24.4505 81.9867 23.7199 82.9967 22.3825C82.0049 20.8036 80.1692 19.5281 78.0442 19.6086C75.9617 19.621 74.373 20.7355 73.5474 22.2091Z" fill="#1E3A75"/>
<path d="M82.1445 11.9365C83.9313 13.1191 85.4282 15.1995 85.5145 17.5277C85.6682 19.8062 84.6213 21.4842 83.1238 22.2705C81.6332 21.1127 80.7032 19.1437 80.3826 17.0385C80.1245 14.8837 80.777 12.9148 82.1445 11.9365Z" fill="#1E3A75"/>
<path d="M68.2349 18.4809C68.8199 19.032 69.553 19.4097 70.4092 19.6016C71.2161 19.8555 72.1342 19.9421 73.1261 19.7997C75.1155 19.4901 76.8036 18.4933 77.5861 16.9825C76.988 16.2642 76.1261 15.738 75.208 15.3789C74.2899 15.0197 73.2736 14.8835 72.2324 15.1126C70.1692 15.5089 68.7892 16.8896 68.2349 18.4809Z" fill="#1E3A75"/>
<path d="M74.9377 6.86523C75.9296 7.27388 76.884 7.93639 77.6602 8.74753C78.3996 9.62676 78.954 10.6732 79.2315 11.7629C79.804 13.9362 79.0215 15.8247 77.6915 16.8463C76.884 16.3758 76.1077 15.769 75.5102 14.9517C74.9127 14.1343 74.4327 13.1685 74.0933 12.1654C73.459 10.1159 73.7546 8.07264 74.9377 6.86523Z" fill="#1E3A75"/>
<path d="M62.3535 15.7506C63.7331 16.5184 65.4831 16.8156 67.3988 16.1654C69.3019 15.5091 70.7619 14.3017 71.2856 12.6485C70.6019 11.9922 69.6594 11.6268 68.68 11.4659C67.6944 11.3111 66.6844 11.3296 65.7169 11.695C63.7456 12.4752 62.6244 14.0912 62.3535 15.7506Z" fill="#1E3A75"/>
<path d="M66.9444 3.12598C69.0882 3.47891 71.1026 5.14449 72.0326 7.17541C72.9688 9.21249 72.4882 11.2805 71.3732 12.4879C70.5232 12.1102 69.6544 11.652 68.9094 10.9833C68.1576 10.3208 67.5357 9.42915 67.0426 8.46329C66.0507 6.58715 65.9894 4.5377 66.9444 3.12598Z" fill="#1E3A75"/>
<path d="M56.2557 14.0421C56.995 14.2774 57.7958 14.4384 58.6335 14.3827C59.4775 14.3207 60.3707 14.0297 61.2393 13.5468C62.9456 12.6923 64.1963 11.1444 64.4119 9.485C62.8406 8.46957 60.5678 8.55004 58.8245 9.52834C57.0627 10.5376 56.2249 12.4199 56.2557 14.0421Z" fill="#1E3A75"/>
<path d="M58.5599 0.952383C59.6318 0.915231 60.7283 1.26816 61.7139 1.81303C62.6994 2.3579 63.5869 3.08234 64.215 3.99252C65.4406 5.93054 65.3606 7.90568 64.4738 9.31745C62.6813 8.90874 60.8453 7.94903 59.5702 6.15344C58.3012 4.39499 57.8638 2.53128 58.5599 0.952383Z" fill="#1E3A75"/>
<path d="M49.7614 13.41C50.5314 13.6205 51.3507 13.602 52.1761 13.3667C53.0016 13.1067 53.8271 12.6856 54.5971 12.1284C56.1309 10.9457 57.0981 9.18729 57.0242 7.52788C56.1556 7.23068 55.17 7.13777 54.209 7.26781C53.2419 7.45979 52.3055 7.93031 51.5232 8.58666C49.9585 9.90551 49.4595 11.7568 49.7614 13.41Z" fill="#1E3A75"/>
<path d="M49.7929 0.110439C51.8874 -0.0691216 54.3391 0.457176 55.873 2.19086C57.4253 3.84406 57.6902 5.79446 57.0558 7.34859C56.1256 7.36718 55.1769 7.16283 54.2652 6.74796C53.3473 6.39503 52.4603 5.88114 51.6779 5.13194C50.1194 3.64592 49.374 1.73268 49.7929 0.110439Z" fill="#1E3A75"/>
<path d="M25.4044 6.58713C7.33675 17.1564 2.96919 33.323 2.96919 33.323C1.10883 38.6046 0 44.0038 0 49.9169C0 62.3128 4.09034 73.7552 11.4579 82.5595C11.4579 82.5595 20.6734 92.7578 21.9917 91.6308C25.4599 88.6769 28.0964 85.7426 30.5051 81.7799C30.0308 81.4884 29.4517 81.0863 28.9958 80.7766L23.8706 83.8913C23.4332 83.8354 23.1314 83.7983 22.694 83.7424L16.4045 77.3649C16.3491 76.9188 16.3121 76.6217 16.2566 76.1763L19.3921 70.8943C17.7782 68.4984 16.4907 65.8046 15.4681 63.0556C15.2649 62.5109 15.0862 61.9475 14.9014 61.3902C14.7659 60.9691 14.6488 60.511 14.5256 60.0838C14.2854 59.2293 14.1067 58.3439 13.9281 57.4646C13.8973 57.3099 13.8665 57.1427 13.8357 56.9879L8.10063 55.5452C7.82956 55.1923 7.64475 54.9508 7.36756 54.604V45.4093C7.63856 45.0564 7.82338 44.8149 8.10063 44.4682L14.0143 42.9946C14.0328 42.8831 14.0698 42.7841 14.0944 42.6725C14.3162 41.5828 14.5996 40.5921 14.9076 39.5396C15.9856 35.8617 17.6057 32.6977 19.694 29.5956L16.5893 24.5122C16.6448 24.0664 16.6817 23.7692 16.7371 23.3234L23.3778 16.7353C23.8151 16.6796 24.117 16.6425 24.5544 16.5868L29.2669 19.3854L30.1293 19.9427L30.2463 19.8684C30.8747 19.4535 31.5523 19.0511 32.2114 18.6734C32.5995 18.4567 33.0369 18.2152 33.4373 18.0108C34.2504 17.5898 35.0513 17.2183 35.9014 16.853C36.0862 16.7725 36.3018 16.6858 36.4866 16.6115C39.0738 15.5775 41.3901 15.1441 43.5769 14.7231L44.2976 8.50039C44.6488 8.22793 44.8829 8.03596 45.234 7.76357L49.8541 7.46636V0.0795898C40.8603 0.0795898 32.7166 2.3953 25.4044 6.58713Z" fill="#1E3A75"/>
<path d="M22.4733 38.1212C22.4733 38.5609 22.1099 38.9138 21.6664 38.9138C21.2228 38.9138 20.8594 38.5546 20.8594 38.1212C20.8594 37.6816 21.2228 37.3287 21.6664 37.3287C22.1099 37.3225 22.4733 37.6816 22.4733 38.1212Z" fill="white"/>
<path d="M79.2944 38.0905C79.2944 38.5301 78.9313 38.883 78.4875 38.883C78.0444 38.883 77.6807 38.5239 77.6807 38.0905C77.6807 37.6509 78.0444 37.2979 78.4875 37.2979C78.9313 37.2917 79.2944 37.6509 79.2944 38.0905Z" fill="white"/>
<path d="M26.8897 33.224L26.4954 33.806L24.9677 32.7596L25.8486 34.7657L25.4667 35.3353L23.1689 33.7626L23.5632 33.1806L24.9431 34.1279L24.1669 32.2828L24.5981 31.645L26.8897 33.224Z" fill="white"/>
<path d="M29.3971 30.2703L28.9166 30.809L28.0049 29.9855L27.2965 30.778L28.2082 31.6015L27.7277 32.1402L25.6641 30.2703L26.1446 29.7316L26.9022 30.4189L27.6107 29.6263L26.853 28.9391L27.3334 28.4004L29.3971 30.2703Z" fill="white"/>
<path d="M31.3928 28.5119C31.2388 28.6481 31.0725 28.7472 30.9 28.8215C30.7275 28.8896 30.555 28.9205 30.3825 28.9081C30.21 28.902 30.0375 28.8463 29.865 28.7534C29.6926 28.6605 29.5324 28.5243 29.3784 28.3447C29.2367 28.1775 29.1258 28.0042 29.0642 27.8246C28.9965 27.645 28.9718 27.4655 28.978 27.2859C28.9903 27.1126 29.0396 26.9392 29.132 26.772C29.2244 26.6048 29.3476 26.45 29.5078 26.3076C29.594 26.2333 29.6803 26.1652 29.7603 26.1157C29.8404 26.0661 29.9143 26.0166 29.9883 25.9857C30.0683 25.9485 30.1423 25.9176 30.21 25.899C30.2778 25.8742 30.3455 25.8556 30.3948 25.8433L30.8322 26.3571L30.7706 26.4129C30.7275 26.4129 30.6658 26.4129 30.6043 26.4191C30.5365 26.4253 30.4688 26.4315 30.3886 26.4438C30.3086 26.4563 30.2346 26.481 30.1546 26.512C30.0745 26.5429 30.0006 26.5862 29.9328 26.6482C29.8589 26.7163 29.7973 26.7906 29.748 26.8711C29.6987 26.9578 29.6679 27.0506 29.6618 27.1559C29.6495 27.2612 29.6679 27.3664 29.711 27.4902C29.7541 27.6079 29.8281 27.7317 29.939 27.8617C30.0498 27.9918 30.1669 28.0909 30.2778 28.1466C30.3886 28.2023 30.4995 28.2333 30.5981 28.2333C30.7028 28.2333 30.7952 28.2147 30.8876 28.1775C30.98 28.1404 31.054 28.0909 31.1279 28.0289C31.1956 27.9732 31.2511 27.9051 31.3003 27.8308C31.3496 27.7565 31.3866 27.676 31.4113 27.5955C31.4359 27.5274 31.4544 27.4593 31.4667 27.3974C31.479 27.3293 31.4913 27.2797 31.4975 27.2302L31.5529 27.1806L31.9841 27.6884C31.9533 27.7565 31.9225 27.8246 31.8917 27.8865C31.861 27.9484 31.824 28.0104 31.787 28.0723C31.7377 28.1528 31.6823 28.2209 31.633 28.289C31.5714 28.3447 31.4975 28.419 31.3928 28.5119Z" fill="white"/>
<path d="M33.6213 23.992L32.9006 24.4812L34.1572 26.3511L33.5659 26.7536L32.3092 24.8836L31.5884 25.3728L31.2866 24.927L33.3133 23.54L33.6213 23.992Z" fill="white"/>
<path d="M38.0951 24.1281L37.4729 24.4439L36.6351 22.7845L36.4442 24.9702L35.8343 25.2798L34.5776 22.7845L35.1998 22.4687L35.9575 23.9733L36.1546 21.9796L36.8323 21.6328L38.0951 24.1281Z" fill="white"/>
<path d="M40.6697 20.7226L39.8566 21.0198L40.6143 23.1435L39.9428 23.385L39.1851 21.2612L38.372 21.5584L38.1934 21.0507L40.4972 20.2148L40.6697 20.7226Z" fill="white"/>
<path d="M44.2681 19.2612L43.7814 21.6698C43.7506 21.806 43.7137 21.9237 43.6521 22.0166C43.5966 22.1094 43.535 22.1838 43.4611 22.2395C43.3934 22.2952 43.3194 22.3386 43.2455 22.3695C43.1716 22.4004 43.0976 22.419 43.0176 22.4376C42.9313 22.4562 42.8327 22.481 42.7157 22.4995C42.5987 22.5243 42.5186 22.5367 42.4816 22.5428L42.3461 21.9484L42.3892 21.9361C42.4139 21.9361 42.4632 21.9361 42.5309 21.9299C42.5987 21.9237 42.6603 21.9113 42.7219 21.8989C42.8389 21.868 42.9375 21.837 43.0052 21.7936C43.073 21.7503 43.1161 21.7132 43.1223 21.6698L41.5576 19.8866L42.3153 19.7132L43.2824 20.8525L43.5412 19.4285L44.2681 19.2612Z" fill="white"/>
<path d="M47.8586 19.3541L46.9962 19.447L47.2365 21.6884L46.5219 21.7689L46.2816 19.5274L45.4192 19.6203L45.3638 19.0817L47.8032 18.8154L47.8586 19.3541Z" fill="white"/>
<path d="M53.6722 19.837C53.6599 19.9608 53.6291 20.0846 53.5798 20.1961C53.5244 20.3137 53.4566 20.4066 53.3704 20.4809C53.2533 20.5799 53.1239 20.6543 52.9823 20.7038C52.8406 20.7472 52.6681 20.7657 52.471 20.7472L52.0274 20.71L51.9597 21.6202L51.2451 21.5645L51.4607 18.772L52.6373 18.8649C52.8159 18.8773 52.9576 18.9082 53.0808 18.9454C53.1979 18.9825 53.3026 19.0382 53.3889 19.1064C53.4936 19.1868 53.5737 19.2921 53.6229 19.4097C53.6661 19.5398 53.6846 19.676 53.6722 19.837ZM52.933 19.7998C52.9392 19.7193 52.9207 19.6512 52.8837 19.5893C52.8467 19.5274 52.7975 19.484 52.7482 19.4593C52.6742 19.4221 52.6065 19.4036 52.5326 19.3911C52.4648 19.385 52.3662 19.3726 52.2492 19.3664L52.126 19.354L52.0644 20.1899L52.2677 20.2085C52.3909 20.2209 52.4894 20.2209 52.5696 20.2085C52.6496 20.2023 52.7174 20.1775 52.7728 20.1342C52.8221 20.097 52.8591 20.0537 52.8837 19.998C52.9145 19.9423 52.9268 19.8741 52.933 19.7998Z" fill="white"/>
<path d="M57.2281 22.4439L56.5012 22.2953L56.4211 21.7009L55.417 21.4904L55.1151 22.0042L54.4067 21.8557L55.9652 19.3232L56.7722 19.4904L57.2281 22.4439ZM56.3595 21.1622L56.224 20.1096L55.6881 21.0259L56.3595 21.1622Z" fill="white"/>
<path d="M60.5657 22.648C60.5226 22.778 60.461 22.8833 60.3686 22.97C60.2823 23.0567 60.1714 23.1186 60.0482 23.1558C59.9127 23.1929 59.7649 23.2053 59.6047 23.1929C59.4446 23.1805 59.2536 23.1372 59.038 23.0628C58.847 23.001 58.6746 22.9204 58.5267 22.8337C58.3727 22.747 58.2372 22.6542 58.1201 22.5551L58.3172 21.9546L58.3788 21.9731C58.4035 22.0041 58.4466 22.0474 58.5021 22.1031C58.5575 22.1589 58.6129 22.2146 58.6746 22.2641C58.7484 22.326 58.8162 22.3756 58.884 22.4189C58.9517 22.4623 59.0318 22.4994 59.1242 22.5304C59.2166 22.5614 59.3029 22.5861 59.3891 22.5923C59.4692 22.6047 59.5431 22.5985 59.6047 22.5861C59.6725 22.5737 59.7279 22.5428 59.7711 22.5118C59.8142 22.4747 59.8511 22.4189 59.8757 22.3508C59.9004 22.2827 59.9066 22.2208 59.9004 22.1712C59.8942 22.1217 59.8757 22.0784 59.8388 22.035C59.8018 21.9978 59.7526 21.9607 59.6909 21.9298C59.6294 21.8988 59.5554 21.8679 59.463 21.8369L58.9764 21.6697L59.1366 21.2115L59.6047 21.3725C59.6909 21.4034 59.7711 21.422 59.8388 21.4283C59.9066 21.4344 59.962 21.4344 60.0051 21.422C60.0482 21.4034 60.0852 21.3849 60.1099 21.3539C60.1345 21.323 60.153 21.2858 60.1714 21.2301C60.2022 21.1434 60.1776 21.063 60.1037 20.9886C60.0297 20.9205 59.9189 20.8586 59.7649 20.809C59.6725 20.7781 59.5862 20.7595 59.5061 20.7472C59.4199 20.7409 59.3398 20.7348 59.2597 20.7348C59.1735 20.7348 59.1057 20.7409 59.0503 20.7472C58.9949 20.7533 58.9394 20.7595 58.884 20.7658L58.8162 20.7409L59.001 20.1837C59.1366 20.1775 59.2967 20.1899 59.4815 20.2146C59.6663 20.2394 59.8573 20.2828 60.0421 20.3447C60.4056 20.4685 60.6519 20.6171 60.7998 20.7905C60.9414 20.9639 60.9784 21.1558 60.9107 21.3539C60.8614 21.5025 60.769 21.6202 60.6334 21.6945C60.4979 21.7688 60.3501 21.7997 60.1837 21.7873V21.8122C60.2454 21.8431 60.307 21.8864 60.3686 21.936C60.4302 21.9855 60.4794 22.0474 60.5226 22.1155C60.5657 22.1836 60.5903 22.2641 60.6088 22.3508C60.615 22.4375 60.6027 22.5365 60.5657 22.648Z" fill="white"/>
<path d="M63.9743 24.1774C63.9187 24.3012 63.8387 24.3941 63.7462 24.4684C63.6543 24.5427 63.5493 24.586 63.4325 24.6108C63.2968 24.6355 63.1675 24.6355 63.0318 24.6108C62.8962 24.586 62.7425 24.5303 62.5575 24.4436L61.4673 23.9173L62.6687 21.3911L63.6418 21.8616C63.845 21.9607 63.9868 22.035 64.0731 22.097C64.1593 22.1527 64.2393 22.2332 64.3068 22.3199C64.3812 22.4127 64.4181 22.5118 64.4243 22.6171C64.4306 22.7223 64.4118 22.8276 64.3625 22.9329C64.3068 23.0567 64.2206 23.1495 64.1162 23.2115C64.005 23.2734 63.8818 23.3043 63.7406 23.2982L63.7343 23.3105C63.8818 23.422 63.9806 23.552 64.03 23.7006C64.0668 23.8492 64.0543 24.0102 63.9743 24.1774ZM63.3031 23.843C63.34 23.7625 63.3525 23.6944 63.3462 23.6325C63.3337 23.5768 63.2968 23.5149 63.235 23.4592C63.1918 23.422 63.1243 23.3786 63.0381 23.3353C62.9518 23.2919 62.8593 23.2486 62.7606 23.1991L62.6193 23.131L62.3235 23.7625L62.3728 23.7873C62.5512 23.874 62.6868 23.9359 62.7606 23.973C62.8412 24.0102 62.9212 24.0288 63.0012 24.035C63.0812 24.0411 63.1431 24.0226 63.1918 23.9916C63.235 23.9545 63.2781 23.9049 63.3031 23.843ZM63.6356 22.7409C63.6543 22.6975 63.6662 22.6542 63.6662 22.5985C63.6662 22.549 63.6418 22.4994 63.5987 22.4499C63.5618 22.4065 63.5062 22.3694 63.4387 22.3384C63.3706 22.3013 63.2725 22.2518 63.1431 22.196L63.0812 22.1651L62.8287 22.6975L62.9275 22.7471C63.0318 22.7966 63.1181 22.8338 63.1918 22.8648C63.2662 22.8957 63.3275 22.9143 63.3768 22.9143C63.4506 22.9143 63.5 22.9019 63.5368 22.8709C63.58 22.8399 63.6112 22.7966 63.6356 22.7409Z" fill="white"/>
<path d="M66.7818 26.9391L66.1968 26.5552L67.2075 24.9948L65.2362 25.9236L64.6631 25.5459L66.1787 23.1992L66.7637 23.5831L65.8518 24.9948L67.6631 24.1713L68.3037 24.5924L66.7818 26.9391Z" fill="white"/>
<path d="M70.9962 27.4778L70.3306 26.9144L68.8831 28.6419L68.335 28.1775L69.7825 26.45L69.1175 25.8865L69.4625 25.4717L71.335 27.0629L70.9962 27.4778Z" fill="white"/>
<path d="M72.0752 31.8551L71.6008 31.3411L72.9564 30.0781L70.8189 30.4867L70.3564 29.979L72.3958 28.0781L72.8702 28.5921L71.6439 29.7375L73.6033 29.3908L74.1202 29.9542L72.0752 31.8551Z" fill="white"/>
<path d="M74.2746 34.8586L73.8621 34.2704L74.6933 33.6822L74.4714 33.3602L73.2333 33.3725L72.7471 32.6729L74.1633 32.6915C74.1264 32.5119 74.1327 32.3447 74.1883 32.1899C74.2439 32.0352 74.3546 31.8927 74.5271 31.7689C74.6439 31.6884 74.7614 31.6389 74.8846 31.6327C75.0077 31.6203 75.1246 31.6389 75.2352 31.6822C75.3339 31.7194 75.4264 31.7751 75.5189 31.8618C75.6114 31.9485 75.7039 32.0538 75.7958 32.1837L76.5414 33.2549L74.2746 34.8586ZM75.1058 33.3911L75.7158 32.9577L75.5127 32.6667C75.4508 32.58 75.4021 32.5119 75.3589 32.4686C75.3214 32.4252 75.2664 32.3943 75.2046 32.3695C75.1552 32.351 75.1002 32.351 75.0508 32.3633C74.9952 32.3757 74.9458 32.4005 74.8964 32.4314C74.8477 32.4686 74.8046 32.5119 74.7796 32.5615C74.7489 32.611 74.7364 32.6605 74.7364 32.7163C74.7302 32.7781 74.7489 32.8339 74.7733 32.8958C74.8046 32.9515 74.8477 33.0258 74.9089 33.1125L75.1058 33.3911Z" fill="white"/>
<path d="M17.8564 47.8674L17.9427 47.1491L20.1665 47.4215L20.2959 46.3627L18.0721 46.0903L18.1583 45.3721L20.9181 45.7064L20.6162 48.1955L17.8564 47.8674Z" fill="white"/>
<path d="M19.6819 51.8547C19.5587 51.8547 19.4355 51.8362 19.3185 51.7929C19.2014 51.7495 19.0967 51.6876 19.0166 51.6071C18.9057 51.4957 18.8257 51.3719 18.7641 51.2356C18.7086 51.0994 18.6778 50.926 18.6778 50.7217V50.2697L17.7722 50.2759L17.7661 49.5514L20.5443 49.5391L20.5505 50.7279C20.5505 50.9074 20.5382 51.0561 20.5074 51.1799C20.4765 51.3037 20.4334 51.409 20.3719 51.5018C20.2979 51.6133 20.2056 51.7 20.0946 51.7619C19.9837 51.8238 19.8482 51.8547 19.6819 51.8547ZM19.6634 51.1118C19.7435 51.1118 19.8113 51.087 19.8667 51.0498C19.9222 51.0065 19.9653 50.957 19.9837 50.9013C20.0146 50.8269 20.0269 50.7526 20.033 50.6784C20.033 50.6041 20.0392 50.5111 20.033 50.3935V50.2697L19.2014 50.2759V50.4802C19.2014 50.6041 19.2076 50.7031 19.2261 50.7836C19.2384 50.8641 19.2692 50.9322 19.3185 50.9817C19.3554 51.0251 19.4047 51.0622 19.4601 51.0808C19.5156 51.0994 19.5834 51.1118 19.6634 51.1118Z" fill="white"/>
<path d="M19.6082 55.8671C19.1708 55.9228 18.8012 55.8423 18.5117 55.6256C18.2222 55.4089 18.0435 55.0745 17.9881 54.6287C17.9327 54.1829 18.0127 53.8176 18.2407 53.5266C18.4624 53.2418 18.795 53.0684 19.2386 53.0065C19.6821 52.9446 20.0455 53.0251 20.3351 53.248C20.6246 53.4647 20.7971 53.7991 20.8587 54.2449C20.9142 54.6906 20.834 55.056 20.6123 55.347C20.3843 55.6318 20.0517 55.8052 19.6082 55.8671ZM18.7889 55.0126C18.8813 55.0684 18.986 55.1117 19.103 55.1302C19.2201 55.1488 19.3556 55.1488 19.5096 55.1302C19.676 55.1055 19.8115 55.0684 19.9223 55.0188C20.0332 54.9631 20.1195 54.9012 20.1811 54.833C20.2488 54.7588 20.292 54.6782 20.3105 54.5916C20.3351 54.5049 20.3412 54.4182 20.3289 54.3253C20.3166 54.2325 20.292 54.152 20.2488 54.0777C20.2057 54.0034 20.1441 53.9353 20.0579 53.8795C19.9778 53.8238 19.8792 53.7866 19.7498 53.7681C19.6205 53.7433 19.4788 53.7433 19.3187 53.7681C19.1523 53.7866 19.0168 53.83 18.9059 53.8795C18.795 53.9353 18.7088 53.9972 18.641 54.0653C18.5733 54.1396 18.5302 54.2139 18.5055 54.3068C18.4809 54.3934 18.4747 54.4863 18.487 54.573C18.4993 54.6659 18.5302 54.7526 18.5733 54.8269C18.641 54.895 18.7088 54.9569 18.7889 55.0126Z" fill="white"/>
<path d="M21.407 59.6561C21.3455 59.7862 21.2592 59.8976 21.1483 59.9905C21.0313 60.0834 20.8958 60.1515 20.7233 60.201C20.557 60.2444 20.403 60.2568 20.2551 60.2382C20.1073 60.2134 19.9717 60.1639 19.8485 60.0772C19.7253 59.9905 19.6145 59.8791 19.5282 59.7428C19.4358 59.6066 19.3557 59.4456 19.288 59.2537L18.9923 59.3342L18.8013 58.6407L19.097 58.5602C19.06 58.3682 19.0415 58.1887 19.0538 58.0215C19.0661 57.8544 19.097 57.6996 19.1647 57.5633C19.2263 57.4271 19.3126 57.3095 19.4296 57.2166C19.5405 57.1237 19.6822 57.0495 19.8485 57.0061C20.0148 56.9565 20.1688 56.9442 20.3105 56.9689C20.4522 56.9875 20.5816 57.0432 20.7048 57.1237C20.8218 57.2042 20.9265 57.3157 21.0251 57.4581C21.1175 57.6005 21.2038 57.7677 21.2715 57.9534L21.5426 57.8791L21.7335 58.5726L21.4625 58.6469C21.5056 58.8512 21.5241 59.0308 21.5179 59.198C21.5056 59.3714 21.4686 59.5199 21.407 59.6561ZM19.5466 58.4364L20.8218 58.0835C20.7479 57.9162 20.6431 57.7986 20.52 57.7367C20.3906 57.6748 20.2428 57.6686 20.058 57.7181C19.867 57.7677 19.7315 57.8544 19.6452 57.9596C19.559 58.0773 19.5282 58.232 19.5466 58.4364ZM20.5385 59.4766C20.711 59.4271 20.8403 59.3465 20.9204 59.2227C21.0005 59.0989 21.0313 58.9503 21.0066 58.7707L19.7315 59.1237C19.8239 59.3156 19.9286 59.4332 20.058 59.4828C20.1873 59.5323 20.3475 59.5323 20.5385 59.4766Z" fill="white"/>
<path d="M20.6736 63.8601L19.8975 61.9966L22.4601 60.9131L23.2363 62.7768L22.7435 62.9875L22.2445 61.7799L21.801 61.9656L22.2691 63.0861L21.7763 63.2972L21.3081 62.1762L20.6736 62.4425L21.1726 63.6496L20.6736 63.8601Z" fill="white"/>
<path d="M21.9181 66.3867C21.8195 66.2071 21.7517 66.0211 21.7209 65.8414C21.6901 65.6561 21.6962 65.4827 21.7394 65.3094C21.7825 65.1423 21.8687 64.9808 21.9919 64.8326C22.1152 64.6837 22.2815 64.5473 22.4847 64.4362C22.6757 64.3306 22.8667 64.2565 23.0577 64.2257C23.2486 64.1949 23.4272 64.2069 23.5997 64.2502C23.7661 64.2935 23.9201 64.3802 24.0679 64.504C24.2157 64.6284 24.339 64.7829 24.4437 64.9689C24.4991 65.0738 24.5484 65.1668 24.5792 65.2534C24.6162 65.3401 24.6408 65.4268 24.6593 65.5072C24.6778 65.5939 24.6901 65.6743 24.7024 65.7485C24.7086 65.8232 24.7147 65.8911 24.7209 65.947L24.1357 66.2749L24.0987 66.2008C24.1049 66.1574 24.1172 66.1015 24.1295 66.0337C24.1419 65.9652 24.148 65.8911 24.148 65.8169C24.148 65.7365 24.1419 65.6561 24.1295 65.5694C24.1172 65.489 24.0864 65.4023 24.0433 65.3213C23.994 65.2346 23.9324 65.1542 23.8585 65.0926C23.7846 65.0304 23.6983 64.9808 23.5997 64.95C23.5012 64.9192 23.3903 64.913 23.2671 64.9312C23.1439 64.95 23.0084 64.9997 22.8606 65.0801C22.7066 65.1668 22.5956 65.2597 22.5156 65.359C22.4355 65.4576 22.3862 65.5569 22.3677 65.6561C22.3431 65.7548 22.3431 65.854 22.3616 65.9533C22.3801 66.0519 22.4109 66.1386 22.4601 66.2196C22.5032 66.2938 22.5526 66.3679 22.6203 66.4301C22.6819 66.4916 22.7558 66.5413 22.8297 66.5846C22.8913 66.6217 22.9529 66.6525 23.0146 66.6776C23.0761 66.7021 23.1254 66.7209 23.1686 66.7392L23.2055 66.8076L22.6264 67.1356C22.5649 67.0922 22.5094 67.0426 22.454 67.0055C22.3985 66.9622 22.3431 66.9188 22.2938 66.8635C22.2261 66.7951 22.1706 66.7335 22.1152 66.665C22.0474 66.6035 21.9858 66.5105 21.9181 66.3867Z" fill="white"/>
<path d="M23.9321 69.5323C23.8089 69.3651 23.7227 69.1918 23.6734 69.0121C23.6179 68.8324 23.6056 68.659 23.6303 68.4857C23.6549 68.3123 23.7227 68.1452 23.8274 67.9781C23.9321 67.8173 24.0799 67.6621 24.2709 67.5264C24.4496 67.3964 24.6282 67.3034 24.813 67.2538C24.9978 67.2041 25.1764 67.1916 25.3551 67.2167C25.5276 67.2412 25.6878 67.3097 25.8479 67.4146C26.0081 67.5201 26.1498 67.6621 26.273 67.8355C26.3408 67.9284 26.3962 68.0214 26.4393 68.1081C26.4824 68.1948 26.5194 68.2752 26.5502 68.3493C26.581 68.4304 26.5994 68.5108 26.6179 68.5786C26.6303 68.6528 26.6488 68.715 26.6549 68.7709L26.1066 69.1666L26.0574 69.0988C26.0635 69.0554 26.0635 68.9933 26.0635 68.9317C26.0635 68.8638 26.0635 68.7891 26.0574 68.715C26.0512 68.6345 26.0328 68.5541 26.0081 68.4737C25.9834 68.3927 25.9465 68.3123 25.8911 68.2382C25.8294 68.1577 25.7617 68.0893 25.6816 68.034C25.6015 67.9781 25.5091 67.941 25.4044 67.9222C25.3058 67.9039 25.1949 67.9102 25.0718 67.941C24.9486 67.9718 24.8192 68.0403 24.6898 68.1326C24.5481 68.2382 24.4434 68.3437 24.3818 68.4486C24.3141 68.5604 24.2771 68.659 24.2648 68.7646C24.2524 68.8695 24.2648 68.9625 24.2956 69.0554C24.3264 69.1484 24.3695 69.2351 24.4188 69.3092C24.4681 69.3777 24.5296 69.4456 24.6036 69.4952C24.6775 69.5511 24.7514 69.5944 24.8253 69.6252C24.8869 69.656 24.9547 69.6749 25.0163 69.6931C25.0779 69.7119 25.1333 69.7245 25.1764 69.7364L25.2196 69.7986L24.6836 70.1887C24.6159 70.1517 24.5543 70.114 24.4989 70.0769C24.4373 70.0398 24.3818 70.0028 24.3264 69.9531C24.2524 69.8972 24.1847 69.8357 24.1293 69.7798C24.0861 69.7301 24.0184 69.6434 23.9321 69.5323Z" fill="white"/>
<path d="M27.2093 73.3341L26.735 72.8202L28.0903 71.5569L25.9527 71.9715L25.4907 71.4639L27.5297 69.563L28.004 70.0769L26.7782 71.2227L28.7371 70.8697L29.2545 71.4332L27.2093 73.3341Z" fill="white"/>
<path d="M31.3856 75.154C31.1023 75.4945 30.782 75.6867 30.4185 75.7238C30.0551 75.7608 29.704 75.6371 29.359 75.3462C29.014 75.061 28.8292 74.7331 28.7984 74.3675C28.7676 74.0025 28.897 73.6494 29.1803 73.3027C29.4637 72.9559 29.7902 72.7643 30.1475 72.7266C30.511 72.6895 30.8621 72.8133 31.2009 73.1048C31.5458 73.3894 31.7306 73.7173 31.7615 74.0829C31.7984 74.4542 31.669 74.8072 31.3856 75.154ZM30.2029 75.0862C30.3138 75.0673 30.4124 75.024 30.511 74.9561C30.6095 74.8876 30.7081 74.7947 30.8066 74.6709C30.9113 74.5409 30.9915 74.4171 31.0345 74.3059C31.0776 74.1884 31.1023 74.0829 31.1023 73.9899C31.1023 73.8907 31.0776 73.804 31.0345 73.7236C30.9915 73.6432 30.936 73.5753 30.8682 73.5194C30.8005 73.4635 30.7204 73.4201 30.6403 73.3894C30.5602 73.3649 30.4678 73.3586 30.3693 73.3711C30.2768 73.3831 30.1783 73.4264 30.0674 73.4949C29.9565 73.5628 29.8518 73.662 29.7471 73.7858C29.6423 73.9158 29.5685 74.0333 29.5191 74.1508C29.476 74.2626 29.4514 74.3738 29.4514 74.4667C29.4514 74.566 29.476 74.6527 29.513 74.7331C29.5561 74.8135 29.6116 74.8814 29.6793 74.9435C29.7471 75.0057 29.8271 75.0428 29.9134 75.0736C30.0181 75.1044 30.1105 75.1044 30.2029 75.0862Z" fill="white"/>
<path d="M33.8487 78.4668L33.2449 78.083L33.8979 77.0427L33.0047 76.4735L32.3517 77.5132L31.748 77.1294L33.2265 74.7642L33.8302 75.148L33.288 76.0149L34.1813 76.5847L34.7234 75.7178L35.327 76.1016L33.8487 78.4668Z" fill="white"/>
<path d="M37.6448 80.3616L36.9734 80.0457L37.0349 79.4514L36.1048 79.0116L35.6921 79.4388L35.0391 79.1291L37.1458 77.0303L37.8912 77.3833L37.6448 80.3616ZM37.0966 78.9124L37.2074 77.8601L36.4744 78.6215L37.0966 78.9124Z" fill="white"/>
<path d="M41.309 81.6309L40.6252 81.4079L41.3152 79.2594L40.5575 79.0119C40.5143 79.1294 40.4774 79.2161 40.4528 79.2839C40.4281 79.3524 40.3973 79.4391 40.3542 79.544C40.2618 79.7796 40.1755 79.9775 40.0893 80.1264C40.0031 80.2809 39.9292 80.4047 39.8552 80.4976C39.7813 80.5906 39.7074 80.6647 39.6458 80.7206C39.578 80.7765 39.5164 80.8136 39.4548 80.8444C39.3809 80.8815 39.2947 80.9003 39.1961 80.9066C39.0975 80.9129 38.999 80.9003 38.9065 80.8695C38.845 80.8507 38.7895 80.8262 38.7279 80.801C38.6663 80.7765 38.6232 80.7577 38.6108 80.7514L38.8018 80.1571L38.8265 80.1634C38.8388 80.1697 38.8511 80.176 38.8634 80.176C38.8758 80.1823 38.8942 80.1879 38.9127 80.1942C38.9805 80.213 39.0298 80.2256 39.0667 80.2313C39.1037 80.2313 39.1345 80.2256 39.1653 80.213C39.2823 80.1634 39.3809 80.0579 39.4733 79.8908C39.5595 79.73 39.6643 79.495 39.7813 79.1853C39.8306 79.0615 39.8737 78.9315 39.9292 78.7826C39.9784 78.64 40.04 78.4729 40.1016 78.2876L42.1776 78.9623L41.309 81.6309Z" fill="white"/>
<path d="M45.4257 81.6062C45.4011 81.7419 45.3518 81.86 45.2779 81.9587C45.2039 82.0642 45.1177 82.1383 45.0191 82.1942C44.8898 82.2621 44.7604 82.2991 44.6372 82.3117C44.5079 82.3243 44.36 82.3117 44.1937 82.2809L42.937 82.0391L43.4606 79.29L44.1629 79.4264L43.9658 80.4478L44.5325 80.5596C44.7234 80.5967 44.8713 80.6401 44.9883 80.6897C45.1054 80.7393 45.2039 80.8134 45.284 80.9064C45.3641 80.9994 45.4134 81.1043 45.4381 81.2281C45.4504 81.3462 45.4504 81.4762 45.4257 81.6062ZM44.6926 81.4881C44.6988 81.4448 44.705 81.4014 44.705 81.3581C44.705 81.3147 44.6865 81.2714 44.6619 81.2343C44.6372 81.1973 44.5941 81.1602 44.5386 81.1294C44.4832 81.098 44.4093 81.0735 44.3046 81.0547L43.8611 80.968L43.7255 81.6678L44.1691 81.7545C44.2429 81.767 44.3169 81.7733 44.3846 81.7671C44.4524 81.7608 44.5017 81.7419 44.5386 81.7174C44.5756 81.6929 44.6126 81.6615 44.6372 81.6244C44.668 81.5811 44.6865 81.5378 44.6926 81.4881Z" fill="white"/>
<path d="M49.2135 82.8447L48.499 82.7951L48.579 81.5632L47.5256 81.4947L47.4456 82.7273L46.731 82.6776L46.9158 79.8853L47.6303 79.9343L47.5626 80.9563L48.616 81.0242L48.6838 80.0027L49.3983 80.0524L49.2135 82.8447Z" fill="white"/>
<path d="M53.5032 81.278C53.534 81.7241 53.4293 82.0828 53.1891 82.3617C52.9549 82.64 52.61 82.7952 52.1664 82.8197C51.7229 82.8511 51.3656 82.7392 51.0946 82.4917C50.8236 82.2442 50.6757 81.9037 50.6449 81.4577C50.6141 81.0054 50.7188 80.6467 50.9591 80.3678C51.1931 80.0895 51.5381 79.9406 51.9816 79.9098C52.4252 79.879 52.7825 79.9902 53.0535 80.2314C53.3246 80.4859 53.4786 80.832 53.5032 81.278ZM52.6038 82.0457C52.6654 81.959 52.7147 81.8541 52.7394 81.736C52.764 81.6185 52.7763 81.4822 52.764 81.3277C52.7517 81.1606 52.7271 81.018 52.6778 80.9068C52.6346 80.7887 52.573 80.702 52.5114 80.6341C52.4437 80.5663 52.3698 80.5166 52.2835 80.4859C52.1973 80.4545 52.111 80.4482 52.0248 80.4482C51.9324 80.4545 51.8523 80.4733 51.7722 80.5167C51.6921 80.5537 51.6244 80.6159 51.5628 80.69C51.5073 80.7642 51.4581 80.8634 51.4273 80.9872C51.3964 81.1109 51.3841 81.2598 51.3964 81.4206C51.4088 81.5877 51.4334 81.7303 51.4827 81.8415C51.5258 81.9527 51.5813 82.0457 51.649 82.1205C51.7168 82.1883 51.7907 82.2379 51.8769 82.2687C51.9632 82.2995 52.0494 82.3121 52.1418 82.3058C52.2342 82.2995 52.3204 82.275 52.4006 82.2379C52.4744 82.1883 52.5423 82.1261 52.6038 82.0457Z" fill="white"/>
<path d="M56.6364 79.8726L55.3736 80.1081L55.7801 82.3307L55.0779 82.4608L54.5728 79.7055L56.544 79.3398L56.6364 79.8726Z" fill="white"/>
<path d="M60.5605 79.6242C60.6899 80.0514 60.6714 80.4295 60.5112 80.7512C60.3449 81.0797 60.0492 81.3084 59.6242 81.4384C59.1991 81.5685 58.8234 81.5503 58.503 81.3769C58.1827 81.2035 57.9609 80.9001 57.8316 80.4729C57.7022 80.0457 57.7145 79.6675 57.8809 79.3396C58.0472 79.0173 58.3429 78.7887 58.7679 78.6524C59.193 78.5223 59.5687 78.5405 59.8829 78.7139C60.2032 78.8936 60.425 79.197 60.5605 79.6242ZM59.8582 80.5841C59.9014 80.4792 59.9199 80.3736 59.9199 80.2499C59.9199 80.1261 59.8952 79.9961 59.8459 79.8409C59.7967 79.6801 59.735 79.5501 59.6673 79.4508C59.5934 79.3522 59.5194 79.2718 59.4394 79.2221C59.3593 79.1662 59.2731 79.1417 59.1807 79.1292C59.0944 79.1229 59.002 79.1292 58.9219 79.1599C58.8357 79.1851 58.7556 79.2284 58.694 79.2837C58.6262 79.3396 58.5708 79.4137 58.5277 79.5067C58.4907 79.5934 58.4722 79.6989 58.466 79.829C58.466 79.959 58.4907 80.101 58.5338 80.2562C58.5831 80.417 58.6447 80.547 58.7125 80.6463C58.7864 80.7449 58.8603 80.8253 58.9404 80.8749C59.0205 80.9246 59.1067 80.9554 59.1991 80.9679C59.2915 80.9742 59.3778 80.9679 59.464 80.9371C59.5502 80.912 59.6304 80.8687 59.6981 80.8071C59.7659 80.7449 59.8213 80.6771 59.8582 80.5841Z" fill="white"/>
<path d="M66.0862 76.9744C66.2956 77.3645 66.3512 77.7358 66.2525 78.0889C66.1537 78.4419 65.9075 78.7265 65.5131 78.9432C65.1194 79.1599 64.7494 79.2096 64.4044 79.104C64.0594 78.9928 63.7762 78.7453 63.5669 78.3552C63.3512 77.9588 63.2956 77.5869 63.3944 77.2345C63.4931 76.8814 63.7394 76.6025 64.1337 76.3858C64.5275 76.1691 64.8912 76.1201 65.2425 76.225C65.5875 76.3242 65.8706 76.578 66.0862 76.9744ZM65.5875 78.0518C65.6056 77.9463 65.6056 77.8288 65.5812 77.7113C65.5562 77.5932 65.5075 77.4632 65.4331 77.3275C65.3531 77.1786 65.2669 77.0611 65.1806 76.9807C65.0881 76.894 65.0019 76.8381 64.9094 76.801C64.8175 76.764 64.7312 76.7514 64.6387 76.764C64.5525 76.7759 64.4662 76.801 64.3862 76.8444C64.3062 76.8877 64.2381 76.943 64.1825 77.0115C64.1275 77.0793 64.0906 77.1597 64.0656 77.259C64.0475 77.352 64.0475 77.4632 64.0719 77.5869C64.0962 77.717 64.1456 77.847 64.2256 77.9896C64.3062 78.1385 64.3862 78.2497 64.4787 78.3364C64.565 78.4231 64.6569 78.479 64.7431 78.516C64.8356 78.5531 64.9219 78.5657 65.0144 78.5531C65.1069 78.5405 65.1869 78.516 65.2731 78.4727C65.3531 78.4293 65.4212 78.3734 65.4762 78.2993C65.5256 78.2315 65.5687 78.1448 65.5875 78.0518Z" fill="white"/>
<path d="M69.4198 75.2533C69.4998 75.3645 69.5492 75.482 69.5735 75.6064C69.5985 75.7301 69.5923 75.8476 69.5617 75.9588C69.5242 76.1014 69.4629 76.2189 69.3829 76.3181C69.3029 76.4174 69.1917 76.5223 69.0504 76.6215L68.0092 77.3766L66.3892 75.1044L68.1448 73.8354L68.4585 74.2746L67.2823 75.1233L67.5717 75.5316L68.046 75.1911C68.206 75.0799 68.3417 74.9932 68.4585 74.9436C68.576 74.894 68.6929 74.8695 68.816 74.8758C68.9392 74.8814 69.0504 74.9191 69.1485 74.9807C69.2535 75.0548 69.3398 75.1415 69.4198 75.2533ZM68.8285 75.705C68.8035 75.6679 68.7729 75.6371 68.7423 75.6064C68.711 75.5812 68.6679 75.563 68.6248 75.5505C68.576 75.5442 68.5267 75.5505 68.4648 75.5687C68.4035 75.5875 68.3354 75.6246 68.2492 75.6868L67.8798 75.9531L68.2923 76.5286L68.6623 76.2622C68.7235 76.2189 68.7792 76.1692 68.816 76.114C68.8529 76.058 68.8779 76.0084 68.8898 75.9651C68.9023 75.9217 68.9023 75.8784 68.8898 75.8287C68.8779 75.7854 68.8592 75.7421 68.8285 75.705Z" fill="white"/>
<path d="M71.4908 72.0584C71.5771 72.1514 71.6389 72.2563 71.6877 72.3744C71.737 72.4919 71.7558 72.6093 71.7558 72.7212C71.7496 72.8757 71.7127 73.0246 71.6508 73.1546C71.5896 73.2903 71.4845 73.4266 71.3308 73.5629L71.0039 73.8664L71.6139 74.5411L71.0846 75.0304L69.2114 72.9624L70.0802 72.1639C70.2096 72.0458 70.3327 71.9529 70.4439 71.8913C70.5546 71.8291 70.6652 71.792 70.7764 71.7738C70.9058 71.7487 71.0352 71.7613 71.1583 71.8109C71.2689 71.8542 71.3802 71.9409 71.4908 72.0584ZM70.9552 72.5723C70.8996 72.5164 70.8439 72.4793 70.7702 72.4674C70.7021 72.4548 70.6408 72.4611 70.5789 72.4793C70.5052 72.5107 70.4377 72.5478 70.3821 72.5911C70.3264 72.6345 70.2589 72.7023 70.1727 72.7827L70.0802 72.8694L70.6408 73.4888L70.7946 73.3462C70.8871 73.2658 70.9552 73.1917 71.0039 73.1232C71.0533 73.0616 71.0783 72.9932 71.0902 72.919C71.0964 72.8568 71.0902 72.8016 71.0658 72.7457C71.0471 72.6897 71.0102 72.6345 70.9552 72.5723Z" fill="white"/>
<path d="M75.4564 70.4553L74.9764 71.0182L74.4214 70.7958L73.7502 71.5817L74.052 72.0955L73.5839 72.6471L72.1489 70.04L72.6845 69.4087L75.4564 70.4553ZM73.9227 70.591L72.9433 70.2009L73.4733 71.1174L73.9227 70.591Z" fill="white"/>
<path d="M76.7564 67.0926C76.8677 67.1673 76.9539 67.2603 77.0152 67.3652C77.0771 67.4707 77.1077 67.5945 77.1077 67.7308C77.1077 67.8728 77.0833 68.0154 77.0277 68.1699C76.9721 68.3251 76.8796 68.4985 76.7564 68.6901C76.6458 68.8572 76.5283 69.0061 76.4052 69.1298C76.2821 69.2536 76.1589 69.3654 76.0296 69.4521L75.5121 69.099L75.5489 69.0431C75.5858 69.0249 75.6352 68.9935 75.7096 68.9564C75.7771 68.9194 75.8446 68.876 75.9064 68.8327C75.9864 68.7768 76.0546 68.7215 76.1096 68.6719C76.1714 68.616 76.2264 68.5481 76.2821 68.4677C76.3377 68.3867 76.3808 68.3062 76.4114 68.2258C76.4421 68.1517 76.4608 68.0776 76.4608 68.0154C76.4671 67.9413 76.4546 67.8853 76.4302 67.8294C76.4052 67.7798 76.3621 67.7308 76.3008 67.6875C76.2389 67.6441 76.1833 67.6253 76.1346 67.619C76.0852 67.6127 76.0358 67.619 75.9864 67.6441C75.9371 67.6686 75.8939 67.7057 75.8446 67.7553C75.7958 67.8049 75.7464 67.8728 75.6971 67.9532L75.4133 68.381L75.0008 68.1021L75.2783 67.6875C75.3271 67.6064 75.3702 67.5386 75.3952 67.4707C75.4196 67.4085 75.4321 67.3526 75.4321 67.3093C75.4321 67.2603 75.4133 67.2169 75.3952 67.1855C75.3702 67.1547 75.3396 67.124 75.2964 67.0926C75.2164 67.0436 75.1364 67.0436 75.0502 67.0926C74.9639 67.1485 74.8777 67.2414 74.7852 67.3778C74.7296 67.4582 74.6927 67.5386 74.6621 67.619C74.6314 67.6994 74.6064 67.7742 74.5883 67.8546C74.5633 67.9413 74.5514 68.0091 74.5452 68.0587C74.5389 68.1146 74.5327 68.1699 74.5202 68.2258L74.4833 68.2817L73.9971 67.9532C74.0277 67.8232 74.0833 67.6686 74.1508 67.4952C74.2246 67.3218 74.3108 67.1485 74.4221 66.9814C74.6314 66.6654 74.8408 66.4549 75.0439 66.362C75.2471 66.2696 75.4383 66.2815 75.6171 66.3996C75.7464 66.4863 75.8327 66.6101 75.8696 66.7583C75.9064 66.9072 75.8939 67.0618 75.8389 67.2226L75.8633 67.2414C75.9127 67.1918 75.9683 67.1422 76.0296 67.0988C76.0914 67.0555 76.1652 67.0184 76.2389 66.9939C76.3189 66.9688 76.3989 66.9625 76.4852 66.9751C76.5658 66.9876 76.6577 67.0247 76.7564 67.0926Z" fill="white"/>
<path d="M78.1925 63.1736C78.5869 63.3715 78.8457 63.6504 78.9625 63.9909C79.0794 64.3377 79.0363 64.7089 78.8394 65.1179C78.6363 65.5199 78.365 65.7737 78.02 65.8856C77.675 65.9968 77.2994 65.9534 76.905 65.7492C76.5044 65.5451 76.2463 65.2724 76.1288 64.9257C76.0119 64.5789 76.055 64.2076 76.2519 63.8049C76.4494 63.4023 76.7263 63.1485 77.0713 63.0373C77.4225 62.9317 77.7919 62.9751 78.1925 63.1736ZM78.3957 64.3496C78.3525 64.251 78.285 64.158 78.1988 64.0776C78.1125 63.9972 77.9957 63.9168 77.86 63.8483C77.7119 63.7742 77.5763 63.7245 77.4532 63.7057C77.33 63.6875 77.2257 63.6875 77.1332 63.712C77.0407 63.7371 76.9544 63.7742 76.8869 63.8357C76.8188 63.8979 76.7632 63.9658 76.7263 64.0462C76.6832 64.1272 76.6588 64.2139 76.6525 64.3006C76.6463 64.3873 76.6588 64.4796 76.6957 64.5726C76.7325 64.6593 76.7944 64.7523 76.8869 64.839C76.9788 64.9319 77.0963 65.0124 77.2438 65.0865C77.3919 65.1612 77.5275 65.2102 77.6444 65.2291C77.7675 65.2479 77.8725 65.2479 77.9644 65.2228C78.0569 65.1983 78.1369 65.1612 78.205 65.099C78.2725 65.0375 78.3282 64.969 78.3713 64.8886C78.4144 64.8082 78.4388 64.7215 78.445 64.6285C78.4513 64.5293 78.4325 64.4363 78.3957 64.3496Z" fill="white"/>
<path d="M79.9966 59.8485C80.126 59.8919 80.2248 59.96 80.311 60.0466C80.391 60.1333 80.4529 60.2324 80.4835 60.3438C80.5266 60.4739 80.5391 60.6101 80.5266 60.7463C80.5141 60.8825 80.4773 61.0497 80.4098 61.2355L80.0029 62.3872L77.3848 61.4583L77.7423 60.4368C77.816 60.2263 77.8779 60.0715 77.9273 59.9786C77.9766 59.8857 78.0379 59.799 78.1241 59.7185C78.2104 59.638 78.3029 59.5885 78.4079 59.5637C78.5123 59.5452 78.6173 59.5575 78.7216 59.5947C78.851 59.638 78.9498 59.7123 79.0235 59.8176C79.0973 59.9167 79.1404 60.0405 79.1466 60.1829L79.1591 60.1891C79.2516 60.0281 79.3685 59.9166 79.5166 59.8547C79.6641 59.7866 79.8185 59.7866 79.9966 59.8485ZM78.611 60.3377C78.5679 60.3253 78.5185 60.3191 78.4691 60.3253C78.4198 60.3315 78.3704 60.3562 78.3335 60.4058C78.2966 60.4491 78.266 60.5049 78.241 60.5792C78.2166 60.6534 78.1735 60.7587 78.1304 60.8888L78.106 60.9506L78.6604 61.1488L78.6973 61.0435C78.7341 60.9383 78.7648 60.8454 78.7898 60.7649C78.8141 60.6906 78.8204 60.6225 78.8141 60.573C78.8079 60.5049 78.7898 60.4491 78.7523 60.4182C78.7154 60.3872 78.6723 60.3562 78.611 60.3377ZM79.7379 60.5544C79.6579 60.5235 79.5841 60.5172 79.5285 60.5358C79.4735 60.5544 79.4179 60.5977 79.3685 60.6659C79.3379 60.7154 79.301 60.7835 79.2698 60.8764C79.2391 60.9692 79.2023 61.0683 79.1654 61.1674L79.116 61.316L79.7691 61.545L79.7873 61.4955C79.8554 61.3036 79.9048 61.1674 79.9291 61.0869C79.9535 61.0064 79.966 60.9197 79.966 60.8454C79.9598 60.7649 79.9416 60.703 79.8985 60.6596C79.8491 60.6101 79.7998 60.573 79.7379 60.5544Z" fill="white"/>
<path d="M81.7556 56.1577L81.5956 56.8884L81.0044 56.9565L80.7825 57.9658L81.2875 58.2815L81.1338 58.9936L78.645 57.3775L78.8238 56.5664L81.7556 56.1577ZM80.4681 57.0122L79.4213 57.1299L80.3206 57.6809L80.4681 57.0122Z" fill="white"/>
<path d="M82.1816 52.3006L82.1141 53.0188L80.8941 52.9074L80.796 53.9662L82.0154 54.0777L81.9479 54.7959L79.1816 54.5358L79.2498 53.8176L80.2598 53.9104L80.3585 52.8517L79.3485 52.7588L79.416 52.0405L82.1816 52.3006Z" fill="white"/>
<path d="M82.1273 48.0591L82.158 48.7588L80.3098 48.8331L82.2011 49.9166L82.2261 50.6039L79.4536 50.7154L79.4292 50.0157L81.0986 49.9476L79.3861 48.9322L79.3555 48.1644L82.1273 48.0591Z" fill="white"/>
<path d="M81.549 44.0654L81.6721 44.7713L80.6677 44.9447L80.7358 45.3286L81.8571 45.8487L81.9983 46.6908L80.7233 46.0654C80.6802 46.2449 80.6002 46.3936 80.489 46.5112C80.3783 46.6288 80.2121 46.7031 80.0027 46.7403C79.8608 46.765 79.7377 46.7526 79.6208 46.7093C79.5033 46.6659 79.4052 46.5979 79.3252 46.5174C79.2508 46.4431 79.1958 46.3502 79.1465 46.2326C79.0971 46.1149 79.0602 45.9787 79.0352 45.8239L78.814 44.536L81.549 44.0654ZM80.1752 45.0314L79.4358 45.1614L79.4977 45.5143C79.5158 45.6195 79.5346 45.7062 79.5465 45.762C79.5652 45.8177 79.5958 45.8734 79.6452 45.9168C79.6821 45.9539 79.7252 45.9787 79.7808 45.9911C79.8365 46.0034 79.8915 46.0034 79.9533 45.9973C80.0152 45.9849 80.0702 45.9663 80.1133 45.9353C80.1565 45.9044 80.1933 45.861 80.2183 45.8177C80.249 45.762 80.2615 45.7062 80.2552 45.6381C80.2552 45.5762 80.2427 45.4896 80.2246 45.3843L80.1752 45.0314Z" fill="white"/>
<path d="M49.583 44.2017C47.8089 41.1368 37.3489 41.7994 34.5522 42.0285C34.1641 42.0594 33.8623 42.3876 33.8623 42.7839V57.0434C33.8623 57.4831 34.2381 57.836 34.6754 57.7988C37.6446 57.5573 47.8335 56.9629 49.583 59.9783C49.6939 60.1703 49.9834 60.1703 50.0943 59.9783C51.8437 56.9568 62.0327 57.5573 65.0019 57.7988C65.4394 57.836 65.815 57.4831 65.815 57.0434V42.79C65.815 42.3938 65.5194 42.0656 65.125 42.0347C62.3284 41.7994 51.8684 41.1431 50.0943 44.208C49.9834 44.3999 49.6939 44.3999 49.583 44.2017Z" fill="#E8E8E8"/>
<path d="M65.0975 58.963C61.6724 58.7029 51.8346 58.2324 50.0974 61.2353C49.9804 61.4334 49.6847 61.4334 49.5677 61.2353C47.8305 58.2324 37.9927 58.7029 34.5677 58.963C33.9332 59.0125 33.3911 58.5048 33.3911 57.8608V59.6317C33.3911 60.288 33.9455 60.8081 34.5923 60.7586C38.042 60.4985 47.8305 60.0403 49.5615 63.031C49.6786 63.2289 49.9742 63.2289 50.0912 63.031C51.8222 60.0403 61.6107 60.4985 65.0606 60.7586C65.7131 60.8081 66.2619 60.288 66.2619 59.6317V57.8608C66.2737 58.5048 65.7319 59.0125 65.0975 58.963Z" fill="#1E3A75"/>
<path d="M52.2237 58.164C51.4844 58.3002 50.6959 58.4984 49.8582 58.7832C49.0204 58.4984 48.2319 58.3002 47.4927 58.164C47.813 57.2724 48.7925 56.4117 49.8582 56.3993C50.6775 56.3746 51.5522 56.8513 52.2237 58.164Z" fill="#1E3A75"/>
<path d="M49.8584 45.2728C50.5483 42.2574 59.8933 38.4991 63.7 38.7529V50.4615C63.7 50.4615 52.7968 51.8298 49.8584 55.2477V45.2728Z" fill="#1E3A75"/>
<path d="M49.8599 45.2728C49.17 42.2574 39.8251 38.4991 36.0181 38.7529V50.4615C36.0181 50.4615 46.9216 51.8298 49.8599 55.2477V45.2728Z" fill="#1E3A75"/>
</g>
<defs>
<clipPath id="clip0_204_179">
<rect width="100" height="98" fill="white"/>
</clipPath>
</defs>
</svg>
