<svg width="152" height="58" viewBox="0 0 152 58" fill="none" xmlns="http://www.w3.org/2000/svg">
<path d="M133.331 15.2114C132.238 13.7226 130.662 12.8687 129.005 12.8687C127.349 12.8687 125.773 13.7226 124.68 15.2114L115.208 28.1206V13.0013H110.883V20.8048H93.451V13.0013H69.5318C65.9542 13.0013 63.0444 15.9758 63.0444 19.6321V25.2255H84.8007V20.8048H67.3688V19.6321C67.3688 18.4135 68.3391 17.422 69.5313 17.422H89.1256V33.0289H93.4505V25.2249H110.882V33.0284H115.208C116.101 33.0349 117.312 32.6184 118.566 30.9117L118.568 30.9084L128.14 17.8638C128.412 17.4932 128.72 17.2893 129.005 17.2893C129.292 17.2893 129.599 17.4932 129.87 17.8638L137.754 28.6083H125.663L122.419 33.0284H140.999H146.405L133.331 15.2114Z" fill="#29327F"/>
<path d="M58.7206 17.3318C58.7206 14.359 57.3166 13.4371 56.4796 13.1518C55.6426 12.8664 53.9777 12.7434 52.2332 15.1212L42.7272 28.0757C42.4555 28.4463 42.1483 28.6502 41.8622 28.6502C41.5767 28.6502 41.2695 28.4463 40.9972 28.0757L31.4919 15.1218C30.2379 13.4123 29.0251 12.9953 28.131 13.0018H12.5041C8.92097 13.0018 6.0166 15.9703 6.0166 19.6325V26.3964C6.0166 30.0598 8.92203 33.0293 12.5061 33.0293H33.8194L30.5757 28.6092H12.5041C11.3097 28.6092 10.3418 27.6194 10.3418 26.3992V19.6325C10.3418 18.4118 11.3097 17.4224 12.5041 17.4224H27.7732L37.279 30.3769L37.2795 30.3775L37.5371 30.7286C37.7244 30.9838 37.9303 31.2131 38.1435 31.4294C39.1764 32.4775 40.4894 33.0714 41.8617 33.0714C43.5178 33.0714 45.0943 32.2175 46.1868 30.7286L54.3952 19.5424V28.6087C54.3952 31.0502 56.3316 33.0288 58.7201 33.0288H84.8017V28.6087H58.7206V17.3318Z" fill="#29327F"/>
<path d="M146.405 44.6787H6.59187C6.27414 44.6787 6.0166 44.4155 6.0166 44.0907V37.6855H146.405V44.6787Z" fill="#29327F"/>
<path d="M14.2427 39.61C14.4501 39.5728 14.8338 39.5415 15.1811 39.5415C15.6746 39.5415 16.4916 39.6224 16.4916 40.2951C16.4916 40.669 16.2113 40.8993 15.8762 40.9743V40.9867C16.3089 41.0487 16.6256 41.298 16.6256 41.7344C16.6256 42.5257 15.6503 42.625 15.0713 42.625C14.742 42.625 14.401 42.6002 14.2422 42.5877L14.2427 39.61ZM14.7483 42.2263C14.9009 42.2452 15.0106 42.2511 15.1811 42.2511C15.5405 42.2511 16.0773 42.1638 16.0773 41.7279C16.0773 41.292 15.6508 41.1981 15.1389 41.1981H14.7489V42.2263H14.7483ZM14.7546 40.8373H15.1568C15.5532 40.8373 15.9612 40.7191 15.9612 40.3637C15.9612 40.0648 15.7052 39.9213 15.1689 39.9213C14.9922 39.9213 14.8824 39.9337 14.7546 39.9461V40.8373Z" fill="white"/>
<path d="M21.1123 42.4755C20.9719 42.5505 20.661 42.6498 20.2652 42.6498C19.3754 42.6498 18.7964 42.0332 18.7964 41.1113C18.7964 40.183 19.4181 39.5103 20.3807 39.5103C20.6974 39.5103 20.9782 39.5911 21.1244 39.6661L21.0025 40.0896C20.8742 40.0146 20.6731 39.9461 20.3807 39.9461C19.7041 39.9461 19.3384 40.4569 19.3384 41.0859C19.3384 41.7834 19.777 42.2134 20.3623 42.2134C20.6668 42.2134 20.8679 42.1324 21.0204 42.0639L21.1123 42.4755Z" fill="white"/>
<path d="M23.7078 41.1799C23.7199 41.9211 24.1833 42.2264 24.7196 42.2264C25.1032 42.2264 25.3349 42.1579 25.536 42.0705L25.6273 42.4633C25.4384 42.5506 25.1154 42.6499 24.6462 42.6499C23.7379 42.6499 23.1958 42.0392 23.1958 41.1298C23.1958 40.2203 23.7199 39.5039 24.5792 39.5039C25.5423 39.5039 25.7983 40.3697 25.7983 40.9242C25.7983 41.0365 25.7862 41.1238 25.7799 41.1794H23.7078V41.1799ZM25.28 40.7872C25.2864 40.4382 25.1396 39.8966 24.5364 39.8966C23.9939 39.8966 23.7563 40.4075 23.7136 40.7872H25.28Z" fill="white"/>
<path d="M28.1698 40.5569C28.1698 40.1707 28.1576 39.8594 28.1455 39.5725H28.6268L28.6511 40.0893H28.6633C28.8828 39.7219 29.2301 39.5034 29.7114 39.5034C30.4244 39.5034 30.9606 40.12 30.9606 41.036C30.9606 42.1197 30.3146 42.6553 29.6196 42.6553C29.2296 42.6553 28.8881 42.4811 28.7113 42.1817H28.6991V43.82H28.1687V40.5569H28.1698ZM28.6996 41.3607C28.6996 41.4416 28.7118 41.5166 28.7239 41.5851C28.8216 41.9648 29.1446 42.2265 29.5283 42.2265C30.0951 42.2265 30.4244 41.7528 30.4244 41.0619C30.4244 40.4577 30.1136 39.9404 29.5467 39.9404C29.181 39.9404 28.8395 40.2085 28.7361 40.6195C28.7176 40.688 28.6996 40.769 28.6996 40.8439V41.3607Z" fill="white"/>
<path d="M36.0121 41.0553C36.0121 42.1703 35.2563 42.6563 34.5433 42.6563C33.7448 42.6563 33.1294 42.0581 33.1294 41.1054C33.1294 40.0961 33.7754 39.5044 34.5919 39.5044C35.4395 39.5038 36.0121 40.1334 36.0121 41.0553ZM33.672 41.086C33.672 41.7463 34.0435 42.2447 34.5681 42.2447C35.0801 42.2447 35.4643 41.7527 35.4643 41.0736C35.4643 40.5627 35.2146 39.9149 34.5808 39.9149C33.9469 39.9149 33.672 40.5131 33.672 41.086Z" fill="white"/>
<path d="M40.498 42.4755C40.3576 42.5505 40.0468 42.6498 39.6509 42.6498C38.7611 42.6498 38.1821 42.0332 38.1821 41.1113C38.1821 40.183 38.8039 39.5103 39.7665 39.5103C40.0832 39.5103 40.3639 39.5911 40.5102 39.6661L40.3882 40.0896C40.26 40.0146 40.0589 39.9461 39.7665 39.9461C39.0899 39.9461 38.7242 40.4569 38.7242 41.0859C38.7242 41.7834 39.1627 42.2134 39.748 42.2134C40.0525 42.2134 40.2536 42.1324 40.4062 42.0639L40.498 42.4755Z" fill="white"/>
<path d="M44.8975 42.4755C44.7571 42.5505 44.4462 42.6498 44.0504 42.6498C43.1605 42.6498 42.5815 42.0332 42.5815 41.1113C42.5815 40.183 43.2033 39.5103 44.1659 39.5103C44.4826 39.5103 44.7634 39.5911 44.9096 39.6661L44.7877 40.0896C44.6599 40.0146 44.4583 39.9461 44.1659 39.9461C43.4893 39.9461 43.1236 40.4569 43.1236 41.0859C43.1236 41.7834 43.5621 42.2134 44.1475 42.2134C44.452 42.2134 44.6531 42.1324 44.8056 42.0639L44.8975 42.4755Z" fill="white"/>
<path d="M47.7269 39.5723V40.8432C47.7269 41.3227 47.7205 41.6216 47.6963 42.0515L47.7147 42.058C47.8915 41.6907 47.9949 41.4787 48.1903 41.1296L49.1107 39.5723H49.7382V42.5872H49.2263V41.3103C49.2263 40.8184 49.2384 40.5627 49.2627 40.0767H49.2442C49.0553 40.4629 48.9276 40.7057 48.7566 41.011C48.4763 41.4781 48.1533 42.0575 47.8361 42.5872H47.2207V39.5723H47.7269Z" fill="white"/>
<path d="M52.8094 39.5724V40.8434C52.8094 41.3229 52.8033 41.6218 52.779 42.0517L52.7972 42.0581C52.974 41.6908 53.0779 41.4788 53.273 41.1298L54.1936 39.5724H54.8208V42.5873H54.3091V41.3105C54.3091 40.8185 54.3213 40.5628 54.3456 40.0768H54.3268C54.1379 40.463 54.0102 40.7058 53.8394 41.0111C53.5592 41.4783 53.236 42.0576 52.9188 42.5873H52.3032V39.5724H52.8094ZM53.157 38.3452C53.1752 38.6133 53.3029 38.8188 53.5471 38.8188C53.809 38.8188 53.9306 38.6193 53.961 38.3452H54.3451C54.3208 38.8561 54.0036 39.1177 53.5344 39.1177C52.9979 39.1177 52.7906 38.7751 52.7663 38.3452H53.157Z" fill="white"/>
<path d="M59.502 42.4755C59.3617 42.5505 59.0506 42.6498 58.6549 42.6498C57.7652 42.6498 57.186 42.0332 57.186 41.1113C57.186 40.183 57.8077 39.5103 58.7704 39.5103C59.0871 39.5103 59.3677 39.5911 59.5142 39.6661L59.3921 40.0896C59.2644 40.0146 59.0627 39.9461 58.7704 39.9461C58.094 39.9461 57.7282 40.4569 57.7282 41.0859C57.7282 41.7834 58.1669 42.2134 58.7521 42.2134C59.0567 42.2134 59.2578 42.1324 59.4103 42.0639L59.502 42.4755Z" fill="white"/>
<path d="M62.3659 39.5723V40.8804H62.4936L63.6032 39.5723H64.2553L62.9694 40.9365C63.4446 40.9861 63.7309 41.3104 63.9625 41.8525C64.0415 42.0521 64.1449 42.3445 64.2791 42.5877H63.7187C63.6392 42.4572 63.5358 42.2204 63.4441 41.9711C63.243 41.4851 62.9684 41.2613 62.4688 41.2613H62.3654V42.5883H61.835V39.5734H62.3659V39.5723Z" fill="white"/>
<path d="M66.9544 39.5723V40.8432C66.9544 41.3227 66.9483 41.6216 66.924 42.0515L66.9422 42.058C67.1191 41.6907 67.2229 41.4787 67.418 41.1296L68.3386 39.5723H68.9659V42.5872H68.4541V41.3103C68.4541 40.8184 68.4663 40.5627 68.4906 40.0767H68.4719C68.2829 40.4629 68.1552 40.7057 67.9845 41.011C67.7043 41.4781 67.381 42.0575 67.0638 42.5872H66.4482V39.5723H66.9544Z" fill="white"/>
<path d="M72.0374 39.5724V40.8434C72.0374 41.3229 72.0308 41.6218 72.0065 42.0517L72.0253 42.0581C72.2021 41.6908 72.3054 41.4788 72.5005 41.1298L73.4211 39.5724H74.0484V42.5873H73.5366V41.3105C73.5366 40.8185 73.5488 40.5628 73.5731 40.0768H73.5544C73.3659 40.463 73.2377 40.7058 73.067 41.0111C72.7868 41.4783 72.4635 42.0576 72.1463 42.5873H71.5312V39.5724H72.0374ZM72.3845 38.3452C72.4032 38.6133 72.5309 38.8188 72.7746 38.8188C73.0371 38.8188 73.1582 38.6193 73.1891 38.3452H73.5726C73.5483 38.8561 73.2311 39.1177 72.7619 39.1177C72.2259 39.1177 72.0182 38.7751 71.9938 38.3452H72.3845Z" fill="white"/>
<path d="M81.9103 39.5723V42.1761L82.2148 42.1826L82.1844 43.5468H81.7634L81.7396 42.5877H79.6972L79.6729 43.5468H79.2523L79.228 42.1826L79.4778 42.1761C79.606 41.983 79.7033 41.7775 79.7702 41.5595C79.8857 41.1858 79.9404 40.7806 79.9404 40.3571V39.5723H81.9103ZM80.4167 40.4883C80.4167 40.8869 80.3619 41.2731 80.2642 41.6097C80.2034 41.8153 80.1177 42.0024 80.0265 42.1702H81.3859V39.9898H80.4167V40.4883Z" fill="white"/>
<path d="M84.8364 41.1799C84.8486 41.9211 85.3122 42.2264 85.8483 42.2264C86.2323 42.2264 86.4639 42.1579 86.6645 42.0705L86.7562 42.4633C86.5672 42.5506 86.244 42.6499 85.7748 42.6499C84.8663 42.6499 84.3247 42.0392 84.3247 41.1298C84.3247 40.2203 84.8486 39.5039 85.7079 39.5039C86.6711 39.5039 86.9269 40.3697 86.9269 40.9242C86.9269 41.0365 86.9148 41.1238 86.9087 41.1794H84.8364V41.1799ZM86.4086 40.7872C86.4152 40.4382 86.2683 39.8966 85.6654 39.8966C85.1227 39.8966 84.8851 40.4075 84.8425 40.7872H86.4086Z" fill="white"/>
<path d="M91.2652 39.5723V40.0081H90.3451V42.5872H89.8147V40.0081H88.894V39.5723H91.2652Z" fill="white"/>
<path d="M95.4654 42.4755C95.3245 42.5505 95.0144 42.6498 94.6182 42.6498C93.728 42.6498 93.1494 42.0332 93.1494 41.1113C93.1494 40.183 93.7711 39.5103 94.7338 39.5103C95.0509 39.5103 95.3311 39.5911 95.477 39.6661L95.3554 40.0896C95.2278 40.0146 95.0261 39.9461 94.7338 39.9461C94.0569 39.9461 93.691 40.4569 93.691 41.0859C93.691 41.7834 94.1298 42.2134 94.715 42.2134C95.0195 42.2134 95.2207 42.1324 95.3732 42.0639L95.4654 42.4755Z" fill="white"/>
<path d="M98.3288 39.5723V40.8804H98.4565L99.5661 39.5723H100.218L98.9323 40.9365C99.4075 40.9861 99.6938 41.3104 99.9253 41.8525C100.005 42.0521 100.108 42.3445 100.243 42.5877H99.6821C99.6031 42.4572 99.4997 42.2204 99.4075 41.9711C99.2069 41.4851 98.9323 41.2613 98.4322 41.2613H98.3288V42.5883H97.7983V39.5734H98.3288V39.5723Z" fill="white"/>
<path d="M102.92 39.5723V40.8432C102.92 41.3227 102.914 41.6216 102.889 42.0515L102.908 42.058C103.085 41.6907 103.188 41.4787 103.383 41.1296L104.304 39.5723H104.932V42.5872H104.419V41.3103C104.419 40.8184 104.432 40.5627 104.456 40.0767H104.438C104.249 40.4629 104.121 40.7057 103.95 41.011C103.67 41.4781 103.346 42.0575 103.029 42.5872H102.414V39.5723H102.92Z" fill="white"/>
<path d="M108.003 39.5724V40.8434C108.003 41.3229 107.997 41.6218 107.972 42.0517L107.991 42.0581C108.167 41.6908 108.271 41.4788 108.466 41.1298L109.386 39.5724H110.014V42.5873H109.502V41.3105C109.502 40.8185 109.514 40.5628 109.538 40.0768H109.52C109.331 40.463 109.204 40.7058 109.032 41.0111C108.752 41.4783 108.429 42.0576 108.112 42.5873H107.497V39.5724H108.003ZM108.35 38.3452C108.369 38.6133 108.497 38.8188 108.74 38.8188C109.002 38.8188 109.125 38.6193 109.155 38.3452H109.538C109.514 38.8561 109.197 39.1177 108.728 39.1177C108.192 39.1177 107.984 38.7751 107.96 38.3452H108.35Z" fill="white"/>
<path d="M116.108 39.5723V42.1573H117.467V39.5723H117.997V42.1761L118.301 42.1826L118.271 43.5468H117.857L117.832 42.5877H115.577V39.5728H116.108V39.5723Z" fill="white"/>
<path d="M120.922 41.1799C120.935 41.9211 121.398 42.2264 121.934 42.2264C122.318 42.2264 122.549 42.1579 122.75 42.0705L122.842 42.4633C122.653 42.5506 122.33 42.6499 121.861 42.6499C120.952 42.6499 120.41 42.0392 120.41 41.1298C120.41 40.2203 120.935 39.5039 121.794 39.5039C122.757 39.5039 123.013 40.3697 123.013 40.9242C123.013 41.0365 123.001 41.1238 122.994 41.1794H120.922V41.1799ZM122.495 40.7872C122.501 40.4382 122.354 39.8966 121.751 39.8966C121.208 39.8966 120.971 40.4075 120.928 40.7872H122.495Z" fill="white"/>
<path d="M125.903 39.5723V40.7871H127.304V39.5723H127.835V42.5872H127.304V41.2229H125.903V42.5872H125.372V39.5723H125.903Z" fill="white"/>
<path d="M132.393 39.5723V40.0081H131.472V42.5872H130.942V40.0081H130.021V39.5723H132.393Z" fill="white"/>
<path d="M134.568 40.5569C134.568 40.1707 134.556 39.8594 134.544 39.5725H135.025L135.05 40.0893H135.062C135.281 39.7219 135.629 39.5034 136.11 39.5034C136.823 39.5034 137.359 40.12 137.359 41.036C137.359 42.1197 136.713 42.6553 136.018 42.6553C135.628 42.6553 135.287 42.4811 135.11 42.1817H135.098V43.82H134.567V40.5569H134.568ZM135.098 41.3607C135.098 41.4416 135.11 41.5166 135.123 41.5851C135.22 41.9648 135.543 42.2265 135.927 42.2265C136.494 42.2265 136.823 41.7528 136.823 41.0619C136.823 40.4577 136.512 39.9404 135.945 39.9404C135.58 39.9404 135.238 40.2085 135.135 40.6195C135.116 40.688 135.098 40.769 135.098 40.8439V41.3607Z" fill="white"/>
</svg>
