<svg width="140" height="41" viewBox="0 0 140 41" fill="none" xmlns="http://www.w3.org/2000/svg">
<g clip-path="url(#clip0_204_176)">
<path d="M79.8763 0.390137H74.807V6.7243H64.6325V0.390137H59.5522V24.3812H64.6325V11.7715L74.7929 11.7659L74.807 24.3812H79.8763" fill="#D0004E"/>
<path d="M34.145 0.390137V24.3923H54.413V19.3423H39.2253V15.5597L54.4689 15.5569V10.5069L39.2253 10.5097V5.45968H54.4689V0.41247L39.0989 0.390137H34.145Z" fill="#D0004E"/>
<path d="M84.9575 0.390137V24.3923H105.225V19.3423H90.0377V15.5597L105.282 15.5569V10.5069L90.0377 10.5097V5.45968H105.282V0.41247L89.9113 0.390137H84.9575Z" fill="#D0004E"/>
<path d="M126.91 7.96374V0.390137H121.83V7.98331L118.056 7.98051L114.207 0.390137H109.126L114.207 10.465L109.126 24.3812H114.207L118.073 13.05H121.824L121.83 24.3812H126.91V13.05L130.729 13.0333L134.53 24.3812H139.614L134.612 10.5069L139.614 0.390137H134.53L130.726 7.98331" fill="#D0004E"/>
<path d="M-0.157227 0.412598V34.4869H10.6019V40.7959H18.2223V34.4869H29.06V21.8661H21.4396V26.9133H7.46603L7.49972 7.99458H21.4396V14.2952H29.0657V0.412598H-0.157227Z" fill="#D0004E"/>
<path d="M34.8691 29.4595L36.7518 33.7418H36.7742L38.6512 29.4595H39.3734V34.4816H38.7917V30.4868H38.7692L37.0215 34.4816H36.4989L34.7511 30.4868H34.7286V34.4816H34.147V29.4595H34.8691Z" fill="#020203"/>
<path d="M42.9248 29.4595L44.9142 34.4816H44.2848L43.7481 33.0746H41.4271L40.8904 34.4816H40.2666L42.256 29.4595H42.9248ZM43.5626 32.5889L42.6073 30.0792H42.5792L41.6098 32.5889H43.5626Z" fill="#020203"/>
<path d="M49.403 29.8059C49.7851 30.1018 50.0128 30.501 50.083 31.0007H49.5238C49.4536 30.635 49.2681 30.353 48.9871 30.1576C48.7118 29.9678 48.3774 29.8757 47.9812 29.8757C47.3939 29.8757 46.9415 30.0794 46.6212 30.487C46.3234 30.8667 46.1745 31.3664 46.1745 31.9917C46.1745 32.617 46.3149 33.1167 46.6128 33.4824C46.9247 33.8705 47.3715 34.0659 47.9644 34.0659C48.369 34.0659 48.7062 33.9598 48.99 33.7504C49.2878 33.5243 49.4929 33.1949 49.5913 32.7594H50.1505C50.038 33.3428 49.7767 33.8007 49.358 34.1245C48.9675 34.426 48.501 34.5823 47.9644 34.5823C47.1776 34.5823 46.5763 34.3227 46.1604 33.809C45.7783 33.3456 45.5928 32.7399 45.5928 31.9945C45.5928 31.2491 45.7839 30.6378 46.1745 30.1604C46.5987 29.6272 47.2085 29.3648 47.9868 29.3648C48.546 29.362 49.0208 29.51 49.403 29.8059Z" fill="#020203"/>
<path d="M55.0931 29.4595V29.9592H53.3086V34.4816H52.7355V29.9592H50.9512V29.4595H55.0931Z" fill="#020203"/>
<path d="M59.6854 29.4595V29.9592H56.6843V31.6397H59.5167V32.1394H56.6843V33.9819H59.8061V34.4816H56.1055V29.4595H59.6854Z" fill="#020203"/>
<path d="M63.064 29.4595C64.2248 29.4595 64.8062 29.9508 64.8062 30.9362C64.8062 31.9273 64.219 32.4269 63.0583 32.4269H61.5804V34.4816H60.999V29.4595H63.064ZM61.5778 31.93H63.0275C63.4375 31.93 63.7358 31.8463 63.9322 31.6844C64.1234 31.5224 64.2216 31.2768 64.2216 30.939C64.2216 30.6012 64.1234 30.3556 63.9239 30.2076C63.7243 30.0401 63.4292 29.962 63.0248 29.962H61.5747V31.93H61.5778Z" fill="#020203"/>
<path d="M69.5207 29.8059C69.9026 30.1018 70.1304 30.501 70.2009 31.0007H69.6414C69.5714 30.635 69.386 30.353 69.1049 30.1576C68.8296 29.9678 68.4953 29.8757 68.0988 29.8757C67.5116 29.8757 67.0593 30.0794 66.739 30.487C66.4413 30.8667 66.2924 31.3664 66.2924 31.9917C66.2924 32.617 66.4324 33.1167 66.7307 33.4824C67.0425 33.8705 67.4892 34.0659 68.0821 34.0659C68.4864 34.0659 68.8239 33.9598 69.1075 33.7504C69.4053 33.5243 69.6106 33.1949 69.7088 32.7594H70.2683C70.156 33.3428 69.8943 33.8007 69.4758 34.1245C69.0851 34.426 68.6186 34.5823 68.0821 34.5823C67.2954 34.5823 66.6941 34.3227 66.2783 33.809C65.8959 33.3456 65.7104 32.7399 65.7104 31.9945C65.7104 31.2491 65.9016 30.6378 66.2924 30.1604C66.7166 29.6272 67.3262 29.3648 68.1045 29.3648C68.6635 29.362 69.1384 29.51 69.5207 29.8059Z" fill="#020203"/>
<path d="M72.0378 29.4595V31.7318C72.7597 31.7039 73.3192 31.5141 73.71 31.1623C74.1059 30.7966 74.3671 30.2327 74.4878 29.4595H75.112C74.9574 30.3946 74.6314 31.0842 74.1284 31.5336C74.0579 31.5978 73.9795 31.6593 73.8954 31.7151L75.4798 34.4788H74.8085L73.4064 31.9691C73.0241 32.1227 72.5633 32.2092 72.0404 32.2287V34.4788H71.459V29.4595H72.0378Z" fill="#020203"/>
<path d="M78.678 29.4595L80.6672 34.4816H80.0377L79.5013 33.0746H77.1803L76.6438 34.4816H76.0195L78.0093 29.4595H78.678ZM79.3158 32.5889L78.3604 30.0792H78.3321L77.3631 32.5889H79.3158Z" fill="#020203"/>
<path d="M85.2195 34.4816H84.6464V32.3795H83.1038L81.859 34.4816H81.207L82.5083 32.2873C82.3396 32.2315 82.1907 32.1673 82.0611 32.0836C81.6793 31.8295 81.4881 31.4443 81.4881 30.9083C81.4881 29.9368 82.1259 29.4595 83.4073 29.4595H85.2195V34.4816ZM82.4237 30.1769C82.1823 30.3304 82.0695 30.5705 82.0695 30.9083C82.0695 31.5476 82.4884 31.8714 83.3368 31.8714H84.6464V29.9592H83.4355C82.9831 29.9592 82.6431 30.029 82.4237 30.1769Z" fill="#020203"/>
<path d="M89.5749 29.4595L91.1452 32.5889L92.539 29.4595H93.2108L91.4686 33.2784C91.269 33.7083 91.0444 34.0154 90.7885 34.1996C90.533 34.3838 90.207 34.4816 89.8105 34.4816H89.2458V33.926H89.6199C90.0017 33.926 90.2995 33.8339 90.5105 33.658C90.6088 33.5659 90.7158 33.4319 90.8224 33.256L88.8833 29.4595H89.5749Z" fill="#020203"/>
<path d="M98.1538 29.4595V34.4816H97.5718V29.9592H94.7196V34.4816H94.1382V29.4595H98.1538Z" fill="#020203"/>
<path d="M101.621 29.4595C102.781 29.4595 103.363 29.9508 103.363 30.9362C103.363 31.9273 102.776 32.4269 101.615 32.4269H100.138V34.4816H99.5557V29.4595H101.621ZM100.134 31.93H101.585C101.995 31.93 102.292 31.8463 102.489 31.6844C102.68 31.5224 102.779 31.2768 102.779 30.939C102.779 30.6012 102.68 30.3556 102.481 30.2076C102.281 30.0401 101.986 29.962 101.581 29.962H100.132V31.93H100.134Z" fill="#020203"/>
<path d="M106.634 29.4595L108.623 34.4816H107.994L107.457 33.0746H105.136L104.599 34.4816H103.976L105.965 29.4595H106.634ZM107.269 32.5889L106.313 30.0792H106.286L105.316 32.5889H107.269Z" fill="#020203"/>
<path d="M111.774 29.4595C112.241 29.4595 112.617 29.5711 112.893 29.7972C113.162 30.0234 113.297 30.3304 113.297 30.724C113.297 31.006 113.218 31.2516 113.069 31.4554C112.915 31.6397 112.71 31.7709 112.454 31.8575C112.786 31.9133 113.042 32.0557 113.227 32.265C113.413 32.4772 113.511 32.7424 113.511 33.0802C113.511 33.5715 113.334 33.9372 112.988 34.1773C112.69 34.3727 112.28 34.4788 111.763 34.4788H109.518V29.4595H111.774ZM110.096 31.6536H111.634C111.988 31.6536 112.258 31.5755 112.44 31.4359C112.626 31.288 112.724 31.0702 112.724 30.7827C112.724 30.5007 112.631 30.2914 112.449 30.149C112.263 30.0094 111.996 29.9452 111.642 29.9452H110.1V31.6536H110.096ZM110.096 33.9958H111.71C112.064 33.9958 112.339 33.926 112.553 33.7976C112.8 33.6441 112.926 33.3956 112.926 33.0746C112.926 32.7507 112.814 32.5107 112.6 32.3571C112.395 32.2036 112.097 32.131 111.71 32.131H110.096V33.9958Z" fill="#020203"/>
<path d="M118.726 29.4595V34.4816H118.144V29.9592H116.43L115.907 33.1444C115.829 33.6218 115.688 33.9595 115.483 34.1717C115.27 34.3755 114.966 34.4816 114.57 34.4816H114.266V33.926H114.443C114.677 33.926 114.862 33.8758 114.989 33.7781C115.157 33.6441 115.278 33.4124 115.334 33.0746L115.93 29.4595H118.726Z" fill="#020203"/>
<path d="M123.707 29.4595V29.9592H120.706V31.6397H123.538V32.1394H120.706V33.9819H123.828V34.4816H120.127V29.4595H123.707Z" fill="#020203"/>
<path d="M125.598 29.4595V31.6397H128.52V29.4595H129.101V34.4816H128.52V32.1394H125.598V34.4816H125.016V29.4595H125.598Z" fill="#020203"/>
<path d="M131.075 29.4595V33.5882H131.097L133.972 29.4595H134.567V34.4816H133.986V30.3946H133.963L131.103 34.4816H130.493V29.4595H131.075Z" fill="#020203"/>
<path d="M139.628 34.4816H139.054V32.3795H137.512L136.267 34.4816H135.615L136.916 32.2873C136.747 32.2315 136.598 32.1673 136.469 32.0836C136.087 31.8295 135.896 31.4443 135.896 30.9083C135.896 29.9368 136.534 29.4595 137.815 29.4595H139.628V34.4816ZM136.832 30.1769C136.59 30.3304 136.478 30.5705 136.478 30.9083C136.478 31.5476 136.896 31.8714 137.745 31.8714H139.054V29.9592H137.843C137.391 29.9592 137.051 30.029 136.832 30.1769Z" fill="#020203"/>
</g>
<defs>
<clipPath id="clip0_204_176">
<rect width="140" height="41" fill="white"/>
</clipPath>
</defs>
</svg>
