<svg width="133" height="82" viewBox="0 0 133 82" fill="none" xmlns="http://www.w3.org/2000/svg">
<g clip-path="url(#clip0_204_180)">
<path d="M4.78923 69.9602H0.430176V62.1899H1.72014V68.7777H3.89318V62.1899H5.17016V68.7863H5.88873V71.5651H4.78923V69.9602Z" fill="#292D33"/>
<path d="M6.82861 69.9601V62.1899H8.09261V67.3929C8.09694 67.3929 8.1056 67.3929 8.10993 67.3972C8.11426 67.4015 8.12286 67.4015 8.12719 67.4015C8.30034 67.0821 8.46488 66.7584 8.61638 66.4391C8.76788 66.1203 8.9237 65.7966 9.07953 65.4773C9.36526 64.9248 9.64661 64.3774 9.91935 63.8379C10.192 63.2941 10.4734 62.7423 10.7461 62.1855H11.9322V69.9558H10.6552V64.8903H10.6336C10.5037 65.1363 10.3825 65.3866 10.2527 65.6369C10.1227 65.8873 10.0016 66.1376 9.87172 66.383L8.03632 69.9558H6.82861V69.9601Z" fill="#292D33"/>
<path d="M15.5558 69.3128C15.045 69.2697 14.6338 69.1618 14.3005 68.9892C13.9672 68.8165 13.7117 68.5884 13.5169 68.3036C13.3221 68.0187 13.188 67.6778 13.11 67.2807C13.0321 66.8843 12.9932 66.4441 12.9932 65.9521C12.9932 65.4903 13.0365 65.0636 13.123 64.6752C13.2053 64.2825 13.3524 63.9459 13.5559 63.6481C13.7594 63.3509 14.0191 63.1178 14.3524 62.9409C14.6814 62.7639 15.0839 62.6517 15.5601 62.6043V62.1899H16.8025V62.6043C17.2786 62.6474 17.6812 62.7596 18.0102 62.9323C18.3391 63.1049 18.6032 63.3336 18.8067 63.6178C19.0101 63.9027 19.153 64.2393 19.2439 64.6234C19.3348 65.0075 19.3781 65.4428 19.3781 65.9175C19.3781 66.4095 19.3391 66.8541 19.2568 67.2505C19.1746 67.6476 19.0405 67.9928 18.8413 68.282C18.6422 68.5711 18.3824 68.8079 18.0535 68.9805C17.7245 69.1532 17.3046 69.2654 16.8025 69.3085V69.9559H15.5601L15.5558 69.3128ZM15.5428 63.7646C15.0537 63.8034 14.7204 64.0149 14.5342 64.4033C14.3481 64.7874 14.2528 65.2961 14.2528 65.9219C14.2528 66.2758 14.2745 66.5822 14.3135 66.8541C14.3524 67.1254 14.426 67.3541 14.5212 67.544C14.6164 67.7339 14.7506 67.8806 14.9194 67.9842C15.0883 68.0878 15.296 68.1525 15.5428 68.1741V63.7646ZM16.8111 68.1741C17.3089 68.1352 17.6509 67.9281 17.837 67.5526C18.0232 67.1771 18.1098 66.6253 18.1098 65.9046C18.1098 65.2745 18.0145 64.7658 17.824 64.3861C17.6336 64.0063 17.2959 63.7991 16.8111 63.7603V68.1741Z" fill="#292D33"/>
<path d="M25.3547 64.5889C25.3547 64.9255 25.3028 65.2357 25.2076 65.5248C25.1123 65.814 24.9651 66.0686 24.7747 66.2844C24.5842 66.5002 24.3418 66.6685 24.0518 66.7937C23.7618 66.9188 23.4198 66.9786 23.0345 66.9786H21.8917V69.9602H20.6147V62.1899H22.9653C23.3289 62.1899 23.6578 62.2417 23.9522 62.3367C24.2422 62.4316 24.4977 62.5827 24.7011 62.7769C24.9089 62.9711 25.0691 63.2257 25.1816 63.5229C25.2984 63.825 25.3547 64.1832 25.3547 64.5889ZM24.0907 64.563C24.0907 64.1789 23.9955 63.8811 23.8094 63.6826C23.6233 63.4797 23.3375 63.3762 22.9566 63.3762H21.8917V65.7751H22.9653C23.3462 65.7751 23.6276 65.6629 23.8094 65.4471C23.9998 65.227 24.0907 64.9385 24.0907 64.563Z" fill="#292D33"/>
<path d="M31.1992 67.6044C31.1992 67.9798 31.143 68.3115 31.0261 68.6093C30.9092 68.9071 30.7447 69.1617 30.5326 69.3732C30.3205 69.5847 30.0694 69.7487 29.7751 69.8609C29.485 69.9725 29.1647 70.0286 28.8098 70.0286C28.3855 70.0286 28.0219 69.9595 27.7103 69.8221C27.4029 69.684 27.1562 69.4984 26.9657 69.2653C26.7752 69.0323 26.6367 68.7561 26.5458 68.4496C26.4549 68.1438 26.4116 67.8115 26.4116 67.4749V64.5371C26.4116 64.2652 26.4549 63.9846 26.5415 63.6998C26.6237 63.415 26.7666 63.156 26.957 62.9273C27.1475 62.6992 27.3943 62.5093 27.6973 62.3582C28.0003 62.2072 28.3682 62.1338 28.8098 62.1338C29.2167 62.1338 29.576 62.2072 29.8746 62.3453C30.1733 62.4834 30.4244 62.6689 30.6192 62.8971C30.814 63.1258 30.9611 63.3847 31.0564 63.6696C31.1516 63.9544 31.1949 64.2436 31.1949 64.5371L31.1992 67.6044ZM29.9006 64.5198C29.9006 64.4249 29.8833 64.3083 29.8486 64.1789C29.814 64.0494 29.7578 63.9199 29.6755 63.8034C29.5933 63.6869 29.485 63.579 29.3465 63.497C29.208 63.415 29.0349 63.3675 28.8141 63.3675C28.5933 63.3675 28.4158 63.4063 28.2687 63.484C28.1215 63.5617 28.0046 63.6566 27.9224 63.7732C27.8401 63.8897 27.7752 64.0149 27.7362 64.1486C27.6973 64.2824 27.6799 64.4119 27.6799 64.5284L27.6929 67.5051C27.6929 67.8806 27.7752 68.1907 27.9527 68.441C28.1258 68.6913 28.4158 68.8208 28.8271 68.8208C29.1171 68.8208 29.3725 68.7215 29.5846 68.523C29.7967 68.3288 29.9049 68.0532 29.9049 67.7123L29.9006 64.5198Z" fill="#292D33"/>
<path d="M37.1305 67.6605C37.1305 68.4028 36.9271 68.9719 36.5332 69.3689C36.1349 69.766 35.5982 69.9602 34.9272 69.9602H32.4165V62.1899H34.8017C35.5419 62.1899 36.096 62.3798 36.4639 62.7596C36.8319 63.1394 37.018 63.6567 37.018 64.3127C37.018 64.6407 36.9487 64.9428 36.8102 65.2184C36.6717 65.4903 36.4249 65.7147 36.0657 65.8787V65.9348C36.2518 65.9952 36.4119 66.0816 36.5462 66.1981C36.6804 66.3146 36.7929 66.4484 36.8752 66.6038C36.9574 66.7591 37.0267 66.9274 37.0656 67.1124C37.1089 67.2937 37.1305 67.4749 37.1305 67.6605ZM35.7627 64.3559C35.7627 64.0451 35.6804 63.7991 35.5116 63.6178C35.3428 63.4409 35.0744 63.3503 34.6978 63.3503H33.6892V65.3824H34.7065C35.0701 65.3824 35.3384 65.2874 35.5072 65.0982C35.6761 64.9083 35.7627 64.6623 35.7627 64.3559ZM35.8752 67.5871C35.8752 67.2591 35.793 66.9916 35.6285 66.7893C35.464 66.5865 35.1913 66.4872 34.8103 66.4872H33.6892V68.7518H34.819C35.0224 68.7518 35.1869 68.7265 35.3211 68.6618C35.4553 68.6014 35.5635 68.515 35.6458 68.4115C35.728 68.3036 35.7843 68.1784 35.819 68.036C35.8579 67.8936 35.8752 67.7425 35.8752 67.5871Z" fill="#292D33"/>
<path d="M42.9092 67.6044C42.9092 67.9798 42.8529 68.3115 42.736 68.6093C42.6191 68.9071 42.4547 69.1617 42.2425 69.3732C42.0304 69.5847 41.7794 69.7487 41.485 69.8609C41.1907 69.9725 40.8747 70.0286 40.5197 70.0286C40.0955 70.0286 39.7319 69.9595 39.4202 69.8221C39.1129 69.684 38.8661 69.4984 38.6757 69.2653C38.4852 69.0323 38.3467 68.7561 38.2558 68.4496C38.1649 68.1438 38.1216 67.8115 38.1216 67.4749V64.5371C38.1216 64.2652 38.1649 63.9846 38.2514 63.6998C38.3337 63.415 38.4765 63.156 38.667 62.9273C38.8575 62.6992 39.1042 62.5093 39.4072 62.3582C39.7102 62.2072 40.0782 62.1338 40.5197 62.1338C40.9266 62.1338 41.2859 62.2072 41.5846 62.3453C41.8833 62.4834 42.1343 62.6689 42.3291 62.8971C42.5239 63.1258 42.6711 63.3847 42.7663 63.6696C42.8616 63.9544 42.9049 64.2436 42.9049 64.5371L42.9092 67.6044ZM41.6106 64.5198C41.6106 64.4249 41.5933 64.3083 41.5586 64.1789C41.524 64.0494 41.4677 63.9199 41.3855 63.8034C41.3032 63.6869 41.195 63.579 41.0565 63.497C40.918 63.415 40.7448 63.3675 40.5241 63.3675C40.3033 63.3675 40.1258 63.4063 39.9786 63.484C39.8315 63.5617 39.7146 63.6566 39.6323 63.7732C39.5501 63.8897 39.4851 64.0149 39.4462 64.1486C39.4072 64.2824 39.3899 64.4119 39.3899 64.5284L39.4029 67.5051C39.4029 67.8806 39.4851 68.1907 39.6626 68.441C39.8358 68.6913 40.1258 68.8208 40.537 68.8208C40.8271 68.8208 41.0825 68.7215 41.2945 68.523C41.5067 68.3288 41.6149 68.0532 41.6149 67.7123L41.6106 64.5198Z" fill="#292D33"/>
<path d="M46.7261 61.7714C46.4405 61.7714 46.2024 61.7196 46.0076 61.6204C45.8128 61.5212 45.6569 61.3918 45.5401 61.245C45.4232 61.0983 45.3366 60.9344 45.2803 60.7575C45.2241 60.5806 45.1938 60.4167 45.1895 60.27H46.0639C46.0682 60.3476 46.0898 60.421 46.1201 60.4987C46.1504 60.5763 46.198 60.6497 46.2543 60.7187C46.3106 60.7834 46.3798 60.8395 46.4578 60.8869C46.5357 60.9344 46.6266 60.9517 46.7261 60.9517C46.8344 60.9517 46.9296 60.9301 47.0119 60.8869C47.0941 60.8395 47.159 60.7834 47.2153 60.7187C47.2716 60.654 47.3105 60.5763 47.3365 60.4987C47.3625 60.421 47.3755 60.3476 47.3755 60.27H48.2412C48.2239 60.4167 48.1893 60.5806 48.133 60.7575C48.0767 60.9344 47.9901 61.0983 47.8733 61.245C47.7564 61.3918 47.6049 61.5212 47.4144 61.6204C47.2283 61.7196 46.9945 61.7714 46.7261 61.7714Z" fill="#292D33"/>
<path d="M44.1504 69.9601V62.1899H45.4144V67.3929C45.4187 67.3929 45.4274 67.3929 45.4317 67.3972C45.436 67.4015 45.4447 67.4015 45.449 67.4015C45.6222 67.0821 45.7867 66.7584 45.9382 66.4391C46.0897 66.1203 46.2455 65.7966 46.4014 65.4773C46.687 64.9248 46.9684 64.3774 47.2411 63.8379C47.5138 63.2941 47.7952 62.7423 48.0679 62.1855H49.254V69.9558H47.977V64.8903H47.9554C47.8255 65.1363 47.7043 65.3866 47.5744 65.6369C47.4446 65.8873 47.3233 66.1376 47.1935 66.383L45.3581 69.9558H44.1504V69.9601Z" fill="#292D33"/>
<path d="M56.7734 63.3503V69.9602H55.4964V63.3503H53.7822V62.1899H58.4962V63.3503H56.7734Z" fill="#292D33"/>
<path d="M64.4087 64.5889C64.4087 64.9255 64.3567 65.2357 64.2615 65.5248C64.1668 65.814 64.0196 66.0686 63.8291 66.2844C63.6385 66.5002 63.396 66.6685 63.1059 66.7937C62.8158 66.9188 62.4737 66.9786 62.0889 66.9786H60.9459V69.9602H59.6689V62.1899H62.0196C62.3834 62.1899 62.7119 62.2417 63.0063 62.3367C63.2964 62.4316 63.5519 62.5827 63.7554 62.7769C63.9633 62.9711 64.1235 63.2257 64.2361 63.5229C64.3524 63.825 64.4087 64.1832 64.4087 64.5889ZM63.1406 64.563C63.1406 64.1789 63.0453 63.8811 62.8591 63.6826C62.6729 63.4841 62.3877 63.3762 62.0067 63.3762H60.9416V65.7751H62.0153C62.3964 65.7751 62.6772 65.6629 62.8591 65.4471C63.0453 65.227 63.1406 64.9385 63.1406 64.563Z" fill="#292D33"/>
<path d="M68.0529 68.2863H65.8927C65.8754 68.3554 65.8494 68.4632 65.8017 68.6229C65.7584 68.7777 65.7108 68.946 65.6632 69.1229C65.6112 69.2999 65.5679 69.4682 65.5289 69.6236C65.49 69.7789 65.4553 69.8912 65.4337 69.9602H64.1006L66.3517 62.1899H67.5852L69.8493 69.9602H68.4945L68.0529 68.2863ZM66.5725 65.5852L66.1698 67.1469H67.7584L67.3643 65.5939C67.347 65.5248 67.3254 65.4169 67.2907 65.2572C67.2561 65.1025 67.2171 64.9385 67.1781 64.7658C67.1392 64.5932 67.1002 64.4292 67.0612 64.2782C67.0223 64.1271 67.0006 64.0149 66.9919 63.9502H66.9363L66.5725 65.5852Z" fill="#292D33"/>
<path d="M73.9499 69.9602V66.5994H71.7551V69.9602H70.4653V62.1899H71.7551V65.4514H73.9499V62.1899H75.2273V69.9602H73.9499Z" fill="#292D33"/>
<path d="M81.2302 68.3072C81.1003 68.851 80.8318 69.274 80.4248 69.5761C80.0184 69.8782 79.516 70.0286 78.9358 70.0286C78.5331 70.0286 78.1786 69.9682 77.8842 69.8393C77.5854 69.7098 77.3342 69.5372 77.135 69.3128C76.9359 69.0884 76.78 68.8251 76.6847 68.5273C76.59 68.2252 76.5381 67.9022 76.5381 67.5526V64.5371C76.5381 64.2306 76.59 63.9329 76.6847 63.6437C76.78 63.3545 76.9315 63.0956 77.1264 62.8712C77.3212 62.6474 77.5767 62.4704 77.8712 62.3366C78.17 62.2028 78.5244 62.1338 78.9358 62.1338C79.5637 62.1338 80.0746 62.2978 80.4638 62.6258C80.8578 62.9532 81.1133 63.3632 81.2432 63.8552L80.0227 64.2565C80.001 64.1443 79.9621 64.0408 79.9101 63.9329C79.8581 63.825 79.7889 63.73 79.6979 63.648C79.607 63.566 79.5031 63.4926 79.3732 63.4409C79.2432 63.3891 79.1003 63.3632 78.9358 63.3632C78.7409 63.3632 78.5764 63.3977 78.4384 63.4624C78.2999 63.5315 78.1873 63.6178 78.0964 63.7257C78.0054 63.8336 77.9405 63.9544 77.8928 64.0882C77.8495 64.222 77.8235 64.3558 77.8235 64.4896V67.5828C77.8235 67.7468 77.8452 67.9021 77.8928 68.0532C77.9361 68.2036 78.0054 68.3331 78.1007 68.4453C78.1959 68.5575 78.3085 68.6482 78.4471 68.7086C78.5851 68.769 78.7496 68.8035 78.9358 68.8035C79.2086 68.8035 79.4468 68.7259 79.6416 68.5705C79.8365 68.4151 79.9621 68.195 80.0097 67.9237L81.2302 68.3072Z" fill="#292D33"/>
<path d="M84.2431 69.3128C83.7321 69.2697 83.3207 69.1618 82.9873 68.9892C82.6545 68.8165 82.399 68.5884 82.2041 68.3036C82.0093 68.0187 81.875 67.6778 81.7971 67.2807C81.7191 66.8843 81.6802 66.4441 81.6802 65.9521C81.6802 65.4903 81.7235 65.0636 81.8101 64.6752C81.8924 64.2825 82.0396 63.9459 82.2431 63.6481C82.4466 63.3509 82.7058 63.1178 83.0392 62.9409C83.3683 62.7639 83.7711 62.6517 84.2474 62.6043V62.1899H85.4895V62.6043C85.9659 62.6474 86.368 62.7596 86.6971 62.9323C87.0262 63.1049 87.2903 63.3336 87.4938 63.6178C87.6973 63.9027 87.8402 64.2393 87.9312 64.6234C88.0221 65.0075 88.0654 65.4428 88.0654 65.9175C88.0654 66.4095 88.0264 66.8541 87.9442 67.2505C87.8619 67.6476 87.7277 67.9928 87.5285 68.282C87.3293 68.5711 87.0695 68.8079 86.7404 68.9805C86.4113 69.1532 85.9919 69.2654 85.4895 69.3085V69.9559H84.2474V69.3128H84.2431ZM84.2301 63.7646C83.7407 63.8034 83.4073 64.0149 83.2211 64.4033C83.0349 64.7874 82.9397 65.2961 82.9397 65.9219C82.9397 66.2758 82.9613 66.5822 83.0003 66.8541C83.0393 67.1254 83.1129 67.3541 83.2081 67.544C83.3034 67.7339 83.4376 67.8806 83.6065 67.9842C83.7754 68.0921 83.9832 68.1525 84.2301 68.1741V63.7646ZM85.4982 68.1741C85.9962 68.1352 86.3383 67.9281 86.5239 67.5526C86.7101 67.1771 86.7967 66.6253 86.7967 65.9046C86.7967 65.2745 86.7014 64.7658 86.5109 64.3861C86.321 64.0063 85.9832 63.7991 85.4982 63.7603V68.1741Z" fill="#292D33"/>
<path d="M94.1957 67.6044C94.1957 67.9798 94.1394 68.3115 94.0225 68.6093C93.9056 68.9071 93.741 69.1617 93.5289 69.3732C93.3167 69.5847 93.0655 69.7487 92.7711 69.8609C92.4772 69.9725 92.1611 70.0286 91.806 70.0286C91.3817 70.0286 91.0179 69.9595 90.7068 69.8221C90.3993 69.684 90.1525 69.4984 89.962 69.2653C89.7715 69.0323 89.6329 68.7561 89.5419 68.4496C89.451 68.1438 89.4077 67.8115 89.4077 67.4749V64.5371C89.4077 64.2652 89.451 63.9846 89.5376 63.6998C89.6199 63.415 89.7628 63.156 89.9533 62.9273C90.1438 62.6992 90.3907 62.5093 90.6938 62.3582C90.9963 62.2072 91.3644 62.1338 91.806 62.1338C92.2131 62.1338 92.5719 62.2072 92.8707 62.3453C93.1694 62.4834 93.4206 62.6689 93.6155 62.8971C93.8103 63.1258 93.9575 63.3847 94.0528 63.6696C94.1481 63.9544 94.1914 64.2436 94.1914 64.5371L94.1957 67.6044ZM92.8966 64.5198C92.8966 64.4249 92.8793 64.3083 92.8447 64.1789C92.81 64.0494 92.7537 63.9199 92.6715 63.8034C92.5892 63.6869 92.4816 63.579 92.343 63.497C92.2044 63.415 92.0312 63.3675 91.8104 63.3675C91.5895 63.3675 91.412 63.4063 91.2648 63.484C91.1175 63.5617 91.0006 63.6566 90.9183 63.7732C90.8361 63.8897 90.7711 64.0149 90.7328 64.1486C90.6938 64.2824 90.6765 64.4119 90.6765 64.5284L90.6895 67.5051C90.6895 67.8806 90.7711 68.1907 90.9487 68.441C91.1219 68.6913 91.412 68.8208 91.8234 68.8208C92.1135 68.8208 92.369 68.7215 92.5805 68.523C92.7927 68.3288 92.901 68.0532 92.901 67.7123L92.8966 64.5198Z" fill="#292D33"/>
<path d="M100.234 64.5889C100.234 64.9255 100.182 65.2357 100.088 65.5248C99.9925 65.814 99.8453 66.0686 99.6547 66.2844C99.4642 66.5002 99.2217 66.6685 98.9316 66.7937C98.6415 66.9145 98.3 66.9786 97.9146 66.9786H96.7714V69.9602H95.4946V62.1899H97.8453C98.2091 62.1899 98.5375 62.2417 98.832 62.3367C99.1221 62.4316 99.3776 62.5827 99.5811 62.7769C99.789 62.9711 99.9492 63.2257 100.062 63.5229C100.178 63.825 100.234 64.1832 100.234 64.5889ZM98.9662 64.563C98.9662 64.1789 98.871 63.8811 98.6848 63.6826C98.4986 63.4797 98.2134 63.3762 97.8323 63.3762H96.7671V65.7751H97.841C98.2221 65.7751 98.5029 65.6629 98.6848 65.4471C98.871 65.227 98.9662 64.9385 98.9662 64.563Z" fill="#292D33"/>
<path d="M106.247 69.9602V65.4169H106.204L105.632 66.867L104.892 68.5625H103.983L103.221 66.8109L102.663 65.404L102.62 65.4169V69.9602H101.342V62.1899H102.563L103.663 64.7356L104.425 66.6124H104.468L105.217 64.727L106.29 62.1943H107.524V69.9645H106.247V69.9602Z" fill="#292D33"/>
<path d="M112.297 68.2863H110.138C110.12 68.3554 110.094 68.4632 110.047 68.6229C110.004 68.7777 109.956 68.946 109.908 69.1229C109.856 69.2999 109.813 69.4682 109.774 69.6236C109.735 69.7789 109.7 69.8912 109.679 69.9602H108.346L110.596 62.1899H111.83L114.094 69.9602H112.739L112.297 68.2863ZM110.821 65.5852L110.419 67.1469H112.008L111.614 65.5939C111.596 65.5248 111.575 65.4169 111.54 65.2572C111.506 65.1025 111.467 64.9385 111.428 64.7658C111.389 64.5932 111.35 64.4292 111.311 64.2782C111.272 64.1271 111.25 64.0149 111.241 63.9502H111.185L110.821 65.5852Z" fill="#292D33"/>
<path d="M119.241 69.9602H114.882V62.1899H116.172V68.7777H118.345V62.1899H119.622V68.7863H120.336V71.5651H119.237V69.9602H119.241Z" fill="#292D33"/>
<path d="M121.336 69.9601V62.1899H122.6V67.3929C122.605 67.3929 122.613 67.3929 122.618 67.3972C122.622 67.4015 122.631 67.4015 122.635 67.4015C122.808 67.0821 122.973 66.7584 123.124 66.4391C123.275 66.1203 123.431 65.7966 123.587 65.4773C123.873 64.9248 124.154 64.3774 124.427 63.8379C124.7 63.2984 124.981 62.7423 125.253 62.1855H126.44V69.9558H125.162V64.8903H125.141C125.012 65.1363 124.89 65.3866 124.76 65.6369C124.63 65.8873 124.509 66.1376 124.379 66.383L122.544 69.9558H121.336V69.9601Z" fill="#292D33"/>
<path d="M127.78 69.9854V62.2157H129.045V67.4187C129.049 67.4187 129.058 67.4187 129.062 67.4231C129.066 67.4274 129.075 67.4274 129.079 67.4274C129.253 67.108 129.417 66.7843 129.568 66.4649C129.72 66.1462 129.875 65.8225 130.031 65.5031C130.317 64.9507 130.599 64.4032 130.871 63.8638C131.144 63.32 131.425 62.7675 131.698 62.2114H132.889V69.9811H131.611V64.9119H131.59C131.46 65.1579 131.339 65.4082 131.209 65.6585C131.079 65.9088 130.958 66.1591 130.828 66.4045L128.993 69.9774H127.78V69.9854Z" fill="#292D33"/>
<path d="M19.1691 79.3173C19.1691 80.0596 18.9656 80.6292 18.5717 81.0257C18.1734 81.4227 17.6367 81.6169 16.9657 81.6169H14.4551V73.8467H16.8402C17.5805 73.8467 18.1345 74.0366 18.5024 74.4164C18.8704 74.7962 19.0565 75.314 19.0565 75.9694C19.0565 76.2974 18.9873 76.5995 18.8488 76.8757C18.7102 77.1476 18.4635 77.3714 18.1042 77.5354V77.5916C18.2904 77.652 18.4505 77.7383 18.5847 77.8548C18.7189 77.9713 18.8315 78.1051 18.9137 78.2605C18.9959 78.4159 19.0652 78.5842 19.1041 78.7698C19.1431 78.951 19.1691 79.1317 19.1691 79.3173ZM17.8012 76.0126C17.8012 75.7019 17.719 75.4559 17.5501 75.2752C17.3813 75.0983 17.1129 75.0076 16.7363 75.0076H15.7277V77.0397H16.745C17.1086 77.0397 17.377 76.9448 17.5458 76.7549C17.7146 76.565 17.8012 76.319 17.8012 76.0126ZM17.9138 79.2439C17.9138 78.9165 17.8315 78.6489 17.667 78.4461C17.5025 78.2432 17.2298 78.144 16.8489 78.144H15.7277V80.4091H16.8576C17.0609 80.4091 17.2255 80.3832 17.3597 80.3185C17.4938 80.2538 17.602 80.1718 17.6843 80.0682C17.7666 79.9603 17.8228 79.8351 17.8575 79.6927C17.8964 79.5503 17.9138 79.3993 17.9138 79.2439Z" fill="#292D33"/>
<path d="M27.5107 79.9649C27.3809 80.5087 27.1125 80.9317 26.7056 81.2332C26.2987 81.5353 25.7966 81.6863 25.2165 81.6863C24.8139 81.6863 24.459 81.6259 24.1646 81.4964C23.8702 81.3669 23.6149 81.1943 23.4157 80.9705C23.2123 80.7461 23.0608 80.4828 22.9655 80.185C22.8703 79.8829 22.8184 79.5593 22.8184 79.2103V76.1942C22.8184 75.8877 22.8703 75.5906 22.9655 75.3014C23.0608 75.0123 23.2123 74.7533 23.4071 74.5289C23.6019 74.3045 23.8572 74.1275 24.1516 73.9937C24.4503 73.8606 24.8053 73.7915 25.2165 73.7915C25.8441 73.7915 26.355 73.9549 26.7445 74.2829C27.1384 74.6109 27.3939 75.0209 27.5237 75.5129L26.303 75.9136C26.2814 75.8014 26.2424 75.6978 26.1905 75.5906C26.1385 75.4827 26.0693 75.3877 25.9784 75.3057C25.8874 75.2237 25.7836 75.1504 25.6537 75.0986C25.5238 75.0468 25.381 75.0209 25.2165 75.0209C25.0217 75.0209 24.8572 75.0554 24.7187 75.1202C24.5801 75.1892 24.4676 75.2755 24.3767 75.3834C24.2858 75.4913 24.2209 75.6122 24.1733 75.7453C24.1257 75.8791 24.104 76.0129 24.104 76.1467V79.2405C24.104 79.4039 24.1257 79.5592 24.1733 79.7103C24.2209 79.8614 24.2858 79.9908 24.3811 80.103C24.4763 80.2153 24.5888 80.3059 24.7274 80.3663C24.8659 80.4267 25.0304 80.4612 25.2165 80.4612C25.4892 80.4612 25.7273 80.3836 25.9221 80.2282C26.1169 80.0728 26.2424 79.8527 26.29 79.5808L27.5107 79.9649Z" fill="#292D33"/>
<path d="M30.9025 80.9696C30.3917 80.9264 29.9804 80.8185 29.6471 80.6465C29.3182 80.4739 29.0584 80.2451 28.8636 79.9603C28.6688 79.6755 28.5346 79.3345 28.4567 78.9381C28.3788 78.541 28.3398 78.1008 28.3398 77.6088C28.3398 77.1476 28.3831 76.7204 28.4697 76.332C28.552 75.9392 28.6991 75.6026 28.9026 75.3054C29.106 75.0076 29.3657 74.7746 29.699 74.5976C30.0281 74.4207 30.4306 74.3085 30.9068 74.261V73.8467H32.1492V74.261C32.6253 74.3042 33.0279 74.4164 33.3569 74.589C33.6858 74.7616 33.9499 74.9904 34.1534 75.2752C34.3568 75.5594 34.4997 75.8961 34.5905 76.2802C34.6815 76.6643 34.7248 77.1002 34.7248 77.5743C34.7248 78.0663 34.6858 78.5108 34.6035 78.9079C34.5213 79.3043 34.3871 79.6496 34.188 79.9387C33.9932 80.2279 33.7291 80.4653 33.4002 80.6379C33.0712 80.8099 32.6513 80.9221 32.1492 80.9653V81.6126H30.9068L30.9025 80.9696ZM30.8938 75.4213C30.4047 75.4602 30.0713 75.6716 29.8852 76.0601C29.699 76.4442 29.6038 76.9534 29.6038 77.5786C29.6038 77.9325 29.6255 78.2389 29.6645 78.5108C29.7034 78.7827 29.777 79.0108 29.8722 79.2007C29.9675 79.3906 30.1016 79.5374 30.2704 79.6409C30.4393 79.7488 30.6471 79.8092 30.8938 79.8308V75.4213ZM32.1578 79.8308C32.6556 79.792 32.9976 79.5848 33.1837 79.2094C33.3698 78.8345 33.4564 78.2821 33.4564 77.5613C33.4564 76.9319 33.3612 76.4226 33.1707 76.0428C32.9802 75.663 32.6426 75.4559 32.1578 75.417V79.8308Z" fill="#292D33"/>
<path d="M35.8262 81.6169V73.8467H40.1593V75.0292H37.1032V77.1045H39.735V78.2648H37.1032V80.4091H40.1593V81.6126L35.8262 81.6169Z" fill="#292D33"/>
<path d="M46.0632 76.2456C46.0632 76.5823 46.0113 76.893 45.916 77.1822C45.8208 77.4707 45.6736 77.7253 45.4832 77.9411C45.2927 78.1569 45.0503 78.3252 44.7603 78.4504C44.4702 78.5712 44.1282 78.636 43.743 78.636H42.6002V81.6169H41.3232V73.8467H43.6738C44.0374 73.8467 44.3663 73.8985 44.6607 73.9934C44.9551 74.0884 45.2061 74.2394 45.4096 74.4336C45.6174 74.6278 45.7775 74.8825 45.8901 75.1803C46.0026 75.4774 46.0632 75.84 46.0632 76.2456ZM44.7949 76.2197C44.7949 75.8356 44.6997 75.5379 44.5135 75.3399C44.3274 75.1371 44.0417 75.0335 43.6608 75.0335H42.5959V77.4319H43.6694C44.0504 77.4319 44.3317 77.3197 44.5135 77.1045C44.7083 76.8844 44.7949 76.5909 44.7949 76.2197Z" fill="#292D33"/>
<path d="M47.0044 81.6169V73.8467H51.3375V75.0292H48.2814V77.1045H50.9132V78.2648H48.2814V80.4091H51.3375V81.6126L47.0044 81.6169Z" fill="#292D33"/>
<path d="M60.1187 79.2621C60.1187 79.6369 60.0624 79.9692 59.9455 80.267C59.8286 80.5648 59.6641 80.8195 59.452 81.0309C59.24 81.2418 58.9889 81.4058 58.6945 81.518C58.4001 81.6302 58.0842 81.6863 57.7292 81.6863C57.305 81.6863 56.9413 81.6173 56.6297 81.4792C56.318 81.3411 56.0756 81.1555 55.8851 80.923C55.6947 80.69 55.5562 80.4138 55.4652 80.1074C55.3744 79.8009 55.3311 79.4686 55.3311 79.1326V76.1942C55.3311 75.9223 55.3744 75.6424 55.4609 75.3575C55.5475 75.0727 55.686 74.8137 55.8765 74.585C56.067 74.3563 56.3137 74.1664 56.6167 74.0153C56.9197 73.8649 57.2876 73.7915 57.7292 73.7915C58.1361 73.7915 58.4954 73.8649 58.7941 74.0024C59.0927 74.1405 59.3438 74.326 59.5386 74.5548C59.7334 74.7835 59.8806 75.0425 59.9758 75.3273C60.0711 75.6122 60.1144 75.9007 60.1144 76.1942L60.1187 79.2621ZM58.8201 76.1726C58.8201 76.0776 58.8027 75.9611 58.7681 75.8316C58.7334 75.7022 58.6772 75.5733 58.5949 75.4568C58.5127 75.3403 58.4045 75.2324 58.266 75.1504C58.1275 75.0684 57.9543 75.0209 57.7335 75.0209C57.5171 75.0209 57.3353 75.0597 57.1881 75.1374C57.0409 75.2151 56.924 75.31 56.8418 75.4266C56.7595 75.5431 56.6946 75.6683 56.6557 75.8014C56.6167 75.9352 56.5994 76.0647 56.5994 76.1812L56.6124 79.1585C56.6124 79.5334 56.6946 79.8441 56.8721 80.0944C57.0453 80.3447 57.3353 80.4742 57.7465 80.4742C58.0365 80.4742 58.2919 80.3749 58.5041 80.1764C58.7161 79.9822 58.8244 79.706 58.8244 79.365L58.8201 76.1726Z" fill="#292D33"/>
<path d="M62.6073 76.9275H63.7288C64.1353 76.9275 64.4903 76.9836 64.7891 77.1002C65.0879 77.2161 65.3261 77.3714 65.5209 77.5743C65.7152 77.7771 65.8581 78.0145 65.9533 78.295C66.0486 78.5756 66.0919 78.882 66.0919 79.2137C66.0919 80.0121 65.8797 80.6077 65.4603 81.0127C65.0403 81.4141 64.4644 81.6169 63.7418 81.6169H61.3218V73.8467H65.4646V75.0292H62.6073V76.9275ZM62.6073 80.435H63.6812C64.079 80.435 64.3648 80.3271 64.538 80.1157C64.7112 79.9042 64.8021 79.615 64.8021 79.2482C64.8021 78.8949 64.7112 78.623 64.538 78.4159C64.3648 78.2087 64.0746 78.1094 63.6682 78.1094H62.603V80.435H62.6073Z" fill="#292D33"/>
<path d="M71.8584 76.2456C71.8584 76.5823 71.8064 76.893 71.7112 77.1822C71.6165 77.4707 71.4693 77.7253 71.2788 77.9411C71.0882 78.1569 70.8457 78.3252 70.5556 78.4504C70.2655 78.5712 69.9234 78.636 69.5386 78.636H68.3955V81.6169H67.1187V73.8467H69.4694C69.8331 73.8467 70.1616 73.8985 70.456 73.9934C70.7505 74.0884 71.0016 74.2394 71.2052 74.4336C71.413 74.6278 71.5732 74.8825 71.6852 75.1803C71.7978 75.4774 71.8584 75.84 71.8584 76.2456ZM70.5946 76.2197C70.5946 75.8356 70.4993 75.5379 70.3131 75.3399C70.1269 75.1371 69.8418 75.0335 69.4607 75.0335H68.3955V77.4319H69.4694C69.8498 77.4319 70.1313 77.3197 70.3131 77.1045C70.4993 76.8844 70.5946 76.5909 70.5946 76.2197Z" fill="#292D33"/>
<path d="M75.6689 79.943H73.5094C73.4921 80.0121 73.4661 80.12 73.4184 80.2797C73.3751 80.435 73.3275 80.6034 73.2799 80.7803C73.2279 80.9566 73.1846 81.1249 73.1456 81.2803C73.1067 81.4357 73.072 81.5479 73.0504 81.6169H71.7173L73.9678 73.8467H75.2019L77.4654 81.6169H76.1106L75.6689 79.943ZM74.1929 77.242L73.7902 78.8043H75.3794L74.9854 77.2506C74.9681 77.1822 74.9464 77.0743 74.9118 76.9146C74.8771 76.7592 74.8381 76.5952 74.7992 76.4226C74.7602 76.25 74.7212 76.086 74.6823 75.9349C74.6433 75.7839 74.6216 75.6716 74.613 75.6069H74.5567L74.1929 77.242Z" fill="#292D33"/>
<path d="M77.8403 79.8743C77.9096 79.8527 77.9962 79.8225 78.1045 79.7923C78.2127 79.7578 78.3296 79.719 78.4466 79.6801C78.5635 79.6413 78.6804 79.6024 78.7887 79.5636C78.8963 79.5247 78.9829 79.4945 79.0522 79.473C79.1128 79.7923 79.247 80.0426 79.4679 80.2153C79.6844 80.3879 79.9442 80.4785 80.243 80.4785C80.5808 80.4785 80.8399 80.3706 81.0305 80.1548C81.221 79.9434 81.3163 79.6542 81.3163 79.2874C81.3163 79.124 81.299 78.9773 81.2643 78.8305C81.2297 78.6838 81.1734 78.5673 81.0911 78.455C81.0088 78.3471 80.9006 78.2608 80.7663 78.1961C80.6321 78.1314 80.4638 78.1011 80.2646 78.1011H79.6584V77.0185H80.2733C80.5851 77.0185 80.8313 76.9235 81.0132 76.738C81.1907 76.5524 81.2816 76.2805 81.2816 75.9266C81.2816 75.6424 81.1994 75.4136 81.0218 75.2367C80.8486 75.0641 80.6067 74.9734 80.295 74.9734C79.9875 74.9734 79.7364 75.0641 79.5372 75.241C79.3423 75.418 79.1994 75.6467 79.1301 75.9309L77.9529 75.5086C78.0828 74.9734 78.347 74.5462 78.754 74.2354C79.1604 73.9247 79.6844 73.7656 80.3166 73.7656C81.0391 73.7656 81.5977 73.9376 81.9875 74.2915C82.3728 74.6454 82.5714 75.159 82.5714 75.8317C82.5714 75.9611 82.5584 76.1036 82.5325 76.2676C82.5065 76.4316 82.4588 76.5912 82.3988 76.7552C82.3382 76.9192 82.2473 77.0617 82.1304 77.2041C82.0134 77.3465 81.8662 77.4501 81.6887 77.5228V77.566C81.8749 77.6394 82.0308 77.7429 82.152 77.8724C82.2733 78.0019 82.3772 78.1529 82.4502 78.3126C82.5238 78.4766 82.5714 78.6493 82.6017 78.8219C82.6277 78.9945 82.6407 79.1671 82.6407 79.3305C82.6407 79.7146 82.5844 80.0556 82.4675 80.3447C82.3512 80.6339 82.1866 80.8799 81.9745 81.0741C81.7623 81.2677 81.5111 81.4188 81.2123 81.5223C80.9136 81.6216 80.5894 81.6734 80.2343 81.6734C79.5891 81.6734 79.0565 81.518 78.6371 81.1986C78.2041 80.8972 77.9399 80.4526 77.8403 79.8743Z" fill="#292D33"/>
<path d="M88.4031 79.2621C88.4031 79.6369 88.3468 79.9692 88.2299 80.267C88.113 80.5648 87.949 80.8195 87.7369 81.0309C87.5247 81.2418 87.2735 81.4058 86.9791 81.518C86.6889 81.6302 86.3685 81.6863 86.0141 81.6863C85.5897 81.6863 85.2259 81.6173 84.9142 81.4792C84.6067 81.3411 84.3605 81.1555 84.17 80.923C83.9795 80.69 83.8409 80.4138 83.75 80.1074C83.659 79.8009 83.6157 79.4686 83.6157 79.1326V76.1942C83.6157 75.9223 83.659 75.6424 83.7456 75.3575C83.8279 75.0727 83.9708 74.8137 84.1613 74.585C84.3519 74.3563 84.5981 74.1664 84.9012 74.0153C85.2043 73.8649 85.5724 73.7915 86.0141 73.7915C86.4205 73.7915 86.7799 73.8649 87.0787 74.0024C87.3775 74.1405 87.6286 74.326 87.8235 74.5548C88.0183 74.7835 88.1649 75.0425 88.2602 75.3273C88.3555 75.6122 88.3988 75.9007 88.3988 76.1942L88.4031 79.2621ZM87.1047 76.1726C87.1047 76.0776 87.0873 75.9611 87.0527 75.8316C87.018 75.7022 86.9618 75.5733 86.8795 75.4568C86.7972 75.3403 86.689 75.2324 86.5504 75.1504C86.4118 75.0684 86.2392 75.0209 86.0184 75.0209C85.7975 75.0209 85.62 75.0597 85.4728 75.1374C85.3255 75.2151 85.2086 75.31 85.1264 75.4266C85.0441 75.5431 84.9791 75.6683 84.9402 75.8014C84.9012 75.9352 84.8839 76.0647 84.8839 76.1812L84.8969 79.1585C84.8969 79.5334 84.9791 79.8441 85.1567 80.0944C85.3299 80.3447 85.62 80.4742 86.0314 80.4742C86.3209 80.4742 86.5764 80.3749 86.7885 80.1764C87.0007 79.9822 87.109 79.706 87.109 79.365L87.1047 76.1726Z" fill="#292D33"/>
<path d="M94.3847 79.3173C94.3847 80.0596 94.1818 80.6292 93.7877 81.0257C93.3893 81.4227 92.8524 81.6169 92.1818 81.6169H89.6709V73.8467H92.0562C92.7961 73.8467 93.3504 74.0366 93.7184 74.4164C94.0865 74.7962 94.2721 75.314 94.2721 75.9694C94.2721 76.2974 94.2034 76.5995 94.0648 76.8757C93.9263 77.1476 93.6795 77.3714 93.32 77.5354V77.5916C93.5062 77.652 93.6665 77.7383 93.8007 77.8548C93.9349 77.9713 94.0475 78.1051 94.1298 78.2605C94.2121 78.4159 94.2807 78.5842 94.3197 78.7698C94.363 78.951 94.3847 79.1317 94.3847 79.3173ZM93.0213 76.0126C93.0213 75.7019 92.939 75.4559 92.7701 75.2752C92.6012 75.0983 92.3334 75.0076 91.9566 75.0076H90.9477V77.0397H91.9653C92.329 77.0397 92.5969 76.9448 92.7658 76.7549C92.9347 76.565 93.0213 76.319 93.0213 76.0126ZM93.1295 79.2439C93.1295 78.9165 93.0472 78.6489 92.8827 78.4461C92.7181 78.2432 92.4453 78.144 92.0649 78.144H90.9434V80.4091H92.0736C92.2771 80.4091 92.441 80.3832 92.5752 80.3185C92.7095 80.2538 92.8177 80.1718 92.9 80.0682C92.9823 79.9603 93.0386 79.8351 93.0732 79.6927C93.1165 79.5503 93.1295 79.3993 93.1295 79.2439Z" fill="#292D33"/>
<path d="M98.9132 79.943H96.753C96.7357 80.0121 96.7097 80.12 96.6621 80.2797C96.6188 80.435 96.5712 80.6034 96.5235 80.7803C96.4716 80.9566 96.4283 81.1249 96.3893 81.2803C96.3503 81.4357 96.3157 81.5479 96.294 81.6169H94.9609L97.212 73.8467H98.4455L100.71 81.6169H99.3543L98.9132 79.943ZM97.4323 77.242L97.0302 78.8043H98.6188L98.2247 77.2506C98.2074 77.1822 98.1857 77.0743 98.1511 76.9146C98.1164 76.7592 98.0775 76.5952 98.0385 76.4226C97.9995 76.25 97.9606 76.086 97.9216 75.9349C97.8826 75.7839 97.861 75.6716 97.8523 75.6069H97.796L97.4323 77.242Z" fill="#292D33"/>
<path d="M105.018 81.6169V78.2562H102.823V81.6169H101.533V73.8467H102.823V77.1088H105.018V73.8467H106.295V81.6169H105.018Z" fill="#292D33"/>
<path d="M107.739 81.6172V73.8476H109.003V79.0506C109.007 79.0506 109.016 79.0506 109.02 79.0549C109.024 79.0592 109.033 79.0592 109.037 79.0592C109.21 78.7398 109.375 78.4162 109.527 78.0968C109.678 77.7774 109.834 77.4543 109.99 77.135C110.276 76.5826 110.557 76.0344 110.829 75.4956C111.102 74.9561 111.384 74.3994 111.656 73.8433H112.842V81.6129H111.565V76.5437H111.544C111.414 76.7897 111.293 77.04 111.163 77.2903C111.033 77.54 110.912 77.7904 110.782 78.0364L108.946 81.6086L107.739 81.6172Z" fill="#292D33"/>
<path d="M118.886 73.8467V81.6169H117.596V78.3252H116.904C116.653 78.3252 116.415 78.4072 116.198 78.5756C115.982 78.7439 115.813 79.054 115.696 79.5201L115.224 81.6169H113.891L114.419 79.2957C114.493 78.9985 114.592 78.7396 114.722 78.5151C114.852 78.2907 115.042 78.131 115.307 78.0231C114.887 77.885 114.596 77.639 114.423 77.2938C114.25 76.9491 114.163 76.5693 114.163 76.1593C114.163 75.8011 114.22 75.4774 114.328 75.1932C114.436 74.9084 114.592 74.6624 114.787 74.4638C114.982 74.261 115.224 74.1099 115.497 74.0064C115.769 73.9028 116.081 73.851 116.415 73.851L118.886 73.8467ZM115.445 76.1809C115.445 76.5564 115.557 76.811 115.774 76.9577C115.99 77.1045 116.267 77.1735 116.596 77.1735H117.592V75.0206H116.562C116.181 75.0206 115.899 75.1285 115.717 75.3313C115.535 75.5422 115.445 75.8227 115.445 76.1809Z" fill="#292D33"/>
<path d="M10.7545 57.6811C10.2437 57.6379 9.8325 57.5301 9.49919 57.3575C9.16583 57.1849 8.91047 56.9563 8.71567 56.6715C8.52087 56.3868 8.38669 56.0459 8.30875 55.649C8.23087 55.2521 8.19189 54.8121 8.19189 54.3202C8.19189 53.8586 8.2352 53.4314 8.32174 53.0432C8.40834 52.6549 8.55118 52.3141 8.75464 52.0164C8.9581 51.7187 9.21779 51.4857 9.55109 51.3088C9.88013 51.1319 10.2827 51.0198 10.7589 50.9723V50.5581H12.0012V50.9723C12.4773 51.0155 12.8799 51.1276 13.2089 51.3002C13.5379 51.4727 13.802 51.7014 14.0054 51.9861C14.2089 52.2709 14.3517 52.6074 14.4426 52.9914C14.5335 53.3754 14.5768 53.8111 14.5768 54.2857C14.5768 54.7775 14.5379 55.2219 14.4556 55.6188C14.3734 56.0157 14.2391 56.3609 14.0401 56.65C13.8453 56.939 13.5812 57.1763 13.2522 57.3489C12.9232 57.5214 12.5033 57.6336 12.0012 57.6768V58.3239H10.7589V57.6811H10.7545ZM10.7415 52.1286C10.2523 52.1673 9.91904 52.3788 9.7329 52.7671C9.54676 53.151 9.45156 53.6601 9.45156 54.2857C9.45156 54.6395 9.47321 54.9458 9.51218 55.2176C9.55109 55.4894 9.62471 55.7181 9.71991 55.9079C9.81518 56.0977 9.94935 56.2444 10.1182 56.3479C10.287 56.4558 10.4948 56.5162 10.7415 56.5378V52.1286ZM12.0099 56.5421C12.5077 56.5032 12.8496 56.2961 13.0358 55.9208C13.2219 55.5455 13.3085 54.9933 13.3085 54.2728C13.3085 53.6428 13.2132 53.1338 13.0228 52.7541C12.8323 52.3744 12.4947 52.1673 12.0099 52.1286V56.5421Z" fill="#292D33"/>
<path d="M15.5112 58.3282V50.5581H19.8443V51.7403H16.7882V53.8154H19.4201V54.976H16.7882V57.1202H19.8443V58.3239H15.5112V58.3282Z" fill="#292D33"/>
<path d="M21.7322 59.9245H20.624V57.2798C20.7193 57.2626 20.8145 57.2453 20.9054 57.228C20.9963 57.2108 21.0916 57.1893 21.1868 57.1677C21.3513 57.0296 21.4768 56.8613 21.572 56.6758C21.6673 56.4903 21.7409 56.2617 21.7971 55.9898C21.8534 55.7181 21.8923 55.3988 21.914 55.0277C21.9356 54.6611 21.953 54.2253 21.9703 53.7292L22.0828 50.5581H26.3856C26.3856 51.6669 26.3856 52.7757 26.39 53.8758C26.3942 54.976 26.3943 56.0805 26.3943 57.1935H27.009V59.9288H25.9008V58.3325H21.7322V59.9245ZM25.126 57.1893V51.7187H23.1996L23.1088 54.0527C23.0914 54.3892 23.0828 54.7128 23.0655 55.0235C23.0481 55.3341 23.0265 55.6274 22.9919 55.8949C22.9573 56.1624 22.914 56.4083 22.8533 56.6241C22.7927 56.8397 22.7148 57.0296 22.6066 57.1893H25.126Z" fill="#292D33"/>
<path d="M28.04 58.3282V50.5581H32.3731V51.7403H29.317V53.8154H31.9489V54.976H29.317V57.1202H32.3731V58.3239H28.04V58.3282Z" fill="#292D33"/>
<path d="M38.1301 52.9569C38.1301 53.2934 38.0782 53.604 37.9829 53.8931C37.8877 54.1821 37.7405 54.4367 37.5501 54.6524C37.3596 54.8681 37.1172 55.0364 36.8272 55.1615C36.5371 55.2823 36.1951 55.347 35.8099 55.347H34.6671V58.3282H33.3901V50.5581H35.7406C36.1043 50.5581 36.4332 50.6099 36.7276 50.7048C37.0176 50.7997 37.273 50.9507 37.4765 51.1449C37.6842 51.339 37.8444 51.5936 37.9569 51.8913C38.0738 52.1932 38.1301 52.5513 38.1301 52.9569ZM36.8661 52.931C36.8661 52.547 36.7709 52.2493 36.5847 52.0509C36.3986 51.8481 36.1129 51.7446 35.732 51.7446H34.6671V54.1433H35.7406C36.1216 54.1433 36.4029 54.0311 36.5847 53.8154C36.7752 53.5911 36.8661 53.302 36.8661 52.931Z" fill="#292D33"/>
<path d="M41.9385 56.6542H39.7785C39.7612 56.7233 39.7352 56.8311 39.6876 56.9908C39.6443 57.1461 39.5967 57.3144 39.549 57.4912C39.4971 57.6681 39.4538 57.8364 39.4149 57.9917C39.3759 58.147 39.3413 58.2592 39.3196 58.3282H37.9863L40.2373 50.5581H41.471L43.735 58.3282H42.38L41.9385 56.6542ZM40.4624 53.9491L40.0598 55.511H41.6485L41.2545 53.9578C41.2372 53.8888 41.2156 53.7809 41.181 53.6213C41.1463 53.466 41.1074 53.302 41.0684 53.1295C41.0295 52.9569 40.9905 52.7929 40.9515 52.642C40.9126 52.491 40.8909 52.3788 40.8823 52.3141H40.826L40.4624 53.9491Z" fill="#292D33"/>
<path d="M46.506 54.6222C46.506 55.2435 46.4714 55.7742 46.4108 56.2228C46.3501 56.6716 46.2376 57.0555 46.0731 57.3618C45.9086 57.6681 45.6965 57.9141 45.4281 58.0996C45.1598 58.2851 44.8221 58.4102 44.4195 58.4965L44.0732 57.5042C44.3157 57.4093 44.5104 57.2928 44.6706 57.1634C44.8351 57.034 44.9606 56.8657 45.0558 56.6672C45.1511 56.4645 45.2247 56.2142 45.2636 55.9209C45.3026 55.6231 45.3242 55.2522 45.3242 54.8034V50.5625H49.5361V58.3325H48.2721V51.7446H46.5016V54.6222H46.506Z" fill="#292D33"/>
<path d="M55.6745 55.9208C55.6745 56.7146 55.4625 57.31 55.0426 57.7199C54.6227 58.1297 54.0469 58.3282 53.311 58.3282H50.9043V50.5581H52.1942V53.617H53.3154C53.7223 53.617 54.0772 53.6731 54.3759 53.7895C54.6746 53.9061 54.9127 54.0614 55.1075 54.2641C55.3023 54.4669 55.4452 54.7128 55.5404 54.9889C55.627 55.278 55.6745 55.5843 55.6745 55.9208ZM54.3846 55.9596C54.3846 55.6015 54.2937 55.3211 54.1205 55.1227C53.9474 54.9242 53.6573 54.8207 53.2505 54.8207H52.177V57.1418H53.2635C53.6487 57.1418 53.9344 57.0339 54.1162 56.8182C54.298 56.6068 54.3846 56.3177 54.3846 55.9596Z" fill="#292D33"/>
<path d="M60.0848 58.3282V54.9674H57.8901V58.3282H56.6001V50.5581H57.8901V53.8197H60.0848V50.5581H61.3617V58.3282H60.0848Z" fill="#292D33"/>
<path d="M62.8418 58.3282V50.5581H64.1186V53.6385H65.2618C65.6682 53.6385 66.0233 53.6946 66.3221 53.8068C66.6209 53.919 66.859 54.0743 67.0495 54.2814C67.2395 54.4884 67.378 54.7301 67.469 55.0062C67.5599 55.2866 67.6032 55.5929 67.6032 55.9252C67.6032 56.7233 67.3953 57.3187 66.9759 57.7242C66.5559 58.1254 65.9843 58.3282 65.2488 58.3282H62.8418ZM65.2055 57.1418C65.5903 57.1418 65.8761 57.0339 66.0579 56.8225C66.2398 56.6111 66.3264 56.322 66.3264 55.9553C66.3264 55.6015 66.2355 55.3298 66.0623 55.1227C65.889 54.9156 65.5989 54.8164 65.1925 54.8164H64.1186V57.1375H65.2055V57.1418ZM68.2614 58.3282V50.5581H69.5382V58.3282H68.2614Z" fill="#292D33"/>
<path d="M80.6772 58.3286V50.5585H81.9411V55.7616C81.9454 55.7616 81.954 55.7616 81.9584 55.7659C81.9627 55.7702 81.9714 55.7702 81.9757 55.7702C82.1489 55.451 82.3135 55.1274 82.465 54.8081C82.6166 54.4888 82.7725 54.1653 82.9284 53.846C83.2141 53.2938 83.495 52.7459 83.7678 52.2066C84.0406 51.663 84.3221 51.1108 84.5949 50.5542H85.7807V58.3243H84.5039V53.255H84.4823C84.3524 53.5009 84.2311 53.7511 84.1012 54.0013C83.9713 54.2515 83.8501 54.5018 83.7202 54.7477L81.8848 58.32H80.6772V58.3286Z" fill="#292D33"/>
<path d="M90.633 58.3282V54.9674H88.4382V58.3282H87.1484V50.5581H88.4382V53.8197H90.633V50.5581H91.9098V58.3282H90.633Z" fill="#292D33"/>
<path d="M97.6014 56.6757C97.4715 57.2194 97.2031 57.6421 96.796 57.9442C96.389 58.2461 95.8873 58.3971 95.307 58.3971C94.9043 58.3971 94.5492 58.3368 94.2554 58.2073C93.9566 58.0779 93.7055 57.9053 93.5063 57.681C93.3027 57.4566 93.1512 57.1935 93.0559 56.8958C92.9607 56.5938 92.9087 56.2702 92.9087 55.9207V52.905C92.9087 52.5987 92.9607 52.301 93.0559 52.012C93.1512 51.7229 93.3027 51.4641 93.4976 51.2397C93.6925 51.0153 93.948 50.8385 94.2424 50.7047C94.5369 50.571 94.8956 50.502 95.307 50.502C95.9349 50.502 96.4453 50.6659 96.835 50.9938C97.229 51.3217 97.4845 51.7315 97.6144 52.2233L96.3933 52.6246C96.3716 52.5124 96.3327 52.4089 96.2813 52.301C96.2294 52.1932 96.1601 52.0982 96.0691 52.0163C95.9782 51.9343 95.8743 51.861 95.7444 51.8092C95.6145 51.7574 95.4716 51.7315 95.307 51.7315C95.1122 51.7315 94.9476 51.766 94.809 51.8308C94.6705 51.8998 94.5579 51.9861 94.4676 52.0939C94.3766 52.2018 94.3117 52.3226 94.2641 52.4563C94.2208 52.5901 94.1948 52.7238 94.1948 52.8576V55.9509C94.1948 56.1149 94.2164 56.2702 94.2641 56.4212C94.3117 56.5722 94.3766 56.7016 94.4719 56.8138C94.5666 56.9259 94.6791 57.0166 94.8177 57.077C94.9563 57.1374 95.1208 57.1719 95.307 57.1719C95.5798 57.1719 95.818 57.0942 96.0129 56.9389C96.2077 56.7836 96.3333 56.5635 96.3803 56.2918L97.6014 56.6757Z" fill="#292D33"/>
<path d="M101.308 51.7187V58.3282H100.032V51.7187H98.3174V50.5581H103.031V51.7187H101.308Z" fill="#292D33"/>
<path d="M103.865 58.3286V50.5585H105.129V55.7616C105.134 55.7616 105.142 55.7616 105.146 55.7659C105.151 55.7702 105.159 55.7702 105.164 55.7702C105.337 55.451 105.501 55.1274 105.653 54.8081C105.804 54.4888 105.96 54.1653 106.116 53.846C106.402 53.2938 106.683 52.7459 106.956 52.2066C107.228 51.663 107.51 51.1108 107.782 50.5542H108.968V58.3243H107.691V53.255H107.67C107.54 53.5009 107.419 53.7511 107.289 54.0013C107.159 54.2515 107.038 54.5018 106.908 54.7477L105.073 58.32H103.865V58.3286Z" fill="#292D33"/>
<path d="M112.747 51.7187V58.3282H111.471V51.7187H109.756V50.5581H114.47V51.7187H112.747Z" fill="#292D33"/>
<path d="M119.104 53.6344C118.792 54.6482 118.467 55.6707 118.13 56.6975C118.013 57.0599 117.883 57.3576 117.748 57.5733C117.614 57.7891 117.476 57.9573 117.325 58.0738C117.173 58.1902 117.017 58.2636 116.844 58.3025C116.671 58.3413 116.485 58.3629 116.285 58.3715H115.658V57.3231H116.117C116.272 57.3231 116.407 57.2843 116.524 57.2023C116.641 57.1204 116.749 56.9607 116.853 56.7234C116.87 56.6803 116.887 56.6328 116.909 56.5853C116.931 56.5336 116.948 56.4861 116.965 56.4214L114.935 50.5669H116.255L116.996 52.9657L117.554 54.7949H117.61C117.671 54.5879 117.757 54.2944 117.861 53.9148C117.969 53.5351 118.086 53.1339 118.203 52.7154C118.32 52.2969 118.437 51.8914 118.55 51.4988C118.662 51.1062 118.744 50.7956 118.809 50.5669H120.065C119.735 51.5937 119.415 52.6162 119.104 53.6344Z" fill="#292D33"/>
<path d="M123.424 51.7187V58.3282H122.147V51.7187H120.433V50.5581H125.146V51.7187H123.424Z" fill="#292D33"/>
<path d="M73.5581 50.1357C73.2723 50.1357 73.0341 50.0839 72.8393 49.9847C72.6444 49.8811 72.4891 49.756 72.3722 49.6093C72.2553 49.4627 72.1687 49.2987 72.1124 49.1218C72.0561 48.9449 72.0258 48.781 72.0215 48.6343H72.8956C72.8999 48.712 72.9216 48.7853 72.9519 48.8629C72.9822 48.9406 73.0298 49.0139 73.0861 49.083C73.1424 49.1477 73.2117 49.2038 73.2896 49.2513C73.3676 49.2987 73.4585 49.3159 73.5581 49.3159C73.6664 49.3159 73.7616 49.2944 73.8439 49.2513C73.9262 49.2038 73.9911 49.1477 74.0474 49.083C74.1037 49.0183 74.1427 48.9406 74.1687 48.8629C74.1946 48.7853 74.2076 48.712 74.2076 48.6343H75.0731C75.0557 48.781 75.0211 48.9449 74.9648 49.1218C74.9085 49.2987 74.8219 49.4627 74.705 49.6093C74.5881 49.756 74.4365 49.8854 74.2466 49.9847C74.0561 50.0839 73.8309 50.1357 73.5581 50.1357Z" fill="#292D33"/>
<path d="M70.9873 58.3286V50.5585H72.2511V55.7616C72.2554 55.7616 72.2641 55.7616 72.2684 55.7659C72.2728 55.7702 72.2814 55.7702 72.2858 55.7702C72.459 55.451 72.6235 55.1273 72.7751 54.8081C72.9266 54.4888 73.0825 54.1653 73.2384 53.846C73.5236 53.2938 73.8051 52.7459 74.0779 52.2066C74.3507 51.6673 74.6321 51.1108 74.9049 50.5542H76.0908V58.3243H74.814V53.255H74.7923C74.6624 53.5008 74.5412 53.7511 74.4113 54.0013C74.2814 54.2515 74.1601 54.5018 74.0302 54.7477L72.1948 58.32H70.9873V58.3286Z" fill="#292D33"/>
<path d="M86.1403 29.2109H76.4004V38.9181H86.1403V29.2109Z" fill="url(#paint0_linear_204_180)"/>
<path d="M56.9203 23.0284C56.9203 20.3795 57.7991 19.5037 60.457 19.5037L66.6472 19.4993L66.6559 9.80078H56.916V15.9659C56.916 18.6149 56.0243 19.5037 53.3665 19.5037H47.1807V38.9137H66.6559L66.6732 29.1893L57.6519 29.1979C57.258 29.1979 56.9377 28.8787 56.9377 28.4861L56.9203 23.0284Z" fill="url(#paint1_radial_204_180)"/>
<path d="M55.0417 9.78828H49.0507C48.0162 9.78828 47.1807 8.95558 47.1807 7.92448V1.94484C47.1807 0.91372 48.0162 0.0810547 49.0507 0.0810547H55.0417C56.0763 0.0810547 56.9117 0.91372 56.9117 1.94484V7.9288C56.9117 8.95558 56.0763 9.78828 55.0417 9.78828Z" fill="url(#paint2_linear_204_180)"/>
<path d="M86.1297 9.78822C86.1297 3.59289 82.5195 0.0594661 76.3644 0.0767231L66.6548 0.0939795V9.80117L74.6243 9.78822C75.5113 9.78822 76.3947 10.6726 76.3947 11.5528C76.3947 12.4373 76.3947 13.3174 76.3947 15.9663C76.3947 18.6153 75.507 19.4955 72.8538 19.4955C72.8495 19.4955 69.3129 19.4955 69.3129 19.4955C67.5425 19.4955 66.6634 20.3799 66.6634 22.1445L66.6548 26.558C66.6548 28.3226 67.5425 29.207 69.3129 29.207H73.7409C75.5113 29.207 76.399 28.3226 76.399 26.558V23.0289C76.399 20.3799 77.2861 19.4997 79.9399 19.4997L86.1297 19.5084V9.78822Z" fill="url(#paint3_linear_204_180)"/>
</g>
<defs>
<linearGradient id="paint0_linear_204_180" x1="78.3911" y1="36.9189" x2="85.6639" y2="29.6663" gradientUnits="userSpaceOnUse">
<stop stop-color="#2E92D0"/>
<stop offset="0.1984" stop-color="#3F93D0"/>
<stop offset="0.4861" stop-color="#6195CD"/>
<stop offset="0.8264" stop-color="#8898C8"/>
<stop offset="1" stop-color="#9B99C5"/>
</linearGradient>
<radialGradient id="paint1_radial_204_180" cx="0" cy="0" r="1" gradientUnits="userSpaceOnUse" gradientTransform="translate(69.5219 20.8686) scale(35.6982 35.5791)">
<stop stop-color="#4BB9C6"/>
<stop offset="0.8258" stop-color="#294898"/>
<stop offset="1" stop-color="#2A4194"/>
</radialGradient>
<linearGradient id="paint2_linear_204_180" x1="47.3171" y1="0.29388" x2="56.7983" y2="9.65922" gradientUnits="userSpaceOnUse">
<stop stop-color="#69398D"/>
<stop offset="0.6629" stop-color="#526DA7"/>
</linearGradient>
<linearGradient id="paint3_linear_204_180" x1="59.8911" y1="21.9236" x2="86.2133" y2="4.15263" gradientUnits="userSpaceOnUse">
<stop stop-color="#4CBDC6"/>
<stop offset="0.1816" stop-color="#4CBDC6"/>
<stop offset="0.5912" stop-color="#6C76B3"/>
<stop offset="0.6802" stop-color="#7163A9"/>
<stop offset="0.7204" stop-color="#7863A8"/>
<stop offset="0.7771" stop-color="#8964A5"/>
<stop offset="0.8437" stop-color="#A164A0"/>
<stop offset="0.9178" stop-color="#C06399"/>
<stop offset="0.9972" stop-color="#E35F90"/>
<stop offset="1" stop-color="#E45E8F"/>
</linearGradient>
<clipPath id="clip0_204_180">
<rect width="133" height="82" fill="white"/>
</clipPath>
</defs>
</svg>
