<svg width="153" height="58" viewBox="0 0 153 58" fill="none" xmlns="http://www.w3.org/2000/svg">
<g clip-path="url(#clip0_204_175)">
<path d="M124.555 0.182617H34.9322L31.0762 18.2271H120.886L124.555 0.182617Z" fill="#EEEEEE"/>
<path d="M43.5167 4.14355H40.1582C39.9716 4.14355 39.8472 4.20643 39.6606 4.33218C39.5362 4.45792 39.4119 4.64654 39.3497 4.89801L37.2972 14.5176C37.235 14.769 37.235 14.8947 37.3594 15.0205C37.4216 15.0834 37.546 15.1463 37.7326 15.1463C38.168 15.1463 38.4167 14.9576 38.5411 14.4547L39.5984 9.48775H43.1436C44.2631 9.48775 45.1338 9.23622 45.8179 8.79614C46.5021 8.29314 46.9375 7.60154 47.1241 6.65846C47.3106 5.77826 47.1241 5.14954 46.6265 4.70941C46.0045 4.39505 45.0094 4.14355 43.5167 4.14355ZM45.8179 6.90994C45.6936 7.53866 45.3826 7.9159 45.0094 8.10454C44.6362 8.29314 43.8899 8.4189 42.7704 8.4189C42.7082 8.4189 42.646 8.4189 42.5838 8.4189H39.8472L40.4692 5.33814H43.2057C44.0143 5.33814 44.574 5.40102 44.9472 5.4639C45.3826 5.52673 45.6314 5.71538 45.7558 5.90398C45.9423 6.1555 45.9423 6.46986 45.8179 6.90994Z" fill="black"/>
<path d="M56.1423 4.64654C55.5202 4.33218 54.7739 4.14355 53.9032 4.14355H53.8411C52.9704 4.14355 52.1619 4.33218 51.4155 4.64654C50.6692 4.9609 50.0471 5.4639 49.5494 6.09262C49.0522 6.72134 48.7409 7.41294 48.5544 8.23026L47.9324 11.2481C47.7459 12.0655 47.8081 12.7571 47.9946 13.3858C48.2437 14.0146 48.6166 14.4547 49.2386 14.769C49.8607 15.0834 50.607 15.272 51.4777 15.272C52.4105 15.272 53.219 15.0834 53.9654 14.769C54.7117 14.4547 55.3338 13.9517 55.8315 13.3229C56.3288 12.6942 56.64 12.0026 56.8265 11.1853L57.4485 8.16743C57.635 7.35006 57.5728 6.65846 57.3864 6.02974C57.1373 5.40102 56.7643 4.9609 56.1423 4.64654ZM56.2044 8.29314L55.5824 11.1853C55.3959 12.1284 54.9604 12.8828 54.2766 13.3229C53.6546 13.826 52.7839 14.0774 51.7885 14.0774H51.7263C50.6692 14.0774 49.9228 13.826 49.4873 13.3229C49.0522 12.82 48.9279 12.0655 49.1143 11.1224L49.7364 8.23026C49.9228 7.28718 50.3579 6.5327 51.0421 6.09262C51.6642 5.58962 52.5348 5.33814 53.5303 5.33814H53.5924C54.6496 5.33814 55.3959 5.58962 55.8315 6.09262C56.2666 6.59558 56.3909 7.35006 56.2044 8.29314Z" fill="black"/>
<path d="M67.7101 4.33203H64.9117C64.849 4.33203 64.849 4.33203 64.7869 4.33203C63.7919 4.33203 62.9834 4.45778 62.3613 4.6464C61.7393 4.83499 61.242 5.14935 60.8686 5.58948C60.4957 6.0296 60.2466 6.65832 60.0601 7.47568L59.0651 12.0654C58.8787 12.8827 58.8787 13.4486 59.0651 13.8886C59.2516 14.3288 59.625 14.6431 60.1844 14.8318C60.8065 15.0204 61.6771 15.1461 62.7969 15.1461H65.2846C65.9688 15.1461 66.4665 14.9575 66.8395 14.6431C67.2129 14.3288 67.4615 13.8258 67.648 13.1342C67.7101 12.8199 67.7101 12.5683 67.5858 12.4426C67.5237 12.3797 67.3993 12.3168 67.2129 12.3168C67.0259 12.3168 66.8395 12.3797 66.7151 12.5055C66.5908 12.6312 66.4665 12.8199 66.4039 13.1342C66.3417 13.4486 66.2174 13.6372 66.0931 13.7629C65.9688 13.8886 65.7202 13.9515 65.4711 13.9515H63.1077C62.1749 13.9515 61.4907 13.8886 61.1177 13.8258C60.6822 13.7001 60.3714 13.5115 60.2466 13.197C60.1223 12.9456 60.1223 12.5055 60.2466 11.9396L61.242 7.4128C61.3664 6.84692 61.5528 6.46972 61.7393 6.15531C61.9262 5.90384 62.2992 5.71524 62.7348 5.58948C63.1698 5.52659 63.7919 5.46376 64.6004 5.46376H67.275C67.5858 5.46376 67.7723 5.52659 67.8966 5.65236C68.0214 5.77812 68.0214 6.0296 67.9592 6.34396C67.8966 6.59544 67.8966 6.78408 68.0214 6.9098C68.0835 7.03556 68.2078 7.09844 68.3943 7.09844C68.8299 7.09844 69.0785 6.84692 69.2028 6.2182C69.3271 5.52659 69.3271 5.02364 69.0785 4.70927C68.7677 4.45778 68.3322 4.33203 67.7101 4.33203Z" fill="black"/>
<path d="M78.8454 4.33203H76.0469C75.9843 4.33203 75.9843 4.33203 75.9221 4.33203C74.9271 4.33203 74.1186 4.45778 73.4966 4.6464C72.8746 4.83499 72.3773 5.14935 72.0039 5.58948C71.6309 6.0296 71.3818 6.65832 71.1954 7.47568L70.2004 12.0654C70.0139 12.8827 70.0139 13.4486 70.2004 13.8886C70.3869 14.3288 70.7603 14.6431 71.3197 14.8318C71.9417 15.0204 72.8124 15.1461 73.9322 15.1461H76.4198C77.104 15.1461 77.6018 14.9575 77.9747 14.6431C78.3481 14.3288 78.5967 13.8258 78.7832 13.1342C78.8454 12.8199 78.8454 12.5683 78.7211 12.4426C78.6589 12.3797 78.5346 12.3168 78.3481 12.3168C78.1612 12.3168 77.9747 12.3797 77.8504 12.5055C77.7261 12.6312 77.6018 12.8199 77.5396 13.1342C77.477 13.4486 77.3527 13.6372 77.2284 13.7629C77.104 13.8886 76.8554 13.9515 76.6063 13.9515H74.2429C73.3101 13.9515 72.6259 13.8886 72.253 13.8258C71.8174 13.7001 71.5066 13.5115 71.3818 13.197C71.2575 12.9456 71.2575 12.5055 71.3818 11.9396L72.3773 7.4128C72.5016 6.84692 72.6881 6.46972 72.8746 6.15531C73.0615 5.90384 73.4344 5.65236 73.87 5.58948C74.3051 5.52659 74.865 5.46376 75.7357 5.46376H78.4103C78.7211 5.46376 78.9075 5.52659 79.0318 5.65236C79.1566 5.77812 79.1566 6.0296 79.0945 6.34396C79.0318 6.59544 79.0318 6.78408 79.1566 6.9098C79.2188 7.03556 79.3431 7.09844 79.5296 7.09844C79.9651 7.09844 80.2138 6.84692 80.3381 6.2182C80.4624 5.52659 80.4624 5.02364 80.2138 4.70927C79.9651 4.52065 79.5296 4.33203 78.8454 4.33203Z" fill="black"/>
<path d="M91.9652 4.39528C91.9031 4.3324 91.7788 4.26953 91.5918 4.26953C91.3432 4.26953 91.0946 4.39528 90.8455 4.64676L82.5734 13.3232L84.3774 5.02401C84.4396 4.77251 84.4396 4.52102 84.3152 4.45815C84.2531 4.39528 84.1288 4.3324 83.9418 4.3324C83.5067 4.3324 83.2576 4.58389 83.1333 5.08689L81.0812 14.7693C81.0186 15.0207 81.0186 15.2093 81.1434 15.2722C81.2055 15.3351 81.3298 15.398 81.5163 15.398C81.7028 15.398 81.8276 15.398 81.8897 15.3351C82.014 15.2722 82.1383 15.1465 82.3248 14.9579L90.5347 6.40721L88.7312 14.7064C88.6686 14.895 88.6686 15.0836 88.7934 15.2093C88.8555 15.2722 88.9798 15.3351 89.2285 15.3351C89.664 15.3351 89.9127 15.0836 90.037 14.6435L92.0896 4.96113C92.0896 4.70964 92.0896 4.52102 91.9652 4.39528Z" fill="black"/>
<path d="M102.725 4.45801H99.4913C98.1229 4.45801 97.0657 4.7095 96.1951 5.21247C95.3866 5.71548 94.8267 6.46991 94.6402 7.41304C94.3911 8.67048 94.7645 9.4878 95.7595 9.9908L95.946 10.0537L95.7595 10.1794C95.3239 10.4938 95.0132 10.9339 94.7024 11.4369L93.8317 13.1973C93.7069 13.4488 93.5204 13.6374 93.2718 13.826C93.0227 14.0146 92.7741 14.1404 92.5255 14.1404C91.9656 14.1404 91.6548 14.329 91.5926 14.7062C91.5305 14.8948 91.5926 15.0206 91.6548 15.0835C91.717 15.2092 91.9656 15.2721 92.2142 15.2721C92.7119 15.2721 93.2718 15.0835 93.7691 14.7062C94.2668 14.329 94.7024 13.7632 95.0753 13.1344L95.8838 11.5626C96.1329 11.1225 96.3815 10.8082 96.6923 10.6195C97.0036 10.4309 97.4387 10.368 97.9986 10.368C97.9986 10.368 97.9986 10.368 98.0607 10.368H100.735L99.802 14.7062C99.7399 14.9577 99.7399 15.0835 99.8642 15.2092C99.9264 15.335 100.113 15.335 100.3 15.335C100.735 15.335 100.984 15.1464 101.046 14.6434L103.099 5.08676C103.161 4.83523 103.161 4.58376 103.037 4.52088C103.037 4.45801 102.912 4.45801 102.725 4.45801ZM100.984 9.23632H98.4341C97.1901 9.23632 96.4437 8.98484 96.0703 8.54472C95.8217 8.23036 95.7595 7.916 95.8838 7.47587C96.0081 6.84715 96.3815 6.3442 96.8793 6.09272C97.3765 5.84119 98.1229 5.6526 99.1178 5.6526H101.73L100.984 9.23632Z" fill="black"/>
<path d="M118.15 10.368C118.087 10.3051 117.963 10.2422 117.838 10.2422H111.246C111.059 10.2422 110.935 10.3051 110.873 10.368C110.748 10.4308 110.686 10.5565 110.686 10.7452C110.686 10.8709 110.686 10.9967 110.748 11.0596C110.81 11.1224 110.935 11.1853 111.059 11.1853H117.652C117.838 11.1853 117.963 11.1224 118.087 11.0596C118.212 10.9967 118.274 10.8709 118.274 10.6823C118.212 10.5565 118.212 10.4308 118.15 10.368Z" fill="black"/>
<path d="M46.6857 20.1133L42.8296 38.3463H116.531L120.449 20.1133H46.6857Z" fill="#25649F"/>
<path d="M3.95864 39.855L0.102539 57.9621H149.247L153.103 39.855H3.95864Z" fill="#AE3857"/>
<path d="M50.4178 35.2029C51.0394 35.3915 51.9727 35.5173 53.092 35.5173H55.5797C55.5797 35.5173 55.5797 35.5173 55.6418 35.5173C56.326 35.5173 56.948 35.3287 57.3215 34.9514C57.7566 34.5742 58.0678 34.0083 58.1921 33.3167C58.2543 32.9395 58.2543 32.6251 58.0678 32.4365C57.943 32.3108 57.7566 32.1851 57.5079 32.1851C57.2593 32.1851 57.0102 32.2479 56.8237 32.4365C56.6373 32.6251 56.513 32.8766 56.4503 33.191C56.3882 33.5054 56.2638 33.6311 56.2017 33.694C56.1395 33.7569 55.9531 33.8197 55.704 33.8197H53.3406C52.4078 33.8197 51.7857 33.7569 51.4128 33.694C51.0394 33.6311 50.8529 33.4425 50.7286 33.2539C50.6664 33.0024 50.6664 32.6251 50.7908 32.1222L51.7857 27.5953C51.9105 27.0924 52.0348 26.7151 52.2213 26.4636C52.4078 26.2121 52.6564 26.0864 53.0298 26.0235C53.4028 25.9606 54.0248 25.8978 54.8333 25.8978H57.5079C57.8187 25.8978 57.8809 25.9606 57.943 26.0235C57.943 26.0235 58.0052 26.1493 57.943 26.4636C57.8809 26.778 57.8809 27.0295 58.0052 27.2181C58.13 27.4067 58.3164 27.5324 58.6272 27.5324C59.0006 27.5324 59.4979 27.3438 59.6848 26.4636C59.8713 25.7092 59.8091 25.1433 59.4979 24.7661C59.1871 24.3888 58.6894 24.2002 57.943 24.2002H55.1446C54.0869 24.2002 53.2163 24.326 52.5321 24.5146C51.8479 24.7032 51.2885 25.0804 50.9151 25.5834C50.5421 26.0864 50.2309 26.7151 50.0444 27.5324L49.0494 32.1222C48.863 32.9395 48.863 33.6311 49.1116 34.1341C49.298 34.5742 49.7336 34.9514 50.4178 35.2029Z" fill="white"/>
<path d="M61.7997 25.8978H64.1631L62.2969 34.6999C62.2348 35.0143 62.2969 35.2029 62.4217 35.3915C62.546 35.5801 62.7947 35.643 63.1059 35.643C63.4167 35.643 63.6653 35.5801 63.8518 35.3915C64.0388 35.2029 64.2252 35.0143 64.2874 34.7628L66.153 25.8978H68.579C69.3875 25.8978 69.6362 25.4577 69.6983 25.0804C69.7605 24.829 69.6983 24.6403 69.574 24.4517C69.4497 24.2631 69.2006 24.2002 68.8277 24.2002H62.1105C61.7997 24.2002 61.5506 24.2631 61.3641 24.3888C61.1776 24.5146 61.0533 24.7661 60.9912 25.0176C60.929 25.269 60.9912 25.5205 61.1155 25.6463C61.302 25.772 61.4884 25.8978 61.7997 25.8978Z" fill="white"/>
<path d="M69.2016 35.4544C69.3259 35.5801 69.5124 35.7059 69.8237 35.7059C70.3835 35.7059 70.7565 35.3915 70.8808 34.8257L71.8762 30.1102H75.2346C76.3539 30.1102 77.3493 29.8588 78.0335 29.3558C78.7799 28.8528 79.215 28.0983 79.4636 27.0924C79.6506 26.0864 79.4636 25.3319 78.842 24.8918C78.22 24.4517 77.1624 24.2002 75.6075 24.2002H72.2492C72.0006 24.2002 71.7515 24.2631 71.565 24.4517C71.3785 24.6403 71.2542 24.8289 71.192 25.1433L69.1395 34.7628C69.0773 35.0143 69.0773 35.2658 69.2016 35.4544ZM72.8091 25.8349H75.2968C76.1053 25.8349 76.6651 25.8978 77.0381 25.9606C77.3493 26.0235 77.598 26.1493 77.6601 26.275C77.7844 26.4636 77.7844 26.7151 77.6601 27.0295C77.5358 27.5324 77.3493 27.9097 76.9759 28.0354C76.603 28.224 75.8566 28.2869 74.6747 28.2869H72.2492L72.8091 25.8349Z" fill="white"/>
<path d="M78.2845 35.0772C78.2224 35.2658 78.2845 35.4544 78.4715 35.643C78.5958 35.7688 78.7823 35.8945 79.0309 35.8945C79.4043 35.8945 79.7151 35.7059 80.0263 35.2658L81.8298 32.3736H86.4323L86.9921 35.2029C87.0543 35.643 87.3651 35.8317 87.7385 35.8317C87.9871 35.8317 88.1736 35.7688 88.3605 35.643C88.547 35.5173 88.6713 35.3287 88.7335 35.1401C88.7956 34.9514 88.7956 34.8257 88.7956 34.6371L86.743 24.326V24.2002H84.9396L78.4715 34.5742C78.3467 34.7628 78.2845 34.8885 78.2845 35.0772ZM85.1882 26.9037L85.9967 30.6761H82.8248L85.1882 26.9037Z" fill="white"/>
<path d="M90.9079 35.7686C91.4673 35.7686 91.8407 35.4543 91.965 34.8255L92.8979 30.3616H98.8065L97.8737 34.7627C97.8115 35.077 97.8115 35.3285 97.998 35.5171C98.1223 35.6429 98.3088 35.7686 98.6201 35.7686C99.1799 35.7686 99.5529 35.4543 99.6772 34.8255L101.73 25.1432C101.792 24.8288 101.792 24.5773 101.605 24.3887C101.481 24.2629 101.294 24.1372 100.983 24.1372C100.61 24.1372 100.113 24.3258 99.9258 25.0803L99.1799 28.664H93.2713L94.0176 25.1432C94.0798 24.8288 94.0798 24.5773 93.8933 24.3887C93.7685 24.2 93.582 24.1372 93.2713 24.1372C92.8978 24.1372 92.4006 24.3258 92.2758 25.0803L90.2237 34.7627C90.1615 35.077 90.1615 35.3285 90.348 35.5171C90.4102 35.6429 90.5966 35.7686 90.9079 35.7686Z" fill="white"/>
<path d="M100.923 35.1398C100.861 35.3284 100.923 35.517 101.109 35.7056C101.234 35.8314 101.42 35.9571 101.669 35.9571C102.042 35.9571 102.415 35.7685 102.664 35.3284L104.468 32.4363H109.07L109.63 35.2655C109.692 35.7056 110.003 35.8943 110.376 35.9571C110.625 35.9571 110.812 35.8942 110.998 35.7685C111.185 35.6427 111.31 35.4541 111.372 35.2655C111.434 35.0769 111.434 34.9511 111.434 34.7625L109.381 24.4514V24.3257H107.578L101.109 34.6997C101.047 34.8254 100.985 34.9511 100.923 35.1398ZM107.889 26.9663L108.697 30.7387H105.525L107.889 26.9663Z" fill="white"/>
<path d="M14.9681 43.4389C14.3461 43.2503 13.5376 43.1245 12.4803 43.1245H9.18394C8.93513 43.1245 8.68636 43.1874 8.56195 43.376C8.37538 43.5646 8.25098 43.7532 8.18877 44.0676L6.19858 53.4357C6.13637 53.7498 6.13637 54.0016 6.26073 54.1901C6.38514 54.3786 6.57171 54.5043 6.82052 54.5043H10.6766C10.7388 54.5043 10.801 54.5043 10.8632 54.5043C11.9205 54.5043 12.8534 54.3786 13.4754 54.1901C14.2217 54.0016 14.7815 53.6242 15.1547 53.1215C15.59 52.6183 15.8388 51.9895 16.0254 51.1094L16.0876 50.7952C16.3986 49.4747 16.1498 48.4689 15.4034 47.9028C15.8388 47.4627 16.2119 46.834 16.3364 46.1424C16.4608 45.4508 16.4608 44.8221 16.2119 44.382C16.0254 43.9419 15.59 43.6275 14.9681 43.4389ZM14.3461 50.7952L14.2839 51.0465C14.1595 51.5497 14.0351 51.9267 13.8486 52.178C13.662 52.4298 13.351 52.5555 12.9778 52.6183C12.5424 52.6812 11.8583 52.744 10.9876 52.744H8.06441L8.81076 49.0973H12.1071C12.9156 49.0973 13.4754 49.1601 13.7864 49.2234C14.0973 49.2862 14.2839 49.4747 14.3461 49.6632C14.4705 49.9146 14.4705 50.2921 14.3461 50.7952ZM14.5949 46.1424C14.5327 46.5196 14.4083 46.7712 14.2217 46.9598C14.0351 47.1484 13.7242 47.2741 13.351 47.337C12.9156 47.3999 12.3559 47.4627 11.5473 47.4627H9.18394L9.74368 44.9478H12.1693C12.9156 44.9478 13.5376 45.0107 13.9107 45.0736C14.2839 45.1364 14.4705 45.2622 14.5949 45.388C14.6571 45.5137 14.6571 45.7652 14.5949 46.1424Z" fill="white"/>
<path d="M26.4752 43.5649C25.8533 43.1876 25.0447 42.999 24.1118 42.999C23.1789 42.999 22.3081 43.1876 21.5617 43.502C20.7532 43.8792 20.1313 44.3822 19.6337 45.0109C19.1362 45.6397 18.763 46.3941 18.5764 47.2743L17.9544 50.2923C17.7679 51.1725 17.8301 51.927 18.0166 52.5558C18.2654 53.2474 18.7008 53.7501 19.3849 54.0647C20.0069 54.4417 20.8154 54.6302 21.7484 54.6302H21.8106C22.7435 54.6302 23.552 54.4417 24.2983 54.1276C25.1069 53.7501 25.7288 53.2474 26.2264 52.6186C26.724 51.9898 27.0971 51.2353 27.2837 50.3552L27.9057 47.3372C28.0923 46.457 28.0301 45.7025 27.8435 45.0738C27.5325 44.4451 27.0971 43.8792 26.4752 43.5649ZM26.102 47.3372L25.4801 50.2295C25.2935 51.1096 24.9203 51.8013 24.2983 52.2411C23.6764 52.6814 22.93 52.9328 21.9349 52.9328C21.002 52.9328 20.3179 52.6814 19.8825 52.2411C19.5093 51.8013 19.3849 51.1096 19.5715 50.2923L20.1935 47.4001C20.3801 46.5199 20.7532 45.8283 21.3752 45.3882C21.9349 44.9481 22.7435 44.6966 23.6764 44.6966H23.7386C24.7337 44.6966 25.4179 44.9481 25.7911 45.3882C26.2264 45.8911 26.2886 46.5199 26.102 47.3372Z" fill="white"/>
<path d="M37.9171 43.5647C37.4195 43.3133 36.7975 43.1875 36.0512 43.1875H32.5683C31.7597 43.1875 31.2 43.3761 30.7646 43.7533C30.3914 44.1306 30.0805 44.8222 29.8317 45.7653C29.7695 46.1425 29.7695 46.394 29.9561 46.5826C30.0805 46.7084 30.2671 46.8341 30.5158 46.8341C30.889 46.8341 31.3866 46.6455 31.5732 45.8281L31.6353 45.5138C31.6975 45.1994 31.8219 45.0108 31.8219 45.0108C31.8841 44.9479 32.0085 44.8851 32.3195 44.8851H35.5537C36.1756 44.8851 36.6731 45.0108 36.9841 45.3252C37.2951 45.6395 37.4195 45.9539 37.2951 46.394C37.2329 46.8341 36.9841 47.1485 36.5488 47.4C36.1134 47.6515 35.6158 47.7772 34.9317 47.7772H33.439C32.6305 47.7772 32.3195 48.2173 32.2573 48.5948C32.1951 48.8461 32.2573 49.0346 32.3817 49.2231C32.5061 49.4121 32.8171 49.4749 33.1902 49.4749H34.6829C35.3048 49.4749 35.7402 49.6006 36.0512 49.9148C36.3622 50.2294 36.4244 50.5436 36.3622 50.9839C36.2378 51.4866 35.989 51.8641 35.4915 52.2411C34.9939 52.5557 34.4963 52.7442 33.8744 52.7442H30.6402C30.3292 52.7442 30.2049 52.6814 30.2049 52.6814C30.2049 52.6814 30.1427 52.5557 30.2049 52.1782L30.2671 51.8641C30.3292 51.4866 30.3292 51.2352 30.1427 51.0467C30.0183 50.9211 29.8317 50.7949 29.5829 50.7949C29.2097 50.7949 28.7122 50.9839 28.5256 51.8012C28.339 52.7442 28.339 53.4359 28.5878 53.8129C28.8366 54.2532 29.3963 54.4417 30.1427 54.4417H33.6256C33.6256 54.4417 33.6256 54.4417 33.6878 54.4417C34.3719 54.4417 35.0561 54.316 35.6159 54.0014C36.2378 53.75 36.7975 53.3102 37.1707 52.807C37.6061 52.3039 37.8549 51.7384 37.9792 51.1096C38.1658 50.1033 38.0414 49.2231 37.4817 48.5948C38.2902 48.0287 38.85 47.2113 39.0366 46.2054C39.161 45.5767 39.0988 45.0108 38.9122 44.5707C38.7878 44.2563 38.4146 43.8791 37.9171 43.5647Z" fill="white"/>
<path d="M50.8545 43.1248C50.5438 43.1248 50.233 43.3135 49.9217 43.565L45.8169 47.8403L43.5779 43.565C43.3913 43.2506 43.1425 43.062 42.7693 43.062C42.3962 43.062 41.8986 43.2506 41.7742 44.0051L39.7218 53.6872C39.6596 54.0019 39.6596 54.2532 39.8462 54.4417C39.9705 54.5679 40.1572 54.6935 40.4681 54.6935C40.8413 54.6935 41.3388 54.505 41.5255 53.6872L43.1425 46.0799L44.8839 49.475C45.0706 49.6635 45.2571 49.7891 45.5059 49.7891C45.7547 49.7891 46.0035 49.7263 46.1901 49.5378L49.3618 46.1427L47.745 53.6244C47.6827 54.0019 47.6827 54.2532 47.8691 54.4417C47.9939 54.5679 48.1804 54.6935 48.429 54.6935C48.9889 54.6935 49.3618 54.3789 49.4866 53.7505L51.5387 44.0679C51.6009 43.7536 51.6009 43.4392 51.4144 43.3135C51.2901 43.1877 51.1036 43.1248 50.8545 43.1248Z" fill="white"/>
<path d="M62.2369 45.1993C61.9878 44.5077 61.5527 44.0048 60.8685 43.6904C60.2464 43.3132 59.4379 43.1245 58.5051 43.1245C57.5718 43.1245 56.7011 43.3132 55.9548 43.6275C55.1463 44.0048 54.5242 44.5077 54.027 45.1364C53.5292 45.7652 53.1563 46.5196 52.9694 47.3999L52.3478 50.4177C52.1609 51.2979 52.223 52.0524 52.41 52.6812C52.6586 53.3728 53.0942 53.876 53.7779 54.1901C54.3999 54.5671 55.2084 54.7561 56.1417 54.7561H56.2039C57.1367 54.7561 57.9452 54.5671 58.7537 54.253C59.5622 53.876 60.1843 53.3728 60.682 52.744C61.1792 52.1152 61.5527 51.3607 61.7391 50.4806L62.3612 47.4627C62.5476 46.6454 62.4855 45.828 62.2369 45.1993ZM60.6194 47.4627L59.9978 50.3549C59.8109 51.235 59.4379 51.9267 58.8159 52.367C58.1938 52.8068 57.4475 53.0582 56.4525 53.0582C55.5197 53.0582 54.8355 52.8068 54.3999 52.367C54.027 51.9267 53.9027 51.235 54.0891 50.4177L54.7112 47.5256C54.8976 46.6454 55.2706 45.9538 55.8926 45.5137C56.4525 45.0736 57.261 44.8221 58.1938 44.8221H58.256C59.2515 44.8221 59.9356 45.0736 60.3086 45.5137C60.682 45.9538 60.7442 46.6454 60.6194 47.4627Z" fill="white"/>
<path d="M77.8469 44.5708C77.909 44.3193 77.8469 44.0678 77.6599 43.9421C77.4735 43.8163 77.2248 43.6905 76.9136 43.6905C76.4785 43.6905 75.9186 43.8792 75.3587 44.1936C74.9236 44.5079 74.4881 44.8852 74.053 45.2624C73.6795 45.7025 73.1823 46.2055 72.6846 46.8342C72.1868 47.4 71.8761 47.7773 71.6274 48.0288C71.3162 48.3431 71.1919 48.4059 71.0675 48.4059L71.8761 44.6337C71.9382 44.3193 71.9382 44.0678 71.7517 43.8792C71.6274 43.6906 71.4405 43.6277 71.1297 43.6277C70.8811 43.6277 70.632 43.6906 70.4455 43.8792C70.259 44.0678 70.1347 44.2564 70.0721 44.5708L69.2636 48.4059C69.1393 48.4059 69.015 48.2803 68.8906 48.0288C68.7042 47.7773 68.5799 47.4 68.3308 46.8342C68.1443 46.2684 67.8957 45.8282 67.7087 45.3881C67.4601 44.8223 67.0872 44.3193 66.7137 44.005C66.2786 43.6906 65.8431 43.502 65.3453 43.502C64.599 43.502 64.2882 43.9421 64.2261 44.3193C64.1639 44.6337 64.2882 44.8852 64.4125 44.948C64.599 45.0738 64.7859 45.1995 65.0967 45.1995C65.2832 45.1995 65.4697 45.3881 65.6566 45.7025C65.8431 46.0797 66.0917 46.6456 66.3408 47.4C66.5894 48.0288 66.7759 48.4687 66.9624 48.7834C66.4651 49.0347 65.9674 49.3489 65.5323 49.7892C65.0346 50.2924 64.6611 50.795 64.4125 51.2982C64.2882 51.6123 64.0396 51.9898 63.7905 52.5558C63.7283 52.6815 63.6662 52.8071 63.604 52.87C63.5419 52.9328 63.4797 52.9328 63.4797 52.9328C62.6712 52.9328 62.3599 53.3731 62.2978 53.7501C62.2356 54.0648 62.3599 54.3161 62.4847 54.3789C62.6712 54.5046 62.9198 54.6303 63.2311 54.6303C63.7905 54.6303 64.2882 54.4418 64.7233 54.1904C65.1589 53.8758 65.5945 53.436 65.9052 52.87C66.216 52.304 66.4651 51.8642 66.6516 51.5495C66.9002 51.0468 67.2736 50.7322 67.6466 50.4809C68.02 50.2295 68.4551 50.1034 68.9528 50.1034L68.2064 53.7501C68.1443 54.0015 68.2064 54.2533 68.3308 54.4418C68.4551 54.6303 68.642 54.6931 68.9528 54.6931C69.2014 54.6931 69.4505 54.6303 69.637 54.4418C69.8235 54.2533 70.0099 54.0648 70.0099 53.813L70.8184 50.1667C71.3162 50.1667 71.7517 50.2924 72.0004 50.5437C72.1868 50.7322 72.3112 50.984 72.3733 51.2982C72.4359 51.6123 72.4981 51.9898 72.5603 52.493C72.5603 52.6186 72.5603 52.7443 72.6224 52.9956C72.6846 53.5616 72.871 54.0015 73.2444 54.3161C73.6174 54.6303 74.053 54.8193 74.6124 54.8193C75.4835 54.8193 75.7321 54.3789 75.8565 54.0015C75.9186 53.7501 75.8565 53.4988 75.67 53.3731C75.4835 53.247 75.2344 53.1213 74.9858 53.1213C74.9236 53.1213 74.9236 53.0585 74.8615 52.9956C74.7993 52.87 74.7993 52.6815 74.7993 52.4297C74.7993 51.8013 74.6745 51.1725 74.4881 50.5437C74.4259 50.2295 74.2394 49.9149 73.9908 49.6007C73.8039 49.3489 73.5552 49.1604 73.2444 48.9719C73.5552 48.6577 73.9908 48.1545 74.4259 47.6516C74.9858 46.8971 75.4835 46.3941 75.8565 46.0169C76.1672 45.6396 76.4785 45.451 76.7271 45.451C77.0384 45.451 77.287 45.3881 77.5356 45.1995C77.6599 45.0738 77.7847 44.8223 77.8469 44.5708Z" fill="white"/>
<path d="M88.3578 43.2505C87.9844 43.2505 87.4866 43.4391 87.3002 44.1936L86.5538 47.7773H80.6456L81.392 44.2564C81.4541 43.9421 81.4541 43.6906 81.2672 43.502C81.1429 43.3134 80.9564 43.2505 80.6456 43.2505C80.2722 43.2505 79.7745 43.4391 79.6502 44.1936L77.5981 53.8759C77.5354 54.1905 77.5354 54.4419 77.7224 54.6304C77.8467 54.756 78.0331 54.8817 78.3444 54.8817C78.9038 54.8817 79.2772 54.5675 79.4015 53.9387L80.3344 49.4747H86.243L85.3102 53.8759C85.2481 54.1905 85.2481 54.4419 85.4345 54.6304C85.5588 54.756 85.7453 54.8817 86.0566 54.8817C86.616 54.8817 86.9894 54.5675 87.1137 53.9387L89.1663 44.2564C89.2284 43.9421 89.2284 43.6906 89.042 43.502C88.7929 43.3134 88.6064 43.2505 88.3578 43.2505Z" fill="white"/>
<path d="M98.4331 43.7533C97.811 43.3761 97.0025 43.1875 96.0697 43.1875C95.1369 43.1875 94.2662 43.3761 93.5198 43.6905C92.7113 44.0677 92.0893 44.5707 91.5916 45.1994C91.0943 45.8281 90.7209 46.5826 90.5344 47.4628L89.9124 50.4808C89.7259 51.3609 89.7881 52.1154 89.9746 52.7442C90.2232 53.4359 90.6587 53.9385 91.3429 54.2532C91.965 54.6302 92.7735 54.8192 93.7063 54.8192H93.7685C94.7013 54.8192 95.5098 54.6302 96.2562 54.316C97.0647 53.9385 97.6867 53.4359 98.1844 52.807C98.6817 52.1782 99.0551 51.4237 99.2416 50.5436L99.8636 47.5257C100.05 46.6455 99.9879 45.891 99.8015 45.2623C99.4907 44.6336 99.0551 44.1306 98.4331 43.7533ZM98.1223 47.5886L97.5002 50.4808C97.3138 51.3609 96.9403 52.0526 96.3183 52.4929C95.6967 52.9327 94.8882 53.184 93.9549 53.184C93.0221 53.184 92.3379 52.9327 91.9028 52.4929C91.5294 52.0526 91.4051 51.3609 91.5916 50.5436L92.2136 47.6515C92.4001 46.7712 92.7735 46.0796 93.3955 45.6395C93.9549 45.1994 94.7634 44.9479 95.6967 44.9479H95.7589C96.7539 44.9479 97.4381 45.1994 97.811 45.6395C98.1844 46.0796 98.2466 46.7712 98.1223 47.5886Z" fill="white"/>
<path d="M109.816 43.439H107.017C105.96 43.439 105.089 43.5647 104.405 43.7533C103.721 43.942 103.161 44.3192 102.788 44.8222C102.415 45.3252 102.103 45.9539 101.917 46.7712L100.922 51.3608C100.736 52.1781 100.736 52.8698 100.984 53.3729C101.171 53.8761 101.606 54.2531 102.29 54.4416C102.912 54.6301 103.845 54.7562 104.965 54.7562H107.452C107.452 54.7562 107.452 54.7562 107.515 54.7562C108.199 54.7562 108.821 54.5672 109.194 54.1902C109.629 53.8127 109.94 53.2472 110.065 52.5556C110.127 52.1781 110.127 51.8639 109.94 51.6754C109.816 51.5498 109.629 51.4236 109.38 51.4236C109.132 51.4236 108.883 51.4865 108.696 51.6754C108.51 51.8639 108.386 52.1153 108.323 52.4299C108.261 52.7441 108.136 52.8698 108.074 52.9326C108.012 52.9954 107.826 53.0583 107.577 53.0583H105.214C104.28 53.0583 103.659 52.9954 103.285 52.9326C102.912 52.8698 102.725 52.6813 102.601 52.4928C102.539 52.2409 102.539 51.8639 102.663 51.3608L103.659 46.8341C103.783 46.3311 103.907 45.9539 104.094 45.7024C104.28 45.4509 104.529 45.3252 104.902 45.2623C105.276 45.1994 105.897 45.1365 106.706 45.1365H109.38C109.691 45.1365 109.754 45.1994 109.816 45.2623C109.816 45.2623 109.878 45.3881 109.816 45.7024C109.754 46.0168 109.754 46.2683 109.878 46.4568C110.003 46.6455 110.189 46.7712 110.5 46.7712C110.873 46.7712 111.371 46.5826 111.557 45.7024C111.744 44.9479 111.682 44.382 111.371 44.0049C111.122 43.6276 110.562 43.439 109.816 43.439Z" fill="white"/>
<path d="M121.571 44.3822C121.633 44.1307 121.571 43.9421 121.446 43.7534C121.322 43.5648 121.074 43.502 120.7 43.502H113.983C113.672 43.502 113.424 43.5648 113.237 43.7534C113.05 43.8792 112.926 44.1307 112.864 44.3822C112.801 44.6965 112.926 44.8852 112.988 45.0109C113.112 45.1995 113.361 45.2624 113.672 45.2624H116.036L114.17 54.0648C114.108 54.3789 114.17 54.5674 114.294 54.7559C114.418 54.9449 114.667 55.0078 114.978 55.0078C115.289 55.0078 115.538 54.9449 115.725 54.7559C115.911 54.5674 116.098 54.3789 116.16 54.1276L118.026 45.2624H120.451C121.26 45.1995 121.509 44.7594 121.571 44.3822Z" fill="white"/>
<path d="M132.455 44.445C132.517 44.1307 132.455 43.9421 132.331 43.7534C132.206 43.6277 131.957 43.502 131.647 43.502H124.121C123.872 43.502 123.623 43.5648 123.499 43.7534C123.312 43.9421 123.188 44.1307 123.126 44.445L121.136 53.813C121.073 54.1276 121.073 54.3789 121.198 54.5674C121.322 54.7559 121.508 54.8821 121.758 54.8821H129.283C129.594 54.8821 129.843 54.8193 130.03 54.6931C130.216 54.5674 130.34 54.3789 130.403 54.1276C130.465 53.813 130.403 53.6245 130.278 53.436C130.154 53.3103 129.905 53.1841 129.594 53.1841H123.001L123.81 49.4122H128.288C129.034 49.4122 129.47 49.1604 129.532 48.5944C129.594 48.2803 129.532 48.0288 129.345 47.903C129.158 47.7773 128.91 47.6516 128.537 47.6516H124.121L124.619 45.1995H131.273C131.585 45.1995 131.833 45.1366 132.02 45.0109C132.269 44.8852 132.393 44.6966 132.455 44.445Z" fill="white"/>
<path d="M137.992 44.0676H140.044C140.044 44.0676 140.044 44.0676 140.106 44.0676C140.791 44.0676 141.35 43.879 141.723 43.5018C142.096 43.1245 142.408 42.5586 142.594 41.6784L142.781 40.7982H141.039L140.791 41.9299C140.728 42.2443 140.666 42.3072 140.666 42.3072C140.666 42.3072 140.604 42.37 140.293 42.37H138.489C138.24 42.37 138.178 42.3072 138.178 42.3072C138.178 42.3072 138.178 42.2443 138.24 41.9299L138.489 40.7354H136.748L136.561 41.5527C136.375 42.4329 136.375 43.0616 136.623 43.4389C136.748 43.879 137.245 44.0676 137.992 44.0676Z" fill="white"/>
<path d="M143.587 43.6278C143.463 43.5021 143.276 43.3763 143.027 43.3763C142.716 43.3763 142.405 43.565 142.094 43.8164L134.444 51.8014L135.999 44.3823C136.062 44.0051 136.062 43.7536 135.875 43.565C135.75 43.4392 135.564 43.3135 135.315 43.3135C134.942 43.3135 134.444 43.5021 134.258 44.2566L132.205 53.9392C132.143 54.2533 132.143 54.5047 132.33 54.6932C132.454 54.8193 132.641 54.945 132.889 54.945C133.076 54.945 133.263 54.8822 133.387 54.8193C133.511 54.7565 133.698 54.6303 133.885 54.379L141.41 46.4571L139.793 53.9392C139.731 54.2533 139.731 54.5047 139.918 54.6303C140.042 54.7565 140.229 54.8822 140.539 54.8822C141.099 54.8822 141.473 54.5675 141.597 53.9392L143.649 44.2566C143.774 44.0679 143.774 43.8164 143.587 43.6278Z" fill="white"/>
<path d="M46.7494 4.58369C46.1274 4.14358 45.0701 3.89209 43.5152 3.89209H40.1567C39.9079 3.89209 39.6592 3.95496 39.4726 4.14358C39.286 4.3322 39.1616 4.52081 39.0994 4.83519L37.0469 14.4547C36.9848 14.769 36.9848 15.0205 37.1713 15.1463C37.2958 15.2721 37.4823 15.3978 37.7933 15.3978C38.3531 15.3978 38.7262 15.0834 38.8506 14.5176L39.8457 9.80212H43.2043C44.3238 9.80212 45.3189 9.55064 46.0031 9.04764C46.7494 8.54468 47.1848 7.7902 47.4335 6.78424C47.5579 5.77827 47.3713 5.02379 46.7494 4.58369ZM47.1226 6.72135C46.936 7.66443 46.5006 8.35604 45.8165 8.85904C45.1323 9.362 44.2616 9.55064 43.1421 9.55064H39.597L38.5396 14.5176C38.4152 14.9576 38.1665 15.2092 37.7311 15.2092C37.5445 15.2092 37.4201 15.1463 37.358 15.0834C37.2958 14.9576 37.2958 14.8319 37.2958 14.5805L39.3482 4.96091C39.4104 4.70943 39.4726 4.52081 39.6592 4.39507C39.7835 4.26932 39.9701 4.20645 40.1567 4.20645H43.5152C45.008 4.20645 46.003 4.39507 46.5628 4.83519C47.1226 5.21244 47.3092 5.84116 47.1226 6.72135Z" fill="white"/>
<path d="M44.9452 5.46361C44.5721 5.40072 43.9501 5.33789 43.2038 5.33789H40.4672L39.8452 8.41861H42.5818C42.644 8.41861 42.7062 8.41861 42.7684 8.41861C43.8879 8.41861 44.6343 8.29289 45.0074 8.10425C45.4428 7.91565 45.6916 7.53841 45.8159 6.90969C45.8781 6.46957 45.8781 6.15521 45.7538 5.96661C45.6294 5.71508 45.3806 5.52649 44.9452 5.46361ZM45.5672 6.84681C45.4428 7.34981 45.2562 7.72701 44.883 7.85277C44.5098 8.04142 43.7635 8.10425 42.5818 8.10425H40.1562L40.716 5.58937H43.2038C43.9501 5.58937 44.5721 5.65225 44.9452 5.71508C45.2562 5.77797 45.505 5.90373 45.5672 6.02949C45.6294 6.21809 45.6916 6.46957 45.5672 6.84681Z" fill="white"/>
<path d="M53.5901 5.2749C52.5329 5.2749 51.7244 5.52638 51.0402 6.02939C50.4182 6.53234 49.9831 7.22394 49.734 8.16702L49.1124 11.0592C48.9255 12.0023 49.0503 12.7567 49.4854 13.2597C49.921 13.7627 50.6673 14.0142 51.7244 14.0142H51.7866C52.7816 14.0142 53.6527 13.7627 54.2743 13.2597C54.8963 12.7567 55.3319 12.0651 55.5805 11.122L56.2026 8.22991C56.389 7.28683 56.2647 6.59522 55.8291 6.02939C55.394 5.52638 54.6477 5.2749 53.5901 5.2749ZM55.9539 8.22991L55.3319 11.122C55.1449 12.0023 54.772 12.6939 54.15 13.134C53.5279 13.5741 52.7194 13.8256 51.7866 13.8256C50.8538 13.8256 50.1696 13.5741 49.734 13.134C49.3611 12.6939 49.2368 12.0023 49.4232 11.1849L50.0453 8.29279C50.2317 7.41254 50.6051 6.72094 51.2267 6.28086C51.7866 5.84074 52.5951 5.58926 53.5279 5.58926H53.5901C54.5855 5.58926 55.2697 5.84074 55.6427 6.28086C56.0161 6.72094 56.1404 7.41254 55.9539 8.22991Z" fill="white"/>
<path d="M56.2648 4.39495C55.6428 4.01772 54.8342 3.8291 53.9014 3.8291C52.9686 3.8291 52.0975 4.01772 51.3511 4.33208C50.5426 4.70931 49.921 5.21231 49.4233 5.84103C48.9256 6.46975 48.5526 7.22424 48.3662 8.10444L47.744 11.1223C47.5574 12.0025 47.6196 12.757 47.8062 13.3857C48.0549 14.0773 48.4905 14.5803 49.1747 14.8947C49.7962 15.2719 50.6048 15.4605 51.5381 15.4605H51.6002C52.533 15.4605 53.3415 15.2719 54.0879 14.9576C54.8964 14.5803 55.5184 14.0773 56.0162 13.4486C56.5134 12.8199 56.8868 12.0654 57.0733 11.1852L57.6953 8.16732C57.8818 7.28707 57.8197 6.53264 57.6332 5.90392C57.3841 5.27515 56.8868 4.77219 56.2648 4.39495ZM57.4462 8.16732L56.8247 11.1852C56.6377 12.0025 56.327 12.757 55.8292 13.3228C55.332 13.9516 54.7099 14.3917 53.9636 14.7689C53.2172 15.0833 52.4087 15.2719 51.4759 15.2719C50.6048 15.2719 49.8584 15.0833 49.2368 14.7689C48.677 14.4546 48.2414 13.9516 47.9928 13.3857C47.744 12.757 47.744 12.0654 47.9306 11.2481L48.5526 8.2302C48.7391 7.41283 49.0499 6.65835 49.5476 6.09251C50.0453 5.46379 50.6674 5.02367 51.4137 4.64644C52.1596 4.33208 52.9686 4.14346 53.8393 4.14346H53.9014C54.7721 4.14346 55.5184 4.33208 56.1405 4.64644C56.6999 4.96079 57.1355 5.46379 57.3841 6.02963C57.571 6.65835 57.6332 7.34995 57.4462 8.16732Z" fill="white"/>
<path d="M67.711 4.08008H64.9121C63.855 4.08008 62.9843 4.20583 62.3001 4.39444C61.6159 4.58306 61.056 4.96028 60.6831 5.46329C60.3097 5.96624 59.9989 6.59496 59.8124 7.41233L58.817 12.002C58.6305 12.8194 58.6305 13.511 58.8796 14.0139C59.0661 14.5169 59.5011 14.8942 60.1853 15.0828C60.8074 15.2714 61.7402 15.3971 62.86 15.3971H65.3477C65.3477 15.3971 65.3477 15.3971 65.4098 15.3971C66.094 15.3971 66.7161 15.2085 67.089 14.8313C67.5246 14.4541 67.8353 13.8882 67.9597 13.1966C68.0218 12.8194 68.0218 12.505 67.8353 12.3164C67.711 12.1907 67.5246 12.0649 67.2759 12.0649C67.0268 12.0649 66.7782 12.1278 66.5917 12.3164C66.4048 12.505 66.2805 12.7565 66.2183 13.0709C66.1562 13.3852 66.0319 13.511 65.9697 13.5739C65.9075 13.6367 65.7206 13.6996 65.472 13.6996H63.1086C62.1758 13.6996 61.5537 13.6367 61.1808 13.5739C60.8074 13.511 60.6209 13.3223 60.4966 13.1337C60.4344 12.8823 60.4344 12.505 60.5588 12.002L61.5537 7.47521C61.6781 6.9722 61.8024 6.59496 61.9893 6.34348C62.1758 6.09201 62.4244 5.96624 62.7978 5.90341C63.1708 5.84053 63.7928 5.77765 64.6013 5.77765H67.2759C67.5867 5.77765 67.6489 5.84053 67.711 5.90341C67.711 5.90341 67.7732 6.02912 67.711 6.34348C67.6489 6.65784 67.6489 6.90937 67.7732 7.09797C67.8975 7.28656 68.0844 7.41233 68.3952 7.41233C68.7682 7.41233 69.2659 7.22373 69.4524 6.34348C69.6393 5.589 69.5772 5.02316 69.2659 4.64594C68.9551 4.2687 68.4574 4.08008 67.711 4.08008ZM69.1416 6.2806C69.0173 6.84649 68.7682 7.09797 68.3331 7.16085C68.1466 7.16085 68.0218 7.09797 67.9597 6.9722C67.8975 6.84649 67.8975 6.65784 67.8975 6.40637C67.9597 6.09201 67.9597 5.84053 67.8353 5.71476C67.711 5.589 67.5246 5.52617 67.2133 5.52617H64.5391C63.7306 5.52617 63.1086 5.589 62.673 5.65188C62.2379 5.77765 61.9272 5.96624 61.6781 6.21777C61.4916 6.46925 61.3051 6.90937 61.1808 7.47521L60.1853 12.002C60.061 12.5679 60.061 13.008 60.1853 13.2595C60.3097 13.5739 60.5588 13.7625 61.056 13.8882C61.4916 14.0139 62.1758 14.0139 63.0464 14.0139H65.4098C65.7206 14.0139 65.9075 13.9511 66.0319 13.8253C66.1562 13.6996 66.2805 13.511 66.3426 13.1966C66.4048 12.9451 66.5296 12.7565 66.6539 12.5679C66.7782 12.4421 66.9647 12.3793 67.1512 12.3793C67.3381 12.3793 67.4624 12.4421 67.5246 12.505C67.6489 12.6307 67.6489 12.8823 67.5867 13.1966C67.4624 13.8882 67.1512 14.3912 66.7782 14.7055C66.4048 15.0199 65.8454 15.1457 65.2233 15.2085H62.7357C61.6159 15.2085 60.7452 15.0828 60.1232 14.8942C59.5633 14.7055 59.1904 14.3912 59.0039 13.9511C58.817 13.511 58.817 12.8823 59.0039 12.1278L59.9989 7.53809C60.1853 6.78361 60.4344 6.15489 60.8074 5.65188C61.1808 5.21181 61.678 4.89745 62.3001 4.70881C62.9221 4.52019 63.7306 4.39444 64.7256 4.39444C64.7878 4.39444 64.7878 4.39444 64.8499 4.39444H67.6489C68.2709 4.39444 68.7682 4.58306 68.9551 4.83457C69.2659 5.08604 69.3281 5.589 69.1416 6.2806Z" fill="white"/>
<path d="M78.8423 4.08008H76.0438C74.9862 4.08008 74.1156 4.20583 73.4314 4.39444C72.7472 4.58306 72.1878 4.96028 71.8143 5.46329C71.4414 5.96624 71.1301 6.59496 70.9437 7.41233L69.9487 12.002C69.7618 12.8194 69.7618 13.511 70.0109 14.0139C70.1973 14.5169 70.6329 14.8942 71.3166 15.0828C71.9387 15.2714 72.872 15.3971 73.9913 15.3971H76.4789C76.4789 15.3971 76.4789 15.3971 76.5411 15.3971C77.2253 15.3971 77.8473 15.2085 78.2207 14.8313C78.6558 14.4541 78.9666 13.8882 79.0914 13.1966C79.1536 12.8194 79.1536 12.505 78.9666 12.3164C78.8423 12.1907 78.6558 12.0649 78.4072 12.0649C78.1581 12.0649 77.9095 12.1278 77.723 12.3164C77.5365 12.505 77.4118 12.7565 77.3496 13.0709C77.2874 13.3852 77.1631 13.511 77.101 13.5739C77.0388 13.6367 76.9145 13.6996 76.6032 13.6996H74.2399C73.3071 13.6996 72.685 13.6367 72.3121 13.5739C71.9387 13.511 71.7522 13.3223 71.6279 13.1337C71.5657 12.8823 71.5657 12.505 71.69 12.002L72.685 7.47521C72.8093 6.9722 72.9341 6.59496 73.1206 6.34348C73.3071 6.09201 73.5557 5.96624 73.9291 5.90341C74.302 5.84053 74.9241 5.77765 75.7326 5.77765H78.4072C78.718 5.77765 78.7802 5.84053 78.8423 5.84053C78.8423 5.84053 78.9045 5.96624 78.8423 6.2806C78.7802 6.59496 78.7802 6.84649 78.9045 7.03509C79.0293 7.22373 79.2157 7.34945 79.5265 7.34945C79.8999 7.34945 80.3972 7.16085 80.5841 6.2806C80.7706 5.52617 80.7084 4.96028 80.3972 4.58306C80.0864 4.2687 79.5887 4.08008 78.8423 4.08008ZM80.335 6.2806C80.2107 6.84649 79.9621 7.09797 79.5265 7.16085C79.34 7.16085 79.2157 7.09797 79.1536 6.9722C79.0914 6.84649 79.0914 6.65784 79.0914 6.40637C79.1536 6.09201 79.1536 5.84053 79.0293 5.71476C78.9045 5.589 78.718 5.52617 78.4072 5.52617H75.7326C74.9241 5.52617 74.302 5.589 73.8669 5.65188C73.4314 5.77765 73.1206 5.96624 72.872 6.21777C72.685 6.46925 72.4985 6.90937 72.3742 7.47521L71.3793 12.002C71.2545 12.5679 71.2545 13.008 71.3793 13.2595C71.5036 13.5739 71.7522 13.7625 72.2499 13.8882C72.685 14.0139 73.3071 14.0139 74.2399 14.0139H76.6032C76.9145 14.0139 77.101 13.9511 77.2253 13.8253C77.3496 13.6996 77.4744 13.511 77.5365 13.1966C77.5987 12.9451 77.6609 12.7565 77.8473 12.5679C77.9716 12.4421 78.1581 12.3793 78.3451 12.3793C78.5315 12.3793 78.6558 12.4421 78.718 12.505C78.8423 12.6307 78.8423 12.8823 78.7801 13.1966C78.6558 13.8882 78.3451 14.3912 77.9716 14.7055C77.5987 15.0199 77.0388 15.1457 76.4168 15.2085H73.9291C72.8093 15.2085 71.9387 15.0828 71.3166 14.8942C70.7572 14.7055 70.3838 14.3912 70.1973 13.9511C70.0109 13.511 70.0109 12.8823 70.1973 12.1278L71.1923 7.53809C71.3793 6.78361 71.6279 6.15489 72.0008 5.65188C72.3742 5.21181 72.872 4.89745 73.4935 4.70881C74.1156 4.52019 74.9241 4.39444 75.9195 4.39444C75.9817 4.39444 75.9817 4.39444 76.0438 4.39444H78.8423C79.4643 4.39444 79.9621 4.58306 80.1485 4.83457C80.3972 5.14893 80.4593 5.65188 80.335 6.2806Z" fill="white"/>
<path d="M92.1528 4.26895C92.0285 4.14321 91.842 4.01746 91.5929 4.01746C91.2822 4.01746 90.9714 4.14321 90.6601 4.45757L83.0101 12.4424L84.565 5.02342C84.6271 4.64619 84.6271 4.39469 84.4407 4.20608C84.3164 4.08033 84.1299 3.95459 83.8808 3.95459C83.5078 3.95459 83.0101 4.14321 82.8237 4.89766L80.7711 14.5801C80.7089 14.8944 80.7089 15.1459 80.8954 15.3345C81.0202 15.4603 81.2066 15.586 81.4553 15.586C81.6417 15.586 81.8287 15.5232 81.953 15.4603C82.0773 15.3974 82.2638 15.2717 82.4502 15.0202L90.0381 7.16111L88.4211 14.6429C88.3589 14.9573 88.3589 15.2088 88.5454 15.3345C88.6702 15.4603 88.8566 15.586 89.1674 15.586C89.7273 15.586 90.1002 15.2717 90.225 14.6429L92.2771 4.96054C92.3393 4.64619 92.3393 4.3947 92.1528 4.26895ZM92.0285 4.96054L89.9759 14.6429C89.8516 15.1459 89.603 15.3345 89.1674 15.3345C88.9809 15.3345 88.8566 15.2717 88.7323 15.2088C88.6702 15.083 88.6702 14.9573 88.6702 14.7058L90.4737 6.28086L82.2638 14.8316C82.0773 15.0202 81.953 15.1459 81.8287 15.2088C81.7039 15.2717 81.5796 15.2717 81.4553 15.2717C81.2688 15.2717 81.1445 15.2088 81.0823 15.1459C81.0202 15.0202 80.958 14.8944 81.0202 14.6429L83.0723 4.96054C83.1966 4.45757 83.4457 4.20608 83.8808 4.20608C84.0677 4.20608 84.192 4.26895 84.2542 4.33182C84.3164 4.45757 84.3785 4.64619 84.3164 4.89766L82.5129 13.1969L90.8466 4.64619C91.0957 4.3947 91.3443 4.26895 91.5929 4.26895C91.7799 4.26895 91.9042 4.33182 91.9664 4.39469C92.0907 4.52044 92.0907 4.70906 92.0285 4.96054Z" fill="white"/>
<path d="M96.8775 6.02932C96.3176 6.34368 96.0064 6.78381 95.8821 7.41253C95.7577 7.85265 95.8821 8.22989 96.069 8.48137C96.4419 8.92149 97.1883 9.17297 98.4324 9.17297H100.982L101.729 5.52637H99.1166C98.1833 5.58925 97.4369 5.71496 96.8775 6.02932ZM100.796 8.98433H98.4324C97.3126 8.98433 96.5663 8.79573 96.2555 8.35561C96.069 8.10413 96.0064 7.85265 96.1312 7.47541C96.2555 6.90957 96.5663 6.53233 97.0018 6.28085C97.4369 6.02932 98.1833 5.90361 99.0539 5.90361H99.1166H101.418L100.796 8.98433Z" fill="white"/>
<path d="M102.725 4.14307H99.4907H99.4285C98.0606 4.14307 96.9408 4.39455 96.0702 4.9604C95.1995 5.52628 94.6396 6.3436 94.391 7.34956C94.1419 8.607 94.5153 9.55013 95.5103 10.116C95.1374 10.4303 94.8261 10.8705 94.5775 11.3734L93.7068 13.1339C93.5825 13.3225 93.4582 13.5111 93.2091 13.6997C93.0226 13.8883 92.8361 13.9512 92.6492 13.9512C91.7785 13.9512 91.5299 14.3913 91.4677 14.7685C91.4056 15.02 91.4677 15.2087 91.5921 15.3973C91.7164 15.5859 92.0276 15.6487 92.4006 15.6487C93.0226 15.6487 93.5825 15.4601 94.1419 15.02C94.7018 14.5799 95.1374 14.0769 95.5103 13.3853L96.3188 11.8135C96.5053 11.4363 96.7544 11.1219 97.003 10.9962C97.3143 10.8076 97.6872 10.7447 98.1849 10.7447H100.486L99.6155 14.7685C99.5528 15.0829 99.5528 15.3344 99.7398 15.4601C99.8641 15.6487 100.113 15.7116 100.362 15.7116C100.921 15.7116 101.232 15.3973 101.357 14.8314L103.409 5.27476C103.472 4.89752 103.472 4.64605 103.285 4.45743C103.16 4.26881 102.974 4.14307 102.725 4.14307ZM103.098 5.14904L101.046 14.7057C100.921 15.1458 100.673 15.3973 100.299 15.3973C100.113 15.3973 99.9263 15.3344 99.8641 15.2715C99.8019 15.1458 99.8019 15.02 99.8019 14.7685L100.735 10.4303H98.0606C98.0606 10.4303 98.0606 10.4303 97.998 10.4303C97.4386 10.4303 97.003 10.5561 96.6922 10.6818C96.381 10.8705 96.0702 11.1848 95.8837 11.6249L95.0752 13.1967C94.7639 13.8255 94.3288 14.3913 93.769 14.7685C93.2712 15.1458 92.7118 15.3344 92.2141 15.3344C91.9033 15.3344 91.7164 15.2715 91.6542 15.1458C91.5921 15.0829 91.5921 14.9571 91.5921 14.7685C91.6542 14.3913 91.9655 14.2027 92.5249 14.2027C92.774 14.2027 93.0226 14.0769 93.2712 13.8883C93.5203 13.6997 93.7068 13.4482 93.8311 13.2596L94.7018 11.4992C94.9504 10.9962 95.3238 10.5561 95.7594 10.2417L95.9459 10.116L95.7594 10.0531C94.7018 9.55013 94.3288 8.73277 94.6396 7.47533C94.8261 6.53225 95.386 5.77776 96.1945 5.27476C97.003 4.77179 98.1228 4.5203 99.4907 4.5203H102.725C102.912 4.5203 103.036 4.58317 103.098 4.64604C103.16 4.64604 103.16 4.89752 103.098 5.14904Z" fill="white"/>
<path d="M118.335 10.1789C118.211 10.0531 118.025 9.99023 117.776 9.99023H111.183C110.997 9.99023 110.748 10.0531 110.623 10.1789C110.437 10.3046 110.375 10.4932 110.312 10.6818C110.25 10.9333 110.312 11.122 110.437 11.2477C110.561 11.3734 110.748 11.4363 110.935 11.4363H117.527C117.776 11.4363 117.962 11.3734 118.087 11.2477C118.211 11.122 118.335 10.9334 118.398 10.7447C118.46 10.4932 118.46 10.3046 118.335 10.1789ZM118.149 10.6818C118.087 10.8705 118.025 10.9962 117.962 11.0591C117.838 11.122 117.714 11.1848 117.527 11.1848H110.935C110.81 11.1848 110.685 11.122 110.623 11.0591C110.561 10.9962 110.561 10.8705 110.561 10.7447C110.623 10.5561 110.686 10.4932 110.748 10.3675C110.872 10.3046 110.997 10.2418 111.121 10.2418H117.714C117.9 10.2418 117.962 10.3046 118.025 10.3675C118.211 10.4304 118.211 10.5561 118.149 10.6818Z" fill="white"/>
</g>
<defs>
<clipPath id="clip0_204_175">
<rect width="153" height="58" fill="white"/>
</clipPath>
</defs>
</svg>
