<svg width="120" height="90" viewBox="0 0 120 90" fill="none" xmlns="http://www.w3.org/2000/svg">
<path d="M34.3432 25.5332C33.0523 27.2484 31.9897 29.6569 31.1454 31.5781C30.3049 33.5004 29.7218 35.5353 29.6262 37.63C29.5034 39.7147 29.9142 41.8399 30.8247 43.8053C31.7384 45.7734 33.1619 47.5391 34.7966 49.0882C35.6172 49.8641 36.4983 50.5839 37.3886 51.2762C37.7089 51.5237 38.0286 51.7629 38.3486 52.003C40.8173 52.5423 43.5164 52.7769 46.3776 52.4806C48.4648 52.2642 50.2737 51.9609 51.8808 51.6036C51.5871 50.7778 51.2663 49.9548 50.8766 49.145C49.4901 46.2633 47.2988 42.9483 45.4556 41.0937C39.9505 36.6441 34.6081 31.9446 34.3432 25.5332Z" fill="url(#paint0_linear_135_425)"/>
<path d="M51.9033 6.39209C49.4836 8.61979 47.1003 10.9781 44.9448 13.3961C42.5548 16.0843 40.2617 19.3807 39.1986 22.6487C37.7191 27.1919 39.3476 32.2777 41.9429 36.291C43.0154 37.9432 44.2339 39.5218 45.4553 41.0941C48.8773 44.5373 52.6569 47.6082 55.6095 50.5789C59.0567 49.4471 61.4862 48.1296 64.1412 47.1996C64.1356 40.3813 60.5501 34.148 57.0795 28.0773C52.0317 22.7288 47.9513 16.544 51.9033 6.39209Z" fill="url(#paint1_linear_135_425)"/>
<path d="M64.4969 0C62.1502 1.5654 59.9885 3.36793 58.1708 5.41325C57.2669 6.4383 56.4608 7.53473 55.768 8.68069C55.0798 9.82973 54.5329 11.0511 54.1427 12.3069C53.4082 14.6523 53.1802 17.1897 53.6734 19.5846C54.2428 22.3285 57.0719 27.9807 57.0785 28.0774C58.1069 29.6182 66.558 35.7555 65.7358 46.7007C66.8963 46.388 68.1391 46.1609 69.5569 46.0651C71.718 45.9188 73.7202 46.0541 75.5524 46.3687C76.2374 45.1455 76.8274 43.8993 77.2941 42.6137C78.268 39.9455 78.658 37.3707 78.423 34.8423C78.1947 32.511 77.4341 30.2161 76.0897 27.9111C74.4547 25.1335 72.4413 22.5419 70.468 19.9472C68.4185 17.2459 66.2674 14.556 64.878 11.5372C63.2885 8.08731 63.3813 4.9332 64.1497 1.34928C64.2819 0.733226 64.2824 0.732762 64.4969 0Z" fill="url(#paint2_linear_135_425)"/>
<path d="M57.0786 28.0776C61.3431 37.4271 62.9081 40.8628 58.7831 49.3987C61.9997 48.0735 64.4808 46.7563 67.9375 46.2416C69.0208 38.5872 62.4964 33.8124 57.0786 28.0776Z" fill="url(#paint3_linear_135_425)"/>
<path d="M45.4575 41.0958C45.4575 41.0958 45.661 41.3087 45.7737 41.5051C48.1257 45.7389 46.758 47.6986 46.8556 50.7454C46.8744 51.3136 46.966 51.8642 47.1109 52.3968C50.648 51.9828 53.3713 51.3176 55.6463 50.5683C53.5006 47.5048 50.0052 44.7484 46.4579 41.9015V41.9007C46.179 41.6771 45.9023 41.4546 45.6244 41.2306C45.5686 41.1857 45.5135 41.1409 45.4575 41.0958Z" fill="url(#paint4_linear_135_425)"/>
<path d="M72.8485 47.8686C72.0013 47.8608 71.1535 47.901 70.3108 47.9875C64.3496 48.5867 59.3058 51.8104 53.5655 53.3164C51.3877 53.8857 48.8918 54.2491 46.6078 54.4825C44.3208 54.7159 42.0629 54.5588 39.8024 54.3222C37.5514 54.0962 35.3 53.6267 33.1358 52.8204C30.9646 52.0377 28.8495 50.972 26.9224 49.5238C28.3 51.5423 30.269 53.1298 32.3769 54.4219C34.5193 55.6845 36.8885 56.6109 39.3423 57.1565C41.7886 57.6898 44.3605 57.8798 46.8226 57.7401C49.2988 57.6227 51.7705 57.3136 54.217 56.7109C57.3452 55.9641 60.2658 54.6319 63.1285 53.1838C67.3652 51.0412 71.6552 49.6263 76.438 49.5169C77.2719 49.497 78.1063 49.4967 78.938 49.5729C79.3413 49.6129 80.4196 49.7995 81.4002 49.8957C80.2285 49.2796 76.8446 48.2202 75.3858 48.0373C74.543 47.9324 73.6963 47.8765 72.8485 47.8686Z" fill="#0076C0"/>
<path d="M11.371 60.4028C5.19968 60.4028 0.162598 64.6043 0.162598 70.8138V89.555H5.92567V81.919L16.8172 78.9825V89.555H22.5802V70.8138C22.5802 64.6043 17.5431 60.4028 11.371 60.4028ZM112.497 60.8551L105.413 71.3275L102.39 72.1425V60.8562H96.6265V89.4102H102.39V77.4145L104.676 76.7985L112.894 89.4102H119.835L109.788 74.3472L119.2 60.8551H112.497ZM31.8001 61.0004H26.037V66.0924V89.555H31.8001V81.9279L36.3868 80.6908C42.491 79.2676 46.7749 76.4485 46.7753 70.6846C46.7753 64.3874 42.5086 60.9993 36.3868 60.9993L31.8001 61.0004ZM47.3582 61.0004V66.0924H56.1337V89.555H61.8971V66.0924H70.6732V61.0004H47.3582ZM73.3743 61.0004V89.555H79.1365H93.802V84.4619H79.1365V79.1826L89.6259 76.3552L88.3159 71.4365L79.1365 73.9112V66.0924H93.4287V61.0004H79.1365H73.3743ZM11.371 65.3266C14.3498 65.3266 16.8172 67.8169 16.8172 70.8138V73.7117L5.92567 76.6481V70.8138C5.92567 67.8175 8.393 65.3266 11.371 65.3266ZM31.8001 66.0924H36.3868C38.9216 66.0924 41.0527 67.5352 41.0527 70.6846C41.0527 73.833 38.6462 74.904 36.3868 75.401L31.8001 76.638V66.0924Z" fill="#0076C0"/>
<defs>
<linearGradient id="paint0_linear_135_425" x1="36.1363" y1="31.92" x2="44.9398" y2="47.0739" gradientUnits="userSpaceOnUse">
<stop stop-color="#FDB417"/>
<stop offset="1" stop-color="#EE1C25"/>
</linearGradient>
<linearGradient id="paint1_linear_135_425" x1="47.6352" y1="15.1217" x2="61.9399" y2="68.1777" gradientUnits="userSpaceOnUse">
<stop stop-color="#A6191F"/>
<stop offset="0.5" stop-color="#EE1C25"/>
<stop offset="1" stop-color="#A6191F"/>
</linearGradient>
<linearGradient id="paint2_linear_135_425" x1="61.0708" y1="10.5184" x2="75.7159" y2="25.0731" gradientUnits="userSpaceOnUse">
<stop stop-color="#DF1A21"/>
<stop offset="1" stop-color="#F88822"/>
</linearGradient>
<linearGradient id="paint3_linear_135_425" x1="59.5708" y1="40.0851" x2="68.6597" y2="40.0851" gradientUnits="userSpaceOnUse">
<stop stop-color="#F78F1E"/>
<stop offset="1" stop-color="#FFC708"/>
</linearGradient>
<linearGradient id="paint4_linear_135_425" x1="50.3814" y1="46.9071" x2="52.8868" y2="56.1998" gradientUnits="userSpaceOnUse">
<stop stop-color="#A6191F"/>
<stop offset="1" stop-color="#EE1C25"/>
</linearGradient>
</defs>
</svg>
