<svg width="94" height="90" viewBox="0 0 94 90" fill="none" xmlns="http://www.w3.org/2000/svg">
<g clip-path="url(#clip0_204_174)">
<path fill-rule="evenodd" clip-rule="evenodd" d="M11.292 69.1962L34.5414 1.39355L51.7358 1.41435L28.4864 69.2168L11.292 69.1962Z" fill="white" stroke="white" stroke-width="0.2284" stroke-miterlimit="10"/>
<path fill-rule="evenodd" clip-rule="evenodd" d="M82.9809 20.4031L64.31 20.3823L40.5962 89.5991L59.2674 89.6198L82.9809 20.4031Z" fill="#E93E3B"/>
<path fill-rule="evenodd" clip-rule="evenodd" d="M51.7349 1.39349H34.5405L11.2911 69.196L28.4855 69.2167L51.7349 1.39349ZM68.0221 10.5656L44.3086 79.7618L25.6374 79.7411L28.7598 70.6103L10.3206 70.5896H9.3501L9.66658 69.6745L33.3801 0.478363L33.5278 0H34.0342L52.7054 0.0207981H53.6759L53.3805 0.935927L50.0682 10.5448L68.0221 10.5656Z" fill="#0B7DBC"/>
<path fill-rule="evenodd" clip-rule="evenodd" d="M7.7053 34.0884H93.7617L86.2933 56.0928H0.236816L7.7053 34.0884Z" fill="white"/>
<path fill-rule="evenodd" clip-rule="evenodd" d="M50.6801 35.3779H70.7014L64.1191 54.8036H44.0977L50.6801 35.3779Z" fill="#0B7DBC"/>
<path fill-rule="evenodd" clip-rule="evenodd" d="M29.5615 35.3779H49.5619L42.9795 54.8036H22.958L29.5615 35.3779Z" fill="#0B7DBC"/>
<path fill-rule="evenodd" clip-rule="evenodd" d="M8.65516 35.3779H28.6556L22.0731 54.8036H2.07275L8.65516 35.3779Z" fill="#0B7DBC"/>
<path fill-rule="evenodd" clip-rule="evenodd" d="M46.9032 37.0833L45.9116 39.891C38.3587 39.6206 34.3291 40.203 32.9578 44.9034C31.4177 49.9159 36.1435 50.3734 42.536 50.2694L41.4601 53.2228C30.9746 53.514 25.2361 52.7444 27.9155 44.8826C30.848 36.2513 36.5866 37.0833 46.9032 37.0833Z" fill="white"/>
<path fill-rule="evenodd" clip-rule="evenodd" d="M71.9251 35.3779H91.9256L85.3433 54.8036H65.3213L71.9251 35.3779Z" fill="#0B7DBC"/>
<path fill-rule="evenodd" clip-rule="evenodd" d="M52.0089 37.0835L46.186 53.2438H51.7347L56.2284 39.9329H61.8401L57.199 53.2438H62.7473L68.3171 37.0835H52.0089Z" fill="white"/>
<path fill-rule="evenodd" clip-rule="evenodd" d="M73.1706 37.0835L67.3901 53.2438H72.9384L77.4323 39.8913L83.0445 39.9121L78.4029 53.2438H83.9517L89.5215 37.0835H73.1706Z" fill="white"/>
<path fill-rule="evenodd" clip-rule="evenodd" d="M10.1734 37.0835L4.47705 53.2438H9.878L11.6291 48.1898C19.7938 48.2106 23.3171 48.0442 24.0555 42.6783C24.6463 38.5602 22.431 37.0003 15.511 37.1043H10.1734V37.0835ZM12.7473 44.966L14.5616 39.7665C17.3254 39.6417 18.8022 40.2033 18.9288 41.9295C18.8866 44.5917 16.6714 45.1117 12.7473 44.966Z" fill="white"/>
</g>
<defs>
<clipPath id="clip0_204_174">
<rect width="94" height="90" fill="white"/>
</clipPath>
</defs>
</svg>
