<svg width="31" height="32" viewBox="0 0 31 32" fill="none" xmlns="http://www.w3.org/2000/svg">
<path d="M21.1144 27.7498C20.1673 27.7427 19.2243 27.6238 18.3051 27.3955C15.1306 26.6296 11.8617 24.6867 9.10195 21.9245C6.34222 19.1624 4.39685 15.8929 3.63093 12.7214C2.82445 9.38528 3.39964 6.5311 5.24874 4.682L5.77671 4.15403C6.25573 3.67596 6.90485 3.40747 7.58161 3.40747C8.25838 3.40747 8.90749 3.67596 9.38652 4.15403L12.4205 7.18743C12.8989 7.66629 13.1676 8.31547 13.1676 8.99233C13.1676 9.66919 12.8989 10.3184 12.4205 10.7972L10.6283 12.5888C11.4875 14.0964 12.656 15.6053 14.0371 16.9863C15.4182 18.3674 16.9282 19.5366 18.4352 20.3957L20.2268 18.6035C20.4638 18.3665 20.7452 18.1784 21.0549 18.0501C21.3646 17.9218 21.6965 17.8557 22.0317 17.8557C22.3669 17.8557 22.6989 17.9218 23.0086 18.0501C23.3183 18.1784 23.5996 18.3665 23.8366 18.6035L26.87 21.6369C27.3485 22.1156 27.6173 22.7647 27.6173 23.4415C27.6173 24.1183 27.3485 24.7675 26.87 25.2461L26.3415 25.7741C25.0379 27.0801 23.2336 27.7498 21.1144 27.7498ZM7.58161 5.22268C7.48494 5.2222 7.38915 5.24102 7.29984 5.27803C7.21053 5.31504 7.12951 5.3695 7.06152 5.43823L6.53294 5.96619C5.14823 7.3509 4.74378 9.59901 5.39405 12.2927C6.08247 15.1463 7.85468 18.1113 10.3837 20.6397C12.9128 23.1682 15.8771 24.9386 18.7313 25.6294C21.4257 26.2797 23.6726 25.8752 25.0573 24.4905L25.5852 23.9625C25.7232 23.8245 25.8007 23.6373 25.8007 23.4421C25.8007 23.247 25.7232 23.0598 25.5852 22.9217L22.5524 19.8883C22.4144 19.7504 22.2272 19.6729 22.032 19.6729C21.8369 19.6729 21.6497 19.7504 21.5116 19.8883L19.2405 22.1595C19.1042 22.2958 18.9281 22.3853 18.7376 22.4149C18.5471 22.4445 18.3522 22.4127 18.181 22.3241C16.3191 21.3615 14.4422 19.9598 12.7529 18.2705C11.0637 16.5813 9.66503 14.7055 8.69991 12.8437C8.61128 12.6725 8.57941 12.4776 8.60891 12.2871C8.63841 12.0966 8.72775 11.9205 8.864 11.7841L11.1357 9.51303C11.2737 9.37497 11.3512 9.18779 11.3512 8.99263C11.3512 8.79747 11.2737 8.61029 11.1357 8.47223L8.10232 5.43823C8.03411 5.36962 7.95296 5.31524 7.86358 5.27824C7.77419 5.24124 7.67835 5.22236 7.58161 5.22268Z" fill="white"/>
<path d="M22.0845 16.8313C21.8436 16.8313 21.6126 16.7356 21.4423 16.5653C21.272 16.395 21.1763 16.164 21.1763 15.9231C21.1745 14.3298 20.5408 12.8023 19.4143 11.6756C18.2877 10.5489 16.7603 9.91513 15.167 9.91321C14.9261 9.91321 14.6951 9.81752 14.5248 9.6472C14.3545 9.47688 14.2588 9.24588 14.2588 9.005C14.2588 8.76413 14.3545 8.53313 14.5248 8.36281C14.6951 8.19249 14.9261 8.0968 15.167 8.0968C19.4822 8.0968 22.9927 11.6085 22.9927 15.9231C22.9927 16.164 22.897 16.395 22.7267 16.5653C22.5563 16.7356 22.3253 16.8313 22.0845 16.8313Z" fill="white"/>
<path d="M25.9231 16.8313C25.6823 16.8313 25.4513 16.7357 25.2809 16.5653C25.1106 16.395 25.0149 16.164 25.0149 15.9231C25.0149 10.4927 20.595 6.07459 15.167 6.07459C14.9261 6.07459 14.6951 5.9789 14.5248 5.80858C14.3545 5.63826 14.2588 5.40725 14.2588 5.16638C14.2588 4.92551 14.3545 4.69451 14.5248 4.52419C14.6951 4.35386 14.9261 4.25818 15.167 4.25818C21.5989 4.25818 26.8313 9.49125 26.8313 15.9231C26.8313 16.164 26.7357 16.395 26.5653 16.5653C26.395 16.7357 26.164 16.8313 25.9231 16.8313Z" fill="white"/>
</svg>
