<svg width="153" height="66" viewBox="0 0 153 66" fill="none" xmlns="http://www.w3.org/2000/svg">
<path fill-rule="evenodd" clip-rule="evenodd" d="M3.84937 64.3454C3.64909 65.1444 2.83545 65.6311 2.03204 65.4323C1.22864 65.2336 0.739709 64.4248 0.939989 63.6258C9.01073 31.4272 36.2686 12.1797 66.4578 4.61408C95.6683 -2.70624 128.025 0.797674 149.136 14.4005C148.504 11.773 147.663 9.09962 146.721 6.15348C146.47 5.36896 146.906 4.53039 147.695 4.28049C148.485 4.03059 149.328 4.46399 149.578 5.24852C150.86 9.25695 152.021 12.9584 152.697 16.773L152.714 16.866L152.718 16.9602C152.728 17.1642 152.745 17.281 152.758 17.3717L152.76 17.3846L152.76 17.389C152.765 17.4184 152.788 17.5688 152.787 17.7186C152.786 17.9314 152.742 18.3973 152.353 18.8026C152.076 19.0909 151.743 19.1999 151.721 19.207L151.72 19.2074C151.639 19.2369 151.641 19.235 151.641 19.235C151.641 19.235 151.642 19.2342 151.609 19.2466C151.592 19.2533 151.516 19.2824 151.359 19.3818C151.173 19.5004 150.867 19.6424 150.611 19.7587C150.309 19.8959 149.921 20.0651 149.48 20.2531C148.597 20.6296 147.477 21.0917 146.356 21.5412C145.237 21.9903 144.106 22.431 143.205 22.7633C142.756 22.9288 142.351 23.0721 142.028 23.1768C141.867 23.2289 141.712 23.276 141.575 23.3125C141.475 23.3388 141.262 23.3941 141.041 23.4048C140.214 23.4448 139.511 22.8105 139.471 21.9881C139.434 21.2031 140.013 20.5304 140.786 20.4362L140.805 20.4312C140.868 20.4144 140.965 20.3856 141.1 20.3418C141.368 20.255 141.73 20.1274 142.164 19.9675C143.029 19.6489 144.13 19.2198 145.236 18.7761C146.341 18.3329 147.44 17.8792 148.3 17.5128C148.327 17.5011 148.354 17.4896 148.381 17.4782C128.185 3.97072 96.2423 0.224414 67.189 7.50532C37.6718 14.9025 11.5654 33.5621 3.84937 64.3454Z" fill="white"/>
</svg>
