<svg width="177" height="86" viewBox="0 0 177 86" fill="none" xmlns="http://www.w3.org/2000/svg">
<path d="M175.488 2.08779C172.529 66.6627 116.078 72.0047 85.3816 59.3132M85.3816 59.3132C72.1116 53.8268 63.6544 44.9705 66.4121 36.0723C67.3742 29.9104 77.4049 23.426 83.8903 33.3768C87.4708 38.8704 90.9482 48.725 85.3816 59.3132ZM85.3816 59.3132C85.0937 59.861 83.3479 62.1628 83.0103 62.714C76.1465 73.9196 66.1411 78.9167 66.1411 78.9167C43.4246 90.1267 16.1959 83.8433 6.20445 60.2554M14.0222 62.0768C13.5759 61.7339 7.05194 59.5965 6.4749 59.5159C5.59929 59.3936 6.0687 59.1338 5.53165 59.823C4.05292 62.319 2.89914 64.9977 1.63087 67.9932" stroke="white" stroke-width="3" stroke-linecap="round"/>
</svg>
