<svg width="91" height="77" viewBox="0 0 91 77" fill="none" xmlns="http://www.w3.org/2000/svg">
<path d="M90.1562 0H37.8438C37.62 0 37.4054 0.0885957 37.2471 0.246297C37.0889 0.403998 37 0.617886 37 0.840909V36.1591C37 36.3821 37.0889 36.596 37.2471 36.7537C37.4054 36.9114 37.62 37 37.8438 37H90.1562C90.38 37 90.5946 36.9114 90.7529 36.7537C90.9111 36.596 91 36.3821 91 36.1591V0.840909C91 0.617886 90.9111 0.403998 90.7529 0.246297C90.5946 0.0885957 90.38 0 90.1562 0ZM89.3125 30.1424L79.3014 23.5455H89.3125V30.1424ZM89.3125 13.4545H79.4364L89.3125 6.86602V13.4545ZM89.3125 4.84364L76.3989 13.4545H69.0625V12.1385L84.9292 1.68182H89.3125V4.84364ZM73.8128 6.99216L69.0625 10.1245V1.68182H81.8706L73.8128 6.99216ZM58.9375 1.68182V10.1245L54.1872 6.99216L46.1294 1.68182H58.9375ZM38.6875 1.68182H43.0708L58.9375 12.1385V13.4545H51.7656L38.6875 4.83943V1.68182ZM38.6875 23.5455H48.6986L38.6875 30.1424V23.5455ZM38.6875 6.85761L48.6986 13.4545H38.6875V6.85761ZM38.6875 35.3182V32.1606L51.7656 23.5455H58.9375V24.8615L43.0708 35.3182H38.6875ZM58.9375 35.3182H46.1294L58.9375 26.8755V35.3182ZM60.625 35.3182V22.7045C60.625 22.4815 60.5361 22.2676 60.3779 22.1099C60.2196 21.9522 60.005 21.8636 59.7812 21.8636H38.6875V15.1364H59.7812C60.005 15.1364 60.2196 15.0478 60.3779 14.8901C60.5361 14.7324 60.625 14.5185 60.625 14.2955V1.68182H67.375V14.2955C67.375 14.5185 67.4639 14.7324 67.6221 14.8901C67.7804 15.0478 67.995 15.1364 68.2188 15.1364H89.3125V21.8636H68.2188C67.995 21.8636 67.7804 21.9522 67.6221 22.1099C67.4639 22.2676 67.375 22.4815 67.375 22.7045V35.3182H60.625ZM69.0625 26.8755L81.8706 35.3182H69.0625V26.8755ZM89.3125 35.3182H84.9292L69.0625 24.8615V23.5455H76.2344L89.3125 32.1606V35.3182Z" fill="#1C1B1F"/>
<mask id="path-2-inside-1_104_768" fill="white">
<rect x="0.875" y="40.25" width="54.25" height="36.75" rx="1"/>
</mask>
<rect x="0.875" y="40.25" width="54.25" height="36.75" rx="1" stroke="#1C1B1F" stroke-width="4" mask="url(#path-2-inside-1_104_768)"/>
<path d="M2.625 52.0625H53.8125" stroke="#1C1B1F" stroke-width="2" stroke-linecap="round"/>
<path d="M2.625 64.75H53.8125" stroke="#1C1B1F" stroke-width="2" stroke-linecap="round"/>
</svg>
