<svg width="103" height="88" viewBox="0 0 103 88" fill="none" xmlns="http://www.w3.org/2000/svg">
<g clip-path="url(#clip0_104_770)">
<path d="M49.4033 69H21.3721C19.9609 69.0158 18.6009 68.4715 17.5904 67.4862C16.5799 66.501 16.0013 65.1553 15.9814 63.7441V5.25583C16.0013 3.84467 16.5799 2.49896 17.5904 1.51373C18.6009 0.528499 19.9609 -0.0158672 21.3721 -3.00812e-05H49.4033C50.8145 -0.0158672 52.1745 0.528499 53.1849 1.51373C54.1954 2.49896 54.7741 3.84467 54.7939 5.25583V63.7441C54.7741 65.1553 54.1954 66.501 53.1849 67.4862C52.1745 68.4715 50.8145 69.0158 49.4033 69ZM21.3721 2.15622C20.5327 2.14031 19.7212 2.45748 19.115 3.03836C18.5089 3.61924 18.1575 4.41653 18.1377 5.25583V63.7441C18.1575 64.5834 18.5089 65.3807 19.115 65.9616C19.7212 66.5425 20.5327 66.8596 21.3721 66.8437H49.4033C50.2427 66.8596 51.0542 66.5425 51.6604 65.9616C52.2665 65.3807 52.6179 64.5834 52.6377 63.7441V5.25583C52.6179 4.41653 52.2665 3.61924 51.6604 3.03836C51.0542 2.45748 50.2427 2.14031 49.4033 2.15622H21.3721Z" fill="#1C1B1F"/>
<path d="M41.3443 6.46877H29.4311C27.9594 6.46877 26.7627 5.08338 26.7627 3.38533V1.34229H28.9189V3.38533C28.9189 3.92439 29.2262 4.31252 29.4311 4.31252H41.3443C41.5492 4.31252 41.8564 3.94057 41.8564 3.38533V1.6765H44.0127V3.38533C44.0127 5.08338 42.816 6.46877 41.3443 6.46877Z" fill="#1C1B1F"/>
<rect x="44.8877" y="42" width="13" height="28" fill="#B7EFCD"/>
</g>
<rect x="44.8877" y="42" width="57" height="45" rx="2" stroke="#1C1B1F" stroke-width="2"/>
<path d="M49.8877 49H67.8877" stroke="black" stroke-width="2" stroke-linecap="round"/>
<mask id="path-6-inside-1_104_770" fill="white">
<path d="M62.1767 62.6445C62.1767 61.3303 61.787 60.0457 61.0569 58.953C60.3268 57.8603 59.289 57.0087 58.0749 56.5058C56.8608 56.0029 55.5248 55.8713 54.2359 56.1277C52.947 56.3841 51.7631 57.0169 50.8338 57.9461C49.9046 58.8754 49.2717 60.0593 49.0154 61.3482C48.759 62.6371 48.8906 63.9731 49.3935 65.1872C49.8964 66.4013 50.748 67.4391 51.8407 68.1692C52.9334 68.8993 54.218 69.289 55.5322 69.289V67.3939C54.5928 67.3939 53.6746 67.1153 52.8935 66.5935C52.1125 66.0716 51.5038 65.3298 51.1443 64.462C50.7848 63.5942 50.6908 62.6392 50.874 61.7179C51.0573 60.7966 51.5096 59.9504 52.1738 59.2861C52.8381 58.6219 53.6843 58.1696 54.6056 57.9863C55.5269 57.8031 56.4819 57.8971 57.3497 58.2566C58.2175 58.6161 58.9593 59.2248 59.4812 60.0059C60.003 60.7869 60.2816 61.7051 60.2816 62.6445H62.1767Z"/>
</mask>
<path d="M62.1767 62.6445C62.1767 61.3303 61.787 60.0457 61.0569 58.953C60.3268 57.8603 59.289 57.0087 58.0749 56.5058C56.8608 56.0029 55.5248 55.8713 54.2359 56.1277C52.947 56.3841 51.7631 57.0169 50.8338 57.9461C49.9046 58.8754 49.2717 60.0593 49.0154 61.3482C48.759 62.6371 48.8906 63.9731 49.3935 65.1872C49.8964 66.4013 50.748 67.4391 51.8407 68.1692C52.9334 68.8993 54.218 69.289 55.5322 69.289V67.3939C54.5928 67.3939 53.6746 67.1153 52.8935 66.5935C52.1125 66.0716 51.5038 65.3298 51.1443 64.462C50.7848 63.5942 50.6908 62.6392 50.874 61.7179C51.0573 60.7966 51.5096 59.9504 52.1738 59.2861C52.8381 58.6219 53.6843 58.1696 54.6056 57.9863C55.5269 57.8031 56.4819 57.8971 57.3497 58.2566C58.2175 58.6161 58.9593 59.2248 59.4812 60.0059C60.003 60.7869 60.2816 61.7051 60.2816 62.6445H62.1767Z" stroke="#1C1B1F" stroke-width="3.82757" mask="url(#path-6-inside-1_104_770)"/>
<circle cx="61.227" cy="62.6444" r="0.949211" fill="#1C1B1F"/>
<circle cx="55.532" cy="68.3397" r="0.949211" fill="#1C1B1F"/>
<path fill-rule="evenodd" clip-rule="evenodd" d="M77.9159 66.0133C77.5195 65.7184 76.9639 65.8086 76.6 66.1427C75.9973 66.6961 75.2579 67.088 74.4506 67.2734C73.3507 67.526 72.1968 67.3787 71.1957 66.8578C70.1945 66.3369 69.4115 65.4766 68.987 64.431C68.5625 63.3853 68.5243 62.2226 68.8791 61.1513C69.2339 60.08 69.9586 59.1701 70.9233 58.5845C71.888 57.9989 73.0297 57.776 74.1439 57.9557C75.258 58.1354 76.2718 58.7059 77.0035 59.5651C77.5289 60.1821 77.8842 60.9189 78.0428 61.7032C78.1466 62.2161 78.5613 62.6445 79.0846 62.6445C79.6079 62.6445 80.0391 62.2182 79.9647 61.7002C79.9175 61.3713 79.8458 61.0473 79.7505 60.7307C79.4879 59.8576 79.0464 59.0411 78.4462 58.3364C77.4226 57.1344 76.0043 56.3362 74.4456 56.0848C72.8869 55.8334 71.2896 56.1452 69.94 56.9645C68.5903 57.7837 67.5764 59.0568 67.0801 60.5555C66.5837 62.0543 66.6373 63.6809 67.2311 65.1438C67.825 66.6067 68.9204 67.8103 70.321 68.539C71.7216 69.2677 73.336 69.4738 74.8748 69.1204C75.7769 68.9132 76.6185 68.5217 77.3504 67.9779C77.3877 67.9502 77.3877 68 77.8877 67.5L78.0356 67.3417C78.3998 66.9518 78.344 66.3318 77.9159 66.0133Z" fill="#1C1B1F"/>
<mask id="path-10-inside-2_104_770" fill="white">
<path d="M97.8876 62.6445C97.8876 61.2469 97.4469 59.885 96.6283 58.7523C95.8096 57.6196 94.6547 56.7739 93.3277 56.3355C92.0007 55.897 90.5693 55.8881 89.2369 56.3101C87.9046 56.7321 86.7393 57.5634 85.9066 58.6858L87.4287 59.8149C88.0238 59.0126 88.8568 58.4183 89.8091 58.1167C90.7614 57.8151 91.7846 57.8215 92.7331 58.1349C93.6817 58.4483 94.5072 59.0528 95.0924 59.8624C95.6775 60.672 95.9925 61.6455 95.9925 62.6445H97.8876Z"/>
</mask>
<path d="M97.8876 62.6445C97.8876 61.2469 97.4469 59.885 96.6283 58.7523C95.8096 57.6196 94.6547 56.7739 93.3277 56.3355C92.0007 55.897 90.5693 55.8881 89.2369 56.3101C87.9046 56.7321 86.7393 57.5634 85.9066 58.6858L87.4287 59.8149C88.0238 59.0126 88.8568 58.4183 89.8091 58.1167C90.7614 57.8151 91.7846 57.8215 92.7331 58.1349C93.6817 58.4483 94.5072 59.0528 95.0924 59.8624C95.6775 60.672 95.9925 61.6455 95.9925 62.6445H97.8876Z" stroke="#1C1B1F" stroke-width="3.82757" mask="url(#path-10-inside-2_104_770)"/>
<circle cx="96.9382" cy="62.6444" r="0.949211" fill="#1C1B1F"/>
<circle cx="86.8369" cy="58.9492" r="0.949211" fill="#1C1B1F"/>
<rect x="78.8877" y="76" width="18" height="6" rx="3" stroke="black" stroke-width="2"/>
<defs>
<clipPath id="clip0_104_770">
<rect width="69" height="69" fill="white" transform="translate(0.887695)"/>
</clipPath>
</defs>
</svg>
