<svg width="77" height="77" viewBox="0 0 77 77" fill="none" xmlns="http://www.w3.org/2000/svg">
<mask id="path-1-outside-1_104_766" maskUnits="userSpaceOnUse" x="1.92798" y="5.23291" width="71" height="66" fill="black">
<rect fill="white" x="1.92798" y="5.23291" width="71" height="66"/>
<path d="M69.9408 42.1682C71.3522 40.3821 72.1049 38.1642 72.0721 35.8881C72.0457 33.5736 71.1148 31.3614 69.4784 29.7244C67.8421 28.0874 65.6301 27.1557 63.3157 27.1285H53.3242C53.395 26.9776 53.4843 26.8205 53.586 26.6388C53.7954 26.2785 53.934 26.0228 54.011 25.8719C54.51 24.9294 54.8981 24.1379 55.166 23.5219C55.5049 22.6846 55.7798 21.8228 55.9884 20.9439C56.2618 19.8561 56.4014 18.7391 56.4042 17.6175C56.4042 17.0015 56.4042 16.4409 56.3826 15.9974C56.3457 15.3452 56.2737 14.6954 56.167 14.0509C56.0645 13.2923 55.885 12.5461 55.6311 11.824C55.3477 11.1133 54.9872 10.4357 54.5562 9.80353C54.0653 9.0385 53.4227 8.38228 52.6681 7.87545C51.8306 7.35032 50.919 6.95372 49.9639 6.69889C48.7841 6.37602 47.5649 6.21948 46.3418 6.23381C45.8775 6.22937 45.4172 6.31998 44.9892 6.50007C44.5612 6.68016 44.1746 6.94593 43.8532 7.28101C43.1988 7.95063 42.6662 8.7292 42.2793 9.58177C41.9234 10.316 41.6377 11.0822 41.4261 11.8702C41.2721 12.4862 41.0966 13.3425 40.9056 14.4081C40.6561 15.5724 40.4775 16.3639 40.3635 16.8352C40.1896 17.4614 39.9672 18.073 39.6983 18.6647C39.4453 19.2812 39.0798 19.8453 38.6203 20.3279C37.1303 21.9125 35.7279 23.5771 34.4191 25.3144C33.1071 27.0269 31.7365 28.6685 30.3474 30.1931C28.4994 32.2167 27.8834 32.2999 27.8557 32.3029C26.9631 32.3686 26.1272 32.7651 25.5118 33.4148C25.1937 33.7322 24.9419 34.1097 24.7711 34.5253C24.6003 34.9409 24.5139 35.3864 24.5169 35.8357V61.9941C24.5134 62.4552 24.6051 62.9121 24.7863 63.3361C24.9676 63.7601 25.2345 64.1421 25.5703 64.4581C26.2258 65.1136 27.1076 65.4928 28.0343 65.5177C28.6226 65.5177 30.1687 65.8503 34.2128 67.264C36.3688 67.994 37.9919 68.5237 39.1408 68.8841C40.2896 69.2445 42.0452 69.6633 44.192 70.0915C46.1846 70.5038 48.2125 70.7215 50.2473 70.7413H55.5264C59.4072 70.6828 62.3455 69.5093 64.2582 67.2301C65.9152 65.2589 66.6667 62.6933 66.5004 59.6041C67.5451 58.4952 68.2875 57.1367 68.6564 55.6586C69.1178 54.0838 69.1593 52.4157 68.7765 50.8199C69.9548 49.126 70.5416 47.0907 70.4459 45.0295C70.4186 44.0561 70.2485 43.092 69.9408 42.1682ZM68.2067 41.3612C68.1002 41.4832 68.0276 41.6311 67.9963 41.7901C67.9649 41.949 67.9759 42.1134 68.0281 42.2667C68.3656 43.1645 68.5549 44.1111 68.5887 45.0695V45.1096C68.6835 46.9091 68.127 48.6826 67.0209 50.1053C66.9329 50.2215 66.8737 50.3569 66.848 50.5003C66.8223 50.6438 66.8309 50.7913 66.8731 50.9308C67.286 52.3248 67.286 53.8087 66.8731 55.2027C66.5556 56.4919 65.8821 57.6658 64.9296 58.5907C64.8296 58.6853 64.752 58.801 64.7024 58.9295C64.6529 59.0579 64.6326 59.1958 64.6432 59.333C64.868 62.1543 64.2859 64.3534 62.8568 66.0505C61.3168 67.8985 58.8312 68.8564 55.5233 68.9057H50.2503C48.3365 68.8861 46.4292 68.6798 44.5554 68.2897C42.4733 67.8769 40.8348 67.4858 39.689 67.1316C38.5433 66.7774 36.9601 66.263 34.8041 65.5423C30.1841 63.9253 28.755 63.7128 28.0867 63.6943C27.6212 63.6857 27.1782 63.493 26.8547 63.1584C26.6947 63.0128 26.5678 62.8347 26.4822 62.636C26.3967 62.4373 26.3546 62.2227 26.3588 62.0065V35.848C26.3554 35.6369 26.3955 35.4273 26.4766 35.2323C26.5577 35.0373 26.678 34.8611 26.83 34.7146C27.1355 34.3873 27.5538 34.188 28.0004 34.1571C28.9244 34.077 30.0702 33.2331 31.6964 31.4498C33.1194 29.8882 34.5239 28.2065 35.8637 26.4571C37.1263 24.7827 38.4772 23.1768 39.9108 21.6461C40.5397 20.9979 41.0412 20.2373 41.3892 19.4039C41.7007 18.7162 41.9561 18.0044 42.153 17.2756C42.2731 16.7828 42.461 15.9882 42.7105 14.7808C42.7093 14.7706 42.7093 14.7602 42.7105 14.75C42.8922 13.7182 43.0616 12.902 43.2064 12.323C43.3913 11.6499 43.6377 10.9952 43.9425 10.3672C44.2373 9.70914 44.6449 9.10771 45.1468 8.59001C45.2977 8.4279 45.4809 8.29921 45.6847 8.21221C45.8884 8.12521 46.108 8.08184 46.3295 8.08489C47.3805 8.07105 48.4284 8.20268 49.4434 8.47605C50.2173 8.68038 50.9565 8.99908 51.6363 9.42161C52.1843 9.78491 52.651 10.2579 53.0069 10.8107C53.3638 11.3268 53.6634 11.8804 53.9001 12.4616C54.1077 13.0615 54.2553 13.6805 54.3406 14.3096C54.4343 14.8829 54.499 15.4607 54.5346 16.0405C54.5346 16.4625 54.5562 16.9892 54.5562 17.6021C54.5577 18.5726 54.4408 19.5397 54.2081 20.4819C54.0209 21.2696 53.7738 22.0418 53.4689 22.7919C53.2225 23.3617 52.8529 24.1101 52.3663 25.0311C52.2985 25.1666 52.1723 25.3976 51.9875 25.7117C51.7934 26.0398 51.6235 26.3815 51.4793 26.7343C51.3591 27.0423 51.239 27.3934 51.122 27.8C51.0823 27.9377 51.0752 28.0828 51.1013 28.2238C51.1274 28.3648 51.186 28.4977 51.2723 28.6122C51.3587 28.7266 51.4705 28.8194 51.5989 28.8832C51.7273 28.9469 51.8687 28.98 52.0121 28.9796H63.3157C65.1393 29.0074 66.8803 29.7442 68.1699 31.0338C69.4595 32.3234 70.1963 34.0645 70.2241 35.8881C70.2667 37.9017 69.546 39.8569 68.2067 41.3612ZM11.6907 53.2469C11.2205 53.2385 10.7536 53.3281 10.3198 53.51C9.88605 53.6918 9.49491 53.962 9.17129 54.3034C8.53579 54.9718 8.18662 55.8621 8.19826 56.7843C8.2099 57.7066 8.58143 58.5877 9.2336 59.2399C9.88577 59.8921 10.767 60.2636 11.6892 60.2752C12.6114 60.2869 13.5017 59.9377 14.1701 59.3022C14.6642 58.8075 15.0011 58.1779 15.1385 57.4923C15.2759 56.8068 15.2077 56.096 14.9425 55.4491C14.6773 54.8022 14.2269 54.248 13.6478 53.8562C13.0687 53.4645 12.3868 53.2525 11.6877 53.2469H11.6907ZM12.8827 57.9778C12.5623 58.2905 12.1323 58.4655 11.6846 58.4655C11.2369 58.4655 10.8069 58.2905 10.4865 57.9778C10.329 57.8223 10.2055 57.6358 10.1238 57.4301C10.0422 57.2244 10.0042 57.004 10.0121 56.7828C10.0083 56.5609 10.05 56.3407 10.1348 56.1356C10.2196 55.9306 10.3456 55.7452 10.5049 55.5908C10.6572 55.4277 10.8427 55.2991 11.0488 55.2136C11.2549 55.128 11.4769 55.0876 11.7 55.0949C12.1447 55.1044 12.5685 55.2852 12.883 55.5997C13.1975 55.9142 13.3784 56.3381 13.3878 56.7828C13.3936 57.0067 13.3512 57.2293 13.2635 57.4355C13.1759 57.6417 13.0449 57.8266 12.8796 57.9778H12.8827ZM18.2173 32.3399H6.46397C5.99966 32.3354 5.53935 32.4261 5.11137 32.6061C4.68338 32.7862 4.29677 33.052 3.97533 33.3871C3.64025 33.7085 3.37448 34.0951 3.19439 34.5231C3.0143 34.9511 2.92369 35.4114 2.92813 35.8757V61.9941C2.92399 62.4589 3.01473 62.9195 3.19479 63.348C3.37485 63.7764 3.64045 64.1636 3.97533 64.4859C4.29737 64.8199 4.68416 65.0848 5.11205 65.2644C5.53995 65.4439 5.99996 65.5343 6.46397 65.53H18.2173C19.1523 65.5211 20.0465 65.1458 20.7077 64.4846C21.3689 63.8234 21.7443 62.9292 21.7531 61.9941V35.8757C21.7427 34.9412 21.3668 34.0479 20.706 33.387C20.0451 32.7262 19.1518 32.3503 18.2173 32.3399ZM19.9051 61.9941C19.8957 62.4388 19.7148 62.8627 19.4003 63.1772C19.0858 63.4917 18.6619 63.6725 18.2173 63.682H6.46397C6.02113 63.6734 5.59861 63.4945 5.28427 63.1825C4.96993 62.8704 4.78794 62.4492 4.77613 62.0065V35.8881C4.78242 35.4412 4.96188 35.0143 5.27672 34.6971C5.59156 34.38 6.0172 34.1974 6.46397 34.1879H18.2173C18.6619 34.1973 19.0858 34.3782 19.4003 34.6927C19.7148 35.0072 19.8957 35.431 19.9051 35.8757V61.9941Z"/>
</mask>
<path d="M69.9408 42.1682C71.3522 40.3821 72.1049 38.1642 72.0721 35.8881C72.0457 33.5736 71.1148 31.3614 69.4784 29.7244C67.8421 28.0874 65.6301 27.1557 63.3157 27.1285H53.3242C53.395 26.9776 53.4843 26.8205 53.586 26.6388C53.7954 26.2785 53.934 26.0228 54.011 25.8719C54.51 24.9294 54.8981 24.1379 55.166 23.5219C55.5049 22.6846 55.7798 21.8228 55.9884 20.9439C56.2618 19.8561 56.4014 18.7391 56.4042 17.6175C56.4042 17.0015 56.4042 16.4409 56.3826 15.9974C56.3457 15.3452 56.2737 14.6954 56.167 14.0509C56.0645 13.2923 55.885 12.5461 55.6311 11.824C55.3477 11.1133 54.9872 10.4357 54.5562 9.80353C54.0653 9.0385 53.4227 8.38228 52.6681 7.87545C51.8306 7.35032 50.919 6.95372 49.9639 6.69889C48.7841 6.37602 47.5649 6.21948 46.3418 6.23381C45.8775 6.22937 45.4172 6.31998 44.9892 6.50007C44.5612 6.68016 44.1746 6.94593 43.8532 7.28101C43.1988 7.95063 42.6662 8.7292 42.2793 9.58177C41.9234 10.316 41.6377 11.0822 41.4261 11.8702C41.2721 12.4862 41.0966 13.3425 40.9056 14.4081C40.6561 15.5724 40.4775 16.3639 40.3635 16.8352C40.1896 17.4614 39.9672 18.073 39.6983 18.6647C39.4453 19.2812 39.0798 19.8453 38.6203 20.3279C37.1303 21.9125 35.7279 23.5771 34.4191 25.3144C33.1071 27.0269 31.7365 28.6685 30.3474 30.1931C28.4994 32.2167 27.8834 32.2999 27.8557 32.3029C26.9631 32.3686 26.1272 32.7651 25.5118 33.4148C25.1937 33.7322 24.9419 34.1097 24.7711 34.5253C24.6003 34.9409 24.5139 35.3864 24.5169 35.8357V61.9941C24.5134 62.4552 24.6051 62.9121 24.7863 63.3361C24.9676 63.7601 25.2345 64.1421 25.5703 64.4581C26.2258 65.1136 27.1076 65.4928 28.0343 65.5177C28.6226 65.5177 30.1687 65.8503 34.2128 67.264C36.3688 67.994 37.9919 68.5237 39.1408 68.8841C40.2896 69.2445 42.0452 69.6633 44.192 70.0915C46.1846 70.5038 48.2125 70.7215 50.2473 70.7413H55.5264C59.4072 70.6828 62.3455 69.5093 64.2582 67.2301C65.9152 65.2589 66.6667 62.6933 66.5004 59.6041C67.5451 58.4952 68.2875 57.1367 68.6564 55.6586C69.1178 54.0838 69.1593 52.4157 68.7765 50.8199C69.9548 49.126 70.5416 47.0907 70.4459 45.0295C70.4186 44.0561 70.2485 43.092 69.9408 42.1682ZM68.2067 41.3612C68.1002 41.4832 68.0276 41.6311 67.9963 41.7901C67.9649 41.949 67.9759 42.1134 68.0281 42.2667C68.3656 43.1645 68.5549 44.1111 68.5887 45.0695V45.1096C68.6835 46.9091 68.127 48.6826 67.0209 50.1053C66.9329 50.2215 66.8737 50.3569 66.848 50.5003C66.8223 50.6438 66.8309 50.7913 66.8731 50.9308C67.286 52.3248 67.286 53.8087 66.8731 55.2027C66.5556 56.4919 65.8821 57.6658 64.9296 58.5907C64.8296 58.6853 64.752 58.801 64.7024 58.9295C64.6529 59.0579 64.6326 59.1958 64.6432 59.333C64.868 62.1543 64.2859 64.3534 62.8568 66.0505C61.3168 67.8985 58.8312 68.8564 55.5233 68.9057H50.2503C48.3365 68.8861 46.4292 68.6798 44.5554 68.2897C42.4733 67.8769 40.8348 67.4858 39.689 67.1316C38.5433 66.7774 36.9601 66.263 34.8041 65.5423C30.1841 63.9253 28.755 63.7128 28.0867 63.6943C27.6212 63.6857 27.1782 63.493 26.8547 63.1584C26.6947 63.0128 26.5678 62.8347 26.4822 62.636C26.3967 62.4373 26.3546 62.2227 26.3588 62.0065V35.848C26.3554 35.6369 26.3955 35.4273 26.4766 35.2323C26.5577 35.0373 26.678 34.8611 26.83 34.7146C27.1355 34.3873 27.5538 34.188 28.0004 34.1571C28.9244 34.077 30.0702 33.2331 31.6964 31.4498C33.1194 29.8882 34.5239 28.2065 35.8637 26.4571C37.1263 24.7827 38.4772 23.1768 39.9108 21.6461C40.5397 20.9979 41.0412 20.2373 41.3892 19.4039C41.7007 18.7162 41.9561 18.0044 42.153 17.2756C42.2731 16.7828 42.461 15.9882 42.7105 14.7808C42.7093 14.7706 42.7093 14.7602 42.7105 14.75C42.8922 13.7182 43.0616 12.902 43.2064 12.323C43.3913 11.6499 43.6377 10.9952 43.9425 10.3672C44.2373 9.70914 44.6449 9.10771 45.1468 8.59001C45.2977 8.4279 45.4809 8.29921 45.6847 8.21221C45.8884 8.12521 46.108 8.08184 46.3295 8.08489C47.3805 8.07105 48.4284 8.20268 49.4434 8.47605C50.2173 8.68038 50.9565 8.99908 51.6363 9.42161C52.1843 9.78491 52.651 10.2579 53.0069 10.8107C53.3638 11.3268 53.6634 11.8804 53.9001 12.4616C54.1077 13.0615 54.2553 13.6805 54.3406 14.3096C54.4343 14.8829 54.499 15.4607 54.5346 16.0405C54.5346 16.4625 54.5562 16.9892 54.5562 17.6021C54.5577 18.5726 54.4408 19.5397 54.2081 20.4819C54.0209 21.2696 53.7738 22.0418 53.4689 22.7919C53.2225 23.3617 52.8529 24.1101 52.3663 25.0311C52.2985 25.1666 52.1723 25.3976 51.9875 25.7117C51.7934 26.0398 51.6235 26.3815 51.4793 26.7343C51.3591 27.0423 51.239 27.3934 51.122 27.8C51.0823 27.9377 51.0752 28.0828 51.1013 28.2238C51.1274 28.3648 51.186 28.4977 51.2723 28.6122C51.3587 28.7266 51.4705 28.8194 51.5989 28.8832C51.7273 28.9469 51.8687 28.98 52.0121 28.9796H63.3157C65.1393 29.0074 66.8803 29.7442 68.1699 31.0338C69.4595 32.3234 70.1963 34.0645 70.2241 35.8881C70.2667 37.9017 69.546 39.8569 68.2067 41.3612ZM11.6907 53.2469C11.2205 53.2385 10.7536 53.3281 10.3198 53.51C9.88605 53.6918 9.49491 53.962 9.17129 54.3034C8.53579 54.9718 8.18662 55.8621 8.19826 56.7843C8.2099 57.7066 8.58143 58.5877 9.2336 59.2399C9.88577 59.8921 10.767 60.2636 11.6892 60.2752C12.6114 60.2869 13.5017 59.9377 14.1701 59.3022C14.6642 58.8075 15.0011 58.1779 15.1385 57.4923C15.2759 56.8068 15.2077 56.096 14.9425 55.4491C14.6773 54.8022 14.2269 54.248 13.6478 53.8562C13.0687 53.4645 12.3868 53.2525 11.6877 53.2469H11.6907ZM12.8827 57.9778C12.5623 58.2905 12.1323 58.4655 11.6846 58.4655C11.2369 58.4655 10.8069 58.2905 10.4865 57.9778C10.329 57.8223 10.2055 57.6358 10.1238 57.4301C10.0422 57.2244 10.0042 57.004 10.0121 56.7828C10.0083 56.5609 10.05 56.3407 10.1348 56.1356C10.2196 55.9306 10.3456 55.7452 10.5049 55.5908C10.6572 55.4277 10.8427 55.2991 11.0488 55.2136C11.2549 55.128 11.4769 55.0876 11.7 55.0949C12.1447 55.1044 12.5685 55.2852 12.883 55.5997C13.1975 55.9142 13.3784 56.3381 13.3878 56.7828C13.3936 57.0067 13.3512 57.2293 13.2635 57.4355C13.1759 57.6417 13.0449 57.8266 12.8796 57.9778H12.8827ZM18.2173 32.3399H6.46397C5.99966 32.3354 5.53935 32.4261 5.11137 32.6061C4.68338 32.7862 4.29677 33.052 3.97533 33.3871C3.64025 33.7085 3.37448 34.0951 3.19439 34.5231C3.0143 34.9511 2.92369 35.4114 2.92813 35.8757V61.9941C2.92399 62.4589 3.01473 62.9195 3.19479 63.348C3.37485 63.7764 3.64045 64.1636 3.97533 64.4859C4.29737 64.8199 4.68416 65.0848 5.11205 65.2644C5.53995 65.4439 5.99996 65.5343 6.46397 65.53H18.2173C19.1523 65.5211 20.0465 65.1458 20.7077 64.4846C21.3689 63.8234 21.7443 62.9292 21.7531 61.9941V35.8757C21.7427 34.9412 21.3668 34.0479 20.706 33.387C20.0451 32.7262 19.1518 32.3503 18.2173 32.3399ZM19.9051 61.9941C19.8957 62.4388 19.7148 62.8627 19.4003 63.1772C19.0858 63.4917 18.6619 63.6725 18.2173 63.682H6.46397C6.02113 63.6734 5.59861 63.4945 5.28427 63.1825C4.96993 62.8704 4.78794 62.4492 4.77613 62.0065V35.8881C4.78242 35.4412 4.96188 35.0143 5.27672 34.6971C5.59156 34.38 6.0172 34.1974 6.46397 34.1879H18.2173C18.6619 34.1973 19.0858 34.3782 19.4003 34.6927C19.7148 35.0072 19.8957 35.431 19.9051 35.8757V61.9941Z" fill="#1C1B1F"/>
<path d="M69.9408 42.1682C71.3522 40.3821 72.1049 38.1642 72.0721 35.8881C72.0457 33.5736 71.1148 31.3614 69.4784 29.7244C67.8421 28.0874 65.6301 27.1557 63.3157 27.1285H53.3242C53.395 26.9776 53.4843 26.8205 53.586 26.6388C53.7954 26.2785 53.934 26.0228 54.011 25.8719C54.51 24.9294 54.8981 24.1379 55.166 23.5219C55.5049 22.6846 55.7798 21.8228 55.9884 20.9439C56.2618 19.8561 56.4014 18.7391 56.4042 17.6175C56.4042 17.0015 56.4042 16.4409 56.3826 15.9974C56.3457 15.3452 56.2737 14.6954 56.167 14.0509C56.0645 13.2923 55.885 12.5461 55.6311 11.824C55.3477 11.1133 54.9872 10.4357 54.5562 9.80353C54.0653 9.0385 53.4227 8.38228 52.6681 7.87545C51.8306 7.35032 50.919 6.95372 49.9639 6.69889C48.7841 6.37602 47.5649 6.21948 46.3418 6.23381C45.8775 6.22937 45.4172 6.31998 44.9892 6.50007C44.5612 6.68016 44.1746 6.94593 43.8532 7.28101C43.1988 7.95063 42.6662 8.7292 42.2793 9.58177C41.9234 10.316 41.6377 11.0822 41.4261 11.8702C41.2721 12.4862 41.0966 13.3425 40.9056 14.4081C40.6561 15.5724 40.4775 16.3639 40.3635 16.8352C40.1896 17.4614 39.9672 18.073 39.6983 18.6647C39.4453 19.2812 39.0798 19.8453 38.6203 20.3279C37.1303 21.9125 35.7279 23.5771 34.4191 25.3144C33.1071 27.0269 31.7365 28.6685 30.3474 30.1931C28.4994 32.2167 27.8834 32.2999 27.8557 32.3029C26.9631 32.3686 26.1272 32.7651 25.5118 33.4148C25.1937 33.7322 24.9419 34.1097 24.7711 34.5253C24.6003 34.9409 24.5139 35.3864 24.5169 35.8357V61.9941C24.5134 62.4552 24.6051 62.9121 24.7863 63.3361C24.9676 63.7601 25.2345 64.1421 25.5703 64.4581C26.2258 65.1136 27.1076 65.4928 28.0343 65.5177C28.6226 65.5177 30.1687 65.8503 34.2128 67.264C36.3688 67.994 37.9919 68.5237 39.1408 68.8841C40.2896 69.2445 42.0452 69.6633 44.192 70.0915C46.1846 70.5038 48.2125 70.7215 50.2473 70.7413H55.5264C59.4072 70.6828 62.3455 69.5093 64.2582 67.2301C65.9152 65.2589 66.6667 62.6933 66.5004 59.6041C67.5451 58.4952 68.2875 57.1367 68.6564 55.6586C69.1178 54.0838 69.1593 52.4157 68.7765 50.8199C69.9548 49.126 70.5416 47.0907 70.4459 45.0295C70.4186 44.0561 70.2485 43.092 69.9408 42.1682ZM68.2067 41.3612C68.1002 41.4832 68.0276 41.6311 67.9963 41.7901C67.9649 41.949 67.9759 42.1134 68.0281 42.2667C68.3656 43.1645 68.5549 44.1111 68.5887 45.0695V45.1096C68.6835 46.9091 68.127 48.6826 67.0209 50.1053C66.9329 50.2215 66.8737 50.3569 66.848 50.5003C66.8223 50.6438 66.8309 50.7913 66.8731 50.9308C67.286 52.3248 67.286 53.8087 66.8731 55.2027C66.5556 56.4919 65.8821 57.6658 64.9296 58.5907C64.8296 58.6853 64.752 58.801 64.7024 58.9295C64.6529 59.0579 64.6326 59.1958 64.6432 59.333C64.868 62.1543 64.2859 64.3534 62.8568 66.0505C61.3168 67.8985 58.8312 68.8564 55.5233 68.9057H50.2503C48.3365 68.8861 46.4292 68.6798 44.5554 68.2897C42.4733 67.8769 40.8348 67.4858 39.689 67.1316C38.5433 66.7774 36.9601 66.263 34.8041 65.5423C30.1841 63.9253 28.755 63.7128 28.0867 63.6943C27.6212 63.6857 27.1782 63.493 26.8547 63.1584C26.6947 63.0128 26.5678 62.8347 26.4822 62.636C26.3967 62.4373 26.3546 62.2227 26.3588 62.0065V35.848C26.3554 35.6369 26.3955 35.4273 26.4766 35.2323C26.5577 35.0373 26.678 34.8611 26.83 34.7146C27.1355 34.3873 27.5538 34.188 28.0004 34.1571C28.9244 34.077 30.0702 33.2331 31.6964 31.4498C33.1194 29.8882 34.5239 28.2065 35.8637 26.4571C37.1263 24.7827 38.4772 23.1768 39.9108 21.6461C40.5397 20.9979 41.0412 20.2373 41.3892 19.4039C41.7007 18.7162 41.9561 18.0044 42.153 17.2756C42.2731 16.7828 42.461 15.9882 42.7105 14.7808C42.7093 14.7706 42.7093 14.7602 42.7105 14.75C42.8922 13.7182 43.0616 12.902 43.2064 12.323C43.3913 11.6499 43.6377 10.9952 43.9425 10.3672C44.2373 9.70914 44.6449 9.10771 45.1468 8.59001C45.2977 8.4279 45.4809 8.29921 45.6847 8.21221C45.8884 8.12521 46.108 8.08184 46.3295 8.08489C47.3805 8.07105 48.4284 8.20268 49.4434 8.47605C50.2173 8.68038 50.9565 8.99908 51.6363 9.42161C52.1843 9.78491 52.651 10.2579 53.0069 10.8107C53.3638 11.3268 53.6634 11.8804 53.9001 12.4616C54.1077 13.0615 54.2553 13.6805 54.3406 14.3096C54.4343 14.8829 54.499 15.4607 54.5346 16.0405C54.5346 16.4625 54.5562 16.9892 54.5562 17.6021C54.5577 18.5726 54.4408 19.5397 54.2081 20.4819C54.0209 21.2696 53.7738 22.0418 53.4689 22.7919C53.2225 23.3617 52.8529 24.1101 52.3663 25.0311C52.2985 25.1666 52.1723 25.3976 51.9875 25.7117C51.7934 26.0398 51.6235 26.3815 51.4793 26.7343C51.3591 27.0423 51.239 27.3934 51.122 27.8C51.0823 27.9377 51.0752 28.0828 51.1013 28.2238C51.1274 28.3648 51.186 28.4977 51.2723 28.6122C51.3587 28.7266 51.4705 28.8194 51.5989 28.8832C51.7273 28.9469 51.8687 28.98 52.0121 28.9796H63.3157C65.1393 29.0074 66.8803 29.7442 68.1699 31.0338C69.4595 32.3234 70.1963 34.0645 70.2241 35.8881C70.2667 37.9017 69.546 39.8569 68.2067 41.3612ZM11.6907 53.2469C11.2205 53.2385 10.7536 53.3281 10.3198 53.51C9.88605 53.6918 9.49491 53.962 9.17129 54.3034C8.53579 54.9718 8.18662 55.8621 8.19826 56.7843C8.2099 57.7066 8.58143 58.5877 9.2336 59.2399C9.88577 59.8921 10.767 60.2636 11.6892 60.2752C12.6114 60.2869 13.5017 59.9377 14.1701 59.3022C14.6642 58.8075 15.0011 58.1779 15.1385 57.4923C15.2759 56.8068 15.2077 56.096 14.9425 55.4491C14.6773 54.8022 14.2269 54.248 13.6478 53.8562C13.0687 53.4645 12.3868 53.2525 11.6877 53.2469H11.6907ZM12.8827 57.9778C12.5623 58.2905 12.1323 58.4655 11.6846 58.4655C11.2369 58.4655 10.8069 58.2905 10.4865 57.9778C10.329 57.8223 10.2055 57.6358 10.1238 57.4301C10.0422 57.2244 10.0042 57.004 10.0121 56.7828C10.0083 56.5609 10.05 56.3407 10.1348 56.1356C10.2196 55.9306 10.3456 55.7452 10.5049 55.5908C10.6572 55.4277 10.8427 55.2991 11.0488 55.2136C11.2549 55.128 11.4769 55.0876 11.7 55.0949C12.1447 55.1044 12.5685 55.2852 12.883 55.5997C13.1975 55.9142 13.3784 56.3381 13.3878 56.7828C13.3936 57.0067 13.3512 57.2293 13.2635 57.4355C13.1759 57.6417 13.0449 57.8266 12.8796 57.9778H12.8827ZM18.2173 32.3399H6.46397C5.99966 32.3354 5.53935 32.4261 5.11137 32.6061C4.68338 32.7862 4.29677 33.052 3.97533 33.3871C3.64025 33.7085 3.37448 34.0951 3.19439 34.5231C3.0143 34.9511 2.92369 35.4114 2.92813 35.8757V61.9941C2.92399 62.4589 3.01473 62.9195 3.19479 63.348C3.37485 63.7764 3.64045 64.1636 3.97533 64.4859C4.29737 64.8199 4.68416 65.0848 5.11205 65.2644C5.53995 65.4439 5.99996 65.5343 6.46397 65.53H18.2173C19.1523 65.5211 20.0465 65.1458 20.7077 64.4846C21.3689 63.8234 21.7443 62.9292 21.7531 61.9941V35.8757C21.7427 34.9412 21.3668 34.0479 20.706 33.387C20.0451 32.7262 19.1518 32.3503 18.2173 32.3399ZM19.9051 61.9941C19.8957 62.4388 19.7148 62.8627 19.4003 63.1772C19.0858 63.4917 18.6619 63.6725 18.2173 63.682H6.46397C6.02113 63.6734 5.59861 63.4945 5.28427 63.1825C4.96993 62.8704 4.78794 62.4492 4.77613 62.0065V35.8881C4.78242 35.4412 4.96188 35.0143 5.27672 34.6971C5.59156 34.38 6.0172 34.1974 6.46397 34.1879H18.2173C18.6619 34.1973 19.0858 34.3782 19.4003 34.6927C19.7148 35.0072 19.8957 35.431 19.9051 35.8757V61.9941Z" stroke="#1C1B1F" stroke-width="0.6" mask="url(#path-1-outside-1_104_766)"/>
</svg>
