<svg width="61" height="83" viewBox="0 0 61 83" fill="none" xmlns="http://www.w3.org/2000/svg">
<g clip-path="url(#clip0_104_771)">
<path d="M45.865 61.5574C45.7136 61.3274 45.4691 61.1622 45.1852 61.098C44.9013 61.0338 44.6013 61.0759 44.3512 61.2151L38.8722 64.2713C38.7427 64.3442 38.6309 64.4407 38.5435 64.5549C38.4561 64.669 38.3951 64.7984 38.3642 64.9351C38.3335 65.0716 38.334 65.2125 38.3655 65.3489C38.397 65.4853 38.4589 65.6142 38.5472 65.7275L41.9799 70.1643C40.6923 71.5336 36.9121 75.1325 30.5013 77.8389C24.1153 75.142 20.3145 71.5336 19.0228 70.1643L22.4658 65.7294C22.5534 65.6156 22.6146 65.4864 22.6456 65.3499C22.6766 65.2134 22.6768 65.0725 22.6461 64.936C22.6155 64.7994 22.5546 64.6701 22.4673 64.5561C22.38 64.4421 22.2682 64.3458 22.1388 64.2732L16.6597 61.2151C16.4096 61.0756 16.1095 61.0332 15.8254 61.0973C15.5413 61.1613 15.2966 61.3264 15.1449 61.5564C14.9933 61.7864 14.9472 62.0623 15.0168 62.3236C15.0864 62.5848 15.266 62.8099 15.5161 62.9493L19.9792 65.4363L16.7378 69.6159C16.6024 69.7896 16.5304 69.9984 16.5323 70.2122C16.5341 70.426 16.6097 70.6337 16.7481 70.8054C16.925 71.0267 21.1886 76.2597 30.053 79.8833C30.1942 79.9408 30.3469 79.9704 30.5013 79.9703C30.6551 79.9706 30.8072 79.941 30.9477 79.8833C39.8121 76.2673 44.0756 71.0343 44.2525 70.8054C44.3909 70.6337 44.4665 70.426 44.4684 70.2122C44.4702 69.9984 44.3982 69.7896 44.2628 69.6159L41.0214 65.4363L45.4845 62.9474C45.6089 62.8793 45.7175 62.7892 45.804 62.6824C45.8905 62.5756 45.9532 62.4542 45.9886 62.325C46.0239 62.1959 46.0312 62.0616 46.01 61.9299C45.9888 61.7981 45.9395 61.6715 45.865 61.5574Z" fill="#1C1B1F"/>
<path d="M0.000244141 81.9862C0.000244141 82.2551 0.116389 82.5129 0.323129 82.703C0.529868 82.8931 0.810268 82.9999 1.10264 82.9999H59.8979C60.1902 82.9999 60.4706 82.8931 60.6774 82.703C60.8841 82.5129 61.0002 82.2551 61.0002 81.9862V80.095C61.0017 75.3279 59.6586 70.642 57.1021 66.4949C54.5455 62.3478 50.8629 58.8813 46.414 56.434C46.2898 56.3655 46.1521 56.3203 46.0089 56.3008C45.8656 56.2813 45.7196 56.2879 45.5791 56.3203C45.4386 56.3527 45.3065 56.4103 45.1902 56.4896C45.0739 56.569 44.9757 56.6686 44.9013 56.7829C44.8269 56.8971 44.7777 57.0237 44.7565 57.1555C44.7353 57.2872 44.7425 57.4215 44.7778 57.5507C44.813 57.6798 44.8756 57.8013 44.9619 57.9083C45.0482 58.0152 45.1566 58.1055 45.2808 58.1739C49.3916 60.4534 52.7946 63.6682 55.1617 67.5083C57.5288 71.3485 58.7803 75.6847 58.7954 80.0988V80.9707H2.20504V80.0988C2.20673 75.5137 3.54946 71.0135 6.09255 67.0696C8.63564 63.1257 12.2855 59.8833 16.6596 57.6822C16.916 57.5528 17.1059 57.335 17.1877 57.0768C17.2695 56.8186 17.2364 56.5411 17.0956 56.3054C16.9549 56.0696 16.7181 55.8949 16.4373 55.8197C16.1565 55.7445 15.8547 55.775 15.5983 55.9044C10.8777 58.2803 6.93887 61.7799 4.19458 66.0366C1.4503 70.2933 0.00158317 75.1503 0.000244141 80.0988L0.000244141 81.9862Z" fill="#1C1B1F"/>
<path d="M30.5014 -5.09609e-05C24.5748 0.00645556 18.893 2.17423 14.7022 6.02775C10.5115 9.88128 8.15405 15.1059 8.14697 20.5556V40.3416C8.14861 41.8368 8.7953 43.2704 9.94512 44.3277C11.095 45.385 12.654 45.9797 14.2801 45.9812H17.032C17.3243 45.9812 17.6047 45.8744 17.8115 45.6843C18.0182 45.4942 18.1344 45.2364 18.1344 44.9675C18.1344 44.6987 18.0182 44.4408 17.8115 44.2507C17.6047 44.0606 17.3243 43.9538 17.032 43.9538H14.2801C13.2386 43.9528 12.24 43.5719 11.5035 42.8947C10.7671 42.2175 10.3529 41.2993 10.3518 40.3416V20.5556C10.413 15.746 12.5053 11.1466 16.1865 7.72939C19.8677 4.31216 24.8495 2.34473 30.0792 2.24283C35.3088 2.14093 40.3768 3.91254 44.2121 7.18332C48.0474 10.4541 50.3497 14.9678 50.6325 19.7708C50.6476 20.0375 50.7766 20.2879 50.9914 20.4677C51.2062 20.6474 51.4895 20.742 51.7796 20.7308C52.0698 20.7195 52.3435 20.6035 52.5411 20.4078C52.7388 20.2121 52.8445 19.9526 52.8352 19.6857C52.6063 14.3846 50.1514 9.37165 45.9864 5.7005C41.8214 2.02935 36.2708 -0.0140157 30.5014 -5.09609e-05Z" fill="#1C1B1F"/>
<path d="M52.8577 28.0809V26.4979C52.8566 25.2993 52.3384 24.15 51.4169 23.3022C50.4953 22.4545 49.2457 21.9775 47.9421 21.976H45.8649C45.7369 21.9305 45.601 21.9068 45.4638 21.906C32.416 21.906 28.8209 13.0892 28.6769 12.7166C28.6013 12.5207 28.4622 12.3507 28.2783 12.2297C28.0945 12.1086 27.8747 12.0423 27.6486 12.0396C27.4234 12.0414 27.2042 12.1066 27.0204 12.2262C26.8366 12.3459 26.697 12.5144 26.6202 12.709C23.5537 20.4498 16.6596 21.8701 16.3737 21.925C16.1249 21.9724 15.9015 22.0972 15.7412 22.2784C15.5808 22.4596 15.4933 22.6861 15.4934 22.9197V31.6931C15.4967 34.176 16.2032 36.6153 17.5433 38.7708C18.8834 40.9263 20.811 42.7237 23.1361 43.986V51.1008C23.1352 51.6228 22.9457 52.1298 22.5973 52.5419L21.7376 53.5594C21.1906 54.2099 20.8531 54.9884 20.7633 55.8065C20.6735 56.6245 20.835 57.4494 21.2296 58.1872L29.512 73.5685C29.6031 73.738 29.7439 73.8807 29.9185 73.9804C30.0931 74.0802 30.2946 74.133 30.5002 74.133C30.7058 74.133 30.9073 74.0802 31.0819 73.9804C31.2565 73.8807 31.3974 73.738 31.4885 73.5685L39.7729 58.1967C40.3077 57.2089 40.4143 56.0711 40.0711 55.0138C39.9793 54.767 39.7875 54.5622 39.5358 54.4421C39.284 54.322 38.9915 54.2957 38.7192 54.3688C38.4469 54.4419 38.2158 54.6086 38.0738 54.8344C37.9318 55.0602 37.8899 55.3277 37.9568 55.5811C38.1392 56.1467 38.0819 56.7549 37.7964 57.2832L30.5012 70.8263L23.204 57.287C22.9924 56.891 22.9059 56.4484 22.9543 56.0094C23.0026 55.5705 23.1839 55.1528 23.4776 54.8038L24.3373 53.7864C24.9867 53.0184 25.3398 52.0736 25.3409 51.1008V44.9846C27.618 45.8096 30.0749 46.1279 32.5111 45.9134C34.9474 45.699 37.294 44.9579 39.3595 43.7507C41.425 42.5434 43.1508 40.9042 44.3961 38.9669C45.6414 37.0295 46.3709 34.8488 46.5251 32.6028H47.9298C48.5763 32.6035 49.2166 32.4872 49.8142 32.2603C50.4118 32.0334 50.9549 31.7005 51.4125 31.2806C51.8701 30.8607 52.2333 30.362 52.4813 29.8129C52.7292 29.2639 52.8571 28.6754 52.8577 28.0809ZM44.3635 31.5834V31.6874C44.3651 33.758 43.7963 35.7952 42.7102 37.6089C41.624 39.4227 40.0558 40.9538 38.152 42.0595C36.2482 43.1652 34.0708 43.8094 31.8231 43.932C29.5753 44.0546 27.3303 43.6516 25.2978 42.7605C25.2366 42.5447 25.0995 42.3536 24.908 42.2168C24.7164 42.0799 24.4811 42.0052 24.2385 42.0041C24.131 42.0052 24.0242 42.0211 23.9218 42.0513C22.0169 40.9474 20.447 39.4178 19.3588 37.6052C18.2705 35.7926 17.6992 33.756 17.6982 31.6855V23.6876C19.7117 23.09 24.6705 21.0985 27.7206 15.4551C28.5039 16.6384 29.4404 17.7301 30.5095 18.7061C32.994 20.9756 37.3789 23.6554 44.3635 23.9126V31.5834ZM50.6488 28.0752C50.6488 28.7365 50.3632 29.3707 49.8549 29.8384C49.3466 30.3062 48.6572 30.5692 47.938 30.5697H46.5683V24.0053H47.938C48.6568 24.0058 49.346 24.2686 49.8542 24.7359C50.3625 25.2033 50.6482 25.837 50.6488 26.4979V28.0752Z" fill="#1C1B1F"/>
<path d="M33.6973 47.1406H32.5189C31.4724 47.1416 30.4692 47.5243 29.7292 48.2047C28.9893 48.8851 28.5731 49.8076 28.572 50.7699V52.0086C28.572 52.1417 28.6005 52.2735 28.6559 52.3965C28.7113 52.5195 28.7925 52.6313 28.8949 52.7254C28.9973 52.8195 29.1188 52.8942 29.2526 52.9451C29.3863 52.9961 29.5296 53.0223 29.6744 53.0223H39.6536C42.3437 53.0193 44.9225 52.0344 46.8234 50.284C48.7242 48.5336 49.7917 46.1609 49.7911 43.6872V37.4746C49.7788 37.2131 49.6572 36.966 49.4516 36.7849C49.246 36.6039 48.9724 36.5028 48.6877 36.5028C48.403 36.5028 48.1293 36.6039 47.9238 36.7849C47.7182 36.966 47.5965 37.2131 47.5843 37.4746V43.6872C47.5837 45.6219 46.7483 47.4773 45.2613 48.846C43.7744 50.2147 41.7575 50.9848 39.6536 50.9874H37.638V50.7699C37.6369 49.8086 37.2216 48.8869 36.483 48.2067C35.7444 47.5265 34.7427 47.1431 33.6973 47.1406ZM35.4394 50.9874H30.7768V50.7699C30.7774 50.3452 30.9611 49.938 31.2876 49.6377C31.6142 49.3374 32.057 49.1685 32.5189 49.168H33.6973C34.1592 49.1685 34.602 49.3374 34.9286 49.6377C35.2551 49.938 35.4388 50.3452 35.4394 50.7699V50.9874Z" fill="#1C1B1F"/>
</g>
<defs>
<clipPath id="clip0_104_771">
<rect width="61" height="83" fill="white" transform="translate(0.000244141)"/>
</clipPath>
</defs>
</svg>
