<svg width="132" height="87" viewBox="0 0 132 87" fill="none" xmlns="http://www.w3.org/2000/svg">
<path opacity="0.5" d="M1.223 25.9622C2.29816 32.4526 5.80945 38.953 9.70158 44.1204C17.5417 54.531 27.3216 63.6439 38.1855 71.3843C48.182 78.507 60.534 86.6541 73.9875 86.422C87.7744 86.1849 100.144 78.3708 109.132 68.9652C116.751 60.9939 122.276 51.5118 126.661 41.7359C129.278 35.9019 131.537 29.8251 131.866 23.572C132.235 16.5508 129.874 9.00854 123.717 4.64398C114.033 -2.22012 100.72 0.135782 89.511 2.38638C76.632 4.97235 63.7701 5.43106 50.8732 3.55645C42.1864 2.29207 33.294 0.508457 24.4002 1.28187C18.8303 1.76639 13.2192 3.3965 8.8281 6.67661C1.73864 11.9729 0.0641944 18.9623 1.223 25.9622Z" fill="#6FDE9B"/>
</svg>
