<?xml version="1.0" encoding="UTF-8" standalone="no"?>
<svg
   width="921"
   height="534"
   viewBox="0 0 921 534"
   fill="none"
   version="1.1"
   id="svg8"
   sodipodi:docname="vision_logo.svg"
   inkscape:version="1.1 (c68e22c387, 2021-05-23)"
   xmlns:inkscape="http://www.inkscape.org/namespaces/inkscape"
   xmlns:sodipodi="http://sodipodi.sourceforge.net/DTD/sodipodi-0.dtd"
   xmlns="http://www.w3.org/2000/svg"
   xmlns:svg="http://www.w3.org/2000/svg">
  <defs
     id="defs12" />
  <sodipodi:namedview
     id="namedview10"
     pagecolor="#ffffff"
     bordercolor="#666666"
     borderopacity="1.0"
     inkscape:pageshadow="2"
     inkscape:pageopacity="0.0"
     inkscape:pagecheckerboard="0"
     showgrid="false"
     inkscape:zoom="0.98350031"
     inkscape:cx="384.34152"
     inkscape:cy="315.7091"
     inkscape:window-width="2400"
     inkscape:window-height="1321"
     inkscape:window-x="4791"
     inkscape:window-y="-9"
     inkscape:window-maximized="1"
     inkscape:current-layer="svg8" />
  <circle
     cx="460"
     cy="266"
     r="265"
     transform="rotate(-90 460 266)"
     stroke="#F3F5F7"
     stroke-width="2"
     id="circle2" />
  <path
     d="M7.83096 244.52L7.8328 244.517C108.626 91.9675 277.676 1.00005 460.1 1.00004C642.524 1.00003 811.574 91.9673 912.367 244.717L912.422 244.801L912.494 244.872C912.538 244.917 912.585 244.964 912.631 245.012C912.691 245.074 912.75 245.138 912.801 245.198L912.801 245.258L912.957 245.503C917.053 251.95 919.2 259.575 919.2 267C919.2 274.381 917.077 281.776 913.01 288.41C912.911 288.511 912.778 288.65 912.658 288.794C912.579 288.889 912.485 289.01 912.406 289.145C912.375 289.198 912.319 289.295 912.274 289.424C811.469 441.889 642.467 533 460.1 533C277.677 533 108.627 441.833 7.83313 289.083L7.77752 288.999L7.70618 288.927C7.60406 288.825 7.48907 288.709 7.3986 288.601L7.3986 288.542L7.24268 288.297C3.14726 281.85 0.999989 274.225 0.999988 266.8C0.999988 259.412 3.12604 252.012 7.19949 245.373C7.343 245.211 7.49237 245.005 7.58772 244.872C7.65516 244.777 7.71538 244.69 7.75861 244.627C7.78033 244.595 7.79799 244.569 7.81041 244.55L7.82501 244.529L7.82912 244.522L7.83033 244.521L7.83071 244.52L7.83085 244.52L6.99847 243.966L7.83096 244.52ZM828.62 267.399L829.07 266.8L828.62 266.2C741.651 150.176 605.785 81.7239 460.1 81.7239C314.415 81.724 178.549 150.176 91.5798 266.2L91.1306 266.799L91.5793 267.399C178.549 383.625 314.416 451.876 460.1 451.876C605.785 451.875 741.651 383.424 828.62 267.399Z"
     stroke="#F3F5F7"
     stroke-width="2"
     id="path4" />
  <path
     d="m 913.342,245.801 h -0.177 z m -0.23,42.574 c 0,0 -0.049,0.049 -0.075,0.077 -0.087,0.089 -0.188,0.197 -0.28,0.309 -0.079,0.094 -0.173,0.216 -0.252,0.35 -0.032,0.053 -0.088,0.152 -0.134,0.284 -11.668,17.876 -24.473,34.811 -38.049,50.988 C 861.438,314.235 846.234,289.447 828.899,266.4 741.911,150.349 606.015,82.0008 460.1,82.0008 314.184,82.0008 178.288,150.55 91.3003,266.4 l -0.4509,0.601 0.4511,0.6 c 87.1875,116.05 222.8835,184.4 368.7995,184.4 83.78,0 162.152,-22.249 229.9,-61.334 l 0.925,-0.534 -0.593,-0.887 C 640.753,314.978 556.047,266.201 460.1,266.201 c -80.37,0 -144.111,20.442 -186.814,40.089 -7.223,3.284 -14.189,0.581 -18.068,-4.473 -3.874,-5.048 -4.611,-12.363 0.635,-18.358 l 0.001,-10e-4 c 39.1,-44.885 106.648,-98.857 204.246,-98.857 153.512,0 284.366,96.404 335.606,231.868 C 701.377,490.849 583.821,532.801 460.1,532.801 277.636,532.801 107.81324,396.486 6.99847,243.966 62.091702,174.84798 117.23591,105.75226 214.67756,55.161665 295.9662,16.613157 377.25484,-1.322787 458.54348,0.79959267 571.12413,2.8481493 660.142,19.936863 807.3866,125.30928 c 56.20017,48.8975 72.85955,76.6957 91.74159,99.58097 26.73048,32.39769 18.79447,55.02692 13.98381,63.48475 z"
     stroke="#00d791"
     stroke-width="2"
     id="path6"
     sodipodi:nodetypes="ccccccccccscccscccsccccscsccccsc" />
</svg>
