<svg width="98" height="127" viewBox="0 0 98 127" fill="none" xmlns="http://www.w3.org/2000/svg">
<path d="M72.4146 71.1212L78.6496 65.0691L91.357 77.9371L85.3002 83.9304L72.4146 71.1212Z" fill="black"/>
<path d="M82.7474 83.6371C82.7474 84.9297 82.6286 86.2812 82.5692 87.5739C85.8352 90.6293 87.0822 91.7457 90.3481 94.9774C98.0082 91.8632 100.087 81.1692 91.9514 76.3511C88.2104 79.289 86.2508 80.6992 82.7474 83.6371Z" fill="black"/>
<path d="M75.8 97.7388L79.8379 101.617L90.4077 90.6878L86.3698 86.8098L75.8 97.7388Z" fill="black"/>
<path d="M75.7395 97.2684C77.3428 97.5622 79.3618 96.9159 79.718 99.5012C79.8962 100.618 80.0743 101.205 80.2525 102.792C80.4306 104.437 80.015 105.318 77.8179 105.788C75.6208 106.258 74.3738 106.552 72.4142 106.963C71.1672 107.257 70.6922 107.022 70.8703 108.844C71.2266 112.722 71.2266 112.428 70.2171 113.133C68.9108 114.014 68.3763 114.485 67.1293 112.252C66.2386 110.665 64.9916 108.609 64.0415 106.963C65.3479 104.789 68.4357 98.8549 69.3264 97.0921C71.5235 97.0334 74.6707 97.2097 75.7395 97.2684Z" fill="black"/>
<path d="M19.5937 65.1654L6.65768 77.9585L12.6603 83.9015L25.5963 71.1084L19.5937 65.1654Z" fill="black"/>
<path d="M15.2314 83.6371C15.2314 84.9297 15.3502 86.2812 15.4096 87.5739C12.1436 90.6293 10.8966 91.7457 7.63071 94.9774C-0.0293968 91.8632 -2.10772 81.1692 6.02743 76.3511C9.70903 79.289 11.6686 80.6992 15.2314 83.6371Z" fill="black"/>
<path d="M22.1791 97.7388L18.1412 101.617L7.51205 90.6878L11.5499 86.8098L22.1791 97.7388Z" fill="black"/>
<path d="M22.1781 97.2684C20.5748 97.5622 18.5559 96.9159 18.1996 99.5012C18.0215 100.618 17.8433 101.205 17.6652 102.792C17.487 104.437 17.9027 105.318 20.0998 105.788C22.2969 106.258 23.5439 106.552 25.5034 106.963C26.7504 107.257 27.2255 107.022 27.0473 108.844C26.6911 112.722 26.6911 112.428 27.7005 113.133C29.0069 114.014 29.5413 114.485 30.7883 112.252C31.679 110.665 32.926 108.609 33.8761 106.963C32.5697 104.789 29.4819 98.8549 28.5912 97.0921C26.3941 97.0334 23.3064 97.2097 22.1781 97.2684Z" fill="black"/>
<path d="M49.1973 7.25098H46.9408V21.3529H49.1973V7.25098Z" fill="black"/>
<path d="M77.639 64.9517C68.2569 60.9561 58.3403 59.0759 48.4237 59.1346V118.069C63.2689 103.673 76.5108 86.2808 77.639 64.9517Z" fill="#A1DAF8"/>
<path d="M69.2066 64.4227C71.2849 65.4804 72.7694 66.4793 74.1945 67.4782C67.722 90.8639 55.2521 101.323 48.4827 106.905L48.6608 114.191C48.6608 114.191 66.6532 101.499 70.7505 88.9836C74.9071 76.4681 77.5792 65.5391 77.5792 65.5391C75.2634 64.5403 72.8882 63.5414 70.5723 62.5425C70.216 63.0125 69.8597 63.6001 69.2066 64.4227Z" fill="white"/>
<path d="M76.5124 65.8917C74.5528 64.599 73.4246 63.8939 70.8119 62.5425C73.8403 63.1301 75.8592 63.7764 78.6501 65.0103C77.1062 76.8794 71.3463 101.382 48.6035 118.128L48.3066 113.016C62.6173 102.733 73.2465 88.161 76.5124 65.8917Z" fill="black"/>
<path d="M19.6266 65.1281C29.0087 61.1325 38.9253 59.076 48.7825 59.1348L48.6043 117.893C34.6499 110.783 21.8236 82.1679 19.6266 65.1281Z" fill="#008BD2"/>
<path d="M34.1726 60.6036C39.1606 59.6047 42.8422 59.2521 47.8896 59.3109H48.8397V60.251V68.8885L46.8801 69.1235V61.1912C42.3078 61.1912 39.0419 61.5437 34.5289 62.4838C29.9566 63.3652 26.1562 64.0703 21.7621 65.8918C23.1278 77.9959 36.0134 108.961 48.7803 113.016L48.6615 118.186C33.4007 110.137 21.5246 81.3452 19.5056 65.1279C24.4936 62.9539 28.8284 61.6612 34.1726 60.6036Z" fill="black"/>
<path d="M48.0684 73.8828C63.5477 73.8828 76.0961 61.466 76.0961 46.1491C76.0961 30.8321 63.5477 18.4153 48.0684 18.4153C32.5892 18.4153 20.0407 30.8321 20.0407 46.1491C20.0407 61.466 32.5892 73.8828 48.0684 73.8828Z" fill="#A1DAF8"/>
<path d="M41.2404 25.4663C43.4968 22.9397 51.5132 21.9408 53.0571 21.7058C62.7955 23.116 69.1493 30.637 71.4651 38.2168C66.7741 31.0483 55.848 22.9985 41.2404 25.4663Z" fill="white"/>
<path d="M69.6249 51.0262C69.6249 51.0262 71.0501 48.2646 72.0595 45.5617C73.3659 41.9775 73.7816 41.3311 69.8624 38.9808C59.7084 32.9287 43.9131 30.9897 32.5714 33.5163C36.1936 25.8778 46.8821 23.3512 55.8486 22.0585C38.0344 17.6517 20.6952 30.1671 22.5954 50.3799C23.783 63.2479 36.0155 72.4729 48.6042 72.4729C36.728 67.1259 32.037 60.6038 30.7306 53.2003L59.4708 52.4952C59.4114 52.4952 69.4468 51.4375 69.6249 51.0262Z" fill="#008BD2"/>
<path d="M48.0687 17.4165C56.0851 17.4165 63.3296 20.6482 68.5551 25.8189C74.7306 31.9297 79.5405 44.2102 74.1962 55.8442C76.3933 45.6203 74.6713 34.5738 67.1893 27.1703C62.3201 22.2934 55.5507 19.2968 48.0687 19.2968C40.5868 19.2968 33.8174 22.2934 28.9482 27.1703C21.5256 34.5738 18.9722 45.9141 21.8819 55.7267C16.4782 43.8576 21.1693 32.1648 27.5824 25.8189C32.8079 20.6482 40.1117 17.4165 48.0687 17.4165Z" fill="black"/>
<path d="M29.7198 39.9206C41.8335 34.8674 54.541 34.985 66.4171 40.0969C70.6331 41.9184 71.4644 41.9184 70.8706 45.4439C70.8113 45.9139 70.6925 46.4428 70.5737 47.0304C70.0987 49.3219 69.5643 51.6135 69.0298 53.7875C67.7828 58.8995 67.189 58.1356 62.7355 57.1955C54.3628 55.374 41.8335 55.374 33.4014 57.1955C29.0073 58.1356 28.4135 58.8995 27.1071 53.7875C26.5727 51.6135 26.0976 49.3219 25.5632 47.0304C24.5537 41.9184 24.91 41.9772 29.7198 39.9206Z" fill="black"/>
<path d="M48.0684 127C55.7285 127 61.9634 125.883 61.9634 124.532C61.9634 123.181 55.7285 122.064 48.0684 122.064C40.4082 122.064 34.1733 123.181 34.1733 124.532C34.2327 125.883 40.4676 127 48.0684 127Z" fill="black"/>
<path d="M48.3658 73.9416C54.3038 73.7066 64.0423 70.2399 68.0208 65.833C65.1111 71.8851 54.6601 77.2908 48.1282 77.4671L48.3658 73.9416Z" fill="black"/>
<path d="M46.8228 110.489C46.8228 108.668 46.5853 107.845 46.6447 106.024C41.4786 103.615 37.2625 100.618 33.3434 93.2144C37.1438 101.323 41.1817 106.846 46.8228 110.489Z" fill="white"/>
<path d="M45.7542 39.0391C53.9487 39.0391 59.8868 40.0967 63.7465 41.5657C66.8343 42.7408 68.2595 43.0346 67.1906 47.4415C66.3593 51.1432 65.9436 52.5534 65.2904 54.845C64.9935 50.4969 64.8154 48.4991 63.2715 46.0313C60.7775 41.9182 51.0984 40.6255 45.7542 39.0391Z" fill="white"/>
<path d="M25.8018 62.8953C31.2648 70.005 39.3999 73.883 48.4852 73.883C48.4258 75.0582 48.4258 76.1746 48.3664 77.3497C36.9653 76.4684 30.3147 72.0615 24.7923 63.5416C24.7329 63.5416 24.9111 63.6591 25.8018 62.8953Z" fill="black"/>
<path d="M48.0693 9.6604C49.8507 9.6604 51.3352 8.19145 51.3352 6.42871C51.3352 4.66597 49.8507 3.19702 48.0693 3.19702C46.2878 3.19702 44.8033 4.66597 44.8033 6.42871C44.8033 8.19145 46.2878 9.6604 48.0693 9.6604Z" fill="black"/>
<path d="M39.5175 61.1913C39.8144 60.8975 42.5459 63.1303 48.0683 63.0716C53.5313 63.0128 56.441 60.8975 56.7379 61.1913C57.3317 61.7201 54.0658 65.8332 48.1277 65.7745C42.3678 65.7157 38.6862 62.0139 39.5175 61.1913Z" fill="black"/>
<path d="M42.1304 1.8455C42.3086 1.61047 42.6648 1.55171 42.9024 1.72798C43.1399 1.90426 43.1993 2.2568 43.0211 2.49184C42.1898 3.54948 41.8335 4.90091 41.7741 6.25235C41.7148 7.7213 42.071 9.19025 42.7836 10.4829C42.9617 10.7767 42.843 11.1293 42.5461 11.2468C42.2492 11.4231 41.8929 11.3055 41.7741 11.0117C40.9428 9.5428 40.5865 7.89757 40.5865 6.19359C40.7053 4.66588 41.1803 3.13817 42.1304 1.8455Z" fill="black"/>
<path d="M38.6864 0.964272C38.8646 0.72924 39.2208 0.611724 39.5177 0.787998C39.8146 0.964272 39.874 1.31682 39.6959 1.55185C38.8052 3.07956 38.3895 4.66603 38.3895 6.25249C38.3895 7.89772 38.8052 9.66046 39.4584 11.4232C39.5771 11.717 39.399 12.0695 39.1021 12.1283C38.8052 12.2458 38.4489 12.0695 38.3895 11.7757C37.6769 9.83673 37.2613 8.01523 37.2019 6.19373C37.2613 4.43099 37.6769 2.66825 38.6864 0.964272Z" fill="black"/>
<path d="M35.2442 0.317854C35.363 0.0240638 35.7193 -0.0934523 36.0162 0.0828218C36.3131 0.200338 36.4318 0.552886 36.2537 0.846676C35.4223 2.4919 34.9473 4.25464 34.9473 6.1349C34.8879 8.07391 35.3036 10.1304 36.0162 12.187C36.1349 12.4808 35.9568 12.8333 35.6599 12.8921C35.363 13.0096 35.0067 12.8333 34.9473 12.5395C34.1754 10.3655 33.7597 8.19143 33.8191 6.1349C33.8191 4.07837 34.2941 2.13935 35.2442 0.317854Z" fill="black"/>
<path d="M54.4823 1.8455C54.3042 1.61047 53.9479 1.55171 53.7104 1.72798C53.4729 1.90426 53.4135 2.2568 53.5916 2.49184C54.4229 3.54948 54.7792 4.90091 54.8386 6.25235C54.898 7.7213 54.5417 9.19025 53.8291 10.4829C53.651 10.7767 53.7698 11.1293 54.0667 11.2468C54.3636 11.4231 54.7198 11.3055 54.8386 11.0117C55.6699 9.5428 56.0262 7.89757 56.0262 6.19359C55.9074 4.66588 55.4324 3.13817 54.4823 1.8455Z" fill="black"/>
<path d="M57.8672 0.964149C57.689 0.670359 57.3327 0.611601 57.0952 0.787875C56.8577 0.964149 56.7389 1.3167 56.9171 1.55173C57.8078 3.07944 58.2234 4.6659 58.2234 6.25237C58.2234 7.89759 57.8078 9.66033 57.1546 11.4231C57.0358 11.7169 57.214 12.0694 57.5109 12.1282C57.8078 12.2457 58.1641 12.0694 58.2234 11.7756C58.936 9.83661 59.4111 8.01511 59.4111 6.19361C59.3517 4.43087 58.8766 2.66813 57.8672 0.964149Z" fill="black"/>
<path d="M61.3711 0.317854C61.2524 0.0240638 60.8961 -0.0934523 60.5992 0.0828218C60.3023 0.200338 60.1835 0.552886 60.3617 0.846676C61.193 2.4919 61.668 4.25464 61.668 6.1349C61.7274 8.07391 61.3117 10.1304 60.5992 12.187C60.4804 12.4808 60.6586 12.8333 60.9555 12.8921C61.2524 13.0096 61.6087 12.8333 61.668 12.5395C62.44 10.3655 62.8557 8.19143 62.7963 6.1349C62.7369 4.07837 62.2618 2.13935 61.3711 0.317854Z" fill="black"/>
</svg>
