<?xml version="1.0" encoding="UTF-8" standalone="no"?>
<svg
   width="185"
   height="65"
   fill="none"
   version="1.1"
   id="svg44"
   sodipodi:docname="logo_big.svg"
   inkscape:version="1.1 (c68e22c387, 2021-05-23)"
   xmlns:inkscape="http://www.inkscape.org/namespaces/inkscape"
   xmlns:sodipodi="http://sodipodi.sourceforge.net/DTD/sodipodi-0.dtd"
   xmlns="http://www.w3.org/2000/svg"
   xmlns:svg="http://www.w3.org/2000/svg">
  <defs
     id="defs48" />
  <sodipodi:namedview
     id="namedview46"
     pagecolor="#ffffff"
     bordercolor="#666666"
     borderopacity="1.0"
     inkscape:pageshadow="2"
     inkscape:pageopacity="0.0"
     inkscape:pagecheckerboard="0"
     showgrid="false"
     inkscape:zoom="6.1291866"
     inkscape:cx="104.41842"
     inkscape:cy="32.54918"
     inkscape:window-width="2560"
     inkscape:window-height="1411"
     inkscape:window-x="7191"
     inkscape:window-y="-9"
     inkscape:window-maximized="1"
     inkscape:current-layer="svg44" />
  <path
     d="m 36.64,36.4 3.191,-3.097 6.504,6.586 -3.1,3.067 z"
     fill="#000000"
     id="path2" />
  <path
     d="m 41.928,42.806 c 0,0.662 -0.06,1.354 -0.091,2.015 1.671,1.564 2.31,2.135 3.981,3.79 3.92,-1.595 4.984,-7.068 0.82,-9.534 -1.914,1.504 -2.917,2.226 -4.71,3.73 z"
     fill="#000000"
     id="path4" />
  <path
     d="m 38.372,50.024 2.067,1.985 5.41,-5.594 -2.067,-1.985 z"
     fill="#000000"
     id="path6" />
  <path
     d="m 38.342,49.783 c 0.82,0.15 1.854,-0.18 2.036,1.143 0.091,0.571 0.182,0.872 0.274,1.684 0.09,0.842 -0.122,1.293 -1.246,1.534 -1.125,0.24 -1.763,0.39 -2.766,0.601 -0.638,0.15 -0.881,0.03 -0.79,0.962 0.182,1.985 0.182,1.835 -0.334,2.196 -0.67,0.45 -0.943,0.691 -1.58,-0.451 -0.457,-0.812 -1.095,-1.865 -1.581,-2.707 0.668,-1.113 2.249,-4.15 2.705,-5.052 1.124,-0.03 2.735,0.06 3.282,0.09 z M 9.605,33.352 2.985,39.9 l 3.072,3.042 6.62,-6.548 z"
     fill="#000000"
     id="path8" />
  <path
     d="m 7.373,42.806 c 0,0.662 0.06,1.354 0.09,2.015 -1.67,1.564 -2.309,2.135 -3.98,3.79 -3.921,-1.595 -4.985,-7.068 -0.821,-9.534 1.884,1.504 2.887,2.226 4.71,3.73 z"
     fill="#000000"
     id="path10" />
  <path
     d="M 10.929,50.024 8.862,52.009 3.422,46.415 5.489,44.43 Z"
     fill="#000000"
     id="path12" />
  <path
     d="m 10.928,49.783 c -0.82,0.15 -1.853,-0.18 -2.036,1.143 -0.091,0.571 -0.182,0.872 -0.273,1.684 -0.091,0.842 0.121,1.293 1.246,1.534 1.124,0.24 1.762,0.39 2.765,0.601 0.639,0.15 0.882,0.03 0.79,0.962 -0.182,1.985 -0.182,1.835 0.335,2.196 0.668,0.45 0.942,0.691 1.58,-0.451 0.456,-0.812 1.094,-1.865 1.58,-2.707 -0.668,-1.113 -2.248,-4.15 -2.704,-5.052 -1.125,-0.03 -2.705,0.06 -3.283,0.09 z M 24.757,3.711 h -1.155 v 7.218 h 1.155 V 3.71 Z"
     fill="#000000"
     id="path14" />
  <path
     d="M 39.314,33.243 C 34.512,31.198 29.437,30.236 24.362,30.266 V 60.429 C 31.96,53.061 38.737,44.159 39.314,33.243 Z"
     fill="#a1daf8"
     id="path16" />
  <path
     d="m 34.999,32.972 c 1.063,0.542 1.823,1.053 2.553,1.564 -3.313,11.97 -9.695,17.322 -13.16,20.18 l 0.091,3.728 c 0,0 9.209,-6.496 11.306,-12.901 2.127,-6.406 3.495,-12 3.495,-12 -1.185,-0.51 -2.4,-1.022 -3.586,-1.533 -0.183,0.24 -0.365,0.541 -0.7,0.962 z"
     fill="#ffffff"
     id="path18" />
  <path
     d="M 38.737,33.724 A 26.525,26.525 0 0 0 35.819,32.01 c 1.55,0.3 2.584,0.632 4.012,1.263 -0.79,6.075 -3.738,18.615 -15.378,27.186 L 24.301,57.843 C 31.625,52.58 37.065,45.122 38.737,33.724 Z"
     fill="#000000"
     id="path20" />
  <path
     d="m 9.622,33.333 c 4.802,-2.045 9.877,-3.097 14.922,-3.067 L 24.453,60.339 C 17.311,56.699 10.746,42.054 9.622,33.333 Z"
     fill="#008bd2"
     id="path22" />
  <path
     d="m 17.067,31.018 c 2.553,-0.512 4.438,-0.692 7.021,-0.662 h 0.486 v 4.901 l -1.003,0.121 v -4.06 c -2.34,0 -4.011,0.18 -6.321,0.662 -2.34,0.451 -4.285,0.812 -6.534,1.744 0.699,6.195 7.294,22.044 13.828,24.119 l -0.06,2.646 C 16.672,56.369 10.594,41.633 9.561,33.333 c 2.553,-1.112 4.771,-1.774 7.506,-2.315 z"
     fill="#000000"
     id="path24" />
  <path
     d="m 24.18,37.814 c 7.922,0 14.344,-6.355 14.344,-14.194 0,-7.84 -6.422,-14.195 -14.345,-14.195 -7.922,0 -14.345,6.355 -14.345,14.195 0,7.84 6.423,14.194 14.345,14.194 z"
     fill="#a1daf8"
     id="path26" />
  <path
     d="m 20.684,13.034 c 1.155,-1.293 5.258,-1.805 6.048,-1.925 4.984,0.722 8.236,4.571 9.421,8.45 -2.4,-3.668 -7.993,-7.788 -15.469,-6.525 z"
     fill="#ffffff"
     id="path28" />
  <path
     d="m 35.212,26.116 c 0,0 0.729,-1.414 1.246,-2.797 0.668,-1.835 0.881,-2.165 -1.125,-3.368 -5.197,-3.098 -13.281,-4.09 -19.086,-2.797 1.854,-3.91 7.325,-5.203 11.914,-5.864 -9.118,-2.256 -17.992,4.15 -17.02,14.495 0.608,6.586 6.869,11.307 13.312,11.307 -6.078,-2.736 -8.48,-6.075 -9.148,-9.864 l 14.71,-0.36 c -0.03,0 5.105,-0.542 5.197,-0.752 z"
     fill="#008bd2"
     id="path30" />
  <path
     d="m 24.18,8.914 a 14.87,14.87 0 0 1 10.485,4.3 c 3.16,3.128 5.622,9.413 2.887,15.368 1.124,-5.233 0.243,-10.887 -3.587,-14.676 -2.492,-2.496 -5.956,-4.03 -9.786,-4.03 -3.829,0 -7.294,1.534 -9.786,4.03 -3.799,3.79 -5.105,9.594 -3.616,14.616 -2.766,-6.075 -0.365,-12.06 2.917,-15.307 a 14.925,14.925 0 0 1 10.485,-4.3 z"
     fill="#000000"
     id="path32" />
  <path
     d="m 14.788,20.432 c 6.2,-2.586 12.704,-2.526 18.782,0.09 2.158,0.932 2.584,0.932 2.28,2.737 -0.03,0.24 -0.091,0.511 -0.152,0.812 a 97.45,97.45 0 0 1 -0.79,3.458 c -0.639,2.616 -0.943,2.226 -3.222,1.744 -4.285,-0.932 -10.698,-0.932 -15.013,0 -2.25,0.482 -2.553,0.872 -3.222,-1.744 -0.273,-1.113 -0.517,-2.285 -0.79,-3.458 -0.517,-2.617 -0.334,-2.587 2.127,-3.64 z M 24.18,65 c 3.92,0 7.11,-0.571 7.11,-1.263 0,-0.692 -3.19,-1.263 -7.11,-1.263 -3.921,0 -7.112,0.571 -7.112,1.263 0.03,0.692 3.221,1.263 7.111,1.263 z m 0.151,-27.156 c 3.04,-0.12 8.024,-1.894 10.06,-4.15 -1.49,3.098 -6.838,5.864 -10.181,5.954 z"
     fill="#000000"
     id="path34" />
  <path
     d="m 23.541,56.55 c 0,-0.933 -0.122,-1.354 -0.091,-2.286 -2.644,-1.233 -4.802,-2.767 -6.808,-6.556 1.945,4.15 4.012,6.977 6.899,8.842 z M 22.994,19.98 c 4.194,0 7.233,0.542 9.209,1.294 1.58,0.601 2.31,0.752 1.762,3.007 -0.425,1.895 -0.638,2.617 -0.972,3.79 -0.152,-2.226 -0.243,-3.248 -1.033,-4.512 -1.277,-2.105 -6.23,-2.766 -8.966,-3.578 z"
     fill="#ffffff"
     id="path36" />
  <path
     d="m 12.783,32.19 c 2.796,3.64 6.96,5.624 11.61,5.624 -0.031,0.602 -0.031,1.173 -0.062,1.774 -5.835,-0.45 -9.239,-2.706 -12.065,-7.067 -0.03,0 0.06,0.06 0.517,-0.33 z M 24.18,4.944 c 0.911,0 1.67,-0.752 1.67,-1.654 0,-0.902 -0.759,-1.654 -1.67,-1.654 -0.912,0 -1.672,0.752 -1.672,1.654 0,0.902 0.76,1.654 1.671,1.654 z m -4.377,26.374 c 0.152,-0.15 1.55,0.993 4.376,0.963 2.796,-0.03 4.286,-1.113 4.438,-0.963 0.303,0.27 -1.368,2.376 -4.407,2.346 -2.948,-0.03 -4.832,-1.925 -4.407,-2.346 z M 21.14,0.945 a 0.29,0.29 0 0 1 0.395,-0.06 c 0.122,0.09 0.152,0.27 0.06,0.39 -0.425,0.542 -0.607,1.233 -0.637,1.925 -0.03,0.752 0.152,1.504 0.516,2.165 0.091,0.15 0.03,0.331 -0.121,0.391 -0.152,0.09 -0.335,0.03 -0.395,-0.12 C 20.532,4.884 20.35,4.042 20.35,3.17 20.41,2.388 20.654,1.606 21.14,0.945 Z M 19.378,0.494 a 0.33,0.33 0 0 1 0.425,-0.09 c 0.152,0.09 0.182,0.27 0.091,0.39 A 4.727,4.727 0 0 0 19.226,3.2 c 0,0.842 0.212,1.744 0.547,2.647 0.06,0.15 -0.03,0.33 -0.183,0.36 -0.152,0.06 -0.334,-0.03 -0.364,-0.18 C 18.861,5.035 18.648,4.102 18.618,3.17 18.648,2.268 18.861,1.366 19.378,0.494 Z M 17.615,0.163 c 0.06,-0.15 0.243,-0.21 0.395,-0.12 0.152,0.06 0.213,0.24 0.121,0.39 -0.425,0.842 -0.668,1.745 -0.668,2.707 -0.03,0.992 0.182,2.045 0.547,3.097 0.06,0.15 -0.03,0.331 -0.182,0.361 -0.152,0.06 -0.335,-0.03 -0.365,-0.18 -0.395,-1.113 -0.608,-2.226 -0.578,-3.278 0,-1.053 0.244,-2.045 0.73,-2.977 z m 9.847,0.782 a 0.29,0.29 0 0 0 -0.396,-0.06 0.283,0.283 0 0 0 -0.06,0.39 c 0.425,0.542 0.607,1.233 0.638,1.925 a 4.152,4.152 0 0 1 -0.517,2.165 c -0.091,0.15 -0.03,0.331 0.122,0.391 0.152,0.09 0.334,0.03 0.395,-0.12 C 28.069,4.884 28.252,4.042 28.252,3.17 28.191,2.388 27.948,1.606 27.462,0.945 Z m 1.732,-0.451 c -0.091,-0.15 -0.274,-0.18 -0.395,-0.09 -0.122,0.09 -0.183,0.27 -0.091,0.39 0.455,0.782 0.668,1.594 0.668,2.406 0,0.842 -0.213,1.744 -0.547,2.646 -0.06,0.15 0.03,0.331 0.182,0.361 0.152,0.06 0.335,-0.03 0.365,-0.18 0.365,-0.992 0.608,-1.925 0.608,-2.857 a 5.55,5.55 0 0 0 -0.79,-2.676 z m 1.793,-0.331 c -0.06,-0.15 -0.243,-0.21 -0.395,-0.12 -0.152,0.06 -0.213,0.24 -0.122,0.39 0.426,0.842 0.669,1.745 0.669,2.707 0.03,0.992 -0.182,2.045 -0.547,3.097 -0.06,0.15 0.03,0.331 0.182,0.361 0.152,0.06 0.335,-0.03 0.365,-0.18 0.395,-1.113 0.608,-2.226 0.577,-3.278 A 7.17,7.17 0 0 0 30.987,0.163 Z"
     fill="#000000"
     id="path38" />
  <g
     fill="#000000"
     id="g42"
     transform="matrix(0.84813238,0,0,0.84813238,8.8516047,5.0988515)">
    <path
       d="M 69.148,26.529 H 65.31 V 42.344 H 61.076 V 26.529 H 57.17 v -3.8 h 11.979 z m 12.34,15.779 h -9.807 v -19.58 h 9.192 v 3.764 h -4.958 v 3.981 h 4.27 v 3.656 h -4.27 v 4.342 h 5.573 z m 12.197,0 h -9.193 v -19.58 h 4.234 v 15.743 h 4.959 z m 12.341,0 h -9.808 v -19.58 h 9.192 v 3.764 h -4.958 v 3.981 h 4.27 v 3.656 h -4.27 v 4.342 h 5.574 z m 21.098,0 h -4.053 l -0.977,-16.033 h -0.072 l -2.968,16.033 h -3.04 l -2.86,-16.141 h -0.071 l -1.086,16.14 h -4.053 l 2.062,-19.578 h 5.357 l 2.17,12.92 h 0.073 l 2.353,-12.92 h 5.247 z m 12.522,0 h -9.808 v -19.58 h 9.193 v 3.764 h -4.958 v 3.981 h 4.27 v 3.656 h -4.27 v 4.342 h 5.573 z m 13.861,-15.779 h -3.836 v 15.815 h -4.235 V 26.529 h -3.908 v -3.8 h 11.979 z m 14.765,15.779 h -4.343 l -3.401,-9.7 h -0.073 v 9.7 h -4.234 v -19.58 h 5.537 c 1.086,0 2.208,0.218 3.293,0.652 1.086,0.434 1.882,1.122 2.353,2.063 0.47,0.94 0.687,1.882 0.687,2.895 0,1.23 -0.253,2.208 -0.796,3.004 -0.507,0.796 -1.375,1.484 -2.533,2.135 z m -7.781,-10.785 c 1.376,0 2.244,-0.253 2.606,-0.796 0.362,-0.543 0.543,-1.23 0.543,-2.063 0,-1.882 -0.76,-2.823 -2.316,-2.823 h -0.87 v 5.682 z m 9.663,0.905 c 0,-2.75 0.29,-4.777 0.905,-6.044 0.615,-1.303 1.375,-2.28 2.388,-3.004 0.978,-0.724 2.244,-1.086 3.764,-1.086 1.267,0 2.244,0.217 3.04,0.616 0.76,0.398 1.484,1.013 2.135,1.81 0.652,0.795 1.122,1.772 1.448,2.93 0.289,1.159 0.47,2.715 0.47,4.633 0,3.945 -0.651,6.659 -1.99,8.179 -1.303,1.484 -3.004,2.244 -5.103,2.244 -2.135,0 -3.836,-0.76 -5.103,-2.317 -1.302,-1.556 -1.954,-4.234 -1.954,-7.961 z m 4.488,-1.195 V 32.5 c 0,2.063 0.072,3.402 0.217,4.09 0.145,0.65 0.434,1.157 0.868,1.556 0.435,0.361 0.977,0.579 1.593,0.579 0.506,0 0.977,-0.181 1.375,-0.543 0.434,-0.362 0.724,-0.941 0.869,-1.665 0.18,-0.76 0.253,-2.063 0.253,-3.98 0,-1.702 -0.073,-2.932 -0.217,-3.656 -0.145,-0.724 -0.435,-1.303 -0.87,-1.773 -0.433,-0.435 -0.94,-0.688 -1.591,-0.688 -0.905,0 -1.556,0.398 -1.954,1.158 -0.326,0.724 -0.543,1.954 -0.543,3.655 z m 26.527,11.074 h -4.488 L 191.687,29.93 h -0.072 v 12.377 h -4.126 V 22.692 h 4.632 l 4.922,12.16 h 0.073 v -12.16 h 4.017 v 19.615 z"
       id="path40" />
  </g>
</svg>
