<svg width="140" height="761" viewBox="0 0 140 761" fill="none" xmlns="http://www.w3.org/2000/svg">
<path d="M128.667 735C128.667 737.945 131.054 740.333 134 740.333C136.946 740.333 139.333 737.945 139.333 735C139.333 732.055 136.946 729.667 134 729.667C131.054 729.667 128.667 732.055 128.667 735ZM13 675H12V675.414L12.2929 675.707L13 675ZM13 66L12.2929 65.2929L12 65.5858V66H13ZM73 6V5H72.5858L72.2929 5.29289L73 6ZM128.167 6C128.167 8.94552 130.554 11.3333 133.5 11.3333C136.446 11.3333 138.833 8.94552 138.833 6C138.833 3.05448 136.446 0.666667 133.5 0.666667C130.554 0.666667 128.167 3.05448 128.167 6ZM113 715V714H112.586L112.293 714.293L113 715ZM128.667 715C128.667 717.945 131.054 720.333 134 720.333C136.946 720.333 139.333 717.945 139.333 715C139.333 712.055 136.946 709.667 134 709.667C131.054 709.667 128.667 712.055 128.667 715ZM93 755L92.2929 755.707L92.5858 756H93V755ZM128.667 755C128.667 757.945 131.054 760.333 134 760.333C136.946 760.333 139.333 757.945 139.333 755C139.333 752.055 136.946 749.667 134 749.667C131.054 749.667 128.667 752.055 128.667 755ZM73.7071 734.293L13.7071 674.293L12.2929 675.707L72.2929 735.707L73.7071 734.293ZM13.7071 66.7071L73.7071 6.70711L72.2929 5.29289L12.2929 65.2929L13.7071 66.7071ZM73 7H133.5V5H73V7ZM14 401V66H12V401H14ZM14 675V401H12V675H14ZM134 734H93V736H134V734ZM93.7071 735.707L113.707 715.707L112.293 714.293L92.2929 734.293L93.7071 735.707ZM113 716H134V714H113V716ZM93 734H73V736H93V734ZM72.2929 735.707L92.2929 755.707L93.7071 754.293L73.7071 734.293L72.2929 735.707ZM93 756H134V754H93V756Z" fill="#012137"/>
<rect x="8" y="357" width="10" height="10" fill="white"/>
<g clip-path="url(#clip0_2149_23056)">
<path d="M9.17286 373.12C9.98406 371.207 11.2945 369.517 13.0001 368.232C14.7057 369.511 16.0161 371.201 16.8273 373.12L19.1309 373.12C18.1221 370.255 16.2085 367.749 13.5929 366.017C13.4109 365.897 13.2029 365.84 12.9949 365.84C12.7869 365.84 12.5789 365.897 12.3969 366.017C9.78126 367.749 7.86246 370.25 6.85886 373.12L9.16246 373.12L9.17286 373.12Z" fill="#012137"/>
</g>
<defs>
<clipPath id="clip0_2149_23056">
<rect width="26" height="26" fill="white" transform="translate(26 383) rotate(-180)"/>
</clipPath>
</defs>
</svg>
