<svg width="1070" height="1348" viewBox="0 0 1070 1348" fill="none" xmlns="http://www.w3.org/2000/svg">
<path d="M-669 121L932.861 1161.26" stroke="#F3F5F7" stroke-width="2"/>
<path d="M-748 166L778.38 1157.24" stroke="#F3F5F7" stroke-width="2"/>
<path d="M-374 123L1068.51 1059.78" stroke="#F3F5F7" stroke-width="2"/>
<path d="M-453 168L1064.99 1153.8" stroke="#F3F5F7" stroke-width="2"/>
<path d="M-891 168L637.896 1160.88" stroke="#F3F5F7" stroke-width="2"/>
<path d="M-970 213L472.513 1149.78" stroke="#F3F5F7" stroke-width="2"/>
<circle cx="-115" cy="252" r="542" stroke="#F3F5F7" stroke-width="2"/>
<circle cx="-115" cy="805" r="542" stroke="#F3F5F7" stroke-width="2"/>
<path d="M-137.541 562.371L-137.543 562.369C-191.61 526.124 -243.917 501.265 -293.058 489.03C-334.777 478.6 -373.14 477.383 -407.123 485.225C-447.557 494.479 -480.01 517.228 -498.367 549.101C-506.444 563.089 -514.87 584.898 -516.583 616.743C-534.93 596.484 -551.945 574.72 -567.265 551.45C-576.244 537.785 -576.245 520.22 -567.268 506.555C-533.189 456.136 -488.192 420.909 -425.474 406.374C-379.053 395.616 -327.815 397.002 -273.543 410.57C-215.278 425.136 -154.384 453.48 -92.459 495.229L-92.4568 495.231C-38.3896 531.476 13.9165 556.335 63.0583 568.57C104.778 579 143.141 580.217 177.125 572.374C217.558 563.121 250.01 540.371 268.367 508.499C276.444 494.511 284.87 472.702 286.583 440.857C304.93 461.115 321.945 482.88 337.264 506.149C346.244 519.814 346.245 537.38 337.268 551.046C303.189 601.464 258.192 636.691 195.474 651.226C149.053 661.984 97.815 660.598 43.5425 647.03C-14.7224 632.464 -75.6165 604.12 -137.541 562.371Z" stroke="#B4DBFF" stroke-width="2"/>
<path d="M-47.7414 428.97L-48.6854 428.335L-48.8854 428.735C-118.046 382.227 -187.028 350.187 -254.056 333.43C-288.85 324.588 -322.733 319.984 -355.703 319.623C-304.917 294.517 -250.191 277.22 -193.189 269.023C-130.559 289.593 -66.9178 321.324 -3.85886 363.829L-3.85751 363.83C49.2339 399.492 87.3567 412.352 110.109 416.782L110.116 416.783C116.576 417.994 126.638 419.2 138.9 419.2C167.558 419.2 189.899 414.976 206.294 410.087C206.414 410.883 206.5 411.645 206.5 412.4V412.445L206.504 412.49C208.699 436.83 206.076 457.373 199.434 468.901L199.432 468.904C192.414 481.185 178.103 490.465 159.274 494.826C133.61 500.771 101.903 497.815 66.5526 486.597C31.213 475.382 -7.70135 455.93 -47.7414 428.97Z" stroke="#B4DBFF" stroke-width="2"/>
<path d="M-182.058 628.63L-181.114 629.265L-180.914 628.865C-111.755 675.372 -42.7733 707.412 24.2539 724.169C59.0496 733.012 93.1176 737.617 126.103 737.977C75.3085 763.083 20.3929 780.38 -36.6103 788.577C-99.2404 768.007 -162.882 736.276 -225.941 693.771L-225.942 693.77C-279.034 658.108 -317.157 645.248 -339.909 640.818L-339.916 640.817C-346.376 639.606 -356.438 638.4 -368.7 638.4C-397.358 638.4 -419.699 642.624 -436.094 647.513C-436.214 646.717 -436.3 645.955 -436.3 645.2V645.155L-436.304 645.11C-438.498 620.77 -435.876 600.227 -429.233 588.699L-429.232 588.696C-422.214 576.415 -407.903 567.135 -389.074 562.774L-389.074 562.774C-363.41 556.829 -331.703 559.785 -296.352 571.003C-261.013 582.218 -222.098 601.67 -182.058 628.63Z" stroke="#B4DBFF" stroke-width="2"/>
</svg>
