<svg width="1077" height="300" viewBox="0 0 1077 300" fill="none" xmlns="http://www.w3.org/2000/svg">
<rect width="1077" height="300" rx="10" fill="#F3F5F7"/>
<path d="M374 150.5H425.25H450.875H476.5" stroke="#B4DBFF" stroke-width="4"/>
<path d="M911 150L538 150" stroke="#1FA4F1" stroke-width="4"/>
<g clip-path="url(#clip0_2148_11390)">
<rect x="283" y="105" width="91" height="91" rx="12" fill="white"/>
<path d="M372.998 117.999V117.999V183.001C372.998 189.628 367.626 195 360.998 195H295.999C289.372 195 284 189.628 284 182.998V117.999C284 111.372 289.372 106 295.999 106H361.001C367.628 106 373 111.372 372.998 117.999Z" stroke="#012137" stroke-width="2"/>
<path d="M296.325 114.125H360.675C362.996 114.125 364.876 116.006 364.876 118.325V169.676C364.876 171.997 362.994 173.877 360.675 173.877H296.325C294.005 173.877 292.125 171.995 292.125 169.676V118.325C292.125 116.005 294.006 114.125 296.325 114.125Z" stroke="#012137" stroke-width="2"/>
<path d="M327.327 145.743C330.469 147.857 333.562 149.304 336.52 150.045C339.281 150.737 341.881 150.808 344.248 150.258C347.437 149.517 349.735 147.72 351.469 145.161C351.934 144.457 351.932 143.535 351.464 142.831C350.661 141.618 349.774 140.48 348.811 139.426C348.738 141.102 348.302 142.237 347.894 142.95C346.972 144.551 345.342 145.693 343.298 146.167C341.588 146.564 339.65 146.497 337.543 145.97C335.059 145.349 332.411 144.099 329.673 142.258C326.532 140.143 323.438 138.696 320.48 137.956C317.719 137.263 315.119 137.192 312.753 137.742C309.563 138.483 307.265 140.281 305.532 142.84C305.066 143.544 305.069 144.466 305.536 145.17C306.339 146.383 307.226 147.52 308.189 148.575C308.263 146.899 308.698 145.764 309.107 145.05C310.028 143.45 311.659 142.308 313.702 141.833C315.413 141.437 317.35 141.503 319.458 142.031C321.941 142.652 324.589 143.902 327.327 145.743Z" fill="#B4DBFF"/>
<path d="M331.874 138.985C335.938 141.719 339.779 142.936 342.406 142.326C343.372 142.102 344.106 141.625 344.475 140.983C344.819 140.384 344.952 139.332 344.839 138.093C344.835 138.032 344.828 137.972 344.821 137.91C343.991 138.165 342.842 138.385 341.365 138.385C340.749 138.385 340.242 138.323 339.919 138.259C338.777 138.034 336.85 137.387 334.163 135.58C330.955 133.422 327.729 131.806 324.544 130.76C321.572 131.189 318.719 132.097 316.084 133.432C317.813 133.436 319.604 133.67 321.436 134.129C324.839 134.982 328.35 136.614 331.872 138.983L331.874 138.985Z" fill="#B4DBFF"/>
<path d="M325.126 149.015C321.063 146.282 317.222 145.064 314.594 145.674C313.629 145.899 312.895 146.376 312.526 147.018C312.182 147.616 312.049 148.669 312.161 149.907C312.166 149.969 312.173 150.029 312.179 150.091C313.01 149.836 314.158 149.616 315.635 149.616C316.252 149.616 316.759 149.678 317.082 149.742C318.224 149.967 320.15 150.613 322.838 152.42C326.046 154.578 329.274 156.195 332.459 157.24C335.431 156.812 338.286 155.904 340.923 154.569C339.192 154.564 337.398 154.333 335.564 153.872C332.161 153.019 328.65 151.386 325.128 149.017L325.126 149.015Z" fill="#B4DBFF"/>
</g>
<g clip-path="url(#clip1_2148_11390)">
<rect x="697" y="105" width="122" height="91" rx="13" fill="white"/>
<path d="M710.625 106H805.928C812.6 106 818 111.379 818 118V182.45C818 189.377 812.354 195 805.375 195H710.625C703.646 195 698 189.377 698 182.45V118.55C698 111.623 703.646 106 710.625 106Z" stroke="#012137" stroke-width="2"/>
<path d="M714.864 121.012H801.136C802.031 121.012 802.749 121.732 802.749 122.61V178.078C802.749 178.955 802.033 179.676 801.136 179.676H714.864C713.969 179.676 713.251 178.956 713.251 178.078V122.61C713.251 121.733 713.967 121.012 714.864 121.012Z" stroke="#012137" stroke-width="2"/>
<path d="M759.127 132.874C759.127 132.874 759.096 132.856 759.087 132.844C758.426 132.431 757.568 132.431 756.907 132.844C756.898 132.844 756.876 132.862 756.867 132.874C755.96 133.474 755.103 134.109 754.285 134.797C755.597 135.433 756.839 136.189 757.992 137.054C763.692 141.31 767.061 147.956 767.061 155.095C767.061 160.067 763.009 164.106 758.002 164.106C752.994 164.106 748.942 160.076 748.942 155.095H748.923C748.923 150.995 750.018 147.152 751.939 143.85C755.588 146.281 757.983 150.408 757.983 155.095C757.983 156.575 757.845 157.939 757.608 159.183H757.992C760.261 159.183 762.103 157.349 762.103 155.095C762.103 147.534 757.322 141.093 750.608 138.582C746.922 143.221 744.841 149.005 744.841 155.083H744.859C744.859 162.299 750.746 168.153 758.002 168.153C765.257 168.153 771.144 162.299 771.144 155.083C771.144 146.122 766.649 137.815 759.127 132.865V132.874Z" fill="#1FA4F1"/>
</g>
<g clip-path="url(#clip2_2148_11390)">
<rect x="697" y="105" width="122" height="91" rx="13" fill="white"/>
<path d="M710.625 106H805.928C812.6 106 818 111.379 818 118V182.45C818 189.377 812.354 195 805.375 195H710.625C703.646 195 698 189.377 698 182.45V118.55C698 111.623 703.646 106 710.625 106Z" stroke="#012137" stroke-width="2"/>
<path d="M714.864 121.012H801.136C802.031 121.012 802.749 121.732 802.749 122.61V178.078C802.749 178.955 802.033 179.676 801.136 179.676H714.864C713.969 179.676 713.251 178.956 713.251 178.078V122.61C713.251 121.733 713.967 121.012 714.864 121.012Z" stroke="#012137" stroke-width="2"/>
<path d="M759.127 132.874C759.127 132.874 759.096 132.856 759.087 132.844C758.426 132.431 757.568 132.431 756.907 132.844C756.898 132.844 756.876 132.862 756.867 132.874C755.96 133.474 755.103 134.109 754.285 134.797C755.597 135.433 756.839 136.189 757.992 137.054C763.692 141.31 767.061 147.956 767.061 155.095C767.061 160.067 763.009 164.106 758.002 164.106C752.994 164.106 748.942 160.076 748.942 155.095H748.923C748.923 150.995 750.018 147.152 751.939 143.85C755.588 146.281 757.983 150.408 757.983 155.095C757.983 156.575 757.845 157.939 757.608 159.183H757.992C760.261 159.183 762.103 157.349 762.103 155.095C762.103 147.534 757.322 141.093 750.608 138.582C746.922 143.221 744.841 149.005 744.841 155.083H744.859C744.859 162.299 750.746 168.153 758.002 168.153C765.257 168.153 771.144 162.299 771.144 155.083C771.144 146.122 766.649 137.815 759.127 132.865V132.874Z" fill="#1FA4F1"/>
</g>
<mask id="path-18-inside-1_2148_11390" fill="white">
<path fill-rule="evenodd" clip-rule="evenodd" d="M896 90.5C896 86.3579 892.642 83 888.5 83C884.358 83 881 86.3579 881 90.5V107H860.5C856.358 107 853 110.358 853 114.5C853 117.278 854.511 119.704 856.756 121C855.875 121.508 855.107 122.191 854.499 123H844.5C842.015 123 840 125.015 840 127.5C840 129.985 842.015 132 844.5 132H854.499C855.868 133.822 858.046 135 860.5 135H862L862 144H858.5C854.358 144 851 147.358 851 151.5C851 155.642 854.358 159 858.5 159H880V162H854.5C850.358 162 847 165.358 847 169.5C847 173.642 850.358 177 854.5 177H880.458C881.732 181.057 885.522 184 890 184H893V189.5C893 190.102 893.082 190.684 893.235 191.237C893.083 191.629 893 192.055 893 192.5C893 194.433 894.567 196 896.5 196H899.49L899.5 196L899.51 196H942.5C944.433 196 946 194.433 946 192.5C946 190.567 944.433 189 942.5 189H940.826C940.94 188.518 941 188.016 941 187.5V184H946C951.523 184 956 179.523 956 174V157C956 151.477 951.523 147 946 147H943.95L937.022 135H942.5C946.642 135 950 131.642 950 127.5C950 125.327 949.076 123.37 947.599 122H963.5C967.642 122 971 118.642 971 114.5C971 110.358 967.642 107 963.5 107H896V90.5ZM877 144V135H880V144H877ZM928 187.5C928 188.016 928.06 188.518 928.174 189H906V184H928V187.5Z"/>
</mask>
<path fill-rule="evenodd" clip-rule="evenodd" d="M896 90.5C896 86.3579 892.642 83 888.5 83C884.358 83 881 86.3579 881 90.5V107H860.5C856.358 107 853 110.358 853 114.5C853 117.278 854.511 119.704 856.756 121C855.875 121.508 855.107 122.191 854.499 123H844.5C842.015 123 840 125.015 840 127.5C840 129.985 842.015 132 844.5 132H854.499C855.868 133.822 858.046 135 860.5 135H862L862 144H858.5C854.358 144 851 147.358 851 151.5C851 155.642 854.358 159 858.5 159H880V162H854.5C850.358 162 847 165.358 847 169.5C847 173.642 850.358 177 854.5 177H880.458C881.732 181.057 885.522 184 890 184H893V189.5C893 190.102 893.082 190.684 893.235 191.237C893.083 191.629 893 192.055 893 192.5C893 194.433 894.567 196 896.5 196H899.49L899.5 196L899.51 196H942.5C944.433 196 946 194.433 946 192.5C946 190.567 944.433 189 942.5 189H940.826C940.94 188.518 941 188.016 941 187.5V184H946C951.523 184 956 179.523 956 174V157C956 151.477 951.523 147 946 147H943.95L937.022 135H942.5C946.642 135 950 131.642 950 127.5C950 125.327 949.076 123.37 947.599 122H963.5C967.642 122 971 118.642 971 114.5C971 110.358 967.642 107 963.5 107H896V90.5ZM877 144V135H880V144H877ZM928 187.5C928 188.016 928.06 188.518 928.174 189H906V184H928V187.5Z" fill="white"/>
<path d="M881 107V109H883V107H881ZM856.756 121L857.756 122.732L860.756 121L857.756 119.268L856.756 121ZM854.499 123V125H855.499L856.099 124.201L854.499 123ZM854.499 132L856.099 130.799L855.499 130H854.499V132ZM862 135H864V133H862V135ZM862 144V146H864V144H862ZM880 159H882V157H880V159ZM880 162V164H882V162H880ZM880.458 177L882.366 176.401L881.926 175H880.458V177ZM893 184H895V182H893V184ZM893.235 191.237L895.1 191.959L895.339 191.342L895.162 190.704L893.235 191.237ZM899.49 196L899.491 194H899.49V196ZM899.5 196L899.498 198H899.502L899.5 196ZM899.51 196V194H899.509L899.51 196ZM940.826 189L938.88 188.54L938.299 191H940.826V189ZM941 184V182H939V184H941ZM943.95 147L942.218 148L942.796 149H943.95V147ZM937.022 135V133H933.558L935.29 136L937.022 135ZM947.599 122V120H942.502L946.239 123.466L947.599 122ZM896 107H894V109H896V107ZM877 135V133H875V135H877ZM877 144H875V146H877V144ZM880 135H882V133H880V135ZM880 144V146H882V144H880ZM928.174 189V191H930.701L930.12 188.54L928.174 189ZM906 189H904V191H906V189ZM906 184V182H904V184H906ZM928 184H930V182H928V184ZM888.5 85C891.538 85 894 87.4624 894 90.5H898C898 85.2533 893.747 81 888.5 81V85ZM883 90.5C883 87.4624 885.462 85 888.5 85V81C883.253 81 879 85.2533 879 90.5H883ZM883 107V90.5H879V107H883ZM860.5 109H881V105H860.5V109ZM855 114.5C855 111.462 857.462 109 860.5 109V105C855.253 105 851 109.253 851 114.5H855ZM857.756 119.268C856.104 118.315 855 116.535 855 114.5H851C851 118.022 852.918 121.094 855.756 122.732L857.756 119.268ZM856.099 124.201C856.545 123.606 857.11 123.105 857.756 122.732L855.756 119.268C854.64 119.912 853.669 120.775 852.9 121.799L856.099 124.201ZM844.5 125H854.499V121H844.5V125ZM842 127.5C842 126.119 843.119 125 844.5 125V121C840.91 121 838 123.91 838 127.5H842ZM844.5 130C843.119 130 842 128.881 842 127.5H838C838 131.09 840.91 134 844.5 134V130ZM854.499 130H844.5V134H854.499V130ZM860.5 133C858.702 133 857.105 132.139 856.099 130.799L852.9 133.201C854.63 135.504 857.391 137 860.5 137V133ZM862 133H860.5V137H862V133ZM864 144L864 135H860L860 144H864ZM858.5 146H862V142H858.5V146ZM853 151.5C853 148.462 855.462 146 858.5 146V142C853.253 142 849 146.253 849 151.5H853ZM858.5 157C855.462 157 853 154.538 853 151.5H849C849 156.747 853.253 161 858.5 161V157ZM880 157H858.5V161H880V157ZM882 162V159H878V162H882ZM854.5 164H880V160H854.5V164ZM849 169.5C849 166.462 851.462 164 854.5 164V160C849.253 160 845 164.253 845 169.5H849ZM854.5 175C851.462 175 849 172.538 849 169.5H845C845 174.747 849.253 179 854.5 179V175ZM880.458 175H854.5V179H880.458V175ZM890 182C886.421 182 883.386 179.648 882.366 176.401L878.55 177.599C880.078 182.466 884.624 186 890 186V182ZM893 182H890V186H893V182ZM895 189.5V184H891V189.5H895ZM895.162 190.704C895.057 190.323 895 189.92 895 189.5H891C891 190.284 891.107 191.045 891.307 191.771L895.162 190.704ZM895 192.5C895 192.306 895.036 192.124 895.1 191.959L891.37 190.515C891.13 191.134 891 191.804 891 192.5H895ZM896.5 194C895.672 194 895 193.328 895 192.5H891C891 195.538 893.462 198 896.5 198V194ZM899.49 194H896.5V198H899.49V194ZM899.502 194L899.491 194L899.488 198L899.498 198L899.502 194ZM899.509 194L899.498 194L899.502 198L899.512 198L899.509 194ZM942.5 194H899.51V198H942.5V194ZM944 192.5C944 193.328 943.328 194 942.5 194V198C945.538 198 948 195.538 948 192.5H944ZM942.5 191C943.328 191 944 191.672 944 192.5H948C948 189.462 945.538 187 942.5 187V191ZM940.826 191H942.5V187H940.826V191ZM939 187.5C939 187.86 938.958 188.208 938.88 188.54L942.773 189.46C942.922 188.829 943 188.172 943 187.5H939ZM939 184V187.5H943V184H939ZM946 182H941V186H946V182ZM954 174C954 178.418 950.418 182 946 182V186C952.627 186 958 180.627 958 174H954ZM954 157V174H958V157H954ZM946 149C950.418 149 954 152.582 954 157H958C958 150.373 952.627 145 946 145V149ZM943.95 149H946V145H943.95V149ZM935.29 136L942.218 148L945.683 146L938.754 134L935.29 136ZM942.5 133H937.022V137H942.5V133ZM948 127.5C948 130.538 945.538 133 942.5 133V137C947.747 137 952 132.747 952 127.5H948ZM946.239 123.466C947.325 124.473 948 125.906 948 127.5H952C952 124.748 950.827 122.266 948.959 120.534L946.239 123.466ZM963.5 120H947.599V124H963.5V120ZM969 114.5C969 117.538 966.538 120 963.5 120V124C968.747 124 973 119.747 973 114.5H969ZM963.5 109C966.538 109 969 111.462 969 114.5H973C973 109.253 968.747 105 963.5 105V109ZM896 109H963.5V105H896V109ZM894 90.5V107H898V90.5H894ZM875 135V144H879V135H875ZM880 133H877V137H880V133ZM882 144V135H878V144H882ZM877 146H880V142H877V146ZM930.12 188.54C930.042 188.208 930 187.86 930 187.5H926C926 188.172 926.078 188.829 926.227 189.46L930.12 188.54ZM906 191H928.174V187H906V191ZM904 184V189H908V184H904ZM928 182H906V186H928V182ZM930 187.5V184H926V187.5H930Z" fill="#012137" mask="url(#path-18-inside-1_2148_11390)"/>
<path d="M922.97 152.02C922.97 158.63 917.6 164 910.99 164C904.38 164 899.01 158.63 899.01 152.02C899.01 145.41 904.38 140.04 910.99 140.04C914.67 140.04 917.96 141.71 920.16 144.32C917.66 144.48 915.17 144.24 912.78 143.61V147.86C914.7 148.28 916.67 148.51 918.66 148.51C920.5 148.51 922.36 148.32 924.21 147.95C924.85 147.79 925.39 147.32 925.64 146.71C925.69 146.59 925.72 146.48 925.75 146.36C926.53 142.54 926.47 138.69 925.65 135.01H921.39C921.87 136.83 922.13 138.72 922.15 140.63C919.27 137.8 915.34 136.05 910.99 136.05C902.18 136.05 895.01 143.22 895.01 152.03C895.01 160.84 902.18 168.01 910.99 168.01C919.8 168.01 926.97 160.84 926.97 152.03H922.97V152.02Z" fill="#1FA4F1"/>
<path d="M947 121H858.5" stroke="#012137" stroke-width="2"/>
<path d="M913 103L913 107" stroke="#012137" stroke-width="2" stroke-linecap="round"/>
<path d="M930 103L930 107" stroke="#012137" stroke-width="2" stroke-linecap="round"/>
<path d="M947 103L947 107" stroke="#012137" stroke-width="2" stroke-linecap="round"/>
<path d="M964 103L964 107" stroke="#012137" stroke-width="2" stroke-linecap="round"/>
<path d="M881 176L881 146" stroke="#012137" stroke-width="2"/>
<path d="M876 145L863 145" stroke="#012137" stroke-width="2"/>
<path d="M876 134L863 134" stroke="#012137" stroke-width="2"/>
<path d="M943 183L894 183" stroke="#012137" stroke-width="2"/>
<mask id="path-30-inside-2_2148_11390" fill="white">
<path fill-rule="evenodd" clip-rule="evenodd" d="M896 90.5C896 86.3579 892.642 83 888.5 83C884.358 83 881 86.3579 881 90.5V107H860.5C856.358 107 853 110.358 853 114.5C853 117.278 854.511 119.704 856.756 121C855.875 121.508 855.107 122.191 854.499 123H844.5C842.015 123 840 125.015 840 127.5C840 129.985 842.015 132 844.5 132H854.499C855.868 133.822 858.046 135 860.5 135H862L862 144H858.5C854.358 144 851 147.358 851 151.5C851 155.642 854.358 159 858.5 159H880V162H854.5C850.358 162 847 165.358 847 169.5C847 173.642 850.358 177 854.5 177H880.458C881.732 181.057 885.522 184 890 184H893V189.5C893 190.102 893.082 190.684 893.235 191.237C893.083 191.629 893 192.055 893 192.5C893 194.433 894.567 196 896.5 196H899.49L899.5 196L899.51 196H942.5C944.433 196 946 194.433 946 192.5C946 190.567 944.433 189 942.5 189H940.826C940.94 188.518 941 188.016 941 187.5V184H946C951.523 184 956 179.523 956 174V157C956 151.477 951.523 147 946 147H943.95L937.022 135H942.5C946.642 135 950 131.642 950 127.5C950 125.327 949.076 123.37 947.599 122H963.5C967.642 122 971 118.642 971 114.5C971 110.358 967.642 107 963.5 107H896V90.5ZM877 144V135H880V144H877ZM928 187.5C928 188.016 928.06 188.518 928.174 189H906V184H928V187.5Z"/>
</mask>
<path fill-rule="evenodd" clip-rule="evenodd" d="M896 90.5C896 86.3579 892.642 83 888.5 83C884.358 83 881 86.3579 881 90.5V107H860.5C856.358 107 853 110.358 853 114.5C853 117.278 854.511 119.704 856.756 121C855.875 121.508 855.107 122.191 854.499 123H844.5C842.015 123 840 125.015 840 127.5C840 129.985 842.015 132 844.5 132H854.499C855.868 133.822 858.046 135 860.5 135H862L862 144H858.5C854.358 144 851 147.358 851 151.5C851 155.642 854.358 159 858.5 159H880V162H854.5C850.358 162 847 165.358 847 169.5C847 173.642 850.358 177 854.5 177H880.458C881.732 181.057 885.522 184 890 184H893V189.5C893 190.102 893.082 190.684 893.235 191.237C893.083 191.629 893 192.055 893 192.5C893 194.433 894.567 196 896.5 196H899.49L899.5 196L899.51 196H942.5C944.433 196 946 194.433 946 192.5C946 190.567 944.433 189 942.5 189H940.826C940.94 188.518 941 188.016 941 187.5V184H946C951.523 184 956 179.523 956 174V157C956 151.477 951.523 147 946 147H943.95L937.022 135H942.5C946.642 135 950 131.642 950 127.5C950 125.327 949.076 123.37 947.599 122H963.5C967.642 122 971 118.642 971 114.5C971 110.358 967.642 107 963.5 107H896V90.5ZM877 144V135H880V144H877ZM928 187.5C928 188.016 928.06 188.518 928.174 189H906V184H928V187.5Z" fill="white"/>
<path d="M881 107V109H883V107H881ZM856.756 121L857.756 122.732L860.756 121L857.756 119.268L856.756 121ZM854.499 123V125H855.499L856.099 124.201L854.499 123ZM854.499 132L856.099 130.799L855.499 130H854.499V132ZM862 135H864V133H862V135ZM862 144V146H864V144H862ZM880 159H882V157H880V159ZM880 162V164H882V162H880ZM880.458 177L882.366 176.401L881.926 175H880.458V177ZM893 184H895V182H893V184ZM893.235 191.237L895.1 191.959L895.339 191.342L895.162 190.704L893.235 191.237ZM899.49 196L899.491 194H899.49V196ZM899.5 196L899.498 198H899.502L899.5 196ZM899.51 196V194H899.509L899.51 196ZM940.826 189L938.88 188.54L938.299 191H940.826V189ZM941 184V182H939V184H941ZM943.95 147L942.218 148L942.796 149H943.95V147ZM937.022 135V133H933.558L935.29 136L937.022 135ZM947.599 122V120H942.502L946.239 123.466L947.599 122ZM896 107H894V109H896V107ZM877 135V133H875V135H877ZM877 144H875V146H877V144ZM880 135H882V133H880V135ZM880 144V146H882V144H880ZM928.174 189V191H930.701L930.12 188.54L928.174 189ZM906 189H904V191H906V189ZM906 184V182H904V184H906ZM928 184H930V182H928V184ZM888.5 85C891.538 85 894 87.4624 894 90.5H898C898 85.2533 893.747 81 888.5 81V85ZM883 90.5C883 87.4624 885.462 85 888.5 85V81C883.253 81 879 85.2533 879 90.5H883ZM883 107V90.5H879V107H883ZM860.5 109H881V105H860.5V109ZM855 114.5C855 111.462 857.462 109 860.5 109V105C855.253 105 851 109.253 851 114.5H855ZM857.756 119.268C856.104 118.315 855 116.535 855 114.5H851C851 118.022 852.918 121.094 855.756 122.732L857.756 119.268ZM856.099 124.201C856.545 123.606 857.11 123.105 857.756 122.732L855.756 119.268C854.64 119.912 853.669 120.775 852.9 121.799L856.099 124.201ZM844.5 125H854.499V121H844.5V125ZM842 127.5C842 126.119 843.119 125 844.5 125V121C840.91 121 838 123.91 838 127.5H842ZM844.5 130C843.119 130 842 128.881 842 127.5H838C838 131.09 840.91 134 844.5 134V130ZM854.499 130H844.5V134H854.499V130ZM860.5 133C858.702 133 857.105 132.139 856.099 130.799L852.9 133.201C854.63 135.504 857.391 137 860.5 137V133ZM862 133H860.5V137H862V133ZM864 144L864 135H860L860 144H864ZM858.5 146H862V142H858.5V146ZM853 151.5C853 148.462 855.462 146 858.5 146V142C853.253 142 849 146.253 849 151.5H853ZM858.5 157C855.462 157 853 154.538 853 151.5H849C849 156.747 853.253 161 858.5 161V157ZM880 157H858.5V161H880V157ZM882 162V159H878V162H882ZM854.5 164H880V160H854.5V164ZM849 169.5C849 166.462 851.462 164 854.5 164V160C849.253 160 845 164.253 845 169.5H849ZM854.5 175C851.462 175 849 172.538 849 169.5H845C845 174.747 849.253 179 854.5 179V175ZM880.458 175H854.5V179H880.458V175ZM890 182C886.421 182 883.386 179.648 882.366 176.401L878.55 177.599C880.078 182.466 884.624 186 890 186V182ZM893 182H890V186H893V182ZM895 189.5V184H891V189.5H895ZM895.162 190.704C895.057 190.323 895 189.92 895 189.5H891C891 190.284 891.107 191.045 891.307 191.771L895.162 190.704ZM895 192.5C895 192.306 895.036 192.124 895.1 191.959L891.37 190.515C891.13 191.134 891 191.804 891 192.5H895ZM896.5 194C895.672 194 895 193.328 895 192.5H891C891 195.538 893.462 198 896.5 198V194ZM899.49 194H896.5V198H899.49V194ZM899.502 194L899.491 194L899.488 198L899.498 198L899.502 194ZM899.509 194L899.498 194L899.502 198L899.512 198L899.509 194ZM942.5 194H899.51V198H942.5V194ZM944 192.5C944 193.328 943.328 194 942.5 194V198C945.538 198 948 195.538 948 192.5H944ZM942.5 191C943.328 191 944 191.672 944 192.5H948C948 189.462 945.538 187 942.5 187V191ZM940.826 191H942.5V187H940.826V191ZM939 187.5C939 187.86 938.958 188.208 938.88 188.54L942.773 189.46C942.922 188.829 943 188.172 943 187.5H939ZM939 184V187.5H943V184H939ZM946 182H941V186H946V182ZM954 174C954 178.418 950.418 182 946 182V186C952.627 186 958 180.627 958 174H954ZM954 157V174H958V157H954ZM946 149C950.418 149 954 152.582 954 157H958C958 150.373 952.627 145 946 145V149ZM943.95 149H946V145H943.95V149ZM935.29 136L942.218 148L945.683 146L938.754 134L935.29 136ZM942.5 133H937.022V137H942.5V133ZM948 127.5C948 130.538 945.538 133 942.5 133V137C947.747 137 952 132.747 952 127.5H948ZM946.239 123.466C947.325 124.473 948 125.906 948 127.5H952C952 124.748 950.827 122.266 948.959 120.534L946.239 123.466ZM963.5 120H947.599V124H963.5V120ZM969 114.5C969 117.538 966.538 120 963.5 120V124C968.747 124 973 119.747 973 114.5H969ZM963.5 109C966.538 109 969 111.462 969 114.5H973C973 109.253 968.747 105 963.5 105V109ZM896 109H963.5V105H896V109ZM894 90.5V107H898V90.5H894ZM875 135V144H879V135H875ZM880 133H877V137H880V133ZM882 144V135H878V144H882ZM877 146H880V142H877V146ZM930.12 188.54C930.042 188.208 930 187.86 930 187.5H926C926 188.172 926.078 188.829 926.227 189.46L930.12 188.54ZM906 191H928.174V187H906V191ZM904 184V189H908V184H904ZM928 182H906V186H928V182ZM930 187.5V184H926V187.5H930Z" fill="#012137" mask="url(#path-30-inside-2_2148_11390)"/>
<path d="M922.97 152.02C922.97 158.63 917.6 164 910.99 164C904.38 164 899.01 158.63 899.01 152.02C899.01 145.41 904.38 140.04 910.99 140.04C914.67 140.04 917.96 141.71 920.16 144.32C917.66 144.48 915.17 144.24 912.78 143.61V147.86C914.7 148.28 916.67 148.51 918.66 148.51C920.5 148.51 922.36 148.32 924.21 147.95C924.85 147.79 925.39 147.32 925.64 146.71C925.69 146.59 925.72 146.48 925.75 146.36C926.53 142.54 926.47 138.69 925.65 135.01H921.39C921.87 136.83 922.13 138.72 922.15 140.63C919.27 137.8 915.34 136.05 910.99 136.05C902.18 136.05 895.01 143.22 895.01 152.03C895.01 160.84 902.18 168.01 910.99 168.01C919.8 168.01 926.97 160.84 926.97 152.03H922.97V152.02Z" fill="#1FA4F1"/>
<path d="M947 121H858.5" stroke="#012137" stroke-width="2"/>
<path d="M913 103L913 107" stroke="#012137" stroke-width="2" stroke-linecap="round"/>
<path d="M930 103L930 107" stroke="#012137" stroke-width="2" stroke-linecap="round"/>
<path d="M947 103L947 107" stroke="#012137" stroke-width="2" stroke-linecap="round"/>
<path d="M964 103L964 107" stroke="#012137" stroke-width="2" stroke-linecap="round"/>
<path d="M881 176L881 146" stroke="#012137" stroke-width="2"/>
<path d="M876 145L863 145" stroke="#012137" stroke-width="2"/>
<path d="M876 134L863 134" stroke="#012137" stroke-width="2"/>
<path d="M943 183L894 183" stroke="#012137" stroke-width="2"/>
<g clip-path="url(#clip3_2148_11390)">
<rect x="283" y="105" width="91" height="91" rx="12" fill="white"/>
<path d="M372.998 117.999V117.999V183.001C372.998 189.628 367.626 195 360.998 195H295.999C289.372 195 284 189.628 284 182.998V117.999C284 111.372 289.372 106 295.999 106H361.001C367.628 106 373 111.372 372.998 117.999Z" stroke="#012137" stroke-width="2"/>
<path d="M296.325 114.125H360.675C362.996 114.125 364.876 116.006 364.876 118.325V169.676C364.876 171.997 362.994 173.877 360.675 173.877H296.325C294.005 173.877 292.125 171.995 292.125 169.676V118.325C292.125 116.005 294.006 114.125 296.325 114.125Z" stroke="#012137" stroke-width="2"/>
<path d="M327.327 145.743C330.469 147.857 333.562 149.304 336.52 150.045C339.281 150.737 341.881 150.808 344.248 150.258C347.437 149.517 349.735 147.72 351.469 145.161C351.934 144.457 351.932 143.535 351.464 142.831C350.661 141.618 349.774 140.48 348.811 139.426C348.738 141.102 348.302 142.237 347.894 142.95C346.972 144.551 345.342 145.693 343.298 146.167C341.588 146.564 339.65 146.497 337.543 145.97C335.059 145.349 332.411 144.099 329.673 142.258C326.532 140.143 323.438 138.696 320.48 137.956C317.719 137.263 315.119 137.192 312.753 137.742C309.563 138.483 307.265 140.281 305.532 142.84C305.066 143.544 305.069 144.466 305.536 145.17C306.339 146.383 307.226 147.52 308.189 148.575C308.263 146.899 308.698 145.764 309.107 145.05C310.028 143.45 311.659 142.308 313.702 141.833C315.413 141.437 317.35 141.503 319.458 142.031C321.941 142.652 324.589 143.902 327.327 145.743Z" fill="#B4DBFF"/>
<path d="M331.874 138.985C335.938 141.719 339.779 142.936 342.406 142.326C343.372 142.102 344.106 141.625 344.475 140.983C344.819 140.384 344.952 139.332 344.839 138.093C344.835 138.032 344.828 137.972 344.821 137.91C343.991 138.165 342.842 138.385 341.365 138.385C340.749 138.385 340.242 138.323 339.919 138.259C338.777 138.034 336.85 137.387 334.163 135.58C330.955 133.422 327.729 131.806 324.544 130.76C321.572 131.189 318.719 132.097 316.084 133.432C317.813 133.436 319.604 133.67 321.436 134.129C324.839 134.982 328.35 136.614 331.872 138.983L331.874 138.985Z" fill="#B4DBFF"/>
<path d="M325.126 149.015C321.063 146.282 317.222 145.064 314.594 145.674C313.629 145.899 312.895 146.376 312.526 147.018C312.182 147.616 312.049 148.669 312.161 149.907C312.166 149.969 312.173 150.029 312.179 150.091C313.01 149.836 314.158 149.616 315.635 149.616C316.252 149.616 316.759 149.678 317.082 149.742C318.224 149.967 320.15 150.613 322.838 152.42C326.046 154.578 329.274 156.195 332.459 157.24C335.431 156.812 338.286 155.904 340.923 154.569C339.192 154.564 337.398 154.333 335.564 153.872C332.161 153.019 328.65 151.386 325.128 149.017L325.126 149.015Z" fill="#B4DBFF"/>
</g>
<g clip-path="url(#clip4_2148_11390)">
<rect x="477" y="110" width="123" height="80" rx="10" fill="white"/>
<path d="M395.85 123.444C390.567 117.519 385.284 117.519 380 123.444L380 263.5L697 263.5L697 123.444C691.717 117.518 686.433 117.518 681.15 123.444C675.867 117.518 670.583 117.518 665.3 123.444C660.017 117.518 654.733 117.518 649.45 123.444C644.167 117.518 638.883 117.518 633.6 123.444C628.317 117.518 623.033 117.518 617.75 123.444C612.467 117.518 607.183 117.518 601.9 123.444C596.617 117.518 591.333 117.518 586.05 123.444C580.767 117.518 575.483 117.518 570.2 123.444C564.917 117.518 559.633 117.518 554.35 123.444C549.067 117.518 543.783 117.518 538.5 123.444C533.217 117.518 527.933 117.518 522.65 123.444C517.367 117.518 512.084 117.518 506.8 123.444C501.517 117.518 496.234 117.518 490.95 123.444C485.667 117.518 480.383 117.519 475.1 123.444C469.817 117.519 464.534 117.519 459.25 123.444C453.967 117.519 448.684 117.519 443.4 123.444C438.117 117.519 432.833 117.519 427.55 123.444C422.267 117.519 416.984 117.519 411.7 123.444C406.417 117.519 401.134 117.519 395.85 123.444Z" fill="#00D791"/>
<path d="M529.136 146.726H523.732V149.834H527.96V150.8H523.732V155H522.696V145.76H529.136V146.726ZM534.382 150.464C534.382 149.923 534.237 149.507 533.948 149.218C533.659 148.919 533.248 148.77 532.716 148.77C532.221 148.77 531.801 148.877 531.456 149.092C531.111 149.307 530.854 149.652 530.686 150.128L529.846 149.61C530.042 149.078 530.387 148.653 530.882 148.336C531.386 148.019 532.007 147.86 532.744 147.86C533.248 147.86 533.701 147.949 534.102 148.126C534.513 148.294 534.835 148.555 535.068 148.91C535.301 149.265 535.418 149.713 535.418 150.254V153.67C535.418 154.034 535.605 154.216 535.978 154.216C536.155 154.216 536.328 154.193 536.496 154.146L536.44 154.958C536.263 155.051 536.029 155.098 535.74 155.098C535.479 155.098 535.241 155.051 535.026 154.958C534.821 154.855 534.657 154.701 534.536 154.496C534.415 154.281 534.354 154.015 534.354 153.698V153.516L534.62 153.544C534.517 153.917 534.326 154.221 534.046 154.454C533.775 154.687 533.467 154.86 533.122 154.972C532.777 155.084 532.436 155.14 532.1 155.14C531.689 155.14 531.307 155.07 530.952 154.93C530.597 154.79 530.317 154.58 530.112 154.3C529.907 154.02 529.804 153.67 529.804 153.25C529.804 152.727 529.977 152.298 530.322 151.962C530.677 151.626 531.167 151.397 531.792 151.276L534.592 150.73V151.584L532.282 152.06C531.806 152.153 531.451 152.289 531.218 152.466C530.985 152.643 530.868 152.886 530.868 153.194C530.868 153.511 530.985 153.763 531.218 153.95C531.461 154.137 531.806 154.23 532.254 154.23C532.525 154.23 532.786 154.197 533.038 154.132C533.29 154.057 533.519 153.945 533.724 153.796C533.929 153.647 534.088 153.46 534.2 153.236C534.321 153.012 534.382 152.746 534.382 152.438V150.464ZM538.1 155V148H538.954L539.094 149.204C539.28 148.765 539.565 148.434 539.948 148.21C540.33 147.977 540.792 147.86 541.334 147.86C541.464 147.86 541.604 147.874 541.754 147.902C541.903 147.921 542.029 147.958 542.132 148.014L541.936 148.966C541.833 148.919 541.721 148.887 541.6 148.868C541.478 148.84 541.306 148.826 541.082 148.826C540.774 148.826 540.47 148.915 540.172 149.092C539.873 149.269 539.626 149.535 539.43 149.89C539.234 150.235 539.136 150.669 539.136 151.192V155H538.1ZM543.732 155V148H544.642L544.712 149.162C544.955 148.723 545.282 148.397 545.692 148.182C546.112 147.967 546.551 147.86 547.008 147.86C547.531 147.86 548.012 147.981 548.45 148.224C548.889 148.457 549.216 148.817 549.43 149.302C549.58 148.975 549.79 148.709 550.06 148.504C550.331 148.289 550.63 148.131 550.956 148.028C551.292 147.916 551.614 147.86 551.922 147.86C552.38 147.86 552.809 147.953 553.21 148.14C553.612 148.327 553.938 148.616 554.19 149.008C554.452 149.4 554.582 149.899 554.582 150.506V155H553.546V150.604C553.546 149.96 553.383 149.493 553.056 149.204C552.73 148.915 552.319 148.77 551.824 148.77C551.442 148.77 551.087 148.863 550.76 149.05C550.434 149.227 550.172 149.493 549.976 149.848C549.78 150.193 549.682 150.618 549.682 151.122V155H548.646V150.618C548.646 149.965 548.478 149.493 548.142 149.204C547.816 148.915 547.41 148.77 546.924 148.77C546.588 148.77 546.252 148.859 545.916 149.036C545.59 149.204 545.314 149.47 545.09 149.834C544.876 150.189 544.768 150.651 544.768 151.22V155H543.732Z" fill="#012137"/>
</g>
<g clip-path="url(#clip5_2148_11390)">
<rect x="477" y="110" width="123" height="80" rx="10" fill="white"/>
<path d="M395.85 123.444C390.567 117.519 385.284 117.519 380 123.444L380 263.5L697 263.5L697 123.444C691.717 117.518 686.433 117.518 681.15 123.444C675.867 117.518 670.583 117.518 665.3 123.444C660.017 117.518 654.733 117.518 649.45 123.444C644.167 117.518 638.883 117.518 633.6 123.444C628.317 117.518 623.033 117.518 617.75 123.444C612.467 117.518 607.183 117.518 601.9 123.444C596.617 117.518 591.333 117.518 586.05 123.444C580.767 117.518 575.483 117.518 570.2 123.444C564.917 117.518 559.633 117.518 554.35 123.444C549.067 117.518 543.783 117.518 538.5 123.444C533.217 117.518 527.933 117.518 522.65 123.444C517.367 117.518 512.084 117.518 506.8 123.444C501.517 117.518 496.234 117.518 490.95 123.444C485.667 117.518 480.383 117.519 475.1 123.444C469.817 117.519 464.534 117.519 459.25 123.444C453.967 117.519 448.684 117.519 443.4 123.444C438.117 117.519 432.833 117.519 427.55 123.444C422.267 117.519 416.984 117.519 411.7 123.444C406.417 117.519 401.134 117.519 395.85 123.444Z" fill="#00D791"/>
<path d="M529.136 146.726H523.732V149.834H527.96V150.8H523.732V155H522.696V145.76H529.136V146.726ZM534.382 150.464C534.382 149.923 534.237 149.507 533.948 149.218C533.659 148.919 533.248 148.77 532.716 148.77C532.221 148.77 531.801 148.877 531.456 149.092C531.111 149.307 530.854 149.652 530.686 150.128L529.846 149.61C530.042 149.078 530.387 148.653 530.882 148.336C531.386 148.019 532.007 147.86 532.744 147.86C533.248 147.86 533.701 147.949 534.102 148.126C534.513 148.294 534.835 148.555 535.068 148.91C535.301 149.265 535.418 149.713 535.418 150.254V153.67C535.418 154.034 535.605 154.216 535.978 154.216C536.155 154.216 536.328 154.193 536.496 154.146L536.44 154.958C536.263 155.051 536.029 155.098 535.74 155.098C535.479 155.098 535.241 155.051 535.026 154.958C534.821 154.855 534.657 154.701 534.536 154.496C534.415 154.281 534.354 154.015 534.354 153.698V153.516L534.62 153.544C534.517 153.917 534.326 154.221 534.046 154.454C533.775 154.687 533.467 154.86 533.122 154.972C532.777 155.084 532.436 155.14 532.1 155.14C531.689 155.14 531.307 155.07 530.952 154.93C530.597 154.79 530.317 154.58 530.112 154.3C529.907 154.02 529.804 153.67 529.804 153.25C529.804 152.727 529.977 152.298 530.322 151.962C530.677 151.626 531.167 151.397 531.792 151.276L534.592 150.73V151.584L532.282 152.06C531.806 152.153 531.451 152.289 531.218 152.466C530.985 152.643 530.868 152.886 530.868 153.194C530.868 153.511 530.985 153.763 531.218 153.95C531.461 154.137 531.806 154.23 532.254 154.23C532.525 154.23 532.786 154.197 533.038 154.132C533.29 154.057 533.519 153.945 533.724 153.796C533.929 153.647 534.088 153.46 534.2 153.236C534.321 153.012 534.382 152.746 534.382 152.438V150.464ZM538.1 155V148H538.954L539.094 149.204C539.28 148.765 539.565 148.434 539.948 148.21C540.33 147.977 540.792 147.86 541.334 147.86C541.464 147.86 541.604 147.874 541.754 147.902C541.903 147.921 542.029 147.958 542.132 148.014L541.936 148.966C541.833 148.919 541.721 148.887 541.6 148.868C541.478 148.84 541.306 148.826 541.082 148.826C540.774 148.826 540.47 148.915 540.172 149.092C539.873 149.269 539.626 149.535 539.43 149.89C539.234 150.235 539.136 150.669 539.136 151.192V155H538.1ZM543.732 155V148H544.642L544.712 149.162C544.955 148.723 545.282 148.397 545.692 148.182C546.112 147.967 546.551 147.86 547.008 147.86C547.531 147.86 548.012 147.981 548.45 148.224C548.889 148.457 549.216 148.817 549.43 149.302C549.58 148.975 549.79 148.709 550.06 148.504C550.331 148.289 550.63 148.131 550.956 148.028C551.292 147.916 551.614 147.86 551.922 147.86C552.38 147.86 552.809 147.953 553.21 148.14C553.612 148.327 553.938 148.616 554.19 149.008C554.452 149.4 554.582 149.899 554.582 150.506V155H553.546V150.604C553.546 149.96 553.383 149.493 553.056 149.204C552.73 148.915 552.319 148.77 551.824 148.77C551.442 148.77 551.087 148.863 550.76 149.05C550.434 149.227 550.172 149.493 549.976 149.848C549.78 150.193 549.682 150.618 549.682 151.122V155H548.646V150.618C548.646 149.965 548.478 149.493 548.142 149.204C547.816 148.915 547.41 148.77 546.924 148.77C546.588 148.77 546.252 148.859 545.916 149.036C545.59 149.204 545.314 149.47 545.09 149.834C544.876 150.189 544.768 150.651 544.768 151.22V155H543.732Z" fill="#012137"/>
</g>
<g clip-path="url(#clip6_2148_11390)">
<rect x="477" y="110" width="123" height="80" rx="10" fill="white"/>
<path d="M395.85 123.444C390.567 117.519 385.284 117.519 380 123.444L380 263.5L697 263.5L697 123.444C691.717 117.518 686.433 117.518 681.15 123.444C675.867 117.518 670.583 117.518 665.3 123.444C660.017 117.518 654.733 117.518 649.45 123.444C644.167 117.518 638.883 117.518 633.6 123.444C628.317 117.518 623.033 117.518 617.75 123.444C612.467 117.518 607.183 117.518 601.9 123.444C596.617 117.518 591.333 117.518 586.05 123.444C580.767 117.518 575.483 117.518 570.2 123.444C564.917 117.518 559.633 117.518 554.35 123.444C549.067 117.518 543.783 117.518 538.5 123.444C533.217 117.518 527.933 117.518 522.65 123.444C517.367 117.518 512.084 117.518 506.8 123.444C501.517 117.518 496.234 117.518 490.95 123.444C485.667 117.518 480.383 117.519 475.1 123.444C469.817 117.519 464.534 117.519 459.25 123.444C453.967 117.519 448.684 117.519 443.4 123.444C438.117 117.519 432.833 117.519 427.55 123.444C422.267 117.519 416.984 117.519 411.7 123.444C406.417 117.519 401.134 117.519 395.85 123.444Z" fill="#00D791"/>
<path d="M529.136 146.726H523.732V149.834H527.96V150.8H523.732V155H522.696V145.76H529.136V146.726ZM534.382 150.464C534.382 149.923 534.237 149.507 533.948 149.218C533.659 148.919 533.248 148.77 532.716 148.77C532.221 148.77 531.801 148.877 531.456 149.092C531.111 149.307 530.854 149.652 530.686 150.128L529.846 149.61C530.042 149.078 530.387 148.653 530.882 148.336C531.386 148.019 532.007 147.86 532.744 147.86C533.248 147.86 533.701 147.949 534.102 148.126C534.513 148.294 534.835 148.555 535.068 148.91C535.301 149.265 535.418 149.713 535.418 150.254V153.67C535.418 154.034 535.605 154.216 535.978 154.216C536.155 154.216 536.328 154.193 536.496 154.146L536.44 154.958C536.263 155.051 536.029 155.098 535.74 155.098C535.479 155.098 535.241 155.051 535.026 154.958C534.821 154.855 534.657 154.701 534.536 154.496C534.415 154.281 534.354 154.015 534.354 153.698V153.516L534.62 153.544C534.517 153.917 534.326 154.221 534.046 154.454C533.775 154.687 533.467 154.86 533.122 154.972C532.777 155.084 532.436 155.14 532.1 155.14C531.689 155.14 531.307 155.07 530.952 154.93C530.597 154.79 530.317 154.58 530.112 154.3C529.907 154.02 529.804 153.67 529.804 153.25C529.804 152.727 529.977 152.298 530.322 151.962C530.677 151.626 531.167 151.397 531.792 151.276L534.592 150.73V151.584L532.282 152.06C531.806 152.153 531.451 152.289 531.218 152.466C530.985 152.643 530.868 152.886 530.868 153.194C530.868 153.511 530.985 153.763 531.218 153.95C531.461 154.137 531.806 154.23 532.254 154.23C532.525 154.23 532.786 154.197 533.038 154.132C533.29 154.057 533.519 153.945 533.724 153.796C533.929 153.647 534.088 153.46 534.2 153.236C534.321 153.012 534.382 152.746 534.382 152.438V150.464ZM538.1 155V148H538.954L539.094 149.204C539.28 148.765 539.565 148.434 539.948 148.21C540.33 147.977 540.792 147.86 541.334 147.86C541.464 147.86 541.604 147.874 541.754 147.902C541.903 147.921 542.029 147.958 542.132 148.014L541.936 148.966C541.833 148.919 541.721 148.887 541.6 148.868C541.478 148.84 541.306 148.826 541.082 148.826C540.774 148.826 540.47 148.915 540.172 149.092C539.873 149.269 539.626 149.535 539.43 149.89C539.234 150.235 539.136 150.669 539.136 151.192V155H538.1ZM543.732 155V148H544.642L544.712 149.162C544.955 148.723 545.282 148.397 545.692 148.182C546.112 147.967 546.551 147.86 547.008 147.86C547.531 147.86 548.012 147.981 548.45 148.224C548.889 148.457 549.216 148.817 549.43 149.302C549.58 148.975 549.79 148.709 550.06 148.504C550.331 148.289 550.63 148.131 550.956 148.028C551.292 147.916 551.614 147.86 551.922 147.86C552.38 147.86 552.809 147.953 553.21 148.14C553.612 148.327 553.938 148.616 554.19 149.008C554.452 149.4 554.582 149.899 554.582 150.506V155H553.546V150.604C553.546 149.96 553.383 149.493 553.056 149.204C552.73 148.915 552.319 148.77 551.824 148.77C551.442 148.77 551.087 148.863 550.76 149.05C550.434 149.227 550.172 149.493 549.976 149.848C549.78 150.193 549.682 150.618 549.682 151.122V155H548.646V150.618C548.646 149.965 548.478 149.493 548.142 149.204C547.816 148.915 547.41 148.77 546.924 148.77C546.588 148.77 546.252 148.859 545.916 149.036C545.59 149.204 545.314 149.47 545.09 149.834C544.876 150.189 544.768 150.651 544.768 151.22V155H543.732Z" fill="#012137"/>
</g>
<g clip-path="url(#clip7_2148_11390)">
<rect x="477" y="110" width="123" height="80" rx="10" fill="white"/>
<path d="M395.85 128.223C390.567 119.889 385.283 119.889 380 128.223V203H697V128.223C691.717 112.118 686.433 112.118 681.15 128.223C675.867 121.123 670.583 121.123 665.3 128.223C660.017 116.82 654.733 116.82 649.45 128.223C644.167 122.812 638.883 122.812 633.6 128.223C628.317 123.066 623.033 123.066 617.75 128.223C612.467 118.981 607.183 118.981 601.9 128.223C596.617 118.999 591.333 118.999 586.05 128.223C580.767 118.091 575.483 118.091 570.2 128.223C564.917 110.847 559.633 110.847 554.35 128.223C549.067 111.337 543.783 111.337 538.5 128.223C533.217 113.189 527.933 113.189 522.65 128.223C517.367 123.084 512.083 123.084 506.8 128.223C501.517 119.217 496.233 119.217 490.95 128.223C485.667 110.592 480.383 110.592 475.1 128.223C469.817 123.992 464.533 123.992 459.25 128.223C453.967 123.375 448.683 123.375 443.4 128.223C438.117 110.719 432.833 110.719 427.55 128.223C422.267 111.119 416.983 111.119 411.7 128.223C406.417 116.348 401.133 116.348 395.85 128.223Z" fill="#FF4D80"/>
<path d="M529.136 146.726H523.732V149.834H527.96V150.8H523.732V155H522.696V145.76H529.136V146.726ZM534.382 150.464C534.382 149.923 534.237 149.507 533.948 149.218C533.659 148.919 533.248 148.77 532.716 148.77C532.221 148.77 531.801 148.877 531.456 149.092C531.111 149.307 530.854 149.652 530.686 150.128L529.846 149.61C530.042 149.078 530.387 148.653 530.882 148.336C531.386 148.019 532.007 147.86 532.744 147.86C533.248 147.86 533.701 147.949 534.102 148.126C534.513 148.294 534.835 148.555 535.068 148.91C535.301 149.265 535.418 149.713 535.418 150.254V153.67C535.418 154.034 535.605 154.216 535.978 154.216C536.155 154.216 536.328 154.193 536.496 154.146L536.44 154.958C536.263 155.051 536.029 155.098 535.74 155.098C535.479 155.098 535.241 155.051 535.026 154.958C534.821 154.855 534.657 154.701 534.536 154.496C534.415 154.281 534.354 154.015 534.354 153.698V153.516L534.62 153.544C534.517 153.917 534.326 154.221 534.046 154.454C533.775 154.687 533.467 154.86 533.122 154.972C532.777 155.084 532.436 155.14 532.1 155.14C531.689 155.14 531.307 155.07 530.952 154.93C530.597 154.79 530.317 154.58 530.112 154.3C529.907 154.02 529.804 153.67 529.804 153.25C529.804 152.727 529.977 152.298 530.322 151.962C530.677 151.626 531.167 151.397 531.792 151.276L534.592 150.73V151.584L532.282 152.06C531.806 152.153 531.451 152.289 531.218 152.466C530.985 152.643 530.868 152.886 530.868 153.194C530.868 153.511 530.985 153.763 531.218 153.95C531.461 154.137 531.806 154.23 532.254 154.23C532.525 154.23 532.786 154.197 533.038 154.132C533.29 154.057 533.519 153.945 533.724 153.796C533.929 153.647 534.088 153.46 534.2 153.236C534.321 153.012 534.382 152.746 534.382 152.438V150.464ZM538.1 155V148H538.954L539.094 149.204C539.28 148.765 539.565 148.434 539.948 148.21C540.33 147.977 540.792 147.86 541.334 147.86C541.464 147.86 541.604 147.874 541.754 147.902C541.903 147.921 542.029 147.958 542.132 148.014L541.936 148.966C541.833 148.919 541.721 148.887 541.6 148.868C541.478 148.84 541.306 148.826 541.082 148.826C540.774 148.826 540.47 148.915 540.172 149.092C539.873 149.269 539.626 149.535 539.43 149.89C539.234 150.235 539.136 150.669 539.136 151.192V155H538.1ZM543.732 155V148H544.642L544.712 149.162C544.955 148.723 545.282 148.397 545.692 148.182C546.112 147.967 546.551 147.86 547.008 147.86C547.531 147.86 548.012 147.981 548.45 148.224C548.889 148.457 549.216 148.817 549.43 149.302C549.58 148.975 549.79 148.709 550.06 148.504C550.331 148.289 550.63 148.131 550.956 148.028C551.292 147.916 551.614 147.86 551.922 147.86C552.38 147.86 552.809 147.953 553.21 148.14C553.612 148.327 553.938 148.616 554.19 149.008C554.452 149.4 554.582 149.899 554.582 150.506V155H553.546V150.604C553.546 149.96 553.383 149.493 553.056 149.204C552.73 148.915 552.319 148.77 551.824 148.77C551.442 148.77 551.087 148.863 550.76 149.05C550.434 149.227 550.172 149.493 549.976 149.848C549.78 150.193 549.682 150.618 549.682 151.122V155H548.646V150.618C548.646 149.965 548.478 149.493 548.142 149.204C547.816 148.915 547.41 148.77 546.924 148.77C546.588 148.77 546.252 148.859 545.916 149.036C545.59 149.204 545.314 149.47 545.09 149.834C544.876 150.189 544.768 150.651 544.768 151.22V155H543.732Z" fill="#012137"/>
</g>
<g clip-path="url(#clip8_2148_11390)">
<rect x="477" y="110" width="123" height="80" rx="10" fill="white"/>
<path d="M395.85 123.444C390.567 117.519 385.284 117.519 380 123.444L380 263.5L697 263.5L697 123.444C691.717 117.518 686.433 117.518 681.15 123.444C675.867 117.518 670.583 117.518 665.3 123.444C660.017 117.518 654.733 117.518 649.45 123.444C644.167 117.518 638.883 117.518 633.6 123.444C628.317 117.518 623.033 117.518 617.75 123.444C612.467 117.518 607.183 117.518 601.9 123.444C596.617 117.518 591.333 117.518 586.05 123.444C580.767 117.518 575.483 117.518 570.2 123.444C564.917 117.518 559.633 117.518 554.35 123.444C549.067 117.518 543.783 117.518 538.5 123.444C533.217 117.518 527.933 117.518 522.65 123.444C517.367 117.518 512.084 117.518 506.8 123.444C501.517 117.518 496.234 117.518 490.95 123.444C485.667 117.518 480.383 117.519 475.1 123.444C469.817 117.519 464.534 117.519 459.25 123.444C453.967 117.519 448.684 117.519 443.4 123.444C438.117 117.519 432.833 117.519 427.55 123.444C422.267 117.519 416.984 117.519 411.7 123.444C406.417 117.519 401.134 117.519 395.85 123.444Z" fill="#00D791"/>
<path d="M529.136 146.726H523.732V149.834H527.96V150.8H523.732V155H522.696V145.76H529.136V146.726ZM534.382 150.464C534.382 149.923 534.237 149.507 533.948 149.218C533.659 148.919 533.248 148.77 532.716 148.77C532.221 148.77 531.801 148.877 531.456 149.092C531.111 149.307 530.854 149.652 530.686 150.128L529.846 149.61C530.042 149.078 530.387 148.653 530.882 148.336C531.386 148.019 532.007 147.86 532.744 147.86C533.248 147.86 533.701 147.949 534.102 148.126C534.513 148.294 534.835 148.555 535.068 148.91C535.301 149.265 535.418 149.713 535.418 150.254V153.67C535.418 154.034 535.605 154.216 535.978 154.216C536.155 154.216 536.328 154.193 536.496 154.146L536.44 154.958C536.263 155.051 536.029 155.098 535.74 155.098C535.479 155.098 535.241 155.051 535.026 154.958C534.821 154.855 534.657 154.701 534.536 154.496C534.415 154.281 534.354 154.015 534.354 153.698V153.516L534.62 153.544C534.517 153.917 534.326 154.221 534.046 154.454C533.775 154.687 533.467 154.86 533.122 154.972C532.777 155.084 532.436 155.14 532.1 155.14C531.689 155.14 531.307 155.07 530.952 154.93C530.597 154.79 530.317 154.58 530.112 154.3C529.907 154.02 529.804 153.67 529.804 153.25C529.804 152.727 529.977 152.298 530.322 151.962C530.677 151.626 531.167 151.397 531.792 151.276L534.592 150.73V151.584L532.282 152.06C531.806 152.153 531.451 152.289 531.218 152.466C530.985 152.643 530.868 152.886 530.868 153.194C530.868 153.511 530.985 153.763 531.218 153.95C531.461 154.137 531.806 154.23 532.254 154.23C532.525 154.23 532.786 154.197 533.038 154.132C533.29 154.057 533.519 153.945 533.724 153.796C533.929 153.647 534.088 153.46 534.2 153.236C534.321 153.012 534.382 152.746 534.382 152.438V150.464ZM538.1 155V148H538.954L539.094 149.204C539.28 148.765 539.565 148.434 539.948 148.21C540.33 147.977 540.792 147.86 541.334 147.86C541.464 147.86 541.604 147.874 541.754 147.902C541.903 147.921 542.029 147.958 542.132 148.014L541.936 148.966C541.833 148.919 541.721 148.887 541.6 148.868C541.478 148.84 541.306 148.826 541.082 148.826C540.774 148.826 540.47 148.915 540.172 149.092C539.873 149.269 539.626 149.535 539.43 149.89C539.234 150.235 539.136 150.669 539.136 151.192V155H538.1ZM543.732 155V148H544.642L544.712 149.162C544.955 148.723 545.282 148.397 545.692 148.182C546.112 147.967 546.551 147.86 547.008 147.86C547.531 147.86 548.012 147.981 548.45 148.224C548.889 148.457 549.216 148.817 549.43 149.302C549.58 148.975 549.79 148.709 550.06 148.504C550.331 148.289 550.63 148.131 550.956 148.028C551.292 147.916 551.614 147.86 551.922 147.86C552.38 147.86 552.809 147.953 553.21 148.14C553.612 148.327 553.938 148.616 554.19 149.008C554.452 149.4 554.582 149.899 554.582 150.506V155H553.546V150.604C553.546 149.96 553.383 149.493 553.056 149.204C552.73 148.915 552.319 148.77 551.824 148.77C551.442 148.77 551.087 148.863 550.76 149.05C550.434 149.227 550.172 149.493 549.976 149.848C549.78 150.193 549.682 150.618 549.682 151.122V155H548.646V150.618C548.646 149.965 548.478 149.493 548.142 149.204C547.816 148.915 547.41 148.77 546.924 148.77C546.588 148.77 546.252 148.859 545.916 149.036C545.59 149.204 545.314 149.47 545.09 149.834C544.876 150.189 544.768 150.651 544.768 151.22V155H543.732Z" fill="#012137"/>
</g>
<defs>
<clipPath id="clip0_2148_11390">
<rect x="283" y="105" width="91" height="91" rx="12" fill="white"/>
</clipPath>
<clipPath id="clip1_2148_11390">
<rect x="697" y="105" width="122" height="91" rx="13" fill="white"/>
</clipPath>
<clipPath id="clip2_2148_11390">
<rect x="697" y="105" width="122" height="91" rx="13" fill="white"/>
</clipPath>
<clipPath id="clip3_2148_11390">
<rect x="283" y="105" width="91" height="91" rx="12" fill="white"/>
</clipPath>
<clipPath id="clip4_2148_11390">
<rect x="477" y="110" width="123" height="80" rx="10" fill="white"/>
</clipPath>
<clipPath id="clip5_2148_11390">
<rect x="477" y="110" width="123" height="80" rx="10" fill="white"/>
</clipPath>
<clipPath id="clip6_2148_11390">
<rect x="477" y="110" width="123" height="80" rx="10" fill="white"/>
</clipPath>
<clipPath id="clip7_2148_11390">
<rect x="477" y="110" width="123" height="80" rx="10" fill="white"/>
</clipPath>
<clipPath id="clip8_2148_11390">
<rect x="477" y="110" width="123" height="80" rx="10" fill="white"/>
</clipPath>
</defs>
</svg>
