<?xml version="1.0" encoding="UTF-8" standalone="no"?>
<svg
   width="193.5"
   height="35"
   viewBox="0 0 193.5 35"
   fill="none"
   version="1.1"
   id="svg8"
   sodipodi:docname="gift.svg"
   inkscape:version="1.1 (c68e22c387, 2021-05-23)"
   xmlns:inkscape="http://www.inkscape.org/namespaces/inkscape"
   xmlns:sodipodi="http://sodipodi.sourceforge.net/DTD/sodipodi-0.dtd"
   xmlns="http://www.w3.org/2000/svg"
   xmlns:svg="http://www.w3.org/2000/svg">
  <defs
     id="defs12" />
  <sodipodi:namedview
     id="namedview10"
     pagecolor="#ffffff"
     bordercolor="#666666"
     borderopacity="1.0"
     inkscape:pageshadow="2"
     inkscape:pageopacity="0.0"
     inkscape:pagecheckerboard="0"
     showgrid="false"
     inkscape:zoom="25.366337"
     inkscape:cx="182.56479"
     inkscape:cy="16.931889"
     inkscape:window-width="2560"
     inkscape:window-height="1411"
     inkscape:window-x="7191"
     inkscape:window-y="-9"
     inkscape:window-maximized="1"
     inkscape:current-layer="svg8" />
  <path
     d="m 46.878,27.8103 8.82,-19.6 h 3.584 l 8.848,19.6 h -3.808 l -7.588,-17.668 h 1.456 l -7.56,17.668 z m 4.06,-4.536 0.98,-2.856 h 10.584 l 0.98,2.856 z m 33.1616,4.536 -6.636,-9.548 2.94,-1.82 7.812,11.368 z m -12.964,0 v -19.6 h 3.584 v 19.6 z m 2.492,-8.26 v -3.136 h 6.608 v 3.136 z m 7.112,-1.12 -3.332,-0.448 6.692,-9.772 h 3.864 z m 9.9748,9.38 v -19.6 h 3.584 v 16.52 h 9.8836 v -16.52 h 3.612 v 19.6 z m 16.6316,4.312 v -5.208 l 0.812,0.896 h -3.976 v -3.08 h 6.524 v 7.392 z m 6.72,-4.312 v -19.6 h 3.584 v 13.916 l 10.528,-13.916 h 3.388 v 19.6 h -3.584 v -13.888 l -10.528,13.888 z m 34.391,0 v -6.272 l 0.896,0.812 h -5.74 c -1.642,0 -3.061,-0.2707 -4.256,-0.812 -1.176,-0.56 -2.081,-1.3533 -2.716,-2.38 -0.634,-1.0453 -0.952,-2.296 -0.952,-3.752 0,-1.512 0.336,-2.8 1.008,-3.864 0.672,-1.0827 1.624,-1.904 2.856,-2.464 1.232,-0.57867 2.679,-0.868 4.34,-0.868 h 8.148 v 19.6 z m -12.712,0 4.844,-7 h 3.668 l -4.676,7 z m 12.712,-7.448 v -10.08 l 0.896,1.008 h -5.348 c -1.493,0 -2.641,0.3453 -3.444,1.036 -0.784,0.672 -1.176,1.68 -1.176,3.024 0,1.288 0.374,2.2867 1.12,2.996 0.766,0.6907 1.886,1.036 3.36,1.036 h 5.488 z"
     fill="#ffffff"
     id="path4" />
  <circle
     cx="4.6259799"
     cy="17.810301"
     r="4"
     fill="#ffffff"
     id="circle6" />
</svg>
