<svg width="60" height="60" viewBox="0 0 60 60" fill="none" xmlns="http://www.w3.org/2000/svg">
<path d="M30 14L22.825 5.916C22.3 5.333 21.552 5 20.768 5C19.239 5 18 6.239 18 7.768C18 7.761 17.995 7.956 18.022 8.174C18.883 15.53 19 17 19 19C19 21.923 18.812 26.083 17.4 28.199L13.957 32.911L30.231 49.185L51.246 28.167C52.378 27.037 53 25.534 53 23.936C53 23.191 52.863 22.461 52.593 21.767L46.835 6.96C46.136 5.162 44.438 4 42.509 4C41.287 4 40.09 4.495 39.227 5.359L30 14Z" fill="#9FC659"/>
<path d="M26.707 51.293L11.707 36.293C11.526 36.112 11.276 36 11 36C10.724 36 10.474 36.112 10.293 36.293L6.293 40.293C6.112 40.474 6 40.724 6 41C6 41.276 6.112 41.526 6.293 41.707L21.293 56.707C21.474 56.888 21.724 57 22 57C22.276 57 22.526 56.888 22.707 56.707L26.707 52.707C26.888 52.526 27 52.276 27 52C27 51.724 26.888 51.474 26.707 51.293Z" fill="#9FC659"/>
</svg>
