<svg width="60" height="60" viewBox="0 0 60 60" fill="none" xmlns="http://www.w3.org/2000/svg">
<path d="M55.707 14.293L50.707 9.293C50.526 9.112 50.276 9 50 9C49.724 9 49.474 9.112 49.293 9.293L28 30.586L20.707 23.293C20.526 23.112 20.276 23 20 23C19.724 23 19.474 23.112 19.293 23.293L14.293 28.293C14.112 28.474 14 28.724 14 29C14 29.276 14.112 29.526 14.293 29.707L27.293 42.707C27.474 42.888 27.724 43 28 43C28.276 43 28.526 42.888 28.707 42.707L55.707 15.707C55.888 15.526 56 15.276 56 15C56 14.724 55.888 14.474 55.707 14.293Z" fill="#9FC659"/>
<path d="M31.535 45.535C30.591 46.479 29.336 47 28 47C26.664 47 25.409 46.479 24.465 45.535L11.465 32.535C10.522 31.599 10 30.341 10 29C10 27.659 10.522 26.401 11.473 25.457L16.465 20.465C17.409 19.521 18.664 19 20 19C21.336 19 22.591 19.521 23.535 20.465L28 24.929L42.228 10.701C38.244 7.759 33.333 6 28 6C14.745 6 4 16.745 4 30C4 43.255 14.745 54 28 54C41.255 54 52 43.255 52 30C52 28.461 51.847 26.96 51.568 25.502L31.535 45.535Z" fill="#9FC659"/>
</svg>
