<svg width="60" height="60" viewBox="0 0 60 60" fill="none" xmlns="http://www.w3.org/2000/svg">
<path d="M32 10C32 11.104 31.104 12 30 12C28.896 12 28 11.104 28 10V3C28 1.896 28.896 1 30 1C31.104 1 32 1.896 32 3V10Z" fill="#9FC659"/>
<path d="M19.414 12.586L14.414 7.586C14.052 7.224 13.552 7 13 7C11.896 7 11 7.896 11 9C11 9.552 11.224 10.052 11.586 10.414L16.586 15.414C16.948 15.776 17.448 16 18 16C19.104 16 20 15.104 20 14C20 13.448 19.776 12.948 19.414 12.586Z" fill="#9FC659"/>
<path d="M40.586 12.586L45.586 7.586C45.947 7.224 46.447 7 47 7C48.104 7 49 7.896 49 9C49 9.552 48.776 10.052 48.414 10.414L43.414 15.414C43.053 15.776 42.553 16 42 16C40.896 16 40 15.104 40 14C40 13.448 40.224 12.948 40.586 12.586Z" fill="#9FC659"/>
<path d="M19 33.479C19 32.95 19.049 32.472 19.118 32.019C9.589 32.211 2 35.482 2 39.5C2 43.642 10.059 47 20 47C21.686 47 23.311 46.896 24.858 46.716C21.376 42.244 19 37.4 19 33.479Z" fill="#9FC659"/>
<path d="M31.994 35.127L29.56 37.561C29.289 37.832 28.914 38 28.5 38C27.671 38 27 37.328 27 36.5C27 36.086 27.168 35.711 27.439 35.439L30.409 32.469C29.067 29.954 28.202 27.476 28.036 25.253L23.162 30.125C22.392 30.897 22 32.025 22 33.479C22 42.052 36.496 57 44.811 57C46.032 57 47.065 56.611 47.8 55.876L52.744 50.94C46.038 50.229 37.086 42.859 31.994 35.127Z" fill="#9FC659"/>
<path d="M27.181 49.472C25.223 49.71 23.178 50 20 50C17.653 50 15.235 49.834 13 49.497V51.5C13 52.328 12.329 53 11.5 53C10.671 53 10 52.328 10 51.5V48.924C6.795 48.167 3.985 47.003 2 45.398V51.5C2 56.371 11.274 59 20 59C25.827 59 31.28 57.877 34.596 55.998C32.004 54.212 29.449 51.953 27.181 49.472Z" fill="#9FC659"/>
<path d="M41.9999 23.479C41.9999 29.739 48.7419 37 54.7919 37C55.2189 37 55.5209 36.97 55.8069 36.56C52.8639 31.203 47.4029 25.51 42.2269 22.391C41.9479 22.744 41.9999 23.015 41.9999 23.479Z" fill="#9FC659"/>
<path d="M55 40C47.23 40 39 31.811 39 23C39 22.269 39.211 21.593 39.553 21.003C38.049 20.362 36.615 20 35.331 20C32.538 20 31 21.591 31 24.479C31 33.052 45.474 48 53.774 48H53.816C56.437 47.983 58 46.302 58 43.5C58 42.241 57.682 40.843 57.125 39.377C56.508 39.766 55.783 40 55 40Z" fill="#9FC659"/>
</svg>
