<svg width="60" height="57" viewBox="0 0 60 57" fill="none" xmlns="http://www.w3.org/2000/svg">
<path d="M54.051 16.4008L43.656 26.2741L32.344 15.5259L42.736 5.6525C40.934 5.07585 39.008 4.75 37 4.75C27.059 4.75 19 12.406 19 21.85C19 23.7576 19.343 25.5863 19.949 27.2992L6.344 40.2258C4.896 41.6014 4 43.5014 4 45.6C4 49.7971 7.582 53.2 12 53.2C14.209 53.2 16.209 52.3488 17.656 50.9742L31.264 38.0475C33.066 38.6241 34.992 38.95 37 38.95C46.941 38.95 55 31.2939 55 21.85C55 19.9424 54.657 18.1136 54.051 16.4008Z" fill="#9FC659"/>
</svg>
