<svg width="200" height="44" viewBox="0 0 200 44" fill="none" xmlns="http://www.w3.org/2000/svg">
<rect width="43.8597" height="44" rx="5" fill="#9FC659"/>
<path d="M21.493 30.8002H17.9368L14.5716 24.6905H12.0656V30.8002H8.77197V13.2002H15.4547C16.9981 13.2002 18.3107 13.7701 19.3927 14.9099C20.4747 16.0497 21.0157 17.4242 21.0157 19.0333C21.0157 20.1229 20.7213 21.137 20.1326 22.0756C19.5439 22.9975 18.7642 23.6931 17.7936 24.1625L21.493 30.8002ZM15.4547 16.4436H12.0656V21.6482H15.4547C16.0752 21.6482 16.6082 21.3968 17.0538 20.8939C17.4993 20.3743 17.722 19.7541 17.722 19.0333C17.722 18.3126 17.4993 17.7008 17.0538 17.1979C16.6082 16.6951 16.0752 16.4436 15.4547 16.4436Z" fill="white"/>
<path d="M22.7963 13.2002H35.0878V16.5191H30.5769V30.8002H27.2833V16.5191H22.7963V13.2002Z" fill="white"/>
<path d="M54.3857 30.6671V13.5067H61.4639C62.9877 13.5067 64.2903 13.7518 65.3716 14.2421C66.4694 14.7324 67.3132 15.4352 67.9031 16.3504C68.4929 17.2656 68.7878 18.3524 68.7878 19.6109C68.7878 20.8693 68.4929 21.9561 67.9031 22.8714C67.3132 23.7866 66.4694 24.4893 65.3716 24.9796C64.2903 25.4699 62.9877 25.7151 61.4639 25.7151H56.1553L57.5807 24.2197V30.6671H54.3857ZM57.5807 24.5629L56.1553 23.0184H61.3164C62.7255 23.0184 63.7823 22.7243 64.4869 22.1359C65.2078 21.5312 65.5683 20.6895 65.5683 19.6109C65.5683 18.5159 65.2078 17.6742 64.4869 17.0858C63.7823 16.4975 62.7255 16.2033 61.3164 16.2033H56.1553L57.5807 14.6343V24.5629Z" fill="white"/>
<path d="M80.5295 30.9122C79.1859 30.9122 77.9489 30.6916 76.8184 30.2503C75.6878 29.8091 74.7047 29.1962 73.8691 28.4117C73.0335 27.6109 72.3863 26.6793 71.9275 25.617C71.4688 24.5384 71.2394 23.3616 71.2394 22.0869C71.2394 20.8121 71.4688 19.6436 71.9275 18.5812C72.3863 17.5026 73.0335 16.571 73.8691 15.7865C74.7047 14.9857 75.6878 14.3647 76.8184 13.9234C77.9489 13.4821 79.1777 13.2615 80.5049 13.2615C81.8484 13.2615 83.0773 13.4821 84.1914 13.9234C85.322 14.3647 86.3051 14.9857 87.1407 15.7865C87.9763 16.571 88.6235 17.5026 89.0823 18.5812C89.541 19.6436 89.7704 20.8121 89.7704 22.0869C89.7704 23.3616 89.541 24.5384 89.0823 25.617C88.6235 26.6957 87.9763 27.6272 87.1407 28.4117C86.3051 29.1962 85.322 29.8091 84.1914 30.2503C83.0773 30.6916 81.8566 30.9122 80.5295 30.9122ZM80.5049 28.1175C81.3733 28.1175 82.1761 27.9704 82.9134 27.6763C83.6507 27.3821 84.2897 26.9653 84.8304 26.426C85.3711 25.8703 85.7889 25.233 86.0839 24.5138C86.3952 23.7784 86.5508 22.9694 86.5508 22.0869C86.5508 21.2043 86.3952 20.4035 86.0839 19.6844C85.7889 18.949 85.3711 18.3116 84.8304 17.7723C84.2897 17.2166 83.6507 16.7917 82.9134 16.4975C82.1761 16.2033 81.3733 16.0562 80.5049 16.0562C79.6365 16.0562 78.8337 16.2033 78.0964 16.4975C77.3754 16.7917 76.7364 17.2166 76.1794 17.7723C75.6387 18.3116 75.2127 18.949 74.9014 19.6844C74.6064 20.4035 74.459 21.2043 74.459 22.0869C74.459 22.9531 74.6064 23.7539 74.9014 24.4893C75.2127 25.2248 75.6387 25.8703 76.1794 26.426C76.72 26.9653 77.359 27.3821 78.0964 27.6763C78.8337 27.9704 79.6365 28.1175 80.5049 28.1175Z" fill="white"/>
<path d="M101.708 30.9122C100.397 30.9122 99.1767 30.6998 98.0461 30.2748C96.932 29.8336 95.9571 29.2207 95.1215 28.4362C94.3022 27.6354 93.6632 26.6957 93.2045 25.617C92.7457 24.5384 92.5163 23.3616 92.5163 22.0869C92.5163 20.8121 92.7457 19.6354 93.2045 18.5567C93.6632 17.4781 94.3104 16.5465 95.146 15.762C95.9817 14.9612 96.9565 14.3483 98.0707 13.9234C99.1849 13.4821 100.406 13.2615 101.733 13.2615C103.142 13.2615 104.428 13.5067 105.591 13.997C106.755 14.4709 107.738 15.1818 108.54 16.1298L106.476 18.0664C105.853 17.3964 105.157 16.8979 104.387 16.571C103.617 16.2278 102.781 16.0562 101.88 16.0562C100.979 16.0562 100.152 16.2033 99.3979 16.4975C98.6605 16.7917 98.0134 17.2084 97.4563 17.7477C96.9156 18.2871 96.4896 18.9245 96.1783 19.6599C95.8834 20.3953 95.7359 21.2043 95.7359 22.0869C95.7359 22.9694 95.8834 23.7784 96.1783 24.5138C96.4896 25.2493 96.9156 25.8867 97.4563 26.426C98.0134 26.9653 98.6605 27.3821 99.3979 27.6763C100.152 27.9704 100.979 28.1175 101.88 28.1175C102.781 28.1175 103.617 27.9541 104.387 27.6272C105.157 27.284 105.853 26.7692 106.476 26.0828L108.54 28.044C107.738 28.9756 106.755 29.6865 105.591 30.1768C104.428 30.6671 103.134 30.9122 101.708 30.9122Z" fill="white"/>
<path d="M115.419 30.6671V15.4188L116.181 16.2033H109.742V13.5067H124.292V16.2033H117.852L118.59 15.4188V30.6671H115.419Z" fill="white"/>
<path d="M127.539 30.6671V13.5067H134.617C136.141 13.5067 137.443 13.7518 138.525 14.2421C139.622 14.7324 140.466 15.4352 141.056 16.3504C141.646 17.2656 141.941 18.3524 141.941 19.6109C141.941 20.8693 141.646 21.9561 141.056 22.8714C140.466 23.7866 139.622 24.4893 138.525 24.9796C137.443 25.4699 136.141 25.7151 134.617 25.7151H129.308L130.734 24.2197V30.6671H127.539ZM130.734 24.5629L129.308 23.0184H134.469C135.878 23.0184 136.935 22.7243 137.64 22.1359C138.361 21.5312 138.721 20.6895 138.721 19.6109C138.721 18.5159 138.361 17.6742 137.64 17.0858C136.935 16.4975 135.878 16.2033 134.469 16.2033H129.308L130.734 14.6343V24.5629Z" fill="white"/>
<path d="M148.404 20.6405H156.957V23.2636H148.404V20.6405ZM148.65 27.995H158.358V30.6671H145.455V13.5067H158.014V16.1788H148.65V27.995Z" fill="white"/>
<path d="M162.436 30.6671V13.5067H165.581V25.6906L174.822 13.5067H177.796V30.6671H174.65V18.5077L165.409 30.6671H162.436ZM170.079 12.3545C168.604 12.3545 167.49 12.0439 166.737 11.4229C165.999 10.8019 165.622 9.92749 165.606 8.7998H167.843C167.859 9.40451 168.056 9.87029 168.432 10.1972C168.826 10.524 169.375 10.6875 170.079 10.6875C170.784 10.6875 171.332 10.524 171.726 10.1972C172.135 9.87029 172.348 9.40451 172.365 8.7998H174.577C174.56 9.92749 174.175 10.8019 173.422 11.4229C172.668 12.0439 171.554 12.3545 170.079 12.3545Z" fill="white"/>
<path d="M194.372 29.1962V16.2033H187.638L187.515 19.2431C187.466 20.3872 187.392 21.474 187.293 22.5036C187.212 23.5169 187.072 24.4403 186.876 25.2738C186.695 26.1073 186.441 26.8019 186.114 27.3576C185.786 27.9132 185.385 28.281 184.91 28.4607L181.469 27.9704C182.091 28.0031 182.599 27.7907 182.993 27.3331C183.402 26.8755 183.722 26.2381 183.951 25.4209C184.18 24.6037 184.352 23.6477 184.467 22.5527C184.582 21.4413 184.664 20.2401 184.713 18.949L184.91 13.5067H197.518V29.1962H194.372ZM180.879 34.3198L180.903 27.9704H200V34.3198H197.051V30.6671H183.853V34.3198H180.879Z" fill="white"/>
</svg>
