<svg width="2000" height="74" viewBox="0 0 2000 74" fill="none" xmlns="http://www.w3.org/2000/svg">
<g clip-path="url(#clip0_114_48)">
<rect width="2000" height="74" fill="#9FC659"/>
<path d="M1930.25 47L1939.07 27.4H1942.66L1951.5 47H1947.7L1940.11 29.332H1941.56L1934 47H1930.25ZM1934.31 42.464L1935.29 39.608H1945.88L1946.86 42.464H1934.31ZM1967.47 47L1960.84 37.452L1963.78 35.632L1971.59 47H1967.47ZM1954.51 47V27.4H1958.09V47H1954.51ZM1957 38.74V35.604H1963.61V38.74H1957ZM1964.11 37.62L1960.78 37.172L1967.47 27.4H1971.34L1964.11 37.62ZM1974.09 47V27.4H1977.67V43.92H1987.56V27.4H1991.17V47H1974.09ZM1990.72 51.312V46.104L1991.53 47H1987.56V43.92H1994.08V51.312H1990.72ZM1997.44 47V27.4H2001.02V41.316L2011.55 27.4H2014.94V47H2011.36V33.112L2000.83 47H1997.44ZM2031.83 47V40.728L2032.73 41.54H2026.99C2025.34 41.54 2023.93 41.2693 2022.73 40.728C2021.56 40.168 2020.65 39.3747 2020.02 38.348C2019.38 37.3027 2019.06 36.052 2019.06 34.596C2019.06 33.084 2019.4 31.796 2020.07 30.732C2020.74 29.6493 2021.7 28.828 2022.93 28.268C2024.16 27.6893 2025.61 27.4 2027.27 27.4H2035.42V47H2031.83ZM2019.12 47L2023.96 40H2027.63L2022.96 47H2019.12ZM2031.83 39.552V29.472L2032.73 30.48H2027.38C2025.89 30.48 2024.74 30.8253 2023.94 31.516C2023.15 32.188 2022.76 33.196 2022.76 34.54C2022.76 35.828 2023.13 36.8267 2023.88 37.536C2024.64 38.2267 2025.76 38.572 2027.24 38.572H2032.73L2031.83 39.552Z" fill="white"/>
<circle cx="1888" cy="37" r="4" fill="white"/>
<path d="M1737.25 47L1746.07 27.4H1749.66L1758.5 47H1754.7L1747.11 29.332H1748.56L1741 47H1737.25ZM1741.31 42.464L1742.29 39.608H1752.88L1753.86 42.464H1741.31ZM1774.47 47L1767.84 37.452L1770.78 35.632L1778.59 47H1774.47ZM1761.51 47V27.4H1765.09V47H1761.51ZM1764 38.74V35.604H1770.61V38.74H1764ZM1771.11 37.62L1767.78 37.172L1774.47 27.4H1778.34L1771.11 37.62ZM1781.09 47V27.4H1784.67V43.92H1794.56V27.4H1798.17V47H1781.09ZM1797.72 51.312V46.104L1798.53 47H1794.56V43.92H1801.08V51.312H1797.72ZM1804.44 47V27.4H1808.02V41.316L1818.55 27.4H1821.94V47H1818.36V33.112L1807.83 47H1804.44ZM1838.83 47V40.728L1839.73 41.54H1833.99C1832.34 41.54 1830.93 41.2693 1829.73 40.728C1828.56 40.168 1827.65 39.3747 1827.02 38.348C1826.38 37.3027 1826.06 36.052 1826.06 34.596C1826.06 33.084 1826.4 31.796 1827.07 30.732C1827.74 29.6493 1828.7 28.828 1829.93 28.268C1831.16 27.6893 1832.61 27.4 1834.27 27.4H1842.42V47H1838.83ZM1826.12 47L1830.96 40H1834.63L1829.96 47H1826.12ZM1838.83 39.552V29.472L1839.73 30.48H1834.38C1832.89 30.48 1831.74 30.8253 1830.94 31.516C1830.15 32.188 1829.76 33.196 1829.76 34.54C1829.76 35.828 1830.13 36.8267 1830.88 37.536C1831.64 38.2267 1832.76 38.572 1834.24 38.572H1839.73L1838.83 39.552Z" fill="white"/>
<circle cx="1695" cy="37" r="4" fill="white"/>
<path d="M1544.25 47L1553.07 27.4H1556.66L1565.5 47H1561.7L1554.11 29.332H1555.56L1548 47H1544.25ZM1548.31 42.464L1549.29 39.608H1559.88L1560.86 42.464H1548.31ZM1581.47 47L1574.84 37.452L1577.78 35.632L1585.59 47H1581.47ZM1568.51 47V27.4H1572.09V47H1568.51ZM1571 38.74V35.604H1577.61V38.74H1571ZM1578.11 37.62L1574.78 37.172L1581.47 27.4H1585.34L1578.11 37.62ZM1588.09 47V27.4H1591.67V43.92H1601.56V27.4H1605.17V47H1588.09ZM1604.72 51.312V46.104L1605.53 47H1601.56V43.92H1608.08V51.312H1604.72ZM1611.44 47V27.4H1615.02V41.316L1625.55 27.4H1628.94V47H1625.36V33.112L1614.83 47H1611.44ZM1645.83 47V40.728L1646.73 41.54H1640.99C1639.34 41.54 1637.93 41.2693 1636.73 40.728C1635.56 40.168 1634.65 39.3747 1634.02 38.348C1633.38 37.3027 1633.06 36.052 1633.06 34.596C1633.06 33.084 1633.4 31.796 1634.07 30.732C1634.74 29.6493 1635.7 28.828 1636.93 28.268C1638.16 27.6893 1639.61 27.4 1641.27 27.4H1649.42V47H1645.83ZM1633.12 47L1637.96 40H1641.63L1636.96 47H1633.12ZM1645.83 39.552V29.472L1646.73 30.48H1641.38C1639.89 30.48 1638.74 30.8253 1637.94 31.516C1637.15 32.188 1636.76 33.196 1636.76 34.54C1636.76 35.828 1637.13 36.8267 1637.88 37.536C1638.64 38.2267 1639.76 38.572 1641.24 38.572H1646.73L1645.83 39.552Z" fill="white"/>
<circle cx="1502" cy="37" r="4" fill="white"/>
<path d="M1351.25 47L1360.07 27.4H1363.66L1372.5 47H1368.7L1361.11 29.332H1362.56L1355 47H1351.25ZM1355.31 42.464L1356.29 39.608H1366.88L1367.86 42.464H1355.31ZM1388.47 47L1381.84 37.452L1384.78 35.632L1392.59 47H1388.47ZM1375.51 47V27.4H1379.09V47H1375.51ZM1378 38.74V35.604H1384.61V38.74H1378ZM1385.11 37.62L1381.78 37.172L1388.47 27.4H1392.34L1385.11 37.62ZM1395.09 47V27.4H1398.67V43.92H1408.56V27.4H1412.17V47H1395.09ZM1411.72 51.312V46.104L1412.53 47H1408.56V43.92H1415.08V51.312H1411.72ZM1418.44 47V27.4H1422.02V41.316L1432.55 27.4H1435.94V47H1432.36V33.112L1421.83 47H1418.44ZM1452.83 47V40.728L1453.73 41.54H1447.99C1446.34 41.54 1444.93 41.2693 1443.73 40.728C1442.56 40.168 1441.65 39.3747 1441.02 38.348C1440.38 37.3027 1440.06 36.052 1440.06 34.596C1440.06 33.084 1440.4 31.796 1441.07 30.732C1441.74 29.6493 1442.7 28.828 1443.93 28.268C1445.16 27.6893 1446.61 27.4 1448.27 27.4H1456.42V47H1452.83ZM1440.12 47L1444.96 40H1448.63L1443.96 47H1440.12ZM1452.83 39.552V29.472L1453.73 30.48H1448.38C1446.89 30.48 1445.74 30.8253 1444.94 31.516C1444.15 32.188 1443.76 33.196 1443.76 34.54C1443.76 35.828 1444.13 36.8267 1444.88 37.536C1445.64 38.2267 1446.76 38.572 1448.24 38.572H1453.73L1452.83 39.552Z" fill="white"/>
<circle cx="1309" cy="37" r="4" fill="white"/>
<path d="M1158.25 47L1167.07 27.4H1170.66L1179.5 47H1175.7L1168.11 29.332H1169.56L1162 47H1158.25ZM1162.31 42.464L1163.29 39.608H1173.88L1174.86 42.464H1162.31ZM1195.47 47L1188.84 37.452L1191.78 35.632L1199.59 47H1195.47ZM1182.51 47V27.4H1186.09V47H1182.51ZM1185 38.74V35.604H1191.61V38.74H1185ZM1192.11 37.62L1188.78 37.172L1195.47 27.4H1199.34L1192.11 37.62ZM1202.09 47V27.4H1205.67V43.92H1215.56V27.4H1219.17V47H1202.09ZM1218.72 51.312V46.104L1219.53 47H1215.56V43.92H1222.08V51.312H1218.72ZM1225.44 47V27.4H1229.02V41.316L1239.55 27.4H1242.94V47H1239.36V33.112L1228.83 47H1225.44ZM1259.83 47V40.728L1260.73 41.54H1254.99C1253.34 41.54 1251.93 41.2693 1250.73 40.728C1249.56 40.168 1248.65 39.3747 1248.02 38.348C1247.38 37.3027 1247.06 36.052 1247.06 34.596C1247.06 33.084 1247.4 31.796 1248.07 30.732C1248.74 29.6493 1249.7 28.828 1250.93 28.268C1252.16 27.6893 1253.61 27.4 1255.27 27.4H1263.42V47H1259.83ZM1247.12 47L1251.96 40H1255.63L1250.96 47H1247.12ZM1259.83 39.552V29.472L1260.73 30.48H1255.38C1253.89 30.48 1252.74 30.8253 1251.94 31.516C1251.15 32.188 1250.76 33.196 1250.76 34.54C1250.76 35.828 1251.13 36.8267 1251.88 37.536C1252.64 38.2267 1253.76 38.572 1255.24 38.572H1260.73L1259.83 39.552Z" fill="white"/>
<circle cx="1116" cy="37" r="4" fill="white"/>
<path d="M965.252 47L974.072 27.4H977.656L986.504 47H982.696L975.108 29.332H976.564L969.004 47H965.252ZM969.312 42.464L970.292 39.608H980.876L981.856 42.464H969.312ZM1002.47 47L995.838 37.452L998.778 35.632L1006.59 47H1002.47ZM989.51 47V27.4H993.094V47H989.51ZM992.002 38.74V35.604H998.61V38.74H992.002ZM999.114 37.62L995.782 37.172L1002.47 27.4H1006.34L999.114 37.62ZM1009.09 47V27.4H1012.67V43.92H1022.56V27.4H1026.17V47H1009.09ZM1025.72 51.312V46.104L1026.53 47H1022.56V43.92H1029.08V51.312H1025.72ZM1032.44 47V27.4H1036.02V41.316L1046.55 27.4H1049.94V47H1046.36V33.112L1035.83 47H1032.44ZM1066.83 47V40.728L1067.73 41.54H1061.99C1060.34 41.54 1058.93 41.2693 1057.73 40.728C1056.56 40.168 1055.65 39.3747 1055.02 38.348C1054.38 37.3027 1054.06 36.052 1054.06 34.596C1054.06 33.084 1054.4 31.796 1055.07 30.732C1055.74 29.6493 1056.7 28.828 1057.93 28.268C1059.16 27.6893 1060.61 27.4 1062.27 27.4H1070.42V47H1066.83ZM1054.12 47L1058.96 40H1062.63L1057.96 47H1054.12ZM1066.83 39.552V29.472L1067.73 30.48H1062.38C1060.89 30.48 1059.74 30.8253 1058.94 31.516C1058.15 32.188 1057.76 33.196 1057.76 34.54C1057.76 35.828 1058.13 36.8267 1058.88 37.536C1059.64 38.2267 1060.76 38.572 1062.24 38.572H1067.73L1066.83 39.552Z" fill="white"/>
<circle cx="923" cy="37" r="4" fill="white"/>
<path d="M772.252 47L781.072 27.4H784.656L793.504 47H789.696L782.108 29.332H783.564L776.004 47H772.252ZM776.312 42.464L777.292 39.608H787.876L788.856 42.464H776.312ZM809.474 47L802.838 37.452L805.778 35.632L813.59 47H809.474ZM796.51 47V27.4H800.094V47H796.51ZM799.002 38.74V35.604H805.61V38.74H799.002ZM806.114 37.62L802.782 37.172L809.474 27.4H813.338L806.114 37.62ZM816.088 47V27.4H819.672V43.92H829.556V27.4H833.168V47H816.088ZM832.72 51.312V46.104L833.532 47H829.556V43.92H836.08V51.312H832.72ZM839.44 47V27.4H843.024V41.316L853.552 27.4H856.94V47H853.356V33.112L842.828 47H839.44ZM873.831 47V40.728L874.727 41.54H868.987C867.345 41.54 865.926 41.2693 864.731 40.728C863.555 40.168 862.65 39.3747 862.015 38.348C861.381 37.3027 861.063 36.052 861.063 34.596C861.063 33.084 861.399 31.796 862.071 30.732C862.743 29.6493 863.695 28.828 864.927 28.268C866.159 27.6893 867.606 27.4 869.267 27.4H877.415V47H873.831ZM861.119 47L865.963 40H869.631L864.955 47H861.119ZM873.831 39.552V29.472L874.727 30.48H869.379C867.886 30.48 866.738 30.8253 865.935 31.516C865.151 32.188 864.759 33.196 864.759 34.54C864.759 35.828 865.133 36.8267 865.879 37.536C866.645 38.2267 867.765 38.572 869.239 38.572H874.727L873.831 39.552Z" fill="white"/>
<circle cx="730" cy="37" r="4" fill="white"/>
<path d="M579.252 47L588.072 27.4H591.656L600.504 47H596.696L589.108 29.332H590.564L583.004 47H579.252ZM583.312 42.464L584.292 39.608H594.876L595.856 42.464H583.312ZM616.474 47L609.838 37.452L612.778 35.632L620.59 47H616.474ZM603.51 47V27.4H607.094V47H603.51ZM606.002 38.74V35.604H612.61V38.74H606.002ZM613.114 37.62L609.782 37.172L616.474 27.4H620.338L613.114 37.62ZM623.088 47V27.4H626.672V43.92H636.556V27.4H640.168V47H623.088ZM639.72 51.312V46.104L640.532 47H636.556V43.92H643.08V51.312H639.72ZM646.44 47V27.4H650.024V41.316L660.552 27.4H663.94V47H660.356V33.112L649.828 47H646.44ZM680.831 47V40.728L681.727 41.54H675.987C674.345 41.54 672.926 41.2693 671.731 40.728C670.555 40.168 669.65 39.3747 669.015 38.348C668.381 37.3027 668.063 36.052 668.063 34.596C668.063 33.084 668.399 31.796 669.071 30.732C669.743 29.6493 670.695 28.828 671.927 28.268C673.159 27.6893 674.606 27.4 676.267 27.4H684.415V47H680.831ZM668.119 47L672.963 40H676.631L671.955 47H668.119ZM680.831 39.552V29.472L681.727 30.48H676.379C674.886 30.48 673.738 30.8253 672.935 31.516C672.151 32.188 671.759 33.196 671.759 34.54C671.759 35.828 672.133 36.8267 672.879 37.536C673.645 38.2267 674.765 38.572 676.239 38.572H681.727L680.831 39.552Z" fill="white"/>
<circle cx="537" cy="37" r="4" fill="white"/>
<path d="M386.252 47L395.072 27.4H398.656L407.504 47H403.696L396.108 29.332H397.564L390.004 47H386.252ZM390.312 42.464L391.292 39.608H401.876L402.856 42.464H390.312ZM423.474 47L416.838 37.452L419.778 35.632L427.59 47H423.474ZM410.51 47V27.4H414.094V47H410.51ZM413.002 38.74V35.604H419.61V38.74H413.002ZM420.114 37.62L416.782 37.172L423.474 27.4H427.338L420.114 37.62ZM430.088 47V27.4H433.672V43.92H443.556V27.4H447.168V47H430.088ZM446.72 51.312V46.104L447.532 47H443.556V43.92H450.08V51.312H446.72ZM453.44 47V27.4H457.024V41.316L467.552 27.4H470.94V47H467.356V33.112L456.828 47H453.44ZM487.831 47V40.728L488.727 41.54H482.987C481.345 41.54 479.926 41.2693 478.731 40.728C477.555 40.168 476.65 39.3747 476.015 38.348C475.381 37.3027 475.063 36.052 475.063 34.596C475.063 33.084 475.399 31.796 476.071 30.732C476.743 29.6493 477.695 28.828 478.927 28.268C480.159 27.6893 481.606 27.4 483.267 27.4H491.415V47H487.831ZM475.119 47L479.963 40H483.631L478.955 47H475.119ZM487.831 39.552V29.472L488.727 30.48H483.379C481.886 30.48 480.738 30.8253 479.935 31.516C479.151 32.188 478.759 33.196 478.759 34.54C478.759 35.828 479.133 36.8267 479.879 37.536C480.645 38.2267 481.765 38.572 483.239 38.572H488.727L487.831 39.552Z" fill="white"/>
<circle cx="344" cy="37" r="4" fill="white"/>
<path d="M193.252 47L202.072 27.4H205.656L214.504 47H210.696L203.108 29.332H204.564L197.004 47H193.252ZM197.312 42.464L198.292 39.608H208.876L209.856 42.464H197.312ZM230.474 47L223.838 37.452L226.778 35.632L234.59 47H230.474ZM217.51 47V27.4H221.094V47H217.51ZM220.002 38.74V35.604H226.61V38.74H220.002ZM227.114 37.62L223.782 37.172L230.474 27.4H234.338L227.114 37.62ZM237.088 47V27.4H240.672V43.92H250.556V27.4H254.168V47H237.088ZM253.72 51.312V46.104L254.532 47H250.556V43.92H257.08V51.312H253.72ZM260.44 47V27.4H264.024V41.316L274.552 27.4H277.94V47H274.356V33.112L263.828 47H260.44ZM294.831 47V40.728L295.727 41.54H289.987C288.345 41.54 286.926 41.2693 285.731 40.728C284.555 40.168 283.65 39.3747 283.015 38.348C282.381 37.3027 282.063 36.052 282.063 34.596C282.063 33.084 282.399 31.796 283.071 30.732C283.743 29.6493 284.695 28.828 285.927 28.268C287.159 27.6893 288.606 27.4 290.267 27.4H298.415V47H294.831ZM282.119 47L286.963 40H290.631L285.955 47H282.119ZM294.831 39.552V29.472L295.727 30.48H290.379C288.886 30.48 287.738 30.8253 286.935 31.516C286.151 32.188 285.759 33.196 285.759 34.54C285.759 35.828 286.133 36.8267 286.879 37.536C287.645 38.2267 288.765 38.572 290.239 38.572H295.727L294.831 39.552Z" fill="white"/>
<circle cx="151" cy="37" r="4" fill="white"/>
<path d="M0.252 47L9.072 27.4H12.656L21.504 47H17.696L10.108 29.332H11.564L4.004 47H0.252ZM4.312 42.464L5.292 39.608H15.876L16.856 42.464H4.312ZM37.4736 47L30.8376 37.452L33.7776 35.632L41.5896 47H37.4736ZM24.5096 47V27.4H28.0936V47H24.5096ZM27.0016 38.74V35.604H33.6096V38.74H27.0016ZM34.1136 37.62L30.7816 37.172L37.4736 27.4H41.3376L34.1136 37.62ZM44.0884 47V27.4H47.6724V43.92H57.5564V27.4H61.1684V47H44.0884ZM60.7204 51.312V46.104L61.5324 47H57.5564V43.92H64.0804V51.312H60.7204ZM67.44 47V27.4H71.024V41.316L81.552 27.4H84.94V47H81.356V33.112L70.828 47H67.44ZM101.831 47V40.728L102.727 41.54H96.9874C95.3447 41.54 93.9261 41.2693 92.7314 40.728C91.5554 40.168 90.6501 39.3747 90.0154 38.348C89.3807 37.3027 89.0634 36.052 89.0634 34.596C89.0634 33.084 89.3994 31.796 90.0714 30.732C90.7434 29.6493 91.6954 28.828 92.9274 28.268C94.1594 27.6893 95.6061 27.4 97.2674 27.4H105.415V47H101.831ZM89.1194 47L93.9634 40H97.6314L92.9554 47H89.1194ZM101.831 39.552V29.472L102.727 30.48H97.3794C95.8861 30.48 94.7381 30.8253 93.9354 31.516C93.1514 32.188 92.7594 33.196 92.7594 34.54C92.7594 35.828 93.1327 36.8267 93.8794 37.536C94.6447 38.2267 95.7647 38.572 97.2394 38.572H102.727L101.831 39.552Z" fill="white"/>
</g>
<defs>
<clipPath id="clip0_114_48">
<rect width="2000" height="74" fill="white"/>
</clipPath>
</defs>
</svg>
