<svg width="88" height="81" viewBox="0 0 88 81" fill="none" xmlns="http://www.w3.org/2000/svg">
<g clip-path="url(#clip0_1439_1785)">
<path d="M78.9285 72.9778L62.3863 77.8765C61.3386 78.1874 60.2398 78.2894 59.1526 78.1767C58.0653 78.0641 57.011 77.7389 56.0499 77.2199C55.0888 76.7008 54.2398 75.998 53.5513 75.1517C52.8628 74.3054 52.3484 73.3321 52.0375 72.2875L42.0735 38.8591C44.0785 37.5294 45.7535 35.7622 46.9717 33.6915C48.1899 31.6209 48.9193 29.3009 49.1047 26.9076C49.2901 24.5142 48.9266 22.1102 48.0417 19.8776C47.1568 17.6451 45.7737 15.6426 43.9973 14.0218L59.9451 9.29511C60.9926 8.98416 62.0913 8.88203 63.1784 8.99452C64.2655 9.10702 65.3197 9.43196 66.2808 9.95075C67.2419 10.4696 68.0909 11.172 68.7795 12.0181C69.4681 12.8641 69.9827 13.8371 70.2939 14.8815L84.5328 62.67C84.8439 63.7136 84.9457 64.8081 84.8325 65.891C84.7192 66.9738 84.393 68.0238 83.8726 68.981C83.3521 69.9382 82.6477 70.7838 81.7994 71.4696C80.951 72.1554 79.9755 72.6679 78.9285 72.9778V72.9778Z" stroke="url(#paint0_linear_1439_1785)" stroke-width="4.59994" stroke-miterlimit="10" stroke-linecap="round"/>
<path d="M49.0098 27.8158C48.5313 31.3032 46.9024 34.5329 44.3797 36.9958C41.857 39.4588 38.5838 41.015 35.076 41.4194C33.9849 41.553 32.944 41.9539 32.0462 42.5862C31.1484 43.2186 30.4217 44.0626 29.9308 45.0431L14.5987 75.0964C13.4205 77.3976 7.97803 77.9002 5.6721 76.7284C5.03067 76.4008 4.47369 75.9302 4.04434 75.3531C3.61499 74.7761 3.32486 74.1081 3.19652 73.4012C3.06817 72.6942 3.10507 71.9673 3.30432 71.2768C3.50356 70.5864 3.85976 69.951 4.34533 69.4201L6.78657 66.7459C7.22948 66.2622 7.56543 65.691 7.77252 65.0694C7.97961 64.4479 8.05321 63.7898 7.98864 63.1381L7.76047 60.9003C7.66277 59.9198 7.87827 58.9336 8.37624 58.0824C8.8742 57.2312 9.62917 56.5585 10.5334 56.1604H10.5493C11.452 55.7645 12.2063 55.0947 12.7047 54.2464C13.2031 53.3982 13.4202 52.4147 13.3249 51.4363L13.0808 48.8996C12.9986 48.0347 13.1584 47.164 13.5426 46.3842L18.0536 37.92C18.5838 36.9071 18.8897 35.7927 18.9506 34.6518C19.0115 33.511 18.8259 32.3705 18.4065 31.3073C17.4022 28.6644 17.1253 25.802 17.6044 23.0165C18.0835 20.2311 19.3012 17.624 21.1312 15.4655C22.9612 13.3071 25.337 11.6757 28.0124 10.7405C30.6878 9.80527 33.5655 9.60027 36.3471 10.1467C39.2107 10.7062 41.861 12.0509 43.9999 14.0297C45.8857 15.7566 47.3256 17.9115 48.1978 20.3114C49.0699 22.7114 49.3485 25.2857 49.0098 27.8158V27.8158Z" stroke="url(#paint1_linear_1439_1785)" stroke-width="4.59994" stroke-miterlimit="10" stroke-linecap="round"/>
<path d="M54.8106 7.7682C52.8218 5.12208 49.8599 3.37187 46.5765 2.90261C43.2931 2.43335 39.9571 3.28348 37.3025 5.26596C34.6479 7.24845 32.8921 10.2009 32.4213 13.4738C31.9506 16.7467 32.8034 20.072 34.7922 22.7181" stroke="url(#paint2_linear_1439_1785)" stroke-width="4.59994" stroke-miterlimit="10" stroke-linecap="round"/>
</g>
<defs>
<linearGradient id="paint0_linear_1439_1785" x1="42.2139" y1="17.1891" x2="97.5417" y2="51.7256" gradientUnits="userSpaceOnUse">
<stop stop-color="#FDC62C"/>
<stop offset="1" stop-color="#FDC62C" stop-opacity="0"/>
</linearGradient>
<linearGradient id="paint1_linear_1439_1785" x1="16.9639" y1="39.2891" x2="11.4562" y2="101.295" gradientUnits="userSpaceOnUse">
<stop stop-color="#DA0C39"/>
<stop offset="1" stop-color="white" stop-opacity="0"/>
</linearGradient>
<linearGradient id="paint2_linear_1439_1785" x1="34.8238" y1="23.3272" x2="58.1597" y2="2.38086" gradientUnits="userSpaceOnUse">
<stop stop-color="#DA0C39"/>
<stop offset="1" stop-color="white" stop-opacity="0"/>
</linearGradient>
<clipPath id="clip0_1439_1785">
<rect width="87.3281" height="81" fill="white" transform="translate(0.335938)"/>
</clipPath>
</defs>
</svg>
