<?xml version="1.0" encoding="UTF-8" standalone="no"?>
<svg
   width="90"
   height="60"
   viewBox="0 0 90 60"
   fill="none"
   version="1.1"
   id="svg4"
   sodipodi:docname="logo.svg"
   inkscape:version="1.1 (c68e22c387, 2021-05-23)"
   xmlns:inkscape="http://www.inkscape.org/namespaces/inkscape"
   xmlns:sodipodi="http://sodipodi.sourceforge.net/DTD/sodipodi-0.dtd"
   xmlns="http://www.w3.org/2000/svg"
   xmlns:svg="http://www.w3.org/2000/svg">
  <defs
     id="defs8" />
  <sodipodi:namedview
     id="namedview6"
     pagecolor="#ffffff"
     bordercolor="#666666"
     borderopacity="1.0"
     inkscape:pageshadow="2"
     inkscape:pageopacity="0.0"
     inkscape:pagecheckerboard="0"
     showgrid="false"
     inkscape:zoom="11.645455"
     inkscape:cx="54.957065"
     inkscape:cy="36.967213"
     inkscape:window-width="2560"
     inkscape:window-height="1411"
     inkscape:window-x="7191"
     inkscape:window-y="-9"
     inkscape:window-maximized="1"
     inkscape:current-layer="svg4" />
  <path
     fill-rule="evenodd"
     clip-rule="evenodd"
     d="m 38.504665,48.115111 c 0,0 -0.160482,-2.116471 0.448807,-5.22476 0.609545,-3.131017 1.732242,-6.915529 3.065948,-8.992436 1.006044,-1.557595 3.602752,-3.483818 5.494627,-1.984476 0.661004,0.530423 1.474266,1.835645 0.738405,3.919286 -0.735946,2.083641 -2.454961,3.655884 -3.428113,4.327056 -0.950176,0.671426 -3.284247,1.713836 -3.284247,1.713836 0,0 -0.283238,0.656188 -0.546893,1.631001 0,0 1.04572,-0.988703 1.900692,-1.365664 0.854972,-0.376877 1.452732,-0.370142 2.025229,-0.159017 0.549522,0.210872 1.916375,1.363138 1.979618,1.886826 0.06299,0.546417 -0.515865,0.903764 -1.00172,1.171122 -0.323932,0.178295 -1.085904,0.465267 -2.100341,0.703919 l 0.04552,0.04596 c 1.482573,1.085426 2.390701,2.141641 3.28857,2.038099 0.644557,-0.06095 1.250371,-0.781786 2.526005,-1.767879 0.310367,-5.180818 2.728451,-11.747586 6.548062,-14.046561 0.926015,-0.558034 1.962325,-0.705519 2.873927,0.03241 1.070814,0.898882 1.005197,2.671728 0.552745,4.076367 -0.381241,1.200838 -0.667701,2.152669 -2.815432,5.061617 -2.147478,2.886304 -4.950872,4.787442 -4.950872,4.787442 0,0 0,0 -0.09749,0.499107 -0.09749,0.499107 -0.123774,0.794497 -0.149037,0.99872 -0.02527,0.204391 0.113685,0.114991 0.113685,0.114991 0,0 2.54e-4,-0.02273 0.327492,-0.496498 0.350043,-0.473601 1.122358,-1.692706 2.466322,-2.609855 3.220748,-2.21471 5.083885,-0.192773 6.429629,2.869384 0.471189,1.051249 0.904228,1.397147 1.202641,1.446056 0.458812,0.09614 0.530109,-0.107667 0.691015,-0.105899 0.09198,10e-4 0.184389,-0.04344 0.411336,0.232002 0.340039,0.435803 -0.261536,0.770169 -0.585129,0.925735 -0.323846,0.178211 -0.807497,0.24101 -1.495205,0.05127 -2.360775,-0.685988 -1.970887,-4.751748 -4.106326,-5.025925 -0.66575,-0.09849 -1.40602,0.302377 -2.055579,0.818068 -0.742558,0.605596 -1.746738,2.004006 -2.447077,2.951123 -0.326983,0.451125 -1.192976,1.828321 -1.676797,1.913849 -0.184474,0.04344 -0.481786,-0.09639 -0.756208,-0.235959 -0.251362,-0.139235 -0.272132,-0.344046 -0.272132,-0.344046 -0.15387,-0.638427 -0.238053,-1.344282 -0.275694,-2.09509 -3.790448,3.822815 -3.367328,0.917065 -7.337672,-1.856268 l -0.04569,-0.02332 c -0.04595,-5.05e-4 -0.115212,0.02147 -0.161245,0.02096 -0.874641,0.08107 -1.357952,0.121136 -1.611095,0.140919 -0.157177,1.726378 -0.114449,2.022526 -0.142425,2.476933 -0.02832,0.477136 -0.166247,0.475621 -0.441178,0.381591 -0.206685,-0.02509 -1.374398,-0.470317 -1.346678,-0.901996 z M 68.877589,21.376372 c 1.847707,1.339736 4.62092,2.166895 7.241874,2.17363 0.206008,2.162434 0.78961,5.579834 0.90372,7.695716 0.05807,0.978348 1.835837,2.43097 2.651134,1.462387 l 3.052468,-3.603692 c 0.418881,-0.495487 -0.328679,-1.458851 -0.97917,-0.875058 l -1.997337,1.773771 c -0.39506,0.359368 -0.458982,-0.05059 -0.477548,-0.482944 -0.183371,-2.139369 -0.297226,-4.278064 -0.435836,-6.326096 2.398246,-0.609553 5.035139,-2.035153 6.274574,-3.885698 2.455132,-3.633071 1.829478,-9.438425 -1.334385,-8.200716 -0.532649,0.289497 -1.373466,1.4852 -0.645066,2.130025 0.729001,0.622263 1.930286,0.135531 2.209201,1.934977 0.149203,1.047545 -0.629043,2.812478 -1.583635,3.893106 -1.280635,1.463565 -3.106724,2.306972 -5.041411,2.580728 C 78.382491,16.503992 77.925121,12.087535 76.547755,9.8209699 75.937872,8.8363923 74.381966,8.1366823 73.087427,8.7586935 72.50942,9.0478542 72.018478,9.7698722 71.618249,10.606713 c -0.42363,0.881961 -0.872522,1.968397 -1.299711,3.168646 -0.474241,1.290743 -0.972643,2.694961 -1.494103,4.098758 -1.332011,-0.151441 -1.418313,1.416509 -1.016811,2.535271 -0.826149,1.923445 -1.741737,3.618423 -2.787625,4.629855 -1.092772,1.079112 -2.186983,0.22552 -1.849997,-1.135009 0.432785,-1.700534 1.864663,-4.34465 2.05541,-4.956476 0.191001,-0.634554 0.588689,-1.244022 -0.309011,-1.163209 -0.920674,0.08065 -2.138236,-0.02399 -2.471238,0.972708 -0.309181,0.928682 -1.012996,2.19417 -1.440949,3.46269 l -1.999203,1.955602 c 0,0 -1.091159,0.942739 -1.828716,1.093591 -0.737472,0.150852 -1.126003,-0.05817 -1.213493,-0.468381 -0.08749,-0.410297 0.262977,-0.906627 0.755699,-1.78783 0.515527,-0.881035 1.174156,-2.215131 1.174156,-2.215131 0,0 0.309265,-0.92885 -0.462626,-1.82428 -0.771891,-0.895515 -1.29988,-0.969678 -1.943674,-0.976918 -0.643539,-0.02997 -1.954271,-0.02206 -1.954271,-0.02206 0,0 -0.183202,-0.07029 0.0027,-0.250101 l 1.313699,-2.349904 c 0,0 0.355214,-0.928261 -0.124282,-1.229291 -0.479582,-0.30103 -1.534627,-0.540272 -2.465899,0.495235 -0.931271,1.035338 -1.518857,2.188446 -1.480962,2.916441 0.01797,0.454996 0.173622,0.934237 0.676178,1.23552 -0.186678,0.247996 -0.420407,0.586403 -0.700594,0.969846 -0.653373,0.856707 -2.153242,3.40915 -2.839509,3.083034 -0.663207,-0.325779 -0.765278,-1.486547 -0.687793,-2.258737 0.07757,-0.772274 -0.205752,-2.185247 -0.916689,-2.35243 -0.711022,-0.167183 -0.966708,0.08006 -0.892953,-0.351117 0.07375,-0.431174 0.228897,-1.975637 -0.08596,-2.615832 -1.707486,-3.611857 -5.590171,0.232507 -6.030247,2.592345 0,0 -0.16667,0.521079 -0.244241,1.293268 -0.628365,0.675046 -2.232593,2.271449 -4.207125,4.068202 -0.04646,0.04504 -0.78944,0.696006 -0.737896,0.196393 l 0.339615,-3.679875 c 0.05384,-0.704256 0.134625,-1.772004 0.190239,-2.635446 0.0863,-1.56795 -0.07418,-3.684421 -2.070415,-4.070726 -1.950286,-0.385801 -3.534592,1.483601 -4.443398,2.564818 -0.582585,0.698279 -1.448154,2.030101 -1.963426,2.888324 0.0045,-0.409203 -0.01373,-0.841471 -0.03213,-1.250926 -0.117077,-1.888594 -0.67177,-5.78313 -3.196842,-6.175496 -0.964165,-0.147233 -1.98123,0.341521 -2.908516,1.013283 -1.066915,0.829264 -1.834906,1.661895 -2.418339,2.428361 C 16.656547,11.078293 14.708635,8.396043 10.3835,8.5973191 7.2316747,8.7437093 3.2473934,11.381933 3.3885041,15.249026 c 0.054113,1.342178 0.4164398,1.84642 0.8075483,1.828069 0.3911085,-0.01827 0.7435419,-0.696427 1.1439674,-1.555997 0.4234169,-0.859316 0.519418,-1.222051 0.2222843,-1.38452 C 5.402373,14.043808 5.2482406,13.428113 5.4859541,12.725962 6.0331534,11.072148 8.0237436,9.889493 9.5894828,9.7026118 13.849169,9.1821225 16.050733,13.868294 16.009362,17.59691 c -1.691632,3.255184 -3.352661,7.897834 -2.932169,11.449755 0.146834,1.274917 0.992311,1.761987 1.636782,1.70104 1.242825,-0.09967 2.285409,-2.884705 2.5717,-3.813723 0.835643,-2.787392 0.971624,-6.765098 0.79478,-9.472939 l 2.55e-4,-0.02273 c -0.01975,-0.295811 -0.03925,-0.614351 -0.08198,-0.910414 -0.0217,-0.113981 -0.02018,-0.250354 -0.04196,-0.364334 0,0 1.54446,-2.415482 2.773552,-3.356706 1.229431,-0.963785 2.215467,-0.725386 2.620615,2.144251 0.404894,2.892281 0.05053,7.890763 0.05053,7.890763 0,0 -1.152285,2.306214 -1.462736,3.348708 -0.310453,1.04241 -0.227372,1.839265 0.530362,1.938766 0.734674,0.09925 1.561161,0.222153 2.03057,-0.636574 0.328933,-0.632955 1.164831,-3.443076 1.521231,-6.554142 0.585638,-0.971193 2.787711,-4.629939 3.624965,-5.484542 0.953991,-1.012441 2.6207,-2.016885 2.617733,0.325106 -0.0032,2.364805 -0.913384,7.720718 -0.913384,7.720718 0,0 -0.268233,1.384015 0.324016,1.890951 0.59225,0.506937 1.732496,1.361034 3.176072,-0.259781 1.21095,-1.373408 3.561297,-3.89361 4.282323,-4.635832 0.124112,1.25202 0.611493,2.917451 1.567859,3.769528 0.933645,0.829096 1.42094,0.425281 1.911797,-0.296821 0.701358,-1.038032 1.940368,-2.865848 2.244462,-3.339954 0.42117,-0.654673 0.490941,-0.722018 0.640741,0.280069 0.126911,1.002003 0.67957,3.009124 2.008952,3.387937 1.329552,0.378813 2.590943,-1.403292 3.128597,-2.192991 0.444144,-0.654505 1.521147,-2.393174 1.895521,-2.980166 0.069,8.42e-4 0.16099,0.0019 0.229998,0.0026 1.517418,0.01717 2.690981,-0.06053 2.690981,-0.06053 0,0 0.460591,-0.06314 0.33953,0.481261 -0.143696,0.521415 -1.627966,3.733499 -1.627966,3.733499 0,0 -0.449909,1.177351 0.231017,1.980856 0.680926,0.803505 1.687054,1.315071 2.585179,1.188716 0.898462,-0.149 1.896962,-1.024564 2.733452,-1.81098 0.278915,-0.269631 0.673805,-0.628998 1.045381,-0.965889 -0.150055,1.089719 0.09181,2.0929 1.14262,2.7187 0.479835,0.278301 1.260035,0.423513 2.042523,0.364081 1.773273,-0.252794 3.500936,-2.598153 4.934339,-5.37881 z m 7.079782,0.239073 c -1.377621,-0.197488 -2.72879,-0.690114 -3.893282,-1.430904 -0.684741,-0.462489 -1.391948,-0.970688 -1.961646,-1.431914 1.038767,-2.444018 1.823714,-4.799984 2.251158,-6.022961 0.569699,-1.60802 1.064625,-2.693867 1.608043,-1.937335 0.181168,0.252121 0.56368,1.006801 0.694914,1.622246 0.746628,3.168983 1.075477,6.697165 1.300813,9.200868 z M 15.858708,20.824062 c 0,0 -0.692117,4.357867 -1.170851,6.057812 -0.478733,1.70003 -0.803428,1.946511 -0.746881,0.99207 0.05638,-0.931628 0.980442,-5.4688 1.917732,-7.049882 z m 48.32624,-3.43432 c 0.527735,0.09698 1.291827,-0.371911 1.690193,-1.049565 0.65634,-1.129537 0.07443,-2.568606 -1.585239,-2.200737 -0.553252,0.130228 -1.20137,0.509378 -1.304374,1.508771 -0.10207,0.90831 0.143613,1.57056 1.19942,1.741531 z M 43.89027,18.616255 c 0,0 0.403537,-1.132483 0.414812,-2.155447 0.01136,-1.023133 -0.05001,-1.706007 -0.841408,-0.850815 -0.79122,0.855108 -1.604737,1.641692 -2.178759,3.636186 -0.932374,3.218313 0.160906,4.162904 0.511288,3.666659 0.60734,-0.857212 2.661817,-3.653611 2.661817,-3.653611 0,0 0.04731,-0.113139 -0.204142,-0.252374 -0.274677,-0.116843 -0.4121,-0.163816 -0.363608,-0.390598 z m 27.997398,32.012744 c 0,0 0.915334,0.396828 1.849827,-0.911424 0.910925,-1.308589 1.859829,-3.912719 1.951218,-5.912685 0.09071,-1.999965 0.403283,-3.201476 0.403283,-3.201476 0.423374,-0.882046 1.383978,-2.462875 2.473188,-3.2237 1.158388,-0.80561 3.250761,-0.781955 3.660655,1.632937 0.49747,2.825105 -0.227116,5.954859 -0.786896,8.76801 -0.17074,0.884908 -0.505438,2.018064 -0.165654,2.476596 0.498826,0.687841 1.479353,1.380985 2.332543,1.186022 0.875744,-0.194794 2.227931,-1.79389 2.227931,-1.79389 0,0 0.696017,-0.583373 0.470514,-0.995269 -0.226352,-0.411812 -0.657867,-0.84871 -1.519199,0.07383 -0.813856,0.877668 -1.225872,0.713936 -1.431034,0.484123 -0.385137,-0.459038 3.850564,-9.210969 -0.296122,-12.668523 -2.551437,-2.14341 -5.579743,-0.676813 -7.193975,1.828994 0,0 0.272217,-1.793386 -0.877777,-3.852783 -1.240029,-2.196864 -3.956102,-4.023753 -6.762378,-3.941761 -3.519163,0.09681 -7.06537,2.626185 -7.282822,5.647936 -0.08333,1.29512 0.255771,1.821923 0.646592,1.826384 0.41388,0.0046 0.834541,-0.604585 1.372449,-1.417013 0.537569,-0.789868 0.656256,-1.129621 0.382428,-1.314566 -0.273914,-0.18503 -0.30206,-1.7997 1.70935,-2.777543 4.78598,-2.356302 8.931134,1.260438 9.132224,5.924049 0.05638,1.114721 0.116568,1.911239 0.116568,1.911239 0,0 -1.726137,2.208902 -2.550251,3.973245 -1.372618,1.439743 -3.392083,3.144991 -3.537898,1.779075 -0.06214,-0.614603 0.103512,-1.044766 0.04213,-1.727556 -0.08139,-0.955956 -1.203913,-1.332412 -1.156693,-1.445635 0.09597,-0.362735 0.224828,-1.611809 -0.0913,-2.138359 -3.117406,-5.037542 -7.357679,2.031702 -5.580422,5.57613 0.945005,1.87521 1.706469,1.633611 1.892723,1.431072 0.18617,-0.202454 2.276084,-2.043486 2.695982,-2.584432 0.419899,-0.541029 0.489585,-0.608374 0.549268,0.233518 0.05968,0.842059 0.413456,2.119333 1.605415,2.451174 0.664819,0.189406 1.893656,-0.72909 2.869604,-1.650363 -0.431682,1.609535 -0.566816,3.427081 0.84853,4.352647 z m 1.799554,-6.778483 c -0.07028,0.1357 -1.216884,4.033771 -1.520639,4.416794 -0.302991,0.383106 -0.270437,-0.503317 -0.149885,-0.956714 0.119535,-0.430584 0.264674,-1.088372 0.736201,-2.106286 0.447875,-1.018165 0.869469,-1.741109 0.934323,-1.353794 z M 65.18828,43.049789 c 0,0 0.558423,-0.584887 0.568257,-1.471563 0.01882,-1.705164 -1.09684,-0.626304 -1.890858,0.478904 -0.817076,1.105041 -1.549207,2.847581 -1.218155,4.101874 0.08817,0.34211 0.08088,1.001414 0.686945,0.25793 0.605899,-0.72084 2.330595,-2.816014 2.330595,-2.816014 0,0 0.04705,-0.09041 -0.181592,-0.206663 -0.228728,-0.116338 -0.36615,-0.163311 -0.295192,-0.344468 z m -12.956328,0.94535 c 0,0 -0.002,0.18183 0.183711,0.02475 0.185661,-0.157081 3.739667,-3.39122 5.082698,-6.309344 1.342777,-2.895311 1.275549,-3.055255 1.351085,-3.645614 0.05222,-0.567799 -0.241867,-1.003182 -1.142788,-0.62681 -0.924235,0.398848 -3.903371,3.639553 -5.474706,10.557018 z M 23.53591,45.990811 c 0.923218,1.761229 1.638732,1.519209 1.824986,1.31667 0.16311,-0.202791 2.114414,-1.977068 2.488025,-2.495874 0.373695,-0.518721 0.443382,-0.586234 0.526294,0.233349 0.08308,0.796771 0.437701,2.005858 1.560991,2.314128 1.146265,0.308522 2.498113,-1.336116 2.965233,-1.990284 0.186763,-0.247997 0.513661,-0.699037 0.840814,-1.17289 -0.194986,0.998299 -0.31876,1.792712 -0.323762,2.247456 -0.05833,1.113543 -0.422357,2.837479 -0.105038,3.250302 0.294344,0.412653 2.441737,1.687486 2.243868,0.866724 -0.197869,-0.820846 0.295871,-1.793049 0.532058,-2.358827 0.235933,-0.54305 1.386437,-2.690248 1.386437,-2.690248 0,0 0.116738,-0.157838 -0.134456,-0.319802 -0.251108,-0.162048 -0.410997,-0.254731 -0.668209,0.128881 -0.257212,0.383695 -1.119984,1.465333 -1.119984,1.465333 0,0 -0.230932,0.08839 -0.181676,-0.206663 0.04926,-0.295054 0.487211,-4.542139 2.786862,-10.791967 1.374908,-3.713548 2.107039,-5.456173 2.348228,-6.476696 0.09198,0.0011 0.161245,-0.02088 0.253142,-0.01987 4.969777,-0.262223 9.977363,0.203549 11.170339,0.44439 1.170087,0.240504 2.108988,0.592211 1.784803,0.79315 -0.323847,0.178295 -0.603016,0.470739 -1.479013,0.665533 -0.875743,0.171981 -1.013929,0.193195 -0.74044,0.423597 0.296295,0.23074 0.524513,0.392451 1.353884,0.242693 0.806564,-0.150094 2.376797,-0.746346 2.037181,-1.227607 -0.339614,-0.481345 -0.67694,-1.167334 -2.097373,-1.638072 -1.099553,-0.376204 -6.307805,-1.412721 -12.495737,-1.186864 -0.679484,-0.939962 -1.55209,-1.040726 -1.955881,0.114317 -1.196792,0.10026 -2.417067,0.24564 -3.637935,0.436561 -8.431715,1.428379 -6.572393,1.722169 -6.572393,1.722169 0,0 -0.414897,0.08629 -0.272134,-0.34413 0.14268,-0.430416 0.330714,-0.792141 0.330714,-0.792141 0,0 0.04866,-0.249511 -0.247887,-0.457606 -0.296717,-0.207926 -0.547063,-0.438161 -0.547063,-0.438161 0,0 -0.182439,-0.138477 -0.298838,-0.0034 -0.116483,0.13511 -2.811956,2.674169 -3.092142,3.057528 -0.279933,0.360714 -0.511119,0.471748 -0.264334,1.02027 l 0.84268,0.737086 c 0,0 0.480599,0.210115 0.687453,0.212388 0.20694,0.0024 3.276956,-1.054448 4.453825,-1.427705 0.945854,-0.284952 4.223742,-1.430398 8.024448,-2.024125 -0.831489,2.400834 -2.3055,6.772675 -2.815347,9.199941 -0.266962,1.270287 -0.533499,2.495201 -0.752477,3.584162 -0.208467,0.134016 -0.372425,0.405078 -0.76884,0.900818 -0.232966,0.27022 -3.079935,4.035455 -3.382927,2.326671 -0.108683,-0.569735 0.08011,-0.999646 0.01814,-1.636978 -0.0819,-0.910499 -1.158982,-1.240992 -1.134735,-1.354384 0.09597,-0.362735 0.177861,-1.521482 -0.138525,-2.025219 -0.7234,-1.122382 -1.311071,-2.03852 -2.764821,-1.577378 -0.738235,0.219038 -1.457056,0.756616 -1.950456,1.70609 -0.84429,1.491177 -1.283348,3.7601 -0.517985,5.246647 z m 3.484997,-3.234981 c 0,0 0.512136,-0.562663 0.498487,-1.404218 -0.0049,-1.637062 -1.051315,-0.580258 -1.775901,0.480335 -0.747815,1.082901 -1.40975,2.712639 -1.078189,3.921474 0.08817,0.342026 0.10453,0.93348 0.66414,0.234949 0.559695,-0.698616 2.145527,-2.704474 2.145527,-2.704474 0,0 0.04697,-0.09041 -0.158701,-0.206411 -0.228643,-0.116254 -0.343092,-0.163058 -0.295363,-0.321655 z m -13.004989,3.264023 c 0,0 0.535534,-0.607785 1.821596,-0.456933 1.309035,0.151189 2.476325,0.641878 2.768889,1.213634 0.315877,0.549279 0.240003,1.162283 -0.339531,1.587816 -0.579532,0.425534 -1.75691,0.844248 -2.470645,0.927166 -0.713734,0.08292 -1.745381,-0.201612 -1.856015,-0.589349 -0.110887,-0.365091 0.191427,-0.680012 -0.266368,-0.867061 -0.457794,-0.18705 -0.805378,0.05909 -0.676093,0.833641 0.106479,0.774295 0.586738,1.007138 1.226463,1.378207 0.639725,0.3709 1.946726,0.704003 3.466177,0.539262 1.519452,-0.164742 2.749815,-1.21961 2.803903,-1.946595 0.03102,-0.727237 -0.258993,-1.526449 -1.26012,-2.492675 -1.024271,-0.943834 -1.252659,-1.082816 -1.252659,-1.082816 0,0 0.64659,-0.242778 1.454258,-0.5066 0.807752,-0.263738 3.245504,-2.373643 3.388945,-4.941408 0.120384,-2.5681 -1.230362,-5.175514 -3.512126,-6.770149 -2.281763,-1.594635 -6.052119,-1.659959 -9.242856,-0.08149 -3.1904337,1.55566 -5.7982222,4.482202 -6.2470806,7.6378 -0.4488753,3.155598 1.0213973,5.354988 1.7283158,5.885999 0.7069862,0.530928 1.7430931,0.406172 2.139254,-0.06684 C 8.0861321,45.771183 8.4693227,44.388431 7.6217216,44.106005 6.7742513,43.80085 6.1671489,44.635333 5.3790823,43.12572 4.5910072,41.616108 4.9118105,39.641481 6.3321666,38.043142 c 1.1409413,-1.283251 3.4602603,-3.076132 5.7467714,-3.98259 -0.12157,0.58977 -1.762252,9.621098 -1.857627,12.007537 -0.0735,2.477606 0.0034,3.842765 0.367253,4.210719 0.363777,0.367869 2.258534,1.617111 2.111446,0.364839 -0.147087,-1.252272 -0.161837,-2.002828 -0.433208,-2.415145 -0.294514,-0.38984 -0.264503,-1.026247 -0.155649,-2.548402 0.131827,-1.521987 1.028848,-5.695751 1.481302,-7.10039 0.475512,-1.404387 1.274023,-2.918798 0.776808,-3.697554 -0.203125,-0.343373 -0.587926,-0.89341 -0.975101,-1.238887 0.115211,-0.02138 0.230423,-0.04285 0.368693,-0.06406 2.787456,-0.468718 4.92069,0.0101 5.989724,1.068085 1.068948,1.057983 1.53539,2.541247 0.825215,4.37504 -0.710089,1.833708 -1.826767,3.003567 -3.309849,4.032761 -1.483082,1.029277 -1.457734,0.824971 -2.195969,1.044009 -0.73832,0.219038 -1.681714,0.276534 -2.076349,0.613256 -0.394635,0.336555 -0.420068,0.563674 -0.331137,0.837598 0.157854,0.274598 0.519934,0.801653 1.351424,0.469897 z m 27.466781,-1.031719 c 0,0 2.084318,-1.34083 2.545587,-1.472068 0.438381,-0.131406 0.738745,-0.264495 1.034869,-0.01103 0.29621,0.253384 0.546555,0.483618 0.199904,0.638847 -0.392601,0.154808 -4.339292,1.474594 -3.78036,0.844248 z m 0.395652,-4.58869 c 0,0 1.182635,-2.96535 1.67756,-4.051281 0.494842,-1.085763 1.407716,-2.530724 2.010478,-2.978734 0.625821,-0.447673 1.3666,-0.894083 1.678069,0.04167 0.311638,0.935753 -0.0696,2.136591 -0.632179,3.108036 -0.562748,0.971361 -2.305671,2.634351 -3.069932,3.125967 -0.741541,0.514596 -1.668235,1.140901 -1.663996,0.754342 z"
     fill="#f96791"
     id="path2"
     style="stroke-width:0.844781" />
</svg>
