<svg width="750" height="500" version="1.1" xml:space="preserve" id="svg16" xmlns="http://www.w3.org/2000/svg"><style type="text/css" id="style7178">.st0{fill-rule:evenodd;clip-rule:evenodd;fill:#005697}</style><path fill-rule="evenodd" clip-rule="evenodd" d="M-953.125-1573.72h2500v2500h-2500z" id="path2" style="fill:none;stroke-width:12.9698"/><g id="Group-10" transform="translate(12.83 24.089) scale(1.20744)"><path id="Fill-4" class="st0" d="M534.6 65.9H348.8L330 87.2l-61.3 69-18.9 21.3H66.5L85.1 156l8.8-10.2 18.6-21.5H28.1C12.6 124.2 0 137.2 0 153v60.7c0 15.8 12.6 28.8 28.1 28.8h323.3c15.4 0 36.5-9.6 46.8-21.4l48.9-55.6z"/><path id="Fill-6" d="M571.9 1C587.4 1 600 14 600 29.8v60.7c0 15.8-12.6 28.8-28.1 28.8h-84.2l18.8-21.4 9.3-10.6 18.8-21.4H348.9l-99.1 111.6H65.4L197.6 28l5-5.7C213 10.6 234.1 1 249.5 1h6.5z" style="fill-rule:evenodd;clip-rule:evenodd;fill:#fbd500"/><path id="Fill-8" class="st0" d="M63.2 345.6c0-4-.9-7.4-2.8-10.3-1.9-2.9-4.3-5.1-7.4-6.6 3-1.5 5.4-3.8 7.1-6.7 1.7-3 2.5-6.3 2.5-10.1v-2.1c0-4.6-.9-8.4-2.6-11.4-1.8-3-4.2-5.5-7.4-7.3-3.2-1.8-7-3.1-11.4-3.9-4.4-.8-9.3-1.2-14.8-1.2-1.8 0-3.7 0-5.7.1s-3.9.2-5.8.3c-1.9.1-3.6.2-5.1.4-1.6.2-2.8.3-3.8.5-2.2.4-3.8 1.1-4.7 2.1-.9 1-1.4 2.8-1.4 5.4v69.5c0 2.6.5 4.4 1.4 5.4 1 1 2.6 1.7 4.9 2.1 1.1.2 2.5.4 4.1.6 1.6.2 3.3.3 5.2.4 1.9.1 3.8.2 5.8.3 2 .1 3.9.1 5.8.1 5 0 9.6-.4 14-1.1 4.4-.8 8.2-2.1 11.4-4.1 3.2-1.9 5.8-4.6 7.7-7.9 1.9-3.3 2.9-7.5 2.9-12.5v-2zm-19.4-32.8c0 1.2-.2 2.4-.6 3.5-.4 1.1-1 2.1-1.9 2.9-.9.8-2.1 1.4-3.5 1.9-1.5.5-3.4.7-5.7.7H19.3V302c.4 0 1 0 1.8-.1.8 0 1.6-.1 2.5-.1H28c5.9 0 10 .7 12.3 2.2 2.3 1.5 3.5 3.8 3.5 6.9zm.4 34.1c0 3.2-1.1 5.7-3.4 7.4-2.2 1.8-6.3 2.6-12.2 2.6h-1.9c-.9 0-1.8 0-2.7-.1-1 0-1.9-.1-2.7-.1h-2v-21.4h12.8c4.6 0 7.7 1 9.5 3 1.8 2 2.6 4.4 2.6 7.1zm81.7-18.1c0-4.2-.6-7.8-1.9-10.7-1.3-2.9-3-5.3-5.3-7.2-2.3-1.9-5.1-3.2-8.4-4.1-3.3-.9-7-1.3-11.1-1.3-3.8 0-7.5.3-11.1.8-3.6.5-6.5 1.1-8.6 1.6-1.4.4-2.2 1.2-2.2 2.5v9.3c0 .8.2 1.3.6 1.6.4.3.9.5 1.5.5h.6c.9-.1 2.1-.2 3.4-.3 1.4-.1 2.9-.2 4.6-.3 1.7-.1 3.5-.1 5.4-.2 1.9 0 3.7-.1 5.5-.1 2.7 0 4.8.5 6.3 1.5s2.3 3.1 2.3 6.4v4.1h-6.2c-9.8 0-17 1.5-21.4 4.6-4.5 3.1-6.7 8-6.7 14.7v1c0 3.7.6 6.9 1.7 9.4s2.6 4.5 4.4 6.1c1.8 1.5 3.9 2.6 6.2 3.3 2.3.6 4.7 1 7.3 1 3.4 0 6.4-.5 8.9-1.4 2.5-.9 4.8-2.2 7-3.8v1.8c0 .6.2 1.1.7 1.6.5.5 1 .7 1.6.7h12.8c.6 0 1.1-.2 1.6-.7.5-.5.7-1 .7-1.6v-40.8zm-18.2 27.7c-1.4.7-2.8 1.3-4.4 1.8-1.6.5-3.2.7-5 .7-2.4 0-4.2-.3-5.4-1-1.2-.7-1.8-2.2-1.8-4.7v-1c0-1.4.2-2.6.5-3.7s.8-1.9 1.6-2.6c.8-.7 1.8-1.2 3.1-1.5 1.3-.3 2.9-.5 4.9-.5h6.5zm88.1 13v-38.1c0-3.6-.3-7-.9-10.1-.6-3.2-1.6-5.9-3.1-8.2-1.5-2.3-3.5-4.2-6.2-5.5-2.6-1.4-6-2.1-10.1-2.1-3.7 0-6.9.4-9.7 1.3-2.8.9-5.8 2.4-8.9 4.7v-2.8c0-.6-.2-1.2-.7-1.6-.5-.5-1-.7-1.6-.7h-12.8c-.6 0-1.1.2-1.6.7-.5.5-.7 1-.7 1.6v60.8c0 .6.2 1.2.7 1.7.5.5 1 .7 1.7.7h13.8c.6 0 1.1-.2 1.6-.7.5-.5.7-1 .7-1.7v-44.9c2-1.1 3.8-1.9 5.6-2.6 1.8-.7 3.5-1 5.1-1 1.8 0 3.2.2 4.3.5 1.1.3 2 .9 2.6 1.8.6.8 1 1.9 1.3 3.3.2 1.4.3 3 .3 5v38c0 .6.2 1.2.7 1.7.5.5 1 .7 1.6.7h13.8c.6 0 1.2-.2 1.7-.7.6-.6.8-1.2.8-1.8zm56.3-.9v-10.2c0-.6-.2-1.1-.6-1.4-.4-.3-.9-.5-1.5-.5h-.2c-2.1.2-4.2.4-6.1.6-1.9.2-4.6.2-7.8.2-1.3 0-2.5-.2-3.7-.6-1.1-.4-2.1-1.1-3-2.2-.8-1-1.5-2.4-2-4.1-.5-1.7-.7-3.8-.7-6.3v-9.6c0-2.5.2-4.6.7-6.3.5-1.7 1.2-3.1 2-4.1.8-1 1.8-1.8 3-2.2 1.1-.4 2.4-.6 3.7-.6 3.3 0 5.9.1 7.8.2 1.9.2 4 .3 6.1.6h.2c.6 0 1.1-.2 1.5-.5.4-.3.6-.8.6-1.4V310c0-.8-.2-1.4-.6-1.8-.4-.3-1-.6-1.8-.9-1.6-.4-3.7-.8-6.2-1.1-2.6-.4-5.5-.6-9-.6-8.1 0-14.5 2.5-19.4 7.4-4.8 5-7.3 12.1-7.3 21.5v9.6c0 9.4 2.4 16.5 7.3 21.5 4.8 5 11.3 7.4 19.4 7.4 3.4 0 6.4-.2 9-.6 2.6-.4 4.6-.8 6.2-1.1.8-.2 1.4-.5 1.8-.9.4-.4.6-1 .6-1.8zm63.5-33.4c0-4.6-.6-8.7-1.9-12.3-1.3-3.6-3.1-6.8-5.5-9.3-2.4-2.6-5.4-4.5-8.9-5.9-3.6-1.4-7.7-2.1-12.3-2.1-4.6 0-8.8.7-12.3 2.1-3.6 1.4-6.6 3.4-9 5.9-2.4 2.6-4.3 5.7-5.6 9.3-1.3 3.7-1.9 7.8-1.9 12.3v8c0 4.6.6 8.7 1.9 12.3 1.3 3.7 3.1 6.8 5.6 9.3 2.4 2.6 5.4 4.5 9 5.9 3.6 1.4 7.7 2.1 12.3 2.1 4.6 0 8.8-.7 12.3-2.1 3.5-1.4 6.5-3.4 8.9-5.9 2.4-2.6 4.2-5.7 5.5-9.3 1.3-3.6 1.9-7.8 1.9-12.3zm-18.6 8c0 9.4-3.4 14.1-10.1 14.1-3.3 0-5.9-1.2-7.6-3.5-1.7-2.4-2.6-5.9-2.6-10.5v-8c0-4.6.9-8.1 2.6-10.5 1.7-2.3 4.3-3.5 7.6-3.5 6.7 0 10.1 4.7 10.1 14zm86.6 26.3v-38.1c0-3.6-.3-7-.9-10.1-.6-3.2-1.6-5.9-3.1-8.2-1.5-2.3-3.5-4.2-6.2-5.5-2.6-1.4-6-2.1-10.1-2.1-3.7 0-6.9.4-9.7 1.3-2.8.9-5.8 2.4-8.9 4.7v-2.8c0-.6-.2-1.2-.7-1.6-.5-.5-1-.7-1.6-.7h-12.8c-.6 0-1.1.2-1.6.7-.5.5-.7 1-.7 1.6v60.8c0 .6.2 1.2.7 1.7.5.5 1 .7 1.7.7h13.8c.6 0 1.1-.2 1.6-.7.5-.5.7-1 .7-1.7v-44.9c2-1.1 3.8-1.9 5.6-2.6 1.8-.7 3.5-1 5.1-1 1.8 0 3.2.2 4.3.5 1.1.3 2 .9 2.6 1.8.6.8 1 1.9 1.3 3.3.2 1.4.3 3 .3 5v38c0 .6.2 1.2.7 1.7.5.5 1 .7 1.6.7h13.8c.6 0 1.2-.2 1.7-.7.5-.6.8-1.2.8-1.8zm49.8.3V361c0-1.3-.8-1.9-2.4-1.9h-5.6c-1.8 0-2.8-.3-3.2-1-.4-.6-.6-2.1-.6-4.4v-33.3h9.4c.6 0 1.1-.2 1.6-.7.5-.5.7-1 .7-1.6v-9.3c0-.6-.2-1.2-.7-1.6-.5-.5-1-.7-1.6-.7h-9.4v-12.1c0-.6-.2-1.1-.6-1.4-.4-.3-.9-.5-1.5-.5h-.3l-13.9 2.4c-.6.2-1.1.4-1.6.8s-.7.9-.7 1.5v9.4h-9c-.6 0-1.2.2-1.7.7-.5.5-.7 1-.7 1.7v7.5c0 .6.2 1.1.7 1.5.5.4 1 .7 1.7.9l9.1 1.5v33.2c0 4 .4 7.3 1.2 9.9.8 2.6 2 4.6 3.6 6 1.6 1.4 3.6 2.4 6 2.9s5.1.7 8.2.7c1.7 0 3.2-.1 4.5-.2 1.3-.2 2.8-.4 4.6-.7 1.5-.4 2.2-1.1 2.2-2.4zm61.1-41c0-4.2-.6-7.8-1.9-10.7-1.3-2.9-3-5.3-5.3-7.2-2.3-1.9-5.1-3.2-8.4-4.1-3.3-.9-7-1.3-11.1-1.3-3.8 0-7.5.3-11.1.8-3.6.5-6.5 1.1-8.6 1.6-1.5.4-2.2 1.2-2.2 2.5v9.3c0 .8.2 1.3.6 1.6.4.3.9.5 1.5.5h.6c.9-.1 2.1-.2 3.4-.3 1.4-.1 2.9-.2 4.6-.3 1.7-.1 3.5-.1 5.4-.2 1.9 0 3.7-.1 5.5-.1 2.7 0 4.8.5 6.3 1.5s2.3 3.1 2.3 6.4v4.1h-6.2c-9.8 0-17 1.5-21.4 4.6-4.5 3.1-6.7 8-6.7 14.7v1c0 3.7.6 6.9 1.7 9.4s2.6 4.5 4.4 6.1c1.8 1.5 3.9 2.6 6.2 3.3 2.3.6 4.7 1 7.3 1 3.4 0 6.4-.5 8.9-1.4 2.5-.9 4.8-2.2 7-3.8v1.8c0 .6.2 1.1.7 1.6.5.5 1 .7 1.6.7h12.8c.6 0 1.1-.2 1.6-.7.5-.5.7-1 .7-1.6v-40.8zm-18.2 27.7c-1.4.7-2.8 1.3-4.4 1.8-1.6.5-3.2.7-5 .7-2.4 0-4.2-.3-5.4-1-1.2-.7-1.8-2.2-1.8-4.7v-1c0-1.4.2-2.6.5-3.7s.8-1.9 1.6-2.6c.8-.7 1.8-1.2 3.1-1.5 1.3-.3 2.9-.5 4.9-.5h6.5zm74.4 12.1v-10.2c0-.6-.2-1.1-.6-1.4-.4-.3-.9-.5-1.5-.5h-.2c-2.1.2-4.2.4-6.1.6-1.9.2-4.6.2-7.8.2-1.3 0-2.5-.2-3.7-.6-1.1-.4-2.1-1.1-3-2.2-.8-1-1.5-2.4-2-4.1-.5-1.7-.7-3.8-.7-6.3v-9.6c0-2.5.2-4.6.7-6.3.5-1.7 1.2-3.1 2-4.1.8-1 1.8-1.8 3-2.2 1.1-.4 2.4-.6 3.7-.6 3.3 0 5.9.1 7.8.2 1.9.2 4 .3 6.1.6h.2c.6 0 1.1-.2 1.5-.5.4-.3.6-.8.6-1.4V310c0-.8-.2-1.4-.6-1.8-.4-.3-1-.6-1.8-.9-1.6-.4-3.7-.8-6.2-1.1-2.6-.4-5.5-.6-9-.6-8.1 0-14.5 2.5-19.4 7.4-4.8 5-7.3 12.1-7.3 21.5v9.6c0 9.4 2.4 16.5 7.3 21.5 4.8 5 11.3 7.4 19.4 7.4 3.4 0 6.4-.2 9-.6 2.6-.4 4.6-.8 6.2-1.1.8-.2 1.4-.5 1.8-.9.4-.4.6-1 .6-1.8zm49.3 1.2V361c0-1.3-.8-1.9-2.4-1.9H592c-1.8 0-2.8-.3-3.2-1-.4-.6-.6-2.1-.6-4.4v-33.3h9.4c.6 0 1.1-.2 1.6-.7.5-.5.7-1 .7-1.6v-9.3c0-.6-.2-1.2-.7-1.6-.5-.5-1-.7-1.6-.7h-9.4v-12.1c0-.6-.2-1.1-.6-1.4-.4-.3-.9-.5-1.5-.5h-.3l-13.9 2.4c-.6.2-1.1.4-1.6.8s-.7.9-.7 1.5v9.4h-9.1c-.6 0-1.2.2-1.7.7-.5.5-.7 1-.7 1.7v7.5c0 .6.2 1.1.7 1.5.5.4 1 .7 1.7.9l9.1 1.5v33.2c0 4 .4 7.3 1.2 9.9.8 2.6 2 4.6 3.6 6 1.6 1.4 3.6 2.4 6 2.9s5.1.7 8.2.7c1.7 0 3.2-.1 4.5-.2 1.3-.2 2.8-.4 4.6-.7 1.6-.4 2.3-1.1 2.3-2.4z"/></g></svg>