<svg version="1.1" id="Layer_1" xmlns="http://www.w3.org/2000/svg" x="0" y="0" viewBox="0 0 600 373" style="enable-background:new 0 0 600 373" xml:space="preserve"><style>.st0,.st1{fill-rule:evenodd;clip-rule:evenodd;fill:#71706f}.st1{fill:#c8036f}</style><g id="DSG-155_logotype_V2"><g id="DSG_155_logo_desktop-Copy" transform="translate(-531 -287)"><g id="eps-logo_dsg_155_desktop" transform="translate(531 287)"><path id="Fill-1" class="st0" d="M470.6 186.6h-47.8c-5.3 0-9.6-4.3-9.6-9.6 0-5.4 4.3-10.1 9.6-10.1h72.8v-36.3h-72.8c-25.4 0-46.1 20.9-46.1 46.5s20.7 46.5 46.1 46.5H470c5.3 0 9.6 4.3 9.6 9.6 0 5.4-4.3 9.3-9.6 9.3H368.8c-8.6 16.6-16.9 30.8-33.9 37.9h135.6c25-.4 45.4-21.7 45.4-47.1.1-25.4-20.3-46.4-45.3-46.7"/><path id="Fill-3" class="st0" d="M287.4 242.6h-36.8v-37.4c0-20.9 16.4-37.9 36.8-37.9s37 17 37 37.9c-.1 20.9-16.7 37.4-37 37.4m0-112c-40.5 0-73.5 33.5-73.5 74.8V361h36.7v-80.4h36.8c40.5 0 73.4-34 73.4-75.2-.1-41.4-32.9-74.8-73.4-74.8"/><path id="Fill-5" class="st1" d="M97.7 280.4c-34.7 0-63.8-25-71.7-57.6 0 0-2.3-10.8-2.3-17.9 0-7.1 2.2-18 2.2-18 7.9-32.5 37.1-56.8 71.7-56.8 40.7 0 74.1 33.5 74.1 74.6v18.1H63.5c6.4 12.6 19.3 19.7 34.2 19.7H195l.1-106.7c0-15.9-12.9-28.9-28.6-28.9H28.6C12.9 106.9 0 119.5 0 135.4v139.3C0 290.6 12.9 304 28.6 304h137.9c14.1 0 25.9-10.3 28.2-23.7l-97 .1z"/><path id="Fill-7" class="st1" d="M97.6 165.5c-14.8 0-27.8 9.2-34.2 21h68.3c-6.4-11.8-19.3-21-34.1-21"/><g id="Group-11" transform="translate(4.594 .02)"><defs><filter id="Adobe_OpacityMaskFilter" filterUnits="userSpaceOnUse" x="30.5" y="0" width="124.9" height="83.2"><feColorMatrix values="1 0 0 0 0 0 1 0 0 0 0 0 1 0 0 0 0 0 1 0"/></filter></defs><mask maskUnits="userSpaceOnUse" x="30.5" y="0" width="124.9" height="83.2" id="mask-2_1_"><g style="filter:url(#Adobe_OpacityMaskFilter)"><path id="path-1_1_" style="fill-rule:evenodd;clip-rule:evenodd;fill:#fff" d="M30.5 0h124.9v83.2H30.5z"/></g></mask><path id="Fill-9" d="M155.4 61.6c0-34-28-61.6-62.5-61.6C59 0 31.4 26.7 30.5 59.9v18.9c0 2.2 1.8 4.4 4 4.4h23c2.2 0 4.2-2.2 4.2-4.4V61.6c0-17 14-30.8 31.2-30.8s31.2 13.8 31.2 30.8v17.2c0 2.2 1.8 4.4 4.1 4.4h23c2.2 0 4.2-2.2 4.2-4.4V61.6z" style="mask:url(#mask-2_1_);fill-rule:evenodd;clip-rule:evenodd;fill:#c8036f"/></g><path id="Fill-12" class="st0" d="M319.5 322.5c0 1.6 1.2 2.4 2.6 2.4 1.4 0 3.3-1.2 3.3-3.3 0-1.5-1.1-2.4-2.4-2.4-1.6 0-3.5 1.1-3.5 3.3zm-11.1.1c0 1.6 1.2 2.3 2.5 2.3 1.6 0 3.4-1.2 3.4-3.4 0-1.5-1-2.3-2.4-2.3-1.7 0-3.5 1.1-3.5 3.4zm20.1 5.9-3.3 19c-1.7 9.6-7.9 14-16.3 14-7.2 0-12.7-4.7-11.1-14l3.3-19h5.1l-3.3 19c-1 5.9 1.6 9.3 6.6 9.3 5.1 0 9.5-3.1 10.6-9.3l3.3-19h5.1z"/><path id="Fill-14" class="st0" d="M337.3 350.7c-.2 3.8 2.3 6.3 5.8 6.3 4.5 0 8.8-3.5 9.1-8.8.2-3.9-2.3-6.2-5.8-6.2-4.4 0-8.8 3.6-9.1 8.7zm3.6-22.2-2.3 13.1c2-2.7 5.9-4.1 8.7-4.1 5.7 0 9.7 3.4 9.7 9.7 0 8.9-6.1 14.3-14 14.3-3 0-5.6-1.1-7.2-4l-.9 3.4h-4.5l5.7-32.3 4.8-.1z"/><path id="Fill-16" class="st0" d="M380.9 347.5c.4-3.9-1.9-5.5-5.8-5.5-3.5 0-6.6 1.6-8 5.5h13.8zm-14.6 3.9c-.2 3.2 2.3 5.7 6.4 5.7 2.3 0 5.3-.9 7-2.5l2.6 3c-2.8 2.6-7 3.9-10.5 3.9-6.6 0-10.4-4-10.4-10 0-8.1 6.3-14.1 14.3-14.1 7.3 0 11.5 4.5 9 13.9h-18.4z"/><path id="Fill-18" class="st0" d="m397.5 338-.2 3c2.2-2.9 4.9-3.5 7.3-3.5 2.2 0 4.2.8 5.3 2l-2.9 4.2c-1-.9-2-1.4-3.8-1.4-3.3 0-6.5 2-7.2 6.2l-2.2 12.4H389l4-22.9h4.5z"/><path id="Fill-20" class="st0" d="m432.7 338 2.4 18.1 8.7-18.1h5.3l-11.9 22.9h-5.6l-2.3-15.1-3.6 7.5-4 7.6h-5.5l-4-22.9h5.3l2.4 18.1 8.7-18.1z"/><path id="Fill-22" class="st0" d="M469.8 347.5c.4-3.9-1.9-5.5-5.8-5.5-3.5 0-6.6 1.6-8 5.5h13.8zm-14.6 3.9c-.2 3.2 2.3 5.7 6.4 5.7 2.3 0 5.3-.9 7-2.5l2.6 3c-2.8 2.6-7 3.9-10.5 3.9-6.6 0-10.4-4-10.4-10 0-8.1 6.3-14.1 14.3-14.1 7.3 0 11.5 4.5 9 13.9h-18.4z"/><path id="Fill-24" class="st0" d="M482.5 331.8c0 1.6 1.2 2.5 2.5 2.5 1.8 0 3.6-1.2 3.6-3.5 0-1.5-1.2-2.4-2.4-2.4-1.8-.1-3.7 1-3.7 3.4zm4.2 6.2-4 22.9h-4.8l4-22.9h4.8z"/><path id="Fill-26" class="st0" d="M507.8 343.7c-1.5-1.7-3.4-2.1-5.6-2.1-3.1 0-5.4 1.1-5.4 3.1 0 1.7 1.8 2.4 4.5 2.6 4.1.4 9.5 1.8 8.4 7.7-.8 4.3-5 6.8-10.9 6.8-3.7 0-7.2-.8-9.6-4.2l3.1-3.4c1.7 2.4 4.7 3.4 7.4 3.4 2.3 0 4.9-.8 5.4-3 .4-2.1-1.4-2.8-4.7-3.2-3.9-.4-8.1-1.8-8.1-6.1 0-5.7 6.1-7.7 10.7-7.7 3.5 0 6.1.8 8.2 3.1l-3.4 3z"/><path id="Fill-28" class="st0" d="m522.8 338-2.2 12.3c-.7 3.9 1.1 6.6 5 6.6 3.7 0 6.9-3.1 7.6-7l2.1-12h4.8l-4 22.9h-4.3l.3-3.3c-2.7 2.6-5.3 3.8-8.5 3.8-5.6 0-8.9-4-7.7-11L518 338h4.8z"/><path id="Fill-30" class="st0" d="m560.9 360.9 2.2-12.2c.7-4-.6-6.6-5-6.6-3.8 0-7 3.1-7.6 6.9l-2.1 12h-4.8l4-22.9h4.3l-.3 3.3c2.6-2.5 5.4-3.7 8.3-3.7 5.5 0 9.1 3.9 7.9 10.9l-2.2 12.3h-4.7z"/><path id="Fill-32" class="st0" d="M578.3 350.8c0 3.9 2.5 6.3 6.2 6.3 9.8 0 12.5-15.2 2.6-15.2-4.6 0-8.8 3.5-8.8 8.9zM577 364c-.3 3.2 2.1 4.4 6.1 4.4 3.5 0 7.3-2 8.2-7l.7-3.9c-2.1 2.9-5.9 4.1-8.7 4.1-5.8 0-9.9-3.5-9.9-9.8 0-9 6.6-14.3 14.2-14.3 3.2 0 6 1.5 7.1 4.1l.8-3.6h4.6l-4 23.6c-1.5 8.7-7.9 11.4-13.7 11.4-7 0-10.9-3.4-9.9-8.9l4.5-.1z"/></g></g></g></svg>