<svg width="750" height="500" xml:space="preserve" xmlns="http://www.w3.org/2000/svg"><path d="M.591 1.532H749.41v496.936H.59V228.286z" fill="#016fd0" style="stroke-width:.611531"/><path d="M176.14 367.908v-102.07h108.072l11.596 15.116 11.979-15.116h392.278v95.032s-10.259 6.936-22.124 7.039H460.73l-13.073-16.09v16.09h-42.84v-27.466s-5.852 3.833-18.503 3.833h-14.581v23.633H306.87l-11.58-15.44-11.755 15.44Zm-126.205-179 24.37-56.817h42.148l13.83 31.827v-31.827h52.393l8.233 23.004 7.982-23.004H434.08v11.565s12.364-11.565 32.683-11.565l76.31.267 13.591 31.41v-31.677h43.845l12.067 18.043V132.09h44.247v102.07h-44.247l-11.564-18.101v18.1h-64.418l-6.478-16.089h-17.317l-6.374 16.09H462.74c-17.484 0-28.66-11.328-28.66-11.328v11.328h-65.868l-13.073-16.09v16.09h-244.93l-6.474-16.09H86.472l-6.426 16.09H49.935z" fill="#fff" style="stroke-width:.651749"/><path d="m82.06 144.92-32.871 76.427h21.4l6.066-15.305h35.26l6.033 15.305h21.872l-32.84-76.427zm12.161 17.786 10.748 26.744H83.443Zm47.861 58.628v-76.427l30.412.113 17.688 49.275 17.265-49.388h30.169v76.427h-19.107v-56.315l-20.254 56.314H181.5l-20.31-56.314v56.314zm108.606 0v-76.427h62.349v17.095h-43.04v13.073h42.034v16.09h-42.035v13.576h43.04v16.592zm73.41-76.414v76.427h19.107v-27.152h8.045l22.909 27.152h23.35l-25.141-28.158c10.318-.87 20.96-9.726 20.96-23.475 0-16.082-12.622-24.794-26.71-24.794zm19.107 17.095h21.84c5.24 0 9.051 4.098 9.051 8.045 0 5.077-4.938 8.045-8.767 8.045h-22.124zm77.433 59.319h-19.51v-76.427h19.51zm46.258 0h-4.21c-20.376 0-32.747-16.053-32.747-37.9 0-22.387 12.232-38.527 37.962-38.527h21.118v18.1h-21.89c-10.444 0-17.831 8.152-17.831 20.616 0 14.8 8.446 21.017 20.614 21.017h5.029zm41.576-76.414L475.6 221.347H497l6.065-15.305h35.26l6.034 15.305h21.872l-32.84-76.427zm12.161 17.786 10.748 26.744h-21.527zm47.83 58.628v-76.427h24.292l31.016 48.018v-48.018h19.108v76.426h-23.507L587.57 172.06v49.274ZM188.34 355.08v-76.427h62.347v17.096h-43.04v13.073h42.035v16.09h-42.035v13.576h43.04v16.592zm305.506 0v-76.427h62.347v17.096h-43.04v13.073h41.834v16.09h-41.835v13.576h43.04v16.592zm-240.739 0 30.358-37.741-31.08-38.686h24.072l18.51 23.915 18.572-23.915h23.13l-30.672 38.214 30.413 38.213h-24.068l-17.972-23.537-17.536 23.537zm85.572-76.414v76.427h19.61V330.96h20.112c17.018 0 29.917-9.029 29.917-26.586 0-14.545-10.117-25.707-27.435-25.707zm19.61 17.285h21.18c5.498 0 9.428 3.37 9.428 8.798 0 5.101-3.91 8.8-9.49 8.8h-21.119Zm58.325-17.298v76.427h19.107v-27.152h8.045l22.909 27.152h23.349l-25.14-28.157c10.317-.87 20.96-9.726 20.96-23.475 0-16.083-12.623-24.795-26.711-24.795zm19.107 17.096h21.84c5.24 0 9.051 4.098 9.051 8.045 0 5.077-4.938 8.045-8.768 8.045h-22.123zm129.322 59.331v-16.592h38.238c5.658 0 8.108-3.058 8.108-6.411 0-3.213-2.442-6.461-8.108-6.461h-17.28c-15.019 0-23.384-9.15-23.384-22.89 0-12.255 7.66-24.073 29.98-24.073h37.207l-8.044 17.197h-32.18c-6.152 0-8.045 3.227-8.045 6.31 0 3.168 2.34 6.662 7.039 6.662h18.101c16.743 0 24.01 9.498 24.01 21.935 0 13.372-8.097 24.323-24.921 24.323zm70.126 0v-16.592h38.238c5.658 0 8.108-3.058 8.108-6.411 0-3.213-2.442-6.461-8.108-6.461h-17.28c-15.02 0-23.384-9.15-23.384-22.89 0-12.255 7.66-24.073 29.98-24.073h37.207l-8.045 17.197h-32.18c-6.15 0-8.044 3.227-8.044 6.31 0 3.168 2.34 6.662 7.04 6.662h18.1c16.744 0 24.01 9.498 24.01 21.935 0 13.372-8.097 24.323-24.921 24.323z" fill="#016fd0" style="stroke-width:.651749"/><path fill-rule="evenodd" clip-rule="evenodd" d="M-953.125-1573.72h2500v2500h-2500z" style="fill:none;stroke-width:12.9698"/></svg>