<svg xmlns="http://www.w3.org/2000/svg" viewBox="0 0 600 259" style="enable-background:new 0 0 600 259" xml:space="preserve"><path d="M0 46.5C0 20.8 20.9 0 46.5 0h506.9C579.1 0 600 20.8 600 46.5v166.1c0 25.6-20.8 46.5-46.5 46.5h-507C20.9 259.1 0 238.2 0 212.6V46.5z" style="fill:#000268"/><path d="M19.1 48.1v163c0 16.1 13 29 29.1 29h265.6v-221H48.2c-16.1 0-29.1 12.9-29.1 29zm363.3 80.7c0 10.4-5.1 17.5-13.5 17.5-7.5 0-13.7-7.1-13.7-16.7 0-9.7 5.5-17 13.7-17 8.6 0 13.5 7.5 13.5 16.2zm-49.7 59.5h22.4v-35.4h.3c4.3 7.8 12.7 10.6 20.5 10.6 19.3 0 29.6-16 29.6-35.2 0-15.8-9.8-32.8-27.8-32.8-10.2 0-19.6 4.1-24.2 13.3h-.3V96.9h-20.7l.2 91.4zm103.4-47c0-6.3 6-8.6 13.5-8.6 3.4 0 6.6.2 9.5.3 0 7.6-5.4 15.4-13.8 15.4-5.2.1-9.2-2.5-9.2-7.1zm45.2 20.7c-1-5.1-1.2-10.3-1.2-15.4v-24.3c0-19.9-14.3-27-30.9-27-9.5 0-17.9 1.4-25.9 4.6l.4 15.2c6.2-3.5 13.4-4.9 20.7-4.9 8.1 0 14.7 2.4 14.8 11.3-2.8-.5-6.8-.9-10.4-.9-11.9 0-33.5 2.4-33.5 22.2 0 14.1 11.4 20.5 24.2 20.5 9.2 0 15.4-3.6 20.5-11.8h.3c0 3.4.3 6.7.5 10.3l20.5.2zm10.1 26.3c4.6 1 9.2 1.5 14 1.5 20.5 0 25.4-15.9 31.8-32.2L561 97h-22.4l-13.3 42.5h-.2l-14-42.5H487l26.3 66.7c-1.6 5.8-5.8 9-11.3 9-3.1 0-5.8-.4-8.9-1.4l-1.7 17z" style="fill:#fff"/><path d="M73.8 128.9c0-8.9 4.3-16.3 12.7-16.3 10.1 0 14.3 8.1 14.3 15.4 0 10-6.4 16.7-14.3 16.7-6.7 0-12.7-5.7-12.7-15.8zm48.7-32h-20.3v11.8h-.2c-4.7-8-12.5-13.3-22-13.3-20.2 0-29.3 14.5-29.3 33.9 0 19.2 11.1 32.8 28.9 32.8 9 0 16.5-3.5 21.8-11.2h.3v3.5c0 12.7-7 18.8-19.9 18.8-9.3 0-15.1-2-21.9-5.4l-1.2 17.8c5.2 1.9 14.1 4.1 24.8 4.1 26.1 0 39.1-8.6 39.1-35.4V96.9zm37.9-27.2H138v16.5h22.4V69.7zM138 162h22.4V96.9H138V162zm84.8-65.9c-2.2-.3-5-.7-7.6-.7-9.7 0-15.3 5.2-19.2 13.5h-.3v-12h-20.4v65.2h22.4v-27.5c0-12.8 5.9-20.4 16.3-20.4 2.6 0 5.1 0 7.6.7l1.2-18.8zm38.6 51.6c-10.4 0-14.6-8.6-14.6-18.2 0-9.7 4.2-18.4 14.6-18.4 10.4 0 14.6 8.6 14.6 18.4-.1 9.6-4.3 18.2-14.6 18.2zm0 15.8c21.4 0 37.7-12.5 37.7-34 0-21.6-16.3-34.1-37.7-34.1s-37.7 12.5-37.7 34.1c-.1 21.5 16.2 34 37.7 34z" style="fill:#ff0007"/></svg>