<svg width="575" height="500" xml:space="preserve" xmlns="http://www.w3.org/2000/svg"><path d="M34.648 4.15h-36v54h36c7-.1 13.8-2 18.2-5.8 5.3-4.5 7.9-11.7 7.9-21.3 0-4.6-.8-8.7-2.2-12.2-1.3-3.4-3.2-6.2-5.7-8.5-4.5-3.9-11.2-6.1-18.2-6.2z" style="fill:#fff;fill-opacity:1" transform="translate(12.496 -37.862) scale(9.24117)"/><path fill="#494949" d="M93.14 273.776h79.252v134.728H93.14z"/><path d="M172.392 273.776v134.728H93.14"/><circle cx="13" cy="27.2" fill="#494949" r="5.6" transform="translate(29.738 -3.607) scale(7.92522)"/><path d="M163.674 180.258c17.436 17.436 17.436 45.966 0 63.402-17.435 17.435-45.966 17.435-63.401 0"/><path d="M322.971 36.02H37.663v427.96h285.308c55.477-.792 109.368-15.85 144.24-45.965 42.003-35.664 62.608-92.725 62.608-168.808 0-36.456-6.34-68.949-17.435-96.687-10.303-26.946-25.36-49.137-45.174-67.365-35.663-30.908-88.762-48.343-144.239-49.136Zm-7.925 31.7c54.684 0 100.65 13.473 132.351 41.211 35.664 31.701 53.892 76.875 53.892 140.276-.793 125.219-61.817 183.073-186.243 183.073H69.364V67.72h245.682Z"/><path d="M364.975 218.3h14.265c-1.585 0-4.755-13.474-7.132-19.814-2.378 6.34-6.34 19.813-7.133 19.813zm-140.276 21.397c2.377-.792 3.962-2.377 5.547-3.17 1.585-1.585 2.378-3.962 3.17-6.34.793-3.17 1.585-7.925 1.585-13.473 0-5.548-.792-9.51-1.585-12.68-.792-2.378-2.377-4.755-3.962-6.34-1.585-1.585-3.963-1.585-6.34-2.378H203.3v47.551h11.887c4.755-.792 7.926-3.17 9.51-3.17z" fill="#cc1b69"/><path d="M418.074 257.925v-79.252h23.776v55.477h32.493C467.21 123.197 382.41 99.42 303.158 99.42h-99.065v79.253h13.473c6.34 0 11.095-.792 15.058.793 4.755 1.585 8.718 3.17 11.888 7.132 3.17 3.17 5.547 7.133 7.925 12.68 1.585 4.756 2.377 11.096 2.377 18.229 0 6.34-.792 11.887-2.377 16.643-1.585 5.547-4.755 10.302-8.718 14.265-3.17 2.378-6.34 6.34-11.095 7.925-3.17.793-7.925 3.17-14.266 3.17h-14.265v150.58h99.065c83.215 0 171.185-23.776 171.977-150.58h-57.061Zm-87.177 0h-63.402v-79.252h55.476v15.85h-39.626v7.926h39.626v23.775h-39.626v15.85h47.552zm61.024 0s-5.548-15.85-6.34-15.85h-26.946c-.793 0-6.34 15.85-6.34 15.85h-20.606l30.908-79.252h19.02l31.702 79.252z" fill="#f42588"/><path d="M204.093 178.673h13.473c6.34 0 11.095-.792 15.058.793 4.755 1.585 8.718 3.17 11.888 7.132 3.17 3.17 5.547 7.133 7.925 12.68 1.585 4.756 2.377 11.096 2.377 18.229 0 6.34-.792 11.887-2.377 16.643-1.585 5.547-4.755 10.302-8.718 14.265-3.17 2.378-6.34 6.34-11.095 7.925-3.17.793-7.925 3.17-14.266 3.17h-14.265v150.58h99.065c83.215 0 171.185-23.776 171.977-150.58h-57.061v-80.837h23.776v55.477h32.493c-7.133-110.953-93.518-132.352-172.77-132.352m21.398 156.127h-55.476v-79.252h55.476v15.85h-39.626v15.85h39.626v15.851h-39.626v15.85h39.626zm68.95 0s-5.548-15.85-6.34-15.85h-26.946c-.793 0-6.34 15.85-6.34 15.85h-20.606l30.908-79.252h19.02l31.702 79.252z" fill="#cc1b69"/></svg>