<svg width="1775" height="500" xml:space="preserve" xmlns="http://www.w3.org/2000/svg"><path d="M12.4 4.9c-.1-.7.6-1.3 1.2-1.3H19c1-1.3 2.1-2.4 3.4-3.3-3.5 0-7.1-.1-10.6 0-2.6.7-4.1 3.4-4.3 5.9.2 2.1 2.8 2.3 4.4 2.9 0 .7-.1 1.4-.9 1.5-3.2.1-6.5 0-9.7.1C.8 11.9.4 13 0 14.2c3.6 0 7.3.2 10.9-.1 2.1-.1 4.2-1.3 5.1-3.3.6-1.3 1.1-2.8.2-4.1-.9-1.1-2.7-.9-3.8-1.8Zm25.3-1.2c1.7-.1 3.5 0 5.3-.1 1-1.3 2.3-2.4 3.6-3.3h-8.8c-2 0-3.8 1.5-4.4 3.3-1.3 3.5-2.7 7.1-3.9 10.6 1.5.1 2.9.3 4.4 0 .7-1.8 1.3-3.7 2.1-5.5h3.8c.4-.9.7-1.9 1.1-2.9h-3.7c0-.6.2-1.4.5-2.1zM68.1.2c.8.9 1.2 2.1 1.3 3.3h2.5c-1.3 3.5-2.6 7.1-4 10.6H72c1.3-3.5 2.7-7.1 3.9-10.6h5.2c.4-1.1.8-2.2 1.3-3.3-4.8 0-9.6.1-14.3 0zM29.7.5c-2.5-1.1-5.5-.3-7.5 1.3-2.3 1.8-3.7 4.5-4.4 7.2-.3 1.6-.3 3.5 1.2 4.6 1.4 1.1 3.2.9 4.9.8 1.7-.5 3.2-1.3 4.4-2.7 1.8-2.2 3.1-4.8 3.4-7.6-.1-1.3-.6-2.9-2-3.6zm-2.9 6.2c-.6 1.5-1.1 3.1-2.3 4.2-.7.6-1.7.4-2.5.2-.4-2.1.5-4.1 1.5-5.9.7-1.3 2.3-2.7 3.7-1.8.5.3 0 2.2-.4 3.3zm41.1-4.8C67.3.9 66.1.4 65 .3c-2.1-.1-4.2 0-6.3-.1-1.8 4.7-3.5 9.3-5.3 14h4.5c.6-1.6 1.2-3.2 1.9-4.7.5 1.6.9 3.2 1.2 4.7 1.6.1 3.1.1 4.7 0-.4-2-1.1-4-1.8-5.9 1.3-.6 2.7-1.3 3.4-2.6.8-1.1.9-2.5.6-3.8zm-4.9 4c-.7.6-1.7.5-2.6.6.4-1.1.8-2.3 1.2-3.4.7 0 1.4 0 2.1.2.5.9 0 2-.7 2.6zM53.7.5c-2.5-1.1-5.5-.3-7.5 1.3-2.3 1.8-3.7 4.5-4.4 7.2-.3 1.6-.3 3.5 1.2 4.6 1.4 1.1 3.2.9 4.9.8 1.7-.5 3.2-1.3 4.4-2.7 1.8-2.2 3.1-4.8 3.4-7.6-.1-1.3-.6-3-2-3.6zm-2.9 6.2c-.6 1.5-1.1 3.1-2.3 4.2-.7.6-1.7.4-2.5.2-.4-2.1.6-4.1 1.5-5.9.7-1.3 2.3-2.7 3.7-1.8.5.3 0 2.2-.4 3.3z" style="fill:#eb7f23" transform="translate(0 2.278) scale(21.53716)"/><path d="M6.9 16.3c-1-1-2.7-.4-4-.5C2 18 1.2 20.3.3 22.6h3.8c1.5-.6 2.9-2.3 1.7-3.8.8-.6 1.7-1.5 1.1-2.5Zm-2.4 4.8c-.6.6-1.6.5-2.4.5.3-.7.5-1.4.8-2.1.6.1 1.3.2 1.9.3-.1.5-.1 1-.3 1.3zm-1-2.7c.2-.6.4-1.1.6-1.7.5.1.9.1 1.4.2 0 .1.1.4.1.6-.6.6-1.3 1-2.1.9zM48 17c.1.1.3.4.4.6.3-.5 1-1.4.1-1.6-3.4-1.4-7.3 1.8-7 5.2 0 .8.7 1.4 1.4 1.6 1.3.5 2.6 0 3.8-.3.4-1.1.9-2.3 1.2-3.5-1.2-.1-2.9-.7-3.4.8.5.1 1 .1 1.5.2-.2.5-.4 1.1-.5 1.6-.9.3-2.2.3-2.5-.7-.3-2.6 2.6-4.9 5-3.9zm-9.7 3.6c-.3-1.6-.5-3.2-.9-4.8-.7 0-1.3.1-2 .1-.8 2.3-1.8 4.5-2.5 6.8h1.2c.7-1.7 1.3-3.4 2-5.1.3 1.7.5 3.4.9 5.1.6 0 1.2 0 1.8-.1.7-2.3 1.7-4.5 2.5-6.8H40c-.5 1.6-1.1 3.2-1.7 4.8zm-6.4-4.8c-.8 2.3-1.7 4.6-2.6 6.8h1.4c.9-2.3 1.7-4.6 2.6-6.9-.4.1-.9.1-1.4.1zM6.5 22.7h1.4c.3-.5.7-1 1-1.5h2.8c0 .5 0 1-.1 1.5h1.5c.1-2.3 0-4.6.1-6.9h-1.8c-1.6 2.3-3.3 4.5-4.9 6.9zm5.2-2.7H9.8c.6-1 1.3-1.9 2.1-2.7 0 .9-.1 1.8-.2 2.7zm18.7-4.2c-.5 0-1.1-.1-1.6.1-1.1.8-2 1.9-3.1 2.8.2-1 .6-2 1-2.9h-1.4c-.8 2.1-1.5 4.2-2.4 6.3 0 .2-.1.5-.1.6h1.4c.4-1.1.8-2.2 1.3-3.3.4 1.1.7 2.2 1 3.4h1.7c-.3-1.2-.7-2.5-1.1-3.7 1-1.2 2.3-2.1 3.3-3.3zm-8.6 0L20 20.6c-.3-1.6-.6-3.2-.8-4.7-.6 0-1.3-.2-1.9 0-1.1 2.2-1.7 4.5-2.7 6.8.5 0 .9 0 1.4-.1.6-1.7 1.3-3.4 1.8-5.1.4 1.7.6 3.4 1 5.1h1.8c.9-2.3 1.7-4.6 2.6-6.8h-1.4z" style="fill-rule:evenodd;clip-rule:evenodd;fill:#383a41" transform="translate(0 2.278) scale(21.53716)"/></svg>