<svg width="780" height="500" xml:space="preserve" xmlns="http://www.w3.org/2000/svg"><path fill-rule="evenodd" clip-rule="evenodd" d="M-1405 327.56h2500v2500h-2500z" style="fill:none;stroke-width:12.9698"/><path fill="#1d5b99" d="M770.493 546.755H-6.48V14.691h790.403v532.064Z" style="stroke-width:4.49737" transform="matrix(.939 0 0 .939 24.99 -13.795)"/><path fill-rule="evenodd" clip-rule="evenodd" fill="#fff" d="M770.493 533.326H6.95V28.12h763.543Z" style="stroke-width:4.49737" transform="matrix(.939 0 0 .939 24.99 -13.795)"/><path fill-rule="evenodd" clip-rule="evenodd" fill="#1d5b99" d="M282.912 362.768 332.5 199.267h44.245l-49.592 163.501Zm-19.78-163.456-39.801 69.313c-10.128 18.156-16.056 27.326-18.902 38.79h-.608c.707-14.536-1.322-32.395-1.51-42.487l-4.399-65.616h-74.476l-.76 4.398c19.131 0 30.478 9.611 33.6 29.274l14.517 129.784h45.837l92.686-163.456zm344.076 163.456-1.219-24.312-55.241-.045-11.306 24.357H491.41l87.1-163.19h58.956l14.747 163.19zm-5.069-96.446c-.499-12.084-.904-28.481-.09-38.411h-.652c-2.69 8.117-14.256 32.493-19.343 44.478l-16.46 35.835h38.79zM423.194 367.414c-31.234 0-51.967-9.908-66.764-18.745l21.075-32.183c13.29 7.43 23.72 16.006 47.726 16.006 7.713 0 15.152-2.001 19.38-9.318 6.147-10.628-1.422-16.357-18.7-26.139l-8.537-5.55c-25.621-17.504-36.707-34.135-24.645-63.16 7.722-18.566 28.072-32.643 61.663-32.643 23.152 0 44.87 10.02 57.517 19.807l-24.228 28.414c-12.35-9.984-22.58-15.035-34.292-15.035-9.337 0-16.433 3.603-18.884 8.46-4.61 9.13 1.493 15.354 14.958 23.71l10.146 6.458c31.113 19.622 38.515 40.193 30.726 59.42-13.42 33.113-39.676 40.498-67.141 40.498zm242.192-145.989h-1.916V209.76h4.425c2.82 0 4.25.985 4.25 3.355 0 2.114-1.29 2.991-3.04 3.184l3.27 5.127h-2.168l-3.013-4.983h-1.808zm2.14-6.624c1.44 0 2.708-.14 2.708-1.83 0-1.408-1.38-1.58-2.528-1.58h-2.32v3.41zm-.054 11.135c-6.062 0-10.375-4.538-10.375-10.542 0-6.336 4.785-10.537 10.375-10.537 5.519 0 10.313 4.2 10.313 10.537 0 6.342-4.794 10.542-10.313 10.542zm0-19.249c-4.569 0-8.117 3.58-8.117 8.707 0 4.79 3.098 8.707 8.117 8.707 4.507 0 8.055-3.553 8.055-8.707 0-5.127-3.548-8.707-8.055-8.707z" style="stroke-width:4.49737" transform="matrix(.939 0 0 .939 24.99 -13.795)"/><path fill-rule="evenodd" clip-rule="evenodd" fill="#e7a83a" d="M751.694 413.548h-724.6v96.95h724.6Z" style="stroke-width:4.49737" transform="matrix(.939 0 0 .939 24.99 -13.795)"/><path fill-rule="evenodd" clip-rule="evenodd" fill="#1d5b99" d="M750.35 52.293H25.753v96.954H750.35Zm-16.56 451.31h-1.915v-11.666h4.425c2.82 0 4.25.985 4.25 3.355 0 2.11-1.29 2.986-3.04 3.18l3.27 5.131h-2.168l-3.014-4.987h-1.808zm2.146-6.624c1.439 0 2.707-.14 2.707-1.835 0-1.403-1.38-1.574-2.527-1.574h-2.321v3.409zm-.054 11.13c-6.063 0-10.376-4.533-10.376-10.541 0-6.332 4.794-10.533 10.376-10.533 5.527 0 10.312 4.2 10.312 10.533 0 6.341-4.785 10.542-10.312 10.542zm0-19.248c-4.57 0-8.118 3.584-8.118 8.707 0 4.794 3.099 8.707 8.118 8.707 4.506 0 8.055-3.549 8.055-8.707 0-5.123-3.549-8.707-8.055-8.707z" style="stroke-width:4.49737" transform="matrix(.939 0 0 .939 24.99 -13.795)"/></svg>